<svg version="1.1" xmlns="http://www.w3.org/2000/svg" xmlns:xlink="http://www.w3.org/1999/xlink" width="1656.15616" height="144.14414" viewBox="0,0,1656.15616,144.14414"><g transform="translate(588.07807,-107.92794)"><g stroke="none" stroke-miterlimit="10"><path d="M-536.67188,134.22658h14.54688l35.43749,91.16406h-15.69531l-9.29687,-24.82812h-35.38281l-9.29687,24.82812h-15.69531zM-515.6172,188.8047l-8.47656,-23.07813c-2.40625,-6.48958 -4.10156,-12.21354 -5.08594,-17.17187h-0.4375c-0.94792,4.95833 -2.625,10.68229 -5.03125,17.17188l-8.53125,23.07813zM-481.21876,134.66408h18.48438l22.96875,34.94531l22.96875,-34.94531h18.48437l-32.04687,44.89844l34.61718,45.82812h-18.70312l-25.32031,-35.60156l-25.32031,35.60156h-18.70313l34.61719,-45.82812zM-388.3047,134.66408h38.0625v10.0625h-11.64843v70.60156h11.64843v10.0625h-38.0625v-10.0625h11.64844v-70.60156h-11.64844zM-331.81252,202.42189c7.51042,8.45833 16.8073,12.6875 27.89063,12.6875c5.03125,0 9.05989,-1.0026 12.08593,-3.00781c3.57292,-2.44271 5.35938,-5.83333 5.35938,-10.17188c0,-3.93749 -1.54948,-7.14582 -4.64844,-9.62499c-2.04167,-1.64063 -6.96354,-3.99219 -14.76562,-7.05469l-2.07813,-0.82031l-3.71875,-1.47657c-0.25521,-0.10937 -0.71094,-0.29166 -1.36719,-0.54687c-8.02083,-3.02604 -13.21614,-5.52343 -15.58593,-7.49219c-0.36459,-0.32813 -0.82032,-0.78386 -1.36719,-1.36719c-3.90104,-4.19271 -5.85156,-9.24219 -5.85156,-15.14843c0,-7.61979 2.73437,-13.76302 8.20312,-18.42969c5.72396,-4.88542 13.45313,-7.32812 23.1875,-7.32812c6.78125,0 12.83334,1.0026 18.15625,3.00781c4.22917,1.64062 8.4401,4.15625 12.63281,7.54688l-7.54687,10.5c-6.45313,-6.125 -14.16406,-9.1875 -23.13281,-9.1875c-5.86979,0 -10.13542,1.36719 -12.79688,4.10156c-2.26041,2.33333 -3.39062,5.15885 -3.39062,8.47656c0,3.79167 1.64062,6.81771 4.92187,9.07813c2.07813,1.45833 6.48959,3.39063 13.23438,5.79688l4.375,1.58594c9.625,3.46355 16.22396,6.85417 19.79687,10.17188c4.95833,4.63021 7.4375,10.44531 7.4375,17.44531c0,8.67708 -3.40885,15.4401 -10.22656,20.28906c-5.61459,3.97396 -13.27084,5.96094 -22.96875,5.96094c-15.09375,0 -27.17969,-5.1224 -36.25781,-15.36719zM-201.32813,216.64064c21.40104,-5.39583 32.10156,-17.66406 32.10156,-36.80468c0,-8.34896 -2.15104,-15.53126 -6.45313,-21.54688c-4.8125,-6.78125 -12.14062,-11.13802 -21.98437,-13.07031c-2.15104,16.91667 -5.08594,30.77083 -8.80469,41.5625c-2.55208,7.54687 -5.72395,14.67448 -9.51562,21.38281c-5.46875,9.55208 -11.6849,14.32812 -18.64844,14.32812c-5.17709,0 -9.78907,-2.33333 -13.83594,-7c-2.58854,-2.95312 -4.68489,-6.58072 -6.28906,-10.88281c-2.11459,-5.57812 -3.17188,-11.57551 -3.17188,-17.99218c0,-10.39063 2.86198,-19.96094 8.58594,-28.71094c5.79687,-8.93229 13.32552,-15.42187 22.58594,-19.46875c6.74479,-2.95312 14.14583,-4.42969 22.20312,-4.42969c12.57813,0 23.26042,3.3724 32.04688,10.11719c10.79167,8.27604 16.1875,19.9974 16.1875,35.16406c0,25.41146 -12.85156,41.52604 -38.55469,48.34375zM-209.53127,144.78125c-6.45313,0.72917 -11.84896,2.46094 -16.1875,5.19531c-2.77083,1.78646 -5.52344,4.15625 -8.25781,7.10938c-7.58333,8.38542 -11.375,18.10156 -11.375,29.14843c0,8.05729 1.60417,14.36459 4.8125,18.92188c1.96875,2.80729 3.91927,4.21093 5.85156,4.21093c2.625,0 5.57813,-2.89844 8.85938,-8.69531c8.02083,-14.10937 13.45312,-32.73958 16.29687,-55.89062zM-55.80471,193.45314c-2.55208,7.10937 -6.01562,13.38021 -10.39062,18.8125c6.74479,3.17187 14.36458,7.25521 22.85937,12.25l-7.27343,9.29688c-8.3125,-4.99479 -16.24219,-9.4974 -23.78907,-13.50782c-8.71354,6.23438 -20.125,10.73699 -34.23437,13.50782l-6.01563,-9.95313c11.19271,-1.02083 21.05469,-3.95573 29.58594,-8.80469c-6.48958,-2.95312 -13.14323,-5.66926 -19.96094,-8.14843c2.80729,-4.41146 5.34115,-8.89584 7.60157,-13.45313h-17.22657v-9.73437h21.65625c1.23959,-2.95313 2.57032,-6.30729 3.99219,-10.0625h-22.75l1.09375,6.83594c-3.60937,1.75 -7.25521,3.39062 -10.9375,4.92187v37.73437c0,3.57292 -0.82031,6.08855 -2.46094,7.54688c-1.53125,1.38541 -4.21093,2.07812 -8.03906,2.07812c-3.86458,0 -7.72916,-0.29167 -11.59375,-0.875l-2.24219,-11.75781c0.875,0.10937 2.00521,0.27344 3.39063,0.49219c2.625,0.36458 4.75781,0.54687 6.39844,0.54687c1.23958,0 2.04166,-0.21875 2.40625,-0.65625c0.32812,-0.40104 0.49218,-1.16666 0.49218,-2.29687v-28.27344c-3.5,1.34896 -7.72917,2.80729 -12.6875,4.375l-3.33593,-11.15625c6.48958,-1.71354 11.83072,-3.28125 16.02343,-4.70312v-20.5625h-14.4375v-10.88281h14.4375v-20.17969h11.64844v20.17969h9.95313v10.88281h-9.95313v16.40625c2.47917,-0.94792 4.92188,-1.9323 7.32813,-2.95313l1.47656,-0.60156v-7.05469h16.35156c-1.49479,-5.57812 -3.11719,-10.3724 -4.86719,-14.38281h-8.09375v-9.73437h24.88282v-12.74219h11.75781v12.74219h26.96094v9.73438h-9.84375c-1.23959,4.66667 -2.97136,9.46094 -5.19532,14.38281h17.77344v9.95313h-33.74219c-1.49479,4.08333 -2.78906,7.4375 -3.88281,10.0625h39.04688v9.73437zM-67.89063,193.45314h-17.11719c-1.67709,3.39063 -3.2448,6.34375 -4.70313,8.85938c2.91667,1.02083 6.65365,2.49739 11.21094,4.42968l2.1875,0.92969c3.53646,-4.11979 6.34375,-8.85938 8.42188,-14.21875zM-90.25783,149.32033c1.93229,4.19271 3.64583,8.98698 5.14062,14.38281h12.52344c1.38542,-3.35417 2.98959,-8.14844 4.8125,-14.38281zM-21.67971,167.53125c-4.04687,-6.23437 -8.98698,-12.35937 -14.82031,-18.375l6.50781,-7.98437c1.13021,1.16667 2.13282,2.22396 3.00782,3.17188c3.57291,-5.46875 6.83593,-11.52083 9.78906,-18.15625l9.625,5.03125c-3.20833,5.83333 -7.7474,12.54167 -13.61719,20.125c1.85937,2.40625 3.77344,5.06771 5.74219,7.98438c6.85417,-9.66146 11.53906,-16.46094 14.05469,-20.39844l8.47656,5.96094c-7.40104,10.86458 -15.40364,20.96354 -24.00781,30.29688c6.67187,-0.40104 11.68489,-0.82031 15.03906,-1.25781c-0.21875,-0.65625 -0.60157,-1.80469 -1.14844,-3.44532c-0.32813,-1.02083 -0.91146,-2.57031 -1.75,-4.64844l7.82031,-3.0625c2.66146,5.35937 4.90365,12.1224 6.72657,20.28906v-11.86719h59.33593v22.96875h-10.39062v-13.67187h-38.66406v14.54687h-10.28125v-9.625l-7.60157,3.60938c-0.58333,-2.58855 -1.14844,-4.92188 -1.69531,-7c-1.82291,0.32812 -3.73698,0.63801 -5.74219,0.92968c-1.16667,0.18229 -2.11458,0.32813 -2.84375,0.4375v49.875h-10.66406v-48.50781c-5.17708,0.61979 -10.40885,1.11198 -15.69531,1.47656l-2.13281,-10.11718c1.56771,-0.03647 3.11718,-0.09116 4.64843,-0.16407l3.44532,-0.16406c1.96875,-2.29688 4.24739,-5.04948 6.83593,-8.25781zM32.84374,136.90625v-10.0625h11.21094v10.0625h25.64844v9.625h-25.64844v7.76563h22.58594v9.40625h-54.74219v-9.40625h20.94531v-7.76562h-24.22656v-9.625zM-36.60939,220.03127c2.91667,-8.96875 4.375,-18.52084 4.375,-28.65625l9.73437,1.20312c-0.4375,12.94271 -1.85937,23.66146 -4.26562,32.15625zM-0.89846,214.39845c-1.42187,-8.23958 -3.0625,-15.40364 -4.92187,-21.49218l8.42187,-2.46094c2.40625,6.125 4.375,12.74219 5.90625,19.85156zM40.88279,186.56252h10.55469v32.10156c0,1.38541 0.3099,2.1875 0.92969,2.40625c0.47396,0.18229 1.20313,0.27344 2.1875,0.27344c3.20833,0 5.04948,-0.71094 5.52344,-2.13282c0.58333,-1.78645 0.98437,-6.32551 1.20312,-13.61718l9.625,3.55468c-0.03647,10.28125 -1.20313,16.69792 -3.5,19.25c-2.04167,2.29688 -6.5625,3.44532 -13.5625,3.44532c-6.08854,0 -9.89844,-0.875 -11.42969,-2.625c-1.02083,-1.16667 -1.53125,-3.11719 -1.53125,-5.85157zM1.56249,224.84377c9.51563,-2.51563 15.67709,-6.65365 18.48438,-12.41407c2.1875,-4.375 3.31771,-12.92448 3.39062,-25.64843h10.5c-0.03647,11.66667 -0.69272,19.92448 -1.96875,24.77343c-1.49479,5.72396 -4.57552,10.53646 -9.24219,14.4375c-3.46354,2.84375 -8.20312,5.41407 -14.21875,7.71094zM132.42968,158.07033h39.48437v11.21094h-39.48437v45.71875h49.92969v11.42968h-106.42188v-11.42968h43.25781v-88.15625h13.23438zM276.74998,204.77345c4.84896,6.63542 11.30209,12.04948 19.35938,16.24219l-6.94532,10.77344c-8.89583,-5.17709 -15.95052,-11.79427 -21.16406,-19.85156c-5.57813,-8.56771 -9.53386,-18.68489 -11.86719,-30.35156h-11.15625v36.03906c7.32813,-2.00521 14.56511,-4.39324 21.71094,-7.16407l1.3125,10.22657c-12.03125,5.21354 -24.97395,9.35156 -38.82812,12.41406l-4.15625,-10.77344c4.55729,-0.94791 7.51041,-1.5677 8.85937,-1.85937v-89.57813h52.60938v50.3125l7.82031,7.10938c-6.05209,6.78125 -11.90365,12.26822 -17.55469,16.46093zM271.93748,196.40627c5.43229,-5.39583 9.75261,-10.33594 12.96094,-14.82031h-17.9375c1.34896,5.90625 3.00781,10.84635 4.97656,14.82031zM275.27342,140.40625h-30.29688v11.21094h30.29688zM275.27342,160.58595h-30.29688v11.70313h30.29688zM219.05468,165.89064c6.85417,8.85938 10.28125,18.26563 10.28125,28.21875c0,5.21354 -0.82031,9.02344 -2.46094,11.42969c-1.89583,2.73437 -5.57812,4.10156 -11.04687,4.10156c-3.17188,0 -6.19792,-0.23698 -9.07813,-0.71094l-2.24219,-11.26562l2.24219,0.27344c3.57292,0.47396 6.05209,0.71094 7.4375,0.71094c1.82292,0 2.89844,-0.45573 3.22656,-1.36719c0.32813,-0.83854 0.49219,-2.27864 0.49219,-4.32031c0,-8.82292 -3.3724,-17.39063 -10.11719,-25.70313c3.39063,-7.83854 6.17969,-16.64323 8.36719,-26.41406h-12.74219v92.42187h-11.32031v-102.70312h31.28125l5.6875,4.8125c-2.55208,11.04688 -5.88802,21.21875 -10.00781,30.51563zM309.67187,228.56252c-1.38542,-12.39583 -2.07813,-24.71875 -2.07813,-36.96875c0,-21 1.54948,-40.94271 4.64844,-59.82813l12.03125,1.25781c-2.95313,16.33333 -4.42969,34.76302 -4.42969,55.28906c0,13.78125 0.76563,26.66927 2.29688,38.66406zM342.48437,141.9375h52.55468v11.64844h-52.55468zM398.7578,221.83595c-7.29167,1.13021 -15.95052,1.69532 -25.97656,1.69532c-25.19271,0 -37.78906,-7.40104 -37.78906,-22.20313c0,-5.86979 1.56771,-10.99218 4.70312,-15.36718l10.33594,4.59375c-1.96875,2.77083 -2.95312,5.88802 -2.95312,9.35156c0,4.26562 2.13281,7.20051 6.39843,8.80468c4.73959,1.82292 11.21094,2.73438 19.41407,2.73438c8.85937,0 17.0625,-0.58333 24.60937,-1.75zM437.20312,209.31252c2.95313,3.24479 6.19793,5.66926 9.7344,7.27343c5.9062,2.69792 14.12753,4.04688 24.664,4.04688h47.4688c-1.42187,2.55208 -2.66147,6.01562 -3.7188,10.39062h-44.1875c-12.3958,0 -21.82027,-1.65885 -28.2734,-4.97656c-3.39067,-1.71354 -6.8542,-4.5026 -10.3906,-8.36719c-5.90627,6.92709 -11.24743,12.23178 -16.0235,15.91407l-6.289,-11.04688c4.92187,-2.88021 10.0807,-6.54427 15.4765,-10.99219v-28.21874h-14.6015v-10.77344h26.1406zM471.21872,135.70314v-8.85937h11.6485v8.85938h24.9921v8.53125h-24.9921v7.10938h31.3359v8.75h-12.3594c-1.20313,2.98958 -2.8073,6.23438 -4.8125,9.73438h14.0547v8.3125h-28.2187v6.17969h25.3203v7.92969h-25.3203v6.61719h31.6093v8.64062h-31.6093v10.9375h-11.6485v-10.9375h-30.5703v-8.64062h30.5703v-6.61719h-24.3906v-7.92969h24.3906v-6.17969h-27.2344v-8.3125h13.7813c-1.31253,-3.53646 -2.8438,-6.78125 -4.5938,-9.73437h-12.3047v-8.75h30.3516v-7.10937h-23.9531v-8.53125zM489.70312,160.09375h-24.8281c0.10933,0.18229 0.3463,0.65625 0.7109,1.42188c1.27607,2.51563 2.44273,5.28646 3.5,8.3125h16.1875c1.89587,-3.53646 3.37243,-6.78125 4.4297,-9.73437zM429.87501,155.9375c-5.25,-8.75 -10.8099,-16.02344 -16.6797,-21.82031l9.1875,-6.61719c5.32287,4.95833 11.08327,11.90365 17.2812,20.83594zM533.61722,131.4375h12.9062v65.1875c0,13.74479 7.21877,20.61718 21.6563,20.61718c9.5156,0 17.31767,-4.39323 23.4062,-13.17968c3.93753,-5.65104 7.474,-14.40104 10.6094,-26.25l11.1015,6.72656c-3.71873,13.16146 -8.18487,23.00521 -13.3984,29.53125c-8.20313,10.17187 -18.8672,15.25781 -31.9922,15.25781c-13.70833,0 -23.3698,-4.22917 -28.9844,-12.6875c-3.5364,-5.28646 -5.3046,-12.10417 -5.3046,-20.45312zM623.90622,140.13283c33.54167,-0.51042 65.2422,-1.36719 95.1016,-2.57031l0.6562,10.88281c-13.16147,0.65625 -23.40623,2.66146 -30.7343,6.01563c-7,3.20833 -12.6146,7.65625 -16.8438,13.34375c-4.81247,6.45312 -7.2187,13.63541 -7.2187,21.54687c0,7.875 2.73437,13.78125 8.2031,17.71875c6.2708,4.48437 15.8958,7.5651 28.875,9.24219l-2.5703,12.30468c-16.91667,-2.26041 -28.82033,-6.63541 -35.711,-13.125c-7.401,-6.92708 -11.1015,-15.53124 -11.1015,-25.81249c0,-9.33333 3.35417,-18.04688 10.0625,-26.14063c4.8854,-5.94271 11.5755,-10.71875 20.0703,-14.32812c-15.05733,0.51042 -34.4714,1.36719 -58.2422,2.57031zM784.85152,198.26564c-6.7448,19.83333 -14.3099,29.75 -22.6953,29.75c-5.97913,0 -11.10153,-4.19271 -15.3672,-12.57812c-3.2812,-6.48959 -5.5416,-13.63542 -6.7812,-21.4375c-1.4948,-9.47917 -2.2422,-21.65625 -2.2422,-36.53125c0,-6.45312 0.23697,-13.38021 0.7109,-20.78125l12.8516,0.98438c-0.47393,7.40104 -0.7109,14.4375 -0.7109,21.10938c0,23.40625 2.1875,39.72135 6.5625,48.94531c1.7864,3.79167 3.46347,5.6875 5.0312,5.6875c1.02087,0 2.2969,-1.16667 3.8281,-3.5c3.13547,-4.73959 6.16153,-11.26563 9.0782,-19.57812zM819.46872,211.28127c-1.85933,-15.38542 -4.13797,-27.81771 -6.8359,-37.29688c-3.28127,-11.48437 -7.09117,-22.0026 -11.4297,-31.55469l11.6484,-2.84375c6.01567,11.92187 10.48183,23.40625 13.3985,34.45313c2.4062,8.96875 4.39317,20.38021 5.9609,34.23437zM891.38282,129.41408h12.0859v13.78125h34.3985v10.39063h-34.3985v13.01563h32.4844v10.28125h-32.4844v16.89844c12.9792,4.375 25.77607,10.95573 38.3906,19.74218l-6.4531,10.39063c-9.55207,-7.14583 -20.1979,-13.45313 -31.9375,-18.92188c-0.29167,6.23438 -1.4948,11.06511 -3.6094,14.49219c-3.68227,5.94271 -10.93747,8.91406 -21.7656,8.91406c-8.34893,0 -15.05727,-1.56771 -20.125,-4.70312c-5.651,-3.5 -8.4765,-8.23958 -8.4765,-14.21875c0,-7.14583 3.80987,-12.43229 11.4296,-15.85937c5.1042,-2.26042 11.73963,-3.39063 19.9063,-3.39063c3.20833,0 6.72657,0.25521 10.5547,0.76563v-14.10938h-38.7735v-10.28125h38.7735v-13.01562h-41.125v-10.39062h41.125zM891.38282,201.16408c-4.33853,-0.91146 -8.4948,-1.36719 -12.4688,-1.36719c-4.84893,0 -8.78643,0.71094 -11.8125,2.13281c-3.60933,1.71355 -5.414,4.15626 -5.414,7.32813c0,2.66146 1.40363,4.8125 4.2109,6.45312c2.84373,1.67709 6.6354,2.51563 11.375,2.51563c5.6146,0 9.4792,-1.49479 11.5938,-4.48438c1.67707,-2.33333 2.5156,-5.8151 2.5156,-10.44531zM1007.48431,129.08595h12.3047v15.09375h32.2657v10.55469h-32.2657v23.40625c1.27607,4.48438 1.9141,8.47657 1.9141,11.97657c0,12.97916 -2.86197,22.51301 -8.5859,28.60156c-6.2344,6.67187 -15.62243,11.28385 -28.1641,13.83593l-6.2344,-9.29687c9.7344,-1.85937 16.95317,-4.48437 21.6563,-7.875c4.41147,-3.20833 7.3828,-7.5651 8.914,-13.07031c-3.901,4.26562 -8.54943,6.39843 -13.9453,6.39843c-6.05207,0 -10.9557,-1.71354 -14.7109,-5.14062c-4.41147,-4.04687 -6.6172,-9.91666 -6.6172,-17.60937c0,-4.04688 0.96613,-7.94792 2.8984,-11.70313c1.27607,-2.40625 2.8438,-4.41146 4.7032,-6.01562c4.30207,-3.64583 9.4609,-5.46875 15.4765,-5.46875c3.82813,0 7.29167,0.91146 10.3906,2.73438v-10.77344h-53.9765v-10.55469h53.9765zM1007.92181,185.85158v-2.02344c0,-2.33333 -0.54687,-4.39323 -1.6406,-6.17968c-2.04167,-3.35417 -4.9948,-5.03125 -8.8594,-5.03125c-1.96873,0 -3.80987,0.54687 -5.5234,1.64062c-4.0104,2.51563 -6.0156,6.38021 -6.0156,11.59375c0,3.28125 0.72917,6.05209 2.1875,8.3125c2.04167,3.13542 5.04947,4.70313 9.0234,4.70313c3.6094,0 6.4714,-1.6224 8.586,-4.86719c1.49473,-2.29687 2.2421,-5.01302 2.2421,-8.14844z" fill="#ee4d4d" stroke-width="1"/><path d="M-588.07807,252.07209v-144.14414h1656.15616v144.14414z" fill="none" stroke-width="0"/></g></g></svg>