<svg xmlns="http://www.w3.org/2000/svg" id="svg1" version="1.1" height="200" width="990">
  <defs id="defs1"></defs>
  <rect id="rect1" stroke="none" fill="none" height="200" width="990" y="0" x="0"></rect>
  <path aria-label="石狩湾" style="font-size:100px;font-family:'BIZ UDPGothic';fill:#ff0000" id="text1" d="m 30.712891,107.17773 h 57.324218 v 52.34375 h -8.203125 v -7.32421 H 29.736328 v 7.32421 H 21.630859 V 118.75 q -7.03125,7.8125 -15.3320309,14.35547 L 1.5136719,126.70898 Q 27.294922,107.22656 36.71875,77.880859 H 5.3222656 V 70.800781 H 95.3125 v 7.080078 h -50 Q 40.380859,92.822266 30.712891,107.17773 Z m -0.976563,6.88477 v 31.05469 H 79.833984 V 114.0625 Z m 94.189452,-2.44141 q -7.03125,15.42969 -17.43164,26.36719 l -4.39453,-6.39648 q 12.06055,-12.10938 20.45898,-31.20117 -1.07421,-5.175786 -2.05078,-8.300786 -6.25,7.177734 -14.01367,13.720706 l -4.29687,-6.201175 q 8.44726,-6.445313 14.74609,-14.0625 l 0.58594,-0.732422 q -3.95508,-8.007812 -11.13282,-14.013672 l 5.32227,-4.101562 q 6.25,5.078125 10.49805,11.767578 3.90625,-5.908203 7.4707,-13.476563 l 6.49414,3.808594 q -4.98047,9.326172 -10.35156,16.601563 6.49414,14.941409 6.49414,43.310549 0,15.625 -2.29492,22.94922 -1.46485,4.58984 -4.63867,6.29882 -2.29493,1.22071 -5.95704,1.22071 -4.58984,0 -9.81445,-0.87891 l -1.41601,-7.91016 q 5.32226,1.12305 9.71679,1.12305 3.41797,0 4.34571,-1.95312 2.19726,-4.39453 2.19726,-21.97266 0,-8.39844 -0.53711,-15.9668 z m 44.58008,-33.642574 h 26.41601 V 98.779297 H 187.5 V 84.570312 h -43.35938 v 14.208985 h -7.42187 V 77.978516 h 24.07227 V 64.501953 h 7.71484 z m 13.18359,27.832034 h 15.82032 v 6.59179 h -15.82032 v 38.1836 q 0,4.6875 -2.19726,6.49414 -2.09961,1.70898 -7.27539,1.70898 -4.24805,0 -11.96289,-0.58594 l -1.46485,-7.71484 q 7.37305,1.02539 12.74414,1.02539 1.9043,0 2.34375,-1.17187 0.29297,-0.73243 0.29297,-2.05078 v -35.88868 h -39.59961 v -6.59179 h 39.59961 V 92.626953 h 7.51953 z m -26.51367,35.30273 q -6.00586,-11.37695 -12.89062,-19.82422 l 6.29882,-4.0039 q 5.66407,6.29882 13.33008,19.09179 z M 265.08789,73.583984 h 32.12891 v 6.298828 h -23.38868 v 19.189454 q 0,3.076174 -1.5625,4.492184 -1.5625,1.41602 -5.66406,1.41602 -5.02929,0 -8.49609,-0.48828 l -1.12305,-6.298831 q 4.39453,0.683594 7.4707,0.683594 1.61133,0 1.9043,-1.171875 0.14649,-0.537109 0.14649,-1.416016 v -16.40625 h -10.64454 q -0.43945,9.91211 -2.24609,14.794922 -2.63672,6.982426 -12.01172,11.914066 l -5.07812,-4.83399 q 8.49609,-4.052732 10.69336,-10.058591 1.46484,-4.003907 1.61132,-11.816407 h -21.82617 v -6.298828 h 30.32227 v -9.082031 h 7.76367 z m 24.60938,35.009766 v 18.79883 h -49.60938 q -0.53711,3.90625 -1.31836,7.32422 h 55.32227 q -0.97657,12.30468 -3.41797,18.01757 -1.66016,3.95508 -5.95703,5.56641 -3.32032,1.2207 -9.22852,1.2207 -7.91016,0 -15.86914,-0.78125 l -1.70898,-7.03125 q 10.69336,1.12305 17.48046,1.12305 4.19922,0 5.66407,-0.97656 2.58789,-1.70899 4.15039,-11.03516 h -47.94922 q -0.73242,2.68555 -1.66016,5.71289 l -7.71484,-1.80664 q 2.92969,-8.64258 5.32226,-23.24218 h 48.68165 v -6.98243 h -52.39258 v -5.9082 z M 219.18945,86.083984 q -6.29883,-8.349609 -13.96484,-15.08789 l 5.37109,-4.980469 q 7.37305,5.810547 14.20899,14.501953 z m -3.07617,25.439456 q -7.4707,-9.13086 -14.50195,-15.136721 l 5.32226,-5.273438 q 7.56836,6.103516 14.79493,14.501949 z m -12.30469,41.69922 q 8.4961,-12.74414 15.91797,-33.39844 l 6.00586,4.39453 q -6.39648,19.28711 -15.42969,34.66797 z m 87.89063,-50.14649 Q 284.86328,93.261719 276.9043,85.791016 l 5.32226,-3.90625 q 9.08203,7.666015 15.28321,16.699218 z m -69.28711,-4.589842 q 8.44726,-6.054687 13.62305,-15.478516 l 6.29882,2.587891 q -5.22461,10.546875 -14.50195,17.480467 z"></path>
</svg>
