<svg xmlns="http://www.w3.org/2000/svg" id="svg1" version="1.1" height="200" width="990">
  <defs id="defs1"></defs>
  <rect id="rect1" stroke="none" fill="none" height="200" width="990" y="0" x="0"></rect>
  <path aria-label="遠州灘" style="font-size:100px;font-family:'BIZ UDPGothic';fill:#ff0000" id="text1" d="m 25,138.7207 q 4.296875,4.78516 10.302734,7.51953 8.837891,3.95508 23.486328,3.95508 h 39.59961 q -1.416016,2.97852 -2.490235,6.88477 H 58.789062 q -16.455078,0 -25.732421,-4.34571 Q 27.197266,150 21.923828,144.48242 l -0.439453,0.48828 q -7.568359,8.83789 -14.8925781,14.59961 l -4.296875,-7.08008 Q 10.498047,146.97266 17.480469,140.47852 V 114.20898 H 2.4902344 v -6.7871 H 25 Z m 60.986328,-20.89843 4.785156,3.36914 q -5.224609,5.41992 -10.986328,9.71679 6.054688,2.78321 13.085938,6.29883 l -4.785157,6.00586 q -14.697265,-8.39844 -23.68164,-12.59766 v 17.1875 h -7.421875 v -21.875 q -10.498047,7.91016 -22.998047,12.98829 l -4.6875,-5.51758 q 16.113281,-5.85938 27.978516,-15.18555 H 36.376953 V 97.509766 h 49.609375 z m -2.392578,0.39062 H 66.796875 q -0.732422,0.68359 -2.392578,2.05078 v 4.10156 q 4.248047,1.66016 9.130859,3.75977 5.322266,-4.49219 10.058594,-9.91211 z M 43.798828,103.02734 v 9.66797 h 34.667969 v -9.66797 z M 56.982422,72.216797 v -7.714844 h 7.421875 v 7.714844 H 89.306641 V 78.125 H 64.404297 v 7.373047 h 30.371094 v 6.005859 H 28.710937 V 85.498047 H 56.982422 V 78.125 H 33.789062 V 72.216797 Z M 20.703125,88.378906 Q 13.427734,77.978516 6.2011719,70.996094 L 11.71875,66.503906 q 7.421875,6.640625 14.892578,16.699219 z m 82.617185,34.619144 q 6.10352,-12.06055 7.42188,-31.787113 l 6.78711,0.976563 q -0.92774,21.28906 -7.8125,34.81445 z m 38.37891,0.68359 Q 138.7207,104.98047 134.7168,93.505859 l 6.20117,-3.027343 q 4.78515,12.841794 7.42187,29.931644 z M 151.9043,70.410156 h 7.8125 v 83.691404 h -7.8125 z m 20.80078,51.806644 q -3.71094,-18.16407 -8.59375,-29.736331 l 6.29883,-3.076172 q 5.85937,14.062503 9.0332,29.199223 z m 9.91211,-55.224613 h 7.91015 v 92.529293 h -7.91015 z m -59.47266,0.927735 h 7.91016 v 44.189458 q 0,16.74804 -3.95508,27.97851 -3.51563,9.86328 -11.66992,18.89648 l -6.68946,-5.07812 q 14.4043,-14.99023 14.4043,-41.79687 z m 121.67969,23.291015 v 4.882813 h 13.81836 v 18.4082 h -13.81836 v 5.51758 h 14.9414 v 5.81055 h -14.99023 q -0.14648,3.07617 -0.43945,5.85937 h 18.21289 v 5.71289 H 243.4082 q -0.24414,0.87891 -0.53711,1.9043 9.52149,6.15234 18.16407,13.08594 l -4.58985,5.71289 q -7.32422,-6.68945 -15.91797,-13.13477 -4.78515,9.42383 -16.21093,14.84375 l -4.6875,-5.71289 q 13.42773,-5.27344 16.8457,-16.69922 h -16.06445 v -5.71289 h 17.28515 q 0.43946,-3.125 0.53711,-5.85937 h -14.84375 v -5.81055 h 14.94141 v -5.51758 h -13.72071 v -18.4082 h 13.62305 v -4.882813 h -8.30078 V 79.6875 h -7.51953 v -5.810547 h 7.51953 v -9.375 h 6.49414 v 9.375 h 10.40039 v -9.375 h 6.49414 v 9.375 h 8.83789 V 79.6875 h -8.83789 v 11.523437 z m -6.29883,10.302733 h -7.91016 v 7.76367 h 7.91016 z m 6.10352,0 v 7.76367 h 8.10546 v -7.76367 z m 2.19726,-21.82617 h -10.40039 v 6.298828 h 10.40039 z m 26.02539,3.320312 h 7.22656 q 2.49024,-9.033203 3.95508,-18.115234 l 6.68946,1.318359 q -1.95313,9.570313 -4.54102,16.796875 h 10.9375 v 6.591797 h -10.88867 v 14.697271 h 9.17969 v 6.39648 h -9.17969 v 14.50195 h 9.17969 v 6.49414 h -9.17969 v 16.01563 h 11.8164 v 6.68945 h -25.34179 v 5.07813 h -6.39649 v -57.08008 q -1.5625,3.95508 -3.51562,8.00781 l -3.56445,-6.5918 q 7.4707,-16.650387 10.40039,-39.501949 l 6.98242,0.976562 Q 275,74.609375 273.14453,81.933594 Z m 7.08008,6.591797 h -7.22656 v 14.697271 h 7.22656 z m 0,21.093751 h -7.22656 v 14.50195 h 7.22656 z m -7.22656,20.99609 v 16.01563 h 7.22656 v -16.01563 z m -56.5918,-45.703122 q -5.22461,-7.910156 -12.5,-15.478516 l 5.41992,-4.589843 q 6.5918,6.103515 12.59766,14.794922 z m -2.49023,24.707032 q -6.78711,-9.47266 -12.5,-15.087891 l 5.51757,-4.6875 q 6.73829,6.396484 12.69532,14.599611 z m -11.18164,43.50586 q 6.34765,-13.52539 11.08398,-34.17969 l 6.5918,3.36914 q -3.85742,19.53125 -10.98633,35.79102 z"></path>
</svg>
