<svg xmlns="http://www.w3.org/2000/svg" id="svg1" version="1.1" height="200" width="990">
  <defs id="defs1"></defs>
  <rect id="rect1" stroke="none" fill="none" height="200" width="990" y="0" x="0"></rect>
  <path aria-label="大隅半島東方沖" style="font-size:100px;font-family:'BIZ UDPGothic';fill:#ff0000" id="text1" d="m 55.029297,97.998047 q 4.492187,16.357423 16.65039,31.201173 11.132813,13.52539 25.732422,21.58203 l -5.078125,7.42187 Q 75.390625,148.04687 64.160156,132.8125 56.103516,121.92383 50.927734,107.61719 42.626953,143.79883 9.1796875,158.69141 l -5.1757813,-6.5918 Q 23.730469,143.99414 34.912109,126.80664 43.701172,113.23242 45.3125,97.998047 H 4.8828125 V 90.380859 H 45.605469 V 65.478516 h 8.105468 v 24.902343 h 41.40625 v 7.617188 z M 175.83008,135.44922 q -1.22071,-3.61328 -3.125,-7.66602 l 5.02929,-2.39257 q 4.05274,8.15429 7.37305,19.09179 l -5.9082,2.92969 q -0.58594,-3.17383 -1.66016,-6.54297 -14.50195,2.68555 -30.27344,4.05273 l -1.70898,-6.83593 q 9.0332,-0.43946 15.57617,-1.02539 v -14.64844 h -18.84765 v 37.10937 h -7.08008 v -43.60351 h 25.92773 V 107.8125 H 139.79492 V 69.287109 h 50 V 107.8125 h -22.07031 v 8.10547 h 27.19726 v 35.20508 q 0,4.24804 -2.24609,6.00586 -2.00195,1.51367 -6.49414,1.51367 -3.80859,0 -9.76562,-0.63477 l -1.22071,-7.1289 q 7.66602,1.02539 10.25391,1.02539 2.29492,0 2.29492,-2.88086 v -26.61133 h -20.01953 v 14.01367 q 0.39062,-0.0488 0.78125,-0.0977 3.66211,-0.34179 7.32422,-0.8789 z M 146.77734,75.585937 v 9.619141 h 14.35547 v -9.619141 z m 0,15.722657 v 10.302736 h 14.35547 V 91.308594 Z m 35.9375,10.302736 V 91.308594 h -14.99023 v 10.302736 z m 0,-16.406252 v -9.619141 h -14.99023 v 9.619141 z M 105.71289,68.896484 h 23.92578 l 3.8086,3.369141 q -4.34571,15.771484 -9.86329,27.929685 8.88672,11.66992 8.88672,25.78125 0,5.56641 -1.41601,8.69141 -2.09961,4.58984 -8.44727,4.58984 -3.51562,0 -6.34765,-0.58594 l -1.61133,-7.27539 q 3.46679,0.6836 6.78711,0.6836 2.53906,0 3.27148,-1.9043 0.63477,-1.66016 0.63477,-5.41992 0,-12.54883 -8.78907,-23.87695 5.22461,-11.962894 8.59375,-25.09766 h -12.10937 v 83.69141 h -7.32422 z m 139.99023,31.00586 V 64.501953 h 7.91016 v 35.400391 h 37.98828 v 7.080076 h -37.98828 v 15.625 h 43.89649 v 7.17774 h -43.89649 v 29.6875 h -7.91016 v -29.6875 h -43.21289 v -7.17774 h 43.21289 v -15.625 h -37.30468 v -7.080076 z m -20.8496,-3.710938 Q 218.75,82.763672 211.66992,73.095703 l 7.32422,-3.710937 q 8.10547,11.71875 13.47656,22.90039 z m 41.8457,-3.173828 q 7.66601,-11.474609 12.79297,-24.707031 l 8.10547,3.076172 q -5.81055,13.134765 -13.81836,24.902343 z m 101.31836,56.201172 h -53.8086 v 5.71289 h -7.71484 v -23.0957 h 7.71484 v 11.18164 h 19.0918 v -14.69727 h -19.0918 V 73.291016 h 23.97461 q 3.36914,-4.931641 5.41993,-9.179688 l 8.6914,2.001953 q -2.39258,3.515625 -5.46875,7.177735 h 35.25391 v 30.517574 h -59.96094 v 6.00586 h 75.3418 v 6.10352 h -75.3418 v 6.29883 h 70.94727 q -0.73243,23.87695 -3.32032,30.71289 -1.5625,4.19922 -5.51757,5.66406 -2.5879,0.92773 -6.83594,0.92773 -6.15235,0 -11.76758,-0.8789 l -1.61133,-7.22656 q 6.73828,1.02539 12.10938,1.02539 4.24804,0 5.37109,-1.95313 2.24609,-3.90625 3.36914,-22.16797 h -43.94531 v 14.69727 h 19.58008 v -11.18164 h 7.51953 z M 322.11914,79.296875 v 6.298828 h 52.09961 v -6.298828 z m 0,12.011719 v 6.689453 h 52.09961 v -6.689453 z m 139.20898,35.302736 q 14.01368,12.84179 36.76758,20.50781 l -4.73633,6.98242 q -10.54687,-3.95508 -18.31054,-8.54492 -12.10938,-7.22656 -21.53321,-18.06641 v 32.03125 h -7.71484 v -31.83593 q -5.76172,7.51953 -14.30664,14.20898 -10.88867,8.49609 -24.31641,13.81836 l -4.78515,-6.29883 q 21.97265,-8.00781 35.79101,-22.80273 H 411.57227 V 87.792969 h 34.22851 v -8.007813 h -41.74805 v -6.591797 h 41.74805 v -8.691406 h 7.71484 v 8.691406 h 42.38282 v 6.591797 h -42.38282 v 8.007813 h 34.76563 V 126.61133 Z M 445.80078,94.091797 h -26.41601 v 9.814453 h 26.41601 z m 7.71484,0 v 9.814453 h 27.05079 v -9.814453 z m -7.71484,15.917973 h -26.41601 v 10.30273 h 26.41601 z m 7.71484,0 v 10.30273 h 27.05079 v -10.30273 z m 91.94336,-21.044926 q 0,7.324218 -0.92773,17.041016 h 39.4043 q -0.6836,32.91016 -3.75977,43.60351 -1.26953,4.49219 -4.83398,6.34766 -3.02735,1.5625 -9.08203,1.5625 -8.39844,0 -15.33204,-0.92773 l -1.31836,-8.00782 q 10.15625,1.31836 16.3086,1.31836 4.05273,0 5.32226,-1.70898 1.07422,-1.46484 2.14844,-8.49609 1.5625,-9.96094 2.14844,-26.70899 h -31.93359 q -1.80665,11.37695 -5.76172,19.28711 -7.91016,15.91797 -26.02539,25.73242 l -5.61524,-6.29883 q 19.38477,-10.15625 25.58594,-26.36718 5.17578,-13.57422 5.56641,-36.376956 h -33.54493 v -7.177735 h 41.69922 V 64.501953 h 8.00781 v 17.285156 h 42.67579 v 7.177735 z m 113.23243,-3.66211 V 64.501953 h 7.71484 v 20.800781 h 27.7832 v 40.478516 h -27.7832 v 33.69141 h -7.71484 v -33.69141 h -26.9043 V 85.302734 Z m -19.38477,6.982422 v 26.513674 h 19.38477 V 92.285156 Z m 47.26563,26.513674 V 92.285156 H 666.40625 V 118.79883 Z M 621.77734,86.621094 q -6.54297,-8.34961 -15.2832,-15.527344 l 5.32227,-5.273438 q 8.30078,6.201172 15.67382,14.990235 z m -3.66211,25.488286 q -7.66601,-8.8379 -15.91796,-15.527349 l 5.41992,-5.46875 q 8.39843,6.201172 16.16211,14.990239 z m -13.7207,40.57617 q 9.52149,-12.69532 17.48047,-32.86133 l 6.29883,5.07812 q -7.32422,19.14063 -17.08985,33.69141 z"></path>
</svg>
