<svg xmlns="http://www.w3.org/2000/svg" id="svg1" version="1.1" height="200" width="1096">
  <defs id="defs1"></defs>
  <rect id="rect1" stroke="none" fill="none" height="200" width="1096" y="0" x="0"></rect>
  <path aria-label="9" style="font-weight:bold;font-size:110px;font-family:'BIZ UDPGothic';fill:#ff0000" id="text1" d="m 58.652344,111.7041 q -2.900391,4.61914 -7.680664,7.41211 -6.499024,3.70606 -14.663086,3.70606 -11.977539,0 -20.302735,-7.57325 -9.0771481,-8.21777 -9.0771481,-21.860348 0,-12.353516 7.1435551,-20.678711 9.506836,-11.171875 25.029296,-11.171875 16.542969,0 25.673829,11.547851 8.271484,10.366211 8.271484,30.346683 0,19.33593 -8.916016,32.06543 -6.660156,9.50683 -19.282226,14.82422 -8.862305,3.70605 -22.075196,5.85449 l -5.961914,-11.87012 q 18.959961,-1.66504 28.950196,-8.91602 10.90332,-7.94921 13.427734,-23.68652 z M 39.047852,73.085937 q -8.164063,0 -13.320313,6.176758 -4.404297,5.263672 -4.404297,13.642578 0,8.002927 4.296875,12.836917 5.209961,5.96191 13.105469,5.96191 9.18457,0 14.394531,-6.76758 4.189453,-5.37109 4.189453,-11.762692 0,-7.949219 -3.974609,-13.15918 -5.263672,-6.928711 -14.287109,-6.928711 z"></path>
</svg>
