<svg xmlns="http://www.w3.org/2000/svg" id="svg1" version="1.1" height="200" width="1096">
  <defs id="defs1"></defs>
  <rect id="rect1" stroke="none" fill="none" height="200" width="1096" y="0" x="0"></rect>
  <path aria-label="佐渡付近" style="font-weight:bold;font-size:110px;font-family:'BIZ UDPGothic';fill:#ff0000" id="text1" d="M 26.479492,130.39551 Q 36.416016,119.65332 44.741211,101.82129 48.125,94.570312 51.079102,83.774414 H 32.763672 V 73.085937 H 53.603516 Q 55.698242,62.93457 56.71875,55.361328 l 11.708984,1.772461 q -1.074218,7.412109 -2.846679,15.952148 H 105.48828 V 83.774414 H 63.056641 l -0.375977,1.342773 q -3.168945,11.870118 -7.304687,21.430663 h 45.708003 v 10.09766 H 78.417969 v 28.84277 h 28.789061 v 10.68848 H 36.040039 V 145.48828 H 66.547852 V 116.64551 H 50.43457 q -7.680664,13.96484 -16.811523,23.31054 l -7.143555,-8.59375 v 29.32618 H 15.039063 v -55.32227 q -3.598633,6.23047 -8.7011724,13.37402 L 0.96679688,106.7627 Q 9.6679688,94.570312 15.898438,78.081055 19.443359,68.735352 23.310547,55.146484 l 11.44043,2.84668 q -3.920899,13.535156 -8.271485,24.0625 z M 200.18066,74.643555 v 8.701172 h 15.41504 v 8.701171 H 200.18066 V 108.15918 H 165.42969 V 92.045898 h -10.68848 v 4.619141 q 0,24.223631 -2.36328,37.543941 -2.63184,14.50196 -10.58106,26.64063 l -8.91601,-8.05664 q 5.31738,-9.02344 7.51953,-17.40235 3.49121,-13.48144 3.49121,-38.725581 V 65.620117 h 28.89649 v -9.667969 h 11.44043 v 9.667969 h 30.23925 v 9.023438 z m -10.58105,0 h -13.69629 v 8.701172 h 13.69629 z m -24.16992,0 h -10.68848 v 8.701172 h 10.68848 z m 24.16992,17.402343 h -13.69629 v 8.540042 h 13.69629 z m 3.75976,49.521482 q 9.50684,4.83399 24.97559,8.54004 l -5.58594,10.25879 q -15.57617,-4.4043 -28.03711,-12.2998 -11.76269,7.73437 -29.27246,13.15918 l -5.85449,-9.66797 Q 165,148.44238 176.54785,141.78223 168.49121,134.2627 162.74414,123.9502 h -6.33789 v -9.23829 h 49.41406 l 5.47852,5.15625 q -8.27149,13.26661 -17.93946,21.69922 z m -8.54003,-5.58593 q 7.62695,-6.28418 11.44043,-12.03125 h -22.77344 q 4.51172,6.23046 11.33301,12.03125 z M 131.00098,80.927734 q -6.06934,-8.701172 -15.25391,-16.704101 l 8.11035,-7.519531 q 7.73438,5.800781 15.84473,15.844726 z m -3.16895,27.607426 q -7.73437,-10.258793 -15.7373,-17.402348 l 8.27148,-7.680664 q 8.59375,6.928711 16.16699,16.596682 z m -14.77051,43.66699 q 9.07715,-15.03906 16.86524,-37.38281 l 9.56054,6.12304 q -6.12304,19.87305 -16.48925,39.53125 z M 249.91699,85.976562 V 160.47363 H 238.26172 V 105.3125 q -4.35059,6.12305 -10.09766,12.67578 l -6.06933,-11.54785 q 10.90332,-12.084961 18.6914,-28.144532 4.72657,-9.721679 9.45313,-23.203125 l 11.22558,3.061524 q -4.88769,14.716797 -11.54785,27.822265 z M 311.09375,81.25 h 16.16699 v 10.795898 h -16.16699 v 56.396482 q 0,7.08985 -3.4375,9.45313 -2.52441,1.77246 -9.50684,1.77246 -8.54004,0 -17.50976,-0.9668 l -2.30957,-11.76269 q 9.56054,1.39648 17.83203,1.39648 2.25586,0 2.73926,-0.9668 0.32226,-0.69824 0.32226,-2.30957 V 92.045898 H 255.28809 V 81.25 h 43.93554 V 57.832031 h 11.87012 z m -33.99902,52.0459 q -6.06934,-16.16699 -14.98536,-29.48731 l 10.25879,-5.96191 q 9.66797,14.2334 15.52246,29.16504 z m 83.25195,2.73926 q 4.29687,4.99511 9.66797,7.41211 8.80859,3.9746 23.0957,3.9746 h 45.76172 q -1.93359,3.65235 -3.59863,10.47364 h -42.7002 q -18.47656,0 -28.30566,-5.80078 -4.02832,-2.417 -8.86231,-7.89551 -0.37597,0.42969 -0.91308,1.07422 -7.89551,9.3457 -15.6836,15.2539 l -6.49902,-11.01074 q 8.54004,-5.10254 16.48926,-11.54785 v -26.5332 h -15.62988 v -10.58106 h 27.17773 z m 13.96484,-71.274418 2.84668,-0.214844 q 24.86817,-1.71875 44.6875,-7.358398 l 8.37891,9.453125 q -20.83984,5.478516 -44.47266,7.412109 v 13.911133 h 49.73633 V 98.4375 h -18.04687 v 43.77441 H 405.57129 V 98.4375 h -19.81934 q -0.26855,17.24121 -2.57812,27.44629 -2.09473,9.39941 -6.875,16.86523 l -9.88281,-7.46582 q 5.31738,-8.27148 6.82128,-20.51757 1.07422,-8.43262 1.07422,-22.934575 z M 354.43848,85.761719 Q 346.2207,74.160156 336.71387,64.975586 l 8.80859,-7.036133 q 9.23828,7.734375 18.58399,19.658203 z"></path>
</svg>
