<svg xmlns="http://www.w3.org/2000/svg" id="svg1" version="1.1" height="200" width="990">
  <defs id="defs1"></defs>
  <rect id="rect1" stroke="none" fill="none" height="200" width="990" y="0" x="0"></rect>
  <path aria-label="千島列島南東沖" style="font-size:100px;font-family:'BIZ UDPGothic';fill:#ff0000" id="text1" d="m 53.710937,77.832031 v 27.685549 h 43.798829 v 7.17773 H 53.710937 v 46.77735 H 45.605469 V 112.69531 H 2.4902344 v -7.17773 H 45.605469 V 79.101562 Q 29.785156,81.298828 13.085938,82.617187 L 9.6679688,75.732422 Q 48.583984,73.095703 79.199219,65.136719 l 5.273437,6.103515 Q 68.994141,75.439453 53.710937,77.832031 Z M 168.01758,149.21875 h -53.8086 v 5.71289 h -7.71484 v -23.0957 h 7.71484 v 11.18164 h 19.0918 v -14.69727 h -19.0918 V 73.291016 h 23.97461 q 3.36914,-4.931641 5.41993,-9.179688 l 8.6914,2.001953 q -2.39258,3.515625 -5.46875,7.177735 h 35.25391 v 30.517574 h -59.96094 v 6.00586 h 75.3418 v 6.10352 h -75.3418 v 6.29883 h 70.94727 q -0.73243,23.87695 -3.32032,30.71289 -1.5625,4.19922 -5.51757,5.66406 -2.5879,0.92773 -6.83594,0.92773 -6.15235,0 -11.76758,-0.8789 l -1.61133,-7.22656 q 6.73828,1.02539 12.10938,1.02539 4.24804,0 5.37109,-1.95313 2.24609,-3.90625 3.36914,-22.16797 h -43.94531 v 14.69727 h 19.58008 v -11.18164 h 7.51953 z M 122.11914,79.296875 v 6.298828 h 52.09961 v -6.298828 z m 0,12.011719 v 6.689453 h 52.09961 v -6.689453 z m 112.06055,35.888676 q -8.30078,-7.37305 -16.50391,-12.64649 -4.10156,6.5918 -9.61914,12.74414 l -4.98047,-6.00586 q 15.625,-17.77343 20.3125,-43.359373 l 0.0977,-0.732421 h -17.72461 v -7.080079 h 51.12305 v 7.080079 h -25.73243 q -1.12304,6.738281 -2.97851,13.183593 h 20.11719 l 4.0039,3.369141 q -3.51562,24.12109 -12.35351,39.11133 -8.88672,15.08789 -27.58789,26.02539 l -5.3711,-6.20117 q 18.06641,-9.86328 27.19727,-25.48828 z m 3.51562,-7.03125 q 4.00391,-9.27735 6.29883,-23.095708 h -17.96875 q -2.29492,6.249998 -5.07812,11.669918 9.81445,5.61524 16.74804,11.42579 z m 24.56055,-41.357426 h 7.71484 v 57.373046 h -7.71484 z m 22.31445,-10.302735 h 7.8125 v 79.980471 q 0,5.37109 -2.58789,7.56836 -2.34375,1.95312 -8.25195,1.95312 -5.56641,0 -14.79492,-0.68359 l -1.66016,-8.10547 q 9.66797,0.97656 15.47852,0.97656 3.07617,0 3.66211,-1.5625 0.34179,-0.83008 0.34179,-2.34375 z m 83.44727,80.712891 h -53.8086 v 5.71289 h -7.71484 v -23.0957 h 7.71484 v 11.18164 h 19.0918 v -14.69727 h -19.0918 V 73.291016 h 23.97461 q 3.36914,-4.931641 5.41993,-9.179688 l 8.6914,2.001953 q -2.39258,3.515625 -5.46875,7.177735 h 35.25391 v 30.517574 h -59.96094 v 6.00586 h 75.3418 v 6.10352 h -75.3418 v 6.29883 h 70.94727 q -0.73243,23.87695 -3.32032,30.71289 -1.5625,4.19922 -5.51757,5.66406 -2.5879,0.92773 -6.83594,0.92773 -6.15235,0 -11.76758,-0.8789 l -1.61133,-7.22656 q 6.73828,1.02539 12.10938,1.02539 4.24804,0 5.37109,-1.95313 2.24609,-3.90625 3.36914,-22.16797 h -43.94531 v 14.69727 h 19.58008 v -11.18164 h 7.51953 z M 322.11914,79.296875 v 6.298828 h 52.09961 v -6.298828 z m 0,12.011719 v 6.689453 h 52.09961 v -6.689453 z m 131.39648,2.685547 h 37.06055 v 57.324219 q 0,3.90625 -1.61133,5.66406 -1.90429,2.05078 -8.00781,2.05078 -5.76172,0 -11.18164,-0.63476 l -1.70898,-7.42188 q 8.88671,0.92774 12.06054,0.92774 1.85547,0 2.29492,-0.87891 0.24415,-0.53711 0.24415,-1.61133 V 100.39063 H 417.1875 v 59.13085 h -7.91016 V 93.994141 h 36.52344 V 83.007812 h -43.31055 v -6.689453 h 43.31055 V 64.501953 h 7.71484 v 11.816406 h 43.94532 v 6.689453 h -43.94532 z m -7.61718,27.783199 h -22.2168 v -6.20117 h 11.86523 q -2.14843,-5.32226 -5.37109,-10.49804 l 6.73828,-2.5879 q 4.05274,7.12891 6.20117,13.08594 H 456.25 q 3.32031,-6.05469 5.76172,-13.28125 l 7.42187,2.58789 q -2.39257,4.98047 -5.32226,9.96094 l -0.39063,0.73242 h 12.40235 v 6.20117 h -22.70508 v 9.13086 H 478.125 v 6.29883 h -24.70703 v 19.92188 h -7.51953 V 137.20703 H 421.875 v -6.29883 h 24.02344 z m 115.42968,4.83399 q 14.01368,12.84179 36.76758,20.50781 l -4.73633,6.98242 q -10.54687,-3.95508 -18.31054,-8.54492 -12.10938,-7.22656 -21.53321,-18.06641 v 32.03125 h -7.71484 v -31.83593 q -5.76172,7.51953 -14.30664,14.20898 -10.88867,8.49609 -24.31641,13.81836 l -4.78515,-6.29883 q 21.97265,-8.00781 35.79101,-22.80273 H 511.57227 V 87.792969 h 34.22851 v -8.007813 h -41.74805 v -6.591797 h 41.74805 v -8.691406 h 7.71484 v 8.691406 h 42.38282 v 6.591797 h -42.38282 v 8.007813 h 34.76563 V 126.61133 Z M 545.80078,94.091797 h -26.41601 v 9.814453 h 26.41601 z m 7.71484,0 v 9.814453 h 27.05079 v -9.814453 z m -7.71484,15.917973 h -26.41601 v 10.30273 h 26.41601 z m 7.71484,0 v 10.30273 h 27.05079 V 110.00977 Z M 658.69141,85.302734 V 64.501953 h 7.71484 v 20.800781 h 27.7832 v 40.478516 h -27.7832 v 33.69141 h -7.71484 v -33.69141 h -26.9043 V 85.302734 Z m -19.38477,6.982422 v 26.513674 h 19.38477 V 92.285156 Z m 47.26563,26.513674 V 92.285156 H 666.40625 V 118.79883 Z M 621.77734,86.621094 q -6.54297,-8.34961 -15.2832,-15.527344 l 5.32227,-5.273438 q 8.30078,6.201172 15.67382,14.990235 z m -3.66211,25.488286 q -7.66601,-8.8379 -15.91796,-15.527349 l 5.41992,-5.46875 q 8.39843,6.201172 16.16211,14.990239 z m -13.7207,40.57617 q 9.52149,-12.69532 17.48047,-32.86133 l 6.29883,5.07812 q -7.32422,19.14063 -17.08985,33.69141 z"></path>
</svg>
