<svg version="1.1" xmlns="http://www.w3.org/2000/svg" xmlns:xlink="http://www.w3.org/1999/xlink" width="990" height="200" viewBox="0,0,990,200"><g transform="translate(255.5,-79.5)"><g stroke="none" stroke-miterlimit="10"><path d="M-217.41406,149.42188c9.40755,0 16.79688,3.95508 22.16797,11.86523c5.04557,7.42188 7.56836,17.48047 7.56836,30.17578c0,11.71875 -2.13216,21.22396 -6.39649,28.51563c-5.37109,9.21223 -13.18359,13.81835 -23.4375,13.81835c-9.63542,0 -17.13867,-4.13411 -22.50976,-12.40234c-4.85026,-7.45443 -7.27539,-17.43164 -7.27539,-29.93164c0,-13.08594 2.68555,-23.38867 8.05664,-30.9082c5.33854,-7.42187 12.61393,-11.13281 21.82617,-11.13281zM-217.56055,157.23438c-6.41276,0 -11.39323,3.36914 -14.94141,10.10742c-3.1901,6.02214 -4.78516,14.09505 -4.78516,24.21875c0,9.34245 1.36719,16.94336 4.10156,22.80273c3.58073,7.61719 8.82161,11.42578 15.72266,11.42578c6.28255,0 11.19792,-3.23893 14.74609,-9.71679c3.35286,-6.05469 5.0293,-14.20899 5.0293,-24.46289c0,-10.8073 -1.80664,-19.27084 -5.41992,-25.39063c-3.51562,-5.98958 -8.33333,-8.98437 -14.45312,-8.98437z" fill="#ff0000"/><path d="M-255.5,279.5v-200h990v200z" fill="none"/></g></g></svg>