<svg xmlns="http://www.w3.org/2000/svg" id="svg1" version="1.1" height="200" width="990">
  <defs id="defs1"></defs>
  <rect id="rect1" stroke="none" fill="none" height="200" width="990" y="0" x="0"></rect>
  <path aria-label="釧路地方北部" style="font-size:100px;font-family:'BIZ UDPGothic';fill:#ff0000" id="text1" d="m 16.162109,89.208984 h 23.828125 v 6.396485 H 28.369141 v 12.988281 h 16.40625 v 6.39648 h -16.40625 v 29.93164 q 8.83789,-2.4414 16.308593,-4.93164 l 0.683594,6.29883 q -17.96875,6.73828 -39.8437499,11.81641 l -2.9296875,-7.12891 q 7.4707034,-1.46484 18.0175784,-4.0039 0.341797,-0.0977 0.585937,-0.14649 V 114.99023 H 2.9785156 v -6.39648 H 21.191406 V 95.605469 H 11.181641 q -1.9531254,2.34375 -5.8105473,6.103511 L 1.8066406,95.3125 Q 13.818359,82.910156 20.996094,64.501953 h 7.763672 q 0.683593,0.683594 1.318359,1.367188 9.716797,10.009765 16.503906,19.238281 l -5.224609,5.615234 Q 35.400391,81.542969 25.976562,71.289062 21.386719,81.835937 16.162109,89.208984 Z M 10.205078,143.01758 Q 8.1542969,132.12891 5.0292969,123.38867 l 6.5917971,-2.29492 q 3.466797,9.13086 5.175781,19.62891 z m 21.09375,-5.41992 q 3.417969,-9.7168 5.126953,-18.11524 l 6.689453,2.00196 q -2.490234,9.9121 -5.908203,17.82226 z M 68.603516,69.287109 h 6.982421 V 148.48633 H 68.603516 Z M 86.71875,66.308594 h 7.177734 V 159.52148 H 86.71875 Z m -35.595703,1.367187 h 7.177734 v 47.705079 q 0,16.30859 -2.099609,25.87891 -2.09961,9.61914 -7.666016,18.01757 l -6.005859,-5.07812 q 5.371094,-7.56836 7.226562,-18.55469 1.367188,-8.20312 1.367188,-20.26367 z M 175.53711,99.072266 q 9.42383,8.154294 22.94922,13.916014 l -3.8086,6.5918 q -13.96484,-6.44531 -23.82812,-15.625 -10.83984,10.15625 -25.97656,16.55273 l -3.95508,-6.20117 q 13.91601,-4.83398 25,-15.332031 -5.66406,-6.396484 -9.08203,-12.646484 -0.24414,0.341797 -0.58594,0.78125 -3.61328,4.6875 -8.74023,9.082031 l -4.93165,-5.322265 Q 154.83398,81.25 160.88867,64.404297 l 7.42188,1.171875 q -1.22071,2.978515 -2.19727,5.126953 h 19.38477 L 190.2832,75 q -6.00586,14.208984 -14.74609,24.072266 z m -5.07813,-4.833985 q 6.34766,-7.373047 10.83985,-16.845703 h -18.60352 q -0.53711,0.976563 -1.75781,2.929688 l -0.3418,0.585937 q 3.90625,6.982422 9.86328,13.330078 z M 141.06445,68.603516 v 32.470704 h -12.89062 v 15.82031 h 12.98828 v 6.5918 h -12.98828 v 20.89844 q 6.05469,-1.5625 15.2832,-4.49219 l 0.68359,6.49414 q -19.2871,6.64062 -39.35546,11.18164 l -2.58789,-7.08008 q 2.14843,-0.43945 4.0039,-0.83008 l 1.31836,-0.29297 v -38.96484 h 6.78711 v 37.45117 l 2.44141,-0.58594 2.4414,-0.58593 2.09961,-0.53711 V 101.07422 H 106.68945 V 68.603516 Z m -27.29492,6.689453 v 19.287109 h 20.21484 V 75.292969 Z m 76.12305,44.824221 v 39.40429 h -7.32422 v -5.9082 h -25.43945 v 5.9082 h -7.32422 v -39.40429 z m -32.76367,6.68945 v 20.21484 h 25.43945 v -20.21484 z m 92.08984,-23.58398 v 40.86914 q 0,4.05273 2.39258,4.98047 2.58789,0.97656 16.45508,0.97656 13.42773,0 17.38281,-0.92774 2.7832,-0.68359 3.56445,-3.22265 1.2207,-4.00391 1.26953,-12.40235 l 7.51953,2.78321 q -0.68359,13.23242 -3.51562,16.79687 -2.24609,2.92969 -7.27539,3.4668 -7.66602,0.78125 -20.75195,0.78125 -12.45118,0 -16.74805,-0.83008 -5.3711,-1.07422 -6.83594,-4.88281 -0.78125,-2.09961 -0.78125,-5.51758 v -40.38086 l -10.49805,3.56445 -1.90429,-6.98242 12.40234,-4.150389 v -26.5625 h 7.32422 v 24.072266 l 12.8418,-4.345703 V 64.501953 h 7.32422 v 24.365234 l 18.01757,-6.054687 4.39453,2.392578 v 35.986332 q 0,3.51562 -1.66015,5.32226 -1.95313,2.09961 -6.83594,2.09961 -3.95508,0 -7.71484,-0.53711 l -1.26953,-6.98242 q 3.71093,0.68359 6.93359,0.68359 2.44141,0 2.97852,-1.07421 0.39062,-0.73243 0.39062,-2.29493 V 91.113281 l -15.23437,5.175781 v 39.794918 h -7.32422 V 98.779297 Z M 216.50391,88.916016 V 65.136719 h 7.71484 v 23.779297 h 10.79102 v 7.177734 h -10.79102 v 34.96094 q 5.12695,-1.75782 11.71875,-4.44336 l 0.78125,6.88476 q -14.94141,6.88477 -32.03125,12.10938 l -2.7832,-7.61719 q 6.78711,-1.85547 14.59961,-4.3457 V 96.09375 h -13.28125 v -7.177734 z m 128.95507,0.04883 q 0,7.324218 -0.92773,17.041016 h 39.4043 q -0.6836,32.91016 -3.75977,43.60351 -1.26953,4.49219 -4.83398,6.34766 -3.02735,1.5625 -9.08203,1.5625 -8.39844,0 -15.33204,-0.92773 l -1.31836,-8.00782 q 10.15625,1.31836 16.3086,1.31836 4.05273,0 5.32226,-1.70898 1.07422,-1.46484 2.14844,-8.49609 1.5625,-9.96094 2.14844,-26.70899 h -31.93359 q -1.80665,11.37695 -5.76172,19.28711 -7.91016,15.91797 -26.02539,25.73242 l -5.61524,-6.29883 q 19.38477,-10.15625 25.58594,-26.36718 5.17578,-13.57422 5.56641,-36.376956 h -33.54493 v -7.177735 h 41.69922 V 64.501953 h 8.00781 v 17.285156 h 42.67579 v 7.177735 z m 85.15625,43.847656 q -11.42578,6.25 -25.09765,11.81641 l -3.51563,-7.71485 q 17.33399,-6.15234 28.61328,-11.96289 V 98.535156 h -25.63476 v -7.421875 h 25.63476 V 65.527344 h 8.00782 v 93.212886 h -8.00782 z M 462.01172,97.949219 Q 475,91.845703 487.30469,81.591797 l 6.20117,6.103515 Q 478.36914,98.779297 462.01172,105.9082 v 38.1836 q 0,3.07617 2.24609,3.71093 1.80664,0.53711 10.35156,0.53711 8.05665,0 10.35157,-1.12304 1.66015,-0.83008 2.24609,-4.29688 0.68359,-4.44336 1.07422,-14.84375 l 7.91016,2.73438 q -0.58594,16.01562 -2.2461,19.9707 -1.61133,3.90625 -7.03125,4.88281 -4.63867,0.83008 -13.52539,0.83008 -12.10937,0 -15.42969,-1.5625 -3.95507,-1.85547 -3.95507,-7.91016 V 65.478516 h 8.00781 z m 71.97265,-21.337891 h 21.82618 v 6.787109 h -7.03125 q -2.05078,9.13086 -5.61524,18.701173 h 14.45313 v 6.88477 h -55.12696 v -6.88477 h 13.72071 l -0.0977,-0.48828 Q 514.0625,91.601562 511.71875,84.423828 l -0.3418,-1.025391 h -7.08008 v -6.787109 h 22.2168 V 64.501953 h 7.4707 z m -15.13671,6.787109 q 2.58789,7.958985 4.73632,18.701173 h 12.15821 q 2.92968,-8.105469 5.32226,-18.701173 z m 31.83593,35.888673 v 39.30664 h -7.32422 v -5.51758 h -25.97656 v 6.39649 h -7.56836 v -40.18555 z m -33.30078,6.68945 v 20.3125 h 25.97656 v -20.3125 z m 65.42969,-22.70508 q 12.8418,13.57422 12.8418,29.44336 0,5.56641 -2.00196,8.39844 -2.4414,3.27149 -8.49609,3.27149 -5.81055,0 -10.69336,-0.6836 l -1.61133,-7.61719 q 6.25,1.02539 10.15625,1.02539 3.71094,0 4.39453,-2.49023 0.29297,-1.07422 0.29297,-3.51562 0,-13.72071 -12.64648,-26.70899 5.85937,-12.695311 9.52148,-26.708983 h -15.42969 v 81.787113 h -7.37304 V 70.507812 h 27.49023 l 4.39453,3.808594 q -5.37109,17.382813 -10.83984,28.955074 z"></path>
</svg>
