<svg xmlns="http://www.w3.org/2000/svg" id="svg1" version="1.1" height="200" width="990">
  <defs id="defs1"></defs>
  <rect id="rect1" stroke="none" fill="none" height="200" width="990" y="0" x="0"></rect>
  <path aria-label="アフリカ東部" style="font-size:100px;font-family:'BIZ UDPGothic';fill:#ff0000" id="text1" d="M 3.2226563,76.416016 H 79.345703 l 5.273438,4.492187 q -4.199219,16.308594 -15.478516,25.537107 -6.201172,5.07813 -15.527344,8.64258 l -4.6875,-6.00586 q 13.916016,-4.54101 21.582031,-14.941405 3.515625,-4.833984 5.029297,-10.644531 H 3.2226563 Z M 35.742187,94.580078 h 7.861329 v 8.203122 q 0,19.18946 -3.759766,29.00391 -5.029297,13.03711 -20.703125,21.19141 l -5.810547,-5.95704 q 10.742188,-5.17578 15.966797,-13.23242 3.564453,-5.41992 4.785156,-11.03515 1.660156,-7.66602 1.660156,-19.97071 z M 94.824219,78.076172 h 73.876951 q -0.63476,24.023438 -5.76172,38.037108 -5.66406,15.57617 -19.38476,24.90234 -11.32813,7.66602 -30.71289,12.15821 l -4.10157,-7.12891 q 26.41602,-4.98047 38.28125,-18.65234 12.35352,-14.16016 12.89063,-42.138674 H 94.824219 Z M 190.625,70.019531 h 8.20312 V 121.48438 H 190.625 Z m 50.09766,-1.02539 h 8.20312 v 33.496089 q 0,16.99219 -2.34375,25.04883 -2.49023,8.64258 -7.42187,13.81836 -8.4961,8.88672 -26.31836,13.33008 l -4.29688,-7.17773 q 20.70313,-4.54102 26.9043,-14.99024 3.95508,-6.78711 4.83398,-16.94336 0.43946,-4.88281 0.43946,-12.98828 z m 30.22461,18.701171 h 30.32226 q 0.48828,-7.861328 0.68359,-19.824218 h 8.00782 q -0.0488,8.935547 -0.58594,19.824218 h 35.5957 q -0.19531,33.447268 -2.63672,51.318358 -1.02539,7.32422 -3.27148,10.10742 -2.92969,3.66211 -11.66992,3.66211 -5.17578,0 -12.30469,-0.92773 l -1.51367,-7.86133 q 7.22656,1.07422 13.86719,1.07422 3.71093,0 4.78515,-1.26953 1.07422,-1.31836 1.9043,-7.76367 2.19726,-17.43164 2.63672,-41.259769 h -27.97852 q -2.14844,21.874999 -8.6914,33.789059 -5.0293,9.13086 -14.35547,17.08985 -4.73633,4.05273 -10.25391,7.22656 l -5.41992,-6.20117 q 12.59766,-7.08008 20.60547,-18.40821 7.71484,-10.88867 10.10742,-33.496089 h -29.83398 z m 147.36328,38.916018 q 14.01367,12.84179 36.76757,20.50781 l -4.73632,6.98242 q -10.54688,-3.95508 -18.31055,-8.54492 -12.10938,-7.22656 -21.5332,-18.06641 v 32.03125 h -7.71485 v -31.83593 q -5.76172,7.51953 -14.30664,14.20898 -10.88867,8.49609 -24.3164,13.81836 l -4.78516,-6.29883 q 21.97266,-8.00781 35.79102,-22.80273 H 368.55469 V 87.792969 h 34.22851 v -8.007813 h -41.74804 v -6.591797 h 41.74804 v -8.691406 h 7.71485 v 8.691406 h 42.38281 v 6.591797 h -42.38281 v 8.007813 h 34.76562 V 126.61133 Z M 402.7832,94.091797 h -26.41601 v 9.814453 h 26.41601 z m 7.71485,0 v 9.814453 h 27.05078 v -9.814453 z m -7.71485,15.917973 h -26.41601 v 10.30273 h 26.41601 z m 7.71485,0 v 10.30273 h 27.05078 V 110.00977 Z M 490.9668,76.611328 h 21.82617 v 6.787109 h -7.03125 q -2.05078,9.13086 -5.61524,18.701173 h 14.45313 v 6.88477 h -55.12695 v -6.88477 h 13.7207 l -0.0977,-0.48828 q -2.05078,-10.009768 -4.39453,-17.187502 l -0.3418,-1.025391 h -7.08007 v -6.787109 h 22.21679 V 64.501953 h 7.47071 z m -15.13672,6.787109 q 2.58789,7.958985 4.73633,18.701173 h 12.1582 q 2.92969,-8.105469 5.32226,-18.701173 z m 31.83594,35.888673 v 39.30664 h -7.32422 v -5.51758 h -25.97657 v 6.39649 h -7.56836 v -40.18555 z m -33.30079,6.68945 v 20.3125 h 25.97657 v -20.3125 z m 65.42969,-22.70508 q 12.8418,13.57422 12.8418,29.44336 0,5.56641 -2.00195,8.39844 -2.44141,3.27149 -8.4961,3.27149 -5.81055,0 -10.69336,-0.6836 l -1.61133,-7.61719 q 6.25,1.02539 10.15625,1.02539 3.71094,0 4.39454,-2.49023 0.29296,-1.07422 0.29296,-3.51562 0,-13.72071 -12.64648,-26.70899 5.85937,-12.695311 9.52148,-26.708983 H 526.12305 V 159.47266 H 518.75 V 70.507812 h 27.49023 l 4.39454,3.808594 q -5.3711,17.382813 -10.83985,28.955074 z"></path>
</svg>
