<svg xmlns="http://www.w3.org/2000/svg" id="svg1" version="1.1" height="200" width="990">
  <defs id="defs1"></defs>
  <rect id="rect1" stroke="none" fill="none" height="200" width="990" y="0" x="0"></rect>
  <path aria-label="新潟県上中越沖" style="font-size:100px;font-family:'BIZ UDPGothic';fill:#ff0000" id="text1" d="m 31.640625,106.10352 v 11.37695 H 50 v 6.49414 H 31.640625 v 3.27148 q 8.154297,4.93164 16.162109,11.42578 l -4.199218,6.5918 q -6.298829,-6.25 -11.962891,-10.83984 v 25.04883 H 24.169922 V 131.44531 Q 17.626953,143.65234 6.6894531,153.75977 L 2.1972656,147.36328 Q 14.550781,137.89062 22.119141,123.97461 H 4.6875 v -6.49414 H 24.169922 V 106.10352 H 2.5878906 V 99.511719 H 14.794922 Q 13.28125,92.089844 10.839844,83.59375 H 4.6875 V 76.904297 H 24.121094 V 64.501953 h 7.568359 V 76.904297 H 50 v 6.689453 h -5.322266 q -1.904297,7.763672 -5.224609,15.917969 h 12.060547 v 6.591801 z M 17.96875,83.59375 l 0.146484,0.585937 q 1.5625,5.322266 3.613282,15.332032 h 11.035156 q 3.173828,-9.082032 4.6875,-15.917969 z m 44.384766,22.80273 q -0.04883,17.48047 -1.757813,28.32032 -2.197266,13.7207 -8.642578,24.46289 l -5.908203,-5.3711 q 5.859375,-9.81445 7.617187,-23.82812 1.171875,-9.66797 1.171875,-24.80469 V 74.21875 q 18.017578,-2.148438 33.398438,-7.519531 l 4.93164,6.103515 Q 78.710937,77.734375 62.353516,80.126953 V 99.21875 h 35.107421 v 7.17773 H 84.130859 v 53.07618 h -7.421875 v -53.07618 z m 82.324214,1.12305 H 133.88672 V 70.703125 q 12.79297,-1.757813 22.2168,-5.908203 l 5.32226,5.322265 q -9.13086,3.515625 -19.38476,5.46875 l -0.83008,0.146485 v 9.960937 h 16.89453 v 5.908203 h -16.89453 v 9.814458 h 40.2832 v -9.814458 h -17.87109 v -5.908203 h 17.87109 V 76.513672 H 163.52539 V 70.3125 h 25.29297 v 37.20703 h -36.37695 q -2.34375,4.54102 -4.6875,7.66602 h 47.55859 q -0.43945,25.97656 -3.22266,35.54687 -1.41601,4.78516 -4.49218,6.73828 -2.53907,1.61133 -7.32422,1.61133 -6.5918,0 -13.37891,-0.68359 l -1.61133,-7.71485 q 7.27539,1.12305 12.25586,1.12305 5.17578,0 6.49414,-2.39258 2.92969,-5.17578 3.51563,-27.92968 h -45.16602 q -5.41992,5.5664 -13.47656,10.49804 l -4.83398,-4.98047 q 13.33007,-7.51953 20.60546,-19.48242 z M 119.48242,86.181641 Q 113.08594,77.636719 105.61523,71.09375 l 5.3711,-4.980469 q 7.1289,5.615235 14.20898,14.59961 z m -3.46679,25.439449 q -6.5918,-8.59375 -14.11133,-15.234371 l 5.41992,-5.273438 q 7.61719,6.347656 14.4043,14.697269 z m -12.40235,41.79688 q 7.51953,-12.8418 13.57422,-33.39844 l 6.39648,4.29688 q -6.20117,21.72851 -13.47656,34.47265 z m 23.38867,-3.32031 q 5.41992,-9.13086 8.00782,-20.50782 l 6.29882,2.00196 q -2.34375,12.40234 -7.51953,22.50976 z m 22.80274,0.8789 q -1.22071,-11.66992 -3.41797,-20.55664 l 5.81055,-1.70898 q 3.125,10.00976 4.29687,19.77539 z m 14.69726,-4.58984 q -2.73437,-10.40039 -5.9082,-17.38281 l 5.41992,-2.49024 q 3.75977,7.61719 6.39649,16.60156 z m 13.1836,-4.98047 q -2.44141,-8.30078 -6.5918,-15.52734 l 5.12695,-2.68555 q 4.29688,6.93359 7.08008,14.69726 z M 282.86133,67.578125 V 114.4043 H 225.78125 V 67.578125 Z m -49.36524,6.005859 v 7.714844 h 41.55274 v -7.714844 z m 0,13.330078 v 7.763672 h 41.55274 v -7.763672 z m 0,13.476568 v 8.30078 h 41.55274 v -8.30078 z M 214.4043,122.2168 h 83.05664 v 6.49414 h -41.99219 v 30.81054 h -7.91016 V 128.71094 H 206.5918 V 74.267578 h 7.8125 z m -9.22852,29.6875 q 12.79297,-6.15235 23.0957,-19.28711 l 6.5918,3.66211 q -10.40039,13.62304 -24.07226,21.72851 z m 84.17969,4.10156 q -10.25391,-11.18164 -23.29102,-19.82422 l 6.00586,-4.49219 q 11.76758,7.37305 23.68164,18.79883 z m 61.52344,-61.083985 h 37.20703 v 7.324215 h -37.20703 v 43.11524 h 46.67968 v 7.32422 h -95.16601 v -7.32422 h 40.18554 V 65.332031 h 8.30079 z M 445.70312,83.59375 V 64.501953 h 7.91016 V 83.59375 h 37.25586 v 49.70703 h -7.91016 v -6.98242 h -29.3457 v 33.20312 h -7.91016 v -33.20312 h -28.80859 v 7.51953 h -8.00781 V 83.59375 Z m -28.80859,7.324219 v 28.076171 h 28.80859 V 90.917969 Z m 66.06445,28.076171 V 90.917969 h -29.3457 v 28.076171 z m 72.26563,5.12695 q 5.07812,-2.68554 10.88867,-6.25 l 1.07422,6.39649 q -11.42578,7.56836 -22.65625,12.93945 l -3.71094,-6.64062 q 4.05274,-1.51368 7.42188,-3.02735 V 83.398437 h 18.21289 q -0.53711,-8.984375 -0.63477,-18.896484 h 7.08008 q 0.19531,12.109375 0.58594,18.896484 h 21.72851 v 6.689454 h -21.28906 l 0.0488,0.488281 Q 575,103.66211 577.7832,114.74609 q 4.39453,-7.51953 8.54492,-19.042965 l 6.20118,3.076172 q -5.66407,13.769533 -12.20703,24.511723 2.14843,6.29882 5.12695,10.64453 1.2207,1.75781 1.85547,1.75781 0.53711,0 1.12304,-1.66016 1.36719,-4.0039 2.19727,-11.32812 l 6.10352,4.0039 q -2.68555,18.50586 -8.34961,18.50586 -2.68555,0 -5.90821,-3.71093 -3.85742,-4.49219 -6.83593,-11.47461 -6.9336,9.17968 -16.40625,16.74804 l -5.32227,-4.98047 q 10.9375,-7.86132 18.60352,-18.74999 l 0.39062,-0.53711 q -4.54102,-14.35547 -5.95703,-32.421879 h -11.71875 z m -26.41602,20.06836 q 4.34571,2.2461 10.69336,3.90625 10.10742,2.63672 20.41016,2.63672 h 38.18359 q -1.51367,3.41797 -2.49023,6.98242 h -36.13281 q -12.59766,0 -23.63282,-3.125 -7.91015,-2.24609 -12.40234,-5.61523 -6.25,-4.63867 -10.74219,-11.08399 -1.95312,11.81641 -6.29883,21.24024 l -5.07812,-6.10352 q 5.76172,-14.84375 6.98242,-40.42968 l 6.83594,1.31836 q -0.24414,6.59179 -1.2207,14.9414 2.58789,4.73633 7.71484,9.81445 v -34.17968 h -19.18945 v -6.689456 h 18.99414 V 84.472656 h -15.91797 v -6.689453 h 15.91797 v -13.28125 h 7.32422 v 13.28125 h 13.62304 v 6.689453 h -13.62304 v 13.330078 h 16.21093 v 6.689456 h -16.16211 v 13.81836 h 14.0625 V 125 h -14.0625 z m 57.37305,-63.085934 q -3.75977,-7.714844 -8.10547,-13.085938 l 5.32227,-3.125 q 4.0039,4.785156 8.59375,12.695313 z m 72.50977,4.199218 V 64.501953 h 7.71484 v 20.800781 h 27.7832 v 40.478516 h -27.7832 v 33.69141 h -7.71484 v -33.69141 h -26.9043 V 85.302734 Z m -19.38477,6.982422 v 26.513674 h 19.38477 V 92.285156 Z m 47.26563,26.513674 V 92.285156 H 666.40625 V 118.79883 Z M 621.77734,86.621094 q -6.54297,-8.34961 -15.2832,-15.527344 l 5.32227,-5.273438 q 8.30078,6.201172 15.67382,14.990235 z m -3.66211,25.488286 q -7.66601,-8.8379 -15.91796,-15.527349 l 5.41992,-5.46875 q 8.39843,6.201172 16.16211,14.990239 z m -13.7207,40.57617 q 9.52149,-12.69532 17.48047,-32.86133 l 6.29883,5.07812 q -7.32422,19.14063 -17.08985,33.69141 z"></path>
</svg>
