<svg xmlns="http://www.w3.org/2000/svg" id="svg1" version="1.1" height="200" width="1096">
  <defs id="defs1"></defs>
  <rect id="rect1" stroke="none" fill="none" height="200" width="1096" y="0" x="0"></rect>
  <path aria-label="岩手県沿岸北部" style="font-weight:bold;font-size:110px;font-family:'BIZ UDPGothic';fill:#ff0000" id="text1" d="m 38.510742,118.84766 h 59.189453 v 41.62597 H 85.830078 v -5.85449 H 34.804687 v 5.85449 H 23.256836 v -26.58691 q -6.28418,5.10254 -14.2333985,9.72168 l -7.6806641,-9.23828 q 8.4863282,-4.02832 15.4687496,-9.45313 11.44043,-8.96972 18.369141,-20.03418 H 2.7929688 V 95.322266 H 107.26074 v 9.560544 H 48.339844 q -3.867188,6.875 -9.829102,13.96485 z m -3.706055,9.23828 v 17.29492 H 85.830078 V 128.08594 Z M 61.069336,76.416016 h 25.19043 V 60.463867 H 97.915039 V 85.546875 H 13.212891 V 60.463867 H 24.760742 V 76.416016 H 49.306641 V 55.952148 H 61.069336 Z M 171.76758,71.044922 v 17.348633 h 38.99414 v 10.581054 h -38.99414 v 14.824221 h 45.49316 v 10.7959 h -45.49316 v 24.16992 q 0,6.44531 -3.59863,8.91601 -2.73926,1.87989 -9.13086,1.87989 -10.47364,0 -20.46387,-1.07422 l -2.09473,-11.54785 q 12.40723,1.61132 18.74512,1.61132 3.00781,0 3.75976,-1.12793 0.4834,-0.80566 0.4834,-2.68554 v -20.1416 h -46.72851 v -10.7959 h 46.72851 V 98.974609 h -41.25 V 88.393555 h 41.25 V 72.602539 l -2.9541,0.322266 q -15.36133,1.665039 -32.11914,2.578125 l -4.61914,-9.990235 q 42.53906,-1.772461 77.34375,-9.453125 l 6.71387,9.238282 q -15.03906,3.383789 -32.06543,5.74707 z M 312.16797,58.583984 V 110.62988 H 248.25195 V 58.583984 Z m -52.36817,8.486328 v 6.713868 h 40.7129 v -6.713868 z m 0,14.28711 v 6.713867 h 40.7129 v -6.713867 z m 0,14.287109 v 6.928709 h 40.7129 v -6.928709 z m -21.6455,22.128909 h 89.05273 v 9.3457 h -44.41894 v 33.35449 H 270.5957 V 127.11914 H 226.3916 V 66.855469 h 11.7627 z m -13.75,32.4414 q 12.7832,-5.9082 24.43847,-19.81933 l 9.88282,5.74707 q -11.49414,14.55566 -25.5127,22.88086 z m 92.59765,6.92871 q -8.21777,-10.09765 -24.70703,-21.21582 l 9.23828,-6.49902 q 12.94434,7.46582 25.40528,19.60449 z M 428.2373,108.96484 v 51.50879 h -12.08496 v -6.17676 H 382.0459 v 6.17676 h -11.97754 v -51.50879 z m -46.1914,10.36621 v 24.49219 h 34.10644 V 119.33105 Z M 356.31836,81.679687 q -8.27149,-9.291992 -17.93945,-16.274414 l 7.68066,-8.59375 q 10.84961,6.821289 18.26172,15.522461 z m -6.06934,28.950193 q -9.07715,-9.99023 -18.36914,-16.381833 l 7.89551,-8.916016 q 10.90332,7.089844 18.95996,16.059569 z m -17.72461,39.90723 q 10.74219,-13.2666 20.46387,-34.32129 l 9.13086,8.16406 q -8.27148,20.35645 -19.22852,35.61035 z m 95.71289,-44.2041 Q 409.49219,86.40625 400.62988,60.356445 l 11.11817,-4.404297 q 8.16406,22.558594 25.40527,40.712891 z m -67.08496,-8.378908 q 15.03907,-15.146485 21.53809,-40.820313 l 11.33301,3.4375 Q 387.9541,88.393555 369.85352,107.19238 Z M 501.49902,72.978516 h 24.33106 V 60.03418 h 11.44043 V 82.216797 H 454.98535 V 60.03418 h 11.44043 v 12.944336 h 23.63281 V 55.952148 h 11.44043 z m -38.51074,25.888671 v 11.225583 q 0,18.58399 -2.36328,28.9502 -2.52441,10.90332 -9.72168,20.51758 l -9.45312,-7.78809 q 4.9414,-6.875 6.92871,-13.58887 2.73925,-9.23828 2.73925,-28.73535 V 89.306641 h 93.51075 v 9.560546 z m 45.6543,16.811523 v 9.93652 h 36.8457 v 9.56055 h -36.8457 v 25.29785 h -12.08496 v -25.29785 h -32.33399 v -9.56055 h 32.33399 v -9.93652 h -26.85547 v -9.02344 h 67.89062 v 9.02344 z m 73.47656,16.16699 q -14.82422,7.78809 -25.83496,11.92383 l -4.51172,-11.81641 q 17.24121,-5.80078 30.34668,-12.03124 V 95.859375 H 555.53223 V 84.526367 h 26.58691 V 55.952148 h 11.97754 V 160.47363 h -11.97754 z m 38.18848,-41.840817 q 12.51465,-6.552735 24.27734,-16.650391 l 8.91602,9.345703 q -15.89844,11.279297 -33.19336,19.228515 v 40.2832 q 0,2.63184 1.71875,3.22266 1.82617,0.59082 8.43261,0.59082 8.70118,0 10.90332,-1.02051 1.55762,-0.69824 2.14844,-4.35058 0.80567,-5.10254 1.18164,-16.48926 l 12.03125,3.70605 q -0.53711,13.91114 -1.71875,19.98047 -1.34277,6.76758 -7.03613,8.75489 -5.4248,1.82617 -17.77832,1.82617 -14.50195,0 -18.26172,-2.417 -3.59863,-2.36328 -3.59863,-9.07714 V 55.952148 h 11.97754 z m 78.0957,-21.645508 h 22.98828 v 10.366211 h -7.57324 q -2.04102,8.217773 -5.47852,17.241211 h 14.34082 v 10.366213 h -59.9414 V 95.966797 h 13.15918 Q 673.75,85.654297 671.38672,78.725586 H 664.4043 V 68.359375 h 22.77343 V 55.952148 h 11.22559 z m -16.16699,10.366211 q 2.73926,8.00293 4.24316,17.241211 h 10.95703 l 0.53711,-1.503906 q 2.30957,-6.123047 4.29688,-13.911133 l 0.4834,-1.826172 z m 33.30078,36.630864 v 43.98925 h -11.01074 v -5.26367 H 681.1084 v 6.3916 h -11.33301 v -45.11718 z m -34.42871,9.88281 v 18.63769 h 23.41797 v -18.63769 z m 71.75781,-27.124026 q 6.3916,6.069336 10.15137,14.448246 3.70605,8.3789 3.70605,16.97265 0,7.94922 -2.9541,11.70899 -3.06152,3.9209 -10.09766,3.9209 -6.01562,0 -11.65527,-0.85938 l -2.63183,-11.44043 q 6.49902,1.18164 10.74218,1.18164 3.22266,0 4.02832,-1.5039 0.53711,-1.07422 0.53711,-4.29688 0,-13.2666 -7.94922,-22.88086 -2.09472,-2.52441 -5.26367,-5.424804 l 0.64453,-1.503906 q 5.58594,-12.62207 8.70118,-26.318359 h -13.75 V 160.47363 H 725.95703 V 61.000977 h 32.33399 l 5.96191,5.478515 q -5.42481,18.476563 -11.38672,31.635742 z"></path>
</svg>
