<svg xmlns="http://www.w3.org/2000/svg" id="svg1" version="1.1" height="200" width="990">
  <defs id="defs1"></defs>
  <rect id="rect1" stroke="none" fill="none" height="200" width="990" y="0" x="0"></rect>
  <path aria-label="八丈島東方沖" style="font-size:100px;font-family:'BIZ UDPGothic';fill:#ff0000" id="text1" d="m 61.71875,77.636719 h -31.25 v -7.617188 h 38.623047 q 0.195312,1.757813 0.390625,3.710938 2.294922,22.998047 10.595703,44.042971 6.689453,16.94336 17.431641,30.95703 l -6.738282,7.22656 Q 77.490234,136.47461 70.166016,115.625 64.990234,100.83008 61.962891,79.101562 Z M 2.5878906,149.21875 q 8.6425784,-10.30273 14.6972654,-26.2207 6.884766,-18.01758 8.105469,-36.474613 l 8.105469,2.09961 Q 29.882812,129.54102 8.984375,155.9082 Z M 150.19531,83.300781 V 64.501953 h 8.20313 v 18.798828 h 37.69531 V 90.625 h -37.69531 v 6.982422 q 0,13.037108 -1.61133,21.191408 -1.51367,7.66601 -5.22461,14.0625 15.08789,12.69531 44.72656,18.65234 l -4.78515,7.8125 q -28.95508,-7.22656 -44.38477,-20.3125 -11.76758,13.47656 -36.81641,20.60547 l -5.41992,-6.98242 q 16.74805,-3.51563 28.125,-11.6211 4.88281,-3.46679 8.20313,-7.42187 -14.0625,-14.55078 -22.11914,-32.08008 l 6.68945,-3.906248 q 7.03125,16.113278 19.67773,29.492188 4.73633,-9.66797 4.73633,-28.173829 V 90.625 h -46.1914 v -7.324219 z m 117.82227,65.917969 h -53.8086 v 5.71289 h -7.71484 v -23.0957 h 7.71484 v 11.18164 h 19.0918 v -14.69727 h -19.0918 V 73.291016 h 23.97461 q 3.36914,-4.931641 5.41993,-9.179688 l 8.6914,2.001953 q -2.39258,3.515625 -5.46875,7.177735 h 35.25391 v 30.517574 h -59.96094 v 6.00586 h 75.3418 v 6.10352 h -75.3418 v 6.29883 h 70.94727 q -0.73243,23.87695 -3.32032,30.71289 -1.5625,4.19922 -5.51757,5.66406 -2.5879,0.92773 -6.83594,0.92773 -6.15235,0 -11.76758,-0.8789 l -1.61133,-7.22656 q 6.73828,1.02539 12.10938,1.02539 4.24804,0 5.37109,-1.95313 2.24609,-3.90625 3.36914,-22.16797 h -43.94531 v 14.69727 h 19.58008 v -11.18164 h 7.51953 z M 222.11914,79.296875 v 6.298828 h 52.09961 v -6.298828 z m 0,12.011719 v 6.689453 h 52.09961 v -6.689453 z m 139.20898,35.302736 q 14.01368,12.84179 36.76758,20.50781 l -4.73633,6.98242 q -10.54687,-3.95508 -18.31054,-8.54492 -12.10938,-7.22656 -21.53321,-18.06641 v 32.03125 h -7.71484 v -31.83593 q -5.76172,7.51953 -14.30664,14.20898 -10.88867,8.49609 -24.31641,13.81836 l -4.78515,-6.29883 q 21.97265,-8.00781 35.79101,-22.80273 H 311.57227 V 87.792969 h 34.22851 v -8.007813 h -41.74805 v -6.591797 h 41.74805 v -8.691406 h 7.71484 v 8.691406 h 42.38282 v 6.591797 h -42.38282 v 8.007813 h 34.76563 V 126.61133 Z M 345.80078,94.091797 h -26.41601 v 9.814453 h 26.41601 z m 7.71484,0 v 9.814453 h 27.05079 v -9.814453 z m -7.71484,15.917973 h -26.41601 v 10.30273 h 26.41601 z m 7.71484,0 v 10.30273 h 27.05079 v -10.30273 z m 91.94336,-21.044926 q 0,7.324218 -0.92773,17.041016 h 39.4043 q -0.6836,32.91016 -3.75977,43.60351 -1.26953,4.49219 -4.83398,6.34766 -3.02735,1.5625 -9.08203,1.5625 -8.39844,0 -15.33204,-0.92773 l -1.31836,-8.00782 q 10.15625,1.31836 16.3086,1.31836 4.05273,0 5.32226,-1.70898 1.07422,-1.46484 2.14844,-8.49609 1.5625,-9.96094 2.14844,-26.70899 h -31.93359 q -1.80665,11.37695 -5.76172,19.28711 -7.91016,15.91797 -26.02539,25.73242 l -5.61524,-6.29883 q 19.38477,-10.15625 25.58594,-26.36718 5.17578,-13.57422 5.56641,-36.376956 h -33.54493 v -7.177735 h 41.69922 V 64.501953 h 8.00781 v 17.285156 h 42.67579 v 7.177735 z m 113.23243,-3.66211 V 64.501953 h 7.71484 v 20.800781 h 27.7832 v 40.478516 h -27.7832 v 33.69141 h -7.71484 v -33.69141 h -26.9043 V 85.302734 Z m -19.38477,6.982422 v 26.513674 h 19.38477 V 92.285156 Z m 47.26563,26.513674 V 92.285156 H 566.40625 V 118.79883 Z M 521.77734,86.621094 q -6.54297,-8.34961 -15.2832,-15.527344 l 5.32227,-5.273438 q 8.30078,6.201172 15.67382,14.990235 z m -3.66211,25.488286 q -7.66601,-8.8379 -15.91796,-15.527349 l 5.41992,-5.46875 q 8.39843,6.201172 16.16211,14.990239 z m -13.7207,40.57617 q 9.52149,-12.69532 17.48047,-32.86133 l 6.29883,5.07812 q -7.32422,19.14063 -17.08985,33.69141 z"></path>
</svg>
