<svg xmlns="http://www.w3.org/2000/svg" id="svg1" version="1.1" height="200" width="1096">
  <defs id="defs1"></defs>
  <rect id="rect1" stroke="none" fill="none" height="200" width="1096" y="0" x="0"></rect>
  <path aria-label="東京都23区" style="font-weight:bold;font-size:110px;font-family:'BIZ UDPGothic';fill:#ff0000" id="text1" d="m 72.617187,125.56152 q 13.320313,11.87012 35.878903,19.17481 l -6.92871,10.09765 Q 88.569336,150.21484 78.901367,143.66211 68.911133,136.84082 60.478516,126.9043 v 33.56933 H 48.823242 v -32.97851 q -7.46582,10.47363 -19.282226,18.79883 -9.077149,6.3916 -19.44336,10.3125 l -7.3583982,-9.45313 q 17.0263672,-5.63965 28.4130862,-15.2002 3.222656,-2.68554 6.552734,-6.3916 H 11.870117 V 81.572266 H 48.823242 V 74.321289 H 4.296875 V 64.65332 h 44.526367 v -8.701172 h 11.655274 v 8.701172 h 45.224614 v 9.667969 H 60.478516 v 7.250977 H 98.129883 V 125.56152 Z M 48.823242,90.595703 H 23.525391 v 8.701172 h 25.297851 z m 11.655274,0 v 8.701172 H 86.474609 V 90.595703 Z M 48.823242,107.67578 H 23.525391 v 8.86231 h 25.297851 z m 11.655274,0 v 8.86231 h 25.996093 v -8.86231 z M 170.58594,66.748047 h 44.31152 V 76.953125 H 115.04883 V 66.748047 h 43.66699 V 55.952148 h 11.87012 z m 33.13965,19.228515 V 121.0498 h -31.68946 v 30.18555 q 0,4.61914 -2.04101,6.71387 -2.417,2.52441 -9.61426,2.52441 -7.73438,0 -15.41504,-0.80566 l -2.41699,-11.01074 q 7.41211,1.12793 14.87793,1.12793 2.09472,0 2.52441,-1.02051 0.21485,-0.4834 0.21485,-1.39649 V 121.0498 H 126.27441 V 85.976562 Z m -65.15137,9.667969 v 15.737309 h 52.85156 V 95.644531 Z m 67.89062,60.317379 q -9.66797,-14.17968 -21.43066,-25.67382 l 8.64746,-6.82129 q 11.49414,10.3125 22.23633,24.22363 z m -93.94043,-7.62695 q 13.37403,-9.29199 21.00098,-23.41797 l 10.47363,5.47852 q -7.78808,15.36133 -22.98828,26.85547 z M 259.53125,87.856445 q 8.8623,-11.225586 15.25391,-25.834961 l 9.45312,4.833985 q -6.92871,12.62207 -12.83691,21.000976 h 11.27929 v 9.667969 h -21.05468 q -0.26856,0.268555 -0.53711,0.644531 -2.68555,3.437505 -8.96973,9.506835 h 24.5459 v 51.34766 h -10.47363 v -4.08203 h -21.43067 v 5.53222 h -10.7959 v -37.75879 q -3.70605,2.57813 -7.62695,4.99512 l -5.37109,-9.23828 q 5.69336,-2.9541 12.19238,-7.73438 9.45312,-6.98242 15.30762,-13.212886 h -25.72754 v -9.667969 h 21.43066 V 77.167969 h -15.41504 v -9.453125 h 15.41504 V 55.952148 h 10.68848 v 11.762696 h 11.76269 v 9.453125 H 254.8584 v 10.688476 z m -14.77051,28.520505 v 10.20508 h 21.43067 v -10.20508 z m 0,18.90625 v 10.74219 h 21.43067 V 135.2832 Z M 312.8125,98.276367 q 13.37402,15.952153 13.37402,31.582033 0,8.05664 -3.16894,11.92383 -3.00781,3.70605 -9.93653,3.70605 -5.69335,0 -11.60156,-0.75195 l -2.41699,-11.22559 q 6.17676,1.23535 10.58105,1.23535 3.27637,0 4.13575,-1.39648 0.80566,-1.23535 0.80566,-4.45801 0,-10.74219 -7.68066,-22.29004 -2.14844,-3.27636 -5.63965,-7.089841 5.69336,-12.299805 9.3457,-27.714844 H 296.96777 V 160.47363 H 285.95703 V 61.108398 h 31.58203 l 6.23047,5.424805 q -4.94141,18.583984 -10.95703,31.743164 z m 26.74805,54.462893 v -12.13867 q 5.10254,-15.84473 27.82226,-30.99121 l 2.9541,-1.98731 q 9.77539,-6.49902 13.42774,-10.634765 4.08203,-4.619141 4.08203,-9.990235 0,-4.833984 -2.9541,-8.378906 -4.4043,-5.317383 -13.15918,-5.317383 -13.05176,0 -23.47168,10.903321 l -9.23828,-8.486329 q 3.65234,-4.458007 8.70117,-7.519531 10.7959,-6.552734 24.0625,-6.552734 10.3125,0 17.88574,3.920898 6.55274,3.4375 10.09766,9.345703 3.27636,5.585938 3.27636,12.084961 0,8.540039 -6.49902,15.79102 -4.35058,4.88769 -16.27441,12.99804 l -3.4375,2.30957 q -12.62207,8.54004 -16.65039,12.67578 -4.94141,5.04883 -6.55274,9.07715 h 50.27344 v 12.89063 z m 99.84863,-52.47559 h 7.46582 q 9.45312,0 15.2002,-3.383787 7.03613,-4.135742 7.03613,-11.333008 0,-5.961914 -5.15625,-9.453125 -4.56543,-3.061523 -11.38672,-3.061523 -12.35352,0 -23.74024,9.453125 l -7.78808,-9.614258 q 13.80371,-11.064453 32.49512,-11.064453 12.51464,0 20.57129,5.15625 9.72167,6.284179 9.72167,17.77832 0,8.808594 -6.71386,15.092773 -5.20996,4.833986 -13.75,6.069336 v 0.42969 q 11.06445,1.82617 16.91894,7.30469 6.06934,5.69335 6.06934,15.20019 0,13.85742 -11.22559,20.73242 -8.43261,5.15625 -22.1289,5.15625 -21.5918,0 -35.01953,-13.21289 l 8.11035,-9.66797 q 4.29687,4.56543 11.06445,7.51953 8.21777,3.59864 15.95215,3.59864 8.70117,0 13.58887,-3.65235 4.72656,-3.49121 4.72656,-10.68847 0,-9.88282 -9.50684,-14.01856 -6.3916,-2.79297 -15.36133,-2.79297 h -7.14355 z m 79.49219,-27.553709 v 69.125979 h 82.5 v 11.11816 h -82.5 v 7.51953 H 506.60156 V 62.021484 h 91.95313 v 10.688477 z m 32.38769,35.341799 Q 540.11719,98.920898 525.61523,89.414062 l 7.51954,-8.378906 q 13.48144,8.540039 25.72753,18.046875 7.68067,-10.205078 14.28711,-23.52539 l 11.11817,5.371093 q -7.78809,15.146485 -16.00586,25.727536 9.99023,8.21778 22.6123,20.14161 l -8.70117,9.13085 q -11.92383,-11.76269 -21.64551,-20.1416 -3.59863,3.70606 -5.58593,5.58594 -10.63477,9.8291 -25.0293,17.50977 l -7.3584,-9.45313 q 6.33789,-3.33008 10.36621,-5.96191 9.07715,-5.96192 18.36914,-15.41504 z"></path>
</svg>
