<svg xmlns="http://www.w3.org/2000/svg" id="svg1" version="1.1" height="200" width="1096">
  <defs id="defs1"></defs>
  <rect id="rect1" stroke="none" fill="none" height="200" width="1096" y="0" x="0"></rect>
  <path aria-label="択捉島付近" style="font-weight:bold;font-size:110px;font-family:'BIZ UDPGothic';fill:#ff0000" id="text1" d="m 79.707031,105.95703 q 5.908203,28.25195 28.842769,43.77442 l -7.78808,10.79589 Q 81.103516,145.54199 72.885742,122.23145 70.146484,114.33594 68.588867,105.95703 H 56.450195 q 0,0.37598 0,0.91309 -0.483398,18.58398 -5.585937,32.9248 -3.920899,11.11817 -11.923828,21.37695 l -7.895508,-9.45312 q 14.072265,-19.44336 14.072265,-50.5957 V 60.463867 H 100.43945 V 105.95703 Z M 88.891602,70.561523 H 56.557617 v 25.19043 H 88.891602 Z M 16.542969,75.771484 V 55.952148 H 27.875977 V 75.771484 H 39.047852 V 86.459961 H 27.875977 v 17.456059 q 5.693359,-1.9336 10.742187,-3.920903 l 1.074219,10.097653 q -6.767578,2.95411 -11.816406,4.83399 v 35.39551 q 0,5.31738 -2.363282,7.57324 -2.202148,2.09472 -7.734375,2.09472 -5.854492,0 -11.2792966,-0.96679 L 4.4042969,147.58301 q 5.4248047,1.02051 9.1845701,1.02051 1.71875,0 2.309571,-0.53711 0.644531,-0.53711 0.644531,-2.25586 v -27.0166 q -6.069336,1.87988 -12.0312503,3.49121 L 1.3427734,111.32813 q 10.7421876,-2.63184 15.2001956,-3.9209 V 86.459961 H 3.0078125 V 75.771484 Z M 186.48437,145.48828 q 5.63965,1.39649 13.15918,1.39649 h 19.17481 q -2.25586,5.31738 -3.33008,11.01074 h -15.95215 q -16.75781,0 -26.5332,-6.06934 -7.41211,-4.61914 -12.29981,-13.42773 -3.75976,12.67578 -10.3125,22.34375 l -8.27148,-7.68067 q 11.06445,-18.58398 13.42773,-44.84863 l 10.36622,1.55762 q -0.9668,8.96972 -2.25586,16.11328 3.81347,9.3457 11.92382,14.98535 V 100.26367 H 152.05566 V 61.000977 h 57.417 v 39.262693 h -22.98829 v 14.44824 h 25.40528 v 10.20508 H 186.48437 Z M 163.28125,70.776367 v 19.711914 h 34.96582 V 70.776367 Z m -35.98633,4.995117 V 55.952148 h 11.22559 v 19.819336 h 11.01074 v 10.688477 h -11.01074 v 16.704099 q 5.37109,-1.87988 9.77539,-3.491208 l 1.12793,9.990238 q -5.58594,2.36328 -10.90332,4.40429 v 36.46973 q 0,5.63965 -2.63184,7.73437 -2.20215,1.71875 -7.41211,1.71875 -5.63965,0 -11.44043,-0.85937 l -2.20215,-11.54785 q 7.14356,1.02051 9.61426,1.02051 1.82617,0 2.36328,-0.64454 0.4834,-0.59082 0.4834,-2.25586 V 118.0957 q -6.17676,2.04102 -12.46094,3.75977 l -3.27636,-11.01074 q 9.39941,-2.30957 15.7373,-4.18946 V 86.459961 H 113.11523 V 75.771484 Z M 262.59277,64.116211 q 1.98731,-4.780274 3.22266,-9.130859 l 13.10547,1.77246 q -1.87988,4.458008 -3.4375,7.358399 h 35.77148 v 35.019531 h -64.88281 v 5.424808 h 80.83496 v 8.70117 h -80.83496 v 5.47851 h 77.0752 q -0.69825,24.59961 -3.11524,33.19336 -1.55762,5.47852 -5.85449,7.25098 -3.06152,1.28906 -9.3457,1.28906 -6.44532,0 -12.03125,-0.80566 l -2.14844,-9.02344 h -53.81836 v 5.96192 h -11.54785 v -25.83497 h 11.54785 v 11.06446 h 18.47656 v -14.50196 h -21.1084 V 64.116211 Z m 22.82715,77.719729 v -11.06446 h 11.11817 v 18.69141 q 4.458,0.42969 7.41211,0.42969 3.65234,0 4.56542,-2.09473 1.77247,-3.9209 2.79297,-20.46387 H 267.1582 v 14.50196 z M 246.37207,72.387695 v 5.317383 h 53.0127 v -5.317383 z m 0,12.998047 v 5.854492 h 53.0127 v -5.854492 z m 113.54492,0.59082 V 160.47363 H 348.26172 V 105.3125 q -4.35059,6.12305 -10.09766,12.67578 l -6.06933,-11.54785 q 10.90332,-12.084961 18.6914,-28.144532 4.72657,-9.721679 9.45313,-23.203125 l 11.22558,3.061524 q -4.88769,14.716797 -11.54785,27.822265 z M 421.09375,81.25 h 16.16699 v 10.795898 h -16.16699 v 56.396482 q 0,7.08985 -3.4375,9.45313 -2.52441,1.77246 -9.50684,1.77246 -8.54004,0 -17.50976,-0.9668 l -2.30957,-11.76269 q 9.56054,1.39648 17.83203,1.39648 2.25586,0 2.73926,-0.9668 0.32226,-0.69824 0.32226,-2.30957 V 92.045898 H 365.28809 V 81.25 h 43.93554 V 57.832031 h 11.87012 z m -33.99902,52.0459 q -6.06934,-16.16699 -14.98536,-29.48731 l 10.25879,-5.96191 q 9.66797,14.2334 15.52246,29.16504 z m 83.25195,2.73926 q 4.29687,4.99511 9.66797,7.41211 8.80859,3.9746 23.0957,3.9746 h 45.76172 q -1.93359,3.65235 -3.59863,10.47364 h -42.7002 q -18.47656,0 -28.30566,-5.80078 -4.02832,-2.417 -8.86231,-7.89551 -0.37597,0.42969 -0.91308,1.07422 -7.89551,9.3457 -15.6836,15.2539 l -6.49902,-11.01074 q 8.54004,-5.10254 16.48926,-11.54785 v -26.5332 h -15.62988 v -10.58106 h 27.17773 z m 13.96484,-71.274418 2.84668,-0.214844 q 24.86817,-1.71875 44.6875,-7.358398 l 8.37891,9.453125 q -20.83984,5.478516 -44.47266,7.412109 v 13.911133 h 49.73633 V 98.4375 h -18.04687 v 43.77441 H 515.57129 V 98.4375 h -19.81934 q -0.26855,17.24121 -2.57812,27.44629 -2.09473,9.39941 -6.875,16.86523 l -9.88281,-7.46582 q 5.31738,-8.27148 6.82128,-20.51757 1.07422,-8.43262 1.07422,-22.934575 z M 464.43848,85.761719 Q 456.2207,74.160156 446.71387,64.975586 l 8.80859,-7.036133 q 9.23828,7.734375 18.58399,19.658203 z"></path>
</svg>
