<svg xmlns="http://www.w3.org/2000/svg" id="svg1" version="1.1" height="200" width="1096">
  <defs id="defs1"></defs>
  <rect id="rect1" stroke="none" fill="none" height="200" width="1096" y="0" x="0"></rect>
  <path aria-label="0" style="font-weight:bold;font-size:110px;font-family:'BIZ UDPGothic';fill:#ff0000" id="text1" d="m 41.894531,61.430664 q 16.918946,0 26.210938,14.663086 7.788086,12.246094 7.788086,32.28027 0,18.31543 -6.606446,30.18555 -9.18457,16.59668 -27.553711,16.59668 -16.489257,0 -25.727539,-13.75 -8.3251949,-12.35352 -8.3251949,-33.03223 0,-21.484372 8.9160159,-33.99902 9.238281,-12.944336 25.297851,-12.944336 z m -0.161133,11.547852 q -8.701171,0 -13.75,9.560546 -4.887695,9.345704 -4.887695,25.834958 0,15.41504 4.458008,24.59961 5.102539,10.41992 14.287109,10.41992 8.056641,0 13.051758,-8.3789 5.585938,-9.39942 5.585938,-26.64063 0,-16.381833 -4.833985,-25.727536 -5.048828,-9.667968 -13.911133,-9.667968 z"></path>
</svg>
