<svg xmlns="http://www.w3.org/2000/svg" id="svg1" version="1.1" height="200" width="1096">
  <defs id="defs1"></defs>
  <rect id="rect1" stroke="none" fill="none" height="200" width="1096" y="0" x="0"></rect>
  <path aria-label="8" style="font-weight:bold;font-size:110px;font-family:'BIZ UDPGothic';fill:#ff0000" id="text1" d="M 27.392578,107.08496 Q 9.453125,100.96191 9.453125,85.546875 q 0,-10.849609 9.453125,-17.724609 8.754883,-6.391602 21.967773,-6.391602 11.601563,0 19.873047,4.780273 11.386719,6.552735 11.386719,18.369141 0,9.72168 -6.499023,15.307617 -5.209961,4.511715 -12.514649,6.445315 v 0.32226 q 9.506836,3.06153 14.394531,7.51953 7.841797,7.03614 7.841797,16.54297 0,10.95703 -9.345703,17.6709 -9.506836,6.76758 -25.083008,6.76758 -13.266601,0 -22.075195,-4.8877 -11.9238281,-6.55273 -11.9238281,-19.1748 0,-10.09766 8.5400391,-17.02637 4.941406,-4.02832 11.923828,-6.55273 z m 13.642578,-5.47851 q 8.056641,-2.04102 12.622071,-6.284184 4.61914,-4.243164 4.61914,-9.399414 0,-5.854493 -4.458008,-9.882813 -4.995117,-4.511719 -12.944336,-4.511719 -5.908203,0 -10.3125,2.685547 -6.713867,4.082031 -6.713867,11.601563 0,5.532226 4.726563,9.667968 3.222656,2.84668 8.59375,4.887692 3.491211,1.34278 3.867187,1.23536 z m -0.751953,11.01074 q -8.862305,2.4707 -13.481445,6.71386 -5.048828,4.61915 -5.048828,10.52735 0,6.44531 5.478515,10.41992 5.424805,3.86719 13.642578,3.86719 6.606446,0 11.601563,-2.57813 7.788086,-4.08203 7.788086,-11.97754 0,-6.06933 -6.069336,-10.84961 -4.350586,-3.4375 -10.688477,-5.26367 -3.115234,-0.91308 -3.222656,-0.85937 z"></path>
</svg>
