<svg xmlns="http://www.w3.org/2000/svg" id="svg1" version="1.1" height="200" width="1096">
  <defs id="defs1"></defs>
  <rect id="rect1" stroke="none" fill="none" height="200" width="1096" y="0" x="0"></rect>
  <path aria-label="グアム付近" style="font-weight:bold;font-size:110px;font-family:'BIZ UDPGothic';fill:#ff0000" id="text1" d="m 77.558594,73.999023 9.667968,9.560547 q -6.069335,30.56152 -21.752929,47.91016 -14.770508,16.32812 -44.472656,25.24414 L 14.287109,145.86426 Q 40.229492,139.31152 54.516602,124.91699 70.146484,109.17969 75.03418,85.009766 H 39.370117 Q 28.842773,100.69336 13.642578,110.95215 L 4.9414062,102.03613 Q 17.1875,94.194336 24.975586,84.902344 33.78418,74.267578 39.047852,59.121094 l 11.547851,3.222656 q -2.255859,6.337891 -4.941406,11.655273 z m 3.491211,1.074219 Q 77.827148,66.157227 71.489258,57.133789 l 9.023437,-2.041016 q 5.478516,6.982422 9.775391,17.670899 z m 16.166992,-0.644531 q -3.4375,-10.097656 -9.453125,-19.121094 l 8.808594,-1.879883 q 5.478514,7.465821 9.453124,18.154297 z m 13.696293,-7.46582 h 84.16503 l 6.92872,5.854492 q -3.00782,11.225586 -7.8418,18.745117 -9.07715,14.2334 -27.17774,21.26953 l -6.76757,-9.23828 q 12.51464,-3.759766 20.78613,-13.481445 4.88769,-5.747071 6.82129,-12.138672 h -76.91406 z m 34.42871,23.203125 h 12.2998 v 9.238281 q 0,20.786133 -4.61914,32.119143 -5.85449,14.39453 -22.77344,23.41797 l -8.8623,-9.34571 q 11.65527,-5.53222 17.02637,-13.21289 4.13574,-5.96191 5.4248,-12.62207 1.50391,-7.62695 1.50391,-20.463865 z m 64.23828,47.050784 q 3.70605,-0.0537 10.20508,-0.53711 15.30761,-34.375 28.19824,-75.678713 l 12.2998,3.222656 q -12.67578,39.638667 -27.07031,71.596677 27.28516,-1.9873 48.39356,-4.83398 -7.94922,-14.01856 -16.167,-25.88867 l 10.58106,-6.713871 q 16.91894,23.310551 29.70215,49.414061 l -12.08496,6.28418 q -2.95411,-6.23047 -6.49903,-12.99805 -31.36719,5.26368 -74.92676,9.34571 z M 337.94922,85.976562 V 160.47363 H 326.29395 V 105.3125 q -4.35059,6.12305 -10.09766,12.67578 l -6.06934,-11.54785 q 10.90332,-12.084961 18.69141,-28.144532 4.72656,-9.721679 9.45312,-23.203125 l 11.22559,3.061524 q -4.8877,14.716797 -11.54785,27.822265 z M 399.12598,81.25 h 16.16699 v 10.795898 h -16.16699 v 56.396482 q 0,7.08985 -3.4375,9.45313 -2.52442,1.77246 -9.50684,1.77246 -8.54004,0 -17.50977,-0.9668 l -2.30957,-11.76269 q 9.56055,1.39648 17.83204,1.39648 2.25586,0 2.73925,-0.9668 0.32227,-0.69824 0.32227,-2.30957 V 92.045898 H 343.32031 V 81.25 h 43.93555 V 57.832031 h 11.87012 z m -33.99903,52.0459 q -6.06933,-16.16699 -14.98535,-29.48731 l 10.25879,-5.96191 q 9.66797,14.2334 15.52246,29.16504 z m 83.25196,2.73926 q 4.29687,4.99511 9.66796,7.41211 8.8086,3.9746 23.09571,3.9746 h 45.76172 q -1.9336,3.65235 -3.59864,10.47364 h -42.70019 q -18.47656,0 -28.30567,-5.80078 -4.02832,-2.417 -8.8623,-7.89551 -0.37598,0.42969 -0.91309,1.07422 -7.8955,9.3457 -15.68359,15.2539 L 420.3418,149.5166 q 8.54004,-5.10254 16.48925,-11.54785 v -26.5332 h -15.62988 v -10.58106 h 27.17774 z m 13.96484,-71.274418 2.84668,-0.214844 q 24.86816,-1.71875 44.6875,-7.358398 l 8.37891,9.453125 q -20.83985,5.478516 -44.47266,7.412109 v 13.911133 h 49.73633 V 98.4375 h -18.04688 v 43.77441 H 493.60352 V 98.4375 h -19.81934 q -0.26856,17.24121 -2.57813,27.44629 -2.09472,9.39941 -6.875,16.86523 l -9.88281,-7.46582 q 5.31738,-8.27148 6.82129,-20.51757 1.07422,-8.43262 1.07422,-22.934575 z M 442.4707,85.761719 Q 434.25293,74.160156 424.74609,64.975586 l 8.8086,-7.036133 q 9.23828,7.734375 18.58398,19.658203 z"></path>
</svg>
