<svg xmlns="http://www.w3.org/2000/svg" id="svg1" version="1.1" height="200" width="990">
  <defs id="defs1"></defs>
  <rect id="rect1" stroke="none" fill="none" height="200" width="990" y="0" x="0"></rect>
  <path aria-label="長崎県島原半島" style="font-size:100px;font-family:'BIZ UDPGothic';fill:#ff0000" id="text1" d="m 28.515625,75 v 7.8125 h 53.759766 v 6.103516 H 28.515625 v 7.861328 H 82.275391 V 102.7832 H 28.515625 v 8.39844 h 68.994141 v 6.29883 H 52.832031 q 3.515625,8.49609 10.69336,15.47851 12.011718,-6.98242 20.849609,-14.5996 l 6.201172,5.41992 q -10.15625,7.37304 -22.070313,13.52539 11.181641,8.64258 29.101563,13.86718 l -5.126953,6.88477 Q 78.027344,153.02734 69.042969,146.97266 51.904297,135.49805 45.410156,117.48047 H 28.515625 v 31.20117 l 0.683594,-0.14648 q 14.355468,-3.125 28.417968,-7.56836 l 0.585938,6.68945 q -22.802734,7.66602 -45.996094,12.01172 L 9.5703125,152.29492 Q 14.941406,151.36719 20.507812,150.3418 V 117.48047 H 2.4902344 v -6.29883 H 20.507812 V 68.701172 H 87.5 V 75 Z m 159.863285,35.00977 v 41.40625 q 0,4.44335 -2.2461,6.25 -2.00195,1.66015 -6.83594,1.66015 -6.10351,0 -12.01171,-0.58594 l -1.70899,-7.32421 q 7.4707,1.02539 12.10938,1.02539 2.29492,0 2.83203,-0.92774 0.43945,-0.68359 0.43945,-2.19726 v -39.30664 h -44.28711 v 30.81054 h -25.78125 v 8.10547 h -6.59179 V 82.617187 h 6.59179 v 51.220703 h 6.29883 V 65.625 h 6.68945 v 68.21289 h 6.39649 V 82.617187 h 6.39648 v 20.800783 h 60.88867 v 6.5918 z M 161.47461,74.609375 V 64.501953 h 7.32422 v 10.107422 h 23.87695 v 6.494141 H 168.4082 q -0.34179,1.416015 -0.73242,2.539062 11.76758,5.078125 23.82813,12.353516 l -4.6875,5.615236 q -10.15625,-6.689455 -21.82618,-12.695314 -3.07617,4.492187 -6.93359,7.324218 -5.17578,3.710938 -13.57422,5.957036 l -4.10156,-5.712895 q 9.86328,-2.392578 14.50195,-6.494141 4.83399,-4.248047 6.15235,-8.886718 h -20.94727 v -6.494141 z m 11.32812,43.798825 v 24.80469 h -22.41211 v 5.27344 h -6.59179 V 118.4082 Z m -22.41211,6.29883 v 12.30469 h 15.91797 V 124.70703 Z M 282.86133,67.578125 V 114.4043 H 225.78125 V 67.578125 Z m -49.36524,6.005859 v 7.714844 h 41.55274 v -7.714844 z m 0,13.330078 v 7.763672 h 41.55274 v -7.763672 z m 0,13.476568 v 8.30078 h 41.55274 v -8.30078 z M 214.4043,122.2168 h 83.05664 v 6.49414 h -41.99219 v 30.81054 h -7.91016 V 128.71094 H 206.5918 V 74.267578 h 7.8125 z m -9.22852,29.6875 q 12.79297,-6.15235 23.0957,-19.28711 l 6.5918,3.66211 q -10.40039,13.62304 -24.07226,21.72851 z m 84.17969,4.10156 q -10.25391,-11.18164 -23.29102,-19.82422 l 6.00586,-4.49219 q 11.76758,7.37305 23.68164,18.79883 z m 78.66211,-6.78711 h -53.8086 v 5.71289 h -7.71484 v -23.0957 h 7.71484 v 11.18164 h 19.0918 v -14.69727 h -19.0918 V 73.291016 h 23.97461 q 3.36914,-4.931641 5.41993,-9.179688 l 8.6914,2.001953 q -2.39258,3.515625 -5.46875,7.177735 h 35.25391 v 30.517574 h -59.96094 v 6.00586 h 75.3418 v 6.10352 h -75.3418 v 6.29883 h 70.94727 q -0.73243,23.87695 -3.32032,30.71289 -1.5625,4.19922 -5.51757,5.66406 -2.5879,0.92773 -6.83594,0.92773 -6.15235,0 -11.76758,-0.8789 l -1.61133,-7.22656 q 6.73828,1.02539 12.10938,1.02539 4.24804,0 5.37109,-1.95313 2.24609,-3.90625 3.36914,-22.16797 h -43.94531 v 14.69727 h 19.58008 v -11.18164 h 7.51953 z M 322.11914,79.296875 v 6.298828 h 52.09961 v -6.298828 z m 0,12.011719 v 6.689453 h 52.09961 v -6.689453 z m 132.86133,-4.394532 h 31.78711 v 37.890628 h -25.19531 v 27.68554 q 0,3.75977 -1.75782,5.3711 -1.75781,1.66015 -6.39648,1.66015 -6.34766,0 -11.86524,-0.83007 l -1.36718,-6.98243 q 5.9082,0.97657 10.98632,0.97657 2.68555,0 2.68555,-2.49024 V 124.80469 H 428.17383 V 86.914062 h 19.18945 l 0.3418,-0.683593 q 1.66015,-3.564453 3.66211,-8.837891 l 0.48828,-1.318359 H 418.01758 V 103.4668 q 0,22.70508 -1.80664,33.88672 -1.85547,11.71875 -7.42188,21.5332 l -6.20117,-5.3711 q 5.32227,-9.96093 6.73828,-24.12109 0.87891,-8.83789 0.87891,-24.21875 V 69.384766 h 83.83789 v 6.689453 h -33.98438 q -0.0976,0.341797 -0.29297,0.830078 -1.75781,4.443359 -4.78515,10.009765 z m 24.07226,6.201172 h -43.26171 v 9.472656 h 43.26171 z m -43.26171,15.576176 v 9.91211 h 43.26171 v -9.91211 z m 54.05273,45.70312 q -7.08008,-10.40039 -17.67578,-20.99609 l 5.81055,-4.49219 q 10.30273,9.52148 17.87109,20.11719 z m -71.38672,-4.19922 q 10.15625,-8.05664 16.79688,-20.80078 l 6.39648,3.61328 q -6.39648,12.8418 -17.57812,22.70508 z M 545.70312,99.902344 V 64.501953 h 7.91016 v 35.400391 h 37.98828 v 7.080076 h -37.98828 v 15.625 h 43.89649 v 7.17774 h -43.89649 v 29.6875 h -7.91016 v -29.6875 h -43.21289 v -7.17774 h 43.21289 v -15.625 h -37.30468 v -7.080076 z m -20.8496,-3.710938 Q 518.75,82.763672 511.66992,73.095703 l 7.32422,-3.710937 q 8.10547,11.71875 13.47656,22.90039 z m 41.8457,-3.173828 q 7.66601,-11.474609 12.79297,-24.707031 l 8.10547,3.076172 q -5.81055,13.134765 -13.81836,24.902343 z m 101.31836,56.201172 h -53.8086 v 5.71289 h -7.71484 v -23.0957 h 7.71484 v 11.18164 h 19.0918 v -14.69727 h -19.0918 V 73.291016 h 23.97461 q 3.36914,-4.931641 5.41993,-9.179688 l 8.6914,2.001953 q -2.39258,3.515625 -5.46875,7.177735 h 35.25391 v 30.517574 h -59.96094 v 6.00586 h 75.3418 v 6.10352 h -75.3418 v 6.29883 h 70.94727 q -0.73243,23.87695 -3.32032,30.71289 -1.5625,4.19922 -5.51757,5.66406 -2.5879,0.92773 -6.83594,0.92773 -6.15235,0 -11.76758,-0.8789 l -1.61133,-7.22656 q 6.73828,1.02539 12.10938,1.02539 4.24804,0 5.37109,-1.95313 2.24609,-3.90625 3.36914,-22.16797 h -43.94531 v 14.69727 h 19.58008 v -11.18164 h 7.51953 z M 622.11914,79.296875 v 6.298828 h 52.09961 v -6.298828 z m 0,12.011719 v 6.689453 h 52.09961 v -6.689453 z"></path>
</svg>
