<svg version="1.1" xmlns="http://www.w3.org/2000/svg" xmlns:xlink="http://www.w3.org/1999/xlink" width="1656.15616" height="144.14414" viewBox="0,0,1656.15616,144.14414"><g transform="translate(588.07807,-107.92795)"><g stroke="none" stroke-miterlimit="10"><path d="M-334.02736,131.13672h12.30469v22.09375h21.92968v11.21094h-21.92968v3.44531c0,18.59376 -2.66146,32.5573 -7.98438,41.89062c-5.14063,8.96875 -14.20052,15.84115 -27.17969,20.61719l-7.65625,-9.73437c12.6875,-4.375 21.18229,-11.11979 25.48438,-20.23438c3.35417,-7.03645 5.03125,-17.82812 5.03125,-32.375v-3.60937h-33.19531v31.33595h-12.30469v-31.33595h-20.39844v-11.21094h20.39844v-21.27344h12.30469v21.27344h33.19531zM-289.40236,172.80859h96.30468v12.30469h-96.30468zM-183.41798,217.37891c6.34375,-9.33333 11.79427,-20.76302 16.35156,-34.28906c4.95833,-14.80209 8.09375,-29.84115 9.40625,-45.1172l12.52344,2.57031c-3.24479,22.38542 -7.60156,41.19792 -13.07031,56.4375c-3.9375,11.08333 -8.78646,20.79948 -14.54688,29.14844zM-95.15236,226.67578c-13.19792,-21.91145 -23.38803,-50.65885 -30.57032,-86.24219l11.86719,-3.66406c6.34375,31.79167 16.1875,59.00781 29.53125,81.64844zM-100.89455,150.8789c-2.11459,-5.79687 -5.79688,-12.52344 -11.04688,-20.17969l8.58594,-3.11719c4.19271,5.76042 7.96614,12.35938 11.32031,19.79688zM-85.19924,148.41797c-2.80729,-7.25521 -6.47136,-14.05469 -10.99219,-20.39844l8.20313,-2.67969c4.33854,5.32292 8.03906,11.73958 11.10156,19.25zM-70.98049,172.80859h96.30469v12.30469h-96.30469zM43.2617,132.28515h12.74219v59.82813h-12.74219zM99.42576,131.13672h12.74219v39.10156c0,13.74479 -1.11198,23.97136 -3.33594,30.67969c-1.85937,5.72396 -4.39323,10.28125 -7.60156,13.67187c-6.67187,7.18229 -17.39062,12.48698 -32.15625,15.91407l-6.28906,-11.21094c16.15104,-3.28125 26.50521,-8.73177 31.0625,-16.35156c2.88021,-4.84896 4.61198,-10.97396 5.19531,-18.375c0.25521,-3.42709 0.38281,-8.16667 0.38281,-14.21875zM140.44138,138.90234h65.95312l7.27344,6.39844c-6.16146,14.58333 -13.50781,27.83594 -22.03906,39.75782c12.10417,9.47917 23.64323,20.16146 34.61718,32.04687l-9.07812,10.28125c-10.75521,-12.21354 -21.69271,-23.26041 -32.8125,-33.14062c-11.95833,14.10937 -27.08854,25.26562 -45.39063,33.46874l-6.5625,-11.32031c13.59896,-5.54167 24.91927,-12.45052 33.96094,-20.72656c8.45833,-7.72917 16.20573,-17.26302 23.24219,-28.60157c3.75521,-6.08854 6.67187,-11.73958 8.75,-16.95312h-57.91406zM249.59763,130.80859h12.74218v31.39063c21.76563,6.70833 39.79427,13.5625 54.08594,20.5625l-6.125,11.8125c-13.70833,-6.96354 -29.69531,-13.58073 -47.96094,-19.85156v55.5625h-12.74218zM382.54296,217.48828c21.40103,-5.39583 32.10155,-17.66406 32.10155,-36.80468c0,-8.34896 -2.15103,-15.53126 -6.4531,-21.54688c-4.81251,-6.78125 -12.14064,-11.13802 -21.98439,-13.07031c-2.15104,16.91667 -5.08594,30.77083 -8.80469,41.5625c-2.55208,7.54687 -5.72395,14.67448 -9.51562,21.38281c-5.46875,9.55208 -11.6849,14.32812 -18.64844,14.32812c-5.17708,0 -9.78906,-2.33333 -13.83594,-7c-2.58854,-2.95312 -4.68489,-6.58072 -6.28906,-10.88281c-2.11458,-5.57812 -3.17187,-11.57551 -3.17187,-17.99218c0,-10.39063 2.86198,-19.96094 8.58593,-28.71094c5.79688,-8.93229 13.32553,-15.42187 22.58594,-19.46875c6.74479,-2.95312 14.14584,-4.42969 22.20313,-4.42969c12.57812,0 23.26042,3.3724 32.04691,10.11719c10.79167,8.27604 16.1875,19.9974 16.1875,35.16406c0,25.41146 -12.85158,41.52604 -38.55473,48.34375zM374.33983,145.6289c-6.45312,0.72917 -11.84895,2.46094 -16.1875,5.19531c-2.77083,1.78646 -5.52344,4.15625 -8.25781,7.10938c-7.58333,8.38542 -11.375,18.10156 -11.375,29.14844c0,8.05729 1.60417,14.36459 4.8125,18.92188c1.96875,2.80729 3.91927,4.21093 5.85156,4.21093c2.625,0 5.57813,-2.89844 8.85938,-8.69531c8.02083,-14.10937 13.45312,-32.73958 16.29687,-55.89063zM492.62891,138.57422h42.3281l5.5235,5.63281c-1.4948,11.08333 -3.40887,20.5625 -5.7422,28.4375c-2.55213,8.78646 -6.16153,17.33594 -10.8282,25.64844c5.8698,9.00521 12.50523,16.35156 19.9063,22.03906l-7.1641,12.41406c-7.54687,-6.85417 -14.05467,-14.72917 -19.5234,-23.625c-4.41147,6.19792 -8.38543,11.10157 -11.9219,14.71094c-3.6458,3.75521 -7.61977,7 -11.9219,9.73438l-7.7109,-10.55469c9.4792,-5.39583 17.82817,-13.83594 25.0469,-25.32031c-0.14587,-0.29167 -0.2917,-0.5651 -0.4375,-0.82031c-4.2292,-8.45833 -7.63807,-18.55729 -10.2266,-30.29688c-1.45833,-6.59896 -2.4427,-12.23177 -2.9531,-16.89844h-6.3984v-6.83594h-5.25v91.27344h-11.211v-22.25781l-3.5547,0.875c-10.97393,2.84375 -21.47393,5.15885 -31.5,6.94531l-3.6093,-11.64844c4.95833,-0.65625 8.3854,-1.1302 10.2812,-1.42187v-63.76563h-8.0391v-10.66406h54.9063zM474.14451,142.83984h-17.5v13.07031h17.5zM474.14451,165.20703h-17.5v13.23438h17.5zM474.14451,187.51953h-17.5v17.39063c1.89587,-0.32813 3.31773,-0.56511 4.2656,-0.71094c2.91667,-0.47396 7.32813,-1.25781 13.2344,-2.35156zM507.6133,149.67578c1.4948,13.78125 4.6302,25.88542 9.4062,36.3125c5.1042,-10.82813 8.7318,-22.93229 10.8828,-36.3125zM597.68358,201.84766c5.10413,4.70312 9.60673,9.77083 13.5078,15.20312l-9.8438,7.16406c-4.30207,-6.38021 -9.151,-12.12239 -14.5468,-17.22656l7.875,-5.14062h-18.4297v-9.29688h50.5312v-7.92968h-46.2656v-8.85938h70.6563v8.85938h-12.6329v7.92968h15.9141v9.29688h-15.9141v21.60156c0,3.24479 -0.65623,5.63281 -1.9687,7.16406c-1.56773,1.85937 -4.6667,2.78906 -9.2969,2.78906c-6.67187,0 -12.10417,-0.21875 -16.2969,-0.65625l-2.3515,-10.88281c6.8906,0.83854 12.04943,1.25781 15.4765,1.25781c1.349,0 2.1511,-0.30989 2.4063,-0.92968c0.18227,-0.32813 0.2734,-0.80209 0.2734,-1.42188v-18.92187zM573.2383,174.33985v59.77343h-11.5391v-46.10156c-2.66147,2.88021 -6.03387,6.10677 -10.1172,9.67969l-5.4687,-10.71875c10.06247,-8.09376 19.54163,-19.59636 28.4375,-34.50782l9.1875,5.79688c-3.099,5.46875 -6.3985,10.57292 -9.8985,15.3125zM644.66011,131.24609v38.44531h-58.0234v-38.44531zM597.68358,139.77734v6.83594h35.6562v-6.83594zM597.68358,154.54297v7.10938h35.6562v-7.10937zM546.87891,152.35547c9.58853,-6.63542 17.5729,-14.78385 23.9531,-24.44531l10.2266,5.25c-8.45833,12.35938 -17.90103,21.89323 -28.3281,28.60156zM707.49611,146.9414v-19.25h12.414v19.25h36.4219v10.88281h-36.4219v21.16406h46.3204v10.66407h-42.5469c8.05727,14.61979 22.42183,25.33853 43.0937,32.15624l-7.3828,10.82813c-11.5208,-4.15625 -21.29163,-9.86198 -29.3125,-17.11719c-6.67187,-6.05208 -11.77603,-12.65104 -15.3125,-19.79687c-3.97393,9.66145 -9.60673,17.51822 -16.8984,23.57031c-6.92707,5.72396 -16.36977,10.77344 -28.3281,15.14844l-7.3829,-10.5c12.03127,-2.84375 22.27607,-8.16667 30.7344,-15.96875c5.32293,-4.95833 9.3698,-11.0651 12.1406,-18.32031h-45.2265v-10.66407h47.6875v-21.16406h-23.461c-2.6614,5.65104 -5.96087,11.10156 -9.8984,16.35156l-10.3906,-7.05469c7.5104,-8.82292 12.99737,-20.54427 16.4609,-35.16406l11.8672,2.57031c-1.05727,4.375 -2.2604,8.51302 -3.6094,12.41406zM855.53511,200.75391c7.65627,9.33333 15.7865,16.46094 24.3907,21.38281l-6.836,11.53906c-7.94787,-5.14063 -15.8411,-12.81511 -23.6797,-23.02344c-7.0364,9.88021 -15.02077,17.88282 -23.9531,24.00782l-5.4687,-8.85938l-5.961,4.70313c-3.2812,-7.21875 -6.89057,-13.25261 -10.8281,-18.10157l8.5859,-5.63281c4.26567,4.8125 7.80213,9.88021 10.6094,15.20313c8.20313,-6.16146 14.8568,-13.30729 19.961,-21.4375c-4.9948,-8.02083 -8.9323,-16.26042 -11.8125,-24.71875c-1.56773,3.09896 -3.5365,6.47136 -5.9063,10.11719l-5.1406,-9.40625v29.91406h-41.5078v-74.59376h41.5078v42.60156c6.125,-11.70313 10.6823,-27.21615 13.6719,-46.53906l11.6484,1.80469c-0.9844,5.54167 -2.20577,11.17448 -3.6641,16.89844h36.8594v10.77344h-9.3516c-2.2604,16.84376 -6.6354,31.29949 -13.125,43.36719zM848.15231,189.98047c4.52087,-9.91667 7.45577,-20.78125 8.8047,-32.59375h-18.9219c-0.43747,1.42187 -0.92963,2.88021 -1.4765,4.375c2.1146,8.96875 5.97917,18.375 11.5937,28.21875zM788.76171,141.80078v11.97656h20.3438v-11.97656zM788.76171,162.63672v11.97656h20.3438v-11.97656zM788.76171,183.25391v13.45312h20.3438v-13.45312zM770.93361,226.67578c6.16147,-5.43229 11.01043,-11.73958 14.5469,-18.92187l9.8437,5.30468c-5.03127,9.80729 -10.13543,16.97136 -15.3125,21.49219z" fill="#ee4d4d" stroke-width="1"/><path d="M-588.07807,252.0721v-144.14414h1656.15616v144.14414z" fill="none" stroke-width="0"/></g></g></svg>