<svg xmlns="http://www.w3.org/2000/svg" id="svg1" version="1.1" height="200" width="990">
  <defs id="defs1"></defs>
  <rect id="rect1" stroke="none" fill="none" height="200" width="990" y="0" x="0"></rect>
  <path aria-label="国後島付近" style="font-size:100px;font-family:'BIZ UDPGothic';fill:#ff0000" id="text1" d="m 52.539062,91.992187 v 14.501953 h 22.509766 v 6.20117 H 52.539062 v 18.99414 h 27.197266 v 6.49414 H 20.019531 v -6.49414 H 45.117187 V 112.69531 H 24.414062 v -6.20117 H 45.117187 V 91.992187 H 21.09375 v -6.49414 h 57.226562 v 6.49414 z m 16.503907,37.988283 q -4.589844,-7.17774 -10.107422,-12.30469 l 5.566406,-3.4668 q 5.419922,4.93165 10.205078,11.76758 z M 92.529297,69.824219 v 89.697261 h -7.8125 v -5.41992 H 15.136719 v 5.41992 H 7.3242187 V 69.824219 Z M 15.136719,76.416016 V 147.31445 H 84.716797 V 76.416016 Z M 150.78125,110.83984 q -2.34375,0.0977 -5.71289,0.3418 -1.5625,0.0977 -11.66992,0.48828 l -2.00196,-6.59179 q 5.22461,-0.0977 15.86914,-0.43946 l 0.53711,-0.53711 q 1.31836,-1.2207 5.27344,-5.029294 -8.05664,-9.619141 -19.0918,-18.50586 l 5.12696,-4.785156 q 4.05273,3.222656 7.03125,6.054687 6.93359,-8.105468 12.25586,-17.675781 l 6.98242,3.417969 q -7.71484,11.181641 -14.84375,18.505859 3.61328,3.759766 7.37305,8.105469 l 1.36718,-1.464844 q 9.76563,-10.302734 17.23633,-20.068359 l 6.39649,4.003906 q -11.37696,13.916016 -26.12305,27.636724 4.98047,-0.29297 7.4707,-0.39063 3.61328,-0.19531 18.31055,-1.2207 Q 178.56445,96.826172 175,92.578125 l 5.9082,-3.320313 q 8.25196,9.326172 15.18555,21.435548 l -6.29883,3.56445 q -2.49023,-4.29687 -3.80859,-6.29883 -11.23047,1.36719 -26.85547,2.34375 -2.29492,3.90625 -4.88281,7.37305 h 28.46679 l 4.6875,4.19922 q -8.30078,11.37695 -18.35937,19.04297 11.57226,7.22656 28.75976,11.18164 l -4.39453,7.08008 q -16.94336,-4.63867 -30.61523,-13.96485 -15.625,10.00977 -31.78711,14.16016 l -4.10156,-6.68945 q 15.96679,-3.66211 30.02929,-11.91407 -0.24414,-0.24414 -0.58593,-0.53711 -5.90821,-4.93164 -11.76758,-11.86523 -4.58985,4.19922 -10.69336,7.71484 l -4.98047,-5.12695 q 13.03711,-6.98242 21.875,-20.11719 z m 12.35352,25.87891 q 8.3496,-6.00586 13.67187,-12.8418 h -27.49023 q 6.20117,7.08008 13.81836,12.8418 z m -39.30664,-32.17773 v 54.98046 h -7.71485 v -45.21484 q -4.58984,5.27344 -10.30273,10.40039 l -4.00391,-6.78711 Q 115.625,106.39648 125.92773,87.011719 l 6.5918,3.564453 q -4.10156,7.519531 -8.6914,13.964848 z M 102.7832,87.792969 q 12.40235,-9.521485 20.41016,-22.802735 l 6.5918,3.515625 q -9.32618,15.087891 -22.70508,25.195313 z m 165.23438,61.425781 h -53.8086 v 5.71289 h -7.71484 v -23.0957 h 7.71484 v 11.18164 h 19.0918 v -14.69727 h -19.0918 V 73.291016 h 23.97461 q 3.36914,-4.931641 5.41993,-9.179688 l 8.6914,2.001953 q -2.39258,3.515625 -5.46875,7.177735 h 35.25391 v 30.517574 h -59.96094 v 6.00586 h 75.3418 v 6.10352 h -75.3418 v 6.29883 h 70.94727 q -0.73243,23.87695 -3.32032,30.71289 -1.5625,4.19922 -5.51757,5.66406 -2.5879,0.92773 -6.83594,0.92773 -6.15235,0 -11.76758,-0.8789 l -1.61133,-7.22656 q 6.73828,1.02539 12.10938,1.02539 4.24804,0 5.37109,-1.95313 2.24609,-3.90625 3.36914,-22.16797 h -43.94531 v 14.69727 h 19.58008 v -11.18164 h 7.51953 z M 222.11914,79.296875 v 6.298828 h 52.09961 v -6.298828 z m 0,12.011719 v 6.689453 h 52.09961 v -6.689453 z m 103.36914,-1.123047 v 69.335933 h -7.71484 v -55.37109 q -0.19532,0.29297 -0.48828,0.73242 -4.39454,7.17774 -10.88868,14.69727 l -4.10156,-7.37305 q 9.76563,-11.32812 16.35742,-25.195311 4.73633,-9.91211 8.83789,-22.900391 l 7.61719,2.099609 q -4.49219,13.427735 -9.61914,23.97461 z m 55.22461,-2.001953 h 16.60156 v 7.177734 h -16.60156 v 54.541012 q 0,5.17578 -2.49023,7.17774 -2.09961,1.61133 -7.76368,1.61133 -7.91015,0 -14.74609,-0.6836 L 354.10156,150 q 8.44727,1.2207 15.625,1.2207 2.14844,0 2.68555,-0.78125 0.39062,-0.63476 0.39062,-2.4414 V 95.361328 h -42.72461 v -7.177734 h 42.72461 V 65.283203 h 7.91016 z m -28.41797,45.410156 q -5.71289,-14.30664 -13.81836,-26.07422 l 6.49414,-4.19922 q 8.39844,12.35352 14.20899,25.87891 z m 74.21875,4.73633 q 4.29688,4.44336 9.81445,7.22656 8.59375,4.3457 23.58399,4.3457 h 38.37891 q -1.41602,2.88086 -2.49024,6.88477 H 459.7168 q -16.35743,0 -25.63477,-4.58984 -5.56641,-2.78321 -10.74219,-8.20313 -8.34961,9.57031 -16.25976,15.47852 l -4.58985,-7.08008 q 7.95899,-4.98047 16.40625,-12.5 v -25.6836 h -16.21093 v -6.7871 h 23.82812 z M 440.9668,74.21875 q 1.70898,-0.146484 3.71093,-0.292969 21.92383,-1.80664 39.99024,-7.617187 l 5.61523,6.103515 q -17.91992,5.371094 -41.60156,7.763672 v 14.941406 h 47.41211 v 6.884763 h -17.91992 v 43.40821 h -7.8125 v -43.40821 h -21.67969 q 0,13.52539 -1.17187,22.07032 -1.5625,11.4746 -6.83594,20.21484 l -6.49414,-5.17578 q 4.78515,-8.30078 6.00586,-19.33594 0.78125,-7.27539 0.78125,-20.654296 z m -18.35938,14.697266 q -7.51953,-9.960938 -15.52734,-17.138672 l 5.51758,-4.6875 q 8.20312,6.689453 15.96679,16.308593 z"></path>
</svg>
