<svg xmlns="http://www.w3.org/2000/svg" id="svg1" version="1.1" height="200" width="990">
  <defs id="defs1"></defs>
  <rect id="rect1" stroke="none" fill="none" height="200" width="990" y="0" x="0"></rect>
  <path aria-label="台湾付近" style="font-size:100px;font-family:'BIZ UDPGothic';fill:#ff0000" id="text1" d="M 19.628906,96.337891 Q 32.910156,79.736328 41.113281,64.501953 l 8.105469,2.783203 Q 40.234375,82.275391 29.052734,95.996094 l 5.175782,-0.195313 q 15.917968,-0.585937 35.595703,-2.148437 l 5.957031,-0.439453 q -6.591797,-7.56836 -12.158203,-13.03711 l 6.591797,-3.564453 q 10.40039,9.521484 24.804687,26.904302 l -6.982422,4.78515 Q 83.984375,103.125 80.46875,98.779297 l -4.394531,0.537109 Q 48.486328,102.58789 8.3007813,104.29688 L 5.7128906,96.679687 q 6.6406254,-0.09766 10.8398434,-0.24414 z m 65.576172,18.847659 v 44.28711 h -8.105469 v -7.08008 H 22.802734 v 7.08008 h -8.105468 v -44.28711 z m -62.402344,6.78711 v 23.4375 h 54.296875 v -23.4375 z M 165.08789,73.583984 h 32.12891 v 6.298828 h -23.38868 v 19.189454 q 0,3.076174 -1.5625,4.492184 -1.5625,1.41602 -5.66406,1.41602 -5.02929,0 -8.49609,-0.48828 l -1.12305,-6.298831 q 4.39453,0.683594 7.4707,0.683594 1.61133,0 1.9043,-1.171875 0.14649,-0.537109 0.14649,-1.416016 v -16.40625 h -10.64454 q -0.43945,9.91211 -2.24609,14.794922 -2.63672,6.982426 -12.01172,11.914066 l -5.07812,-4.83399 q 8.49609,-4.052732 10.69336,-10.058591 1.46484,-4.003907 1.61132,-11.816407 h -21.82617 v -6.298828 h 30.32227 v -9.082031 h 7.76367 z m 24.60938,35.009766 v 18.79883 h -49.60938 q -0.53711,3.90625 -1.31836,7.32422 h 55.32227 q -0.97657,12.30468 -3.41797,18.01757 -1.66016,3.95508 -5.95703,5.56641 -3.32032,1.2207 -9.22852,1.2207 -7.91016,0 -15.86914,-0.78125 l -1.70898,-7.03125 q 10.69336,1.12305 17.48046,1.12305 4.19922,0 5.66407,-0.97656 2.58789,-1.70899 4.15039,-11.03516 h -47.94922 q -0.73242,2.68555 -1.66016,5.71289 l -7.71484,-1.80664 q 2.92969,-8.64258 5.32226,-23.24218 h 48.68165 v -6.98243 h -52.39258 v -5.9082 z M 119.18945,86.083984 q -6.29882,-8.349609 -13.96484,-15.08789 l 5.37109,-4.980469 q 7.37305,5.810547 14.20899,14.501953 z m -3.07617,25.439456 q -7.4707,-9.13086 -14.50195,-15.136721 l 5.32226,-5.273438 q 7.56836,6.103516 14.79493,14.501949 z m -12.30469,41.69922 q 8.4961,-12.74414 15.91797,-33.39844 l 6.00586,4.39453 q -6.39648,19.28711 -15.42969,34.66797 z m 87.89063,-50.14649 Q 184.86328,93.261719 176.9043,85.791016 l 5.32226,-3.90625 q 9.08203,7.666015 15.28321,16.699218 z m -69.28711,-4.589842 q 8.44726,-6.054687 13.62305,-15.478516 l 6.29882,2.587891 q -5.22461,10.546875 -14.50195,17.480467 z m 103.07617,-8.300781 v 69.335933 h -7.71484 v -55.37109 q -0.19532,0.29297 -0.48828,0.73242 -4.39454,7.17774 -10.88868,14.69727 l -4.10156,-7.37305 q 9.76563,-11.32812 16.35742,-25.195311 4.73633,-9.91211 8.83789,-22.900391 l 7.61719,2.099609 q -4.49219,13.427735 -9.61914,23.97461 z m 55.22461,-2.001953 h 16.60156 v 7.177734 h -16.60156 v 54.541012 q 0,5.17578 -2.49023,7.17774 -2.09961,1.61133 -7.76368,1.61133 -7.91015,0 -14.74609,-0.6836 L 254.10156,150 q 8.44727,1.2207 15.625,1.2207 2.14844,0 2.68555,-0.78125 0.39062,-0.63476 0.39062,-2.4414 V 95.361328 h -42.72461 v -7.177734 h 42.72461 V 65.283203 h 7.91016 z m -28.41797,45.410156 q -5.71289,-14.30664 -13.81836,-26.07422 l 6.49414,-4.19922 q 8.39844,12.35352 14.20899,25.87891 z m 74.21875,4.73633 q 4.29688,4.44336 9.81445,7.22656 8.59375,4.3457 23.58399,4.3457 h 38.37891 q -1.41602,2.88086 -2.49024,6.88477 H 359.7168 q -16.35743,0 -25.63477,-4.58984 -5.56641,-2.78321 -10.74219,-8.20313 -8.34961,9.57031 -16.25976,15.47852 l -4.58985,-7.08008 q 7.95899,-4.98047 16.40625,-12.5 v -25.6836 h -16.21093 v -6.7871 h 23.82812 z M 340.9668,74.21875 q 1.70898,-0.146484 3.71093,-0.292969 21.92383,-1.80664 39.99024,-7.617187 l 5.61523,6.103515 q -17.91992,5.371094 -41.60156,7.763672 v 14.941406 h 47.41211 v 6.884763 h -17.91992 v 43.40821 h -7.8125 v -43.40821 h -21.67969 q 0,13.52539 -1.17187,22.07032 -1.5625,11.4746 -6.83594,20.21484 l -6.49414,-5.17578 q 4.78515,-8.30078 6.00586,-19.33594 0.78125,-7.27539 0.78125,-20.654296 z m -18.35938,14.697266 q -7.51953,-9.960938 -15.52734,-17.138672 l 5.51758,-4.6875 q 8.20312,6.689453 15.96679,16.308593 z"></path>
</svg>
