<svg xmlns="http://www.w3.org/2000/svg" id="svg1" version="1.1" height="200" width="990">
  <defs id="defs1"></defs>
  <rect id="rect1" stroke="none" fill="none" height="200" width="990" y="0" x="0"></rect>
  <path aria-label="徳島県北部" style="font-size:100px;font-family:'BIZ UDPGothic';fill:#ff0000" id="text1" d="M 65.917969,90.820312 H 91.113281 V 117.08984 H 33.837891 V 90.820312 h 24.560546 v -9.033203 h -28.36914 v -6.396484 h 28.36914 V 64.501953 h 7.519532 v 10.888672 h 30.566406 v 6.396484 H 65.917969 Z m -15.283203,6.103516 h -9.91211 v 14.257812 h 9.91211 z m 6.298828,0 V 111.18164 H 67.236328 V 96.923828 Z m 16.601562,0 v 14.257812 h 10.69336 V 96.923828 Z m -50.78125,7.470702 v 55.12695 h -7.519531 v -45.16601 q -4.931641,5.76172 -9.8144531,10.35156 l -3.90625,-7.03125 Q 14.648438,106.29883 24.414062,87.207031 l 6.396485,3.710938 q -3.710938,7.03125 -8.056641,13.476561 z M 2.3925781,87.402344 Q 14.453125,77.978516 21.777344,64.892578 l 6.738281,3.515625 q -8.789063,14.941406 -21.8261719,25 z M 27.783203,151.31836 q 5.078125,-9.66797 7.324219,-23.63281 l 6.884765,1.51367 Q 39.794922,145.3125 34.375,155.61523 Z m 19.628906,-25.19531 h 7.080078 v 20.80078 q 0,2.4414 1.660157,3.07617 1.708984,0.68359 8.05664,0.68359 8.789063,0 9.91211,-1.75781 1.318359,-2.05078 1.5625,-10.9375 l 7.177734,3.32031 q -0.09766,9.76563 -2.783203,13.28125 -1.5625,1.95313 -4.833984,2.49024 -3.271485,0.53711 -11.230469,0.53711 -10.449219,0 -13.330078,-1.31836 -3.271485,-1.46485 -3.271485,-5.71289 z m 19.970703,12.35351 q -5.810546,-9.47265 -12.011718,-15.67383 l 5.71289,-3.90625 q 6.640625,6.5918 12.304688,15.18555 z m 23.925782,13.03711 q -5.859375,-15.03906 -11.132813,-23.4375 l 6.00586,-3.27148 q 6.347656,9.375 11.621093,22.60742 z m 76.708986,-2.29492 h -53.8086 v 5.71289 h -7.71484 v -23.0957 h 7.71484 v 11.18164 h 19.0918 v -14.69727 h -19.0918 V 73.291016 h 23.97461 q 3.36914,-4.931641 5.41993,-9.179688 l 8.6914,2.001953 q -2.39258,3.515625 -5.46875,7.177735 h 35.25391 v 30.517574 h -59.96094 v 6.00586 h 75.3418 v 6.10352 h -75.3418 v 6.29883 h 70.94727 q -0.73243,23.87695 -3.32032,30.71289 -1.5625,4.19922 -5.51757,5.66406 -2.5879,0.92773 -6.83594,0.92773 -6.15235,0 -11.76758,-0.8789 l -1.61133,-7.22656 q 6.73828,1.02539 12.10938,1.02539 4.24804,0 5.37109,-1.95313 2.24609,-3.90625 3.36914,-22.16797 h -43.94531 v 14.69727 h 19.58008 v -11.18164 h 7.51953 z M 122.11914,79.296875 v 6.298828 h 52.09961 v -6.298828 z m 0,12.011719 v 6.689453 h 52.09961 V 91.308594 Z M 282.86133,67.578125 V 114.4043 H 225.78125 V 67.578125 Z m -49.36524,6.005859 v 7.714844 h 41.55274 v -7.714844 z m 0,13.330078 v 7.763672 h 41.55274 v -7.763672 z m 0,13.476568 v 8.30078 h 41.55274 v -8.30078 z M 214.4043,122.2168 h 83.05664 v 6.49414 h -41.99219 v 30.81054 h -7.91016 V 128.71094 H 206.5918 V 74.267578 h 7.8125 z m -9.22852,29.6875 q 12.79297,-6.15235 23.0957,-19.28711 l 6.5918,3.66211 q -10.40039,13.62304 -24.07226,21.72851 z m 84.17969,4.10156 q -10.25391,-11.18164 -23.29102,-19.82422 l 6.00586,-4.49219 q 11.76758,7.37305 23.68164,18.79883 z m 41.25976,-23.19336 q -11.42578,6.25 -25.09765,11.81641 l -3.51563,-7.71485 q 17.33399,-6.15234 28.61328,-11.96289 V 98.535156 h -25.63476 v -7.421875 h 25.63476 V 65.527344 h 8.00782 v 93.212886 h -8.00782 z M 362.01172,97.949219 Q 375,91.845703 387.30469,81.591797 l 6.20117,6.103515 Q 378.36914,98.779297 362.01172,105.9082 v 38.1836 q 0,3.07617 2.24609,3.71093 1.80664,0.53711 10.35156,0.53711 8.05665,0 10.35157,-1.12304 1.66015,-0.83008 2.24609,-4.29688 0.68359,-4.44336 1.07422,-14.84375 l 7.91016,2.73438 q -0.58594,16.01562 -2.2461,19.9707 -1.61133,3.90625 -7.03125,4.88281 -4.63867,0.83008 -13.52539,0.83008 -12.10937,0 -15.42969,-1.5625 -3.95507,-1.85547 -3.95507,-7.91016 V 65.478516 h 8.00781 z m 71.97265,-21.337891 h 21.82618 v 6.787109 h -7.03125 q -2.05078,9.13086 -5.61524,18.701173 h 14.45313 v 6.88477 h -55.12696 v -6.88477 h 13.72071 l -0.0977,-0.48828 Q 414.0625,91.601562 411.71875,84.423828 l -0.3418,-1.025391 h -7.08008 v -6.787109 h 22.2168 V 64.501953 h 7.4707 z m -15.13671,6.787109 q 2.58789,7.958985 4.73632,18.701173 h 12.15821 q 2.92968,-8.105469 5.32226,-18.701173 z m 31.83593,35.888673 v 39.30664 h -7.32422 v -5.51758 h -25.97656 v 6.39649 h -7.56836 v -40.18555 z m -33.30078,6.68945 v 20.3125 h 25.97656 v -20.3125 z m 65.42969,-22.70508 q 12.8418,13.57422 12.8418,29.44336 0,5.56641 -2.00196,8.39844 -2.4414,3.27149 -8.49609,3.27149 -5.81055,0 -10.69336,-0.6836 l -1.61133,-7.61719 q 6.25,1.02539 10.15625,1.02539 3.71094,0 4.39453,-2.49023 0.29297,-1.07422 0.29297,-3.51562 0,-13.72071 -12.64648,-26.70899 5.85937,-12.695311 9.52148,-26.708983 h -15.42969 v 81.787113 h -7.37304 V 70.507812 h 27.49023 l 4.39453,3.808594 q -5.37109,17.382813 -10.83984,28.955074 z"></path>
</svg>
