<svg xmlns="http://www.w3.org/2000/svg" id="svg10" width="180" height="40" version="1.1" viewBox="0 0 180 40">
  <defs id="defs10"></defs>
  
  <path id="path1" d="m0 0h180v40h-180z" fill-opacity="0" stop-color="#000000" stroke-linecap="round" stroke-linejoin="round" stroke-width=".2" style="paint-order:stroke markers fill"></path>
  <path aria-label="震度色+予想震度" style="font-weight:bold;font-size:13.1632px;line-height:1.35;font-family:'BIZ UDPGothic';-inkscape-font-specification:'BIZ UDPGothic Bold';fill:#ffffff;stroke-width:3.00094" id="text10" d="M 25.953911,15.427942 V 14.87519 h -4.01709 v -0.91911 h 9.486759 v 0.91911 h -4.100645 v 0.552752 h 5.321841 v 2.307416 h -1.394734 v -1.478289 h -3.927107 v 2.500237 h -1.369024 v -2.500237 h -3.856407 v 1.478289 h -1.381879 v -2.307416 z m 4.550559,9.120401 q 0.983384,0.372786 2.455246,0.591316 l -0.752,1.092648 q -2.063177,-0.353504 -3.38721,-1.214768 -1.317605,-0.861264 -2.050323,-2.140305 H 25.34974 v 1.979622 q 1.420443,-0.199248 2.635211,-0.424205 l 0.08998,0.957674 q -2.262425,0.539897 -5.174012,0.938392 l -0.379213,-1.131212 q 1.009093,-0.109265 1.381879,-0.154256 l 0.07713,-0.01285 v -2.15316 h -1.407588 q -0.08998,1.131212 -0.295658,1.806083 -0.244239,0.809846 -0.784136,1.510426 l -1.144067,-0.944819 q 0.62988,-0.816273 0.784136,-1.908922 0.08356,-0.591315 0.08356,-1.471861 v -2.725194 h 11.093596 v 0.854837 h -9.711717 v 1.973194 h 10.264468 v 0.906256 h -1.459007 l 0.816273,0.539897 q -0.72629,0.60417 -1.716101,1.131212 z m -1.002665,-0.494905 q 0.925537,-0.62988 1.471861,-1.176204 h -2.808749 q 0.552752,0.707007 1.336888,1.176204 z m -6.838694,-7.320745 h 2.738048 v 0.72629 h -2.738048 z m 0,1.182631 h 2.738048 v 0.739145 h -2.738048 z m 5.212576,-1.182631 h 2.821604 v 0.72629 h -2.821604 z m 0,1.182631 h 2.821604 v 0.739145 h -2.821604 z m -4.511996,2.622356 h 8.002043 v 0.841982 h -8.002043 z m 17.482376,-5.688199 h 5.039037 v 1.079794 h -2.85374 v 1.066939 h 2.673775 v 1.04123 h -2.673775 v 1.915348 h -5.174012 v -1.915348 h -2.108169 v 1.195486 q 0,2.911586 -0.308513,4.601978 -0.237811,1.285469 -0.771281,2.34598 l -1.169777,-0.925537 q 0.488479,-1.060512 0.668444,-2.59022 0.160684,-1.343315 0.160684,-3.432201 v -4.383449 h 5.084029 v -1.156922 h 1.433298 z m -5.096884,1.079794 v 1.066939 h 2.108169 v -1.066939 z m 3.477193,0 v 1.066939 h 2.435963 v -1.066939 z m 0,2.108169 v 0.996238 h 2.435963 v -0.996238 z m 1.491144,6.748711 q -1.857503,0.964101 -4.717671,1.465434 l -0.668443,-1.182631 q 2.686629,-0.321367 4.20991,-0.983384 -1.304751,-0.944819 -2.230289,-2.243143 h -0.886973 v -1.118358 h 7.52642 l 0.674871,0.565607 q -0.957674,1.471861 -2.731621,2.770185 1.52328,0.610598 4.152064,0.899828 l -0.751999,1.214768 Q 42.77427,25.833812 40.71752,24.786155 Z m -1.908921,-2.943724 q 0.777708,0.912683 1.889639,1.606836 1.253332,-0.809845 1.93463,-1.606836 z m 10.997185,-0.38564 v 2.333125 q 0,0.507761 0.372786,0.610598 0.552752,0.154256 3.657159,0.154256 2.75733,0 3.432201,-0.160683 0.321368,-0.07713 0.41135,-0.359931 0.109265,-0.321368 0.173539,-1.497572 l 1.420443,0.43706 q -0.0707,1.266187 -0.205675,1.735383 -0.173539,0.610597 -0.642735,0.829127 -0.334222,0.154256 -0.925537,0.19282 -1.523281,0.109265 -3.978526,0.109265 -3.438629,0 -4.087791,-0.122119 -0.732717,-0.134975 -0.944819,-0.642735 -0.102838,-0.257093 -0.102838,-0.642734 v -6.600882 l -0.06427,0.05142 q -0.295658,0.212103 -0.700581,0.469197 l -0.880546,-1.06694 q 2.294562,-1.259759 3.882116,-3.592885 l 0.899828,0.617025 h 3.657159 l 0.681298,0.707008 q -0.848409,1.201913 -1.773947,2.166015 h 4.119928 v 4.274184 z m 0,-1.144068 h 2.763758 v -1.947485 h -2.763758 z m 4.145637,-1.947485 v 1.947485 h 2.821604 v -1.947485 z m -1.491144,-1.182631 q 0.829127,-0.867692 1.414016,-1.703246 H 50.90486 q -0.713435,0.874119 -1.696819,1.703246 z M 64.550111,15.60148 h 1.131213 v 3.779279 h 3.779278 v 1.131212 h -3.779278 v 3.779278 h -1.131213 v -3.779278 h -3.779278 v -1.131212 h 3.779278 z m 14.037318,1.722528 q 0.449915,0.231385 1.034803,0.552752 l -0.816273,0.662016 h 3.869261 l 0.72629,0.72629 q -1.446152,2.17887 -2.885877,3.580031 l -1.304751,-0.764854 q 1.266187,-1.156922 2.03104,-2.300989 h -3.200817 v 5.039038 q 0,0.874118 -0.430632,1.118357 -0.28923,0.167111 -1.079794,0.167111 -1.034802,0 -2.281707,-0.128547 l -0.31494,-1.433297 q 1.201914,0.19282 2.133879,0.19282 0.353504,0 0.437059,-0.115692 0.06427,-0.09641 0.06427,-0.353504 v -4.486286 h -5.386114 v -1.240478 h 6.967241 q -2.172442,-1.246904 -4.344884,-2.108168 l 1.041229,-0.829128 q 1.459007,0.584889 2.577365,1.13764 0.989811,-0.674871 1.735383,-1.324033 h -6.870831 v -1.221195 h 8.741188 l 0.790563,0.771281 q -1.683964,1.35617 -3.232954,2.358835 z m 8.117736,0.758427 q -0.835555,1.523281 -1.934631,2.49381 L 84.03139,19.380759 q 1.439725,-1.092649 2.429536,-2.950151 h -2.127451 v -1.182632 h 2.37169 v -1.555417 h 1.381879 v 1.555417 h 1.857502 v 1.182632 h -1.857502 v 0.784136 q 1.144067,0.655589 2.037468,1.388306 l -0.777709,1.131212 q -0.610597,-0.681298 -1.259759,-1.214768 v 2.860168 h -1.381879 z m 3.946389,3.085125 q 0.8227,0.784136 1.619691,1.883212 l -1.144068,0.816273 q -0.886973,-1.369025 -1.7161,-2.133879 l 0.912682,-0.636307 v -6.941531 h 5.488952 v 7.012232 z m 0.970529,-5.958148 v 0.983384 h 2.860168 v -0.983384 z m 0,1.973195 v 0.970529 h 2.860168 v -0.970529 z m 0,1.947485 v 0.983384 h 2.860168 v -0.983384 z m -7.423582,5.97743 q 0.739144,-1.208341 1.150494,-2.963006 l 1.336888,0.379214 q -0.359931,2.063177 -1.23405,3.451483 z m 3.515757,-2.950151 h 1.407588 v 2.050323 q 0,0.398495 0.19282,0.475623 0.24424,0.08998 1.349743,0.08998 1.054084,0 1.407588,-0.0707 0.257094,-0.05785 0.327795,-0.295658 0.09641,-0.321367 0.128546,-1.169776 l 1.420443,0.327794 q -0.02571,0.957675 -0.141401,1.369025 -0.160684,0.584888 -0.475624,0.79699 -0.269948,0.186393 -0.777708,0.21853 -1.054085,0.06427 -2.166015,0.06427 -1.870357,0 -2.281707,-0.218529 -0.392068,-0.212103 -0.392068,-0.899828 z m 7.834932,3.445056 q -0.777709,-1.876784 -1.728955,-3.181535 l 1.176204,-0.70058 q 1.060511,1.414015 1.812511,3.052988 z m 7.27575,-10.174485 V 14.87519 h -4.017087 v -0.91911 h 9.486757 v 0.91911 h -4.10064 v 0.552752 h 5.32184 v 2.307416 h -1.39474 v -1.478289 h -3.9271 v 2.500237 h -1.36903 v -2.500237 h -3.856403 v 1.478289 h -1.381879 v -2.307416 z m 4.55056,9.120401 q 0.98339,0.372786 2.45525,0.591316 l -0.752,1.092648 q -2.06318,-0.353504 -3.38721,-1.214768 -1.31761,-0.861264 -2.05032,-2.140305 h -1.42045 v 1.979622 q 1.42045,-0.199248 2.63521,-0.424205 l 0.09,0.957674 q -2.26243,0.539897 -5.174015,0.938392 l -0.379213,-1.131212 q 1.009088,-0.109265 1.381878,-0.154256 l 0.0771,-0.01285 v -2.15316 h -1.407589 q -0.08998,1.131212 -0.295658,1.806083 -0.244239,0.809846 -0.784136,1.510426 L 97.2203,25.248924 q 0.629879,-0.816273 0.784135,-1.908922 0.08356,-0.591315 0.08356,-1.471861 v -2.725194 h 11.093599 v 0.854837 h -9.71172 v 1.973194 h 10.26447 v 0.906256 h -1.45901 l 0.81627,0.539897 q -0.72629,0.60417 -1.7161,1.131212 z m -1.00266,-0.494905 q 0.92553,-0.62988 1.47186,-1.176204 h -2.80875 q 0.55275,0.707007 1.33689,1.176204 z m -6.838697,-7.320745 h 2.738047 v 0.72629 h -2.738047 z m 0,1.182631 h 2.738047 v 0.739145 h -2.738047 z m 5.212577,-1.182631 h 2.8216 v 0.72629 h -2.8216 z m 0,1.182631 h 2.8216 v 0.739145 h -2.8216 z m -4.512,2.622356 h 8.00205 v 0.841982 h -8.00205 z m 17.48238,-5.688199 h 5.03904 v 1.079794 h -2.85374 v 1.066939 h 2.67377 v 1.04123 h -2.67377 v 1.915348 h -5.17402 v -1.915348 h -2.10816 v 1.195486 q 0,2.911586 -0.30852,4.601978 -0.23781,1.285469 -0.77128,2.34598 l -1.16977,-0.925537 q 0.48847,-1.060512 0.66844,-2.59022 0.16068,-1.343315 0.16068,-3.432201 v -4.383449 h 5.08403 v -1.156922 h 1.4333 z m -5.09688,1.079794 v 1.066939 h 2.10816 v -1.066939 z m 3.47719,0 v 1.066939 h 2.43596 v -1.066939 z m 0,2.108169 v 0.996238 h 2.43596 v -0.996238 z m 1.49114,6.748711 q -1.8575,0.964101 -4.71767,1.465434 l -0.66844,-1.182631 q 2.68663,-0.321367 4.20991,-0.983384 -1.30475,-0.944819 -2.23029,-2.243143 h -0.88697 v -1.118358 h 7.52642 l 0.67487,0.565607 q -0.95768,1.471861 -2.73162,2.770185 1.52328,0.610598 4.15206,0.899828 l -0.752,1.214768 q -2.51952,-0.340649 -4.57627,-1.388306 z m -1.90892,-2.943724 q 0.77771,0.912683 1.88964,1.606836 1.25333,-0.809845 1.93463,-1.606836 z"></path>
</svg>


