<svg xmlns="http://www.w3.org/2000/svg" id="svg1" version="1.1" height="200" width="1096">
  <defs id="defs1"></defs>
  <rect id="rect1" stroke="none" fill="none" height="200" width="1096" y="0" x="0"></rect>
  <path aria-label="地中海" style="font-weight:bold;font-size:110px;font-family:'BIZ UDPGothic';fill:#ff0000" id="text1" d="m 56.289062,99.458008 v 42.539062 q 0,4.13574 3.544922,4.99512 3.652344,0.91308 16.704102,0.91308 12.729492,0 16.811523,-1.28906 2.309571,-0.75195 3.007813,-4.18945 0.913086,-4.83399 0.966797,-11.44043 l 11.225581,3.16894 Q 107.69043,150 104.19922,154.4043 q -2.30957,2.90039 -6.982423,3.4375 -7.358399,0.80566 -24.975586,0.80566 -13.642578,0 -17.885742,-0.75195 -6.391602,-1.07422 -8.110352,-5.63965 -0.859375,-2.41699 -0.859375,-6.44531 V 103.21777 L 35.126953,106.7627 32.602539,96.342773 45.385742,91.938477 V 62.988281 h 10.90332 v 25.19043 L 67.836914,84.257812 V 55.952148 h 10.795898 v 24.545899 l 17.993165,-6.176758 5.639653,3.4375 v 40.229491 q 0,4.18945 -1.98731,6.23047 -2.255859,2.25586 -7.573242,2.25586 -4.350586,0 -9.238281,-0.75195 l -1.772461,-10.25879 q 3.168945,0.80566 6.445312,0.80566 2.363282,0 2.900391,-0.9668 0.537109,-0.80566 0.537109,-2.68554 V 87.211914 L 78.632812,91.723633 V 135.17578 H 67.836914 V 95.429687 Z M 16.811523,81.894531 V 55.952148 H 28.359375 V 81.894531 H 38.779297 V 92.797852 H 28.359375 v 34.160158 q 5.639648,-1.9336 11.171875,-4.02832 l 1.020508,10.36621 Q 23.149414,141.24512 4.8339844,146.61621 L 1.0742187,135.17578 q 8.2714844,-2.14844 14.5019533,-4.08203 0.751953,-0.26855 1.235351,-0.37598 V 92.797852 H 3.1689453 V 81.894531 Z M 158.6084,75.664062 V 55.952148 h 12.08496 v 19.711914 h 39.85351 v 56.826168 h -11.87011 v -7.46582 h -27.9834 v 35.44922 H 158.6084 v -35.44922 h -27.28516 v 8.05664 H 119.45313 V 75.664062 Z M 131.32324,86.674805 V 114.01367 H 158.6084 V 86.674805 Z m 67.35352,27.338865 V 86.674805 h -27.9834 V 114.01367 Z M 317.7002,85.117187 q 0,2.524415 -0.4834,23.955083 h 10.25879 v 9.66796 h -10.47364 q -0.16113,7.03614 -0.69824,15.95215 h 9.07715 v 9.45313 h -9.77539 q -0.64453,7.78808 -1.77246,10.3125 -2.52442,6.01562 -12.2461,6.01562 -6.23046,0 -11.49414,-0.91308 L 288.10547,150 q 7.57324,1.07422 11.60156,1.07422 3.27637,0 3.9209,-2.30957 0.32227,-1.12793 0.59082,-4.61914 h -38.24219 q -0.0537,0.42969 -0.16113,0.91308 -0.4834,2.84668 -0.91309,5.3711 l -11.11816,-1.07422 q 3.27637,-19.38965 4.4043,-29.32617 l 0.16113,-1.28907 h -10.74219 v -9.66796 h 11.87012 q 1.50391,-12.998051 2.57812,-23.955083 z m -33.94532,9.345704 h -11.76269 q -0.16114,2.739257 -0.9668,11.547849 l -0.32227,3.06153 h 11.92383 l 0.16114,-1.50391 q 0.10742,-1.55762 0.32226,-4.35059 0.53711,-7.519528 0.64453,-8.754879 z m 10.58106,0 q -0.26856,6.391599 -0.80567,14.125979 v 0.4834 h 12.62207 q 0.21485,-7.3584 0.37598,-14.609379 z m -12.56836,24.277339 h -12.08496 q -0.80567,6.55274 -1.71875,12.94434 l -0.42969,3.00781 h 12.56836 q 1.28906,-11.65527 1.66504,-15.95215 z m 11.01074,0 q -0.16113,2.14844 -0.64453,7.08985 l -0.85938,8.8623 h 13.69629 q 0.26856,-5.20996 0.42969,-7.84179 0.32227,-5.74707 0.42969,-8.11036 z M 271.72363,65.727539 h 51.88477 v 9.990234 h -56.34278 q -4.35058,8.862305 -11.06445,16.865235 l -7.68066,-8.378906 Q 259.10156,71.796875 263.55957,55.629883 L 275,56.811523 q -1.93359,5.585938 -3.27637,8.916016 z m -29.59472,15.629883 q -6.60645,-9.077149 -16.05957,-17.026367 l 8.11035,-7.841797 q 8.75488,6.445312 16.65039,16.274414 z M 238.26172,109.7168 Q 230.09766,99.243164 221.77246,92.15332 l 8.37891,-8.05664 q 9.3457,7.358398 16.81152,16.75781 z m -14.60938,42.16308 q 9.34571,-12.94433 17.72461,-34.10644 l 9.56055,6.82129 q -6.98242,19.55078 -17.93945,35.8789 z"></path>
</svg>
