<svg xmlns="http://www.w3.org/2000/svg" id="svg1" version="1.1" height="200" width="1096">
  <defs id="defs1"></defs>
  <rect id="rect1" stroke="none" fill="none" height="200" width="1096" y="0" x="0"></rect>
  <path aria-label="熊本県天草・芦北地方" style="font-weight:bold;font-size:110px;font-family:'BIZ UDPGothic';fill:#ff0000" id="text1" d="m 11.977539,72.172852 q 4.833984,-8.00293 9.023438,-16.972657 l 11.601562,2.524414 Q 28.735352,65.029297 23.47168,71.635742 33.945312,70.991211 40.874023,70.292969 38.994141,68.09082 35.341797,64.223633 l 7.895508,-4.887696 Q 52.368164,67.5 59.082031,77.275391 l -8.378906,5.961914 Q 48.339844,79.746094 46.513672,77.275391 27.392578,80.014648 4.296875,81.357422 L 1.5576172,72.441406 q 5.7470703,-0.107422 8.4863278,-0.214844 1.289063,-0.05371 1.933594,-0.05371 z m 38.886719,12.729492 v 38.027346 q 0,4.29687 -1.987305,6.12304 -1.933594,1.71875 -6.767578,1.71875 -5.478516,0 -11.494141,-0.91308 l -1.879882,-8.75488 q 5.585937,0.96679 9.130859,0.96679 1.71875,0 2.041016,-1.28906 0.161132,-0.59082 0.161132,-1.55762 v -4.61914 H 20.249023 v 16.81153 H 9.1308594 V 84.902344 Z M 20.249023,92.15332 v 4.726563 H 40.068359 V 92.15332 Z m 0,11.33301 v 4.72656 h 19.819336 v -4.72656 z M 70.522461,67.285156 q 12.836914,-3.4375 23.740234,-8.486328 l 6.821285,7.949219 Q 84.648437,73.139648 70.522461,76.09375 v 3.383789 q 0,2.84668 1.450195,3.491211 1.557617,0.644531 9.990235,0.644531 9.291992,0 10.957031,-0.966797 1.289062,-0.698242 1.611328,-2.90039 0.161133,-0.966797 0.537109,-6.767578 l 10.205081,3.330078 q -0.10742,11.118164 -3.86719,13.75 -4.02832,2.792968 -21.000977,2.792968 -13.159179,0 -17.080078,-1.611328 -3.920898,-1.665039 -3.920898,-7.143554 V 56.05957 h 11.118164 z m 0,36.953124 q 14.394531,-3.54492 25.405273,-8.808593 l 7.573246,7.841793 q -17.080082,6.82129 -32.978519,9.72168 v 4.35059 q 0,2.25586 1.879883,2.90039 1.933593,0.59082 9.077148,0.59082 8.164063,0 11.171875,-0.64453 2.685547,-0.53711 3.222656,-3.38379 0.375977,-1.9873 0.590821,-6.82129 l 10.258786,3.49121 q -0.10742,11.11817 -3.16894,13.85742 -1.9336,1.71875 -6.552737,2.36329 -5.585937,0.69824 -15.361328,0.69824 -14.072266,0 -18.208008,-1.55762 -4.02832,-1.50391 -4.02832,-6.875 V 95 H 70.522461 Z M 2.2021484,154.51172 Q 9.7216797,146.0791 14.555664,134.04785 l 11.547852,4.18945 q -4.619141,14.01856 -12.138672,22.98829 z m 37.7587886,5.96191 q -2.578125,-13.48144 -5.317382,-21.69922 l 12.246093,-2.73925 q 4.135743,11.38671 5.908204,21.43066 z m 27.822266,-1.55761 q -3.4375,-10.74219 -9.023437,-20.57129 l 10.90332,-3.75977 q 5.800781,8.59375 10.205078,20.1416 z m 28.681641,0.21484 Q 90.664062,147.0459 83.305664,137.80762 l 10.527344,-5.20996 q 8.378902,9.18457 14.985352,21.05468 z M 174.77539,86.298828 q 17.61719,25.673832 43.29102,41.088872 l -7.62696,10.36621 Q 184.1748,118.52539 170.47852,96.181641 V 128.94531 H 192.5 v 10.58106 h -21.80664 v 20.94726 H 158.6084 v -20.94726 h -20.57129 v -10.58106 h 20.78613 V 96.71875 q -13.21289,24.43848 -38.72558,43.66699 l -7.78809,-9.66797 q 25.94238,-17.1875 42.00195,-44.418942 H 115.37109 V 75.288086 h 43.12989 V 55.952148 h 12.2998 v 19.335938 h 43.82813 V 86.298828 Z M 312.16797,58.583984 V 110.62988 H 248.25195 V 58.583984 Z m -52.36817,8.486328 v 6.713868 h 40.7129 v -6.713868 z m 0,14.28711 v 6.713867 h 40.7129 v -6.713867 z m 0,14.287109 v 6.928709 h 40.7129 v -6.928709 z m -21.6455,22.128909 h 89.05273 v 9.3457 h -44.41894 v 33.35449 H 270.5957 V 127.11914 H 226.3916 V 66.855469 h 11.7627 z m -13.75,32.4414 q 12.7832,-5.9082 24.43847,-19.81933 l 9.88282,5.74707 q -11.49414,14.55566 -25.5127,22.88086 z m 92.59765,6.92871 q -8.21777,-10.09765 -24.70703,-21.21582 l 9.23828,-6.49902 q 12.94434,7.46582 25.40528,19.60449 z m 77.0752,-50.81054 q 5.58594,12.94433 14.34082,21.86035 11.97754,12.2998 28.14453,19.60449 l -7.78809,11.22559 q -31.31347,-16.97266 -42.37793,-43.98926 -9.45312,30.4541 -43.61328,45.33203 l -7.84179,-10.58105 q 18.53027,-5.80079 30.23925,-19.71192 8.43262,-9.93652 11.49414,-23.74023 H 339.3457 V 95.537109 h 39.15528 V 72.924805 H 335.47852 V 62.128906 h 99.09668 v 10.795899 h -43.667 v 22.612304 h 39.85352 v 10.795901 z m 106.72363,17.61719 v 8.48632 h 46.45996 v 9.77539 h -46.45996 v 18.26172 h -12.2998 v -18.26172 h -45.76172 v -9.77539 h 45.76172 V 123.9502 H 454.07227 V 82.915039 h 81.85546 V 123.9502 Z M 465.72754,91.186523 v 8.00293 h 58.65234 v -8.00293 z m 0,16.059567 v 8.43262 h 58.65234 v -8.43262 z m 5.47851,-43.022457 v -8.271485 h 11.70899 v 8.271485 h 23.31055 v -8.271485 h 11.87011 v 8.271485 h 26.74805 v 9.238281 H 518.0957 v 6.445313 h -11.87011 v -6.445313 h -23.31055 v 6.445313 h -11.70899 v -6.445313 h -26.15722 v -9.238281 z m 106.40137,31.850586 q 4.18945,0 7.57324,2.792968 4.45801,3.652343 4.45801,9.345703 0,3.49121 -1.9873,6.49902 -3.59864,5.58594 -10.20508,5.58594 -2.90039,0 -5.53223,-1.39648 -2.09472,-1.07422 -3.54492,-2.84668 -2.9541,-3.49121 -2.9541,-7.94922 0,-6.23047 5.20996,-9.882814 3.11523,-2.148437 6.98242,-2.148437 z m 59.35059,-31.635742 v -8.486329 h 11.76269 v 8.486329 h 21.80664 v -8.486329 h 11.87012 v 8.486329 h 27.17774 v 9.453125 h -27.17774 v 5.908203 H 670.52734 V 73.891602 H 648.7207 V 81.25 h -11.76269 v -7.358398 h -26.69434 v -9.453125 z m 60.53222,17.24121 6.44532,9.614258 q -33.40821,2.739258 -67.19239,3.598633 l -5.58593,0.161133 v 8.647459 h 71.16699 v 36.63086 h -11.97754 v -6.71387 h -60.26367 q -1.02051,6.06934 -2.84668,10.7959 -3.4375,8.91602 -11.70899,16.38184 l -9.45312,-8.70117 q 8.00293,-7.3584 10.7959,-17.02637 2.20215,-7.41211 2.20215,-17.93945 V 86.459961 l 4.08203,-0.107422 q 43.7207,-1.074219 74.33593,-4.672852 z m -7.14355,31.044923 h -59.18945 v 5.26367 q 0,3.81348 -0.16114,6.28418 h 59.35059 z m 56.77246,19.12109 q -14.82422,7.78809 -25.83496,11.92383 l -4.51172,-11.81641 q 17.24121,-5.80078 30.34668,-12.03124 V 95.859375 H 720.53223 V 84.526367 h 26.58691 V 55.952148 h 11.97754 V 160.47363 h -11.97754 z m 38.18848,-41.840817 q 12.51465,-6.552735 24.27734,-16.650391 l 8.91602,9.345703 q -15.89844,11.279297 -33.19336,19.228515 v 40.2832 q 0,2.63184 1.71875,3.22266 1.82617,0.59082 8.43261,0.59082 8.70118,0 10.90332,-1.02051 1.55762,-0.69824 2.14844,-4.35058 0.80567,-5.10254 1.18164,-16.48926 l 12.03125,3.70605 q -0.53711,13.91114 -1.71875,19.98047 -1.34277,6.76758 -7.03613,8.75489 -5.4248,1.82617 -17.77832,1.82617 -14.50195,0 -18.26172,-2.417 -3.59863,-2.36328 -3.59863,-9.07714 V 55.952148 h 11.97754 z m 95.98144,9.453125 v 42.539062 q 0,4.13574 3.54492,4.99512 3.65235,0.91308 16.70411,0.91308 12.72949,0 16.81152,-1.28906 2.30957,-0.75195 3.00781,-4.18945 0.91309,-4.83399 0.9668,-11.44043 l 11.22558,3.16894 Q 932.69043,150 929.19922,154.4043 q -2.30957,2.90039 -6.98242,3.4375 -7.3584,0.80566 -24.97559,0.80566 -13.64258,0 -17.88574,-0.75195 -6.3916,-1.07422 -8.11035,-5.63965 -0.85938,-2.41699 -0.85938,-6.44531 v -42.59278 l -10.25879,3.54493 -2.52441,-10.419927 12.7832,-4.404296 V 62.988281 h 10.90332 v 25.19043 l 11.54785,-3.920899 V 55.952148 h 10.7959 v 24.545899 l 17.99317,-6.176758 5.63964,3.4375 v 40.229491 q 0,4.18945 -1.9873,6.23047 -2.25586,2.25586 -7.57324,2.25586 -4.35059,0 -9.23828,-0.75195 l -1.77246,-10.25879 q 3.16894,0.80566 6.44531,0.80566 2.36328,0 2.90039,-0.9668 0.53711,-0.80566 0.53711,-2.68554 V 87.211914 l -12.94434,4.511719 v 43.452147 h -10.7959 V 95.429687 Z M 841.81152,81.894531 V 55.952148 h 11.54785 v 25.942383 h 10.41993 v 10.903321 h -10.41993 v 34.160158 q 5.63965,-1.9336 11.17188,-4.02832 l 1.02051,10.36621 q -17.40235,7.94922 -35.71778,13.32031 l -3.75976,-11.44043 q 8.27148,-2.14844 14.50195,-4.08203 0.75195,-0.26855 1.23535,-0.37598 V 92.797852 H 828.16895 V 81.894531 Z m 145.3418,3.007813 q -0.37598,8.969726 -1.07422,15.791016 h 43.291 q -0.8056,37.27539 -4.1894,48.39355 -1.7188,5.58594 -6.3916,7.73438 -3.6524,1.66504 -10.6885,1.66504 -7.4121,0 -16.81154,-1.12793 l -2.09472,-12.08496 q 12.62206,1.77246 17.77836,1.77246 4.3505,0 5.5322,-2.4707 2.8467,-6.01563 3.9746,-33.19336 h -31.95802 q -1.77246,9.66796 -4.99511,16.75781 -8.96973,19.60449 -29.97071,31.09863 l -8.48632,-9.45312 q 21.05468,-10.95704 27.82226,-28.73536 4.51172,-11.87011 5.85449,-36.147456 H 939.18945 V 73.891602 h 43.88184 V 55.952148 h 12.40723 v 17.939454 h 45.33198 v 11.010742 z"></path>
</svg>
