<svg xmlns="http://www.w3.org/2000/svg" id="svg1" version="1.1" height="200" width="1096">
  <defs id="defs1"></defs>
  <rect id="rect1" stroke="none" fill="none" height="200" width="1096" y="0" x="0"></rect>
  <path aria-label="アフリカ東部" style="font-weight:bold;font-size:110px;font-family:'BIZ UDPGothic';fill:#ff0000" id="text1" d="M 4.1894531,66.962891 H 88.354492 l 6.928711,5.854492 Q 92.275391,84.042969 87.441406,91.5625 78.364258,105.7959 60.263672,112.83203 l -6.767578,-9.23828 Q 66.010742,99.833984 74.282227,90.112305 79.169922,84.365234 81.103516,77.973633 H 4.1894531 Z M 38.618164,90.166016 h 12.299805 v 9.238281 q 0,20.786133 -4.619141,32.119143 -5.854492,14.39453 -22.773437,23.41797 l -8.862305,-9.34571 q 11.655273,-5.53222 17.026367,-13.21289 4.135742,-5.96191 5.424805,-12.62207 1.503906,-7.62695 1.503906,-20.463865 z M 105.81055,68.574219 h 85.13183 q -0.75195,28.359375 -6.60644,44.418941 -6.875,18.69141 -23.74024,29.4336 -12.62207,8.05664 -34.64355,13.2666 l -6.17676,-10.90332 q 22.29004,-4.18945 34.21387,-12.19238 13.10547,-8.75489 18.79883,-24.22364 4.18945,-11.440426 4.61914,-28.574215 h -71.59668 z m 107.583,-8.110352 h 12.51465 v 58.759763 h -12.51465 z m 55.16114,-1.12793 h 12.51465 v 38.403321 q 0,20.249022 -3.27637,30.131832 -2.73926,8.43262 -7.46582,13.42774 -9.8291,10.58105 -31.58203,15.62988 l -6.17676,-11.01074 q 23.79394,-4.83399 30.50781,-16.05957 4.24317,-7.14356 5.10254,-18.04688 0.37598,-5.04882 0.37598,-13.96484 z m 35.93261,20.678711 h 32.76368 q 0.42968,-11.923828 0.42968,-21.323242 h 12.46094 q -0.10742,12.246094 -0.59082,21.323242 h 39.53125 q -0.32226,38.081052 -3.11523,58.383792 -1.23535,9.23828 -4.99512,12.67578 -3.9209,3.54492 -13.48145,3.54492 -6.92871,0 -14.71679,-1.12793 l -1.98731,-12.08496 q 9.29199,1.66504 15.2002,1.66504 4.08203,0 5.31738,-1.23535 1.39649,-1.34278 2.30957,-8.37891 2.63184,-20.83984 2.79297,-42.431639 h -27.39258 q -2.04101,22.128909 -9.39941,35.449219 -9.56055,17.24121 -28.73535,28.14453 l -8.16407,-9.56055 q 12.03125,-6.60644 20.51758,-16.59668 6.3916,-7.51953 9.45313,-17.02636 2.9541,-8.96973 4.02832,-20.410159 H 304.4873 Z m 169.61915,45.546872 q 13.32031,11.87012 35.8789,19.17481 l -6.92871,10.09765 q -12.99805,-4.61914 -22.66602,-11.17187 -9.99023,-6.82129 -18.42285,-16.75781 v 33.56933 H 450.3125 v -32.97851 q -7.46582,10.47363 -19.28223,18.79883 -9.07715,6.3916 -19.44336,10.3125 l -7.35839,-9.45313 q 17.02636,-5.63965 28.41308,-15.2002 3.22266,-2.68554 6.55274,-6.3916 H 413.35937 V 81.572266 H 450.3125 V 74.321289 H 405.78613 V 64.65332 h 44.52637 v -8.701172 h 11.65527 v 8.701172 h 45.22461 v 9.667969 h -45.22461 v 7.250977 h 37.65137 V 125.56152 Z M 450.3125,90.595703 h -25.29785 v 8.701172 h 25.29785 z m 11.65527,0 v 8.701172 h 25.9961 V 90.595703 Z M 450.3125,107.67578 h -25.29785 v 8.86231 h 25.29785 z m 11.65527,0 v 8.86231 h 25.9961 v -8.86231 z m 87.92481,-39.316405 h 22.98828 v 10.366211 h -7.57324 q -2.04102,8.217773 -5.47852,17.241211 h 14.34082 v 10.366213 h -59.9414 V 95.966797 h 13.15918 q -2.14844,-10.3125 -4.51172,-17.241211 h -6.98243 V 68.359375 h 22.77344 V 55.952148 h 11.22559 z m -16.16699,10.366211 q 2.73925,8.00293 4.24316,17.241211 h 10.95703 l 0.53711,-1.503906 q 2.30957,-6.123047 4.29688,-13.911133 l 0.48339,-1.826172 z m 33.30078,36.630864 v 43.98925 h -11.01075 v -5.26367 h -23.41796 v 6.3916 h -11.33301 v -45.11718 z m -34.42871,9.88281 v 18.63769 h 23.41796 v -18.63769 z m 71.75781,-27.124026 q 6.3916,6.069336 10.15137,14.448246 3.70605,8.3789 3.70605,16.97265 0,7.94922 -2.9541,11.70899 -3.06152,3.9209 -10.09766,3.9209 -6.01562,0 -11.65527,-0.85938 l -2.63184,-11.44043 q 6.49903,1.18164 10.74219,1.18164 3.22266,0 4.02832,-1.5039 0.53711,-1.07422 0.53711,-4.29688 0,-13.2666 -7.94922,-22.88086 -2.09472,-2.52441 -5.26367,-5.424804 l 0.64453,-1.503906 q 5.58594,-12.62207 8.70117,-26.318359 h -13.75 V 160.47363 H 577.44629 V 61.000977 h 32.33398 l 5.96192,5.478515 q -5.42481,18.476563 -11.38672,31.635742 z"></path>
</svg>
