<svg xmlns="http://www.w3.org/2000/svg" id="svg1" version="1.1" height="200" width="1096">
  <defs id="defs1"></defs>
  <rect id="rect1" stroke="none" fill="none" height="200" width="1096" y="0" x="0"></rect>
  <path aria-label="朝鮮半島北部" style="font-weight:bold;font-size:110px;font-family:'BIZ UDPGothic';fill:#ff0000" id="text1" d="M 36.845703,84.311523 H 54.462891 V 124.27246 H 36.845703 v 8.37891 h 20.893555 v 9.56054 H 36.845703 v 18.26172 H 25.620117 V 142.21191 H 2.6318359 v -9.56054 H 25.620117 v -8.37891 H 8.3251953 V 84.311523 H 25.620117 V 76.308594 H 4.3505859 V 66.855469 H 25.620117 V 55.952148 h 11.225586 v 10.903321 h 21.054688 v 9.453125 H 36.845703 Z m 7.46582,8.486329 H 19.121094 v 7.358398 H 44.311523 Z M 19.121094,108.05176 v 7.73437 h 25.190429 v -7.73437 z M 102.6416,60.03418 v 89.32129 q 0,5.63965 -2.739256,8.05664 -2.416992,2.14844 -7.895508,2.14844 -4.941406,0 -12.998047,-0.75196 l -2.30957,-10.90332 q 7.626953,1.02051 11.923828,1.02051 1.987305,0 2.470703,-0.85937 0.322266,-0.64454 0.322266,-2.04102 V 122.07031 H 72.885742 q -0.537109,11.70899 -2.685547,20.1416 -2.524414,9.82911 -8.378906,18.58399 l -9.453125,-7.8418 q 6.445313,-8.64746 8.378906,-20.30273 1.289063,-7.78809 1.289063,-19.92676 V 60.03418 Z M 91.416016,70.024414 H 73.046875 v 16.05957 h 18.369141 z m 0,25.727539 H 73.046875 V 112.40234 H 91.416016 Z M 148.24219,81.572266 h 13.21289 V 128.78418 H 118.64746 V 90.488281 q -1.66504,1.71875 -2.52441,2.524414 l -5.26367,-9.023437 Q 123.75,71.904297 129.12109,56.166992 l 7.41211,4.296875 h 16.00586 l 4.4043,4.726563 q -3.9209,8.916015 -8.70117,16.381836 z m -12.83692,8.164062 h -7.41211 v 11.225582 h 7.41211 z m 9.13086,0 v 11.225582 h 7.57324 V 89.736328 Z m -9.13086,18.906252 h -7.41211 v 11.97754 h 7.41211 z m 9.13086,0 v 11.97754 h 7.57324 v -11.97754 z m -6.76758,-27.070314 q 4.72657,-7.841797 6.66016,-11.870118 h -10.47363 q -2.84668,5.317383 -7.73438,11.870118 z m 46.45997,1.879882 h -19.49707 v -9.990234 h 9.66796 q -3.59863,-8.325195 -7.25097,-14.072266 l 10.36621,-3.330078 q 4.02832,6.713867 7.73437,17.402344 h 8.11035 q 3.27637,-7.949219 6.39161,-17.724609 l 11.54785,3.007812 q -3.11524,7.734375 -6.49903,14.716797 h 10.95704 v 9.990234 H 195.66895 V 97.30957 h 17.99316 v 9.66797 h -17.99316 v 14.82422 h 21.53808 v 10.36621 h -21.53808 v 28.30566 h -11.44043 v -28.30566 h -20.46387 v -10.36621 h 20.46387 v -14.82422 h -17.50977 v -9.66797 h 17.50977 z m -72.29493,72.241212 q 4.18946,-8.80859 6.39161,-23.52539 l 8.48632,1.77246 q -1.5039,16.7041 -5.85449,27.17773 z m 19.49707,3.75976 q -0.42968,-13.80371 -2.09472,-25.29785 l 7.94922,-1.07422 q 2.52441,11.97754 2.9541,24.16993 z m 13.96485,-2.20214 q -1.77246,-12.03125 -4.61914,-23.20313 l 7.14355,-2.09473 q 3.97461,10.74219 6.17676,22.23633 z m 13.32031,-2.52442 q -3.16895,-12.72949 -7.14355,-22.1289 l 6.92871,-2.63184 q 5.85449,11.92383 8.21777,21.26953 z M 268.6084,93.442383 V 55.952148 h 12.08496 v 37.490235 h 40.92773 v 10.688477 h -40.92773 v 15.25391 h 46.56738 v 10.90332 h -46.56738 v 30.18554 H 268.6084 V 130.28809 H 222.73926 V 119.38477 H 268.6084 V 104.13086 H 228.43262 V 93.442383 Z M 245.08301,89.951172 Q 238.42285,75.180664 231.11816,65.405273 l 11.22559,-5.478515 q 8.27148,11.386719 14.50195,24.599609 z m 47.1582,-4.189453 q 8.48633,-12.890625 13.53516,-27.070313 l 12.56836,4.941406 q -6.06934,13.320313 -15.30762,26.748047 z m 80.35156,-21.645508 q 1.98731,-4.780274 3.22266,-9.130859 l 13.10547,1.77246 q -1.87988,4.458008 -3.4375,7.358399 h 35.77148 v 35.019531 h -64.88281 v 5.424808 h 80.83496 v 8.70117 h -80.83496 v 5.47851 h 77.0752 q -0.69825,24.59961 -3.11524,33.19336 -1.55762,5.47852 -5.85449,7.25098 -3.06152,1.28906 -9.3457,1.28906 -6.44532,0 -12.03125,-0.80566 l -2.14844,-9.02344 h -53.81836 v 5.96192 h -11.54785 v -25.83497 h 11.54785 v 11.06446 h 18.47656 v -14.50196 h -21.1084 V 64.116211 Z m 22.82715,77.719729 v -11.06446 h 11.11817 v 18.69141 q 4.458,0.42969 7.41211,0.42969 3.65234,0 4.56542,-2.09473 1.77247,-3.9209 2.79297,-20.46387 H 377.1582 v 14.50196 z M 356.37207,72.387695 v 5.317383 h 53.0127 v -5.317383 z m 0,12.998047 v 5.854492 h 53.0127 V 85.385742 Z M 472.11914,131.8457 q -14.82422,7.78809 -25.83496,11.92383 l -4.51172,-11.81641 q 17.24121,-5.80078 30.34668,-12.03124 V 95.859375 H 445.53223 V 84.526367 h 26.58691 V 55.952148 h 11.97754 V 160.47363 h -11.97754 z m 38.18848,-41.840817 q 12.51465,-6.552735 24.27734,-16.650391 l 8.91602,9.345703 q -15.89844,11.279297 -33.19336,19.228515 v 40.2832 q 0,2.63184 1.71875,3.22266 1.82617,0.59082 8.43261,0.59082 8.70118,0 10.90332,-1.02051 1.55762,-0.69824 2.14844,-4.35058 0.80567,-5.10254 1.18164,-16.48926 l 12.03125,3.70605 q -0.53711,13.91114 -1.71875,19.98047 -1.34277,6.76758 -7.03613,8.75489 -5.4248,1.82617 -17.77832,1.82617 -14.50195,0 -18.26172,-2.417 -3.59863,-2.36328 -3.59863,-9.07714 V 55.952148 h 11.97754 z m 78.0957,-21.645508 h 22.98828 v 10.366211 h -7.57324 q -2.04102,8.217773 -5.47852,17.241211 h 14.34082 v 10.366213 h -59.9414 V 95.966797 h 13.15918 Q 563.75,85.654297 561.38672,78.725586 H 554.4043 V 68.359375 h 22.77343 V 55.952148 h 11.22559 z m -16.16699,10.366211 q 2.73926,8.00293 4.24316,17.241211 h 10.95703 l 0.53711,-1.503906 q 2.30957,-6.123047 4.29688,-13.911133 l 0.4834,-1.826172 z m 33.30078,36.630864 v 43.98925 h -11.01074 v -5.26367 H 571.1084 v 6.3916 h -11.33301 v -45.11718 z m -34.42871,9.88281 v 18.63769 h 23.41797 v -18.63769 z m 71.75781,-27.124026 q 6.3916,6.069336 10.15137,14.448246 3.70605,8.3789 3.70605,16.97265 0,7.94922 -2.9541,11.70899 -3.06152,3.9209 -10.09766,3.9209 -6.01562,0 -11.65527,-0.85938 l -2.63183,-11.44043 q 6.49902,1.18164 10.74218,1.18164 3.22266,0 4.02832,-1.5039 0.53711,-1.07422 0.53711,-4.29688 0,-13.2666 -7.94922,-22.88086 -2.09472,-2.52441 -5.26367,-5.424804 l 0.64453,-1.503906 q 5.58594,-12.62207 8.70118,-26.318359 h -13.75 V 160.47363 H 615.95703 V 61.000977 h 32.33399 l 5.96191,5.478515 q -5.42481,18.476563 -11.38672,31.635742 z"></path>
</svg>
