<svg xmlns="http://www.w3.org/2000/svg" id="svg1" version="1.1" height="200" width="1096">
  <defs id="defs1"></defs>
  <rect id="rect1" stroke="none" fill="none" height="200" width="1096" y="0" x="0"></rect>
  <path aria-label="北見地方" style="font-weight:bold;font-size:110px;font-family:'BIZ UDPGothic';fill:#ff0000" id="text1" d="M 32.119141,131.8457 Q 17.294922,139.63379 6.2841797,143.76953 L 1.7724609,131.95312 Q 19.013672,126.15234 32.119141,119.92188 V 95.859375 H 5.5322266 V 84.526367 H 32.119141 V 55.952148 H 44.09668 V 160.47363 H 32.119141 Z M 70.307617,90.004883 Q 82.822266,83.452148 94.584961,73.354492 l 8.916019,9.345703 Q 87.602539,93.979492 70.307617,101.92871 v 40.2832 q 0,2.63184 1.71875,3.22266 1.826172,0.59082 8.432617,0.59082 8.701172,0 10.903321,-1.02051 1.557617,-0.69824 2.148437,-4.35058 0.805664,-5.10254 1.181641,-16.48926 l 12.031247,3.70605 q -0.53711,13.91114 -1.71875,19.98047 -1.34277,6.76758 -7.03613,8.75489 -5.424805,1.82617 -17.77832,1.82617 -14.501953,0 -18.261719,-2.417 -3.598633,-2.36328 -3.598633,-9.07714 V 55.952148 H 70.307617 Z M 182.45605,123.03711 v 19.92676 q 0,3.49121 2.20215,4.18945 1.50391,0.4834 6.66016,0.4834 8.70117,0 10.63476,-0.69824 2.30958,-0.85938 2.9004,-4.83399 0.42968,-2.9541 0.91308,-12.03125 l 11.44043,4.08203 q -0.53711,14.93164 -2.84668,18.95996 -1.87988,3.27637 -6.3916,4.35059 -4.78027,1.12793 -16.32813,1.12793 -12.40722,0 -15.89843,-1.23535 -5.3711,-1.87988 -5.3711,-8.48633 v -25.83496 h -14.7705 q -1.07422,17.45605 -8.96973,25.29785 -2.9541,2.9541 -7.46582,5.47852 -8.80859,5.04882 -20.1416,6.71386 l -6.3916,-10.3125 q 16.05957,-1.93359 23.95507,-8.59375 6.06934,-5.10254 7.19727,-18.58398 H 127.93945 V 60.356445 h 74.1211 V 123.03711 Z M 139.80957,69.487305 v 9.023437 h 50.21973 v -9.023437 z m 0,17.402343 v 9.077149 h 50.21973 v -9.077149 z m 0,17.563482 v 9.45312 h 50.21973 v -9.45312 z m 136.47949,-4.995122 v 42.539062 q 0,4.13574 3.54492,4.99512 3.65235,0.91308 16.70411,0.91308 12.72949,0 16.81152,-1.28906 2.30957,-0.75195 3.00781,-4.18945 0.91309,-4.83399 0.9668,-11.44043 l 11.22558,3.16894 Q 327.69043,150 324.19922,154.4043 q -2.30957,2.90039 -6.98242,3.4375 -7.3584,0.80566 -24.97559,0.80566 -13.64258,0 -17.88574,-0.75195 -6.3916,-1.07422 -8.11035,-5.63965 -0.85938,-2.41699 -0.85938,-6.44531 v -42.59278 l -10.25879,3.54493 -2.52441,-10.419927 12.7832,-4.404296 V 62.988281 h 10.90332 v 25.19043 l 11.54785,-3.920899 V 55.952148 h 10.7959 v 24.545899 l 17.99317,-6.176758 5.63964,3.4375 v 40.229491 q 0,4.18945 -1.9873,6.23047 -2.25586,2.25586 -7.57324,2.25586 -4.35059,0 -9.23828,-0.75195 l -1.77246,-10.25879 q 3.16894,0.80566 6.44531,0.80566 2.36328,0 2.90039,-0.9668 0.53711,-0.80566 0.53711,-2.68554 V 87.211914 l -12.94434,4.511719 v 43.452147 h -10.7959 V 95.429687 Z M 236.81152,81.894531 V 55.952148 h 11.54785 v 25.942383 h 10.41993 v 10.903321 h -10.41993 v 34.160158 q 5.63965,-1.9336 11.17188,-4.02832 l 1.02051,10.36621 q -17.40235,7.94922 -35.71778,13.32031 l -3.75976,-11.44043 q 8.27148,-2.14844 14.50195,-4.08203 0.75195,-0.26855 1.23535,-0.37598 V 92.797852 H 223.16895 V 81.894531 Z m 145.3418,3.007813 q -0.37598,8.969726 -1.07422,15.791016 h 43.29102 q -0.80567,37.27539 -4.18946,48.39355 -1.71875,5.58594 -6.3916,7.73438 -3.65234,1.66504 -10.68847,1.66504 -7.41211,0 -16.81153,-1.12793 l -2.09472,-12.08496 q 12.62207,1.77246 17.77832,1.77246 4.35058,0 5.53222,-2.4707 2.84668,-6.01563 3.97461,-33.19336 h -31.95801 q -1.77246,9.66796 -4.99511,16.75781 -8.96973,19.60449 -29.97071,31.09863 l -8.48632,-9.45312 q 21.05468,-10.95704 27.82226,-28.73536 4.51172,-11.87011 5.85449,-36.147456 H 334.18945 V 73.891602 h 43.88184 V 55.952148 h 12.40723 v 17.939454 h 45.33203 v 11.010742 z"></path>
</svg>
