<svg xmlns="http://www.w3.org/2000/svg" id="svg1" version="1.1" height="200" width="1096">
  <defs id="defs1"></defs>
  <rect id="rect1" stroke="none" fill="none" height="200" width="1096" y="0" x="0"></rect>
  <path aria-label="橘湾" style="font-weight:bold;font-size:110px;font-family:'BIZ UDPGothic';fill:#ff0000" id="text1" d="M 71.005859,85.385742 Q 60.639648,96.71875 44.311523,103.27148 L 38.242187,95.429687 Q 53.28125,90.703125 62.949219,83.129883 H 38.994141 V 74.96582 H 64.72168 Q 59.082031,72.226562 54.194336,70.239258 l 6.660156,-3.491211 H 45.708008 v -8.056641 h 48.500976 l 5.424805,5.102539 Q 93.40332,69.702148 84.648437,74.96582 h 18.691403 l 5.31739,4.941407 Q 101.94336,90.756836 94.477539,98.4375 l -8.164062,-5.102539 q 5.20996,-4.56543 8.808593,-10.205078 H 81.264648 V 97.30957 q 0,4.08203 -1.71875,5.85449 -1.772461,1.77246 -6.33789,1.77246 -5.263672,0 -11.655274,-1.0205 l -1.289062,-7.143559 q 4.887695,0.751953 8.647461,0.751953 1.557617,0 1.879883,-0.644531 0.214843,-0.483399 0.214843,-1.772461 z m 4.296875,-12.675781 q 5.048828,-2.739258 9.023438,-5.961914 H 63.969727 q 0.322265,0.161133 0.751953,0.322265 3.920898,1.879883 10.581054,5.639649 z m 12.460938,54.838869 v 20.1416 H 64.560547 v 5.26367 h -8.271485 v -21.53808 q -1.342773,0.80566 -3.598632,1.82617 l -3.168946,-5.90821 v 33.13965 H 39.155273 V 105.7959 h 66.118167 v 44.74121 q 0,4.72656 -1.71875,6.82129 -2.09473,2.57812 -8.164065,2.57812 -4.243164,0 -11.601563,-0.80566 L 81.90918,150 q 6.499023,0.53711 10.151367,0.53711 2.041015,0 2.470703,-0.85938 0.268555,-0.53711 0.268555,-1.66503 v -20.46387 z m -8.378906,7.14355 H 64.560547 v 5.74707 h 14.824219 z m 15.415039,-14.28711 v -6.55273 H 84.326172 v 5.37109 q 0,1.18164 1.342773,1.18164 z m -19.013672,-6.55273 h -7.304688 q -1.71875,8.21777 -7.089843,13.58887 h 20.034179 q -2.631836,-0.32227 -3.974609,-1.39649 -1.665039,-1.5039 -1.665039,-5.04883 z m -16.328125,0 h -9.936524 v 11.22559 q 7.573243,-3.06153 9.936524,-11.22559 z M 16.381836,110.7373 Q 11.708984,126.52832 5.4785156,137.91504 L 0.859375,125.29297 q 9.72168,-16.59668 14.555664,-36.738283 H 2.7392578 V 78.081055 H 16.381836 V 55.952148 h 11.010742 v 22.128907 h 9.453125 v 10.473632 h -9.453125 v 8.164063 q 7.143555,6.28418 11.44043,11.49414 l -5.048828,10.15137 q -3.330078,-5.20996 -6.391602,-9.13086 v 51.24023 H 16.381836 Z M 192.9834,74.106445 v 20.786133 q 0,3.544922 -1.50391,5.209962 -1.77246,1.93359 -7.84179,1.93359 -5.80079,0 -9.50684,-0.64453 l -1.39649,-8.916014 q 4.24317,0.859375 7.14356,0.859375 1.55762,0 1.9873,-0.751953 0.32227,-0.644531 0.32227,-2.094727 V 74.106445 h -9.56055 q -0.42968,11.333008 -3.00781,17.402344 -2.84668,6.606445 -11.76269,12.084961 l -7.68067,-6.821289 q 8.05664,-4.189453 10.36621,-10.795899 1.39649,-4.135742 1.71875,-11.870117 h -21.21582 v -9.130859 h 30.56153 v -9.023438 h 11.8164 v 9.023438 h 33.73047 v 9.130859 z m 16.59668,30.454105 v 21.80664 h -53.0127 q -0.42968,2.9541 -1.02051,5.9082 h 58.65235 q -1.34277,14.77051 -3.70606,20.24902 -3.4375,7.94922 -16.11328,7.94922 -10.52734,0 -22.6123,-0.91308 l -1.98731,-9.77539 q 11.54785,1.23535 20.67871,1.23535 4.94141,0 6.49903,-1.12793 2.41699,-1.77246 3.75976,-9.23828 h -47.26562 q -0.59082,2.20215 -2.04102,6.60644 l -11.54785,-2.30957 q 4.08203,-12.24609 6.12305,-26.47949 h 51.83105 v -5.74707 h -55 v -8.16406 z M 130.57129,80.820312 q -5.96191,-8.271484 -15.25391,-16.381835 l 8.00293,-7.626954 q 8.43262,6.176758 15.84473,15.737305 z m -3.27637,27.714848 Q 119.02344,98.061523 111.23535,91.455078 l 8.05664,-7.788086 q 8.05664,6.176758 16.59668,15.952149 z M 113.4375,151.9873 q 9.45313,-14.71679 17.93945,-37.75878 l 8.8086,6.49902 q -7.03614,21.32324 -16.86524,39.85351 z m 95.71289,-51.50878 Q 202.11426,89.091797 194.37988,80.820312 l 8.16407,-5.263671 q 9.45312,8.59375 15.30761,18.798828 z m -75.1416,-6.445317 q 7.8418,-6.445312 12.89062,-17.080078 l 9.77539,3.652344 q -5.26367,11.977539 -14.55566,19.980471 z"></path>
</svg>
