<svg xmlns="http://www.w3.org/2000/svg" id="svg1" version="1.1" height="200" width="1096">
  <defs id="defs1"></defs>
  <rect id="rect1" stroke="none" fill="none" height="200" width="1096" y="0" x="0"></rect>
  <path aria-label="トカラ列島近海" style="font-weight:bold;font-size:110px;font-family:'BIZ UDPGothic';fill:#ff0000" id="text1" d="M 15.629883,59.013672 H 28.144531 V 89.84375 q 32.06543,9.882812 53.120117,20.19531 l -6.015625,11.60157 Q 55.053711,111.38184 28.144531,102.14355 v 54.57032 H 15.629883 Z m 78.740234,21.000976 h 32.763673 q 0.42969,-11.923828 0.42969,-21.323242 h 12.46093 q -0.10742,12.246094 -0.59082,21.323242 h 39.53125 q -0.32226,38.081052 -3.11523,58.383792 -1.23535,9.23828 -4.99512,12.67578 -3.9209,3.54492 -13.48144,3.54492 -6.92871,0 -14.7168,-1.12793 l -1.9873,-12.08496 q 9.29199,1.66504 15.20019,1.66504 4.08203,0 5.31738,-1.23535 1.39649,-1.34278 2.30957,-8.37891 2.63184,-20.83984 2.79297,-42.431639 h -27.39258 q -2.04101,22.128909 -9.39941,35.449219 -9.56055,17.24121 -28.73535,28.14453 l -8.164064,-9.56055 q 12.031254,-6.60644 20.517574,-16.59668 6.39161,-7.51953 9.45313,-17.02636 2.9541,-8.96973 4.02832,-20.410159 H 94.370117 Z M 206.08887,63.740234 h 70.84472 v 11.010743 h -70.84472 z m -7.68067,26.31836 h 89.42871 q -2.36328,23.417966 -9.77539,36.630856 -5.58593,9.93653 -13.96484,15.84473 -14.17969,10.09766 -41.25,13.85742 l -5.42481,-10.90332 q 23.90137,-2.30957 36.57715,-10.95703 16.43555,-11.11816 18.85254,-33.46191 H 198.4082 Z m 131.86035,35.717776 q -7.25097,-7.14356 -14.93164,-12.56836 -4.08203,6.71387 -9.77539,13.37402 l -7.25097,-9.13086 Q 314.37012,98.061523 319.6875,72.011719 H 301.47949 V 61.21582 h 55.37598 v 10.795899 h -25.83496 q -1.4502,7.143554 -3.22266,12.783203 h 20.03418 l 5.58594,4.511719 q -3.65235,25.673829 -13.2666,42.807619 -9.56055,17.02636 -28.68164,28.03711 l -7.89551,-9.13086 q 17.13379,-9.18457 26.69433,-25.24414 z m 5.04883,-10.63477 q 3.65235,-9.18457 5.69336,-20.463866 h -16.59668 q -1.9873,5.15625 -4.24316,9.721676 7.94922,4.61914 15.14648,10.74219 z m 26.69434,-44.257811 h 11.65527 v 63.593751 h -11.65527 z m 24.0625,-10.849609 h 11.87012 v 87.54883 q 0,5.74707 -2.36329,8.3789 -2.79296,3.06153 -10.63476,3.06153 -4.8877,0 -15.03906,-0.4834 l -3.16895,-0.16113 -2.30957,-11.7627 q 10.84961,1.18164 17.6709,1.18164 3.00781,0 3.59863,-1.5039 0.37598,-0.91309 0.37598,-2.57813 z m 62.41211,4.082031 q 1.9873,-4.780274 3.22265,-9.130859 l 13.10547,1.77246 q -1.87988,4.458008 -3.4375,7.358399 h 35.77149 v 35.019531 h -64.88282 v 5.424808 h 80.83497 v 8.70117 h -80.83497 v 5.47851 h 77.0752 q -0.69824,24.59961 -3.11523,33.19336 -1.55762,5.47852 -5.8545,7.25098 -3.06152,1.28906 -9.3457,1.28906 -6.44531,0 -12.03125,-0.80566 l -2.14844,-9.02344 h -53.81836 v 5.96192 h -11.54785 v -25.83497 h 11.54785 v 11.06446 h 18.47657 v -14.50196 h -21.1084 V 64.116211 Z m 22.82715,77.719729 v -11.06446 h 11.11816 v 18.69141 q 4.45801,0.42969 7.41211,0.42969 3.65234,0 4.56543,-2.09473 1.77246,-3.9209 2.79297,-20.46387 h -44.15039 v 14.50196 z M 432.26562,72.387695 v 5.317383 h 53.0127 v -5.317383 z m 0,12.998047 v 5.854492 h 53.0127 v -5.854492 z m 113.97461,50.649418 q 4.29688,4.99511 9.66797,7.41211 8.8086,3.9746 23.09571,3.9746 h 45.76171 q -1.93359,3.65235 -3.59863,10.47364 H 578.4668 q -18.47657,0 -28.30567,-5.80078 -4.02832,-2.417 -8.8623,-7.89551 -0.37598,0.42969 -0.91309,1.07422 -7.89551,9.3457 -15.68359,15.2539 l -6.49903,-11.01074 q 8.54004,-5.10254 16.48926,-11.54785 v -26.5332 H 519.0625 v -10.58106 h 27.17773 z m 13.96485,-71.274418 2.84668,-0.214844 q 24.86816,-1.71875 44.6875,-7.358398 l 8.3789,9.453125 q -20.83984,5.478516 -44.47265,7.412109 v 13.911133 h 49.73633 V 98.4375 h -18.04688 v 43.77441 H 591.46484 V 98.4375 h -19.81933 q -0.26856,17.24121 -2.57813,27.44629 -2.09472,9.39941 -6.875,16.86523 l -9.88281,-7.46582 q 5.31738,-8.27148 6.82129,-20.51757 1.07422,-8.43262 1.07422,-22.934575 z M 540.33203,85.761719 Q 532.11426,74.160156 522.60742,64.975586 l 8.8086,-7.036133 Q 540.6543,65.673828 550,77.597656 Z m 183.26172,-0.644532 q 0,2.524415 -0.4834,23.955083 h 10.25879 v 9.66796 h -10.47363 q -0.16114,7.03614 -0.69824,15.95215 h 9.07714 v 9.45313 h -9.77539 q -0.64453,7.78808 -1.77246,10.3125 -2.52441,6.01562 -12.24609,6.01562 -6.23047,0 -11.49414,-0.91308 L 693.99902,150 q 7.57325,1.07422 11.60157,1.07422 3.27636,0 3.92089,-2.30957 0.32227,-1.12793 0.59082,-4.61914 h -38.24218 q -0.0537,0.42969 -0.16114,0.91308 -0.48339,2.84668 -0.91308,5.3711 l -11.11817,-1.07422 q 3.27637,-19.38965 4.4043,-29.32617 l 0.16113,-1.28907 h -10.74218 v -9.66796 h 11.87011 q 1.50391,-12.998051 2.57813,-23.955083 z m -33.94531,9.345704 h -11.7627 q -0.16113,2.739257 -0.96679,11.547849 l -0.32227,3.06153 h 11.92383 l 0.16113,-1.50391 q 0.10742,-1.55762 0.32227,-4.35059 0.53711,-7.519528 0.64453,-8.754879 z m 10.58105,0 q -0.26855,6.391599 -0.80566,14.125979 v 0.4834 h 12.62207 q 0.21484,-7.3584 0.37597,-14.609379 z m -12.56836,24.277339 h -12.08496 q -0.80566,6.55274 -1.71875,12.94434 l -0.42969,3.00781 h 12.56836 q 1.28907,-11.65527 1.66504,-15.95215 z m 11.01074,0 q -0.16113,2.14844 -0.64453,7.08985 l -0.85937,8.8623 h 13.69629 q 0.26855,-5.20996 0.42969,-7.84179 0.32226,-5.74707 0.42968,-8.11036 z M 677.61719,65.727539 h 51.88476 v 9.990234 h -56.34277 q -4.35059,8.862305 -11.06445,16.865235 l -7.68067,-8.378906 q 10.58106,-12.407227 15.03906,-28.574219 l 11.44043,1.18164 q -1.93359,5.585938 -3.27636,8.916016 z m -29.59473,15.629883 q -6.60644,-9.077149 -16.05957,-17.026367 l 8.11035,-7.841797 q 8.75488,6.445312 16.65039,16.274414 z M 644.15527,109.7168 Q 635.99121,99.243164 627.66602,92.15332 l 8.3789,-8.05664 q 9.3457,7.358398 16.81153,16.75781 z m -14.60937,42.16308 q 9.3457,-12.94433 17.72461,-34.10644 l 9.56054,6.82129 q -6.98242,19.55078 -17.93945,35.8789 z"></path>
</svg>
