<svg xmlns="http://www.w3.org/2000/svg" id="svg1" version="1.1" height="200" width="990">
  <defs id="defs1"></defs>
  <rect id="rect1" stroke="none" fill="none" height="200" width="990" y="0" x="0"></rect>
  <path aria-label="網走地方" style="font-size:100px;font-family:'BIZ UDPGothic';fill:#ff0000" id="text1" d="M 14.404297,100.48828 Q 8.7402344,91.601562 2.0996094,84.179687 l 4.1992187,-5.371093 q 1.3183594,1.464843 2.9785157,3.417968 5.0781252,-7.8125 9.5214842,-17.724609 l 6.494141,3.320313 q -5.810547,10.742187 -12.207031,19.287109 2.832031,3.710937 5.322265,7.714844 l 0.683594,-0.976563 q 5.273437,-7.763672 10.888672,-17.236328 l 5.71289,4.003906 q -9.716797,15.234375 -20.703125,28.369146 11.572266,-0.97657 15.38086,-1.46485 -1.367188,-4.0039 -2.88086,-7.22656 l 5.175782,-2.587892 q 4.199218,8.691402 6.201171,18.310552 l -5.566406,2.88085 q -0.488281,-2.68554 -1.318359,-6.00585 -3.564453,0.73242 -8.203125,1.41601 v 45.21484 h -6.982422 v -44.2871 l -1.123047,0.14648 q -5.7128905,0.68359 -12.158203,1.2207 L 1.9042969,109.7168 q 2.734375,-0.14649 4.1015625,-0.19532 0.78125,-0.0488 1.4160156,-0.0977 3.515625,-4.19922 6.396484,-8.1543 0.341797,-0.48828 0.585938,-0.78125 z m 48.779297,18.70117 v 11.37696 q 0,2.53906 1.464843,3.07617 0.976563,0.39062 6.152344,0.39062 5.322266,0 11.621094,-0.63476 v 6.78711 q -5.859375,0.48828 -11.181641,0.48828 -10.449218,0 -12.646484,-1.75781 -2.001953,-1.61133 -2.001953,-6.34766 v -13.37891 h -6.689453 v -6.20117 H 63.525391 V 102.19727 H 49.902344 v -6.201176 h 19.580078 q 0.146484,-0.244141 0.488281,-1.074219 3.808594,-8.300781 6.152344,-17.724609 l 6.787109,2.490234 q -2.929687,8.447266 -7.080078,16.308594 h 9.082031 v 6.201176 H 70.3125 v 10.79101 h 14.599609 v 6.20117 z M 95.117187,68.798828 v 81.591792 q 0,3.95508 -1.708984,5.85938 -1.806641,2.05078 -6.689453,2.05078 -5.46875,0 -10.595703,-0.48828 l -1.611328,-7.12891 q 6.201172,0.83008 10.791015,0.83008 2.001953,0 2.441407,-0.78125 0.390625,-0.63476 0.390625,-2.53906 V 75.488281 H 46.484375 V 159.52148 H 39.599609 V 68.798828 Z M 2.1972656,147.41211 q 3.0273438,-11.76758 3.7109375,-25.39063 l 6.3964849,0.6836 q -0.927735,17.28515 -3.710938,27.7832 z m 29.0039064,-2.58789 q -1.5625,-12.93945 -3.90625,-22.02149 l 5.71289,-1.80664 q 2.539063,8.25196 4.589844,21.09375 z M 57.324219,94.824219 Q 54.833984,86.865234 51.220703,80.419922 l 5.761719,-2.441406 q 3.90625,6.201171 6.542969,14.30664 z M 153.61328,148.0957 q 6.64063,1.26953 14.4043,1.26953 h 29.78515 q -1.85546,3.4668 -2.58789,7.51954 h -28.22265 q -17.1875,0 -28.56446,-5.76172 -9.61914,-4.93164 -16.1621,-14.55078 -4.78516,12.59765 -13.76954,22.4121 l -5.71289,-6.00585 q 8.20313,-8.98438 12.74414,-20.94727 3.07618,-8.05664 4.93164,-18.94531 l 8.00782,1.80664 q -1.9043,8.88672 -3.51563,14.01367 4.00391,6.15234 8.30078,9.86328 5.46875,4.63867 12.45117,7.17774 V 106.78711 H 103.4668 V 100 h 42.23632 V 84.765625 h -33.74023 v -6.689453 h 33.74023 V 64.453125 h 7.91016 v 13.623047 h 34.375 v 6.689453 h -34.375 V 100 h 42.96875 v 6.78711 h -42.96875 v 14.20898 h 35.5957 v 6.78711 h -35.5957 z m 95.60547,-44.87304 v 40.86914 q 0,4.05273 2.39258,4.98047 2.58789,0.97656 16.45508,0.97656 13.42773,0 17.38281,-0.92774 2.7832,-0.68359 3.56445,-3.22265 1.2207,-4.00391 1.26953,-12.40235 l 7.51953,2.78321 q -0.68359,13.23242 -3.51562,16.79687 -2.24609,2.92969 -7.27539,3.4668 -7.66602,0.78125 -20.75195,0.78125 -12.45118,0 -16.74805,-0.83008 -5.3711,-1.07422 -6.83594,-4.88281 -0.78125,-2.09961 -0.78125,-5.51758 v -40.38086 l -10.49805,3.56445 -1.90429,-6.98242 12.40234,-4.150389 v -26.5625 h 7.32422 v 24.072266 l 12.8418,-4.345703 V 64.501953 h 7.32422 v 24.365234 l 18.01757,-6.054687 4.39453,2.392578 v 35.986332 q 0,3.51562 -1.66015,5.32226 -1.95313,2.09961 -6.83594,2.09961 -3.95508,0 -7.71484,-0.53711 l -1.26953,-6.98242 q 3.71093,0.68359 6.93359,0.68359 2.44141,0 2.97852,-1.07421 0.39062,-0.73243 0.39062,-2.29493 V 91.113281 l -15.23437,5.175781 v 39.794918 h -7.32422 V 98.779297 Z M 216.50391,88.916016 V 65.136719 h 7.71484 v 23.779297 h 10.79102 v 7.177734 h -10.79102 v 34.96094 q 5.12695,-1.75782 11.71875,-4.44336 l 0.78125,6.88476 q -14.94141,6.88477 -32.03125,12.10938 l -2.7832,-7.61719 q 6.78711,-1.85547 14.59961,-4.3457 V 96.09375 h -13.28125 v -7.177734 z m 128.95507,0.04883 q 0,7.324218 -0.92773,17.041016 h 39.4043 q -0.6836,32.91016 -3.75977,43.60351 -1.26953,4.49219 -4.83398,6.34766 -3.02735,1.5625 -9.08203,1.5625 -8.39844,0 -15.33204,-0.92773 l -1.31836,-8.00782 q 10.15625,1.31836 16.3086,1.31836 4.05273,0 5.32226,-1.70898 1.07422,-1.46484 2.14844,-8.49609 1.5625,-9.96094 2.14844,-26.70899 h -31.93359 q -1.80665,11.37695 -5.76172,19.28711 -7.91016,15.91797 -26.02539,25.73242 l -5.61524,-6.29883 q 19.38477,-10.15625 25.58594,-26.36718 5.17578,-13.57422 5.56641,-36.376956 h -33.54493 v -7.177735 h 41.69922 V 64.501953 h 8.00781 v 17.285156 h 42.67579 v 7.177735 z"></path>
</svg>
