<svg xmlns="http://www.w3.org/2000/svg" id="svg1" version="1.1" height="200" width="990">
  <defs id="defs1"></defs>
  <rect id="rect1" stroke="none" fill="none" height="200" width="990" y="0" x="0"></rect>
  <path aria-label="小笠原諸島西方沖" style="font-size:100px;font-family:'BIZ UDPGothic';fill:#ff0000" id="text1" d="m 45.800781,65.478516 h 8.203125 v 83.203124 q 0,4.98047 -1.80664,7.03125 -2.148438,2.39258 -9.277344,2.39258 -7.519531,0 -13.81836,-0.48828 l -1.80664,-8.4961 q 7.861328,0.97657 14.697265,0.97657 2.636719,0 3.320313,-0.87891 0.488281,-0.68359 0.488281,-2.29492 z M 3.4179688,133.00781 Q 14.0625,116.60156 18.408203,85.693359 L 26.513672,87.5 Q 21.875,120.11719 10.400391,138.47656 Z m 85.5957032,5.17578 Q 80.029297,107.22656 70.214844,86.376953 l 7.421875,-3.271484 Q 88.525391,105.22461 96.923828,133.88672 Z M 134.375,83.496094 q 3.32031,5.664062 6.10352,12.597656 l -7.56836,2.783203 q -3.32032,-9.228516 -6.68946,-15.380859 h -6.10351 q -4.44336,8.447265 -11.03516,15.820312 l -5.9082,-5.615234 Q 114.20898,82.177734 119.0918,64.599609 l 7.61718,1.708985 q -1.46484,5.078125 -3.56445,10.595703 h 25.63477 v 6.591797 z m 40.77148,0 q 0.24414,0.390625 0.63477,0.976562 2.97852,4.492188 6.20117,11.035156 l -7.27539,2.978516 q -3.4668,-7.958984 -7.71484,-14.990234 h -6.68946 q -3.17382,7.27539 -8.20312,14.013672 l -5.9082,-4.638672 q 8.74023,-11.328125 12.20703,-28.271485 l 7.4707,1.31836 q -1.2207,5.810547 -2.97852,10.986328 h 32.42188 v 6.591797 z m -21.5332,23.828126 h 38.96484 v 6.49414 h -85.20507 v -6.49414 h 38.33007 V 98.4375 h 7.91016 z m 5.61524,40.67383 q 6.93359,-16.84571 10.9375,-32.42188 l 8.10546,2.63672 q -4.88281,16.89453 -10.74218,29.78516 h 29.98047 v 6.68945 h -95.01954 v -6.68945 z m -30.12696,-1.9043 q -3.41797,-16.65039 -8.10547,-27.7832 l 7.71485,-2.39258 q 5.02929,12.5 8.6914,27.88086 z M 254.98047,86.914062 h 31.78711 v 37.890628 h -25.19531 v 27.68554 q 0,3.75977 -1.75782,5.3711 -1.75781,1.66015 -6.39648,1.66015 -6.34766,0 -11.86524,-0.83007 l -1.36718,-6.98243 q 5.9082,0.97657 10.98632,0.97657 2.68555,0 2.68555,-2.49024 V 124.80469 H 228.17383 V 86.914062 h 19.18945 l 0.3418,-0.683593 q 1.66015,-3.564453 3.66211,-8.837891 l 0.48828,-1.318359 H 218.01758 V 103.4668 q 0,22.70508 -1.80664,33.88672 -1.85547,11.71875 -7.42188,21.5332 l -6.20117,-5.3711 q 5.32227,-9.96093 6.73828,-24.12109 0.87891,-8.83789 0.87891,-24.21875 V 69.384766 h 83.83789 v 6.689453 h -33.98438 q -0.0976,0.341797 -0.29297,0.830078 -1.75781,4.443359 -4.78515,10.009765 z m 24.07226,6.201172 h -43.26171 v 9.472656 h 43.26171 z m -43.26171,15.576176 v 9.91211 h 43.26171 v -9.91211 z m 54.05273,45.70312 q -7.08008,-10.40039 -17.67578,-20.99609 l 5.81055,-4.49219 q 10.30273,9.52148 17.87109,20.11719 z m -71.38672,-4.19922 q 10.15625,-8.05664 16.79688,-20.80078 l 6.39648,3.61328 q -6.39648,12.8418 -17.57812,22.70508 z M 370.50781,94.189453 q 9.7168,-11.376953 17.38281,-25.683594 l 6.39649,3.271485 q -7.27539,13.183593 -14.84375,22.412109 h 17.82226 v 6.494137 h -23.14453 q -4.88281,5.17579 -12.79297,11.32813 h 27.44141 v 47.50976 h -7.17773 v -5.22461 h -25.63477 v 5.22461 h -7.17773 v -38.76953 q -5.12696,3.27149 -10.88868,6.25 l -4.19921,-5.81054 q 12.01171,-5.51758 23.38867,-14.35547 4.54101,-3.4668 7.17773,-6.15235 h -26.17187 v -6.494137 h 20.70312 V 81.982422 h -15.625 v -6.494141 h 15.625 V 64.501953 h 7.42188 v 10.986328 h 13.08593 v 6.494141 h -13.08593 v 12.207031 z m -14.55078,24.023437 v 11.2793 h 25.63477 v -11.2793 z m 0,17.48047 v 12.40234 h 25.63477 v -12.40234 z m -19.48242,-8.98438 v 27.49024 h -23.19336 v 5.32226 h -7.08008 v -32.8125 z m -23.19336,6.39649 v 14.69726 h 16.01562 V 133.10547 Z M 307.4707,68.603516 h 27.63672 v 6.298828 H 307.4707 Z m -4.88281,14.404296 h 36.37695 v 6.591797 h -36.37695 z m 4.88281,14.697266 h 27.73438 v 6.298832 H 307.4707 Z m 0,14.306642 h 27.73438 v 6.20117 H 307.4707 Z m 160.54688,37.20703 h -53.8086 v 5.71289 h -7.71484 v -23.0957 h 7.71484 v 11.18164 h 19.0918 v -14.69727 h -19.0918 V 73.291016 h 23.97461 q 3.36914,-4.931641 5.41993,-9.179688 l 8.6914,2.001953 q -2.39258,3.515625 -5.46875,7.177735 h 35.25391 v 30.517574 h -59.96094 v 6.00586 h 75.3418 v 6.10352 h -75.3418 v 6.29883 h 70.94727 q -0.73243,23.87695 -3.32032,30.71289 -1.5625,4.19922 -5.51757,5.66406 -2.5879,0.92773 -6.83594,0.92773 -6.15235,0 -11.76758,-0.8789 l -1.61133,-7.22656 q 6.73828,1.02539 12.10938,1.02539 4.24804,0 5.37109,-1.95313 2.24609,-3.90625 3.36914,-22.16797 h -43.94531 v 14.69727 h 19.58008 v -11.18164 h 7.51953 z M 422.11914,79.296875 v 6.298828 h 52.09961 v -6.298828 z m 0,12.011719 v 6.689453 h 52.09961 v -6.689453 z m 111.47461,2.392578 V 77.197266 H 502.7832 V 70.3125 h 94.38477 v 6.884766 h -33.88672 v 16.503906 h 27.7832 V 157.8125 h -7.8125 V 150 h -66.65039 v 7.8125 h -7.71484 V 93.701172 Z m 7.51953,0 h 14.64844 V 77.197266 h -14.64844 z m -7.56836,6.591798 h -16.94336 v 42.91992 h 66.65039 v -17.23633 h -20.16601 q -7.32422,0 -7.32422,-6.59179 v -19.0918 h -14.69727 q -0.43945,10.5957 -3.125,16.89453 -3.80859,8.93555 -14.9414,15.52734 l -4.98047,-5.61523 q 10.40039,-5.41992 13.52539,-14.50195 1.51367,-4.44336 2.00195,-12.30469 z m 29.73633,0 v 16.50391 q 0,1.51367 0.58594,1.95312 0.53711,0.43945 1.80664,0.43945 h 17.57812 v -18.89648 z m 82.17773,-11.328126 q 0,7.324218 -0.92773,17.041016 h 39.4043 q -0.6836,32.91016 -3.75977,43.60351 -1.26953,4.49219 -4.83398,6.34766 -3.02735,1.5625 -9.08203,1.5625 -8.39844,0 -15.33204,-0.92773 l -1.31836,-8.00782 q 10.15625,1.31836 16.3086,1.31836 4.05273,0 5.32226,-1.70898 1.07422,-1.46484 2.14844,-8.49609 1.5625,-9.96094 2.14844,-26.70899 h -31.93359 q -1.80665,11.37695 -5.76172,19.28711 -7.91016,15.91797 -26.02539,25.73242 l -5.61524,-6.29883 q 19.38477,-10.15625 25.58594,-26.36718 5.17578,-13.57422 5.56641,-36.376956 h -33.54493 v -7.177735 h 41.69922 V 64.501953 h 8.00781 v 17.285156 h 42.67579 v 7.177735 z m 113.23243,-3.66211 V 64.501953 h 7.71484 v 20.800781 h 27.7832 v 40.478516 h -27.7832 v 33.69141 h -7.71484 v -33.69141 h -26.9043 V 85.302734 Z m -19.38477,6.982422 v 26.513674 h 19.38477 V 92.285156 Z m 47.26563,26.513674 V 92.285156 H 766.40625 V 118.79883 Z M 721.77734,86.621094 q -6.54297,-8.34961 -15.2832,-15.527344 l 5.32227,-5.273438 q 8.30078,6.201172 15.67382,14.990235 z m -3.66211,25.488286 q -7.66601,-8.8379 -15.91796,-15.527349 l 5.41992,-5.46875 q 8.39843,6.201172 16.16211,14.990239 z m -13.7207,40.57617 q 9.52149,-12.69532 17.48047,-32.86133 l 6.29883,5.07812 q -7.32422,19.14063 -17.08985,33.69141 z"></path>
</svg>
