<svg xmlns="http://www.w3.org/2000/svg" id="svg1" version="1.1" height="200" width="1096">
  <defs id="defs1"></defs>
  <rect id="rect1" stroke="none" fill="none" height="200" width="1096" y="0" x="0"></rect>
  <path aria-label="四国沖" style="font-weight:bold;font-size:110px;font-family:'BIZ UDPGothic';fill:#ff0000" id="text1" d="M 102.48047,65.512695 V 156.71387 H 90.50293 v -8.05664 H 19.335937 v 8.05664 H 7.5732422 V 65.512695 Z M 61.337891,76.201172 h -14.28711 v 7.573242 q 0,17.617186 -4.887695,27.338866 -4.02832,8.16406 -14.555664,15.14649 l -7.734375,-8.48633 q 6.606445,-3.4375 10.043945,-8.11035 5.908203,-8.16407 5.908203,-25.351567 V 76.201172 H 19.335937 V 137.86133 H 90.50293 V 119.00879 H 71.328125 q -9.990234,0 -9.990234,-10.04395 z m 11.225586,0 v 30.131838 q 0,1.9873 1.987304,1.9873 H 90.50293 V 76.201172 Z M 169.18945,88.071289 V 100.85449 H 192.5 v 9.02344 h -10.47363 q 4.88769,3.97461 10.68847,11.33301 l -8.21777,5.47851 q -3.9209,-5.9082 -11.01074,-12.40722 l 7.84179,-4.4043 h -12.13867 v 17.02637 h 27.5 v 9.45312 h -63.48633 v -9.45312 h 24.86817 v -17.02637 h -20.78613 v -9.02344 h 20.78613 V 88.071289 h -23.74024 v -9.345703 h 61.12305 v 9.345703 z m 43.98926,-27.070312 v 99.472653 h -11.87012 v -5.63965 h -72.72461 v 5.63965 H 116.82129 V 61.000977 Z m -84.59473,9.882812 v 73.745121 h 72.72461 V 70.883789 Z m 155.11719,5.102539 v -20.03418 h 11.54785 v 20.03418 h 29.11133 v 48.608402 h -29.11133 v 35.8789 h -11.54785 v -35.8789 H 255.18066 V 75.986328 Z m -17.40234,10.688477 v 27.338865 h 17.40234 V 86.674805 Z m 46.62109,27.338865 V 86.674805 h -17.6709 v 27.338865 z m -68.75,-31.796873 q -6.55273,-9.13086 -17.34863,-17.456055 l 8.00293,-8.164062 q 10.74219,7.573242 18.1543,16.972656 z m -3.49121,27.607423 q -9.3457,-10.849611 -18.1543,-17.778322 l 8.27149,-8.271484 q 9.39941,6.606445 18.58398,17.080076 z m -16.7041,41.62598 q 10.3125,-14.66309 19.01367,-36.52344 l 9.56055,7.3584 q -7.3584,20.1416 -17.93946,37.91992 z"></path>
</svg>
