<svg xmlns="http://www.w3.org/2000/svg" id="svg1" version="1.1" height="200" width="990">
  <defs id="defs1"></defs>
  <rect id="rect1" stroke="none" fill="none" height="200" width="990" y="0" x="0"></rect>
  <path aria-label="苫小牧沖" style="font-size:100px;font-family:'BIZ UDPGothic';fill:#ff0000" id="text1" d="M 28.417969,75.488281 V 64.501953 h 7.8125 V 75.488281 H 62.695312 V 64.501953 h 7.8125 v 10.986328 h 26.220704 v 6.884766 H 70.507812 v 10.009765 h -7.8125 V 82.373047 H 36.230469 V 93.75 h -7.8125 V 82.373047 H 3.3203125 v -6.884766 z m 23.730468,25.488279 h 40.283204 v 6.5918 H 52.148437 v 13.62305 h 33.984375 v 38.28125 h -8.105468 v -6.5918 H 22.851562 v 6.5918 H 14.84375 V 121.19141 H 44.335937 V 87.353516 h 7.8125 z M 22.851562,127.7832 v 18.60352 H 78.027344 V 127.7832 Z M 145.80078,65.478516 h 8.20313 v 83.203124 q 0,4.98047 -1.80664,7.03125 -2.14844,2.39258 -9.27735,2.39258 -7.51953,0 -13.81836,-0.48828 l -1.80664,-8.4961 q 7.86133,0.97657 14.69727,0.97657 2.63672,0 3.32031,-0.87891 0.48828,-0.68359 0.48828,-2.29492 z M 103.41797,133.00781 Q 114.0625,116.60156 118.4082,85.693359 L 126.51367,87.5 q -4.63867,32.61719 -16.11328,50.97656 z m 85.5957,5.17578 Q 180.0293,107.22656 170.21484,86.376953 l 7.42188,-3.271484 q 10.88867,22.119141 19.28711,50.781251 z m 86.23047,-7.51953 q 8.93555,11.81641 23.04688,20.80078 l -4.83399,7.51953 q -12.54883,-8.44726 -22.36328,-21.63085 -9.47266,13.42773 -24.90234,22.31445 l -5.32227,-6.29883 q 15.91797,-8.59375 25.39063,-23.04687 -8.34961,-13.62305 -12.20704,-27.78321 -2.29492,4.6875 -5.5664,9.42383 l -5.12696,-6.5918 q 9.86329,-14.062496 15.13672,-40.478512 l 7.47071,1.513672 q -1.95313,9.179687 -4.34571,16.796875 h 35.0586 v 6.884766 h -8.83789 q -2.73438,22.363279 -12.59766,40.576169 z m -4.93164,-7.32422 q 7.17773,-14.74609 9.7168,-33.251949 h -20.70313 q -0.48828,1.318359 -1.2207,3.271484 3.75976,16.113285 12.20703,29.980465 z M 216.25977,86.71875 h 7.71484 V 64.501953 h 7.8125 V 86.71875 h 14.79492 v 6.884766 h -14.79492 v 22.314454 l 0.68359,-0.19531 q 7.03125,-1.9043 14.30664,-4.10157 l 0.29297,6.68946 q -5.61523,1.90429 -15.2832,4.73633 v 36.4746 h -7.8125 v -34.32617 q -7.95899,2.19727 -18.79883,4.58985 l -2.19726,-7.47071 q 10.44921,-1.90429 20.99609,-4.44336 V 93.603516 h -9.17969 q -2.24609,8.984374 -5.61523,16.210934 l -6.10352,-4.58984 q 5.51758,-12.451173 7.8125,-31.591798 l 7.08008,1.074219 q -0.73242,6.640625 -1.70898,12.011719 z M 358.69141,85.302734 V 64.501953 h 7.71484 v 20.800781 h 27.7832 v 40.478516 h -27.7832 v 33.69141 h -7.71484 v -33.69141 h -26.9043 V 85.302734 Z m -19.38477,6.982422 v 26.513674 h 19.38477 V 92.285156 Z m 47.26563,26.513674 V 92.285156 H 366.40625 V 118.79883 Z M 321.77734,86.621094 q -6.54297,-8.34961 -15.2832,-15.527344 l 5.32227,-5.273438 q 8.30078,6.201172 15.67382,14.990235 z m -3.66211,25.488286 q -7.66601,-8.8379 -15.91796,-15.527349 l 5.41992,-5.46875 q 8.39843,6.201172 16.16211,14.990239 z m -13.7207,40.57617 q 9.52149,-12.69532 17.48047,-32.86133 l 6.29883,5.07812 q -7.32422,19.14063 -17.08985,33.69141 z"></path>
</svg>
