<svg xmlns="http://www.w3.org/2000/svg" id="svg1" version="1.1" height="200" width="990">
  <defs id="defs1"></defs>
  <rect id="rect1" stroke="none" fill="none" height="200" width="990" y="0" x="0"></rect>
  <path aria-label="東京都23区" style="font-size:100px;font-family:'BIZ UDPGothic';fill:#ff0000" id="text1" d="m 61.328125,126.61133 q 14.013672,12.84179 36.767578,20.50781 l -4.736328,6.98242 Q 82.8125,150.14648 75.048828,145.55664 62.939453,138.33008 53.515625,127.49023 v 32.03125 h -7.714844 v -31.83593 q -5.761719,7.51953 -14.30664,14.20898 -10.888672,8.49609 -24.3164066,13.81836 L 2.3925781,149.41406 Q 24.365234,141.40625 38.183594,126.61133 H 11.572266 V 87.792969 H 45.800781 V 79.785156 H 4.0527344 V 73.193359 H 45.800781 v -8.691406 h 7.714844 v 8.691406 h 42.382812 v 6.591797 H 53.515625 v 8.007813 H 88.28125 V 126.61133 Z M 45.800781,94.091797 H 19.384766 v 9.814453 h 26.416015 z m 7.714844,0 v 9.814453 H 80.566406 V 94.091797 Z M 45.800781,110.00977 H 19.384766 v 10.30273 h 26.416015 z m 7.714844,0 V 120.3125 H 80.566406 V 110.00977 Z M 153.61328,75.78125 h 41.79688 v 6.787109 H 104.58984 V 75.78125 h 41.11328 V 64.501953 h 7.91016 z m 30.9082,16.015625 v 31.005855 h -29.88281 v 29.49219 q 0,3.4668 -1.61133,5.17578 -1.85547,1.95313 -6.64062,1.95313 -7.22656,0 -14.16016,-0.63477 l -1.61133,-7.27539 q 7.27539,0.87891 12.8418,0.87891 2.09961,0 2.73438,-0.58594 0.53711,-0.53711 0.53711,-1.9043 V 122.80273 H 115.42969 V 91.796875 Z m -60.98632,6.591797 v 17.822268 h 52.88086 V 98.388672 Z m -20.11719,51.416018 q 12.74414,-8.98438 20.01953,-22.31446 l 6.98242,3.61329 q -8.30078,14.89257 -21.28906,24.60937 z m 85.98633,4.6875 q -10.20508,-13.67188 -21.09375,-23.68164 l 5.9082,-4.49219 q 10.74219,9.57031 21.58203,22.80273 z m 46.04492,-59.570315 0.39062,-0.439453 q 9.08203,-11.376953 14.7461,-24.267578 l 6.39648,3.515625 q -7.61719,13.964843 -13.3789,21.191406 h 15.03906 v 6.591795 h -21.19141 q -2.97851,3.66211 -10.88867,10.79102 h 25 v 45.99609 h -7.08008 v -4.19922 h -23.0957 v 5.41992 h -7.32422 v -37.40234 q -4.19922,3.02734 -8.98438,5.85938 l -4.10156,-6.05469 q 15.9668,-8.34961 27.34375,-20.16602 l 0.24414,-0.24414 h -26.12304 v -6.591795 h 21.63086 V 82.8125 h -15.625 v -6.494141 h 15.625 V 64.501953 H 231.25 v 11.816406 h 12.10937 V 82.8125 H 231.25 v 12.109375 z m -14.0625,23.583985 v 10.98633 h 23.0957 v -10.98633 z m 0,17.1875 v 12.10937 h 23.0957 v -12.10937 z m 61.52344,-32.42188 q 12.59765,15.33204 12.59765,29.49219 0,5.66406 -2.09961,8.4961 -2.39258,3.22265 -8.44726,3.22265 -5.71289,0 -10.69336,-0.58594 l -1.5625,-7.61718 q 6.20117,1.12304 10.20508,1.12304 3.80859,0 4.54101,-2.73437 0.24414,-0.97656 0.24414,-2.7832 0,-13.67188 -12.69531,-27.58789 5.71289,-12.548833 9.47266,-26.708989 H 269.0918 v 81.884769 h -7.32422 V 70.507812 h 27.24609 l 4.49219,3.808594 q -4.93164,16.845703 -10.5957,28.955074 z m 26.80664,49.21875 v -8.10546 q 4.58984,-16.16211 25,-29.98047 L 337.5,112.5 q 9.0332,-6.10352 12.06055,-9.13086 5.46875,-5.371093 5.46875,-11.718749 0,-5.957032 -4.49219,-9.716797 -4.78516,-4.052735 -12.54883,-4.052735 -11.96289,0 -21.19141,10.498047 l -6.29882,-5.46875 q 10.35156,-12.939453 27.53906,-12.939453 9.52148,0 16.40625,4.052734 10.5957,6.201172 10.5957,18.017579 0,8.398434 -6.68945,14.941404 -3.22266,3.125 -13.08594,9.96094 l -1.66015,1.17187 -3.4668,2.39258 q -18.45703,12.64649 -20.89844,23.48633 h 46.875 v 8.49609 z m 90.52734,-46.48437 h 6.29883 q 9.32617,0 14.99023,-2.97852 1.26953,-0.68359 2.39258,-1.61132 4.93164,-4.150395 4.93164,-10.302739 0,-6.445312 -5.17578,-10.107422 -4.73633,-3.271484 -12.1582,-3.271484 -11.13282,0 -20.45899,8.789062 l -5.71289,-6.103515 q 3.90625,-3.808594 8.88672,-6.25 8.39844,-4.150391 17.72461,-4.150391 9.57031,0 16.55273,3.857422 10.25391,5.664063 10.25391,16.455078 0,8.203125 -6.00586,13.720699 -4.63867,4.34571 -13.3789,5.46875 v 0.39063 q 10.35156,1.07422 16.06445,6.10352 6.20117,5.51757 6.20117,14.74609 0,11.62109 -9.17969,17.91992 -7.91015,5.41992 -20.80078,5.41992 -17.87109,0 -29.0039,-11.42578 l 5.81054,-6.15234 q 3.17383,3.32031 7.08008,5.41992 7.56836,4.15039 16.11328,4.15039 9.61914,0 15.08789,-4.39453 4.88281,-3.95508 4.88281,-11.08399 0,-16.99218 -25.29296,-16.99218 h -6.10352 z m 69.62891,-28.027344 v 66.894534 h 75.8789 v 7.32422 h -75.8789 v 7.32421 h -8.20313 V 70.898437 h 81.49414 v 7.080079 z m 33.49609,34.082034 -1.51367,-1.22071 Q 490.9668,101.66016 479.78516,93.798828 l 4.78515,-5.517578 q 12.30469,8.447266 23.58399,17.77344 7.61718,-10.791018 13.33007,-23.730471 l 7.2754,3.466797 q -6.73829,14.550784 -14.55079,25.390624 8.54493,7.22656 21.33789,19.62891 l -5.5664,6.20117 q -11.18164,-11.32813 -20.6543,-19.72656 l -0.68359,0.78125 q -11.13281,12.69531 -27.29492,21.92382 l -5.17579,-6.10351 q 15.86915,-8.64258 27.19727,-21.82617 z"></path>
</svg>
