<svg xmlns="http://www.w3.org/2000/svg" id="svg1" version="1.1" height="200" width="1096">
  <defs id="defs1"></defs>
  <rect id="rect1" stroke="none" fill="none" height="200" width="1096" y="0" x="0"></rect>
  <path aria-label="隠岐島近海" style="font-weight:bold;font-size:110px;font-family:'BIZ UDPGothic';fill:#ff0000" id="text1" d="M 99.09668,87.104492 V 124.37988 H 71.918945 q 5.102539,5.26367 9.667969,12.89063 l -8.754883,5.69336 Q 68.75,135.17578 62.358398,127.54883 l 6.069336,-3.16895 H 39.907227 v -8.16406 H 87.65625 v -6.92871 H 43.022461 v -7.46582 H 87.65625 V 95.161133 H 40.12207 v -8.056641 h 8.808594 q -1.71875,-4.082031 -5.317383,-9.667969 -0.698242,-1.074218 -1.289062,-2.041015 l 9.560547,-3.491211 q 4.350586,5.585937 7.197265,12.138672 l -7.143554,3.061523 H 79.384766 Q 84.648437,76.899414 87.763672,67.5 l 10.366211,4.296875 q -5.69336,11.064453 -8.432617,15.307617 z m -71.328125,7.626953 q 9.18457,13.535155 9.18457,28.037105 0,8.05665 -2.202148,11.49415 -2.631836,3.9746 -10.151368,3.9746 -3.115234,0 -6.552734,-0.64453 l -2.094727,-10.58105 q 0.913086,0.16113 1.987305,0.37598 2.685547,0.5371 4.350586,0.5371 2.470703,0 3.168945,-0.85937 0.751953,-0.85938 0.751953,-4.18945 0,-15.36133 -8.164062,-26.855472 l 0.59082,-1.826172 q 3.168946,-9.18457 5.908203,-21.591797 l 0.53711,-2.578125 H 15.629883 V 160.47363 H 5.15625 V 60.03418 h 26.748047 l 4.726562,4.296875 q -3.276367,14.716797 -8.862304,30.40039 z M 38.242187,63.203125 Q 69.287109,61.376953 92.167969,56.05957 l 7.250976,8.164063 q -27.285156,5.478515 -56.772461,7.788086 z m -6.015625,88.569335 q 4.619141,-8.00293 8.110352,-22.02148 l 9.238281,2.41699 q -2.470703,14.87793 -7.788086,25.29785 z m 20.893555,-21.37695 h 10.688477 v 15.30761 q 0,2.57813 1.665039,3.11524 2.363281,0.75195 7.788086,0.75195 6.767578,0 7.841797,-1.93359 0.751953,-1.34277 1.074218,-9.07715 l 10.473633,3.59863 q -0.05371,0.53711 -0.107422,2.68555 -0.268554,9.66797 -4.565429,12.40723 -3.544922,2.25586 -17.509766,2.25586 -10.258789,0 -13.803711,-1.87989 -3.544922,-1.87988 -3.544922,-7.19726 z M 67.192383,86.728516 Q 64.667969,79.208984 60.478516,72.763672 l 9.667968,-2.954102 q 4.082032,5.317383 7.304688,13.535157 z M 99.526367,154.18945 Q 92.543945,137.64648 87.65625,130.77148 l 9.023437,-4.29687 q 7.465823,10.15137 12.299803,22.07519 z M 194.64844,134.2627 q 10.90332,9.23828 24.38476,14.71679 l -6.3916,10.7959 q -13.80371,-6.66016 -25.35156,-17.77832 -12.19238,11.81641 -29.32617,19.06738 l -7.03614,-9.56054 q 15.79102,-4.83399 29.21875,-17.13379 -11.22558,-13.42774 -16.59668,-27.55371 h -5.04882 V 96.450195 h 21.10839 V 81.948242 h -24.49218 v 59.887698 h -30.50781 v 9.3457 h -9.7754 V 77.866211 h 9.23829 v 53.657229 h 5.96191 V 57.509766 h 9.77539 v 74.013674 h 6.17676 V 77.866211 h 7.68066 v -6.499024 h 25.94238 V 55.952148 h 11.33301 v 15.415039 h 26.42578 v 10.581055 h -26.42578 v 14.501953 h 17.08008 l 5.15625,5.317385 q -8.75488,20.83984 -18.53027,32.49512 z m -7.57324,-7.3584 q 8.64746,-11.38672 11.92382,-20.08789 h -24.38476 q 4.83398,11.54785 12.46094,20.08789 z m 75.51757,-62.788089 q 1.98731,-4.780274 3.22266,-9.130859 l 13.10547,1.77246 q -1.87988,4.458008 -3.4375,7.358399 h 35.77148 v 35.019531 h -64.88281 v 5.424808 h 80.83496 v 8.70117 h -80.83496 v 5.47851 h 77.0752 q -0.69825,24.59961 -3.11524,33.19336 -1.55762,5.47852 -5.85449,7.25098 -3.06152,1.28906 -9.3457,1.28906 -6.44532,0 -12.03125,-0.80566 l -2.14844,-9.02344 h -53.81836 v 5.96192 h -11.54785 v -25.83497 h 11.54785 v 11.06446 h 18.47656 v -14.50196 h -21.1084 V 64.116211 Z m 22.82715,77.719729 v -11.06446 h 11.11817 v 18.69141 q 4.458,0.42969 7.41211,0.42969 3.65234,0 4.56542,-2.09473 1.77247,-3.9209 2.79297,-20.46387 H 267.1582 v 14.50196 z M 246.37207,72.387695 v 5.317383 h 53.0127 v -5.317383 z m 0,12.998047 v 5.854492 h 53.0127 v -5.854492 z m 113.97461,50.649418 q 4.29687,4.99511 9.66797,7.41211 8.80859,3.9746 23.0957,3.9746 h 45.76172 q -1.93359,3.65235 -3.59863,10.47364 h -42.7002 q -18.47656,0 -28.30566,-5.80078 -4.02832,-2.417 -8.86231,-7.89551 -0.37597,0.42969 -0.91308,1.07422 -7.89551,9.3457 -15.6836,15.2539 l -6.49902,-11.01074 q 8.54004,-5.10254 16.48926,-11.54785 v -26.5332 h -15.62988 v -10.58106 h 27.17773 z m 13.96484,-71.274418 2.84668,-0.214844 q 24.86817,-1.71875 44.6875,-7.358398 l 8.37891,9.453125 q -20.83984,5.478516 -44.47266,7.412109 v 13.911133 h 49.73633 V 98.4375 h -18.04687 v 43.77441 H 405.57129 V 98.4375 h -19.81934 q -0.26855,17.24121 -2.57812,27.44629 -2.09473,9.39941 -6.875,16.86523 l -9.88281,-7.46582 q 5.31738,-8.27148 6.82128,-20.51757 1.07422,-8.43262 1.07422,-22.934575 z M 354.43848,85.761719 Q 346.2207,74.160156 336.71387,64.975586 l 8.80859,-7.036133 q 9.23828,7.734375 18.58399,19.658203 z M 537.7002,85.117187 q 0,2.524415 -0.4834,23.955083 h 10.25879 v 9.66796 h -10.47364 q -0.16113,7.03614 -0.69824,15.95215 h 9.07715 v 9.45313 h -9.77539 q -0.64453,7.78808 -1.77246,10.3125 -2.52442,6.01562 -12.2461,6.01562 -6.23046,0 -11.49414,-0.91308 L 508.10547,150 q 7.57324,1.07422 11.60156,1.07422 3.27637,0 3.9209,-2.30957 0.32227,-1.12793 0.59082,-4.61914 h -38.24219 q -0.0537,0.42969 -0.16113,0.91308 -0.4834,2.84668 -0.91309,5.3711 l -11.11816,-1.07422 q 3.27637,-19.38965 4.4043,-29.32617 l 0.16113,-1.28907 h -10.74219 v -9.66796 h 11.87012 q 1.50391,-12.998051 2.57812,-23.955083 z m -33.94532,9.345704 h -11.76269 q -0.16114,2.739257 -0.9668,11.547849 l -0.32227,3.06153 h 11.92383 l 0.16114,-1.50391 q 0.10742,-1.55762 0.32226,-4.35059 0.53711,-7.519528 0.64453,-8.754879 z m 10.58106,0 q -0.26856,6.391599 -0.80567,14.125979 v 0.4834 h 12.62207 q 0.21485,-7.3584 0.37598,-14.609379 z m -12.56836,24.277339 h -12.08496 q -0.80567,6.55274 -1.71875,12.94434 l -0.42969,3.00781 h 12.56836 q 1.28906,-11.65527 1.66504,-15.95215 z m 11.01074,0 q -0.16113,2.14844 -0.64453,7.08985 l -0.85938,8.8623 h 13.69629 q 0.26856,-5.20996 0.42969,-7.84179 0.32227,-5.74707 0.42969,-8.11036 z M 491.72363,65.727539 h 51.88477 v 9.990234 h -56.34278 q -4.35058,8.862305 -11.06445,16.865235 l -7.68066,-8.378906 Q 479.10156,71.796875 483.55957,55.629883 L 495,56.811523 q -1.93359,5.585938 -3.27637,8.916016 z m -29.59472,15.629883 q -6.60645,-9.077149 -16.05957,-17.026367 l 8.11035,-7.841797 q 8.75488,6.445312 16.65039,16.274414 z M 458.26172,109.7168 Q 450.09766,99.243164 441.77246,92.15332 l 8.37891,-8.05664 q 9.3457,7.358398 16.81152,16.75781 z m -14.60938,42.16308 q 9.34571,-12.94433 17.72461,-34.10644 l 9.56055,6.82129 q -6.98242,19.55078 -17.93945,35.8789 z"></path>
</svg>
