<svg xmlns="http://www.w3.org/2000/svg" id="svg1" version="1.1" height="200" width="990">
  <defs id="defs1"></defs>
  <rect id="rect1" stroke="none" fill="none" height="200" width="990" y="0" x="0"></rect>
  <path aria-label="四国沖" style="font-size:100px;font-family:'BIZ UDPGothic';fill:#ff0000" id="text1" d="m 92.236328,74.121094 v 81.884766 h -7.910156 v -8.00781 H 15.527344 v 8.00781 H 7.7148437 V 74.121094 Z M 56.396484,81.201172 H 41.992187 v 9.277344 q 0,17.041014 -6.640625,25.488284 -4.248046,5.37109 -13.232421,10.00976 l -4.980469,-5.71289 q 7.128906,-3.32031 10.595703,-6.93359 6.689453,-7.03125 6.689453,-22.314455 V 81.201172 H 15.527344 V 140.91797 H 84.326172 V 119.77539 H 63.623047 q -7.226563,0 -7.226563,-7.17773 z m 7.519532,0 v 29.687498 q 0,1.80664 1.904296,1.80664 h 18.50586 V 81.201172 Z m 88.623044,10.791015 v 14.501953 h 22.50977 v 6.20117 h -22.50977 v 18.99414 h 27.19727 v 6.49414 h -59.7168 v -6.49414 h 25.09766 v -18.99414 h -20.70313 v -6.20117 h 20.70313 V 91.992187 h -24.02344 v -6.49414 h 57.22656 v 6.49414 z m 16.50391,37.988283 q -4.58985,-7.17774 -10.10742,-12.30469 l 5.5664,-3.4668 q 5.41992,4.93165 10.20508,11.76758 z M 192.5293,69.824219 v 89.697261 h -7.8125 v -5.41992 h -69.58008 v 5.41992 h -7.8125 V 69.824219 Z m -77.39258,6.591797 V 147.31445 H 184.7168 V 76.416016 Z m 143.55469,8.886718 V 64.501953 h 7.71484 v 20.800781 h 27.7832 v 40.478516 h -27.7832 v 33.69141 h -7.71484 v -33.69141 h -26.9043 V 85.302734 Z m -19.38477,6.982422 v 26.513674 h 19.38477 V 92.285156 Z m 47.26563,26.513674 V 92.285156 H 266.40625 V 118.79883 Z M 221.77734,86.621094 q -6.54297,-8.34961 -15.2832,-15.527344 l 5.32227,-5.273438 q 8.30078,6.201172 15.67382,14.990235 z m -3.66211,25.488286 q -7.66601,-8.8379 -15.91796,-15.527349 l 5.41992,-5.46875 q 8.39843,6.201172 16.16211,14.990239 z m -13.7207,40.57617 q 9.52149,-12.69532 17.48047,-32.86133 l 6.29883,5.07812 q -7.32422,19.14063 -17.08985,33.69141 z"></path>
</svg>
