<svg xmlns="http://www.w3.org/2000/svg" id="svg1" version="1.1" height="200" width="1096">
  <defs id="defs1"></defs>
  <rect id="rect1" stroke="none" fill="none" height="200" width="1096" y="0" x="0"></rect>
  <path aria-label="釧路地方中南部" style="font-weight:bold;font-size:110px;font-family:'BIZ UDPGothic';fill:#ff0000" id="text1" d="m 49.25293,147.31445 q 5.961914,-13.42773 5.961914,-41.7334 v -46.6748 h 10.473633 v 46.78223 q 0,20.46386 -2.363282,32.81738 -2.30957,11.87012 -8.217773,21.96777 l -9.13086,-7.51953 q 2.148438,-3.33008 2.900391,-4.88769 -17.080078,6.60644 -42.2705077,11.8164 L 2.5244141,149.67773 q 10.5273439,-1.9873 19.6044919,-3.97461 V 113.04688 H 3.4375 v -9.34571 H 22.128906 V 91.831055 H 11.977539 Q 9.453125,94.40918 6.7138672,96.879883 l -5.15625,-9.775391 Q 14.287109,75.073242 22.34375,55.952148 h 11.44043 l 0.913086,0.913086 q 10.366211,10.366211 17.563476,20.302735 l -7.250976,8.59375 v 6.069336 H 32.709961 v 11.870115 h 17.241211 v 9.34571 H 32.709961 v 30.13183 q 8.808594,-2.20215 15.898437,-4.51172 z M 43.076172,82.700195 Q 38.510742,75.932617 29.487305,65.566406 25.297852,74.375 19.49707,82.700195 Z M 9.3457031,142.10449 Q 7.6269531,130.18066 3.8671875,121.0498 l 9.7753905,-3.16894 q 4.082031,9.77539 5.424805,21.00098 z M 34.213867,135.60547 Q 37.8125,125.23926 39.53125,116.32324 l 9.453125,2.63184 q -2.685547,10.52734 -6.176758,18.85254 z M 74.282227,60.463867 H 84.379883 V 148.33496 H 74.282227 Z m 19.013671,-3.4375 H 103.87695 V 160.47363 H 93.295898 Z M 194.75586,93.764648 q 10.3125,8.056642 24.16992,13.535152 l -4.99512,9.34571 q -15.62988,-6.3916 -26.21093,-15.89844 -2.84668,2.4707 -4.94141,4.13574 -9.3457,7.19727 -22.29004,12.40723 l -5.37109,-8.91602 q 14.07226,-4.67285 25.45898,-14.770504 -5.10254,-6.069336 -8.48633,-11.547852 -4.02832,4.511719 -8.75488,8.164063 l -6.33789,-8.378907 q 12.89063,-8.862304 19.6582,-26.264648 l 10.90332,1.772461 q -1.12793,2.416992 -1.93359,4.189453 h 19.6582 l 6.33789,5.800781 q -6.60644,14.770508 -16.86523,26.425781 z m -7.46582,-6.821289 q 6.3916,-7.197265 10.95703,-15.415039 h -18.26172 q -1.66504,2.578125 -2.09473,3.168946 4.02833,6.713867 9.39942,12.246093 z M 156.51367,59.819336 v 37.275391 h -13.42773 v 16.381833 h 13.64258 v 9.66797 h -13.64258 v 18.95996 q 5.47851,-1.23535 15.30761,-4.13574 l 0.85938,9.50684 q -21.21582,7.08984 -43.88184,11.65527 l -3.38379,-10.47363 q 4.72657,-0.80567 5.3711,-0.9668 v -41.67969 h 9.66797 v 39.7461 q 2.79297,-0.53711 6.06933,-1.28907 V 97.094727 H 116.60645 V 59.819336 Z m -29.4873,9.882812 v 17.939454 h 19.38965 V 69.702148 Z m 83.30566,47.426762 v 43.34472 h -10.7959 v -5.96191 h -25.02929 v 5.96191 h -10.7959 v -43.34472 z m -35.82519,9.77539 v 17.83203 h 25.02929 V 126.9043 Z M 276.28906,99.458008 v 42.539062 q 0,4.13574 3.54492,4.99512 3.65235,0.91308 16.70411,0.91308 12.72949,0 16.81152,-1.28906 2.30957,-0.75195 3.00781,-4.18945 0.91309,-4.83399 0.9668,-11.44043 l 11.22558,3.16894 Q 327.69043,150 324.19922,154.4043 q -2.30957,2.90039 -6.98242,3.4375 -7.3584,0.80566 -24.97559,0.80566 -13.64258,0 -17.88574,-0.75195 -6.3916,-1.07422 -8.11035,-5.63965 -0.85938,-2.41699 -0.85938,-6.44531 v -42.59278 l -10.25879,3.54493 -2.52441,-10.419927 12.7832,-4.404296 V 62.988281 h 10.90332 v 25.19043 l 11.54785,-3.920899 V 55.952148 h 10.7959 v 24.545899 l 17.99317,-6.176758 5.63964,3.4375 v 40.229491 q 0,4.18945 -1.9873,6.23047 -2.25586,2.25586 -7.57324,2.25586 -4.35059,0 -9.23828,-0.75195 l -1.77246,-10.25879 q 3.16894,0.80566 6.44531,0.80566 2.36328,0 2.90039,-0.9668 0.53711,-0.80566 0.53711,-2.68554 V 87.211914 l -12.94434,4.511719 v 43.452147 h -10.7959 V 95.429687 Z M 236.81152,81.894531 V 55.952148 h 11.54785 v 25.942383 h 10.41993 v 10.903321 h -10.41993 v 34.160158 q 5.63965,-1.9336 11.17188,-4.02832 l 1.02051,10.36621 q -17.40235,7.94922 -35.71778,13.32031 l -3.75976,-11.44043 q 8.27148,-2.14844 14.50195,-4.08203 0.75195,-0.26855 1.23535,-0.37598 V 92.797852 H 223.16895 V 81.894531 Z m 145.3418,3.007813 q -0.37598,8.969726 -1.07422,15.791016 h 43.29102 q -0.80567,37.27539 -4.18946,48.39355 -1.71875,5.58594 -6.3916,7.73438 -3.65234,1.66504 -10.68847,1.66504 -7.41211,0 -16.81153,-1.12793 l -2.09472,-12.08496 q 12.62207,1.77246 17.77832,1.77246 4.35058,0 5.53222,-2.4707 2.84668,-6.01563 3.97461,-33.19336 h -31.95801 q -1.77246,9.66796 -4.99511,16.75781 -8.96973,19.60449 -29.97071,31.09863 l -8.48632,-9.45312 q 21.05468,-10.95704 27.82226,-28.73536 4.51172,-11.87011 5.85449,-36.147456 H 334.18945 V 73.891602 h 43.88184 V 55.952148 h 12.40723 v 17.939454 h 45.33203 V 84.902344 Z M 488.6084,75.664062 V 55.952148 h 12.08496 v 19.711914 h 39.85351 v 56.826168 h -11.87011 v -7.46582 h -27.9834 v 35.44922 H 488.6084 v -35.44922 h -27.28516 v 8.05664 H 449.45312 V 75.664062 Z M 461.32324,86.674805 V 114.01367 H 488.6084 V 86.674805 Z m 67.35352,27.338865 V 86.674805 h -27.9834 v 27.338865 z m 70.36133,6.49903 h -22.23633 v -8.8086 h 10.74219 q -2.417,-5.47851 -5.47852,-10.20508 l 9.66797,-3.544918 q 4.18945,7.036128 6.76758,13.749998 h 12.62207 q 3.16894,-6.49902 5.58593,-13.964842 l 10.7959,3.383792 q -2.73926,5.9082 -5.80078,10.58105 h 11.54785 v 8.8086 h -22.98828 v 7.84179 h 24.49219 v 9.13086 h -24.49219 v 20.30274 h -11.22558 v -20.30274 h -23.57911 v -9.13086 h 23.57911 z m 11.54785,-33.085942 h 40.71289 v 62.788082 q 0,5.53223 -2.9541,7.78809 -2.47071,1.93359 -8.3252,1.93359 -7.57324,0 -14.60937,-0.80566 l -2.63184,-10.7959 q 9.39941,1.12793 14.07227,1.12793 1.93359,0 2.25586,-0.9668 0.21484,-0.59082 0.21484,-1.66504 V 96.772461 H 570.67871 V 160.47363 H 558.70117 V 87.426758 h 40.01465 v -9.72168 h -45.97656 v -9.990234 h 45.97656 V 55.952148 h 11.87012 v 11.762696 h 46.62109 v 9.990234 h -46.62109 z m 87.81738,-19.067383 h 22.98828 v 10.366211 h -7.57324 q -2.04102,8.217773 -5.47852,17.241211 h 14.34082 v 10.366213 h -59.9414 V 95.966797 h 13.15918 Q 673.75,85.654297 671.38672,78.725586 H 664.4043 V 68.359375 h 22.77343 V 55.952148 h 11.22559 z m -16.16699,10.366211 q 2.73926,8.00293 4.24316,17.241211 h 10.95703 l 0.53711,-1.503906 q 2.30957,-6.123047 4.29688,-13.911133 l 0.4834,-1.826172 z m 33.30078,36.630864 v 43.98925 h -11.01074 v -5.26367 H 681.1084 v 6.3916 h -11.33301 v -45.11718 z m -34.42871,9.88281 v 18.63769 h 23.41797 v -18.63769 z m 71.75781,-27.124026 q 6.3916,6.069336 10.15137,14.448246 3.70605,8.3789 3.70605,16.97265 0,7.94922 -2.9541,11.70899 -3.06152,3.9209 -10.09766,3.9209 -6.01562,0 -11.65527,-0.85938 l -2.63183,-11.44043 q 6.49902,1.18164 10.74218,1.18164 3.22266,0 4.02832,-1.5039 0.53711,-1.07422 0.53711,-4.29688 0,-13.2666 -7.94922,-22.88086 -2.09472,-2.52441 -5.26367,-5.424804 l 0.64453,-1.503906 q 5.58594,-12.62207 8.70118,-26.318359 h -13.75 V 160.47363 H 725.95703 V 61.000977 h 32.33399 l 5.96191,5.478515 q -5.42481,18.476563 -11.38672,31.635742 z"></path>
</svg>
