<svg xmlns="http://www.w3.org/2000/svg" id="svg1" version="1.1" height="200" width="990">
  <defs id="defs1"></defs>
  <rect id="rect1" stroke="none" fill="none" height="200" width="990" y="0" x="0"></rect>
  <path aria-label="石川県加賀地方" style="font-size:100px;font-family:'BIZ UDPGothic';fill:#ff0000" id="text1" d="m 30.712891,107.17773 h 57.324218 v 52.34375 h -8.203125 v -7.32421 H 29.736328 v 7.32421 H 21.630859 V 118.75 q -7.03125,7.8125 -15.3320309,14.35547 L 1.5136719,126.70898 Q 27.294922,107.22656 36.71875,77.880859 H 5.3222656 V 70.800781 H 95.3125 v 7.080078 h -50 Q 40.380859,92.822266 30.712891,107.17773 Z m -0.976563,6.88477 v 31.05469 H 79.833984 V 114.0625 Z M 115.9668,68.798828 h 8.30078 V 104.6875 q 0,21.82617 -3.56445,33.39844 -3.02735,9.86328 -11.13282,19.09179 l -6.49414,-5.76171 q 8.54492,-8.98438 11.08399,-22.02149 1.80664,-9.13086 1.80664,-23.97461 z m 31.39648,1.806641 h 8.10547 v 79.101561 h -8.10547 z m 32.91016,-3.808594 h 8.30078 v 91.406245 h -8.30078 z m 102.58789,0.78125 V 114.4043 H 225.78125 V 67.578125 Z m -49.36524,6.005859 v 7.714844 h 41.55274 v -7.714844 z m 0,13.330078 v 7.763672 h 41.55274 v -7.763672 z m 0,13.476568 v 8.30078 h 41.55274 v -8.30078 z M 214.4043,122.2168 h 83.05664 v 6.49414 h -41.99219 v 30.81054 h -7.91016 V 128.71094 H 206.5918 V 74.267578 h 7.8125 z m -9.22852,29.6875 q 12.79297,-6.15235 23.0957,-19.28711 l 6.5918,3.66211 q -10.40039,13.62304 -24.07226,21.72851 z m 84.17969,4.10156 q -10.25391,-11.18164 -23.29102,-19.82422 l 6.00586,-4.49219 q 11.76758,7.37305 23.68164,18.79883 z m 52.34375,-64.501954 h -13.03711 q -1.46484,22.802734 -4.93164,35.595704 -5.0293,18.21289 -15.82031,29.49219 l -5.81055,-5.71289 q 10.05859,-10.64454 14.59961,-27.68555 3.17383,-11.81641 4.19922,-30.22461 l 0.0488,-1.464844 h -16.45508 v -7.080078 h 16.99218 l 0.63477,-19.873047 h 7.66602 l -0.58594,19.873047 h 20.01953 q -0.0977,51.611332 -3.02734,63.671872 -1.17188,4.63867 -4.24805,6.39649 -2.34375,1.31836 -6.83594,1.31836 -4.3457,0 -10.98633,-0.83008 l -1.51367,-7.76367 q 6.34766,0.97656 10.88867,0.97656 3.02735,0 4.10157,-1.31836 1.07421,-1.36719 1.85546,-7.56836 1.80665,-15.03906 2.19727,-43.603515 z m 51.61133,-12.207031 v 76.367185 h -7.61719 v -7.27539 h -19.77539 v 7.71485 h -7.51953 V 79.296875 Z m -27.39258,7.080078 v 54.931637 h 19.77539 V 86.376953 Z m 77.09961,-9.472656 h -13.23242 q -2.14844,8.105469 -8.88672,13.476562 -5.0293,4.003907 -13.81836,7.03125 l -4.19922,-5.71289 q 7.51953,-2.09961 11.76758,-5.175782 5.07812,-3.662109 7.17773,-9.61914 h -16.74805 v -6.00586 h 17.8711 l 0.63476,-6.396484 h 7.91016 l -0.63477,6.396484 h 19.82422 q -0.73242,14.208985 -2.39257,18.457032 -1.31836,3.466797 -4.44336,4.492187 -1.95313,0.634766 -5.41993,0.634766 -3.61328,0 -9.57031,-0.585938 l -1.07422,-6.103515 q 5.41992,0.927734 8.1543,0.927734 3.17383,0 4.29687,-0.927734 1.61133,-1.31836 2.78321,-10.888672 z m 48.77929,-6.982422 V 93.994141 H 456.34766 V 69.921875 Z m -28.02734,6.103516 v 11.96289 h 20.50781 v -11.96289 z m 21.28906,22.753906 V 142.1875 H 414.89258 V 98.779297 Z m -62.35351,5.615233 v 6.98242 h 54.54101 v -6.98242 z m 0,12.40235 v 6.88476 h 54.54101 v -6.88476 z m 0,12.40234 v 7.27539 h 54.54101 v -7.27539 z m -18.31055,23.87695 q 16.16211,-3.4668 29.39453,-10.49805 l 5.3711,4.93165 q -12.59766,7.56835 -29.78516,12.10937 z m 85.40039,6.34766 q -14.69726,-6.5918 -30.81055,-11.52344 l 4.29688,-5.22461 q 16.69922,4.15039 31.5918,10.40039 z m 59.42383,-56.20117 v 40.86914 q 0,4.05273 2.39258,4.98047 2.58789,0.97656 16.45508,0.97656 13.42773,0 17.38281,-0.92774 2.7832,-0.68359 3.56445,-3.22265 1.2207,-4.00391 1.26953,-12.40235 l 7.51953,2.78321 q -0.68359,13.23242 -3.51562,16.79687 -2.24609,2.92969 -7.27539,3.4668 -7.66602,0.78125 -20.75195,0.78125 -12.45118,0 -16.74805,-0.83008 -5.3711,-1.07422 -6.83594,-4.88281 -0.78125,-2.09961 -0.78125,-5.51758 v -40.38086 l -10.49805,3.56445 -1.90429,-6.98242 12.40234,-4.150389 v -26.5625 h 7.32422 v 24.072266 l 12.8418,-4.345703 V 64.501953 h 7.32422 v 24.365234 l 18.01757,-6.054687 4.39453,2.392578 v 35.986332 q 0,3.51562 -1.66015,5.32226 -1.95313,2.09961 -6.83594,2.09961 -3.95508,0 -7.71484,-0.53711 l -1.26953,-6.98242 q 3.71093,0.68359 6.93359,0.68359 2.44141,0 2.97852,-1.07421 0.39062,-0.73243 0.39062,-2.29493 V 91.113281 l -15.23437,5.175781 v 39.794918 h -7.32422 V 98.779297 Z M 516.50391,88.916016 V 65.136719 h 7.71484 v 23.779297 h 10.79102 v 7.177734 h -10.79102 v 34.96094 q 5.12695,-1.75782 11.71875,-4.44336 l 0.78125,6.88476 q -14.94141,6.88477 -32.03125,12.10938 l -2.7832,-7.61719 q 6.78711,-1.85547 14.59961,-4.3457 V 96.09375 h -13.28125 v -7.177734 z m 128.95507,0.04883 q 0,7.324218 -0.92773,17.041016 h 39.4043 q -0.6836,32.91016 -3.75977,43.60351 -1.26953,4.49219 -4.83398,6.34766 -3.02735,1.5625 -9.08203,1.5625 -8.39844,0 -15.33204,-0.92773 l -1.31836,-8.00782 q 10.15625,1.31836 16.3086,1.31836 4.05273,0 5.32226,-1.70898 1.07422,-1.46484 2.14844,-8.49609 1.5625,-9.96094 2.14844,-26.70899 h -31.93359 q -1.80665,11.37695 -5.76172,19.28711 -7.91016,15.91797 -26.02539,25.73242 l -5.61524,-6.29883 q 19.38477,-10.15625 25.58594,-26.36718 5.17578,-13.57422 5.56641,-36.376956 h -33.54493 v -7.177735 h 41.69922 V 64.501953 h 8.00781 v 17.285156 h 42.67579 v 7.177735 z"></path>
</svg>
