<svg xmlns="http://www.w3.org/2000/svg" id="svg1" version="1.1" height="200" width="990">
  <defs id="defs1"></defs>
  <rect id="rect1" stroke="none" fill="none" height="200" width="990" y="0" x="0"></rect>
  <path aria-label="大分県西部" style="font-size:100px;font-family:'BIZ UDPGothic';fill:#ff0000" id="text1" d="m 55.029297,97.998047 q 4.492187,16.357423 16.65039,31.201173 11.132813,13.52539 25.732422,21.58203 l -5.078125,7.42187 Q 75.390625,148.04687 64.160156,132.8125 56.103516,121.92383 50.927734,107.61719 42.626953,143.79883 9.1796875,158.69141 l -5.1757813,-6.5918 Q 23.730469,143.99414 34.912109,126.80664 43.701172,113.23242 45.3125,97.998047 H 4.8828125 V 90.380859 H 45.605469 V 65.478516 h 8.105468 v 24.902343 h 41.40625 v 7.617188 z M 148.33984,110.5957 q -1.66015,19.53125 -9.17968,29.98047 -8.4961,11.76758 -25.97657,18.60352 l -5.17578,-6.5918 q 16.45508,-5.27344 24.46289,-16.50391 6.10352,-8.44726 7.76367,-25.48828 h -19.72656 v -7.08007 h 59.57031 q -0.68359,32.76367 -3.56445,45.70312 -1.17187,5.32227 -4.88281,7.37305 -2.92969,1.61132 -9.32617,1.61132 -7.95899,0 -14.20899,-0.48828 l -1.80664,-7.8125 q 8.4961,0.97657 14.64844,0.97657 5.37109,0 6.83594,-2.58789 3.07617,-5.41993 3.90625,-36.03516 l 0.0488,-1.66016 z m -46.04492,-3.27148 q 22.26563,-15.087892 31.5918,-41.845704 l 7.42187,2.832031 q -5.46875,14.941406 -13.33007,25.390625 -7.95899,10.546878 -20.26368,19.580078 z m 90.91797,3.56445 Q 180.9082,102.24609 172.50977,92.96875 162.98828,82.470703 155.71289,68.017578 l 6.88477,-3.222656 q 12.79296,25.488281 35.49804,39.306638 z M 282.86133,67.578125 V 114.4043 H 225.78125 V 67.578125 Z m -49.36524,6.005859 v 7.714844 h 41.55274 v -7.714844 z m 0,13.330078 v 7.763672 h 41.55274 v -7.763672 z m 0,13.476568 v 8.30078 h 41.55274 v -8.30078 z M 214.4043,122.2168 h 83.05664 v 6.49414 h -41.99219 v 30.81054 h -7.91016 V 128.71094 H 206.5918 V 74.267578 h 7.8125 z m -9.22852,29.6875 q 12.79297,-6.15235 23.0957,-19.28711 l 6.5918,3.66211 q -10.40039,13.62304 -24.07226,21.72851 z m 84.17969,4.10156 q -10.25391,-11.18164 -23.29102,-19.82422 l 6.00586,-4.49219 q 11.76758,7.37305 23.68164,18.79883 z M 333.59375,93.701172 V 77.197266 H 302.7832 V 70.3125 h 94.38477 v 6.884766 h -33.88672 v 16.503906 h 27.7832 V 157.8125 h -7.8125 V 150 h -66.65039 v 7.8125 h -7.71484 V 93.701172 Z m 7.51953,0 h 14.64844 V 77.197266 h -14.64844 z m -7.56836,6.591798 h -16.94336 v 42.91992 h 66.65039 v -17.23633 h -20.16601 q -7.32422,0 -7.32422,-6.59179 v -19.0918 h -14.69727 q -0.43945,10.5957 -3.125,16.89453 -3.80859,8.93555 -14.9414,15.52734 l -4.98047,-5.61523 q 10.40039,-5.41992 13.52539,-14.50195 1.51367,-4.44336 2.00195,-12.30469 z m 29.73633,0 v 16.50391 q 0,1.51367 0.58594,1.95312 0.53711,0.43945 1.80664,0.43945 h 17.57812 v -18.89648 z m 70.70312,-23.681642 h 21.82618 v 6.787109 h -7.03125 q -2.05078,9.13086 -5.61524,18.701173 h 14.45313 v 6.88477 h -55.12696 v -6.88477 h 13.72071 l -0.0977,-0.48828 Q 414.0625,91.601562 411.71875,84.423828 l -0.3418,-1.025391 h -7.08008 v -6.787109 h 22.2168 V 64.501953 h 7.4707 z m -15.13671,6.787109 q 2.58789,7.958985 4.73632,18.701173 h 12.15821 q 2.92968,-8.105469 5.32226,-18.701173 z m 31.83593,35.888673 v 39.30664 h -7.32422 v -5.51758 h -25.97656 v 6.39649 h -7.56836 v -40.18555 z m -33.30078,6.68945 v 20.3125 h 25.97656 v -20.3125 z m 65.42969,-22.70508 q 12.8418,13.57422 12.8418,29.44336 0,5.56641 -2.00196,8.39844 -2.4414,3.27149 -8.49609,3.27149 -5.81055,0 -10.69336,-0.6836 l -1.61133,-7.61719 q 6.25,1.02539 10.15625,1.02539 3.71094,0 4.39453,-2.49023 0.29297,-1.07422 0.29297,-3.51562 0,-13.72071 -12.64648,-26.70899 5.85937,-12.695311 9.52148,-26.708983 h -15.42969 v 81.787113 h -7.37304 V 70.507812 h 27.49023 l 4.39453,3.808594 q -5.37109,17.382813 -10.83984,28.955074 z"></path>
</svg>
