<svg xmlns="http://www.w3.org/2000/svg" id="svg1" version="1.1" height="200" width="990">
  <defs id="defs1"></defs>
  <rect id="rect1" stroke="none" fill="none" height="200" width="990" y="0" x="0"></rect>
  <path aria-label="インド付近" style="font-size:100px;font-family:'BIZ UDPGothic';fill:#ff0000" id="text1" d="M 41.601562,153.90625 V 102.29492 Q 25.878906,112.93945 6.1035156,120.3125 L 1.7089844,113.28125 Q 23.046875,106.05469 39.111328,94.628906 55.517578,82.910156 67.285156,68.994141 l 6.835938,4.296875 Q 63.232422,85.498047 49.609375,96.386719 V 153.90625 Z M 118.11523,93.164062 Q 104.15039,86.816406 88.427734,83.007812 l 2.587891,-7.617187 q 18.798825,4.492187 29.931645,10.107422 z M 89.208984,143.50586 q 19.726566,-1.75781 31.054686,-6.00586 29.3457,-10.98633 36.96289,-50.585938 l 6.78711,4.882813 q -4.54101,21.484375 -14.16015,34.082035 -10.54688,13.86718 -28.8086,20.06836 -11.27929,3.80859 -29.833983,5.85937 z M 186.03516,68.896484 h 8.20312 v 28.222657 q 30.41992,9.472659 47.90039,18.359379 l -4.10156,7.32421 q -19.58008,-9.86328 -43.79883,-17.82226 v 49.51172 h -8.20312 z m 41.21093,24.707032 q -3.22265,-8.203125 -8.6914,-16.308594 l 5.85937,-2.392578 q 5.66406,7.861328 8.93555,16.308593 z m 12.59766,-3.90625 q -3.56445,-9.082032 -8.69141,-16.40625 l 5.76172,-2.09961 q 5.12696,6.738281 8.83789,15.820313 z m 39.64844,0.488281 v 69.335933 h -7.71485 v -55.37109 q -0.19531,0.29297 -0.48828,0.73242 -4.39453,7.17774 -10.88867,14.69727 l -4.10156,-7.37305 q 9.76562,-11.32812 16.35742,-25.195311 4.73633,-9.91211 8.83789,-22.900391 l 7.61719,2.099609 q -4.49219,13.427735 -9.61914,23.97461 z m 55.22461,-2.001953 h 16.60156 v 7.177734 H 334.7168 v 54.541012 q 0,5.17578 -2.49024,7.17774 -2.09961,1.61133 -7.76367,1.61133 -7.91016,0 -14.74609,-0.6836 L 308.10547,150 q 8.44726,1.2207 15.625,1.2207 2.14844,0 2.68555,-0.78125 0.39062,-0.63476 0.39062,-2.4414 V 95.361328 h -42.72461 v -7.177734 h 42.72461 V 65.283203 h 7.91016 z m -28.41797,45.410156 q -5.71289,-14.30664 -13.81836,-26.07422 l 6.49414,-4.19922 q 8.39844,12.35352 14.20898,25.87891 z m 74.21875,4.73633 q 4.29687,4.44336 9.81445,7.22656 8.59375,4.3457 23.58399,4.3457 h 38.3789 q -1.41601,2.88086 -2.49023,6.88477 H 413.7207 q -16.35742,0 -25.63476,-4.58984 -5.56641,-2.78321 -10.74219,-8.20313 -8.34961,9.57031 -16.25977,15.47852 l -4.58984,-7.08008 q 7.95898,-4.98047 16.40625,-12.5 v -25.6836 h -16.21094 v -6.7871 h 23.82813 z M 394.9707,74.21875 q 1.70899,-0.146484 3.71094,-0.292969 21.92383,-1.80664 39.99023,-7.617187 l 5.61524,6.103515 q -17.91992,5.371094 -41.60156,7.763672 v 14.941406 h 47.41211 v 6.884763 h -17.91993 v 43.40821 h -7.8125 v -43.40821 h -21.67968 q 0,13.52539 -1.17188,22.07032 -1.5625,11.4746 -6.83594,20.21484 l -6.49414,-5.17578 q 4.78516,-8.30078 6.00586,-19.33594 Q 394.9707,112.5 394.9707,99.121094 Z M 376.61133,88.916016 Q 369.0918,78.955078 361.08398,71.777344 l 5.51758,-4.6875 q 8.20313,6.689453 15.9668,16.308593 z"></path>
</svg>
