<svg xmlns="http://www.w3.org/2000/svg" id="svg1" version="1.1" height="200" width="1096">
  <defs id="defs1"></defs>
  <rect id="rect1" stroke="none" fill="none" height="200" width="1096" y="0" x="0"></rect>
  <path aria-label="薩南諸島東方沖" style="font-weight:bold;font-size:110px;font-family:'BIZ UDPGothic';fill:#ff0000" id="text1" d="m 51.992187,113.26172 v 11.54785 q 0,3.38379 -0.107421,5.37109 5.908203,-6.82128 8.002929,-14.71679 l 9.506836,2.09472 q -0.698242,2.36329 -1.503906,4.4043 h 6.337891 v -5.96191 h 10.205078 v 5.96191 h 19.013676 v 7.57324 H 84.433594 v 6.06934 h 16.489256 v 7.3584 H 84.433594 v 7.14355 h 22.773436 v 8.16406 H 50.756836 v -8.16406 h 23.47168 v -7.14355 H 58.813477 v -7.30469 l -6.982422,-5.10254 q -0.322266,8.86231 -2.470703,15.68359 -2.524415,7.94922 -8.486329,14.66309 l -8.432617,-7.03613 q 6.821289,-7.41211 8.701172,-17.13379 1.074219,-5.3711 1.074219,-12.35352 v -18.79883 h 9.77539 l -4.189453,-4.61914 q 9.077149,-1.39648 16.704102,-3.276363 -4.458008,-1.181641 -13.75,-3.4375 l 4.404297,-3.4375 H 43.076172 V 82.915039 H 69.716797 V 77.060547 H 64.291992 V 71.474609 H 42.861328 v 6.015625 H 31.313477 V 71.474609 H 2.6318359 V 62.773437 H 31.313477 v -6.821289 h 11.547851 v 6.821289 h 21.430664 v -6.821289 h 11.816406 v 6.821289 h 31.206052 v 8.701172 H 76.108398 v 4.941407 h 4.941407 v 6.499023 h 24.384765 v 7.895508 H 91.254883 l 5.048828,2.524414 q -3.867188,1.772461 -8.271484,3.491211 l -1.772461,0.698242 3.706054,0.966797 1.665039,0.483398 3.4375,0.966797 5.532231,1.557614 -4.94141,4.08203 h 10.7959 v 7.68067 z M 76.108398,100.9082 q -7.680664,2.417 -18.637695,4.67285 H 91.68457 l -5.639648,-1.71875 q -4.726563,-1.45019 -9.023438,-2.68554 z m -0.644531,-6.337888 q 0.375977,-0.161132 0.751953,-0.268554 3.706055,-1.12793 9.990235,-3.491211 H 60.263672 q 9.453125,2.148437 15.200195,3.759765 z M 64.130859,129.53613 q -2.041015,3.33008 -4.243164,6.06934 h 14.340821 v -6.06934 z M 31.689453,108.2666 q 7.734375,10.3125 7.734375,21.80664 0,6.92871 -2.524414,9.8291 -2.524414,2.84668 -8.808594,2.84668 -4.833984,0 -8.378906,-0.75195 l -1.557617,-9.3457 q 1.020508,0.16113 2.792969,0.42968 2.685546,0.42969 4.887695,0.42969 2.041016,0 2.685547,-0.80566 0.644531,-0.80567 0.644531,-2.84668 0,-10.7959 -8.056641,-20.83985 6.015625,-12.138667 7.41211,-20.034175 H 17.832031 V 160.47363 H 7.3583984 V 80.498047 H 36.201172 l 3.759765,4.189453 q -3.813476,13.535156 -8.271484,23.5791 z m 127.348637,12.2461 h -22.23633 v -8.8086 h 10.74219 q -2.417,-5.47851 -5.47852,-10.20508 l 9.66797,-3.544918 q 4.18945,7.036128 6.76758,13.749998 h 12.62207 q 3.16894,-6.49902 5.58593,-13.964842 l 10.7959,3.383792 q -2.73926,5.9082 -5.80078,10.58105 h 11.54785 v 8.8086 h -22.98828 v 7.84179 h 24.49219 v 9.13086 h -24.49219 v 20.30274 h -11.22558 v -20.30274 h -23.57911 v -9.13086 h 23.57911 z m 11.54785,-33.085942 h 40.71289 v 62.788082 q 0,5.53223 -2.9541,7.78809 -2.47071,1.93359 -8.3252,1.93359 -7.57324,0 -14.60937,-0.80566 l -2.63184,-10.7959 q 9.39941,1.12793 14.07227,1.12793 1.93359,0 2.25586,-0.9668 0.21484,-0.59082 0.21484,-1.66504 V 96.772461 H 130.67871 V 160.47363 H 118.70117 V 87.426758 h 40.01465 v -9.72168 h -45.97656 v -9.990234 h 45.97656 V 55.952148 h 11.87012 v 11.762696 h 46.62109 v 9.990234 h -46.62109 z m 91.3623,36.040042 -3.22265,-4.56543 q 6.12304,-3.16895 12.13867,-7.41211 10.47363,-7.30469 17.34863,-14.394533 h -26.0498 V 87.53418 h 21.26953 V 76.953125 h -14.93164 v -9.345703 h 14.93164 V 55.952148 h 10.90332 v 11.655274 h 10.47363 v 7.680664 q 4.78027,-7.841797 9.13086,-17.133789 l 9.56055,4.833984 Q 316.08887,77.167969 308.8916,87.53418 h 18.36914 v 9.560547 h -24.97558 q -3.97461,4.726563 -10.36621,10.581053 h 26.85546 v 52.79785 h -11.01074 v -5.53222 h -23.74023 v 5.53222 h -10.7959 v -38.40332 q -4.51172,3.00782 -8.54004,5.3711 l -2.41699,-3.49121 v 30.99121 h -25.67383 v 5.53222 H 226.01562 V 123.4668 Z m 41.78711,-46.513675 h -9.39941 V 87.53418 h 2.30957 q 2.30957,-3.168946 7.08984,-10.581055 z m -67.13867,55.751955 v 13.10547 h 15.09277 v -13.10547 z m 47.42676,-16.32813 v 10.20508 h 23.74023 v -10.20508 z m 0,18.90625 v 10.74219 h 23.74023 V 135.2832 Z M 227.78809,59.926758 h 32.4414 v 9.023437 h -32.4414 z m -5.04883,15.737304 h 40.82031 v 9.667969 h -40.82031 z m 5.04883,16.489258 h 32.4414 v 8.91602 h -32.4414 z m 0,15.73731 h 32.4414 v 8.70117 h -32.4414 z M 372.59277,64.116211 q 1.98731,-4.780274 3.22266,-9.130859 l 13.10547,1.77246 q -1.87988,4.458008 -3.4375,7.358399 h 35.77148 v 35.019531 h -64.88281 v 5.424808 h 80.83496 v 8.70117 h -80.83496 v 5.47851 h 77.0752 q -0.69825,24.59961 -3.11524,33.19336 -1.55762,5.47852 -5.85449,7.25098 -3.06152,1.28906 -9.3457,1.28906 -6.44532,0 -12.03125,-0.80566 l -2.14844,-9.02344 h -53.81836 v 5.96192 h -11.54785 v -25.83497 h 11.54785 v 11.06446 h 18.47656 v -14.50196 h -21.1084 V 64.116211 Z m 22.82715,77.719729 v -11.06446 h 11.11817 v 18.69141 q 4.458,0.42969 7.41211,0.42969 3.65234,0 4.56542,-2.09473 1.77247,-3.9209 2.79297,-20.46387 H 377.1582 v 14.50196 z M 356.37207,72.387695 v 5.317383 h 53.0127 v -5.317383 z m 0,12.998047 v 5.854492 h 53.0127 v -5.854492 z m 156.24512,40.175778 q 13.32031,11.87012 35.8789,19.17481 l -6.92871,10.09765 q -12.99804,-4.61914 -22.66601,-11.17187 -9.99024,-6.82129 -18.42285,-16.75781 v 33.56933 h -11.65528 v -32.97851 q -7.46582,10.47363 -19.28222,18.79883 -9.07715,6.3916 -19.44336,10.3125 l -7.3584,-9.45313 q 17.02636,-5.63965 28.41308,-15.2002 3.22266,-2.68554 6.55274,-6.3916 H 451.87012 V 81.572266 h 36.95312 V 74.321289 H 444.29687 V 64.65332 h 44.52637 v -8.701172 h 11.65528 v 8.701172 h 45.2246 v 9.667969 h -45.2246 v 7.250977 h 37.65136 V 125.56152 Z M 488.82324,90.595703 h -25.29785 v 8.701172 h 25.29785 z m 11.65528,0 v 8.701172 h 25.99609 v -8.701172 z m -11.65528,17.080077 h -25.29785 v 8.86231 h 25.29785 z m 11.65528,0 v 8.86231 h 25.99609 v -8.86231 z m 101.6748,-22.773436 q -0.37598,8.969726 -1.07422,15.791016 h 43.29102 q -0.80567,37.27539 -4.18946,48.39355 -1.71875,5.58594 -6.3916,7.73438 -3.65234,1.66504 -10.68847,1.66504 -7.41211,0 -16.81153,-1.12793 l -2.09472,-12.08496 q 12.62207,1.77246 17.77832,1.77246 4.35058,0 5.53222,-2.4707 2.84668,-6.01563 3.97461,-33.19336 h -31.95801 q -1.77246,9.66796 -4.99511,16.75781 -8.96973,19.60449 -29.97071,31.09863 l -8.48632,-9.45312 q 21.05468,-10.95704 27.82226,-28.73536 4.51172,-11.87011 5.85449,-36.147456 H 554.18945 V 73.891602 h 43.88184 V 55.952148 h 12.40723 v 17.939454 h 45.33203 v 11.010742 z m 121.54785,-8.916016 v -20.03418 h 11.54785 v 20.03418 h 29.11133 v 48.608402 h -29.11133 v 35.8789 h -11.54785 v -35.8789 H 695.18066 V 75.986328 Z m -17.40234,10.688477 v 27.338865 h 17.40234 V 86.674805 Z m 46.62109,27.338865 V 86.674805 h -17.6709 v 27.338865 z m -68.75,-31.796873 q -6.55273,-9.13086 -17.34863,-17.456055 l 8.00293,-8.164062 q 10.74219,7.573242 18.1543,16.972656 z m -3.49121,27.607423 q -9.3457,-10.849611 -18.1543,-17.778322 l 8.27149,-8.271484 q 9.39941,6.606445 18.58398,17.080076 z m -16.7041,41.62598 q 10.3125,-14.66309 19.01367,-36.52344 l 9.56055,7.3584 q -7.3584,20.1416 -17.93946,37.91992 z"></path>
</svg>
