<svg xmlns="http://www.w3.org/2000/svg" id="svg1" version="1.1" height="200" width="1096">
  <defs id="defs1"></defs>
  <rect id="rect1" stroke="none" fill="none" height="200" width="1096" y="0" x="0"></rect>
  <path aria-label="奄美大島北西沖" style="font-weight:bold;font-size:110px;font-family:'BIZ UDPGothic';fill:#ff0000" id="text1" d="m 93.081055,137.53906 11.762695,3.22266 q -0.10742,13.42773 -5.854492,16.54297 -4.672852,2.52441 -25.78125,2.52441 -16.757813,0 -21.054688,-2.14844 Q 48.286133,155.74707 48.286133,150 V 138.55957 H 26.962891 v 8.27148 H 15.415039 V 102.8418 q -4.243164,2.09472 -7.1435546,3.38379 L 1.3427734,96.772461 Q 24.331055,87.749023 34.536133,77.167969 H 5.9619141 V 67.392578 H 42.109375 q 2.900391,-4.833984 5.424805,-11.762695 l 12.299804,1.665039 q -2.470703,5.908203 -4.726562,10.097656 h 49.091798 v 9.775391 H 75.410156 q 10.903321,8.969726 33.193364,15.952148 l -5.8545,10.258793 q -4.511715,-1.71875 -9.667965,-3.920902 z M 59.726562,94.570312 H 83.251953 Q 70.253906,87.53418 60.639648,77.167969 H 48.662109 q -7.788086,9.77539 -19.013672,17.402343 H 48.286133 V 83.344727 h 11.440429 z m 0,8.701168 v 8.86231 h 21.914063 v -8.86231 z m -11.440429,0 H 26.962891 v 8.86231 h 21.323242 z m 44.418945,35.28809 H 59.726562 v 5.85449 q 0,3.9209 2.739258,4.67285 2.900391,0.75196 10.957032,0.75196 11.655273,0 15.576171,-0.80567 2.524414,-0.53711 3.007813,-3.65234 0.59082,-3.33008 0.698242,-6.82129 z M 48.286133,120.40527 H 26.962891 v 9.45313 h 21.323242 z m 11.440429,0 v 9.45313 h 21.914063 v -9.45313 z m 98.881838,-9.99023 h -45.76172 v -9.02344 h 45.76172 v -8.486327 h -35.28809 v -8.59375 h 35.28809 v -8.110351 h -41.03516 v -8.808594 h 22.5586 q -2.84668,-4.619141 -5.96192,-8.271484 l 12.46094,-3.491211 q 4.29687,5.532226 7.08984,11.762695 h 22.0752 q 4.24316,-6.015625 6.55273,-11.655273 l 13.32032,2.631836 q -2.95411,4.780273 -6.17676,9.023437 h 22.88086 v 8.808594 h -41.67969 v 8.110351 h 35.98633 v 8.59375 h -35.98633 v 8.486327 h 46.45996 v 9.02344 h -46.45996 v 9.02344 h 44.58008 v 9.23828 h -40.60547 q 5.69336,7.03613 14.77051,11.8164 11.97754,6.28418 27.23144,8.64746 l -7.25097,11.01075 q -31.31348,-7.62696 -43.50586,-26.64063 -4.83399,10.36621 -16.27442,17.1875 -10.36621,6.23047 -28.89648,9.88281 l -7.25098,-10.47363 q 34.64356,-3.81347 42.80762,-21.43066 h -41.46485 v -9.23828 H 158.6084 Z M 282.46582,94.570312 q 3.70605,12.568358 14.07227,26.748048 12.62207,17.29492 31.04492,27.39258 l -7.68067,11.06445 q -19.49707,-11.49414 -32.54882,-30.4541 -7.03614,-10.3125 -11.2793,-21.00098 -4.24317,14.39453 -13.15918,26.15723 -13.10547,17.40234 -32.3877,25.67383 l -7.57324,-9.8291 q 20.19531,-8.43262 32.60254,-25.9961 10.41992,-14.82422 12.35352,-29.755858 H 225.04883 V 82.915039 h 43.34472 V 57.026367 h 12.40723 v 25.888672 h 44.25781 v 11.655273 z m 90.12695,-30.454101 q 1.98731,-4.780274 3.22266,-9.130859 l 13.10547,1.77246 q -1.87988,4.458008 -3.4375,7.358399 h 35.77148 v 35.019531 h -64.88281 v 5.424808 h 80.83496 v 8.70117 h -80.83496 v 5.47851 h 77.0752 q -0.69825,24.59961 -3.11524,33.19336 -1.55762,5.47852 -5.85449,7.25098 -3.06152,1.28906 -9.3457,1.28906 -6.44532,0 -12.03125,-0.80566 l -2.14844,-9.02344 h -53.81836 v 5.96192 h -11.54785 v -25.83497 h 11.54785 v 11.06446 h 18.47656 v -14.50196 h -21.1084 V 64.116211 Z m 22.82715,77.719729 v -11.06446 h 11.11817 v 18.69141 q 4.458,0.42969 7.41211,0.42969 3.65234,0 4.56542,-2.09473 1.77247,-3.9209 2.79297,-20.46387 H 377.1582 v 14.50196 z M 356.37207,72.387695 v 5.317383 h 53.0127 v -5.317383 z m 0,12.998047 v 5.854492 h 53.0127 V 85.385742 Z M 472.11914,131.8457 q -14.82422,7.78809 -25.83496,11.92383 l -4.51172,-11.81641 q 17.24121,-5.80078 30.34668,-12.03124 V 95.859375 H 445.53223 V 84.526367 h 26.58691 V 55.952148 h 11.97754 V 160.47363 h -11.97754 z m 38.18848,-41.840817 q 12.51465,-6.552735 24.27734,-16.650391 l 8.91602,9.345703 q -15.89844,11.279297 -33.19336,19.228515 v 40.2832 q 0,2.63184 1.71875,3.22266 1.82617,0.59082 8.43261,0.59082 8.70118,0 10.90332,-1.02051 1.55762,-0.69824 2.14844,-4.35058 0.80567,-5.10254 1.18164,-16.48926 l 12.03125,3.70605 q -0.53711,13.91114 -1.71875,19.98047 -1.34277,6.76758 -7.03613,8.75489 -5.4248,1.82617 -17.77832,1.82617 -14.50195,0 -18.26172,-2.417 -3.59863,-2.36328 -3.59863,-9.07714 V 55.952148 h 11.97754 z m 75.08789,-3.383789 V 71.582031 H 553.38379 V 61.21582 h 103.28613 v 10.366211 h -35.50293 v 15.039063 h 30.13184 v 72.402346 h -11.65528 v -7.57324 h -69.34082 v 7.57324 H 558.75488 V 86.621094 Z m 11.11816,0 h 13.53516 V 71.582031 h -13.53516 z m -11.17187,9.77539 h -15.03907 v 44.848636 h 69.34082 v -16.11328 h -20.35644 q -9.23828,0 -9.23828,-9.23829 V 96.396484 h -13.64258 q -0.21484,13.212896 -3.97461,21.162106 -3.54492,7.57325 -13.96484,14.98536 l -7.41211,-8.27149 q 9.99023,-6.12305 12.62207,-15.14648 1.39648,-4.83399 1.66504,-12.729496 z m 35.82519,0 v 16.435546 q 0,2.09473 1.87988,2.09473 h 16.59668 V 96.396484 Z M 723.70117,75.986328 v -20.03418 h 11.54785 v 20.03418 h 29.11133 v 48.608402 h -29.11133 v 35.8789 h -11.54785 v -35.8789 H 695.18066 V 75.986328 Z m -17.40234,10.688477 v 27.338865 h 17.40234 V 86.674805 Z m 46.62109,27.338865 V 86.674805 h -17.6709 v 27.338865 z m -68.75,-31.796873 q -6.55273,-9.13086 -17.34863,-17.456055 l 8.00293,-8.164062 q 10.74219,7.573242 18.1543,16.972656 z m -3.49121,27.607423 q -9.3457,-10.849611 -18.1543,-17.778322 l 8.27149,-8.271484 q 9.39941,6.606445 18.58398,17.080076 z m -16.7041,41.62598 q 10.3125,-14.66309 19.01367,-36.52344 l 9.56055,7.3584 q -7.3584,20.1416 -17.93946,37.91992 z"></path>
</svg>
