<svg xmlns="http://www.w3.org/2000/svg" id="svg1" version="1.1" height="200" width="990">
  <defs id="defs1"></defs>
  <rect id="rect1" stroke="none" fill="none" height="200" width="990" y="0" x="0"></rect>
  <path aria-label="9" style="font-size:100px;font-family:'BIZ UDPGothic';fill:#ff0000" id="text1" d="m 56.396484,112.10938 q -2.246093,4.49218 -5.908203,7.51953 -6.835937,5.66406 -15.771484,5.66406 -10.253906,0 -17.773438,-6.68945 -8.2519527,-7.22657 -8.2519527,-19.726567 0,-12.402344 8.5449217,-21.044922 7.861328,-7.910156 19.580078,-7.910156 13.81836,0 21.63086,10.400391 7.421875,9.814453 7.421875,26.416014 0,23.7793 -12.109375,35.69336 -10.400391,10.25391 -32.373047,12.89063 l -4.101563,-7.71485 q 19.677735,-1.2207 29.101563,-10.15625 9.033203,-8.54492 10.40039,-25.34179 z M 36.71875,77.734375 q -7.324219,0 -12.255859,4.882812 -6.25,6.152344 -6.25,15.625 0,8.691403 4.6875,13.720703 5.224609,5.61524 13.037109,5.61524 7.275391,0 12.792969,-5.22461 6.347656,-5.95704 6.347656,-14.013676 0,-10.449219 -7.080078,-16.650391 -4.492188,-3.955078 -11.279297,-3.955078 z"></path>
</svg>
