<svg xmlns="http://www.w3.org/2000/svg" id="svg1" version="1.1" height="200" width="990">
  <defs id="defs1"></defs>
  <rect id="rect1" stroke="none" fill="none" height="200" width="990" y="0" x="0"></rect>
  <path aria-label="ごく浅い" style="font-size:100px;font-family:'BIZ UDPGothic';fill:#ff0000" id="text1" d="m 17.724609,77.880859 h 49.072266 v 7.617188 H 17.724609 Z m 64.160157,70.605471 q -15.136719,2.24609 -31.494141,2.24609 -16.894531,0 -27.685547,-2.88086 -5.419922,-1.46484 -9.277344,-4.63867 -5.1269527,-4.29687 -5.1269527,-11.2793 0,-8.59375 6.7871097,-15.42968 l 6.103515,4.10156 q -4.394531,5.12695 -4.394531,10.64453 0,5.61523 6.933594,8.44727 7.177734,2.92968 25.585937,2.92968 16.650391,0 31.494141,-2.24609 z M 76.708984,85.400391 Q 73.388672,77.099609 68.017578,69.482422 L 73.876953,67.1875 q 5.664063,7.910156 8.837891,15.722656 z m 12.402344,-3.613282 q -3.466797,-8.447265 -8.59375,-15.86914 l 5.664063,-2.197266 q 5.126953,6.494141 8.83789,15.576172 z M 167.5293,155.07812 q -20.89844,-16.35742 -55.71289,-37.06054 -6.29883,-3.75977 -6.29883,-7.32422 0,-3.17383 3.41797,-5.66406 0.92773,-0.6836 5.51758,-3.17383 13.23242,-7.128908 35.15624,-21.777345 8.39844,-5.664063 15.52735,-10.888672 l 4.49219,6.103516 q -7.91016,5.761718 -19.04297,12.988281 -18.94532,12.30469 -31.34766,19.04297 -3.80859,2.05078 -3.80859,3.02734 0,0.92774 1.75781,2.09961 0.53711,0.39063 4.73633,2.73438 17.62695,9.76562 39.20898,24.60937 5.32227,3.71094 11.18164,8.00781 z m 84.0332,-22.80273 q 7.66602,-4.98047 15.47852,-11.86523 l 5.27343,4.88281 q -8.39843,7.08008 -17.13867,12.74414 5.17578,7.17773 10.25391,10.74219 2.49023,1.75781 3.46679,1.75781 2.39258,0 3.85743,-15.23438 l 6.78711,4.10157 q -1.22071,9.71679 -2.78321,13.91601 -2.19726,5.90821 -6.20117,5.90821 -3.22266,0 -8.78906,-3.66211 -6.88477,-4.49219 -13.23242,-13.47657 -14.94141,8.64258 -33.88672,15.625 l -4.39453,-6.29882 q 20.26367,-6.73829 34.66796,-15.03907 -4.10156,-7.51953 -6.39648,-15.72265 l -27.00195,2.73437 -0.6836,-6.88476 26.17188,-2.49024 q -0.48828,-2.63672 -1.41602,-9.17969 l -20.26367,1.85547 -0.48828,-6.49414 20.01953,-1.806638 Q 234.42383,93.75 234.08203,89.208984 l -22.75391,1.904297 -0.68359,-6.591797 23.04688,-1.953125 q -0.39063,-6.689453 -0.63477,-18.066406 h 7.66602 q 0.39062,11.425781 0.73242,17.431641 l 31.68945,-2.636719 0.48828,6.591797 -31.73828,2.685547 0.24414,3.173828 0.24414,3.222656 0.24414,2.734375 28.02735,-2.490234 0.48828,6.396486 -27.78321,2.53906 q 0.53711,4.93164 1.41602,9.13086 l 32.56836,-3.07617 0.58594,6.39648 -31.5918,3.22266 q 1.9043,6.5918 5.22461,12.45117 z M 203.51562,85.986328 q -7.17773,-8.251953 -15.2832,-14.794922 l 5.32227,-5.371094 q 8.10547,6.152344 15.38086,14.257813 z m -3.90625,25.390622 q -7.37304,-8.54492 -15.57617,-14.892575 l 5.17578,-5.664063 q 8.83789,6.298829 16.01563,14.257818 z m -13.67187,41.01563 q 9.42383,-12.54883 17.57812,-32.08008 l 6.10352,5.07813 q -7.66602,19.2871 -17.38281,33.00781 z M 261.62109,78.90625 Q 255.66406,73.486328 247.2168,68.310547 l 5.12695,-4.199219 q 7.95898,4.248047 14.79492,10.009766 z m 69.18946,49.36523 q -4.00391,11.47461 -9.32618,18.75 -4.19921,5.71289 -9.0332,5.71289 -7.22656,0 -12.5,-10.88867 -4.3457,-8.88672 -5.81055,-19.82422 -1.75781,-12.84179 -1.75781,-29.394527 0,-8.398437 0.63477,-17.333984 l 8.10547,0.585937 q -0.53711,7.958985 -0.53711,15.38086 0,22.607424 2.58789,34.472654 2.00195,9.42383 5.12695,14.0625 2.34375,3.51563 4.10156,3.51563 1.75782,0 4.29688,-3.8086 3.90625,-5.76172 7.8125,-16.21093 z m 33.59375,9.61914 q -2.53907,-19.58007 -6.10352,-32.61718 -3.66211,-13.232424 -9.76562,-25.878909 l 7.37304,-1.80664 q 7.03125,13.769531 10.98633,27.587889 3.36914,11.96289 5.71289,30.71289 z"></path>
</svg>
