<svg xmlns="http://www.w3.org/2000/svg" id="svg1" version="1.1" height="200" width="1096">
  <defs id="defs1"></defs>
  <rect id="rect1" stroke="none" fill="none" height="200" width="1096" y="0" x="0"></rect>
  <path aria-label="秋田県内陸南部" style="font-weight:bold;font-size:110px;font-family:'BIZ UDPGothic';fill:#ff0000" id="text1" d="M 22.773437,112.83203 Q 16.381836,129.16016 7.5732422,140.43945 L 1.6650391,130.39551 Q 13.803711,116.16211 21.054687,96.074219 H 2.7392578 V 85.869141 H 22.773437 V 71.313477 Q 15.629883,72.602539 7.8955078,73.461914 L 3.8671875,64.223633 Q 25.351562,61.75293 42.592773,55.629883 l 6.713868,9.130859 q -6.176758,1.987305 -15.307618,4.243164 V 85.869141 H 48.178711 V 96.074219 H 33.999023 v 8.701171 q 9.291993,5.85449 17.133789,13.21289 L 44.6875,128.08594 q -4.458008,-5.69336 -10.688477,-12.08496 v 44.47265 H 22.773437 Z M 81.318359,55.952148 v 33.461914 q 0,13.374028 3.706055,23.417968 3.759766,10.04395 11.010742,20.73242 6.069334,8.91602 13.105474,15.36133 l -8.00293,11.06445 Q 88.676758,147.15332 80.942383,129.91211 78.47168,124.4873 76.860352,118.47168 q -1.503907,8.27148 -6.069336,17.08008 -8.540039,16.38183 -22.021485,25.45898 l -7.788086,-9.45312 q 13.535157,-8.86231 21.16211,-22.88086 7.412109,-13.69629 7.412109,-37.329104 V 55.952148 Z m 3.598633,48.930662 Q 92.8125,88.125 96.464844,73.78418 l 11.118166,4.833984 q -6.28418,18.798828 -13.212893,30.561526 z m -37.382812,1.4502 q 3.759765,-10.043948 5.74707,-29.379885 l 10.419922,1.557617 Q 62.197266,99.458008 57.631836,111.05957 Z M 210.6543,63.847656 v 93.725584 h -11.97754 v -7.68066 h -67.35352 v 7.57324 H 119.3457 V 63.847656 Z m -79.33106,10.795899 v 25.727535 h 27.5 V 74.643555 Z m 0,36.308595 v 27.82226 h 27.5 v -27.82226 z m 67.35352,27.82226 v -27.82226 h -28.19824 v 27.82226 z m 0,-38.40332 V 74.643555 H 170.47852 V 100.37109 Z M 312.16797,58.583984 V 110.62988 H 248.25195 V 58.583984 Z m -52.36817,8.486328 v 6.713868 h 40.7129 v -6.713868 z m 0,14.28711 v 6.713867 h 40.7129 v -6.713867 z m 0,14.287109 v 6.928709 h 40.7129 v -6.928709 z m -21.6455,22.128909 h 89.05273 v 9.3457 h -44.41894 v 33.35449 H 270.5957 V 127.11914 H 226.3916 V 66.855469 h 11.7627 z m -13.75,32.4414 q 12.7832,-5.9082 24.43847,-19.81933 l 9.88282,5.74707 q -11.49414,14.55566 -25.5127,22.88086 z m 92.59765,6.92871 q -8.21777,-10.09765 -24.70703,-21.21582 l 9.23828,-6.49902 q 12.94434,7.46582 25.40528,19.60449 z M 378.66211,73.891602 V 55.952148 h 11.97754 v 17.939454 h 41.25 v 74.765628 q 0,6.33789 -3.4375,8.8623 -2.79297,2.09473 -9.72168,2.09473 -11.87012,0 -19.60449,-0.59082 l -2.20215,-11.44043 q 12.03125,0.75195 20.08789,0.75195 2.14844,0 2.52441,-1.02051 0.26856,-0.64453 0.26856,-2.04101 V 84.902344 h -29.21875 l -0.0537,0.805664 q -0.26856,4.350586 -1.07422,8.916015 15.95215,13.051757 28.46679,29.433597 l -9.13085,8.48633 q -8.91602,-12.94434 -22.39747,-26.90918 -6.92871,18.208 -27.87597,30.40039 l -7.08985,-9.45313 q 12.51465,-7.19726 18.47657,-15.36133 7.84179,-10.74218 8.64746,-26.318356 H 350.35645 V 160.47363 H 338.27148 V 73.891602 Z M 504.3457,94.892578 q -1.5039,8.164062 -4.35058,12.836912 -4.56543,7.57324 -15.84473,11.38672 l -6.28418,-8.16406 q 5.96191,-1.50391 9.29199,-3.97461 5.53223,-4.08203 6.98242,-12.084962 h -15.62988 v -9.345703 h 26.85547 v -9.345703 h -23.0957 v -9.238281 h 23.0957 V 56.05957 h 11.22559 v 10.903321 h 24.5459 v 9.238281 h -24.5459 v 9.345703 h 29.37988 v 9.345703 h -19.81934 v 9.345702 q 0,1.98731 0.75196,2.36328 0.85937,0.42969 3.81347,0.42969 4.51172,0 5.20996,-1.77246 0.80567,-2.04102 0.91309,-6.713868 l 10.09766,2.524418 q -0.10743,9.45312 -3.16895,12.72949 -1.77246,1.82617 -5.04883,2.36328 -3.22265,0.4834 -8.64746,0.4834 -6.60644,0 -9.39941,-0.59082 -2.63184,-0.53711 -3.97461,-2.25586 v 11.11816 h 24.76074 v 9.13086 h -24.76074 v 12.56836 h 31.15234 v 10.09766 h -72.61719 v -10.09766 h 30.13184 v -12.56836 h -23.20312 v -9.13086 h 23.20312 v -12.08496 h 10.7959 q -0.59082,-1.45019 -0.59082,-3.33008 V 94.892578 Z m -33.46191,0.429688 q 7.68066,10.849614 7.68066,24.653324 0,7.25097 -1.77246,11.54785 -2.41699,5.74707 -10.47363,5.74707 -3.49121,0 -6.3916,-0.69824 l -2.63184,-10.52735 q 3.27637,0.64453 5.74707,0.64453 2.90039,0 3.59863,-2.30957 0.69825,-2.41699 0.69825,-7.68066 0,-11.49414 -7.08985,-20.732423 l 0.53711,-1.342774 q 3.9209,-10.742187 6.98242,-24.384765 H 456.86523 V 160.47363 H 446.06934 V 60.249023 h 28.19824 l 5.69336,4.404297 q -3.11524,15.415039 -9.07715,30.668946 z m 128.1543,25.190434 h -22.23633 v -8.8086 h 10.74219 q -2.417,-5.47851 -5.47852,-10.20508 l 9.66797,-3.544918 q 4.18945,7.036128 6.76758,13.749998 h 12.62207 q 3.16894,-6.49902 5.58593,-13.964842 l 10.7959,3.383792 q -2.73926,5.9082 -5.80078,10.58105 h 11.54785 v 8.8086 h -22.98828 v 7.84179 h 24.49219 v 9.13086 h -24.49219 v 20.30274 h -11.22558 v -20.30274 h -23.57911 v -9.13086 h 23.57911 z m 11.54785,-33.085942 h 40.71289 v 62.788082 q 0,5.53223 -2.9541,7.78809 -2.47071,1.93359 -8.3252,1.93359 -7.57324,0 -14.60937,-0.80566 l -2.63184,-10.7959 q 9.39941,1.12793 14.07227,1.12793 1.93359,0 2.25586,-0.9668 0.21484,-0.59082 0.21484,-1.66504 V 96.772461 H 570.67871 V 160.47363 H 558.70117 V 87.426758 h 40.01465 v -9.72168 h -45.97656 v -9.990234 h 45.97656 V 55.952148 h 11.87012 v 11.762696 h 46.62109 v 9.990234 h -46.62109 z m 87.81738,-19.067383 h 22.98828 v 10.366211 h -7.57324 q -2.04102,8.217773 -5.47852,17.241211 h 14.34082 v 10.366213 h -59.9414 V 95.966797 h 13.15918 Q 673.75,85.654297 671.38672,78.725586 H 664.4043 V 68.359375 h 22.77343 V 55.952148 h 11.22559 z m -16.16699,10.366211 q 2.73926,8.00293 4.24316,17.241211 h 10.95703 l 0.53711,-1.503906 q 2.30957,-6.123047 4.29688,-13.911133 l 0.4834,-1.826172 z m 33.30078,36.630864 v 43.98925 h -11.01074 v -5.26367 H 681.1084 v 6.3916 h -11.33301 v -45.11718 z m -34.42871,9.88281 v 18.63769 h 23.41797 v -18.63769 z m 71.75781,-27.124026 q 6.3916,6.069336 10.15137,14.448246 3.70605,8.3789 3.70605,16.97265 0,7.94922 -2.9541,11.70899 -3.06152,3.9209 -10.09766,3.9209 -6.01562,0 -11.65527,-0.85938 l -2.63183,-11.44043 q 6.49902,1.18164 10.74218,1.18164 3.22266,0 4.02832,-1.5039 0.53711,-1.07422 0.53711,-4.29688 0,-13.2666 -7.94922,-22.88086 -2.09472,-2.52441 -5.26367,-5.424804 l 0.64453,-1.503906 q 5.58594,-12.62207 8.70118,-26.318359 h -13.75 V 160.47363 H 725.95703 V 61.000977 h 32.33399 l 5.96191,5.478515 q -5.42481,18.476563 -11.38672,31.635742 z"></path>
</svg>
