<svg xmlns="http://www.w3.org/2000/svg" id="svg1" version="1.1" height="200" width="990">
  <defs id="defs1"></defs>
  <rect id="rect1" stroke="none" fill="none" height="200" width="990" y="0" x="0"></rect>
  <path aria-label="石狩地方南部" style="font-size:100px;font-family:'BIZ UDPGothic';fill:#ff0000" id="text1" d="m 30.712891,107.17773 h 57.324218 v 52.34375 h -8.203125 v -7.32421 H 29.736328 v 7.32421 H 21.630859 V 118.75 q -7.03125,7.8125 -15.3320309,14.35547 L 1.5136719,126.70898 Q 27.294922,107.22656 36.71875,77.880859 H 5.3222656 V 70.800781 H 95.3125 v 7.080078 h -50 Q 40.380859,92.822266 30.712891,107.17773 Z m -0.976563,6.88477 v 31.05469 H 79.833984 V 114.0625 Z m 94.189452,-2.44141 q -7.03125,15.42969 -17.43164,26.36719 l -4.39453,-6.39648 q 12.06055,-12.10938 20.45898,-31.20117 -1.07421,-5.175786 -2.05078,-8.300786 -6.25,7.177734 -14.01367,13.720706 l -4.29687,-6.201175 q 8.44726,-6.445313 14.74609,-14.0625 l 0.58594,-0.732422 q -3.95508,-8.007812 -11.13282,-14.013672 l 5.32227,-4.101562 q 6.25,5.078125 10.49805,11.767578 3.90625,-5.908203 7.4707,-13.476563 l 6.49414,3.808594 q -4.98047,9.326172 -10.35156,16.601563 6.49414,14.941409 6.49414,43.310549 0,15.625 -2.29492,22.94922 -1.46485,4.58984 -4.63867,6.29882 -2.29493,1.22071 -5.95704,1.22071 -4.58984,0 -9.81445,-0.87891 l -1.41601,-7.91016 q 5.32226,1.12305 9.71679,1.12305 3.41797,0 4.34571,-1.95312 2.19726,-4.39453 2.19726,-21.97266 0,-8.39844 -0.53711,-15.9668 z m 44.58008,-33.642574 h 26.41601 V 98.779297 H 187.5 V 84.570312 h -43.35938 v 14.208985 h -7.42187 V 77.978516 h 24.07227 V 64.501953 h 7.71484 z m 13.18359,27.832034 h 15.82032 v 6.59179 h -15.82032 v 38.1836 q 0,4.6875 -2.19726,6.49414 -2.09961,1.70898 -7.27539,1.70898 -4.24805,0 -11.96289,-0.58594 l -1.46485,-7.71484 q 7.37305,1.02539 12.74414,1.02539 1.9043,0 2.34375,-1.17187 0.29297,-0.73243 0.29297,-2.05078 v -35.88868 h -39.59961 v -6.59179 h 39.59961 V 92.626953 h 7.51953 z m -26.51367,35.30273 q -6.00586,-11.37695 -12.89062,-19.82422 l 6.29882,-4.0039 q 5.66407,6.29882 13.33008,19.09179 z m 94.04297,-37.89062 v 40.86914 q 0,4.05273 2.39258,4.98047 2.58789,0.97656 16.45508,0.97656 13.42773,0 17.38281,-0.92774 2.7832,-0.68359 3.56445,-3.22265 1.2207,-4.00391 1.26953,-12.40235 l 7.51953,2.78321 q -0.68359,13.23242 -3.51562,16.79687 -2.24609,2.92969 -7.27539,3.4668 -7.66602,0.78125 -20.75195,0.78125 -12.45118,0 -16.74805,-0.83008 -5.3711,-1.07422 -6.83594,-4.88281 -0.78125,-2.09961 -0.78125,-5.51758 v -40.38086 l -10.49805,3.56445 -1.90429,-6.98242 12.40234,-4.150389 v -26.5625 h 7.32422 v 24.072266 l 12.8418,-4.345703 V 64.501953 h 7.32422 v 24.365234 l 18.01757,-6.054687 4.39453,2.392578 v 35.986332 q 0,3.51562 -1.66015,5.32226 -1.95313,2.09961 -6.83594,2.09961 -3.95508,0 -7.71484,-0.53711 l -1.26953,-6.98242 q 3.71093,0.68359 6.93359,0.68359 2.44141,0 2.97852,-1.07421 0.39062,-0.73243 0.39062,-2.29493 V 91.113281 l -15.23437,5.175781 v 39.794918 h -7.32422 V 98.779297 Z M 216.50391,88.916016 V 65.136719 h 7.71484 v 23.779297 h 10.79102 v 7.177734 h -10.79102 v 34.96094 q 5.12695,-1.75782 11.71875,-4.44336 l 0.78125,6.88476 q -14.94141,6.88477 -32.03125,12.10938 l -2.7832,-7.61719 q 6.78711,-1.85547 14.59961,-4.3457 V 96.09375 h -13.28125 v -7.177734 z m 128.95507,0.04883 q 0,7.324218 -0.92773,17.041016 h 39.4043 q -0.6836,32.91016 -3.75977,43.60351 -1.26953,4.49219 -4.83398,6.34766 -3.02735,1.5625 -9.08203,1.5625 -8.39844,0 -15.33204,-0.92773 l -1.31836,-8.00782 q 10.15625,1.31836 16.3086,1.31836 4.05273,0 5.32226,-1.70898 1.07422,-1.46484 2.14844,-8.49609 1.5625,-9.96094 2.14844,-26.70899 h -31.93359 q -1.80665,11.37695 -5.76172,19.28711 -7.91016,15.91797 -26.02539,25.73242 l -5.61524,-6.29883 q 19.38477,-10.15625 25.58594,-26.36718 5.17578,-13.57422 5.56641,-36.376956 h -33.54493 v -7.177735 h 41.69922 V 64.501953 h 8.00781 v 17.285156 h 42.67579 v 7.177735 z m 108.05664,5.029297 h 37.06055 v 57.324219 q 0,3.90625 -1.61133,5.66406 -1.90429,2.05078 -8.00781,2.05078 -5.76172,0 -11.18164,-0.63476 l -1.70898,-7.42188 q 8.88671,0.92774 12.06054,0.92774 1.85547,0 2.29492,-0.87891 0.24415,-0.53711 0.24415,-1.61133 V 100.39063 H 417.1875 v 59.13085 h -7.91016 V 93.994141 h 36.52344 V 83.007812 h -43.31055 v -6.689453 h 43.31055 V 64.501953 h 7.71484 v 11.816406 h 43.94532 v 6.689453 h -43.94532 z m -7.61718,27.783199 h -22.2168 v -6.20117 h 11.86523 q -2.14843,-5.32226 -5.37109,-10.49804 l 6.73828,-2.5879 q 4.05274,7.12891 6.20117,13.08594 H 456.25 q 3.32031,-6.05469 5.76172,-13.28125 l 7.42187,2.58789 q -2.39257,4.98047 -5.32226,9.96094 l -0.39063,0.73242 h 12.40235 v 6.20117 h -22.70508 v 9.13086 H 478.125 v 6.29883 h -24.70703 v 19.92188 h -7.51953 V 137.20703 H 421.875 v -6.29883 h 24.02344 z m 88.08593,-45.166012 h 21.82618 v 6.787109 h -7.03125 q -2.05078,9.13086 -5.61524,18.701173 h 14.45313 v 6.88477 h -55.12696 v -6.88477 h 13.72071 l -0.0977,-0.48828 Q 514.0625,91.601562 511.71875,84.423828 l -0.3418,-1.025391 h -7.08008 v -6.787109 h 22.2168 V 64.501953 h 7.4707 z m -15.13671,6.787109 q 2.58789,7.958985 4.73632,18.701173 h 12.15821 q 2.92968,-8.105469 5.32226,-18.701173 z m 31.83593,35.888673 v 39.30664 h -7.32422 v -5.51758 h -25.97656 v 6.39649 h -7.56836 v -40.18555 z m -33.30078,6.68945 v 20.3125 h 25.97656 v -20.3125 z m 65.42969,-22.70508 q 12.8418,13.57422 12.8418,29.44336 0,5.56641 -2.00196,8.39844 -2.4414,3.27149 -8.49609,3.27149 -5.81055,0 -10.69336,-0.6836 l -1.61133,-7.61719 q 6.25,1.02539 10.15625,1.02539 3.71094,0 4.39453,-2.49023 0.29297,-1.07422 0.29297,-3.51562 0,-13.72071 -12.64648,-26.70899 5.85937,-12.695311 9.52148,-26.708983 h -15.42969 v 81.787113 h -7.37304 V 70.507812 h 27.49023 l 4.39453,3.808594 q -5.37109,17.382813 -10.83984,28.955074 z"></path>
</svg>
