<svg version="1.1" xmlns="http://www.w3.org/2000/svg" xmlns:xlink="http://www.w3.org/1999/xlink" width="1656.15616" height="144.14414" viewBox="0,0,1656.15616,144.14414"><g transform="translate(588.07807,-107.92794)"><g stroke="none" stroke-miterlimit="10"><path d="M-142.10153,147.78908v17.11719h14.4375v9.95312h-14.4375v17.5h10.88281v9.95313h-99.25781v-9.95313h13.45312v-17.5h-17.00781v-9.95312h17.00781v-17.28125c-2.29687,2.66146 -5.25,5.43229 -8.85937,8.3125l-8.03906,-6.78125c8.02083,-6.30729 14.4375,-13.96354 19.25,-22.96875l12.03125,2.46094c-2.04167,3.5 -3.97396,6.5625 -5.79688,9.1875h74.375v9.95313zM-152.76558,147.78908h-11.48438v17.11719h11.48438zM-174.42183,147.78908h-10.88282v17.11719h10.88282zM-195.47653,147.78908h-10.99219v17.11719h10.99219zM-152.76558,174.85938h-11.48438v17.5h11.48438zM-174.42183,174.85938h-10.88282v17.5h10.88282zM-195.47653,174.85938h-10.99219v17.5h10.99219zM-232.66403,226.75783c5.79687,-6.67187 10.15364,-13.83594 13.07031,-21.49219l10.77344,4.21094c-3.31771,9.36979 -7.69271,17.48177 -13.125,24.33594zM-196.51558,233.26563c-0.94792,-7.94791 -2.44271,-15.91406 -4.48438,-23.89844l11.42969,-2.24218c2.73437,7.51041 4.75781,15.4401 6.07031,23.78906zM-170.42966,231.57033c-2.04167,-8.13021 -4.75781,-15.78646 -8.14843,-22.96875l10.9375,-3.11719c3.97395,7.03646 7.07291,14.56511 9.29687,22.58594zM-139.64058,232.00783c-2.91667,-7.47396 -7.27344,-15.3125 -13.07032,-23.51563l10.88282,-4.04687c5.35937,6.52604 9.97135,13.74479 13.83594,21.65625zM-50.17183,149.59375l0.49218,-22.96875h10.99219l-0.38281,22.96875h21.65625c-0.54687,38.17187 -1.85937,61.97916 -3.9375,71.42187c-0.875,3.97396 -2.3151,6.76302 -4.32031,8.36719c-1.96875,1.53125 -5.1224,2.29687 -9.46094,2.29687c-4.19271,0 -8.18489,-0.21875 -11.97656,-0.65625l-2.24219,-11.32031c4.30208,0.58333 8.18489,0.875 11.64844,0.875c2.33333,0 3.88281,-0.65625 4.64843,-1.96875c2.15105,-3.71875 3.64584,-23.09635 4.48438,-58.13281h-11.26563c-0.98437,16.47917 -3.46354,30.04166 -7.4375,40.6875c-4.70312,12.61458 -11.17447,23.20573 -19.41406,31.77344l-7.82031,-8.53125c8.09375,-7.94792 13.98177,-17.95573 17.66406,-30.02344c3.0625,-9.91667 5.10417,-21.21875 6.125,-33.90625h-14.49219v-8.25781h-56.60156v-10.39062h24.88281v-15.20312h11.64844v15.20313h22.14844v7.76563zM-95.34371,201.10938c-4.55729,-5.17708 -9.40625,-10.0625 -14.54687,-14.65625l7.27343,-7.65625c3.60938,3.09896 8.03907,7.25521 13.28907,12.46875c2.80729,-5.03125 5.24999,-10.1901 7.32812,-15.47656l10.0625,4.92188c-2.07813,5.39583 -5.19531,11.79427 -9.35156,19.19531c4.08333,4.59375 7.69271,8.95052 10.82812,13.07031l-8.53125,9.07812c-3.17187,-4.59375 -6.125,-8.58593 -8.85937,-11.97656c-6.52604,9.22396 -14.18229,16.75261 -22.96875,22.58594l-8.85937,-9.29688c9.77083,-5.39583 17.8828,-12.8151 24.33593,-22.25781zM-123.12496,177.81252c7.03646,-5.28646 13.05209,-12.94271 18.04688,-22.96875l9.51562,5.03125c-4.99479,10.57292 -11.53906,19.15885 -19.63281,25.75781zM-69.14841,181.36719c-4.92187,-7.18229 -10.90104,-14.41928 -17.9375,-21.71094l8.42188,-5.90625c6.89063,6.41667 12.59636,12.94271 17.11719,19.57812zM55.15629,166.16408h12.41406v30.02344c8.53125,3.75521 17.26303,8.71354 26.19532,14.875l-6.28907,10.22656c-6.27083,-4.59375 -12.90625,-8.85938 -19.90625,-12.79688c-0.40104,6.45313 -2.49739,11.41146 -6.28906,14.875c-4.22917,3.82813 -10.15365,5.74219 -17.77344,5.74219c-7.36458,0 -13.43489,-1.67708 -18.21093,-5.03125c-4.66667,-3.31771 -7,-7.94791 -7,-13.89062c0,-6.23438 2.93489,-11.22917 8.80468,-14.98438c4.55729,-2.91667 10.39063,-4.375 17.5,-4.375c3.31771,0 6.83594,0.40104 10.55469,1.20313zM55.15629,203.24219c-4.33854,-1.49479 -8.4401,-2.24218 -12.30469,-2.24218c-3.79167,0 -6.83594,0.67448 -9.13281,2.02343c-2.95313,1.75 -4.42969,4.08333 -4.42969,7c0,3.57292 2.11458,6.17969 6.34375,7.82032c2.11459,0.80208 4.64844,1.20312 7.60157,1.20312c4.73958,0 8.14843,-2.00521 10.22656,-6.01562c1.13021,-2.15105 1.69531,-4.66667 1.69531,-7.54688zM-3.52341,145.21875h20.89063c1.85937,-6.30729 3.35416,-11.86719 4.48437,-16.67969l11.97657,1.47656c-1.45833,5.35938 -2.95313,10.42708 -4.48438,15.20313h19.96094v10.99219h-23.51563c-6.52604,18.70312 -14.18229,34.52604 -22.96875,47.46874l-10.17187,-5.79687c8.3125,-12.32291 15.33073,-26.21354 21.05469,-41.67187h-17.22657zM87.80471,171.85158c-8.09375,-9.00521 -17.39063,-17.20833 -27.89063,-24.60937l7.21875,-7.875c10.42709,6.74479 19.94271,14.60156 28.54688,23.57031zM115.09379,129.74219h12.74219v31.39063c21.76563,6.70833 39.79427,13.5625 54.08594,20.5625l-6.125,11.8125c-13.70833,-6.96354 -29.69531,-13.58073 -47.96094,-19.85156v55.5625h-12.74219zM192.09379,171.74219h96.30469v12.30468h-96.30469zM376.99222,143.63283l8.53125,7.05469c-4.11979,23.04167 -11.6849,40.65104 -22.69531,52.82812c-10.02605,11.08333 -25.1198,19.65104 -45.28125,25.70313l-6.83594,-11.10157c18.48437,-4.66667 32.55729,-12.21354 42.21875,-22.64062c9.36979,-10.0625 15.64063,-23.60677 18.8125,-40.63281h-36.85938c-7.65625,11.59375 -16.64322,20.85417 -26.96093,27.78125l-8.96875,-9.07813c8.38541,-5.39583 15.22135,-11.26562 20.50781,-17.60937c5.97917,-7.21875 10.64583,-15.91406 14,-26.08594l11.86719,3.22656c-1.3125,3.82813 -2.73438,7.34636 -4.26563,10.55469zM439.28122,159.4375c-11.5208,-5.14062 -23.49735,-9.26042 -35.92964,-12.35937l3.82814,-11.75781c14.401,3.28125 26.48693,7.36458 36.2578,12.25zM404.71879,213.85158c18.0469,-1.53125 31.86462,-4.75782 41.45315,-9.67969c11.30207,-5.83333 19.97913,-14.78385 26.0312,-26.85156c3.93753,-7.80208 7.12763,-18.01042 9.5703,-30.625l10.5,7.71094c-2.95313,13.48958 -6.52603,24.20833 -10.7187,32.15625c-7.58333,14.47395 -19.1771,24.95572 -34.7813,31.44531c-9.84373,4.08333 -23.00517,7 -39.4843,8.75zM504.30472,139.91408c33.54167,-0.51042 65.24217,-1.36719 95.1015,-2.57031l0.6563,10.88281c-13.16147,0.65625 -23.40627,2.66146 -30.7344,6.01563c-7,3.20833 -12.61457,7.65625 -16.8437,13.34375c-4.81253,6.45312 -7.2188,13.63541 -7.2188,21.54687c0,7.875 2.73437,13.78125 8.2031,17.71875c6.27087,4.48437 15.89587,7.5651 28.875,9.24219l-2.5703,12.30468c-16.91667,-2.26041 -28.8203,-6.63541 -35.7109,-13.125c-7.40107,-6.92708 -11.1016,-15.53124 -11.1016,-25.81249c0,-9.33333 3.35417,-18.04688 10.0625,-26.14063c4.88547,-5.94271 11.57557,-10.71875 20.0703,-14.32812c-15.05727,0.51042 -34.4713,1.36719 -58.2421,2.57031zM583.82034,187.10938c-2.15107,-5.72395 -5.77867,-12.21353 -10.8828,-19.46875l8.5312,-3.17187c4.55733,6.27083 8.2214,12.6875 10.9922,19.25zM598.58593,181.36719c-2.58853,-6.70834 -6.1979,-13.23438 -10.8281,-19.57813l8.1484,-2.89844c4.26567,5.17708 7.8933,11.44792 10.8829,18.8125zM669.46093,128.86719h12.3047v15.09375h32.2656v10.55469h-32.2656v23.40625c1.27607,4.48438 1.9141,8.47657 1.9141,11.97657c0,12.97916 -2.862,22.51301 -8.586,28.60156c-6.23433,6.67187 -15.62233,11.28385 -28.164,13.83593l-6.2344,-9.29687c9.7344,-1.85937 16.95317,-4.48437 21.6563,-7.875c4.4114,-3.20833 7.38273,-7.5651 8.914,-13.07031c-3.901,4.26562 -8.54943,6.39843 -13.9453,6.39843c-6.05207,0 -10.9557,-1.71354 -14.7109,-5.14062c-4.41147,-4.04687 -6.6172,-9.91666 -6.6172,-17.60937c0,-4.04688 0.96613,-7.94792 2.8984,-11.70313c1.27607,-2.40625 2.84377,-4.41146 4.7031,-6.01562c4.30213,-3.64583 9.461,-5.46875 15.4766,-5.46875c3.82813,0 7.29167,0.91146 10.3906,2.73438v-10.77344h-53.9765v-10.55469h53.9765zM669.89843,185.63283v-2.02344c0,-2.33333 -0.54687,-4.39323 -1.6406,-6.17968c-2.04167,-3.35417 -4.9948,-5.03125 -8.8594,-5.03125c-1.96873,0 -3.80987,0.54687 -5.5234,1.64062c-4.0104,2.51563 -6.0156,6.38021 -6.0156,11.59375c0,3.28125 0.72917,6.05209 2.1875,8.3125c2.04167,3.13542 5.04947,4.70313 9.0234,4.70313c3.6094,0 6.47137,-1.6224 8.5859,-4.86719c1.4948,-2.29687 2.2422,-5.01302 2.2422,-8.14844z" fill="#ee4d4d" stroke-width="1"/><path d="M-588.07807,252.07209v-144.14414h1656.15616v144.14414z" fill="none" stroke-width="0"/></g></g></svg>