<svg xmlns="http://www.w3.org/2000/svg" id="svg1" version="1.1" height="200" width="1096">
  <defs id="defs1"></defs>
  <rect id="rect1" stroke="none" fill="none" height="200" width="1096" y="0" x="0"></rect>
  <path aria-label="兵庫県北部" style="font-weight:bold;font-size:110px;font-family:'BIZ UDPGothic';fill:#ff0000" id="text1" d="M 82.661133,55.629883 92.8125,64.760742 q -27.392578,5.74707 -57.094727,8.164063 V 84.902344 H 101.40625 V 95.268555 H 81.586914 V 117.0752 H 107.0459 v 10.36621 H 2.7392578 V 117.0752 H 23.632812 V 63.256836 l 3.544922,-0.214844 Q 54.248047,61.645508 82.661133,55.629883 Z M 69.609375,95.268555 H 35.717773 V 117.0752 H 69.609375 Z M 3.9746094,150.75195 Q 22.451172,143.66211 36.416016,129.32129 l 9.990234,7.03613 q -16.328125,16.32813 -33.676758,24.33106 z m 93.0273436,8.8086 Q 81.962891,147.63672 63.59375,137.2168 l 8.325195,-7.46582 Q 90.771484,138.02246 105.91797,150 Z M 178.75,74.106445 v 6.069336 h 35.07324 v 8.701172 H 178.75 v 5.800781 h 29.91699 V 131.41602 H 178.75 v 6.28418 h 38.94043 v 9.45312 H 178.75 v 13.32031 h -11.33301 v -13.32031 h -37.06054 v -9.45312 h 37.06054 v -6.28418 h -29.4873 V 94.677734 h 29.4873 v -5.800781 h -33.56933 v -8.701172 h 33.56933 V 74.106445 H 131.32324 V 101.3916 q 0,37.22168 -9.3457,58.75977 l -10.09766,-7.51953 q 5.04883,-13.75 6.71387,-29.27246 1.18164,-11.17188 1.18164,-25.5127 V 64.975586 h 41.14258 v -9.023438 h 12.08496 v 9.023438 h 43.12988 v 9.130859 z m -11.33301,28.144535 h -18.26172 v 6.82129 h 18.26172 z m 11.33301,0 v 6.82129 h 18.58398 v -6.82129 z m -11.33301,14.28711 h -18.26172 v 7.30468 h 18.26172 z m 11.33301,0 v 7.30468 h 18.58398 v -7.30468 z M 312.16797,58.583984 V 110.62988 H 248.25195 V 58.583984 Z m -52.36817,8.486328 v 6.713868 h 40.7129 v -6.713868 z m 0,14.28711 v 6.713867 h 40.7129 v -6.713867 z m 0,14.287109 v 6.928709 h 40.7129 v -6.928709 z m -21.6455,22.128909 h 89.05273 v 9.3457 h -44.41894 v 33.35449 H 270.5957 V 127.11914 H 226.3916 V 66.855469 h 11.7627 z m -13.75,32.4414 q 12.7832,-5.9082 24.43847,-19.81933 l 9.88282,5.74707 q -11.49414,14.55566 -25.5127,22.88086 z m 92.59765,6.92871 q -8.21777,-10.09765 -24.70703,-21.21582 l 9.23828,-6.49902 q 12.94434,7.46582 25.40528,19.60449 z m 45.11719,-25.29785 q -14.82422,7.78809 -25.83496,11.92383 l -4.51172,-11.81641 q 17.24121,-5.80078 30.34668,-12.03124 V 95.859375 H 335.53223 V 84.526367 h 26.58691 V 55.952148 h 11.97754 V 160.47363 h -11.97754 z m 38.18848,-41.840817 q 12.51465,-6.552735 24.27734,-16.650391 l 8.91602,9.345703 q -15.89844,11.279297 -33.19336,19.228515 v 40.2832 q 0,2.63184 1.71875,3.22266 1.82617,0.59082 8.43261,0.59082 8.70118,0 10.90332,-1.02051 1.55762,-0.69824 2.14844,-4.35058 0.80567,-5.10254 1.18164,-16.48926 l 12.03125,3.70605 q -0.53711,13.91114 -1.71875,19.98047 -1.34277,6.76758 -7.03613,8.75489 -5.4248,1.82617 -17.77832,1.82617 -14.50195,0 -18.26172,-2.417 -3.59863,-2.36328 -3.59863,-9.07714 V 55.952148 h 11.97754 z m 78.0957,-21.645508 h 22.98828 v 10.366211 h -7.57324 q -2.04102,8.217773 -5.47852,17.241211 h 14.34082 v 10.366213 h -59.9414 V 95.966797 h 13.15918 Q 453.75,85.654297 451.38672,78.725586 H 444.4043 V 68.359375 h 22.77343 V 55.952148 h 11.22559 z m -16.16699,10.366211 q 2.73926,8.00293 4.24316,17.241211 h 10.95703 l 0.53711,-1.503906 q 2.30957,-6.123047 4.29688,-13.911133 l 0.4834,-1.826172 z m 33.30078,36.630864 v 43.98925 h -11.01074 v -5.26367 H 461.1084 v 6.3916 h -11.33301 v -45.11718 z m -34.42871,9.88281 v 18.63769 h 23.41797 v -18.63769 z m 71.75781,-27.124026 q 6.3916,6.069336 10.15137,14.448246 3.70605,8.3789 3.70605,16.97265 0,7.94922 -2.9541,11.70899 -3.06152,3.9209 -10.09766,3.9209 -6.01562,0 -11.65527,-0.85938 l -2.63183,-11.44043 q 6.49902,1.18164 10.74218,1.18164 3.22266,0 4.02832,-1.5039 0.53711,-1.07422 0.53711,-4.29688 0,-13.2666 -7.94922,-22.88086 -2.09472,-2.52441 -5.26367,-5.424804 l 0.64453,-1.503906 q 5.58594,-12.62207 8.70118,-26.318359 h -13.75 V 160.47363 H 505.95703 V 61.000977 h 32.33399 l 5.96191,5.478515 q -5.42481,18.476563 -11.38672,31.635742 z"></path>
</svg>
