<svg xmlns="http://www.w3.org/2000/svg" id="svg1" version="1.1" height="200" width="990">
  <defs id="defs1"></defs>
  <rect id="rect1" stroke="none" fill="none" height="200" width="990" y="0" x="0"></rect>
  <path aria-label="マリアナ諸島" style="font-size:100px;font-family:'BIZ UDPGothic';fill:#ff0000" id="text1" d="M 6.1035156,78.076172 H 80.712891 l 6.103515,5.46875 Q 75,108.74023 49.511719,128.56445 q 8.789062,9.22852 13.769531,15.82032 l -6.396484,5.9082 Q 41.650391,129.44336 16.699219,109.27734 l 5.517578,-5.51757 q 9.375,7.42187 22.167969,19.6289 22.851562,-17.67578 32.714843,-38.23242 H 6.1035156 Z M 103.61328,70.019531 h 8.20313 v 51.464849 h -8.20313 z m 50.09766,-1.02539 h 8.20312 v 33.496089 q 0,16.99219 -2.34375,25.04883 -2.49023,8.64258 -7.42187,13.81836 -8.4961,8.88672 -26.31836,13.33008 l -4.29688,-7.17773 q 20.70313,-4.54102 26.9043,-14.99024 3.95508,-6.78711 4.83398,-16.94336 0.43946,-4.88281 0.43946,-12.98828 z m 25.48828,7.421875 h 76.12305 l 5.27343,4.492187 q -4.19922,16.308594 -15.47851,25.537107 -6.20117,5.07813 -15.52735,8.64258 l -4.6875,-6.00586 q 13.91602,-4.54101 21.58203,-14.941405 3.51563,-4.833984 5.0293,-10.644531 h -72.31445 z m 32.51953,18.164062 h 7.86133 v 8.203122 q 0,19.18946 -3.75977,29.00391 -5.02929,13.03711 -20.70312,21.19141 l -5.81055,-5.95704 q 10.74219,-5.17578 15.9668,-13.23242 3.56445,-5.41992 4.78515,-11.03515 1.66016,-7.66602 1.66016,-19.97071 z m 96.28906,-26.367187 h 7.91016 v 22.802734 h 37.10937 v 7.177734 h -37.10937 v 3.613281 q 0,14.30664 -1.51367,21.67969 -4.29688,21.04492 -27.73438,31.88476 l -5.07812,-6.59179 q 15.96679,-6.78711 21.875,-18.50586 3.56445,-7.12891 4.24804,-17.67578 0.29297,-4.29688 0.29297,-10.69336 v -3.710941 h -39.01367 v -7.177734 h 39.01367 z M 429.49219,94.189453 Q 439.20898,82.8125 446.875,68.505859 l 6.39648,3.271485 q -7.27539,13.183593 -14.84375,22.412109 H 456.25 v 6.494137 h -23.14453 q -4.88281,5.17579 -12.79297,11.32813 h 27.44141 v 47.50976 h -7.17774 v -5.22461 h -25.63476 v 5.22461 h -7.17774 v -38.76953 q -5.12695,3.27149 -10.88867,6.25 l -4.19922,-5.81054 q 12.01172,-5.51758 23.38867,-14.35547 4.54102,-3.4668 7.17774,-6.15235 h -26.17188 v -6.494137 h 20.70313 V 81.982422 h -15.625 v -6.494141 h 15.625 V 64.501953 h 7.42187 v 10.986328 h 13.08594 v 6.494141 h -13.08594 v 12.207031 z m -14.55078,24.023437 v 11.2793 h 25.63476 v -11.2793 z m 0,17.48047 v 12.40234 h 25.63476 v -12.40234 z m -19.48243,-8.98438 v 27.49024 h -23.19336 v 5.32226 h -7.08007 v -32.8125 z m -23.19336,6.39649 v 14.69726 h 16.01563 v -14.69726 z m -5.81054,-64.501954 h 27.63672 v 6.298828 h -27.63672 z m -4.88281,14.404296 h 36.37695 v 6.591797 h -36.37695 z m 4.88281,14.697266 h 27.73437 v 6.298832 h -27.73437 z m 0,14.306642 h 27.73437 v 6.20117 h -27.73437 z m 160.54687,37.20703 h -53.80859 v 5.71289 h -7.71484 v -23.0957 h 7.71484 v 11.18164 h 19.0918 v -14.69727 h -19.0918 V 73.291016 h 23.97461 q 3.36914,-4.931641 5.41992,-9.179688 l 8.69141,2.001953 q -2.39258,3.515625 -5.46875,7.177735 h 35.2539 v 30.517574 h -59.96093 v 6.00586 h 75.34179 v 6.10352 h -75.34179 v 6.29883 h 70.94726 q -0.73242,23.87695 -3.32031,30.71289 -1.5625,4.19922 -5.51758,5.66406 -2.58789,0.92773 -6.83594,0.92773 -6.15234,0 -11.76758,-0.8789 l -1.61132,-7.22656 q 6.73828,1.02539 12.10937,1.02539 4.24805,0 5.3711,-1.95313 2.24609,-3.90625 3.36914,-22.16797 h -43.94532 v 14.69727 h 19.58008 v -11.18164 h 7.51953 z M 481.10352,79.296875 v 6.298828 h 52.0996 v -6.298828 z m 0,12.011719 v 6.689453 h 52.0996 v -6.689453 z"></path>
</svg>
