<svg xmlns="http://www.w3.org/2000/svg" id="svg1" version="1.1" height="200" width="990">
  <defs id="defs1"></defs>
  <rect id="rect1" stroke="none" fill="none" height="200" width="990" y="0" x="0"></rect>
  <path aria-label="伊豆半島東方沖" style="font-size:100px;font-family:'BIZ UDPGothic';fill:#ff0000" id="text1" d="m 88.427734,92.675781 h 9.179688 v 6.591797 H 88.427734 V 122.26563 H 63.330078 q -0.732422,11.62109 -4.492187,19.09179 -6.103516,12.06055 -18.701172,18.60352 l -5.615235,-5.71289 q 11.621094,-5.95703 16.748047,-15.52735 3.271485,-6.05468 4.296875,-16.45507 H 33.105469 v -6.68946 H 55.810547 V 99.267578 H 26.220703 V 92.675781 H 55.810547 V 77.001953 H 34.619141 v -6.787109 h 53.808593 z m -7.617187,0 V 77.001953 H 63.525391 v 15.673828 z m 0,6.591797 H 63.525391 V 115.57617 H 80.810547 Z M 22.607422,88.427734 V 159.52148 H 14.892578 V 104.6875 Q 10.9375,111.81641 5.5175781,119.0918 L 1.5136719,111.81641 Q 10.498047,99.804687 16.259766,84.619141 19.53125,76.074219 22.802734,64.013672 l 7.519532,1.904297 Q 26.513672,78.90625 22.607422,88.427734 Z M 184.27734,90.722656 V 122.41211 H 115.57617 V 90.722656 Z m -60.5957,6.494141 v 18.701173 h 52.49023 V 97.216797 Z m 35.88867,50.683593 q 6.00586,-11.47461 9.7168,-24.31641 l 8.39844,2.92969 q -4.58985,11.96289 -10.00977,21.38672 h 29.83399 v 6.88477 h -95.01954 v -6.88477 z M 105.81055,70.703125 h 88.28125 v 6.787109 h -88.28125 z m 25.19531,76.318355 q -3.02734,-10.30273 -8.30078,-19.82421 l 7.4707,-2.97852 q 5.27344,9.32617 8.59375,19.48242 z M 245.70312,99.902344 V 64.501953 h 7.91016 v 35.400391 h 37.98828 v 7.080076 h -37.98828 v 15.625 h 43.89649 v 7.17774 h -43.89649 v 29.6875 h -7.91016 v -29.6875 h -43.21289 v -7.17774 h 43.21289 v -15.625 h -37.30468 v -7.080076 z m -20.8496,-3.710938 Q 218.75,82.763672 211.66992,73.095703 l 7.32422,-3.710937 q 8.10547,11.71875 13.47656,22.90039 z m 41.8457,-3.173828 q 7.66601,-11.474609 12.79297,-24.707031 l 8.10547,3.076172 q -5.81055,13.134765 -13.81836,24.902343 z m 101.31836,56.201172 h -53.8086 v 5.71289 h -7.71484 v -23.0957 h 7.71484 v 11.18164 h 19.0918 v -14.69727 h -19.0918 V 73.291016 h 23.97461 q 3.36914,-4.931641 5.41993,-9.179688 l 8.6914,2.001953 q -2.39258,3.515625 -5.46875,7.177735 h 35.25391 v 30.517574 h -59.96094 v 6.00586 h 75.3418 v 6.10352 h -75.3418 v 6.29883 h 70.94727 q -0.73243,23.87695 -3.32032,30.71289 -1.5625,4.19922 -5.51757,5.66406 -2.5879,0.92773 -6.83594,0.92773 -6.15235,0 -11.76758,-0.8789 l -1.61133,-7.22656 q 6.73828,1.02539 12.10938,1.02539 4.24804,0 5.37109,-1.95313 2.24609,-3.90625 3.36914,-22.16797 h -43.94531 v 14.69727 h 19.58008 v -11.18164 h 7.51953 z M 322.11914,79.296875 v 6.298828 h 52.09961 v -6.298828 z m 0,12.011719 v 6.689453 h 52.09961 v -6.689453 z m 139.20898,35.302736 q 14.01368,12.84179 36.76758,20.50781 l -4.73633,6.98242 q -10.54687,-3.95508 -18.31054,-8.54492 -12.10938,-7.22656 -21.53321,-18.06641 v 32.03125 h -7.71484 v -31.83593 q -5.76172,7.51953 -14.30664,14.20898 -10.88867,8.49609 -24.31641,13.81836 l -4.78515,-6.29883 q 21.97265,-8.00781 35.79101,-22.80273 H 411.57227 V 87.792969 h 34.22851 v -8.007813 h -41.74805 v -6.591797 h 41.74805 v -8.691406 h 7.71484 v 8.691406 h 42.38282 v 6.591797 h -42.38282 v 8.007813 h 34.76563 V 126.61133 Z M 445.80078,94.091797 h -26.41601 v 9.814453 h 26.41601 z m 7.71484,0 v 9.814453 h 27.05079 v -9.814453 z m -7.71484,15.917973 h -26.41601 v 10.30273 h 26.41601 z m 7.71484,0 v 10.30273 h 27.05079 v -10.30273 z m 91.94336,-21.044926 q 0,7.324218 -0.92773,17.041016 h 39.4043 q -0.6836,32.91016 -3.75977,43.60351 -1.26953,4.49219 -4.83398,6.34766 -3.02735,1.5625 -9.08203,1.5625 -8.39844,0 -15.33204,-0.92773 l -1.31836,-8.00782 q 10.15625,1.31836 16.3086,1.31836 4.05273,0 5.32226,-1.70898 1.07422,-1.46484 2.14844,-8.49609 1.5625,-9.96094 2.14844,-26.70899 h -31.93359 q -1.80665,11.37695 -5.76172,19.28711 -7.91016,15.91797 -26.02539,25.73242 l -5.61524,-6.29883 q 19.38477,-10.15625 25.58594,-26.36718 5.17578,-13.57422 5.56641,-36.376956 h -33.54493 v -7.177735 h 41.69922 V 64.501953 h 8.00781 v 17.285156 h 42.67579 v 7.177735 z m 113.23243,-3.66211 V 64.501953 h 7.71484 v 20.800781 h 27.7832 v 40.478516 h -27.7832 v 33.69141 h -7.71484 v -33.69141 h -26.9043 V 85.302734 Z m -19.38477,6.982422 v 26.513674 h 19.38477 V 92.285156 Z m 47.26563,26.513674 V 92.285156 H 666.40625 V 118.79883 Z M 621.77734,86.621094 q -6.54297,-8.34961 -15.2832,-15.527344 l 5.32227,-5.273438 q 8.30078,6.201172 15.67382,14.990235 z m -3.66211,25.488286 q -7.66601,-8.8379 -15.91796,-15.527349 l 5.41992,-5.46875 q 8.39843,6.201172 16.16211,14.990239 z m -13.7207,40.57617 q 9.52149,-12.69532 17.48047,-32.86133 l 6.29883,5.07812 q -7.32422,19.14063 -17.08985,33.69141 z"></path>
</svg>
