<svg xmlns="http://www.w3.org/2000/svg" id="svg1" version="1.1" height="200" width="1096">
  <defs id="defs1"></defs>
  <rect id="rect1" stroke="none" fill="none" height="200" width="1096" y="0" x="0"></rect>
  <path aria-label="有明海" style="font-weight:bold;font-size:110px;font-family:'BIZ UDPGothic';fill:#ff0000" id="text1" d="m 38.94043,91.347656 h 53.603515 v 58.222654 q 0,5.10254 -2.041015,7.41211 -2.470703,2.84668 -9.667969,2.84668 -8.271484,0 -17.885742,-0.69824 l -2.416992,-10.90332 q 10.097656,1.02051 16.65039,1.02051 2.416992,0 2.954102,-0.91309 0.375976,-0.69824 0.375976,-2.63184 v -9.66796 H 38.295898 v 24.43847 H 26.210937 v -54.0332 q -8.432617,8.16406 -17.2949214,13.96484 l -7.3583984,-9.3457 Q 16.972656,101.92871 28.413086,86.728516 30.883789,83.398437 33.139648,79.262695 H 3.4375 v -9.882812 h 34.213867 q 2.685547,-6.982422 4.458008,-14.072266 l 12.568359,1.396485 q -2.041015,7.089843 -4.189453,12.675781 h 55.913089 v 9.882812 H 46.083984 l -0.537109,1.020508 q -3.276367,6.391602 -6.606445,11.064453 z m -0.644532,9.453124 v 8.37891 h 42.216797 v -8.37891 z m 0,17.1875 v 9.23828 h 42.216797 v -9.23828 z m 138.251952,3.9209 q -0.80566,11.33301 -4.35058,19.71191 -4.35059,10.3125 -15.89844,19.49707 l -8.70117,-8.70117 q 7.68066,-5.26367 11.54785,-11.8164 6.28418,-10.63477 6.28418,-28.4668 V 59.926758 h 46.62109 v 89.213862 q 0,5.8545 -3.06152,8.27149 -2.47071,1.93359 -8.11035,1.93359 -7.89551,0 -15.52246,-0.64453 l -1.98731,-11.54785 q 7.25098,1.18164 13.42773,1.18164 2.52442,0 3.16895,-1.23535 0.42969,-0.85938 0.42969,-2.63184 v -22.55859 z m 0.42969,-9.88281 h 23.41797 V 95.751953 h -23.41797 v 15.200197 q 0,0.85937 0,1.07422 z m 0,-26.049808 h 23.41797 V 70.400391 H 176.97754 Z M 157.10449,60.249023 v 75.571287 h -28.41308 v 10.7959 H 117.03613 V 60.249023 Z M 128.69141,70.34668 v 22.128906 h 17.29492 V 70.34668 Z m 0,31.58203 v 23.52539 h 17.29492 V 101.92871 Z M 317.7002,85.117187 q 0,2.524415 -0.4834,23.955083 h 10.25879 v 9.66796 h -10.47364 q -0.16113,7.03614 -0.69824,15.95215 h 9.07715 v 9.45313 h -9.77539 q -0.64453,7.78808 -1.77246,10.3125 -2.52442,6.01562 -12.2461,6.01562 -6.23046,0 -11.49414,-0.91308 L 288.10547,150 q 7.57324,1.07422 11.60156,1.07422 3.27637,0 3.9209,-2.30957 0.32227,-1.12793 0.59082,-4.61914 h -38.24219 q -0.0537,0.42969 -0.16113,0.91308 -0.4834,2.84668 -0.91309,5.3711 l -11.11816,-1.07422 q 3.27637,-19.38965 4.4043,-29.32617 l 0.16113,-1.28907 h -10.74219 v -9.66796 h 11.87012 q 1.50391,-12.998051 2.57812,-23.955083 z m -33.94532,9.345704 h -11.76269 q -0.16114,2.739257 -0.9668,11.547849 l -0.32227,3.06153 h 11.92383 l 0.16114,-1.50391 q 0.10742,-1.55762 0.32226,-4.35059 0.53711,-7.519528 0.64453,-8.754879 z m 10.58106,0 q -0.26856,6.391599 -0.80567,14.125979 v 0.4834 h 12.62207 q 0.21485,-7.3584 0.37598,-14.609379 z m -12.56836,24.277339 h -12.08496 q -0.80567,6.55274 -1.71875,12.94434 l -0.42969,3.00781 h 12.56836 q 1.28906,-11.65527 1.66504,-15.95215 z m 11.01074,0 q -0.16113,2.14844 -0.64453,7.08985 l -0.85938,8.8623 h 13.69629 q 0.26856,-5.20996 0.42969,-7.84179 0.32227,-5.74707 0.42969,-8.11036 z M 271.72363,65.727539 h 51.88477 v 9.990234 h -56.34278 q -4.35058,8.862305 -11.06445,16.865235 l -7.68066,-8.378906 Q 259.10156,71.796875 263.55957,55.629883 L 275,56.811523 q -1.93359,5.585938 -3.27637,8.916016 z m -29.59472,15.629883 q -6.60645,-9.077149 -16.05957,-17.026367 l 8.11035,-7.841797 q 8.75488,6.445312 16.65039,16.274414 z M 238.26172,109.7168 Q 230.09766,99.243164 221.77246,92.15332 l 8.37891,-8.05664 q 9.3457,7.358398 16.81152,16.75781 z m -14.60938,42.16308 q 9.34571,-12.94433 17.72461,-34.10644 l 9.56055,6.82129 q -6.98242,19.55078 -17.93945,35.8789 z"></path>
</svg>
