<svg xmlns="http://www.w3.org/2000/svg" id="svg1" version="1.1" height="200" width="990">
  <defs id="defs1"></defs>
  <rect id="rect1" stroke="none" fill="none" height="200" width="990" y="0" x="0"></rect>
  <path aria-label="相模湾" style="font-size:100px;font-family:'BIZ UDPGothic';fill:#ff0000" id="text1" d="m 19.628906,108.78906 q -5.175781,15.9668 -13.7207029,28.75977 L 1.8066406,129.98047 Q 13.671875,113.62305 18.75,93.164062 H 3.3203125 V 86.181641 H 19.628906 V 64.501953 h 7.519531 v 21.679688 h 13.378907 v 6.982421 H 27.148437 v 9.423828 q 7.617188,5.9082 14.990235,13.67188 l -4.394531,6.88476 q -4.101563,-5.37109 -10.595704,-12.10937 v 48.4375 H 19.628906 Z M 91.015625,69.921875 v 89.160155 h -7.617188 v -8.69141 H 53.125 v 8.69141 H 45.800781 V 69.921875 Z M 53.125,76.708984 V 94.189453 H 83.398437 V 76.708984 Z m 0,24.072266 v 17.33398 h 30.273437 v -17.33398 z m 0,23.92578 v 18.79883 h 30.273437 v -18.79883 z m 63.86719,-15.33203 -0.24414,0.87891 q -4.54102,14.55078 -11.76758,26.51367 l -3.4668,-8.00781 q 10.30274,-16.3086 14.69727,-35.888676 H 102.7832 v -6.982422 h 14.20899 V 64.501953 h 7.42187 v 21.386719 h 10.49805 v 6.982422 h -10.49805 v 9.277346 q 6.98242,5.9082 12.69531,12.01172 l -4.10156,6.59179 q -4.10156,-5.66406 -8.59375,-10.54687 v 49.26758 h -7.42187 z m 62.59765,-23.876953 h 11.23047 v 34.130863 h -22.90039 v 7.56836 h 29.58985 v 6.49414 h -27.34375 q 9.57031,13.52539 27.63671,18.89648 l -4.19921,6.68945 q -18.84766,-6.15234 -28.51563,-21.92382 -7.03125,16.30859 -29.98047,22.46093 l -4.29687,-6.20117 q 11.66992,-2.68555 18.50586,-7.32422 6.73828,-4.58984 10.20507,-12.59765 h -27.34375 v -6.49414 h 28.32032 v -7.56836 H 139.59961 V 85.498047 h 10.5957 V 78.90625 h -16.40625 v -6.396484 h 16.40625 v -8.007813 h 7.12891 v 8.007813 h 15.08789 v -8.007813 h 7.17773 v 8.007813 h 16.55274 v 6.396484 h -16.55274 z m -7.17773,0 V 78.90625 h -15.08789 v 6.591797 z m 10.98633,6.005859 h -36.47461 v 8.007813 h 36.47461 z m -36.47461,13.818364 v 8.39843 h 36.47461 v -8.39843 z M 265.08789,73.583984 h 32.12891 v 6.298828 h -23.38868 v 19.189454 q 0,3.076174 -1.5625,4.492184 -1.5625,1.41602 -5.66406,1.41602 -5.02929,0 -8.49609,-0.48828 l -1.12305,-6.298831 q 4.39453,0.683594 7.4707,0.683594 1.61133,0 1.9043,-1.171875 0.14649,-0.537109 0.14649,-1.416016 v -16.40625 h -10.64454 q -0.43945,9.91211 -2.24609,14.794922 -2.63672,6.982426 -12.01172,11.914066 l -5.07812,-4.83399 q 8.49609,-4.052732 10.69336,-10.058591 1.46484,-4.003907 1.61132,-11.816407 h -21.82617 v -6.298828 h 30.32227 v -9.082031 h 7.76367 z m 24.60938,35.009766 v 18.79883 h -49.60938 q -0.53711,3.90625 -1.31836,7.32422 h 55.32227 q -0.97657,12.30468 -3.41797,18.01757 -1.66016,3.95508 -5.95703,5.56641 -3.32032,1.2207 -9.22852,1.2207 -7.91016,0 -15.86914,-0.78125 l -1.70898,-7.03125 q 10.69336,1.12305 17.48046,1.12305 4.19922,0 5.66407,-0.97656 2.58789,-1.70899 4.15039,-11.03516 h -47.94922 q -0.73242,2.68555 -1.66016,5.71289 l -7.71484,-1.80664 q 2.92969,-8.64258 5.32226,-23.24218 h 48.68165 v -6.98243 h -52.39258 v -5.9082 z M 219.18945,86.083984 q -6.29883,-8.349609 -13.96484,-15.08789 l 5.37109,-4.980469 q 7.37305,5.810547 14.20899,14.501953 z m -3.07617,25.439456 q -7.4707,-9.13086 -14.50195,-15.136721 l 5.32226,-5.273438 q 7.56836,6.103516 14.79493,14.501949 z m -12.30469,41.69922 q 8.4961,-12.74414 15.91797,-33.39844 l 6.00586,4.39453 q -6.39648,19.28711 -15.42969,34.66797 z m 87.89063,-50.14649 Q 284.86328,93.261719 276.9043,85.791016 l 5.32226,-3.90625 q 9.08203,7.666015 15.28321,16.699218 z m -69.28711,-4.589842 q 8.44726,-6.054687 13.62305,-15.478516 l 6.29882,2.587891 q -5.22461,10.546875 -14.50195,17.480467 z"></path>
</svg>
