<svg xmlns="http://www.w3.org/2000/svg" id="svg1" version="1.1" height="200" width="990">
  <defs id="defs1"></defs>
  <rect id="rect1" stroke="none" fill="none" height="200" width="990" y="0" x="0"></rect>
  <path aria-label="根室地方北部" style="font-size:100px;font-family:'BIZ UDPGothic';fill:#ff0000" id="text1" d="M 19.091797,109.0332 Q 13.867188,124.75586 5.7128906,137.45117 L 1.6113281,129.88281 Q 13.525391,113.18359 18.164062,93.164062 H 3.1738281 V 86.181641 H 19.091797 V 64.501953 h 7.519531 v 21.679688 h 12.695313 v 6.982421 H 26.611328 v 9.521488 q 7.568359,5.71289 14.599609,13.3789 l -4.296875,6.78711 q -5.224609,-6.78711 -9.667968,-11.18164 -0.341797,-0.34179 -0.634766,-0.63476 v 48.4375 h -7.519531 z m 51.5625,3.95508 q 1.953125,9.0332 5.273437,15.72266 8.203125,-7.42188 14.59961,-15.42969 l 5.761718,5.61523 q -8.300781,8.78907 -17.138671,15.38086 0.195312,0.29297 0.390625,0.58594 6.103515,9.13086 18.554687,16.30859 l -4.785156,7.03125 q -10.9375,-6.68945 -17.529297,-15.625 -8.837891,-11.96289 -12.304688,-29.58984 H 51.611328 v 35.5957 l 0.585938,-0.14648 q 10.449218,-2.97852 19.384765,-6.64063 l 0.927735,6.68946 q -14.990235,6.73828 -33.007813,11.08398 l -2.832031,-7.37304 q 3.90625,-0.78125 6.005859,-1.31836 1.074219,-0.24414 1.513672,-0.3418 V 68.505859 h 45.3125 V 112.98828 Z M 82.080078,75 h -30.46875 v 12.5 h 30.46875 z m 0,18.701172 h -30.46875 v 13.183598 h 30.46875 z M 153.51562,75.097656 h 39.79493 v 18.798828 h -7.8125 V 81.494141 h -71.28907 v 12.402343 h -7.8125 V 75.097656 h 39.30664 V 64.501953 h 7.8125 z m -11.23046,22.119141 q -0.24414,0.341797 -0.39063,0.634765 -3.95508,6.249998 -10.79101,13.720708 l 4.98046,-0.0488 q 11.2793,-0.19531 26.12305,-0.87891 l 11.08399,-0.48828 q -4.93165,-4.6875 -9.96094,-8.93555 l 6.20117,-3.613278 q 8.69141,6.933598 18.50586,16.796878 l 2.58789,2.58789 -6.20117,4.6875 q -2.88086,-3.27149 -5.27344,-5.71289 l -0.63477,-0.6836 q -2.7832,0.24414 -25,1.66016 v 12.93945 h 34.32618 v 6.49414 h -34.32618 v 12.93946 h 42.57813 v 6.49414 h -92.38281 v -6.49414 h 41.99218 v -12.93946 h -33.59374 v -6.49414 h 33.59374 v -12.45117 l -5.37109,0.24414 q -11.91406,0.48828 -26.61133,0.83008 l -2.39257,-6.68945 q 6.39648,0 11.08398,-0.0977 5.76172,-6.39648 11.03516,-14.501953 h -16.16211 v -6.494141 h 65.23437 v 6.494141 z m 106.93359,6.005863 v 40.86914 q 0,4.05273 2.39258,4.98047 2.58789,0.97656 16.45508,0.97656 13.42773,0 17.38281,-0.92774 2.7832,-0.68359 3.56445,-3.22265 1.2207,-4.00391 1.26953,-12.40235 l 7.51953,2.78321 q -0.68359,13.23242 -3.51562,16.79687 -2.24609,2.92969 -7.27539,3.4668 -7.66602,0.78125 -20.75195,0.78125 -12.45118,0 -16.74805,-0.83008 -5.3711,-1.07422 -6.83594,-4.88281 -0.78125,-2.09961 -0.78125,-5.51758 v -40.38086 l -10.49805,3.56445 -1.90429,-6.98242 12.40234,-4.150389 v -26.5625 h 7.32422 v 24.072266 l 12.8418,-4.345703 V 64.501953 h 7.32422 v 24.365234 l 18.01757,-6.054687 4.39453,2.392578 v 35.986332 q 0,3.51562 -1.66015,5.32226 -1.95313,2.09961 -6.83594,2.09961 -3.95508,0 -7.71484,-0.53711 l -1.26953,-6.98242 q 3.71093,0.68359 6.93359,0.68359 2.44141,0 2.97852,-1.07421 0.39062,-0.73243 0.39062,-2.29493 V 91.113281 l -15.23437,5.175781 v 39.794918 h -7.32422 V 98.779297 Z M 216.50391,88.916016 V 65.136719 h 7.71484 v 23.779297 h 10.79102 v 7.177734 h -10.79102 v 34.96094 q 5.12695,-1.75782 11.71875,-4.44336 l 0.78125,6.88476 q -14.94141,6.88477 -32.03125,12.10938 l -2.7832,-7.61719 q 6.78711,-1.85547 14.59961,-4.3457 V 96.09375 h -13.28125 v -7.177734 z m 128.95507,0.04883 q 0,7.324218 -0.92773,17.041016 h 39.4043 q -0.6836,32.91016 -3.75977,43.60351 -1.26953,4.49219 -4.83398,6.34766 -3.02735,1.5625 -9.08203,1.5625 -8.39844,0 -15.33204,-0.92773 l -1.31836,-8.00782 q 10.15625,1.31836 16.3086,1.31836 4.05273,0 5.32226,-1.70898 1.07422,-1.46484 2.14844,-8.49609 1.5625,-9.96094 2.14844,-26.70899 h -31.93359 q -1.80665,11.37695 -5.76172,19.28711 -7.91016,15.91797 -26.02539,25.73242 l -5.61524,-6.29883 q 19.38477,-10.15625 25.58594,-26.36718 5.17578,-13.57422 5.56641,-36.376956 h -33.54493 v -7.177735 h 41.69922 V 64.501953 h 8.00781 v 17.285156 h 42.67579 v 7.177735 z m 85.15625,43.847656 q -11.42578,6.25 -25.09765,11.81641 l -3.51563,-7.71485 q 17.33399,-6.15234 28.61328,-11.96289 V 98.535156 h -25.63476 v -7.421875 h 25.63476 V 65.527344 h 8.00782 v 93.212886 h -8.00782 z M 462.01172,97.949219 Q 475,91.845703 487.30469,81.591797 l 6.20117,6.103515 Q 478.36914,98.779297 462.01172,105.9082 v 38.1836 q 0,3.07617 2.24609,3.71093 1.80664,0.53711 10.35156,0.53711 8.05665,0 10.35157,-1.12304 1.66015,-0.83008 2.24609,-4.29688 0.68359,-4.44336 1.07422,-14.84375 l 7.91016,2.73438 q -0.58594,16.01562 -2.2461,19.9707 -1.61133,3.90625 -7.03125,4.88281 -4.63867,0.83008 -13.52539,0.83008 -12.10937,0 -15.42969,-1.5625 -3.95507,-1.85547 -3.95507,-7.91016 V 65.478516 h 8.00781 z m 71.97265,-21.337891 h 21.82618 v 6.787109 h -7.03125 q -2.05078,9.13086 -5.61524,18.701173 h 14.45313 v 6.88477 h -55.12696 v -6.88477 h 13.72071 l -0.0977,-0.48828 Q 514.0625,91.601562 511.71875,84.423828 l -0.3418,-1.025391 h -7.08008 v -6.787109 h 22.2168 V 64.501953 h 7.4707 z m -15.13671,6.787109 q 2.58789,7.958985 4.73632,18.701173 h 12.15821 q 2.92968,-8.105469 5.32226,-18.701173 z m 31.83593,35.888673 v 39.30664 h -7.32422 v -5.51758 h -25.97656 v 6.39649 h -7.56836 v -40.18555 z m -33.30078,6.68945 v 20.3125 h 25.97656 v -20.3125 z m 65.42969,-22.70508 q 12.8418,13.57422 12.8418,29.44336 0,5.56641 -2.00196,8.39844 -2.4414,3.27149 -8.49609,3.27149 -5.81055,0 -10.69336,-0.6836 l -1.61133,-7.61719 q 6.25,1.02539 10.15625,1.02539 3.71094,0 4.39453,-2.49023 0.29297,-1.07422 0.29297,-3.51562 0,-13.72071 -12.64648,-26.70899 5.85937,-12.695311 9.52148,-26.708983 h -15.42969 v 81.787113 h -7.37304 V 70.507812 h 27.49023 l 4.39453,3.808594 q -5.37109,17.382813 -10.83984,28.955074 z"></path>
</svg>
