<svg xmlns="http://www.w3.org/2000/svg" id="svg1" version="1.1" height="200" width="1096">
  <defs id="defs1"></defs>
  <rect id="rect1" stroke="none" fill="none" height="200" width="1096" y="0" x="0"></rect>
  <path aria-label="西表島付近" style="font-weight:bold;font-size:110px;font-family:'BIZ UDPGothic';fill:#ff0000" id="text1" d="M 35.395508,86.621094 V 71.582031 H 3.3837891 V 61.21582 H 106.66992 V 71.582031 H 71.166992 V 86.621094 H 101.29883 V 159.02344 H 89.643555 V 151.4502 H 20.302734 v 7.57324 H 8.7548828 V 86.621094 Z m 11.118164,0 H 60.048828 V 71.582031 H 46.513672 Z m -11.171875,9.77539 H 20.302734 V 141.24512 H 89.643555 V 125.13184 H 69.287109 q -9.238281,0 -9.238281,-9.23829 V 96.396484 H 46.40625 q -0.214844,13.212896 -3.974609,21.162106 -3.544922,7.57325 -13.964844,14.98536 l -7.41211,-8.27149 q 9.990235,-6.12305 12.622071,-15.14648 1.396484,-4.83399 1.665039,-12.729496 z m 35.825195,0 v 16.435546 q 0,2.09473 1.879883,2.09473 h 16.59668 V 96.396484 Z m 109.624028,41.518556 0.75195,9.61426 q -23.31055,8.21777 -51.83106,13.53515 l -3.97461,-10.74218 q 4.94141,-0.75196 13.96485,-2.417 v -19.6582 q -9.29199,4.72656 -22.12891,8.96973 l -6.12304,-9.56055 q 25.83496,-6.98242 39.42382,-17.83203 h -38.34961 v -9.3457 h 46.03028 V 92.368164 H 123.75 v -9.023437 h 34.80469 v -7.573243 h -40.28321 v -9.238281 h 40.28321 V 55.952148 h 11.76269 v 10.581055 h 41.46485 v 9.238281 h -41.46485 v 7.573243 h 35.98633 v 9.023437 h -35.98633 v 8.110356 h 47.21192 v 9.3457 h -12.83692 l 7.94922,5.47851 q -7.3584,7.14356 -20.625,15.62989 l -1.23535,0.80566 q 10.09766,9.23828 27.39258,15.25391 l -7.25098,10.90332 q -18.74512,-7.94922 -30.13183,-19.98047 z M 164.5166,109.98535 q -5.37109,6.28418 -12.94433,11.2793 v 24.11621 q 13.2666,-2.9541 26.64062,-6.875 l 2.4707,-0.69824 Q 169.67285,125.61523 164.5166,109.98535 Z m 19.60449,14.66309 q 9.56055,-6.82129 16.75782,-14.82422 h -25.40528 q 3.4375,8.21777 8.64746,14.82422 z m 78.47168,-60.532229 q 1.98731,-4.780274 3.22266,-9.130859 l 13.10547,1.77246 q -1.87988,4.458008 -3.4375,7.358399 h 35.77148 v 35.019531 h -64.88281 v 5.424808 h 80.83496 v 8.70117 h -80.83496 v 5.47851 h 77.0752 q -0.69825,24.59961 -3.11524,33.19336 -1.55762,5.47852 -5.85449,7.25098 -3.06152,1.28906 -9.3457,1.28906 -6.44532,0 -12.03125,-0.80566 l -2.14844,-9.02344 h -53.81836 v 5.96192 h -11.54785 v -25.83497 h 11.54785 v 11.06446 h 18.47656 v -14.50196 h -21.1084 V 64.116211 Z m 22.82715,77.719729 v -11.06446 h 11.11817 v 18.69141 q 4.458,0.42969 7.41211,0.42969 3.65234,0 4.56542,-2.09473 1.77247,-3.9209 2.79297,-20.46387 H 267.1582 v 14.50196 z M 246.37207,72.387695 v 5.317383 h 53.0127 v -5.317383 z m 0,12.998047 v 5.854492 h 53.0127 v -5.854492 z m 113.54492,0.59082 V 160.47363 H 348.26172 V 105.3125 q -4.35059,6.12305 -10.09766,12.67578 l -6.06933,-11.54785 q 10.90332,-12.084961 18.6914,-28.144532 4.72657,-9.721679 9.45313,-23.203125 l 11.22558,3.061524 q -4.88769,14.716797 -11.54785,27.822265 z M 421.09375,81.25 h 16.16699 v 10.795898 h -16.16699 v 56.396482 q 0,7.08985 -3.4375,9.45313 -2.52441,1.77246 -9.50684,1.77246 -8.54004,0 -17.50976,-0.9668 l -2.30957,-11.76269 q 9.56054,1.39648 17.83203,1.39648 2.25586,0 2.73926,-0.9668 0.32226,-0.69824 0.32226,-2.30957 V 92.045898 H 365.28809 V 81.25 h 43.93554 V 57.832031 h 11.87012 z m -33.99902,52.0459 q -6.06934,-16.16699 -14.98536,-29.48731 l 10.25879,-5.96191 q 9.66797,14.2334 15.52246,29.16504 z m 83.25195,2.73926 q 4.29687,4.99511 9.66797,7.41211 8.80859,3.9746 23.0957,3.9746 h 45.76172 q -1.93359,3.65235 -3.59863,10.47364 h -42.7002 q -18.47656,0 -28.30566,-5.80078 -4.02832,-2.417 -8.86231,-7.89551 -0.37597,0.42969 -0.91308,1.07422 -7.89551,9.3457 -15.6836,15.2539 l -6.49902,-11.01074 q 8.54004,-5.10254 16.48926,-11.54785 v -26.5332 h -15.62988 v -10.58106 h 27.17773 z m 13.96484,-71.274418 2.84668,-0.214844 q 24.86817,-1.71875 44.6875,-7.358398 l 8.37891,9.453125 q -20.83984,5.478516 -44.47266,7.412109 v 13.911133 h 49.73633 V 98.4375 h -18.04687 v 43.77441 H 515.57129 V 98.4375 h -19.81934 q -0.26855,17.24121 -2.57812,27.44629 -2.09473,9.39941 -6.875,16.86523 l -9.88281,-7.46582 q 5.31738,-8.27148 6.82128,-20.51757 1.07422,-8.43262 1.07422,-22.934575 z M 464.43848,85.761719 Q 456.2207,74.160156 446.71387,64.975586 l 8.80859,-7.036133 q 9.23828,7.734375 18.58399,19.658203 z"></path>
</svg>
