<svg xmlns="http://www.w3.org/2000/svg" id="svg1" version="1.1" height="200" width="1096">
  <defs id="defs1"></defs>
  <rect id="rect1" stroke="none" fill="none" height="200" width="1096" y="0" x="0"></rect>
  <path aria-label="石川県能登地方" style="font-weight:bold;font-size:110px;font-family:'BIZ UDPGothic';fill:#ff0000" id="text1" d="M 36.630859,102.14355 H 97.96875 v 58.33008 H 85.561523 v -7.41211 H 33.837891 v 7.41211 H 21.645508 v -39.74609 q -6.660156,6.60644 -14.2871096,12.62207 L 0.75195312,123.03711 Q 15.46875,112.77832 25.78125,97.524414 33.78418,85.654297 38.295898,72.924805 H 5.3710937 V 62.236328 H 105.05859 V 72.924805 H 51.455078 q -5.74707,15.522461 -14.824219,29.218745 z m -2.792968,10.47364 v 29.75586 H 85.561523 V 112.61719 Z M 126.16699,60.356445 h 12.89063 v 36.308594 q 0,22.504881 -2.52442,34.428711 -2.36328,11.01074 -8.00293,19.71191 -1.9873,3.11524 -5.47851,7.25098 l -10.20508,-8.70117 q 9.66797,-10.25879 12.03125,-27.23145 1.28906,-9.07714 1.28906,-23.68652 z m 34.10645,1.665039 h 12.51465 v 87.441406 h -12.51465 z m 35.28808,-4.296875 H 208.2373 V 159.23828 h -12.67578 z m 116.60645,0.859375 V 110.62988 H 248.25195 V 58.583984 Z m -52.36817,8.486328 v 6.713868 h 40.7129 v -6.713868 z m 0,14.28711 v 6.713867 h 40.7129 v -6.713867 z m 0,14.287109 v 6.928709 h 40.7129 v -6.928709 z m -21.6455,22.128909 h 89.05273 v 9.3457 h -44.41894 v 33.35449 H 270.5957 V 127.11914 H 226.3916 V 66.855469 h 11.7627 z m -13.75,32.4414 q 12.7832,-5.9082 24.43847,-19.81933 l 9.88282,5.74707 q -11.49414,14.55566 -25.5127,22.88086 z m 92.59765,6.92871 q -8.21777,-10.09765 -24.70703,-21.21582 l 9.23828,-6.49902 q 12.94434,7.46582 25.40528,19.60449 z m 23.74024,-76.645503 q 6.71386,-11.762695 11.22558,-24.975586 l 12.08496,2.524414 q -5.20996,12.138672 -11.54785,22.128906 3.27637,-0.161133 10.09766,-0.483398 0.59082,0 8.16406,-0.483399 l -0.32226,-0.537109 q -2.417,-4.135742 -5.58594,-8.754883 l 9.13086,-4.511719 q 9.39941,12.192383 14.82422,23.310547 l -10.3125,5.639649 q -1.39649,-3.007813 -3.22266,-6.767578 -16.97266,2.094726 -41.46484,3.222656 l -2.73926,-10.097656 q 2.09473,0 9.66797,-0.214844 z m 40.39062,17.026367 v 52.583006 q 0,5.53223 -2.63183,7.62695 -2.36328,1.87989 -8.11036,1.87989 -5.9082,0 -10.79589,-0.69824 l -1.77246,-10.15137 q 6.66015,0.80566 9.77539,0.80566 1.9873,0 2.36328,-0.80566 0.26855,-0.64453 0.26855,-1.98731 v -9.77539 h -21.00097 v 23.47168 H 338.11035 V 97.524414 Z m -31.90429,8.808596 v 7.03613 h 21.00097 v -7.03613 z m 0,15.09277 v 7.51953 h 21.00097 v -7.51953 z m 52.36816,-49.199218 q 12.51465,-4.565429 23.84766,-11.225585 l 8.05664,8.164062 q -16.27442,8.59375 -31.9043,12.890625 v 9.077148 q 0,2.685547 1.55762,3.168946 Q 405.30273,95 413.73535,95 q 7.25098,0 9.02344,-1.611328 1.39648,-1.289063 1.82617,-9.72168 0.0537,-1.611328 0.10742,-2.524414 l 11.33301,2.739258 q -0.42969,14.501953 -3.27637,17.670894 -1.82617,2.04102 -6.06933,2.84668 -5.42481,1.07422 -15.84473,1.07422 -13.05176,0 -17.02637,-1.93359 -3.75976,-1.87988 -3.75976,-8.110353 V 55.952148 h 11.54785 z m 0,52.314458 q 12.56836,-4.18946 25.72754,-11.60157 l 7.51953,8.91602 q -17.45605,8.75488 -33.24707,12.67578 v 9.61426 q 0,3.49121 2.25586,4.13574 1.71875,0.53711 8.8623,0.53711 9.99024,0 11.38672,-1.71875 1.50391,-1.82617 1.9336,-13.80371 l 11.44043,3.06152 q -0.10743,15.95215 -4.83399,19.87305 -4.13574,3.4375 -20.89355,3.4375 -13.2666,0 -17.56348,-2.14844 -4.13574,-1.9873 -4.13574,-8.05664 v -40.49805 h 11.54785 z M 521.37207,79.155273 q 6.82129,-4.941406 13.75,-12.890625 l 8.80859,5.854493 q -6.01562,6.391601 -13.85742,11.870117 7.3584,3.652344 18.26172,7.519531 l -5.85449,9.453121 Q 528.46191,95.537109 517.98828,89.25293 v 6.660156 h -46.19141 v -4.619141 q -10.74218,6.875 -25.67382,12.568355 l -5.58594,-9.184566 q 14.28711,-4.61914 23.63281,-10.205078 l -0.53711,-0.429687 q -7.14355,-5.800782 -14.71679,-10.151367 l 8.21777,-7.143555 q 9.8291,6.28418 15.89844,11.601562 6.28418,-5.263672 10.36621,-10.634765 h -23.95508 v -9.345703 h 39.85351 q 4.45801,6.015625 9.23829,10.742187 l 1.12793,-0.966797 q 5.85449,-5.048828 10.84961,-10.849609 l 8.59375,6.230469 q -5.47852,5.371093 -13.69629,11.49414 2.73925,2.041016 5.96191,4.135742 z m -43.77441,8.056641 h 37.11425 q -12.08496,-7.895508 -19.92675,-17.509766 -6.23047,8.378907 -12.51465,13.75 -1.98731,1.71875 -4.67285,3.759766 z m 45.33203,46.191406 q -2.47071,6.44531 -7.03614,14.82422 h 30.66895 v 9.56055 H 443.49121 v -9.56055 h 28.73535 q -3.70605,-9.13086 -6.66015,-14.82422 h -8.43262 v -29.27246 h 75.57129 v 29.27246 z m -12.78321,0 h -31.79687 q 3.27637,7.08984 5.53223,14.12598 l 0.16113,0.69824 h 20.03418 l 0.37597,-0.80567 q 3.86719,-8.32519 5.69336,-14.01855 z m -40.92773,-20.78613 v 12.40722 H 520.5127 V 112.61719 Z M 606.28906,99.458008 v 42.539062 q 0,4.13574 3.54492,4.99512 3.65235,0.91308 16.70411,0.91308 12.72949,0 16.81152,-1.28906 2.30957,-0.75195 3.00781,-4.18945 0.91309,-4.83399 0.9668,-11.44043 l 11.22558,3.16894 Q 657.69043,150 654.19922,154.4043 q -2.30957,2.90039 -6.98242,3.4375 -7.3584,0.80566 -24.97559,0.80566 -13.64258,0 -17.88574,-0.75195 -6.3916,-1.07422 -8.11035,-5.63965 -0.85938,-2.41699 -0.85938,-6.44531 v -42.59278 l -10.25879,3.54493 -2.52441,-10.419927 12.7832,-4.404296 V 62.988281 h 10.90332 v 25.19043 l 11.54785,-3.920899 V 55.952148 h 10.7959 v 24.545899 l 17.99317,-6.176758 5.63964,3.4375 v 40.229491 q 0,4.18945 -1.9873,6.23047 -2.25586,2.25586 -7.57324,2.25586 -4.35059,0 -9.23828,-0.75195 l -1.77246,-10.25879 q 3.16894,0.80566 6.44531,0.80566 2.36328,0 2.90039,-0.9668 0.53711,-0.80566 0.53711,-2.68554 V 87.211914 l -12.94434,4.511719 v 43.452147 h -10.7959 V 95.429687 Z M 566.81152,81.894531 V 55.952148 h 11.54785 v 25.942383 h 10.41993 v 10.903321 h -10.41993 v 34.160158 q 5.63965,-1.9336 11.17188,-4.02832 l 1.02051,10.36621 q -17.40235,7.94922 -35.71778,13.32031 l -3.75976,-11.44043 q 8.27148,-2.14844 14.50195,-4.08203 0.75195,-0.26855 1.23535,-0.37598 V 92.797852 H 553.16895 V 81.894531 Z m 145.3418,3.007813 q -0.37598,8.969726 -1.07422,15.791016 h 43.29102 q -0.80567,37.27539 -4.18946,48.39355 -1.71875,5.58594 -6.3916,7.73438 -3.65234,1.66504 -10.68847,1.66504 -7.41211,0 -16.81153,-1.12793 l -2.09472,-12.08496 q 12.62207,1.77246 17.77832,1.77246 4.35058,0 5.53222,-2.4707 2.84668,-6.01563 3.97461,-33.19336 h -31.95801 q -1.77246,9.66796 -4.99511,16.75781 -8.96973,19.60449 -29.97071,31.09863 l -8.48632,-9.45312 q 21.05468,-10.95704 27.82226,-28.73536 4.51172,-11.87011 5.85449,-36.147456 H 664.18945 V 73.891602 h 43.88184 V 55.952148 h 12.40723 v 17.939454 h 45.33203 v 11.010742 z"></path>
</svg>
