<svg xmlns="http://www.w3.org/2000/svg" id="svg1" version="1.1" height="200" width="1096">
  <defs id="defs1"></defs>
  <rect id="rect1" stroke="none" fill="none" height="200" width="1096" y="0" x="0"></rect>
  <path aria-label="岐阜県飛騨地方" style="font-weight:bold;font-size:110px;font-family:'BIZ UDPGothic';fill:#ff0000" id="text1" d="m 84.648437,134.2627 q 10.903321,9.23828 24.384763,14.71679 l -6.3916,10.7959 Q 88.837891,153.11523 77.290039,141.99707 65.097656,153.81348 47.963867,161.06445 l -7.036133,-9.56054 Q 56.71875,146.66992 70.146484,134.37012 58.920898,120.94238 53.549805,106.81641 H 48.500977 V 96.450195 H 69.609375 V 81.948242 H 45.117187 V 141.83594 H 14.609375 v 9.3457 H 4.8339844 V 77.866211 H 14.072266 V 131.52344 H 20.03418 V 57.509766 h 9.77539 v 74.013674 h 6.176758 V 77.866211 h 7.680664 V 71.367187 H 69.609375 V 55.952148 H 80.942383 V 71.367187 H 107.36816 V 81.948242 H 80.942383 v 14.501953 h 17.080078 l 5.156249,5.317385 q -8.754882,20.83984 -18.530273,32.49512 z m -7.573242,-7.3584 q 8.647461,-11.38672 11.923828,-20.08789 H 64.614258 q 4.833984,11.54785 12.460937,20.08789 z M 158.6084,121.74805 H 123.42773 V 64.975586 h 30.23926 q 1.87988,-4.887695 2.9541,-9.667969 l 13.15918,1.772461 q -1.77246,3.920899 -4.02832,7.895508 h 37.97364 v 24.760742 h -68.53516 v 7.036133 h 73.04687 v 24.975589 h -37.65136 v 8.48632 h 46.88965 v 9.7754 h -46.88965 v 20.46386 H 158.6084 v -20.46386 h -45.97656 v -9.7754 H 158.6084 Z M 135.19043,73.569336 V 81.25 h 56.61133 v -7.680664 z m 0,31.796874 v 7.68067 h 61.23047 v -7.68067 z M 312.16797,58.583984 V 110.62988 H 248.25195 V 58.583984 Z m -52.36817,8.486328 v 6.713868 h 40.7129 v -6.713868 z m 0,14.28711 v 6.713867 h 40.7129 v -6.713867 z m 0,14.287109 v 6.928709 h 40.7129 v -6.928709 z m -21.6455,22.128909 h 89.05273 v 9.3457 h -44.41894 v 33.35449 H 270.5957 V 127.11914 H 226.3916 V 66.855469 h 11.7627 z m -13.75,32.4414 q 12.7832,-5.9082 24.43847,-19.81933 l 9.88282,5.74707 q -11.49414,14.55566 -25.5127,22.88086 z m 92.59765,6.92871 q -8.21777,-10.09765 -24.70703,-21.21582 l 9.23828,-6.49902 q 12.94434,7.46582 25.40528,19.60449 z m 92.70508,-85.991206 3.22266,1.289062 q 4.08203,-5.263672 7.3584,-11.547851 l 10.04394,5.048828 q -4.56543,6.391601 -8.59375,10.527344 3.65234,1.77246 9.45313,5.102539 l -3.59864,5.048828 9.07715,5.102539 q -0.69824,7.143554 -2.41699,10.795897 -2.25586,4.78027 -7.68066,4.78027 -4.13575,0 -10.20508,-2.68554 -8.96973,-4.02832 -13.69629,-13.266604 -3.54492,-7.036133 -4.08203,-21.430664 H 340.41992 V 59.819336 h 69.2334 l -0.0537,2.416992 v 0.537109 q 0,5.478516 0.10742,8.378907 z m 0.9668,9.506836 q 1.45019,6.767578 7.25097,11.708984 1.61133,1.342773 4.29688,2.792969 1.61133,0.859375 2.4707,0.859375 1.23535,0 1.71875,-2.309571 0.4834,-2.202148 0.75196,-6.552734 l -1.9336,2.685547 q -6.92871,-4.995117 -13.85742,-8.808594 z m -45.92285,23.25684 h 12.51464 V 72.441406 h 11.33301 v 31.474614 h 23.31055 q -0.21484,5.85449 -0.21484,9.45312 0,1.82617 0.0537,4.51172 0.42968,0.16113 0.75195,0.32227 0.26855,0.10742 0.64453,0.26855 3.22266,-3.9209 7.68067,-10.58105 l 9.56054,5.9082 q -3.06152,3.97461 -8.21777,8.91601 6.76758,3.54493 11.76269,6.82129 l -4.24316,6.3916 8.64746,4.94141 q -1.12793,8.96973 -3.4375,14.17969 -2.41699,5.53222 -7.62695,5.53222 -5.58594,0 -12.29981,-4.83398 -9.66797,-6.98242 -12.7832,-21.00098 -1.66504,-7.57324 -1.71875,-20.83984 h -11.87012 v 46.56738 h -11.33301 v -46.56738 h -12.56835 q -0.10743,12.83691 -3.27637,22.77344 -4.4043,13.69629 -16.7041,23.47168 l -8.59375,-8.16407 q 8.43261,-6.44531 12.35351,-14.50195 4.78028,-9.72168 4.99512,-23.5791 h -18.53027 v -9.99023 h 18.58398 V 88.447266 q -5.26367,1.879882 -12.51465,3.813476 l -6.06933,-8.486328 q 17.77832,-4.243164 33.30078,-12.783203 l 7.57324,7.197266 q -5.74707,3.330078 -11.06445,5.74707 z m 47.69531,23.41796 q 1.12793,9.34571 5.26367,14.98536 2.04102,2.79296 4.56543,4.40429 1.77246,1.12793 2.79297,1.12793 1.66504,0 2.25586,-3.00781 0.64453,-3.38379 1.02051,-6.98242 -0.64453,-0.4834 -1.66504,-1.18164 -8.11035,-5.80078 -14.2334,-9.34571 z m 77.45117,-19.01367 q -0.26855,31.09864 -2.68555,43.93555 -0.85937,4.83398 -3.92089,6.71387 -2.417,1.5039 -7.41211,1.5039 -6.17676,0 -10.36621,-0.69824 l -1.55762,-10.20508 q 5.37109,1.18164 10.04394,1.18164 2.90039,0 3.65235,-1.61133 1.07422,-2.20214 1.61133,-9.39941 l -4.51172,2.14844 q -1.9336,-12.35352 -4.4043,-20.46387 l 5.37109,-2.30957 q 2.79297,7.78809 3.9209,15.73731 0.37598,-6.82129 0.59082,-17.72461 H 445.9082 V 59.228516 h 43.88184 v 9.130859 h -15.25391 v 7.841797 h 12.08496 v 8.271484 h -12.08496 v 7.680664 h 12.08496 v 8.16406 h -12.08496 v 8.00293 z M 455.79102,68.359375 v 7.841797 h 9.72168 v -7.841797 z m 0,16.113281 v 7.680664 h 9.72168 v -7.680664 z m 0,15.844724 v 8.00293 h 9.72168 v -8.00293 z m 69.55566,-23.041989 q 4.45801,-9.667969 8.54004,-21.645508 l 10.68848,4.135742 q -4.24317,10.043945 -8.54004,17.509766 h 8.11035 v 44.794919 h -20.35645 v 7.94922 h 24.11621 v 10.09766 h -24.11621 v 20.24902 h -10.68847 v -20.24902 h -22.29004 v -10.09766 h 22.29004 v -7.94922 H 493.33496 V 77.275391 h 5.53223 q -0.21485,-0.53711 -0.37598,-1.020508 -3.33008,-9.453125 -6.92871,-15.253906 l 9.02344,-3.97461 q 4.67285,7.626953 7.68066,16.274414 l -8.8623,3.97461 z m 8.91602,8.59375 h -10.90333 v 9.453125 h 10.90333 z m -20.625,0 h -10.52735 v 9.453125 h 10.52735 z m 20.625,17.617189 h -10.90333 v 9.99023 h 10.90333 z m -20.625,0 h -10.52735 v 9.99023 h 10.52735 z m -72.6709,44.52637 q 2.90039,-11.7627 3.97461,-25.83497 l 7.68066,1.07422 q -0.42969,16.97266 -3.38379,30.02442 z m 14.17968,0 q -0.0537,-12.35352 -1.18164,-24.16993 L 460.08789,122.5 q 1.87988,10.95703 2.30957,23.74023 z m 10.47364,-2.84668 q -0.9668,-12.2461 -3.22266,-22.12891 l 5.42481,-1.87988 q 3.38378,10.63476 4.29687,22.02148 z m 48.82324,-68.642583 q -2.30957,-9.882812 -6.3916,-17.617187 l 9.23828,-3.491211 q 4.24316,7.573242 6.82129,17.026367 z m 91.8457,22.934571 v 42.539062 q 0,4.13574 3.54492,4.99512 3.65235,0.91308 16.70411,0.91308 12.72949,0 16.81152,-1.28906 2.30957,-0.75195 3.00781,-4.18945 0.91309,-4.83399 0.9668,-11.44043 l 11.22558,3.16894 Q 657.69043,150 654.19922,154.4043 q -2.30957,2.90039 -6.98242,3.4375 -7.3584,0.80566 -24.97559,0.80566 -13.64258,0 -17.88574,-0.75195 -6.3916,-1.07422 -8.11035,-5.63965 -0.85938,-2.41699 -0.85938,-6.44531 v -42.59278 l -10.25879,3.54493 -2.52441,-10.419927 12.7832,-4.404296 V 62.988281 h 10.90332 v 25.19043 l 11.54785,-3.920899 V 55.952148 h 10.7959 v 24.545899 l 17.99317,-6.176758 5.63964,3.4375 v 40.229491 q 0,4.18945 -1.9873,6.23047 -2.25586,2.25586 -7.57324,2.25586 -4.35059,0 -9.23828,-0.75195 l -1.77246,-10.25879 q 3.16894,0.80566 6.44531,0.80566 2.36328,0 2.90039,-0.9668 0.53711,-0.80566 0.53711,-2.68554 V 87.211914 l -12.94434,4.511719 v 43.452147 h -10.7959 V 95.429687 Z M 566.81152,81.894531 V 55.952148 h 11.54785 v 25.942383 h 10.41993 v 10.903321 h -10.41993 v 34.160158 q 5.63965,-1.9336 11.17188,-4.02832 l 1.02051,10.36621 q -17.40235,7.94922 -35.71778,13.32031 l -3.75976,-11.44043 q 8.27148,-2.14844 14.50195,-4.08203 0.75195,-0.26855 1.23535,-0.37598 V 92.797852 H 553.16895 V 81.894531 Z m 145.3418,3.007813 q -0.37598,8.969726 -1.07422,15.791016 h 43.29102 q -0.80567,37.27539 -4.18946,48.39355 -1.71875,5.58594 -6.3916,7.73438 -3.65234,1.66504 -10.68847,1.66504 -7.41211,0 -16.81153,-1.12793 l -2.09472,-12.08496 q 12.62207,1.77246 17.77832,1.77246 4.35058,0 5.53222,-2.4707 2.84668,-6.01563 3.97461,-33.19336 h -31.95801 q -1.77246,9.66796 -4.99511,16.75781 -8.96973,19.60449 -29.97071,31.09863 l -8.48632,-9.45312 q 21.05468,-10.95704 27.82226,-28.73536 4.51172,-11.87011 5.85449,-36.147456 H 664.18945 V 73.891602 h 43.88184 V 55.952148 h 12.40723 v 17.939454 h 45.33203 v 11.010742 z"></path>
</svg>
