<svg version="1.1" xmlns="http://www.w3.org/2000/svg" xmlns:xlink="http://www.w3.org/1999/xlink" width="1656.15616" height="144.14414" viewBox="0,0,1656.15616,144.14414"><g transform="translate(588.07807,-107.92794)"><g stroke="none" stroke-miterlimit="10"><path d="M-305.31636,215.32813h44.40625v11.32031h-106.42188v-11.32031h16.67969v-50.20312h12.52344v50.20312h20.17968v-71.09375h-43.91406v-11.10156h97.125v11.10156h-40.57812v27.07031h32.04687v10.88281h-32.04687zM-196.65231,141.82813h11.375c3.5,-5.28646 6.19792,-10.0625 8.09375,-14.32812l11.86719,3.71875c-1.93229,3.28125 -4.30209,6.81771 -7.10938,10.60938h20.34375v23.51563h-11.97656v-14.32812h-76.28906v14.32813h-11.97656v-23.51562h19.96093c-2.04167,-3.46354 -4.48437,-6.85417 -7.32812,-10.17187l11.21093,-3.9375c2.95313,3.86458 5.79688,8.56771 8.53125,14.10938h11.64844v-14.98437h11.64844zM-167.99606,157.96094v25.42968h-28.54688v8.09375h39.75782v24.82813c0,3.09895 -0.91146,5.30468 -2.73438,6.61718c-1.75,1.27605 -4.73958,1.91407 -8.96875,1.91407c-3.60937,0 -8.25781,-0.21875 -13.94531,-0.65625l-1.91406,-10.44532c4.92187,0.76563 9.07812,1.14844 12.46875,1.14844c1.45833,0 2.36979,-0.23698 2.73437,-0.71094c0.32813,-0.40104 0.49219,-1.09375 0.49219,-2.07812v-11.42969h-27.89063v32.59375h-11.86718v-32.59375h-25.92188v24.82813h-12.19531v-34.01563h38.11719v-8.09375h-28.21875v-25.42968zM-225.36324,166v9.35156h45.82813v-9.35156zM-133.59761,228.56251c-1.38542,-12.39583 -2.07813,-24.71875 -2.07813,-36.96875c0,-21 1.54948,-40.94271 4.64844,-59.82813l12.03125,1.25781c-2.95313,16.33333 -4.42969,34.76302 -4.42969,55.28906c0,13.78125 0.76563,26.66927 2.29688,38.66406zM-100.78511,141.9375h52.55468v11.64844h-52.55468zM-44.51169,221.83594c-7.29167,1.13021 -15.95052,1.69532 -25.97656,1.69532c-25.19271,0 -37.78906,-7.40104 -37.78906,-22.20313c0,-5.86979 1.56771,-10.99218 4.70312,-15.36718l10.33594,4.59375c-1.96875,2.77083 -2.95312,5.88802 -2.95312,9.35156c0,4.26562 2.13281,7.20051 6.39843,8.80468c4.73959,1.82292 11.21094,2.73438 19.41407,2.73438c8.85937,0 17.0625,-0.58333 24.60937,-1.75zM59.83206,193.45313c-2.55208,7.10937 -6.01562,13.38021 -10.39062,18.8125c6.74479,3.17187 14.36458,7.25521 22.85937,12.25l-7.27343,9.29688c-8.3125,-4.99479 -16.24219,-9.4974 -23.78907,-13.50782c-8.71354,6.23438 -20.125,10.73699 -34.23437,13.50782l-6.01563,-9.95313c11.19271,-1.02083 21.05469,-3.95573 29.58594,-8.80469c-6.48958,-2.95312 -13.14323,-5.66926 -19.96094,-8.14843c2.80729,-4.41146 5.34115,-8.89584 7.60157,-13.45313h-17.22657v-9.73437h21.65625c1.23959,-2.95313 2.57032,-6.30729 3.99219,-10.0625h-22.75l1.09375,6.83594c-3.60937,1.75 -7.25521,3.39062 -10.9375,4.92187v37.73437c0,3.57292 -0.82031,6.08855 -2.46094,7.54688c-1.53125,1.38541 -4.21093,2.07812 -8.03906,2.07812c-3.86458,0 -7.72916,-0.29167 -11.59375,-0.875l-2.24219,-11.75781c0.875,0.10937 2.00521,0.27344 3.39063,0.49219c2.625,0.36458 4.75781,0.54687 6.39844,0.54687c1.23958,0 2.04166,-0.21875 2.40625,-0.65625c0.32812,-0.40104 0.49218,-1.16666 0.49218,-2.29687v-28.27344c-3.5,1.34896 -7.72917,2.80729 -12.6875,4.375l-3.33593,-11.15625c6.48958,-1.71354 11.83072,-3.28125 16.02343,-4.70312v-20.5625h-14.4375v-10.88281h14.4375v-20.17969h11.64844v20.17969h9.95313v10.88281h-9.95313v16.40625c2.47917,-0.94792 4.92188,-1.9323 7.32813,-2.95313l1.47656,-0.60156v-7.05469h16.35156c-1.49479,-5.57812 -3.11719,-10.3724 -4.86719,-14.38281h-8.09375v-9.73437h24.88282v-12.74219h11.75781v12.74219h26.96094v9.73438h-9.84375c-1.23959,4.66667 -2.97136,9.46094 -5.19532,14.38281h17.77344v9.95313h-33.74219c-1.49479,4.08333 -2.78906,7.4375 -3.88281,10.0625h39.04688v9.73437zM47.74614,193.45313h-17.11719c-1.67709,3.39063 -3.2448,6.34375 -4.70313,8.85938c2.91667,1.02083 6.65365,2.49739 11.21094,4.42968l2.1875,0.92969c3.53646,-4.11979 6.34375,-8.85938 8.42188,-14.21875zM25.37894,149.32032c1.93229,4.19271 3.64583,8.98698 5.14062,14.38281h12.52344c1.38542,-3.35417 2.98959,-8.14844 4.8125,-14.38281zM93.95706,167.53125c-4.04687,-6.23437 -8.98698,-12.35937 -14.82031,-18.375l6.50781,-7.98437c1.13021,1.16667 2.13282,2.22396 3.00782,3.17188c3.57291,-5.46875 6.83593,-11.52083 9.78906,-18.15625l9.625,5.03125c-3.20833,5.83333 -7.7474,12.54167 -13.61719,20.125c1.85937,2.40625 3.77344,5.06771 5.74219,7.98438c6.85417,-9.66146 11.53906,-16.46094 14.05469,-20.39844l8.47656,5.96094c-7.40104,10.86458 -15.40364,20.96354 -24.00781,30.29688c6.67187,-0.40104 11.68489,-0.82031 15.03906,-1.25781c-0.21875,-0.65625 -0.60157,-1.80469 -1.14844,-3.44532c-0.32813,-1.02083 -0.91146,-2.57031 -1.75,-4.64844l7.82031,-3.0625c2.66146,5.35937 4.90365,12.1224 6.72657,20.28906v-11.86719h59.33593v22.96875h-10.39062v-13.67187h-38.66406v14.54687h-10.28125v-9.625l-7.60157,3.60938c-0.58333,-2.58855 -1.14844,-4.92188 -1.69531,-7c-1.82291,0.32812 -3.73698,0.63801 -5.74219,0.92968c-1.16667,0.18229 -2.11458,0.32813 -2.84375,0.4375v49.875h-10.66406v-48.50781c-5.17708,0.61979 -10.40885,1.11198 -15.69531,1.47656l-2.13281,-10.11718c1.56771,-0.03647 3.11718,-0.09116 4.64843,-0.16407l3.44532,-0.16406c1.96875,-2.29688 4.24739,-5.04948 6.83593,-8.25781zM148.48051,136.90625v-10.0625h11.21094v10.0625h25.64844v9.625h-25.64844v7.76563h22.58594v9.40625h-54.74219v-9.40625h20.94531v-7.76562h-24.22656v-9.625zM79.02739,220.03126c2.91667,-8.96875 4.375,-18.52084 4.375,-28.65625l9.73437,1.20312c-0.4375,12.94271 -1.85937,23.66146 -4.26562,32.15625zM114.73831,214.39844c-1.42187,-8.23958 -3.0625,-15.40364 -4.92187,-21.49218l8.42187,-2.46094c2.40625,6.125 4.375,12.74219 5.90625,19.85156zM156.51957,186.56251h10.55469v32.10156c0,1.38541 0.3099,2.1875 0.92969,2.40625c0.47396,0.18229 1.20313,0.27344 2.1875,0.27344c3.20833,0 5.04948,-0.71094 5.52344,-2.13282c0.58333,-1.78645 0.98437,-6.32551 1.20312,-13.61718l9.625,3.55468c-0.03647,10.28125 -1.20313,16.69792 -3.5,19.25c-2.04167,2.29688 -6.5625,3.44532 -13.5625,3.44532c-6.08854,0 -9.89844,-0.875 -11.42969,-2.625c-1.02083,-1.16667 -1.53125,-3.11719 -1.53125,-5.85157zM117.19926,224.84376c9.51563,-2.51563 15.67709,-6.65365 18.48438,-12.41407c2.1875,-4.375 3.31771,-12.92448 3.39062,-25.64843h10.5c-0.03647,11.66667 -0.69272,19.92448 -1.96875,24.77343c-1.49479,5.72396 -4.57552,10.53646 -9.24219,14.4375c-3.46354,2.84375 -8.20312,5.41407 -14.21875,7.71094zM195.40238,148.44532h43.91406c-2.36979,-6.23438 -4.53906,-12.43229 -6.50781,-18.59375l11.97656,-0.76562c1.89583,6.48958 4.17448,12.94271 6.83594,19.35938h40.41406v11.21094h-35.27344c4.70313,9.73438 10.59115,19.88802 17.66406,30.46094l-11.48437,5.46875c-7.80209,-11.8125 -14.20052,-23.78906 -19.19531,-35.92969h-48.34375zM274.91801,229.10938c-7.25521,0.40104 -13.67187,0.60156 -19.25,0.60156c-15.16667,0 -26.34115,-1.18489 -33.52344,-3.55468c-12.97917,-4.22917 -19.46875,-12.21354 -19.46875,-23.95313c0,-7.21875 2.24219,-13.03385 6.72657,-17.44531l10.28125,5.57813c-2.98959,2.95312 -4.48438,6.8177 -4.48438,11.59374c0,6.08855 3.28125,10.35417 9.84375,12.79688c5.79687,2.15104 15.49479,3.22656 29.09375,3.22656c5.76042,0 12.25,-0.27344 19.46875,-0.82031zM326.43363,129.30469h12.08593v30.89844c8.67709,-9.00521 15.6224,-15.1849 20.83594,-18.53906c4.84896,-3.13542 9.88021,-4.70312 15.09375,-4.70312c5.25,0 9.47917,1.47656 12.6875,4.42969c4.22917,3.9375 6.34375,9.09635 6.34375,15.47656c0,1.67708 -0.21875,3.90104 -0.65625,6.67188c-3.20833,20.38021 -4.8125,34.48958 -4.8125,42.32812c0,3.35417 0.85677,5.03125 2.57031,5.03125c1.09375,0 2.53386,-0.61979 4.32032,-1.85937c3.75521,-2.58854 7.54689,-6.83594 11.37504,-12.74219l4.4843,12.52344c-2.33333,3.71875 -5.23176,7.01823 -8.69528,9.89844c-4.01042,3.35417 -8.29427,5.03125 -12.85156,5.03125c-4.33855,0 -7.71094,-1.51302 -10.11719,-4.53907c-2.04167,-2.58854 -3.0625,-6.90885 -3.0625,-12.96093c0,-4.59375 0.60156,-11.50261 1.80469,-20.72656c1.53125,-11.59375 2.55208,-20.19792 3.0625,-25.8125c0.07291,-0.91146 0.10937,-1.67708 0.10937,-2.29687c0,-3.20833 -0.67448,-5.66927 -2.02344,-7.38281c-1.27604,-1.64062 -3.04427,-2.46094 -5.30468,-2.46094c-7.61979,0 -19.34115,10.15365 -35.16407,30.46094v51.625h-12.08593v-37.84375c-6.08855,8.53125 -11.70313,16.58854 -16.84375,24.17187l-5.6875,-12.96094c8.64062,-10.46354 16.15104,-20.43489 22.53125,-29.91406v-13.89062h-19.19532v-10.99219h19.19532zM419.18362,140.13282c33.54167,-0.51042 65.2422,-1.36719 95.1016,-2.57031l0.6562,10.88281c-13.16147,0.65625 -23.40627,2.66146 -30.7344,6.01563c-7,3.20833 -12.61457,7.65625 -16.8437,13.34375c-4.81253,6.45312 -7.2188,13.63541 -7.2188,21.54687c0,7.875 2.7344,13.78125 8.2032,17.71875c6.2708,4.48437 15.8958,7.5651 28.875,9.24219l-2.5703,12.30468c-16.91667,-2.26041 -28.82033,-6.63541 -35.711,-13.125c-7.401,-6.92708 -11.1015,-15.53124 -11.1015,-25.81249c0,-9.33333 3.35417,-18.04687 10.0625,-26.14063c4.8854,-5.94271 11.5755,-10.71875 20.0703,-14.32812c-15.05733,0.51042 -34.4714,1.36719 -58.2422,2.57031zM580.12893,198.26563c-6.7448,19.83333 -14.3099,29.75 -22.6953,29.75c-5.97913,0 -11.10153,-4.19271 -15.3672,-12.57812c-3.28127,-6.48959 -5.54167,-13.63542 -6.7812,-21.4375c-1.4948,-9.47917 -2.2422,-21.65625 -2.2422,-36.53125c0,-6.45312 0.23697,-13.38021 0.7109,-20.78125l12.8516,0.98438c-0.474,7.40104 -0.711,14.4375 -0.711,21.10938c0,23.40625 2.1875,39.72135 6.5625,48.94531c1.78647,3.79167 3.46357,5.6875 5.0313,5.6875c1.0208,0 2.29683,-1.16667 3.8281,-3.5c3.1354,-4.73959 6.16143,-11.26563 9.0781,-19.57812zM614.74613,211.28126c-1.8594,-15.38542 -4.13803,-27.81771 -6.8359,-37.29688c-3.28127,-11.48437 -7.09117,-22.0026 -11.4297,-31.55469l11.6484,-2.84375c6.01567,11.92187 10.48183,23.40625 13.3985,34.45313c2.4062,8.96875 4.39317,20.38021 5.9609,34.23437zM686.66023,129.41407h12.0859v13.78125h34.3984v10.39063h-34.3984v13.01563h32.4844v10.28125h-32.4844v16.89844c12.97913,4.375 25.776,10.95573 38.3906,19.74218l-6.4531,10.39063c-9.55207,-7.14583 -20.1979,-13.45313 -31.9375,-18.92188c-0.29167,6.23438 -1.4948,11.06511 -3.6094,14.49219c-3.68227,5.94271 -10.93747,8.91406 -21.7656,8.91406c-8.34893,0 -15.05727,-1.56771 -20.125,-4.70312c-5.65107,-3.5 -8.4766,-8.23958 -8.4766,-14.21875c0,-7.14583 3.8099,-12.43229 11.4297,-15.85937c5.1042,-2.26042 11.73963,-3.39063 19.9063,-3.39063c3.20833,0 6.72657,0.25521 10.5547,0.76563v-14.10938h-38.7735v-10.28125h38.7735v-13.01562h-41.1251v-10.39062h41.1251zM686.66023,201.16407c-4.3386,-0.91146 -8.49487,-1.36719 -12.4688,-1.36719c-4.84893,0 -8.78643,0.71094 -11.8125,2.13281c-3.6094,1.71355 -5.4141,4.15626 -5.4141,7.32813c0,2.66146 1.40367,4.8125 4.211,6.45312c2.84373,1.67709 6.6354,2.51563 11.375,2.51563c5.6146,0 9.47917,-1.49479 11.5937,-4.48438c1.67713,-2.33333 2.5157,-5.8151 2.5157,-10.44531zM802.76172,129.08594h12.3047v15.09375h32.2656v10.55469h-32.2656v23.40625c1.27607,4.48438 1.9141,8.47657 1.9141,11.97657c0,12.97916 -2.862,22.51301 -8.586,28.60156c-6.23433,6.67187 -15.62233,11.28385 -28.164,13.83593l-6.2344,-9.29687c9.7344,-1.85937 16.95313,-4.48437 21.6562,-7.875c4.41147,-3.20833 7.38283,-7.5651 8.9141,-13.07031c-3.90107,4.26562 -8.5495,6.39843 -13.9453,6.39843c-6.05207,0 -10.9557,-1.71354 -14.7109,-5.14062c-4.41147,-4.04687 -6.6172,-9.91666 -6.6172,-17.60937c0,-4.04688 0.96613,-7.94792 2.8984,-11.70313c1.27607,-2.40625 2.84377,-4.41146 4.7031,-6.01562c4.30213,-3.64583 9.461,-5.46875 15.4766,-5.46875c3.82813,0 7.29167,0.91146 10.3906,2.73438v-10.77344h-53.9765v-10.55469h53.9765zM803.19922,185.85157v-2.02344c0,-2.33333 -0.54687,-4.39323 -1.6406,-6.17968c-2.04167,-3.35417 -4.9948,-5.03125 -8.8594,-5.03125c-1.96873,0 -3.80987,0.54687 -5.5234,1.64062c-4.0104,2.51563 -6.0156,6.38021 -6.0156,11.59375c0,3.28125 0.72917,6.05209 2.1875,8.3125c2.04167,3.13542 5.04947,4.70313 9.0234,4.70313c3.6094,0 6.47137,-1.6224 8.5859,-4.86719c1.4948,-2.29687 2.2422,-5.01302 2.2422,-8.14844z" fill="#04ff04" stroke-width="1"/><path d="M-588.07807,252.07209v-144.14414h1656.15616v144.14414z" fill="none" stroke-width="0"/></g></g></svg>