<svg xmlns="http://www.w3.org/2000/svg" id="svg1" version="1.1" height="200" width="990">
  <defs id="defs1"></defs>
  <rect id="rect1" stroke="none" fill="none" height="200" width="990" y="0" x="0"></rect>
  <path aria-label="山梨県中・西部" style="font-size:100px;font-family:'BIZ UDPGothic';fill:#ff0000" id="text1" d="M 53.613281,141.89453 H 81.787109 V 85.302734 h 8.105469 v 73.388676 h -8.105469 v -9.17969 H 18.115234 v 9.17969 H 10.009766 V 85.302734 h 8.105468 V 141.89453 H 45.605469 V 65.478516 h 8.007812 z M 127.7832,92.431641 q -6.78711,10.546879 -18.60351,18.994139 l -5.12696,-5.32226 Q 116.74805,98.486328 124.6582,87.207031 H 105.07813 V 81.103516 H 127.7832 V 73.583984 Q 120.70313,74.414062 110.79102,75 l -2.63672,-5.615234 q 23.58398,-1.660157 38.42773,-4.882813 l 3.90625,5.224609 q -7.08008,1.660157 -15.38086,2.88086 v 8.496094 h 19.18945 v 6.103515 h -19.18945 v 3.027344 l 0.73242,0.341797 q 9.76563,4.248047 18.16407,9.521488 l -4.19922,5.9082 q -7.71485,-5.51758 -14.69727,-9.423829 v 17.626949 h -7.32422 z m 32.51953,33.642579 q 10.44922,8.98437 22.11914,14.64844 6.64063,3.27148 15.47852,6.34765 l -4.78516,6.98242 q -25.39062,-10.44921 -39.59961,-26.31835 v 31.73828 h -7.71484 v -31.78711 q -14.01367,17.67578 -38.91601,28.07617 l -4.58985,-6.49414 Q 125,140.82031 139.30664,126.07422 h -36.62109 v -6.39649 h 43.11523 v -9.9121 h 7.71484 v 9.9121 h 43.79883 v 6.39649 z m -0.24414,-56.787111 h 7.61719 v 30.029297 h -7.61719 z m 22.90039,-2.783203 h 7.71485 v 38.818364 q 0,4.0039 -1.85547,5.76171 -1.80664,1.70899 -6.39649,1.70899 -6.49414,0 -12.25585,-0.58594 l -1.51368,-6.49414 q 7.66602,0.68359 11.52344,0.68359 1.95313,0 2.44141,-0.92773 0.34179,-0.68359 0.34179,-2.14844 z m 99.90235,1.074219 V 114.4043 H 225.78125 V 67.578125 Z m -49.36524,6.005859 v 7.714844 h 41.55274 v -7.714844 z m 0,13.330078 v 7.763672 h 41.55274 v -7.763672 z m 0,13.476568 v 8.30078 h 41.55274 v -8.30078 z M 214.4043,122.2168 h 83.05664 v 6.49414 h -41.99219 v 30.81054 h -7.91016 V 128.71094 H 206.5918 V 74.267578 h 7.8125 z m -9.22852,29.6875 q 12.79297,-6.15235 23.0957,-19.28711 l 6.5918,3.66211 q -10.40039,13.62304 -24.07226,21.72851 z m 84.17969,4.10156 q -10.25391,-11.18164 -23.29102,-19.82422 l 6.00586,-4.49219 q 11.76758,7.37305 23.68164,18.79883 z M 345.70312,83.59375 V 64.501953 h 7.91016 V 83.59375 h 37.25586 v 49.70703 h -7.91016 v -6.98242 h -29.3457 v 33.20312 h -7.91016 v -33.20312 h -28.80859 v 7.51953 h -8.00781 V 83.59375 Z m -28.80859,7.324219 v 28.076171 h 28.80859 V 90.917969 Z m 66.06445,28.076171 V 90.917969 h -29.3457 v 28.076171 z m 42.13868,-16.01562 q 3.75976,0 6.49414,2.92968 2.4414,2.53907 2.4414,6.10352 0,2.53906 -1.41601,4.78516 -2.68555,4.19921 -7.66602,4.19921 -2.14844,0 -4.10156,-1.02539 -4.83399,-2.58789 -4.83399,-8.05664 0,-4.54101 3.8086,-7.27539 2.34375,-1.66015 5.27344,-1.66015 z m 58.49609,-9.277348 V 77.197266 H 452.7832 V 70.3125 h 94.38477 v 6.884766 h -33.88672 v 16.503906 h 27.7832 V 157.8125 h -7.8125 V 150 h -66.65039 v 7.8125 h -7.71484 V 93.701172 Z m 7.51953,0 h 14.64844 V 77.197266 h -14.64844 z m -7.56836,6.591798 h -16.94336 v 42.91992 h 66.65039 v -17.23633 h -20.16601 q -7.32422,0 -7.32422,-6.59179 v -19.0918 h -14.69727 q -0.43945,10.5957 -3.125,16.89453 -3.80859,8.93555 -14.9414,15.52734 l -4.98047,-5.61523 q 10.40039,-5.41992 13.52539,-14.50195 1.51367,-4.44336 2.00195,-12.30469 z m 29.73633,0 v 16.50391 q 0,1.51367 0.58594,1.95312 0.53711,0.43945 1.80664,0.43945 h 17.57812 v -18.89648 z m 70.70312,-23.681642 h 21.82618 v 6.787109 h -7.03125 q -2.05078,9.13086 -5.61524,18.701173 h 14.45313 v 6.88477 h -55.12696 v -6.88477 h 13.72071 l -0.0977,-0.48828 Q 564.0625,91.601562 561.71875,84.423828 l -0.3418,-1.025391 h -7.08008 v -6.787109 h 22.2168 V 64.501953 h 7.4707 z m -15.13671,6.787109 q 2.58789,7.958985 4.73632,18.701173 h 12.15821 q 2.92968,-8.105469 5.32226,-18.701173 z m 31.83593,35.888673 v 39.30664 h -7.32422 v -5.51758 h -25.97656 v 6.39649 h -7.56836 v -40.18555 z m -33.30078,6.68945 v 20.3125 h 25.97656 v -20.3125 z m 65.42969,-22.70508 q 12.8418,13.57422 12.8418,29.44336 0,5.56641 -2.00196,8.39844 -2.4414,3.27149 -8.49609,3.27149 -5.81055,0 -10.69336,-0.6836 l -1.61133,-7.61719 q 6.25,1.02539 10.15625,1.02539 3.71094,0 4.39453,-2.49023 0.29297,-1.07422 0.29297,-3.51562 0,-13.72071 -12.64648,-26.70899 5.85937,-12.695311 9.52148,-26.708983 h -15.42969 v 81.787113 h -7.37304 V 70.507812 h 27.49023 l 4.39453,3.808594 q -5.37109,17.382813 -10.83984,28.955074 z"></path>
</svg>
