<svg xmlns="http://www.w3.org/2000/svg" id="svg1" version="1.1" height="200" width="1096">
  <defs id="defs1"></defs>
  <rect id="rect1" stroke="none" fill="none" height="200" width="1096" y="0" x="0"></rect>
  <path aria-label="マリアナ諸島" style="font-weight:bold;font-size:110px;font-family:'BIZ UDPGothic';fill:#ff0000" id="text1" d="m 5.15625,68.574219 h 83.950195 l 8.00293,7.250976 Q 88.78418,93.764648 77.34375,107.2998 q -8.862305,10.41993 -20.463867,19.49708 9.130859,9.77539 14.824219,17.24121 l -9.882813,8.70117 Q 43.022461,127.76367 14.501953,104.3457 l 8.486328,-8.486325 q 11.923828,9.506835 25.942383,22.880855 14.555664,-11.22558 24.65332,-25.351558 4.833985,-6.821289 8.00293,-13.803711 H 5.15625 Z m 110.32227,-8.110352 h 12.51464 v 58.759763 h -12.51464 z m 55.16113,-1.12793 h 12.51465 v 38.403321 q 0,20.249022 -3.27637,30.131832 -2.73926,8.43262 -7.46582,13.42774 -9.8291,10.58105 -31.58203,15.62988 l -6.17676,-11.01074 q 23.79395,-4.83399 30.50781,-16.05957 4.24317,-7.14356 5.10254,-18.04688 0.37598,-5.04882 0.37598,-13.96484 z m 31.52832,7.626954 h 84.16504 l 6.92871,5.854492 q -3.00781,11.225586 -7.8418,18.745117 -9.07715,14.2334 -27.17773,21.26953 l -6.76758,-9.23828 q 12.51465,-3.759766 20.78613,-13.481445 4.8877,-5.747071 6.82129,-12.138672 h -76.91406 z m 34.42871,23.203125 h 12.2998 v 9.238281 q 0,20.786133 -4.61914,32.119143 -5.85449,14.39453 -22.77343,23.41797 l -8.86231,-9.34571 q 11.65527,-5.53222 17.02637,-13.21289 4.13574,-5.96191 5.4248,-12.62207 1.50391,-7.62695 1.50391,-20.463865 z M 344.77051,58.90625 h 12.2998 v 25.19043 h 40.71289 v 11.225586 h -40.71289 q -0.0537,16.328124 -1.71875,24.492184 -5.20996,25.56641 -33.35449,37.86621 l -7.57324,-9.99023 q 18.74512,-7.73438 25.45898,-21.1084 3.54492,-7.14355 4.4043,-16.91894 0.42969,-4.99512 0.4834,-14.340824 H 301.85547 V 84.09668 h 42.91504 z m 100.86914,64.56055 -3.22266,-4.56543 q 6.12305,-3.16895 12.13867,-7.41211 10.47364,-7.30469 17.34864,-14.394533 H 445.85449 V 87.53418 h 21.26953 V 76.953125 h -14.93164 v -9.345703 h 14.93164 V 55.952148 h 10.90332 v 11.655274 h 10.47364 v 7.680664 q 4.78027,-7.841797 9.13086,-17.133789 l 9.56054,4.833984 q -7.41211,14.179688 -14.60937,24.545899 h 18.36914 v 9.560547 h -24.97559 q -3.97461,4.726563 -10.36621,10.581053 h 26.85547 v 52.79785 h -11.01074 v -5.53222 h -23.74024 v 5.53222 h -10.79589 v -38.40332 q -4.51172,3.00782 -8.54004,5.3711 l -2.417,-3.49121 v 30.99121 h -25.67382 v 5.53222 H 409.70703 V 123.4668 Z m 41.78711,-46.513675 h -9.39942 V 87.53418 h 2.30957 q 2.30957,-3.168946 7.08985,-10.581055 z m -67.13867,55.751955 v 13.10547 h 15.09277 v -13.10547 z m 47.42675,-16.32813 v 10.20508 h 23.74024 v -10.20508 z m 0,18.90625 v 10.74219 h 23.74024 V 135.2832 Z M 411.47949,59.926758 h 32.44141 v 9.023437 h -32.44141 z m -5.04883,15.737304 h 40.82032 v 9.667969 h -40.82032 z m 5.04883,16.489258 h 32.44141 v 8.91602 h -32.44141 z m 0,15.73731 h 32.44141 v 8.70117 H 411.47949 Z M 556.28418,64.116211 q 1.9873,-4.780274 3.22266,-9.130859 l 13.10546,1.77246 q -1.87988,4.458008 -3.4375,7.358399 h 35.77149 v 35.019531 h -64.88281 v 5.424808 h 80.83496 v 8.70117 h -80.83496 v 5.47851 h 77.07519 q -0.69824,24.59961 -3.11523,33.19336 -1.55762,5.47852 -5.85449,7.25098 -3.06153,1.28906 -9.34571,1.28906 -6.44531,0 -12.03125,-0.80566 l -2.14844,-9.02344 H 530.8252 v 5.96192 h -11.54786 v -25.83497 h 11.54786 v 11.06446 h 18.47656 v -14.50196 h -21.1084 V 64.116211 Z m 22.82715,77.719729 v -11.06446 h 11.11816 v 18.69141 q 4.45801,0.42969 7.41211,0.42969 3.65235,0 4.56543,-2.09473 1.77246,-3.9209 2.79297,-20.46387 h -44.15039 v 14.50196 z M 540.06348,72.387695 v 5.317383 h 53.01269 v -5.317383 z m 0,12.998047 v 5.854492 h 53.01269 v -5.854492 z"></path>
</svg>
