<svg xmlns="http://www.w3.org/2000/svg" id="svg1" version="1.1" height="200" width="1096">
  <defs id="defs1"></defs>
  <rect id="rect1" stroke="none" fill="none" height="200" width="1096" y="0" x="0"></rect>
  <path aria-label="島根県沖" style="font-weight:bold;font-size:110px;font-family:'BIZ UDPGothic';fill:#ff0000" id="text1" d="m 42.592773,64.116211 q 1.987305,-4.780274 3.222657,-9.130859 l 13.105468,1.77246 q -1.879882,4.458008 -3.4375,7.358399 H 91.254883 V 99.135742 H 26.37207 v 5.424808 h 80.83496 v 8.70117 H 26.37207 v 5.47851 h 77.0752 q -0.69825,24.59961 -3.11524,33.19336 -1.557616,5.47852 -5.854491,7.25098 -3.061523,1.28906 -9.345703,1.28906 -6.445313,0 -12.03125,-0.80566 l -2.148438,-9.02344 H 17.133789 v 5.96192 H 5.5859375 V 130.77148 H 17.133789 v 11.06446 H 35.610352 V 127.33398 H 14.501953 V 64.116211 Z m 22.827149,77.719729 v -11.06446 h 11.118164 v 18.69141 q 4.458008,0.42969 7.412109,0.42969 3.652344,0 4.56543,-2.09473 1.772461,-3.9209 2.792969,-20.46387 H 47.158203 v 14.50196 z M 26.37207,72.387695 v 5.317383 h 53.012696 v -5.317383 z m 0,12.998047 v 5.854492 h 53.012696 v -5.854492 z m 173.54004,47.050778 q 7.19726,9.8291 18.95996,16.00586 l -6.71387,10.58106 q -13.15918,-7.62696 -20.89355,-19.49707 -8.27149,-12.62207 -11.70899,-29.80957 h -11.06445 v 35.34179 q 12.40723,-3.65234 20.78613,-6.71386 l 1.02051,10.20507 q -15.79101,6.875 -36.25488,11.7627 l -3.70606,-11.01074 q 3.81348,-0.69824 7.14356,-1.4502 V 59.819336 h 52.0459 v 49.843754 l 7.68066,6.55273 q -8.75488,9.77539 -17.29492,16.2207 z m -4.78027,-8.27148 q 7.68066,-7.46582 12.7832,-14.44824 h -17.56348 q 1.82617,8.11035 4.78028,14.44824 z m 3.27636,-55.000001 h -29.91699 v 11.010742 h 29.91699 z m 0,19.819336 h -29.91699 v 11.601565 h 29.91699 z m -69.07226,23.364255 q -4.61914,13.64258 -12.40723,26.69434 l -6.06933,-11.92383 Q 122.94434,110.25391 128.1543,89.414062 H 113.16895 V 78.833008 h 16.16699 v -22.88086 h 11.22558 v 22.88086 h 12.62207 v 10.581054 h -12.62207 v 9.399415 q 9.18457,6.660153 15.89844,14.448243 l -5.9082,10.15137 q -4.83399,-6.66016 -9.99024,-12.13868 v 49.19922 H 129.33594 Z M 312.16797,58.583984 V 110.62988 H 248.25195 V 58.583984 Z m -52.36817,8.486328 v 6.713868 h 40.7129 v -6.713868 z m 0,14.28711 v 6.713867 h 40.7129 v -6.713867 z m 0,14.287109 v 6.928709 h 40.7129 v -6.928709 z m -21.6455,22.128909 h 89.05273 v 9.3457 h -44.41894 v 33.35449 H 270.5957 V 127.11914 H 226.3916 V 66.855469 h 11.7627 z m -13.75,32.4414 q 12.7832,-5.9082 24.43847,-19.81933 l 9.88282,5.74707 q -11.49414,14.55566 -25.5127,22.88086 z m 92.59765,6.92871 q -8.21777,-10.09765 -24.70703,-21.21582 l 9.23828,-6.49902 q 12.94434,7.46582 25.40528,19.60449 z m 76.69922,-81.157222 v -20.03418 h 11.54785 v 20.03418 h 29.11133 v 48.608402 h -29.11133 v 35.8789 h -11.54785 v -35.8789 H 365.18066 V 75.986328 Z m -17.40234,10.688477 v 27.338865 h 17.40234 V 86.674805 Z m 46.62109,27.338865 V 86.674805 h -17.6709 v 27.338865 z m -68.75,-31.796873 q -6.55273,-9.13086 -17.34863,-17.456055 l 8.00293,-8.164062 q 10.74219,7.573242 18.1543,16.972656 z m -3.49121,27.607423 q -9.3457,-10.849611 -18.1543,-17.778322 l 8.27149,-8.271484 q 9.39941,6.606445 18.58398,17.080076 z m -16.7041,41.62598 q 10.3125,-14.66309 19.01367,-36.52344 l 9.56055,7.3584 q -7.3584,20.1416 -17.93946,37.91992 z"></path>
</svg>
