<svg xmlns="http://www.w3.org/2000/svg" id="svg1" version="1.1" height="200" width="990">
  <defs id="defs1"></defs>
  <rect id="rect1" stroke="none" fill="none" height="200" width="990" y="0" x="0"></rect>
  <path aria-label="深さ" style="font-size:100px;font-family:'BIZ UDPGothic';fill:#ff0000" id="text1" d="m 73.291016,76.318359 v 18.164063 q 0,2.294922 1.074218,2.783203 0.683594,0.341797 2.832032,0.341797 2.880859,0 4.785156,-0.195313 1.904297,-0.24414 2.441406,-2.685547 0.537109,-2.685546 0.585938,-6.396484 L 92.333984,90.625 q -0.390625,8.642578 -2.783203,11.18164 -1.611328,1.75781 -5.126953,2.19727 -3.076172,0.39062 -7.03125,0.39062 -7.519531,0 -9.814453,-2.00195 -1.708984,-1.51367 -1.708984,-4.687502 V 76.318359 H 38.037109 V 90.087891 H 30.615234 V 69.824219 h 63.81836 V 86.621094 H 87.011719 V 76.318359 Z m -4.003907,45.263671 q 10.839844,14.79492 28.515625,22.70508 l -5.46875,7.08008 Q 75.195312,141.45508 65.625,126.80664 v 32.66602 h -7.617188 v -32.47071 q -9.863281,16.89453 -28.222656,26.66016 l -5.273437,-6.29883 q 18.408203,-8.25195 29.6875,-25.78125 H 29.394531 v -6.68945 H 58.007812 V 104.39453 H 65.625 v 10.49805 h 31.005859 v 6.68945 z M 20.117187,86.279297 Q 13.134766,77.34375 5.6152344,70.800781 l 5.2734376,-4.980469 q 7.8125,6.201172 14.941406,14.794922 z M 16.503906,111.81641 Q 9.4238281,103.02734 1.6113281,96.484375 L 7.03125,91.113281 q 8.105469,6.396485 15.185547,14.794919 z M 4.0039062,153.22266 Q 12.646484,140.23437 19.628906,120.50781 l 6.396485,4.39453 q -6.347657,19.23828 -15.625,33.78907 z M 29.492187,100.39063 q 10.69336,-3.125005 15.429688,-9.76563 3.369141,-4.6875 4.785156,-12.646484 l 6.982422,1.904296 q -2.832031,12.353516 -9.033203,18.457032 -4.6875,4.589846 -13.330078,7.958986 z M 106.39648,85.693359 h 39.79493 q -2.97852,-7.470703 -6.00586,-17.089843 l 7.91015,-0.488282 q 2.44141,8.935547 6.10352,17.578125 h 35.49805 v 7.177735 h -32.51954 q 6.88477,14.794926 15.33204,27.587886 l -7.32422,3.61329 q -8.54493,-12.8418 -16.21094,-31.201176 h -42.57813 z m 68.01758,68.212891 q -9.13086,0.53711 -16.21094,0.53711 -19.82421,0 -29.24804,-3.22266 -15.9668,-5.51758 -15.9668,-19.72656 0,-7.56836 4.78516,-13.67187 l 6.64062,3.66211 q -3.22265,3.95507 -3.22265,9.86328 0,9.22851 11.23046,12.74414 8.30079,2.53906 25.73243,2.53906 7.08007,0 15.33203,-0.63477 z"></path>
</svg>
