<svg xmlns="http://www.w3.org/2000/svg" id="svg1" version="1.1" height="200" width="990">
  <defs id="defs1"></defs>
  <rect id="rect1" stroke="none" fill="none" height="200" width="990" y="0" x="0"></rect>
  <path aria-label="地中海" style="font-size:100px;font-family:'BIZ UDPGothic';fill:#ff0000" id="text1" d="m 49.21875,103.22266 v 40.86914 q 0,4.05273 2.392578,4.98047 2.587891,0.97656 16.455078,0.97656 13.427735,0 17.382813,-0.92774 2.783203,-0.68359 3.564453,-3.22265 1.220703,-4.00391 1.269531,-12.40235 l 7.519531,2.78321 q -0.683593,13.23242 -3.515625,16.79687 -2.246093,2.92969 -7.27539,3.4668 -7.666016,0.78125 -20.751953,0.78125 -12.451172,0 -16.748047,-0.83008 -5.371094,-1.07422 -6.835938,-4.88281 -0.78125,-2.09961 -0.78125,-5.51758 v -40.38086 l -10.498047,3.56445 -1.904297,-6.98242 12.402344,-4.150389 v -26.5625 H 49.21875 V 95.654297 L 62.060547,91.308594 V 64.501953 h 7.324219 v 24.365234 l 18.017578,-6.054687 4.394531,2.392578 v 35.986332 q 0,3.51562 -1.660156,5.32226 -1.953125,2.09961 -6.835938,2.09961 -3.955078,0 -7.714844,-0.53711 l -1.269531,-6.98242 q 3.710938,0.68359 6.933594,0.68359 2.441406,0 2.978516,-1.07421 0.390625,-0.73243 0.390625,-2.29493 V 91.113281 L 69.384766,96.289062 V 136.08398 H 62.060547 V 98.779297 Z M 16.503906,88.916016 V 65.136719 H 24.21875 V 88.916016 H 35.009766 V 96.09375 H 24.21875 v 34.96094 q 5.126953,-1.75782 11.71875,-4.44336 l 0.78125,6.88476 Q 21.777344,140.38086 4.6875,145.60547 l -2.7832031,-7.61719 q 6.7871094,-1.85547 14.5996091,-4.3457 V 96.09375 H 3.2226563 V 88.916016 Z M 145.70312,83.59375 V 64.501953 h 7.91016 V 83.59375 h 37.25586 v 49.70703 h -7.91016 v -6.98242 h -29.3457 v 33.20312 h -7.91016 v -33.20312 h -28.80859 v 7.51953 h -8.00781 V 83.59375 Z m -28.80859,7.324219 v 28.076171 h 28.80859 V 90.917969 Z m 66.06445,28.076171 V 90.917969 h -29.3457 v 28.076171 z m 55.12696,-28.173828 h 49.90234 q 0,2.636719 -0.68359,22.998048 h 10.20508 v 6.5918 h -10.44922 q -0.19532,6.25 -0.87891,17.91992 h 9.7168 v 6.49414 h -10.20508 q -0.63477,7.27539 -1.70899,9.66797 -2.14843,5.02929 -10.49804,5.02929 -4.73633,0 -11.08399,-0.78125 l -1.41601,-6.83593 q 7.32422,1.02539 12.06054,1.02539 2.73438,0 3.61329,-1.22071 0.78125,-1.12304 1.31836,-6.10351 l 0.0488,-0.78125 h -39.01367 l -0.14648,0.78125 -0.14649,0.68359 -0.83008,4.73633 -7.4707,-0.87891 q 2.63672,-14.50195 4.44336,-29.73632 h -9.76562 v -6.5918 h 10.54687 q 1.46484,-12.69531 2.44141,-22.998048 z m 27.58789,6.396485 q -0.19531,3.417973 -0.73242,11.572263 l -0.29297,5.0293 h 15.33203 q 0.0976,-2.09961 0.24414,-5.46875 0.0488,-0.87891 0.19531,-5.56641 0,-1.85547 0.14649,-5.566403 z m -7.12891,0 h -13.81836 q -0.43945,5.957033 -1.51367,16.601563 h 14.0625 q 0.29297,-3.71094 0.43945,-5.56641 0.3418,-3.61328 0.83008,-11.035153 z m -1.80664,23.193363 h -14.25781 q -0.78125,6.64062 -1.95313,14.59961 l -0.48828,3.32031 h 14.79492 l 0.29297,-2.2461 q 1.17188,-9.76562 1.61133,-15.67382 z m 7.32422,0 -0.48828,5.12695 q -0.83008,8.78906 -1.31836,12.79297 h 16.40625 q 0.48828,-6.34766 0.73242,-12.30469 l 0.29297,-5.61523 z M 244.9707,73.779297 h 48.92578 v 6.689453 h -52.00195 q -4.00391,7.958984 -9.91211,14.941406 l -5.37109,-5.224609 q 9.47265,-10.546875 14.01367,-25.78125 l 7.4707,0.78125 q -1.5625,4.833984 -3.125,8.59375 z m -24.75586,12.5 q -6.44531,-8.447266 -14.40429,-15.38086 l 5.27343,-5.078125 q 7.51954,5.810547 14.69727,14.697266 z m -3.51562,25.732423 Q 209.0332,102.68555 201.9043,96.679687 l 5.41992,-5.371093 q 8.39844,6.787109 15.08789,14.794926 z m -12.69531,41.06445 q 8.88671,-12.64648 16.21093,-31.98242 l 6.39649,4.6875 q -7.37305,19.92187 -16.3086,33.00781 z"></path>
</svg>
