<svg version="1.1" xmlns="http://www.w3.org/2000/svg" xmlns:xlink="http://www.w3.org/1999/xlink" width="779" height="652" viewBox="0,0,779,652"><g transform="translate(149.5,146)"><g stroke-miterlimit="10"><path d="M-149.5,506v-652h779v652z" fill="none" stroke="none" stroke-width="0" stroke-linecap="butt" stroke-linejoin="miter"/><path d="M287.749,24.40797v32.97482c-0.15621,6.47959 -5.45376,11.65105 -11.93528,11.65105c-6.48152,0 -11.77907,-5.17146 -11.93528,-11.65105v-32.97482c0.09277,-6.52132 5.40191,-11.76133 11.92391,-11.76884c6.53087,-0.005 11.85365,5.23865 11.94665,11.76884zM192.87046,47.27941c3.13401,0.00409 6.14056,1.24026 8.37107,3.44177l23.31575,23.71526c2.91754,3.05101 4.00681,7.41606 2.86501,11.48018c-1.14942,4.07196 -4.36824,7.23132 -8.46088,8.30479c-4.08139,1.07904 -8.42928,-0.07765 -11.43504,-3.04214l-23.31575,-23.71526c-4.51183,-4.71954 -4.39541,-12.18836 0.26149,-16.76499c2.2396,-2.1989 5.25514,-3.42744 8.39381,-3.4196zM359.67219,47.47917c0.82562,0.04832 1.64409,0.18225 2.44208,0.39974c4.08094,1.11679 7.26588,4.30991 8.3722,8.39369c1.11053,4.07298 -0.01262,8.42939 -2.95369,11.45789l-23.31575,23.31552c-4.66599,4.63234 -12.19882,4.6212 -16.85094,-0.02501c-4.65224,-4.64621 -4.67315,-12.17903 -0.04695,-16.85105l23.31575,-23.31552c2.40354,-2.34624 5.68421,-3.57149 9.0373,-3.37514zM325.23178,124.50879c5.3312,-0.00034 10.0164,3.53386 11.48052,8.66007l56.8455,198.98152c1.02617,3.60128 0.30333,7.4753 -1.95253,10.46412c-2.25586,2.98882 -5.78335,4.74603 -9.52799,4.74637h-284.1604c-4.04012,-0.00227 -7.80489,-2.0478 -10.00538,-5.43591c-2.2006,-3.38811 -2.53827,-7.65936 -0.89759,-11.35125l53.04822,-119.39782c1.92024,-4.31378 6.20275,-7.09045 10.92457,-7.0834l39.79185,0.02274l29.04464,-72.12272c1.81633,-4.51524 6.19173,-7.47609 11.05872,-7.48325zM209.89796,220.52538c-1.82633,4.51387 -6.21094,7.46631 -11.08032,7.46097l-40.08062,-0.02274l-42.43516,95.52704h249.96556l-50.02858,-175.11073h-77.27463z" fill="#586680" stroke="#ffffff" stroke-width="10" stroke-linecap="round" stroke-linejoin="round"/><path d="M238.96289,148.32994l77.30847,0.012l50.03701,175.1774h-250.04746l42.42634,-95.56053l40.08124,0.01835c4.86938,0.00534 9.25825,-2.95994 11.08458,-7.47381z" fill="#586680" stroke="#ffffff" stroke-width="2.5" stroke-linecap="butt" stroke-linejoin="miter"/></g></g></svg>