<svg xmlns="http://www.w3.org/2000/svg" id="svg1" version="1.1" height="200" width="1096">
  <defs id="defs1"></defs>
  <rect id="rect1" stroke="none" fill="none" height="200" width="1096" y="0" x="0"></rect>
  <path aria-label="与那国島近海" style="font-weight:bold;font-size:110px;font-family:'BIZ UDPGothic';fill:#ff0000" id="text1" d="m 74.121094,102.46582 h -55 Q 26.855469,81.035156 30.131836,55.522461 l 12.084961,1.289062 q -0.805664,4.56543 -2.363281,12.890625 h 54.516601 v 9.882813 H 37.758789 q -1.772461,7.895508 -3.222656,13.212891 h 51.777344 q -0.322266,12.622068 -1.235352,24.331058 h 22.182615 v 9.99023 H 84.111328 q -2.202148,19.01367 -4.833984,25.0293 -2.25586,5.04883 -6.821289,6.82129 -3.867188,1.5039 -11.977539,1.5039 -8.59375,0 -18.261719,-1.02051 l -2.416992,-11.54785 q 12.246093,1.55762 20.08789,1.55762 5.371094,0 7.143555,-1.9873 2.685547,-3.00782 4.833984,-20.35645 H 2.7392578 v -9.99023 H 72.993164 l 0.05371,-0.53711 q 0.644531,-7.19727 1.074219,-14.12598 z m 66.386716,18.95996 q -2.14844,10.09766 -5.58594,17.93945 -4.88769,11.17188 -13.91113,20.19532 l -8.05664,-7.89551 q 11.17188,-10.84961 16.43555,-30.23926 h -16.00586 v -9.13086 h 17.83203 q 0.75195,-5.31738 1.34277,-16.542967 H 115.9082 v -9.238281 h 16.97266 l 0.0537,-2.792969 q 0.10742,-4.189453 0.21484,-12.944336 H 117.78809 V 61.21582 h 49.6289 v 12.084961 q -0.10742,62.841799 -2.09472,76.215819 -0.80567,5.58594 -4.45801,7.68067 -2.79297,1.61132 -8.64746,1.61132 -6.66016,0 -12.99805,-1.12793 l -1.07422,-11.06445 q 7.19727,1.61133 11.44043,1.61133 3.06152,0 3.9209,-1.18164 1.39648,-1.98731 2.09473,-20.67871 l 0.21484,-4.94141 z m 1.55762,-9.13086 h 14.07227 q 0.0537,-2.25586 0.10742,-6.17676 0.10742,-5.74707 0.21484,-10.366207 h -13.10547 l -0.0537,1.772461 q -0.53711,9.291996 -1.23535,14.770506 z m 1.61133,-25.781248 h 12.89062 v -4.243164 q 0.0537,-4.672852 0.0537,-9.184571 v -2.30957 h -12.67578 z m 59.56543,12.62207 q 13.21289,15.092778 13.21289,30.668948 0,6.76758 -2.30957,11.06445 -2.73926,5.10254 -10.74219,5.10254 -5.9082,0 -11.70898,-0.91309 l -2.52442,-11.76269 q 7.46582,1.45019 10.7959,1.45019 3.4375,0 4.08203,-2.04101 0.42969,-1.23535 0.42969,-3.65235 0,-15.30761 -13.21289,-28.62793 6.28418,-14.448238 9.3457,-28.144527 H 186.32324 V 160.47363 H 175.3125 V 61.806641 h 32.76367 l 5.85449,5.263671 q -5.26367,20.57129 -10.68847,32.06543 z M 279.18945,88.071289 V 100.85449 H 302.5 v 9.02344 h -10.47363 q 4.88769,3.97461 10.68847,11.33301 l -8.21777,5.47851 q -3.9209,-5.9082 -11.01074,-12.40722 l 7.84179,-4.4043 h -12.13867 v 17.02637 h 27.5 v 9.45312 h -63.48633 v -9.45312 h 24.86817 v -17.02637 h -20.78613 v -9.02344 h 20.78613 V 88.071289 h -23.74024 v -9.345703 h 61.12305 v 9.345703 z m 43.98926,-27.070312 v 99.472653 h -11.87012 v -5.63965 h -72.72461 v 5.63965 H 226.82129 V 61.000977 Z m -84.59473,9.882812 v 73.745121 h 72.72461 V 70.883789 Z m 134.00879,-6.767578 q 1.98731,-4.780274 3.22266,-9.130859 l 13.10547,1.77246 q -1.87988,4.458008 -3.4375,7.358399 h 35.77148 v 35.019531 h -64.88281 v 5.424808 h 80.83496 v 8.70117 h -80.83496 v 5.47851 h 77.0752 q -0.69825,24.59961 -3.11524,33.19336 -1.55762,5.47852 -5.85449,7.25098 -3.06152,1.28906 -9.3457,1.28906 -6.44532,0 -12.03125,-0.80566 l -2.14844,-9.02344 h -53.81836 v 5.96192 h -11.54785 v -25.83497 h 11.54785 v 11.06446 h 18.47656 v -14.50196 h -21.1084 V 64.116211 Z m 22.82715,77.719729 v -11.06446 h 11.11817 v 18.69141 q 4.458,0.42969 7.41211,0.42969 3.65234,0 4.56542,-2.09473 1.77247,-3.9209 2.79297,-20.46387 H 377.1582 v 14.50196 z M 356.37207,72.387695 v 5.317383 h 53.0127 v -5.317383 z m 0,12.998047 v 5.854492 h 53.0127 v -5.854492 z m 113.97461,50.649418 q 4.29687,4.99511 9.66797,7.41211 8.80859,3.9746 23.0957,3.9746 h 45.76172 q -1.93359,3.65235 -3.59863,10.47364 h -42.7002 q -18.47656,0 -28.30566,-5.80078 -4.02832,-2.417 -8.86231,-7.89551 -0.37597,0.42969 -0.91308,1.07422 -7.89551,9.3457 -15.6836,15.2539 l -6.49902,-11.01074 q 8.54004,-5.10254 16.48926,-11.54785 v -26.5332 h -15.62988 v -10.58106 h 27.17773 z m 13.96484,-71.274418 2.84668,-0.214844 q 24.86817,-1.71875 44.6875,-7.358398 l 8.37891,9.453125 q -20.83984,5.478516 -44.47266,7.412109 v 13.911133 h 49.73633 V 98.4375 h -18.04687 v 43.77441 H 515.57129 V 98.4375 h -19.81934 q -0.26855,17.24121 -2.57812,27.44629 -2.09473,9.39941 -6.875,16.86523 l -9.88281,-7.46582 q 5.31738,-8.27148 6.82128,-20.51757 1.07422,-8.43262 1.07422,-22.934575 z M 464.43848,85.761719 Q 456.2207,74.160156 446.71387,64.975586 l 8.80859,-7.036133 q 9.23828,7.734375 18.58399,19.658203 z M 647.7002,85.117187 q 0,2.524415 -0.4834,23.955083 h 10.25879 v 9.66796 h -10.47364 q -0.16113,7.03614 -0.69824,15.95215 h 9.07715 v 9.45313 h -9.77539 q -0.64453,7.78808 -1.77246,10.3125 -2.52442,6.01562 -12.2461,6.01562 -6.23046,0 -11.49414,-0.91308 L 618.10547,150 q 7.57324,1.07422 11.60156,1.07422 3.27637,0 3.9209,-2.30957 0.32227,-1.12793 0.59082,-4.61914 h -38.24219 q -0.0537,0.42969 -0.16113,0.91308 -0.4834,2.84668 -0.91309,5.3711 l -11.11816,-1.07422 q 3.27637,-19.38965 4.4043,-29.32617 l 0.16113,-1.28907 h -10.74219 v -9.66796 h 11.87012 q 1.50391,-12.998051 2.57812,-23.955083 z m -33.94532,9.345704 h -11.76269 q -0.16114,2.739257 -0.9668,11.547849 l -0.32227,3.06153 h 11.92383 l 0.16114,-1.50391 q 0.10742,-1.55762 0.32226,-4.35059 0.53711,-7.519528 0.64453,-8.754879 z m 10.58106,0 q -0.26856,6.391599 -0.80567,14.125979 v 0.4834 h 12.62207 q 0.21485,-7.3584 0.37598,-14.609379 z m -12.56836,24.277339 h -12.08496 q -0.80567,6.55274 -1.71875,12.94434 l -0.42969,3.00781 h 12.56836 q 1.28906,-11.65527 1.66504,-15.95215 z m 11.01074,0 q -0.16113,2.14844 -0.64453,7.08985 l -0.85938,8.8623 h 13.69629 q 0.26856,-5.20996 0.42969,-7.84179 0.32227,-5.74707 0.42969,-8.11036 z M 601.72363,65.727539 h 51.88477 v 9.990234 h -56.34278 q -4.35058,8.862305 -11.06445,16.865235 l -7.68066,-8.378906 Q 589.10156,71.796875 593.55957,55.629883 L 605,56.811523 q -1.93359,5.585938 -3.27637,8.916016 z m -29.59472,15.629883 q -6.60645,-9.077149 -16.05957,-17.026367 l 8.11035,-7.841797 q 8.75488,6.445312 16.65039,16.274414 z M 568.26172,109.7168 Q 560.09766,99.243164 551.77246,92.15332 l 8.37891,-8.05664 q 9.3457,7.358398 16.81152,16.75781 z m -14.60938,42.16308 q 9.34571,-12.94433 17.72461,-34.10644 l 9.56055,6.82129 q -6.98242,19.55078 -17.93945,35.8789 z"></path>
</svg>
