<svg xmlns="http://www.w3.org/2000/svg" id="svg1" version="1.1" height="200" width="1096">
  <defs id="defs1"></defs>
  <rect id="rect1" stroke="none" fill="none" height="200" width="1096" y="0" x="0"></rect>
  <path aria-label="ニュージーランド付近" style="font-weight:bold;font-size:110px;font-family:'BIZ UDPGothic';fill:#ff0000" id="text1" d="m 14.770508,73.461914 h 73.90625 V 85.009766 H 14.770508 Z M 3.8671875,134.96094 H 99.580078 v 11.65527 H 3.8671875 Z M 119.18457,84.526367 h 54.0332 q -1.28906,23.793943 -5.10254,53.818363 l -0.48339,3.75976 h 20.30273 v 10.20508 h -78.95508 v -10.20508 h 47.10449 q 4.13575,-28.95019 4.94141,-47.373045 h -41.84082 z m 82.07031,15.737303 h 94.58496 v 12.08496 H 201.25488 Z M 348.58398,84.418945 Q 332.73926,77.329102 316.25,72.548828 l 3.49121,-10.634766 q 18.58399,4.619141 32.60254,11.279297 z m -11.01074,27.500005 q -13.21289,-5.80079 -32.33398,-11.87012 l 4.61914,-10.742189 q 16.43555,4.350586 31.9043,11.547849 z m -25.40527,29.59472 q 20.78613,-1.66504 32.97851,-5.96191 31.36719,-11.11817 40.06836,-50.434573 l 11.01075,6.606446 q -7.14356,30.131837 -26.64063,44.848637 -12.7832,9.66796 -31.68945,13.75 -9.07715,1.9873 -22.29004,3.22265 z m 67.99805,-62.143553 q -3.4375,-8.486328 -11.01075,-18.90625 l 8.48633,-3.061523 q 6.82129,9.238281 10.95703,18.691406 z m 16.27441,-2.954101 q -4.45801,-10.581055 -10.7959,-19.121094 l 7.94922,-2.578125 q 6.3916,7.412109 10.84961,18.154297 z m 14.93164,23.847654 h 94.58496 v 12.08496 H 411.37207 Z M 526.20605,63.740234 h 70.84473 v 11.010743 h -70.84473 z m -7.68066,26.31836 h 89.42871 q -2.36328,23.417966 -9.77539,36.630856 -5.58594,9.93653 -13.96484,15.84473 -14.17969,10.09766 -41.25,13.85742 l -5.42481,-10.90332 q 23.90137,-2.30957 36.57715,-10.95703 16.43555,-11.11816 18.85254,-33.46191 H 518.52539 Z M 660.75195,88.178711 Q 643.7793,80.605469 625.46387,76.040039 l 3.75976,-11.547852 q 21.21582,4.833985 35.61035,12.03125 z m -33.94531,53.442379 q 26.58691,-2.25586 40.71289,-9.50683 16.65039,-8.59375 25.56641,-26.37207 5.80078,-11.494143 9.39941,-30.078128 l 10.3125,7.573243 q -4.35058,19.873045 -10.52734,31.582035 -11.17188,21.32324 -34.16016,30.88378 -14.50195,6.01563 -38.7793,8.59375 z M 733.95996,59.013672 h 12.51465 v 31.904297 q 32.06543,9.936521 53.12012,20.249021 l -6.01563,11.54785 q -20.19531,-10.25879 -47.10449,-19.49707 v 53.4961 h -12.51465 z m 47.10449,28.950195 q -3.27636,-8.540039 -10.90332,-19.926758 l 8.3252,-3.061523 q 6.66015,9.18457 11.11816,19.550781 z m 15.36133,-3.544922 Q 792.39746,73.999023 785.68359,64.438477 l 8.00293,-2.631836 q 6.06934,7.358398 10.90332,18.691406 z m 44.2041,1.557617 V 160.47363 H 828.97461 V 105.3125 q -4.35059,6.12305 -10.09766,12.67578 l -6.06933,-11.54785 q 10.90332,-12.084961 18.6914,-28.144532 4.72657,-9.721679 9.45313,-23.203125 l 11.22558,3.061524 q -4.88769,14.716797 -11.54785,27.822265 z M 901.80664,81.25 h 16.16699 v 10.795898 h -16.16699 v 56.396482 q 0,7.08985 -3.4375,9.45313 -2.52441,1.77246 -9.50684,1.77246 -8.54003,0 -17.50976,-0.9668 l -2.30957,-11.76269 q 9.56055,1.39648 17.83203,1.39648 2.25586,0 2.73926,-0.9668 0.32226,-0.69824 0.32226,-2.30957 V 92.045898 H 846.00098 V 81.25 h 43.93554 V 57.832031 h 11.87012 z m -33.99902,52.0459 q -6.06934,-16.16699 -14.98535,-29.48731 l 10.25878,-5.96191 q 9.66797,14.2334 15.52247,29.16504 z m 83.25195,2.73926 q 4.29688,4.99511 9.66797,7.41211 8.80859,3.9746 23.0957,3.9746 h 45.76176 q -1.9336,3.65235 -3.5987,10.47364 h -42.70017 q -18.47656,0 -28.30566,-5.80078 -4.02832,-2.417 -8.86231,-7.89551 -0.37597,0.42969 -0.91308,1.07422 -7.89551,9.3457 -15.6836,15.2539 l -6.49902,-11.01074 q 8.54004,-5.10254 16.48926,-11.54785 v -26.5332 h -15.62988 v -10.58106 h 27.17773 z m 13.96484,-71.274418 2.84668,-0.214844 q 24.86817,-1.71875 44.68751,-7.358398 l 8.3789,9.453125 q -20.8398,5.478516 -44.47266,7.412109 v 13.911133 h 49.73636 V 98.4375 h -18.0469 v 43.77441 H 996.28418 V 98.4375 h -19.81934 q -0.26855,17.24121 -2.57812,27.44629 -2.09473,9.39941 -6.875,16.86523 l -9.88281,-7.46582 q 5.31738,-8.27148 6.82129,-20.51757 1.07421,-8.43262 1.07421,-22.934575 z M 945.15137,85.761719 Q 936.93359,74.160156 927.42676,64.975586 l 8.80859,-7.036133 q 9.23828,7.734375 18.58399,19.658203 z"></path>
</svg>
