<svg xmlns="http://www.w3.org/2000/svg" id="svg1" version="1.1" height="200" width="990">
  <defs id="defs1"></defs>
  <rect id="rect1" stroke="none" fill="none" height="200" width="990" y="0" x="0"></rect>
  <path aria-label="インドシナ半島付近" style="font-size:100px;font-family:'BIZ UDPGothic';fill:#ff0000" id="text1" d="M 41.601562,153.90625 V 102.29492 Q 25.878906,112.93945 6.1035156,120.3125 L 1.7089844,113.28125 Q 23.046875,106.05469 39.111328,94.628906 55.517578,82.910156 67.285156,68.994141 l 6.835938,4.296875 Q 63.232422,85.498047 49.609375,96.386719 V 153.90625 Z M 118.11523,93.164062 Q 104.15039,86.816406 88.427734,83.007812 l 2.587891,-7.617187 q 18.798825,4.492187 29.931645,10.107422 z M 89.208984,143.50586 q 19.726566,-1.75781 31.054686,-6.00586 29.3457,-10.98633 36.96289,-50.585938 l 6.78711,4.882813 q -4.54101,21.484375 -14.16015,34.082035 -10.54688,13.86718 -28.8086,20.06836 -11.27929,3.80859 -29.833983,5.85937 z M 186.03516,68.896484 h 8.20312 v 28.222657 q 30.41992,9.472659 47.90039,18.359379 l -4.10156,7.32421 q -19.58008,-9.86328 -43.79883,-17.82226 v 49.51172 h -8.20312 z m 41.21093,24.707032 q -3.22265,-8.203125 -8.6914,-16.308594 l 5.85937,-2.392578 q 5.66406,7.861328 8.93555,16.308593 z m 12.59766,-3.90625 q -3.56445,-9.082032 -8.69141,-16.40625 l 5.76172,-2.09961 q 5.12696,6.738281 8.83789,15.820313 z m 54.98047,-1.416016 q -12.1582,-5.664063 -26.70899,-9.863281 l 2.49024,-7.03125 q 15.03906,3.662109 26.80664,9.521484 z m -10.30274,24.90234 q -10.64453,-4.73632 -26.51367,-9.86328 l 2.97852,-7.324216 q 14.59961,4.052736 26.51367,9.814456 z m -20.11718,30.71289 q 17.91992,-1.46484 28.75976,-5.22461 18.40821,-6.44531 28.51563,-23.38867 6.78711,-11.32812 10.10742,-28.271481 l 7.12891,4.296875 q -4.39454,20.068356 -12.5,32.226566 -9.86329,14.74609 -27.34375,21.67968 -12.30469,4.83399 -32.37305,6.5918 z M 386.03516,68.212891 h 7.91015 v 22.802734 h 37.10938 v 7.177734 h -37.10938 v 3.613281 q 0,14.30664 -1.51367,21.67969 -4.29687,21.04492 -27.73437,31.88476 l -5.07813,-6.59179 q 15.9668,-6.78711 21.875,-18.50586 3.56445,-7.12891 4.24805,-17.67578 0.29297,-4.29688 0.29297,-10.69336 v -3.710941 h -39.01368 v -7.177734 h 39.01368 z m 96.67968,31.689453 V 64.501953 h 7.91016 v 35.400391 h 37.98828 v 7.080076 H 490.625 v 15.625 h 43.89648 v 7.17774 H 490.625 v 29.6875 h -7.91016 v -29.6875 h -43.21289 v -7.17774 h 43.21289 v -15.625 H 445.41016 V 99.902344 Z M 461.86523,96.191406 Q 455.76172,82.763672 448.68164,73.095703 l 7.32422,-3.710937 q 8.10547,11.71875 13.47656,22.90039 z m 41.84571,-3.173828 q 7.66601,-11.474609 12.79297,-24.707031 l 8.10546,3.076172 q -5.81054,13.134765 -13.81835,24.902343 z M 605.0293,149.21875 h -53.8086 v 5.71289 h -7.71484 v -23.0957 h 7.71484 v 11.18164 h 19.0918 V 128.32031 H 551.2207 V 73.291016 h 23.97461 q 3.36914,-4.931641 5.41992,-9.179688 l 8.69141,2.001953 q -2.39258,3.515625 -5.46875,7.177735 h 35.25391 v 30.517574 h -59.96094 v 6.00586 h 75.3418 v 6.10352 h -75.3418 v 6.29883 h 70.94726 q -0.73242,23.87695 -3.32031,30.71289 -1.5625,4.19922 -5.51758,5.66406 -2.58789,0.92773 -6.83593,0.92773 -6.15235,0 -11.76758,-0.8789 l -1.61133,-7.22656 q 6.73828,1.02539 12.10938,1.02539 4.24804,0 5.37109,-1.95313 2.24609,-3.90625 3.36914,-22.16797 h -43.94531 v 14.69727 h 19.58008 v -11.18164 h 7.51953 z M 559.13086,79.296875 v 6.298828 h 52.09961 v -6.298828 z m 0,12.011719 v 6.689453 h 52.09961 V 91.308594 Z M 662.5,90.185547 v 69.335933 h -7.71484 v -55.37109 q -0.19532,0.29297 -0.48829,0.73242 -4.39453,7.17774 -10.88867,14.69727 l -4.10156,-7.37305 q 9.76563,-11.32812 16.35742,-25.195311 4.73633,-9.91211 8.83789,-22.900391 l 7.61719,2.099609 Q 667.62695,79.638672 662.5,90.185547 Z m 55.22461,-2.001953 h 16.60156 v 7.177734 h -16.60156 v 54.541012 q 0,5.17578 -2.49024,7.17774 -2.0996,1.61133 -7.76367,1.61133 -7.91015,0 -14.74609,-0.6836 L 691.11328,150 q 8.44727,1.2207 15.625,1.2207 2.14844,0 2.68555,-0.78125 0.39062,-0.63476 0.39062,-2.4414 V 95.361328 h -42.72461 v -7.177734 h 42.72461 V 65.283203 h 7.91016 z m -28.41797,45.410156 q -5.71289,-14.30664 -13.81836,-26.07422 l 6.49414,-4.19922 q 8.39844,12.35352 14.20899,25.87891 z m 74.21875,4.73633 q 4.29688,4.44336 9.81445,7.22656 8.59375,4.3457 23.58399,4.3457 h 38.3789 q -1.41601,2.88086 -2.49023,6.88477 h -36.08398 q -16.35743,0 -25.63477,-4.58984 -5.56641,-2.78321 -10.74219,-8.20313 -8.34961,9.57031 -16.25976,15.47852 l -4.58985,-7.08008 q 7.95899,-4.98047 16.40625,-12.5 v -25.6836 h -16.21093 v -6.7871 h 23.82812 z m 14.45313,-64.11133 q 1.70898,-0.146484 3.71093,-0.292969 21.92383,-1.80664 39.99024,-7.617187 l 5.61523,6.103515 q -17.91992,5.371094 -41.60156,7.763672 v 14.941406 h 47.41211 v 6.884763 h -17.91992 v 43.40821 h -7.8125 v -43.40821 h -21.67969 q 0,13.52539 -1.17188,22.07032 -1.5625,11.4746 -6.83593,20.21484 l -6.49414,-5.17578 q 4.78515,-8.30078 6.00586,-19.33594 0.78125,-7.27539 0.78125,-20.654296 z M 759.61914,88.916016 Q 752.09961,78.955078 744.0918,71.777344 l 5.51757,-4.6875 q 8.20313,6.689453 15.9668,16.308593 z"></path>
</svg>
