<svg xmlns="http://www.w3.org/2000/svg" id="svg1" version="1.1" height="200" width="990">
  <defs id="defs1"></defs>
  <rect id="rect1" stroke="none" fill="none" height="200" width="990" y="0" x="0"></rect>
  <path aria-label="サハリン南部付近" style="font-size:100px;font-family:'BIZ UDPGothic';fill:#ff0000" id="text1" d="m 63.378906,69.042969 h 7.910156 v 19.77539 h 20.605469 v 7.177735 H 71.289062 v 4.492186 q 0,24.1211 -6.835937,36.18164 -6.787109,11.96289 -23.144531,17.91992 l -5.029297,-6.29882 q 16.748047,-5.81055 22.607422,-18.50586 4.492187,-9.81446 4.492187,-29.19922 V 95.996094 H 31.201172 V 123.97461 H 23.291016 V 95.996094 H 4.1015625 V 88.818359 H 23.291016 V 69.628906 h 7.910156 v 19.189453 h 32.177734 z m 38.037114,75.341801 q 8.44726,-12.10938 14.40429,-30.95704 5.95703,-18.798824 7.61719,-37.744136 l 7.95898,1.708984 q -6.54296,48.876952 -23.38867,72.998042 z m 76.90429,6.00585 q -6.68945,-10.98632 -12.79297,-27.19726 -8.15429,-21.72852 -12.98828,-45.996094 l 7.56836,-2.392579 q 4.58985,23.632813 13.37891,45.849613 5.41992,13.7207 11.71875,24.26757 z m 25.29297,-80.371089 h 8.20313 v 51.464849 h -8.20313 z m 50.09766,-1.02539 h 8.20312 v 33.496089 q 0,16.99219 -2.34375,25.04883 -2.49023,8.64258 -7.42187,13.81836 -8.4961,8.88672 -26.31836,13.33008 l -4.29688,-7.17773 q 20.70313,-4.54102 26.9043,-14.99024 3.95508,-6.78711 4.83398,-16.94336 0.43946,-4.88281 0.43946,-12.98828 z m 61.37695,24.169921 q -13.96484,-6.347656 -29.6875,-10.15625 l 2.58789,-7.617187 q 18.79883,4.492187 29.93164,10.107422 z m -28.90625,50.341798 q 19.72656,-1.75781 31.05469,-6.00586 29.3457,-10.98633 36.96289,-50.585938 l 6.78711,4.882813 q -4.54102,21.484375 -14.16016,34.082035 -10.54687,13.86718 -28.80859,20.06836 -11.2793,3.80859 -29.83399,5.85937 z M 420.50781,93.994141 h 37.06055 v 57.324219 q 0,3.90625 -1.61133,5.66406 -1.9043,2.05078 -8.00781,2.05078 -5.76172,0 -11.18164,-0.63476 l -1.70899,-7.42188 q 8.88672,0.92774 12.06055,0.92774 1.85547,0 2.29492,-0.87891 0.24414,-0.53711 0.24414,-1.61133 v -49.02343 h -65.47851 v 59.13085 h -7.91016 V 93.994141 h 36.52344 V 83.007812 h -43.31055 v -6.689453 h 43.31055 V 64.501953 h 7.71484 v 11.816406 h 43.94531 v 6.689453 h -43.94531 z m -7.61719,27.783199 h -22.21679 v -6.20117 h 11.86523 q -2.14844,-5.32226 -5.37109,-10.49804 l 6.73828,-2.5879 q 4.05273,7.12891 6.20117,13.08594 h 13.13477 q 3.32031,-6.05469 5.76172,-13.28125 l 7.42187,2.58789 q -2.39258,4.98047 -5.32226,9.96094 l -0.39063,0.73242 h 12.40234 v 6.20117 h -22.70507 v 9.13086 h 24.70703 v 6.29883 h -24.70703 v 19.92188 h -7.51954 v -19.92188 h -24.02343 v -6.29883 h 24.02343 z m 88.08594,-45.166012 h 21.82617 v 6.787109 h -7.03125 q -2.05078,9.13086 -5.61523,18.701173 h 14.45312 v 6.88477 h -55.12695 v -6.88477 h 13.7207 l -0.0976,-0.48828 q -2.05078,-10.009768 -4.39453,-17.187502 l -0.3418,-1.025391 h -7.08008 v -6.787109 h 22.2168 V 64.501953 h 7.4707 z m -15.13672,6.787109 q 2.58789,7.958985 4.73633,18.701173 h 12.1582 q 2.92969,-8.105469 5.32227,-18.701173 z m 31.83594,35.888673 v 39.30664 h -7.32422 v -5.51758 H 484.375 v 6.39649 h -7.56836 v -40.18555 z m -33.30078,6.68945 v 20.3125 h 25.97656 v -20.3125 z m 65.42969,-22.70508 q 12.84179,13.57422 12.84179,29.44336 0,5.56641 -2.00195,8.39844 -2.44141,3.27149 -8.49609,3.27149 -5.81055,0 -10.69336,-0.6836 l -1.61133,-7.61719 q 6.25,1.02539 10.15625,1.02539 3.71094,0 4.39453,-2.49023 0.29297,-1.07422 0.29297,-3.51562 0,-13.72071 -12.64648,-26.70899 5.85937,-12.695311 9.52148,-26.708983 h -15.42969 v 81.787113 h -7.37304 V 70.507812 H 556.25 l 4.39453,3.808594 q -5.37109,17.382813 -10.83984,28.955074 z m 42.67578,-13.085933 v 69.335933 h -7.71485 v -55.37109 q -0.19531,0.29297 -0.48828,0.73242 -4.39453,7.17774 -10.88867,14.69727 l -4.10156,-7.37305 q 9.76562,-11.32812 16.35742,-25.195311 4.73633,-9.91211 8.83789,-22.900391 l 7.61719,2.099609 q -4.49219,13.427735 -9.61914,23.97461 z m 55.22461,-2.001953 h 16.60156 v 7.177734 h -16.60156 v 54.541012 q 0,5.17578 -2.49024,7.17774 -2.09961,1.61133 -7.76367,1.61133 -7.91015,0 -14.74609,-0.6836 L 621.09375,150 q 8.44727,1.2207 15.625,1.2207 2.14844,0 2.68555,-0.78125 0.39062,-0.63476 0.39062,-2.4414 V 95.361328 h -42.72461 v -7.177734 h 42.72461 V 65.283203 h 7.91016 z m -28.41797,45.410156 q -5.71289,-14.30664 -13.81836,-26.07422 l 6.49414,-4.19922 q 8.39844,12.35352 14.20898,25.87891 z m 74.21875,4.73633 q 4.29687,4.44336 9.81445,7.22656 8.59375,4.3457 23.58399,4.3457 h 38.3789 q -1.41601,2.88086 -2.49023,6.88477 h -36.08399 q -16.35742,0 -25.63476,-4.58984 -5.56641,-2.78321 -10.74219,-8.20313 -8.34961,9.57031 -16.25976,15.47852 l -4.58985,-7.08008 q 7.95899,-4.98047 16.40625,-12.5 v -25.6836 h -16.21094 v -6.7871 h 23.82813 z m 14.45312,-64.11133 q 1.70899,-0.146484 3.71094,-0.292969 21.92383,-1.80664 39.99024,-7.617187 l 5.61523,6.103515 q -17.91992,5.371094 -41.60156,7.763672 v 14.941406 h 47.41211 v 6.884763 h -17.91992 v 43.40821 h -7.8125 v -43.40821 h -21.67969 q 0,13.52539 -1.17188,22.07032 -1.5625,11.4746 -6.83593,20.21484 l -6.49415,-5.17578 q 4.78516,-8.30078 6.00586,-19.33594 0.78125,-7.27539 0.78125,-20.654296 z m -18.35937,14.697266 q -7.51953,-9.960938 -15.52734,-17.138672 l 5.51757,-4.6875 q 8.20313,6.689453 15.9668,16.308593 z"></path>
</svg>
