<svg xmlns="http://www.w3.org/2000/svg" id="svg1" version="1.1" height="200" width="1096">
  <defs id="defs1"></defs>
  <rect id="rect1" stroke="none" fill="none" height="200" width="1096" y="0" x="0"></rect>
  <path aria-label="南大東島近海" style="font-weight:bold;font-size:110px;font-family:'BIZ UDPGothic';fill:#ff0000" id="text1" d="M 49.038086,120.5127 H 26.801758 v -8.8086 h 10.742187 q -2.416992,-5.47851 -5.478515,-10.20508 l 9.667968,-3.544918 q 4.189454,7.036128 6.767579,13.749998 h 12.62207 q 3.168945,-6.49902 5.585937,-13.964842 l 10.795899,3.383792 q -2.739258,5.9082 -5.800781,10.58105 h 11.547851 v 8.8086 H 60.263672 v 7.84179 h 24.492187 v 9.13086 H 60.263672 v 20.30274 H 49.038086 V 137.48535 H 25.458984 v -9.13086 H 49.038086 Z M 60.585937,87.426758 h 40.712893 v 62.788082 q 0,5.53223 -2.954103,7.78809 -2.470704,1.93359 -8.325196,1.93359 -7.573242,0 -14.609375,-0.80566 l -2.631836,-10.7959 q 9.399414,1.12793 14.072266,1.12793 1.933594,0 2.255859,-0.9668 0.214844,-0.59082 0.214844,-1.66504 V 96.772461 H 20.678711 V 160.47363 H 8.7011719 V 87.426758 H 48.71582 v -9.72168 H 2.7392578 V 67.714844 H 48.71582 V 55.952148 h 11.870117 v 11.762696 h 46.621093 v 9.990234 H 60.585937 Z m 111.879883,7.143554 q 3.70605,12.568358 14.07227,26.748048 12.62207,17.29492 31.04492,27.39258 l -7.68067,11.06445 q -19.49707,-11.49414 -32.54882,-30.4541 -7.03614,-10.3125 -11.2793,-21.00098 -4.24317,14.39453 -13.15918,26.15723 -13.10547,17.40234 -32.3877,25.67383 l -7.57324,-9.8291 q 20.19531,-8.43262 32.60254,-25.9961 10.41992,-14.82422 12.35352,-29.755858 H 115.04883 V 82.915039 h 43.34472 V 57.026367 h 12.40723 v 25.888672 h 44.25781 v 11.655273 z m 120.15137,30.991208 q 13.32031,11.87012 35.8789,19.17481 l -6.92871,10.09765 q -12.99804,-4.61914 -22.66601,-11.17187 -9.99024,-6.82129 -18.42285,-16.75781 v 33.56933 h -11.65528 v -32.97851 q -7.46582,10.47363 -19.28222,18.79883 -9.07715,6.3916 -19.44336,10.3125 l -7.3584,-9.45313 q 17.02636,-5.63965 28.41308,-15.2002 3.22266,-2.68554 6.55274,-6.3916 H 231.87012 V 81.572266 h 36.95312 V 74.321289 H 224.29687 V 64.65332 h 44.52637 v -8.701172 h 11.65528 v 8.701172 h 45.2246 v 9.667969 h -45.2246 v 7.250977 h 37.65136 V 125.56152 Z M 268.82324,90.595703 h -25.29785 v 8.701172 h 25.29785 z m 11.65528,0 v 8.701172 h 25.99609 v -8.701172 z m -11.65528,17.080077 h -25.29785 v 8.86231 h 25.29785 z m 11.65528,0 v 8.86231 h 25.99609 v -8.86231 z m 92.11425,-43.559569 q 1.98731,-4.780274 3.22266,-9.130859 l 13.10547,1.77246 q -1.87988,4.458008 -3.4375,7.358399 h 35.77148 v 35.019531 h -64.88281 v 5.424808 h 80.83496 v 8.70117 h -80.83496 v 5.47851 h 77.0752 q -0.69825,24.59961 -3.11524,33.19336 -1.55762,5.47852 -5.85449,7.25098 -3.06152,1.28906 -9.3457,1.28906 -6.44532,0 -12.03125,-0.80566 l -2.14844,-9.02344 h -53.81836 v 5.96192 h -11.54785 v -25.83497 h 11.54785 v 11.06446 h 18.47656 v -14.50196 h -21.1084 V 64.116211 Z m 22.82715,77.719729 v -11.06446 h 11.11817 v 18.69141 q 4.458,0.42969 7.41211,0.42969 3.65234,0 4.56542,-2.09473 1.77247,-3.9209 2.79297,-20.46387 H 377.1582 v 14.50196 z M 356.37207,72.387695 v 5.317383 h 53.0127 v -5.317383 z m 0,12.998047 v 5.854492 h 53.0127 v -5.854492 z m 113.97461,50.649418 q 4.29687,4.99511 9.66797,7.41211 8.80859,3.9746 23.0957,3.9746 h 45.76172 q -1.93359,3.65235 -3.59863,10.47364 h -42.7002 q -18.47656,0 -28.30566,-5.80078 -4.02832,-2.417 -8.86231,-7.89551 -0.37597,0.42969 -0.91308,1.07422 -7.89551,9.3457 -15.6836,15.2539 l -6.49902,-11.01074 q 8.54004,-5.10254 16.48926,-11.54785 v -26.5332 h -15.62988 v -10.58106 h 27.17773 z m 13.96484,-71.274418 2.84668,-0.214844 q 24.86817,-1.71875 44.6875,-7.358398 l 8.37891,9.453125 q -20.83984,5.478516 -44.47266,7.412109 v 13.911133 h 49.73633 V 98.4375 h -18.04687 v 43.77441 H 515.57129 V 98.4375 h -19.81934 q -0.26855,17.24121 -2.57812,27.44629 -2.09473,9.39941 -6.875,16.86523 l -9.88281,-7.46582 q 5.31738,-8.27148 6.82128,-20.51757 1.07422,-8.43262 1.07422,-22.934575 z M 464.43848,85.761719 Q 456.2207,74.160156 446.71387,64.975586 l 8.80859,-7.036133 q 9.23828,7.734375 18.58399,19.658203 z M 647.7002,85.117187 q 0,2.524415 -0.4834,23.955083 h 10.25879 v 9.66796 h -10.47364 q -0.16113,7.03614 -0.69824,15.95215 h 9.07715 v 9.45313 h -9.77539 q -0.64453,7.78808 -1.77246,10.3125 -2.52442,6.01562 -12.2461,6.01562 -6.23046,0 -11.49414,-0.91308 L 618.10547,150 q 7.57324,1.07422 11.60156,1.07422 3.27637,0 3.9209,-2.30957 0.32227,-1.12793 0.59082,-4.61914 h -38.24219 q -0.0537,0.42969 -0.16113,0.91308 -0.4834,2.84668 -0.91309,5.3711 l -11.11816,-1.07422 q 3.27637,-19.38965 4.4043,-29.32617 l 0.16113,-1.28907 h -10.74219 v -9.66796 h 11.87012 q 1.50391,-12.998051 2.57812,-23.955083 z m -33.94532,9.345704 h -11.76269 q -0.16114,2.739257 -0.9668,11.547849 l -0.32227,3.06153 h 11.92383 l 0.16114,-1.50391 q 0.10742,-1.55762 0.32226,-4.35059 0.53711,-7.519528 0.64453,-8.754879 z m 10.58106,0 q -0.26856,6.391599 -0.80567,14.125979 v 0.4834 h 12.62207 q 0.21485,-7.3584 0.37598,-14.609379 z m -12.56836,24.277339 h -12.08496 q -0.80567,6.55274 -1.71875,12.94434 l -0.42969,3.00781 h 12.56836 q 1.28906,-11.65527 1.66504,-15.95215 z m 11.01074,0 q -0.16113,2.14844 -0.64453,7.08985 l -0.85938,8.8623 h 13.69629 q 0.26856,-5.20996 0.42969,-7.84179 0.32227,-5.74707 0.42969,-8.11036 z M 601.72363,65.727539 h 51.88477 v 9.990234 h -56.34278 q -4.35058,8.862305 -11.06445,16.865235 l -7.68066,-8.378906 Q 589.10156,71.796875 593.55957,55.629883 L 605,56.811523 q -1.93359,5.585938 -3.27637,8.916016 z m -29.59472,15.629883 q -6.60645,-9.077149 -16.05957,-17.026367 l 8.11035,-7.841797 q 8.75488,6.445312 16.65039,16.274414 z M 568.26172,109.7168 Q 560.09766,99.243164 551.77246,92.15332 l 8.37891,-8.05664 q 9.3457,7.358398 16.81152,16.75781 z m -14.60938,42.16308 q 9.34571,-12.94433 17.72461,-34.10644 l 9.56055,6.82129 q -6.98242,19.55078 -17.93945,35.8789 z"></path>
</svg>
