<svg xmlns="http://www.w3.org/2000/svg" id="svg1" version="1.1" height="200" width="1096">
  <defs id="defs1"></defs>
  <rect id="rect1" stroke="none" fill="none" height="200" width="1096" y="0" x="0"></rect>
  <path aria-label="土佐湾" style="font-weight:bold;font-size:110px;font-family:'BIZ UDPGothic';fill:#ff0000" id="text1" d="M 48.393555,85.761719 V 56.918945 H 60.800781 V 85.761719 H 100.43945 V 96.879883 H 60.800781 v 45.170897 h 46.459959 v 11.22559 H 2.7392578 V 142.05078 H 48.393555 V 96.879883 H 9.5605469 V 85.761719 Z m 88.085935,44.633791 q 9.93653,-10.74219 18.26172,-28.57422 3.38379,-7.250978 6.33789,-18.046876 H 142.76367 V 73.085937 h 20.83985 q 2.09472,-10.151367 3.11523,-17.724609 l 11.70898,1.772461 q -1.07421,7.412109 -2.84668,15.952148 h 39.90723 v 10.688477 h -42.43164 l -0.37598,1.342773 q -3.16894,11.870118 -7.30468,21.430663 h 45.708 v 10.09766 h -22.66601 v 28.84277 h 28.78906 v 10.68848 h -71.16699 v -10.68848 h 30.50781 v -28.84277 h -16.11328 q -7.68066,13.96484 -16.81152,23.31054 l -7.14356,-8.59375 v 29.32618 h -11.44043 v -55.32227 q -3.59863,6.23047 -8.70117,13.37402 L 110.9668,106.7627 q 8.70117,-12.192388 14.93164,-28.681645 3.54492,-9.345703 7.41211,-22.934571 l 11.44043,2.84668 q -3.9209,13.535156 -8.27149,24.0625 z M 302.9834,74.106445 v 20.786133 q 0,3.544922 -1.50391,5.209962 -1.77246,1.93359 -7.84179,1.93359 -5.80079,0 -9.50684,-0.64453 l -1.39649,-8.916014 q 4.24317,0.859375 7.14356,0.859375 1.55762,0 1.9873,-0.751953 0.32227,-0.644531 0.32227,-2.094727 V 74.106445 h -9.56055 q -0.42968,11.333008 -3.00781,17.402344 -2.84668,6.606445 -11.76269,12.084961 l -7.68067,-6.821289 q 8.05664,-4.189453 10.36621,-10.795899 1.39649,-4.135742 1.71875,-11.870117 h -21.21582 v -9.130859 h 30.56153 v -9.023438 h 11.8164 v 9.023438 h 33.73047 v 9.130859 z m 16.59668,30.454105 v 21.80664 h -53.0127 q -0.42968,2.9541 -1.02051,5.9082 h 58.65235 q -1.34277,14.77051 -3.70606,20.24902 -3.4375,7.94922 -16.11328,7.94922 -10.52734,0 -22.6123,-0.91308 l -1.98731,-9.77539 q 11.54785,1.23535 20.67871,1.23535 4.94141,0 6.49903,-1.12793 2.41699,-1.77246 3.75976,-9.23828 h -47.26562 q -0.59082,2.20215 -2.04102,6.60644 l -11.54785,-2.30957 q 4.08203,-12.24609 6.12305,-26.47949 h 51.83105 v -5.74707 h -55 v -8.16406 z M 240.57129,80.820312 q -5.96192,-8.271484 -15.25391,-16.381835 l 8.00293,-7.626954 q 8.43262,6.176758 15.84473,15.737305 z m -3.27637,27.714848 Q 229.02344,98.061523 221.23535,91.455078 l 8.05664,-7.788086 q 8.05664,6.176758 16.59668,15.952149 z M 223.4375,151.9873 q 9.45312,-14.71679 17.93945,-37.75878 l 8.8086,6.49902 q -7.03614,21.32324 -16.86524,39.85351 z m 95.71289,-51.50878 Q 312.11426,89.091797 304.37988,80.820312 l 8.16407,-5.263671 q 9.45312,8.59375 15.30761,18.798828 z m -75.1416,-6.445317 q 7.8418,-6.445312 12.89062,-17.080078 l 9.77539,3.652344 q -5.26367,11.977539 -14.55566,19.980471 z"></path>
</svg>
