<svg xmlns="http://www.w3.org/2000/svg" id="svg1" version="1.1" height="200" width="990">
  <defs id="defs1"></defs>
  <rect id="rect1" stroke="none" fill="none" height="200" width="990" y="0" x="0"></rect>
  <path aria-label="北極付近" style="font-size:100px;font-family:'BIZ UDPGothic';fill:#ff0000" id="text1" d="m 30.615234,132.8125 q -11.425781,6.25 -25.0976559,11.81641 l -3.515625,-7.71485 Q 19.335937,130.76172 30.615234,124.95117 V 98.535156 H 4.9804687 V 91.113281 H 30.615234 V 65.527344 h 8.007813 V 158.74023 H 30.615234 Z M 62.011719,97.949219 Q 75,91.845703 87.304687,81.591797 l 6.201172,6.103515 Q 78.369141,98.779297 62.011719,105.9082 v 38.1836 q 0,3.07617 2.246093,3.71093 1.806641,0.53711 10.351563,0.53711 8.056641,0 10.351562,-1.12304 1.660157,-0.83008 2.246094,-4.29688 0.683594,-4.44336 1.074219,-14.84375 l 7.910156,2.73438 q -0.585937,16.01562 -2.246094,19.9707 -1.611328,3.90625 -7.03125,4.88281 -4.638671,0.83008 -13.52539,0.83008 -12.109375,0 -15.429688,-1.5625 -3.955078,-1.85547 -3.955078,-7.91016 V 65.478516 h 8.007813 z m 53.808591,11.914061 q -3.85742,14.25781 -10.69336,26.80664 l -3.80859,-7.91015 q 9.27734,-16.06446 13.67187,-35.79102 h -12.35351 v -6.982422 h 13.18359 V 64.501953 h 7.17774 v 21.484375 h 9.71679 v 6.982422 h -9.71679 v 8.93555 q 5.51757,4.39453 11.91406,11.18164 l -4.19922,6.88476 q -3.80859,-5.41992 -7.71484,-9.76562 v 49.26758 h -7.17774 z m 52.09961,-24.169921 v 53.320311 q 0,3.90625 -2.14844,5.51758 -1.85546,1.36719 -6.39648,1.36719 -5.07813,0 -9.13086,-0.39063 l -1.31836,-6.59179 q 4.15039,0.58593 8.69141,0.58593 2.29492,0 2.88086,-0.53711 0.63476,-0.63476 0.63476,-2.24609 V 91.601562 h -10.88867 q 2.7832,-6.347656 5.71289,-15.527343 h -22.2168 v -6.591797 h 59.96094 v 6.591797 h -30.46875 q -0.8789,3.125 -3.22265,9.61914 z m -12.30469,11.230469 v 33.691402 h -13.57421 v 6.20118 h -6.29883 V 96.923828 Z m -13.57421,6.298832 v 21.09375 h 7.4707 v -21.09375 z m 44.53125,16.60156 q 3.51562,4.83398 8.83789,13.28125 l -4.49219,6.29883 q -3.61328,-6.49414 -7.27539,-12.20703 -3.95508,8.59375 -10.83985,16.89453 l -4.58984,-5.32227 q 7.12891,-7.8125 11.08398,-17.96875 -4.78515,-6.78711 -9.27734,-11.8164 l 4.10156,-4.88282 q 4.44336,5.07813 7.71485,9.32617 1.90429,-6.59179 3.07617,-15.039058 h -14.20899 v -6.494141 h 17.91993 l 3.41797,2.783203 q -1.85547,14.453126 -5.46875,25.146486 z m -56.44532,29.58984 h 67.28516 v 6.78711 h -67.28516 z m 95.36133,-59.228513 v 69.335933 h -7.71484 v -55.37109 q -0.19532,0.29297 -0.48828,0.73242 -4.39454,7.17774 -10.88868,14.69727 l -4.10156,-7.37305 q 9.76563,-11.32812 16.35742,-25.195311 4.73633,-9.91211 8.83789,-22.900391 l 7.61719,2.099609 q -4.49219,13.427735 -9.61914,23.97461 z m 55.22461,-2.001953 h 16.60156 v 7.177734 h -16.60156 v 54.541012 q 0,5.17578 -2.49023,7.17774 -2.09961,1.61133 -7.76368,1.61133 -7.91015,0 -14.74609,-0.6836 L 254.10156,150 q 8.44727,1.2207 15.625,1.2207 2.14844,0 2.68555,-0.78125 0.39062,-0.63476 0.39062,-2.4414 V 95.361328 h -42.72461 v -7.177734 h 42.72461 V 65.283203 h 7.91016 z m -28.41797,45.410156 q -5.71289,-14.30664 -13.81836,-26.07422 l 6.49414,-4.19922 q 8.39844,12.35352 14.20899,25.87891 z m 74.21875,4.73633 q 4.29688,4.44336 9.81445,7.22656 8.59375,4.3457 23.58399,4.3457 h 38.37891 q -1.41602,2.88086 -2.49024,6.88477 H 359.7168 q -16.35743,0 -25.63477,-4.58984 -5.56641,-2.78321 -10.74219,-8.20313 -8.34961,9.57031 -16.25976,15.47852 l -4.58985,-7.08008 q 7.95899,-4.98047 16.40625,-12.5 v -25.6836 h -16.21093 v -6.7871 h 23.82812 z M 340.9668,74.21875 q 1.70898,-0.146484 3.71093,-0.292969 21.92383,-1.80664 39.99024,-7.617187 l 5.61523,6.103515 q -17.91992,5.371094 -41.60156,7.763672 v 14.941406 h 47.41211 v 6.884763 h -17.91992 v 43.40821 h -7.8125 v -43.40821 h -21.67969 q 0,13.52539 -1.17187,22.07032 -1.5625,11.4746 -6.83594,20.21484 l -6.49414,-5.17578 q 4.78515,-8.30078 6.00586,-19.33594 0.78125,-7.27539 0.78125,-20.654296 z m -18.35938,14.697266 q -7.51953,-9.960938 -15.52734,-17.138672 l 5.51758,-4.6875 q 8.20312,6.689453 15.96679,16.308593 z"></path>
</svg>
