<svg version="1.1" xmlns="http://www.w3.org/2000/svg" xmlns:xlink="http://www.w3.org/1999/xlink" width="179.22303" height="36.92656" viewBox="0,0,179.22303,36.92656"><g transform="translate(-150.38848,-161.53672)"><g stroke-miterlimit="10"><path d="M168.85176,162.78672h142.29647c9.53616,0 17.21328,7.67712 17.21328,17.21328c0,9.53616 -7.67712,17.21328 -17.21328,17.21328h-142.29647c-9.53616,0 -17.21328,-7.67712 -17.21328,-17.21328c0,-9.53616 7.67712,-17.21328 17.21328,-17.21328z" fill="#273e72" stroke="#8999ca" stroke-width="2.5"/><g stroke="none"><path d="M182.20281,170.7352h2.94437l7.17277,18.45215h-3.17682l-1.88174,-5.02536h-7.16169l-1.88174,5.02536h-3.17683zM186.4644,181.78212l-1.71572,-4.67115c-0.48704,-1.31353 -0.83017,-2.47209 -1.02943,-3.47569h-0.08857c-0.19188,1.0036 -0.53133,2.16216 -1.01836,3.47569l-1.72679,4.67115zM193.42686,170.82374h3.74135l4.64902,7.07315l4.64902,-7.07315h3.74135l-6.48648,9.08772l7.00672,9.27588h-3.78562l-5.12498,-7.20597l-5.12498,7.20597h-3.78562l7.00674,-9.27588zM212.23322,170.82374h7.70408v2.03672h-2.35772v14.29017h2.35772v2.03672h-7.70408v-2.03672h2.35772v-14.29017h-2.35772zM223.66757,184.53833c1.52015,1.71203 3.40191,2.56803 5.64523,2.56803c1.01836,0 1.83377,-0.20293 2.44626,-0.6088c0.72318,-0.49441 1.08477,-1.1807 1.08477,-2.05885c0,-0.79697 -0.31362,-1.44635 -0.94087,-1.94815c-0.41325,-0.33207 -1.40946,-0.80804 -2.98865,-1.4279l-0.42063,-0.16604l-0.7527,-0.29888c-0.05165,-0.02213 -0.14389,-0.05903 -0.2767,-0.1107c-1.62347,-0.61249 -2.67503,-1.11797 -3.15469,-1.51647c-0.07381,-0.06643 -0.16604,-0.15866 -0.2767,-0.2767c-0.78959,-0.84864 -1.18439,-1.87067 -1.18439,-3.06613c0,-1.54229 0.55346,-2.78573 1.66036,-3.73028c1.15857,-0.98883 2.72299,-1.48326 4.69329,-1.48326c1.37256,0 2.59754,0.20293 3.67493,0.6088c0.85601,0.33207 1.70832,0.84124 2.55696,1.52753l-1.52753,2.12526c-1.30616,-1.23974 -2.86689,-1.8596 -4.68222,-1.8596c-1.18808,0 -2.05146,0.27673 -2.59016,0.83017c-0.45752,0.47228 -0.68629,1.04419 -0.68629,1.71572c0,0.76746 0.33207,1.37995 0.99622,1.83746c0.42063,0.29517 1.31353,0.68629 2.67872,1.17332l0.88552,0.32101c1.94816,0.70103 3.28383,1.38732 4.007,2.05885c1.0036,0.93718 1.5054,2.11419 1.5054,3.53103c0,1.7563 -0.68996,3.12518 -2.06992,4.10663c-1.13643,0.80435 -2.6861,1.20653 -4.64902,1.20653c-3.05507,0 -5.50133,-1.0368 -7.33879,-3.11042zM240.16051,189.82935c-0.28042,-2.509 -0.42063,-5.00322 -0.42063,-7.48269c0,-4.25052 0.31362,-8.28705 0.94087,-12.10957l2.43519,0.25457c-0.59773,3.30597 -0.89659,7.03625 -0.89659,11.19084c0,2.78942 0.15497,5.39803 0.4649,7.82584zM246.80196,172.29593h10.63738v2.35772h-10.63738zM258.19204,188.46785c-1.47588,0.22877 -3.22848,0.34314 -5.25781,0.34314c-5.09916,0 -7.64874,-1.49801 -7.64874,-4.49405c0,-1.18808 0.31731,-2.22489 0.95194,-3.11042l2.09206,0.9298c-0.39849,0.56082 -0.59773,1.19177 -0.59773,1.8928c0,0.86339 0.4317,1.45744 1.29509,1.78213c0.95932,0.36896 2.26917,0.55346 3.92952,0.55346c1.7932,0 3.45355,-0.11808 4.98109,-0.35421zM279.31185,182.723c-0.51655,1.43897 -1.2176,2.70824 -2.10312,3.80776c1.36519,0.642 2.90747,1.4685 4.62688,2.47947l-1.47219,1.88174c-1.6825,-1.01098 -3.28752,-1.92234 -4.81505,-2.73406c-1.76366,1.26187 -4.07342,2.17324 -6.92924,2.73406l-1.2176,-2.01457c2.26547,-0.20664 4.26159,-0.80068 5.98838,-1.78213c-1.31353,-0.59773 -2.66027,-1.1475 -4.04021,-1.64929c0.56822,-0.89291 1.08108,-1.80057 1.5386,-2.72299h-3.48676v-1.9703h4.38336c0.2509,-0.59773 0.52024,-1.27663 0.80804,-2.03672h-4.60473l0.22137,1.38363c-0.73056,0.3542 -1.4685,0.68629 -2.2138,0.99622v7.63767c0,0.72318 -0.16604,1.23235 -0.49811,1.52753c-0.30993,0.28042 -0.85232,0.42063 -1.62715,0.42063c-0.78221,0 -1.56443,-0.05903 -2.34665,-0.17711l-0.45383,-2.37985c0.1771,0.02213 0.40585,0.05534 0.68629,0.09964c0.53131,0.07381 0.96302,0.1107 1.29509,0.1107c0.2509,0 0.41325,-0.04427 0.48704,-0.13283c0.06643,-0.08119 0.09964,-0.23615 0.09964,-0.4649v-5.72272c-0.70843,0.27302 -1.56443,0.56822 -2.56803,0.88552l-0.67521,-2.2581c1.31353,-0.34683 2.39461,-0.66414 3.24323,-0.95194v-4.16198h-2.92223v-2.20275h2.92223v-4.08449h2.35772v4.08449h2.01457v2.20275h-2.01457v3.32073c0.5018,-0.19188 0.99622,-0.39112 1.48326,-0.59773l0.29884,-0.12177v-1.4279h3.30966c-0.30256,-1.12904 -0.63093,-2.09944 -0.98516,-2.91117h-1.63822v-1.9703h5.03642v-2.5791h2.37985v2.5791h5.45706v1.9703h-1.99244c-0.2509,0.94456 -0.60142,1.91495 -1.05156,2.91116h3.59745v2.01457h-6.82962c-0.30256,0.8265 -0.56452,1.5054 -0.7859,2.03672h7.90332v1.9703zM276.86558,182.723h-3.46462c-0.33945,0.68629 -0.65676,1.28402 -0.95194,1.79319c0.59035,0.20664 1.34674,0.5055 2.26916,0.89659l0.44277,0.18817c0.7158,-0.83388 1.28402,-1.7932 1.70463,-2.87796zM272.33831,173.79024c0.39111,0.84864 0.73794,1.81902 1.04049,2.91116h2.53482c0.28042,-0.67889 0.60511,-1.64929 0.97409,-2.91116zM286.21894,177.47625c-0.81912,-1.26187 -1.81902,-2.50162 -2.99972,-3.7192l1.31722,-1.61609c0.22877,0.23615 0.4317,0.45014 0.6088,0.642c0.72318,-1.1069 1.38363,-2.33188 1.98137,-3.67493l1.94815,1.01836c-0.64938,1.18071 -1.56811,2.53851 -2.7562,4.07342c0.37634,0.48704 0.76377,1.02574 1.16224,1.61609c1.38732,-1.95554 2.33557,-3.3318 2.84476,-4.12878l1.71572,1.20653c-1.49801,2.19907 -3.11778,4.24315 -4.85932,6.13226c1.35043,-0.08119 2.36508,-0.16604 3.044,-0.25457c-0.04426,-0.13283 -0.12176,-0.36527 -0.23244,-0.69736c-0.06643,-0.20664 -0.18449,-0.52026 -0.35421,-0.94087l1.58287,-0.61986c0.5387,1.08477 0.99253,2.45365 1.36149,4.10663v-2.402h12.00996v4.64902h-2.10312v-2.76727h-7.82584v2.94437h-2.08099v-1.94815l-1.5386,0.73056c-0.11808,-0.52395 -0.23246,-0.99622 -0.34314,-1.41683c-0.36896,0.06643 -0.75639,0.12915 -1.16224,0.18817c-0.23615,0.03689 -0.42801,0.0664 -0.57559,0.08854v10.095h-2.15846v-9.81827c-1.04787,0.12545 -2.10682,0.22508 -3.17682,0.29888l-0.4317,-2.04779c0.31731,-0.00737 0.63093,-0.01844 0.94087,-0.0332l0.69736,-0.0332c0.39849,-0.4649 0.8597,-1.02205 1.38363,-1.67143zM297.25481,171.27757v-2.03672h2.26916v2.03672h5.19141v1.94815h-5.19141v1.57182h4.57152v1.90387h-11.08014v-1.90387h4.23945v-1.57182h-4.90361v-1.94815zM283.1971,188.10257c0.59035,-1.81533 0.88552,-3.74873 0.88552,-5.80019l1.9703,0.24351c-0.08856,2.61968 -0.37636,4.78923 -0.86339,6.50862zM290.42521,186.96246c-0.2878,-1.66775 -0.61986,-3.11778 -0.99622,-4.35015l1.70463,-0.49811c0.48704,1.23974 0.88552,2.5791 1.19546,4.01808zM298.88197,181.32829h2.13633v6.49755c0,0.28042 0.06272,0.44277 0.18817,0.48704c0.09594,0.03689 0.24353,0.05533 0.44277,0.05533c0.64938,0 1.02205,-0.1439 1.11797,-0.4317c0.11808,-0.3616 0.19924,-1.28033 0.24351,-2.7562l1.94815,0.71949c-0.00737,2.08099 -0.24351,3.37977 -0.70843,3.89632c-0.41323,0.4649 -1.32829,0.69736 -2.74513,0.69736c-1.23235,0 -2.0035,-0.17711 -2.31344,-0.53131c-0.20664,-0.23615 -0.30994,-0.63093 -0.30994,-1.18439zM290.92331,189.07666c1.92602,-0.50917 3.17313,-1.34674 3.74135,-2.51269c0.44277,-0.88552 0.67152,-2.61599 0.68629,-5.19139h2.12526c-0.00737,2.36141 -0.14021,4.03284 -0.39849,5.01429c-0.30256,1.15857 -0.92611,2.13264 -1.87067,2.92223c-0.70103,0.57559 -1.66036,1.09583 -2.87796,1.56074z" fill="#ffffff" stroke-width="0.74083"/><path d="M175.04112,190.89198v-21.78395h129.91776v21.78395z" fill="none" stroke-width="none"/></g></g></g></svg>