<svg xmlns="http://www.w3.org/2000/svg" id="svg1" version="1.1" height="200" width="1096">
  <defs id="defs1"></defs>
  <rect id="rect1" stroke="none" fill="none" height="200" width="1096" y="0" x="0"></rect>
  <path aria-label="福井県嶺北" style="font-weight:bold;font-size:110px;font-family:'BIZ UDPGothic';fill:#ff0000" id="text1" d="m 29.970703,103.37891 q 7.143555,4.9414 13.374024,10.68847 v -4.35058 h 61.176753 v 50.75683 H 93.725586 v -4.51172 H 54.248047 v 4.51172 h -10.90332 v -45.00976 l -5.585938,8.8623 q -3.974609,-4.72656 -7.788086,-8.43262 v 44.58008 H 18.637695 v -43.98925 q -6.391601,7.19726 -11.8164059,12.24609 L 1.2353516,118.52539 Q 19.282227,102.73438 28.520508,83.881836 H 3.6523438 V 73.193359 H 18.154297 V 55.952148 h 11.44043 v 17.241211 h 8.271484 l 4.941406,5.15625 Q 37.758789,89.951172 29.970703,101.60645 Z m 24.277344,15.03906 v 9.99023 h 14.555664 v -9.99023 z m 0,18.26172 V 147.0459 H 68.803711 V 136.67969 Z M 93.725586,147.0459 V 136.67969 H 78.686523 v 10.36621 z m 0,-18.6377 v -9.99023 H 78.686523 v 9.99023 z M 99.365234,76.201172 V 103.48633 H 48.071289 V 76.201172 Z m -40.498047,8.271484 v 10.84961 H 88.24707 V 84.472656 Z M 41.733398,60.356445 H 106.0791 v 9.345703 H 41.733398 Z M 139.4873,76.523437 V 56.918945 h 12.29981 v 19.604492 h 26.5332 V 55.952148 h 12.29981 v 20.571289 h 22.77343 v 10.688477 h -22.77343 v 26.586916 h 26.64062 v 10.7959 h -26.64062 v 35.8789 h -12.29981 v -35.8789 h -26.85547 q -0.96679,12.62207 -6.12304,20.41015 -6.66016,9.99024 -17.93946,16.11328 l -9.23828,-9.3457 q 12.78321,-6.3916 17.45606,-14.60937 2.79297,-4.8877 3.59863,-12.56836 h -26.47949 v -10.7959 H 139.4873 V 87.211914 H 116.28418 V 76.523437 Z m 38.83301,10.688477 h -26.5332 v 26.586916 h 26.5332 z M 312.16797,58.583984 V 110.62988 H 248.25195 V 58.583984 Z m -52.36817,8.486328 v 6.713868 h 40.7129 v -6.713868 z m 0,14.28711 v 6.713867 h 40.7129 v -6.713867 z m 0,14.287109 v 6.928709 h 40.7129 v -6.928709 z m -21.6455,22.128909 h 89.05273 v 9.3457 h -44.41894 v 33.35449 H 270.5957 V 127.11914 H 226.3916 V 66.855469 h 11.7627 z m -13.75,32.4414 q 12.7832,-5.9082 24.43847,-19.81933 l 9.88282,5.74707 q -11.49414,14.55566 -25.5127,22.88086 z m 92.59765,6.92871 q -8.21777,-10.09765 -24.70703,-21.21582 l 9.23828,-6.49902 q 12.94434,7.46582 25.40528,19.60449 z m 28.52051,-54.46289 h 25.94238 v 7.57325 h -28.30566 v -5.63965 q -2.09473,1.66504 -5.69336,4.24316 l -6.71387,-7.14355 q 13.42774,-8.217776 21.1084,-21.914065 h 10.7959 q 9.13086,7.412109 18.69141,17.832031 l -6.71387,8.110354 Q 367.8125,96.342773 358.89648,87.910156 l -0.42968,-0.429687 q -5.04883,8.378906 -12.94434,15.200191 z m 64.29199,-4.619137 h 22.02149 V 142.6416 H 384.40918 V 98.061523 h 15.14648 q 0.69825,-1.933593 1.82618,-6.123046 H 379.5752 v -8.271485 h 56.77246 v 8.271485 h -24.16993 q -1.39648,4.135742 -2.36328,6.123046 z m 12.13867,7.036137 h -27.87597 v 5.53222 h 27.87597 z m -27.87597,12.13867 v 5.58594 h 27.87597 v -5.58594 z m 0,12.2998 v 5.85449 h 27.87597 v -5.85449 z M 390.80078,69.165039 H 416.9043 V 58.798828 h 11.54785 V 77.543945 H 342.2998 V 58.798828 h 11.44043 v 10.366211 h 25.5127 V 55.952148 h 11.54785 z m -11.87012,47.963871 v 22.45117 q 0,4.18945 -1.71875,6.12304 -1.87988,2.04102 -6.98242,2.04102 -5.58594,0 -8.91601,-0.53711 l -1.50391,-8.91601 q 4.67285,0.64453 7.14355,0.64453 1.71875,0 1.98731,-0.85938 0.21484,-0.53711 0.21484,-1.66504 v -11.11816 h -10.58105 v 35.18066 h -10.09766 v -35.18066 h -13.64258 v -8.16406 z m -5.69336,36.8457 q 11.70899,-3.65234 21.32325,-11.01074 l 7.68066,5.96191 q -9.39941,7.62695 -22.34375,12.72949 z m 57.73926,7.14355 q -10.52734,-7.03613 -21.1084,-11.76269 l 6.92871,-6.28418 q 11.44043,3.97461 21.86036,10.09766 z m 41.14258,-29.27246 q -14.82422,7.78809 -25.83496,11.92383 l -4.51172,-11.81641 q 17.24121,-5.80078 30.34668,-12.03124 V 95.859375 H 445.53223 V 84.526367 h 26.58691 V 55.952148 h 11.97754 V 160.47363 h -11.97754 z m 38.18848,-41.840817 q 12.51465,-6.552735 24.27734,-16.650391 l 8.91602,9.345703 q -15.89844,11.279297 -33.19336,19.228515 v 40.2832 q 0,2.63184 1.71875,3.22266 1.82617,0.59082 8.43261,0.59082 8.70118,0 10.90332,-1.02051 1.55762,-0.69824 2.14844,-4.35058 0.80567,-5.10254 1.18164,-16.48926 l 12.03125,3.70605 q -0.53711,13.91114 -1.71875,19.98047 -1.34277,6.76758 -7.03613,8.75489 -5.4248,1.82617 -17.77832,1.82617 -14.50195,0 -18.26172,-2.417 -3.59863,-2.36328 -3.59863,-9.07714 V 55.952148 h 11.97754 z"></path>
</svg>
