<svg xmlns="http://www.w3.org/2000/svg" id="svg1" version="1.1" height="200" width="1096">
  <defs id="defs1"></defs>
  <rect id="rect1" stroke="none" fill="none" height="200" width="1096" y="0" x="0"></rect>
  <path aria-label="インドシナ半島付近" style="font-weight:bold;font-size:110px;font-family:'BIZ UDPGothic';fill:#ff0000" id="text1" d="M 45.170898,155.69336 V 100.58594 Q 28.842773,111.54297 7.8955078,119.0625 L 1.3964844,108.15918 Q 25.19043,100.15625 43.129883,87.53418 60.74707,75.126953 74.49707,59.121094 l 10.366211,6.499023 Q 72.670898,79.638672 57.685547,91.347656 V 155.69336 Z M 133.84766,88.178711 Q 116.875,80.605469 98.55957,76.040039 l 3.75977,-11.547852 q 21.21582,4.833985 35.61035,12.03125 z M 99.902344,141.62109 q 26.586916,-2.25586 40.712886,-9.50683 16.65039,-8.59375 25.56641,-26.37207 5.80078,-11.494143 9.39941,-30.078128 l 10.3125,7.573243 q -4.35058,19.873045 -10.52734,31.582035 -11.17187,21.32324 -34.16016,30.88378 -14.50195,6.01563 -38.77929,8.59375 z M 207.05566,59.013672 h 12.51465 v 31.904297 q 32.06543,9.936521 53.12012,20.249021 l -6.01563,11.54785 q -20.19531,-10.25879 -47.10449,-19.49707 v 53.4961 h -12.51465 z m 47.1045,28.950195 q -3.27637,-8.540039 -10.90332,-19.926758 l 8.32519,-3.061523 q 6.66016,9.18457 11.11817,19.550781 z m 15.36132,-3.544922 Q 265.49316,73.999023 258.7793,64.438477 l 8.00293,-2.631836 q 6.06933,7.358398 10.90332,18.691406 z m 61.49903,0 Q 315.17578,77.329102 298.68652,72.548828 l 3.49121,-10.634766 q 18.58399,4.619141 32.60254,11.279297 z m -11.01074,27.500005 q -13.2129,-5.80079 -32.33399,-11.87012 l 4.61914,-10.742189 q 16.43555,4.350586 31.9043,11.547849 z m -25.40528,29.59472 q 21.96778,-1.82617 34.42871,-6.66015 18.42285,-7.03614 28.9502,-25.13672 7.03613,-12.084964 11.11816,-30.561527 l 10.84961,6.28418 q -5.20996,23.149417 -14.55566,36.899417 -10.95703,16.05957 -30.56153,23.74023 -13.80371,5.31738 -36.79199,7.46582 z m 135.9961,-82.60742 h 12.2998 v 25.19043 h 40.71289 v 11.225586 h -40.71289 q -0.0537,16.328124 -1.71875,24.492184 -5.20996,25.56641 -33.35449,37.86621 l -7.57324,-9.99023 q 18.74511,-7.73438 25.45898,-21.1084 3.54492,-7.14355 4.4043,-16.91894 0.42968,-4.99512 0.4834,-14.340824 H 387.68555 V 84.09668 h 42.91504 z M 538.12988,93.442383 V 55.952148 h 12.08496 v 37.490235 h 40.92774 v 10.688477 h -40.92774 v 15.25391 h 46.56739 v 10.90332 h -46.56739 v 30.18554 h -12.08496 v -30.18554 h -45.86914 v -10.90332 h 45.86914 V 104.13086 H 497.9541 V 93.442383 Z M 514.60449,89.951172 Q 507.94434,75.180664 500.63965,65.405273 l 11.22558,-5.478515 q 8.27149,11.386719 14.50196,24.599609 z m 47.15821,-4.189453 q 8.48632,-12.890625 13.53515,-27.070313 l 12.56836,4.941406 q -6.06934,13.320313 -15.30762,26.748047 z m 80.35156,-21.645508 q 1.9873,-4.780274 3.22265,-9.130859 l 13.10547,1.77246 q -1.87988,4.458008 -3.4375,7.358399 h 35.77149 v 35.019531 h -64.88282 v 5.424808 h 80.83497 v 8.70117 h -80.83497 v 5.47851 h 77.0752 q -0.69824,24.59961 -3.11523,33.19336 -1.55762,5.47852 -5.8545,7.25098 -3.06152,1.28906 -9.3457,1.28906 -6.44531,0 -12.03125,-0.80566 l -2.14844,-9.02344 h -53.81836 v 5.96192 h -11.54785 v -25.83497 h 11.54785 v 11.06446 h 18.47657 v -14.50196 h -21.1084 V 64.116211 Z m 22.82715,77.719729 v -11.06446 h 11.11816 v 18.69141 q 4.45801,0.42969 7.41211,0.42969 3.65234,0 4.56543,-2.09473 1.77246,-3.9209 2.79297,-20.46387 h -44.15039 v 14.50196 z M 625.89355,72.387695 v 5.317383 h 53.0127 v -5.317383 z m 0,12.998047 v 5.854492 h 53.0127 v -5.854492 z m 113.54493,0.59082 V 160.47363 H 727.7832 V 105.3125 q -4.35058,6.12305 -10.09765,12.67578 l -6.06934,-11.54785 q 10.90332,-12.084961 18.69141,-28.144532 4.72656,-9.721679 9.45312,-23.203125 l 11.22559,3.061524 q -4.8877,14.716797 -11.54785,27.822265 z M 800.61523,81.25 h 16.167 v 10.795898 h -16.167 v 56.396482 q 0,7.08985 -3.4375,9.45313 -2.52441,1.77246 -9.50683,1.77246 -8.54004,0 -17.50977,-0.9668 l -2.30957,-11.76269 q 9.56055,1.39648 17.83203,1.39648 2.25586,0 2.73926,-0.9668 0.32227,-0.69824 0.32227,-2.30957 V 92.045898 H 744.80957 V 81.25 h 43.93555 V 57.832031 h 11.87011 z m -33.99902,52.0459 q -6.06934,-16.16699 -14.98535,-29.48731 l 10.25879,-5.96191 q 9.66797,14.2334 15.52246,29.16504 z m 83.25195,2.73926 q 4.29688,4.99511 9.66797,7.41211 8.8086,3.9746 23.09571,3.9746 h 45.76171 q -1.93359,3.65235 -3.59863,10.47364 h -42.70019 q -18.47657,0 -28.30567,-5.80078 -4.02832,-2.417 -8.8623,-7.89551 -0.37598,0.42969 -0.91309,1.07422 -7.89551,9.3457 -15.68359,15.2539 l -6.49903,-11.01074 q 8.54004,-5.10254 16.48926,-11.54785 v -26.5332 h -15.62988 v -10.58106 h 27.17773 z m 13.96485,-71.274418 2.84668,-0.214844 q 24.86816,-1.71875 44.6875,-7.358398 l 8.3789,9.453125 q -20.83984,5.478516 -44.47265,7.412109 v 13.911133 h 49.73633 V 98.4375 h -18.04688 v 43.77441 H 895.09277 V 98.4375 h -19.81933 q -0.26856,17.24121 -2.57813,27.44629 -2.09472,9.39941 -6.875,16.86523 l -9.88281,-7.46582 q 5.31738,-8.27148 6.82129,-20.51757 1.07422,-8.43262 1.07422,-22.934575 z M 843.95996,85.761719 Q 835.74219,74.160156 826.23535,64.975586 l 8.8086,-7.036133 q 9.23828,7.734375 18.58398,19.658203 z"></path>
</svg>
