<svg xmlns="http://www.w3.org/2000/svg" id="svg1" version="1.1" height="200" width="1096">
  <defs id="defs1"></defs>
  <rect id="rect1" stroke="none" fill="none" height="200" width="1096" y="0" x="0"></rect>
  <path aria-label="後志地方東部" style="font-weight:bold;font-size:110px;font-family:'BIZ UDPGothic';fill:#ff0000" id="text1" d="M 57.685547,93.549805 Q 49.038086,83.237305 37.382812,73.945312 l 7.734375,-7.358398 q 3.97461,3.383789 6.928711,6.230469 6.123047,-7.626953 11.655274,-17.670899 l 10.3125,4.511719 Q 66.708984,70.185547 58.383789,79.101562 l 0.805664,0.805665 q 3.383789,3.652343 5.800781,6.499023 10.366211,-10.742188 19.389649,-21.806641 l 9.130859,5.639649 Q 81.264648,84.741211 65.688477,98.598633 75.571289,98.115234 89.052734,97.202148 86.044922,91.884766 82.285156,86.835937 l 9.023438,-4.189453 q 8.486328,10.366211 15.039066,24.545896 l -9.775394,4.72657 -1.503907,-3.16895 q -1.450195,-3.00781 -1.826172,-3.70605 -14.501953,1.93359 -26.103515,2.52441 -0.375977,0.0537 -0.805664,0.10742 -1.611328,2.68555 -4.243164,6.55274 h 29.111328 l 6.499023,5.96191 q -8.217773,11.70898 -18.261718,19.71191 12.353515,6.33789 28.574223,9.99024 l -5.90821,10.41992 Q 85.34668,156.01562 69.985352,146.45508 52.421875,157.08984 36.201172,161.11816 L 30.34668,151.07422 q 14.448242,-2.4707 30.561523,-10.84961 -6.767578,-5.58594 -12.192383,-11.22559 -4.189453,3.54493 -9.77539,6.71387 l -6.928711,-7.41211 q 12.783203,-7.08984 21.967773,-19.92676 l -8.05664,0.42969 q -4.672852,0.26856 -8.325196,0.37598 l -2.416992,-9.667971 q 3.544922,-0.05371 16.274414,-0.375977 l 1.826172,-1.557617 q 2.202148,-1.987305 4.404297,-4.02832 z m 12.675781,40.981445 q 7.46582,-5.4248 12.568359,-11.60156 H 56.020508 q 6.230469,6.3916 14.34082,11.60156 z M 28.09082,101.76758 v 58.70605 H 16.542969 v -45.22461 q -4.995117,5.04883 -9.8291018,9.23828 L 1.3427734,113.95996 Q 16.113281,102.46582 29.165039,80.390625 l 9.667969,5.478516 Q 33.999023,93.87207 28.09082,101.76758 Z M 2.2021484,80.712891 Q 15.898438,71.098633 25.620117,56.274414 l 9.936524,5.263672 Q 22.880859,79.692383 8.1640625,90.058594 Z M 158.6084,70.131836 V 55.952148 h 12.08496 v 14.179688 h 45.33203 v 9.882812 h -45.33203 v 16.059571 h 38.51074 v 9.775391 h -87.4414 v -9.775391 h 36.8457 V 80.014648 H 113.59863 V 70.131836 Z M 112.73926,148.0127 q 6.875,-11.38672 10.58105,-30.02442 l 11.44043,2.9541 q -3.27637,20.625 -11.11816,34.42871 z m 29.70215,-29.27247 h 11.87011 v 23.95508 q 0,3.16895 1.55762,3.75977 2.41699,0.96679 11.87012,0.96679 8.96972,0 12.08496,-0.96679 1.9873,-0.59082 2.63183,-3.81348 0.64454,-3.06152 0.85938,-9.07715 l 0.0537,-1.39648 11.65527,3.16894 -0.0537,1.39649 q -0.4834,10.52734 -1.87988,14.2334 -2.04102,5.37109 -8.27148,6.49902 -5.15625,0.91309 -19.98047,0.91309 -13.48145,0 -17.93946,-1.87989 -4.458,-1.87988 -4.458,-8.3789 z m 29.59472,12.78321 q -8.70117,-12.99805 -16.59668,-19.92676 l 9.23828,-5.26367 q 9.61426,7.73437 17.56348,18.90625 z m 35.18067,20.03418 q -7.68067,-18.95996 -16.91895,-31.9043 l 10.09766,-5.63965 q 10.04394,13.85742 17.93945,30.50781 z m 69.07226,-52.099612 v 42.539062 q 0,4.13574 3.54492,4.99512 3.65235,0.91308 16.70411,0.91308 12.72949,0 16.81152,-1.28906 2.30957,-0.75195 3.00781,-4.18945 0.91309,-4.83399 0.9668,-11.44043 l 11.22558,3.16894 Q 327.69043,150 324.19922,154.4043 q -2.30957,2.90039 -6.98242,3.4375 -7.3584,0.80566 -24.97559,0.80566 -13.64258,0 -17.88574,-0.75195 -6.3916,-1.07422 -8.11035,-5.63965 -0.85938,-2.41699 -0.85938,-6.44531 v -42.59278 l -10.25879,3.54493 -2.52441,-10.419927 12.7832,-4.404296 V 62.988281 h 10.90332 v 25.19043 l 11.54785,-3.920899 V 55.952148 h 10.7959 v 24.545899 l 17.99317,-6.176758 5.63964,3.4375 v 40.229491 q 0,4.18945 -1.9873,6.23047 -2.25586,2.25586 -7.57324,2.25586 -4.35059,0 -9.23828,-0.75195 l -1.77246,-10.25879 q 3.16894,0.80566 6.44531,0.80566 2.36328,0 2.90039,-0.9668 0.53711,-0.80566 0.53711,-2.68554 V 87.211914 l -12.94434,4.511719 v 43.452147 h -10.7959 V 95.429687 Z M 236.81152,81.894531 V 55.952148 h 11.54785 v 25.942383 h 10.41993 v 10.903321 h -10.41993 v 34.160158 q 5.63965,-1.9336 11.17188,-4.02832 l 1.02051,10.36621 q -17.40235,7.94922 -35.71778,13.32031 l -3.75976,-11.44043 q 8.27148,-2.14844 14.50195,-4.08203 0.75195,-0.26855 1.23535,-0.37598 V 92.797852 H 223.16895 V 81.894531 Z m 145.3418,3.007813 q -0.37598,8.969726 -1.07422,15.791016 h 43.29102 q -0.80567,37.27539 -4.18946,48.39355 -1.71875,5.58594 -6.3916,7.73438 -3.65234,1.66504 -10.68847,1.66504 -7.41211,0 -16.81153,-1.12793 l -2.09472,-12.08496 q 12.62207,1.77246 17.77832,1.77246 4.35058,0 5.53222,-2.4707 2.84668,-6.01563 3.97461,-33.19336 h -31.95801 q -1.77246,9.66796 -4.99511,16.75781 -8.96973,19.60449 -29.97071,31.09863 l -8.48632,-9.45312 q 21.05468,-10.95704 27.82226,-28.73536 4.51172,-11.87011 5.85449,-36.147456 H 334.18945 V 73.891602 h 43.88184 V 55.952148 h 12.40723 v 17.939454 h 45.33203 v 11.010742 z m 130.46387,40.659176 q 13.32031,11.87012 35.8789,19.17481 l -6.92871,10.09765 q -12.99804,-4.61914 -22.66601,-11.17187 -9.99024,-6.82129 -18.42285,-16.75781 v 33.56933 h -11.65528 v -32.97851 q -7.46582,10.47363 -19.28222,18.79883 -9.07715,6.3916 -19.44336,10.3125 l -7.3584,-9.45313 q 17.02636,-5.63965 28.41308,-15.2002 3.22266,-2.68554 6.55274,-6.3916 H 451.87012 V 81.572266 h 36.95312 V 74.321289 H 444.29687 V 64.65332 h 44.52637 v -8.701172 h 11.65528 v 8.701172 h 45.2246 v 9.667969 h -45.2246 v 7.250977 h 37.65136 V 125.56152 Z M 488.82324,90.595703 h -25.29785 v 8.701172 h 25.29785 z m 11.65528,0 v 8.701172 h 25.99609 v -8.701172 z m -11.65528,17.080077 h -25.29785 v 8.86231 h 25.29785 z m 11.65528,0 v 8.86231 h 25.99609 v -8.86231 z m 87.9248,-39.316405 h 22.98828 v 10.366211 h -7.57324 q -2.04102,8.217773 -5.47852,17.241211 h 14.34082 v 10.366213 h -59.9414 V 95.966797 h 13.15918 Q 563.75,85.654297 561.38672,78.725586 H 554.4043 V 68.359375 h 22.77343 V 55.952148 h 11.22559 z m -16.16699,10.366211 q 2.73926,8.00293 4.24316,17.241211 h 10.95703 l 0.53711,-1.503906 q 2.30957,-6.123047 4.29688,-13.911133 l 0.4834,-1.826172 z m 33.30078,36.630864 v 43.98925 h -11.01074 v -5.26367 H 571.1084 v 6.3916 h -11.33301 v -45.11718 z m -34.42871,9.88281 v 18.63769 h 23.41797 v -18.63769 z m 71.75781,-27.124026 q 6.3916,6.069336 10.15137,14.448246 3.70605,8.3789 3.70605,16.97265 0,7.94922 -2.9541,11.70899 -3.06152,3.9209 -10.09766,3.9209 -6.01562,0 -11.65527,-0.85938 l -2.63183,-11.44043 q 6.49902,1.18164 10.74218,1.18164 3.22266,0 4.02832,-1.5039 0.53711,-1.07422 0.53711,-4.29688 0,-13.2666 -7.94922,-22.88086 -2.09472,-2.52441 -5.26367,-5.424804 l 0.64453,-1.503906 q 5.58594,-12.62207 8.70118,-26.318359 h -13.75 V 160.47363 H 615.95703 V 61.000977 h 32.33399 l 5.96191,5.478515 q -5.42481,18.476563 -11.38672,31.635742 z"></path>
</svg>
