<svg xmlns="http://www.w3.org/2000/svg" id="svg1" version="1.1" height="200" width="990">
  <defs id="defs1"></defs>
  <rect id="rect1" stroke="none" fill="none" height="200" width="990" y="0" x="0"></rect>
  <path aria-label="薩南諸島東方沖" style="font-size:100px;font-family:'BIZ UDPGothic';fill:#ff0000" id="text1" d="m 76.855469,102.09961 q 4.93164,1.5625 8.83789,2.88086 l 4.980469,1.61133 -4.052734,3.51562 h 9.863281 V 115.625 H 45.117187 v 14.79492 q 0,17.91992 -9.814453,28.71094 l -5.810547,-4.88281 q 6.689454,-6.98243 8.251954,-16.25977 0.683593,-3.85742 0.683593,-8.54492 v -19.33594 h 8.789063 l -3.417969,-4.39453 q 8.886719,-1.17187 16.552734,-3.22266 l 1.025391,-0.29296 Q 55.419922,100.39063 47.216797,98.4375 l 4.052734,-3.320313 h -11.96289 v -5.71289 H 64.404297 V 84.082031 H 60.400391 V 77.392578 H 37.695312 v 6.884766 H 30.029297 V 77.392578 H 3.8085938 V 71.386719 H 30.029297 v -6.884766 h 7.666015 v 6.884766 h 22.705079 v -6.884766 h 7.8125 v 6.884766 H 96.09375 v 6.005859 H 68.212891 v 5.810547 h 3.564453 v 6.201172 h 23.242187 v 5.71289 H 83.251953 l 4.150391,2.197266 q -4.980469,2.587891 -10.546875,4.785157 z m -7.226563,2.58789 q -12.060547,3.75977 -22.216797,5.41992 h 38.427735 l -2.783203,-0.97656 q -6.738282,-2.29492 -13.427735,-4.44336 z m -0.439453,-4.931641 q 0.292969,-0.09766 0.634766,-0.24414 4.833984,-1.660157 10.302734,-4.101563 l 0.634766,-0.292969 H 51.806641 l 1.5625,0.390625 q 9.667968,2.294922 15.820312,4.248047 z M 26.5625,112.69531 q 0.195312,0.24414 0.927734,1.17188 7.226563,9.08203 7.226563,18.45703 0,5.5664 -2.050781,8.10547 -2.197266,2.7832 -7.714844,2.7832 -3.857422,0 -6.884766,-0.53711 l -1.171875,-6.49414 q 4.736328,0.63477 7.177735,0.63477 3.710937,0 3.710937,-4.58985 0,-8.49609 -8.398437,-19.23828 5.810546,-11.2793 7.373046,-19.091796 H 14.794922 V 159.47266 H 7.7148437 V 87.988281 H 31.787109 l 3.076172,3.027344 Q 30.712891,104.3457 26.5625,112.69531 Z m 32.226562,11.57227 h 9.082032 v -6.29883 h 7.03125 v 6.29883 h 19.384765 v 5.51758 H 74.902344 v 7.8125 h 16.796875 v 5.41992 H 74.902344 v 8.44726 h 22.607422 v 5.71289 H 44.873047 v -5.71289 h 22.998047 v -8.44726 H 52.880859 v -5.41992 h 14.990235 v -7.8125 H 56.054687 q -1.904296,3.36914 -4.443359,6.88476 l -5.615234,-3.75976 q 5.419922,-6.10352 7.8125,-14.7461 l 6.689453,1.51367 q -0.78125,2.39258 -1.708985,4.58985 z M 153.51562,93.994141 h 37.06055 v 57.324219 q 0,3.90625 -1.61133,5.66406 -1.90429,2.05078 -8.00781,2.05078 -5.76172,0 -11.18164,-0.63476 l -1.70898,-7.42188 q 8.88671,0.92774 12.06054,0.92774 1.85547,0 2.29492,-0.87891 0.24415,-0.53711 0.24415,-1.61133 V 100.39063 H 117.1875 v 59.13085 h -7.91016 V 93.994141 h 36.52344 V 83.007812 h -43.31055 v -6.689453 h 43.31055 V 64.501953 h 7.71484 v 11.816406 h 43.94532 v 6.689453 h -43.94532 z m -7.61718,27.783199 h -22.2168 v -6.20117 h 11.86523 q -2.14843,-5.32226 -5.37109,-10.49804 l 6.73828,-2.5879 q 4.05274,7.12891 6.20117,13.08594 H 156.25 q 3.32031,-6.05469 5.76172,-13.28125 l 7.42187,2.58789 q -2.39257,4.98047 -5.32226,9.96094 l -0.39063,0.73242 h 12.40235 v 6.20117 h -22.70508 v 9.13086 H 178.125 v 6.29883 h -24.70703 v 19.92188 h -7.51953 V 137.20703 H 121.875 v -6.29883 h 24.02344 z M 270.50781,94.189453 q 9.7168,-11.376953 17.38281,-25.683594 l 6.39649,3.271485 q -7.27539,13.183593 -14.84375,22.412109 h 17.82226 v 6.494137 h -23.14453 q -4.88281,5.17579 -12.79297,11.32813 h 27.44141 v 47.50976 h -7.17773 v -5.22461 h -25.63477 v 5.22461 h -7.17773 v -38.76953 q -5.12696,3.27149 -10.88868,6.25 l -4.19921,-5.81054 q 12.01171,-5.51758 23.38867,-14.35547 4.54101,-3.4668 7.17773,-6.15235 h -26.17187 v -6.494137 h 20.70312 V 81.982422 h -15.625 v -6.494141 h 15.625 V 64.501953 h 7.42188 v 10.986328 h 13.08593 v 6.494141 h -13.08593 v 12.207031 z m -14.55078,24.023437 v 11.2793 h 25.63477 v -11.2793 z m 0,17.48047 v 12.40234 h 25.63477 v -12.40234 z m -19.48242,-8.98438 v 27.49024 h -23.19336 v 5.32226 h -7.08008 v -32.8125 z m -23.19336,6.39649 v 14.69726 h 16.01562 V 133.10547 Z M 207.4707,68.603516 h 27.63672 v 6.298828 H 207.4707 Z m -4.88281,14.404296 h 36.37695 v 6.591797 h -36.37695 z m 4.88281,14.697266 h 27.73438 v 6.298832 H 207.4707 Z m 0,14.306642 h 27.73438 v 6.20117 H 207.4707 Z m 160.54688,37.20703 h -53.8086 v 5.71289 h -7.71484 v -23.0957 h 7.71484 v 11.18164 h 19.0918 v -14.69727 h -19.0918 V 73.291016 h 23.97461 q 3.36914,-4.931641 5.41993,-9.179688 l 8.6914,2.001953 q -2.39258,3.515625 -5.46875,7.177735 h 35.25391 v 30.517574 h -59.96094 v 6.00586 h 75.3418 v 6.10352 h -75.3418 v 6.29883 h 70.94727 q -0.73243,23.87695 -3.32032,30.71289 -1.5625,4.19922 -5.51757,5.66406 -2.5879,0.92773 -6.83594,0.92773 -6.15235,0 -11.76758,-0.8789 l -1.61133,-7.22656 q 6.73828,1.02539 12.10938,1.02539 4.24804,0 5.37109,-1.95313 2.24609,-3.90625 3.36914,-22.16797 h -43.94531 v 14.69727 h 19.58008 v -11.18164 h 7.51953 z M 322.11914,79.296875 v 6.298828 h 52.09961 v -6.298828 z m 0,12.011719 v 6.689453 h 52.09961 v -6.689453 z m 139.20898,35.302736 q 14.01368,12.84179 36.76758,20.50781 l -4.73633,6.98242 q -10.54687,-3.95508 -18.31054,-8.54492 -12.10938,-7.22656 -21.53321,-18.06641 v 32.03125 h -7.71484 v -31.83593 q -5.76172,7.51953 -14.30664,14.20898 -10.88867,8.49609 -24.31641,13.81836 l -4.78515,-6.29883 q 21.97265,-8.00781 35.79101,-22.80273 H 411.57227 V 87.792969 h 34.22851 v -8.007813 h -41.74805 v -6.591797 h 41.74805 v -8.691406 h 7.71484 v 8.691406 h 42.38282 v 6.591797 h -42.38282 v 8.007813 h 34.76563 V 126.61133 Z M 445.80078,94.091797 h -26.41601 v 9.814453 h 26.41601 z m 7.71484,0 v 9.814453 h 27.05079 v -9.814453 z m -7.71484,15.917973 h -26.41601 v 10.30273 h 26.41601 z m 7.71484,0 v 10.30273 h 27.05079 v -10.30273 z m 91.94336,-21.044926 q 0,7.324218 -0.92773,17.041016 h 39.4043 q -0.6836,32.91016 -3.75977,43.60351 -1.26953,4.49219 -4.83398,6.34766 -3.02735,1.5625 -9.08203,1.5625 -8.39844,0 -15.33204,-0.92773 l -1.31836,-8.00782 q 10.15625,1.31836 16.3086,1.31836 4.05273,0 5.32226,-1.70898 1.07422,-1.46484 2.14844,-8.49609 1.5625,-9.96094 2.14844,-26.70899 h -31.93359 q -1.80665,11.37695 -5.76172,19.28711 -7.91016,15.91797 -26.02539,25.73242 l -5.61524,-6.29883 q 19.38477,-10.15625 25.58594,-26.36718 5.17578,-13.57422 5.56641,-36.376956 h -33.54493 v -7.177735 h 41.69922 V 64.501953 h 8.00781 v 17.285156 h 42.67579 v 7.177735 z m 113.23243,-3.66211 V 64.501953 h 7.71484 v 20.800781 h 27.7832 v 40.478516 h -27.7832 v 33.69141 h -7.71484 v -33.69141 h -26.9043 V 85.302734 Z m -19.38477,6.982422 v 26.513674 h 19.38477 V 92.285156 Z m 47.26563,26.513674 V 92.285156 H 666.40625 V 118.79883 Z M 621.77734,86.621094 q -6.54297,-8.34961 -15.2832,-15.527344 l 5.32227,-5.273438 q 8.30078,6.201172 15.67382,14.990235 z m -3.66211,25.488286 q -7.66601,-8.8379 -15.91796,-15.527349 l 5.41992,-5.46875 q 8.39843,6.201172 16.16211,14.990239 z m -13.7207,40.57617 q 9.52149,-12.69532 17.48047,-32.86133 l 6.29883,5.07812 q -7.32422,19.14063 -17.08985,33.69141 z"></path>
</svg>
