<svg xmlns="http://www.w3.org/2000/svg" id="svg1" version="1.1" height="200" width="1096">
  <defs id="defs1"></defs>
  <rect id="rect1" stroke="none" fill="none" height="200" width="1096" y="0" x="0"></rect>
  <path aria-label="長崎県島原半島" style="font-weight:bold;font-size:110px;font-family:'BIZ UDPGothic';fill:#ff0000" id="text1" d="m 78.256836,136.14258 q 10.795898,7.62695 29.379884,12.46094 l -7.46582,10.20507 q -24.384767,-6.875 -38.618166,-22.66601 -8.486328,-9.3457 -12.568359,-21.32324 H 33.837891 v 31.20605 q 13.803711,-2.52441 29.272461,-6.66016 l 0.751953,10.20508 q -25.351563,7.25098 -50.273438,11.33301 L 9.7753906,149.78516 q 8.4863284,-1.07422 11.8701174,-1.61133 V 114.81934 H 2.7392578 v -9.13086 H 21.645508 V 59.443359 h 74.228515 v 9.023438 H 33.837891 v 6.391601 H 90.932617 V 83.55957 H 33.837891 v 6.499024 h 57.094726 v 8.486328 H 33.837891 v 7.143558 h 73.369139 v 9.13086 H 92.543945 l 8.486325,7.35839 q -10.205075,7.3584 -22.773434,13.96485 z m -7.734375,-6.33789 q 12.407226,-7.73438 20.786133,-14.98535 H 59.995117 q 3.598633,8.32519 10.527344,14.98535 z M 208.02246,106.97754 v 43.34473 q 0,4.83398 -1.77246,7.08984 -2.14844,2.68555 -9.07715,2.68555 -6.66015,0 -14.01855,-0.75196 l -2.20215,-10.68847 Q 188.63281,150 193.68164,150 q 2.25586,0 2.79297,-0.85938 0.42969,-0.69824 0.42969,-2.68554 v -39.47754 h -44.95606 v 33.8916 H 123.64258 V 150 h -9.45313 V 74.750977 h 9.02344 v 55.859373 h 5.26367 V 57.133789 h 9.34571 v 73.476561 h 5.53222 V 74.750977 h 8.59375 V 97.30957 h 65.63477 v 9.66797 z M 186.32324,75.771484 q 13.05176,5.371094 26.53321,13.051758 l -7.03614,8.00293 q -9.93652,-6.552735 -23.31054,-13.535156 -7.19727,9.990234 -22.23633,13.803711 l -5.69336,-8.378907 q 16.11328,-3.544922 20.73242,-13.535156 h -21.21582 v -9.345703 h 22.55859 v -9.882813 h 10.68848 v 9.882813 h 25.72754 v 9.345703 h -26.5332 q -0.0537,0.268555 -0.21485,0.59082 z m 3.97461,38.833006 v 28.78906 h -22.98828 v 5.15625 h -9.77539 v -33.94531 z m -23.20312,8.8086 v 11.17187 h 14.07226 V 123.41309 Z M 312.16797,58.583984 V 110.62988 H 248.25195 V 58.583984 Z m -52.36817,8.486328 v 6.713868 h 40.7129 v -6.713868 z m 0,14.28711 v 6.713867 h 40.7129 v -6.713867 z m 0,14.287109 v 6.928709 h 40.7129 v -6.928709 z m -21.6455,22.128909 h 89.05273 v 9.3457 h -44.41894 v 33.35449 H 270.5957 V 127.11914 H 226.3916 V 66.855469 h 11.7627 z m -13.75,32.4414 q 12.7832,-5.9082 24.43847,-19.81933 l 9.88282,5.74707 q -11.49414,14.55566 -25.5127,22.88086 z m 92.59765,6.92871 q -8.21777,-10.09765 -24.70703,-21.21582 l 9.23828,-6.49902 q 12.94434,7.46582 25.40528,19.60449 z m 55.59082,-93.027339 q 1.98731,-4.780274 3.22266,-9.130859 l 13.10547,1.77246 q -1.87988,4.458008 -3.4375,7.358399 h 35.77148 v 35.019531 h -64.88281 v 5.424808 h 80.83496 v 8.70117 h -80.83496 v 5.47851 h 77.0752 q -0.69825,24.59961 -3.11524,33.19336 -1.55762,5.47852 -5.85449,7.25098 -3.06152,1.28906 -9.3457,1.28906 -6.44532,0 -12.03125,-0.80566 l -2.14844,-9.02344 h -53.81836 v 5.96192 h -11.54785 v -25.83497 h 11.54785 v 11.06446 h 18.47656 v -14.50196 h -21.1084 V 64.116211 Z m 22.82715,77.719729 v -11.06446 h 11.11817 v 18.69141 q 4.458,0.42969 7.41211,0.42969 3.65234,0 4.56542,-2.09473 1.77247,-3.9209 2.79297,-20.46387 H 377.1582 v 14.50196 z M 356.37207,72.387695 v 5.317383 h 53.0127 v -5.317383 z m 0,12.998047 v 5.854492 h 53.0127 v -5.854492 z m 146.89941,-5.102539 h 33.30079 v 42.539067 h -26.04981 v 29.27246 q 0,4.61914 -2.20215,6.49902 -2.20215,1.87988 -8.11035,1.87988 -7.78809,0 -13.80371,-1.02051 l -1.71875,-9.99023 q 6.98242,1.12793 10.09766,1.12793 2.90039,0 3.54492,-0.4834 0.64453,-0.4834 0.64453,-2.09472 V 122.82227 H 471.36719 V 80.283203 h 20.35644 q 1.66504,-3.920898 3.9209,-10.151367 h -32.87109 v 25.297851 q 0,25.673833 -2.73926,40.605473 -2.36328,12.99804 -8.27148,23.84765 l -9.56055,-8.11035 q 5.47851,-11.01074 7.3584,-24.92187 1.45019,-10.7959 1.45019,-27.124028 V 60.249023 h 92.59766 v 9.882813 h -35.44922 q -2.09473,4.833984 -4.8877,10.151367 z m 21.64551,8.701172 H 482.7002 v 8.110352 h 42.21679 z M 482.7002,105.7959 v 8.32519 h 42.21679 v -8.32519 z m 55.5371,50.48828 q -7.84179,-12.03125 -19.06738,-23.41797 l 8.37891,-6.49902 q 11.33301,10.3125 19.49707,22.18261 z m -77.55859,-6.60645 q 11.11816,-9.72168 17.13379,-22.98828 l 9.50684,4.83399 q -6.875,14.98535 -18.26172,25.62011 z M 598.6084,93.442383 V 55.952148 h 12.08496 v 37.490235 h 40.92773 v 10.688477 h -40.92773 v 15.25391 h 46.56738 v 10.90332 h -46.56738 v 30.18554 H 598.6084 V 130.28809 H 552.73926 V 119.38477 H 598.6084 V 104.13086 H 558.43262 V 93.442383 Z M 575.08301,89.951172 Q 568.42285,75.180664 561.11816,65.405273 l 11.22559,-5.478515 q 8.27148,11.386719 14.50195,24.599609 z m 47.1582,-4.189453 q 8.48633,-12.890625 13.53516,-27.070313 l 12.56836,4.941406 q -6.06934,13.320313 -15.30762,26.748047 z m 80.35156,-21.645508 q 1.98731,-4.780274 3.22266,-9.130859 l 13.10547,1.77246 q -1.87988,4.458008 -3.4375,7.358399 h 35.77148 v 35.019531 h -64.88281 v 5.424808 h 80.83496 v 8.70117 h -80.83496 v 5.47851 h 77.0752 q -0.69825,24.59961 -3.11524,33.19336 -1.55762,5.47852 -5.85449,7.25098 -3.06152,1.28906 -9.3457,1.28906 -6.44532,0 -12.03125,-0.80566 l -2.14844,-9.02344 h -53.81836 v 5.96192 h -11.54785 v -25.83497 h 11.54785 v 11.06446 h 18.47656 v -14.50196 h -21.1084 V 64.116211 Z m 22.82715,77.719729 v -11.06446 h 11.11817 v 18.69141 q 4.458,0.42969 7.41211,0.42969 3.65234,0 4.56542,-2.09473 1.77247,-3.9209 2.79297,-20.46387 H 707.1582 v 14.50196 z M 686.37207,72.387695 v 5.317383 h 53.0127 v -5.317383 z m 0,12.998047 v 5.854492 h 53.0127 v -5.854492 z"></path>
</svg>
