<svg version="1.1" xmlns="http://www.w3.org/2000/svg" xmlns:xlink="http://www.w3.org/1999/xlink" width="127.6169" height="83.20746" viewBox="0,0,127.6169,83.20746"><g transform="translate(-151.374,-11.2578)"><g fill="#ffffff" stroke="none" stroke-miterlimit="10"><path d="M215.08391,12.7322l-0.16797,0.0293c-1.4463,0.25706 -2.9241,0.47465 -4.4336,0.65039l0.03516,0.0625c0.43702,0.7687 0.77603,1.61989 1.0176,2.5547l0.02344,0.09375l-1.625,0.47266l-0.10156,0.0293l-0.02344,-0.10352c-0.19598,-0.8819 -0.50267,-1.70242 -0.91992,-2.4648l-0.05664,-0.10547l1.5996,-0.5332c-0.9362,0.10838 -1.88914,0.19443 -2.8496,0.27148l0.01563,0.03125c0.43981,0.8535 0.77194,1.65691 0.99805,2.4141l0.02734,0.0918l-1.293,0.44726h4.5176c0.48832,-0.9227 0.95753,-2.0203 1.4023,-3.3086l0.0332,-0.09961l1.748,0.70312l-0.04102,0.09375c-0.36631,0.8414 -0.81612,1.71475 -1.3223,2.6113h1.3926v1.5586h-3.8672v1.3398h4.5391v1.6055h-4.5391v3.1289h1.8945v-2.5781h1.832v4.9727h-1.832v-0.83594h-5.5273v0.83594h-1.832v-4.9727h1.832v2.5781h1.7851v-3.1289h-4.3203v-1.5312c-0.33048,0.13603 -0.67845,0.28156 -0.94141,0.38281v5.127c0,0.47045 -0.08247,0.82623 -0.27148,1.0625c-0.2436,0.29709 -0.6943,0.42773 -1.3281,0.42773c-0.5687,0 -1.09965,-0.05236 -1.5918,-0.1582l-0.06445,-0.01367l-0.35938,-1.8359l0.14062,0.01953c0.62287,0.09342 1.07366,0.14062 1.3438,0.14062c0.07374,0 0.12839,-0.00799 0.16211,-0.01953c0.03372,-0.01154 0.04327,-0.0226 0.04687,-0.0293l0.002,-0.0039l0.002,-0.002c0.01656,-0.02603 0.03906,-0.11216 0.03906,-0.24414v-3.7929c-0.49051,0.16197 -0.98647,0.31808 -1.4902,0.4668l-0.0957,0.0293l-0.5332,-1.8047l0.09961,-0.02734c0.8795,-0.22376 1.54077,-0.40261 1.9805,-0.53711l0.03906,-0.01172v-2.8867h-1.8672v-1.7539h1.8672v-2.8828h1.8789v2.8828h1.5547v1.7539h-1.5547v2.2793c0.35707,-0.12289 0.74753,-0.26325 1.207,-0.44141l0.11914,-0.04492l0.22266,1.6699l-0.07031,0.0293c-0.13937,0.05887 -0.22575,0.09063 -0.35547,0.14453h4.1387v-1.3398h-3.7031v-1.5586h1.2559c-0.25678,-0.8759 -0.56435,-1.6713 -0.92578,-2.3789l-0.05273,-0.10352l1.4512,-0.48633c-0.5159,0.04009 -1.0298,0.08222 -1.5527,0.11328l-0.07031,0.0039l-0.63672,-1.4863l-0.05664,-0.13281l0.14453,-0.0059c3.2359,-0.14567 6.112,-0.45487 8.627,-0.92774l0.05664,-0.01172zM252.17785,11.29881v3.2188h1.3906v0.80664c1.5619,-0.9575 2.77809,-2.2666 3.6152,-3.9707l0.0273,-0.05469h1.8906l0.0293,0.04492c0.7794,1.2131 1.7646,2.22739 2.957,3.043c0.5166,0.3513 1.11888,0.70206 1.8086,1.0547l0.10352,0.05273l-1.0625,1.5117l-0.0781,-0.04297c-0.6702,-0.36166 -1.28361,-0.75984 -1.8613,-1.1797v0.69141h-1.75v1.1133h3.375v4.4023h-2.8477c0.36696,0.57492 0.77559,1.08651 1.2637,1.4863c0.6982,0.56475 1.5869,1.0576 2.668,1.4766l0.11328,0.04297l-1.0527,1.7305l-0.0801,-0.0332c-1.9107,-0.794 -3.30287,-2.1372 -4.207,-3.9785c-0.3455,0.9383 -0.83876,1.77474 -1.543,2.459c-0.6728,0.6516 -1.5723,1.21388 -2.6953,1.6914l-0.0703,0.0293l-1.2227,-1.5469l0.13672,-0.04492c1.2713,-0.4134 2.22894,-0.94575 2.875,-1.5918c0.50846,-0.5084 0.86558,-1.09046 1.1309,-1.7207h-2.9414v-2.5723l-0.91601,1.6387l-0.0898,-0.13281c-0.31545,-0.46001 -0.64035,-0.89775 -0.9668,-1.3281v7.1055h-1.8008v-6.6426c-0.46389,1.2633 -0.94409,2.41828 -1.4629,3.3262l-0.10547,0.18555l-0.77929,-2.0723l0.0254,-0.04102c0.9308,-1.5631 1.62839,-3.3106 2.125,-5.2168h-1.8809v-1.7227h2.0781v-3.2188zM272.9128,11.29882v5.2969h3.6133v-3.8906h1.9414v5.6445h-5.5547v5.5742h4.1055v-3.6016h1.9726v6.3789h-1.9726v-0.99219h-10.059v0.99219h-1.957v-6.3789h1.957v3.6016h4.0117v-5.5742h-5.4531v-5.6445h1.9414v3.8906h3.5117v-5.2969zM221.49068,11.6504v4.291c1.1443,-1.1718 2.10793,-2.05021 2.8223,-2.5098c0.7064,-0.45679 1.44606,-0.6875 2.2109,-0.6875c0.7688,0 1.40256,0.21792 1.8809,0.6582v0.002c0.62388,0.5809 0.9375,1.34965 0.9375,2.2832c0,0.24827 -0.0307,0.56985 -0.0937,0.96875c-0.45803,2.9095 -0.6875,4.9251 -0.6875,6.0312c0,0.23107 0.0331,0.3984 0.082,0.49414c0.04891,0.09574 0.09574,0.125 0.18554,0.125c0.11848,0 0.3132,-0.07642 0.56055,-0.24805c0.5203,-0.3587 1.05532,-0.95618 1.5977,-1.793l0.10937,-0.16992l0.72657,2.0254l-0.0273,0.04101c-0.33897,0.54027 -0.75912,1.01957 -1.2617,1.4375c-0.5872,0.49113 -1.22482,0.74219 -1.9004,0.74219c-0.643,0 -1.16143,-0.23034 -1.5234,-0.68555c-0.31517,-0.3996 -0.45898,-1.03827 -0.45898,-1.9141c0,-0.665 0.08566,-1.6548 0.25781,-2.9746c0.21855,-1.6547 0.3648,-2.88228 0.4375,-3.6816c0.01033,-0.12841 0.01563,-0.23569 0.01563,-0.32031c0,-0.44432 -0.09364,-0.77123 -0.26758,-0.99219v-0.0019c-0.16473,-0.21179 -0.38097,-0.3125 -0.67969,-0.3125c-0.4999,0 -1.17677,0.34626 -2.0059,1.0645c-0.8231,0.713 -1.8005,1.7929 -2.918,3.2246v7.4375h-1.9258v-5.1875c-0.7944,1.117 -1.54603,2.1904 -2.2246,3.1914l-0.10156,0.14844l-0.91016,-2.0723l0.04102,-0.04883c1.2259,-1.4845 2.28923,-2.8979 3.1953,-4.2422v-1.8516h-2.7422v-1.7695h2.7422v-2.7031zM240.92443,11.97676l-0.0703,0.12695c-0.15814,0.2846 -0.43582,0.74288 -0.83204,1.3789h0.002l-0.008,0.01172h5.4277v1.7383h-6.5996c-0.5984,0.8198 -1.16544,1.51403 -1.7168,2.1426c0.8567,-0.45976 1.67724,-0.78711 2.4121,-0.78711c0.64695,0 1.19274,0.16278 1.625,0.49414c0.40607,0.3113 0.68985,0.7941 0.89063,1.3848c1.3118,-0.43511 2.6478,-0.86411 4.0098,-1.2891l0.084,-0.02539l0.75586,1.7012l-0.38477,0.10938l-0.77539,0.20508v-0.002c-1.4273,0.38739 -2.55549,0.71713 -3.4219,0.99414c0.0596,0.671 0.1036,1.5087 0.1289,2.5488l0.002,0.0957l-1.9121,0.10547v-0.10547c-0.0053,-0.6193 -0.0157,-1.2901 -0.0312,-2.0137v-0.0039c-1.1053,0.38705 -1.98217,0.77562 -2.5391,1.1582c-0.58605,0.40254 -0.85547,0.79036 -0.85547,1.1562c0,0.18956 0.06325,0.33774 0.19922,0.4668c0.13597,0.12906 0.35169,0.23511 0.64844,0.31055c0.5738,0.14598 1.6341,0.22461 3.1621,0.22461c1.4077,0 2.8866,-0.08105 4.4356,-0.24219l0.0976,-0.0098l0.21094,1.8652l-0.10352,0.0078c-1.5079,0.11479 -3.0705,0.17188 -4.6875,0.17188c-1.9946,0 -3.41313,-0.14835 -4.2754,-0.45898c-1.06251,-0.3844 -1.6211,-1.1078 -1.6211,-2.1172c0,-0.8527 0.386,-1.61168 1.1367,-2.2559c0.7598,-0.6506 2.1005,-1.30751 3.9492,-1.9844c-0.09791,-0.33659 -0.21556,-0.5988 -0.35156,-0.72656c-0.17279,-0.16344 -0.39869,-0.24609 -0.69727,-0.24609c-0.4904,0 -1.12702,0.18948 -1.9004,0.57617c-0.9533,0.4741 -1.9806,1.19093 -3.0801,2.1504l-0.0762,0.06445l-1.168,-1.3359l0.0703,-0.06641c1.5592,-1.4489 2.7554,-2.8678 3.6582,-4.2637h-3.0645v-1.7383h4.2539c0.44487,-0.7117 0.79199,-1.29864 1.0234,-1.7363l0.0332,-0.0625zM256.7403,14.9316h3.25c-0.647,-0.5891 -1.24303,-1.26038 -1.7793,-2.0312c-0.3942,0.7216 -0.89009,1.39577 -1.4707,2.0312zM255.76757,15.86923c-0.5286,0.44169 -1.09547,0.84701 -1.7285,1.1875l-0.0762,0.04102l-0.63867,-0.85742h-1.1465v1.1934c0.6731,0.568 1.32413,1.19406 1.9512,1.8828l0.0215,0.02344v-1.752h3.3125v-1.1133h-1.6953v-0.60547zM255.8574,20.541h1.6367v-1.5195h-1.6367zM259.2168,20.541h1.6836v-1.5195h-1.6836z" stroke-width="1"/><g stroke-width="1"><path d="M151.374,58.187h2.0479v9.6152h-2.0479zM160.4004,58.00243h2.0479v6.2842c0,2.209 -0.17871,3.85257 -0.53613,4.9307c-0.29883,0.91993 -0.70606,1.65237 -1.2217,2.1973c-1.07227,1.15427 -2.79493,2.0068 -5.168,2.5576l-1.0107,-1.8018c2.59573,-0.52735 4.2598,-1.40331 4.9922,-2.6279c0.46289,-0.77927 0.74121,-1.76363 0.83496,-2.9531c0.04101,-0.55078 0.06152,-1.31251 0.06152,-2.2852z"/><path d="M165.551,59.25h13.772l1.1338,0.95801c-0.32813,1.2246 -0.75586,2.24707 -1.2832,3.0674c-0.99027,1.55273 -2.4727,2.7129 -4.4473,3.4805l-1.1074,-1.5117c1.36527,-0.41016 2.49907,-1.14553 3.4014,-2.2061c0.5332,-0.62695 0.90527,-1.28905 1.1162,-1.9863h-12.586zM171.1848,63.0469h2.0127v1.5117c0,2.2676 -0.25195,4.01957 -0.75586,5.2559c-0.63867,1.57033 -1.88087,2.84767 -3.7266,3.832l-1.4502,-1.5293c1.27147,-0.60351 2.20017,-1.32421 2.7861,-2.1621c0.45117,-0.65039 0.74707,-1.33886 0.8877,-2.0654c0.16406,-0.832 0.24609,-1.9482 0.24609,-3.3486z"/><path d="M185.599,58.819h1.9775v3.1992c0,3.06447 -0.22852,5.30273 -0.68555,6.7148c-0.60351,1.86913 -1.86915,3.42773 -3.7969,4.6758l-1.3447,-1.5645c1.33593,-0.93747 2.27637,-1.91013 2.8213,-2.918c0.45703,-0.8496 0.75879,-1.98923 0.90527,-3.4189c0.08203,-0.8086 0.12305,-1.95997 0.12305,-3.4541zM190.099,58.30923h1.9775v12.489c1.166,-0.60351 2.18847,-1.46191 3.0674,-2.5752c0.96093,-1.21873 1.6787,-2.66307 2.1533,-4.333l1.5469,1.4941c-0.58594,1.74027 -1.38867,3.22563 -2.4082,4.4561c-1.2832,1.55273 -2.96483,2.7744 -5.0449,3.665l-1.292,-1.1162z"/><path d="M213.144,59.804l1.2568,1.0283c-0.82033,3.75 -2.1504,6.65333 -3.9902,8.71c-1.01953,1.13673 -2.3379,2.13283 -3.9551,2.9883c-1.14847,0.60351 -2.38187,1.08398 -3.7002,1.4414l-1.0195,-1.7314c3.01173,-0.78513 5.34963,-2.03903 7.0137,-3.7617c-1.37107,-1.23047 -2.8828,-2.3203 -4.5352,-3.2695l1.1514,-1.4238c1.61133,0.83787 3.14357,1.86913 4.5967,3.0938c1.1426,-1.82813 1.86037,-3.59767 2.1533,-5.3086h-6.1875c-1.418,2.209 -3.08793,3.89943 -5.0098,5.0713l-1.292,-1.3975c1.8574,-1.11913 3.38377,-2.59863 4.5791,-4.4385c0.61523,-0.93747 1.09277,-1.9482 1.4326,-3.0322l1.9072,0.46582c-0.19336,0.52735 -0.41016,1.04885 -0.65039,1.5645z"/><path d="M222.847,73.77v-9.0176c-1.78127,1.19533 -3.81447,2.20313 -6.0996,3.0234l-1.0635,-1.7842c2.59573,-0.87307 4.8721,-1.99807 6.8291,-3.375c1.92187,-1.35353 3.6328,-2.90333 5.1328,-4.6494l1.6963,1.0635c-1.33007,1.52927 -2.8125,2.9326 -4.4473,4.21v10.529z"/><path d="M230.49,70.746c0.4043,-0.00587 0.96093,-0.03516 1.6699,-0.08789c1.66993,-3.75 3.208,-7.878 4.6142,-12.384l2.0127,0.52734c-1.3828,4.3242 -2.85937,8.22953 -4.4297,11.716c2.97653,-0.2168 5.6162,-0.48047 7.919,-0.79102c-0.8672,-1.52927 -1.74903,-2.94137 -2.6455,-4.2363l1.7314,-1.0986c1.84573,2.543 3.46587,5.2383 4.8604,8.0859l-1.9775,1.0283c-0.32227,-0.67967 -0.67677,-1.38867 -1.0635,-2.127c-3.42187,0.57422 -7.50887,1.08399 -12.261,1.5293z"/></g><g><g stroke-width="1"><path/><path/><path d="M169.72376,77.6518v5.5107h-13.157v-5.5107zM158.52676,78.9086v0.90527h9.2373v-0.90527zM158.52676,80.9652v1.0283h9.2373v-1.0283zM162.92126,85.5882v7.3301c1.1426,-0.31055 2.1885,-0.84375 3.1377,-1.5996c-0.8906,-1.03713 -1.56443,-2.15333 -2.0215,-3.3486h-0.75586v-1.4062h6.7852l0.86133,0.75586c-0.63867,1.54687 -1.43847,2.874 -2.3994,3.9814c0.86133,0.5625 1.93947,1.04003 3.2344,1.4326l-1.0811,1.6084c-1.33593,-0.50391 -2.46093,-1.11914 -3.375,-1.8457c-1.00193,0.8262 -2.17673,1.48247 -3.5244,1.9688l-0.86133,-1.292v1.2041h-1.8193v-1.96c-1.66407,0.33399 -3.72363,0.63281 -6.1787,0.89648l-0.4834,-1.6172c0.77347,-0.04101 1.43263,-0.08203 1.9775,-0.12305v-5.9854h-1.8369v-1.459h17.104v1.459zM161.10196,85.5882h-2.8828v1.0635h2.8828zM161.10196,87.8206h-2.8828v1.0811h2.8828zM161.10196,90.053h-2.8828v1.3447c0.49805,-0.05273 0.87305,-0.09375 1.125,-0.12305c0.6738,-0.07031 1.25973,-0.1377 1.7578,-0.20215zM167.20156,90.20241c0.5332,-0.61523 1.01367,-1.35937 1.4414,-2.2324h-2.9795c0.36328,0.791 0.87598,1.53513 1.5381,2.2324z"/><path d="M182.35376,83.5938c0.40429,1.37107 1.17186,2.83007 2.3027,4.377c1.37693,1.88673 3.0703,3.38087 5.0801,4.4824l-1.2568,1.8105c-2.12693,-1.25393 -3.90233,-2.91507 -5.3262,-4.9834c-0.7676,-1.125 -1.38283,-2.2705 -1.8457,-3.4365c-0.46289,1.57033 -1.18066,2.9971 -2.1533,4.2803c-1.42967,1.89847 -3.19627,3.29887 -5.2998,4.2012l-1.2393,-1.6084c2.20313,-0.91993 3.98147,-2.3379 5.335,-4.2539c1.13673,-1.6172 1.81057,-3.24023 2.0215,-4.8691h-7.0137v-1.9072h7.0928v-4.2363h2.0303v4.2363h7.2422v1.9072z"/><path/></g><path d="M197.93794,79.6593v-0.75016h-5.4517v-1.24734h12.87474v1.24734h-5.56509v0.75016h7.22241v3.13146h-1.89283v-2.00621h-5.32958v3.39314h-1.85793v-3.39314h-5.23363v2.00621h-1.87538v-3.13146zM204.11363,92.03683c0.88972,0.33729 2.00042,0.60479 3.33209,0.80251l-1.02057,1.48286c-1.86667,-0.31983 -3.39895,-0.86936 -4.59687,-1.6486c-1.19212,-0.77923 -2.11962,-1.74746 -2.78254,-2.90469h-1.92772v2.68659c1.28515,-0.18023 2.47726,-0.37214 3.57631,-0.5757l0.12213,1.29969c-2.04694,0.48847 -4.38753,0.91298 -7.02179,1.27353l-0.51464,-1.53521c0.91298,-0.09884 1.5381,-0.16862 1.87537,-0.20931l0.10469,-0.01689v-2.92213h-1.91028c-0.08141,1.02348 -0.21516,1.84051 -0.40124,2.4511c-0.22098,0.7327 -0.5757,1.41598 -1.06417,2.04982l-1.55265,-1.28223c0.56988,-0.73853 0.92461,-1.60209 1.06418,-2.59065c0.0756,-0.53498 0.1134,-1.20082 0.1134,-1.9975v-3.69844h15.05542v1.16012h-13.18006v2.67788h13.93019v1.22989h-1.98006l1.10778,0.73271c-0.65711,0.54663 -1.43344,1.05836 -2.32897,1.5352zM202.75289,91.36521c0.83738,-0.56989 1.50322,-1.10197 1.99751,-1.59627h-3.81183c0.5001,0.63967 1.10487,1.17176 1.81432,1.59627zM193.47192,81.43001h3.71588v0.98568h-3.71588zM193.47192,83.035h3.71588v1.00312h-3.71588zM200.54605,81.43001h3.82928v0.98568h-3.82928zM200.54605,83.035h3.82928v1.00312h-3.82928zM194.42269,86.59387h10.8598v1.14269h-10.8598zM218.1485,78.87426h6.83861v1.46542h-3.87288v1.44798h3.62866v1.41307h-3.62866v2.59939h-7.02179v-2.59939h-2.86106v1.62242c0,2.63428 -0.13956,4.71609 -0.41868,6.24547c-0.21516,1.16303 -0.56408,2.2243 -1.04673,3.18379l-1.58754,-1.25606c0.44195,-0.95951 0.74434,-2.13126 0.90717,-3.51527c0.14539,-1.21536 0.21808,-2.76799 0.21808,-4.65792v-5.9489h6.89967v-1.5701h1.94518zM211.23138,80.33968v1.44798h2.86106v-1.44798zM215.95038,80.33968v1.44798h3.30591v-1.44798zM215.95038,83.20073v1.35202h3.30591v-1.35202zM217.97404,92.3596c-1.68057,0.87225 -3.81473,1.53518 -6.40248,1.98877l-0.90717,-1.605c2.43073,-0.29075 4.33519,-0.73562 5.71339,-1.33458c-1.18048,-0.85481 -2.1894,-1.86954 -3.02678,-3.04421h-1.20374v-1.51775h10.21431l0.91588,0.7676c-0.86645,1.33165 -2.10217,2.58483 -3.70715,3.75949c1.3782,0.55245 3.25648,0.95951 5.63488,1.22118l-1.02056,1.6486c-2.27954,-0.30819 -4.34973,-0.93623 -6.21057,-1.8841zM215.3834,88.36459c0.70363,0.82574 1.55846,1.55263 2.56448,2.18066c1.13395,-0.7327 2.00913,-1.45958 2.62554,-2.18066zM230.30797,87.84121v3.16637c0,0.45939 0.16863,0.73559 0.50591,0.82864c0.5001,0.13953 2.15452,0.20931 4.96323,0.20931c2.4947,0 4.04736,-0.07268 4.65794,-0.21803c0.29075,-0.06977 0.47685,-0.23259 0.55827,-0.48847c0.09884,-0.29075 0.17733,-0.96823 0.23546,-2.0324l1.92772,0.59314c-0.06395,1.14559 -0.15698,1.93064 -0.27908,2.35515c-0.15697,0.55244 -0.44772,0.92749 -0.87224,1.12521c-0.30239,0.13953 -0.72109,0.22674 -1.2561,0.26163c-1.3782,0.09884 -3.17798,0.14826 -5.39936,0.14826c-3.11111,0 -4.96033,-0.05523 -5.54765,-0.1657c-0.66293,-0.12209 -1.09034,-0.41285 -1.28224,-0.87228c-0.09304,-0.23261 -0.13957,-0.52336 -0.13957,-0.87229v-8.95823l-0.08724,0.06977c-0.2675,0.1919 -0.58442,0.40415 -0.95078,0.63675l-1.19501,-1.44797c2.07601,-1.13976 3.83218,-2.7651 5.26852,-4.87601l1.22118,0.8374h4.96323l0.92462,0.95952c-0.76761,1.08742 -1.57011,2.06726 -2.40749,2.93953h5.5913v5.80061zM230.30797,86.28857h3.75077v-2.64299h-3.75077zM235.93413,83.64558v2.64299h3.82929v-2.64299zM233.91046,82.04059c0.75016,-0.78505 1.38982,-1.55555 1.919,-2.31151h-4.0299c-0.64549,0.79086 -1.41307,1.56137 -2.3028,2.31151z" stroke-width="0"/></g></g></g></svg>