<svg xmlns="http://www.w3.org/2000/svg" id="svg1" version="1.1" height="200" width="990">
  <defs id="defs1"></defs>
  <rect id="rect1" stroke="none" fill="none" height="200" width="990" y="0" x="0"></rect>
  <path aria-label="茨城県北部" style="font-size:100px;font-family:'BIZ UDPGothic';fill:#ff0000" id="text1" d="m 64.0625,110.30273 q 0.927734,15.72266 9.912109,25.78125 8.056641,8.98438 22.998047,15.08789 l -4.980469,7.22657 q -14.013671,-6.34766 -21.630859,-15.03907 -5.859375,-6.64062 -8.886719,-14.84375 -2.58789,10.54688 -9.863281,18.26172 -7.177734,7.56836 -20.507812,12.79297 l -5.126954,-6.59179 q 15.185547,-4.98047 22.41211,-13.91602 7.910156,-9.81445 7.910156,-25.48828 v -6.39649 h -8.496094 q -4.296875,10.25391 -10.205078,17.57813 l -6.005859,-5.37109 q 9.960937,-11.76758 13.671875,-30.371098 l 7.519531,1.464844 q -1.123047,5.273437 -2.587891,9.912114 h 37.792969 l 4.492188,3.32031 q -6.103516,14.64844 -12.109375,23.29101 l -6.884766,-3.22265 q 5.908203,-8.34961 9.277344,-16.60157 H 64.0625 Z M 30.273437,75.878906 V 64.501953 h 7.8125 V 75.878906 H 61.376953 V 64.501953 h 7.910156 v 11.376953 h 27.197266 v 6.689453 H 69.287109 v 9.91211 h -7.910156 v -9.91211 H 38.085937 v 10.107422 h -7.8125 V 82.568359 H 3.4667969 V 75.878906 Z M 5.46875,101.70898 h 26.123047 v 7.71485 H 5.46875 Z M 2.8808594,143.99414 Q 19.042969,135.15625 30.664062,125.68359 l 3.515625,6.73828 Q 22.216797,142.5293 8.3007813,150.97656 Z M 172.16797,130.95703 q -4.78516,-16.45508 -6.15235,-41.357421 h -24.70703 v 14.404301 h 20.80078 q -0.0977,23.4375 -2.05078,32.37304 -1.36718,6.29883 -8.39843,6.29883 -3.4668,0 -7.56836,-0.78125 l -0.87891,-6.98242 q 4.24805,0.87891 6.88477,0.87891 2.58789,0 3.32031,-2.29493 1.51367,-4.83398 1.85547,-22.80273 h -13.96485 q 0,13.03711 -1.36718,22.70508 -2.00196,13.96484 -8.88672,25.39062 l -6.29883,-4.78515 q 5.61523,-9.08204 7.56836,-20.9961 1.5625,-9.47265 1.5625,-23.19336 V 82.714844 h 31.78711 q -0.3418,-7.861328 -0.39063,-18.212891 h 7.42188 q 0.0488,9.912109 0.34179,17.138672 l 0.0488,1.074219 h 22.99805 v 6.884765 H 173.4375 q 1.07422,18.261721 4.15039,32.324221 5.32227,-9.86328 8.78906,-21.82617 l 6.9336,3.22265 q -6.39649,17.04102 -13.13477,28.27149 3.32031,9.66797 7.17774,15.2832 1.31835,1.9043 1.85546,1.9043 0.58594,0 1.12305,-2.00196 1.2207,-4.78515 1.95313,-11.47461 l 6.00586,3.8086 q -1.07422,10.74219 -3.07618,15.42969 -1.75781,4.15039 -4.78515,4.15039 -6.25,0 -15.23438,-19.62891 -7.76367,10.88867 -20.11719,19.92187 L 150,153.51562 q 7.08008,-5.02929 11.03516,-8.98437 6.10351,-6.15234 11.13281,-13.57422 z M 113.91602,89.013672 V 65.234375 h 7.42187 v 23.779297 h 9.27734 v 7.080078 h -9.27734 v 35.20508 q 4.58984,-2.00196 9.17969,-4.29688 l 0.78125,6.88477 q -11.81641,6.73828 -26.70899,12.01172 l -2.58789,-7.51953 q 5.22461,-1.5625 11.91407,-4.10157 V 96.09375 h -10.9375 v -7.080078 z m 72.26562,-7.226563 q -3.71094,-7.177734 -8.88672,-13.378906 l 5.51758,-3.320312 q 5.07812,5.859375 9.27734,12.988281 z M 282.86133,67.578125 V 114.4043 H 225.78125 V 67.578125 Z m -49.36524,6.005859 v 7.714844 h 41.55274 v -7.714844 z m 0,13.330078 v 7.763672 h 41.55274 v -7.763672 z m 0,13.476568 v 8.30078 h 41.55274 v -8.30078 z M 214.4043,122.2168 h 83.05664 v 6.49414 h -41.99219 v 30.81054 h -7.91016 V 128.71094 H 206.5918 V 74.267578 h 7.8125 z m -9.22852,29.6875 q 12.79297,-6.15235 23.0957,-19.28711 l 6.5918,3.66211 q -10.40039,13.62304 -24.07226,21.72851 z m 84.17969,4.10156 q -10.25391,-11.18164 -23.29102,-19.82422 l 6.00586,-4.49219 q 11.76758,7.37305 23.68164,18.79883 z m 41.25976,-23.19336 q -11.42578,6.25 -25.09765,11.81641 l -3.51563,-7.71485 q 17.33399,-6.15234 28.61328,-11.96289 V 98.535156 h -25.63476 v -7.421875 h 25.63476 V 65.527344 h 8.00782 v 93.212886 h -8.00782 z M 362.01172,97.949219 Q 375,91.845703 387.30469,81.591797 l 6.20117,6.103515 Q 378.36914,98.779297 362.01172,105.9082 v 38.1836 q 0,3.07617 2.24609,3.71093 1.80664,0.53711 10.35156,0.53711 8.05665,0 10.35157,-1.12304 1.66015,-0.83008 2.24609,-4.29688 0.68359,-4.44336 1.07422,-14.84375 l 7.91016,2.73438 q -0.58594,16.01562 -2.2461,19.9707 -1.61133,3.90625 -7.03125,4.88281 -4.63867,0.83008 -13.52539,0.83008 -12.10937,0 -15.42969,-1.5625 -3.95507,-1.85547 -3.95507,-7.91016 V 65.478516 h 8.00781 z m 71.97265,-21.337891 h 21.82618 v 6.787109 h -7.03125 q -2.05078,9.13086 -5.61524,18.701173 h 14.45313 v 6.88477 h -55.12696 v -6.88477 h 13.72071 l -0.0977,-0.48828 Q 414.0625,91.601562 411.71875,84.423828 l -0.3418,-1.025391 h -7.08008 v -6.787109 h 22.2168 V 64.501953 h 7.4707 z m -15.13671,6.787109 q 2.58789,7.958985 4.73632,18.701173 h 12.15821 q 2.92968,-8.105469 5.32226,-18.701173 z m 31.83593,35.888673 v 39.30664 h -7.32422 v -5.51758 h -25.97656 v 6.39649 h -7.56836 v -40.18555 z m -33.30078,6.68945 v 20.3125 h 25.97656 v -20.3125 z m 65.42969,-22.70508 q 12.8418,13.57422 12.8418,29.44336 0,5.56641 -2.00196,8.39844 -2.4414,3.27149 -8.49609,3.27149 -5.81055,0 -10.69336,-0.6836 l -1.61133,-7.61719 q 6.25,1.02539 10.15625,1.02539 3.71094,0 4.39453,-2.49023 0.29297,-1.07422 0.29297,-3.51562 0,-13.72071 -12.64648,-26.70899 5.85937,-12.695311 9.52148,-26.708983 h -15.42969 v 81.787113 h -7.37304 V 70.507812 h 27.49023 l 4.39453,3.808594 q -5.37109,17.382813 -10.83984,28.955074 z"></path>
</svg>
