<svg xmlns="http://www.w3.org/2000/svg" id="svg1" version="1.1" height="200" width="990">
  <defs id="defs1"></defs>
  <rect id="rect1" stroke="none" fill="none" height="200" width="990" y="0" x="0"></rect>
  <path aria-label="大阪府南部" style="font-size:100px;font-family:'BIZ UDPGothic';fill:#ff0000" id="text1" d="m 55.029297,97.998047 q 4.492187,16.357423 16.65039,31.201173 11.132813,13.52539 25.732422,21.58203 l -5.078125,7.42187 Q 75.390625,148.04687 64.160156,132.8125 56.103516,121.92383 50.927734,107.61719 42.626953,143.79883 9.1796875,158.69141 l -5.1757813,-6.5918 Q 23.730469,143.99414 34.912109,126.80664 43.701172,113.23242 45.3125,97.998047 H 4.8828125 V 90.380859 H 45.605469 V 65.478516 h 8.105468 v 24.902343 h 41.40625 v 7.617188 z m 95.849613,5.175783 q -0.0977,17.43164 -1.66016,28.41797 -2.14844,14.74609 -9.08203,26.75781 l -6.29883,-5.17578 q 6.44531,-10.83985 8.34961,-25.14649 1.36719,-10.30273 1.36719,-25.63476 V 70.605469 h 52.4414 v 6.884765 h -45.11718 v 18.896485 h 38.08593 l 4.10157,3.271484 q -4.10157,16.894527 -9.32618,27.099607 -2.49023,4.98047 -6.15234,10.20508 7.8125,8.74023 20.70313,15.82031 l -4.29688,6.39649 q -12.89062,-7.47071 -20.94727,-16.60157 -7.86132,9.03321 -21.04492,17.08985 l -4.83398,-6.10352 q 12.40234,-6.20117 21.33789,-16.69922 -10.25391,-14.55078 -14.20899,-33.6914 z m 22.02148,27.88086 q 8.10547,-12.59766 11.37695,-27.88086 h -23.29101 l 0.14648,0.53711 q 3.51563,15.625 11.76758,27.34375 z m -45.41016,-30.12696 q 10.64454,11.86524 10.64454,26.36719 0,5.32227 -1.85547,8.00781 -2.53907,3.61329 -8.83789,3.61329 -4.10157,0 -7.86133,-0.58594 l -1.5625,-7.51953 q 5.5664,0.78125 8.54492,0.78125 3.17383,0 3.75977,-2.00196 0.34179,-1.12304 0.34179,-3.46679 0,-13.28125 -10.64453,-24.21875 l 1.17188,-2.636722 q 5.17578,-11.71875 8.10546,-22.558594 h -14.5996 v 82.812496 h -7.51954 V 69.824219 h 27.00196 l 3.90625,3.466797 q -4.34571,14.697265 -10.59571,27.636714 z M 256.5918,76.123047 h 38.7207 v 6.884765 h -78.02734 v 22.216798 q 0,20.84961 -1.80664,32.61719 -1.80665,11.47461 -6.78711,21.14257 l -6.10352,-5.5664 q 4.39453,-9.96094 5.81055,-22.2168 1.17187,-10.30273 1.17187,-26.61133 V 76.123047 H 248.7793 V 64.501953 h 7.8125 z m -19.67774,27.490233 v 55.9082 h -7.61719 v -43.26171 q -3.07617,4.54101 -7.8125,9.96093 l -3.90625,-6.73828 q 12.89063,-14.30664 19.33594,-34.667967 l 7.42188,1.904297 q -3.27149,8.935547 -7.42188,16.89453 z m 45.84961,-0.92773 h 14.69727 v 6.88476 h -14.69727 v 41.3086 q 0,4.44336 -2.05078,6.20117 -1.85547,1.70898 -6.88477,1.70898 -7.32421,0 -12.79296,-0.68359 l -1.61133,-7.71485 q 6.78711,1.12305 12.59765,1.12305 1.95313,0 2.53907,-0.8789 0.48828,-0.6836 0.48828,-2.2461 v -38.81836 h -34.27735 v -6.88476 h 34.27735 V 86.572266 h 7.71484 z m -23.0957,36.32812 q -5.9082,-11.27929 -13.08594,-20.11719 l 5.9082,-4.10156 q 7.71485,8.83789 13.37891,19.62891 z m 93.84765,-45.019529 h 37.06055 v 57.324219 q 0,3.90625 -1.61133,5.66406 -1.90429,2.05078 -8.00781,2.05078 -5.76172,0 -11.18164,-0.63476 l -1.70898,-7.42188 q 8.88671,0.92774 12.06054,0.92774 1.85547,0 2.29492,-0.87891 0.24415,-0.53711 0.24415,-1.61133 V 100.39063 H 317.1875 v 59.13085 h -7.91016 V 93.994141 h 36.52344 V 83.007812 h -43.31055 v -6.689453 h 43.31055 V 64.501953 h 7.71484 v 11.816406 h 43.94532 v 6.689453 h -43.94532 z m -7.61718,27.783199 h -22.2168 v -6.20117 h 11.86523 q -2.14843,-5.32226 -5.37109,-10.49804 l 6.73828,-2.5879 q 4.05274,7.12891 6.20117,13.08594 H 356.25 q 3.32031,-6.05469 5.76172,-13.28125 l 7.42187,2.58789 q -2.39257,4.98047 -5.32226,9.96094 l -0.39063,0.73242 h 12.40235 v 6.20117 h -22.70508 v 9.13086 H 378.125 v 6.29883 h -24.70703 v 19.92188 h -7.51953 V 137.20703 H 321.875 v -6.29883 h 24.02344 z m 88.08593,-45.166012 h 21.82618 v 6.787109 h -7.03125 q -2.05078,9.13086 -5.61524,18.701173 h 14.45313 v 6.88477 h -55.12696 v -6.88477 h 13.72071 l -0.0977,-0.48828 Q 414.0625,91.601562 411.71875,84.423828 l -0.3418,-1.025391 h -7.08008 v -6.787109 h 22.2168 V 64.501953 h 7.4707 z m -15.13671,6.787109 q 2.58789,7.958985 4.73632,18.701173 h 12.15821 q 2.92968,-8.105469 5.32226,-18.701173 z m 31.83593,35.888673 v 39.30664 h -7.32422 v -5.51758 h -25.97656 v 6.39649 h -7.56836 v -40.18555 z m -33.30078,6.68945 v 20.3125 h 25.97656 v -20.3125 z m 65.42969,-22.70508 q 12.8418,13.57422 12.8418,29.44336 0,5.56641 -2.00196,8.39844 -2.4414,3.27149 -8.49609,3.27149 -5.81055,0 -10.69336,-0.6836 l -1.61133,-7.61719 q 6.25,1.02539 10.15625,1.02539 3.71094,0 4.39453,-2.49023 0.29297,-1.07422 0.29297,-3.51562 0,-13.72071 -12.64648,-26.70899 5.85937,-12.695311 9.52148,-26.708983 h -15.42969 v 81.787113 h -7.37304 V 70.507812 h 27.49023 l 4.39453,3.808594 q -5.37109,17.382813 -10.83984,28.955074 z"></path>
</svg>
