<svg xmlns="http://www.w3.org/2000/svg" id="svg1" version="1.1" height="200" width="1096">
  <defs id="defs1"></defs>
  <rect id="rect1" stroke="none" fill="none" height="200" width="1096" y="0" x="0"></rect>
  <path aria-label="石川県加賀地方" style="font-weight:bold;font-size:110px;font-family:'BIZ UDPGothic';fill:#ff0000" id="text1" d="M 36.630859,102.14355 H 97.96875 v 58.33008 H 85.561523 v -7.41211 H 33.837891 v 7.41211 H 21.645508 v -39.74609 q -6.660156,6.60644 -14.2871096,12.62207 L 0.75195312,123.03711 Q 15.46875,112.77832 25.78125,97.524414 33.78418,85.654297 38.295898,72.924805 H 5.3710937 V 62.236328 H 105.05859 V 72.924805 H 51.455078 q -5.74707,15.522461 -14.824219,29.218745 z m -2.792968,10.47364 v 29.75586 H 85.561523 V 112.61719 Z M 126.16699,60.356445 h 12.89063 v 36.308594 q 0,22.504881 -2.52442,34.428711 -2.36328,11.01074 -8.00293,19.71191 -1.9873,3.11524 -5.47851,7.25098 l -10.20508,-8.70117 q 9.66797,-10.25879 12.03125,-27.23145 1.28906,-9.07714 1.28906,-23.68652 z m 34.10645,1.665039 h 12.51465 v 87.441406 h -12.51465 z m 35.28808,-4.296875 H 208.2373 V 159.23828 h -12.67578 z m 116.60645,0.859375 V 110.62988 H 248.25195 V 58.583984 Z m -52.36817,8.486328 v 6.713868 h 40.7129 v -6.713868 z m 0,14.28711 v 6.713867 h 40.7129 v -6.713867 z m 0,14.287109 v 6.928709 h 40.7129 v -6.928709 z m -21.6455,22.128909 h 89.05273 v 9.3457 h -44.41894 v 33.35449 H 270.5957 V 127.11914 H 226.3916 V 66.855469 h 11.7627 z m -13.75,32.4414 q 12.7832,-5.9082 24.43847,-19.81933 l 9.88282,5.74707 q -11.49414,14.55566 -25.5127,22.88086 z m 92.59765,6.92871 q -8.21777,-10.09765 -24.70703,-21.21582 l 9.23828,-6.49902 q 12.94434,7.46582 25.40528,19.60449 z m 57.04102,-69.179683 h -11.06445 q -1.50391,24.277343 -5.8545,39.746093 -5.10254,18.36914 -16.81152,30.13184 l -8.43262,-8.91602 q 10.90332,-11.44043 15.62989,-30.29297 2.79296,-11.11816 4.02832,-30.668943 H 335.04883 V 77.382812 h 17.34863 l 0.69824,-21.430664 h 11.22559 l -0.59082,21.430664 h 21.37695 q 0,56.879888 -3.11523,70.629888 -1.28907,5.53222 -4.94141,7.46582 -2.63183,1.34277 -7.73437,1.34277 -6.28418,0 -12.83692,-0.9668 l -2.09472,-11.54785 q 7.08984,1.28906 11.17187,1.28906 3.65234,0 4.61914,-1.93359 2.90039,-5.53223 3.81348,-53.173829 z m 59.24316,-16.59668 v 84.702153 h -11.33301 v -7.41211 H 404.1748 v 8.48632 H 393.05664 V 71.367187 Z M 404.1748,82.055664 v 55.913086 h 17.77832 V 82.055664 Z m 50.59571,11.494141 h 80.51269 v 47.749025 h -21.32324 q 16.75781,3.9209 32.65625,10.58105 l -7.94922,8.96973 q -17.13379,-7.68066 -35.18066,-13.15918 l 5.4248,-6.3916 h -30.34668 l 7.08985,6.06933 q -15.79102,8.70118 -35.28809,14.28711 l -7.25098,-9.77539 q 16.86524,-3.38379 32.22657,-10.58105 h -20.57129 z m 68.64258,7.465825 H 466.5332 v 5.74707 h 56.87989 z m -56.87989,13.10546 v 5.96192 h 56.87989 v -5.96192 z m 0,13.21289 v 6.17676 h 56.87989 v -6.17676 z M 485.27832,71.044922 H 473.4082 q -4.08203,15.092773 -25.35156,22.988281 l -6.3916,-8.378906 q 16.11328,-4.082031 20.19531,-14.609375 H 445.4248 v -8.486328 h 18.04688 l 0.64453,-6.606446 h 11.33301 l -0.64453,6.606446 h 21.43066 q -0.85937,15.844726 -2.25586,20.302734 -1.5039,4.56543 -4.72656,5.908203 -2.41699,0.966797 -6.875,0.966797 -4.8877,0 -10.7959,-0.805664 l -1.45019,-8.432617 q 5.53222,0.966797 8.8623,0.966797 3.54492,0 4.45801,-1.557617 0.53711,-0.859375 1.18164,-4.887696 z M 542.21191,61.000977 V 89.199219 H 501.49902 V 61.000977 Z m -30.23925,8.59375 v 11.118164 h 19.33593 V 69.594727 Z m 94.3164,29.863281 v 42.539062 q 0,4.13574 3.54492,4.99512 3.65235,0.91308 16.70411,0.91308 12.72949,0 16.81152,-1.28906 2.30957,-0.75195 3.00781,-4.18945 0.91309,-4.83399 0.9668,-11.44043 l 11.22558,3.16894 Q 657.69043,150 654.19922,154.4043 q -2.30957,2.90039 -6.98242,3.4375 -7.3584,0.80566 -24.97559,0.80566 -13.64258,0 -17.88574,-0.75195 -6.3916,-1.07422 -8.11035,-5.63965 -0.85938,-2.41699 -0.85938,-6.44531 v -42.59278 l -10.25879,3.54493 -2.52441,-10.419927 12.7832,-4.404296 V 62.988281 h 10.90332 v 25.19043 l 11.54785,-3.920899 V 55.952148 h 10.7959 v 24.545899 l 17.99317,-6.176758 5.63964,3.4375 v 40.229491 q 0,4.18945 -1.9873,6.23047 -2.25586,2.25586 -7.57324,2.25586 -4.35059,0 -9.23828,-0.75195 l -1.77246,-10.25879 q 3.16894,0.80566 6.44531,0.80566 2.36328,0 2.90039,-0.9668 0.53711,-0.80566 0.53711,-2.68554 V 87.211914 l -12.94434,4.511719 v 43.452147 h -10.7959 V 95.429687 Z M 566.81152,81.894531 V 55.952148 h 11.54785 v 25.942383 h 10.41993 v 10.903321 h -10.41993 v 34.160158 q 5.63965,-1.9336 11.17188,-4.02832 l 1.02051,10.36621 q -17.40235,7.94922 -35.71778,13.32031 l -3.75976,-11.44043 q 8.27148,-2.14844 14.50195,-4.08203 0.75195,-0.26855 1.23535,-0.37598 V 92.797852 H 553.16895 V 81.894531 Z m 145.3418,3.007813 q -0.37598,8.969726 -1.07422,15.791016 h 43.29102 q -0.80567,37.27539 -4.18946,48.39355 -1.71875,5.58594 -6.3916,7.73438 -3.65234,1.66504 -10.68847,1.66504 -7.41211,0 -16.81153,-1.12793 l -2.09472,-12.08496 q 12.62207,1.77246 17.77832,1.77246 4.35058,0 5.53222,-2.4707 2.84668,-6.01563 3.97461,-33.19336 h -31.95801 q -1.77246,9.66796 -4.99511,16.75781 -8.96973,19.60449 -29.97071,31.09863 l -8.48632,-9.45312 q 21.05468,-10.95704 27.82226,-28.73536 4.51172,-11.87011 5.85449,-36.147456 H 664.18945 V 73.891602 h 43.88184 V 55.952148 h 12.40723 v 17.939454 h 45.33203 v 11.010742 z"></path>
</svg>
