<svg xmlns="http://www.w3.org/2000/svg" id="svg1" version="1.1" height="200" width="1096">
  <defs id="defs1"></defs>
  <rect id="rect1" stroke="none" fill="none" height="200" width="1096" y="0" x="0"></rect>
  <path aria-label="和歌山県北部" style="font-weight:bold;font-size:110px;font-family:'BIZ UDPGothic';fill:#ff0000" id="text1" d="M 23.901367,116.37695 Q 17.77832,130.3418 8.7011719,142.10449 L 1.9873047,130.87891 Q 15.307617,116.53809 22.504883,97.578125 l 0.268554,-0.751953 H 3.5449219 V 86.728516 H 23.901367 V 71.582031 Q 15.737305,73.085937 9.0234375,73.945312 L 4.5117187,64.492187 Q 27.5,61.699219 46.083984,55.039062 l 6.499024,9.453125 q -9.291992,2.84668 -17.241211,4.672852 V 86.728516 H 52.475586 V 96.826172 H 35.341797 v 8.647458 q 10.151367,6.17676 18.691406,14.44825 l -6.713867,10.68847 Q 41.625977,123.4668 35.341797,117.39746 v 43.07617 H 23.901367 Z M 102.6416,66.640625 V 157.46582 H 90.986328 v -7.68066 H 67.675781 v 8.48632 H 56.235352 V 66.640625 Z M 67.675781,77.543945 V 138.98926 H 90.986328 V 77.543945 Z m 96.142579,72.133785 q 10.7959,-9.56054 16.16699,-25.45898 3.27637,-9.66797 4.51172,-22.50488 0.42969,-4.780276 0.42969,-8.701175 v -9.238281 h -3.75977 q -0.16113,0.698242 -0.42969,1.933594 -2.52441,11.440429 -7.57324,20.517582 l -7.25097,-9.130863 q 7.78808,-16.489258 10.3125,-41.733399 l 10.58105,1.557617 q -1.18164,9.291992 -2.79297,16.274414 h 27.55371 l 5.80078,4.726563 q -3.70605,15.522461 -8.75488,26.962888 l -9.50683,-3.81347 q 4.88769,-10.903324 6.17675,-17.294926 h -10.20508 v 9.560547 q 0,15.629879 7.41211,31.689449 5.69336,12.35352 16.43555,23.20313 l -7.14355,12.24609 q -10.7959,-12.51465 -18.31543,-29.75586 -2.04102,-4.61914 -3.00782,-8.96972 -4.29687,23.36425 -20.89355,39.7998 l -5.85449,-8.00293 q -0.37598,4.02832 -2.57813,5.53223 -2.09472,1.39648 -7.68066,1.39648 -8.3252,0 -12.7832,-0.80566 l -2.04102,-10.09766 2.30957,0.16114 q 6.98242,0.48339 9.72168,0.48339 1.9873,0 2.36328,-0.85937 0.32227,-0.64453 0.32227,-1.98731 v -31.47461 h -41.14258 v -9.13085 h 58.97461 v 9.13085 h -7.3584 z m -1.02051,-79.545894 v 26.962891 q 0,4.189453 -1.66504,5.854493 -1.77246,1.77246 -6.33789,1.77246 -3.97461,0 -9.8291,-0.69824 l -1.02051,-5.478518 H 118.59375 V 75.771484 h 27.82227 V 95.59082 q 2.68554,0.214844 4.29687,0.214844 1.98731,0 1.98731,-1.987305 V 70.131836 h -39.2627 v -9.238281 h 56.28906 v 9.238281 z m -35.07324,13.105469 v 7.734375 h 9.99023 v -7.734375 z m 19.12109,38.833005 v 23.74024 h -19.12109 v 6.49902 h -9.45313 v -30.23926 z m -19.12109,7.46582 v 8.59375 h 10.09766 v -8.59375 z m 152.96875,8.48633 h 27.07031 V 78.94043 h 12.19238 v 80.62012 h -12.19238 v -9.88282 H 242.0752 v 9.88282 H 229.99023 V 78.94043 h 12.08497 v 59.08203 h 26.42578 V 57.026367 h 12.19238 z M 422.16797,58.583984 V 110.62988 H 358.25195 V 58.583984 Z m -52.36817,8.486328 v 6.713868 h 40.7129 v -6.713868 z m 0,14.28711 v 6.713867 h 40.7129 v -6.713867 z m 0,14.287109 v 6.928709 h 40.7129 v -6.928709 z m -21.6455,22.128909 h 89.05273 v 9.3457 h -44.41894 v 33.35449 H 380.5957 V 127.11914 H 336.3916 V 66.855469 h 11.7627 z m -13.75,32.4414 q 12.7832,-5.9082 24.43847,-19.81933 l 9.88282,5.74707 q -11.49414,14.55566 -25.5127,22.88086 z m 92.59765,6.92871 q -8.21777,-10.09765 -24.70703,-21.21582 l 9.23828,-6.49902 q 12.94434,7.46582 25.40528,19.60449 z m 45.11719,-25.29785 q -14.82422,7.78809 -25.83496,11.92383 l -4.51172,-11.81641 q 17.24121,-5.80078 30.34668,-12.03124 V 95.859375 H 445.53223 V 84.526367 h 26.58691 V 55.952148 h 11.97754 V 160.47363 h -11.97754 z m 38.18848,-41.840817 q 12.51465,-6.552735 24.27734,-16.650391 l 8.91602,9.345703 q -15.89844,11.279297 -33.19336,19.228515 v 40.2832 q 0,2.63184 1.71875,3.22266 1.82617,0.59082 8.43261,0.59082 8.70118,0 10.90332,-1.02051 1.55762,-0.69824 2.14844,-4.35058 0.80567,-5.10254 1.18164,-16.48926 l 12.03125,3.70605 q -0.53711,13.91114 -1.71875,19.98047 -1.34277,6.76758 -7.03613,8.75489 -5.4248,1.82617 -17.77832,1.82617 -14.50195,0 -18.26172,-2.417 -3.59863,-2.36328 -3.59863,-9.07714 V 55.952148 h 11.97754 z m 78.0957,-21.645508 h 22.98828 v 10.366211 h -7.57324 q -2.04102,8.217773 -5.47852,17.241211 h 14.34082 v 10.366213 h -59.9414 V 95.966797 h 13.15918 Q 563.75,85.654297 561.38672,78.725586 H 554.4043 V 68.359375 h 22.77343 V 55.952148 h 11.22559 z m -16.16699,10.366211 q 2.73926,8.00293 4.24316,17.241211 h 10.95703 l 0.53711,-1.503906 q 2.30957,-6.123047 4.29688,-13.911133 l 0.4834,-1.826172 z m 33.30078,36.630864 v 43.98925 h -11.01074 v -5.26367 H 571.1084 v 6.3916 h -11.33301 v -45.11718 z m -34.42871,9.88281 v 18.63769 h 23.41797 v -18.63769 z m 71.75781,-27.124026 q 6.3916,6.069336 10.15137,14.448246 3.70605,8.3789 3.70605,16.97265 0,7.94922 -2.9541,11.70899 -3.06152,3.9209 -10.09766,3.9209 -6.01562,0 -11.65527,-0.85938 l -2.63183,-11.44043 q 6.49902,1.18164 10.74218,1.18164 3.22266,0 4.02832,-1.5039 0.53711,-1.07422 0.53711,-4.29688 0,-13.2666 -7.94922,-22.88086 -2.09472,-2.52441 -5.26367,-5.424804 l 0.64453,-1.503906 q 5.58594,-12.62207 8.70118,-26.318359 h -13.75 V 160.47363 H 615.95703 V 61.000977 h 32.33399 l 5.96191,5.478515 q -5.42481,18.476563 -11.38672,31.635742 z"></path>
</svg>
