<svg xmlns="http://www.w3.org/2000/svg" id="svg1" version="1.1" height="200" width="1096">
  <defs id="defs1"></defs>
  <rect id="rect1" stroke="none" fill="none" height="200" width="1096" y="0" x="0"></rect>
  <path aria-label="安芸灘" style="font-weight:bold;font-size:110px;font-family:'BIZ UDPGothic';fill:#ff0000" id="text1" d="m 85.830078,108.15918 q -5.317383,15.62988 -17.402344,27.44629 15.952149,6.49902 34.858396,15.57617 l -7.949216,9.66797 Q 75.249023,149.57031 59.833984,142.53418 39.262695,156.875 9.7753906,160.74219 L 4.296875,150.85937 q 25.351562,-2.52441 43.720703,-13.53515 -11.977539,-5.10254 -25.620117,-9.66797 l -4.135742,-1.34277 q 5.693359,-7.73438 12.03125,-18.1543 H 2.7392578 V 98.061523 H 36.09375 q 3.652344,-6.552734 8.754883,-17.509765 l 11.655273,2.792969 q -3.598633,8.002929 -7.143554,14.716796 h 57.900388 v 10.097657 z m -12.460937,0 H 43.881836 q -5.424805,9.29199 -9.18457,14.77051 9.18457,3.11523 22.075195,8.00293 11.118164,-9.77539 16.59668,-22.77344 z M 60.585937,67.714844 H 103.17871 V 93.227539 H 91.09375 V 77.597656 H 18.691406 V 93.227539 H 6.7138672 V 67.714844 H 48.608398 V 55.952148 h 11.977539 z m 79.545903,-0.322266 v -11.44043 h 11.97753 v 11.44043 h 24.97559 v -11.44043 h 11.97754 v 11.44043 h 25.83496 v 9.990234 H 189.0625 V 87.856445 H 177.08496 V 77.382812 H 152.10937 V 87.856445 H 140.13184 V 77.382812 h -24.97559 v -9.990234 z m 15.36132,58.759762 -0.75195,1.55762 q -5.31738,10.63477 -11.01074,19.60449 l 7.14355,-0.32226 q 17.56348,-0.75196 35.39551,-2.25586 l 4.24317,-0.37598 q -4.67286,-5.10254 -9.99024,-9.93652 l 10.41992,-4.72656 q 12.83692,10.8496 24.65332,25.40527 l -11.333,5.9082 q -2.68555,-3.54492 -6.66016,-8.54004 -27.33887,4.29688 -76.05469,6.44532 l -3.86719,-10.63477 q 4.29688,-0.10742 7.8418,-0.21484 l 4.67285,-0.16114 q 6.76758,-10.20507 11.81641,-21.75293 h -29.27246 v -10.09765 h 104.52148 v 10.09765 z M 124.93164,94.140625 h 79.97559 v 9.882815 h -79.97559 z m 146.20117,-9.506836 v 4.887695 h 14.60938 v 6.606446 q 7.68066,-18.959961 10.36621,-40.65918 l 9.77539,1.450195 q -1.98731,11.333008 -3.81348,18.476563 h 5.58594 q 2.52441,-9.506836 3.9209,-19.335938 l 9.39941,1.71875 q -1.9873,9.453125 -4.78027,17.617188 h 11.17187 v 9.667969 h -10.47363 v 13.696289 h 8.59375 v 9.345704 h -8.59375 v 13.37402 h 8.59375 v 9.50684 h -8.59375 v 14.39453 h 11.54785 v 9.88281 h -26.47949 v 5.15625 h -9.13086 V 100.9082 q -1.18164,2.84668 -3.33008,7.19727 l -3.75976,-10.7959 v 12.89063 h -14.60938 v 5.15625 h 15.36133 v 7.78808 h -15.36133 q -0.10742,3.70606 -0.21484,5.42481 h 18.6914 v 7.78808 h -19.71191 q -0.10742,0.59082 -0.37598,1.71875 9.93653,5.85449 19.33594,13.69629 l -6.3916,8.00293 q -7.30469,-7.08984 -15.68359,-13.32031 l -0.59082,-0.4834 q -6.23047,10.36621 -17.88575,16.00586 l -6.82129,-8.59375 q 10.04395,-3.54492 14.77051,-10.20508 1.87989,-2.57812 3.16895,-6.82129 h -16.11328 v -7.78808 h 17.77832 q 0.37597,-3.70606 0.42968,-5.42481 h -15.30761 v -7.78808 h 15.36133 V 110.2002 H 246.96289 V 89.521484 h 14.50195 v -4.887695 h -9.13086 V 72.65625 h -5.37109 l -8.27148,7.788086 q -5.15625,-8.110352 -14.39454,-17.241211 l 8.16407,-6.928711 q 6.66015,5.532227 13.05176,14.072266 v -5.854493 h 6.82128 v -9.238281 h 9.34571 v 9.238281 h 9.45312 v -9.238281 h 9.23828 v 9.238281 h 8.91602 v 8.164063 h -8.91602 v 11.977539 z m -9.13086,11.708984 h -6.92871 v 7.143557 h 6.92871 z m 8.59375,0 v 7.143557 h 7.25098 V 96.342773 Z M 261.67969,72.65625 v 5.371094 h 9.45312 V 72.65625 Z m 40.2832,12.407227 v 13.696289 h 6.44531 V 85.063477 Z m 0,23.041993 v 13.37402 h 6.44531 v -13.37402 z m 0,22.88086 v 14.39453 h 6.44531 v -14.39453 z m -67.35352,-24.00879 q -7.8955,-10.957032 -14.07226,-17.13379 l 8.37891,-7.036133 q 8.05664,7.197266 14.50195,16.59668 z m -12.99804,46.29883 q 7.57324,-16.167 12.89062,-39.47754 l 9.66797,4.83398 q -4.13574,21.43067 -12.19238,42.27051 z"></path>
</svg>
