<svg xmlns="http://www.w3.org/2000/svg" id="svg1" version="1.1" height="200" width="990">
  <defs id="defs1"></defs>
  <rect id="rect1" stroke="none" fill="none" height="200" width="990" y="0" x="0"></rect>
  <path aria-label="十勝沖" style="font-size:100px;font-family:'BIZ UDPGothic';fill:#ff0000" id="text1" d="M 45.605469,100.29297 V 64.501953 h 8.105468 v 35.791017 h 43.798829 v 7.51953 H 53.710937 v 51.70898 H 45.605469 V 107.8125 H 2.4902344 v -7.51953 z m 134.130861,29.10156 h -13.86719 q -3.80859,19.92188 -24.07227,29.49219 l -5.07812,-5.81055 q 17.77344,-7.1289 21.48437,-23.68164 h -13.81835 v -6.49414 h 15.03906 l 0.8789,-10.00976 h 7.32422 l -0.83008,10.00976 h 20.50782 q -0.58594,22.46094 -2.39258,29.00391 -1.12305,4.0039 -4.15039,5.46875 -2.19727,1.02539 -6.44531,1.02539 -4.58985,0 -10.79102,-0.6836 l -1.51367,-7.32422 q 6.15234,1.12305 11.03515,1.12305 2.78321,0 3.75977,-1.07422 1.66016,-1.80664 2.73438,-17.67578 z m -4.44336,-37.890624 q 0.3418,0.732422 0.92773,2.148438 1.85547,4.296875 4.29688,8.056636 h 16.69922 v 6.39649 h -12.01172 q 5.02929,5.66406 12.89062,11.2793 l -4.39453,6.00586 q -9.61914,-6.88477 -16.94336,-17.28516 h -20.21484 q -6.25,10.88867 -17.72461,18.4082 l -4.29688,-5.17578 v 29.54102 q 0,3.95507 -1.5625,5.71289 -1.70898,1.90429 -5.9082,1.90429 -2.29492,0 -7.42187,-0.43945 l -1.51368,-0.14648 -1.31835,-7.32422 q 4.78515,0.83008 8.30078,0.83008 1.90429,0 2.34375,-0.87891 0.29297,-0.63477 0.29297,-1.85547 V 123.0957 h -13.37891 q -0.19531,10.64453 -1.2207,17.48047 -1.41602,9.375 -5.90821,18.50586 l -5.71289,-5.76172 q 4.10156,-8.54492 5.22461,-19.92187 0.6836,-6.98242 0.6836,-16.79688 V 69.384766 h 27.0996 v 51.464844 q 8.30079,-4.78516 14.16016,-12.74414 h -11.57227 v -6.39649 h 14.99024 q 2.29492,-4.443355 4.24805,-10.205074 h -16.55274 v -6.396484 h 18.4082 q 2.39258,-9.521485 3.41797,-20.703125 l 7.37305,0.683594 q -0.92773,9.472656 -3.32031,20.019531 h 28.51562 v 6.396484 z m -6.83594,0 h -4.88281 q -1.70899,5.517578 -3.90625,10.205074 h 13.23242 q -2.83203,-5.908199 -4.44336,-10.205074 z M 114.4043,76.171875 v 16.40625 h 13.33008 v -16.40625 z m 0,22.998047 v 17.333988 h 13.33008 V 99.169922 Z m 34.32617,-14.746094 q -3.32031,-8.056641 -7.71485,-14.306641 l 6.29883,-3.027343 q 4.58985,6.542968 7.91016,14.013672 z M 175,82.421875 q 4.24805,-7.324219 7.32422,-16.113281 l 7.17773,2.490234 q -2.92968,7.861328 -8.00781,15.820313 z m 83.69141,2.880859 V 64.501953 h 7.71484 v 20.800781 h 27.7832 v 40.478516 h -27.7832 v 33.69141 h -7.71484 v -33.69141 h -26.9043 V 85.302734 Z m -19.38477,6.982422 v 26.513674 h 19.38477 V 92.285156 Z m 47.26563,26.513674 V 92.285156 H 266.40625 V 118.79883 Z M 221.77734,86.621094 q -6.54297,-8.34961 -15.2832,-15.527344 l 5.32227,-5.273438 q 8.30078,6.201172 15.67382,14.990235 z m -3.66211,25.488286 q -7.66601,-8.8379 -15.91796,-15.527349 l 5.41992,-5.46875 q 8.39843,6.201172 16.16211,14.990239 z m -13.7207,40.57617 q 9.52149,-12.69532 17.48047,-32.86133 l 6.29883,5.07812 q -7.32422,19.14063 -17.08985,33.69141 z"></path>
</svg>
