<svg xmlns="http://www.w3.org/2000/svg" id="svg1" version="1.1" height="200" width="990">
  <defs id="defs1"></defs>
  <rect id="rect1" stroke="none" fill="none" height="200" width="990" y="0" x="0"></rect>
  <path aria-label="隠岐島近海" style="font-size:100px;font-family:'BIZ UDPGothic';fill:#ff0000" id="text1" d="M 82.080078,99.511719 H 36.181641 v -5.908203 h 9.277343 L 45.3125,93.212891 Q 43.164062,87.060547 39.404297,81.103516 l 6.396484,-2.490235 q 3.564453,5.078125 6.298828,12.207031 l -6.347656,2.783204 h 26.708984 q 4.833985,-9.13086 8.056641,-18.115235 l 7.080078,3.125 Q 82.714844,88.574219 79.6875,93.603516 h 9.912109 V 125.83008 H 35.986328 v -5.9082 h 46.09375 v -7.61719 H 38.378906 v -5.51758 H 82.080078 Z M 5.6152344,68.798828 H 29.199219 l 3.515625,3.271484 q -4.296875,16.455079 -9.277344,27.832032 4.443359,5.419926 6.933594,12.158206 2.783203,7.4707 2.783203,14.89258 0,5.37109 -1.31836,8.15429 -2.050781,4.39453 -8.691406,4.39453 -2.880859,0 -6.445312,-0.63476 l -1.513672,-7.27539 q 4.345703,0.78125 6.787109,0.78125 2.832031,0 3.417969,-1.85547 0.488281,-1.46485 0.488281,-5.07813 0,-13.23242 -9.375,-24.56054 4.199219,-10.107426 8.007813,-25.292973 H 12.792969 V 159.47266 H 5.6152344 Z m 29.5898436,3.515625 q 26.220703,-1.708984 49.023438,-7.226562 l 4.785156,5.615234 q -23.97461,5.419922 -50.390625,7.617187 z M 29.638672,151.9043 q 5.078125,-8.93555 7.470703,-20.01953 l 6.494141,2.0996 q -2.490235,13.03711 -7.56836,21.92383 z m 19.189453,-19.58008 h 7.080078 v 14.89258 q 0,2.73437 1.855469,3.41797 1.855469,0.68359 6.884765,0.68359 7.128907,0 9.082032,-1.07422 1.416015,-0.73242 1.855468,-3.02734 0.292969,-1.66016 0.53711,-6.9336 l 7.177734,2.92969 q -0.292969,6.10352 -1.02539,8.59375 -1.416016,4.88281 -6.78711,5.71289 -3.564453,0.53711 -11.279297,0.53711 -9.423828,0 -12.060547,-1.26953 -3.320312,-1.61133 -3.320312,-6.68945 z M 61.816406,93.017578 q -2.58789,-7.617187 -6.201172,-13.818359 l 6.396485,-2.294922 q 3.515625,5.224609 6.591797,13.476562 z m 5.517578,51.171872 q -5.419922,-8.54492 -10.839843,-14.20898 l 5.419921,-3.27149 q 5.810547,5.17579 11.279297,13.37891 z m 24.462891,8.78907 Q 85.253906,138.81836 80.224609,132.08008 l 6.201172,-3.17383 q 6.25,8.25195 11.767578,20.11719 z M 171.875,102.00195 H 187.5 l 4.39453,3.90625 q -7.08008,18.99414 -17.28516,30.66407 9.375,8.6914 23.48633,15.13671 l -4.73633,7.17774 q -12.74414,-6.64063 -23.68164,-17.13867 -12.20703,11.57226 -27.34375,17.82226 l -4.88281,-6.39648 q 14.89258,-4.93164 27.39258,-16.65039 -10.79102,-13.03711 -16.06445,-27.63672 h -5.12696 v -6.88477 h 20.70313 V 86.279297 h -24.80469 v -6.982422 h 24.80469 V 64.501953 h 7.51953 v 14.794922 h 25.58594 v 6.982422 H 171.875 Z m -15.67383,6.88477 q 4.39453,11.86523 13.37891,22.50976 8.74023,-10.74218 12.89062,-22.50976 z m -30.61523,25.24414 h 7.08008 V 84.228516 h 6.68945 v 56.884764 h -27.58789 v 8.10547 h -6.88477 V 84.228516 h 6.68946 v 49.902344 h 7.1289 V 65.820312 h 6.88477 z m 142.43164,15.08789 h -53.8086 v 5.71289 h -7.71484 v -23.0957 h 7.71484 v 11.18164 h 19.0918 v -14.69727 h -19.0918 V 73.291016 h 23.97461 q 3.36914,-4.931641 5.41993,-9.179688 l 8.6914,2.001953 q -2.39258,3.515625 -5.46875,7.177735 h 35.25391 v 30.517574 h -59.96094 v 6.00586 h 75.3418 v 6.10352 h -75.3418 v 6.29883 h 70.94727 q -0.73243,23.87695 -3.32032,30.71289 -1.5625,4.19922 -5.51757,5.66406 -2.5879,0.92773 -6.83594,0.92773 -6.15235,0 -11.76758,-0.8789 l -1.61133,-7.22656 q 6.73828,1.02539 12.10938,1.02539 4.24804,0 5.37109,-1.95313 2.24609,-3.90625 3.36914,-22.16797 h -43.94531 v 14.69727 h 19.58008 v -11.18164 h 7.51953 z M 222.11914,79.296875 v 6.298828 h 52.09961 v -6.298828 z m 0,12.011719 v 6.689453 h 52.09961 v -6.689453 z m 104.39453,47.021486 q 4.29688,4.44336 9.81445,7.22656 8.59375,4.3457 23.58399,4.3457 h 38.37891 q -1.41602,2.88086 -2.49024,6.88477 H 359.7168 q -16.35743,0 -25.63477,-4.58984 -5.56641,-2.78321 -10.74219,-8.20313 -8.34961,9.57031 -16.25976,15.47852 l -4.58985,-7.08008 q 7.95899,-4.98047 16.40625,-12.5 v -25.6836 h -16.21093 v -6.7871 h 23.82812 z M 340.9668,74.21875 q 1.70898,-0.146484 3.71093,-0.292969 21.92383,-1.80664 39.99024,-7.617187 l 5.61523,6.103515 q -17.91992,5.371094 -41.60156,7.763672 v 14.941406 h 47.41211 v 6.884763 h -17.91992 v 43.40821 h -7.8125 v -43.40821 h -21.67969 q 0,13.52539 -1.17187,22.07032 -1.5625,11.4746 -6.83594,20.21484 l -6.49414,-5.17578 q 4.78515,-8.30078 6.00586,-19.33594 0.78125,-7.27539 0.78125,-20.654296 z m -18.35938,14.697266 q -7.51953,-9.960938 -15.52734,-17.138672 l 5.51758,-4.6875 q 8.20312,6.689453 15.96679,16.308593 z m 115.47852,1.904296 h 49.90234 q 0,2.636719 -0.68359,22.998048 h 10.20508 v 6.5918 h -10.44922 q -0.19532,6.25 -0.87891,17.91992 h 9.7168 v 6.49414 h -10.20508 q -0.63477,7.27539 -1.70899,9.66797 -2.14843,5.02929 -10.49804,5.02929 -4.73633,0 -11.08399,-0.78125 l -1.41601,-6.83593 q 7.32422,1.02539 12.06054,1.02539 2.73438,0 3.61329,-1.22071 0.78125,-1.12304 1.31836,-6.10351 l 0.0488,-0.78125 h -39.01367 l -0.14648,0.78125 -0.14649,0.68359 -0.83008,4.73633 -7.4707,-0.87891 q 2.63672,-14.50195 4.44336,-29.73632 h -9.76562 v -6.5918 h 10.54687 q 1.46484,-12.69531 2.44141,-22.998048 z m 27.58789,6.396485 q -0.19531,3.417973 -0.73242,11.572263 l -0.29297,5.0293 h 15.33203 q 0.0976,-2.09961 0.24414,-5.46875 0.0488,-0.87891 0.19531,-5.56641 0,-1.85547 0.14649,-5.566403 z m -7.12891,0 h -13.81836 q -0.43945,5.957033 -1.51367,16.601563 h 14.0625 q 0.29297,-3.71094 0.43945,-5.56641 0.3418,-3.61328 0.83008,-11.035153 z m -1.80664,23.193363 h -14.25781 q -0.78125,6.64062 -1.95313,14.59961 l -0.48828,3.32031 h 14.79492 l 0.29297,-2.2461 q 1.17188,-9.76562 1.61133,-15.67382 z m 7.32422,0 -0.48828,5.12695 q -0.83008,8.78906 -1.31836,12.79297 h 16.40625 q 0.48828,-6.34766 0.73242,-12.30469 l 0.29297,-5.61523 z M 444.9707,73.779297 h 48.92578 v 6.689453 h -52.00195 q -4.00391,7.958984 -9.91211,14.941406 l -5.37109,-5.224609 q 9.47265,-10.546875 14.01367,-25.78125 l 7.4707,0.78125 q -1.5625,4.833984 -3.125,8.59375 z m -24.75586,12.5 q -6.44531,-8.447266 -14.40429,-15.38086 l 5.27343,-5.078125 q 7.51954,5.810547 14.69727,14.697266 z m -3.51562,25.732423 Q 409.0332,102.68555 401.9043,96.679687 l 5.41992,-5.371093 q 8.39844,6.787109 15.08789,14.794926 z m -12.69531,41.06445 q 8.88671,-12.64648 16.21093,-31.98242 l 6.39649,4.6875 q -7.37305,19.92187 -16.3086,33.00781 z"></path>
</svg>
