<svg xmlns="http://www.w3.org/2000/svg" id="svg1" version="1.1" height="200" width="990">
  <defs id="defs1"></defs>
  <rect id="rect1" stroke="none" fill="none" height="200" width="990" y="0" x="0"></rect>
  <path aria-label="大阪湾" style="font-size:100px;font-family:'BIZ UDPGothic';fill:#ff0000" id="text1" d="m 55.029297,97.998047 q 4.492187,16.357423 16.65039,31.201173 11.132813,13.52539 25.732422,21.58203 l -5.078125,7.42187 Q 75.390625,148.04687 64.160156,132.8125 56.103516,121.92383 50.927734,107.61719 42.626953,143.79883 9.1796875,158.69141 l -5.1757813,-6.5918 Q 23.730469,143.99414 34.912109,126.80664 43.701172,113.23242 45.3125,97.998047 H 4.8828125 V 90.380859 H 45.605469 V 65.478516 h 8.105468 v 24.902343 h 41.40625 v 7.617188 z m 95.849613,5.175783 q -0.0977,17.43164 -1.66016,28.41797 -2.14844,14.74609 -9.08203,26.75781 l -6.29883,-5.17578 q 6.44531,-10.83985 8.34961,-25.14649 1.36719,-10.30273 1.36719,-25.63476 V 70.605469 h 52.4414 v 6.884765 h -45.11718 v 18.896485 h 38.08593 l 4.10157,3.271484 q -4.10157,16.894527 -9.32618,27.099607 -2.49023,4.98047 -6.15234,10.20508 7.8125,8.74023 20.70313,15.82031 l -4.29688,6.39649 q -12.89062,-7.47071 -20.94727,-16.60157 -7.86132,9.03321 -21.04492,17.08985 l -4.83398,-6.10352 q 12.40234,-6.20117 21.33789,-16.69922 -10.25391,-14.55078 -14.20899,-33.6914 z m 22.02148,27.88086 q 8.10547,-12.59766 11.37695,-27.88086 h -23.29101 l 0.14648,0.53711 q 3.51563,15.625 11.76758,27.34375 z m -45.41016,-30.12696 q 10.64454,11.86524 10.64454,26.36719 0,5.32227 -1.85547,8.00781 -2.53907,3.61329 -8.83789,3.61329 -4.10157,0 -7.86133,-0.58594 l -1.5625,-7.51953 q 5.5664,0.78125 8.54492,0.78125 3.17383,0 3.75977,-2.00196 0.34179,-1.12304 0.34179,-3.46679 0,-13.28125 -10.64453,-24.21875 l 1.17188,-2.636722 q 5.17578,-11.71875 8.10546,-22.558594 h -14.5996 v 82.812496 h -7.51954 V 69.824219 h 27.00196 l 3.90625,3.466797 q -4.34571,14.697265 -10.59571,27.636714 z M 265.08789,73.583984 h 32.12891 v 6.298828 h -23.38868 v 19.189454 q 0,3.076174 -1.5625,4.492184 -1.5625,1.41602 -5.66406,1.41602 -5.02929,0 -8.49609,-0.48828 l -1.12305,-6.298831 q 4.39453,0.683594 7.4707,0.683594 1.61133,0 1.9043,-1.171875 0.14649,-0.537109 0.14649,-1.416016 v -16.40625 h -10.64454 q -0.43945,9.91211 -2.24609,14.794922 -2.63672,6.982426 -12.01172,11.914066 l -5.07812,-4.83399 q 8.49609,-4.052732 10.69336,-10.058591 1.46484,-4.003907 1.61132,-11.816407 h -21.82617 v -6.298828 h 30.32227 v -9.082031 h 7.76367 z m 24.60938,35.009766 v 18.79883 h -49.60938 q -0.53711,3.90625 -1.31836,7.32422 h 55.32227 q -0.97657,12.30468 -3.41797,18.01757 -1.66016,3.95508 -5.95703,5.56641 -3.32032,1.2207 -9.22852,1.2207 -7.91016,0 -15.86914,-0.78125 l -1.70898,-7.03125 q 10.69336,1.12305 17.48046,1.12305 4.19922,0 5.66407,-0.97656 2.58789,-1.70899 4.15039,-11.03516 h -47.94922 q -0.73242,2.68555 -1.66016,5.71289 l -7.71484,-1.80664 q 2.92969,-8.64258 5.32226,-23.24218 h 48.68165 v -6.98243 h -52.39258 v -5.9082 z M 219.18945,86.083984 q -6.29883,-8.349609 -13.96484,-15.08789 l 5.37109,-4.980469 q 7.37305,5.810547 14.20899,14.501953 z m -3.07617,25.439456 q -7.4707,-9.13086 -14.50195,-15.136721 l 5.32226,-5.273438 q 7.56836,6.103516 14.79493,14.501949 z m -12.30469,41.69922 q 8.4961,-12.74414 15.91797,-33.39844 l 6.00586,4.39453 q -6.39648,19.28711 -15.42969,34.66797 z m 87.89063,-50.14649 Q 284.86328,93.261719 276.9043,85.791016 l 5.32226,-3.90625 q 9.08203,7.666015 15.28321,16.699218 z m -69.28711,-4.589842 q 8.44726,-6.054687 13.62305,-15.478516 l 6.29882,2.587891 q -5.22461,10.546875 -14.50195,17.480467 z"></path>
</svg>
