<svg xmlns="http://www.w3.org/2000/svg" id="svg7" width="180" height="40" version="1.1" viewBox="0 0 180 40">
  <defs id="defs7"></defs>
  
  <path id="path1" d="m0 0h180v40h-180z" fill="none" fill-opacity="0" stop-color="#000000" stroke-linecap="round" stroke-linejoin="round" stroke-width=".2" style="paint-order:stroke markers fill"></path>
  <path aria-label="震度色のみ" style="font-weight:bold;font-size:14.0001px;line-height:1.35;font-family:'BIZ UDPGothic';-inkscape-font-specification:'BIZ UDPGothic Bold';fill:#ffffff;stroke-width:3.00094" id="text7" d="m 26.225381,15.196316 v -0.587895 h -4.272492 v -0.977546 h 10.089916 v 0.977546 h -4.361359 v 0.587895 h 5.660196 v 2.454119 h -1.483409 v -1.572277 h -4.176787 v 2.659199 h -1.456065 v -2.659199 h -4.101592 v 1.572277 h -1.469737 v -2.454119 z m 4.839878,9.700265 q 1.045906,0.396487 2.611347,0.62891 l -0.799811,1.162118 q -2.194351,-0.375979 -3.602564,-1.292001 -1.401378,-0.916023 -2.18068,-2.276384 h -1.510753 v 2.105484 q 1.510753,-0.211916 2.802754,-0.451175 l 0.0957,1.018562 q -2.406267,0.574223 -5.502969,0.998054 l -0.403323,-1.203134 q 1.07325,-0.116212 1.469737,-0.164064 l 0.08203,-0.01367 v -2.290056 h -1.497081 q -0.0957,1.203134 -0.314456,1.920912 -0.259767,0.861335 -0.83399,1.606457 L 20.2644,25.641703 q 0.669927,-0.86817 0.833991,-2.030288 0.08887,-0.628911 0.08887,-1.565441 v -2.898458 h 11.798912 v 0.909186 H 22.656996 v 2.098648 h 10.91707 v 0.963874 h -1.551769 l 0.86817,0.574223 q -0.772466,0.642583 -1.825208,1.203134 z M 29.998845,24.37021 q 0.984382,-0.669927 1.565441,-1.250986 H 28.57696 q 0.587895,0.751959 1.421885,1.250986 z m -7.273489,-7.786189 h 2.91213 v 0.772467 h -2.91213 z m 0,1.257822 h 2.91213 v 0.786138 h -2.91213 z m 5.543985,-1.257822 h 3.000998 v 0.772467 h -3.000998 z m 0,1.257822 h 3.000998 v 0.786138 h -3.000998 z m -4.798863,2.789082 h 8.510803 v 0.895514 h -8.510803 z m 18.593883,-6.049848 h 5.359413 v 1.148446 h -3.035178 v 1.134774 h 2.843771 v 1.107429 h -2.843771 v 2.037124 h -5.502969 v -2.037124 h -2.242203 v 1.271494 q 0,3.096702 -0.328127,4.894566 -0.252932,1.367197 -0.820319,2.495135 l -1.244149,-0.984382 q 0.519535,-1.127938 0.710942,-2.754902 0.1709,-1.428722 0.1709,-3.650417 v -4.662143 h 5.407265 V 13.3506 h 1.524425 z m -5.420937,1.148446 v 1.134774 h 2.242203 v -1.134774 z m 3.698269,0 v 1.134774 h 2.590838 v -1.134774 z m 0,2.242203 v 1.059578 h 2.590838 v -1.059578 z m 1.585948,7.177786 q -1.9756,1.025398 -5.017614,1.558605 l -0.710942,-1.257822 q 2.857442,-0.341799 4.477571,-1.045905 -1.387705,-1.00489 -2.372087,-2.38576 h -0.943367 v -1.189461 h 8.004941 l 0.717778,0.601566 q -1.018562,1.565441 -2.905294,2.946311 1.620129,0.649418 4.416047,0.957038 l -0.79981,1.292001 Q 44.115157,26.263778 41.927641,25.149512 Z M 39.897353,22.01863 q 0.827155,0.97071 2.00978,1.708997 1.333018,-0.861334 2.057632,-1.708997 z m 11.696373,-0.410159 v 2.481463 q 0,0.540043 0.396487,0.649419 0.587895,0.164064 3.889677,0.164064 2.932638,0 3.650416,-0.1709 0.3418,-0.08203 0.437503,-0.382815 0.116212,-0.3418 0.184572,-1.592785 l 1.510753,0.464847 q -0.0752,1.346689 -0.218751,1.845716 -0.184572,0.649419 -0.683599,0.881842 -0.355471,0.164064 -0.984382,0.20508 -1.620129,0.116212 -4.231476,0.116212 -3.657252,0 -4.347687,-0.129884 -0.779303,-0.143556 -1.00489,-0.683599 -0.109376,-0.273439 -0.109376,-0.683598 v -7.020558 l -0.06836,0.05469 q -0.314455,0.225587 -0.745122,0.499027 l -0.93653,-1.134774 q 2.440447,-1.339853 4.128935,-3.821316 l 0.957038,0.656254 h 3.889677 l 0.724614,0.751959 q -0.90235,1.278329 -1.886732,2.303727 h 4.381867 v 4.545931 z m 0,-1.216806 H 54.5332 v -2.071303 h -2.939474 z m 4.409211,-2.071303 v 2.071303 h 3.000998 V 18.320362 Z M 54.416989,17.06254 q 0.881842,-0.922858 1.503917,-1.811536 H 52.76268 q -0.758795,0.929694 -1.804701,1.811536 z m 15.271594,7.512749 q 4.012724,-1.011726 4.012724,-4.600619 0,-1.565441 -0.806646,-2.693378 -0.902351,-1.271494 -2.748067,-1.633801 -0.403323,3.171898 -1.100594,5.19535 -0.478519,1.415049 -1.189461,2.67287 -1.025398,1.791029 -2.331072,1.791029 -0.97071,0 -1.729504,-0.875007 -0.485355,-0.553714 -0.786139,-1.360361 -0.396487,-1.045906 -0.396487,-2.249039 0,-1.948256 1.07325,-3.588893 1.086922,-1.674817 2.823262,-2.433611 1.264658,-0.553715 2.775411,-0.553715 2.358415,0 4.005888,1.264657 2.023452,1.551769 2.023452,4.395539 0,4.764683 -4.819371,6.043012 z m -1.025398,-8.982486 q -1.209969,0.13672 -2.023452,0.649419 -0.519535,0.334963 -1.032234,0.888678 -1.421885,1.572277 -1.421885,3.643581 0,1.510753 0.601567,2.365251 0.369143,0.526371 0.73145,0.526371 0.492191,0 1.10743,-1.086922 1.503917,-2.645527 2.037124,-6.986378 z m 9.426824,-1.264657 h 5.345742 l 0.957038,0.813482 q -0.676763,2.372087 -1.121102,3.568385 1.702161,0.287111 3.137718,0.929694 0.08203,-0.881842 0.08203,-1.729505 0,-0.451175 -0.02734,-1.059577 l 1.497081,0.157227 q -0.0068,1.955092 -0.157228,3.28811 0.847662,0.437503 1.777357,1.032234 l -0.587895,1.456065 q -0.656255,-0.478519 -1.421885,-0.950202 -0.526371,2.030288 -1.681653,3.158225 -0.820318,0.806647 -2.242204,1.421886 l -0.854498,-1.148446 q 1.674817,-0.717779 2.474627,-1.832045 0.628911,-0.888678 0.929694,-2.324235 -1.674816,-0.840826 -3.390649,-1.134774 -1.114266,3.04885 -2.235368,4.621127 -0.854498,1.189462 -1.920912,1.189462 -1.032234,0 -1.599621,-0.984382 -0.430667,-0.751959 -0.430667,-1.791029 0,-1.285165 0.663091,-2.296891 0.786138,-1.203134 2.419939,-1.756849 0.943366,-0.314455 2.11232,-0.341799 0.628911,-1.640637 0.963874,-2.939474 h -4.689487 z m 3.233422,5.591836 q -0.881842,0.04785 -1.510753,0.334964 -0.984382,0.437503 -1.449229,1.339853 -0.328127,0.635747 -0.328127,1.353525 0,0.574223 0.225587,0.998054 0.1709,0.334964 0.410159,0.334964 0.957038,0 2.652363,-4.36136 z"></path>
</svg>


