<svg xmlns="http://www.w3.org/2000/svg" id="svg1" version="1.1" height="200" width="990">
  <defs id="defs1"></defs>
  <rect id="rect1" stroke="none" fill="none" height="200" width="990" y="0" x="0"></rect>
  <path aria-label="オーストラリア付近" style="font-size:100px;font-family:'BIZ UDPGothic';fill:#ff0000" id="text1" d="m 56.591797,68.115234 h 8.007812 v 19.580078 h 23.779297 v 7.080079 H 64.599609 V 144.9707 q 0,4.63867 -1.953125,6.68946 -1.953125,2.09961 -7.177734,2.09961 -7.324219,0 -14.0625,-0.48829 l -1.904297,-7.91015 q 7.421875,0.68359 14.013672,0.68359 2.099609,0 2.636719,-0.78125 0.439453,-0.63476 0.439453,-2.29492 V 97.363281 Q 47.65625,111.62109 34.082031,124.31641 23.632812,134.13086 9.5703125,141.89453 l -5.078125,-6.83594 Q 18.310547,128.32031 31.152344,116.45508 42.285156,106.25 50.097656,94.775391 H 6.2988281 V 87.695312 H 56.591797 Z m 41.015625,38.183596 h 84.277348 v 7.71484 H 97.607422 Z M 200.09766,76.416016 h 57.1289 l 4.88281,4.492187 q -7.37304,18.847656 -19.38476,35.302737 16.45508,12.89062 30.66406,28.71093 l -6.00586,6.5918 q -13.3789,-15.42969 -29.29687,-29.49219 -16.3086,19.58008 -39.89258,29.88282 l -4.58984,-7.08008 q 23.53515,-9.57031 39.25781,-28.61328 13.52539,-16.357424 19.43359,-32.714846 h -52.19726 z m 95.89843,-7.519532 h 8.20313 v 27.783203 q 30.71289,9.521483 47.90039,18.310543 l -4.10156,7.42188 Q 328.61328,112.5 304.19922,104.49219 v 50 h -8.20313 z m 74.65821,4.199219 h 61.8164 v 7.080078 h -61.8164 z m -6.98243,23.681641 h 78.07618 q -2.14844,21.435546 -9.7168,33.349606 -6.73828,10.54688 -18.79883,16.3086 -10.88867,5.17578 -27.14844,7.71484 l -3.61328,-7.17773 q 23.82813,-3.02735 35.10742,-12.74414 12.10938,-10.44922 14.50196,-30.3711 h -68.40821 z m 97.94922,-26.757813 h 8.20313 v 51.464849 h -8.20313 z m 50.09766,-1.02539 h 8.20312 v 33.496089 q 0,16.99219 -2.34375,25.04883 -2.49023,8.64258 -7.42187,13.81836 -8.49609,8.88672 -26.31836,13.33008 l -4.29687,-7.17773 q 20.70312,-4.54102 26.90429,-14.99024 3.95508,-6.78711 4.83399,-16.94336 0.43945,-4.88281 0.43945,-12.98828 z m 25.48828,7.421875 h 76.12305 l 5.27344,4.492187 q -4.19922,16.308594 -15.47852,25.537107 -6.20117,5.07813 -15.52734,8.64258 l -4.6875,-6.00586 q 13.91601,-4.54101 21.58203,-14.941405 3.51562,-4.833984 5.02929,-10.644531 h -72.31445 z m 32.51953,18.164062 h 7.86133 v 8.203122 q 0,19.18946 -3.75977,29.00391 -5.02929,13.03711 -20.70312,21.19141 l -5.81055,-5.95704 q 10.74219,-5.17578 15.9668,-13.23242 3.56445,-5.41992 4.78516,-11.03515 1.66015,-7.66602 1.66015,-19.97071 z m 78.75977,-4.394531 v 69.335933 h -7.71485 v -55.37109 q -0.19531,0.29297 -0.48828,0.73242 -4.39453,7.17774 -10.88867,14.69727 l -4.10156,-7.37305 q 9.76562,-11.32812 16.35742,-25.195311 4.73633,-9.91211 8.83789,-22.900391 l 7.61719,2.099609 q -4.49219,13.427735 -9.61914,23.97461 z m 55.22461,-2.001953 h 16.60156 v 7.177734 h -16.60156 v 54.541012 q 0,5.17578 -2.49024,7.17774 -2.09961,1.61133 -7.76367,1.61133 -7.91016,0 -14.74609,-0.6836 L 677.09961,150 q 8.44726,1.2207 15.625,1.2207 2.14844,0 2.68555,-0.78125 0.39062,-0.63476 0.39062,-2.4414 V 95.361328 h -42.72461 v -7.177734 h 42.72461 V 65.283203 h 7.91016 z m -28.41797,45.410156 q -5.71289,-14.30664 -13.81836,-26.07422 l 6.49414,-4.19922 q 8.39844,12.35352 14.20898,25.87891 z m 74.21875,4.73633 q 4.29687,4.44336 9.81445,7.22656 8.59375,4.3457 23.58399,4.3457 h 38.3789 q -1.41601,2.88086 -2.49023,6.88477 h -36.08399 q -16.35742,0 -25.63476,-4.58984 -5.56641,-2.78321 -10.74219,-8.20313 -8.34961,9.57031 -16.25977,15.47852 l -4.58984,-7.08008 q 7.95899,-4.98047 16.40625,-12.5 v -25.6836 h -16.21094 v -6.7871 h 23.82813 z m 14.45312,-64.11133 q 1.70899,-0.146484 3.71094,-0.292969 21.92383,-1.80664 39.99024,-7.617187 l 5.61523,6.103515 q -17.91992,5.371094 -41.60156,7.763672 v 14.941406 h 47.41211 v 6.884763 h -17.91993 v 43.40821 h -7.8125 v -43.40821 h -21.67968 q 0,13.52539 -1.17188,22.07032 -1.5625,11.4746 -6.83594,20.21484 l -6.49414,-5.17578 q 4.78516,-8.30078 6.00586,-19.33594 0.78125,-7.27539 0.78125,-20.654296 z m -18.35937,14.697266 q -7.51953,-9.960938 -15.52735,-17.138672 l 5.51758,-4.6875 q 8.20313,6.689453 15.9668,16.308593 z"></path>
</svg>
