<svg xmlns="http://www.w3.org/2000/svg" id="svg1" version="1.1" height="200" width="1096">
  <defs id="defs1"></defs>
  <rect id="rect1" stroke="none" fill="none" height="200" width="1096" y="0" x="0"></rect>
  <path aria-label="新島・神津島近海" style="font-weight:bold;font-size:110px;font-family:'BIZ UDPGothic';fill:#ff0000" id="text1" d="m 36.09375,123.4668 q 7.788086,4.24316 17.241211,11.92382 l -6.123047,9.99024 Q 41.142578,138.55957 36.09375,134.15527 v 26.31836 H 25.083008 V 131.79199 Q 17.832031,145.1123 7.8417969,154.08203 L 1.5576172,143.93066 Q 13.535156,135.44434 21.484375,122.82227 H 4.5117187 v -9.45313 H 25.083008 V 102.89551 H 2.4169922 V 93.012695 H 14.179688 Q 12.783203,86.191406 10.258789,78.134766 H 4.5117187 V 68.144531 H 24.868164 V 55.952148 h 11.44043 v 12.192383 h 19.49707 v 9.990235 h -5.74707 q -1.987305,8.05664 -4.941407,14.877929 h 12.299805 v 9.882815 H 36.09375 v 10.47363 h 19.335937 v 9.45313 H 36.09375 Z M 20.947266,78.134766 q 2.041015,6.713867 3.544921,14.877929 h 10.634766 q 2.470703,-6.928711 4.243164,-14.877929 z m 50.541992,26.103514 q 0.05371,16.65039 -2.578125,30.88379 -2.739258,14.77051 -9.72168,26.42578 l -8.862305,-8.11035 q 5.961914,-9.66797 8.164063,-23.74023 1.933594,-12.03125 1.933594,-30.722661 V 65.297852 q 1.074218,-0.107422 3.276367,-0.322266 17.080078,-1.611328 34.213867,-7.358399 l 7.036131,9.345704 q -14.287108,4.833984 -33.408201,7.46582 V 93.012695 H 107.58301 V 104.23828 H 95.283203 v 56.23535 H 84.165039 V 104.23828 Z M 152.59277,64.116211 q 1.98731,-4.780274 3.22266,-9.130859 l 13.10547,1.77246 q -1.87988,4.458008 -3.4375,7.358399 h 35.77148 v 35.019531 h -64.88281 v 5.424808 h 80.83496 v 8.70117 h -80.83496 v 5.47851 h 77.0752 q -0.69825,24.59961 -3.11524,33.19336 -1.55762,5.47852 -5.85449,7.25098 -3.06152,1.28906 -9.3457,1.28906 -6.44532,0 -12.03125,-0.80566 l -2.14844,-9.02344 h -53.81836 v 5.96192 h -11.54785 v -25.83497 h 11.54785 v 11.06446 h 18.47656 v -14.50196 h -21.1084 V 64.116211 Z m 22.82715,77.719729 v -11.06446 h 11.11817 v 18.69141 q 4.458,0.42969 7.41211,0.42969 3.65234,0 4.56542,-2.09473 1.77247,-3.9209 2.79297,-20.46387 H 157.1582 v 14.50196 z M 136.37207,72.387695 v 5.317383 h 53.0127 v -5.317383 z m 0,12.998047 v 5.854492 h 53.0127 v -5.854492 z m 111.23535,10.688477 q 4.18945,0 7.57324,2.792968 4.45801,3.652343 4.45801,9.345703 0,3.49121 -1.9873,6.49902 -3.59864,5.58594 -10.20508,5.58594 -2.90039,0 -5.53223,-1.39648 -2.09472,-1.07422 -3.54492,-2.84668 -2.9541,-3.49121 -2.9541,-7.94922 0,-6.23047 5.20996,-9.882814 3.11523,-2.148437 6.98242,-2.148437 z m 57.68555,7.143551 q 0.59082,0.42969 1.71875,1.23536 6.49902,4.51171 13.69629,11.70898 l -6.60645,9.13086 q -3.49121,-4.35059 -8.43261,-9.18457 l -0.37598,-0.42969 v 44.79492 H 294.1748 v -43.77441 q -4.67285,5.37109 -12.24609,12.19238 l -5.69336,-10.41992 Q 295.1416,102.62695 304.43359,84.257812 H 279.08203 V 73.461914 h 14.87793 V 55.952148 h 11.22559 v 17.509766 h 9.3457 l 4.29687,5.74707 q -4.9414,11.44043 -13.53515,23.632816 z M 343.21289,72.119141 V 55.952148 h 11.33301 v 16.166993 h 23.31055 V 133.08105 H 354.5459 v 27.39258 H 343.21289 V 133.08105 H 321.24512 V 72.119141 Z m -11.60156,9.882812 v 15.522461 h 11.8164 V 82.001953 Z m 0,24.975587 v 16.11328 h 11.8164 v -16.11328 z m 35.66406,16.11328 v -16.11328 h -12.94434 v 16.11328 z m 0,-25.566406 V 82.001953 h -12.94434 v 15.522461 z m 89.21387,10.581056 v 7.68066 h 29.27246 v 8.8086 h -29.27246 v 7.8955 h 33.67676 v 9.45313 h -33.67676 v 18.53027 h -11.54785 v -18.53027 h -30.88379 v -9.45313 h 30.88379 v -7.8955 h -26.26465 v -8.8086 h 26.26465 v -7.68066 h -23.20313 v -8.164064 h 23.20313 v -8.432617 h -32.22657 v -8.701172 h 32.22657 v -8.271484 h -22.66602 v -8.486328 h 22.66602 V 55.952148 h 11.54785 v 10.097657 h 26.85547 v 16.757812 h 9.3457 v 8.701172 h -9.3457 v 16.596681 z m 0,-8.164064 h 15.62988 v -8.432617 h -15.62988 z m 0,-17.133789 h 15.62988 v -8.271484 h -15.62988 z m -49.46778,-1.342773 q -6.71386,-9.238282 -16.05957,-17.026367 l 8.3252,-7.841797 q 10.09766,7.734375 16.43555,16.274414 z m -3.75976,27.929686 Q 395.47363,99.135742 386.9873,91.938477 l 8.27149,-8.056641 q 8.64746,6.552734 16.91894,16.704104 z m -14.39453,42.80762 q 10.3125,-16.86524 17.56347,-37.97363 l 9.39942,6.60644 q -6.71387,21.37695 -16.86524,39.37012 z M 537.59277,64.116211 q 1.98731,-4.780274 3.22266,-9.130859 l 13.10547,1.77246 q -1.87988,4.458008 -3.4375,7.358399 h 35.77148 v 35.019531 h -64.88281 v 5.424808 h 80.83496 v 8.70117 h -80.83496 v 5.47851 h 77.0752 q -0.69825,24.59961 -3.11524,33.19336 -1.55762,5.47852 -5.85449,7.25098 -3.06152,1.28906 -9.3457,1.28906 -6.44532,0 -12.03125,-0.80566 l -2.14844,-9.02344 h -53.81836 v 5.96192 h -11.54785 v -25.83497 h 11.54785 v 11.06446 h 18.47656 v -14.50196 h -21.1084 V 64.116211 Z m 22.82715,77.719729 v -11.06446 h 11.11817 v 18.69141 q 4.458,0.42969 7.41211,0.42969 3.65234,0 4.56542,-2.09473 1.77247,-3.9209 2.79297,-20.46387 H 542.1582 v 14.50196 z M 521.37207,72.387695 v 5.317383 h 53.0127 v -5.317383 z m 0,12.998047 v 5.854492 h 53.0127 v -5.854492 z m 113.97461,50.649418 q 4.29687,4.99511 9.66797,7.41211 8.80859,3.9746 23.0957,3.9746 h 45.76172 q -1.93359,3.65235 -3.59863,10.47364 h -42.7002 q -18.47656,0 -28.30566,-5.80078 -4.02832,-2.417 -8.86231,-7.89551 -0.37597,0.42969 -0.91308,1.07422 -7.89551,9.3457 -15.6836,15.2539 l -6.49902,-11.01074 q 8.54004,-5.10254 16.48926,-11.54785 v -26.5332 h -15.62988 v -10.58106 h 27.17773 z m 13.96484,-71.274418 2.84668,-0.214844 q 24.86817,-1.71875 44.6875,-7.358398 l 8.37891,9.453125 q -20.83984,5.478516 -44.47266,7.412109 v 13.911133 h 49.73633 V 98.4375 h -18.04687 v 43.77441 H 680.57129 V 98.4375 h -19.81934 q -0.26855,17.24121 -2.57812,27.44629 -2.09473,9.39941 -6.875,16.86523 l -9.88281,-7.46582 q 5.31738,-8.27148 6.82128,-20.51757 1.07422,-8.43262 1.07422,-22.934575 z M 629.43848,85.761719 Q 621.2207,74.160156 611.71387,64.975586 l 8.80859,-7.036133 q 9.23828,7.734375 18.58399,19.658203 z M 812.7002,85.117187 q 0,2.524415 -0.4834,23.955083 h 10.25879 v 9.66796 h -10.47364 q -0.16113,7.03614 -0.69824,15.95215 h 9.07715 v 9.45313 h -9.77539 q -0.64453,7.78808 -1.77246,10.3125 -2.52442,6.01562 -12.2461,6.01562 -6.23046,0 -11.49414,-0.91308 L 783.10547,150 q 7.57324,1.07422 11.60156,1.07422 3.27637,0 3.9209,-2.30957 0.32227,-1.12793 0.59082,-4.61914 h -38.24219 q -0.0537,0.42969 -0.16113,0.91308 -0.4834,2.84668 -0.91309,5.3711 l -11.11816,-1.07422 q 3.27637,-19.38965 4.4043,-29.32617 l 0.16113,-1.28907 h -10.74219 v -9.66796 h 11.87012 q 1.50391,-12.998051 2.57812,-23.955083 z m -33.94532,9.345704 h -11.76269 q -0.16114,2.739257 -0.9668,11.547849 l -0.32227,3.06153 h 11.92383 l 0.16114,-1.50391 q 0.10742,-1.55762 0.32226,-4.35059 0.53711,-7.519528 0.64453,-8.754879 z m 10.58106,0 q -0.26856,6.391599 -0.80567,14.125979 v 0.4834 h 12.62207 q 0.21485,-7.3584 0.37598,-14.609379 z m -12.56836,24.277339 h -12.08496 q -0.80567,6.55274 -1.71875,12.94434 l -0.42969,3.00781 h 12.56836 q 1.28906,-11.65527 1.66504,-15.95215 z m 11.01074,0 q -0.16113,2.14844 -0.64453,7.08985 l -0.85938,8.8623 h 13.69629 q 0.26856,-5.20996 0.42969,-7.84179 0.32227,-5.74707 0.42969,-8.11036 z M 766.72363,65.727539 h 51.88477 v 9.990234 h -56.34278 q -4.35058,8.862305 -11.06445,16.865235 l -7.68066,-8.378906 Q 754.10156,71.796875 758.55957,55.629883 L 770,56.811523 q -1.93359,5.585938 -3.27637,8.916016 z m -29.59472,15.629883 q -6.60645,-9.077149 -16.05957,-17.026367 l 8.11035,-7.841797 q 8.75488,6.445312 16.65039,16.274414 z M 733.26172,109.7168 Q 725.09766,99.243164 716.77246,92.15332 l 8.37891,-8.05664 q 9.3457,7.358398 16.81152,16.75781 z m -14.60938,42.16308 q 9.34571,-12.94433 17.72461,-34.10644 l 9.56055,6.82129 q -6.98242,19.55078 -17.93945,35.8789 z"></path>
</svg>
