<svg version="1.1" xmlns="http://www.w3.org/2000/svg" xmlns:xlink="http://www.w3.org/1999/xlink" width="199.85001" height="119.85" viewBox="0,0,199.85001,119.85"><g transform="translate(-140.075,-120.075)"><g stroke="none" stroke-linejoin="round" stroke-miterlimit="10"><path d="M140.07501,239.925v-119.85h199.85001v119.85z" fill="none" stroke-width="0" stroke-linecap="round" opacity="0.05011"/><path d="M164.99999,206.578h84c5.54,0 10,4.46 10,10v2c0,5.54 -4.46,10 -10,10h-84c-5.54,0 -10,-4.46 -10,-10v-2c0,-5.54 4.46,-10 10,-10z" fill="#7adc7c" stroke-width="22.6772" stroke-linecap="round"/><path d="M197.61537,214.32892l-0.0148,0.11102c-0.2615,2.36343 -0.82399,4.34939 -1.68745,5.95791c0.80426,0.95721 1.86508,1.84781 3.18248,2.6718l-0.86593,1.57644c-1.21379,-0.87333 -2.26967,-1.84288 -3.16768,-2.90864c-1.02135,1.26806 -2.22774,2.27462 -3.61915,3.01966l-1.03615,-1.3174c1.55917,-0.70558 2.80503,-1.70966 3.73756,-3.01226c-0.69077,-1.14964 -1.21625,-2.36836 -1.57644,-3.65615c-0.1875,0.37006 -0.40706,0.75245 -0.6587,1.14717l-0.99915,-1.20638v0.55509h-4.39627v4.04842c0,0.30591 0.08634,0.48601 0.25904,0.54028c0.16282,0.05426 0.54275,0.0814 1.13978,0.0814c0.98682,0 1.53697,-0.10609 1.65045,-0.31825c0.03454,-0.06907 0.06167,-0.18009 0.08141,-0.33305c0.07401,-0.54274 0.11102,-1.04848 0.11102,-1.51722l1.57644,0.51808c-0.0592,0.97201 -0.14308,1.63811 -0.25163,1.9983c-0.16282,0.52794 -0.54522,0.861 -1.14718,0.99916c-0.49835,0.11348 -1.22118,0.17022 -2.16853,0.17022c-1.14964,0 -1.92676,-0.10855 -2.33136,-0.32565c-0.35032,-0.1875 -0.52548,-0.56001 -0.52548,-1.11757v-6.13553h4.44067v-3.11587h-4.77372v-1.40622h6.33536v5.2696c0.95721,-1.75654 1.63811,-3.84611 2.04271,-6.26875l1.56164,0.21463c-0.17763,0.89307 -0.35279,1.66032 -0.52548,2.30175h4.84774v1.45802zM196.09073,214.32892h-2.53118l-0.04441,0.14063l-0.04441,0.11841l-0.05181,0.16282c0.36019,1.55424 0.86839,2.96045 1.52463,4.21864c0.53781,-1.26806 0.92021,-2.8149 1.14718,-4.64051zM203.30683,221.33778c0.44406,0.49834 0.94734,0.85606 1.50983,1.07316c0.85853,0.33552 1.87496,0.50328 3.04926,0.50328h6.38717c-0.19243,0.33552 -0.36019,0.8166 -0.50328,1.44322h-5.9431c-1.48022,0 -2.67181,-0.2097 -3.57474,-0.6291c-0.55755,-0.2615 -1.08797,-0.68337 -1.59124,-1.26559c-0.02961,0.0296 -0.06414,0.06907 -0.10361,0.11842c-0.67103,0.84373 -1.37908,1.5567 -2.12412,2.13892l-0.88074,-1.51723c0.82399,-0.51808 1.54684,-1.03861 2.16853,-1.56163v-3.68576h-2.06491v-1.45802h3.67095zM206.48931,212.2196h1.45802v-1.90948h1.57644v1.90948h3.3379v1.2582h-3.3379v1.59124h4.16683v1.3174h-10.10994v-1.3174h4.36666v-1.59124h-1.93169c-0.2467,0.56742 -0.55262,1.07809 -0.91774,1.53203l-1.22859,-0.86593c0.6513,-0.90787 1.17677,-2.11425 1.57644,-3.61915l1.42842,0.34785c-0.12335,0.50328 -0.25164,0.95228 -0.38486,1.347zM212.58044,217.5114v4.36666h-7.63796v-4.36666zM206.51892,218.69558v1.93909h4.49989v-1.93909zM202.10785,214.40293c-0.6513,-1.13484 -1.38401,-2.12412 -2.19814,-2.96785l1.34701,-0.88073c0.76971,0.76478 1.5197,1.70966 2.24994,2.83463zM223.11964,216.46044c-0.00493,1.7072 -0.10361,3.13807 -0.29604,4.29265c-0.23684,1.40128 -0.6883,2.66934 -1.3544,3.80418l-1.18418,-1.12497c0.52301,-0.95721 0.88073,-2.11178 1.07316,-3.46373c0.15295,-1.06576 0.22943,-2.34122 0.22943,-3.82638v-4.96615h7.33451v1.45802h-5.80248v2.42017h4.68491l0.87333,0.84373c-0.28125,1.37661 -0.59702,2.50405 -0.94734,3.38232c-0.28617,0.72037 -0.61676,1.37661 -0.99175,1.9687c0.69571,0.71051 1.59124,1.34206 2.6866,1.89468l-0.96954,1.54684c-0.96708,-0.61183 -1.84535,-1.34207 -2.6348,-2.19073c-0.67103,0.79932 -1.59124,1.58137 -2.76062,2.34615l-1.03616,-1.25819c0.72531,-0.40953 1.31986,-0.82152 1.78367,-1.23599c0.32565,-0.28124 0.67597,-0.64636 1.05096,-1.09536c-0.96214,-1.44075 -1.53697,-3.03939 -1.72447,-4.79593zM225.73963,219.99078c0.57235,-0.98189 0.99669,-2.15866 1.273,-3.53034h-2.55339c0.19243,1.32234 0.61923,2.49911 1.28039,3.53034zM217.19134,214.40293h1.18418v-4.09282h1.47283v4.09282h1.21378v1.40621h-3.87078v2.05011h2.97525v6.85344h-1.45802v-5.47683h-1.53943c-0.05427,1.20392 -0.18749,2.25734 -0.39966,3.16028c-0.19736,0.81906 -0.49588,1.61592 -0.89554,2.39056l-1.27299,-1.19898c0.72531,-1.44568 1.08796,-3.3305 1.08796,-5.65445v-7.09028h1.50243z" fill="#171f17" stroke-width="0" stroke-linecap="butt"/></g></g></svg>