<svg xmlns="http://www.w3.org/2000/svg" id="svg1" version="1.1" height="200" width="1096">
  <defs id="defs1"></defs>
  <rect id="rect1" stroke="none" fill="none" height="200" width="1096" y="0" x="0"></rect>
  <path aria-label="福岡県筑豊地方" style="font-weight:bold;font-size:110px;font-family:'BIZ UDPGothic';fill:#ff0000" id="text1" d="m 29.970703,103.37891 q 7.143555,4.9414 13.374024,10.68847 v -4.35058 h 61.176753 v 50.75683 H 93.725586 v -4.51172 H 54.248047 v 4.51172 h -10.90332 v -45.00976 l -5.585938,8.8623 q -3.974609,-4.72656 -7.788086,-8.43262 v 44.58008 H 18.637695 v -43.98925 q -6.391601,7.19726 -11.8164059,12.24609 L 1.2353516,118.52539 Q 19.282227,102.73438 28.520508,83.881836 H 3.6523438 V 73.193359 H 18.154297 V 55.952148 h 11.44043 v 17.241211 h 8.271484 l 4.941406,5.15625 Q 37.758789,89.951172 29.970703,101.60645 Z m 24.277344,15.03906 v 9.99023 h 14.555664 v -9.99023 z m 0,18.26172 V 147.0459 H 68.803711 V 136.67969 Z M 93.725586,147.0459 V 136.67969 H 78.686523 v 10.36621 z m 0,-18.6377 v -9.99023 H 78.686523 v 9.99023 z M 99.365234,76.201172 V 103.48633 H 48.071289 V 76.201172 Z m -40.498047,8.271484 v 10.84961 H 88.24707 V 84.472656 Z M 41.733398,60.356445 H 106.0791 v 9.345703 H 41.733398 Z M 182.1875,131.63086 v -23.20313 h 10.20508 v 32.8711 h -44.79492 v 7.25097 h -10.20508 v -40.12207 h 10.20508 v 23.20313 h 11.87011 V 101.3916 h -27.55371 v -9.667967 h 38.24219 q 5.37109,-9.399414 9.23828,-20.893555 l 11.11817,3.867188 q -4.61915,9.721679 -9.61426,17.026367 h 17.34863 v 9.667967 h -28.57422 v 30.23926 z m 30.56152,-71.918946 v 89.965816 q 0,5.42481 -2.90039,7.78809 -2.79297,2.25586 -9.72168,2.25586 -5.4248,0 -18.53027,-0.91309 l -2.73926,-11.333 q 9.3457,1.12793 18.31543,1.12793 3.00781,0 3.54492,-1.02051 0.37598,-0.69824 0.37598,-2.73926 V 69.80957 h -72.08008 v 90.66406 H 117.3584 V 59.711914 Z M 146.8457,91.455078 q -3.59863,-8.59375 -8.16406,-15.683594 l 10.04395,-4.296875 q 5.04882,7.358399 8.43261,15.46875 z M 312.16797,58.583984 V 110.62988 H 248.25195 V 58.583984 Z m -52.36817,8.486328 v 6.713868 h 40.7129 v -6.713868 z m 0,14.28711 v 6.713867 h 40.7129 v -6.713867 z m 0,14.287109 v 6.928709 h 40.7129 v -6.928709 z m -21.6455,22.128909 h 89.05273 v 9.3457 h -44.41894 v 33.35449 H 270.5957 V 127.11914 H 226.3916 V 66.855469 h 11.7627 z m -13.75,32.4414 q 12.7832,-5.9082 24.43847,-19.81933 l 9.88282,5.74707 q -11.49414,14.55566 -25.5127,22.88086 z m 92.59765,6.92871 q -8.21777,-10.09765 -24.70703,-21.21582 l 9.23828,-6.49902 q 12.94434,7.46582 25.40528,19.60449 z m 53.44239,-80.083003 q 3.16894,5.424805 5.63964,11.547851 l -11.22558,3.168946 q -2.73926,-7.841797 -6.44531,-14.716797 h -5.69336 q -4.72657,8.647461 -11.60157,15.737305 l -8.59375,-7.841797 Q 343.2666,74.912109 349.33594,55.307617 l 11.44043,2.202149 q -1.82617,5.854492 -3.49121,9.882812 h 25.62011 v 9.667969 z m 45.00976,0 q 3.38379,4.995117 6.28418,10.366211 l -11.22558,3.491211 q -3.97461,-8.647461 -7.08985,-13.857422 h -5.31738 q -4.13574,8.754883 -9.39942,15.200195 l -9.23828,-6.28418 q 9.72168,-11.279296 14.07227,-30.346679 l 11.33301,1.879883 q -1.66504,6.391601 -2.9541,9.882812 h 33.35449 v 9.667969 z M 360.72266,105.3125 v 28.9502 q 6.3916,-2.20215 14.39453,-5.42481 l 1.18164,9.13086 q -20.03418,9.50684 -40.33692,15.7373 L 332.09473,143.125 q 7.25097,-1.93359 17.40234,-5.10254 V 105.3125 h -15.2002 v -9.775391 h 40.7129 v 9.775391 z m 61.92871,-12.084961 v 52.260741 q 0,1.4502 0.4834,1.87988 0.59082,0.53711 2.4707,0.53711 2.09473,0 2.63183,-1.34277 0.21485,-0.69824 0.4834,-3.00781 0.64453,-5.96192 0.64453,-11.49414 l 9.23829,3.75976 q -0.53711,15.6836 -2.57813,19.28223 -1.61133,2.90039 -5.15625,3.4375 -2.20215,0.37598 -6.28418,0.37598 -8.27148,0 -10.63476,-1.82618 -2.20215,-1.66504 -2.20215,-6.12304 v -16.97266 l -6.82129,8.3252 q -6.875,-17.77832 -13.53516,-27.33887 v 3.4375 q 0,12.89062 -2.63183,21.26953 -3.06153,9.72168 -10.74219,17.29492 -1.98731,1.9336 -5.3711,4.67285 l -8.80859,-8.3789 q 5.69336,-4.08203 8.59375,-7.30469 6.3916,-7.19727 7.68066,-18.36914 0.4834,-3.97461 0.4834,-8.75488 V 93.227539 Z m -10.90332,9.560551 H 391.3916 v 11.06445 l 5.47852,-6.23047 q 8.54004,11.49414 14.87793,25.24414 z m 111.39648,38.08105 q -1.82617,4.02832 -4.67285,8.70117 h 28.73535 v 8.59375 H 442.73926 v -8.59375 h 27.60742 q -1.98731,-4.24316 -4.78027,-8.70117 h -10.41993 v -21.64551 h 79.65332 v 21.64551 z m -12.99805,0 h -31.25976 q 2.84668,4.83398 4.13574,8.70117 h 23.20313 q 2.09472,-4.18945 3.92089,-8.70117 z m -42.91503,-14.07226 v 6.60644 h 55.48339 v -6.60644 z m 10.04394,-63.164068 v -7.680664 h 10.90332 v 7.680664 h 13.10547 v -7.680664 h 10.84961 v 7.680664 h 24.76074 V 101.49902 H 453.10547 V 63.632812 Z m -13.2666,7.358399 v 7.949219 h 13.2666 v -7.949219 z m 0,14.87793 v 8.164062 h 13.2666 v -8.164062 z m 61.875,8.164062 v -8.164062 h -13.75 v 8.164062 z m 0,-15.092773 v -7.949219 h -13.75 v 7.949219 z m -37.70508,-7.949219 v 7.949219 h 13.10547 v -7.949219 z m 0,14.87793 v 8.164062 h 13.10547 v -8.164062 z m -43.98926,20.463869 h 101.6211 v 8.05664 h -101.6211 z m 162.09961,-6.875002 v 42.539062 q 0,4.13574 3.54492,4.99512 3.65235,0.91308 16.70411,0.91308 12.72949,0 16.81152,-1.28906 2.30957,-0.75195 3.00781,-4.18945 0.91309,-4.83399 0.9668,-11.44043 l 11.22558,3.16894 Q 657.69043,150 654.19922,154.4043 q -2.30957,2.90039 -6.98242,3.4375 -7.3584,0.80566 -24.97559,0.80566 -13.64258,0 -17.88574,-0.75195 -6.3916,-1.07422 -8.11035,-5.63965 -0.85938,-2.41699 -0.85938,-6.44531 v -42.59278 l -10.25879,3.54493 -2.52441,-10.419927 12.7832,-4.404296 V 62.988281 h 10.90332 v 25.19043 l 11.54785,-3.920899 V 55.952148 h 10.7959 v 24.545899 l 17.99317,-6.176758 5.63964,3.4375 v 40.229491 q 0,4.18945 -1.9873,6.23047 -2.25586,2.25586 -7.57324,2.25586 -4.35059,0 -9.23828,-0.75195 l -1.77246,-10.25879 q 3.16894,0.80566 6.44531,0.80566 2.36328,0 2.90039,-0.9668 0.53711,-0.80566 0.53711,-2.68554 V 87.211914 l -12.94434,4.511719 v 43.452147 h -10.7959 V 95.429687 Z M 566.81152,81.894531 V 55.952148 h 11.54785 v 25.942383 h 10.41993 v 10.903321 h -10.41993 v 34.160158 q 5.63965,-1.9336 11.17188,-4.02832 l 1.02051,10.36621 q -17.40235,7.94922 -35.71778,13.32031 l -3.75976,-11.44043 q 8.27148,-2.14844 14.50195,-4.08203 0.75195,-0.26855 1.23535,-0.37598 V 92.797852 H 553.16895 V 81.894531 Z m 145.3418,3.007813 q -0.37598,8.969726 -1.07422,15.791016 h 43.29102 q -0.80567,37.27539 -4.18946,48.39355 -1.71875,5.58594 -6.3916,7.73438 -3.65234,1.66504 -10.68847,1.66504 -7.41211,0 -16.81153,-1.12793 l -2.09472,-12.08496 q 12.62207,1.77246 17.77832,1.77246 4.35058,0 5.53222,-2.4707 2.84668,-6.01563 3.97461,-33.19336 h -31.95801 q -1.77246,9.66796 -4.99511,16.75781 -8.96973,19.60449 -29.97071,31.09863 l -8.48632,-9.45312 q 21.05468,-10.95704 27.82226,-28.73536 4.51172,-11.87011 5.85449,-36.147456 H 664.18945 V 73.891602 h 43.88184 V 55.952148 h 12.40723 v 17.939454 h 45.33203 v 11.010742 z"></path>
</svg>
