<svg xmlns="http://www.w3.org/2000/svg" id="svg1" version="1.1" height="200" width="1096">
  <defs id="defs1"></defs>
  <rect id="rect1" stroke="none" fill="none" height="200" width="1096" y="0" x="0"></rect>
  <path aria-label="大分県中部" style="font-weight:bold;font-size:110px;font-family:'BIZ UDPGothic';fill:#ff0000" id="text1" d="m 62.46582,94.570312 q 3.706055,12.568358 14.072266,26.748048 12.62207,17.29492 31.044924,27.39258 l -7.680666,11.06445 q -19.497071,-11.49414 -32.548828,-30.4541 -7.036133,-10.3125 -11.279297,-21.00098 -4.243164,14.39453 -13.15918,26.15723 -13.105469,17.40234 -32.387695,25.67383 l -7.5732424,-9.8291 Q 23.149414,141.88965 35.556641,124.32617 45.976562,109.50195 47.910156,94.570312 H 5.0488281 V 82.915039 H 48.393555 V 57.026367 h 12.407226 v 25.888672 h 44.257809 v 11.655273 z m 101.51367,13.105468 q -1.66504,17.50977 -7.57324,28.14453 -8.8623,16.05957 -30.4541,24.65332 l -7.57324,-10.04394 q 14.87793,-4.4043 23.52539,-14.98535 8.00293,-9.77539 9.77539,-27.76856 h -18.79883 v -7.734374 q -5.9082,6.069334 -13.21289,11.494144 l -7.68067,-9.292 q 23.5254,-16.220698 33.46192,-45.332027 l 11.44043,4.082032 q -7.30469,20.302734 -21.21582,36.09375 h 61.12304 Q 180.7373,81.787109 170.04883,60.356445 l 10.90332,-4.404297 q 13.42773,27.392579 37.16797,41.894532 l -7.14356,10.58105 Q 203.7793,103.3252 198.4082,98.491211 l -0.0537,2.202149 q -0.64453,27.87598 -2.79297,44.52637 -1.12793,8.80859 -5.04882,11.54785 -3.49122,2.4707 -12.2461,2.4707 -6.60644,0 -16.32812,-0.64453 l -2.20215,-11.33301 q 8.80859,1.18164 15.95215,1.18164 4.18945,0 5.58593,-1.18164 1.39649,-1.18164 2.20215,-6.23047 1.98731,-11.97754 2.41699,-33.35449 z M 312.16797,58.583984 V 110.62988 H 248.25195 V 58.583984 Z m -52.36817,8.486328 v 6.713868 h 40.7129 v -6.713868 z m 0,14.28711 v 6.713867 h 40.7129 v -6.713867 z m 0,14.287109 v 6.928709 h 40.7129 v -6.928709 z m -21.6455,22.128909 h 89.05273 v 9.3457 h -44.41894 v 33.35449 H 270.5957 V 127.11914 H 226.3916 V 66.855469 h 11.7627 z m -13.75,32.4414 q 12.7832,-5.9082 24.43847,-19.81933 l 9.88282,5.74707 q -11.49414,14.55566 -25.5127,22.88086 z m 92.59765,6.92871 q -8.21777,-10.09765 -24.70703,-21.21582 l 9.23828,-6.49902 q 12.94434,7.46582 25.40528,19.60449 z M 378.6084,75.664062 V 55.952148 h 12.08496 v 19.711914 h 39.85351 v 56.826168 h -11.87011 v -7.46582 h -27.9834 v 35.44922 H 378.6084 v -35.44922 h -27.28516 v 8.05664 H 339.45312 V 75.664062 Z M 351.32324,86.674805 V 114.01367 H 378.6084 V 86.674805 Z m 67.35352,27.338865 V 86.674805 h -27.9834 v 27.338865 z m 59.72656,-45.654295 h 22.98828 v 10.366211 h -7.57324 q -2.04102,8.217773 -5.47852,17.241211 h 14.34082 v 10.366213 h -59.9414 V 95.966797 h 13.15918 Q 453.75,85.654297 451.38672,78.725586 H 444.4043 V 68.359375 h 22.77343 V 55.952148 h 11.22559 z m -16.16699,10.366211 q 2.73926,8.00293 4.24316,17.241211 h 10.95703 l 0.53711,-1.503906 q 2.30957,-6.123047 4.29688,-13.911133 l 0.4834,-1.826172 z m 33.30078,36.630864 v 43.98925 h -11.01074 v -5.26367 H 461.1084 v 6.3916 h -11.33301 v -45.11718 z m -34.42871,9.88281 v 18.63769 h 23.41797 v -18.63769 z m 71.75781,-27.124026 q 6.3916,6.069336 10.15137,14.448246 3.70605,8.3789 3.70605,16.97265 0,7.94922 -2.9541,11.70899 -3.06152,3.9209 -10.09766,3.9209 -6.01562,0 -11.65527,-0.85938 l -2.63183,-11.44043 q 6.49902,1.18164 10.74218,1.18164 3.22266,0 4.02832,-1.5039 0.53711,-1.07422 0.53711,-4.29688 0,-13.2666 -7.94922,-22.88086 -2.09472,-2.52441 -5.26367,-5.424804 l 0.64453,-1.503906 q 5.58594,-12.62207 8.70118,-26.318359 h -13.75 V 160.47363 H 505.95703 V 61.000977 h 32.33399 l 5.96191,5.478515 q -5.42481,18.476563 -11.38672,31.635742 z"></path>
</svg>
