<svg version="1.1" xmlns="http://www.w3.org/2000/svg" xmlns:xlink="http://www.w3.org/1999/xlink" width="1656.15616" height="144.14414" viewBox="0,0,1656.15616,144.14414"><g transform="translate(588.07807,-107.92794)"><g stroke="none" stroke-miterlimit="10"><path d="M-504.3789,130.89063h12.74219v31.39063c21.76563,6.70833 39.79427,13.5625 54.08594,20.5625l-6.125,11.8125c-13.70833,-6.96354 -29.69531,-13.58073 -47.96094,-19.85156v55.5625h-12.74219zM-427.37891,172.89063h96.30469v12.30468h-96.30469zM-242.48047,144.78125l8.53125,7.05469c-4.11979,23.04167 -11.6849,40.65104 -22.69531,52.82812c-10.02605,11.08333 -25.1198,19.65104 -45.28125,25.70313l-6.83594,-11.10157c18.48437,-4.66667 32.55729,-12.21354 42.21875,-22.64062c9.36979,-10.0625 15.64063,-23.60677 18.8125,-40.63281h-36.85938c-7.65625,11.59375 -16.64322,20.85417 -26.96093,27.78125l-8.96875,-9.07813c8.38541,-5.39583 15.22135,-11.26562 20.50781,-17.60937c5.97917,-7.21875 10.64583,-15.91406 14,-26.08594l11.86719,3.22656c-1.3125,3.82813 -2.73438,7.34636 -4.26563,10.55469zM-180.19141,160.58594c-11.52083,-5.14062 -23.4974,-9.26042 -35.92969,-12.35937l3.82813,-11.75781c14.40104,3.28125 26.48698,7.36458 36.25781,12.25zM-214.75391,215c18.04687,-1.53125 31.86458,-4.75782 41.45313,-9.67969c11.30208,-5.83333 19.97916,-14.78385 26.03125,-26.85156c3.9375,-7.80208 7.1276,-18.01042 9.57031,-30.625l10.5,7.71094c-2.95313,13.48958 -6.52604,24.20833 -10.71875,32.15625c-7.58333,14.47395 -19.17708,24.95572 -34.78125,31.44531c-9.84375,4.08333 -23.00521,7 -39.48438,8.75zM-116.42578,151.94532h24.17187c1.09375,-5.61458 2.31511,-12.59635 3.66406,-20.94531l0.27344,-1.58594l11.97656,1.80469c-1.23958,7.72917 -2.51562,14.63802 -3.82812,20.72656h6.61719c8.75,0 15.02083,1.96875 18.8125,5.90625c3.39062,3.53646 5.08593,9.04167 5.08593,16.51563c0,12.57812 -1.33073,24.33593 -3.99218,35.27343c-1.53125,6.19792 -3.39063,10.77344 -5.57813,13.72657c-2.77083,3.68229 -6.61719,5.52343 -11.53906,5.52343c-5.90625,0 -12.35938,-1.89583 -19.35938,-5.6875l1.36719,-11.53906c6.92709,3.31771 12.30469,4.97656 16.13281,4.97656c2.00521,0 3.55469,-1.07552 4.64844,-3.22656c1.16667,-2.33333 2.27865,-5.70573 3.33594,-10.11719c2.07813,-8.93229 3.11719,-18.32031 3.11719,-28.16406c0,-5.17708 -1.03906,-8.53125 -3.11719,-10.0625c-1.78646,-1.27604 -4.97656,-1.91406 -9.57031,-1.91406h-8.42188c-5.79687,25.8125 -14.10937,47.83333 -24.9375,66.0625l-10.99219,-6.01563c11.19271,-18.77604 19.17709,-38.79166 23.95313,-60.04687h-21.82031zM-25.58985,205.92187c-4.11979,-15.16666 -10.6276,-30.05989 -19.52343,-44.67968l10.66406,-4.8125c9.1875,14.65625 16.0599,29.40364 20.61719,44.24219zM-33.6836,153.53125c-2.26041,-5.90625 -5.90625,-12.46875 -10.9375,-19.6875l8.47657,-3.17187c4.41145,6.23437 8.11197,12.70573 11.10156,19.41406zM-18.97266,148.82813c-2.84375,-7.03646 -6.47135,-13.65365 -10.88281,-19.85156l8.03906,-2.67969c4.19271,4.99479 7.85677,11.22917 10.99219,18.70313zM54.14453,132.80469v9.1875c0,16.15104 3.00781,30.46094 9.02344,42.92969c6.5625,13.63541 18.73958,25.86718 36.53125,36.69531l-8.14844,10.77343c-14.94792,-8.56771 -26.81511,-20.5625 -35.60156,-35.98437c-3.53646,-6.19791 -6.23438,-12.92448 -8.09375,-20.17969l-0.27344,1.03907c-2.98959,10.9375 -7,20.07031 -12.03125,27.39843c-7.875,11.48437 -18.92188,21.16406 -33.14063,29.03906l-8.53125,-10.39062c13.89063,-6.92709 24.48177,-15.40365 31.77344,-25.42969c7,-9.66145 11.79427,-21.94791 14.38281,-36.85937c0.83855,-4.84896 1.51303,-10.3724 2.02344,-16.57031h-28v-11.64844zM192.28515,161.84375h-31.44531c-1.27604,15.53125 -4.79427,28.7474 -10.55469,39.64844c-6.38021,12.14062 -17.55468,22.54947 -33.52343,31.22656l-8.85938,-10.0625c12.83333,-6.16146 22.78646,-14.89323 29.85938,-26.19531c5.17708,-8.34896 8.58593,-19.88802 10.22656,-34.61719h-37.07813v-11.21094h38.17188l0.92969,-22.85937h12.63281l-1.03906,22.85938h43.47656l-0.10938,8.53125c-0.58333,31.79166 -1.96875,52.24479 -4.15625,61.35937c-1.05729,4.375 -3.15364,7.4375 -6.28906,9.1875c-2.47917,1.42187 -5.86979,2.13281 -10.17187,2.13281c-6.52605,0 -13.48959,-0.52865 -20.89063,-1.58594l-2.35156,-12.74219c7.76563,1.42188 14.18229,2.13282 19.25,2.13282c4.15625,0 6.72656,-1.14844 7.71094,-3.44532c0.61979,-1.53125 1.31249,-5.9427 2.07812,-13.23437c1.02083,-10.02604 1.73177,-23.73437 2.13281,-41.125zM221.05078,149.375h43.91406c-2.36979,-6.23438 -4.53906,-12.43229 -6.50781,-18.59375l11.97656,-0.76562c1.89583,6.48958 4.17448,12.94271 6.83594,19.35938h40.41406v11.21094h-35.27344c4.70313,9.73438 10.59115,19.88802 17.66407,30.46094l-11.48438,5.46875c-7.80208,-11.8125 -14.20052,-23.78906 -19.19531,-35.92969h-48.34375zM300.5664,230.03906c-7.25521,0.40104 -13.67187,0.60156 -19.25,0.60156c-15.16667,0 -26.34114,-1.18489 -33.52343,-3.55468c-12.97917,-4.22917 -19.46875,-12.21354 -19.46875,-23.95313c0,-7.21875 2.24219,-13.03385 6.72656,-17.44531l10.28125,5.57813c-2.98959,2.95312 -4.48438,6.8177 -4.48438,11.59374c0,6.08855 3.28125,10.35417 9.84375,12.79688c5.79688,2.15104 15.4948,3.22656 29.09375,3.22656c5.76042,0 12.25,-0.27344 19.46875,-0.82031zM352.08203,130.23438h12.08594v30.89844c8.67708,-9.00521 15.62239,-15.1849 20.83593,-18.53906c4.84896,-3.13542 9.88021,-4.70312 15.09375,-4.70312c5.24997,0 9.47912,1.47656 12.68745,4.42969c4.2292,3.9375 6.3438,9.09635 6.3438,15.47656c0,1.67708 -0.21877,3.90104 -0.6563,6.67188c-3.20833,20.3802 -4.8125,34.48958 -4.8125,42.32812c0,3.35417 0.8568,5.03125 2.5704,5.03125c1.09373,0 2.53383,-0.61979 4.3203,-1.85937c3.7552,-2.58854 7.54687,-6.83594 11.375,-12.74219l4.4843,12.52344c-2.33333,3.71875 -5.23177,7.01823 -8.6953,9.89844c-4.0104,3.35417 -8.29423,5.03125 -12.8515,5.03125c-4.33853,0 -7.71094,-1.51302 -10.11721,-4.53907c-2.04167,-2.58854 -3.0625,-6.90885 -3.0625,-12.96093c0,-4.59375 0.60156,-11.50261 1.80469,-20.72656c1.53121,-11.59375 2.55205,-20.19792 3.06252,-25.8125c0.07287,-0.91146 0.1093,-1.67708 0.1093,-2.29687c0,-3.20833 -0.67446,-5.66927 -2.02338,-7.38281c-1.27605,-1.64062 -3.04428,-2.46094 -5.30469,-2.46094c-7.61979,0 -19.34115,10.15365 -35.16406,30.46094v51.625h-12.08594v-37.84375c-6.08854,8.53125 -11.70312,16.58854 -16.84375,24.17187l-5.6875,-12.96094c8.64063,-10.46354 16.15104,-20.43489 22.53125,-29.91406v-13.89062h-19.19531v-10.99219h19.19531zM444.832,141.0625c33.54167,-0.51042 65.2422,-1.36719 95.1016,-2.57031l0.6562,10.88281c-13.16147,0.65625 -23.40627,2.66146 -30.7344,6.01563c-7,3.20833 -12.61457,7.65625 -16.8437,13.34375c-4.81253,6.45312 -7.2188,13.63541 -7.2188,21.54687c0,7.875 2.7344,13.78125 8.2032,17.71875c6.2708,4.48437 15.8958,7.5651 28.875,9.24219l-2.5703,12.30468c-16.91673,-2.26041 -28.8204,-6.63541 -35.711,-13.125c-7.401,-6.92708 -11.1015,-15.53124 -11.1015,-25.81249c0,-9.33333 3.35413,-18.04687 10.0624,-26.14063c4.88547,-5.94271 11.5756,-10.71875 20.0704,-14.32812c-15.05733,0.51042 -34.4714,1.36719 -58.2422,2.57031zM605.7773,199.19531c-6.7448,19.83333 -14.3099,29.75 -22.6953,29.75c-5.97913,0 -11.10153,-4.19271 -15.3672,-12.57812c-3.28127,-6.48959 -5.54167,-13.63542 -6.7812,-21.4375c-1.4948,-9.47917 -2.2422,-21.65625 -2.2422,-36.53125c0,-6.45312 0.23697,-13.38021 0.7109,-20.78125l12.8516,0.98438c-0.474,7.40104 -0.711,14.4375 -0.711,21.10938c0,23.40625 2.1875,39.72135 6.5625,48.94531c1.78647,3.79167 3.46357,5.6875 5.0313,5.6875c1.0208,0 2.29683,-1.16667 3.8281,-3.5c3.1354,-4.73959 6.16143,-11.26563 9.0781,-19.57812zM640.3945,212.21094c-1.8594,-15.38542 -4.13803,-27.81771 -6.8359,-37.29688c-3.28127,-11.48437 -7.09117,-22.0026 -11.4297,-31.55468l11.6484,-2.84375c6.01567,11.92187 10.48183,23.40625 13.3985,34.45313c2.4062,8.96875 4.39317,20.38021 5.9609,34.23437zM712.3086,130.34375h12.0859v13.78125h34.3984v10.39063h-34.3984v13.01563h32.4844v10.28125h-32.4844v16.89844c12.9792,4.375 25.77607,10.95573 38.3906,19.74218l-6.4531,10.39063c-9.55207,-7.14583 -20.1979,-13.45313 -31.9375,-18.92188c-0.29167,6.23438 -1.4948,11.06511 -3.6094,14.49219c-3.68227,5.94271 -10.93747,8.91406 -21.7656,8.91406c-8.34893,0 -15.05727,-1.56771 -20.125,-4.70312c-5.65107,-3.5 -8.4766,-8.23958 -8.4766,-14.21875c0,-7.14583 3.8099,-12.43229 11.4297,-15.85937c5.1042,-2.26042 11.73963,-3.39063 19.9063,-3.39063c3.20833,0 6.72657,0.25521 10.5547,0.76563v-14.10938h-38.7735v-10.28125h38.7735v-13.01562h-41.125v-10.39062h41.125zM712.3086,202.09375c-4.33853,-0.91146 -8.4948,-1.36719 -12.4688,-1.36719c-4.84893,0 -8.78643,0.71094 -11.8125,2.13281c-3.60933,1.71355 -5.414,4.15626 -5.414,7.32813c0,2.66146 1.40363,4.8125 4.2109,6.45312c2.84373,1.67709 6.6354,2.51563 11.375,2.51563c5.6146,0 9.47917,-1.49479 11.5937,-4.48438c1.67713,-2.33333 2.5157,-5.8151 2.5157,-10.44531zM842.2461,131.32813h12.1953v24.00781h20.125v10.99219h-20.125v20.50781c0,4.26563 -0.71093,7.27344 -2.1328,9.02344c-1.75,2.1875 -4.90367,3.28125 -9.461,3.28125c-6.05207,0 -11.90363,-1.00261 -17.5547,-3.00782v-10.55468c5.94273,1.64062 10.51827,2.46093 13.7266,2.46093c2.15107,0 3.2266,-1.29427 3.2266,-3.88281v-17.82812h-37.1328v42.43749c0,2.36979 0.41927,4.01042 1.2578,4.92188c0.91147,1.05729 2.89843,1.75 5.9609,2.07812c4.7396,0.54688 11.39323,0.82032 19.9609,0.82032c10.06253,0 20.1615,-0.4375 30.2969,-1.3125v11.53906c-10.901,0.65625 -21.6562,0.98437 -32.2656,0.98437c-15.78647,0 -25.77607,-0.91146 -29.9688,-2.73437c-5.0312,-2.15104 -7.5468,-6.79948 -7.5468,-13.94531v-44.78906h-19.6875v-10.99219h19.6875v-22.96875h12.3047v22.96875h37.1328zM881.0195,223.96875c14.07293,-32.59374 29.22137,-64.09374 45.4453,-94.5l10.6641,4.26563c-7.32813,13.45312 -15.987,29.84115 -25.9766,49.16406c6.89067,-7.47396 13.25267,-11.21094 19.086,-11.21094c9.18747,0 13.7812,6.92708 13.7812,20.78125c0,1.02083 -0.03647,2.27865 -0.1094,3.77344c-0.1458,3.17187 -0.2187,5.66927 -0.2187,7.49218c0,4.26563 0.2552,7.29167 0.7656,9.07813c1.1302,3.86458 3.95573,5.79687 8.4766,5.79687c4.375,0 7.92967,-2.13281 10.664,-6.39843c4.08333,-6.34375 7.4375,-17.99219 10.0625,-34.94531l10.7188,6.28906c-2.07813,13.38021 -4.72137,23.58854 -7.9297,30.625c-4.95833,10.9375 -12.97917,16.40625 -24.0625,16.40625c-7.65627,0 -13.14323,-2.36979 -16.4609,-7.10938c-2.625,-3.75521 -3.9375,-10.02604 -3.9375,-18.8125c0,-0.76563 0.03643,-1.93229 0.1093,-3.5c0.14587,-3.0625 0.2188,-5.23177 0.2188,-6.50781c0,-4.01041 -0.3646,-6.90885 -1.0938,-8.69531c-0.83853,-1.96875 -2.27863,-2.95313 -4.3203,-2.95313c-3.46353,0 -7.36457,2.11458 -11.7031,6.34375c-3.71873,3.64583 -7.3828,8.98698 -10.9922,16.02344c-2.625,5.10417 -6.6172,13.76302 -11.9766,25.97656z" fill="#ffffff" stroke-width="1"/><path d="M-588.07807,252.07209v-144.14414h1656.15616v144.14414z" fill="none" stroke-width="0"/></g></g></svg>