<svg xmlns="http://www.w3.org/2000/svg" id="svg1" version="1.1" height="200" width="1096">
  <defs id="defs1"></defs>
  <rect id="rect1" stroke="none" fill="none" height="200" width="1096" y="0" x="0"></rect>
  <path aria-label="網走地方" style="font-weight:bold;font-size:110px;font-family:'BIZ UDPGothic';fill:#ff0000" id="text1" d="M 14.716797,95.483398 Q 9.2382813,86.352539 1.5576172,77.382812 l 5.961914,-7.788085 q 1.9873047,2.255859 2.8466798,3.276367 4.672852,-8.00293 8.271484,-17.670899 l 9.291992,4.619141 q -4.780273,9.506836 -12.246093,20.03418 2.631836,3.652343 4.780273,7.304687 l 0.375977,-0.59082 q 5.961914,-8.969727 11.49414,-18.745117 l 8.056641,5.639648 q -9.829102,15.629883 -21.484375,29.648436 9.023437,-0.75195 11.923828,-1.07422 0.751953,-0.10742 1.181641,-0.16113 -0.966797,-3.491211 -2.524414,-7.304688 l 7.358398,-3.115234 q 4.243164,9.130862 5.961914,20.947262 l -7.949219,3.59864 q -0.375976,-3.65235 -0.913086,-6.17676 -2.041015,0.37598 -6.767578,1.18164 v 49.46777 H 17.080078 v -48.07129 q -0.698242,0.10743 -1.665039,0.21485 -3.598633,0.4834 -11.5478515,1.18164 l -2.0947266,-9.66797 q 2.0947266,-0.10742 3.9746094,-0.21484 l 2.631836,-0.16114 q 3.1689457,-3.813474 6.3378907,-8.271482 z m 57.255859,22.182622 v 9.3457 q 0,3.00781 1.181641,3.54492 1.074219,0.4834 5.693359,0.4834 4.780274,0 11.386719,-0.69824 v 9.23828 q -6.445313,0.69824 -12.192383,0.69824 -10.849609,0 -13.266601,-1.87988 -2.25586,-1.77246 -2.25586,-6.98242 v -13.75 h -6.176758 v -8.8086 H 68.803711 V 98.222656 H 56.342773 v -8.701172 h 19.711914 q 4.350586,-9.560547 6.713868,-18.36914 l 9.345703,3.383789 q -2.84668,7.734375 -6.821289,14.985351 h 6.928711 v 8.701172 H 78.793945 V 108.85742 H 92.22168 v 8.8086 z M 105.27344,60.141602 v 89.321288 q 0,5.42481 -2.57813,7.62695 -2.20215,1.9336 -7.57324,1.9336 -5.74707,0 -11.386718,-0.75196 l -1.879883,-10.15136 q 6.069336,0.91308 10.795898,0.91308 2.041016,0 2.363281,-0.96679 0.268555,-0.64454 0.268555,-2.57813 V 70.131836 H 53.012695 V 160.47363 H 43.129883 V 60.141602 Z M 1.4501953,147.36816 Q 4.296875,134.63867 4.9951172,118.95508 l 8.8623048,1.02051 q -0.644531,19.60449 -3.168945,31.58203 z m 31.4746097,-3.33007 q -1.71875,-14.87793 -3.97461,-23.84766 l 7.788086,-2.30957 q 2.954102,9.45312 4.995117,22.12891 z M 62.036133,89.306641 Q 59.672852,81.25 56.12793,74.96582 l 8.110351,-3.168945 q 3.867188,6.069336 6.28418,14.072266 z M 170.69336,103.11035 v 13.2666 h 38.08105 v 10.09766 h -38.08105 v 18.36914 q 8.43262,1.50391 19.92676,1.50391 h 27.82226 q -2.68554,5.37109 -3.97461,11.333 H 190.5127 q -21.80665,0 -34.42872,-5.20996 -11.65527,-4.78027 -20.24902,-16.7041 -5.85449,14.28711 -15.62988,24.86817 l -8.21778,-9.7754 q 15.14649,-16.38183 18.90625,-42.43164 l 12.19239,1.87989 q -1.77246,8.59375 -3.33008,14.12597 7.14355,12.13868 18.95996,16.97266 v -38.2959 H 113.59863 V 92.905273 H 158.6084 V 79.262695 H 122.40723 V 69.379883 H 158.6084 V 55.952148 h 11.97754 v 13.427735 h 37.06054 v 9.882812 h -37.06054 v 13.642578 h 45.86914 v 10.205077 z m 105.5957,-3.652342 v 42.539062 q 0,4.13574 3.54492,4.99512 3.65235,0.91308 16.70411,0.91308 12.72949,0 16.81152,-1.28906 2.30957,-0.75195 3.00781,-4.18945 0.91309,-4.83399 0.9668,-11.44043 l 11.22558,3.16894 Q 327.69043,150 324.19922,154.4043 q -2.30957,2.90039 -6.98242,3.4375 -7.3584,0.80566 -24.97559,0.80566 -13.64258,0 -17.88574,-0.75195 -6.3916,-1.07422 -8.11035,-5.63965 -0.85938,-2.41699 -0.85938,-6.44531 v -42.59278 l -10.25879,3.54493 -2.52441,-10.419927 12.7832,-4.404296 V 62.988281 h 10.90332 v 25.19043 l 11.54785,-3.920899 V 55.952148 h 10.7959 v 24.545899 l 17.99317,-6.176758 5.63964,3.4375 v 40.229491 q 0,4.18945 -1.9873,6.23047 -2.25586,2.25586 -7.57324,2.25586 -4.35059,0 -9.23828,-0.75195 l -1.77246,-10.25879 q 3.16894,0.80566 6.44531,0.80566 2.36328,0 2.90039,-0.9668 0.53711,-0.80566 0.53711,-2.68554 V 87.211914 l -12.94434,4.511719 v 43.452147 h -10.7959 V 95.429687 Z M 236.81152,81.894531 V 55.952148 h 11.54785 v 25.942383 h 10.41993 v 10.903321 h -10.41993 v 34.160158 q 5.63965,-1.9336 11.17188,-4.02832 l 1.02051,10.36621 q -17.40235,7.94922 -35.71778,13.32031 l -3.75976,-11.44043 q 8.27148,-2.14844 14.50195,-4.08203 0.75195,-0.26855 1.23535,-0.37598 V 92.797852 H 223.16895 V 81.894531 Z m 145.3418,3.007813 q -0.37598,8.969726 -1.07422,15.791016 h 43.29102 q -0.80567,37.27539 -4.18946,48.39355 -1.71875,5.58594 -6.3916,7.73438 -3.65234,1.66504 -10.68847,1.66504 -7.41211,0 -16.81153,-1.12793 l -2.09472,-12.08496 q 12.62207,1.77246 17.77832,1.77246 4.35058,0 5.53222,-2.4707 2.84668,-6.01563 3.97461,-33.19336 h -31.95801 q -1.77246,9.66796 -4.99511,16.75781 -8.96973,19.60449 -29.97071,31.09863 l -8.48632,-9.45312 q 21.05468,-10.95704 27.82226,-28.73536 4.51172,-11.87011 5.85449,-36.147456 H 334.18945 V 73.891602 h 43.88184 V 55.952148 h 12.40723 v 17.939454 h 45.33203 v 11.010742 z"></path>
</svg>
