<svg xmlns="http://www.w3.org/2000/svg" id="svg1" version="1.1" height="200" width="1096">
  <defs id="defs1"></defs>
  <rect id="rect1" stroke="none" fill="none" height="200" width="1096" y="0" x="0"></rect>
  <path aria-label="フィリピン付近" style="font-weight:bold;font-size:110px;font-family:'BIZ UDPGothic';fill:#ff0000" id="text1" d="M 5.6933594,68.574219 H 90.825195 q -0.751953,28.359375 -6.606445,44.418941 -6.875,18.69141 -23.740234,29.4336 -12.622071,8.05664 -34.643555,13.2666 l -6.176758,-10.90332 q 22.290039,-4.18945 34.213867,-12.19238 13.105469,-8.75489 18.798828,-24.22364 4.189454,-11.440426 4.619141,-28.574215 H 5.6933594 Z M 145.07324,156.3916 v -44.74121 q -12.35351,8.05664 -30.34668,14.93164 l -5.96191,-9.99023 q 20.35644,-6.875 34.80469,-17.133792 14.82421,-10.473633 25.94238,-23.47168 l 9.3457,5.854492 q -11.11816,12.729492 -22.45117,21.43066 v 53.12012 z m 59.51172,-95.927733 h 12.51465 v 58.759763 h -12.51465 z m 55.16113,-1.12793 h 12.51465 v 38.403321 q 0,20.249022 -3.27637,30.131832 -2.73925,8.43262 -7.46582,13.42774 -9.8291,10.58105 -31.58203,15.62988 l -6.17675,-11.01074 q 23.79394,-4.83399 30.50781,-16.05957 4.24316,-7.14356 5.10254,-18.04688 0.37597,-5.04882 0.37597,-13.96484 z m 39.85352,2.202149 h 12.51465 v 34.321289 q 27.66113,-7.573242 47.42676,-19.013672 l 7.03613,10.205078 Q 341.22559,99.726562 312.11426,107.2998 v 24.86817 q 0,4.67285 4.08203,5.58594 4.94141,1.12793 22.29004,1.12793 17.99316,0 38.56445,-1.87989 v 12.13867 q -18.69141,1.34278 -38.99414,1.34278 -21.21582,0 -27.39258,-1.12793 -7.3584,-1.34277 -9.66797,-6.60645 -1.39648,-3.22265 -1.39648,-8.16406 z m 78.47168,-5.263672 q 3.59863,0 6.875,1.987305 3.22266,1.879883 4.99512,5.263672 1.61132,3.007812 1.61132,6.284179 0,5.263672 -3.75976,9.291992 -3.97461,4.243165 -9.8291,4.243165 -2.90039,0 -5.58594,-1.235352 -3.33008,-1.557617 -5.42481,-4.56543 -2.4707,-3.544922 -2.4707,-7.788086 0,-3.276367 1.66504,-6.33789 1.66504,-3.061524 4.45801,-4.941407 3.38379,-2.202148 7.46582,-2.202148 z m -0.0537,6.606445 q -1.98731,0 -3.75977,1.12793 -3.16894,1.987305 -3.16894,5.854492 0,2.739258 1.87988,4.726563 2.04102,2.148437 5.04883,2.148437 1.71875,0 3.16894,-0.751953 3.75977,-1.933594 3.75977,-6.123047 0,-2.954101 -2.09473,-4.995117 -1.93359,-1.987305 -4.83398,-1.987305 z M 438.5498,88.178711 Q 421.57715,80.605469 403.26172,76.040039 l 3.75976,-11.547852 q 21.21582,4.833985 35.61036,12.03125 z m -33.94531,53.442379 q 26.58692,-2.25586 40.71289,-9.50683 16.65039,-8.59375 25.56641,-26.37207 5.80078,-11.494143 9.39941,-30.078128 l 10.3125,7.573243 q -4.35058,19.873045 -10.52734,31.582035 -11.17188,21.32324 -34.16016,30.88378 -14.50195,6.01563 -38.77929,8.59375 z M 526.04492,85.976562 V 160.47363 H 514.38965 V 105.3125 q -4.35059,6.12305 -10.09766,12.67578 l -6.06933,-11.54785 q 10.90332,-12.084961 18.6914,-28.144532 4.72656,-9.721679 9.45313,-23.203125 l 11.22558,3.061524 q -4.88769,14.716797 -11.54785,27.822265 z M 587.22168,81.25 h 16.16699 v 10.795898 h -16.16699 v 56.396482 q 0,7.08985 -3.4375,9.45313 -2.52441,1.77246 -9.50684,1.77246 -8.54004,0 -17.50976,-0.9668 l -2.30957,-11.76269 q 9.56054,1.39648 17.83203,1.39648 2.25586,0 2.73926,-0.9668 0.32226,-0.69824 0.32226,-2.30957 V 92.045898 H 531.41602 V 81.25 h 43.93554 V 57.832031 h 11.87012 z m -33.99902,52.0459 q -6.06934,-16.16699 -14.98536,-29.48731 l 10.25879,-5.96191 q 9.66797,14.2334 15.52246,29.16504 z m 83.25195,2.73926 q 4.29687,4.99511 9.66797,7.41211 8.80859,3.9746 23.0957,3.9746 H 715 q -1.93359,3.65235 -3.59863,10.47364 h -42.7002 q -18.47656,0 -28.30566,-5.80078 -4.02832,-2.417 -8.86231,-7.89551 -0.37597,0.42969 -0.91308,1.07422 -7.89551,9.3457 -15.6836,15.2539 L 608.4375,149.5166 q 8.54004,-5.10254 16.48926,-11.54785 v -26.5332 h -15.62989 v -10.58106 h 27.17774 z m 13.96484,-71.274418 2.84668,-0.214844 q 24.86817,-1.71875 44.6875,-7.358398 l 8.37891,9.453125 q -20.83984,5.478516 -44.47266,7.412109 v 13.911133 h 49.73633 V 98.4375 h -18.04687 v 43.77441 H 681.69922 V 98.4375 h -19.81934 q -0.26855,17.24121 -2.57812,27.44629 -2.09473,9.39941 -6.875,16.86523 l -9.88281,-7.46582 q 5.31738,-8.27148 6.82128,-20.51757 1.07422,-8.43262 1.07422,-22.934575 z M 630.56641,85.761719 Q 622.34863,74.160156 612.8418,64.975586 l 8.80859,-7.036133 q 9.23828,7.734375 18.58398,19.658203 z"></path>
</svg>
