<svg xmlns="http://www.w3.org/2000/svg" id="svg1" version="1.1" height="200" width="990">
  <defs id="defs1"></defs>
  <rect id="rect1" stroke="none" fill="none" height="200" width="990" y="0" x="0"></rect>
  <path aria-label="秋田県沿岸北部" style="font-size:100px;font-family:'BIZ UDPGothic';fill:#ff0000" id="text1" d="M 21.972656,111.76758 Q 15.771484,127.83203 6.4941406,139.59961 L 2.2949219,132.8125 Q 14.550781,118.01758 20.703125,100.09766 H 2.9785156 V 93.212891 H 21.972656 V 77.294922 Q 15.234375,78.759766 7.8613281,79.833984 L 4.7851562,73.828125 Q 24.511719,70.800781 39.208984,65.136719 l 4.6875,5.859375 q -6.201172,2.294922 -14.404297,4.492187 v 17.72461 h 14.990235 v 6.884769 H 29.492187 v 8.15429 q 9.082032,6.05469 16.40625,12.93946 l -4.6875,6.68945 q -5.419921,-6.29883 -11.71875,-12.10938 v 43.75 H 21.972656 Z M 72.412109,64.501953 v 29.296875 q 0,16.552732 8.300782,33.007812 7.519531,14.94141 17.724609,24.41406 l -5.224609,7.95899 Q 75.341797,140.03906 69.433594,114.16016 67.822266,125.39063 64.0625,133.93555 56.884766,150.3418 43.994141,159.7168 l -5.615235,-6.39649 q 13.81836,-9.32617 20.605469,-25.97656 5.712891,-14.01367 5.712891,-33.056641 V 64.501953 Z m 5.566407,44.921877 Q 85.107422,94.873047 88.574219,81.689453 l 7.617187,3.125 Q 90.576172,101.61133 84.375,112.20703 Z m -33.789063,1.46484 q 4.199219,-10.20508 5.908203,-26.367186 l 7.177735,1.074219 Q 55.566406,103.41797 50.976562,114.20898 Z M 190.625,72.509766 v 83.886714 h -7.8125 v -7.61718 h -65.57617 v 7.51953 h -7.8125 V 72.509766 Z m -73.38867,6.982421 V 105.9082 h 28.56445 V 79.492187 Z m 0,33.300783 v 28.80859 h 28.56445 v -28.80859 z m 65.57617,28.80859 v -28.80859 h -29.29688 v 28.80859 z m 0,-35.69336 V 79.492187 H 153.51562 V 105.9082 Z M 282.86133,67.578125 V 114.4043 H 225.78125 V 67.578125 Z m -49.36524,6.005859 v 7.714844 h 41.55274 v -7.714844 z m 0,13.330078 v 7.763672 h 41.55274 v -7.763672 z m 0,13.476568 v 8.30078 h 41.55274 v -8.30078 z M 214.4043,122.2168 h 83.05664 v 6.49414 h -41.99219 v 30.81054 h -7.91016 V 128.71094 H 206.5918 V 74.267578 h 7.8125 z m -9.22852,29.6875 q 12.79297,-6.15235 23.0957,-19.28711 l 6.5918,3.66211 q -10.40039,13.62304 -24.07226,21.72851 z m 84.17969,4.10156 q -10.25391,-11.18164 -23.29102,-19.82422 l 6.00586,-4.49219 q 11.76758,7.37305 23.68164,18.79883 z m 98.92578,-42.62695 v 46.09375 h -8.00781 v -6.39649 h -35.0586 v 6.39649 h -7.91015 v -46.09375 z m -43.06641,6.88476 v 25.83008 h 35.0586 V 120.26367 Z M 322.70508,86.376953 q -7.56836,-8.642578 -15.625,-14.990234 l 5.22461,-5.566407 q 8.74023,6.396485 15.67383,14.501954 z m -4.6875,26.025387 q -8.00781,-8.78906 -16.01563,-14.892574 l 5.17578,-5.810547 q 9.375,6.835937 16.40625,14.599611 z m -14.20899,39.99024 q 9.52149,-12.15821 18.11524,-31.98242 l 6.05469,5.27343 q -7.71485,19.23828 -17.57813,32.91016 z m 24.80469,-47.2168 q 10.00977,-10.009764 15.52734,-23.388671 2.83204,-6.884765 4.88282,-15.966797 l 7.4707,2.09961 q -5.27344,25.927734 -22.31445,43.457028 z m 62.5,5.41992 Q 374.02344,92.041016 365.38086,67.675781 l 7.12891,-2.880859 q 5.76171,14.84375 13.13476,25.488281 4.88281,7.080078 11.37695,13.720707 z m 63.33008,-29.296872 h 25.63476 V 68.896484 h 7.61719 v 18.798828 h -73.0957 V 68.896484 h 7.61719 v 12.402344 h 24.60937 V 64.501953 h 7.61719 z m -35.54688,20.898442 v 12.5 q 0,15.82031 -2.05078,24.90234 -2.29492,10.00976 -8.74023,18.70117 l -6.10352,-5.41992 q 5.66407,-8.20313 7.42188,-16.65039 1.5625,-7.56836 1.5625,-21.72852 V 95.703125 h 84.0332 v 6.494145 z m 41.60157,15.2832 v 11.13281 h 36.18164 v 6.49414 h -36.18164 v 24.41406 h -7.91016 v -24.41406 h -31.49414 v -6.49414 h 31.49414 v -11.13281 h -26.31836 v -6.20117 h 62.40234 v 6.20117 z m 70.11718,15.33203 q -11.42578,6.25 -25.09765,11.81641 l -3.51563,-7.71485 q 17.33399,-6.15234 28.61328,-11.96289 V 98.535156 h -25.63476 v -7.421875 h 25.63476 V 65.527344 h 8.00782 v 93.212886 h -8.00782 z M 562.01172,97.949219 Q 575,91.845703 587.30469,81.591797 l 6.20117,6.103515 Q 578.36914,98.779297 562.01172,105.9082 v 38.1836 q 0,3.07617 2.24609,3.71093 1.80664,0.53711 10.35156,0.53711 8.05665,0 10.35157,-1.12304 1.66015,-0.83008 2.24609,-4.29688 0.68359,-4.44336 1.07422,-14.84375 l 7.91016,2.73438 q -0.58594,16.01562 -2.2461,19.9707 -1.61133,3.90625 -7.03125,4.88281 -4.63867,0.83008 -13.52539,0.83008 -12.10937,0 -15.42969,-1.5625 -3.95507,-1.85547 -3.95507,-7.91016 V 65.478516 h 8.00781 z m 71.97265,-21.337891 h 21.82618 v 6.787109 h -7.03125 q -2.05078,9.13086 -5.61524,18.701173 h 14.45313 v 6.88477 h -55.12696 v -6.88477 h 13.72071 l -0.0977,-0.48828 Q 614.0625,91.601562 611.71875,84.423828 l -0.3418,-1.025391 h -7.08008 v -6.787109 h 22.2168 V 64.501953 h 7.4707 z m -15.13671,6.787109 q 2.58789,7.958985 4.73632,18.701173 h 12.15821 q 2.92968,-8.105469 5.32226,-18.701173 z m 31.83593,35.888673 v 39.30664 h -7.32422 v -5.51758 h -25.97656 v 6.39649 h -7.56836 v -40.18555 z m -33.30078,6.68945 v 20.3125 h 25.97656 v -20.3125 z m 65.42969,-22.70508 q 12.8418,13.57422 12.8418,29.44336 0,5.56641 -2.00196,8.39844 -2.4414,3.27149 -8.49609,3.27149 -5.81055,0 -10.69336,-0.6836 l -1.61133,-7.61719 q 6.25,1.02539 10.15625,1.02539 3.71094,0 4.39453,-2.49023 0.29297,-1.07422 0.29297,-3.51562 0,-13.72071 -12.64648,-26.70899 5.85937,-12.695311 9.52148,-26.708983 h -15.42969 v 81.787113 h -7.37304 V 70.507812 h 27.49023 l 4.39453,3.808594 q -5.37109,17.382813 -10.83984,28.955074 z"></path>
</svg>
