<svg xmlns="http://www.w3.org/2000/svg" id="svg1" version="1.1" height="200" width="990">
  <defs id="defs1"></defs>
  <rect id="rect1" stroke="none" fill="none" height="200" width="990" y="0" x="0"></rect>
  <path aria-label="カムチャツカ半島付近" style="font-size:100px;font-family:'BIZ UDPGothic';fill:#ff0000" id="text1" d="M 7.9589844,87.695312 H 38.28125 q 0.488281,-7.861328 0.683594,-19.824218 h 8.007812 q -0.04883,8.935547 -0.585937,19.824218 h 35.595703 q -0.195313,33.447268 -2.636719,51.318358 -1.025391,7.32422 -3.271484,10.10742 -2.929688,3.66211 -11.669922,3.66211 -5.175781,0 -12.304688,-0.92773 l -1.513672,-7.86133 q 7.226563,1.07422 13.867188,1.07422 3.710937,0 4.785156,-1.26953 1.074219,-1.31836 1.904297,-7.76367 2.197266,-17.43164 2.636719,-41.259769 H 45.800781 Q 43.652344,116.65039 37.109375,128.56445 32.080078,137.69531 22.753906,145.6543 18.017578,149.70703 12.5,152.88086 L 7.0800781,146.67969 Q 19.677734,139.59961 27.685547,128.27148 35.400391,117.38281 37.792969,94.775391 H 7.9589844 Z M 97.705078,139.89258 q 3.173832,-0.0977 8.105472,-0.48828 13.86718,-30.12696 25.39062,-68.31055 l 8.00781,2.392578 q -11.66992,37.158202 -24.80468,65.332032 26.36718,-2.05078 49.21875,-5.12695 -7.95899,-14.20899 -14.69727,-23.48633 l 6.68945,-4.10156 q 13.52539,17.91992 24.90235,41.01562 l -7.8125,4.19922 -0.14649,-0.29297 q -2.19726,-4.6875 -4.78515,-9.81445 l -0.58594,-1.12305 q -23.82813,4.10156 -67.578125,8.39844 z M 227.97852,103.61328 V 82.519531 Q 212.93945,84.326172 200,84.912109 L 197.55859,78.125 q 37.06055,-1.708984 57.61719,-8.398438 l 4.6875,6.591797 q -9.17969,2.636719 -23.97461,5.078125 v 22.216796 h 37.79297 v 7.17774 h -37.89062 q -0.6836,16.94336 -7.17774,26.80664 -7.17773,11.03515 -21.43555,17.48046 l -5.07812,-6.59179 q 9.22851,-3.71094 15.82031,-10.59571 5.27344,-5.46875 7.66602,-12.84179 1.80664,-5.56641 2.29492,-14.25781 h -39.50195 v -7.17774 z m 81.7871,-19.628905 2.97852,16.992185 37.20703,-5.859373 4.93164,3.90625 q -5.32226,21.435543 -19.14062,33.789063 l -5.76172,-4.83398 q 7.08008,-5.71289 11.62109,-13.72071 3.17383,-5.66406 4.44336,-11.37695 l -32.08008,5.12695 8.00782,45.70313 -7.42188,1.26953 -8.20312,-45.80078 -20.60547,3.32031 -0.87891,-7.08008 20.3125,-3.22265 -3.02734,-16.796879 z m 69.4336,26.416015 q -4.44336,-18.261718 -9.91211,-30.419921 l 7.32422,-3.466797 q 6.34765,13.769531 10.35156,30.810548 z m 26.46484,-5.12695 Q 401.51367,87.988281 396.19141,75 l 7.51953,-3.125 q 5.12695,11.425781 9.57031,30.41992 z m -15.96679,41.11328 q 28.07617,-8.30078 38.52539,-28.71094 7.95898,-15.38086 10.98632,-44.677733 l 7.95899,2.197265 q -2.7832,23.242188 -7.4707,36.669918 -5.51758,15.67383 -16.60157,25.6836 -11.08398,10.00976 -28.90625,15.625 z m 73.24218,-58.691408 h 30.32227 q 0.48828,-7.861328 0.68359,-19.824218 h 8.00781 q -0.0488,8.935547 -0.58593,19.824218 h 35.5957 q -0.19531,33.447268 -2.63672,51.318358 -1.02539,7.32422 -3.27148,10.10742 -2.92969,3.66211 -11.66992,3.66211 -5.17579,0 -12.30469,-0.92773 l -1.51367,-7.86133 q 7.22656,1.07422 13.86718,1.07422 3.71094,0 4.78516,-1.26953 1.07422,-1.31836 1.9043,-7.76367 2.19726,-17.43164 2.63672,-41.259769 h -27.97852 q -2.14844,21.874999 -8.69141,33.789059 -5.02929,9.13086 -14.35547,17.08985 -4.73632,4.05273 -10.2539,7.22656 l -5.41992,-6.20117 q 12.59765,-7.08008 20.60547,-18.40821 7.71484,-10.88867 10.10742,-33.496089 H 462.93945 Z M 594.67773,99.902344 V 64.501953 h 7.91016 v 35.400391 h 37.98828 v 7.080076 h -37.98828 v 15.625 h 43.89648 v 7.17774 h -43.89648 v 29.6875 h -7.91016 v -29.6875 h -43.21289 v -7.17774 h 43.21289 v -15.625 H 557.37305 V 99.902344 Z M 573.82812,96.191406 Q 567.72461,82.763672 560.64453,73.095703 l 7.32422,-3.710937 q 8.10547,11.71875 13.47656,22.90039 z m 41.84571,-3.173828 q 7.66601,-11.474609 12.79297,-24.707031 l 8.10547,3.076172 q -5.81055,13.134765 -13.81836,24.902343 z m 101.31836,56.201172 h -53.8086 v 5.71289 h -7.71484 v -23.0957 h 7.71484 v 11.18164 h 19.0918 v -14.69727 h -19.0918 V 73.291016 h 23.97461 q 3.36914,-4.931641 5.41992,-9.179688 l 8.69141,2.001953 q -2.39258,3.515625 -5.46875,7.177735 h 35.25391 v 30.517574 h -59.96094 v 6.00586 h 75.3418 v 6.10352 h -75.3418 v 6.29883 h 70.94727 q -0.73243,23.87695 -3.32032,30.71289 -1.5625,4.19922 -5.51758,5.66406 -2.58789,0.92773 -6.83593,0.92773 -6.15235,0 -11.76758,-0.8789 l -1.61133,-7.22656 q 6.73828,1.02539 12.10938,1.02539 4.24804,0 5.37109,-1.95313 2.24609,-3.90625 3.36914,-22.16797 h -43.94531 v 14.69727 h 19.58008 v -11.18164 h 7.51953 z M 671.09375,79.296875 v 6.298828 h 52.09961 v -6.298828 z m 0,12.011719 v 6.689453 h 52.09961 v -6.689453 z m 103.36914,-1.123047 v 69.335933 h -7.71484 v -55.37109 q -0.19532,0.29297 -0.48828,0.73242 -4.39454,7.17774 -10.88868,14.69727 l -4.10156,-7.37305 q 9.76563,-11.32812 16.35742,-25.195311 4.73633,-9.91211 8.83789,-22.900391 l 7.61719,2.099609 q -4.49219,13.427735 -9.61914,23.97461 z m 55.22461,-2.001953 h 16.60156 v 7.177734 H 829.6875 v 54.541012 q 0,5.17578 -2.49023,7.17774 -2.09961,1.61133 -7.76368,1.61133 -7.91015,0 -14.74609,-0.6836 L 803.07617,150 q 8.44727,1.2207 15.625,1.2207 2.14844,0 2.68555,-0.78125 0.39062,-0.63476 0.39062,-2.4414 V 95.361328 h -42.72461 v -7.177734 h 42.72461 V 65.283203 h 7.91016 z m -28.41797,45.410156 q -5.71289,-14.30664 -13.81836,-26.07422 l 6.49414,-4.19922 q 8.39844,12.35352 14.20899,25.87891 z m 74.21875,4.73633 q 4.29688,4.44336 9.81445,7.22656 8.59375,4.3457 23.58399,4.3457 h 38.3789 q -1.41601,2.88086 -2.49023,6.88477 h -36.08398 q -16.35743,0 -25.63477,-4.58984 -5.56641,-2.78321 -10.74219,-8.20313 -8.34961,9.57031 -16.25976,15.47852 l -4.58985,-7.08008 q 7.95899,-4.98047 16.40625,-12.5 v -25.6836 h -16.21093 v -6.7871 h 23.82812 z m 14.45313,-64.11133 q 1.70898,-0.146484 3.71093,-0.292969 21.92383,-1.80664 39.99024,-7.617187 l 5.61523,6.103515 q -17.91992,5.371094 -41.60156,7.763672 v 14.941406 h 47.41211 v 6.884763 h -17.91992 v 43.40821 h -7.8125 v -43.40821 h -21.67969 q 0,13.52539 -1.17188,22.07032 -1.5625,11.4746 -6.83593,20.21484 l -6.49414,-5.17578 q 4.78515,-8.30078 6.00586,-19.33594 0.78125,-7.27539 0.78125,-20.654296 z M 871.58203,88.916016 Q 864.0625,78.955078 856.05469,71.777344 l 5.51758,-4.6875 q 8.20312,6.689453 15.96679,16.308593 z"></path>
</svg>
