<svg xmlns="http://www.w3.org/2000/svg" id="svg1" version="1.1" height="200" width="1096">
  <defs id="defs1"></defs>
  <rect id="rect1" stroke="none" fill="none" height="200" width="1096" y="0" x="0"></rect>
  <path aria-label="壱岐・対馬近海" style="font-weight:bold;font-size:110px;font-family:'BIZ UDPGothic';fill:#ff0000" id="text1" d="m 48.662109,64.868164 v -8.916016 h 11.977539 v 8.916016 h 45.761722 v 9.560547 H 60.639648 v 8.486328 h 38.618164 v 8.701172 H 11.923828 V 82.915039 H 48.662109 V 74.428711 H 3.6523438 v -9.560547 z m 56.289061,34.96582 V 122.92969 H 92.758789 V 108.64258 H 17.080078 v 14.28711 H 5.1025391 V 99.833984 Z M 34.213867,126.58203 q 28.144531,-4.4043 46.40625,-10.47363 l 7.734375,8.80859 q -23.310547,7.14356 -54.140625,10.84961 v 8.70117 q 0,2.52442 1.71875,3.00782 3.115235,0.85937 22.612305,0.85937 20.302734,0 24.223633,-1.07422 2.792968,-0.80566 3.383789,-4.02832 0.805664,-3.97461 1.074218,-10.63476 l 11.762696,3.54492 q -0.05371,10.04394 -1.879883,14.93164 -2.148438,5.69336 -10.849609,6.76758 -9.345704,1.12793 -30.078125,1.12793 -24.223633,0 -29.003907,-2.04102 -5.263672,-2.20215 -5.263672,-9.02344 v -33.46191 h 12.299805 z m 160.434573,7.68067 q 10.90332,9.23828 24.38476,14.71679 l -6.3916,10.7959 q -13.80371,-6.66016 -25.35156,-17.77832 -12.19238,11.81641 -29.32617,19.06738 l -7.03614,-9.56054 q 15.79102,-4.83399 29.21875,-17.13379 -11.22558,-13.42774 -16.59668,-27.55371 h -5.04882 V 96.450195 h 21.10839 V 81.948242 h -24.49218 v 59.887698 h -30.50781 v 9.3457 h -9.7754 V 77.866211 h 9.23829 v 53.657229 h 5.96191 V 57.509766 h 9.77539 v 74.013674 h 6.17676 V 77.866211 h 7.68066 v -6.499024 h 25.94238 V 55.952148 h 11.33301 v 15.415039 h 26.42578 v 10.581055 h -26.42578 v 14.501953 h 17.08008 l 5.15625,5.317385 q -8.75488,20.83984 -18.53027,32.49512 z m -7.57324,-7.3584 q 8.64746,-11.38672 11.92382,-20.08789 h -24.38476 q 4.83398,11.54785 12.46094,20.08789 z m 60.53222,-30.830081 q 4.18945,0 7.57324,2.792968 4.45801,3.652343 4.45801,9.345703 0,3.49121 -1.9873,6.49902 -3.59864,5.58594 -10.20508,5.58594 -2.90039,0 -5.53223,-1.39648 -2.09472,-1.07422 -3.54492,-2.84668 -2.9541,-3.49121 -2.9541,-7.94922 0,-6.23047 5.20996,-9.882814 3.11523,-2.148437 6.98242,-2.148437 z m 62.30469,-20.786133 h 21.53809 v 6.069336 h 27.07031 V 55.952148 h 11.44043 v 25.405274 h 12.89062 v 10.90332 H 369.96094 V 148.5498 q 0,5.42481 -1.61133,7.94922 -1.98731,3.06153 -8.3252,3.06153 -8.80859,0 -17.34863,-0.9668 l -2.52441,-11.65527 q 8.96972,1.18164 15.36133,1.18164 2.14843,0 2.63183,-0.80567 0.37598,-0.69824 0.37598,-2.68554 V 92.260742 h -28.4668 v -6.28418 h -6.55273 q -1.71875,18.852538 -7.94922,35.288088 3.16894,4.13574 4.72656,6.17676 5.15625,6.66015 9.07715,12.08496 l -8.43262,8.70117 q -4.78027,-6.92871 -9.29199,-13.05176 l -1.55762,-2.09473 q -9.77539,17.1875 -23.74023,26.69434 l -7.78809,-8.70117 q 14.7168,-10.09766 23.84766,-28.09082 -3.22266,-4.18945 -4.83399,-6.28418 -8.05664,-10.58106 -14.71679,-17.939454 l 8.16406,-7.143555 q 6.92871,7.519531 16.27441,19.121089 3.75977,-11.977534 5.10254,-24.760738 H 278.86719 V 75.288086 h 19.49707 V 55.952148 h 11.54785 z m 31.9043,57.309574 q -5.31739,-16.22071 -12.35352,-28.78907 l 9.56055,-5.424801 q 8.11035,13.427731 12.7832,28.627931 z m 141.958,-71.918949 v 9.453125 h -35.61035 v 8.056641 h 30.56153 v 8.59375 h -30.56153 v 7.895507 h 30.56153 v 8.593746 h -30.56153 v 8.43262 h 41.89453 q -0.96679,31.58203 -3.4375,40.17578 -1.39648,4.83399 -4.9414,6.82129 -3.00782,1.66504 -9.88282,1.66504 -10.47363,0 -16.91894,-0.80566 l -2.20215,-10.52735 q 10.90332,1.18164 16.2207,1.18164 4.35059,0 5.47852,-1.55761 2.09473,-3.06153 3.49121,-27.71485 H 398.53516 V 60.678711 Z m -73.58398,9.453125 v 8.056641 h 26.74805 v -8.056641 z m 0,16.650391 v 7.895507 h 26.74805 v -7.895507 z m 0,16.489253 v 8.43262 h 26.74805 v -8.43262 z m -23.20313,47.48047 q 7.03614,-10.95703 10.36622,-25.29785 l 10.8496,3.33008 q -3.86718,17.88574 -11.22558,29.00391 z m 30.56153,4.08203 q -0.37598,-13.32031 -2.63184,-25.29785 l 10.90332,-1.9873 q 3.16895,11.49414 4.18946,24.76074 z m 22.66601,-4.40429 q -2.52441,-13.37403 -6.49902,-22.5586 l 9.8291,-2.9541 q 4.72656,9.72168 7.68067,21.43067 z m 21.00098,-6.01563 q -3.65234,-10.74219 -8.8623,-18.36914 l 8.75488,-3.65234 q 5.9082,7.46582 10.04394,17.24121 z m 64.13086,-8.3789 q 4.29687,4.99511 9.66797,7.41211 8.80859,3.9746 23.0957,3.9746 h 45.76172 q -1.93359,3.65235 -3.59863,10.47364 h -42.7002 q -18.47656,0 -28.30566,-5.80078 -4.02832,-2.417 -8.86231,-7.89551 -0.37597,0.42969 -0.91308,1.07422 -7.89551,9.3457 -15.6836,15.2539 l -6.49902,-11.01074 q 8.54004,-5.10254 16.48926,-11.54785 v -26.5332 h -15.62988 v -10.58106 h 27.17773 z m 13.96484,-71.274418 2.84668,-0.214844 q 24.86817,-1.71875 44.6875,-7.358398 l 8.37891,9.453125 q -20.83984,5.478516 -44.47266,7.412109 v 13.911133 h 49.73633 V 98.4375 h -18.04687 v 43.77441 H 570.57129 V 98.4375 h -19.81934 q -0.26855,17.24121 -2.57812,27.44629 -2.09473,9.39941 -6.875,16.86523 l -9.88281,-7.46582 q 5.31738,-8.27148 6.82128,-20.51757 1.07422,-8.43262 1.07422,-22.934575 z M 519.43848,85.761719 Q 511.2207,74.160156 501.71387,64.975586 l 8.80859,-7.036133 q 9.23828,7.734375 18.58399,19.658203 z M 702.7002,85.117187 q 0,2.524415 -0.4834,23.955083 h 10.25879 v 9.66796 h -10.47364 q -0.16113,7.03614 -0.69824,15.95215 h 9.07715 v 9.45313 h -9.77539 q -0.64453,7.78808 -1.77246,10.3125 -2.52442,6.01562 -12.2461,6.01562 -6.23046,0 -11.49414,-0.91308 L 673.10547,150 q 7.57324,1.07422 11.60156,1.07422 3.27637,0 3.9209,-2.30957 0.32227,-1.12793 0.59082,-4.61914 h -38.24219 q -0.0537,0.42969 -0.16113,0.91308 -0.4834,2.84668 -0.91309,5.3711 l -11.11816,-1.07422 q 3.27637,-19.38965 4.4043,-29.32617 l 0.16113,-1.28907 h -10.74219 v -9.66796 h 11.87012 q 1.50391,-12.998051 2.57812,-23.955083 z m -33.94532,9.345704 h -11.76269 q -0.16114,2.739257 -0.9668,11.547849 l -0.32227,3.06153 h 11.92383 l 0.16114,-1.50391 q 0.10742,-1.55762 0.32226,-4.35059 0.53711,-7.519528 0.64453,-8.754879 z m 10.58106,0 q -0.26856,6.391599 -0.80567,14.125979 v 0.4834 h 12.62207 q 0.21485,-7.3584 0.37598,-14.609379 z m -12.56836,24.277339 h -12.08496 q -0.80567,6.55274 -1.71875,12.94434 l -0.42969,3.00781 h 12.56836 q 1.28906,-11.65527 1.66504,-15.95215 z m 11.01074,0 q -0.16113,2.14844 -0.64453,7.08985 l -0.85938,8.8623 h 13.69629 q 0.26856,-5.20996 0.42969,-7.84179 0.32227,-5.74707 0.42969,-8.11036 z M 656.72363,65.727539 h 51.88477 v 9.990234 h -56.34278 q -4.35058,8.862305 -11.06445,16.865235 l -7.68066,-8.378906 Q 644.10156,71.796875 648.55957,55.629883 L 660,56.811523 q -1.93359,5.585938 -3.27637,8.916016 z m -29.59472,15.629883 q -6.60645,-9.077149 -16.05957,-17.026367 l 8.11035,-7.841797 q 8.75488,6.445312 16.65039,16.274414 z M 623.26172,109.7168 Q 615.09766,99.243164 606.77246,92.15332 l 8.37891,-8.05664 q 9.3457,7.358398 16.81152,16.75781 z m -14.60938,42.16308 q 9.34571,-12.94433 17.72461,-34.10644 l 9.56055,6.82129 q -6.98242,19.55078 -17.93945,35.8789 z"></path>
</svg>
