<svg xmlns="http://www.w3.org/2000/svg" id="svg1" version="1.1" height="200" width="1096">
  <defs id="defs1"></defs>
  <rect id="rect1" stroke="none" fill="none" height="200" width="1096" y="0" x="0"></rect>
  <path aria-label="深さ" style="font-weight:bold;font-size:110px;font-family:'BIZ UDPGothic';fill:#ff0000" id="text1" d="m 73.852539,128.46191 v 32.01172 h -11.44043 v -31.68945 q -6.606445,10.41992 -15.039062,17.29492 -5.69336,4.67285 -13.803711,8.8086 l -7.46582,-9.50684 q 10.3125,-4.02832 17.77832,-9.99024 7.519531,-6.06933 13.535156,-15.41503 H 31.850586 v -9.88282 H 62.412109 V 99.833984 h 11.44043 v 10.258786 h 31.796871 v 9.88282 H 79.0625 q 11.44043,14.23339 29.75586,21.91406 l -7.89551,10.52734 Q 83.198242,141.94336 73.852539,128.46191 Z m 7.573242,-58.007808 v 17.402343 q 0,2.309571 0.751953,3.007813 0.644532,0.59082 3.491211,0.59082 4.082032,0 4.780274,-0.537109 1.665039,-1.289063 1.879883,-8.486328 l 10.419918,2.846679 q -0.37597,10.043946 -3.330075,12.836914 -2.90039,2.792966 -14.179687,2.792966 -7.465821,0 -10.688477,-1.503903 -4.02832,-1.826172 -4.02832,-6.499024 V 70.454102 H 43.828125 V 84.526367 H 32.924805 V 60.893555 H 104.30664 V 80.014648 H 93.295898 V 70.454102 Z M 21.914062,81.357422 Q 14.87793,71.850586 5.7470703,64.116211 l 7.8955077,-7.626953 q 9.130859,6.713867 16.972656,16.381836 z M 17.724609,108.96484 Q 9.9902344,99.082031 1.2353516,91.723633 L 9.3994141,83.666992 Q 18.530273,90.380859 26.425781,100.37109 Z M 3.5449219,152.09473 Q 12.62207,138.12988 19.926758,116.1084 l 9.667969,6.28418 q -5.585938,19.92676 -16.166993,37.97363 z M 31.796875,95.214844 q 7.46582,-2.202149 11.923828,-5.532227 8.056641,-5.961914 10.097656,-17.993164 l 10.205078,2.739258 q -2.631835,9.614258 -6.230468,15.146484 -6.015625,9.13086 -19.389649,14.233395 z M 116.49902,77.167969 h 43.12989 Q 156.1377,67.983398 153.2373,58.90625 L 165,58.154297 q 2.79297,9.560547 6.71387,19.013672 h 39.69238 V 88.178711 H 176.7627 q 6.92871,14.340819 17.34863,29.916989 l -11.2793,5.3711 Q 171.33789,106.06445 163.97949,88.178711 h -47.48047 z m 78.09571,79.223631 q -10.68848,0.59082 -18.90625,0.59082 -22.34375,0 -32.92481,-3.49121 -19.12109,-6.23047 -19.12109,-23.52539 0,-10.63477 6.60644,-17.13379 l 10.09766,5.47852 q -4.4043,4.35058 -4.4043,11.38672 0,8.96972 9.66797,12.56835 8.54004,3.16895 28.57422,3.16895 8.48633,0 19.12109,-0.80566 z"></path>
</svg>
