<svg xmlns="http://www.w3.org/2000/svg" id="svg1" version="1.1" height="200" width="1096">
  <defs id="defs1"></defs>
  <rect id="rect1" stroke="none" fill="none" height="200" width="1096" y="0" x="0"></rect>
  <path aria-label="0未満" style="font-weight:bold;font-size:110px;font-family:'BIZ UDPGothic';fill:#ff0000" id="text1" d="m 41.894531,61.430664 q 16.918946,0 26.210938,14.663086 7.788086,12.246094 7.788086,32.28027 0,18.31543 -6.606446,30.18555 -9.18457,16.59668 -27.553711,16.59668 -16.489257,0 -25.727539,-13.75 -8.3251949,-12.35352 -8.3251949,-33.03223 0,-21.484372 8.9160159,-33.99902 9.238281,-12.944336 25.297851,-12.944336 z m -0.161133,11.547852 q -8.701171,0 -13.75,9.560546 -4.887695,9.345704 -4.887695,25.834958 0,15.41504 4.458008,24.59961 5.102539,10.41992 14.287109,10.41992 8.056641,0 13.051758,-8.3789 5.585938,-9.39942 5.585938,-26.64063 0,-16.381833 -4.833985,-25.727536 -5.048828,-9.667968 -13.911133,-9.667968 z M 150.71289,110.95215 q 15.36133,18.04687 40.92773,29.91699 l -7.62695,10.47363 q -25.0293,-13.58886 -39.85351,-34.42871 v 43.55957 h -11.97754 v -42.00195 q -12.94434,20.19531 -39.047854,34.64355 l -7.250977,-9.3457 q 16.650391,-8.05664 28.789061,-19.98047 5.80078,-5.63965 11.22559,-12.83691 H 86.958008 V 100.37109 H 132.18262 V 83.022461 H 96.894531 V 72.226562 H 132.18262 V 55.952148 h 11.97754 v 16.274414 h 36.09375 v 10.795899 h -36.09375 v 17.348629 h 46.03027 v 10.58106 z M 282.25098,86.621094 h 19.33593 v 9.238281 h -34.96582 v 8.593755 h 29.917 v 46.1914 q 0,5.42481 -2.90039,7.46582 -2.25586,1.61133 -7.78809,1.61133 -7.30469,0 -13.64258,-0.80566 l -1.39648,-9.99024 Q 278.16895,150 283.27148,150 q 1.82618,0 2.20215,-0.75195 0.26856,-0.53711 0.26856,-1.77246 v -34.42871 h -19.76563 v 20.89355 h 5.58594 v -15.7373 h 8.59375 v 24.97558 h -28.03711 v 6.71387 h -9.02344 v -31.68945 h 8.59375 v 15.7373 h 5.3711 v -20.89355 h -19.1211 v 47.42675 h -10.68847 v -56.0205 h 29.16504 v -8.593755 h -36.3086 v -9.238281 h 20.89356 V 76.416016 h -14.98536 v -9.13086 h 14.98536 V 55.952148 h 10.79589 v 11.333008 h 19.55079 V 55.952148 h 10.90332 v 11.333008 h 14.93164 v 9.13086 h -14.93164 z m -10.90332,0 V 76.416016 h -19.55079 v 10.205078 z m -56.28907,-5.585938 q -7.03613,-9.560547 -15.7373,-16.811523 l 8.11035,-7.519531 q 8.3252,6.069335 16.27441,16.05957 z M 211.51367,108.75 Q 203.45703,98.544922 195.4541,91.616211 l 8.48633,-7.949219 q 8.80859,6.928711 16.16699,16.596678 z m -14.7168,43.12988 q 9.45313,-14.28711 18.58399,-37.43652 l 8.80859,6.49902 q -7.30468,21.00098 -17.72461,39.63867 z"></path>
</svg>
