<svg xmlns="http://www.w3.org/2000/svg" id="svg1" version="1.1" height="200" width="1096">
  <defs id="defs1"></defs>
  <rect id="rect1" stroke="none" fill="none" height="200" width="1096" y="0" x="0"></rect>
  <path aria-label="秋田県沖" style="font-weight:bold;font-size:110px;font-family:'BIZ UDPGothic';fill:#ff0000" id="text1" d="M 22.773437,112.83203 Q 16.381836,129.16016 7.5732422,140.43945 L 1.6650391,130.39551 Q 13.803711,116.16211 21.054687,96.074219 H 2.7392578 V 85.869141 H 22.773437 V 71.313477 Q 15.629883,72.602539 7.8955078,73.461914 L 3.8671875,64.223633 Q 25.351562,61.75293 42.592773,55.629883 l 6.713868,9.130859 q -6.176758,1.987305 -15.307618,4.243164 V 85.869141 H 48.178711 V 96.074219 H 33.999023 v 8.701171 q 9.291993,5.85449 17.133789,13.21289 L 44.6875,128.08594 q -4.458008,-5.69336 -10.688477,-12.08496 v 44.47265 H 22.773437 Z M 81.318359,55.952148 v 33.461914 q 0,13.374028 3.706055,23.417968 3.759766,10.04395 11.010742,20.73242 6.069334,8.91602 13.105474,15.36133 l -8.00293,11.06445 Q 88.676758,147.15332 80.942383,129.91211 78.47168,124.4873 76.860352,118.47168 q -1.503907,8.27148 -6.069336,17.08008 -8.540039,16.38183 -22.021485,25.45898 l -7.788086,-9.45312 q 13.535157,-8.86231 21.16211,-22.88086 7.412109,-13.69629 7.412109,-37.329104 V 55.952148 Z m 3.598633,48.930662 Q 92.8125,88.125 96.464844,73.78418 l 11.118166,4.833984 q -6.28418,18.798828 -13.212893,30.561526 z m -37.382812,1.4502 q 3.759765,-10.043948 5.74707,-29.379885 l 10.419922,1.557617 Q 62.197266,99.458008 57.631836,111.05957 Z M 210.6543,63.847656 v 93.725584 h -11.97754 v -7.68066 h -67.35352 v 7.57324 H 119.3457 V 63.847656 Z m -79.33106,10.795899 v 25.727535 h 27.5 V 74.643555 Z m 0,36.308595 v 27.82226 h 27.5 v -27.82226 z m 67.35352,27.82226 v -27.82226 h -28.19824 v 27.82226 z m 0,-38.40332 V 74.643555 H 170.47852 V 100.37109 Z M 312.16797,58.583984 V 110.62988 H 248.25195 V 58.583984 Z m -52.36817,8.486328 v 6.713868 h 40.7129 v -6.713868 z m 0,14.28711 v 6.713867 h 40.7129 v -6.713867 z m 0,14.287109 v 6.928709 h 40.7129 v -6.928709 z m -21.6455,22.128909 h 89.05273 v 9.3457 h -44.41894 v 33.35449 H 270.5957 V 127.11914 H 226.3916 V 66.855469 h 11.7627 z m -13.75,32.4414 q 12.7832,-5.9082 24.43847,-19.81933 l 9.88282,5.74707 q -11.49414,14.55566 -25.5127,22.88086 z m 92.59765,6.92871 q -8.21777,-10.09765 -24.70703,-21.21582 l 9.23828,-6.49902 q 12.94434,7.46582 25.40528,19.60449 z m 76.69922,-81.157222 v -20.03418 h 11.54785 v 20.03418 h 29.11133 v 48.608402 h -29.11133 v 35.8789 h -11.54785 v -35.8789 H 365.18066 V 75.986328 Z m -17.40234,10.688477 v 27.338865 h 17.40234 V 86.674805 Z m 46.62109,27.338865 V 86.674805 h -17.6709 v 27.338865 z m -68.75,-31.796873 q -6.55273,-9.13086 -17.34863,-17.456055 l 8.00293,-8.164062 q 10.74219,7.573242 18.1543,16.972656 z m -3.49121,27.607423 q -9.3457,-10.849611 -18.1543,-17.778322 l 8.27149,-8.271484 q 9.39941,6.606445 18.58398,17.080076 z m -16.7041,41.62598 q 10.3125,-14.66309 19.01367,-36.52344 l 9.56055,7.3584 q -7.3584,20.1416 -17.93946,37.91992 z"></path>
</svg>
