<svg xmlns="http://www.w3.org/2000/svg" id="svg1" version="1.1" height="200" width="990">
  <defs id="defs1"></defs>
  <rect id="rect1" stroke="none" fill="none" height="200" width="990" y="0" x="0"></rect>
  <path aria-label="滋賀県南部" style="font-size:100px;font-family:'BIZ UDPGothic';fill:#ff0000" id="text1" d="m 38.427734,131.68945 q -6.689453,-10.2539 -14.697265,-18.31054 l 4.199218,-5.76172 q 2.050782,2.09961 3.66211,3.90625 4.980469,-8.54492 9.521484,-20.410159 l 6.884766,2.88086 q -6.152344,13.720699 -12.109375,22.753909 2.34375,3.02734 6.054687,8.39843 5.517578,-10.5957 9.960938,-20.65429 l 6.201172,4.19922 q -9.570313,20.11718 -20.84961,37.74414 l -0.292968,0.48828 q 7.27539,-0.78125 12.011718,-1.41602 -1.513672,-5.66406 -3.271484,-9.81445 l 5.712891,-2.39258 q 4.101562,9.96094 7.080078,22.70508 l -6.884766,2.39258 q -0.585937,-3.8086 -1.367187,-7.03125 -9.960938,2.29492 -25.341797,4.15039 l -2.392578,-7.51953 q 4.101562,-0.19532 6.640625,-0.39063 4.101562,-6.39648 9.277343,-15.91797 z m 33.59375,0.29297 Q 65.673828,122.80273 57.03125,114.01367 l 4.199219,-6.10351 q 2.490234,2.68554 3.955078,4.39453 4.6875,-8.39844 9.228515,-21.289065 l 7.080079,2.685547 q -5.22461,12.744138 -11.914063,23.779298 2.734375,3.27148 6.103516,8.05664 6.054687,-11.18164 10.107422,-20.75195 l 6.738281,3.61328 q -9.619141,20.65429 -21.826172,37.74414 10.644531,-1.31836 16.210937,-2.2461 -1.660156,-5.27343 -3.90625,-10.00976 l 6.103516,-2.49024 q 4.931641,10.54688 8.203125,23.68164 l -6.787109,3.22266 q -1.074219,-5.22461 -2.001953,-8.44726 -10.888672,2.68554 -27.929688,4.83398 l -2.099609,-7.27539 q 2.099609,-0.19531 3.125,-0.29297 0.488281,-0.0488 0.830078,-0.0977 4.638672,-6.59179 9.570312,-15.03906 z M 66.845703,83.59375 q 4.199219,-8.007813 8.251953,-19.189453 l 7.8125,2.490234 q -4.248047,9.863281 -8.496094,16.699219 h 23.095704 v 6.689453 H 24.21875 V 83.59375 Z m -47.65625,2.490234 Q 11.621094,76.855469 4.8339844,71.191406 l 5.1757816,-5.371094 q 7.666015,6.103516 14.501953,14.355469 z M 16.210937,112.01172 Q 9.2285156,103.56445 1.6113281,97.216797 l 5.078125,-5.419922 Q 14.550781,97.802734 21.435547,106.00586 Z M 3.0273438,153.22266 Q 10.351563,141.06445 16.992187,120.11719 l 6.298829,4.6875 q -5.810547,20.21484 -13.6718754,33.6914 z M 44.824219,83.496094 44.189453,81.835937 Q 41.113281,73.730469 37.011719,67.675781 l 6.689453,-2.978515 q 4.785156,7.177734 8.105469,15.722656 z m 98.193361,-6.591797 h -13.23242 q -2.14844,8.105469 -8.88672,13.476562 -5.0293,4.003907 -13.81836,7.03125 l -4.19922,-5.71289 q 7.51953,-2.09961 11.76758,-5.175782 5.07812,-3.662109 7.17773,-9.61914 h -16.74804 v -6.00586 h 17.87109 l 0.63476,-6.396484 h 7.91016 l -0.63477,6.396484 h 19.82422 q -0.73242,14.208985 -2.39257,18.457032 -1.31836,3.466797 -4.44336,4.492187 -1.95313,0.634766 -5.41993,0.634766 -3.61328,0 -9.57031,-0.585938 l -1.07422,-6.103515 q 5.41992,0.927734 8.1543,0.927734 3.17383,0 4.29687,-0.927734 1.61133,-1.31836 2.78321,-10.888672 z m 48.77929,-6.982422 V 93.994141 H 156.34766 V 69.921875 Z m -28.02734,6.103516 v 11.96289 h 20.50781 v -11.96289 z m 21.28906,22.753906 V 142.1875 H 114.89258 V 98.779297 Z m -62.35351,5.615233 v 6.98242 h 54.54101 v -6.98242 z m 0,12.40235 v 6.88476 h 54.54101 v -6.88476 z m 0,12.40234 v 7.27539 h 54.54101 v -7.27539 z m -18.31055,23.87695 q 16.16211,-3.4668 29.39453,-10.49805 l 5.3711,4.93165 q -12.59766,7.56835 -29.78516,12.10937 z m 85.40039,6.34766 q -14.69726,-6.5918 -30.81055,-11.52344 l 4.29688,-5.22461 q 16.69922,4.15039 31.5918,10.40039 z M 282.86133,67.578125 V 114.4043 H 225.78125 V 67.578125 Z m -49.36524,6.005859 v 7.714844 h 41.55274 v -7.714844 z m 0,13.330078 v 7.763672 h 41.55274 v -7.763672 z m 0,13.476568 v 8.30078 h 41.55274 v -8.30078 z M 214.4043,122.2168 h 83.05664 v 6.49414 h -41.99219 v 30.81054 h -7.91016 V 128.71094 H 206.5918 V 74.267578 h 7.8125 z m -9.22852,29.6875 q 12.79297,-6.15235 23.0957,-19.28711 l 6.5918,3.66211 q -10.40039,13.62304 -24.07226,21.72851 z m 84.17969,4.10156 q -10.25391,-11.18164 -23.29102,-19.82422 l 6.00586,-4.49219 q 11.76758,7.37305 23.68164,18.79883 z m 64.16015,-62.011719 h 37.06055 v 57.324219 q 0,3.90625 -1.61133,5.66406 -1.90429,2.05078 -8.00781,2.05078 -5.76172,0 -11.18164,-0.63476 l -1.70898,-7.42188 q 8.88671,0.92774 12.06054,0.92774 1.85547,0 2.29492,-0.87891 0.24415,-0.53711 0.24415,-1.61133 V 100.39063 H 317.1875 v 59.13085 h -7.91016 V 93.994141 h 36.52344 V 83.007812 h -43.31055 v -6.689453 h 43.31055 V 64.501953 h 7.71484 v 11.816406 h 43.94532 v 6.689453 h -43.94532 z m -7.61718,27.783199 h -22.2168 v -6.20117 h 11.86523 q -2.14843,-5.32226 -5.37109,-10.49804 l 6.73828,-2.5879 q 4.05274,7.12891 6.20117,13.08594 H 356.25 q 3.32031,-6.05469 5.76172,-13.28125 l 7.42187,2.58789 q -2.39257,4.98047 -5.32226,9.96094 l -0.39063,0.73242 h 12.40235 v 6.20117 h -22.70508 v 9.13086 H 378.125 v 6.29883 h -24.70703 v 19.92188 h -7.51953 V 137.20703 H 321.875 v -6.29883 h 24.02344 z m 88.08593,-45.166012 h 21.82618 v 6.787109 h -7.03125 q -2.05078,9.13086 -5.61524,18.701173 h 14.45313 v 6.88477 h -55.12696 v -6.88477 h 13.72071 l -0.0977,-0.48828 Q 414.0625,91.601562 411.71875,84.423828 l -0.3418,-1.025391 h -7.08008 v -6.787109 h 22.2168 V 64.501953 h 7.4707 z m -15.13671,6.787109 q 2.58789,7.958985 4.73632,18.701173 h 12.15821 q 2.92968,-8.105469 5.32226,-18.701173 z m 31.83593,35.888673 v 39.30664 h -7.32422 v -5.51758 h -25.97656 v 6.39649 h -7.56836 v -40.18555 z m -33.30078,6.68945 v 20.3125 h 25.97656 v -20.3125 z m 65.42969,-22.70508 q 12.8418,13.57422 12.8418,29.44336 0,5.56641 -2.00196,8.39844 -2.4414,3.27149 -8.49609,3.27149 -5.81055,0 -10.69336,-0.6836 l -1.61133,-7.61719 q 6.25,1.02539 10.15625,1.02539 3.71094,0 4.39453,-2.49023 0.29297,-1.07422 0.29297,-3.51562 0,-13.72071 -12.64648,-26.70899 5.85937,-12.695311 9.52148,-26.708983 h -15.42969 v 81.787113 h -7.37304 V 70.507812 h 27.49023 l 4.39453,3.808594 q -5.37109,17.382813 -10.83984,28.955074 z"></path>
</svg>
