<svg xmlns="http://www.w3.org/2000/svg" id="svg1" version="1.1" height="200" width="1096">
  <defs id="defs1"></defs>
  <rect id="rect1" stroke="none" fill="none" height="200" width="1096" y="0" x="0"></rect>
  <path aria-label="三重県南部" style="font-weight:bold;font-size:110px;font-family:'BIZ UDPGothic';fill:#ff0000" id="text1" d="M 11.333008,65.834961 H 98.55957 v 11.44043 H 11.333008 Z m 6.069336,35.449219 h 75.195312 v 11.11816 H 17.402344 Z M 4.4042969,139.63379 H 105.5957 v 11.44043 H 4.4042969 Z M 158.82324,88.500977 V 82.592773 H 113.38379 V 73.78418 h 45.43945 v -5.371094 q -19.55078,0.859375 -30.83008,1.074219 l -4.51171,-8.59375 q 47.80273,-1.450196 73.15429,-5.371094 l 7.8418,8.486328 q -14.07227,2.094727 -30.23926,3.383789 l -3.75976,0.322266 v 6.069336 h 46.1914 v 8.808593 h -46.1914 v 5.908204 h 36.63085 v 37.060543 h -36.63085 v 6.60645 h 40.2832 v 8.59375 h -40.2832 v 7.25098 h 46.72851 v 8.80859 H 112.73926 v -8.80859 h 46.08398 v -7.25098 h -39.63867 v -8.59375 h 39.63867 v -6.60645 H 122.83691 V 88.500977 Z m 0,7.680664 h -24.5459 v 7.089839 h 24.5459 z m 11.65528,0 v 7.089839 h 25.083 v -7.089839 z m -11.65528,14.663089 h -24.5459 v 7.25097 h 24.5459 z m 11.65528,0 v 7.25097 h 25.083 v -7.25097 z M 312.16797,58.583984 V 110.62988 H 248.25195 V 58.583984 Z m -52.36817,8.486328 v 6.713868 h 40.7129 v -6.713868 z m 0,14.28711 v 6.713867 h 40.7129 v -6.713867 z m 0,14.287109 v 6.928709 h 40.7129 v -6.928709 z m -21.6455,22.128909 h 89.05273 v 9.3457 h -44.41894 v 33.35449 H 270.5957 V 127.11914 H 226.3916 V 66.855469 h 11.7627 z m -13.75,32.4414 q 12.7832,-5.9082 24.43847,-19.81933 l 9.88282,5.74707 q -11.49414,14.55566 -25.5127,22.88086 z m 92.59765,6.92871 q -8.21777,-10.09765 -24.70703,-21.21582 l 9.23828,-6.49902 q 12.94434,7.46582 25.40528,19.60449 z m 62.03614,-36.63085 h -22.23633 v -8.8086 h 10.74219 q -2.417,-5.47851 -5.47852,-10.20508 l 9.66797,-3.544918 q 4.18945,7.036128 6.76758,13.749998 h 12.62207 q 3.16894,-6.49902 5.58593,-13.964842 l 10.7959,3.383792 q -2.73926,5.9082 -5.80078,10.58105 h 11.54785 v 8.8086 h -22.98828 v 7.84179 h 24.49219 v 9.13086 h -24.49219 v 20.30274 h -11.22558 v -20.30274 h -23.57911 v -9.13086 h 23.57911 z m 11.54785,-33.085942 h 40.71289 v 62.788082 q 0,5.53223 -2.9541,7.78809 -2.47071,1.93359 -8.3252,1.93359 -7.57324,0 -14.60937,-0.80566 l -2.63184,-10.7959 q 9.39941,1.12793 14.07227,1.12793 1.93359,0 2.25586,-0.9668 0.21484,-0.59082 0.21484,-1.66504 V 96.772461 H 350.67871 V 160.47363 H 338.70117 V 87.426758 h 40.01465 v -9.72168 h -45.97656 v -9.990234 h 45.97656 V 55.952148 h 11.87012 v 11.762696 h 46.62109 v 9.990234 h -46.62109 z m 87.81738,-19.067383 h 22.98828 v 10.366211 h -7.57324 q -2.04102,8.217773 -5.47852,17.241211 h 14.34082 v 10.366213 h -59.9414 V 95.966797 h 13.15918 Q 453.75,85.654297 451.38672,78.725586 H 444.4043 V 68.359375 h 22.77343 V 55.952148 h 11.22559 z m -16.16699,10.366211 q 2.73926,8.00293 4.24316,17.241211 h 10.95703 l 0.53711,-1.503906 q 2.30957,-6.123047 4.29688,-13.911133 l 0.4834,-1.826172 z m 33.30078,36.630864 v 43.98925 h -11.01074 v -5.26367 H 461.1084 v 6.3916 h -11.33301 v -45.11718 z m -34.42871,9.88281 v 18.63769 h 23.41797 v -18.63769 z m 71.75781,-27.124026 q 6.3916,6.069336 10.15137,14.448246 3.70605,8.3789 3.70605,16.97265 0,7.94922 -2.9541,11.70899 -3.06152,3.9209 -10.09766,3.9209 -6.01562,0 -11.65527,-0.85938 l -2.63183,-11.44043 q 6.49902,1.18164 10.74218,1.18164 3.22266,0 4.02832,-1.5039 0.53711,-1.07422 0.53711,-4.29688 0,-13.2666 -7.94922,-22.88086 -2.09472,-2.52441 -5.26367,-5.424804 l 0.64453,-1.503906 q 5.58594,-12.62207 8.70118,-26.318359 h -13.75 V 160.47363 H 505.95703 V 61.000977 h 32.33399 l 5.96191,5.478515 q -5.42481,18.476563 -11.38672,31.635742 z"></path>
</svg>
