<svg xmlns="http://www.w3.org/2000/svg" id="svg1" version="1.1" height="200" width="990">
  <defs id="defs1"></defs>
  <rect id="rect1" stroke="none" fill="none" height="200" width="990" y="0" x="0"></rect>
  <path aria-label="伊勢湾" style="font-size:100px;font-family:'BIZ UDPGothic';fill:#ff0000" id="text1" d="m 88.427734,92.675781 h 9.179688 v 6.591797 H 88.427734 V 122.26563 H 63.330078 q -0.732422,11.62109 -4.492187,19.09179 -6.103516,12.06055 -18.701172,18.60352 l -5.615235,-5.71289 q 11.621094,-5.95703 16.748047,-15.52735 3.271485,-6.05468 4.296875,-16.45507 H 33.105469 v -6.68946 H 55.810547 V 99.267578 H 26.220703 V 92.675781 H 55.810547 V 77.001953 H 34.619141 v -6.787109 h 53.808593 z m -7.617187,0 V 77.001953 H 63.525391 v 15.673828 z m 0,6.591797 H 63.525391 V 115.57617 H 80.810547 Z M 22.607422,88.427734 V 159.52148 H 14.892578 V 104.6875 Q 10.9375,111.81641 5.5175781,119.0918 L 1.5136719,111.81641 Q 10.498047,99.804687 16.259766,84.619141 19.53125,76.074219 22.802734,64.013672 l 7.519532,1.904297 Q 26.513672,78.90625 22.607422,88.427734 Z m 116.699218,0.09766 v 3.808593 q 0,1.904297 0.78125,2.294922 0.63477,0.341797 2.24609,0.341797 0.6836,0 2.73438,-0.09766 0.29297,0 0.53711,0 1.75781,0 2.09961,-1.31836 0.34179,-1.171875 0.39062,-3.222656 l 6.00586,2.197266 q -0.14648,3.36914 -1.07422,5.126953 -1.02539,1.757812 -3.85742,2.197266 -2.14844,0.292964 -6.20117,0.292964 -6.93359,0 -8.78906,-1.171871 -1.9043,-1.171875 -1.9043,-4.394531 v -6.054687 h -8.25195 q -1.9043,6.201171 -6.78711,10.009765 -3.95508,3.027344 -11.03516,5.078124 l -3.61328,-5.126952 q 6.00586,-1.5625 9.22852,-3.710937 3.61328,-2.441407 5.07812,-6.25 h -13.52539 v -5.419922 h 22.02149 v -5.810547 h -17.08985 v -5.517578 h 17.08985 v -7.275391 h 7.27539 v 7.275391 h 16.40625 v 5.517578 h -16.40625 v 5.810547 h 20.21484 v 5.419922 z m 12.10938,45.068359 q -4.00391,11.81641 -16.40625,18.45703 -9.57032,5.12695 -25.43946,7.42188 l -3.66211,-6.29883 q 16.94336,-2.39258 26.02539,-7.71485 7.66602,-4.44336 11.08399,-11.86523 h -36.13281 v -6.29883 h 37.98828 l 1.12304,-6.88476 h 7.8125 l -1.02539,6.88476 h 38.08594 q -1.17187,17.04102 -3.71094,24.02344 -2.83203,7.56836 -13.13476,7.56836 -7.8125,0 -16.84571,-0.87891 l -1.51367,-7.03125 q 9.08203,1.41602 15.52735,1.41602 4.83398,0 6.59179,-1.80664 2.88086,-2.92969 4.29688,-16.99219 z m -26.61133,-29.98047 v -7.226561 h 7.37304 v 7.226561 h 14.99024 v 5.17578 h -14.99024 v 5.76172 l 4.58985,-0.58594 q 8.6914,-1.02539 13.91601,-1.85546 l 0.29297,5.37109 q -17.57812,3.36914 -44.87304,5.32226 l -1.9043,-6.00585 q 10.9375,-0.6836 18.79883,-1.36719 l 1.80664,-0.19531 v -6.44532 h -14.69727 v -5.17578 z m 41.40625,-27.636718 0.48828,-10.986328 h 7.08008 l -0.39063,10.986328 h 14.01367 q -0.24414,6.152344 -0.24414,11.47461 0,16.552738 1.51367,23.095708 0.53711,2.39257 1.12305,2.39257 0.53711,0 1.2207,-2.34375 1.07422,-3.51562 1.66016,-9.32617 l 5.51758,4.10156 q -2.29492,16.35743 -8.59375,16.35743 -4.63867,0 -7.03125,-7.86133 -2.49024,-8.10547 -2.49024,-23.535159 0,-0.976562 0,-3.808594 l 0.0488,-4.345703 h -7.32422 q -0.63476,10.351563 -2.19726,16.699219 4.39453,4.345707 7.95898,8.593747 l -4.29687,5.51758 q -3.02735,-3.80859 -6.00586,-7.03125 -3.51563,8.54492 -11.08399,15.03906 l -5.17578,-5.22461 q 6.68946,-5.41992 10.83985,-15.38085 -3.71094,-3.466802 -7.27539,-6.298833 l 3.61328,-5.22461 q 3.27148,2.636719 5.61523,4.638672 0.73242,-4.15039 1.26953,-11.328125 h -11.96289 v -6.201172 z m 98.87695,-2.392578 h 32.12891 v 6.298828 h -23.38868 v 19.189454 q 0,3.076174 -1.5625,4.492184 -1.5625,1.41602 -5.66406,1.41602 -5.02929,0 -8.49609,-0.48828 l -1.12305,-6.298831 q 4.39453,0.683594 7.4707,0.683594 1.61133,0 1.9043,-1.171875 0.14649,-0.537109 0.14649,-1.416016 v -16.40625 h -10.64454 q -0.43945,9.91211 -2.24609,14.794922 -2.63672,6.982426 -12.01172,11.914066 l -5.07812,-4.83399 q 8.49609,-4.052732 10.69336,-10.058591 1.46484,-4.003907 1.61132,-11.816407 h -21.82617 v -6.298828 h 30.32227 v -9.082031 h 7.76367 z m 24.60938,35.009766 v 18.79883 h -49.60938 q -0.53711,3.90625 -1.31836,7.32422 h 55.32227 q -0.97657,12.30468 -3.41797,18.01757 -1.66016,3.95508 -5.95703,5.56641 -3.32032,1.2207 -9.22852,1.2207 -7.91016,0 -15.86914,-0.78125 l -1.70898,-7.03125 q 10.69336,1.12305 17.48046,1.12305 4.19922,0 5.66407,-0.97656 2.58789,-1.70899 4.15039,-11.03516 h -47.94922 q -0.73242,2.68555 -1.66016,5.71289 l -7.71484,-1.80664 q 2.92969,-8.64258 5.32226,-23.24218 h 48.68165 v -6.98243 h -52.39258 v -5.9082 z M 219.18945,86.083984 q -6.29883,-8.349609 -13.96484,-15.08789 l 5.37109,-4.980469 q 7.37305,5.810547 14.20899,14.501953 z m -3.07617,25.439456 q -7.4707,-9.13086 -14.50195,-15.136721 l 5.32226,-5.273438 q 7.56836,6.103516 14.79493,14.501949 z m -12.30469,41.69922 q 8.4961,-12.74414 15.91797,-33.39844 l 6.00586,4.39453 q -6.39648,19.28711 -15.42969,34.66797 z m 87.89063,-50.14649 Q 284.86328,93.261719 276.9043,85.791016 l 5.32226,-3.90625 q 9.08203,7.666015 15.28321,16.699218 z m -69.28711,-4.589842 q 8.44726,-6.054687 13.62305,-15.478516 l 6.29882,2.587891 q -5.22461,10.546875 -14.50195,17.480467 z"></path>
</svg>
