<svg xmlns="http://www.w3.org/2000/svg" id="svg1" version="1.1" height="200" width="990">
  <defs id="defs1"></defs>
  <rect id="rect1" stroke="none" fill="none" height="200" width="990" y="0" x="0"></rect>
  <path aria-label="石川県能登地方" style="font-size:100px;font-family:'BIZ UDPGothic';fill:#ff0000" id="text1" d="m 30.712891,107.17773 h 57.324218 v 52.34375 h -8.203125 v -7.32421 H 29.736328 v 7.32421 H 21.630859 V 118.75 q -7.03125,7.8125 -15.3320309,14.35547 L 1.5136719,126.70898 Q 27.294922,107.22656 36.71875,77.880859 H 5.3222656 V 70.800781 H 95.3125 v 7.080078 h -50 Q 40.380859,92.822266 30.712891,107.17773 Z m -0.976563,6.88477 v 31.05469 H 79.833984 V 114.0625 Z M 115.9668,68.798828 h 8.30078 V 104.6875 q 0,21.82617 -3.56445,33.39844 -3.02735,9.86328 -11.13282,19.09179 l -6.49414,-5.76171 q 8.54492,-8.98438 11.08399,-22.02149 1.80664,-9.13086 1.80664,-23.97461 z m 31.39648,1.806641 h 8.10547 v 79.101561 h -8.10547 z m 32.91016,-3.808594 h 8.30078 v 91.406245 h -8.30078 z m 102.58789,0.78125 V 114.4043 H 225.78125 V 67.578125 Z m -49.36524,6.005859 v 7.714844 h 41.55274 v -7.714844 z m 0,13.330078 v 7.763672 h 41.55274 v -7.763672 z m 0,13.476568 v 8.30078 h 41.55274 v -8.30078 z M 214.4043,122.2168 h 83.05664 v 6.49414 h -41.99219 v 30.81054 h -7.91016 V 128.71094 H 206.5918 V 74.267578 h 7.8125 z m -9.22852,29.6875 q 12.79297,-6.15235 23.0957,-19.28711 l 6.5918,3.66211 q -10.40039,13.62304 -24.07226,21.72851 z m 84.17969,4.10156 q -10.25391,-11.18164 -23.29102,-19.82422 l 6.00586,-4.49219 q 11.76758,7.37305 23.68164,18.79883 z m 20.75195,-68.701173 q 6.78711,-11.669921 11.2793,-22.998046 l 7.8125,1.904296 q -4.63867,10.791016 -11.03516,20.751954 l 0.6836,-0.04883 q 8.74023,-0.537109 14.69726,-1.02539 l 5.51758,-0.439453 q -2.88086,-4.541016 -6.44531,-9.228516 l 6.00586,-3.417969 q 7.91015,9.521485 13.76953,20.410157 l -6.49414,4.003906 q -1.70899,-3.222656 -3.32032,-6.00586 -12.98828,1.806641 -38.3789,3.173829 l -2.19727,-6.78711 q 4.39453,-0.146484 8.10547,-0.292969 z m 35.74219,14.404293 v 49.41407 q 0,4.24804 -2.39258,6.05468 -1.9043,1.41602 -6.15234,1.41602 -5.51758,0 -10.59571,-0.68359 l -1.17187,-7.03125 q 6.39648,0.92773 10.30273,0.92773 1.9043,0 2.34375,-0.92773 0.3418,-0.63477 0.3418,-2.09961 v -11.96289 h -22.50977 v 22.70507 h -7.42187 v -57.8125 z m -29.83399,6.20118 v 8.39843 h 22.50977 v -8.39843 z m 0,14.30664 v 8.78906 h 22.50977 v -8.78906 z m 46.77735,-41.113284 q 11.71875,-3.90625 24.12109,-11.083985 l 5.46875,5.371094 q -14.45312,7.861328 -29.58984,12.304687 v 10.791016 q 0,2.880862 1.9043,3.417972 1.85546,0.53711 9.42382,0.53711 7.66602,0 10.49805,-0.78125 2.39258,-0.6836 3.02734,-3.320316 0.43946,-1.757813 0.73243,-7.861328 0.0488,-1.171875 0.0976,-2.197266 l 7.51953,2.441406 q -0.24414,8.056641 -1.26953,11.816404 -1.36719,4.88282 -7.08008,6.05469 -4.63867,0.92773 -13.86718,0.92773 -11.32813,0 -14.50196,-1.2207 -4.19922,-1.61133 -4.19922,-7.42187 V 64.990234 h 7.71485 z m 0,47.851564 Q 376.12305,124.41406 387.5,117.1875 l 5.37109,6.10352 q -15.03906,8.15429 -30.07812,12.54882 v 11.08399 q 0,2.7832 1.66015,3.41797 1.61133,0.63476 9.27735,0.63476 8.25195,0 11.03515,-0.63476 2.44141,-0.58594 3.02735,-3.41797 0.73242,-3.22266 1.02539,-11.03516 l 7.56836,2.49024 q -0.0488,13.18359 -3.41797,16.60156 -1.95313,2.00195 -6.15234,2.63672 -4.44336,0.68359 -12.01172,0.68359 -12.20703,0 -15.47852,-1.26953 -4.24805,-1.66016 -4.24805,-7.32422 V 113.7207 h 7.71485 z M 474.12109,87.255859 q 6.49414,-4.882812 13.1836,-12.548828 l 6.10351,4.394531 q -6.00586,6.152344 -13.57422,11.669922 6.78711,3.857422 18.26172,8.447266 l -4.19922,6.20117 Q 480.66406,99.755859 471.19141,93.359375 v 5.859375 h -41.60157 v -4.541016 q -10.30273,7.324216 -23.77929,13.134766 l -4.00391,-5.9082 Q 414.4043,97.363281 424.70703,90.429687 418.70117,85.205078 410.79102,79.980469 L 416.11328,75 q 6.88477,4.589844 14.20899,11.132812 6.88476,-5.664062 12.01171,-12.548828 h -23.53515 v -6.49414 h 34.71679 q 4.6875,6.347656 9.57032,11.279297 Q 469.43359,73.291016 475,66.796875 l 6.00586,4.394531 q -6.25,6.201172 -13.42774,11.230469 3.22266,2.636719 6.54297,4.833984 z m -42.1875,5.761719 h 38.76953 q -11.52343,-8.007812 -20.41015,-18.847656 -7.17774,10.449219 -18.35938,18.847656 z m -0.29297,56.884762 q -3.27148,-8.98437 -7.03125,-15.47851 h -8.00781 v -25.92774 h 66.60156 v 25.92774 h -8.78906 q -3.02734,8.00781 -7.27539,15.47851 h 29.44336 v 6.49414 h -93.16406 v -6.49414 z m 8.00782,0 h 19.38476 q 3.4668,-6.29882 6.68946,-15.47851 h -32.37305 l 0.39062,0.8789 q 3.02735,6.10352 5.90821,14.59961 z m -14.94141,-35.40039 v 13.91602 h 50.39063 v -13.91602 z m 124.51172,-11.27929 v 40.86914 q 0,4.05273 2.39258,4.98047 2.58789,0.97656 16.45508,0.97656 13.42773,0 17.38281,-0.92774 2.7832,-0.68359 3.56445,-3.22265 1.2207,-4.00391 1.26953,-12.40235 l 7.51953,2.78321 q -0.68359,13.23242 -3.51562,16.79687 -2.24609,2.92969 -7.27539,3.4668 -7.66602,0.78125 -20.75195,0.78125 -12.45118,0 -16.74805,-0.83008 -5.3711,-1.07422 -6.83594,-4.88281 -0.78125,-2.09961 -0.78125,-5.51758 v -40.38086 l -10.49805,3.56445 -1.90429,-6.98242 12.40234,-4.150389 v -26.5625 h 7.32422 v 24.072266 l 12.8418,-4.345703 V 64.501953 h 7.32422 v 24.365234 l 18.01757,-6.054687 4.39453,2.392578 v 35.986332 q 0,3.51562 -1.66015,5.32226 -1.95313,2.09961 -6.83594,2.09961 -3.95508,0 -7.71484,-0.53711 l -1.26953,-6.98242 q 3.71093,0.68359 6.93359,0.68359 2.44141,0 2.97852,-1.07421 0.39062,-0.73243 0.39062,-2.29493 V 91.113281 l -15.23437,5.175781 v 39.794918 h -7.32422 V 98.779297 Z M 516.50391,88.916016 V 65.136719 h 7.71484 v 23.779297 h 10.79102 v 7.177734 h -10.79102 v 34.96094 q 5.12695,-1.75782 11.71875,-4.44336 l 0.78125,6.88476 q -14.94141,6.88477 -32.03125,12.10938 l -2.7832,-7.61719 q 6.78711,-1.85547 14.59961,-4.3457 V 96.09375 h -13.28125 v -7.177734 z m 128.95507,0.04883 q 0,7.324218 -0.92773,17.041016 h 39.4043 q -0.6836,32.91016 -3.75977,43.60351 -1.26953,4.49219 -4.83398,6.34766 -3.02735,1.5625 -9.08203,1.5625 -8.39844,0 -15.33204,-0.92773 l -1.31836,-8.00782 q 10.15625,1.31836 16.3086,1.31836 4.05273,0 5.32226,-1.70898 1.07422,-1.46484 2.14844,-8.49609 1.5625,-9.96094 2.14844,-26.70899 h -31.93359 q -1.80665,11.37695 -5.76172,19.28711 -7.91016,15.91797 -26.02539,25.73242 l -5.61524,-6.29883 q 19.38477,-10.15625 25.58594,-26.36718 5.17578,-13.57422 5.56641,-36.376956 h -33.54493 v -7.177735 h 41.69922 V 64.501953 h 8.00781 v 17.285156 h 42.67579 v 7.177735 z"></path>
</svg>
