<svg xmlns="http://www.w3.org/2000/svg" id="svg1" version="1.1" height="200" width="990">
  <defs id="defs1"></defs>
  <rect id="rect1" stroke="none" fill="none" height="200" width="990" y="0" x="0"></rect>
  <path aria-label="奄美大島北西沖" style="font-size:100px;font-family:'BIZ UDPGothic';fill:#ff0000" id="text1" d="m 52.929687,138.28125 v 7.8125 q 0,3.27148 2.441407,4.10156 2.148437,0.78125 11.035156,0.78125 12.646484,0 16.210937,-0.78125 2.441407,-0.53711 2.929688,-3.22265 0.537109,-3.02735 0.732422,-8.59375 l 7.8125,2.83203 q -0.09766,10.88867 -3.417969,13.76953 -1.855469,1.5625 -5.712891,2.05078 -5.664062,0.68359 -17.041015,0.68359 -12.109375,0 -15.478516,-0.48828 -7.128906,-1.07422 -7.128906,-8.10547 v -10.83984 h -21.875 v 7.22656 h -7.617187 v -40.96679 q -0.244141,0.0977 -0.732422,0.34179 -2.88086,1.36719 -8.4960941,3.61328 l -4.6875,-6.20117 Q 15.136719,97.705078 23.388672,92.431641 30.175781,88.037109 35.205078,82.275391 H 5.6152344 V 75.683594 H 39.990234 q 2.978516,-5.078125 5.22461,-11.279297 l 8.105468,1.074219 q -2.832031,6.933593 -4.736328,10.205078 h 45.605469 v 6.591797 H 64.746094 q 11.669922,10.302734 33.251953,16.845703 l -4.296875,6.689456 q -6.591797,-2.39258 -10.69336,-4.24805 v 36.71875 z m 0,-38.476563 h 26.31836 Q 63.964844,92.236328 55.126953,82.275391 H 44.287109 Q 37.011719,92.285156 24.658203,99.804687 H 45.3125 v -9.814453 h 7.617187 z m 0,6.201173 v 9.7168 h 22.460938 v -9.7168 z m -7.617187,0 h -21.875 v 9.7168 h 21.875 z m 0,15.72266 h -21.875 v 10.35156 h 21.875 z m 7.617187,0 v 10.35156 h 22.460938 v -10.35156 z m 92.773433,-8.34961 h -42.82226 v -6.20118 h 42.82226 v -9.863277 h -33.83789 v -6.201172 h 33.83789 v -9.228515 h -39.01367 v -6.201172 h 23.09571 q -2.63672,-4.785157 -5.90821,-8.789063 l 8.00782,-2.392578 q 3.61328,4.833984 6.59179,11.181641 h 22.02149 q 3.66211,-5.46875 6.00586,-11.279297 L 175,66.503906 q -2.83203,5.078125 -5.71289,9.179688 h 24.02344 v 6.201172 h -39.69727 v 9.228515 h 34.47266 v 6.201172 h -34.47266 v 9.863277 h 43.45703 v 6.20118 h -43.45703 v 10.00976 h 42.28516 v 6.39649 h -39.50196 q 11.86524,15.625 40.82032,21.58203 l -4.83399,7.32422 q -15.23437,-3.61329 -27.68554,-11.81641 -9.08204,-5.9082 -14.30665,-14.30664 -5.12695,10.79101 -15.86914,17.38281 -10.15625,6.20117 -26.12304,9.32617 l -4.73633,-6.88476 q 31.44531,-4.6875 40.23437,-22.60742 h -39.89257 v -6.39649 h 41.69921 z M 255.0293,97.998047 q 4.49218,16.357423 16.65039,31.201173 11.13281,13.52539 25.73242,21.58203 l -5.07813,7.42187 q -16.94336,-10.15625 -28.17382,-25.39062 -8.05664,-10.88867 -13.23243,-25.19531 -8.30078,36.18164 -41.74804,51.07422 l -5.17578,-6.5918 q 19.72656,-8.10547 30.9082,-25.29297 8.78906,-13.57422 10.40039,-28.808593 h -40.42969 v -7.617188 h 40.72266 V 65.478516 h 8.10547 v 24.902343 h 41.40625 v 7.617188 z m 112.98828,51.220703 h -53.8086 v 5.71289 h -7.71484 v -23.0957 h 7.71484 v 11.18164 h 19.0918 v -14.69727 h -19.0918 V 73.291016 h 23.97461 q 3.36914,-4.931641 5.41993,-9.179688 l 8.6914,2.001953 q -2.39258,3.515625 -5.46875,7.177735 h 35.25391 v 30.517574 h -59.96094 v 6.00586 h 75.3418 v 6.10352 h -75.3418 v 6.29883 h 70.94727 q -0.73243,23.87695 -3.32032,30.71289 -1.5625,4.19922 -5.51757,5.66406 -2.5879,0.92773 -6.83594,0.92773 -6.15235,0 -11.76758,-0.8789 l -1.61133,-7.22656 q 6.73828,1.02539 12.10938,1.02539 4.24804,0 5.37109,-1.95313 2.24609,-3.90625 3.36914,-22.16797 h -43.94531 v 14.69727 h 19.58008 v -11.18164 h 7.51953 z M 322.11914,79.296875 v 6.298828 h 52.09961 v -6.298828 z m 0,12.011719 v 6.689453 h 52.09961 V 91.308594 Z M 430.61523,132.8125 q -11.42578,6.25 -25.09765,11.81641 l -3.51563,-7.71485 q 17.33399,-6.15234 28.61328,-11.96289 V 98.535156 h -25.63476 v -7.421875 h 25.63476 V 65.527344 h 8.00782 v 93.212886 h -8.00782 z M 462.01172,97.949219 Q 475,91.845703 487.30469,81.591797 l 6.20117,6.103515 Q 478.36914,98.779297 462.01172,105.9082 v 38.1836 q 0,3.07617 2.24609,3.71093 1.80664,0.53711 10.35156,0.53711 8.05665,0 10.35157,-1.12304 1.66015,-0.83008 2.24609,-4.29688 0.68359,-4.44336 1.07422,-14.84375 l 7.91016,2.73438 q -0.58594,16.01562 -2.2461,19.9707 -1.61133,3.90625 -7.03125,4.88281 -4.63867,0.83008 -13.52539,0.83008 -12.10937,0 -15.42969,-1.5625 -3.95507,-1.85547 -3.95507,-7.91016 V 65.478516 h 8.00781 z m 71.58203,-4.248047 V 77.197266 H 502.7832 V 70.3125 h 94.38477 v 6.884766 h -33.88672 v 16.503906 h 27.7832 V 157.8125 h -7.8125 V 150 h -66.65039 v 7.8125 h -7.71484 V 93.701172 Z m 7.51953,0 h 14.64844 V 77.197266 h -14.64844 z m -7.56836,6.591798 h -16.94336 v 42.91992 h 66.65039 v -17.23633 h -20.16601 q -7.32422,0 -7.32422,-6.59179 v -19.0918 h -14.69727 q -0.43945,10.5957 -3.125,16.89453 -3.80859,8.93555 -14.9414,15.52734 l -4.98047,-5.61523 q 10.40039,-5.41992 13.52539,-14.50195 1.51367,-4.44336 2.00195,-12.30469 z m 29.73633,0 v 16.50391 q 0,1.51367 0.58594,1.95312 0.53711,0.43945 1.80664,0.43945 h 17.57812 V 100.29297 Z M 658.69141,85.302734 V 64.501953 h 7.71484 v 20.800781 h 27.7832 v 40.478516 h -27.7832 v 33.69141 h -7.71484 v -33.69141 h -26.9043 V 85.302734 Z m -19.38477,6.982422 v 26.513674 h 19.38477 V 92.285156 Z m 47.26563,26.513674 V 92.285156 H 666.40625 V 118.79883 Z M 621.77734,86.621094 q -6.54297,-8.34961 -15.2832,-15.527344 l 5.32227,-5.273438 q 8.30078,6.201172 15.67382,14.990235 z m -3.66211,25.488286 q -7.66601,-8.8379 -15.91796,-15.527349 l 5.41992,-5.46875 q 8.39843,6.201172 16.16211,14.990239 z m -13.7207,40.57617 q 9.52149,-12.69532 17.48047,-32.86133 l 6.29883,5.07812 q -7.32422,19.14063 -17.08985,33.69141 z"></path>
</svg>
