<svg xmlns="http://www.w3.org/2000/svg" id="svg1" version="1.1" height="200" width="990">
  <defs id="defs1"></defs>
  <rect id="rect1" stroke="none" fill="none" height="200" width="990" y="0" x="0"></rect>
  <path aria-label="km" style="font-size:100px;font-family:'BIZ UDPGothic';fill:#ff0000" id="text1" d="M 9.8144531,66.992187 H 18.896484 V 119.28711 L 46.191406,93.505859 h 11.914063 l -23.535157,22.412111 25.830079,36.57226 h -11.71875 l -20.263672,-31.20117 -9.521485,8.69141 v 22.50976 H 9.8144531 Z M 79.589844,93.505859 v 10.205081 q 2.58789,-5.810549 8.154297,-8.984378 4.101562,-2.34375 8.300781,-2.34375 12.451168,0 16.308598,12.304688 2.19726,-4.833984 5.5664,-7.763672 5.27344,-4.541016 11.96289,-4.541016 9.47266,0 14.79492,7.617188 3.51563,5.07813 3.51563,15.18555 v 37.30468 h -8.88672 v -37.10937 q 0,-7.37305 -2.88086,-11.23047 -3.02734,-4.05273 -8.25195,-4.05273 -4.83399,0 -9.0332,4.44336 -3.75977,3.90625 -5.07813,9.57031 v 38.3789 h -8.78906 v -37.59765 q 0,-6.54297 -2.63672,-10.30274 -3.173829,-4.49218 -8.398439,-4.49218 -5.224609,0 -9.521484,5.27343 -3.271485,3.95508 -4.736328,9.91211 v 37.20703 H 70.996094 V 93.505859 Z"></path>
</svg>
