<svg xmlns="http://www.w3.org/2000/svg" id="svg1" version="1.1" height="200" width="990">
  <defs id="defs1"></defs>
  <rect id="rect1" stroke="none" fill="none" height="200" width="990" y="0" x="0"></rect>
  <path aria-label="津軽海峡" style="font-size:100px;font-family:'BIZ UDPGothic';fill:#ff0000" id="text1" d="m 63.623047,111.52344 v 8.49609 h 28.076172 v 6.20117 H 63.623047 v 8.59375 h 31.738281 v 6.49414 H 63.623047 v 18.21289 H 55.908203 V 141.30859 H 25.830078 v -6.49414 H 55.908203 V 126.2207 H 30.419922 v -6.20117 h 25.488281 v -8.49609 H 33.59375 v -6.00586 H 55.908203 V 96.191406 H 24.414062 V 89.990234 H 55.908203 V 80.810547 H 33.789062 V 74.707031 H 55.908203 V 64.501953 h 7.714844 v 10.205078 h 24.755859 v 15.283203 h 9.179688 v 6.201172 h -9.179688 v 15.332034 z m 0,-6.00586 H 80.908203 V 96.191406 H 63.623047 Z m 0,-15.527346 H 80.908203 V 80.810547 H 63.623047 Z M 20.507812,86.279297 Q 13.378906,77.197266 5.9082031,70.996094 l 5.5175779,-5.175782 q 8.398438,6.689454 14.794922,14.794922 z M 16.894531,112.01172 Q 10.205078,103.4668 2.0019531,96.582031 L 7.421875,91.210937 q 7.8125,6.054688 15.283203,14.794923 z M 4.1992187,153.07617 Q 13.232422,139.94141 20.800781,119.67773 l 6.201172,4.63868 q -6.835937,19.53125 -16.210937,34.375 z M 121.77734,90.478516 V 82.373047 H 103.56445 V 75.78125 h 18.21289 V 64.501953 h 6.88477 V 75.78125 h 17.82226 v 6.591797 h -17.82226 v 8.105469 h 15.72266 V 126.2207 h -15.72266 v 8.59375 h 19.14062 v 6.5918 h -19.14062 v 18.11523 h -6.88477 v -18.11523 h -19.48242 v -6.5918 h 19.48242 V 126.2207 H 106.68945 V 90.478516 Z m 0,6.298828 h -8.78906 v 8.300786 h 8.78906 z m 6.88477,0 v 8.300786 h 9.32617 v -8.300786 z m -6.88477,14.111326 h -8.78906 v 9.13086 h 8.78906 z m 6.88477,0 v 9.13086 h 9.32617 v -9.13086 z m 39.55078,13.91602 v -14.30664 h 7.17773 v 14.30664 h 18.50586 v 6.68945 h -18.50586 v 17.82227 h 22.02149 v 6.68945 h -51.51367 v -6.68945 h 22.31445 v -17.82227 h -17.67578 v -6.68945 z m 4.19922,-23.19336 q -9.52149,8.10547 -22.02149,13.57422 l -4.39453,-5.81055 q 12.10938,-4.78516 21.09375,-12.451172 -9.96093,-9.375 -14.89257,-20.849609 h -4.10157 v -6.689453 h 41.01563 l 4.29687,4.003906 q -6.59179,13.574219 -15.91797,23.4375 9.66797,6.982418 20.89844,11.035158 l -3.90625,6.39648 q -12.5,-4.98047 -22.07031,-12.64648 z M 159.17969,76.074219 q 4.54101,8.544922 12.79297,16.259765 7.08007,-7.373047 11.71875,-16.259765 z m 78.90625,14.746093 h 49.90234 q 0,2.636719 -0.68359,22.998048 h 10.20508 v 6.5918 h -10.44922 q -0.19532,6.25 -0.87891,17.91992 h 9.7168 v 6.49414 h -10.20508 q -0.63477,7.27539 -1.70899,9.66797 -2.14843,5.02929 -10.49804,5.02929 -4.73633,0 -11.08399,-0.78125 l -1.41601,-6.83593 q 7.32422,1.02539 12.06054,1.02539 2.73438,0 3.61329,-1.22071 0.78125,-1.12304 1.31836,-6.10351 l 0.0488,-0.78125 h -39.01367 l -0.14648,0.78125 -0.14649,0.68359 -0.83008,4.73633 -7.4707,-0.87891 q 2.63672,-14.50195 4.44336,-29.73632 h -9.76562 v -6.5918 h 10.54687 q 1.46484,-12.69531 2.44141,-22.998048 z m 27.58789,6.396485 q -0.19531,3.417973 -0.73242,11.572263 l -0.29297,5.0293 h 15.33203 q 0.0976,-2.09961 0.24414,-5.46875 0.0488,-0.87891 0.19531,-5.56641 0,-1.85547 0.14649,-5.566403 z m -7.12891,0 h -13.81836 q -0.43945,5.957033 -1.51367,16.601563 h 14.0625 q 0.29297,-3.71094 0.43945,-5.56641 0.3418,-3.61328 0.83008,-11.035153 z m -1.80664,23.193363 h -14.25781 q -0.78125,6.64062 -1.95313,14.59961 l -0.48828,3.32031 h 14.79492 l 0.29297,-2.2461 q 1.17188,-9.76562 1.61133,-15.67382 z m 7.32422,0 -0.48828,5.12695 q -0.83008,8.78906 -1.31836,12.79297 h 16.40625 q 0.48828,-6.34766 0.73242,-12.30469 l 0.29297,-5.61523 z M 244.9707,73.779297 h 48.92578 v 6.689453 h -52.00195 q -4.00391,7.958984 -9.91211,14.941406 l -5.37109,-5.224609 q 9.47265,-10.546875 14.01367,-25.78125 l 7.4707,0.78125 q -1.5625,4.833984 -3.125,8.59375 z m -24.75586,12.5 q -6.44531,-8.447266 -14.40429,-15.38086 l 5.27343,-5.078125 q 7.51954,5.810547 14.69727,14.697266 z m -3.51562,25.732423 Q 209.0332,102.68555 201.9043,96.679687 l 5.41992,-5.371093 q 8.39844,6.787109 15.08789,14.794926 z m -12.69531,41.06445 q 8.88671,-12.64648 16.21093,-31.98242 l 6.39649,4.6875 q -7.37305,19.92187 -16.3086,33.00781 z M 361.08398,113.81836 V 85.986328 h -22.31445 v -6.884766 h 22.31445 V 64.501953 h 7.51954 v 14.599609 h 25.68359 v 6.884766 h -25.68359 v 27.832032 h 28.80859 v 6.78711 H 370.3125 q 3.66211,9.17969 10.30273,17.1875 7.27539,8.6914 17.48047,14.30664 l -4.78515,7.03125 q -19.4336,-12.5 -27.44141,-33.00781 -6.54297,23.63281 -28.80859,33.59375 l -4.88282,-6.29883 q 13.08594,-5.41992 19.82422,-14.64844 7.12891,-9.66797 8.59375,-18.16406 h -24.21875 v 20.21484 h -25.68359 v 8.00781 h -6.49414 V 82.617187 h 6.49414 v 51.074223 h 6.29883 V 65.380859 h 6.59179 v 68.310551 h 6.49414 V 82.617187 h 6.29883 v 31.201173 z m -12.98828,-3.02734 q -3.02734,-11.083989 -7.17773,-18.994145 l 6.49414,-2.587891 q 3.61328,7.080078 7.37305,18.603516 z m 26.12305,-2.58789 q 4.19922,-8.00782 7.76367,-19.482427 l 7.22656,2.783203 q -4.05273,11.279294 -8.49609,19.091794 z"></path>
</svg>
