<svg xmlns="http://www.w3.org/2000/svg" id="svg1" version="1.1" height="200" width="990">
  <defs id="defs1"></defs>
  <rect id="rect1" stroke="none" fill="none" height="200" width="990" y="0" x="0"></rect>
  <path aria-label="土佐湾" style="font-size:100px;font-family:'BIZ UDPGothic';fill:#ff0000" id="text1" d="M 45.507812,92.675781 V 65.380859 h 8.203125 V 92.675781 H 91.308594 V 100 H 53.710937 v 45.16602 h 43.798829 v 7.32421 H 2.4902344 v -7.32421 H 45.507812 V 100 H 8.6914063 v -7.324219 z m 99.560548,25.195309 q -0.39063,0.6836 -1.07422,2.00196 -6.39648,11.91406 -16.45508,21.72851 l -5.02929,-6.00586 q 11.37695,-11.18164 18.89648,-27.63672 3.02734,-6.64062 6.39648,-18.994136 h -18.99414 v -6.982422 h 20.60547 q 1.61133,-7.128906 2.88086,-17.480469 l 7.8125,0.976563 q -1.41601,9.912109 -2.83203,16.503906 h 38.76953 v 6.982422 h -40.38086 q -2.97851,12.158206 -6.93359,21.191406 l -0.43945,1.02539 h 43.11523 v 6.68945 h -21.67969 v 29.54102 h 27.78321 v 7.08008 h -64.79493 v -7.08008 h 29.10157 V 117.87109 Z M 122.2168,88.818359 v 70.703121 h -7.51953 v -54.6875 q -4.05274,7.37305 -9.27735,14.45313 l -4.0039,-7.27539 q 8.78906,-11.86524 14.45312,-27.001954 3.17383,-8.544922 6.34766,-20.703125 l 7.51953,1.904296 Q 126.2207,78.808594 122.2168,88.818359 Z M 265.08789,73.583984 h 32.12891 v 6.298828 h -23.38868 v 19.189454 q 0,3.076174 -1.5625,4.492184 -1.5625,1.41602 -5.66406,1.41602 -5.02929,0 -8.49609,-0.48828 l -1.12305,-6.298831 q 4.39453,0.683594 7.4707,0.683594 1.61133,0 1.9043,-1.171875 0.14649,-0.537109 0.14649,-1.416016 v -16.40625 h -10.64454 q -0.43945,9.91211 -2.24609,14.794922 -2.63672,6.982426 -12.01172,11.914066 l -5.07812,-4.83399 q 8.49609,-4.052732 10.69336,-10.058591 1.46484,-4.003907 1.61132,-11.816407 h -21.82617 v -6.298828 h 30.32227 v -9.082031 h 7.76367 z m 24.60938,35.009766 v 18.79883 h -49.60938 q -0.53711,3.90625 -1.31836,7.32422 h 55.32227 q -0.97657,12.30468 -3.41797,18.01757 -1.66016,3.95508 -5.95703,5.56641 -3.32032,1.2207 -9.22852,1.2207 -7.91016,0 -15.86914,-0.78125 l -1.70898,-7.03125 q 10.69336,1.12305 17.48046,1.12305 4.19922,0 5.66407,-0.97656 2.58789,-1.70899 4.15039,-11.03516 h -47.94922 q -0.73242,2.68555 -1.66016,5.71289 l -7.71484,-1.80664 q 2.92969,-8.64258 5.32226,-23.24218 h 48.68165 v -6.98243 h -52.39258 v -5.9082 z M 219.18945,86.083984 q -6.29883,-8.349609 -13.96484,-15.08789 l 5.37109,-4.980469 q 7.37305,5.810547 14.20899,14.501953 z m -3.07617,25.439456 q -7.4707,-9.13086 -14.50195,-15.136721 l 5.32226,-5.273438 q 7.56836,6.103516 14.79493,14.501949 z m -12.30469,41.69922 q 8.4961,-12.74414 15.91797,-33.39844 l 6.00586,4.39453 q -6.39648,19.28711 -15.42969,34.66797 z m 87.89063,-50.14649 Q 284.86328,93.261719 276.9043,85.791016 l 5.32226,-3.90625 q 9.08203,7.666015 15.28321,16.699218 z m -69.28711,-4.589842 q 8.44726,-6.054687 13.62305,-15.478516 l 6.29882,2.587891 q -5.22461,10.546875 -14.50195,17.480467 z"></path>
</svg>
