<svg xmlns="http://www.w3.org/2000/svg" id="svg1" version="1.1" height="200" width="1096">
  <defs id="defs1"></defs>
  <rect id="rect1" stroke="none" fill="none" height="200" width="1096" y="0" x="0"></rect>
  <path aria-label="宗谷東方沖" style="font-weight:bold;font-size:110px;font-family:'BIZ UDPGothic';fill:#ff0000" id="text1" d="M 60.585937,66.533203 H 103.39355 V 90.273437 H 91.416016 V 76.308594 H 18.208008 V 90.273437 H 6.4453125 V 66.533203 H 48.608398 V 55.952148 h 11.977539 z m 1.181641,51.884767 v 32.22656 q 0,5.10254 -1.71875,7.30469 -2.148437,2.73926 -9.775391,2.73926 -9.829101,0 -16.865234,-0.91309 l -1.772461,-11.33301 q 7.788086,1.34278 15.415039,1.34278 2.148438,0 2.470703,-0.85938 0.268555,-0.64453 0.268555,-2.09473 V 118.41797 H 3.1689453 V 108.21289 H 106.88477 v 10.20508 z M 22.075195,87.641602 h 65.795899 v 9.453125 H 22.075195 Z M 3.2763672,146.45508 Q 15.253906,137.48535 22.290039,122.71484 l 11.010742,5.04883 q -7.949219,16.86524 -20.571289,27.07031 z m 92.7587888,6.92871 Q 87.978516,140.33203 76.21582,127.97852 l 8.701172,-6.71387 q 13.051758,12.24609 20.786138,24.11621 z m 45.278324,1.12793 v 5.96191 h -12.19239 v -42.43164 q -4.02832,2.36328 -10.09765,5.42481 l -6.92871,-10.09766 q 16.27441,-6.3916 27.76855,-16.542968 9.88281,-8.808594 17.40234,-21.430664 h 13.26661 q 16.59668,22.236328 47.37304,35.449222 l -6.55273,10.41992 q -5.31738,-2.63184 -9.13086,-4.72656 l -1.34277,-0.69825 v 44.63379 H 188.5791 v -5.96191 z m -5.74707,-40.39063 h 62.35839 q -19.92675,-12.08496 -33.67675,-28.466793 -7.41211,11.279297 -16.65039,19.389653 -5.20996,4.51171 -12.03125,9.07714 z m 53.01269,10.09766 h -47.26562 v 19.81934 H 188.5791 Z M 114.83398,83.344727 q 8.37891,-4.56543 14.39454,-9.72168 7.46582,-6.337891 14.01855,-15.576172 l 10.09766,5.800781 Q 141.52832,81.572266 123.75,92.583008 Z m 89.42872,7.143554 Q 189.49219,74.750977 174.77539,63.525391 l 8.70117,-6.499024 q 14.39453,9.667969 29.37989,24.760742 z m 88.35449,35.073239 q 13.32031,11.87012 35.8789,19.17481 l -6.92871,10.09765 q -12.99804,-4.61914 -22.66601,-11.17187 -9.99024,-6.82129 -18.42285,-16.75781 v 33.56933 h -11.65528 v -32.97851 q -7.46582,10.47363 -19.28222,18.79883 -9.07715,6.3916 -19.44336,10.3125 l -7.3584,-9.45313 q 17.02636,-5.63965 28.41308,-15.2002 3.22266,-2.68554 6.55274,-6.3916 H 231.87012 V 81.572266 h 36.95312 V 74.321289 H 224.29687 V 64.65332 h 44.52637 v -8.701172 h 11.65528 v 8.701172 h 45.2246 v 9.667969 h -45.2246 v 7.250977 h 37.65136 V 125.56152 Z M 268.82324,90.595703 h -25.29785 v 8.701172 h 25.29785 z m 11.65528,0 v 8.701172 h 25.99609 v -8.701172 z m -11.65528,17.080077 h -25.29785 v 8.86231 h 25.29785 z m 11.65528,0 v 8.86231 h 25.99609 v -8.86231 z m 101.6748,-22.773436 q -0.37598,8.969726 -1.07422,15.791016 h 43.29102 q -0.80567,37.27539 -4.18946,48.39355 -1.71875,5.58594 -6.3916,7.73438 -3.65234,1.66504 -10.68847,1.66504 -7.41211,0 -16.81153,-1.12793 l -2.09472,-12.08496 q 12.62207,1.77246 17.77832,1.77246 4.35058,0 5.53222,-2.4707 2.84668,-6.01563 3.97461,-33.19336 h -31.95801 q -1.77246,9.66796 -4.99511,16.75781 -8.96973,19.60449 -29.97071,31.09863 l -8.48632,-9.45312 q 21.05468,-10.95704 27.82226,-28.73536 4.51172,-11.87011 5.85449,-36.147456 H 334.18945 V 73.891602 h 43.88184 V 55.952148 h 12.40723 v 17.939454 h 45.33203 v 11.010742 z m 121.54785,-8.916016 v -20.03418 h 11.54785 v 20.03418 h 29.11133 v 48.608402 h -29.11133 v 35.8789 h -11.54785 v -35.8789 H 475.18066 V 75.986328 Z m -17.40234,10.688477 v 27.338865 h 17.40234 V 86.674805 Z m 46.62109,27.338865 V 86.674805 h -17.6709 v 27.338865 z m -68.75,-31.796873 q -6.55273,-9.13086 -17.34863,-17.456055 l 8.00293,-8.164062 q 10.74219,7.573242 18.1543,16.972656 z m -3.49121,27.607423 q -9.3457,-10.849611 -18.1543,-17.778322 l 8.27149,-8.271484 q 9.39941,6.606445 18.58398,17.080076 z m -16.7041,41.62598 q 10.3125,-14.66309 19.01367,-36.52344 l 9.56055,7.3584 q -7.3584,20.1416 -17.93946,37.91992 z"></path>
</svg>
