<svg xmlns="http://www.w3.org/2000/svg" id="svg1" version="1.1" height="200" width="1096">
  <defs id="defs1"></defs>
  <rect id="rect1" stroke="none" fill="none" height="200" width="1096" y="0" x="0"></rect>
  <path aria-label="鹿児島県薩摩地方" style="font-weight:bold;font-size:110px;font-family:'BIZ UDPGothic';fill:#ff0000" id="text1" d="m 28.520508,147.15332 v -32.11914 h 11.225586 v 9.02344 h 20.356445 v 9.23828 H 39.746094 v 12.19238 q 13.21289,-2.14844 21.000976,-3.9209 l 0.322266,9.02344 q -17.724609,5.04883 -40.12207,8.21777 l -3.115235,-10.3125 q 5.747071,-0.64453 10.688477,-1.34277 z M 61.123047,64.868164 h 43.183593 v 9.238281 H 73.691406 v 9.453125 h 26.748044 v 28.19824 H 20.249023 q -0.322265,16.97266 -1.71875,26.47949 -1.772461,12.13868 -7.089843,22.12891 l -9.8828128,-8.00293 q 5.0488281,-9.93652 6.4453125,-23.63281 1.0205078,-10.04395 1.0205078,-27.0166 V 64.868164 H 49.199219 v -8.916016 h 11.923828 z m -40.766602,9.238281 v 9.453125 h 15.952149 v -9.453125 z m 0,18.046875 v 7.734375 3.276365 H 36.308594 V 92.15332 Z m 68.75,11.01074 V 92.15332 H 73.691406 v 11.01074 z M 47.319336,74.106445 v 9.453125 h 15.361328 v -9.453125 z m 0,18.046875 v 11.01074 H 62.680664 V 92.15332 Z m 28.037109,34.10645 q 11.655274,-3.97461 20.141602,-9.23829 l 7.143553,8.70118 q -12.084959,5.9082 -27.285155,10.04394 v 8.16406 q 0,3.22266 1.987305,3.75977 1.665039,0.4834 7.895508,0.4834 7.46582,0 8.754883,-1.55762 1.18164,-1.39648 1.71875,-9.56055 l 0.107421,-1.66504 11.010738,2.95411 q -0.10742,0.69824 -0.32226,3.97461 -0.80566,10.47363 -4.67285,13.53515 -3.813479,3.06153 -19.174807,3.06153 -10.84961,0 -14.448242,-1.61133 -3.97461,-1.82617 -3.97461,-7.8418 V 115.03418 H 75.356445 Z M 206.67969,59.121094 V 112.61719 H 151.03516 V 59.121094 Z m -43.98926,9.667968 v 12.246094 h 32.22656 V 68.789062 Z m 0,21.484375 v 12.890623 h 32.22656 V 90.273437 Z m -38.2959,-33.24707 h 12.40723 v 59.619143 h -12.40723 z m -11.33301,93.725583 q 13.91114,-1.39648 22.61231,-7.8955 5.96191,-4.45801 7.94922,-12.08497 1.12793,-4.40429 1.55761,-12.89062 h 11.87012 q -0.16113,20.1416 -8.75488,29.80957 -8.37891,9.39941 -28.09082,13.42773 z m 58.00782,-33.19336 h 12.08496 v 26.58692 q 0,2.79297 1.77246,3.33008 1.87988,0.59082 7.51953,0.59082 6.06933,0 8.11035,-0.64454 2.14844,-0.69824 2.79297,-4.24316 0.75195,-3.65234 0.91309,-11.22559 l 12.24609,3.54493 q -0.21484,2.04101 -0.64453,7.3584 -0.9668,11.17187 -4.99512,13.96484 -2.25586,1.50391 -6.49902,1.87988 -5.8545,0.4834 -14.34082,0.4834 -11.7627,0 -15.36133,-2.09473 -3.59863,-2.14843 -3.59863,-8.43261 z m 91.52343,-53.442379 q 1.98731,-4.780274 3.22266,-9.130859 l 13.10547,1.77246 q -1.87988,4.458008 -3.4375,7.358399 h 35.77148 v 35.019531 h -64.88281 v 5.424808 h 80.83496 v 8.70117 h -80.83496 v 5.47851 h 77.0752 q -0.69825,24.59961 -3.11524,33.19336 -1.55762,5.47852 -5.85449,7.25098 -3.06152,1.28906 -9.3457,1.28906 -6.44532,0 -12.03125,-0.80566 l -2.14844,-9.02344 h -53.81836 v 5.96192 h -11.54785 v -25.83497 h 11.54785 v 11.06446 h 18.47656 v -14.50196 h -21.1084 V 64.116211 Z m 22.82715,77.719729 v -11.06446 h 11.11817 v 18.69141 q 4.458,0.42969 7.41211,0.42969 3.65234,0 4.56542,-2.09473 1.77247,-3.9209 2.79297,-20.46387 H 267.1582 v 14.50196 z M 246.37207,72.387695 v 5.317383 h 53.0127 v -5.317383 z m 0,12.998047 v 5.854492 h 53.0127 V 85.385742 Z M 422.16797,58.583984 V 110.62988 H 358.25195 V 58.583984 Z m -52.36817,8.486328 v 6.713868 h 40.7129 v -6.713868 z m 0,14.28711 v 6.713867 h 40.7129 v -6.713867 z m 0,14.287109 v 6.928709 h 40.7129 v -6.928709 z m -21.6455,22.128909 h 89.05273 v 9.3457 h -44.41894 v 33.35449 H 380.5957 V 127.11914 H 336.3916 V 66.855469 h 11.7627 z m -13.75,32.4414 q 12.7832,-5.9082 24.43847,-19.81933 l 9.88282,5.74707 q -11.49414,14.55566 -25.5127,22.88086 z m 92.59765,6.92871 q -8.21777,-10.09765 -24.70703,-21.21582 l 9.23828,-6.49902 q 12.94434,7.46582 25.40528,19.60449 z m 64.99024,-43.88183 v 11.54785 q 0,3.38379 -0.10742,5.37109 5.9082,-6.82128 8.00293,-14.71679 l 9.50683,2.09472 q -0.69824,2.36329 -1.50391,4.4043 h 6.3379 v -5.96191 h 10.20507 v 5.96191 h 19.01368 v 7.57324 h -19.01368 v 6.06934 h 16.48926 v 7.3584 h -16.48926 v 7.14355 h 22.77344 v 8.16406 h -56.45019 v -8.16406 h 23.47168 v -7.14355 h -15.41504 v -7.30469 l -6.98243,-5.10254 q -0.32226,8.86231 -2.4707,15.68359 -2.52441,7.94922 -8.48633,14.66309 l -8.43261,-7.03613 q 6.82129,-7.41211 8.70117,-17.13379 1.07422,-5.3711 1.07422,-12.35352 v -18.79883 h 9.77539 l -4.18946,-4.61914 q 9.07715,-1.39648 16.70411,-3.276363 -4.45801,-1.181641 -13.75,-3.4375 l 4.40429,-3.4375 h -12.08496 v -7.895508 h 26.64063 v -5.854492 h -5.42481 v -5.585938 h -21.43066 v 6.015625 h -11.54785 v -6.015625 h -28.68164 v -8.701172 h 28.68164 v -6.821289 h 11.54785 v 6.821289 h 21.43066 v -6.821289 h 11.81641 v 6.821289 h 31.20605 v 8.701172 H 516.1084 v 4.941407 h 4.9414 v 6.499023 h 24.38477 v 7.895508 h -14.17969 l 5.04883,2.524414 q -3.86719,1.772461 -8.27148,3.491211 l -1.77246,0.698242 3.70605,0.966797 1.66504,0.483398 3.4375,0.966797 5.53223,1.557614 -4.94141,4.08203 h 10.7959 v 7.68067 z M 516.1084,100.9082 q -7.68067,2.417 -18.6377,4.67285 h 34.21387 l -5.63965,-1.71875 q -4.72656,-1.45019 -9.02344,-2.68554 z m -0.64453,-6.337888 q 0.37597,-0.161132 0.75195,-0.268554 3.70605,-1.12793 9.99023,-3.491211 h -25.94238 q 9.45313,2.148437 15.2002,3.759765 z m -11.33301,34.965818 q -2.04102,3.33008 -4.24316,6.06934 h 14.34082 v -6.06934 z M 471.68945,108.2666 q 7.73438,10.3125 7.73438,21.80664 0,6.92871 -2.52442,9.8291 -2.52441,2.84668 -8.80859,2.84668 -4.83398,0 -8.37891,-0.75195 l -1.55761,-9.3457 q 1.0205,0.16113 2.79297,0.42968 2.68554,0.42969 4.88769,0.42969 2.04102,0 2.68555,-0.80566 0.64453,-0.80567 0.64453,-2.84668 0,-10.7959 -8.05664,-20.83985 6.01562,-12.138667 7.41211,-20.034175 H 457.83203 V 160.47363 H 447.3584 V 80.498047 h 28.84277 l 3.75977,4.189453 q -3.81348,13.535156 -8.27149,23.5791 z M 635.61523,72.65625 v 6.069336 h 18.04688 v 7.680664 h -13.85742 q 6.49902,7.573242 16.59668,12.998047 l -5.15625,7.680663 q -9.50684,-6.12305 -15.84473,-14.663085 V 104.3457 h -9.99023 V 93.496094 q -4.4043,6.982426 -11.7627,11.708986 l -5.63965,-6.284182 q 7.89551,-4.350586 13.69629,-12.514648 h -11.17187 v -7.680664 h 14.66308 V 72.65625 h -27.71484 v 6.069336 h 10.74219 v 7.680664 h -11.01075 v 1.987305 q 6.17676,3.061523 11.49414,7.358398 l -5.10253,6.713867 q -2.68555,-2.846679 -6.39161,-5.854492 V 106.7627 H 587.3291 V 94.355469 q -4.67285,7.036131 -12.35351,12.407231 l -5.26368,-6.821294 v 3.061524 q 0,21.69922 -1.87988,34.96582 Q 566.11328,150 561.54785,160.3125 l -10.20508,-7.25098 q 3.9209,-8.96972 5.53223,-20.78613 1.61133,-11.92383 1.61133,-29.27246 V 63.847656 h 43.2373 v -7.895508 h 11.92383 v 7.895508 h 41.78711 v 8.808594 z m -48.60839,0 h -17.29493 v 27.124023 q 8.8086,-5.317382 14.28711,-13.374023 h -12.08496 v -7.680664 h 15.09278 z m 32.4414,42.2168 v 6.12304 h 32.8711 v 7.68067 h -32.8711 v 5.26367 h 37.8125 v 8.16406 h -37.8125 v 9.45313 q 0,4.88769 -2.4707,6.92871 -2.36328,1.9873 -8.75488,1.9873 -9.88282,0 -15.52246,-0.91308 l -1.66504,-8.91602 q 8.05664,1.12793 14.93164,1.12793 1.82617,0 2.09472,-0.69824 0.26856,-0.59082 0.26856,-1.9336 v -7.03613 h -37.97363 v -8.16406 h 37.97363 v -5.26367 h -33.35449 v -7.68067 h 33.35449 v -5.26367 q -15.03906,0.91309 -25.5127,1.07422 l -3.33008,-7.68066 q 33.13965,-0.53711 58.97461,-4.4043 l 6.28418,7.14355 q -14.12597,2.09473 -25.29785,3.00782 z m 96.84082,-15.415042 v 42.539062 q 0,4.13574 3.54492,4.99512 3.65235,0.91308 16.70411,0.91308 12.72949,0 16.81152,-1.28906 2.30957,-0.75195 3.00781,-4.18945 0.91309,-4.83399 0.9668,-11.44043 l 11.22558,3.16894 Q 767.69043,150 764.19922,154.4043 q -2.30957,2.90039 -6.98242,3.4375 -7.3584,0.80566 -24.97559,0.80566 -13.64258,0 -17.88574,-0.75195 -6.3916,-1.07422 -8.11035,-5.63965 -0.85938,-2.41699 -0.85938,-6.44531 v -42.59278 l -10.25879,3.54493 -2.52441,-10.419927 12.7832,-4.404296 V 62.988281 h 10.90332 v 25.19043 l 11.54785,-3.920899 V 55.952148 h 10.7959 v 24.545899 l 17.99317,-6.176758 5.63964,3.4375 v 40.229491 q 0,4.18945 -1.9873,6.23047 -2.25586,2.25586 -7.57324,2.25586 -4.35059,0 -9.23828,-0.75195 l -1.77246,-10.25879 q 3.16894,0.80566 6.44531,0.80566 2.36328,0 2.90039,-0.9668 0.53711,-0.80566 0.53711,-2.68554 V 87.211914 l -12.94434,4.511719 v 43.452147 h -10.7959 V 95.429687 Z M 676.81152,81.894531 V 55.952148 h 11.54785 v 25.942383 h 10.41993 v 10.903321 h -10.41993 v 34.160158 q 5.63965,-1.9336 11.17188,-4.02832 l 1.02051,10.36621 q -17.40235,7.94922 -35.71778,13.32031 l -3.75976,-11.44043 q 8.27148,-2.14844 14.50195,-4.08203 0.75195,-0.26855 1.23535,-0.37598 V 92.797852 H 663.16895 V 81.894531 Z m 145.3418,3.007813 q -0.37598,8.969726 -1.07422,15.791016 h 43.29102 q -0.80567,37.27539 -4.18946,48.39355 -1.71875,5.58594 -6.3916,7.73438 -3.65234,1.66504 -10.68847,1.66504 -7.41211,0 -16.81153,-1.12793 l -2.09472,-12.08496 q 12.62207,1.77246 17.77832,1.77246 4.35058,0 5.53222,-2.4707 2.84668,-6.01563 3.97461,-33.19336 h -31.95801 q -1.77246,9.66796 -4.99511,16.75781 -8.96973,19.60449 -29.97071,31.09863 l -8.48632,-9.45312 q 21.05468,-10.95704 27.82226,-28.73536 4.51172,-11.87011 5.85449,-36.147456 H 774.18945 V 73.891602 h 43.88184 V 55.952148 h 12.40723 v 17.939454 h 45.33203 v 11.010742 z"></path>
</svg>
