<svg xmlns="http://www.w3.org/2000/svg" id="svg1" version="1.1" height="200" width="990">
  <defs id="defs1"></defs>
  <rect id="rect1" stroke="none" fill="none" height="200" width="990" y="0" x="0"></rect>
  <path aria-label="サハリン西方沖" style="font-size:100px;font-family:'BIZ UDPGothic';fill:#ff0000" id="text1" d="m 63.378906,69.042969 h 7.910156 v 19.77539 h 20.605469 v 7.177735 H 71.289062 v 4.492186 q 0,24.1211 -6.835937,36.18164 -6.787109,11.96289 -23.144531,17.91992 l -5.029297,-6.29882 q 16.748047,-5.81055 22.607422,-18.50586 4.492187,-9.81446 4.492187,-29.19922 V 95.996094 H 31.201172 V 123.97461 H 23.291016 V 95.996094 H 4.1015625 V 88.818359 H 23.291016 V 69.628906 h 7.910156 v 19.189453 h 32.177734 z m 38.037114,75.341801 q 8.44726,-12.10938 14.40429,-30.95704 5.95703,-18.798824 7.61719,-37.744136 l 7.95898,1.708984 q -6.54296,48.876952 -23.38867,72.998042 z m 76.90429,6.00585 q -6.68945,-10.98632 -12.79297,-27.19726 -8.15429,-21.72852 -12.98828,-45.996094 l 7.56836,-2.392579 q 4.58985,23.632813 13.37891,45.849613 5.41992,13.7207 11.71875,24.26757 z m 25.29297,-80.371089 h 8.20313 v 51.464849 h -8.20313 z m 50.09766,-1.02539 h 8.20312 v 33.496089 q 0,16.99219 -2.34375,25.04883 -2.49023,8.64258 -7.42187,13.81836 -8.4961,8.88672 -26.31836,13.33008 l -4.29688,-7.17773 q 20.70313,-4.54102 26.9043,-14.99024 3.95508,-6.78711 4.83398,-16.94336 0.43946,-4.88281 0.43946,-12.98828 z m 61.37695,24.169921 q -13.96484,-6.347656 -29.6875,-10.15625 l 2.58789,-7.617187 q 18.79883,4.492187 29.93164,10.107422 z m -28.90625,50.341798 q 19.72656,-1.75781 31.05469,-6.00586 29.3457,-10.98633 36.96289,-50.585938 l 6.78711,4.882813 q -4.54102,21.484375 -14.16016,34.082035 -10.54687,13.86718 -28.80859,20.06836 -11.2793,3.80859 -29.83399,5.85937 z M 400.58594,93.701172 V 77.197266 H 369.77539 V 70.3125 h 94.38477 v 6.884766 h -33.88672 v 16.503906 h 27.7832 V 157.8125 h -7.8125 V 150 h -66.65039 v 7.8125 h -7.71484 V 93.701172 Z m 7.51953,0 h 14.64844 V 77.197266 h -14.64844 z m -7.56836,6.591798 h -16.94336 v 42.91992 h 66.65039 v -17.23633 h -20.16602 q -7.32421,0 -7.32421,-6.59179 v -19.0918 h -14.69727 q -0.43945,10.5957 -3.125,16.89453 -3.80859,8.93555 -14.94141,15.52734 l -4.98046,-5.61523 q 10.40039,-5.41992 13.52539,-14.50195 1.51367,-4.44336 2.00195,-12.30469 z m 29.73633,0 v 16.50391 q 0,1.51367 0.58593,1.95312 0.53711,0.43945 1.80665,0.43945 h 17.57812 v -18.89648 z m 82.17773,-11.328126 q 0,7.324218 -0.92773,17.041016 h 39.40429 q -0.68359,32.91016 -3.75976,43.60351 -1.26953,4.49219 -4.83399,6.34766 -3.02734,1.5625 -9.08203,1.5625 -8.39843,0 -15.33203,-0.92773 l -1.31836,-8.00782 q 10.15625,1.31836 16.3086,1.31836 4.05273,0 5.32226,-1.70898 1.07422,-1.46484 2.14844,-8.49609 1.5625,-9.96094 2.14844,-26.70899 h -31.9336 q -1.80664,11.37695 -5.76172,19.28711 -7.91015,15.91797 -26.02539,25.73242 l -5.61523,-6.29883 q 19.38476,-10.15625 25.58594,-26.36718 5.17578,-13.57422 5.5664,-36.376956 H 470.80078 V 81.787109 H 512.5 V 64.501953 h 8.00781 v 17.285156 h 42.67578 v 7.177735 z m 113.23242,-3.66211 V 64.501953 h 7.71485 v 20.800781 h 27.7832 v 40.478516 h -27.7832 v 33.69141 h -7.71485 V 125.78125 H 598.7793 V 85.302734 Z m -19.38476,6.982422 v 26.513674 h 19.38476 V 92.285156 Z m 47.26562,26.513674 V 92.285156 H 633.39844 V 118.79883 Z M 588.76953,86.621094 q -6.54297,-8.34961 -15.2832,-15.527344 l 5.32226,-5.273438 q 8.30078,6.201172 15.67383,14.990235 z m -3.66211,25.488286 q -7.66601,-8.8379 -15.91797,-15.527349 l 5.41992,-5.46875 q 8.39844,6.201172 16.16211,14.990239 z m -13.7207,40.57617 q 9.52148,-12.69532 17.48047,-32.86133 l 6.29883,5.07812 q -7.32422,19.14063 -17.08985,33.69141 z"></path>
</svg>
