<svg xmlns="http://www.w3.org/2000/svg" id="svg1" version="1.1" height="200" width="1096">
  <defs id="defs1"></defs>
  <rect id="rect1" stroke="none" fill="none" height="200" width="1096" y="0" x="0"></rect>
  <path aria-label="若狭湾" style="font-weight:bold;font-size:110px;font-family:'BIZ UDPGothic';fill:#ff0000" id="text1" d="m 37.329102,118.0957 h 57.578125 v 42.37793 h -11.97754 v -6.49902 H 36.362305 v 6.49902 H 24.492187 v -31.52832 q -6.660156,4.99512 -16.2744136,10.41992 L 1.0742187,130.07324 Q 22.236328,120.19043 35.073242,104.66797 H 2.6855469 V 94.785156 H 41.948242 q 3.920899,-6.767578 6.875,-14.072265 l 11.44043,2.631836 q -2.84668,6.552734 -5.532227,11.440429 h 52.475585 v 9.882814 H 48.662109 q -4.61914,6.66016 -10.634765,12.72949 z m -0.966797,9.34571 v 16.97265 H 82.929687 V 127.44141 Z M 28.896484,66.425781 V 55.952148 H 40.551758 V 66.425781 H 68.75 V 55.952148 h 11.655273 v 10.473633 h 23.095707 v 9.990235 H 80.405273 v 8.378906 H 68.75 V 76.416016 H 40.551758 v 8.486328 H 28.896484 V 76.416016 H 6.5527344 V 66.425781 Z M 135.19043,111.65039 q -7.94922,16.16699 -17.34863,25.67383 l -6.28418,-9.66797 q 10.84961,-10.52734 21.75293,-32.226563 -0.4834,-2.631835 -1.50391,-6.445312 -5.9082,6.176758 -14.50195,13.159175 l -5.85449,-9.560542 q 9.39941,-6.660156 16.2207,-14.125977 -4.08203,-8.002929 -11.70899,-14.716797 l 8.00293,-5.693359 q 6.71387,5.263672 10.84961,11.44043 4.29688,-6.337891 7.89551,-13.105469 l 9.56055,5.961914 q -6.3916,10.258789 -12.19239,17.294922 6.92872,16.704101 6.92872,45.439458 0,18.10058 -3.54493,26.90917 -1.77246,4.29688 -4.61914,6.17676 -2.63183,1.71875 -7.57324,1.71875 -6.28418,0 -11.11816,-1.07422 l -2.09473,-11.54785 q 5.74707,1.39649 10.47363,1.39649 3.22266,0 4.18946,-1.18164 0.75195,-0.85938 1.23535,-3.16895 1.55762,-7.14355 1.55762,-20.78613 0,-4.18946 -0.32227,-11.87012 z m 47.21191,15.95215 Q 175.15137,150.85937 151.25,160.7959 l -6.82129,-9.45313 q 12.89063,-4.61914 20.46387,-13.64257 6.28418,-7.46583 9.3457,-18.69141 h -25.08301 v -10.36621 h 26.42578 V 81.25 H 151.03516 V 71.044922 h 24.54589 V 55.952148 h 10.90332 v 15.092774 h 28.35938 V 81.25 h -28.35938 v 27.39258 h 30.77637 v 10.36621 h -28.09082 q 8.43262,20.51758 29.64844,30.34668 l -7.41211,10.7959 q -20.57129,-12.51465 -29.00391,-32.54883 z m 9.99024,-23.5791 q 4.61914,-8.754885 8.05664,-20.893557 l 10.52734,3.706054 q -4.18945,12.084961 -9.23828,20.356443 z m -33.40821,3.27636 q -2.52441,-10.742183 -6.92871,-19.980464 l 9.77539,-3.652344 q 4.51172,8.378906 7.57325,19.604488 z M 302.9834,74.106445 v 20.786133 q 0,3.544922 -1.50391,5.209962 -1.77246,1.93359 -7.84179,1.93359 -5.80079,0 -9.50684,-0.64453 l -1.39649,-8.916014 q 4.24317,0.859375 7.14356,0.859375 1.55762,0 1.9873,-0.751953 0.32227,-0.644531 0.32227,-2.094727 V 74.106445 h -9.56055 q -0.42968,11.333008 -3.00781,17.402344 -2.84668,6.606445 -11.76269,12.084961 l -7.68067,-6.821289 q 8.05664,-4.189453 10.36621,-10.795899 1.39649,-4.135742 1.71875,-11.870117 h -21.21582 v -9.130859 h 30.56153 v -9.023438 h 11.8164 v 9.023438 h 33.73047 v 9.130859 z m 16.59668,30.454105 v 21.80664 h -53.0127 q -0.42968,2.9541 -1.02051,5.9082 h 58.65235 q -1.34277,14.77051 -3.70606,20.24902 -3.4375,7.94922 -16.11328,7.94922 -10.52734,0 -22.6123,-0.91308 l -1.98731,-9.77539 q 11.54785,1.23535 20.67871,1.23535 4.94141,0 6.49903,-1.12793 2.41699,-1.77246 3.75976,-9.23828 h -47.26562 q -0.59082,2.20215 -2.04102,6.60644 l -11.54785,-2.30957 q 4.08203,-12.24609 6.12305,-26.47949 h 51.83105 v -5.74707 h -55 v -8.16406 z M 240.57129,80.820312 q -5.96192,-8.271484 -15.25391,-16.381835 l 8.00293,-7.626954 q 8.43262,6.176758 15.84473,15.737305 z m -3.27637,27.714848 Q 229.02344,98.061523 221.23535,91.455078 l 8.05664,-7.788086 q 8.05664,6.176758 16.59668,15.952149 z M 223.4375,151.9873 q 9.45312,-14.71679 17.93945,-37.75878 l 8.8086,6.49902 q -7.03614,21.32324 -16.86524,39.85351 z m 95.71289,-51.50878 Q 312.11426,89.091797 304.37988,80.820312 l 8.16407,-5.263671 q 9.45312,8.59375 15.30761,18.798828 z m -75.1416,-6.445317 q 7.8418,-6.445312 12.89062,-17.080078 l 9.77539,3.652344 q -5.26367,11.977539 -14.55566,19.980471 z"></path>
</svg>
