<svg xmlns="http://www.w3.org/2000/svg" id="svg5" width="180" height="40" version="1.1" viewBox="0 0 180 40">
  <defs id="defs5"></defs>
  
  <path id="path1" d="m0 0h180v40h-180z" fill="#fff" fill-opacity="0" stop-color="#000000" stroke-linecap="round" stroke-linejoin="round" stroke-width=".2" style="paint-order:stroke markers fill"></path>
  <path aria-label="震度色" style="font-weight:bold;font-size:13.7081px;line-height:1.35;font-family:'BIZ UDPGothic';-inkscape-font-specification:'BIZ UDPGothic Bold';fill:#ffffff;stroke-width:3.00094" id="text5" d="m 26.185702,15.237609 v -0.575633 h -4.18338 v -0.957157 h 9.879471 v 0.957157 h -4.270395 v 0.575633 h 5.542142 v 2.402934 h -1.45247 v -1.539484 h -4.089672 v 2.603736 h -1.425696 v -2.603736 h -4.016045 v 1.539484 h -1.439083 v -2.402934 z m 4.738933,9.497947 q 1.024092,0.388217 2.556882,0.615793 l -0.783129,1.13788 Q 30.549804,26.121091 29.170962,25.224175 27.798813,24.327258 27.035765,22.99527 h -1.479243 v 2.061569 q 1.479243,-0.207495 2.744297,-0.441765 l 0.09371,0.997318 q -2.35608,0.562247 -5.388194,0.977238 l -0.394911,-1.17804 q 1.050865,-0.113788 1.439083,-0.160642 l 0.08032,-0.01339 V 22.99527 h -1.465857 q -0.09371,1.178039 -0.307897,1.880847 -0.254349,0.84337 -0.816595,1.572951 L 20.34905,25.465137 q 0.655954,-0.850063 0.816596,-1.987942 0.08701,-0.615794 0.08701,-1.532791 v -2.838005 h 11.552823 v 0.890224 h -10.11374 v 2.054876 h 10.689373 v 0.943771 h -1.519404 l 0.850063,0.562246 q -0.756355,0.62918 -1.78714,1.17804 z m -1.044172,-0.515393 q 0.963851,-0.655954 1.532791,-1.224893 h -2.92502 q 0.575634,0.736274 1.392229,1.224893 z m -7.121786,-7.623792 h 2.851392 v 0.756355 h -2.851392 z m 0,1.231587 h 2.851392 V 18.5977 h -2.851392 z m 5.428354,-1.231587 h 2.938406 v 0.756355 h -2.938406 z m 0,1.231587 h 2.938406 V 18.5977 h -2.938406 z m -4.698773,2.730911 h 8.333294 v 0.876836 h -8.333294 z m 18.206071,-5.923667 h 5.247632 v 1.124493 h -2.971873 v 1.111106 h 2.784458 v 1.084332 h -2.784458 v 1.994636 h -5.388194 v -1.994636 h -2.195438 v 1.244974 q 0,3.032114 -0.321283,4.79248 -0.247656,1.338682 -0.803209,2.443094 l -1.218201,-0.96385 q 0.508699,-1.104413 0.696115,-2.697444 0.167335,-1.398922 0.167335,-3.57428 v -4.564905 h 5.294486 v -1.204813 h 1.49263 z m -5.307873,1.124493 v 1.111106 h 2.195438 v -1.111106 z m 3.621134,0 v 1.111106 h 2.536802 v -1.111106 z m 0,2.195438 v 1.037478 h 2.536802 v -1.037478 z m 1.552871,7.028079 q -1.934395,1.004011 -4.912962,1.526097 l -0.696114,-1.231587 q 2.797844,-0.334671 4.384182,-1.024092 -1.358762,-0.983931 -2.322612,-2.335999 h -0.923691 v -1.164653 h 7.837981 l 0.702808,0.58902 q -0.997318,1.53279 -2.844698,2.884859 1.586337,0.635873 4.323942,0.937077 l -0.783129,1.265054 q -2.623816,-0.354751 -4.765707,-1.445776 z m -1.987942,-3.065581 q 0.809902,0.950464 1.967862,1.673352 1.305214,-0.84337 2.014716,-1.673352 z M 51.02494,21.516026 v 2.429708 q 0,0.528779 0.388218,0.635873 0.575633,0.160642 3.808549,0.160642 2.871473,0 3.574281,-0.167335 0.33467,-0.08032 0.428378,-0.374831 0.113788,-0.33467 0.180722,-1.559564 l 1.479243,0.455152 q -0.07363,1.318601 -0.214189,1.80722 -0.180722,0.635874 -0.669341,0.86345 -0.348057,0.160641 -0.963851,0.200802 -1.586338,0.113788 -4.14322,0.113788 -3.580973,0 -4.257007,-0.127175 -0.763049,-0.140562 -0.983931,-0.669341 -0.107095,-0.267736 -0.107095,-0.669341 v -6.87413 l -0.06693,0.05355 q -0.307897,0.220883 -0.729581,0.488619 l -0.916997,-1.111106 q 2.389546,-1.311908 4.042818,-3.741615 l 0.937077,0.642567 h 3.80855 l 0.709501,0.736275 q -0.88353,1.251667 -1.847381,2.255679 h 4.290475 v 4.451116 z m 0,-1.191426 h 2.878166 V 18.296497 H 51.02494 Z m 4.317249,-2.028103 V 20.3246 h 2.938406 V 18.296497 Z M 53.789318,17.06491 q 0.86345,-0.90361 1.47255,-1.773753 h -3.092355 q -0.742968,0.910303 -1.76706,1.773753 z"></path>
</svg>


