<svg xmlns="http://www.w3.org/2000/svg" id="svg1" version="1.1" height="200" width="1096">
  <defs id="defs1"></defs>
  <rect id="rect1" stroke="none" fill="none" height="200" width="1096" y="0" x="0"></rect>
  <path aria-label="静岡県東部" style="font-weight:bold;font-size:110px;font-family:'BIZ UDPGothic';fill:#ff0000" id="text1" d="m 84.648437,83.452148 h 17.402343 v 18.798832 h 5.96192 v 9.02343 h -5.96192 v 19.6045 H 82.714844 v 20.57129 q 0,4.51171 -1.879883,6.60644 -2.148438,2.30957 -7.304688,2.30957 -3.759765,0 -12.084961,-0.91309 l -1.987304,-10.3125 q 6.821289,1.07422 10.205078,1.07422 1.71875,0 2.202148,-0.64453 0.375977,-0.59082 0.375977,-2.30957 V 130.87891 H 55.322266 v -9.23828 H 72.241211 V 111.27441 H 51.884766 v -9.02343 H 72.241211 V 92.475586 H 57.954102 v -7.841797 q -1.396485,1.235352 -3.4375,2.84668 L 49.25293,80.12207 v 3.97461 H 33.837891 v 5.048828 h 19.49707 v 8.916015 H 2.7392578 V 89.145508 H 23.203125 V 84.09668 H 6.5527344 V 76.308594 H 23.203125 V 71.259766 H 4.1357422 V 63.095703 H 23.203125 v -7.143555 h 10.634766 v 7.143555 h 18.154296 v 8.164063 H 33.837891 v 5.048828 H 49.25293 v 2.846679 Q 60.478516,70.454102 67.407227,56.166992 l 7.197265,4.619141 h 15.791016 l 5.585937,4.941406 q -5.048828,9.291992 -11.333008,17.724609 z m -10.688476,0 q 6.391601,-8.916015 8.325195,-13.320312 H 70.522461 q -4.458008,6.713867 -11.333008,13.320312 z m 8.432617,9.023438 v 9.775394 H 92.490234 V 92.475586 Z M 92.490234,111.27441 H 82.392578 v 10.36622 h 10.097656 z m -43.452148,-7.68066 v 47.74902 q 0,5.26368 -2.900391,7.19727 -1.933593,1.23535 -6.552734,1.23535 -6.445313,0 -11.333008,-0.64453 l -1.879883,-9.77539 q 6.445313,0.75195 10.366211,0.75195 1.71875,0 1.987305,-0.91308 0.214844,-0.64454 0.214844,-2.14844 v -8.16406 H 17.133789 v 21.59179 H 7.0361328 v -56.87988 z m -31.904297,7.89551 v 6.06933 H 38.94043 v -6.06933 z m 0,13.64258 v 6.17675 H 38.94043 v -6.17675 z m 165.053711,6.49902 v -23.20313 h 10.20508 v 32.8711 h -44.79492 v 7.25097 h -10.20508 v -40.12207 h 10.20508 v 23.20313 h 11.87011 V 101.3916 h -27.55371 v -9.667967 h 38.24219 q 5.37109,-9.399414 9.23828,-20.893555 l 11.11817,3.867188 q -4.61915,9.721679 -9.61426,17.026367 h 17.34863 v 9.667967 h -28.57422 v 30.23926 z m 30.56152,-71.918946 v 89.965816 q 0,5.42481 -2.90039,7.78809 -2.79297,2.25586 -9.72168,2.25586 -5.4248,0 -18.53027,-0.91309 l -2.73926,-11.333 q 9.3457,1.12793 18.31543,1.12793 3.00781,0 3.54492,-1.02051 0.37598,-0.69824 0.37598,-2.73926 V 69.80957 h -72.08008 v 90.66406 H 117.3584 V 59.711914 Z M 146.8457,91.455078 q -3.59863,-8.59375 -8.16406,-15.683594 l 10.04395,-4.296875 q 5.04882,7.358399 8.43261,15.46875 z M 312.16797,58.583984 V 110.62988 H 248.25195 V 58.583984 Z m -52.36817,8.486328 v 6.713868 h 40.7129 v -6.713868 z m 0,14.28711 v 6.713867 h 40.7129 v -6.713867 z m 0,14.287109 v 6.928709 h 40.7129 v -6.928709 z m -21.6455,22.128909 h 89.05273 v 9.3457 h -44.41894 v 33.35449 H 270.5957 V 127.11914 H 226.3916 V 66.855469 h 11.7627 z m -13.75,32.4414 q 12.7832,-5.9082 24.43847,-19.81933 l 9.88282,5.74707 q -11.49414,14.55566 -25.5127,22.88086 z m 92.59765,6.92871 q -8.21777,-10.09765 -24.70703,-21.21582 l 9.23828,-6.49902 q 12.94434,7.46582 25.40528,19.60449 z m 85.61524,-31.58203 q 13.32031,11.87012 35.8789,19.17481 l -6.92871,10.09765 q -12.99804,-4.61914 -22.66601,-11.17187 -9.99024,-6.82129 -18.42285,-16.75781 v 33.56933 h -11.65528 v -32.97851 q -7.46582,10.47363 -19.28222,18.79883 -9.07715,6.3916 -19.44336,10.3125 l -7.3584,-9.45313 q 17.02636,-5.63965 28.41308,-15.2002 3.22266,-2.68554 6.55274,-6.3916 H 341.87012 V 81.572266 h 36.95312 V 74.321289 H 334.29687 V 64.65332 h 44.52637 v -8.701172 h 11.65528 v 8.701172 h 45.2246 v 9.667969 h -45.2246 v 7.250977 h 37.65136 V 125.56152 Z M 378.82324,90.595703 h -25.29785 v 8.701172 h 25.29785 z m 11.65528,0 v 8.701172 h 25.99609 v -8.701172 z m -11.65528,17.080077 h -25.29785 v 8.86231 h 25.29785 z m 11.65528,0 v 8.86231 h 25.99609 v -8.86231 z m 87.9248,-39.316405 h 22.98828 v 10.366211 h -7.57324 q -2.04102,8.217773 -5.47852,17.241211 h 14.34082 v 10.366213 h -59.9414 V 95.966797 h 13.15918 Q 453.75,85.654297 451.38672,78.725586 H 444.4043 V 68.359375 h 22.77343 V 55.952148 h 11.22559 z m -16.16699,10.366211 q 2.73926,8.00293 4.24316,17.241211 h 10.95703 l 0.53711,-1.503906 q 2.30957,-6.123047 4.29688,-13.911133 l 0.4834,-1.826172 z m 33.30078,36.630864 v 43.98925 h -11.01074 v -5.26367 H 461.1084 v 6.3916 h -11.33301 v -45.11718 z m -34.42871,9.88281 v 18.63769 h 23.41797 v -18.63769 z m 71.75781,-27.124026 q 6.3916,6.069336 10.15137,14.448246 3.70605,8.3789 3.70605,16.97265 0,7.94922 -2.9541,11.70899 -3.06152,3.9209 -10.09766,3.9209 -6.01562,0 -11.65527,-0.85938 l -2.63183,-11.44043 q 6.49902,1.18164 10.74218,1.18164 3.22266,0 4.02832,-1.5039 0.53711,-1.07422 0.53711,-4.29688 0,-13.2666 -7.94922,-22.88086 -2.09472,-2.52441 -5.26367,-5.424804 l 0.64453,-1.503906 q 5.58594,-12.62207 8.70118,-26.318359 h -13.75 V 160.47363 H 505.95703 V 61.000977 h 32.33399 l 5.96191,5.478515 q -5.42481,18.476563 -11.38672,31.635742 z"></path>
</svg>
