<svg xmlns="http://www.w3.org/2000/svg" id="svg1" version="1.1" height="200" width="1096">
  <defs id="defs1"></defs>
  <rect id="rect1" stroke="none" fill="none" height="200" width="1096" y="0" x="0"></rect>
  <path aria-label="青森県津軽南部" style="font-weight:bold;font-size:110px;font-family:'BIZ UDPGothic';fill:#ff0000" id="text1" d="m 48.71582,62.880859 v -6.928711 h 11.870117 v 6.928711 h 40.498043 v 8.164063 H 60.585937 v 5.15625 H 95.12207 v 8.164062 H 60.585937 v 5.263672 h 46.674803 v 8.378906 H 2.7392578 V 89.628906 H 48.71582 V 84.365234 H 14.716797 V 76.201172 H 48.71582 v -5.15625 H 8.8085938 v -8.164063 z m 43.881836,40.712891 v 46.72852 q 0,5.74707 -2.846679,7.8955 -2.416993,1.82618 -8.217774,1.82618 -7.412109,0 -17.885742,-0.91309 L 61.821289,149.0332 q 9.023438,1.18164 15.307617,1.18164 2.524414,0 3.061524,-0.80566 0.429687,-0.64453 0.429687,-2.57813 V 140.6543 H 30.239258 v 19.81933 H 18.154297 v -56.87988 z m -62.358398,8.37891 v 6.01562 h 50.380859 v -6.01562 z m 0,14.17968 v 6.33789 h 50.380859 v -6.33789 z M 179.93164,75.825195 q 14.87793,10.473633 35.98633,17.617188 l -6.71387,9.829097 Q 183.90625,93.28125 170.47852,79.316406 V 106.44043 H 158.82324 V 80.283203 q -13.53515,16.05957 -38.08105,24.384767 l -6.44531,-8.701173 q 14.71679,-4.726563 23.79394,-10.097656 7.3584,-4.350586 13.10547,-10.043946 h -32.97852 v -9.882812 h 40.60547 v -9.990235 h 11.65528 v 9.990235 h 41.57226 v 9.882812 z m -45.22461,55.859375 q -7.14355,12.7832 -17.83203,22.0752 l -6.12305,-9.7754 q 13.37403,-9.50683 21.80664,-23.5791 h -19.87304 v -9.56054 h 22.02148 v -10.58106 h 11.01074 v 10.58106 h 16.27442 v 9.56054 h -16.27442 v 2.57813 q 9.07715,5.53222 17.29493,12.40722 l -7.19727,8.11036 q -3.38379,-3.86719 -10.09766,-10.04395 v 27.0166 h -11.01074 z m 62.03613,-11.2793 q 8.05664,12.46094 22.34375,21.91407 l -6.06933,10.68847 q -12.46094,-10.52734 -18.69141,-21.86035 v 29.32617 h -11.01074 v -28.30566 q -6.76758,12.24609 -17.93945,21.05469 l -6.60645,-8.48633 q 14.28711,-10.47363 21.91406,-24.33106 h -14.50195 v -9.56054 h 17.13379 v -10.58106 h 11.01074 v 10.58106 h 22.88086 v 9.56054 z M 312.16797,58.583984 V 110.62988 H 248.25195 V 58.583984 Z m -52.36817,8.486328 v 6.713868 h 40.7129 v -6.713868 z m 0,14.28711 v 6.713867 h 40.7129 v -6.713867 z m 0,14.287109 v 6.928709 h 40.7129 v -6.928709 z m -21.6455,22.128909 h 89.05273 v 9.3457 h -44.41894 v 33.35449 H 270.5957 V 127.11914 H 226.3916 V 66.855469 h 11.7627 z m -13.75,32.4414 q 12.7832,-5.9082 24.43847,-19.81933 l 9.88282,5.74707 q -11.49414,14.55566 -25.5127,22.88086 z m 92.59765,6.92871 q -8.21777,-10.09765 -24.70703,-21.21582 l 9.23828,-6.49902 q 12.94434,7.46582 25.40528,19.60449 z m 84.48731,-49.03808 v 7.68066 h 29.27246 v 8.8086 h -29.27246 v 7.8955 h 33.67676 v 9.45313 h -33.67676 v 18.53027 h -11.54785 v -18.53027 h -30.88379 v -9.45313 h 30.88379 v -7.8955 h -26.26465 v -8.8086 h 26.26465 v -7.68066 h -23.20313 v -8.164064 h 23.20313 v -8.432617 h -32.22657 v -8.701172 h 32.22657 v -8.271484 h -22.66602 v -8.486328 h 22.66602 V 55.952148 h 11.54785 v 10.097657 h 26.85547 v 16.757812 h 9.3457 v 8.701172 h -9.3457 v 16.596681 z m 0,-8.164064 h 15.62988 v -8.432617 h -15.62988 z m 0,-17.133789 h 15.62988 v -8.271484 h -15.62988 z m -49.46778,-1.342773 q -6.71386,-9.238282 -16.05957,-17.026367 l 8.3252,-7.841797 q 10.09766,7.734375 16.43555,16.274414 z m -3.75976,27.929686 Q 340.47363,99.135742 331.9873,91.938477 l 8.27149,-8.056641 q 8.64746,6.552734 16.91894,16.704104 z m -14.39453,42.80762 q 10.3125,-16.86524 17.56347,-37.97363 l 9.39942,6.60644 q -6.71387,21.37695 -16.86524,39.37012 z M 462.45117,84.204102 v -7.358399 h -18.79883 v -9.667969 h 18.79883 V 55.952148 h 10.20508 v 11.225586 h 17.93945 v 9.667969 h -17.93945 v 7.358399 h 16.38184 v 40.390628 h -16.38184 v 7.35839 h 19.55078 v 9.7754 h -19.55078 v 18.6914 h -10.20508 v -18.6914 h -20.1416 v -9.7754 h 20.1416 v -7.35839 H 446.60645 V 84.204102 Z m 0.42969,8.808593 h -7.78809 v 7.358395 h 7.78809 z m 9.45312,0 v 7.358395 h 8.00293 v -7.358395 z m -9.45312,15.200195 h -7.78809 v 7.68066 h 7.78809 z m 9.45312,0 v 7.68066 h 8.00293 v -7.68066 z m 40.71289,12.46094 v -12.03125 h 10.7959 v 12.03125 h 20.35645 v 9.88281 h -20.35645 v 16.7041 h 23.31055 v 9.88281 h -58.00781 v -9.88281 h 23.90136 v -16.7041 h -18.90625 v -9.88281 z m 6.12305,-21.591799 q -9.93652,8.110349 -23.41797,13.803709 l -6.3916,-8.32519 Q 502.51953,99.511719 511.16699,92.207031 500.74707,81.733398 496.18164,70.668945 h -3.59863 v -9.882812 h 44.63379 l 5.96191,5.263672 q -7.51953,16.381836 -16.7041,26.103515 9.29199,6.230469 22.6123,10.20508 l -5.37109,9.3457 q -13.96484,-4.78027 -24.5459,-12.622069 z M 506.33301,70.668945 q 4.56543,8.164063 11.87011,15.039063 6.3379,-6.982422 10.68848,-15.039063 z m 92.70508,49.843755 h -22.23633 v -8.8086 h 10.74219 q -2.417,-5.47851 -5.47852,-10.20508 l 9.66797,-3.544918 q 4.18945,7.036128 6.76758,13.749998 h 12.62207 q 3.16894,-6.49902 5.58593,-13.964842 l 10.7959,3.383792 q -2.73926,5.9082 -5.80078,10.58105 h 11.54785 v 8.8086 h -22.98828 v 7.84179 h 24.49219 v 9.13086 h -24.49219 v 20.30274 h -11.22558 v -20.30274 h -23.57911 v -9.13086 h 23.57911 z m 11.54785,-33.085942 h 40.71289 v 62.788082 q 0,5.53223 -2.9541,7.78809 -2.47071,1.93359 -8.3252,1.93359 -7.57324,0 -14.60937,-0.80566 l -2.63184,-10.7959 q 9.39941,1.12793 14.07227,1.12793 1.93359,0 2.25586,-0.9668 0.21484,-0.59082 0.21484,-1.66504 V 96.772461 H 570.67871 V 160.47363 H 558.70117 V 87.426758 h 40.01465 v -9.72168 h -45.97656 v -9.990234 h 45.97656 V 55.952148 h 11.87012 v 11.762696 h 46.62109 v 9.990234 h -46.62109 z m 87.81738,-19.067383 h 22.98828 v 10.366211 h -7.57324 q -2.04102,8.217773 -5.47852,17.241211 h 14.34082 v 10.366213 h -59.9414 V 95.966797 h 13.15918 Q 673.75,85.654297 671.38672,78.725586 H 664.4043 V 68.359375 h 22.77343 V 55.952148 h 11.22559 z m -16.16699,10.366211 q 2.73926,8.00293 4.24316,17.241211 h 10.95703 l 0.53711,-1.503906 q 2.30957,-6.123047 4.29688,-13.911133 l 0.4834,-1.826172 z m 33.30078,36.630864 v 43.98925 h -11.01074 v -5.26367 H 681.1084 v 6.3916 h -11.33301 v -45.11718 z m -34.42871,9.88281 v 18.63769 h 23.41797 v -18.63769 z m 71.75781,-27.124026 q 6.3916,6.069336 10.15137,14.448246 3.70605,8.3789 3.70605,16.97265 0,7.94922 -2.9541,11.70899 -3.06152,3.9209 -10.09766,3.9209 -6.01562,0 -11.65527,-0.85938 l -2.63183,-11.44043 q 6.49902,1.18164 10.74218,1.18164 3.22266,0 4.02832,-1.5039 0.53711,-1.07422 0.53711,-4.29688 0,-13.2666 -7.94922,-22.88086 -2.09472,-2.52441 -5.26367,-5.424804 l 0.64453,-1.503906 q 5.58594,-12.62207 8.70118,-26.318359 h -13.75 V 160.47363 H 725.95703 V 61.000977 h 32.33399 l 5.96191,5.478515 q -5.42481,18.476563 -11.38672,31.635742 z"></path>
</svg>
