<svg xmlns="http://www.w3.org/2000/svg" id="svg1" version="1.1" height="200" width="1096">
  <defs id="defs1"></defs>
  <rect id="rect1" stroke="none" fill="none" height="200" width="1096" y="0" x="0"></rect>
  <path aria-label="種子島近海" style="font-weight:bold;font-size:110px;font-family:'BIZ UDPGothic';fill:#ff0000" id="text1" d="M 18.476562,116.91406 Q 13.803711,130.77148 6.9287109,141.19141 L 0.4296875,129.64355 Q 11.547852,116.37695 17.241211,96.987305 l 0.322266,-1.12793 H 2.6318359 V 85.761719 H 18.476562 V 71.313477 Q 12.246094,72.548828 6.4990234,73.354492 L 2.6318359,64.65332 Q 21.967773,61.914062 35.180664,56.274414 l 5.74707,8.701172 q -5.15625,1.987305 -11.762695,3.813476 V 85.761719 H 40.283203 V 95.859375 H 29.165039 v 7.895505 q 6.230469,4.56543 13.535156,12.13867 l -6.069336,10.36622 q -3.4375,-5.3711 -6.713867,-9.56055 l -0.751953,-0.9668 v 44.74121 H 18.476562 Z M 67.407227,89.145508 V 83.237305 H 40.605469 v -8.808594 h 26.801758 v -5.532227 l -1.020508,0.05371 q -8.701172,0.805664 -20.195313,1.396485 l -3.4375,-8.325196 Q 70.952148,60.625 95.014648,56.05957 l 6.230472,8.271485 q -11.118167,2.30957 -23.417972,3.544922 v 6.552734 h 29.057622 v 8.808594 H 77.827148 v 5.908203 H 102.37305 V 127.22656 H 77.827148 v 5.90821 h 25.620122 v 8.59375 H 77.827148 v 6.28418 h 29.916992 v 9.13085 H 36.953125 v -9.13085 h 30.454102 v -6.28418 H 42.431641 v -8.59375 h 24.975586 v -5.90821 H 43.666992 V 89.145508 Z M 67.62207,96.71875 H 53.764648 v 7.62695 H 67.62207 Z m 9.990235,0 v 7.62695 H 92.382812 V 96.71875 Z M 67.62207,111.59668 H 53.764648 v 7.94922 H 67.62207 Z m 9.990235,0 v 7.94922 h 14.770507 v -7.94922 z M 172.25098,92.744141 v 11.708989 h 43.93554 v 10.79589 h -43.93554 v 33.67676 q 0,5.20996 -2.52442,7.73438 -2.90039,2.90039 -10.95703,2.90039 -9.18457,0 -17.40234,-0.75196 l -2.84668,-11.76269 q 10.84961,1.18164 18.20801,1.18164 2.30957,0 2.84668,-0.80567 0.48339,-0.69824 0.48339,-2.68554 v -29.48731 h -46.1914 v -10.79589 h 46.1914 V 87.749023 l 0.80567,-0.429687 q 8.48633,-4.404297 22.50488,-14.985352 h -57.9541 V 61.645508 h 74.12109 l 6.06934,6.391601 q -7.30469,6.28418 -17.13379,13.481446 -9.99023,7.304687 -16.2207,11.225586 z m 90.34179,-28.62793 q 1.98731,-4.780274 3.22266,-9.130859 l 13.10547,1.77246 q -1.87988,4.458008 -3.4375,7.358399 h 35.77148 v 35.019531 h -64.88281 v 5.424808 h 80.83496 v 8.70117 h -80.83496 v 5.47851 h 77.0752 q -0.69825,24.59961 -3.11524,33.19336 -1.55762,5.47852 -5.85449,7.25098 -3.06152,1.28906 -9.3457,1.28906 -6.44532,0 -12.03125,-0.80566 l -2.14844,-9.02344 h -53.81836 v 5.96192 h -11.54785 v -25.83497 h 11.54785 v 11.06446 h 18.47656 v -14.50196 h -21.1084 V 64.116211 Z m 22.82715,77.719729 v -11.06446 h 11.11817 v 18.69141 q 4.458,0.42969 7.41211,0.42969 3.65234,0 4.56542,-2.09473 1.77247,-3.9209 2.79297,-20.46387 H 267.1582 v 14.50196 z M 246.37207,72.387695 v 5.317383 h 53.0127 v -5.317383 z m 0,12.998047 v 5.854492 h 53.0127 v -5.854492 z m 113.97461,50.649418 q 4.29687,4.99511 9.66797,7.41211 8.80859,3.9746 23.0957,3.9746 h 45.76172 q -1.93359,3.65235 -3.59863,10.47364 h -42.7002 q -18.47656,0 -28.30566,-5.80078 -4.02832,-2.417 -8.86231,-7.89551 -0.37597,0.42969 -0.91308,1.07422 -7.89551,9.3457 -15.6836,15.2539 l -6.49902,-11.01074 q 8.54004,-5.10254 16.48926,-11.54785 v -26.5332 h -15.62988 v -10.58106 h 27.17773 z m 13.96484,-71.274418 2.84668,-0.214844 q 24.86817,-1.71875 44.6875,-7.358398 l 8.37891,9.453125 q -20.83984,5.478516 -44.47266,7.412109 v 13.911133 h 49.73633 V 98.4375 h -18.04687 v 43.77441 H 405.57129 V 98.4375 h -19.81934 q -0.26855,17.24121 -2.57812,27.44629 -2.09473,9.39941 -6.875,16.86523 l -9.88281,-7.46582 q 5.31738,-8.27148 6.82128,-20.51757 1.07422,-8.43262 1.07422,-22.934575 z M 354.43848,85.761719 Q 346.2207,74.160156 336.71387,64.975586 l 8.80859,-7.036133 q 9.23828,7.734375 18.58399,19.658203 z M 537.7002,85.117187 q 0,2.524415 -0.4834,23.955083 h 10.25879 v 9.66796 h -10.47364 q -0.16113,7.03614 -0.69824,15.95215 h 9.07715 v 9.45313 h -9.77539 q -0.64453,7.78808 -1.77246,10.3125 -2.52442,6.01562 -12.2461,6.01562 -6.23046,0 -11.49414,-0.91308 L 508.10547,150 q 7.57324,1.07422 11.60156,1.07422 3.27637,0 3.9209,-2.30957 0.32227,-1.12793 0.59082,-4.61914 h -38.24219 q -0.0537,0.42969 -0.16113,0.91308 -0.4834,2.84668 -0.91309,5.3711 l -11.11816,-1.07422 q 3.27637,-19.38965 4.4043,-29.32617 l 0.16113,-1.28907 h -10.74219 v -9.66796 h 11.87012 q 1.50391,-12.998051 2.57812,-23.955083 z m -33.94532,9.345704 h -11.76269 q -0.16114,2.739257 -0.9668,11.547849 l -0.32227,3.06153 h 11.92383 l 0.16114,-1.50391 q 0.10742,-1.55762 0.32226,-4.35059 0.53711,-7.519528 0.64453,-8.754879 z m 10.58106,0 q -0.26856,6.391599 -0.80567,14.125979 v 0.4834 h 12.62207 q 0.21485,-7.3584 0.37598,-14.609379 z m -12.56836,24.277339 h -12.08496 q -0.80567,6.55274 -1.71875,12.94434 l -0.42969,3.00781 h 12.56836 q 1.28906,-11.65527 1.66504,-15.95215 z m 11.01074,0 q -0.16113,2.14844 -0.64453,7.08985 l -0.85938,8.8623 h 13.69629 q 0.26856,-5.20996 0.42969,-7.84179 0.32227,-5.74707 0.42969,-8.11036 z M 491.72363,65.727539 h 51.88477 v 9.990234 h -56.34278 q -4.35058,8.862305 -11.06445,16.865235 l -7.68066,-8.378906 Q 479.10156,71.796875 483.55957,55.629883 L 495,56.811523 q -1.93359,5.585938 -3.27637,8.916016 z m -29.59472,15.629883 q -6.60645,-9.077149 -16.05957,-17.026367 l 8.11035,-7.841797 q 8.75488,6.445312 16.65039,16.274414 z M 458.26172,109.7168 Q 450.09766,99.243164 441.77246,92.15332 l 8.37891,-8.05664 q 9.3457,7.358398 16.81152,16.75781 z m -14.60938,42.16308 q 9.34571,-12.94433 17.72461,-34.10644 l 9.56055,6.82129 q -6.98242,19.55078 -17.93945,35.8789 z"></path>
</svg>
