<svg xmlns="http://www.w3.org/2000/svg" id="svg1" version="1.1" height="200" width="1096">
  <defs id="defs1"></defs>
  <rect id="rect1" stroke="none" fill="none" height="200" width="1096" y="0" x="0"></rect>
  <path aria-label="広島県南西部" style="font-weight:bold;font-size:110px;font-family:'BIZ UDPGothic';fill:#ff0000" id="text1" d="M 63.378906,71.367187 H 104.62891 V 82.37793 H 22.93457 v 17.026367 q 0,25.405273 -2.470703,38.725583 Q 18.208008,150 12.514648,159.8291 l -9.7753902,-9.13086 q 5.4248047,-9.93652 6.928711,-23.95508 1.1279292,-9.93652 1.1279292,-27.338863 V 71.367187 H 50.97168 V 55.952148 H 63.378906 Z M 31.474609,143.93066 q 0.214844,-0.42968 0.53711,-1.18164 11.386718,-23.90136 20.195312,-54.999997 l 12.407227,2.84668 q -10.84961,33.676757 -20.463867,52.421877 7.680664,-0.69824 11.547851,-1.02051 19.013672,-1.55762 29.326172,-3.16895 -6.821289,-12.99804 -12.675781,-22.50488 l 10.419922,-5.04883 q 12.246093,18.26172 23.095705,41.46485 l -10.957033,7.03613 q -2.148438,-4.88769 -5.263672,-11.54785 -27.714844,4.99512 -66.010743,8.16406 l -4.189453,-11.76269 q 3.383789,-0.16114 6.875,-0.37598 z M 152.59277,64.116211 q 1.98731,-4.780274 3.22266,-9.130859 l 13.10547,1.77246 q -1.87988,4.458008 -3.4375,7.358399 h 35.77148 v 35.019531 h -64.88281 v 5.424808 h 80.83496 v 8.70117 h -80.83496 v 5.47851 h 77.0752 q -0.69825,24.59961 -3.11524,33.19336 -1.55762,5.47852 -5.85449,7.25098 -3.06152,1.28906 -9.3457,1.28906 -6.44532,0 -12.03125,-0.80566 l -2.14844,-9.02344 h -53.81836 v 5.96192 h -11.54785 v -25.83497 h 11.54785 v 11.06446 h 18.47656 v -14.50196 h -21.1084 V 64.116211 Z m 22.82715,77.719729 v -11.06446 h 11.11817 v 18.69141 q 4.458,0.42969 7.41211,0.42969 3.65234,0 4.56542,-2.09473 1.77247,-3.9209 2.79297,-20.46387 H 157.1582 v 14.50196 z M 136.37207,72.387695 v 5.317383 h 53.0127 v -5.317383 z m 0,12.998047 v 5.854492 h 53.0127 V 85.385742 Z M 312.16797,58.583984 V 110.62988 H 248.25195 V 58.583984 Z m -52.36817,8.486328 v 6.713868 h 40.7129 v -6.713868 z m 0,14.28711 v 6.713867 h 40.7129 v -6.713867 z m 0,14.287109 v 6.928709 h 40.7129 v -6.928709 z m -21.6455,22.128909 h 89.05273 v 9.3457 h -44.41894 v 33.35449 H 270.5957 V 127.11914 H 226.3916 V 66.855469 h 11.7627 z m -13.75,32.4414 q 12.7832,-5.9082 24.43847,-19.81933 l 9.88282,5.74707 q -11.49414,14.55566 -25.5127,22.88086 z m 92.59765,6.92871 q -8.21777,-10.09765 -24.70703,-21.21582 l 9.23828,-6.49902 q 12.94434,7.46582 25.40528,19.60449 z m 62.03614,-36.63085 h -22.23633 v -8.8086 h 10.74219 q -2.417,-5.47851 -5.47852,-10.20508 l 9.66797,-3.544918 q 4.18945,7.036128 6.76758,13.749998 h 12.62207 q 3.16894,-6.49902 5.58593,-13.964842 l 10.7959,3.383792 q -2.73926,5.9082 -5.80078,10.58105 h 11.54785 v 8.8086 h -22.98828 v 7.84179 h 24.49219 v 9.13086 h -24.49219 v 20.30274 h -11.22558 v -20.30274 h -23.57911 v -9.13086 h 23.57911 z m 11.54785,-33.085942 h 40.71289 v 62.788082 q 0,5.53223 -2.9541,7.78809 -2.47071,1.93359 -8.3252,1.93359 -7.57324,0 -14.60937,-0.80566 l -2.63184,-10.7959 q 9.39941,1.12793 14.07227,1.12793 1.93359,0 2.25586,-0.9668 0.21484,-0.59082 0.21484,-1.66504 V 96.772461 H 350.67871 V 160.47363 H 338.70117 V 87.426758 h 40.01465 v -9.72168 h -45.97656 v -9.990234 h 45.97656 V 55.952148 h 11.87012 v 11.762696 h 46.62109 v 9.990234 h -46.62109 z m 84.80957,-0.805664 V 71.582031 H 443.38379 V 61.21582 h 103.28613 v 10.366211 h -35.50293 v 15.039063 h 30.13184 v 72.402346 h -11.65528 v -7.57324 h -69.34082 v 7.57324 H 448.75488 V 86.621094 Z m 11.11816,0 h 13.53516 V 71.582031 h -13.53516 z m -11.17187,9.77539 h -15.03907 v 44.848636 h 69.34082 v -16.11328 h -20.35644 q -9.23828,0 -9.23828,-9.23829 V 96.396484 h -13.64258 q -0.21484,13.212896 -3.97461,21.162106 -3.54492,7.57325 -13.96484,14.98536 l -7.41211,-8.27149 q 9.99023,-6.12305 12.62207,-15.14648 1.39648,-4.83399 1.66504,-12.729496 z m 35.82519,0 v 16.435546 q 0,2.09473 1.87988,2.09473 h 16.59668 V 96.396484 Z m 77.23633,-28.037109 h 22.98828 v 10.366211 h -7.57324 q -2.04102,8.217773 -5.47852,17.241211 h 14.34082 v 10.366213 h -59.9414 V 95.966797 h 13.15918 Q 563.75,85.654297 561.38672,78.725586 H 554.4043 V 68.359375 h 22.77343 V 55.952148 h 11.22559 z m -16.16699,10.366211 q 2.73926,8.00293 4.24316,17.241211 h 10.95703 l 0.53711,-1.503906 q 2.30957,-6.123047 4.29688,-13.911133 l 0.4834,-1.826172 z m 33.30078,36.630864 v 43.98925 h -11.01074 v -5.26367 H 571.1084 v 6.3916 h -11.33301 v -45.11718 z m -34.42871,9.88281 v 18.63769 h 23.41797 v -18.63769 z m 71.75781,-27.124026 q 6.3916,6.069336 10.15137,14.448246 3.70605,8.3789 3.70605,16.97265 0,7.94922 -2.9541,11.70899 -3.06152,3.9209 -10.09766,3.9209 -6.01562,0 -11.65527,-0.85938 l -2.63183,-11.44043 q 6.49902,1.18164 10.74218,1.18164 3.22266,0 4.02832,-1.5039 0.53711,-1.07422 0.53711,-4.29688 0,-13.2666 -7.94922,-22.88086 -2.09472,-2.52441 -5.26367,-5.424804 l 0.64453,-1.503906 q 5.58594,-12.62207 8.70118,-26.318359 h -13.75 V 160.47363 H 615.95703 V 61.000977 h 32.33399 l 5.96191,5.478515 q -5.42481,18.476563 -11.38672,31.635742 z"></path>
</svg>
