<svg xmlns="http://www.w3.org/2000/svg" id="svg1" version="1.1" height="200" width="990">
  <defs id="defs1"></defs>
  <rect id="rect1" stroke="none" fill="none" height="200" width="990" y="0" x="0"></rect>
  <path aria-label="グアム付近" style="font-size:100px;font-family:'BIZ UDPGothic';fill:#ff0000" id="text1" d="m 72.167969,81.689453 6.396484,6.201172 Q 73.535156,115.82031 58.837891,131.98242 45.605469,146.48437 20.166016,154.24805 l -4.589844,-6.98243 Q 38.427734,140.91797 51.269531,127.83203 65.722656,113.08594 70.410156,88.867187 H 35.400391 Q 25.927734,103.51563 12.5,112.64648 L 6.7871094,106.98242 Q 16.699219,100.39063 23.388672,92.382812 31.640625,82.470703 36.474609,68.896484 l 7.617188,2.197266 q -1.806641,5.322266 -4.492188,10.595703 z m 5.126953,1.708984 Q 74.072266,74.951172 69.091797,67.822266 l 6.201172,-1.904297 q 5.175781,7.080078 8.300781,15.380859 z M 90.185547,80.615234 Q 86.71875,71.630859 81.982422,64.599609 l 6.103515,-1.904297 q 5.078125,7.275391 8.300782,15.722657 z m 10.058593,-4.199218 h 76.12305 l 5.27343,4.492187 q -4.19921,16.308594 -15.47851,25.537107 -6.20117,5.07813 -15.52734,8.64258 l -4.6875,-6.00586 q 13.91601,-4.54101 21.58203,-14.941405 3.51562,-4.833984 5.02929,-10.644531 h -72.31445 z m 32.51953,18.164062 h 7.86133 v 8.203122 q 0,19.18946 -3.75977,29.00391 -5.02929,13.03711 -20.70312,21.19141 l -5.81055,-5.95704 q 10.74219,-5.17578 15.9668,-13.23242 3.56445,-5.41992 4.78516,-11.03515 1.66015,-7.66602 1.66015,-19.97071 z m 56.98242,45.312502 q 3.17383,-0.0977 8.10547,-0.48828 13.86719,-30.12696 25.39063,-68.31055 l 8.00781,2.392578 q -11.66992,37.158202 -24.80469,65.332032 26.36719,-2.05078 49.21875,-5.12695 -7.95898,-14.20899 -14.69726,-23.48633 l 6.68945,-4.10156 q 13.52539,17.91992 24.90234,41.01562 l -7.8125,4.19922 -0.14648,-0.29297 q -2.19727,-4.6875 -4.78516,-9.81445 l -0.58593,-1.12305 q -23.82813,4.10156 -67.57813,8.39844 z M 301.51367,90.185547 v 69.335933 h -7.71484 v -55.37109 q -0.19531,0.29297 -0.48828,0.73242 -4.39453,7.17774 -10.88868,14.69727 l -4.10156,-7.37305 q 9.76563,-11.32812 16.35742,-25.195311 4.73633,-9.91211 8.83789,-22.900391 l 7.61719,2.099609 q -4.49219,13.427735 -9.61914,23.97461 z m 55.22461,-2.001953 h 16.60156 v 7.177734 h -16.60156 v 54.541012 q 0,5.17578 -2.49023,7.17774 -2.09961,1.61133 -7.76368,1.61133 -7.91015,0 -14.74609,-0.6836 L 330.12695,150 q 8.44727,1.2207 15.625,1.2207 2.14844,0 2.68555,-0.78125 0.39062,-0.63476 0.39062,-2.4414 V 95.361328 h -42.7246 v -7.177734 h 42.7246 V 65.283203 h 7.91016 z m -28.41797,45.410156 q -5.71289,-14.30664 -13.81836,-26.07422 l 6.49414,-4.19922 q 8.39844,12.35352 14.20899,25.87891 z m 74.21875,4.73633 q 4.29688,4.44336 9.81446,7.22656 8.59375,4.3457 23.58398,4.3457 h 38.37891 q -1.41602,2.88086 -2.49024,6.88477 h -36.08398 q -16.35742,0 -25.63477,-4.58984 -5.5664,-2.78321 -10.74219,-8.20313 -8.34961,9.57031 -16.25976,15.47852 l -4.58985,-7.08008 q 7.95899,-4.98047 16.40625,-12.5 v -25.6836 h -16.21093 v -6.7871 h 23.82812 z m 14.45313,-64.11133 q 1.70898,-0.146484 3.71093,-0.292969 21.92383,-1.80664 39.99024,-7.617187 l 5.61523,6.103515 q -17.91992,5.371094 -41.60156,7.763672 v 14.941406 h 47.41211 v 6.884763 h -17.91992 v 43.40821 h -7.8125 v -43.40821 h -21.67969 q 0,13.52539 -1.17187,22.07032 -1.5625,11.4746 -6.83594,20.21484 l -6.49414,-5.17578 q 4.78515,-8.30078 6.00586,-19.33594 0.78125,-7.27539 0.78125,-20.654296 z m -18.35938,14.697266 q -7.51953,-9.960938 -15.52734,-17.138672 l 5.51758,-4.6875 q 8.20312,6.689453 15.96679,16.308593 z"></path>
</svg>
