<svg version="1.1" xmlns="http://www.w3.org/2000/svg" xmlns:xlink="http://www.w3.org/1999/xlink" width="200.89029" height="82.93636" viewBox="0,0,200.89029,82.93636"><g transform="translate(-139.55487,-138.53191)"><g stroke-miterlimit="10"><g><path d="M188.62635,191.12303c-3.53433,0 -6.39948,-2.86514 -6.39948,-6.39948v-9.4471c0,-3.53433 2.86514,-6.39948 6.39948,-6.39948h102.7473c3.53433,0 6.39948,2.86514 6.39948,6.39948v9.4471c0,3.53433 -2.86514,6.39948 -6.39948,6.39948z" fill="#2b3f62" stroke="#6c82a9" stroke-width="1.32292"/><path d="M200.06844,175.70733h1.0973v2.70323c1.87437,0.57769 3.42693,1.16795 4.65767,1.77076l-0.52746,1.01725c-1.18051,-0.59967 -2.55724,-1.16952 -4.13021,-1.70954v4.78482h-1.0973zM206.69937,179.32419h8.29337v1.05963h-8.29337zM222.62208,176.90352l0.73468,0.60752c-0.35478,1.98426 -1.00626,3.50071 -1.95443,4.54935c-0.86341,0.95445 -2.16322,1.69227 -3.89944,2.21345l-0.58868,-0.95602c1.5918,-0.40188 2.8037,-1.05179 3.6357,-1.94972c0.80689,-0.86655 1.34691,-2.03293 1.62006,-3.49914h-3.17418c-0.65933,0.99841 -1.43325,1.79588 -2.32177,2.39241l-0.77235,-0.78177c0.72212,-0.46467 1.3108,-0.97015 1.76605,-1.51645c0.5149,-0.62165 0.91677,-1.37045 1.20562,-2.24641l1.02196,0.27785c-0.11303,0.32967 -0.23547,0.63264 -0.36734,0.90893zM227.98616,178.26456c-0.99213,-0.44269 -2.0235,-0.79747 -3.09412,-1.06434l0.32966,-1.01254c1.24016,0.28257 2.28095,0.63421 3.12238,1.05492zM225.00978,182.95049c1.55412,-0.13187 2.74404,-0.40973 3.56977,-0.83358c0.97329,-0.50234 1.72053,-1.27312 2.24171,-2.31235c0.33908,-0.67188 0.6138,-1.55098 0.82416,-2.6373l0.90422,0.66404c-0.25431,1.16167 -0.562,2.08472 -0.92306,2.76916c-0.65305,1.24644 -1.65145,2.14909 -2.99522,2.70795c-0.84771,0.35164 -1.98112,0.60281 -3.40024,0.75351zM234.09434,176.76224h2.53841c0.27943,-0.44583 0.49135,-0.80532 0.63578,-1.07847l1.05021,0.1507c-0.09419,0.16954 -0.2606,0.44583 -0.49921,0.82887l-0.0612,0.0989h3.32017v0.92776h-3.94653c-0.41129,0.56514 -0.80375,1.05493 -1.17737,1.46936c0.59339,-0.35478 1.13498,-0.53217 1.62477,-0.53217c0.75979,0 1.25743,0.38147 1.4929,1.1444c0.80375,-0.26687 1.6232,-0.5306 2.45834,-0.79119l0.40502,0.91363l-0.16483,0.0471l-0.46624,0.12244c-0.8791,0.23861 -1.58238,0.44269 -2.10984,0.61224c0.03767,0.40815 0.06437,0.93561 0.0801,1.58238l-1.03137,0.0565c-0.00333,-0.37362 -0.0096,-0.77863 -0.0188,-1.21504v-0.0942c-1.44424,0.49292 -2.16636,0.98898 -2.16636,1.48819c0,0.25745 0.18524,0.43327 0.55572,0.52746c0.35792,0.09105 0.99841,0.13657 1.92146,0.13657c0.85085,0 1.74408,-0.04866 2.67969,-0.14599l0.11303,1.00312c-0.90736,0.06907 -1.84768,0.10361 -2.82097,0.10361c-1.19935,0 -2.05176,-0.09105 -2.55725,-0.27315c-0.62479,-0.22605 -0.93718,-0.63264 -0.93718,-1.21976c0,-0.49606 0.22135,-0.93404 0.66404,-1.31394c0.45839,-0.39245 1.26527,-0.79747 2.42066,-1.21504c-0.0628,-0.24175 -0.146,-0.41129 -0.2496,-0.50862c-0.11617,-0.10989 -0.27001,-0.16483 -0.46153,-0.16483c-0.31083,0 -0.70171,0.11774 -1.17266,0.35321c-0.58083,0.28885 -1.20405,0.72369 -1.86965,1.30452l-0.62636,-0.71584c0.97643,-0.90736 1.74093,-1.79902 2.29351,-2.67498h-1.91676zM248.16623,175.87216v0.79119c0,1.39086 0.25902,2.62317 0.77706,3.69693c0.56514,1.17423 1.61378,2.22758 3.14593,3.16005l-0.70171,0.92777c-1.28725,-0.73782 -2.30921,-1.77076 -3.06586,-3.09883c-0.30455,-0.53374 -0.53688,-1.113 -0.69701,-1.73779l-0.0235,0.0895c-0.25745,0.94189 -0.60282,1.72837 -1.03609,2.35944c-0.67816,0.98899 -1.62947,1.82256 -2.85393,2.50073l-0.73468,-0.8948c1.19621,-0.59653 2.10827,-1.3265 2.7362,-2.18991c0.60281,-0.832 1.01568,-1.89006 1.23859,-3.17418c0.07221,-0.41757 0.1303,-0.89323 0.17425,-1.42697h-2.41125v-1.00311zM260.06235,178.37289h-2.70795c-0.10989,1.33749 -0.41286,2.47561 -0.90892,3.41436c-0.54944,1.0455 -1.51174,1.94187 -2.88691,2.68911l-0.76293,-0.86655c1.10515,-0.5306 1.96228,-1.28254 2.57137,-2.25583c0.44583,-0.71898 0.73938,-1.71268 0.88067,-2.98109h-3.19302v-0.96545h3.28721l0.0801,-1.96855h1.08789l-0.0895,1.96855h3.74402l-0.009,0.73468c-0.05027,2.73777 -0.16957,4.49911 -0.35792,5.28402c-0.09105,0.37676 -0.27157,0.64049 -0.54158,0.79119c-0.2135,0.12245 -0.50549,0.18367 -0.87597,0.18367c-0.56199,0 -1.16166,-0.04552 -1.79901,-0.13657l-0.20251,-1.09731c0.66875,0.12245 1.22132,0.18367 1.65773,0.18367c0.35792,0 0.57927,-0.0989 0.66404,-0.29669c0.0534,-0.13187 0.11305,-0.51176 0.17896,-1.13969c0.08791,-0.86341 0.14913,-2.04391 0.18367,-3.54152zM267.09829,175.63198h1.05963v1.29981h2.77859v0.90893h-2.77859v2.01565c0.10989,0.38617 0.16483,0.72996 0.16483,1.03137c0,1.11771 -0.24646,1.93873 -0.73938,2.46305c-0.53688,0.57456 -1.34534,0.97173 -2.42538,1.1915l-0.53688,-0.80061c0.83829,-0.16012 1.45994,-0.38617 1.86495,-0.67816c0.3799,-0.27629 0.63578,-0.65148 0.76764,-1.12557c-0.33594,0.36734 -0.73624,0.55101 -1.20091,0.55101c-0.52118,0 -0.94346,-0.14756 -1.26685,-0.44269c-0.37989,-0.3485 -0.56984,-0.85398 -0.56984,-1.51645c0,-0.3485 0.0832,-0.68444 0.2496,-1.00782c0.10989,-0.20722 0.24489,-0.3799 0.40501,-0.51805c0.37048,-0.31396 0.81474,-0.47094 1.33278,-0.47094c0.32967,0 0.62793,0.07849 0.8948,0.23547v-0.92776h-4.64824v-0.90893h4.64824zM267.13599,180.52039v-0.17425c0,-0.20093 -0.0471,-0.37832 -0.14129,-0.53217c-0.17582,-0.28885 -0.43013,-0.43327 -0.76293,-0.43327c-0.16954,0 -0.32809,0.0471 -0.47566,0.14129c-0.34536,0.21663 -0.51804,0.54943 -0.51804,0.9984c0,0.28257 0.06279,0.52118 0.18838,0.71584c0.17582,0.27001 0.43484,0.40502 0.77706,0.40502c0.31083,0 0.55729,-0.13972 0.73939,-0.41915c0.12873,-0.19779 0.19309,-0.4317 0.19309,-0.70171zM272.91921,175.96164h5.28403l0.50391,0.78177c-1.63261,0.99841 -3.04702,1.90576 -4.24323,2.72207c0.77235,-0.32338 1.54785,-0.48507 2.32648,-0.48507c0.70014,0 1.28411,0.11146 1.75192,0.33437c0.43327,0.20721 0.77078,0.48978 1.01253,0.8477c0.25117,0.3799 0.37676,0.81631 0.37676,1.30924c0,0.69072 -0.23547,1.26841 -0.70642,1.73308c-0.32339,0.32338 -0.73782,0.56827 -1.2433,0.73468c-0.66247,0.21663 -1.38772,0.32495 -2.17577,0.32495c-0.90736,0 -1.57611,-0.16797 -2.00624,-0.50391c-0.33594,-0.26373 -0.50391,-0.62008 -0.50391,-1.06905c0,-0.33909 0.12245,-0.64049 0.36734,-0.90422c0.37048,-0.39873 0.87125,-0.5981 1.50232,-0.5981c0.66875,0 1.20406,0.22448 1.60593,0.67345c0.29199,0.32653 0.50234,0.76451 0.63107,1.31394c0.96701,-0.30769 1.45051,-0.87596 1.45051,-1.70482c0,-0.62793 -0.26216,-1.09103 -0.78648,-1.3893c-0.35164,-0.20093 -0.79747,-0.3014 -1.33749,-0.3014c-0.80689,0 -1.53528,0.11146 -2.18519,0.33437c-0.48037,0.16326 -1.12556,0.55728 -1.93559,1.18207l-0.66404,-0.8006c0.87282,-0.75352 1.86652,-1.51803 2.9811,-2.29352c0.76921,-0.53374 1.44738,-0.97172 2.03449,-1.31394h-4.04073zM276.48899,183.3602c-0.22291,-0.88852 -0.66089,-1.33278 -1.31394,-1.33278c-0.36106,0 -0.62165,0.1146 -0.78177,0.34379c-0.07535,0.10361 -0.11303,0.21507 -0.11303,0.33438c0,0.24803 0.17582,0.43483 0.52746,0.56042c0.25431,0.08791 0.59496,0.13187 1.02195,0.13187c0.1821,0 0.40188,-0.01257 0.65933,-0.0377z" fill="#ffffff" stroke="none" stroke-width="3.96875"/><path d="M139.55487,221.46827v-82.93636h200.89029v82.93636z" fill="none" stroke="none" stroke-width="NaN"/></g></g></g></svg>