<svg xmlns="http://www.w3.org/2000/svg" id="svg1" version="1.1" height="200" width="1096">
  <defs id="defs1"></defs>
  <rect id="rect1" stroke="none" fill="none" height="200" width="1096" y="0" x="0"></rect>
  <path aria-label="程度" style="font-weight:bold;font-size:110px;font-family:'BIZ UDPGothic';fill:#ff0000" id="text1" d="M 20.571289,115.1416 Q 14.931641,129.75098 7.3583984,140.76172 L 0.96679688,129.21387 Q 13.320313,114.71191 19.282227,95.537109 H 2.8466797 V 85.332031 H 20.571289 V 70.34668 Q 13.857422,71.52832 7.2509766,72.333984 L 3.2763672,63.579102 Q 23.632812,60.947266 38.94043,55.415039 l 6.499023,8.701172 q -5.585937,1.879883 -13.964844,3.974609 v 17.241211 h 13.75 v 10.205078 h -13.75 v 7.573241 q 7.680664,4.99512 15.576172,13.10547 l -6.123047,9.93652 q -4.02832,-5.85449 -9.453125,-11.8164 v 46.13769 H 20.571289 Z M 100.86914,60.463867 V 95.644531 H 48.393555 V 60.463867 Z M 59.189453,69.916992 V 86.40625 H 89.858398 V 69.916992 Z M 80.297852,113.1543 v 12.19238 h 20.571288 v 8.91602 H 80.297852 v 12.89062 h 27.016598 v 9.88281 H 40.874023 v -9.88281 H 69.072266 V 134.2627 h -20.03418 v -8.91602 h 20.03418 V 113.1543 h -23.47168 v -9.13086 h 59.404294 v 9.13086 z M 173.37891,65.620117 h 42.10937 v 9.023438 h -23.84766 v 8.916015 h 22.34375 v 8.701172 H 191.64062 V 108.2666 h -43.2373 V 92.260742 h -17.61719 v 9.990238 q 0,24.33105 -2.57812,38.45703 -1.98731,10.74219 -6.44531,19.60449 l -9.7754,-7.73438 q 4.08204,-8.8623 5.58594,-21.6455 1.34278,-11.22559 1.34278,-28.68164 V 65.620117 h 42.48535 v -9.667969 h 11.97754 z m -42.59278,9.023438 v 8.916015 h 17.61719 v -8.916015 z m 29.05762,0 v 8.916015 h 20.35645 v -8.916015 z m 0,17.617187 v 8.325198 h 20.35645 v -8.325198 z m 12.46094,56.396488 q -15.52246,8.05664 -39.42383,12.24609 l -5.58594,-9.88281 q 22.45117,-2.68555 35.18067,-8.21778 -10.90332,-7.8955 -18.6377,-18.74511 h -7.41211 v -9.34571 h 62.89551 l 5.63965,4.72657 q -8.00293,12.2998 -22.82715,23.14941 12.72949,5.10254 34.69726,7.51953 l -6.28418,10.15137 q -21.05468,-2.84668 -38.24218,-11.60156 z m -15.95215,-24.59961 q 6.49902,7.62695 15.79101,13.42773 10.47364,-6.76758 16.167,-13.42773 z"></path>
</svg>
