<svg xmlns="http://www.w3.org/2000/svg" id="svg1" version="1.1" height="200" width="990">
  <defs id="defs1"></defs>
  <rect id="rect1" stroke="none" fill="none" height="200" width="990" y="0" x="0"></rect>
  <path aria-label="青森県西方沖" style="font-size:100px;font-family:'BIZ UDPGothic';fill:#ff0000" id="text1" d="m 45.800781,71.582031 v -7.080078 h 7.666016 v 7.080078 h 37.646484 v 5.908203 H 53.466797 v 6.103516 h 32.128906 v 5.810547 H 53.466797 v 6.49414 h 44.042969 v 5.908203 H 2.4902344 V 95.898437 H 45.800781 v -6.49414 H 14.208984 V 83.59375 H 45.800781 V 77.490234 H 8.7890625 v -5.908203 z m 37.304688,36.425779 v 42.8711 q 0,4.39453 -2.050782,6.29882 -2.050781,1.9043 -7.27539,1.9043 -5.615235,0 -14.697266,-0.68359 l -1.464844,-7.12891 q 8.740235,0.92774 14.013672,0.92774 2.490235,0 3.076172,-1.12305 0.390625,-0.73242 0.390625,-2.29492 v -8.78907 H 24.902344 v 19.48243 h -8.007813 v -51.46485 z m -58.203125,5.81055 v 6.98242 h 50.195312 v -6.98242 z m 0,12.89062 v 7.37305 h 50.195312 v -7.37305 z M 158.78906,80.908203 q 14.35547,10.742188 36.81641,18.408203 l -4.6875,6.689454 q -24.1211,-9.277344 -37.40235,-22.216798 v 25.732418 h -7.71484 V 84.619141 q -12.89062,14.30664 -36.71875,22.705079 l -4.49219,-5.9082 q 23.68164,-7.568364 36.81641,-20.507817 h -33.64258 v -6.591797 h 38.03711 v -9.814453 h 7.71484 v 9.814453 h 38.86719 v 6.591797 z m 18.79883,40.771487 q 7.71484,12.98828 20.94727,21.67968 l -4.54102,7.12891 q -11.91406,-9.91211 -18.26172,-21.48437 v 30.46875 h -7.51953 v -29.19922 q -6.54297,12.40234 -17.62695,21.28906 l -4.78516,-5.56641 q 12.93945,-9.96093 20.60547,-24.3164 h -15.33203 v -6.5918 h 17.13867 V 104.6875 h 7.51953 v 10.40039 h 21.77735 v 6.5918 z m -53.66211,7.95898 q -7.32422,13.33008 -17.91992,22.26563 l -4.29688,-6.34766 q 12.74415,-9.47266 20.60547,-23.87695 h -19.82422 v -6.5918 h 21.43555 V 104.6875 h 7.51953 v 10.40039 h 15.86914 v 6.5918 h -15.86914 v 3.56445 q 7.37305,4.44336 16.06446,11.62109 l -4.58985,6.00586 q -5.12695,-5.12695 -11.47461,-10.44922 v 27.05079 h -7.51953 z M 282.86133,67.578125 V 114.4043 H 225.78125 V 67.578125 Z m -49.36524,6.005859 v 7.714844 h 41.55274 v -7.714844 z m 0,13.330078 v 7.763672 h 41.55274 v -7.763672 z m 0,13.476568 v 8.30078 h 41.55274 v -8.30078 z M 214.4043,122.2168 h 83.05664 v 6.49414 h -41.99219 v 30.81054 h -7.91016 V 128.71094 H 206.5918 V 74.267578 h 7.8125 z m -9.22852,29.6875 q 12.79297,-6.15235 23.0957,-19.28711 l 6.5918,3.66211 q -10.40039,13.62304 -24.07226,21.72851 z m 84.17969,4.10156 q -10.25391,-11.18164 -23.29102,-19.82422 l 6.00586,-4.49219 q 11.76758,7.37305 23.68164,18.79883 z M 333.59375,93.701172 V 77.197266 H 302.7832 V 70.3125 h 94.38477 v 6.884766 h -33.88672 v 16.503906 h 27.7832 V 157.8125 h -7.8125 V 150 h -66.65039 v 7.8125 h -7.71484 V 93.701172 Z m 7.51953,0 h 14.64844 V 77.197266 h -14.64844 z m -7.56836,6.591798 h -16.94336 v 42.91992 h 66.65039 v -17.23633 h -20.16601 q -7.32422,0 -7.32422,-6.59179 v -19.0918 h -14.69727 q -0.43945,10.5957 -3.125,16.89453 -3.80859,8.93555 -14.9414,15.52734 l -4.98047,-5.61523 q 10.40039,-5.41992 13.52539,-14.50195 1.51367,-4.44336 2.00195,-12.30469 z m 29.73633,0 v 16.50391 q 0,1.51367 0.58594,1.95312 0.53711,0.43945 1.80664,0.43945 h 17.57812 v -18.89648 z m 82.17773,-11.328126 q 0,7.324218 -0.92773,17.041016 h 39.4043 q -0.6836,32.91016 -3.75977,43.60351 -1.26953,4.49219 -4.83398,6.34766 -3.02735,1.5625 -9.08203,1.5625 -8.39844,0 -15.33204,-0.92773 l -1.31836,-8.00782 q 10.15625,1.31836 16.3086,1.31836 4.05273,0 5.32226,-1.70898 1.07422,-1.46484 2.14844,-8.49609 1.5625,-9.96094 2.14844,-26.70899 h -31.93359 q -1.80665,11.37695 -5.76172,19.28711 -7.91016,15.91797 -26.02539,25.73242 l -5.61524,-6.29883 q 19.38477,-10.15625 25.58594,-26.36718 5.17578,-13.57422 5.56641,-36.376956 h -33.54493 v -7.177735 h 41.69922 V 64.501953 h 8.00781 v 17.285156 h 42.67579 v 7.177735 z m 113.23243,-3.66211 V 64.501953 h 7.71484 v 20.800781 h 27.7832 v 40.478516 h -27.7832 v 33.69141 h -7.71484 v -33.69141 h -26.9043 V 85.302734 Z m -19.38477,6.982422 v 26.513674 h 19.38477 V 92.285156 Z m 47.26563,26.513674 V 92.285156 H 566.40625 V 118.79883 Z M 521.77734,86.621094 q -6.54297,-8.34961 -15.2832,-15.527344 l 5.32227,-5.273438 q 8.30078,6.201172 15.67382,14.990235 z m -3.66211,25.488286 q -7.66601,-8.8379 -15.91796,-15.527349 l 5.41992,-5.46875 q 8.39843,6.201172 16.16211,14.990239 z m -13.7207,40.57617 q 9.52149,-12.69532 17.48047,-32.86133 l 6.29883,5.07812 q -7.32422,19.14063 -17.08985,33.69141 z"></path>
</svg>
