<svg xmlns="http://www.w3.org/2000/svg" id="svg1" version="1.1" height="200" width="1096">
  <defs id="defs1"></defs>
  <rect id="rect1" stroke="none" fill="none" height="200" width="1096" y="0" x="0"></rect>
  <path aria-label="高知県東部" style="font-weight:bold;font-size:110px;font-family:'BIZ UDPGothic';fill:#ff0000" id="text1" d="M 75.732422,149.35547 H 40.927734 v 4.4043 H 29.916992 v -29.86329 h 48.930664 v 25.0293 q 3.652344,0.42969 7.680664,0.42969 2.685547,0 3.276367,-0.91309 0.483399,-0.69824 0.483399,-2.30957 V 118.41797 H 19.658203 v 42.05566 H 7.7880859 V 109.7168 H 102.1582 v 40.06836 q 0,5.15625 -2.846677,7.51953 -2.631836,2.20215 -8.486328,2.20215 -4.404297,0 -12.836914,-0.69825 z m -7.895508,-16.86524 h -26.90918 v 8.27149 h 26.90918 z M 60.478516,64.65332 h 44.472654 v 9.023438 H 5.0488281 V 64.65332 H 48.71582 V 55.952148 H 60.478516 Z M 89.321289,79.370117 V 103.91602 H 20.678711 V 79.370117 Z m -56.879883,8.378906 v 7.788086 h 45.009766 v -7.788086 z m 116.284184,-8.59375 v 20.141602 h 17.56347 v 10.366215 h -17.72461 q -0.26855,5.31738 -0.96679,10.68847 10.95703,9.07715 20.24902,20.24903 l -7.73438,10.63476 q -6.23046,-9.61426 -15.2539,-19.01367 -2.09473,6.23047 -6.23047,12.67578 -6.28418,9.77539 -15.68359,15.79102 l -8.27149,-9.45313 q 20.625,-12.35351 22.45117,-41.57226 H 113.81348 V 99.296875 h 23.5791 V 79.155273 h -6.3916 q -3.75977,8.916016 -9.23828,16.381836 l -8.8086,-7.143554 q 9.29199,-12.03125 13.21289,-32.441407 l 11.54785,1.71875 q -1.55761,6.606446 -2.90039,10.795899 h 29.27246 v 10.688476 z m 64.13086,-12.084961 v 88.784178 h -11.54786 v -7.08984 h -20.24902 v 8.16406 H 169.61914 V 67.070312 Z m -31.79688,10.795899 v 60.102539 h 20.24902 V 77.866211 Z M 312.16797,58.583984 V 110.62988 H 248.25195 V 58.583984 Z m -52.36817,8.486328 v 6.713868 h 40.7129 v -6.713868 z m 0,14.28711 v 6.713867 h 40.7129 v -6.713867 z m 0,14.287109 v 6.928709 h 40.7129 v -6.928709 z m -21.6455,22.128909 h 89.05273 v 9.3457 h -44.41894 v 33.35449 H 270.5957 V 127.11914 H 226.3916 V 66.855469 h 11.7627 z m -13.75,32.4414 q 12.7832,-5.9082 24.43847,-19.81933 l 9.88282,5.74707 q -11.49414,14.55566 -25.5127,22.88086 z m 92.59765,6.92871 q -8.21777,-10.09765 -24.70703,-21.21582 l 9.23828,-6.49902 q 12.94434,7.46582 25.40528,19.60449 z m 85.61524,-31.58203 q 13.32031,11.87012 35.8789,19.17481 l -6.92871,10.09765 q -12.99804,-4.61914 -22.66601,-11.17187 -9.99024,-6.82129 -18.42285,-16.75781 v 33.56933 h -11.65528 v -32.97851 q -7.46582,10.47363 -19.28222,18.79883 -9.07715,6.3916 -19.44336,10.3125 l -7.3584,-9.45313 q 17.02636,-5.63965 28.41308,-15.2002 3.22266,-2.68554 6.55274,-6.3916 H 341.87012 V 81.572266 h 36.95312 V 74.321289 H 334.29687 V 64.65332 h 44.52637 v -8.701172 h 11.65528 v 8.701172 h 45.2246 v 9.667969 h -45.2246 v 7.250977 h 37.65136 V 125.56152 Z M 378.82324,90.595703 h -25.29785 v 8.701172 h 25.29785 z m 11.65528,0 v 8.701172 h 25.99609 v -8.701172 z m -11.65528,17.080077 h -25.29785 v 8.86231 h 25.29785 z m 11.65528,0 v 8.86231 h 25.99609 v -8.86231 z m 87.9248,-39.316405 h 22.98828 v 10.366211 h -7.57324 q -2.04102,8.217773 -5.47852,17.241211 h 14.34082 v 10.366213 h -59.9414 V 95.966797 h 13.15918 Q 453.75,85.654297 451.38672,78.725586 H 444.4043 V 68.359375 h 22.77343 V 55.952148 h 11.22559 z m -16.16699,10.366211 q 2.73926,8.00293 4.24316,17.241211 h 10.95703 l 0.53711,-1.503906 q 2.30957,-6.123047 4.29688,-13.911133 l 0.4834,-1.826172 z m 33.30078,36.630864 v 43.98925 h -11.01074 v -5.26367 H 461.1084 v 6.3916 h -11.33301 v -45.11718 z m -34.42871,9.88281 v 18.63769 h 23.41797 v -18.63769 z m 71.75781,-27.124026 q 6.3916,6.069336 10.15137,14.448246 3.70605,8.3789 3.70605,16.97265 0,7.94922 -2.9541,11.70899 -3.06152,3.9209 -10.09766,3.9209 -6.01562,0 -11.65527,-0.85938 l -2.63183,-11.44043 q 6.49902,1.18164 10.74218,1.18164 3.22266,0 4.02832,-1.5039 0.53711,-1.07422 0.53711,-4.29688 0,-13.2666 -7.94922,-22.88086 -2.09472,-2.52441 -5.26367,-5.424804 l 0.64453,-1.503906 q 5.58594,-12.62207 8.70118,-26.318359 h -13.75 V 160.47363 H 505.95703 V 61.000977 h 32.33399 l 5.96191,5.478515 q -5.42481,18.476563 -11.38672,31.635742 z"></path>
</svg>
