<svg xmlns="http://www.w3.org/2000/svg" id="svg1" version="1.1" height="200" width="1096">
  <defs id="defs1"></defs>
  <rect id="rect1" stroke="none" fill="none" height="200" width="1096" y="0" x="0"></rect>
  <path aria-label="中央アジア" style="font-weight:bold;font-size:110px;font-family:'BIZ UDPGothic';fill:#ff0000" id="text1" d="M 48.608398,75.664062 V 55.952148 H 60.693359 V 75.664062 H 100.54688 V 132.49023 H 88.676758 v -7.46582 H 60.693359 v 35.44922 H 48.608398 V 125.02441 H 21.323242 v 8.05664 H 9.453125 V 75.664062 Z M 21.323242,86.674805 V 114.01367 H 48.608398 V 86.674805 Z M 88.676758,114.01367 V 86.674805 H 60.693359 v 27.338865 z m 86.420902,5.85449 q 6.17675,10.15137 16.43554,17.45606 9.56055,6.76758 24.97559,11.11816 l -6.76758,11.11817 q -30.83008,-9.99024 -43.93555,-34.42871 -4.08203,10.74218 -13.10546,19.60449 -7.14356,7.03613 -17.13379,11.17187 -5.74707,2.30957 -14.55567,4.67285 l -6.49902,-10.04394 q 18.6914,-3.86719 30.34668,-14.82422 7.41211,-7.03613 11.44043,-15.84473 h -43.55957 v -10.68847 h 12.67578 V 73.891602 h 33.4082 V 55.952148 h 11.65528 v 17.939454 h 34.10644 v 35.288088 h 12.67578 v 10.68847 z M 158.82324,84.257812 h -21.75293 v 24.921878 h 21.75293 z m 11.65528,0 v 24.921878 h 22.45117 V 84.257812 Z m 53.71093,-17.294921 h 84.16504 l 6.92871,5.854492 q -3.00781,11.225586 -7.84179,18.745117 -9.07715,14.2334 -27.17774,21.26953 l -6.76758,-9.23828 q 12.51465,-3.759766 20.78614,-13.481445 4.88769,-5.747071 6.82129,-12.138672 h -76.91407 z m 34.42871,23.203125 h 12.29981 v 9.238281 q 0,20.786133 -4.61914,32.119143 -5.85449,14.39453 -22.77344,23.41797 l -8.8623,-9.34571 q 11.65527,-5.53222 17.02636,-13.21289 4.13575,-5.96191 5.42481,-12.62207 1.5039,-7.62695 1.5039,-20.463865 z M 367.3291,84.418945 Q 351.48437,77.329102 334.99512,72.548828 l 3.49121,-10.634766 q 18.58398,4.619141 32.60254,11.279297 z m -11.01074,27.500005 q -13.21289,-5.80079 -32.33399,-11.87012 l 4.61915,-10.742189 q 16.43554,4.350586 31.90429,11.547849 z m -25.40527,29.59472 q 20.78613,-1.66504 32.97851,-5.96191 31.36719,-11.11817 40.06836,-50.434573 l 11.01074,6.606446 q -7.14355,30.131837 -26.64062,44.848637 -12.78321,9.66796 -31.68946,13.75 -9.07714,1.9873 -22.29003,3.22265 z m 67.99804,-62.143553 q -3.4375,-8.486328 -11.01074,-18.90625 l 8.48633,-3.061523 q 6.82129,9.238281 10.95703,18.691406 z m 16.27442,-2.954101 q -4.45801,-10.581055 -10.7959,-19.121094 l 7.94922,-2.578125 q 6.3916,7.412109 10.84961,18.154297 z m 13.64257,-9.453125 h 84.16504 l 6.92871,5.854492 q -3.00781,11.225586 -7.84179,18.745117 -9.07715,14.2334 -27.17774,21.26953 l -6.76757,-9.23828 q 12.51464,-3.759766 20.78613,-13.481445 4.88769,-5.747071 6.82129,-12.138672 h -76.91407 z m 34.42872,23.203125 h 12.2998 v 9.238281 q 0,20.786133 -4.61914,32.119143 -5.85449,14.39453 -22.77344,23.41797 l -8.8623,-9.34571 q 11.65527,-5.53222 17.02636,-13.21289 4.13575,-5.96191 5.42481,-12.62207 1.50391,-7.62695 1.50391,-20.463865 z"></path>
</svg>
