<svg xmlns="http://www.w3.org/2000/svg" id="svg1" version="1.1" height="200" width="1096">
  <defs id="defs1"></defs>
  <rect id="rect1" stroke="none" fill="none" height="200" width="1096" y="0" x="0"></rect>
  <path aria-label="東京都多摩東部" style="font-weight:bold;font-size:110px;font-family:'BIZ UDPGothic';fill:#ff0000" id="text1" d="m 72.617187,125.56152 q 13.320313,11.87012 35.878903,19.17481 l -6.92871,10.09765 Q 88.569336,150.21484 78.901367,143.66211 68.911133,136.84082 60.478516,126.9043 v 33.56933 H 48.823242 v -32.97851 q -7.46582,10.47363 -19.282226,18.79883 -9.077149,6.3916 -19.44336,10.3125 l -7.3583982,-9.45313 q 17.0263672,-5.63965 28.4130862,-15.2002 3.222656,-2.68554 6.552734,-6.3916 H 11.870117 V 81.572266 H 48.823242 V 74.321289 H 4.296875 V 64.65332 h 44.526367 v -8.701172 h 11.655274 v 8.701172 h 45.224614 v 9.667969 H 60.478516 v 7.250977 H 98.129883 V 125.56152 Z M 48.823242,90.595703 H 23.525391 v 8.701172 h 25.297851 z m 11.655274,0 v 8.701172 H 86.474609 V 90.595703 Z M 48.823242,107.67578 H 23.525391 v 8.86231 h 25.297851 z m 11.655274,0 v 8.86231 h 25.996093 v -8.86231 z M 170.58594,66.748047 h 44.31152 V 76.953125 H 115.04883 V 66.748047 h 43.66699 V 55.952148 h 11.87012 z m 33.13965,19.228515 V 121.0498 h -31.68946 v 30.18555 q 0,4.61914 -2.04101,6.71387 -2.417,2.52441 -9.61426,2.52441 -7.73438,0 -15.41504,-0.80566 l -2.41699,-11.01074 q 7.41211,1.12793 14.87793,1.12793 2.09472,0 2.52441,-1.02051 0.21485,-0.4834 0.21485,-1.39649 V 121.0498 H 126.27441 V 85.976562 Z m -65.15137,9.667969 v 15.737309 h 52.85156 V 95.644531 Z m 67.89062,60.317379 q -9.66797,-14.17968 -21.43066,-25.67382 l 8.64746,-6.82129 q 11.49414,10.3125 22.23633,24.22363 z m -93.94043,-7.62695 q 13.37403,-9.29199 21.00098,-23.41797 l 10.47363,5.47852 q -7.78808,15.36133 -22.98828,26.85547 z M 259.53125,87.856445 q 8.8623,-11.225586 15.25391,-25.834961 l 9.45312,4.833985 q -6.92871,12.62207 -12.83691,21.000976 h 11.27929 v 9.667969 h -21.05468 q -0.26856,0.268555 -0.53711,0.644531 -2.68555,3.437505 -8.96973,9.506835 h 24.5459 v 51.34766 h -10.47363 v -4.08203 h -21.43067 v 5.53222 h -10.7959 v -37.75879 q -3.70605,2.57813 -7.62695,4.99512 l -5.37109,-9.23828 q 5.69336,-2.9541 12.19238,-7.73438 9.45312,-6.98242 15.30762,-13.212886 h -25.72754 v -9.667969 h 21.43066 V 77.167969 h -15.41504 v -9.453125 h 15.41504 V 55.952148 h 10.68848 v 11.762696 h 11.76269 v 9.453125 H 254.8584 v 10.688476 z m -14.77051,28.520505 v 10.20508 h 21.43067 v -10.20508 z m 0,18.90625 v 10.74219 h 21.43067 V 135.2832 Z M 312.8125,98.276367 q 13.37402,15.952153 13.37402,31.582033 0,8.05664 -3.16894,11.92383 -3.00781,3.70605 -9.93653,3.70605 -5.69335,0 -11.60156,-0.75195 l -2.41699,-11.22559 q 6.17676,1.23535 10.58105,1.23535 3.27637,0 4.13575,-1.39648 0.80566,-1.23535 0.80566,-4.45801 0,-10.74219 -7.68066,-22.29004 -2.14844,-3.27636 -5.63965,-7.089841 5.69336,-12.299805 9.3457,-27.714844 H 296.96777 V 160.47363 H 285.95703 V 61.108398 h 31.58203 l 6.23047,5.424805 q -4.94141,18.583984 -10.95703,31.743164 z m 80.29785,38.134763 q -5.31738,-5.37109 -13.96484,-11.92383 -11.06446,6.66016 -24.0625,10.90332 l -6.82129,-8.91601 q 31.58203,-9.39941 49.30664,-31.582032 l 10.95703,2.739258 q -2.36328,3.115234 -4.61914,5.854494 h 25.78125 l 5.69336,4.9414 q -17.61719,26.74805 -41.62598,39.37012 -17.50976,9.23828 -46.56738,13.32031 l -6.60645,-10.20507 q 35.8252,-4.24317 52.5293,-14.50196 z m 9.07715,-6.3916 q 10.74219,-8.8623 16.27441,-17.40234 h -23.41796 q -3.65235,3.38379 -7.30469,6.06933 8.16406,5.58594 14.44824,11.33301 z M 375.38574,93.87207 q -6.28418,-6.230468 -12.2998,-10.849609 l -0.64453,0.483398 q -7.51954,4.833985 -17.24121,9.184571 l -7.14356,-7.788086 q 25.19043,-10.3125 39.90723,-30.078125 l 11.44043,2.470703 q -2.9541,4.02832 -4.13575,5.478515 h 30.07813 l 5.20996,4.619141 q -10.58105,13.266602 -26.74805,25.727539 -11.01074,8.486333 -21.43066,13.266603 -13.69629,6.23047 -31.68945,10.52734 l -6.17676,-9.39941 q 24.11621,-4.56543 40.87402,-13.64258 z m 9.13086,-5.854492 q 11.17188,-8.432617 18.31543,-15.791016 h -26.21094 q -2.4707,2.363282 -5.53222,4.941407 8.05664,5.532226 13.42773,10.849609 z M 525.61523,72.65625 v 6.069336 h 18.04688 v 7.680664 h -13.85742 q 6.49902,7.573242 16.59668,12.998047 l -5.15625,7.680663 q -9.50684,-6.12305 -15.84473,-14.663085 V 104.3457 h -9.99023 V 93.496094 q -4.4043,6.982426 -11.7627,11.708986 l -5.63965,-6.284182 q 7.89551,-4.350586 13.69629,-12.514648 h -11.17187 v -7.680664 h 14.66308 V 72.65625 h -27.71484 v 6.069336 h 10.74219 v 7.680664 h -11.01075 v 1.987305 q 6.17676,3.061523 11.49414,7.358398 l -5.10253,6.713867 q -2.68555,-2.846679 -6.39161,-5.854492 V 106.7627 H 477.3291 V 94.355469 q -4.67285,7.036131 -12.35351,12.407231 l -5.26368,-6.821294 v 3.061524 q 0,21.69922 -1.87988,34.96582 Q 456.11328,150 451.54785,160.3125 l -10.20508,-7.25098 q 3.9209,-8.96972 5.53223,-20.78613 1.61133,-11.92383 1.61133,-29.27246 V 63.847656 h 43.2373 v -7.895508 h 11.92383 v 7.895508 h 41.78711 v 8.808594 z m -48.60839,0 h -17.29493 v 27.124023 q 8.8086,-5.317382 14.28711,-13.374023 h -12.08496 v -7.680664 h 15.09278 z m 32.4414,42.2168 v 6.12304 h 32.8711 v 7.68067 h -32.8711 v 5.26367 h 37.8125 v 8.16406 h -37.8125 v 9.45313 q 0,4.88769 -2.4707,6.92871 -2.36328,1.9873 -8.75488,1.9873 -9.88282,0 -15.52246,-0.91308 l -1.66504,-8.91602 q 8.05664,1.12793 14.93164,1.12793 1.82617,0 2.09472,-0.69824 0.26856,-0.59082 0.26856,-1.9336 v -7.03613 h -37.97363 v -8.16406 h 37.97363 v -5.26367 h -33.35449 v -7.68067 h 33.35449 v -5.26367 q -15.03906,0.91309 -25.5127,1.07422 l -3.33008,-7.68066 q 33.13965,-0.53711 58.97461,-4.4043 l 6.28418,7.14355 q -14.12597,2.09473 -25.29785,3.00782 z m 113.16895,10.68847 q 13.32031,11.87012 35.8789,19.17481 l -6.92871,10.09765 q -12.99804,-4.61914 -22.66601,-11.17187 -9.99024,-6.82129 -18.42285,-16.75781 v 33.56933 h -11.65528 v -32.97851 q -7.46582,10.47363 -19.28222,18.79883 -9.07715,6.3916 -19.44336,10.3125 l -7.3584,-9.45313 q 17.02636,-5.63965 28.41308,-15.2002 3.22266,-2.68554 6.55274,-6.3916 H 561.87012 V 81.572266 h 36.95312 V 74.321289 H 554.29687 V 64.65332 h 44.52637 v -8.701172 h 11.65528 v 8.701172 h 45.2246 v 9.667969 h -45.2246 v 7.250977 h 37.65136 V 125.56152 Z M 598.82324,90.595703 h -25.29785 v 8.701172 h 25.29785 z m 11.65528,0 v 8.701172 h 25.99609 v -8.701172 z m -11.65528,17.080077 h -25.29785 v 8.86231 h 25.29785 z m 11.65528,0 v 8.86231 h 25.99609 v -8.86231 z m 87.9248,-39.316405 h 22.98828 v 10.366211 h -7.57324 q -2.04102,8.217773 -5.47852,17.241211 h 14.34082 v 10.366213 h -59.9414 V 95.966797 h 13.15918 Q 673.75,85.654297 671.38672,78.725586 H 664.4043 V 68.359375 h 22.77343 V 55.952148 h 11.22559 z m -16.16699,10.366211 q 2.73926,8.00293 4.24316,17.241211 h 10.95703 l 0.53711,-1.503906 q 2.30957,-6.123047 4.29688,-13.911133 l 0.4834,-1.826172 z m 33.30078,36.630864 v 43.98925 h -11.01074 v -5.26367 H 681.1084 v 6.3916 h -11.33301 v -45.11718 z m -34.42871,9.88281 v 18.63769 h 23.41797 v -18.63769 z m 71.75781,-27.124026 q 6.3916,6.069336 10.15137,14.448246 3.70605,8.3789 3.70605,16.97265 0,7.94922 -2.9541,11.70899 -3.06152,3.9209 -10.09766,3.9209 -6.01562,0 -11.65527,-0.85938 l -2.63183,-11.44043 q 6.49902,1.18164 10.74218,1.18164 3.22266,0 4.02832,-1.5039 0.53711,-1.07422 0.53711,-4.29688 0,-13.2666 -7.94922,-22.88086 -2.09472,-2.52441 -5.26367,-5.424804 l 0.64453,-1.503906 q 5.58594,-12.62207 8.70118,-26.318359 h -13.75 V 160.47363 H 725.95703 V 61.000977 h 32.33399 l 5.96191,5.478515 q -5.42481,18.476563 -11.38672,31.635742 z"></path>
</svg>
