<svg xmlns="http://www.w3.org/2000/svg" id="svg1" version="1.1" height="200" width="990">
  <defs id="defs1"></defs>
  <rect id="rect1" stroke="none" fill="none" height="200" width="990" y="0" x="0"></rect>
  <path aria-label="山形県沖" style="font-size:100px;font-family:'BIZ UDPGothic';fill:#ff0000" id="text1" d="M 53.613281,141.89453 H 81.787109 V 85.302734 h 8.105469 v 73.388676 h -8.105469 v -9.17969 H 18.115234 v 9.17969 H 10.009766 V 85.302734 h 8.105468 V 141.89453 H 45.605469 V 65.478516 h 8.007812 z M 145.99609,76.464844 v 27.832036 h 12.98828 v 6.98242 h -12.98828 v 48.19336 h -7.61718 V 111.2793 h -14.69727 q -0.0488,16.55273 -2.63672,27.19726 -2.7832,11.47461 -10.69336,20.70313 l -6.49414,-4.98047 q 6.05469,-6.73828 8.64258,-14.30664 3.56445,-10.40039 3.56445,-28.61328 h -13.47656 v -6.98242 h 13.47656 V 76.464844 h -11.52343 v -6.884766 h 52.53906 v 6.884766 z m -7.61718,0 h -14.69727 v 27.832036 h 14.69727 z m 14.40429,74.853516 q 11.66992,-4.6875 20.45899,-11.71875 9.81445,-7.8125 17.62695,-19.77539 l 6.00586,4.88281 q -14.35547,22.2168 -39.30664,32.91016 z m 3.125,-57.031251 q 19.58008,-9.667968 30.66407,-26.904297 l 6.29882,4.003907 Q 181.00586,89.550781 160.40039,100 Z m 0.78125,26.513671 q 20.11719,-8.83789 32.08008,-27.197264 l 6.10352,4.6875 q -13.1836,19.140624 -33.39844,28.515624 z M 282.86133,67.578125 V 114.4043 H 225.78125 V 67.578125 Z m -49.36524,6.005859 v 7.714844 h 41.55274 v -7.714844 z m 0,13.330078 v 7.763672 h 41.55274 v -7.763672 z m 0,13.476568 v 8.30078 h 41.55274 v -8.30078 z M 214.4043,122.2168 h 83.05664 v 6.49414 h -41.99219 v 30.81054 h -7.91016 V 128.71094 H 206.5918 V 74.267578 h 7.8125 z m -9.22852,29.6875 q 12.79297,-6.15235 23.0957,-19.28711 l 6.5918,3.66211 q -10.40039,13.62304 -24.07226,21.72851 z m 84.17969,4.10156 q -10.25391,-11.18164 -23.29102,-19.82422 l 6.00586,-4.49219 q 11.76758,7.37305 23.68164,18.79883 z M 358.69141,85.302734 V 64.501953 h 7.71484 v 20.800781 h 27.7832 v 40.478516 h -27.7832 v 33.69141 h -7.71484 v -33.69141 h -26.9043 V 85.302734 Z m -19.38477,6.982422 v 26.513674 h 19.38477 V 92.285156 Z m 47.26563,26.513674 V 92.285156 H 366.40625 V 118.79883 Z M 321.77734,86.621094 q -6.54297,-8.34961 -15.2832,-15.527344 l 5.32227,-5.273438 q 8.30078,6.201172 15.67382,14.990235 z m -3.66211,25.488286 q -7.66601,-8.8379 -15.91796,-15.527349 l 5.41992,-5.46875 q 8.39843,6.201172 16.16211,14.990239 z m -13.7207,40.57617 q 9.52149,-12.69532 17.48047,-32.86133 l 6.29883,5.07812 q -7.32422,19.14063 -17.08985,33.69141 z"></path>
</svg>
