<svg xmlns="http://www.w3.org/2000/svg" id="svg1" version="1.1" height="200" width="990">
  <defs id="defs1"></defs>
  <rect id="rect1" stroke="none" fill="none" height="200" width="990" y="0" x="0"></rect>
  <path aria-label="岐阜県飛騨地方" style="font-size:100px;font-family:'BIZ UDPGothic';fill:#ff0000" id="text1" d="M 71.875,102.00195 H 87.5 l 4.394531,3.90625 q -7.080078,18.99414 -17.285156,30.66407 9.375,8.6914 23.486328,15.13671 l -4.736328,7.17774 q -12.744141,-6.64063 -23.681641,-17.13867 -12.207031,11.57226 -27.34375,17.82226 l -4.882812,-6.39648 Q 52.34375,148.24219 64.84375,136.52344 54.052734,123.48633 48.779297,108.88672 h -5.126953 v -6.88477 H 64.355469 V 86.279297 H 39.550781 V 79.296875 H 64.355469 V 64.501953 H 71.875 v 14.794922 h 25.585937 v 6.982422 H 71.875 Z m -15.673828,6.88477 q 4.394531,11.86523 13.378906,22.50976 8.740234,-10.74218 12.890625,-22.50976 z m -30.615235,25.24414 h 7.080079 V 84.228516 h 6.689453 V 141.11328 H 11.767578 v 8.10547 H 4.8828125 V 84.228516 h 6.6894535 v 49.902344 h 7.128906 V 65.820312 h 6.884765 z M 145.70312,123.68164 H 113.47656 V 73.388672 h 27.44141 l 0.29297,-0.732422 q 1.80664,-4.101563 2.97851,-8.59375 l 8.39844,1.318359 q -1.95312,4.980469 -3.80859,8.007813 h 35.00976 v 21.533203 h -62.40234 v 7.373045 h 67.08984 v 21.38672 h -34.86328 v 9.0332 h 43.84766 v 6.5918 h -43.84766 v 20.21484 h -7.91016 v -20.21484 h -43.21289 v -6.5918 h 43.21289 z m -24.3164,-44.091796 v 9.228515 h 54.39453 v -9.228515 z m 0,28.906246 v 8.98438 h 59.17969 v -8.98438 z M 282.86133,67.578125 V 114.4043 H 225.78125 V 67.578125 Z m -49.36524,6.005859 v 7.714844 h 41.55274 v -7.714844 z m 0,13.330078 v 7.763672 h 41.55274 v -7.763672 z m 0,13.476568 v 8.30078 h 41.55274 v -8.30078 z M 214.4043,122.2168 h 83.05664 v 6.49414 h -41.99219 v 30.81054 h -7.91016 V 128.71094 H 206.5918 V 74.267578 h 7.8125 z m -9.22852,29.6875 q 12.79297,-6.15235 23.0957,-19.28711 l 6.5918,3.66211 q -10.40039,13.62304 -24.07226,21.72851 z m 84.17969,4.10156 q -10.25391,-11.18164 -23.29102,-19.82422 l 6.00586,-4.49219 q 11.76758,7.37305 23.68164,18.79883 z m 81.73828,-75.390626 q 2.44141,0.878907 4.6875,1.806641 4.15039,-5.322266 7.37305,-11.328125 l 6.73828,3.417969 q -4.24805,6.445312 -8.30078,10.595703 5.02929,2.441406 9.57031,5.078125 l -3.90625,5.615234 q -9.375,-5.761719 -15.47852,-8.789062 1.46485,6.884765 6.64063,11.767578 2.68555,2.539063 5.76172,4.003903 1.80664,0.87891 2.92968,0.87891 1.46485,0 2.00196,-2.00195 0.63476,-2.148441 1.17187,-6.982426 l 6.5918,3.417969 q -0.48828,5.175777 -2.09961,8.984377 -1.80664,4.29687 -6.15234,4.29687 -3.51563,0 -8.88672,-2.49023 -8.54492,-3.95508 -12.79297,-12.939454 -3.125,-6.640625 -3.41797,-20.556641 h -53.4668 v -6.787109 h 60.9375 v 3.36914 q 0,5.810547 0.0977,8.642578 z M 329.63867,109.08203 H 344.0918 V 77.978516 h 7.61718 v 31.103514 h 22.36329 q -0.0488,3.71094 -0.0488,7.27539 0,4.15039 0.14648,6.88477 l 0.73242,0.34179 0.6836,0.29297 0.97656,0.43946 q 3.90625,-4.6875 7.42187,-10.15625 l 6.39649,4.19922 q -3.27149,4.29687 -7.91016,8.78906 7.8125,4.10156 12.01172,6.83593 l -4.10156,5.81055 q -8.44727,-6.05469 -15.67383,-10.00976 1.31836,9.0332 4.24805,13.76953 2.63672,4.19922 6.68945,6.39648 1.66016,0.87891 2.63672,0.87891 2.53906,0 3.125,-10.44922 l 6.68945,4.00391 q -1.31836,14.89257 -8.10547,14.89257 -4.98046,0 -11.32812,-4.83398 -7.86133,-5.95703 -10.5957,-18.01758 -1.66016,-7.4707 -1.66016,-20.75195 h -14.69727 v 43.84765 h -7.61718 v -43.84765 h -14.50196 q -0.24414,13.28125 -3.07617,22.07031 -3.90625,12.01172 -14.89258,20.75195 l -5.81054,-5.41992 q 8.93554,-6.88476 12.54882,-15.77148 3.36915,-8.30078 3.71094,-21.63086 h -17.77344 v -6.5918 h 17.82227 V 91.015625 q -6.10352,2.34375 -12.8418,4.248047 l -4.29687,-5.761719 q 17.5293,-4.248047 29.73633,-12.207031 l 5.27343,4.882812 q -5.27343,3.222657 -10.35156,5.615235 z m 114.69727,3.71094 q -0.3418,30.61523 -2.68555,40.03906 -0.97656,3.90625 -3.75977,5.37109 -2.00195,1.07422 -6.05468,1.07422 -5.51758,0 -9.22852,-0.58593 l -1.17187,-7.08008 q 4.98047,0.8789 9.61914,0.8789 3.17383,0 3.95508,-2.09961 1.80664,-4.93164 2.39257,-30.02929 v -1.36719 H 405.81055 V 68.212891 h 39.11132 v 6.396484 h -14.99023 v 8.59375 h 12.06055 v 6.005859 h -12.06055 v 8.691407 h 12.06055 v 6.005859 h -12.06055 v 8.88672 z M 412.69531,74.609375 v 8.59375 h 10.69336 v -8.59375 z m 0,14.599609 v 8.691407 h 10.69336 v -8.691407 z m 0,14.697266 v 8.88672 h 10.69336 v -8.88672 z m 81.10352,20.11719 h -19.28711 v 8.98437 h 23.19336 v 6.68946 h -23.19336 v 19.72656 h -7.17774 v -19.72656 h -21.48437 v -6.68946 h 21.48437 v -8.98437 H 448.53516 V 83.984375 h 30.07812 q 4.44336,-9.179688 7.8125,-19.091797 l 7.17774,2.978516 q -4.05274,9.179687 -8.05665,16.113281 h 8.25196 z m -6.78711,-6.10352 V 106.5918 h -12.69531 v 11.32812 z m 0,-17.33398 V 90.185547 H 474.31641 V 100.58594 Z M 455.22461,90.185547 V 100.58594 H 467.5293 V 90.185547 Z m 0,16.406253 v 11.32812 H 467.5293 V 106.5918 Z m -53.90625,41.69922 q 2.63672,-10.54688 3.61328,-23.38868 l 5.56641,0.97657 q -0.53711,15.18554 -3.17383,26.02539 z m 12.5,-0.48829 q 0,-12.20703 -1.2207,-21.38671 l 4.93164,-1.22071 q 1.66015,10.59571 2.00195,21.09375 z m 9.42383,-2.49023 q -0.92774,-11.03516 -3.02735,-19.92187 l 4.39453,-1.51368 q 2.68555,9.32617 3.71094,19.72657 z m 31.49414,-61.71875 q -2.78321,-8.398438 -6.20117,-14.306641 l 5.76171,-2.978515 q 3.75977,6.152343 6.73829,14.30664 z m 14.16015,-0.78125 q -2.09961,-8.447266 -5.66406,-15.527344 l 6.10352,-2.58789 q 3.125,6.201171 6.10351,15.185546 z m -37.5,59.375 -0.34179,-2.09961 q -1.61133,-9.96094 -3.51563,-16.40625 l 4.29688,-1.66016 q 2.88086,8.74024 4.10156,18.06641 z m 117.82227,-38.96484 v 40.86914 q 0,4.05273 2.39258,4.98047 2.58789,0.97656 16.45508,0.97656 13.42773,0 17.38281,-0.92774 2.7832,-0.68359 3.56445,-3.22265 1.2207,-4.00391 1.26953,-12.40235 l 7.51953,2.78321 q -0.68359,13.23242 -3.51562,16.79687 -2.24609,2.92969 -7.27539,3.4668 -7.66602,0.78125 -20.75195,0.78125 -12.45118,0 -16.74805,-0.83008 -5.3711,-1.07422 -6.83594,-4.88281 -0.78125,-2.09961 -0.78125,-5.51758 v -40.38086 l -10.49805,3.56445 -1.90429,-6.98242 12.40234,-4.150389 v -26.5625 h 7.32422 v 24.072266 l 12.8418,-4.345703 V 64.501953 h 7.32422 v 24.365234 l 18.01757,-6.054687 4.39453,2.392578 v 35.986332 q 0,3.51562 -1.66015,5.32226 -1.95313,2.09961 -6.83594,2.09961 -3.95508,0 -7.71484,-0.53711 l -1.26953,-6.98242 q 3.71093,0.68359 6.93359,0.68359 2.44141,0 2.97852,-1.07421 0.39062,-0.73243 0.39062,-2.29493 V 91.113281 l -15.23437,5.175781 v 39.794918 h -7.32422 V 98.779297 Z M 516.50391,88.916016 V 65.136719 h 7.71484 v 23.779297 h 10.79102 v 7.177734 h -10.79102 v 34.96094 q 5.12695,-1.75782 11.71875,-4.44336 l 0.78125,6.88476 q -14.94141,6.88477 -32.03125,12.10938 l -2.7832,-7.61719 q 6.78711,-1.85547 14.59961,-4.3457 V 96.09375 h -13.28125 v -7.177734 z m 128.95507,0.04883 q 0,7.324218 -0.92773,17.041016 h 39.4043 q -0.6836,32.91016 -3.75977,43.60351 -1.26953,4.49219 -4.83398,6.34766 -3.02735,1.5625 -9.08203,1.5625 -8.39844,0 -15.33204,-0.92773 l -1.31836,-8.00782 q 10.15625,1.31836 16.3086,1.31836 4.05273,0 5.32226,-1.70898 1.07422,-1.46484 2.14844,-8.49609 1.5625,-9.96094 2.14844,-26.70899 h -31.93359 q -1.80665,11.37695 -5.76172,19.28711 -7.91016,15.91797 -26.02539,25.73242 l -5.61524,-6.29883 q 19.38477,-10.15625 25.58594,-26.36718 5.17578,-13.57422 5.56641,-36.376956 h -33.54493 v -7.177735 h 41.69922 V 64.501953 h 8.00781 v 17.285156 h 42.67579 v 7.177735 z"></path>
</svg>
