<svg xmlns="http://www.w3.org/2000/svg" id="svg1" version="1.1" height="200" width="1096">
  <defs id="defs1"></defs>
  <rect id="rect1" stroke="none" fill="none" height="200" width="1096" y="0" x="0"></rect>
  <path aria-label="奄美大島近海" style="font-weight:bold;font-size:110px;font-family:'BIZ UDPGothic';fill:#ff0000" id="text1" d="m 93.081055,137.53906 11.762695,3.22266 q -0.10742,13.42773 -5.854492,16.54297 -4.672852,2.52441 -25.78125,2.52441 -16.757813,0 -21.054688,-2.14844 Q 48.286133,155.74707 48.286133,150 V 138.55957 H 26.962891 v 8.27148 H 15.415039 V 102.8418 q -4.243164,2.09472 -7.1435546,3.38379 L 1.3427734,96.772461 Q 24.331055,87.749023 34.536133,77.167969 H 5.9619141 V 67.392578 H 42.109375 q 2.900391,-4.833984 5.424805,-11.762695 l 12.299804,1.665039 q -2.470703,5.908203 -4.726562,10.097656 h 49.091798 v 9.775391 H 75.410156 q 10.903321,8.969726 33.193364,15.952148 l -5.8545,10.258793 q -4.511715,-1.71875 -9.667965,-3.920902 z M 59.726562,94.570312 H 83.251953 Q 70.253906,87.53418 60.639648,77.167969 H 48.662109 q -7.788086,9.77539 -19.013672,17.402343 H 48.286133 V 83.344727 h 11.440429 z m 0,8.701168 v 8.86231 h 21.914063 v -8.86231 z m -11.440429,0 H 26.962891 v 8.86231 h 21.323242 z m 44.418945,35.28809 H 59.726562 v 5.85449 q 0,3.9209 2.739258,4.67285 2.900391,0.75196 10.957032,0.75196 11.655273,0 15.576171,-0.80567 2.524414,-0.53711 3.007813,-3.65234 0.59082,-3.33008 0.698242,-6.82129 z M 48.286133,120.40527 H 26.962891 v 9.45313 h 21.323242 z m 11.440429,0 v 9.45313 h 21.914063 v -9.45313 z m 98.881838,-9.99023 h -45.76172 v -9.02344 h 45.76172 v -8.486327 h -35.28809 v -8.59375 h 35.28809 v -8.110351 h -41.03516 v -8.808594 h 22.5586 q -2.84668,-4.619141 -5.96192,-8.271484 l 12.46094,-3.491211 q 4.29687,5.532226 7.08984,11.762695 h 22.0752 q 4.24316,-6.015625 6.55273,-11.655273 l 13.32032,2.631836 q -2.95411,4.780273 -6.17676,9.023437 h 22.88086 v 8.808594 h -41.67969 v 8.110351 h 35.98633 v 8.59375 h -35.98633 v 8.486327 h 46.45996 v 9.02344 h -46.45996 v 9.02344 h 44.58008 v 9.23828 h -40.60547 q 5.69336,7.03613 14.77051,11.8164 11.97754,6.28418 27.23144,8.64746 l -7.25097,11.01075 q -31.31348,-7.62696 -43.50586,-26.64063 -4.83399,10.36621 -16.27442,17.1875 -10.36621,6.23047 -28.89648,9.88281 l -7.25098,-10.47363 q 34.64356,-3.81347 42.80762,-21.43066 h -41.46485 v -9.23828 H 158.6084 Z M 282.46582,94.570312 q 3.70605,12.568358 14.07227,26.748048 12.62207,17.29492 31.04492,27.39258 l -7.68067,11.06445 q -19.49707,-11.49414 -32.54882,-30.4541 -7.03614,-10.3125 -11.2793,-21.00098 -4.24317,14.39453 -13.15918,26.15723 -13.10547,17.40234 -32.3877,25.67383 l -7.57324,-9.8291 q 20.19531,-8.43262 32.60254,-25.9961 10.41992,-14.82422 12.35352,-29.755858 H 225.04883 V 82.915039 h 43.34472 V 57.026367 h 12.40723 v 25.888672 h 44.25781 v 11.655273 z m 90.12695,-30.454101 q 1.98731,-4.780274 3.22266,-9.130859 l 13.10547,1.77246 q -1.87988,4.458008 -3.4375,7.358399 h 35.77148 v 35.019531 h -64.88281 v 5.424808 h 80.83496 v 8.70117 h -80.83496 v 5.47851 h 77.0752 q -0.69825,24.59961 -3.11524,33.19336 -1.55762,5.47852 -5.85449,7.25098 -3.06152,1.28906 -9.3457,1.28906 -6.44532,0 -12.03125,-0.80566 l -2.14844,-9.02344 h -53.81836 v 5.96192 h -11.54785 v -25.83497 h 11.54785 v 11.06446 h 18.47656 v -14.50196 h -21.1084 V 64.116211 Z m 22.82715,77.719729 v -11.06446 h 11.11817 v 18.69141 q 4.458,0.42969 7.41211,0.42969 3.65234,0 4.56542,-2.09473 1.77247,-3.9209 2.79297,-20.46387 H 377.1582 v 14.50196 z M 356.37207,72.387695 v 5.317383 h 53.0127 v -5.317383 z m 0,12.998047 v 5.854492 h 53.0127 v -5.854492 z m 113.97461,50.649418 q 4.29687,4.99511 9.66797,7.41211 8.80859,3.9746 23.0957,3.9746 h 45.76172 q -1.93359,3.65235 -3.59863,10.47364 h -42.7002 q -18.47656,0 -28.30566,-5.80078 -4.02832,-2.417 -8.86231,-7.89551 -0.37597,0.42969 -0.91308,1.07422 -7.89551,9.3457 -15.6836,15.2539 l -6.49902,-11.01074 q 8.54004,-5.10254 16.48926,-11.54785 v -26.5332 h -15.62988 v -10.58106 h 27.17773 z m 13.96484,-71.274418 2.84668,-0.214844 q 24.86817,-1.71875 44.6875,-7.358398 l 8.37891,9.453125 q -20.83984,5.478516 -44.47266,7.412109 v 13.911133 h 49.73633 V 98.4375 h -18.04687 v 43.77441 H 515.57129 V 98.4375 h -19.81934 q -0.26855,17.24121 -2.57812,27.44629 -2.09473,9.39941 -6.875,16.86523 l -9.88281,-7.46582 q 5.31738,-8.27148 6.82128,-20.51757 1.07422,-8.43262 1.07422,-22.934575 z M 464.43848,85.761719 Q 456.2207,74.160156 446.71387,64.975586 l 8.80859,-7.036133 q 9.23828,7.734375 18.58399,19.658203 z M 647.7002,85.117187 q 0,2.524415 -0.4834,23.955083 h 10.25879 v 9.66796 h -10.47364 q -0.16113,7.03614 -0.69824,15.95215 h 9.07715 v 9.45313 h -9.77539 q -0.64453,7.78808 -1.77246,10.3125 -2.52442,6.01562 -12.2461,6.01562 -6.23046,0 -11.49414,-0.91308 L 618.10547,150 q 7.57324,1.07422 11.60156,1.07422 3.27637,0 3.9209,-2.30957 0.32227,-1.12793 0.59082,-4.61914 h -38.24219 q -0.0537,0.42969 -0.16113,0.91308 -0.4834,2.84668 -0.91309,5.3711 l -11.11816,-1.07422 q 3.27637,-19.38965 4.4043,-29.32617 l 0.16113,-1.28907 h -10.74219 v -9.66796 h 11.87012 q 1.50391,-12.998051 2.57812,-23.955083 z m -33.94532,9.345704 h -11.76269 q -0.16114,2.739257 -0.9668,11.547849 l -0.32227,3.06153 h 11.92383 l 0.16114,-1.50391 q 0.10742,-1.55762 0.32226,-4.35059 0.53711,-7.519528 0.64453,-8.754879 z m 10.58106,0 q -0.26856,6.391599 -0.80567,14.125979 v 0.4834 h 12.62207 q 0.21485,-7.3584 0.37598,-14.609379 z m -12.56836,24.277339 h -12.08496 q -0.80567,6.55274 -1.71875,12.94434 l -0.42969,3.00781 h 12.56836 q 1.28906,-11.65527 1.66504,-15.95215 z m 11.01074,0 q -0.16113,2.14844 -0.64453,7.08985 l -0.85938,8.8623 h 13.69629 q 0.26856,-5.20996 0.42969,-7.84179 0.32227,-5.74707 0.42969,-8.11036 z M 601.72363,65.727539 h 51.88477 v 9.990234 h -56.34278 q -4.35058,8.862305 -11.06445,16.865235 l -7.68066,-8.378906 Q 589.10156,71.796875 593.55957,55.629883 L 605,56.811523 q -1.93359,5.585938 -3.27637,8.916016 z m -29.59472,15.629883 q -6.60645,-9.077149 -16.05957,-17.026367 l 8.11035,-7.841797 q 8.75488,6.445312 16.65039,16.274414 z M 568.26172,109.7168 Q 560.09766,99.243164 551.77246,92.15332 l 8.37891,-8.05664 q 9.3457,7.358398 16.81152,16.75781 z m -14.60938,42.16308 q 9.34571,-12.94433 17.72461,-34.10644 l 9.56055,6.82129 q -6.98242,19.55078 -17.93945,35.8789 z"></path>
</svg>
