<svg xmlns="http://www.w3.org/2000/svg" id="svg1" version="1.1" height="200" width="990">
  <defs id="defs1"></defs>
  <rect id="rect1" stroke="none" fill="none" height="200" width="990" y="0" x="0"></rect>
  <path aria-label="愛知県東部" style="font-size:100px;font-family:'BIZ UDPGothic';fill:#ff0000" id="text1" d="M 75.634766,86.621094 H 94.482422 V 105.32227 H 86.767578 V 92.919922 H 13.232422 V 105.32227 H 5.5175781 V 86.621094 H 24.121094 q -1.806641,-4.492188 -4.6875,-9.179688 l -1.660157,0.09766 q -2.294921,0.146485 -6.347656,0.390625 L 8.203125,71.826172 q 40.869141,-1.660156 73.242187,-7.421875 l 5.517579,5.517578 q -7.519532,1.269531 -11.621094,1.855469 l 7.226562,2.539062 q -3.027343,6.201172 -6.933593,12.304688 z m -7.666016,0 q 4.345703,-7.910157 6.787109,-14.746094 -12.011718,1.757812 -25.097656,2.978516 3.222656,5.273437 5.566406,11.767578 z m -20.3125,0 Q 45.361328,81.054687 42.138672,75.537109 l -14.941406,1.367188 q 3.125,5.126953 4.833984,9.716797 z M 29.785156,133.30078 q -8.642578,5.51758 -18.359375,9.0332 L 6.7871094,136.62109 Q 26.5625,130.12695 37.597656,118.06641 q -5.273437,-0.87891 -5.273437,-6.25 V 97.412109 h 7.714843 v 11.572271 q 0,2.68554 1.806641,3.125 1.513672,0.39062 10.351563,0.39062 8.007812,0 9.960937,-0.53711 1.5625,-0.43945 1.953125,-2.34375 0.488281,-2.44141 0.488281,-6.20117 l 7.226563,2.19726 q -0.09766,8.44727 -3.027344,10.79102 -1.611328,1.31836 -5.029297,1.70898 -3.90625,0.43946 -12.939453,0.43946 -2.539062,0 -4.541016,-0.0488 -2.58789,3.17383 -5.273437,5.81055 h 35.302734 l 3.613282,4.0039 q -8.398438,8.88672 -20.263672,15.57617 14.404297,5.12696 36.767578,8.10547 l -4.736328,7.12891 q -21.728516,-3.4668 -39.746094,-11.23047 -18.945313,8.78906 -43.6523437,12.40234 l -4.1992188,-6.49414 q 22.7050785,-2.68554 39.4531245,-9.375 0.390625,-0.14648 0.732422,-0.29297 -8.203125,-4.49218 -14.501953,-10.83984 z m 21.972656,7.4707 q 9.082032,-4.63867 15.869141,-10.44921 H 35.742187 q 7.519532,6.44531 16.015625,10.44921 z M 11.083984,115.91797 q 5.566407,-6.64063 9.375,-18.212892 l 6.933594,2.099609 q -3.271484,11.962893 -9.716797,20.117193 z m 41.503907,-6.20117 q -3.613282,-7.08008 -8.496094,-12.695316 l 5.810547,-3.515625 q 4.589843,4.882813 8.984375,12.207031 z m 31.201171,8.49609 q -6.445312,-11.66992 -12.5,-18.798828 l 5.908204,-3.515625 q 7.226562,7.958983 13.183593,18.408203 z M 133.93555,84.277344 v 21.044926 h 17.57812 v 6.68945 h -17.67578 q -0.19531,5.85937 -1.07422,11.2793 10.5957,9.08203 19.77539,19.82421 l -5.22461,6.98243 q -5.76172,-8.00782 -16.35742,-18.84766 -5.66406,17.62695 -20.36133,27.97852 l -5.46875,-6.10352 q 19.92188,-13.42773 21.09375,-41.11328 h -22.41211 v -6.68945 h 22.50977 V 84.277344 h -7.61719 q -3.41797,8.789062 -8.88672,16.259766 l -5.71289,-4.833985 q 8.83789,-11.669922 12.5,-31.005859 l 7.51953,1.318359 q -1.46484,6.542969 -2.92968,11.279297 h 28.22265 v 6.982422 z m 59.27734,-8.59375 v 79.833986 h -7.71484 v -7.51953 h -22.26563 v 7.8125 h -7.61719 V 75.683594 Z m -29.98047,7.080078 v 58.154298 h 22.26563 V 82.763672 Z M 282.86133,67.578125 V 114.4043 H 225.78125 V 67.578125 Z m -49.36524,6.005859 v 7.714844 h 41.55274 v -7.714844 z m 0,13.330078 v 7.763672 h 41.55274 v -7.763672 z m 0,13.476568 v 8.30078 h 41.55274 v -8.30078 z M 214.4043,122.2168 h 83.05664 v 6.49414 h -41.99219 v 30.81054 h -7.91016 V 128.71094 H 206.5918 V 74.267578 h 7.8125 z m -9.22852,29.6875 q 12.79297,-6.15235 23.0957,-19.28711 l 6.5918,3.66211 q -10.40039,13.62304 -24.07226,21.72851 z m 84.17969,4.10156 q -10.25391,-11.18164 -23.29102,-19.82422 l 6.00586,-4.49219 q 11.76758,7.37305 23.68164,18.79883 z m 71.97265,-29.39453 q 14.01368,12.84179 36.76758,20.50781 l -4.73633,6.98242 q -10.54687,-3.95508 -18.31054,-8.54492 -12.10938,-7.22656 -21.53321,-18.06641 v 32.03125 h -7.71484 v -31.83593 q -5.76172,7.51953 -14.30664,14.20898 -10.88867,8.49609 -24.31641,13.81836 l -4.78515,-6.29883 q 21.97265,-8.00781 35.79101,-22.80273 H 311.57227 V 87.792969 h 34.22851 v -8.007813 h -41.74805 v -6.591797 h 41.74805 v -8.691406 h 7.71484 v 8.691406 h 42.38282 v 6.591797 h -42.38282 v 8.007813 h 34.76563 V 126.61133 Z M 345.80078,94.091797 h -26.41601 v 9.814453 h 26.41601 z m 7.71484,0 v 9.814453 h 27.05079 v -9.814453 z m -7.71484,15.917973 h -26.41601 v 10.30273 h 26.41601 z m 7.71484,0 v 10.30273 h 27.05079 v -10.30273 z m 80.46875,-33.398442 h 21.82618 v 6.787109 h -7.03125 q -2.05078,9.13086 -5.61524,18.701173 h 14.45313 v 6.88477 h -55.12696 v -6.88477 h 13.72071 l -0.0977,-0.48828 Q 414.0625,91.601562 411.71875,84.423828 l -0.3418,-1.025391 h -7.08008 v -6.787109 h 22.2168 V 64.501953 h 7.4707 z m -15.13671,6.787109 q 2.58789,7.958985 4.73632,18.701173 h 12.15821 q 2.92968,-8.105469 5.32226,-18.701173 z m 31.83593,35.888673 v 39.30664 h -7.32422 v -5.51758 h -25.97656 v 6.39649 h -7.56836 v -40.18555 z m -33.30078,6.68945 v 20.3125 h 25.97656 v -20.3125 z m 65.42969,-22.70508 q 12.8418,13.57422 12.8418,29.44336 0,5.56641 -2.00196,8.39844 -2.4414,3.27149 -8.49609,3.27149 -5.81055,0 -10.69336,-0.6836 l -1.61133,-7.61719 q 6.25,1.02539 10.15625,1.02539 3.71094,0 4.39453,-2.49023 0.29297,-1.07422 0.29297,-3.51562 0,-13.72071 -12.64648,-26.70899 5.85937,-12.695311 9.52148,-26.708983 h -15.42969 v 81.787113 h -7.37304 V 70.507812 h 27.49023 l 4.39453,3.808594 q -5.37109,17.382813 -10.83984,28.955074 z"></path>
</svg>
