<svg xmlns="http://www.w3.org/2000/svg" id="svg1" version="1.1" height="200" width="1096">
  <defs id="defs1"></defs>
  <rect id="rect1" stroke="none" fill="none" height="200" width="1096" y="0" x="0"></rect>
  <path aria-label="青森県西方沖" style="font-weight:bold;font-size:110px;font-family:'BIZ UDPGothic';fill:#ff0000" id="text1" d="m 48.71582,62.880859 v -6.928711 h 11.870117 v 6.928711 h 40.498043 v 8.164063 H 60.585937 v 5.15625 H 95.12207 v 8.164062 H 60.585937 v 5.263672 h 46.674803 v 8.378906 H 2.7392578 V 89.628906 H 48.71582 V 84.365234 H 14.716797 V 76.201172 H 48.71582 v -5.15625 H 8.8085938 v -8.164063 z m 43.881836,40.712891 v 46.72852 q 0,5.74707 -2.846679,7.8955 -2.416993,1.82618 -8.217774,1.82618 -7.412109,0 -17.885742,-0.91309 L 61.821289,149.0332 q 9.023438,1.18164 15.307617,1.18164 2.524414,0 3.061524,-0.80566 0.429687,-0.64453 0.429687,-2.57813 V 140.6543 H 30.239258 v 19.81933 H 18.154297 v -56.87988 z m -62.358398,8.37891 v 6.01562 h 50.380859 v -6.01562 z m 0,14.17968 v 6.33789 h 50.380859 v -6.33789 z M 179.93164,75.825195 q 14.87793,10.473633 35.98633,17.617188 l -6.71387,9.829097 Q 183.90625,93.28125 170.47852,79.316406 V 106.44043 H 158.82324 V 80.283203 q -13.53515,16.05957 -38.08105,24.384767 l -6.44531,-8.701173 q 14.71679,-4.726563 23.79394,-10.097656 7.3584,-4.350586 13.10547,-10.043946 h -32.97852 v -9.882812 h 40.60547 v -9.990235 h 11.65528 v 9.990235 h 41.57226 v 9.882812 z m -45.22461,55.859375 q -7.14355,12.7832 -17.83203,22.0752 l -6.12305,-9.7754 q 13.37403,-9.50683 21.80664,-23.5791 h -19.87304 v -9.56054 h 22.02148 v -10.58106 h 11.01074 v 10.58106 h 16.27442 v 9.56054 h -16.27442 v 2.57813 q 9.07715,5.53222 17.29493,12.40722 l -7.19727,8.11036 q -3.38379,-3.86719 -10.09766,-10.04395 v 27.0166 h -11.01074 z m 62.03613,-11.2793 q 8.05664,12.46094 22.34375,21.91407 l -6.06933,10.68847 q -12.46094,-10.52734 -18.69141,-21.86035 v 29.32617 h -11.01074 v -28.30566 q -6.76758,12.24609 -17.93945,21.05469 l -6.60645,-8.48633 q 14.28711,-10.47363 21.91406,-24.33106 h -14.50195 v -9.56054 h 17.13379 v -10.58106 h 11.01074 v 10.58106 h 22.88086 v 9.56054 z M 312.16797,58.583984 V 110.62988 H 248.25195 V 58.583984 Z m -52.36817,8.486328 v 6.713868 h 40.7129 v -6.713868 z m 0,14.28711 v 6.713867 h 40.7129 v -6.713867 z m 0,14.287109 v 6.928709 h 40.7129 v -6.928709 z m -21.6455,22.128909 h 89.05273 v 9.3457 h -44.41894 v 33.35449 H 270.5957 V 127.11914 H 226.3916 V 66.855469 h 11.7627 z m -13.75,32.4414 q 12.7832,-5.9082 24.43847,-19.81933 l 9.88282,5.74707 q -11.49414,14.55566 -25.5127,22.88086 z m 92.59765,6.92871 q -8.21777,-10.09765 -24.70703,-21.21582 l 9.23828,-6.49902 q 12.94434,7.46582 25.40528,19.60449 z M 365.39551,86.621094 V 71.582031 H 333.38379 V 61.21582 h 103.28613 v 10.366211 h -35.50293 v 15.039063 h 30.13184 v 72.402346 h -11.65528 v -7.57324 h -69.34082 v 7.57324 H 338.75488 V 86.621094 Z m 11.11816,0 h 13.53516 V 71.582031 h -13.53516 z m -11.17187,9.77539 h -15.03907 v 44.848636 h 69.34082 v -16.11328 h -20.35644 q -9.23828,0 -9.23828,-9.23829 V 96.396484 h -13.64258 q -0.21484,13.212896 -3.97461,21.162106 -3.54492,7.57325 -13.96484,14.98536 l -7.41211,-8.27149 q 9.99023,-6.12305 12.62207,-15.14648 1.39648,-4.83399 1.66504,-12.729496 z m 35.82519,0 v 16.435546 q 0,2.09473 1.87988,2.09473 h 16.59668 V 96.396484 Z m 90.98633,-11.49414 q -0.37598,8.969726 -1.07422,15.791016 h 43.29102 q -0.80567,37.27539 -4.18946,48.39355 -1.71875,5.58594 -6.3916,7.73438 -3.65234,1.66504 -10.68847,1.66504 -7.41211,0 -16.81153,-1.12793 l -2.09472,-12.08496 q 12.62207,1.77246 17.77832,1.77246 4.35058,0 5.53222,-2.4707 2.84668,-6.01563 3.97461,-33.19336 h -31.95801 q -1.77246,9.66796 -4.99511,16.75781 -8.96973,19.60449 -29.97071,31.09863 l -8.48632,-9.45312 q 21.05468,-10.95704 27.82226,-28.73536 4.51172,-11.87011 5.85449,-36.147456 H 444.18945 V 73.891602 h 43.88184 V 55.952148 h 12.40723 v 17.939454 h 45.33203 v 11.010742 z m 121.54785,-8.916016 v -20.03418 h 11.54785 v 20.03418 h 29.11133 v 48.608402 h -29.11133 v 35.8789 h -11.54785 v -35.8789 H 585.18066 V 75.986328 Z m -17.40234,10.688477 v 27.338865 h 17.40234 V 86.674805 Z m 46.62109,27.338865 V 86.674805 h -17.6709 v 27.338865 z m -68.75,-31.796873 q -6.55273,-9.13086 -17.34863,-17.456055 l 8.00293,-8.164062 q 10.74219,7.573242 18.1543,16.972656 z m -3.49121,27.607423 q -9.3457,-10.849611 -18.1543,-17.778322 l 8.27149,-8.271484 q 9.39941,6.606445 18.58398,17.080076 z m -16.7041,41.62598 q 10.3125,-14.66309 19.01367,-36.52344 l 9.56055,7.3584 q -7.3584,20.1416 -17.93946,37.91992 z"></path>
</svg>
