<svg xmlns="http://www.w3.org/2000/svg" id="svg1" version="1.1" height="200" width="1096">
  <defs id="defs1"></defs>
  <rect id="rect1" stroke="none" fill="none" height="200" width="1096" y="0" x="0"></rect>
  <path aria-label="沖縄本島南方沖" style="font-weight:bold;font-size:110px;font-family:'BIZ UDPGothic';fill:#ff0000" id="text1" d="m 63.701172,75.986328 v -20.03418 h 11.547851 v 20.03418 H 104.36035 V 124.59473 H 75.249023 v 35.8789 H 63.701172 v -35.8789 H 35.180664 V 75.986328 Z M 46.298828,86.674805 V 114.01367 H 63.701172 V 86.674805 Z M 92.919922,114.01367 V 86.674805 H 75.249023 v 27.338865 z m -68.75,-31.796873 Q 17.617187,73.085937 6.8212891,64.760742 L 14.824219,56.59668 q 10.742187,7.573242 18.154297,16.972656 z M 20.678711,109.82422 Q 11.333008,98.974609 2.5244141,92.045898 l 8.2714839,-8.271484 q 9.399414,6.606445 18.583985,17.080076 z M 3.9746094,151.4502 Q 14.287109,136.78711 22.988281,114.92676 l 9.560547,7.3584 q -7.358398,20.1416 -17.939453,37.91992 z M 126.2207,95.751953 q -5.63965,-8.969726 -14.12597,-18.046875 l 6.28418,-7.788086 q 1.28906,1.396485 2.30957,2.524414 l 0.53711,0.590821 q 5.10254,-7.841797 9.23828,-17.72461 l 9.45312,4.833985 q -5.37109,9.936523 -13.05176,19.819335 2.90039,3.813477 5.42481,7.734375 7.94922,-11.225585 13.2666,-19.873046 l 8.21777,5.800781 q -10.25879,15.522461 -22.98828,29.702153 8.11035,-0.4834 13.05176,-1.07422 -1.23535,-4.243168 -2.68555,-7.949222 l 8.11036,-2.954102 q 4.08203,10.312504 5.96191,20.356444 v -9.3457 h 23.84766 V 96.289062 H 158.07129 V 60.678711 h 52.58301 v 35.610351 h -21.91407 v 6.069338 h 25.0293 v 36.41601 h -25.0293 v 6.82129 q 0,2.84668 1.61133,3.38379 1.55762,0.53711 7.94922,0.53711 7.51953,0 9.23828,-1.55762 1.28906,-1.12793 1.34278,-8.64746 l 9.93652,2.84668 q -0.53711,10.58106 -2.68555,13.42774 -1.82617,2.36328 -6.55273,3.11523 -4.83399,0.75195 -12.46094,0.75195 -12.24609,0 -15.20019,-1.93359 -2.84668,-1.82617 -2.84668,-7.62695 v -11.11817 h -23.84766 v -25.78125 l -8.27149,3.54493 q -0.5371,-3.4375 -1.12792,-6.23047 -1.07422,0.16113 -4.13575,0.64453 -1.61133,0.26855 -2.52441,0.37598 v 49.1455 h -10.47363 v -47.74902 q -0.59082,0.0537 -1.71875,0.16113 -4.94141,0.59082 -12.78321,1.23535 l -2.09472,-9.77539 q 2.14843,-0.10742 4.35058,-0.21484 l 3.22266,-0.16113 q 3.75976,-4.511722 6.55273,-8.217777 z m 52.85157,-27.392578 h -11.44043 v 6.499023 h 11.44043 z m 9.66796,0 v 6.499023 h 11.92383 v -6.499023 z m -9.66796,13.642578 h -11.44043 v 6.821289 h 11.44043 z m 9.66796,0 v 6.821289 h 11.92383 v -6.821289 z m -9.66796,27.714847 h -13.53516 v 6.82129 h 13.53516 z m 9.66796,0 v 6.82129 h 14.55567 v -6.82129 z m -9.66796,14.07226 h -13.53516 v 7.19727 h 13.53516 z m 9.66796,0 v 7.19727 h 14.55567 v -7.19727 z m -77.07519,23.36426 q 3.16894,-10.52734 3.86719,-28.03711 l 9.77539,1.39649 q -0.4834,18.90625 -3.86719,31.36718 z m 33.56933,-2.20215 q -1.71875,-13.48144 -4.18945,-24.43847 l 8.00293,-2.30957 q 3.11524,10.47363 5.10254,22.66601 z M 284.77539,86.298828 q 17.61719,25.673832 43.29102,41.088872 l -7.62696,10.36621 Q 294.1748,118.52539 280.47852,96.181641 V 128.94531 H 302.5 v 10.58106 h -21.80664 v 20.94726 H 268.6084 v -20.94726 h -20.57129 v -10.58106 h 20.78613 V 96.71875 q -13.21289,24.43848 -38.72558,43.66699 l -7.78809,-9.66797 q 25.94238,-17.1875 42.00195,-44.418942 H 225.37109 V 75.288086 h 43.12989 V 55.952148 h 12.2998 v 19.335938 h 43.82813 v 11.010742 z m 87.81738,-22.182617 q 1.98731,-4.780274 3.22266,-9.130859 l 13.10547,1.77246 q -1.87988,4.458008 -3.4375,7.358399 h 35.77148 v 35.019531 h -64.88281 v 5.424808 h 80.83496 v 8.70117 h -80.83496 v 5.47851 h 77.0752 q -0.69825,24.59961 -3.11524,33.19336 -1.55762,5.47852 -5.85449,7.25098 -3.06152,1.28906 -9.3457,1.28906 -6.44532,0 -12.03125,-0.80566 l -2.14844,-9.02344 h -53.81836 v 5.96192 h -11.54785 v -25.83497 h 11.54785 v 11.06446 h 18.47656 v -14.50196 h -21.1084 V 64.116211 Z m 22.82715,77.719729 v -11.06446 h 11.11817 v 18.69141 q 4.458,0.42969 7.41211,0.42969 3.65234,0 4.56542,-2.09473 1.77247,-3.9209 2.79297,-20.46387 H 377.1582 v 14.50196 z M 356.37207,72.387695 v 5.317383 h 53.0127 v -5.317383 z m 0,12.998047 v 5.854492 h 53.0127 V 85.385742 Z M 489.03809,120.5127 h -22.23633 v -8.8086 h 10.74219 q -2.417,-5.47851 -5.47852,-10.20508 l 9.66797,-3.544918 q 4.18945,7.036128 6.76758,13.749998 h 12.62207 q 3.16894,-6.49902 5.58593,-13.964842 l 10.7959,3.383792 q -2.73926,5.9082 -5.80078,10.58105 h 11.54785 v 8.8086 h -22.98828 v 7.84179 h 24.49219 v 9.13086 h -24.49219 v 20.30274 h -11.22558 v -20.30274 h -23.57911 v -9.13086 h 23.57911 z m 11.54785,-33.085942 h 40.71289 v 62.788082 q 0,5.53223 -2.9541,7.78809 -2.47071,1.93359 -8.3252,1.93359 -7.57324,0 -14.60937,-0.80566 l -2.63184,-10.7959 q 9.39941,1.12793 14.07227,1.12793 1.93359,0 2.25586,-0.9668 0.21484,-0.59082 0.21484,-1.66504 V 96.772461 H 460.67871 V 160.47363 H 448.70117 V 87.426758 h 40.01465 v -9.72168 h -45.97656 v -9.990234 h 45.97656 V 55.952148 h 11.87012 v 11.762696 h 46.62109 v 9.990234 h -46.62109 z m 101.56738,-2.524414 q -0.37598,8.969726 -1.07422,15.791016 h 43.29102 q -0.80567,37.27539 -4.18946,48.39355 -1.71875,5.58594 -6.3916,7.73438 -3.65234,1.66504 -10.68847,1.66504 -7.41211,0 -16.81153,-1.12793 l -2.09472,-12.08496 q 12.62207,1.77246 17.77832,1.77246 4.35058,0 5.53222,-2.4707 2.84668,-6.01563 3.97461,-33.19336 h -31.95801 q -1.77246,9.66796 -4.99511,16.75781 -8.96973,19.60449 -29.97071,31.09863 l -8.48632,-9.45312 q 21.05468,-10.95704 27.82226,-28.73536 4.51172,-11.87011 5.85449,-36.147456 H 554.18945 V 73.891602 h 43.88184 V 55.952148 h 12.40723 v 17.939454 h 45.33203 v 11.010742 z m 121.54785,-8.916016 v -20.03418 h 11.54785 v 20.03418 h 29.11133 v 48.608402 h -29.11133 v 35.8789 h -11.54785 v -35.8789 H 695.18066 V 75.986328 Z m -17.40234,10.688477 v 27.338865 h 17.40234 V 86.674805 Z m 46.62109,27.338865 V 86.674805 h -17.6709 v 27.338865 z m -68.75,-31.796873 q -6.55273,-9.13086 -17.34863,-17.456055 l 8.00293,-8.164062 q 10.74219,7.573242 18.1543,16.972656 z m -3.49121,27.607423 q -9.3457,-10.849611 -18.1543,-17.778322 l 8.27149,-8.271484 q 9.39941,6.606445 18.58398,17.080076 z m -16.7041,41.62598 q 10.3125,-14.66309 19.01367,-36.52344 l 9.56055,7.3584 q -7.3584,20.1416 -17.93946,37.91992 z"></path>
</svg>
