<svg version="1.1" xmlns="http://www.w3.org/2000/svg" xmlns:xlink="http://www.w3.org/1999/xlink" width="990" height="200" viewBox="0,0,990,200"><g transform="translate(255.5,-79.5)"><g stroke="none" stroke-miterlimit="10"><path d="M-245.7832,231.99023v-8.10546c3.0599,-10.77474 11.39323,-20.76823 25,-29.98047l2.7832,-1.9043c6.02214,-4.06901 10.04232,-7.11263 12.06055,-9.13086c3.64583,-3.58073 5.46875,-7.48698 5.46875,-11.71875c0,-3.97135 -1.4974,-7.21029 -4.49219,-9.7168c-3.1901,-2.70182 -7.37305,-4.05274 -12.54883,-4.05274c-7.97526,0 -15.03906,3.49935 -21.19141,10.49805l-6.29883,-5.46875c6.90104,-8.6263 16.08073,-12.93945 27.53906,-12.93945c6.34766,0 11.81641,1.35091 16.40625,4.05273c7.0638,4.13411 10.5957,10.13997 10.5957,18.01758c0,5.59896 -2.22982,10.57942 -6.68945,14.9414c-2.14844,2.08333 -6.51042,5.40365 -13.08594,9.96094l-1.66016,1.17187l-3.4668,2.39258c-12.30469,8.43099 -19.27083,16.25977 -20.89844,23.48633h46.875v8.49609z" fill="#ff0000"/><path d="M-255.5,279.5v-200h990v200z" fill="none"/></g></g></svg>