<svg xmlns="http://www.w3.org/2000/svg" id="svg1" version="1.1" height="200" width="990">
  <defs id="defs1"></defs>
  <rect id="rect1" stroke="none" fill="none" height="200" width="990" y="0" x="0"></rect>
  <path aria-label="安芸灘" style="font-size:100px;font-family:'BIZ UDPGothic';fill:#ff0000" id="text1" d="m 46.09375,139.59961 q -11.474609,-4.73633 -28.613281,-10.20508 6.347656,-8.49609 12.255859,-19.28711 H 2.4902344 v -6.78711 H 33.300781 l 0.53711,-1.02539 q 3.759765,-7.568358 7.27539,-15.771483 l 7.666016,2.09961 q -3.076172,7.470703 -6.640625,14.697263 h 55.371094 v 6.78711 H 77.001953 q -2.294922,8.05664 -6.689453,15.42969 -4.492188,7.61719 -9.960938,12.64648 16.552735,6.68946 32.128907,14.59961 l -5.371094,6.44532 Q 71.875,150.73242 54.248047,142.96875 36.474609,155.07812 8.8867188,158.98437 L 5.1757812,152.29492 Q 30.419922,149.26758 46.09375,139.59961 Z m 6.298828,-4.58984 q 10.205078,-8.54493 16.259766,-24.90235 H 38.671875 q -4.980469,9.47266 -9.716797,16.55274 11.279297,3.66211 23.4375,8.34961 z m 1.220703,-58.300786 h 39.160156 v 21.09375 H 84.863281 V 83.398437 H 14.794922 V 97.802734 H 6.8847656 V 76.708984 H 45.703125 V 64.501953 h 7.910156 z M 128.71094,75.878906 V 64.501953 h 8.00781 v 11.376953 h 25.68359 V 64.501953 h 8.00782 v 11.376953 h 25 v 6.78711 h -25 v 10.693359 h -8.00782 V 82.666016 h -25.68359 v 10.693359 h -8.00781 V 82.666016 H 104.6875 v -6.78711 z m 12.10937,50.488284 q -5.81054,11.96289 -13.18359,22.7539 l 7.91015,-0.48828 q 17.13868,-1.12304 34.7168,-2.92969 l 5.41992,-0.5371 q -4.29687,-4.6875 -10.98632,-10.79102 l 6.49414,-3.61328 q 11.86523,9.91211 23.38867,23.92578 L 187.5,159.17969 q -3.51563,-4.63867 -6.93359,-8.59375 -27.68555,4.39453 -70.6543,6.78711 l -2.63672,-7.12891 6.25,-0.29297 q 2.24609,-0.0976 4.98047,-0.24414 3.51562,-4.73633 7.91016,-12.89062 3.125,-5.66407 5.27343,-10.44922 h -29.19922 v -6.78711 h 95.01954 v 6.78711 z M 114.20898,99.707031 h 71.48438 v 6.689449 h -71.48438 z m 130.61524,-8.496094 v 4.882813 h 13.81836 v 18.4082 h -13.81836 v 5.51758 h 14.9414 v 5.81055 h -14.99023 q -0.14648,3.07617 -0.43945,5.85937 h 18.21289 v 5.71289 H 243.4082 q -0.24414,0.87891 -0.53711,1.9043 9.52149,6.15234 18.16407,13.08594 l -4.58985,5.71289 q -7.32422,-6.68945 -15.91797,-13.13477 -4.78515,9.42383 -16.21093,14.84375 l -4.6875,-5.71289 q 13.42773,-5.27344 16.8457,-16.69922 h -16.06445 v -5.71289 h 17.28515 q 0.43946,-3.125 0.53711,-5.85937 h -14.84375 v -5.81055 h 14.94141 v -5.51758 h -13.72071 v -18.4082 h 13.62305 v -4.882813 h -8.30078 V 79.6875 h -7.51953 v -5.810547 h 7.51953 v -9.375 h 6.49414 v 9.375 h 10.40039 v -9.375 h 6.49414 v 9.375 h 8.83789 V 79.6875 h -8.83789 v 11.523437 z m -6.29883,10.302733 h -7.91016 v 7.76367 h 7.91016 z m 6.10352,0 v 7.76367 h 8.10546 v -7.76367 z m 2.19726,-21.82617 h -10.40039 v 6.298828 h 10.40039 z m 26.02539,3.320312 h 7.22656 q 2.49024,-9.033203 3.95508,-18.115234 l 6.68946,1.318359 q -1.95313,9.570313 -4.54102,16.796875 h 10.9375 v 6.591797 h -10.88867 v 14.697271 h 9.17969 v 6.39648 h -9.17969 v 14.50195 h 9.17969 v 6.49414 h -9.17969 v 16.01563 h 11.8164 v 6.68945 h -25.34179 v 5.07813 h -6.39649 v -57.08008 q -1.5625,3.95508 -3.51562,8.00781 l -3.56445,-6.5918 q 7.4707,-16.650387 10.40039,-39.501949 l 6.98242,0.976562 Q 275,74.609375 273.14453,81.933594 Z m 7.08008,6.591797 h -7.22656 v 14.697271 h 7.22656 z m 0,21.093751 h -7.22656 v 14.50195 h 7.22656 z m -7.22656,20.99609 v 16.01563 h 7.22656 v -16.01563 z m -56.5918,-45.703122 q -5.22461,-7.910156 -12.5,-15.478516 l 5.41992,-4.589843 q 6.5918,6.103515 12.59766,14.794922 z m -2.49023,24.707032 q -6.78711,-9.47266 -12.5,-15.087891 l 5.51757,-4.6875 q 6.73829,6.396484 12.69532,14.599611 z m -11.18164,43.50586 q 6.34765,-13.52539 11.08398,-34.17969 l 6.5918,3.36914 q -3.85742,19.53125 -10.98633,35.79102 z"></path>
</svg>
