<svg xmlns="http://www.w3.org/2000/svg" id="svg1" version="1.1" height="200" width="1096">
  <defs id="defs1"></defs>
  <rect id="rect1" stroke="none" fill="none" height="200" width="1096" y="0" x="0"></rect>
  <path aria-label="新潟県上越地方" style="font-weight:bold;font-size:110px;font-family:'BIZ UDPGothic';fill:#ff0000" id="text1" d="m 36.09375,123.4668 q 7.788086,4.24316 17.241211,11.92382 l -6.123047,9.99024 Q 41.142578,138.55957 36.09375,134.15527 v 26.31836 H 25.083008 V 131.79199 Q 17.832031,145.1123 7.8417969,154.08203 L 1.5576172,143.93066 Q 13.535156,135.44434 21.484375,122.82227 H 4.5117187 v -9.45313 H 25.083008 V 102.89551 H 2.4169922 V 93.012695 H 14.179688 Q 12.783203,86.191406 10.258789,78.134766 H 4.5117187 V 68.144531 H 24.868164 V 55.952148 h 11.44043 v 12.192383 h 19.49707 v 9.990235 h -5.74707 q -1.987305,8.05664 -4.941407,14.877929 h 12.299805 v 9.882815 H 36.09375 v 10.47363 h 19.335937 v 9.45313 H 36.09375 Z M 20.947266,78.134766 q 2.041015,6.713867 3.544921,14.877929 h 10.634766 q 2.470703,-6.928711 4.243164,-14.877929 z m 50.541992,26.103514 q 0.05371,16.65039 -2.578125,30.88379 -2.739258,14.77051 -9.72168,26.42578 l -8.862305,-8.11035 q 5.961914,-9.66797 8.164063,-23.74023 1.933594,-12.03125 1.933594,-30.722661 V 65.297852 q 1.074218,-0.107422 3.276367,-0.322266 17.080078,-1.611328 34.213867,-7.358399 l 7.036131,9.345704 q -14.287108,4.833984 -33.408201,7.46582 V 93.012695 H 107.58301 V 104.23828 H 95.283203 v 56.23535 H 84.165039 v -56.23535 z m 86.206052,0 H 146.52344 V 62.773437 l 0.59082,-0.05371 q 13.75,-1.826172 23.36426,-6.391602 l 7.4121,7.788086 q -8.11035,3.276367 -20.46386,5.908203 v 8.916016 h 17.34863 v 8.05664 h -17.34863 v 8.862305 h 40.12207 V 86.99707 h -17.6709 v -8.05664 h 17.6709 v -8.217774 h -17.93946 v -8.59375 h 28.9502 v 42.109374 h -39.58496 q -1.71875,3.11524 -4.45801,7.03613 h 51.0791 q -0.4834,29.27246 -2.90039,37.91993 -1.55761,5.53222 -4.35058,8.00293 -3.11524,2.79296 -9.45313,2.79296 -7.94922,0 -15.52246,-0.85937 l -2.20215,-10.68848 q 8.43262,1.4502 14.01856,1.4502 4.61914,0 5.80078,-2.41699 2.36328,-4.99512 3.27637,-27.28516 h -47.31934 q -4.45801,4.29687 -8.75488,7.30469 l 8.00293,2.25586 q -2.20215,15.84472 -6.39161,26.21093 l -10.41992,-5.31738 q 4.67285,-9.50683 7.19727,-22.02148 -1.23535,0.80566 -3.9209,2.4707 l -6.01563,-7.14355 -1.07421,3.81347 q -5.8545,20.625 -12.03125,32.44141 l -10.09766,-8.11035 q 8.48633,-15.73731 14.50195,-37.49024 l 9.56055,6.33789 -0.64453,2.25586 q 12.56836,-6.66015 20.83984,-18.95996 z M 131.80664,81.035156 q -6.875,-9.130859 -15.95215,-16.489258 l 8.11035,-7.626953 q 8.70118,6.015625 16.59668,15.844727 z M 128.1543,108.75 q -6.98242,-9.130859 -16.05957,-17.294922 l 8.16406,-7.895508 q 9.61426,7.465821 16.7041,16.59668 z m 35.18066,43.77441 q -0.91309,-12.67578 -3.81348,-23.74023 l 8.21778,-2.20215 q 4.18945,11.06445 5.4248,22.0752 z m 16.27441,-5.80078 q -2.57812,-11.54785 -6.12304,-19.28222 l 7.46582,-3.16895 q 4.02832,7.89551 6.82129,18.04688 z m 13.91114,-5.10254 q -2.57813,-9.56054 -7.19727,-17.02636 l 7.30469,-3.4375 q 4.83398,7.14355 7.57324,15.95214 z M 312.16797,58.583984 V 110.62988 H 248.25195 V 58.583984 Z m -52.36817,8.486328 v 6.713868 h 40.7129 v -6.713868 z m 0,14.28711 v 6.713867 h 40.7129 v -6.713867 z m 0,14.287109 v 6.928709 h 40.7129 v -6.928709 z m -21.6455,22.128909 h 89.05273 v 9.3457 h -44.41894 v 33.35449 H 270.5957 V 127.11914 H 226.3916 V 66.855469 h 11.7627 z m -13.75,32.4414 q 12.7832,-5.9082 24.43847,-19.81933 l 9.88282,5.74707 q -11.49414,14.55566 -25.5127,22.88086 z m 92.59765,6.92871 q -8.21777,-10.09765 -24.70703,-21.21582 l 9.23828,-6.49902 q 12.94434,7.46582 25.40528,19.60449 z m 71.22071,-70.522456 h 38.77929 v 11.010742 h -38.77929 v 44.902344 h 49.03808 v 11.22559 H 332.73926 v -11.22559 h 42.48535 V 55.952148 h 12.99805 z M 491.66992,124.00391 V 75.288086 h 19.76563 q -0.42969,-7.304688 -0.59082,-19.335938 h 10.41992 q 0.16113,9.023438 0.42969,16.59668 l 0.10742,2.739258 h 23.36426 v 9.775391 h -22.77344 q 1.18164,14.072265 3.59863,24.868163 4.67285,-8.43262 8.48633,-20.67871 l 9.02344,4.296875 q -7.30469,18.691405 -13.75,28.842775 3.22265,8.00293 4.83398,8.00293 0.59082,0 1.12793,-1.87989 1.34277,-4.72656 2.09473,-11.22558 l 8.54004,5.47851 q -3.49121,21.96778 -10.15137,21.96778 -2.79297,0 -6.33789,-3.4375 -3.54492,-3.49121 -6.76758,-9.61426 -7.03613,8.3252 -14.98535,14.55566 l -7.62695,-7.25097 q 10.8496,-7.51953 18.36914,-17.72461 -4.99512,-16.32813 -6.76758,-36.201173 h -10.04395 v 33.945313 q 4.8877,-2.57813 10.20508,-5.69336 l 1.77246,8.91602 q -12.13867,8.48632 -24.43847,14.17968 l -5.3711,-9.45312 q 3.81348,-1.39649 7.46582,-2.9541 z m -19.12109,17.61718 q 5.69336,2.68555 13.32031,4.56543 8.91602,2.14844 16.38184,2.14844 h 45.97656 q -2.4707,4.67285 -3.86719,10.47363 h -42.7539 q -15.62989,0 -29.27247,-5.96191 -9.99023,-4.29688 -17.72461,-14.39453 -1.77246,12.51465 -5.74707,22.02148 l -7.78808,-8.70117 q 5.20996,-17.02637 5.96191,-43.7207 l 9.56055,1.66504 q -0.16113,5.15625 -1.07422,15.84472 2.36328,3.81348 6.66016,8.11035 v -32.54882 h -19.87305 v -9.990238 h 19.44336 V 78.94043 h -16.59668 v -9.775391 h 16.59668 V 55.952148 h 10.68848 v 13.212891 h 14.71679 v 9.775391 h -14.71679 v 12.192382 h 15.52246 v 9.990238 h -15.41504 v 12.24609 h 13.42773 v 9.88281 H 472.54883 Z M 534.2627,74.96582 q -3.70606,-8.59375 -8.59375,-15.039062 l 8.00292,-4.296875 q 4.72657,6.123047 9.34571,14.394531 z m 72.02636,24.492188 v 42.539062 q 0,4.13574 3.54492,4.99512 3.65235,0.91308 16.70411,0.91308 12.72949,0 16.81152,-1.28906 2.30957,-0.75195 3.00781,-4.18945 0.91309,-4.83399 0.9668,-11.44043 l 11.22558,3.16894 Q 657.69043,150 654.19922,154.4043 q -2.30957,2.90039 -6.98242,3.4375 -7.3584,0.80566 -24.97559,0.80566 -13.64258,0 -17.88574,-0.75195 -6.3916,-1.07422 -8.11035,-5.63965 -0.85938,-2.41699 -0.85938,-6.44531 v -42.59278 l -10.25879,3.54493 -2.52441,-10.419927 12.7832,-4.404296 V 62.988281 h 10.90332 v 25.19043 l 11.54785,-3.920899 V 55.952148 h 10.7959 v 24.545899 l 17.99317,-6.176758 5.63964,3.4375 v 40.229491 q 0,4.18945 -1.9873,6.23047 -2.25586,2.25586 -7.57324,2.25586 -4.35059,0 -9.23828,-0.75195 l -1.77246,-10.25879 q 3.16894,0.80566 6.44531,0.80566 2.36328,0 2.90039,-0.9668 0.53711,-0.80566 0.53711,-2.68554 V 87.211914 l -12.94434,4.511719 v 43.452147 h -10.7959 V 95.429687 Z M 566.81152,81.894531 V 55.952148 h 11.54785 v 25.942383 h 10.41993 v 10.903321 h -10.41993 v 34.160158 q 5.63965,-1.9336 11.17188,-4.02832 l 1.02051,10.36621 q -17.40235,7.94922 -35.71778,13.32031 l -3.75976,-11.44043 q 8.27148,-2.14844 14.50195,-4.08203 0.75195,-0.26855 1.23535,-0.37598 V 92.797852 H 553.16895 V 81.894531 Z m 145.3418,3.007813 q -0.37598,8.969726 -1.07422,15.791016 h 43.29102 q -0.80567,37.27539 -4.18946,48.39355 -1.71875,5.58594 -6.3916,7.73438 -3.65234,1.66504 -10.68847,1.66504 -7.41211,0 -16.81153,-1.12793 l -2.09472,-12.08496 q 12.62207,1.77246 17.77832,1.77246 4.35058,0 5.53222,-2.4707 2.84668,-6.01563 3.97461,-33.19336 h -31.95801 q -1.77246,9.66796 -4.99511,16.75781 -8.96973,19.60449 -29.97071,31.09863 l -8.48632,-9.45312 q 21.05468,-10.95704 27.82226,-28.73536 4.51172,-11.87011 5.85449,-36.147456 H 664.18945 V 73.891602 h 43.88184 V 55.952148 h 12.40723 v 17.939454 h 45.33203 v 11.010742 z"></path>
</svg>
