<svg xmlns="http://www.w3.org/2000/svg" id="svg1" version="1.1" height="200" width="1096">
  <defs id="defs1"></defs>
  <rect id="rect1" stroke="none" fill="none" height="200" width="1096" y="0" x="0"></rect>
  <path aria-label="伊予灘" style="font-weight:bold;font-size:110px;font-family:'BIZ UDPGothic';fill:#ff0000" id="text1" d="m 99.472656,85.009766 h 8.271484 v 9.882812 H 99.472656 V 120.19043 H 72.080078 q -0.966797,14.87793 -6.176758,23.84766 -6.606445,11.44043 -16.811523,17.72461 l -8.59375,-8.59375 q 9.829101,-5.69336 15.576172,-15.52247 3.813476,-6.60644 4.511718,-17.45605 H 38.295898 V 110.2002 H 60.74707 V 94.892578 H 30.078125 V 85.009766 H 60.74707 V 70.668945 H 39.960937 v -9.990234 h 59.511719 z m -11.333008,0 V 70.668945 H 72.1875 v 14.340821 z m 0,9.882812 H 72.1875 V 110.2002 H 88.139648 Z M 27.285156,82.592773 V 160.47363 H 15.737305 v -55.10742 q -3.97461,6.55274 -9.0234378,13.53516 L 1.2353516,106.92383 Q 10.3125,94.624023 16.59668,78.671875 q 3.920898,-9.882813 7.734375,-23.47168 l 11.655273,2.954102 q -4.189453,14.018555 -8.701172,24.438476 z m 149.101564,3.706055 q 3.75976,1.933594 8.64746,4.619141 l -6.82129,5.532226 h 32.33398 l 6.06934,6.069335 Q 204.53125,120.72754 192.5,132.43652 l -10.90332,-6.3916 q 10.58105,-9.66797 16.97266,-19.22851 h -26.74805 v 42.10937 q 0,7.30469 -3.59863,9.3457 -2.417,1.39649 -9.02344,1.39649 -8.64746,0 -19.06738,-1.07422 L 137.5,146.61621 q 10.04395,1.61133 17.83203,1.61133 2.9541,0 3.65234,-0.9668 0.53711,-0.80566 0.53711,-2.9541 V 106.81641 H 114.51172 V 96.450195 h 58.22265 Q 154.58008,86.030273 136.42578,78.833008 l 8.70117,-6.928711 q 12.19239,4.887695 21.53809,9.506836 8.27148,-5.639649 14.50195,-11.064453 H 123.75 V 60.141602 h 73.04687 l 6.60645,6.445312 q -14.07227,11.333008 -27.0166,19.711914 z m 94.74609,-1.665039 v 4.887695 h 14.60938 v 6.606446 q 7.68066,-18.959961 10.36621,-40.65918 l 9.77539,1.450195 q -1.98731,11.333008 -3.81348,18.476563 h 5.58594 q 2.52441,-9.506836 3.9209,-19.335938 l 9.39941,1.71875 q -1.9873,9.453125 -4.78027,17.617188 h 11.17187 v 9.667969 h -10.47363 v 13.696289 h 8.59375 v 9.345704 h -8.59375 v 13.37402 h 8.59375 v 9.50684 h -8.59375 v 14.39453 h 11.54785 v 9.88281 h -26.47949 v 5.15625 h -9.13086 V 100.9082 q -1.18164,2.84668 -3.33008,7.19727 l -3.75976,-10.7959 v 12.89063 h -14.60938 v 5.15625 h 15.36133 v 7.78808 h -15.36133 q -0.10742,3.70606 -0.21484,5.42481 h 18.6914 v 7.78808 h -19.71191 q -0.10742,0.59082 -0.37598,1.71875 9.93653,5.85449 19.33594,13.69629 l -6.3916,8.00293 q -7.30469,-7.08984 -15.68359,-13.32031 l -0.59082,-0.4834 q -6.23047,10.36621 -17.88575,16.00586 l -6.82129,-8.59375 q 10.04395,-3.54492 14.77051,-10.20508 1.87989,-2.57812 3.16895,-6.82129 h -16.11328 v -7.78808 h 17.77832 q 0.37597,-3.70606 0.42968,-5.42481 h -15.30761 v -7.78808 h 15.36133 V 110.2002 H 246.96289 V 89.521484 h 14.50195 v -4.887695 h -9.13086 V 72.65625 h -5.37109 l -8.27148,7.788086 q -5.15625,-8.110352 -14.39454,-17.241211 l 8.16407,-6.928711 q 6.66015,5.532227 13.05176,14.072266 v -5.854493 h 6.82128 v -9.238281 h 9.34571 v 9.238281 h 9.45312 v -9.238281 h 9.23828 v 9.238281 h 8.91602 v 8.164063 h -8.91602 v 11.977539 z m -9.13086,11.708984 h -6.92871 v 7.143557 h 6.92871 z m 8.59375,0 v 7.143557 h 7.25098 V 96.342773 Z M 261.67969,72.65625 v 5.371094 h 9.45312 V 72.65625 Z m 40.2832,12.407227 v 13.696289 h 6.44531 V 85.063477 Z m 0,23.041993 v 13.37402 h 6.44531 v -13.37402 z m 0,22.88086 v 14.39453 h 6.44531 v -14.39453 z m -67.35352,-24.00879 q -7.8955,-10.957032 -14.07226,-17.13379 l 8.37891,-7.036133 q 8.05664,7.197266 14.50195,16.59668 z m -12.99804,46.29883 q 7.57324,-16.167 12.89062,-39.47754 l 9.66797,4.83398 q -4.13574,21.43067 -12.19238,42.27051 z"></path>
</svg>
