<svg xmlns="http://www.w3.org/2000/svg" id="svg1" version="1.1" height="200" width="990">
  <defs id="defs1"></defs>
  <rect id="rect1" stroke="none" fill="none" height="200" width="990" y="0" x="0"></rect>
  <path aria-label="新島・神津島近海" style="font-size:100px;font-family:'BIZ UDPGothic';fill:#ff0000" id="text1" d="m 31.640625,106.10352 v 11.37695 H 50 v 6.49414 H 31.640625 v 3.27148 q 8.154297,4.93164 16.162109,11.42578 l -4.199218,6.5918 q -6.298829,-6.25 -11.962891,-10.83984 v 25.04883 H 24.169922 V 131.44531 Q 17.626953,143.65234 6.6894531,153.75977 L 2.1972656,147.36328 Q 14.550781,137.89062 22.119141,123.97461 H 4.6875 v -6.49414 H 24.169922 V 106.10352 H 2.5878906 V 99.511719 H 14.794922 Q 13.28125,92.089844 10.839844,83.59375 H 4.6875 V 76.904297 H 24.121094 V 64.501953 h 7.568359 V 76.904297 H 50 v 6.689453 h -5.322266 q -1.904297,7.763672 -5.224609,15.917969 h 12.060547 v 6.591801 z M 17.96875,83.59375 l 0.146484,0.585937 q 1.5625,5.322266 3.613282,15.332032 h 11.035156 q 3.173828,-9.082032 4.6875,-15.917969 z m 44.384766,22.80273 q -0.04883,17.48047 -1.757813,28.32032 -2.197266,13.7207 -8.642578,24.46289 l -5.908203,-5.3711 q 5.859375,-9.81445 7.617187,-23.82812 1.171875,-9.66797 1.171875,-24.80469 V 74.21875 q 18.017578,-2.148438 33.398438,-7.519531 l 4.93164,6.103515 Q 78.710937,77.734375 62.353516,80.126953 V 99.21875 h 35.107421 v 7.17773 H 84.130859 v 53.07618 h -7.421875 v -53.07618 z m 105.664064,42.82227 h -53.8086 v 5.71289 h -7.71484 v -23.0957 h 7.71484 v 11.18164 h 19.0918 v -14.69727 h -19.0918 V 73.291016 h 23.97461 q 3.36914,-4.931641 5.41993,-9.179688 l 8.6914,2.001953 q -2.39258,3.515625 -5.46875,7.177735 h 35.25391 v 30.517574 h -59.96094 v 6.00586 h 75.3418 v 6.10352 h -75.3418 v 6.29883 h 70.94727 q -0.73243,23.87695 -3.32032,30.71289 -1.5625,4.19922 -5.51757,5.66406 -2.5879,0.92773 -6.83594,0.92773 -6.15235,0 -11.76758,-0.8789 l -1.61133,-7.22656 q 6.73828,1.02539 12.10938,1.02539 4.24804,0 5.37109,-1.95313 2.24609,-3.90625 3.36914,-22.16797 h -43.94531 v 14.69727 h 19.58008 v -11.18164 h 7.51953 z M 122.11914,79.296875 v 6.298828 h 52.09961 v -6.298828 z m 0,12.011719 v 6.689453 h 52.09961 v -6.689453 z m 102.97852,11.669926 q 3.75976,0 6.49414,2.92968 2.4414,2.53907 2.4414,6.10352 0,2.53906 -1.41601,4.78516 -2.68555,4.19921 -7.66602,4.19921 -2.14844,0 -4.10156,-1.02539 -4.83399,-2.58789 -4.83399,-8.05664 0,-4.54101 3.8086,-7.27539 2.34375,-1.66015 5.27344,-1.66015 z m 50.53711,4.78515 q 7.91015,5.3711 15.47851,12.20703 l -4.58984,6.49414 q -5.0293,-5.51757 -10.88867,-10.5957 v 43.60352 h -7.42188 v -42.72461 q -5.95703,6.68945 -12.59766,12.45117 l -4.0039,-6.93359 q 18.94531,-15.38086 27.63672,-34.082036 h -25.43946 v -7.080078 h 14.30664 V 64.501953 h 7.42188 v 16.601563 h 9.91211 l 3.17383,4.101562 q -4.78516,11.230469 -12.98828,22.412112 z M 313.28125,80.517578 V 64.501953 h 7.51953 v 16.015625 h 22.11914 v 52.978512 h -22.11914 v 25.97657 h -7.51953 V 133.49609 H 292.33398 V 80.517578 Z m -13.86719,6.591797 v 16.210935 h 13.86719 V 87.109375 Z m 0,22.705075 v 16.89453 h 13.86719 v -16.89453 z m 36.32813,16.89453 v -16.89453 h -14.94141 v 16.89453 z m 0,-23.38867 V 87.109375 h -14.94141 v 16.210935 z m 77.88086,8.20313 v 8.49609 h 28.07617 v 6.20117 h -28.07617 v 8.59375 h 31.73828 v 6.49414 h -31.73828 v 18.21289 h -7.71485 v -18.21289 h -30.07812 v -6.49414 h 30.07812 v -8.59375 h -25.48828 v -6.20117 h 25.48828 v -8.49609 h -22.31445 v -6.00586 H 405.9082 V 96.191406 H 374.41406 V 89.990234 H 405.9082 V 80.810547 H 383.78906 V 74.707031 H 405.9082 V 64.501953 h 7.71485 v 10.205078 h 24.75586 v 15.283203 h 9.17968 v 6.201172 h -9.17968 v 15.332034 z m 0,-6.00586 h 17.28515 v -9.326174 h -17.28515 z m 0,-15.527346 h 17.28515 v -9.179687 h -17.28515 z m -43.11524,-3.710937 q -7.1289,-9.082031 -14.59961,-15.283203 l 5.51758,-5.175782 q 8.39844,6.689454 14.79492,14.794922 z m -3.61328,25.732423 q -6.68945,-8.54492 -14.89258,-15.429689 l 5.41992,-5.371094 q 7.8125,6.054688 15.28321,14.794923 z m -12.69531,41.06445 q 9.0332,-13.13476 16.60156,-33.39844 l 6.20117,4.63868 q -6.83593,19.53125 -16.21093,34.375 z m 163.81836,-3.85742 h -53.8086 v 5.71289 h -7.71484 v -23.0957 h 7.71484 v 11.18164 h 19.0918 v -14.69727 h -19.0918 V 73.291016 h 23.97461 q 3.36914,-4.931641 5.41993,-9.179688 l 8.6914,2.001953 q -2.39258,3.515625 -5.46875,7.177735 h 35.25391 v 30.517574 h -59.96094 v 6.00586 h 75.3418 v 6.10352 h -75.3418 v 6.29883 h 70.94727 q -0.73243,23.87695 -3.32032,30.71289 -1.5625,4.19922 -5.51757,5.66406 -2.5879,0.92773 -6.83594,0.92773 -6.15235,0 -11.76758,-0.8789 l -1.61133,-7.22656 q 6.73828,1.02539 12.10938,1.02539 4.24804,0 5.37109,-1.95313 2.24609,-3.90625 3.36914,-22.16797 h -43.94531 v 14.69727 h 19.58008 v -11.18164 h 7.51953 z M 472.11914,79.296875 v 6.298828 h 52.09961 v -6.298828 z m 0,12.011719 v 6.689453 h 52.09961 v -6.689453 z m 104.39453,47.021486 q 4.29688,4.44336 9.81445,7.22656 8.59375,4.3457 23.58399,4.3457 h 38.37891 q -1.41602,2.88086 -2.49024,6.88477 H 609.7168 q -16.35743,0 -25.63477,-4.58984 -5.56641,-2.78321 -10.74219,-8.20313 -8.34961,9.57031 -16.25976,15.47852 l -4.58985,-7.08008 q 7.95899,-4.98047 16.40625,-12.5 v -25.6836 h -16.21093 v -6.7871 h 23.82812 z M 590.9668,74.21875 q 1.70898,-0.146484 3.71093,-0.292969 21.92383,-1.80664 39.99024,-7.617187 l 5.61523,6.103515 q -17.91992,5.371094 -41.60156,7.763672 v 14.941406 h 47.41211 v 6.884763 h -17.91992 v 43.40821 h -7.8125 v -43.40821 h -21.67969 q 0,13.52539 -1.17187,22.07032 -1.5625,11.4746 -6.83594,20.21484 l -6.49414,-5.17578 q 4.78515,-8.30078 6.00586,-19.33594 0.78125,-7.27539 0.78125,-20.654296 z m -18.35938,14.697266 q -7.51953,-9.960938 -15.52734,-17.138672 l 5.51758,-4.6875 q 8.20312,6.689453 15.96679,16.308593 z m 115.47852,1.904296 h 49.90234 q 0,2.636719 -0.68359,22.998048 h 10.20508 v 6.5918 h -10.44922 q -0.19532,6.25 -0.87891,17.91992 h 9.7168 v 6.49414 h -10.20508 q -0.63477,7.27539 -1.70899,9.66797 -2.14843,5.02929 -10.49804,5.02929 -4.73633,0 -11.08399,-0.78125 l -1.41601,-6.83593 q 7.32422,1.02539 12.06054,1.02539 2.73438,0 3.61329,-1.22071 0.78125,-1.12304 1.31836,-6.10351 l 0.0488,-0.78125 h -39.01367 l -0.14648,0.78125 -0.14649,0.68359 -0.83008,4.73633 -7.4707,-0.87891 q 2.63672,-14.50195 4.44336,-29.73632 h -9.76562 v -6.5918 h 10.54687 q 1.46484,-12.69531 2.44141,-22.998048 z m 27.58789,6.396485 q -0.19531,3.417973 -0.73242,11.572263 l -0.29297,5.0293 h 15.33203 q 0.0977,-2.09961 0.24414,-5.46875 0.0488,-0.87891 0.19531,-5.56641 0,-1.85547 0.14649,-5.566403 z m -7.12891,0 h -13.81836 q -0.43945,5.957033 -1.51367,16.601563 h 14.0625 q 0.29297,-3.71094 0.43945,-5.56641 0.3418,-3.61328 0.83008,-11.035153 z m -1.80664,23.193363 h -14.25781 q -0.78125,6.64062 -1.95313,14.59961 l -0.48828,3.32031 h 14.79492 l 0.29297,-2.2461 q 1.17188,-9.76562 1.61133,-15.67382 z m 7.32422,0 -0.48828,5.12695 q -0.83008,8.78906 -1.31836,12.79297 h 16.40625 q 0.48828,-6.34766 0.73242,-12.30469 l 0.29297,-5.61523 z M 694.9707,73.779297 h 48.92578 v 6.689453 h -52.00195 q -4.00391,7.958984 -9.91211,14.941406 l -5.37109,-5.224609 q 9.47265,-10.546875 14.01367,-25.78125 l 7.4707,0.78125 q -1.5625,4.833984 -3.125,8.59375 z m -24.75586,12.5 q -6.44531,-8.447266 -14.40429,-15.38086 l 5.27343,-5.078125 q 7.51954,5.810547 14.69727,14.697266 z m -3.51562,25.732423 Q 659.0332,102.68555 651.9043,96.679687 l 5.41992,-5.371093 q 8.39844,6.787109 15.08789,14.794926 z m -12.69531,41.06445 q 8.88671,-12.64648 16.21093,-31.98242 l 6.39649,4.6875 q -7.37305,19.92187 -16.3086,33.00781 z"></path>
</svg>
