<svg xmlns="http://www.w3.org/2000/svg" id="svg1" version="1.1" height="200" width="990">
  <defs id="defs1"></defs>
  <rect id="rect1" stroke="none" fill="none" height="200" width="990" y="0" x="0"></rect>
  <path aria-label="根室半島南東沖" style="font-size:100px;font-family:'BIZ UDPGothic';fill:#ff0000" id="text1" d="M 19.091797,109.0332 Q 13.867188,124.75586 5.7128906,137.45117 L 1.6113281,129.88281 Q 13.525391,113.18359 18.164062,93.164062 H 3.1738281 V 86.181641 H 19.091797 V 64.501953 h 7.519531 v 21.679688 h 12.695313 v 6.982421 H 26.611328 v 9.521488 q 7.568359,5.71289 14.599609,13.3789 l -4.296875,6.78711 q -5.224609,-6.78711 -9.667968,-11.18164 -0.341797,-0.34179 -0.634766,-0.63476 v 48.4375 h -7.519531 z m 51.5625,3.95508 q 1.953125,9.0332 5.273437,15.72266 8.203125,-7.42188 14.59961,-15.42969 l 5.761718,5.61523 q -8.300781,8.78907 -17.138671,15.38086 0.195312,0.29297 0.390625,0.58594 6.103515,9.13086 18.554687,16.30859 l -4.785156,7.03125 q -10.9375,-6.68945 -17.529297,-15.625 -8.837891,-11.96289 -12.304688,-29.58984 H 51.611328 v 35.5957 l 0.585938,-0.14648 q 10.449218,-2.97852 19.384765,-6.64063 l 0.927735,6.68946 q -14.990235,6.73828 -33.007813,11.08398 l -2.832031,-7.37304 q 3.90625,-0.78125 6.005859,-1.31836 1.074219,-0.24414 1.513672,-0.3418 V 68.505859 h 45.3125 V 112.98828 Z M 82.080078,75 h -30.46875 v 12.5 h 30.46875 z m 0,18.701172 h -30.46875 v 13.183598 h 30.46875 z M 153.51562,75.097656 h 39.79493 v 18.798828 h -7.8125 V 81.494141 h -71.28907 v 12.402343 h -7.8125 V 75.097656 h 39.30664 V 64.501953 h 7.8125 z m -11.23046,22.119141 q -0.24414,0.341797 -0.39063,0.634765 -3.95508,6.249998 -10.79101,13.720708 l 4.98046,-0.0488 q 11.2793,-0.19531 26.12305,-0.87891 l 11.08399,-0.48828 q -4.93165,-4.6875 -9.96094,-8.93555 l 6.20117,-3.613278 q 8.69141,6.933598 18.50586,16.796878 l 2.58789,2.58789 -6.20117,4.6875 q -2.88086,-3.27149 -5.27344,-5.71289 l -0.63477,-0.6836 q -2.7832,0.24414 -25,1.66016 v 12.93945 h 34.32618 v 6.49414 h -34.32618 v 12.93946 h 42.57813 v 6.49414 h -92.38281 v -6.49414 h 41.99218 v -12.93946 h -33.59374 v -6.49414 h 33.59374 v -12.45117 l -5.37109,0.24414 q -11.91406,0.48828 -26.61133,0.83008 l -2.39257,-6.68945 q 6.39648,0 11.08398,-0.0977 5.76172,-6.39648 11.03516,-14.501953 h -16.16211 v -6.494141 h 65.23437 v 6.494141 z m 103.41796,2.685547 V 64.501953 h 7.91016 v 35.400391 h 37.98828 v 7.080076 h -37.98828 v 15.625 h 43.89649 v 7.17774 h -43.89649 v 29.6875 h -7.91016 v -29.6875 h -43.21289 v -7.17774 h 43.21289 v -15.625 h -37.30468 v -7.080076 z m -20.8496,-3.710938 Q 218.75,82.763672 211.66992,73.095703 l 7.32422,-3.710937 q 8.10547,11.71875 13.47656,22.90039 z m 41.8457,-3.173828 q 7.66601,-11.474609 12.79297,-24.707031 l 8.10547,3.076172 q -5.81055,13.134765 -13.81836,24.902343 z m 101.31836,56.201172 h -53.8086 v 5.71289 h -7.71484 v -23.0957 h 7.71484 v 11.18164 h 19.0918 v -14.69727 h -19.0918 V 73.291016 h 23.97461 q 3.36914,-4.931641 5.41993,-9.179688 l 8.6914,2.001953 q -2.39258,3.515625 -5.46875,7.177735 h 35.25391 v 30.517574 h -59.96094 v 6.00586 h 75.3418 v 6.10352 h -75.3418 v 6.29883 h 70.94727 q -0.73243,23.87695 -3.32032,30.71289 -1.5625,4.19922 -5.51757,5.66406 -2.5879,0.92773 -6.83594,0.92773 -6.15235,0 -11.76758,-0.8789 l -1.61133,-7.22656 q 6.73828,1.02539 12.10938,1.02539 4.24804,0 5.37109,-1.95313 2.24609,-3.90625 3.36914,-22.16797 h -43.94531 v 14.69727 h 19.58008 v -11.18164 h 7.51953 z M 322.11914,79.296875 v 6.298828 h 52.09961 v -6.298828 z m 0,12.011719 v 6.689453 h 52.09961 v -6.689453 z m 131.39648,2.685547 h 37.06055 v 57.324219 q 0,3.90625 -1.61133,5.66406 -1.90429,2.05078 -8.00781,2.05078 -5.76172,0 -11.18164,-0.63476 l -1.70898,-7.42188 q 8.88671,0.92774 12.06054,0.92774 1.85547,0 2.29492,-0.87891 0.24415,-0.53711 0.24415,-1.61133 V 100.39063 H 417.1875 v 59.13085 h -7.91016 V 93.994141 h 36.52344 V 83.007812 h -43.31055 v -6.689453 h 43.31055 V 64.501953 h 7.71484 v 11.816406 h 43.94532 v 6.689453 h -43.94532 z m -7.61718,27.783199 h -22.2168 v -6.20117 h 11.86523 q -2.14843,-5.32226 -5.37109,-10.49804 l 6.73828,-2.5879 q 4.05274,7.12891 6.20117,13.08594 H 456.25 q 3.32031,-6.05469 5.76172,-13.28125 l 7.42187,2.58789 q -2.39257,4.98047 -5.32226,9.96094 l -0.39063,0.73242 h 12.40235 v 6.20117 h -22.70508 v 9.13086 H 478.125 v 6.29883 h -24.70703 v 19.92188 h -7.51953 V 137.20703 H 421.875 v -6.29883 h 24.02344 z m 115.42968,4.83399 q 14.01368,12.84179 36.76758,20.50781 l -4.73633,6.98242 q -10.54687,-3.95508 -18.31054,-8.54492 -12.10938,-7.22656 -21.53321,-18.06641 v 32.03125 h -7.71484 v -31.83593 q -5.76172,7.51953 -14.30664,14.20898 -10.88867,8.49609 -24.31641,13.81836 l -4.78515,-6.29883 q 21.97265,-8.00781 35.79101,-22.80273 H 511.57227 V 87.792969 h 34.22851 v -8.007813 h -41.74805 v -6.591797 h 41.74805 v -8.691406 h 7.71484 v 8.691406 h 42.38282 v 6.591797 h -42.38282 v 8.007813 h 34.76563 V 126.61133 Z M 545.80078,94.091797 h -26.41601 v 9.814453 h 26.41601 z m 7.71484,0 v 9.814453 h 27.05079 v -9.814453 z m -7.71484,15.917973 h -26.41601 v 10.30273 h 26.41601 z m 7.71484,0 v 10.30273 h 27.05079 V 110.00977 Z M 658.69141,85.302734 V 64.501953 h 7.71484 v 20.800781 h 27.7832 v 40.478516 h -27.7832 v 33.69141 h -7.71484 v -33.69141 h -26.9043 V 85.302734 Z m -19.38477,6.982422 v 26.513674 h 19.38477 V 92.285156 Z m 47.26563,26.513674 V 92.285156 H 666.40625 V 118.79883 Z M 621.77734,86.621094 q -6.54297,-8.34961 -15.2832,-15.527344 l 5.32227,-5.273438 q 8.30078,6.201172 15.67382,14.990235 z m -3.66211,25.488286 q -7.66601,-8.8379 -15.91796,-15.527349 l 5.41992,-5.46875 q 8.39843,6.201172 16.16211,14.990239 z m -13.7207,40.57617 q 9.52149,-12.69532 17.48047,-32.86133 l 6.29883,5.07812 q -7.32422,19.14063 -17.08985,33.69141 z"></path>
</svg>
