<svg xmlns="http://www.w3.org/2000/svg" id="svg1" version="1.1" height="200" width="1096">
  <defs id="defs1"></defs>
  <rect id="rect1" stroke="none" fill="none" height="200" width="1096" y="0" x="0"></rect>
  <path aria-label="中米" style="font-weight:bold;font-size:110px;font-family:'BIZ UDPGothic';fill:#ff0000" id="text1" d="M 48.608398,75.664062 V 55.952148 H 60.693359 V 75.664062 H 100.54688 V 132.49023 H 88.676758 v -7.46582 H 60.693359 v 35.44922 H 48.608398 V 125.02441 H 21.323242 v 8.05664 H 9.453125 V 75.664062 Z M 21.323242,86.674805 V 114.01367 H 48.608398 V 86.674805 Z M 88.676758,114.01367 V 86.674805 H 60.693359 v 27.338865 z m 86.850582,-9.07715 q 15.89844,20.03418 42.80762,34.10645 l -7.46582,11.11816 q -24.0625,-14.01855 -40.17578,-36.25488 v 46.56738 H 158.6084 v -45.54687 q -14.2334,23.04199 -38.61817,37.27539 l -7.68066,-10.09766 q 15.25391,-7.84179 25.67383,-17.83203 8.32519,-7.94922 16.11328,-19.33594 H 114.51172 V 94.355469 H 158.6084 V 55.952148 h 12.08496 v 38.403321 h 44.79492 V 104.93652 Z M 134.33105,91.347656 Q 127.56348,77.006836 120.7959,67.177734 l 10.09765,-5.532226 q 8.27149,10.581054 14.07227,23.686523 z m 48.07129,-4.243164 q 8.21778,-12.03125 14.60938,-26.640625 l 11.44043,5.263672 Q 201.8457,79.208984 192.5,91.831055 Z"></path>
</svg>
