<svg xmlns="http://www.w3.org/2000/svg" id="svg1" version="1.1" height="200" width="1096">
  <defs id="defs1"></defs>
  <rect id="rect1" stroke="none" fill="none" height="200" width="1096" y="0" x="0"></rect>
  <path aria-label="苫小牧沖" style="font-weight:bold;font-size:110px;font-family:'BIZ UDPGothic';fill:#ff0000" id="text1" d="M 29.003906,67.070312 V 55.952148 H 40.766602 V 67.070312 H 67.944336 V 55.952148 H 79.707031 V 67.070312 H 106.5625 V 77.275391 H 79.707031 v 9.667968 H 67.944336 V 77.275391 H 40.766602 V 88.823242 H 29.003906 V 77.275391 H 3.3837891 V 67.070312 Z m 30.34668,27.5 h 42.700194 v 9.667968 H 59.350586 v 12.56836 h 36.630859 v 43.66699 H 83.789062 v -7.08984 H 27.231445 v 7.08984 H 15.253906 V 116.80664 H 47.480469 V 81.142578 H 59.350586 Z M 27.231445,126.36719 v 17.45605 H 83.789062 V 126.36719 Z M 158.87695,57.026367 H 171.3916 V 146.5625 q 0,6.98242 -2.41699,9.61426 -2.68555,2.9541 -11.2793,2.9541 -7.73437,0 -16.43554,-0.80566 l -2.73926,-12.51465 q 13.37402,1.66504 18.15429,1.23535 2.20215,-0.21485 2.20215,-3.22266 z M 205.2832,137.80762 Q 195.56152,99.780273 186.48437,79.262695 l 11.33301,-4.833984 q 11.44043,23.417969 19.55078,56.879879 z m -93.72558,-6.92871 q 10.68847,-17.93946 15.52246,-53.388676 l 12.2998,2.792969 q -3.4375,23.740237 -8.3789,38.886717 -3.70606,11.2793 -9.07715,20.03418 z m 192.5,-2.95411 q 11.06445,13.05176 24.76074,20.67872 l -6.71387,11.333 q -12.40722,-7.51953 -24.27734,-22.45117 -11.06445,14.77051 -26.21094,23.74024 l -7.8418,-9.66797 q 15.89844,-8.59375 26.90918,-24.11621 -7.25097,-11.54786 -11.333,-24.49219 -1.98731,4.08203 -4.78028,8.43262 l -7.3584,-10.3125 q 9.18457,-14.716801 14.50196,-44.902348 l 11.333,1.879883 q -1.87988,10.043945 -3.59863,16.489258 h 37.49024 v 10.581054 h -9.39942 q -3.06152,23.203123 -13.48144,42.807613 z m -7.41211,-10.47363 q 6.44531,-13.10547 9.13086,-31.206053 l 0.16113,-1.12793 h -19.55078 q -0.69824,2.25586 -1.50391,4.458008 3.65235,14.824215 11.7627,27.875975 z m -57.9541,-38.51074 h 5.63964 V 55.952148 h 11.65528 V 78.94043 h 13.96484 V 89.521484 H 255.98633 V 109.2334 q 7.19726,-2.25586 13.05176,-4.29688 l 1.23535,9.56055 q -6.23047,2.4707 -12.51465,4.67285 l -1.77246,0.69824 v 40.60547 h -11.65528 v -36.68457 q -0.80566,0.21485 -2.09472,0.64453 -6.23047,2.04102 -16.48926,4.8877 l -3.4375,-11.22559 q 13.80371,-3.06152 22.02148,-5.47851 V 89.521484 h -7.51953 q -2.25586,9.882813 -5.37109,17.832036 l -9.45313,-6.60645 q 5.58594,-14.824218 7.57325,-35.55664 l 10.47363,1.557617 q -0.59082,7.089844 -1.34277,12.192383 z m 155.00976,-2.954102 v -20.03418 h 11.54785 v 20.03418 h 29.11133 v 48.608402 h -29.11133 v 35.8789 h -11.54785 v -35.8789 H 365.18066 V 75.986328 Z m -17.40234,10.688477 v 27.338865 h 17.40234 V 86.674805 Z m 46.62109,27.338865 V 86.674805 h -17.6709 v 27.338865 z m -68.75,-31.796873 q -6.55273,-9.13086 -17.34863,-17.456055 l 8.00293,-8.164062 q 10.74219,7.573242 18.1543,16.972656 z m -3.49121,27.607423 q -9.3457,-10.849611 -18.1543,-17.778322 l 8.27149,-8.271484 q 9.39941,6.606445 18.58398,17.080076 z m -16.7041,41.62598 q 10.3125,-14.66309 19.01367,-36.52344 l 9.56055,7.3584 q -7.3584,20.1416 -17.93946,37.91992 z"></path>
</svg>
