<svg xmlns="http://www.w3.org/2000/svg" id="svg1" version="1.1" height="200" width="1096">
  <defs id="defs1"></defs>
  <rect id="rect1" stroke="none" fill="none" height="200" width="1096" y="0" x="0"></rect>
  <path aria-label="シベリア付近" style="font-weight:bold;font-size:110px;font-family:'BIZ UDPGothic';fill:#ff0000" id="text1" d="M 47.211914,84.418945 Q 31.367187,77.329102 14.87793,72.548828 L 18.369141,61.914062 Q 36.953125,66.533203 50.97168,73.193359 Z M 36.201172,111.91895 Q 22.988281,106.11816 3.8671875,100.04883 L 8.4863281,89.306641 Q 24.921875,93.657227 40.390625,100.85449 Z m -25.405274,29.59472 q 21.967774,-1.82617 34.428711,-6.66015 18.422852,-7.03614 28.950196,-25.13672 7.036132,-12.084964 11.118164,-30.561527 l 10.849609,6.28418 Q 90.932617,108.58887 81.586914,122.33887 70.629883,138.39844 51.025391,146.0791 37.22168,151.39648 14.233398,153.54492 Z m 91.523442,-10.95703 q 19.38964,-25.08301 32.54882,-56.987304 h 13.21289 q 19.6045,33.676754 52.69043,66.655274 l -7.57324,10.52734 Q 166.12793,124.16504 141.9043,86.298828 h -0.42969 q -14.55566,32.871092 -29.59473,52.797852 z m 73.36914,-37.758788 q -3.4375,-8.969727 -11.01075,-19.819336 l 8.48633,-3.061524 q 6.71387,9.345703 11.11817,19.389649 z m 15.41504,-4.726563 q -4.56543,-11.064453 -10.7959,-19.926758 l 7.8955,-2.631836 q 6.28418,7.519532 10.90333,18.691407 z m 26.69433,-27.607422 h 12.51465 v 58.759763 h -12.51465 z m 55.16113,-1.12793 h 12.51465 v 38.403321 q 0,20.249022 -3.27636,30.131832 -2.73926,8.43262 -7.46582,13.42774 -9.82911,10.58105 -31.58204,15.62988 l -6.17675,-11.01074 q 23.79394,-4.83399 30.50781,-16.05957 4.24316,-7.14356 5.10254,-18.04688 0.37597,-5.04882 0.37597,-13.96484 z m 31.52832,7.626954 h 84.16504 l 6.92871,5.854492 q -3.00781,11.225586 -7.84179,18.745117 -9.07715,14.2334 -27.17774,21.26953 l -6.76757,-9.23828 q 12.51464,-3.759766 20.78613,-13.481445 4.88769,-5.747071 6.82129,-12.138672 H 304.4873 Z m 34.42872,23.203125 h 12.2998 v 9.238281 q 0,20.786133 -4.61914,32.119143 -5.85449,14.39453 -22.77344,23.41797 l -8.8623,-9.34571 q 11.65527,-5.53222 17.02636,-13.21289 4.13575,-5.96191 5.42481,-12.62207 1.50391,-7.62695 1.50391,-20.463865 z m 91.41601,-4.189454 V 160.47363 H 418.67676 V 105.3125 q -4.35059,6.12305 -10.09766,12.67578 l -6.06933,-11.54785 q 10.90332,-12.084961 18.6914,-28.144532 4.72656,-9.721679 9.45313,-23.203125 l 11.22558,3.061524 q -4.88769,14.716797 -11.54785,27.822265 z M 491.50879,81.25 h 16.16699 v 10.795898 h -16.16699 v 56.396482 q 0,7.08985 -3.4375,9.45313 -2.52442,1.77246 -9.50684,1.77246 -8.54004,0 -17.50976,-0.9668 l -2.30957,-11.76269 q 9.56054,1.39648 17.83203,1.39648 2.25586,0 2.73926,-0.9668 0.32226,-0.69824 0.32226,-2.30957 V 92.045898 H 435.70312 V 81.25 h 43.93555 V 57.832031 h 11.87012 z m -33.99902,52.0459 q -6.06934,-16.16699 -14.98536,-29.48731 l 10.25879,-5.96191 q 9.66797,14.2334 15.52246,29.16504 z m 83.25195,2.73926 q 4.29687,4.99511 9.66797,7.41211 8.80859,3.9746 23.0957,3.9746 h 45.76172 q -1.93359,3.65235 -3.59863,10.47364 h -42.7002 q -18.47656,0 -28.30566,-5.80078 -4.02832,-2.417 -8.86231,-7.89551 -0.37597,0.42969 -0.91308,1.07422 -7.89551,9.3457 -15.6836,15.2539 l -6.49902,-11.01074 q 8.54004,-5.10254 16.48926,-11.54785 v -26.5332 h -15.62989 v -10.58106 h 27.17774 z m 13.96484,-71.274418 2.84668,-0.214844 q 24.86817,-1.71875 44.6875,-7.358398 l 8.37891,9.453125 q -20.83985,5.478516 -44.47266,7.412109 v 13.911133 h 49.73633 V 98.4375 h -18.04687 v 43.77441 H 585.98633 V 98.4375 h -19.81934 q -0.26855,17.24121 -2.57812,27.44629 -2.09473,9.39941 -6.875,16.86523 l -9.88282,-7.46582 q 5.31739,-8.27148 6.82129,-20.51757 1.07422,-8.43262 1.07422,-22.934575 z M 534.85352,85.761719 Q 526.63574,74.160156 517.12891,64.975586 l 8.80859,-7.036133 q 9.23828,7.734375 18.58398,19.658203 z"></path>
</svg>
