<svg xmlns="http://www.w3.org/2000/svg" id="svg1" version="1.1" height="200" width="1096">
  <defs id="defs1"></defs>
  <rect id="rect1" stroke="none" fill="none" height="200" width="1096" y="0" x="0"></rect>
  <path aria-label="遠州灘" style="font-weight:bold;font-size:110px;font-family:'BIZ UDPGothic';fill:#ff0000" id="text1" d="m 90.341797,128.03223 0.751953,0.37597 q 5.585937,2.57813 12.08496,6.06934 l -7.036132,8.37891 q -11.44043,-6.875 -23.632812,-12.89063 v 16.16699 H 61.28418 v -21.69922 q -10.205078,8.05664 -23.041993,13.42774 l -6.92871,-8.00293 q 16.65039,-6.12305 29.755859,-15.62988 H 39.584961 V 91.831055 h 55.698242 v 22.397465 h -0.429687 l 6.713864,4.29687 q -5.693357,5.31738 -11.225583,9.50684 z m -9.13086,-3.97461 q 0.644532,-0.53711 1.826172,-1.61133 4.135743,-3.75977 7.895508,-8.21777 H 75.087891 q -0.698243,0.59082 -1.933594,1.61132 l -0.644531,0.53711 v 4.4043 q 3.276367,1.12793 8.701171,3.27637 z M 50.595703,99.189453 v 7.788087 H 84.165039 V 99.189453 Z M 27.714844,136.84082 q 4.189453,4.4043 9.560547,7.03613 3.652343,1.77246 10.527343,3.00782 6.982422,1.18164 14.125977,1.18164 h 47.050779 q -2.04101,3.92089 -3.49121,10.20507 H 61.606445 q -18.154297,0 -27.607422,-4.78027 -5.585937,-2.84668 -10.688476,-8.37891 -7.573242,9.50684 -15.3076173,15.6836 L 1.9873047,149.94629 Q 8.9160156,145.5957 16.489258,139.25781 V 111.43555 H 2.7392578 V 100.85449 H 27.714844 Z M 61.28418,63.310547 v -7.358399 h 11.225586 v 7.358399 h 26.264648 v 8.164062 H 72.509766 v 6.123047 h 32.119144 v 8.59375 H 31.367187 v -8.59375 H 61.28418 V 71.474609 H 37.382812 V 63.310547 Z M 20.678711,84.526367 Q 13.535156,72.226562 4.7265625,63.095703 L 13.642578,56.59668 q 8.325195,8.110351 16.381836,20.463867 z m 91.845699,35.341793 q 3.97461,-8.16406 5.80079,-18.53027 1.12793,-6.284179 1.87988,-16.220703 l 9.72168,1.611329 q -1.34278,24.653324 -7.94922,38.940434 z m 41.25,2.95411 q -2.79296,-19.81934 -7.25097,-33.784184 l 8.48633,-4.833984 q 5.37109,13.75 8.32519,32.924808 z m 10.47364,-60.371098 h 11.87011 V 152.9541 h -11.87011 z m 22.71972,59.082028 q -3.9209,-21.26953 -8.96972,-33.247067 l 8.96972,-4.833985 q 6.60645,15.844727 9.61426,31.904302 z m 10.58106,-62.841794 h 11.97754 V 160.47363 h -11.97754 z m -64.34571,0.751953 h 11.97754 v 48.608401 q 0,20.57129 -4.83398,33.24707 -3.59863,9.45312 -11.87012,18.6914 l -10.36621,-7.84179 q 15.09277,-15.73731 15.09277,-44.2041 z m 137.92969,25.19043 v 4.887695 h 14.60938 v 6.606446 q 7.68066,-18.959961 10.36621,-40.65918 l 9.77539,1.450195 q -1.98731,11.333008 -3.81348,18.476563 h 5.58594 q 2.52441,-9.506836 3.9209,-19.335938 l 9.39941,1.71875 q -1.9873,9.453125 -4.78027,17.617188 h 11.17187 v 9.667969 h -10.47363 v 13.696289 h 8.59375 v 9.345704 h -8.59375 v 13.37402 h 8.59375 v 9.50684 h -8.59375 v 14.39453 h 11.54785 v 9.88281 h -26.47949 v 5.15625 h -9.13086 V 100.9082 q -1.18164,2.84668 -3.33008,7.19727 l -3.75976,-10.7959 v 12.89063 h -14.60938 v 5.15625 h 15.36133 v 7.78808 h -15.36133 q -0.10742,3.70606 -0.21484,5.42481 h 18.6914 v 7.78808 h -19.71191 q -0.10742,0.59082 -0.37598,1.71875 9.93653,5.85449 19.33594,13.69629 l -6.3916,8.00293 q -7.30469,-7.08984 -15.68359,-13.32031 l -0.59082,-0.4834 q -6.23047,10.36621 -17.88575,16.00586 l -6.82129,-8.59375 q 10.04395,-3.54492 14.77051,-10.20508 1.87989,-2.57812 3.16895,-6.82129 h -16.11328 v -7.78808 h 17.77832 q 0.37597,-3.70606 0.42968,-5.42481 h -15.30761 v -7.78808 h 15.36133 V 110.2002 H 246.96289 V 89.521484 h 14.50195 v -4.887695 h -9.13086 V 72.65625 h -5.37109 l -8.27148,7.788086 q -5.15625,-8.110352 -14.39454,-17.241211 l 8.16407,-6.928711 q 6.66015,5.532227 13.05176,14.072266 v -5.854493 h 6.82128 v -9.238281 h 9.34571 v 9.238281 h 9.45312 v -9.238281 h 9.23828 v 9.238281 h 8.91602 v 8.164063 h -8.91602 v 11.977539 z m -9.13086,11.708984 h -6.92871 v 7.143557 h 6.92871 z m 8.59375,0 v 7.143557 h 7.25098 V 96.342773 Z M 261.67969,72.65625 v 5.371094 h 9.45312 V 72.65625 Z m 40.2832,12.407227 v 13.696289 h 6.44531 V 85.063477 Z m 0,23.041993 v 13.37402 h 6.44531 v -13.37402 z m 0,22.88086 v 14.39453 h 6.44531 v -14.39453 z m -67.35352,-24.00879 q -7.8955,-10.957032 -14.07226,-17.13379 l 8.37891,-7.036133 q 8.05664,7.197266 14.50195,16.59668 z m -12.99804,46.29883 q 7.57324,-16.167 12.89062,-39.47754 l 9.66797,4.83398 q -4.13574,21.43067 -12.19238,42.27051 z"></path>
</svg>
