<svg xmlns="http://www.w3.org/2000/svg" id="svg1" version="1.1" height="200" width="990">
  <defs id="defs1"></defs>
  <rect id="rect1" stroke="none" fill="none" height="200" width="990" y="0" x="0"></rect>
  <path aria-label="ウラジオストク付近" style="font-size:100px;font-family:'BIZ UDPGothic';fill:#ff0000" id="text1" d="m 41.113281,67.675781 h 7.8125 v 16.210938 h 34.375 q -0.390625,20.703121 -4.492187,33.593751 -5.175782,16.21094 -17.089844,24.60937 -10.791016,7.61719 -27.392578,12.06055 l -4.003906,-6.78711 q 17.578125,-3.85742 28.90625,-13.57422 14.355468,-12.20703 15.478515,-42.919919 H 16.796875 V 114.64844 H 8.6914063 V 83.886719 H 41.113281 Z m 64.550779,5.419922 h 61.81641 v 7.080078 h -61.81641 z m -6.982419,23.681641 h 78.076169 q -2.14844,21.435546 -9.71679,33.349606 -6.73829,10.54688 -18.79883,16.3086 -10.88867,5.17578 -27.14844,7.71484 l -3.61328,-7.17773 q 23.82812,-3.02735 35.10742,-12.74414 12.10938,-10.44922 14.50195,-30.3711 H 98.681641 Z M 226.80664,88.28125 q -12.1582,-5.664063 -26.70898,-9.863281 l 2.49023,-7.03125 q 15.03906,3.662109 26.80664,9.521484 z m -10.30273,24.90234 q -10.64454,-4.73632 -26.51368,-9.86328 l 2.97852,-7.324216 q 14.59961,4.052736 26.51367,9.814456 z m -20.11719,30.71289 q 20.06836,-1.70898 31.15234,-6.10351 14.20899,-5.61524 23.24219,-17.96875 8.54492,-11.62109 11.81641,-27.832033 l 7.17773,4.296875 q -6.29883,27.099608 -23.73047,40.478518 -11.23047,8.64258 -27.83203,12.25586 -8.05664,1.80664 -19.53125,2.7832 z m 57.71484,-57.080074 q -3.125,-7.8125 -8.78906,-16.015625 l 5.95703,-2.294922 q 5.61524,7.910157 8.83789,15.917969 z m 12.89063,-3.710937 q -3.66211,-8.984375 -8.69141,-16.015625 l 5.81055,-2.09961 q 5.12695,6.640625 8.78906,15.625 z m 69.6289,-14.990235 h 8.00782 v 19.580078 h 23.77929 v 7.080079 H 344.62891 V 144.9707 q 0,4.63867 -1.95313,6.68946 -1.95312,2.09961 -7.17773,2.09961 -7.32422,0 -14.0625,-0.48829 l -1.9043,-7.91015 q 7.42187,0.68359 14.01367,0.68359 2.09961,0 2.63672,-0.78125 0.43945,-0.63476 0.43945,-2.29492 V 97.363281 q -8.93554,14.257809 -22.50976,26.953129 -10.44922,9.81445 -24.51172,17.57812 l -5.07813,-6.83594 q 13.81836,-6.73828 26.66016,-18.60351 11.13281,-10.20508 18.94531,-21.679689 h -43.79883 v -7.080079 h 50.29297 z m 47.50977,8.300782 h 57.12891 l 4.88281,4.492187 q -7.37305,18.847656 -19.38477,35.302737 16.45508,12.89062 30.66406,28.71093 l -6.00585,6.5918 q -13.37891,-15.42969 -29.29688,-29.49219 -16.30859,19.58008 -39.89258,29.88282 l -4.58984,-7.08008 q 23.53515,-9.57031 39.25781,-28.61328 13.52539,-16.357424 19.43359,-32.714846 h -52.19726 z m 95.89844,-7.519532 h 8.20312 v 27.783203 q 30.71289,9.521483 47.90039,18.310543 l -4.10156,7.42188 Q 512.64648,112.5 488.23242,104.49219 v 50 h -8.20312 z m 134.27734,12.304688 6.00586,5.078125 q -5.32227,29.833983 -19.9707,45.703123 -13.37891,14.55078 -38.72071,22.31445 l -4.58984,-7.03125 q 24.6582,-6.88476 37.74414,-21.63085 12.40234,-14.01368 16.74805,-37.35352 h -35.69336 q -9.57031,14.94141 -23.29102,24.41406 l -5.71289,-5.71289 q 9.76563,-6.49414 16.35742,-14.306639 8.39844,-10.009765 13.13477,-23.779297 l 7.71484,2.197266 q -2.00195,5.566406 -4.19922,10.107422 z m 39.20898,8.984375 v 69.335933 h -7.71484 v -55.37109 q -0.19531,0.29297 -0.48828,0.73242 -4.39453,7.17774 -10.88867,14.69727 l -4.10156,-7.37305 q 9.76562,-11.32812 16.35742,-25.195311 4.73633,-9.91211 8.83789,-22.900391 l 7.61719,2.099609 q -4.49219,13.427735 -9.61915,23.97461 z m 55.22461,-2.001953 h 16.60157 v 7.177734 h -16.60157 v 54.541012 q 0,5.17578 -2.49023,7.17774 -2.09961,1.61133 -7.76367,1.61133 -7.91016,0 -14.7461,-0.6836 L 682.12891,150 q 8.44726,1.2207 15.625,1.2207 2.14843,0 2.68554,-0.78125 0.39063,-0.63476 0.39063,-2.4414 V 95.361328 h -42.72461 v -7.177734 h 42.72461 V 65.283203 h 7.91015 z m -28.41796,45.410156 q -5.7129,-14.30664 -13.81836,-26.07422 l 6.49414,-4.19922 q 8.39843,12.35352 14.20898,25.87891 z m 74.21875,4.73633 q 4.29687,4.44336 9.81445,7.22656 8.59375,4.3457 23.58398,4.3457 h 38.37891 q -1.41602,2.88086 -2.49024,6.88477 h -36.08398 q -16.35742,0 -25.63477,-4.58984 -5.5664,-2.78321 -10.74218,-8.20313 -8.34961,9.57031 -16.25977,15.47852 l -4.58984,-7.08008 q 7.95898,-4.98047 16.40625,-12.5 v -25.6836 h -16.21094 v -6.7871 h 23.82813 z m 14.45312,-64.11133 q 1.70898,-0.146484 3.71094,-0.292969 21.92383,-1.80664 39.99023,-7.617187 l 5.61524,6.103515 q -17.91993,5.371094 -41.60157,7.763672 v 14.941406 h 47.41211 v 6.884763 h -17.91992 v 43.40821 h -7.8125 v -43.40821 h -21.67969 q 0,13.52539 -1.17187,22.07032 -1.5625,11.4746 -6.83594,20.21484 l -6.49414,-5.17578 q 4.78516,-8.30078 6.00586,-19.33594 0.78125,-7.27539 0.78125,-20.654296 z m -18.35937,14.697266 q -7.51954,-9.960938 -15.52735,-17.138672 l 5.51758,-4.6875 q 8.20312,6.689453 15.9668,16.308593 z"></path>
</svg>
