<svg xmlns="http://www.w3.org/2000/svg" id="svg1" version="1.1" height="200" width="990">
  <defs id="defs1"></defs>
  <rect id="rect1" stroke="none" fill="none" height="200" width="990" y="0" x="0"></rect>
  <path aria-label="薩摩半島西方沖" style="font-size:100px;font-family:'BIZ UDPGothic';fill:#ff0000" id="text1" d="m 76.855469,102.09961 q 4.93164,1.5625 8.83789,2.88086 l 4.980469,1.61133 -4.052734,3.51562 h 9.863281 V 115.625 H 45.117187 v 14.79492 q 0,17.91992 -9.814453,28.71094 l -5.810547,-4.88281 q 6.689454,-6.98243 8.251954,-16.25977 0.683593,-3.85742 0.683593,-8.54492 v -19.33594 h 8.789063 l -3.417969,-4.39453 q 8.886719,-1.17187 16.552734,-3.22266 l 1.025391,-0.29296 Q 55.419922,100.39063 47.216797,98.4375 l 4.052734,-3.320313 h -11.96289 v -5.71289 H 64.404297 V 84.082031 H 60.400391 V 77.392578 H 37.695312 v 6.884766 H 30.029297 V 77.392578 H 3.8085938 V 71.386719 H 30.029297 v -6.884766 h 7.666015 v 6.884766 h 22.705079 v -6.884766 h 7.8125 v 6.884766 H 96.09375 v 6.005859 H 68.212891 v 5.810547 h 3.564453 v 6.201172 h 23.242187 v 5.71289 H 83.251953 l 4.150391,2.197266 q -4.980469,2.587891 -10.546875,4.785157 z m -7.226563,2.58789 q -12.060547,3.75977 -22.216797,5.41992 h 38.427735 l -2.783203,-0.97656 q -6.738282,-2.29492 -13.427735,-4.44336 z m -0.439453,-4.931641 q 0.292969,-0.09766 0.634766,-0.24414 4.833984,-1.660157 10.302734,-4.101563 l 0.634766,-0.292969 H 51.806641 l 1.5625,0.390625 q 9.667968,2.294922 15.820312,4.248047 z M 26.5625,112.69531 q 0.195312,0.24414 0.927734,1.17188 7.226563,9.08203 7.226563,18.45703 0,5.5664 -2.050781,8.10547 -2.197266,2.7832 -7.714844,2.7832 -3.857422,0 -6.884766,-0.53711 l -1.171875,-6.49414 q 4.736328,0.63477 7.177735,0.63477 3.710937,0 3.710937,-4.58985 0,-8.49609 -8.398437,-19.23828 5.810546,-11.2793 7.373046,-19.091796 H 14.794922 V 159.47266 H 7.7148437 V 87.988281 H 31.787109 l 3.076172,3.027344 Q 30.712891,104.3457 26.5625,112.69531 Z m 32.226562,11.57227 h 9.082032 v -6.29883 h 7.03125 v 6.29883 h 19.384765 v 5.51758 H 74.902344 v 7.8125 h 16.796875 v 5.41992 H 74.902344 v 8.44726 h 22.607422 v 5.71289 H 44.873047 v -5.71289 h 22.998047 v -8.44726 H 52.880859 v -5.41992 h 14.990235 v -7.8125 H 56.054687 q -1.904296,3.36914 -4.443359,6.88476 l -5.615234,-3.75976 q 5.419922,-6.10352 7.8125,-14.7461 l 6.689453,1.51367 q -0.78125,2.39258 -1.708985,4.58985 z M 175.68359,78.417969 v 6.982422 h 18.31055 v 5.517578 H 179.3457 q 6.78711,8.05664 17.13867,13.525391 l -3.90625,5.37109 Q 182.4707,103.71094 175.68359,94.482422 v 13.818358 h -6.88476 V 95.507812 q -4.6875,7.958988 -12.59766,13.232418 l -4.3457,-4.63867 q 8.39844,-5.029294 13.81836,-13.183591 h -10.40039 v -5.517578 h 13.52539 v -6.982422 h -28.02735 v 6.982422 h 11.52344 v 5.517578 h -11.52344 v 2.050781 q 5.22461,2.490234 11.08399,6.933594 l -3.66211,4.931636 q -3.80859,-3.36914 -7.42188,-6.005855 v 11.914065 h -6.88476 V 96.777344 q -5.3711,7.861326 -13.18359,13.037106 l -4.10157,-4.88281 q 9.32617,-5.761718 14.94141,-14.013671 h -12.93945 v -5.517578 h 15.2832 v -6.982422 h -17.67578 v 28.808591 q 0,19.72657 -1.5625,31.15235 -1.5625,11.32812 -6.05469,20.84961 l -6.49414,-5.0293 q 3.90625,-8.59375 5.32227,-20.55664 1.26953,-10.64453 1.26953,-27.09961 V 72.412109 h 39.69726 v -7.910156 h 7.71485 v 7.910156 h 39.50195 v 6.00586 z M 160.79102,117.5293 v 7.17773 h 30.81054 v 5.61524 h -30.81054 v 5.95703 h 36.71875 v 5.81054 h -36.71875 v 9.91211 q 0,4.00391 -2.14844,5.76172 -2.05078,1.70899 -7.08008,1.70899 -6.73828,0 -13.37891,-0.6836 l -1.26953,-6.39648 q 8.4961,0.92773 13.76953,0.92773 1.95313,0 2.34375,-0.8789 0.24414,-0.58594 0.24414,-1.75782 v -8.59375 h -36.4746 v -5.81054 h 36.4746 v -5.95703 h -30.95703 v -5.61524 h 30.95703 v -6.49414 q -13.52539,1.07422 -24.56054,1.26953 l -2.63672,-5.5664 q 27.97851,-0.53711 54.10156,-4.6875 l 4.63867,5.17578 q -11.03515,1.80664 -24.02343,3.125 z m 84.9121,-17.626956 V 64.501953 h 7.91016 v 35.400391 h 37.98828 v 7.080076 h -37.98828 v 15.625 h 43.89649 v 7.17774 h -43.89649 v 29.6875 h -7.91016 v -29.6875 h -43.21289 v -7.17774 h 43.21289 v -15.625 h -37.30468 v -7.080076 z m -20.8496,-3.710938 Q 218.75,82.763672 211.66992,73.095703 l 7.32422,-3.710937 q 8.10547,11.71875 13.47656,22.90039 z m 41.8457,-3.173828 q 7.66601,-11.474609 12.79297,-24.707031 l 8.10547,3.076172 q -5.81055,13.134765 -13.81836,24.902343 z m 101.31836,56.201172 h -53.8086 v 5.71289 h -7.71484 v -23.0957 h 7.71484 v 11.18164 h 19.0918 v -14.69727 h -19.0918 V 73.291016 h 23.97461 q 3.36914,-4.931641 5.41993,-9.179688 l 8.6914,2.001953 q -2.39258,3.515625 -5.46875,7.177735 h 35.25391 v 30.517574 h -59.96094 v 6.00586 h 75.3418 v 6.10352 h -75.3418 v 6.29883 h 70.94727 q -0.73243,23.87695 -3.32032,30.71289 -1.5625,4.19922 -5.51757,5.66406 -2.5879,0.92773 -6.83594,0.92773 -6.15235,0 -11.76758,-0.8789 l -1.61133,-7.22656 q 6.73828,1.02539 12.10938,1.02539 4.24804,0 5.37109,-1.95313 2.24609,-3.90625 3.36914,-22.16797 h -43.94531 v 14.69727 h 19.58008 v -11.18164 h 7.51953 z M 322.11914,79.296875 v 6.298828 h 52.09961 v -6.298828 z m 0,12.011719 v 6.689453 h 52.09961 v -6.689453 z m 111.47461,2.392578 V 77.197266 H 402.7832 V 70.3125 h 94.38477 v 6.884766 h -33.88672 v 16.503906 h 27.7832 V 157.8125 h -7.8125 V 150 h -66.65039 v 7.8125 h -7.71484 V 93.701172 Z m 7.51953,0 h 14.64844 V 77.197266 h -14.64844 z m -7.56836,6.591798 h -16.94336 v 42.91992 h 66.65039 v -17.23633 h -20.16601 q -7.32422,0 -7.32422,-6.59179 v -19.0918 h -14.69727 q -0.43945,10.5957 -3.125,16.89453 -3.80859,8.93555 -14.9414,15.52734 l -4.98047,-5.61523 q 10.40039,-5.41992 13.52539,-14.50195 1.51367,-4.44336 2.00195,-12.30469 z m 29.73633,0 v 16.50391 q 0,1.51367 0.58594,1.95312 0.53711,0.43945 1.80664,0.43945 h 17.57812 v -18.89648 z m 82.17773,-11.328126 q 0,7.324218 -0.92773,17.041016 h 39.4043 q -0.6836,32.91016 -3.75977,43.60351 -1.26953,4.49219 -4.83398,6.34766 -3.02735,1.5625 -9.08203,1.5625 -8.39844,0 -15.33204,-0.92773 l -1.31836,-8.00782 q 10.15625,1.31836 16.3086,1.31836 4.05273,0 5.32226,-1.70898 1.07422,-1.46484 2.14844,-8.49609 1.5625,-9.96094 2.14844,-26.70899 h -31.93359 q -1.80665,11.37695 -5.76172,19.28711 -7.91016,15.91797 -26.02539,25.73242 l -5.61524,-6.29883 q 19.38477,-10.15625 25.58594,-26.36718 5.17578,-13.57422 5.56641,-36.376956 h -33.54493 v -7.177735 h 41.69922 V 64.501953 h 8.00781 v 17.285156 h 42.67579 v 7.177735 z m 113.23243,-3.66211 V 64.501953 h 7.71484 v 20.800781 h 27.7832 v 40.478516 h -27.7832 v 33.69141 h -7.71484 v -33.69141 h -26.9043 V 85.302734 Z m -19.38477,6.982422 v 26.513674 h 19.38477 V 92.285156 Z m 47.26563,26.513674 V 92.285156 H 666.40625 V 118.79883 Z M 621.77734,86.621094 q -6.54297,-8.34961 -15.2832,-15.527344 l 5.32227,-5.273438 q 8.30078,6.201172 15.67382,14.990235 z m -3.66211,25.488286 q -7.66601,-8.8379 -15.91796,-15.527349 l 5.41992,-5.46875 q 8.39843,6.201172 16.16211,14.990239 z m -13.7207,40.57617 q 9.52149,-12.69532 17.48047,-32.86133 l 6.29883,5.07812 q -7.32422,19.14063 -17.08985,33.69141 z"></path>
</svg>
