<svg xmlns="http://www.w3.org/2000/svg" id="svg1" version="1.1" height="200" width="990">
  <defs id="defs1"></defs>
  <rect id="rect1" stroke="none" fill="none" height="200" width="990" y="0" x="0"></rect>
  <path aria-label="三陸沖" style="font-size:100px;font-family:'BIZ UDPGothic';fill:#ff0000" id="text1" d="M 11.083984,75.292969 H 88.916016 V 82.8125 H 11.083984 Z m 5.419922,32.031251 h 66.894531 v 7.32422 H 16.503906 Z M 4.0039062,142.38281 H 95.996094 V 150 H 4.0039062 Z M 167.72461,92.480469 h 28.17383 v 6.49414 H 176.2207 v 10.791021 q 0,1.70898 0.78125,2.0996 0.83008,0.39063 4.93164,0.39063 3.4668,0 4.54102,-0.39063 1.26953,-0.43945 1.75781,-2.53906 0.39063,-1.51367 0.58594,-5.66406 l 6.88476,2.29492 q -0.19531,8.98438 -3.41796,11.2793 -2.34375,1.66015 -10.15625,1.66015 -8.10547,0 -10.30274,-0.8789 -2.92969,-1.12305 -2.92969,-5.32227 V 98.974609 h -11.71875 q -1.51367,8.398441 -5.46875,13.427731 -4.29687,5.41993 -13.28125,8.88672 l -4.63867,-5.51758 q 14.25781,-4.19921 16.25977,-16.796871 h -16.65039 v -6.49414 h 26.80664 V 82.080078 h -22.02149 v -6.396484 h 22.02149 V 64.599609 h 7.51953 v 11.083985 h 23.7793 v 6.396484 h -23.7793 z M 106.00586,68.896484 h 24.21875 l 3.90625,3.417969 q -4.15039,15.771484 -9.32617,27.880857 8.49609,10.49805 8.49609,24.90235 0,5.46875 -1.2207,8.64257 -2.00196,5.32227 -8.78906,5.32227 -2.97852,0 -6.34766,-0.58594 l -1.80664,-7.27539 q 3.85742,0.6836 6.5918,0.6836 2.68554,0 3.32031,-1.85547 0.73242,-1.95313 0.73242,-6.5918 0,-12.35352 -8.34961,-22.55859 4.3457,-10.449223 8.20313,-25.195316 h -12.30469 v 83.789066 h -7.32422 z m 54.19922,59.326176 v -12.5 h 7.61719 v 12.5 h 23.77929 v 6.39648 h -23.77929 v 14.20898 h 30.07812 v 6.78711 h -67.1875 v -6.78711 h 29.49219 v -14.20898 h -22.50977 v -6.39648 z M 258.69141,85.302734 V 64.501953 h 7.71484 v 20.800781 h 27.7832 v 40.478516 h -27.7832 v 33.69141 h -7.71484 v -33.69141 h -26.9043 V 85.302734 Z m -19.38477,6.982422 v 26.513674 h 19.38477 V 92.285156 Z m 47.26563,26.513674 V 92.285156 H 266.40625 V 118.79883 Z M 221.77734,86.621094 q -6.54297,-8.34961 -15.2832,-15.527344 l 5.32227,-5.273438 q 8.30078,6.201172 15.67382,14.990235 z m -3.66211,25.488286 q -7.66601,-8.8379 -15.91796,-15.527349 l 5.41992,-5.46875 q 8.39843,6.201172 16.16211,14.990239 z m -13.7207,40.57617 q 9.52149,-12.69532 17.48047,-32.86133 l 6.29883,5.07812 q -7.32422,19.14063 -17.08985,33.69141 z"></path>
</svg>
