<svg xmlns="http://www.w3.org/2000/svg" id="svg1" version="1.1" height="200" width="990">
  <defs id="defs1"></defs>
  <rect id="rect1" stroke="none" fill="none" height="200" width="990" y="0" x="0"></rect>
  <path aria-label="瀬戸内海中部" style="font-size:100px;font-family:'BIZ UDPGothic';fill:#ff0000" id="text1" d="m 39.111328,128.125 q -5.175781,11.76758 -15.234375,23.7793 l -4.492187,-6.49414 Q 31.591797,133.64258 37.402344,119.82422 H 25.292969 V 93.017578 H 39.111328 V 82.470703 H 22.900391 V 75.878906 H 39.111328 V 64.501953 h 6.689453 v 11.376953 h 15.234375 v 6.591797 H 45.800781 V 93.017578 H 59.326172 V 119.82422 H 45.800781 v 4.54101 q 7.373047,5.71289 14.59961,13.57422 l -4.394532,5.90821 q -5.126953,-6.88477 -10.205078,-12.01172 v 27.68554 h -6.689453 z m 0.195313,-28.90625 h -7.8125 v 14.4043 h 7.8125 z m 6.298828,0 v 14.4043 h 7.617187 V 99.21875 Z M 79.589844,85.595703 H 93.798828 V 139.01367 H 64.404297 V 85.595703 h 8.740234 q 1.123047,-4.541016 1.904297,-10.009766 H 60.693359 v -6.591796 h 36.621094 v 6.591796 H 82.080078 q -1.123047,5.371094 -2.490234,10.009766 z m 7.714843,6.201172 H 70.996094 v 9.619145 H 87.304687 Z M 70.996094,107.32422 v 9.27734 h 16.308593 v -9.27734 z m 0,15.18555 V 132.8125 H 87.304687 V 122.50977 Z M 16.210937,85.888672 Q 9.5214844,76.5625 3.3203125,70.800781 L 8.59375,65.820312 q 7.421875,7.03125 13.232422,14.501954 z M 14.501953,110.79102 Q 8.1054688,102.29492 1.6113281,95.703125 l 5.078125,-4.6875 Q 13.818359,97.167969 20.019531,105.41992 Z M 2.9296875,153.90625 Q 9.9121094,140.47852 15.527344,120.01953 l 6.396484,3.85742 q -4.833984,19.48242 -12.4999999,35.10742 z m 89.6972655,5.71289 q -4.833984,-9.32617 -10.839844,-16.01562 l 5.615235,-3.61329 q 6.103515,6.39649 10.888672,14.69727 z M 56.103516,154.6875 q 8.642578,-5.81055 13.916015,-14.59961 l 5.810547,3.90625 q -5.615234,9.42383 -14.306641,15.91797 z M 187.69531,90.478516 v 39.111324 h -8.10547 v -6.49414 h -56.83593 q -0.43946,11.18164 -2.49024,18.50586 -2.63672,9.52149 -10.2539,18.21289 l -6.00586,-5.9082 q 5.17578,-5.9082 7.37304,-11.96289 3.32032,-9.17969 3.32032,-26.31836 V 90.478516 Z m -8.10547,6.884765 h -56.68945 v 18.749999 h 56.68945 z M 106.39648,69.677734 h 88.62305 v 7.080078 H 106.39648 Z M 245.70312,81.005859 V 64.501953 h 7.91016 v 16.503906 h 37.59766 v 67.675781 q 0,4.98047 -2.44141,7.03125 -2.24609,1.9043 -7.95898,1.9043 -8.74024,0 -17.38282,-0.63477 l -1.51367,-7.76367 Q 272.94922,150 279.44336,150 q 2.83203,0 3.4668,-1.26953 0.39062,-0.78125 0.39062,-2.34375 V 88.183594 h -29.73633 q -0.24414,6.640625 -1.70898,12.695316 l 0.83008,0.63476 q 15.82031,12.35352 27.83203,26.17188 l -5.90821,5.81054 q -9.61914,-11.62109 -24.90234,-25.83007 -6.49414,16.69921 -26.02539,28.22265 l -4.78516,-6.29883 q 18.65235,-10.15625 24.21875,-27.14843 2.2461,-6.738285 2.53907,-14.257816 h -29.05274 v 70.507816 h -8.00781 V 81.005859 Z m 92.38282,9.814453 h 49.90234 q 0,2.636719 -0.68359,22.998048 h 10.20508 v 6.5918 h -10.44922 q -0.19532,6.25 -0.87891,17.91992 h 9.7168 v 6.49414 h -10.20508 q -0.63477,7.27539 -1.70899,9.66797 -2.14843,5.02929 -10.49804,5.02929 -4.73633,0 -11.08399,-0.78125 l -1.41601,-6.83593 q 7.32422,1.02539 12.06054,1.02539 2.73438,0 3.61329,-1.22071 0.78125,-1.12304 1.31836,-6.10351 l 0.0488,-0.78125 h -39.01367 l -0.14648,0.78125 -0.14649,0.68359 -0.83008,4.73633 -7.4707,-0.87891 q 2.63672,-14.50195 4.44336,-29.73632 h -9.76562 v -6.5918 h 10.54687 q 1.46484,-12.69531 2.44141,-22.998048 z m 27.58789,6.396485 q -0.19531,3.417973 -0.73242,11.572263 l -0.29297,5.0293 h 15.33203 q 0.0976,-2.09961 0.24414,-5.46875 0.0488,-0.87891 0.19531,-5.56641 0,-1.85547 0.14649,-5.566403 z m -7.12891,0 h -13.81836 q -0.43945,5.957033 -1.51367,16.601563 h 14.0625 q 0.29297,-3.71094 0.43945,-5.56641 0.3418,-3.61328 0.83008,-11.035153 z m -1.80664,23.193363 h -14.25781 q -0.78125,6.64062 -1.95313,14.59961 l -0.48828,3.32031 h 14.79492 l 0.29297,-2.2461 q 1.17188,-9.76562 1.61133,-15.67382 z m 7.32422,0 -0.48828,5.12695 q -0.83008,8.78906 -1.31836,12.79297 h 16.40625 q 0.48828,-6.34766 0.73242,-12.30469 l 0.29297,-5.61523 z M 344.9707,73.779297 h 48.92578 v 6.689453 h -52.00195 q -4.00391,7.958984 -9.91211,14.941406 l -5.37109,-5.224609 q 9.47265,-10.546875 14.01367,-25.78125 l 7.4707,0.78125 q -1.5625,4.833984 -3.125,8.59375 z m -24.75586,12.5 q -6.44531,-8.447266 -14.40429,-15.38086 l 5.27343,-5.078125 q 7.51954,5.810547 14.69727,14.697266 z m -3.51562,25.732423 Q 309.0332,102.68555 301.9043,96.679687 l 5.41992,-5.371093 q 8.39844,6.787109 15.08789,14.794926 z m -12.69531,41.06445 q 8.88671,-12.64648 16.21093,-31.98242 l 6.39649,4.6875 q -7.37305,19.92187 -16.3086,33.00781 z M 445.70312,83.59375 V 64.501953 h 7.91016 V 83.59375 h 37.25586 v 49.70703 h -7.91016 v -6.98242 h -29.3457 v 33.20312 h -7.91016 v -33.20312 h -28.80859 v 7.51953 h -8.00781 V 83.59375 Z m -28.80859,7.324219 v 28.076171 h 28.80859 V 90.917969 Z m 66.06445,28.076171 V 90.917969 h -29.3457 v 28.076171 z m 51.02539,-42.382812 h 21.82618 v 6.787109 h -7.03125 q -2.05078,9.13086 -5.61524,18.701173 h 14.45313 v 6.88477 h -55.12696 v -6.88477 h 13.72071 l -0.0977,-0.48828 Q 514.0625,91.601562 511.71875,84.423828 l -0.3418,-1.025391 h -7.08008 v -6.787109 h 22.2168 V 64.501953 h 7.4707 z m -15.13671,6.787109 q 2.58789,7.958985 4.73632,18.701173 h 12.15821 q 2.92968,-8.105469 5.32226,-18.701173 z m 31.83593,35.888673 v 39.30664 h -7.32422 v -5.51758 h -25.97656 v 6.39649 h -7.56836 v -40.18555 z m -33.30078,6.68945 v 20.3125 h 25.97656 v -20.3125 z m 65.42969,-22.70508 q 12.8418,13.57422 12.8418,29.44336 0,5.56641 -2.00196,8.39844 -2.4414,3.27149 -8.49609,3.27149 -5.81055,0 -10.69336,-0.6836 l -1.61133,-7.61719 q 6.25,1.02539 10.15625,1.02539 3.71094,0 4.39453,-2.49023 0.29297,-1.07422 0.29297,-3.51562 0,-13.72071 -12.64648,-26.70899 5.85937,-12.695311 9.52148,-26.708983 h -15.42969 v 81.787113 h -7.37304 V 70.507812 h 27.49023 l 4.39453,3.808594 q -5.37109,17.382813 -10.83984,28.955074 z"></path>
</svg>
