<svg xmlns="http://www.w3.org/2000/svg" id="svg1" version="1.1" height="200" width="1096">
  <defs id="defs1"></defs>
  <rect id="rect1" stroke="none" fill="none" height="200" width="1096" y="0" x="0"></rect>
  <path aria-label="淡路島付近" style="font-weight:bold;font-size:110px;font-family:'BIZ UDPGothic';fill:#ff0000" id="text1" d="m 71.166992,111.2207 v 0.80567 q 0.214844,12.62207 7.089844,21.91406 3.652344,4.88769 11.333008,8.80859 8.432617,4.29688 19.389646,6.60645 l -6.71386,11.11816 q -28.090825,-8.27148 -35.8252,-27.55371 -3.867188,11.2793 -12.03125,17.83203 -8.378907,6.60645 -24.277344,10.58106 l -6.391602,-9.56055 q 20.839844,-4.51172 28.305664,-13.10547 7.573243,-8.70117 7.573243,-27.92969 v -9.13085 H 71.166992 Z M 69.501953,79.692383 q 18.476563,9.506836 37.167967,21.806637 l -7.788084,8.8086 Q 81.962891,97.739258 65.634766,88.232422 61.176758,95.751953 56.12793,99.941406 47.910156,106.81641 33.300781,111.81152 l -6.069336,-9.3457 q 16.865235,-4.243164 24.975586,-13.320312 7.41211,-8.378906 7.41211,-25.405274 v -7.788086 h 11.547851 v 6.499024 q 0,9.18457 -1.665039,17.241211 z M 21.538086,81.142578 Q 14.394531,71.635742 5.4785156,64.223633 l 8.0029294,-7.519531 q 8.862305,6.284179 16.757813,16.05957 z M 17.563477,108.96484 Q 9.8828125,98.920898 1.0742187,91.723633 L 9.3457031,83.666992 Q 18.691406,90.649414 26.37207,100.37109 Z M 3.2763672,152.09473 Q 12.514648,137.59277 20.786133,114.92676 l 9.560547,6.49902 Q 23.203125,142.6416 13.374023,160.36621 Z M 31.635742,83.237305 q 6.875,-9.13086 9.238281,-20.786133 l 10.581055,2.416992 Q 47.53418,79.584961 41.088867,88.608398 Z M 78.095703,78.188477 Q 84.80957,71.152344 91.147461,59.926758 l 11.118169,5.048828 Q 94.692383,76.469727 86.958008,83.55957 Z M 30.991211,131.52344 q 6.606445,-8.16406 10.688476,-19.92676 l 9.882813,2.52441 q -3.383789,13.96485 -11.225586,23.20313 z m 45.654297,-3.65235 q 7.304687,-8.32519 12.890625,-18.58398 l 10.742187,5.4248 q -8.647461,12.29981 -15.253906,18.90625 z M 194.75586,93.764648 q 10.3125,8.056642 24.16992,13.535152 l -4.99512,9.34571 q -15.62988,-6.3916 -26.21093,-15.89844 -2.84668,2.4707 -4.94141,4.13574 -9.3457,7.19727 -22.29004,12.40723 l -5.37109,-8.91602 q 14.07226,-4.67285 25.45898,-14.770504 -5.10254,-6.069336 -8.48633,-11.547852 -4.02832,4.511719 -8.75488,8.164063 l -6.33789,-8.378907 q 12.89063,-8.862304 19.6582,-26.264648 l 10.90332,1.772461 q -1.12793,2.416992 -1.93359,4.189453 h 19.6582 l 6.33789,5.800781 q -6.60644,14.770508 -16.86523,26.425781 z m -7.46582,-6.821289 q 6.3916,-7.197265 10.95703,-15.415039 h -18.26172 q -1.66504,2.578125 -2.09473,3.168946 4.02833,6.713867 9.39942,12.246093 z M 156.51367,59.819336 v 37.275391 h -13.42773 v 16.381833 h 13.64258 v 9.66797 h -13.64258 v 18.95996 q 5.47851,-1.23535 15.30761,-4.13574 l 0.85938,9.50684 q -21.21582,7.08984 -43.88184,11.65527 l -3.38379,-10.47363 q 4.72657,-0.80567 5.3711,-0.9668 v -41.67969 h 9.66797 v 39.7461 q 2.79297,-0.53711 6.06933,-1.28907 V 97.094727 H 116.60645 V 59.819336 Z m -29.4873,9.882812 v 17.939454 h 19.38965 V 69.702148 Z m 83.30566,47.426762 v 43.34472 h -10.7959 v -5.96191 h -25.02929 v 5.96191 h -10.7959 v -43.34472 z m -35.82519,9.77539 v 17.83203 h 25.02929 V 126.9043 Z m 88.08593,-62.788089 q 1.98731,-4.780274 3.22266,-9.130859 l 13.10547,1.77246 q -1.87988,4.458008 -3.4375,7.358399 h 35.77148 v 35.019531 h -64.88281 v 5.424808 h 80.83496 v 8.70117 h -80.83496 v 5.47851 h 77.0752 q -0.69825,24.59961 -3.11524,33.19336 -1.55762,5.47852 -5.85449,7.25098 -3.06152,1.28906 -9.3457,1.28906 -6.44532,0 -12.03125,-0.80566 l -2.14844,-9.02344 h -53.81836 v 5.96192 h -11.54785 v -25.83497 h 11.54785 v 11.06446 h 18.47656 v -14.50196 h -21.1084 V 64.116211 Z m 22.82715,77.719729 v -11.06446 h 11.11817 v 18.69141 q 4.458,0.42969 7.41211,0.42969 3.65234,0 4.56542,-2.09473 1.77247,-3.9209 2.79297,-20.46387 H 267.1582 v 14.50196 z M 246.37207,72.387695 v 5.317383 h 53.0127 v -5.317383 z m 0,12.998047 v 5.854492 h 53.0127 v -5.854492 z m 113.54492,0.59082 V 160.47363 H 348.26172 V 105.3125 q -4.35059,6.12305 -10.09766,12.67578 l -6.06933,-11.54785 q 10.90332,-12.084961 18.6914,-28.144532 4.72657,-9.721679 9.45313,-23.203125 l 11.22558,3.061524 q -4.88769,14.716797 -11.54785,27.822265 z M 421.09375,81.25 h 16.16699 v 10.795898 h -16.16699 v 56.396482 q 0,7.08985 -3.4375,9.45313 -2.52441,1.77246 -9.50684,1.77246 -8.54004,0 -17.50976,-0.9668 l -2.30957,-11.76269 q 9.56054,1.39648 17.83203,1.39648 2.25586,0 2.73926,-0.9668 0.32226,-0.69824 0.32226,-2.30957 V 92.045898 H 365.28809 V 81.25 h 43.93554 V 57.832031 h 11.87012 z m -33.99902,52.0459 q -6.06934,-16.16699 -14.98536,-29.48731 l 10.25879,-5.96191 q 9.66797,14.2334 15.52246,29.16504 z m 83.25195,2.73926 q 4.29687,4.99511 9.66797,7.41211 8.80859,3.9746 23.0957,3.9746 h 45.76172 q -1.93359,3.65235 -3.59863,10.47364 h -42.7002 q -18.47656,0 -28.30566,-5.80078 -4.02832,-2.417 -8.86231,-7.89551 -0.37597,0.42969 -0.91308,1.07422 -7.89551,9.3457 -15.6836,15.2539 l -6.49902,-11.01074 q 8.54004,-5.10254 16.48926,-11.54785 v -26.5332 h -15.62988 v -10.58106 h 27.17773 z m 13.96484,-71.274418 2.84668,-0.214844 q 24.86817,-1.71875 44.6875,-7.358398 l 8.37891,9.453125 q -20.83984,5.478516 -44.47266,7.412109 v 13.911133 h 49.73633 V 98.4375 h -18.04687 v 43.77441 H 515.57129 V 98.4375 h -19.81934 q -0.26855,17.24121 -2.57812,27.44629 -2.09473,9.39941 -6.875,16.86523 l -9.88281,-7.46582 q 5.31738,-8.27148 6.82128,-20.51757 1.07422,-8.43262 1.07422,-22.934575 z M 464.43848,85.761719 Q 456.2207,74.160156 446.71387,64.975586 l 8.80859,-7.036133 q 9.23828,7.734375 18.58399,19.658203 z"></path>
</svg>
