<svg version="1.1" xmlns="http://www.w3.org/2000/svg" xmlns:xlink="http://www.w3.org/1999/xlink" width="1656.15616" height="144.14414" viewBox="0,0,1656.15616,144.14414"><g transform="translate(588.07808,-107.92793)"><g stroke="none" stroke-miterlimit="10"><path d="M-488.51958,135.07421h14.54687l35.4375,91.16406h-15.69531l-9.29687,-24.82812h-35.38281l-9.29687,24.82812h-15.69531zM-467.46489,189.65234l-8.47657,-23.07813c-2.40625,-6.48958 -4.10156,-12.21354 -5.08593,-17.17187h-0.4375c-0.94792,4.95833 -2.625,10.68229 -5.03125,17.17188l-8.53125,23.07813zM-433.06646,135.51171h18.48438l22.96875,34.94531l22.96875,-34.94531h18.48437l-32.04687,44.89844l34.61718,45.82812h-18.70312l-25.32031,-35.60156l-25.32031,35.60156h-18.70313l34.61719,-45.82812zM-340.15241,135.51171h38.0625v10.0625h-11.64843v70.60156h11.64843v10.0625h-38.0625v-10.0625h11.64844v-70.60156h-11.64844zM-283.66021,203.26954c7.51042,8.45833 16.8073,12.6875 27.89063,12.6875c5.03125,0 9.05989,-1.0026 12.08593,-3.00781c3.57292,-2.44271 5.35938,-5.83333 5.35938,-10.17188c0,-3.93749 -1.54948,-7.14582 -4.64844,-9.62499c-2.04167,-1.64063 -6.96354,-3.99219 -14.76562,-7.05469l-2.07813,-0.82031l-3.71875,-1.47657c-0.25521,-0.10937 -0.71094,-0.29166 -1.36719,-0.54687c-8.02083,-3.02604 -13.21614,-5.52344 -15.58593,-7.49219c-0.36459,-0.32813 -0.82032,-0.78386 -1.36719,-1.36719c-3.90104,-4.19271 -5.85156,-9.24219 -5.85156,-15.14844c0,-7.61979 2.73437,-13.76302 8.20312,-18.42969c5.72396,-4.88542 13.45313,-7.32812 23.1875,-7.32812c6.78125,0 12.83334,1.0026 18.15625,3.00781c4.22917,1.64062 8.4401,4.15625 12.63281,7.54688l-7.54687,10.5c-6.45313,-6.125 -14.16406,-9.1875 -23.13281,-9.1875c-5.86979,0 -10.13542,1.36719 -12.79688,4.10156c-2.26041,2.33333 -3.39062,5.15885 -3.39062,8.47656c0,3.79167 1.64062,6.81771 4.92187,9.07813c2.07813,1.45833 6.48959,3.39063 13.23438,5.79688l4.375,1.58594c9.625,3.46355 16.22396,6.85417 19.79687,10.17188c4.95833,4.63021 7.4375,10.44531 7.4375,17.44531c0,8.67708 -3.40885,15.4401 -10.22656,20.28906c-5.61459,3.97396 -13.27084,5.96094 -22.96875,5.96094c-15.09375,0 -27.17969,-5.1224 -36.25781,-15.36719zM-153.17584,217.48829c21.40104,-5.39583 32.10156,-17.66406 32.10156,-36.80468c0,-8.34896 -2.15104,-15.53126 -6.45313,-21.54688c-4.8125,-6.78125 -12.14062,-11.13802 -21.98437,-13.07031c-2.15104,16.91667 -5.08594,30.77083 -8.80469,41.5625c-2.55208,7.54687 -5.72395,14.67448 -9.51562,21.38281c-5.46875,9.55208 -11.6849,14.32812 -18.64844,14.32812c-5.17709,0 -9.78907,-2.33333 -13.83594,-7c-2.58854,-2.95312 -4.68489,-6.58072 -6.28906,-10.88281c-2.11459,-5.57812 -3.17188,-11.57551 -3.17188,-17.99218c0,-10.39063 2.86198,-19.96094 8.58594,-28.71094c5.79687,-8.93229 13.32552,-15.42187 22.58594,-19.46875c6.74479,-2.95312 14.14583,-4.42969 22.20312,-4.42969c12.57813,0 23.26042,3.3724 32.04688,10.11719c10.79167,8.27604 16.1875,19.9974 16.1875,35.16406c0,25.41146 -12.85156,41.52604 -38.55469,48.34375zM-161.37897,145.62888c-6.45313,0.72917 -11.84896,2.46094 -16.1875,5.19531c-2.77083,1.78646 -5.52344,4.15625 -8.25781,7.10938c-7.58333,8.38542 -11.375,18.10156 -11.375,29.14844c0,8.05729 1.60417,14.36459 4.8125,18.92188c1.96875,2.80729 3.91927,4.21093 5.85156,4.21093c2.625,0 5.57813,-2.89844 8.85938,-8.69531c8.02083,-14.10937 13.45312,-32.73958 16.29687,-55.89063zM-31.98834,131.13671h12.30468v22.09375h21.92969v11.21094h-21.92969v3.44531c0,18.59376 -2.66146,32.5573 -7.98437,41.89062c-5.14063,8.96875 -14.20052,15.84115 -27.17969,20.61719l-7.65625,-9.73437c12.6875,-4.375 21.18229,-11.11979 25.48438,-20.23438c3.35417,-7.03645 5.03125,-17.82812 5.03125,-32.375v-3.60937h-33.19532v31.33595h-12.30468v-31.33595h-20.39844v-11.21094h20.39844v-21.27344h12.30468v21.27344h33.19532zM12.63666,172.80859h96.30468v12.30469h-96.30468zM118.62103,217.3789c6.34375,-9.33333 11.79427,-20.76302 16.35156,-34.28906c4.95833,-14.80209 8.09375,-29.84115 9.40625,-45.1172l12.52344,2.57031c-3.24479,22.38542 -7.60156,41.19792 -13.07031,56.4375c-3.9375,11.08333 -8.78646,20.79948 -14.54688,29.14844zM206.88667,226.67579c-13.19792,-21.91145 -23.38803,-50.65885 -30.57032,-86.24219l11.86719,-3.66406c6.34375,31.79167 16.1875,59.00781 29.53125,81.64844zM201.14448,150.87888c-2.11459,-5.79687 -5.79688,-12.52344 -11.04688,-20.17969l8.58594,-3.11719c4.19271,5.76042 7.96614,12.35938 11.32031,19.79688zM216.83979,148.41796c-2.80729,-7.25521 -6.47136,-14.05469 -10.99219,-20.39844l8.20313,-2.67969c4.33854,5.32292 8.03906,11.73958 11.10156,19.25zM231.05854,172.80859h96.30469v12.30469h-96.30469zM337.69917,202.5039c5.06771,-6.52604 9.97135,-13.87239 14.71093,-22.03906c6.23438,-10.64584 11.48438,-21.10938 15.75,-31.39063c2.11459,-5.14063 5.45053,-7.71094 10.00782,-7.71094c2.55208,0 4.88541,0.91146 7,2.73438c1.38541,1.16667 3.42708,4.0651 6.125,8.69531c3.75521,6.38021 8.98699,13.98177 15.69535,22.80469c10.60933,14 21.67443,26.21354 33.1953,36.64062l-7.9297,10.44531c-16.8802,-15.60416 -33.99739,-36.84114 -51.35158,-63.71093c-1.16667,-1.82292 -2.04167,-2.73437 -2.625,-2.73437c-0.76563,0 -1.78646,1.64063 -3.0625,4.92188c-3.17187,8.23958 -7.85677,17.79167 -14.05469,28.65626c-4.375,7.61979 -8.8776,14.58333 -13.50781,20.89062zM506.51957,217.48829c21.401,-5.39583 32.1015,-17.66406 32.1015,-36.80468c0,-8.34896 -2.15103,-15.53126 -6.4531,-21.54688c-4.81253,-6.78125 -12.14067,-11.13802 -21.9844,-13.07031c-2.151,16.91667 -5.0859,30.77083 -8.8047,41.5625c-2.55207,7.54687 -5.72393,14.67448 -9.5156,21.38281c-5.46873,9.55208 -11.6849,14.32812 -18.6485,14.32812c-5.17707,0 -9.78903,-2.33333 -13.8359,-7c-2.58853,-2.95312 -4.6849,-6.58072 -6.2891,-10.88281c-2.11453,-5.57812 -3.1718,-11.57551 -3.1718,-17.99218c0,-10.39063 2.86197,-19.96094 8.5859,-28.71094c5.79687,-8.93229 13.32553,-15.42187 22.586,-19.46875c6.74473,-2.95312 14.14577,-4.42969 22.2031,-4.42969c12.57813,0 23.26043,3.3724 32.0469,10.11719c10.79167,8.27604 16.1875,19.9974 16.1875,35.16406c0,25.41146 -12.85157,41.52604 -38.5547,48.34375zM498.31636,145.62888c-6.45313,0.72917 -11.84897,2.46094 -16.1875,5.19531c-2.7708,1.78646 -5.5234,4.15625 -8.2578,7.10938c-7.58333,8.38542 -11.375,18.10156 -11.375,29.14844c0,8.05729 1.60417,14.36459 4.8125,18.92188c1.96873,2.80729 3.91923,4.21093 5.8515,4.21093c2.62507,0 5.5782,-2.89844 8.8594,-8.69531c8.02087,-14.10937 13.45317,-32.73958 16.2969,-55.89063zM652.04296,194.30079c-2.55207,7.10937 -6.0156,13.38021 -10.3906,18.8125c6.7448,3.17187 14.36457,7.25521 22.8593,12.25l-7.2734,9.29688c-8.31247,-4.99479 -16.24217,-9.4974 -23.7891,-13.50782c-8.71353,6.23438 -20.12497,10.73699 -34.2343,13.50782l-6.0157,-9.95313c11.19273,-1.02083 21.05473,-3.95573 29.586,-8.80469c-6.4896,-2.95312 -13.14327,-5.66926 -19.961,-8.14843c2.80733,-4.41146 5.3412,-8.89584 7.6016,-13.45313h-17.2266v-9.73437h21.6563c1.2396,-2.95313 2.57033,-6.30729 3.9922,-10.0625h-22.75l1.0937,6.83594c-3.60933,1.75 -7.25517,3.39062 -10.9375,4.92187v37.73437c0,3.57292 -0.8203,6.08855 -2.4609,7.54688c-1.53127,1.38541 -4.21097,2.07812 -8.0391,2.07812c-3.86453,0 -7.7291,-0.29167 -11.5937,-0.875l-2.2422,-11.75781c0.875,0.10937 2.0052,0.27344 3.3906,0.49219c2.625,0.36458 4.75783,0.54687 6.3985,0.54687c1.23953,0 2.0416,-0.21875 2.4062,-0.65625c0.32813,-0.40104 0.4922,-1.16666 0.4922,-2.29687v-28.27344c-3.5,1.34896 -7.72917,2.80729 -12.6875,4.375l-3.3359,-11.15625c6.48953,-1.71354 11.83067,-3.28125 16.0234,-4.70312v-20.5625h-14.4375v-10.88281h14.4375v-20.17969h11.6484v20.17969h9.9532v10.88281h-9.9532v16.40625c2.4792,-0.94792 4.92193,-1.9323 7.3282,-2.95313l1.4765,-0.60156v-7.05469h16.3516c-1.4948,-5.57812 -3.1172,-10.3724 -4.8672,-14.38281h-8.0938v-9.73437h24.8829v-12.74219h11.7578v12.74219h26.9609v9.73438h-9.8437c-1.2396,4.66667 -2.9714,9.46094 -5.1954,14.38281h17.7735v9.95313h-33.7422c-1.4948,4.08334 -2.78907,7.4375 -3.8828,10.0625h39.0469v9.73437zM639.95707,194.30079h-17.1172c-1.67713,3.39063 -3.24487,6.34375 -4.7032,8.85938c2.91667,1.02083 6.65367,2.49739 11.211,4.42968l2.1875,0.92969c3.53647,-4.11979 6.34377,-8.85938 8.4219,-14.21875zM617.58987,150.16796c1.93227,4.19271 3.6458,8.98698 5.1406,14.38281h12.5234c1.38547,-3.35417 2.98963,-8.14844 4.8125,-14.38281zM686.16796,168.37888c-4.04687,-6.23437 -8.98697,-12.35937 -14.8203,-18.375l6.5078,-7.98437c1.1302,1.16667 2.1328,2.22396 3.0078,3.17188c3.57293,-5.46875 6.83597,-11.52083 9.7891,-18.15625l9.625,5.03125c-3.20833,5.83333 -7.7474,12.54167 -13.6172,20.125c1.85933,2.40625 3.7734,5.06771 5.7422,7.98438c6.85413,-9.66146 11.53903,-16.46094 14.0547,-20.39844l8.4765,5.96094c-7.401,10.86458 -15.4036,20.96354 -24.0078,30.29688c6.67187,-0.40104 11.6849,-0.82031 15.0391,-1.25781c-0.2188,-0.65625 -0.60163,-1.80469 -1.1485,-3.44532c-0.32813,-1.02083 -0.91147,-2.57031 -1.75,-4.64844l7.8203,-3.0625c2.66147,5.35937 4.90367,12.1224 6.7266,20.28907v-11.86719h59.3359v22.96875h-10.3906v-13.67187h-38.664v14.54687h-10.2813v-9.625l-7.6016,3.60938c-0.58333,-2.58855 -1.14843,-4.92188 -1.6953,-7c-1.82287,0.32812 -3.73693,0.63801 -5.7422,0.92968c-1.16667,0.18229 -2.11457,0.32813 -2.8437,0.4375v49.875h-10.6641v-48.50781c-5.17707,0.61979 -10.40883,1.11198 -15.6953,1.47656l-2.1328,-10.11718c1.56773,-0.03647 3.1172,-0.09116 4.6484,-0.16407l3.4454,-0.16406c1.96873,-2.29688 4.24737,-5.04948 6.8359,-8.25781zM740.69136,137.75388v-10.0625h11.211v10.0625h25.6484v9.625h-25.6484v7.76563h22.5859v9.40625h-54.7422v-9.40625h20.9453v-7.76562h-24.2265v-9.625zM671.23828,220.8789c2.91667,-8.96875 4.375,-18.52084 4.375,-28.65625l9.7344,1.20312c-0.43753,12.94271 -1.8594,23.66146 -4.2656,32.15625zM706.94918,215.24609c-1.42187,-8.23958 -3.06247,-15.40364 -4.9218,-21.49218l8.4218,-2.46094c2.40627,6.125 4.37503,12.74219 5.9063,19.85156zM748.73046,187.41015h10.5547v32.10156c0,1.38541 0.3099,2.1875 0.9297,2.40625c0.47393,0.18229 1.2031,0.27344 2.1875,0.27344c3.20833,0 5.04947,-0.71094 5.5234,-2.13282c0.58333,-1.78645 0.98437,-6.32551 1.2031,-13.61718l9.625,3.55468c-0.03667,10.28125 -1.20333,16.69792 -3.5,19.25c-2.04167,2.29688 -6.5625,3.44532 -13.5625,3.44532c-6.08853,0 -9.89843,-0.875 -11.4297,-2.625c-1.0208,-1.16667 -1.5312,-3.11719 -1.5312,-5.85157zM709.41018,225.6914c9.5156,-2.51563 15.67707,-6.65365 18.4844,-12.41407c2.18747,-4.375 3.31767,-12.92448 3.3906,-25.64843h10.5c-0.03667,11.66667 -0.69293,19.92448 -1.9688,24.77343c-1.4948,5.72396 -4.57553,10.53646 -9.2422,14.4375c-3.46353,2.84375 -8.2031,5.41407 -14.2187,7.71094zM831.47268,146.94138v-19.25h12.414v19.25h36.4219v10.88281h-36.4219v21.16406h46.3204v10.66407h-42.5469c8.05727,14.61979 22.42183,25.33853 43.0937,32.15624l-7.3828,10.82813c-11.5208,-4.15625 -21.29163,-9.86198 -29.3125,-17.11719c-6.67187,-6.05208 -11.77603,-12.65104 -15.3125,-19.79687c-3.97393,9.66145 -9.60673,17.51822 -16.8984,23.57031c-6.92707,5.72396 -16.36977,10.77344 -28.3281,15.14844l-7.3829,-10.5c12.03127,-2.84375 22.27607,-8.16667 30.7344,-15.96875c5.32293,-4.95833 9.3698,-11.0651 12.1406,-18.32031h-45.2265v-10.66407h47.6875v-21.16406h-23.461c-2.6614,5.65104 -5.96087,11.10156 -9.8984,16.35156l-10.3906,-7.05469c7.5104,-8.82292 12.99737,-20.54427 16.4609,-35.16406l11.8672,2.57031c-1.05727,4.375 -2.2604,8.51302 -3.6094,12.41406zM979.51168,200.7539c7.65627,9.33333 15.7865,16.46094 24.3907,21.38281l-6.836,11.53906c-7.94787,-5.14063 -15.8411,-12.81511 -23.6797,-23.02344c-7.0364,9.88021 -15.02077,17.88282 -23.9531,24.00782l-5.4687,-8.85938l-5.961,4.70313c-3.2812,-7.21875 -6.89057,-13.25261 -10.8281,-18.10157l8.5859,-5.63281c4.26567,4.8125 7.80213,9.88021 10.6094,15.20313c8.20313,-6.16146 14.8568,-13.30729 19.961,-21.4375c-4.9948,-8.02083 -8.9323,-16.26042 -11.8125,-24.71875c-1.56773,3.09896 -3.5365,6.47136 -5.9063,10.11719l-5.1406,-9.40625v29.91406h-41.5078v-74.59376h41.5078v42.60156c6.125,-11.70313 10.6823,-27.21615 13.6719,-46.53906l11.6484,1.80469c-0.9844,5.54167 -2.20577,11.17448 -3.6641,16.89844h36.8594v10.77344h-9.3516c-2.2604,16.84376 -6.6354,31.29949 -13.125,43.36719zM972.12886,189.98048c4.52087,-9.91667 7.45577,-20.78125 8.8047,-32.59375h-18.9219c-0.43747,1.42187 -0.92963,2.88021 -1.4765,4.375c2.1146,8.96875 5.97917,18.375 11.5937,28.21875zM912.73828,141.80078v11.97656h20.3438v-11.97656zM912.73828,162.63671v11.97656h20.3438v-11.97656zM912.73828,183.2539v13.45312h20.3438v-13.45312zM894.91018,226.67579c6.16147,-5.43229 11.01043,-11.73958 14.5469,-18.92187l9.8437,5.30468c-5.03127,9.80729 -10.13543,16.97136 -15.3125,21.49219z" fill="#ee4d4d" stroke-width="1"/><path d="M-588.07808,252.07207v-144.14414h1656.15616v144.14414z" fill="none" stroke-width="0"/></g></g></svg>