<svg xmlns="http://www.w3.org/2000/svg" id="svg1" version="1.1" height="200" width="990">
  <defs id="defs1"></defs>
  <rect id="rect1" stroke="none" fill="none" height="200" width="990" y="0" x="0"></rect>
  <path aria-label="豊後水道" style="font-size:100px;font-family:'BIZ UDPGothic';fill:#ff0000" id="text1" d="m 34.912109,72.021484 v -7.519531 h 7.373047 v 7.519531 h 14.794922 v -7.519531 h 7.324219 v 7.519531 h 22.90039 V 105.0293 H 12.597656 V 72.021484 Z m -15.039062,5.517578 v 8.154297 h 15.039062 v -8.154297 z m 0,13.330079 v 8.642578 h 15.039062 v -8.642578 z m 60.009765,8.642578 V 90.869141 H 64.404297 v 8.642578 z m 0,-13.81836 V 77.539062 H 64.404297 v 8.154297 z M 42.285156,77.539062 v 8.154297 h 14.794922 v -8.154297 z m 0,13.330079 v 8.642578 h 14.794922 v -8.642578 z m 42.529297,30.908199 v 19.4336 H 74.169922 q -2.197266,5.02929 -5.078125,9.47265 h 28.417969 v 6.00586 H 2.4902344 v -6.00586 H 29.541016 q -2.050782,-4.73632 -4.931641,-9.47265 h -9.619141 v -19.4336 z m -61.816406,5.61524 v 8.20312 h 53.808594 v -8.20312 z m 10.351562,13.81836 q 2.636719,4.44336 4.44336,9.47265 h 23.046875 q 2.148437,-3.71093 4.638672,-9.47265 z M 3.8085938,110.40039 H 96.191406 v 5.71289 H 3.8085938 Z m 146.9726562,0.43945 q -2.34375,0.0977 -5.71289,0.3418 -1.5625,0.0977 -11.66992,0.48828 l -2.00196,-6.59179 q 5.22461,-0.0977 15.86914,-0.43946 l 0.53711,-0.53711 q 1.31836,-1.2207 5.27344,-5.029294 -8.05664,-9.619141 -19.0918,-18.50586 l 5.12696,-4.785156 q 4.05273,3.222656 7.03125,6.054687 6.93359,-8.105468 12.25586,-17.675781 l 6.98242,3.417969 q -7.71484,11.181641 -14.84375,18.505859 3.61328,3.759766 7.37305,8.105469 l 1.36718,-1.464844 q 9.76563,-10.302734 17.23633,-20.068359 l 6.39649,4.003906 q -11.37696,13.916016 -26.12305,27.636724 4.98047,-0.29297 7.4707,-0.39063 3.61328,-0.19531 18.31055,-1.2207 Q 178.56445,96.826172 175,92.578125 l 5.9082,-3.320313 q 8.25196,9.326172 15.18555,21.435548 l -6.29883,3.56445 q -2.49023,-4.29687 -3.80859,-6.29883 -11.23047,1.36719 -26.85547,2.34375 -2.29492,3.90625 -4.88281,7.37305 h 28.46679 l 4.6875,4.19922 q -8.30078,11.37695 -18.35937,19.04297 11.57226,7.22656 28.75976,11.18164 l -4.39453,7.08008 q -16.94336,-4.63867 -30.61523,-13.96485 -15.625,10.00977 -31.78711,14.16016 l -4.10156,-6.68945 q 15.96679,-3.66211 30.02929,-11.91407 -0.24414,-0.24414 -0.58593,-0.53711 -5.90821,-4.93164 -11.76758,-11.86523 -4.58985,4.19922 -10.69336,7.71484 l -4.98047,-5.12695 q 13.03711,-6.98242 21.875,-20.11719 z m 12.35352,25.87891 q 8.3496,-6.00586 13.67187,-12.8418 h -27.49023 q 6.20117,7.08008 13.81836,12.8418 z m -39.30664,-32.17773 v 54.98046 h -7.71485 v -45.21484 q -4.58984,5.27344 -10.30273,10.40039 l -4.00391,-6.78711 Q 115.625,106.39648 125.92773,87.011719 l 6.5918,3.564453 q -4.10156,7.519531 -8.6914,13.964848 z M 102.7832,87.792969 q 12.40235,-9.521485 20.41016,-22.802735 l 6.5918,3.515625 q -9.32618,15.087891 -22.70508,25.195313 z m 151.70899,-6.00586 q 2.19726,10.644532 7.17773,20.849611 0.43945,-0.29297 1.02539,-0.78125 12.15821,-9.570314 23.48633,-22.460939 l 6.39648,5.419922 q -13.47656,14.013672 -27.58789,23.779297 11.91407,19.28711 33.39844,32.32422 l -5.07812,6.88476 Q 266.94336,131.73828 254.49219,101.9043 v 49.3164 q 0,4.15039 -2.34375,5.85938 -2.14844,1.61133 -7.47071,1.61133 -6.88476,0 -13.3789,-0.6836 l -1.61133,-8.10547 q 9.08203,1.07422 13.86719,1.07422 2.09961,0 2.68554,-0.83008 0.43946,-0.68359 0.43946,-2.14843 V 64.501953 h 7.8125 z m -49.26758,7.421875 h 31.98242 l 4.39453,3.90625 q -2.83203,14.892576 -7.95898,25.488286 -8.25196,17.04101 -26.12305,31.29882 l -5.51758,-6.20117 Q 226.5625,125.97656 232.91016,96.289062 H 205.22461 Z M 324.90234,138.7207 q 5.0293,5.17578 11.47461,7.76367 Q 345.06836,150 359.08203,150 h 39.30664 q -1.31836,2.97852 -2.39258,7.08008 h -37.98828 q -15.67383,0 -24.85351,-4.29688 -6.00586,-2.83203 -10.98633,-7.91015 -7.03125,8.30078 -15.57617,14.69726 l -4.39453,-7.08008 q 7.22656,-4.39453 15.08789,-11.42578 v -26.85547 h -14.79493 v -6.7871 h 22.41211 z m 33.64258,-55.224606 h -28.125 v -6.298828 h 17.72461 q -2.73437,-4.931641 -6.44531,-9.619141 l 7.03125,-2.685547 q 4.39453,6.396484 7.1289,12.304688 h 12.98829 q 2.88086,-5.126954 5.51757,-12.5 l 7.91016,2.001953 q -2.58789,5.664062 -5.66406,10.498047 h 18.65234 v 6.298828 h -28.90625 q -1.02539,3.613281 -3.07617,8.300781 h 25.09766 V 142.82227 H 337.5 V 91.796875 h 18.35937 q 1.70899,-4.541016 2.68555,-8.300781 z m -13.62305,14.013672 v 9.179684 h 35.9375 v -9.179684 z m 0,14.599614 v 9.08203 h 35.9375 v -9.08203 z m 0,14.79492 v 10.00976 h 35.9375 V 126.9043 Z m -24.3164,-38.085941 q -7.22656,-10.15625 -14.59961,-17.041015 l 5.46875,-4.589844 q 8.74023,7.714844 15.03906,16.308594 z"></path>
</svg>
