<svg xmlns="http://www.w3.org/2000/svg" id="svg1" version="1.1" height="200" width="1096">
  <defs id="defs1"></defs>
  <rect id="rect1" stroke="none" fill="none" height="200" width="1096" y="0" x="0"></rect>
  <path aria-label="北西太平洋" style="font-weight:bold;font-size:110px;font-family:'BIZ UDPGothic';fill:#ff0000" id="text1" d="M 32.119141,131.8457 Q 17.294922,139.63379 6.2841797,143.76953 L 1.7724609,131.95312 Q 19.013672,126.15234 32.119141,119.92188 V 95.859375 H 5.5322266 V 84.526367 H 32.119141 V 55.952148 H 44.09668 V 160.47363 H 32.119141 Z M 70.307617,90.004883 Q 82.822266,83.452148 94.584961,73.354492 l 8.916019,9.345703 Q 87.602539,93.979492 70.307617,101.92871 v 40.2832 q 0,2.63184 1.71875,3.22266 1.826172,0.59082 8.432617,0.59082 8.701172,0 10.903321,-1.02051 1.557617,-0.69824 2.148437,-4.35058 0.805664,-5.10254 1.181641,-16.48926 l 12.031247,3.70605 q -0.53711,13.91114 -1.71875,19.98047 -1.34277,6.76758 -7.03613,8.75489 -5.424805,1.82617 -17.77832,1.82617 -14.501953,0 -18.261719,-2.417 -3.598633,-2.36328 -3.598633,-9.07714 V 55.952148 H 70.307617 Z M 145.39551,86.621094 V 71.582031 H 113.38379 V 61.21582 h 103.28613 v 10.366211 h -35.50293 v 15.039063 h 30.13184 v 72.402346 h -11.65528 v -7.57324 h -69.34082 v 7.57324 H 118.75488 V 86.621094 Z m 11.11816,0 h 13.53516 V 71.582031 h -13.53516 z m -11.17187,9.77539 h -15.03907 v 44.848636 h 69.34082 v -16.11328 h -20.35644 q -9.23828,0 -9.23828,-9.23829 V 96.396484 h -13.64258 q -0.21484,13.212896 -3.97461,21.162106 -3.54492,7.57325 -13.96484,14.98536 l -7.41211,-8.27149 q 9.99023,-6.12305 12.62207,-15.14648 1.39648,-4.83399 1.66504,-12.729496 z m 35.82519,0 v 16.435546 q 0,2.09473 1.87988,2.09473 h 16.59668 V 96.396484 Z m 102.10449,-5.15625 q 4.02832,13.105466 12.83692,26.157226 12.40722,18.42285 31.9043,30.29297 l -7.46583,11.17187 q -17.88574,-11.11816 -31.58203,-30.88378 -8.05664,-11.65528 -12.83691,-25.67383 -3.38379,12.35351 -9.18457,22.34375 12.99805,8.8623 21.26953,16.97265 l -7.46582,8.8086 q -8.21777,-8.21778 -19.60449,-16.75782 -8.00293,10.63477 -16.38184,17.29493 -5.74707,4.61914 -13.42773,9.02343 l -8.70117,-10.09765 q 20.1416,-8.70117 32.22656,-27.33887 9.13086,-14.12598 12.51465,-31.313476 H 225.04883 V 79.799805 h 43.45215 V 55.952148 h 12.67578 v 23.847657 h 43.88183 V 91.240234 Z M 390.69336,71.367187 v 42.001953 h 46.56738 v 11.01074 h -46.56738 v 36.09375 H 378.6084 V 124.37988 H 332.73926 V 113.36914 H 378.6084 V 71.367187 H 337.68066 V 60.678711 h 94.69239 v 10.688476 z m -35.8252,37.919923 Q 349.55078,93.496094 343.10547,81.142578 l 11.65527,-4.726562 q 6.01563,10.419921 12.29981,28.251954 z m 47.58789,-3.70606 q 6.92872,-12.998042 11.70899,-29.809566 l 12.19238,3.920899 q -5.04883,15.522461 -12.67578,30.131837 z M 503.59375,83.452148 H 474.8584 v -9.990234 h 14.66308 q -3.49121,-8.00293 -7.41211,-13.964844 l 10.68848,-3.974609 q 4.51172,7.573242 8.27149,17.939453 h 17.08007 q 3.4375,-7.949219 6.55274,-17.939453 l 12.08496,3.330078 q -3.33008,8.486328 -6.66016,14.609375 h 14.07227 v 9.990234 H 515.46387 V 97.30957 h 25.51269 v 9.66797 h -25.51269 v 14.82422 h 31.79687 v 10.36621 h -31.79687 v 28.30566 h -11.87012 v -28.30566 h -31.04492 v -10.36621 h 31.04492 v -14.82422 h -25.67383 v -9.66797 h 25.67383 z m -40.71289,-1.450195 q -6.3916,-8.862305 -16.91895,-17.241211 l 8.11036,-8.271484 q 10.79589,7.841797 17.61718,16.704101 z m -3.49121,27.607427 Q 451.01074,99.404297 441.9873,92.15332 l 8.16407,-8.271484 q 9.61425,6.982422 17.77832,16.811524 z m -15.52246,41.35742 q 9.56054,-13.21289 18.36914,-35.50293 l 9.13086,7.14355 q -7.51953,22.5586 -18.04688,37.75879 z"></path>
</svg>
