<svg xmlns="http://www.w3.org/2000/svg" id="svg1" version="1.1" height="200" width="1096">
  <defs id="defs1"></defs>
  <rect id="rect1" stroke="none" fill="none" height="200" width="1096" y="0" x="0"></rect>
  <path aria-label="根室地方中部" style="font-weight:bold;font-size:110px;font-family:'BIZ UDPGothic';fill:#ff0000" id="text1" d="m 89.912109,132.43652 q 7.197266,9.8291 18.959961,16.00586 l -6.71387,10.58106 Q 88.999023,151.39648 81.264648,139.52637 72.993164,126.9043 69.555664,109.7168 H 58.491211 v 35.34179 q 12.407226,-3.65234 20.786133,-6.71386 l 1.020508,10.20507 q -15.791016,6.875 -36.254883,11.7627 l -3.706055,-11.01074 q 3.813477,-0.69824 7.143555,-1.4502 V 59.819336 h 52.045898 v 49.843754 l 7.680663,6.55273 q -8.754882,9.77539 -17.294921,16.2207 z m -4.780273,-8.27148 Q 92.8125,116.69922 97.915039,109.7168 H 80.351562 q 1.826172,8.11035 4.780274,14.44824 z M 88.408203,69.165039 H 58.491211 v 11.010742 h 29.916992 z m 0,19.819336 H 58.491211 V 100.58594 H 88.408203 Z M 19.335937,112.34863 q -4.61914,13.64258 -12.4072261,26.69434 L 0.859375,127.11914 Q 12.944336,110.25391 18.154297,89.414062 H 3.1689453 V 78.833008 H 19.335937 v -22.88086 h 11.225586 v 22.88086 H 43.183594 V 89.414062 H 30.561523 v 9.399415 q 9.184571,6.660153 15.898438,14.448243 l -5.908203,10.15137 q -4.833985,-6.66016 -9.990235,-12.13868 v 49.19922 H 19.335937 Z m 151.196293,1.98731 v 12.03125 h 36.46972 v 9.23828 h -36.46972 v 11.76269 h 45.76172 v 9.45313 H 113.65234 v -9.45313 h 45.00977 v -11.76269 h -35.66406 v -9.23828 h 35.66406 v -11.38672 l -4.18945,0.21484 q -11.2793,0.53711 -29.917,0.91309 l -3.54492,-9.66797 6.875,-0.0537 h 1.66504 l 5.74707,-0.0537 q 4.13574,-4.78028 9.66797,-13.320315 h -14.28711 v -9.345703 h 68.53516 v 9.345703 h -9.13086 q 9.13086,6.767578 21.43066,19.604495 l -9.23828,6.71386 q -3.06152,-3.65234 -6.17676,-6.875 -4.08203,0.32227 -6.12304,0.53711 -7.8418,0.64454 -19.44336,1.34278 z M 187.0752,93.012695 h -28.73536 q -5.4248,7.680665 -10.58105,13.105465 l 7.25098,-0.16113 q 19.81933,-0.32226 33.35449,-1.12793 -4.08203,-3.70605 -8.70117,-7.51953 z M 170.53223,66.533203 h 43.34472 V 88.608398 H 202.11426 V 75.664062 H 127.83203 V 88.608398 H 116.06934 V 66.533203 h 42.59277 V 55.952148 h 11.87012 z m 105.75683,32.924805 v 42.539062 q 0,4.13574 3.54492,4.99512 3.65235,0.91308 16.70411,0.91308 12.72949,0 16.81152,-1.28906 2.30957,-0.75195 3.00781,-4.18945 0.91309,-4.83399 0.9668,-11.44043 l 11.22558,3.16894 Q 327.69043,150 324.19922,154.4043 q -2.30957,2.90039 -6.98242,3.4375 -7.3584,0.80566 -24.97559,0.80566 -13.64258,0 -17.88574,-0.75195 -6.3916,-1.07422 -8.11035,-5.63965 -0.85938,-2.41699 -0.85938,-6.44531 v -42.59278 l -10.25879,3.54493 -2.52441,-10.419927 12.7832,-4.404296 V 62.988281 h 10.90332 v 25.19043 l 11.54785,-3.920899 V 55.952148 h 10.7959 v 24.545899 l 17.99317,-6.176758 5.63964,3.4375 v 40.229491 q 0,4.18945 -1.9873,6.23047 -2.25586,2.25586 -7.57324,2.25586 -4.35059,0 -9.23828,-0.75195 l -1.77246,-10.25879 q 3.16894,0.80566 6.44531,0.80566 2.36328,0 2.90039,-0.9668 0.53711,-0.80566 0.53711,-2.68554 V 87.211914 l -12.94434,4.511719 v 43.452147 h -10.7959 V 95.429687 Z M 236.81152,81.894531 V 55.952148 h 11.54785 v 25.942383 h 10.41993 v 10.903321 h -10.41993 v 34.160158 q 5.63965,-1.9336 11.17188,-4.02832 l 1.02051,10.36621 q -17.40235,7.94922 -35.71778,13.32031 l -3.75976,-11.44043 q 8.27148,-2.14844 14.50195,-4.08203 0.75195,-0.26855 1.23535,-0.37598 V 92.797852 H 223.16895 V 81.894531 Z m 145.3418,3.007813 q -0.37598,8.969726 -1.07422,15.791016 h 43.29102 q -0.80567,37.27539 -4.18946,48.39355 -1.71875,5.58594 -6.3916,7.73438 -3.65234,1.66504 -10.68847,1.66504 -7.41211,0 -16.81153,-1.12793 l -2.09472,-12.08496 q 12.62207,1.77246 17.77832,1.77246 4.35058,0 5.53222,-2.4707 2.84668,-6.01563 3.97461,-33.19336 h -31.95801 q -1.77246,9.66796 -4.99511,16.75781 -8.96973,19.60449 -29.97071,31.09863 l -8.48632,-9.45312 q 21.05468,-10.95704 27.82226,-28.73536 4.51172,-11.87011 5.85449,-36.147456 H 334.18945 V 73.891602 h 43.88184 V 55.952148 h 12.40723 v 17.939454 h 45.33203 V 84.902344 Z M 488.6084,75.664062 V 55.952148 h 12.08496 v 19.711914 h 39.85351 v 56.826168 h -11.87011 v -7.46582 h -27.9834 v 35.44922 H 488.6084 v -35.44922 h -27.28516 v 8.05664 H 449.45312 V 75.664062 Z M 461.32324,86.674805 V 114.01367 H 488.6084 V 86.674805 Z m 67.35352,27.338865 V 86.674805 h -27.9834 v 27.338865 z m 59.72656,-45.654295 h 22.98828 v 10.366211 h -7.57324 q -2.04102,8.217773 -5.47852,17.241211 h 14.34082 v 10.366213 h -59.9414 V 95.966797 h 13.15918 Q 563.75,85.654297 561.38672,78.725586 H 554.4043 V 68.359375 h 22.77343 V 55.952148 h 11.22559 z m -16.16699,10.366211 q 2.73926,8.00293 4.24316,17.241211 h 10.95703 l 0.53711,-1.503906 q 2.30957,-6.123047 4.29688,-13.911133 l 0.4834,-1.826172 z m 33.30078,36.630864 v 43.98925 h -11.01074 v -5.26367 H 571.1084 v 6.3916 h -11.33301 v -45.11718 z m -34.42871,9.88281 v 18.63769 h 23.41797 v -18.63769 z m 71.75781,-27.124026 q 6.3916,6.069336 10.15137,14.448246 3.70605,8.3789 3.70605,16.97265 0,7.94922 -2.9541,11.70899 -3.06152,3.9209 -10.09766,3.9209 -6.01562,0 -11.65527,-0.85938 l -2.63183,-11.44043 q 6.49902,1.18164 10.74218,1.18164 3.22266,0 4.02832,-1.5039 0.53711,-1.07422 0.53711,-4.29688 0,-13.2666 -7.94922,-22.88086 -2.09472,-2.52441 -5.26367,-5.424804 l 0.64453,-1.503906 q 5.58594,-12.62207 8.70118,-26.318359 h -13.75 V 160.47363 H 615.95703 V 61.000977 h 32.33399 l 5.96191,5.478515 q -5.42481,18.476563 -11.38672,31.635742 z"></path>
</svg>
