<svg xmlns="http://www.w3.org/2000/svg" id="svg1" version="1.1" height="200" width="1096">
  <defs id="defs1"></defs>
  <rect id="rect1" stroke="none" fill="none" height="200" width="1096" y="0" x="0"></rect>
  <path aria-label="本州南方沖" style="font-weight:bold;font-size:110px;font-family:'BIZ UDPGothic';fill:#ff0000" id="text1" d="M 64.775391,86.298828 Q 82.392578,111.97266 108.06641,127.3877 l -7.62696,10.36621 Q 74.174805,118.52539 60.478516,96.181641 V 128.94531 H 82.5 v 10.58106 H 60.693359 v 20.94726 H 48.608398 V 139.52637 H 28.037109 V 128.94531 H 48.823242 V 96.71875 q -13.21289,24.43848 -38.725586,43.66699 L 2.3095703,130.71777 Q 28.251953,113.53027 44.311523,86.298828 H 5.3710937 V 75.288086 H 48.500977 V 55.952148 h 12.299804 v 19.335938 h 43.828129 v 11.010742 z m 47.749019,33.569332 q 3.97461,-8.16406 5.80079,-18.53027 1.12793,-6.284179 1.87988,-16.220703 l 9.72168,1.611329 q -1.34278,24.653324 -7.94922,38.940434 z m 41.25,2.95411 q -2.79296,-19.81934 -7.25097,-33.784184 l 8.48633,-4.833984 q 5.37109,13.75 8.32519,32.924808 z m 10.47364,-60.371098 h 11.87011 V 152.9541 h -11.87011 z m 22.71972,59.082028 q -3.9209,-21.26953 -8.96972,-33.247067 l 8.96972,-4.833985 q 6.60645,15.844727 9.61426,31.904302 z m 10.58106,-62.841794 h 11.97754 V 160.47363 h -11.97754 z m -64.34571,0.751953 h 11.97754 v 48.608401 q 0,20.57129 -4.83398,33.24707 -3.59863,9.45312 -11.87012,18.6914 l -10.36621,-7.84179 q 15.09277,-15.73731 15.09277,-44.2041 z M 269.03809,120.5127 h -22.23633 v -8.8086 h 10.74219 q -2.417,-5.47851 -5.47852,-10.20508 l 9.66797,-3.544918 q 4.18945,7.036128 6.76758,13.749998 h 12.62207 q 3.16894,-6.49902 5.58593,-13.964842 l 10.7959,3.383792 q -2.73926,5.9082 -5.80078,10.58105 h 11.54785 v 8.8086 h -22.98828 v 7.84179 h 24.49219 v 9.13086 h -24.49219 v 20.30274 h -11.22558 v -20.30274 h -23.57911 v -9.13086 h 23.57911 z m 11.54785,-33.085942 h 40.71289 v 62.788082 q 0,5.53223 -2.9541,7.78809 -2.47071,1.93359 -8.3252,1.93359 -7.57324,0 -14.60937,-0.80566 l -2.63184,-10.7959 q 9.39941,1.12793 14.07227,1.12793 1.93359,0 2.25586,-0.9668 0.21484,-0.59082 0.21484,-1.66504 V 96.772461 H 240.67871 V 160.47363 H 228.70117 V 87.426758 h 40.01465 v -9.72168 h -45.97656 v -9.990234 h 45.97656 V 55.952148 h 11.87012 v 11.762696 h 46.62109 v 9.990234 h -46.62109 z m 101.56738,-2.524414 q -0.37598,8.969726 -1.07422,15.791016 h 43.29102 q -0.80567,37.27539 -4.18946,48.39355 -1.71875,5.58594 -6.3916,7.73438 -3.65234,1.66504 -10.68847,1.66504 -7.41211,0 -16.81153,-1.12793 l -2.09472,-12.08496 q 12.62207,1.77246 17.77832,1.77246 4.35058,0 5.53222,-2.4707 2.84668,-6.01563 3.97461,-33.19336 h -31.95801 q -1.77246,9.66796 -4.99511,16.75781 -8.96973,19.60449 -29.97071,31.09863 l -8.48632,-9.45312 q 21.05468,-10.95704 27.82226,-28.73536 4.51172,-11.87011 5.85449,-36.147456 H 334.18945 V 73.891602 h 43.88184 V 55.952148 h 12.40723 v 17.939454 h 45.33203 v 11.010742 z m 121.54785,-8.916016 v -20.03418 h 11.54785 v 20.03418 h 29.11133 v 48.608402 h -29.11133 v 35.8789 h -11.54785 v -35.8789 H 475.18066 V 75.986328 Z m -17.40234,10.688477 v 27.338865 h 17.40234 V 86.674805 Z m 46.62109,27.338865 V 86.674805 h -17.6709 v 27.338865 z m -68.75,-31.796873 q -6.55273,-9.13086 -17.34863,-17.456055 l 8.00293,-8.164062 q 10.74219,7.573242 18.1543,16.972656 z m -3.49121,27.607423 q -9.3457,-10.849611 -18.1543,-17.778322 l 8.27149,-8.271484 q 9.39941,6.606445 18.58398,17.080076 z m -16.7041,41.62598 q 10.3125,-14.66309 19.01367,-36.52344 l 9.56055,7.3584 q -7.3584,20.1416 -17.93946,37.91992 z"></path>
</svg>
