<svg xmlns="http://www.w3.org/2000/svg" id="svg1" version="1.1" height="200" width="990">
  <defs id="defs1"></defs>
  <rect id="rect1" stroke="none" fill="none" height="200" width="990" y="0" x="0"></rect>
  <path aria-label="オホーツク海南部" style="font-size:100px;font-family:'BIZ UDPGothic';fill:#ff0000" id="text1" d="m 56.591797,68.115234 h 8.007812 v 19.580078 h 23.779297 v 7.080079 H 64.599609 V 144.9707 q 0,4.63867 -1.953125,6.68946 -1.953125,2.09961 -7.177734,2.09961 -7.324219,0 -14.0625,-0.48829 l -1.904297,-7.91015 q 7.421875,0.68359 14.013672,0.68359 2.099609,0 2.636719,-0.78125 0.439453,-0.63476 0.439453,-2.29492 V 97.363281 Q 47.65625,111.62109 34.082031,124.31641 23.632812,134.13086 9.5703125,141.89453 l -5.078125,-6.83594 Q 18.310547,128.32031 31.152344,116.45508 42.285156,106.25 50.097656,94.775391 H 6.2988281 V 87.695312 H 56.591797 Z m 79.101563,0.04883 h 7.8125 v 17.919922 h 37.30469 v 6.982422 h -37.30469 v 61.914064 h -7.8125 V 93.066406 H 99.21875 v -6.982422 h 36.47461 z M 96.875,141.89453 q 10.74219,-14.0625 14.50195,-35.79101 l 7.61719,2.19726 q -4.49219,24.70703 -15.33203,39.11133 z m 79.49219,4.00391 q -10.44922,-15.57617 -18.11524,-38.81836 l 7.42188,-2.68555 q 6.49414,19.53125 17.82226,36.52344 z m 17.23633,-39.59961 h 84.27734 v 7.71484 h -84.27734 z m 106.59179,4.10156 Q 295.75195,92.138672 290.2832,79.980469 l 7.32422,-3.466797 q 6.34766,13.769531 10.35156,30.810548 z m 26.46485,-5.12695 Q 322.50977,87.988281 317.1875,75 l 7.51953,-3.125 q 5.12695,11.425781 9.57031,30.41992 z m -15.9668,41.11328 q 28.07617,-8.30078 38.52539,-28.71094 7.95898,-15.38086 10.98633,-44.677733 l 7.95898,2.197265 q -2.7832,23.242188 -7.4707,36.669918 -5.51758,15.67383 -16.60156,25.6836 -11.08399,10.00976 -28.90625,15.625 z m 138.57422,-65.185548 6.00586,5.078125 q -5.32227,29.833983 -19.97071,45.703123 -13.3789,14.55078 -38.7207,22.31445 l -4.58984,-7.03125 q 24.6582,-6.88476 37.74414,-21.63085 12.40234,-14.01368 16.74804,-37.35352 H 410.79102 Q 401.2207,103.22266 387.5,112.69531 l -5.71289,-5.71289 q 9.76562,-6.49414 16.35742,-14.306639 8.39844,-10.009765 13.13477,-23.779297 l 7.71484,2.197266 q -2.00195,5.566406 -4.19922,10.107422 z m 51.80664,9.61914 h 49.90234 q 0,2.636719 -0.68359,22.998048 h 10.20508 v 6.5918 h -10.44922 q -0.19531,6.25 -0.87891,17.91992 h 9.7168 v 6.49414 h -10.20508 q -0.63477,7.27539 -1.70898,9.66797 -2.14844,5.02929 -10.49805,5.02929 -4.73633,0 -11.08399,-0.78125 l -1.41601,-6.83593 q 7.32422,1.02539 12.06055,1.02539 2.73437,0 3.61328,-1.22071 0.78125,-1.12304 1.31836,-6.10351 l 0.0488,-0.78125 h -39.01367 l -0.14648,0.78125 -0.14649,0.68359 -0.83007,4.73633 -7.47071,-0.87891 q 2.63672,-14.50195 4.44336,-29.73632 h -9.76562 v -6.5918 h 10.54687 q 1.46485,-12.69531 2.44141,-22.998048 z m 27.58789,6.396485 q -0.19531,3.417973 -0.73242,11.572263 l -0.29297,5.0293 h 15.33203 q 0.0977,-2.09961 0.24414,-5.46875 0.0488,-0.87891 0.19531,-5.56641 0,-1.85547 0.14649,-5.566403 z m -7.12891,0 h -13.81836 q -0.43945,5.957033 -1.51367,16.601563 h 14.0625 q 0.29297,-3.71094 0.43945,-5.56641 0.3418,-3.61328 0.83008,-11.035153 z m -1.80664,23.193363 h -14.25781 q -0.78125,6.64062 -1.95313,14.59961 l -0.48828,3.32031 h 14.79493 l 0.29296,-2.2461 q 1.17188,-9.76562 1.61133,-15.67382 z m 7.32422,0 -0.48828,5.12695 q -0.83008,8.78906 -1.31836,12.79297 h 16.40625 q 0.48828,-6.34766 0.73242,-12.30469 l 0.29297,-5.61523 z m -19.0918,-46.630863 h 48.92579 v 6.689453 h -52.00196 q -4.0039,7.958984 -9.91211,14.941406 l -5.37109,-5.224609 q 9.47266,-10.546875 14.01367,-25.78125 l 7.4707,0.78125 q -1.5625,4.833984 -3.125,8.59375 z m -24.75586,12.5 q -6.44531,-8.447266 -14.40429,-15.38086 l 5.27344,-5.078125 q 7.51953,5.810547 14.69726,14.697266 z m -3.51562,25.732423 q -7.66602,-9.32617 -14.79492,-15.332033 l 5.41992,-5.371093 q 8.39844,6.787109 15.08789,14.794926 z m -12.69531,41.06445 q 8.88672,-12.64648 16.21093,-31.98242 l 6.39649,4.6875 q -7.37305,19.92187 -16.30859,33.00781 z M 616.50391,93.994141 h 37.06054 v 57.324219 q 0,3.90625 -1.61133,5.66406 -1.90429,2.05078 -8.00781,2.05078 -5.76172,0 -11.18164,-0.63476 l -1.70898,-7.42188 q 8.88672,0.92774 12.06054,0.92774 1.85547,0 2.29493,-0.87891 0.24414,-0.53711 0.24414,-1.61133 v -49.02343 h -65.47852 v 59.13085 h -7.91016 V 93.994141 h 36.52344 V 83.007812 h -43.31054 v -6.689453 h 43.31054 V 64.501953 h 7.71485 v 11.816406 h 43.94531 v 6.689453 h -43.94531 z m -7.61719,27.783199 h -22.2168 v -6.20117 h 11.86524 q -2.14844,-5.32226 -5.3711,-10.49804 l 6.73828,-2.5879 q 4.05274,7.12891 6.20118,13.08594 h 13.13476 Q 622.55859,109.52148 625,102.29492 l 7.42187,2.58789 q -2.39257,4.98047 -5.32226,9.96094 l -0.39063,0.73242 h 12.40235 v 6.20117 h -22.70508 v 9.13086 h 24.70703 v 6.29883 h -24.70703 v 19.92188 h -7.51953 v -19.92188 h -24.02344 v -6.29883 h 24.02344 z m 88.08594,-45.166012 h 21.82617 v 6.787109 h -7.03125 q -2.05078,9.13086 -5.61524,18.701173 h 14.45313 v 6.88477 h -55.12695 v -6.88477 h 13.7207 l -0.0977,-0.48828 q -2.05078,-10.009768 -4.39453,-17.187502 l -0.3418,-1.025391 h -7.08007 v -6.787109 h 22.21679 V 64.501953 h 7.47071 z m -15.13672,6.787109 q 2.58789,7.958985 4.73633,18.701173 h 12.1582 q 2.92969,-8.105469 5.32226,-18.701173 z m 31.83593,35.888673 v 39.30664 h -7.32421 v -5.51758 h -25.97657 v 6.39649 h -7.56836 v -40.18555 z m -33.30078,6.68945 v 20.3125 h 25.97657 v -20.3125 z m 65.42969,-22.70508 q 12.8418,13.57422 12.8418,29.44336 0,5.56641 -2.00196,8.39844 -2.4414,3.27149 -8.49609,3.27149 -5.81055,0 -10.69336,-0.6836 l -1.61133,-7.61719 q 6.25,1.02539 10.15625,1.02539 3.71094,0 4.39453,-2.49023 0.29297,-1.07422 0.29297,-3.51562 0,-13.72071 -12.64648,-26.70899 5.85937,-12.695311 9.52148,-26.708983 h -15.42968 v 81.787113 h -7.37305 V 70.507812 h 27.49023 l 4.39453,3.808594 q -5.37109,17.382813 -10.83984,28.955074 z"></path>
</svg>
