<svg xmlns="http://www.w3.org/2000/svg" id="svg1" version="1.1" height="200" width="990">
  <defs id="defs1"></defs>
  <rect id="rect1" stroke="none" fill="none" height="200" width="990" y="0" x="0"></rect>
  <path aria-label="沖縄本島北西沖" style="font-size:100px;font-family:'BIZ UDPGothic';fill:#ff0000" id="text1" d="M 58.691406,85.302734 V 64.501953 H 66.40625 V 85.302734 H 94.189453 V 125.78125 H 66.40625 v 33.69141 H 58.691406 V 125.78125 H 31.787109 V 85.302734 Z M 39.306641,92.285156 V 118.79883 H 58.691406 V 92.285156 Z M 86.572266,118.79883 V 92.285156 H 66.40625 V 118.79883 Z M 21.777344,86.621094 Q 15.234375,78.271484 6.4941406,71.09375 l 5.3222654,-5.273438 q 8.300781,6.201172 15.673828,14.990235 z m -3.66211,25.488286 Q 10.449219,103.27148 2.1972656,96.582031 l 5.4199219,-5.46875 Q 16.015625,97.314453 23.779297,106.10352 Z M 4.3945312,152.68555 Q 13.916016,139.99023 21.875,119.82422 l 6.298828,5.07812 q -7.324219,19.14063 -17.089844,33.69141 z M 115.38086,100.68359 Q 109.7168,91.894531 102.39258,84.277344 l 4.39453,-5.371094 q 1.5625,1.660156 3.07617,3.417969 l 0.39063,-0.585938 q 5.27343,-7.8125 9.71679,-17.236328 l 6.49414,3.515625 q -4.88281,8.691406 -12.69531,19.091797 3.22266,4.101562 5.76172,8.056641 5.22461,-6.933594 12.35352,-18.554688 l 5.81054,4.101563 q -8.98437,13.720703 -21.67968,28.417969 0.39062,-0.0488 0.92773,-0.0977 7.66602,-0.48828 14.55078,-1.26953 -1.80664,-4.98047 -3.02734,-7.56836 l 5.51757,-2.587888 q 4.10157,9.130858 6.49415,18.701168 l -5.90821,2.97852 q -0.73242,-3.75977 -1.36719,-6.00586 -5.66406,0.92773 -8.10546,1.2207 v 45.01953 h -7.08008 v -44.14062 q -6.15235,0.78125 -14.30664,1.31836 l -1.61133,-6.78711 3.02734,-0.14648 q 1.31836,-0.0977 2.97852,-0.19532 4.29687,-4.83398 7.27539,-8.88672 z m 55.12695,0.53711 v 6.29883 h 23.58399 v 32.27539 h -23.58399 v 7.8125 q 0,2.7832 1.5625,3.32031 1.5625,0.58594 8.54492,0.58594 5.56641,0 7.95899,-0.63476 2.24609,-0.58594 2.58789,-3.07618 0.3418,-2.4414 0.43945,-6.29882 l 6.78711,2.29492 q -0.0976,8.74023 -2.49023,11.47461 -1.75782,1.95312 -5.85938,2.49023 -4.05273,0.53711 -10.64453,0.53711 -10.44922,0 -13.08594,-1.5625 -2.58789,-1.51367 -2.58789,-6.15234 V 139.79492 H 141.01562 V 107.51953 H 163.7207 V 101.2207 H 143.99414 V 69.189453 h 47.11914 V 101.2207 Z M 163.7207,74.902344 h -13.13476 v 7.27539 h 13.13476 z m 6.78711,0 v 7.27539 h 13.76953 v -7.27539 z m -6.78711,12.695312 h -13.13476 v 8.007813 h 13.13476 z m 6.78711,0 v 8.007813 h 13.76953 v -8.007813 z m -6.78711,25.439454 h -15.72265 v 7.37305 h 15.72265 z m 6.78711,0 v 7.37305 h 16.60156 v -7.37305 z m -6.78711,12.89062 h -15.72265 v 8.1543 h 15.72265 z m 6.78711,0 v 8.1543 h 16.60156 v -8.1543 z m -68.11523,21.58204 q 3.27148,-10.49805 4.0039,-25.39063 l 6.78711,0.78125 q -0.92773,17.33398 -4.10156,27.88086 z m 30.07812,-2.29493 q -1.70898,-12.93945 -4.10156,-22.21679 l 5.81055,-1.80664 q 2.58789,8.25195 4.78515,21.28906 z M 256.39648,90.820312 q 7.12891,12.353518 17.96875,23.535158 10.49805,10.9375 23.4375,18.75 l -5.12695,6.88476 q -15.13672,-10.20507 -26.80664,-24.26757 -7.37305,-8.83789 -12.35352,-17.919926 v 34.423826 h 19.87305 v 7.08008 h -19.67773 v 20.21484 h -8.10547 V 139.30664 H 226.9043 v -7.08008 h 18.89648 V 98.4375 q -6.10351,13.13477 -17.23633,25.53711 -9.08203,10.20508 -20.65429,18.21289 l -5.32227,-6.39648 q 25.14648,-15.72266 40.33203,-44.970708 h -38.03711 v -7.324218 h 40.72266 V 64.501953 h 8.10547 v 18.994141 h 41.35742 v 7.324218 z m 111.6211,58.398438 h -53.8086 v 5.71289 h -7.71484 v -23.0957 h 7.71484 v 11.18164 h 19.0918 v -14.69727 h -19.0918 V 73.291016 h 23.97461 q 3.36914,-4.931641 5.41993,-9.179688 l 8.6914,2.001953 q -2.39258,3.515625 -5.46875,7.177735 h 35.25391 v 30.517574 h -59.96094 v 6.00586 h 75.3418 v 6.10352 h -75.3418 v 6.29883 h 70.94727 q -0.73243,23.87695 -3.32032,30.71289 -1.5625,4.19922 -5.51757,5.66406 -2.5879,0.92773 -6.83594,0.92773 -6.15235,0 -11.76758,-0.8789 l -1.61133,-7.22656 q 6.73828,1.02539 12.10938,1.02539 4.24804,0 5.37109,-1.95313 2.24609,-3.90625 3.36914,-22.16797 h -43.94531 v 14.69727 h 19.58008 v -11.18164 h 7.51953 z M 322.11914,79.296875 v 6.298828 h 52.09961 v -6.298828 z m 0,12.011719 v 6.689453 h 52.09961 V 91.308594 Z M 430.61523,132.8125 q -11.42578,6.25 -25.09765,11.81641 l -3.51563,-7.71485 q 17.33399,-6.15234 28.61328,-11.96289 V 98.535156 h -25.63476 v -7.421875 h 25.63476 V 65.527344 h 8.00782 v 93.212886 h -8.00782 z M 462.01172,97.949219 Q 475,91.845703 487.30469,81.591797 l 6.20117,6.103515 Q 478.36914,98.779297 462.01172,105.9082 v 38.1836 q 0,3.07617 2.24609,3.71093 1.80664,0.53711 10.35156,0.53711 8.05665,0 10.35157,-1.12304 1.66015,-0.83008 2.24609,-4.29688 0.68359,-4.44336 1.07422,-14.84375 l 7.91016,2.73438 q -0.58594,16.01562 -2.2461,19.9707 -1.61133,3.90625 -7.03125,4.88281 -4.63867,0.83008 -13.52539,0.83008 -12.10937,0 -15.42969,-1.5625 -3.95507,-1.85547 -3.95507,-7.91016 V 65.478516 h 8.00781 z m 71.58203,-4.248047 V 77.197266 H 502.7832 V 70.3125 h 94.38477 v 6.884766 h -33.88672 v 16.503906 h 27.7832 V 157.8125 h -7.8125 V 150 h -66.65039 v 7.8125 h -7.71484 V 93.701172 Z m 7.51953,0 h 14.64844 V 77.197266 h -14.64844 z m -7.56836,6.591798 h -16.94336 v 42.91992 h 66.65039 v -17.23633 h -20.16601 q -7.32422,0 -7.32422,-6.59179 v -19.0918 h -14.69727 q -0.43945,10.5957 -3.125,16.89453 -3.80859,8.93555 -14.9414,15.52734 l -4.98047,-5.61523 q 10.40039,-5.41992 13.52539,-14.50195 1.51367,-4.44336 2.00195,-12.30469 z m 29.73633,0 v 16.50391 q 0,1.51367 0.58594,1.95312 0.53711,0.43945 1.80664,0.43945 h 17.57812 V 100.29297 Z M 658.69141,85.302734 V 64.501953 h 7.71484 v 20.800781 h 27.7832 v 40.478516 h -27.7832 v 33.69141 h -7.71484 v -33.69141 h -26.9043 V 85.302734 Z m -19.38477,6.982422 v 26.513674 h 19.38477 V 92.285156 Z m 47.26563,26.513674 V 92.285156 H 666.40625 V 118.79883 Z M 621.77734,86.621094 q -6.54297,-8.34961 -15.2832,-15.527344 l 5.32227,-5.273438 q 8.30078,6.201172 15.67382,14.990235 z m -3.66211,25.488286 q -7.66601,-8.8379 -15.91796,-15.527349 l 5.41992,-5.46875 q 8.39843,6.201172 16.16211,14.990239 z m -13.7207,40.57617 q 9.52149,-12.69532 17.48047,-32.86133 l 6.29883,5.07812 q -7.32422,19.14063 -17.08985,33.69141 z"></path>
</svg>
