<svg xmlns="http://www.w3.org/2000/svg" id="svg1" version="1.1" height="200" width="990">
  <defs id="defs1"></defs>
  <rect id="rect1" stroke="none" fill="none" height="200" width="990" y="0" x="0"></rect>
  <path aria-label="胆振地方中東部" style="font-size:100px;font-family:'BIZ UDPGothic';fill:#ff0000" id="text1" d="m 37.5,69.580078 v 81.298832 q 0,3.90625 -1.611328,5.66406 -1.708985,1.85547 -6.152344,1.85547 -4.199219,0 -9.423828,-0.58594 l -1.416016,-7.32422 q 4.199219,0.83008 8.837891,0.83008 1.806641,0 2.246094,-0.63477 0.439453,-0.58593 0.439453,-2.19726 V 123.19336 H 15.722656 q -0.195312,10.10742 -1.464843,17.33398 -1.660157,9.66797 -6.7871099,18.65235 l -5.7617187,-5.85938 q 5.2734375,-9.32617 6.3964844,-21.77734 0.5859375,-6.15234 0.5859375,-15.42969 V 69.580078 Z M 15.771484,76.464844 V 92.675781 H 30.419922 V 76.464844 Z m 0,22.90039 V 116.60156 H 30.419922 V 99.365234 Z M 90.087891,70.3125 v 64.99023 H 48.193359 V 70.3125 Z M 55.517578,77.099609 V 98.779297 H 82.470703 V 77.099609 Z m 0,28.369141 v 22.94922 h 26.953125 v -22.94922 z m -14.794922,43.06641 h 56.982422 v 6.88476 H 40.722656 Z M 116.01563,83.59375 V 64.501953 h 7.51953 V 83.59375 h 10.20507 v 7.177734 h -10.20507 v 18.798826 q 5.17578,-1.95312 9.57031,-3.90625 l 0.92773,6.9336 q -5.71289,2.58789 -10.49804,4.54101 v 34.66797 q 0,4.24805 -1.85547,5.95703 -1.80664,1.66016 -6.15235,1.66016 -4.49218,0 -9.22851,-0.83008 l -1.26953,-7.4707 q 4.49218,0.78125 8.6914,0.78125 1.66016,0 2.00196,-0.78125 0.29297,-0.53711 0.29297,-1.70899 v -29.3457 q -6.49415,2.34375 -11.81641,4.00391 l -2.39258,-7.37305 q 8.30078,-2.39258 14.20899,-4.44336 V 90.771484 H 102.68555 V 83.59375 Z m 29.10156,-7.910156 v 29.492186 h 51.61133 v 6.68945 H 173.7793 q 1.2207,8.54493 4.54101,16.25977 5.3711,-5.17578 10.88867,-12.93945 l 5.90821,5.17578 q -6.25,6.93359 -14.11133,13.08594 5.81055,9.76562 17.08984,17.82226 l -4.6875,6.5918 q -6.68945,-5.07813 -10.88867,-9.81446 -12.25586,-13.81835 -15.47851,-36.18164 h -7.22657 v 36.96289 q 10.35157,-3.27148 15.67383,-5.37109 l 0.43945,6.68945 q -12.10937,5.32227 -27.19726,9.32618 l -2.83203,-7.12891 q 3.27148,-0.68359 6.73828,-1.5625 v -38.91602 h -7.56836 q 0,15.57618 -1.9043,26.5625 -1.85547,10.9375 -6.59179,20.36133 l -6.10352,-5.51758 q 4.73633,-9.32617 6.20117,-21.67968 1.12305,-9.27735 1.12305,-23.73047 V 68.896484 h 55.81055 v 6.78711 z m 4.49218,11.328125 h 38.76954 v 6.689453 h -38.76954 z m 99.60938,16.210941 v 40.86914 q 0,4.05273 2.39258,4.98047 2.58789,0.97656 16.45508,0.97656 13.42773,0 17.38281,-0.92774 2.7832,-0.68359 3.56445,-3.22265 1.2207,-4.00391 1.26953,-12.40235 l 7.51953,2.78321 q -0.68359,13.23242 -3.51562,16.79687 -2.24609,2.92969 -7.27539,3.4668 -7.66602,0.78125 -20.75195,0.78125 -12.45118,0 -16.74805,-0.83008 -5.3711,-1.07422 -6.83594,-4.88281 -0.78125,-2.09961 -0.78125,-5.51758 v -40.38086 l -10.49805,3.56445 -1.90429,-6.98242 12.40234,-4.150389 v -26.5625 h 7.32422 v 24.072266 l 12.8418,-4.345703 V 64.501953 h 7.32422 v 24.365234 l 18.01757,-6.054687 4.39453,2.392578 v 35.986332 q 0,3.51562 -1.66015,5.32226 -1.95313,2.09961 -6.83594,2.09961 -3.95508,0 -7.71484,-0.53711 l -1.26953,-6.98242 q 3.71093,0.68359 6.93359,0.68359 2.44141,0 2.97852,-1.07421 0.39062,-0.73243 0.39062,-2.29493 V 91.113281 l -15.23437,5.175781 v 39.794918 h -7.32422 V 98.779297 Z M 216.50391,88.916016 V 65.136719 h 7.71484 v 23.779297 h 10.79102 v 7.177734 h -10.79102 v 34.96094 q 5.12695,-1.75782 11.71875,-4.44336 l 0.78125,6.88476 q -14.94141,6.88477 -32.03125,12.10938 l -2.7832,-7.61719 q 6.78711,-1.85547 14.59961,-4.3457 V 96.09375 h -13.28125 v -7.177734 z m 128.95507,0.04883 q 0,7.324218 -0.92773,17.041016 h 39.4043 q -0.6836,32.91016 -3.75977,43.60351 -1.26953,4.49219 -4.83398,6.34766 -3.02735,1.5625 -9.08203,1.5625 -8.39844,0 -15.33204,-0.92773 l -1.31836,-8.00782 q 10.15625,1.31836 16.3086,1.31836 4.05273,0 5.32226,-1.70898 1.07422,-1.46484 2.14844,-8.49609 1.5625,-9.96094 2.14844,-26.70899 h -31.93359 q -1.80665,11.37695 -5.76172,19.28711 -7.91016,15.91797 -26.02539,25.73242 l -5.61524,-6.29883 q 19.38477,-10.15625 25.58594,-26.36718 5.17578,-13.57422 5.56641,-36.376956 h -33.54493 v -7.177735 h 41.69922 V 64.501953 h 8.00781 v 17.285156 h 42.67579 v 7.177735 z M 445.70312,83.59375 V 64.501953 h 7.91016 V 83.59375 h 37.25586 v 49.70703 h -7.91016 v -6.98242 h -29.3457 v 33.20312 h -7.91016 v -33.20312 h -28.80859 v 7.51953 h -8.00781 V 83.59375 Z m -28.80859,7.324219 v 28.076171 h 28.80859 V 90.917969 Z m 66.06445,28.076171 V 90.917969 h -29.3457 v 28.076171 z m 78.36914,7.61719 q 14.01368,12.84179 36.76758,20.50781 l -4.73633,6.98242 q -10.54687,-3.95508 -18.31054,-8.54492 -12.10938,-7.22656 -21.53321,-18.06641 v 32.03125 h -7.71484 v -31.83593 q -5.76172,7.51953 -14.30664,14.20898 -10.88867,8.49609 -24.31641,13.81836 l -4.78515,-6.29883 q 21.97265,-8.00781 35.79101,-22.80273 H 511.57227 V 87.792969 h 34.22851 v -8.007813 h -41.74805 v -6.591797 h 41.74805 v -8.691406 h 7.71484 v 8.691406 h 42.38282 v 6.591797 h -42.38282 v 8.007813 h 34.76563 V 126.61133 Z M 545.80078,94.091797 h -26.41601 v 9.814453 h 26.41601 z m 7.71484,0 v 9.814453 h 27.05079 v -9.814453 z m -7.71484,15.917973 h -26.41601 v 10.30273 h 26.41601 z m 7.71484,0 v 10.30273 h 27.05079 v -10.30273 z m 80.46875,-33.398442 h 21.82618 v 6.787109 h -7.03125 q -2.05078,9.13086 -5.61524,18.701173 h 14.45313 v 6.88477 h -55.12696 v -6.88477 h 13.72071 l -0.0977,-0.48828 Q 614.0625,91.601562 611.71875,84.423828 l -0.3418,-1.025391 h -7.08008 v -6.787109 h 22.2168 V 64.501953 h 7.4707 z m -15.13671,6.787109 q 2.58789,7.958985 4.73632,18.701173 h 12.15821 q 2.92968,-8.105469 5.32226,-18.701173 z m 31.83593,35.888673 v 39.30664 h -7.32422 v -5.51758 h -25.97656 v 6.39649 h -7.56836 v -40.18555 z m -33.30078,6.68945 v 20.3125 h 25.97656 v -20.3125 z m 65.42969,-22.70508 q 12.8418,13.57422 12.8418,29.44336 0,5.56641 -2.00196,8.39844 -2.4414,3.27149 -8.49609,3.27149 -5.81055,0 -10.69336,-0.6836 l -1.61133,-7.61719 q 6.25,1.02539 10.15625,1.02539 3.71094,0 4.39453,-2.49023 0.29297,-1.07422 0.29297,-3.51562 0,-13.72071 -12.64648,-26.70899 5.85937,-12.695311 9.52148,-26.708983 h -15.42969 v 81.787113 h -7.37304 V 70.507812 h 27.49023 l 4.39453,3.808594 q -5.37109,17.382813 -10.83984,28.955074 z"></path>
</svg>
