<svg xmlns="http://www.w3.org/2000/svg" id="svg1" version="1.1" height="200" width="990">
  <defs id="defs1"></defs>
  <rect id="rect1" stroke="none" fill="none" height="200" width="990" y="0" x="0"></rect>
  <path aria-label="シベリア付近" style="font-size:100px;font-family:'BIZ UDPGothic';fill:#ff0000" id="text1" d="M 40.820312,88.28125 Q 28.662109,82.617187 14.111328,78.417969 l 2.490234,-7.03125 q 15.039063,3.662109 26.806641,9.521484 z M 30.517578,113.18359 Q 19.873047,108.44727 4.0039062,103.32031 l 2.9785157,-7.324216 q 14.5996091,4.052736 26.5136721,9.814456 z m -20.117187,30.71289 q 17.919921,-1.46484 28.759765,-5.22461 18.408203,-6.44531 28.515625,-23.38867 6.78711,-11.32812 10.107422,-28.271481 l 7.128906,4.296875 q -4.394531,20.068356 -12.5,32.226566 -9.863281,14.74609 -27.34375,21.67968 -12.304687,4.83399 -32.373046,6.5918 z M 92.919922,131.20117 Q 110.83984,110.35156 122.50977,82.177734 h 8.78906 q 15.96679,27.539066 47.70508,57.910156 l -5.07813,7.03125 Q 159.76562,133.74023 146.28906,117.13867 135.40039,103.71094 127.34375,90.917969 H 126.9043 Q 115.47852,117.62695 99.121094,136.91406 Z M 156.93359,96.484375 q -3.51562,-8.837891 -8.83789,-16.308594 l 6.00586,-2.294922 q 5.81055,8.203125 8.93555,16.113282 z m 12.59766,-4.394531 q -3.75977,-9.326172 -8.69141,-16.40625 l 5.76172,-2.09961 q 5.07813,6.445313 8.83789,15.820313 z m 27.09961,-22.070313 h 8.20312 v 51.464849 h -8.20312 z m 50.09766,-1.02539 h 8.20312 v 33.496089 q 0,16.99219 -2.34375,25.04883 -2.49023,8.64258 -7.42187,13.81836 -8.4961,8.88672 -26.31836,13.33008 l -4.29688,-7.17773 q 20.70313,-4.54102 26.9043,-14.99024 3.95508,-6.78711 4.83398,-16.94336 0.43946,-4.88281 0.43946,-12.98828 z m 25.48828,7.421875 h 76.12304 l 5.27344,4.492187 q -4.19922,16.308594 -15.47851,25.537107 -6.20118,5.07813 -15.52735,8.64258 l -4.6875,-6.00586 q 13.91602,-4.54101 21.58203,-14.941405 3.51563,-4.833984 5.0293,-10.644531 H 272.2168 Z m 32.51953,18.164062 h 7.86133 v 8.203122 q 0,19.18946 -3.75977,29.00391 -5.0293,13.03711 -20.70312,21.19141 l -5.81055,-5.95704 q 10.74219,-5.17578 15.9668,-13.23242 3.56445,-5.41992 4.78515,-11.03515 1.66016,-7.66602 1.66016,-19.97071 z m 78.75976,-4.394531 v 69.335933 h -7.71484 v -55.37109 q -0.19531,0.29297 -0.48828,0.73242 -4.39453,7.17774 -10.88867,14.69727 l -4.10157,-7.37305 q 9.76563,-11.32812 16.35743,-25.195311 4.73632,-9.91211 8.83789,-22.900391 l 7.61718,2.099609 q -4.49218,13.427735 -9.61914,23.97461 z m 55.22461,-2.001953 h 16.60157 v 7.177734 H 438.7207 v 54.541012 q 0,5.17578 -2.49023,7.17774 -2.09961,1.61133 -7.76367,1.61133 -7.91016,0 -14.7461,-0.6836 L 412.10937,150 q 8.44727,1.2207 15.625,1.2207 2.14844,0 2.68555,-0.78125 0.39063,-0.63476 0.39063,-2.4414 V 95.361328 h -42.72461 v -7.177734 h 42.72461 V 65.283203 h 7.91015 z m -28.41797,45.410156 q -5.71289,-14.30664 -13.81836,-26.07422 l 6.49415,-4.19922 q 8.39843,12.35352 14.20898,25.87891 z m 74.21875,4.73633 q 4.29688,4.44336 9.81446,7.22656 8.59375,4.3457 23.58398,4.3457 h 38.37891 q -1.41602,2.88086 -2.49024,6.88477 h -36.08398 q -16.35742,0 -25.63477,-4.58984 -5.5664,-2.78321 -10.74218,-8.20313 -8.34961,9.57031 -16.25977,15.47852 l -4.58984,-7.08008 q 7.95898,-4.98047 16.40625,-12.5 v -25.6836 h -16.21094 v -6.7871 h 23.82812 z m 14.45313,-64.11133 q 1.70898,-0.146484 3.71094,-0.292969 21.92382,-1.80664 39.99023,-7.617187 l 5.61524,6.103515 q -17.91993,5.371094 -41.60157,7.763672 v 14.941406 h 47.41211 v 6.884763 h -17.91992 v 43.40821 h -7.8125 v -43.40821 h -21.67969 q 0,13.52539 -1.17187,22.07032 -1.5625,11.4746 -6.83594,20.21484 l -6.49414,-5.17578 q 4.78516,-8.30078 6.00586,-19.33594 0.78125,-7.27539 0.78125,-20.654296 z M 480.61523,88.916016 Q 473.0957,78.955078 465.08789,71.777344 l 5.51758,-4.6875 q 8.20312,6.689453 15.9668,16.308593 z"></path>
</svg>
