<svg xmlns="http://www.w3.org/2000/svg" id="svg1" version="1.1" height="200" width="990">
  <defs id="defs1"></defs>
  <rect id="rect1" stroke="none" fill="none" height="200" width="990" y="0" x="0"></rect>
  <path aria-label="伊豆大島近海" style="font-size:100px;font-family:'BIZ UDPGothic';fill:#ff0000" id="text1" d="m 88.427734,92.675781 h 9.179688 v 6.591797 H 88.427734 V 122.26563 H 63.330078 q -0.732422,11.62109 -4.492187,19.09179 -6.103516,12.06055 -18.701172,18.60352 l -5.615235,-5.71289 q 11.621094,-5.95703 16.748047,-15.52735 3.271485,-6.05468 4.296875,-16.45507 H 33.105469 v -6.68946 H 55.810547 V 99.267578 H 26.220703 V 92.675781 H 55.810547 V 77.001953 H 34.619141 v -6.787109 h 53.808593 z m -7.617187,0 V 77.001953 H 63.525391 v 15.673828 z m 0,6.591797 H 63.525391 V 115.57617 H 80.810547 Z M 22.607422,88.427734 V 159.52148 H 14.892578 V 104.6875 Q 10.9375,111.81641 5.5175781,119.0918 L 1.5136719,111.81641 Q 10.498047,99.804687 16.259766,84.619141 19.53125,76.074219 22.802734,64.013672 l 7.519532,1.904297 Q 26.513672,78.90625 22.607422,88.427734 Z M 184.27734,90.722656 V 122.41211 H 115.57617 V 90.722656 Z m -60.5957,6.494141 v 18.701173 h 52.49023 V 97.216797 Z m 35.88867,50.683593 q 6.00586,-11.47461 9.7168,-24.31641 l 8.39844,2.92969 q -4.58985,11.96289 -10.00977,21.38672 h 29.83399 v 6.88477 h -95.01954 v -6.88477 z M 105.81055,70.703125 h 88.28125 v 6.787109 h -88.28125 z m 25.19531,76.318355 q -3.02734,-10.30273 -8.30078,-19.82421 l 7.4707,-2.97852 q 5.27344,9.32617 8.59375,19.48242 z M 255.0293,97.998047 q 4.49218,16.357423 16.65039,31.201173 11.13281,13.52539 25.73242,21.58203 l -5.07813,7.42187 q -16.94336,-10.15625 -28.17382,-25.39062 -8.05664,-10.88867 -13.23243,-25.19531 -8.30078,36.18164 -41.74804,51.07422 l -5.17578,-6.5918 q 19.72656,-8.10547 30.9082,-25.29297 8.78906,-13.57422 10.40039,-28.808593 h -40.42969 v -7.617188 h 40.72266 V 65.478516 h 8.10547 v 24.902343 h 41.40625 v 7.617188 z m 112.98828,51.220703 h -53.8086 v 5.71289 h -7.71484 v -23.0957 h 7.71484 v 11.18164 h 19.0918 v -14.69727 h -19.0918 V 73.291016 h 23.97461 q 3.36914,-4.931641 5.41993,-9.179688 l 8.6914,2.001953 q -2.39258,3.515625 -5.46875,7.177735 h 35.25391 v 30.517574 h -59.96094 v 6.00586 h 75.3418 v 6.10352 h -75.3418 v 6.29883 h 70.94727 q -0.73243,23.87695 -3.32032,30.71289 -1.5625,4.19922 -5.51757,5.66406 -2.5879,0.92773 -6.83594,0.92773 -6.15235,0 -11.76758,-0.8789 l -1.61133,-7.22656 q 6.73828,1.02539 12.10938,1.02539 4.24804,0 5.37109,-1.95313 2.24609,-3.90625 3.36914,-22.16797 h -43.94531 v 14.69727 h 19.58008 v -11.18164 h 7.51953 z M 322.11914,79.296875 v 6.298828 h 52.09961 v -6.298828 z m 0,12.011719 v 6.689453 h 52.09961 v -6.689453 z m 104.39453,47.021486 q 4.29688,4.44336 9.81445,7.22656 8.59375,4.3457 23.58399,4.3457 h 38.37891 q -1.41602,2.88086 -2.49024,6.88477 H 459.7168 q -16.35743,0 -25.63477,-4.58984 -5.56641,-2.78321 -10.74219,-8.20313 -8.34961,9.57031 -16.25976,15.47852 l -4.58985,-7.08008 q 7.95899,-4.98047 16.40625,-12.5 v -25.6836 h -16.21093 v -6.7871 h 23.82812 z M 440.9668,74.21875 q 1.70898,-0.146484 3.71093,-0.292969 21.92383,-1.80664 39.99024,-7.617187 l 5.61523,6.103515 q -17.91992,5.371094 -41.60156,7.763672 v 14.941406 h 47.41211 v 6.884763 h -17.91992 v 43.40821 h -7.8125 v -43.40821 h -21.67969 q 0,13.52539 -1.17187,22.07032 -1.5625,11.4746 -6.83594,20.21484 l -6.49414,-5.17578 q 4.78515,-8.30078 6.00586,-19.33594 0.78125,-7.27539 0.78125,-20.654296 z m -18.35938,14.697266 q -7.51953,-9.960938 -15.52734,-17.138672 l 5.51758,-4.6875 q 8.20312,6.689453 15.96679,16.308593 z m 115.47852,1.904296 h 49.90234 q 0,2.636719 -0.68359,22.998048 h 10.20508 v 6.5918 h -10.44922 q -0.19532,6.25 -0.87891,17.91992 h 9.7168 v 6.49414 h -10.20508 q -0.63477,7.27539 -1.70899,9.66797 -2.14843,5.02929 -10.49804,5.02929 -4.73633,0 -11.08399,-0.78125 l -1.41601,-6.83593 q 7.32422,1.02539 12.06054,1.02539 2.73438,0 3.61329,-1.22071 0.78125,-1.12304 1.31836,-6.10351 l 0.0488,-0.78125 h -39.01367 l -0.14648,0.78125 -0.14649,0.68359 -0.83008,4.73633 -7.4707,-0.87891 q 2.63672,-14.50195 4.44336,-29.73632 h -9.76562 v -6.5918 h 10.54687 q 1.46484,-12.69531 2.44141,-22.998048 z m 27.58789,6.396485 q -0.19531,3.417973 -0.73242,11.572263 l -0.29297,5.0293 h 15.33203 q 0.0977,-2.09961 0.24414,-5.46875 0.0488,-0.87891 0.19531,-5.56641 0,-1.85547 0.14649,-5.566403 z m -7.12891,0 h -13.81836 q -0.43945,5.957033 -1.51367,16.601563 h 14.0625 q 0.29297,-3.71094 0.43945,-5.56641 0.3418,-3.61328 0.83008,-11.035153 z m -1.80664,23.193363 h -14.25781 q -0.78125,6.64062 -1.95313,14.59961 l -0.48828,3.32031 h 14.79492 l 0.29297,-2.2461 q 1.17188,-9.76562 1.61133,-15.67382 z m 7.32422,0 -0.48828,5.12695 q -0.83008,8.78906 -1.31836,12.79297 h 16.40625 q 0.48828,-6.34766 0.73242,-12.30469 l 0.29297,-5.61523 z M 544.9707,73.779297 h 48.92578 v 6.689453 h -52.00195 q -4.00391,7.958984 -9.91211,14.941406 l -5.37109,-5.224609 q 9.47265,-10.546875 14.01367,-25.78125 l 7.4707,0.78125 q -1.5625,4.833984 -3.125,8.59375 z m -24.75586,12.5 q -6.44531,-8.447266 -14.40429,-15.38086 l 5.27343,-5.078125 q 7.51954,5.810547 14.69727,14.697266 z m -3.51562,25.732423 Q 509.0332,102.68555 501.9043,96.679687 l 5.41992,-5.371093 q 8.39844,6.787109 15.08789,14.794926 z m -12.69531,41.06445 q 8.88671,-12.64648 16.21093,-31.98242 l 6.39649,4.6875 q -7.37305,19.92187 -16.3086,33.00781 z"></path>
</svg>
