<svg xmlns="http://www.w3.org/2000/svg" id="svg1" version="1.1" height="200" width="990">
  <defs id="defs1"></defs>
  <rect id="rect1" stroke="none" fill="none" height="200" width="990" y="0" x="0"></rect>
  <path aria-label="山形県庄内地方" style="font-size:100px;font-family:'BIZ UDPGothic';fill:#ff0000" id="text1" d="M 53.613281,141.89453 H 81.787109 V 85.302734 h 8.105469 v 73.388676 h -8.105469 v -9.17969 H 18.115234 v 9.17969 H 10.009766 V 85.302734 h 8.105468 V 141.89453 H 45.605469 V 65.478516 h 8.007812 z M 145.99609,76.464844 v 27.832036 h 12.98828 v 6.98242 h -12.98828 v 48.19336 h -7.61718 V 111.2793 h -14.69727 q -0.0488,16.55273 -2.63672,27.19726 -2.7832,11.47461 -10.69336,20.70313 l -6.49414,-4.98047 q 6.05469,-6.73828 8.64258,-14.30664 3.56445,-10.40039 3.56445,-28.61328 h -13.47656 v -6.98242 h 13.47656 V 76.464844 h -11.52343 v -6.884766 h 52.53906 v 6.884766 z m -7.61718,0 h -14.69727 v 27.832036 h 14.69727 z m 14.40429,74.853516 q 11.66992,-4.6875 20.45899,-11.71875 9.81445,-7.8125 17.62695,-19.77539 l 6.00586,4.88281 q -14.35547,22.2168 -39.30664,32.91016 z m 3.125,-57.031251 q 19.58008,-9.667968 30.66407,-26.904297 l 6.29882,4.003907 Q 181.00586,89.550781 160.40039,100 Z m 0.78125,26.513671 q 20.11719,-8.83789 32.08008,-27.197264 l 6.10352,4.6875 q -13.1836,19.140624 -33.39844,28.515624 z M 282.86133,67.578125 V 114.4043 H 225.78125 V 67.578125 Z m -49.36524,6.005859 v 7.714844 h 41.55274 v -7.714844 z m 0,13.330078 v 7.763672 h 41.55274 v -7.763672 z m 0,13.476568 v 8.30078 h 41.55274 v -8.30078 z M 214.4043,122.2168 h 83.05664 v 6.49414 h -41.99219 v 30.81054 h -7.91016 V 128.71094 H 206.5918 V 74.267578 h 7.8125 z m -9.22852,29.6875 q 12.79297,-6.15235 23.0957,-19.28711 l 6.5918,3.66211 q -10.40039,13.62304 -24.07226,21.72851 z m 84.17969,4.10156 q -10.25391,-11.18164 -23.29102,-19.82422 l 6.00586,-4.49219 q 11.76758,7.37305 23.68164,18.79883 z m 70.36133,-8.39844 h 37.06054 v 6.98242 h -79.49218 v -6.98242 h 34.42382 v -31.39648 h -27.34375 v -6.68946 h 27.34375 V 90.429687 h 8.00782 v 19.091793 h 28.75976 v 6.68946 H 359.7168 Z m -4.39453,-69.384764 h 38.76953 v 6.982422 h -76.17188 v 19.921872 q 0,21.09375 -2.39258,33.98438 -1.95312,10.54687 -6.73828,19.48242 l -6.39648,-6.00586 q 4.73633,-8.98437 6.25,-21.33789 1.26953,-10.40039 1.26953,-26.36719 V 78.222656 h 37.40234 V 64.501953 h 8.00782 z m 90.38085,2.783203 V 64.501953 h 7.91016 v 16.503906 h 37.59766 v 67.675781 q 0,4.98047 -2.44141,7.03125 -2.24609,1.9043 -7.95898,1.9043 -8.74024,0 -17.38282,-0.63477 l -1.51367,-7.76367 Q 472.94922,150 479.44336,150 q 2.83203,0 3.4668,-1.26953 0.39062,-0.78125 0.39062,-2.34375 V 88.183594 h -29.73633 q -0.24414,6.640625 -1.70898,12.695316 l 0.83008,0.63476 q 15.82031,12.35352 27.83203,26.17188 l -5.90821,5.81054 q -9.61914,-11.62109 -24.90234,-25.83007 -6.49414,16.69921 -26.02539,28.22265 l -4.78516,-6.29883 q 18.65235,-10.15625 24.21875,-27.14843 2.2461,-6.738285 2.53907,-14.257816 h -29.05274 v 70.507816 h -8.00781 V 81.005859 Z m 103.51563,22.216801 v 40.86914 q 0,4.05273 2.39258,4.98047 2.58789,0.97656 16.45508,0.97656 13.42773,0 17.38281,-0.92774 2.7832,-0.68359 3.56445,-3.22265 1.2207,-4.00391 1.26953,-12.40235 l 7.51953,2.78321 q -0.68359,13.23242 -3.51562,16.79687 -2.24609,2.92969 -7.27539,3.4668 -7.66602,0.78125 -20.75195,0.78125 -12.45118,0 -16.74805,-0.83008 -5.3711,-1.07422 -6.83594,-4.88281 -0.78125,-2.09961 -0.78125,-5.51758 v -40.38086 l -10.49805,3.56445 -1.90429,-6.98242 12.40234,-4.150389 v -26.5625 h 7.32422 v 24.072266 l 12.8418,-4.345703 V 64.501953 h 7.32422 v 24.365234 l 18.01757,-6.054687 4.39453,2.392578 v 35.986332 q 0,3.51562 -1.66015,5.32226 -1.95313,2.09961 -6.83594,2.09961 -3.95508,0 -7.71484,-0.53711 l -1.26953,-6.98242 q 3.71093,0.68359 6.93359,0.68359 2.44141,0 2.97852,-1.07421 0.39062,-0.73243 0.39062,-2.29493 V 91.113281 l -15.23437,5.175781 v 39.794918 h -7.32422 V 98.779297 Z M 516.50391,88.916016 V 65.136719 h 7.71484 v 23.779297 h 10.79102 v 7.177734 h -10.79102 v 34.96094 q 5.12695,-1.75782 11.71875,-4.44336 l 0.78125,6.88476 q -14.94141,6.88477 -32.03125,12.10938 l -2.7832,-7.61719 q 6.78711,-1.85547 14.59961,-4.3457 V 96.09375 h -13.28125 v -7.177734 z m 128.95507,0.04883 q 0,7.324218 -0.92773,17.041016 h 39.4043 q -0.6836,32.91016 -3.75977,43.60351 -1.26953,4.49219 -4.83398,6.34766 -3.02735,1.5625 -9.08203,1.5625 -8.39844,0 -15.33204,-0.92773 l -1.31836,-8.00782 q 10.15625,1.31836 16.3086,1.31836 4.05273,0 5.32226,-1.70898 1.07422,-1.46484 2.14844,-8.49609 1.5625,-9.96094 2.14844,-26.70899 h -31.93359 q -1.80665,11.37695 -5.76172,19.28711 -7.91016,15.91797 -26.02539,25.73242 l -5.61524,-6.29883 q 19.38477,-10.15625 25.58594,-26.36718 5.17578,-13.57422 5.56641,-36.376956 h -33.54493 v -7.177735 h 41.69922 V 64.501953 h 8.00781 v 17.285156 h 42.67579 v 7.177735 z"></path>
</svg>
