<svg xmlns="http://www.w3.org/2000/svg" id="svg1" version="1.1" height="200" width="990">
  <defs id="defs1"></defs>
  <rect id="rect1" stroke="none" fill="none" height="200" width="990" y="0" x="0"></rect>
  <path aria-label="トカラ列島近海" style="font-size:100px;font-family:'BIZ UDPGothic';fill:#ff0000" id="text1" d="m 14.990234,68.896484 h 8.203125 V 96.679687 Q 53.90625,106.20117 71.09375,114.99023 l -4.101563,7.42188 Q 47.607422,112.5 23.193359,104.49219 v 50 h -8.203125 z m 68.945313,18.798828 h 30.322263 q 0.48828,-7.861328 0.6836,-19.824218 h 8.00781 q -0.0488,8.935547 -0.58594,19.824218 h 35.5957 q -0.19531,33.447268 -2.63671,51.318358 -1.0254,7.32422 -3.27149,10.10742 -2.92969,3.66211 -11.66992,3.66211 -5.17578,0 -12.30469,-0.92773 l -1.51367,-7.86133 q 7.22656,1.07422 13.86719,1.07422 3.71093,0 4.78515,-1.26953 1.07422,-1.31836 1.9043,-7.76367 2.19727,-17.43164 2.63672,-41.259769 h -27.97852 q -2.14843,21.874999 -8.6914,33.789059 -5.0293,9.13086 -14.355471,17.08985 -4.736328,4.05273 -10.253907,7.22656 l -5.419921,-6.20117 q 12.597656,-7.08008 20.605469,-18.40821 7.71484,-10.88867 10.10742,-33.496089 H 83.935547 Z M 183.64258,73.095703 h 61.8164 v 7.080078 h -61.8164 z m -6.98242,23.681641 h 78.07617 q -2.14844,21.435546 -9.7168,33.349606 -6.73828,10.54688 -18.79883,16.3086 -10.88867,5.17578 -27.14843,7.71484 l -3.61329,-7.17773 q 23.82813,-3.02735 35.10743,-12.74414 12.10937,-10.44922 14.50195,-30.3711 h -68.4082 z m 120.50781,30.419926 q -8.30078,-7.37305 -16.50391,-12.64649 -4.10156,6.5918 -9.61914,12.74414 l -4.98047,-6.00586 q 15.625,-17.77343 20.3125,-43.359373 l 0.0977,-0.732421 H 268.75 v -7.080079 h 51.12305 v 7.080079 h -25.73243 q -1.12304,6.738281 -2.97851,13.183593 H 311.2793 L 315.2832,93.75 q -3.51562,24.12109 -12.35351,39.11133 -8.88672,15.08789 -27.58789,26.02539 l -5.3711,-6.20117 q 18.06641,-9.86328 27.19727,-25.48828 z m 3.51562,-7.03125 q 4.00391,-9.27735 6.29883,-23.095708 h -17.96875 q -2.29492,6.249998 -5.07812,11.669918 9.81445,5.61524 16.74804,11.42579 z m 24.56055,-41.357426 h 7.71484 v 57.373046 h -7.71484 z m 22.31445,-10.302735 h 7.8125 v 79.980471 q 0,5.37109 -2.58789,7.56836 -2.34375,1.95312 -8.25195,1.95312 -5.56641,0 -14.79492,-0.68359 l -1.66016,-8.10547 q 9.66797,0.97656 15.47852,0.97656 3.07617,0 3.66211,-1.5625 0.34179,-0.83008 0.34179,-2.34375 z m 83.44727,80.712891 h -53.80859 v 5.71289 h -7.71485 v -23.0957 h 7.71485 v 11.18164 h 19.09179 V 128.32031 H 377.19727 V 73.291016 h 23.9746 q 3.36915,-4.931641 5.41993,-9.179688 l 8.6914,2.001953 q -2.39258,3.515625 -5.46875,7.177735 h 35.25391 v 30.517574 h -59.96094 v 6.00586 h 75.3418 v 6.10352 h -75.3418 v 6.29883 h 70.94727 q -0.73242,23.87695 -3.32032,30.71289 -1.5625,4.19922 -5.51757,5.66406 -2.58789,0.92773 -6.83594,0.92773 -6.15234,0 -11.76758,-0.8789 l -1.61133,-7.22656 q 6.73828,1.02539 12.10938,1.02539 4.24804,0 5.37109,-1.95313 2.2461,-3.90625 3.36914,-22.16797 h -43.94531 v 14.69727 h 19.58008 v -11.18164 h 7.51953 z M 385.10742,79.296875 v 6.298828 h 52.09961 v -6.298828 z m 0,12.011719 v 6.689453 h 52.09961 v -6.689453 z m 104.39453,47.021486 q 4.29688,4.44336 9.81446,7.22656 8.59375,4.3457 23.58398,4.3457 h 38.37891 q -1.41602,2.88086 -2.49024,6.88477 h -36.08398 q -16.35742,0 -25.63477,-4.58984 -5.5664,-2.78321 -10.74219,-8.20313 -8.3496,9.57031 -16.25976,15.47852 l -4.58984,-7.08008 q 7.95898,-4.98047 16.40625,-12.5 v -25.6836 h -16.21094 v -6.7871 h 23.82812 z m 14.45313,-64.11133 q 1.70898,-0.146484 3.71094,-0.292969 21.92382,-1.80664 39.99023,-7.617187 l 5.61523,6.103515 q -17.91992,5.371094 -41.60156,7.763672 v 14.941406 h 47.41211 v 6.884763 h -17.91992 v 43.40821 h -7.8125 v -43.40821 h -21.67969 q 0,13.52539 -1.17187,22.07032 -1.5625,11.4746 -6.83594,20.21484 l -6.49414,-5.17578 q 4.78515,-8.30078 6.00586,-19.33594 0.78125,-7.27539 0.78125,-20.654296 z M 485.5957,88.916016 q -7.51953,-9.960938 -15.52734,-17.138672 l 5.51758,-4.6875 q 8.20312,6.689453 15.96679,16.308593 z m 115.47852,1.904296 h 49.90234 q 0,2.636719 -0.68359,22.998048 h 10.20508 v 6.5918 h -10.44922 q -0.19531,6.25 -0.87891,17.91992 h 9.7168 v 6.49414 h -10.20508 q -0.63477,7.27539 -1.70898,9.66797 -2.14844,5.02929 -10.49805,5.02929 -4.73633,0 -11.08399,-0.78125 l -1.41601,-6.83593 q 7.32422,1.02539 12.06055,1.02539 2.73437,0 3.61328,-1.22071 0.78125,-1.12304 1.31836,-6.10351 l 0.0488,-0.78125 h -39.01367 l -0.14648,0.78125 -0.14649,0.68359 -0.83007,4.73633 -7.47071,-0.87891 q 2.63672,-14.50195 4.44336,-29.73632 h -9.76562 v -6.5918 h 10.54687 q 1.46485,-12.69531 2.44141,-22.998048 z m 27.58789,6.396485 q -0.19531,3.417973 -0.73242,11.572263 l -0.29297,5.0293 h 15.33203 q 0.0977,-2.09961 0.24414,-5.46875 0.0488,-0.87891 0.19531,-5.56641 0,-1.85547 0.14649,-5.566403 z m -7.12891,0 h -13.81836 q -0.43945,5.957033 -1.51367,16.601563 h 14.0625 q 0.29297,-3.71094 0.43945,-5.56641 0.3418,-3.61328 0.83008,-11.035153 z m -1.80664,23.193363 h -14.25781 q -0.78125,6.64062 -1.95313,14.59961 l -0.48828,3.32031 h 14.79493 l 0.29296,-2.2461 q 1.17188,-9.76562 1.61133,-15.67382 z m 7.32422,0 -0.48828,5.12695 q -0.83008,8.78906 -1.31836,12.79297 h 16.40625 q 0.48828,-6.34766 0.73242,-12.30469 l 0.29297,-5.61523 z m -19.0918,-46.630863 h 48.92579 v 6.689453 h -52.00196 q -4.0039,7.958984 -9.91211,14.941406 l -5.37109,-5.224609 q 9.47266,-10.546875 14.01367,-25.78125 l 7.4707,0.78125 q -1.5625,4.833984 -3.125,8.59375 z m -24.75586,12.5 q -6.44531,-8.447266 -14.40429,-15.38086 l 5.27344,-5.078125 q 7.51953,5.810547 14.69726,14.697266 z m -3.51562,25.732423 q -7.66602,-9.32617 -14.79492,-15.332033 l 5.41992,-5.371093 q 8.39844,6.787109 15.08789,14.794926 z m -12.69531,41.06445 q 8.88672,-12.64648 16.21093,-31.98242 l 6.39649,4.6875 q -7.37305,19.92187 -16.30859,33.00781 z"></path>
</svg>
