<svg xmlns="http://www.w3.org/2000/svg" id="svg1" version="1.1" height="200" width="990">
  <defs id="defs1"></defs>
  <rect id="rect1" stroke="none" fill="none" height="200" width="990" y="0" x="0"></rect>
  <path aria-label="若狭湾" style="font-size:100px;font-family:'BIZ UDPGothic';fill:#ff0000" id="text1" d="m 29.882812,122.11914 h 55.615235 v 37.40234 h -8.007813 v -6.10351 H 31.445312 v 6.10351 H 23.535156 V 127.63672 Q 15.917969,133.59375 6.2988281,138.7207 L 1.5136719,132.61719 Q 21.240234,123.38867 33.398437,107.4707 H 2.4902344 v -6.68945 H 37.988281 q 4.052735,-6.738281 6.835938,-13.525391 l 7.470703,2.001953 q -2.539063,5.859375 -5.664063,11.523438 h 50.830078 v 6.68945 H 42.480469 q -5.371094,7.86133 -12.597657,14.64844 z m 1.5625,6.39648 v 18.31055 H 77.490234 V 128.51562 Z M 28.027344,75.097656 V 64.501953 h 7.8125 v 10.595703 h 27.58789 V 64.501953 h 7.910157 v 10.595703 h 22.90039 v 6.689453 h -22.90039 v 9.082032 h -7.910157 v -9.082032 h -27.58789 v 9.179688 h -7.8125 V 81.787109 H 5.8105469 v -6.689453 z m 95.556636,36.376954 q -7.42187,16.06445 -17.1875,26.41601 l -4.39453,-6.39648 q 12.06055,-12.20703 20.21485,-31.00586 -0.6836,-3.759764 -2.05078,-8.349608 -6.10352,7.080078 -13.86719,13.671878 l -4.10156,-6.201175 q 8.59375,-6.689453 14.99023,-14.697266 -4.19922,-8.251953 -11.2793,-14.208984 l 5.27344,-4.003906 q 6.15234,4.93164 10.64453,11.865234 4.29688,-6.689453 7.4707,-13.574219 l 6.49415,3.710938 q -5.12696,9.472656 -10.40039,16.845703 l 0.24414,0.537109 q 6.10351,15.039066 6.10351,40.771486 0,18.89648 -3.125,26.2207 -2.53906,6.00586 -9.81445,6.00586 -5.46875,0 -9.47266,-0.78125 l -1.51367,-7.91016 q 4.88281,1.12305 9.47266,1.12305 2.97851,0 3.95507,-1.2207 0.63477,-0.78125 1.07422,-2.58789 1.75782,-7.61719 1.75782,-22.31445 0,-7.86133 -0.48829,-13.91602 z m 41.35743,14.20898 q -6.00586,23.68164 -29.19922,33.88672 l -4.6875,-6.39648 q 12.40234,-5.0293 19.67773,-14.20899 7.37305,-9.375 9.13086,-18.99414 h -26.12305 v -6.78711 h 26.51368 V 85.986328 h -23.58399 v -6.884766 h 23.58399 V 64.501953 h 7.32421 v 14.599609 h 26.80665 v 6.884766 h -26.80665 v 27.197262 h 29.88282 v 6.78711 h -28.07617 q 8.39843,21.43555 28.90625,31.88477 l -5.0293,7.1289 q -11.86524,-7.08007 -19.18945,-16.60156 -5.3711,-6.98242 -9.13086,-16.69922 z m -19.23829,-14.89257 q -2.92968,-10.59571 -7.17773,-18.896489 l 6.49414,-2.783203 q 3.95508,7.568359 7.4707,18.603512 z m 28.90625,-2.68555 q 4.6875,-8.251954 8.00782,-19.384767 l 7.17773,2.685547 q -4.05273,11.57227 -8.78906,19.18945 z m 90.47852,-34.521486 h 32.12891 v 6.298828 h -23.38868 v 19.189454 q 0,3.076174 -1.5625,4.492184 -1.5625,1.41602 -5.66406,1.41602 -5.02929,0 -8.49609,-0.48828 l -1.12305,-6.298831 q 4.39453,0.683594 7.4707,0.683594 1.61133,0 1.9043,-1.171875 0.14649,-0.537109 0.14649,-1.416016 v -16.40625 h -10.64454 q -0.43945,9.91211 -2.24609,14.794922 -2.63672,6.982426 -12.01172,11.914066 l -5.07812,-4.83399 q 8.49609,-4.052732 10.69336,-10.058591 1.46484,-4.003907 1.61132,-11.816407 h -21.82617 v -6.298828 h 30.32227 v -9.082031 h 7.76367 z m 24.60938,35.009766 v 18.79883 h -49.60938 q -0.53711,3.90625 -1.31836,7.32422 h 55.32227 q -0.97657,12.30468 -3.41797,18.01757 -1.66016,3.95508 -5.95703,5.56641 -3.32032,1.2207 -9.22852,1.2207 -7.91016,0 -15.86914,-0.78125 l -1.70898,-7.03125 q 10.69336,1.12305 17.48046,1.12305 4.19922,0 5.66407,-0.97656 2.58789,-1.70899 4.15039,-11.03516 h -47.94922 q -0.73242,2.68555 -1.66016,5.71289 l -7.71484,-1.80664 q 2.92969,-8.64258 5.32226,-23.24218 h 48.68165 v -6.98243 h -52.39258 v -5.9082 z M 219.18945,86.083984 q -6.29883,-8.349609 -13.96484,-15.08789 l 5.37109,-4.980469 q 7.37305,5.810547 14.20899,14.501953 z m -3.07617,25.439456 q -7.4707,-9.13086 -14.50195,-15.136721 l 5.32226,-5.273438 q 7.56836,6.103516 14.79493,14.501949 z m -12.30469,41.69922 q 8.4961,-12.74414 15.91797,-33.39844 l 6.00586,4.39453 q -6.39648,19.28711 -15.42969,34.66797 z m 87.89063,-50.14649 Q 284.86328,93.261719 276.9043,85.791016 l 5.32226,-3.90625 q 9.08203,7.666015 15.28321,16.699218 z m -69.28711,-4.589842 q 8.44726,-6.054687 13.62305,-15.478516 l 6.29882,2.587891 q -5.22461,10.546875 -14.50195,17.480467 z"></path>
</svg>
