<svg xmlns="http://www.w3.org/2000/svg" id="svg1" version="1.1" height="200" width="990">
  <defs id="defs1"></defs>
  <rect id="rect1" stroke="none" fill="none" height="200" width="990" y="0" x="0"></rect>
  <path aria-label="フィリピン付近" style="font-size:100px;font-family:'BIZ UDPGothic';fill:#ff0000" id="text1" d="M 5.8105469,78.076172 H 79.6875 q -0.634766,24.023438 -5.761719,38.037108 -5.664062,15.57617 -19.384765,24.90234 -11.328125,7.66602 -30.712891,12.15821 l -4.101563,-7.12891 q 26.416016,-4.98047 38.28125,-18.65234 12.353516,-14.16016 12.890625,-42.138674 H 5.8105469 Z M 131.34766,154.49219 V 112.5 q -12.74414,8.30078 -29.10157,14.59961 l -3.906246,-6.39648 q 18.749996,-6.5918 31.054686,-15.47852 13.42774,-9.667969 23.19336,-21.142579 l 6.20117,3.90625 q -9.375,10.595703 -20.11719,19.091799 v 47.41211 z m 53.27148,-84.472659 h 8.20313 v 51.464849 h -8.20313 z m 50.09766,-1.02539 h 8.20312 v 33.496089 q 0,16.99219 -2.34375,25.04883 -2.49023,8.64258 -7.42187,13.81836 -8.4961,8.88672 -26.31836,13.33008 l -4.29688,-7.17773 q 20.70313,-4.54102 26.9043,-14.99024 3.95508,-6.78711 4.83398,-16.94336 0.43946,-4.88281 0.43946,-12.98828 z m 35.44922,1.904296 h 8.10546 v 31.787113 q 26.9043,-7.519534 44.82422,-18.164066 l 4.6875,6.884766 q -23.24218,11.86523 -49.51172,18.70117 v 24.07227 q 0,4.3457 2.68555,5.46875 3.51563,1.41601 20.80078,1.41601 17.28516,0 35.9375,-1.5625 v 8.10547 q -14.89258,1.02539 -32.71484,1.02539 -20.6543,0 -25.97656,-0.92773 -5.85938,-1.02539 -7.71485,-5.0293 -1.12304,-2.44141 -1.12304,-6.68945 z m 69.67773,-4.199218 q 3.32031,0 6.29883,1.953125 5.22461,3.466797 5.22461,9.667968 0,4.6875 -3.41797,8.154297 -3.41797,3.417969 -8.25195,3.417969 -2.68555,0 -5.12696,-1.269531 -2.73437,-1.416016 -4.44336,-3.955078 -1.95312,-2.978516 -1.95312,-6.445313 0,-2.539062 1.17187,-4.93164 3.27149,-6.591797 10.49805,-6.591797 z m -0.0977,4.980468 q -1.5625,0 -3.07617,0.78125 -3.51562,1.904297 -3.51562,5.859375 0,1.904297 1.07422,3.515625 1.95312,3.076172 5.5664,3.076172 2.49024,0 4.39453,-1.708984 2.19727,-2.001953 2.19727,-4.882813 0,-3.027343 -2.29492,-5.029296 -1.85547,-1.611329 -4.34571,-1.611329 z m 52.34375,21.484375 Q 378.125,86.816406 362.40234,83.007812 l 2.58789,-7.617187 q 18.79883,4.492187 29.93164,10.107422 z m -28.90625,50.341798 q 19.72657,-1.75781 31.05469,-6.00586 29.3457,-10.98633 36.96289,-50.585938 l 6.78711,4.882813 q -4.54101,21.484375 -14.16016,34.082035 -10.54687,13.86718 -28.80859,20.06836 -11.2793,3.80859 -29.83398,5.85937 z M 469.48242,90.185547 v 69.335933 h -7.71484 v -55.37109 q -0.19531,0.29297 -0.48828,0.73242 -4.39453,7.17774 -10.88868,14.69727 l -4.10156,-7.37305 q 9.76563,-11.32812 16.35742,-25.195311 4.73633,-9.91211 8.83789,-22.900391 l 7.61719,2.099609 q -4.49219,13.427735 -9.61914,23.97461 z m 55.22461,-2.001953 h 16.60156 v 7.177734 h -16.60156 v 54.541012 q 0,5.17578 -2.49023,7.17774 -2.09961,1.61133 -7.76368,1.61133 -7.91015,0 -14.74609,-0.6836 L 498.0957,150 q 8.44727,1.2207 15.625,1.2207 2.14844,0 2.68555,-0.78125 0.39062,-0.63476 0.39062,-2.4414 V 95.361328 h -42.7246 v -7.177734 h 42.7246 V 65.283203 h 7.91016 z m -28.41797,45.410156 q -5.71289,-14.30664 -13.81836,-26.07422 l 6.49414,-4.19922 q 8.39844,12.35352 14.20899,25.87891 z m 74.21875,4.73633 q 4.29688,4.44336 9.81446,7.22656 8.59375,4.3457 23.58398,4.3457 h 38.37891 q -1.41602,2.88086 -2.49024,6.88477 h -36.08398 q -16.35742,0 -25.63477,-4.58984 -5.5664,-2.78321 -10.74219,-8.20313 -8.34961,9.57031 -16.25976,15.47852 l -4.58985,-7.08008 q 7.95899,-4.98047 16.40625,-12.5 v -25.6836 h -16.21093 v -6.7871 h 23.82812 z m 14.45313,-64.11133 q 1.70898,-0.146484 3.71093,-0.292969 21.92383,-1.80664 39.99024,-7.617187 l 5.61523,6.103515 q -17.91992,5.371094 -41.60156,7.763672 v 14.941406 h 47.41211 v 6.884763 h -17.91992 v 43.40821 h -7.8125 v -43.40821 h -21.67969 q 0,13.52539 -1.17187,22.07032 -1.5625,11.4746 -6.83594,20.21484 l -6.49414,-5.17578 q 4.78515,-8.30078 6.00586,-19.33594 0.78125,-7.27539 0.78125,-20.654296 z m -18.35938,14.697266 q -7.51953,-9.960938 -15.52734,-17.138672 l 5.51758,-4.6875 q 8.20312,6.689453 15.96679,16.308593 z"></path>
</svg>
