<svg xmlns="http://www.w3.org/2000/svg" id="svg1" version="1.1" height="200" width="1096">
  <defs id="defs1"></defs>
  <rect id="rect1" stroke="none" fill="none" height="200" width="1096" y="0" x="0"></rect>
  <path aria-label="岩手県沖" style="font-weight:bold;font-size:110px;font-family:'BIZ UDPGothic';fill:#ff0000" id="text1" d="m 38.510742,118.84766 h 59.189453 v 41.62597 H 85.830078 v -5.85449 H 34.804687 v 5.85449 H 23.256836 v -26.58691 q -6.28418,5.10254 -14.2333985,9.72168 l -7.6806641,-9.23828 q 8.4863282,-4.02832 15.4687496,-9.45313 11.44043,-8.96972 18.369141,-20.03418 H 2.7929688 V 95.322266 H 107.26074 v 9.560544 H 48.339844 q -3.867188,6.875 -9.829102,13.96485 z m -3.706055,9.23828 v 17.29492 H 85.830078 V 128.08594 Z M 61.069336,76.416016 h 25.19043 V 60.463867 H 97.915039 V 85.546875 H 13.212891 V 60.463867 H 24.760742 V 76.416016 H 49.306641 V 55.952148 H 61.069336 Z M 171.76758,71.044922 v 17.348633 h 38.99414 v 10.581054 h -38.99414 v 14.824221 h 45.49316 v 10.7959 h -45.49316 v 24.16992 q 0,6.44531 -3.59863,8.91601 -2.73926,1.87989 -9.13086,1.87989 -10.47364,0 -20.46387,-1.07422 l -2.09473,-11.54785 q 12.40723,1.61132 18.74512,1.61132 3.00781,0 3.75976,-1.12793 0.4834,-0.80566 0.4834,-2.68554 v -20.1416 h -46.72851 v -10.7959 h 46.72851 V 98.974609 h -41.25 V 88.393555 h 41.25 V 72.602539 l -2.9541,0.322266 q -15.36133,1.665039 -32.11914,2.578125 l -4.61914,-9.990235 q 42.53906,-1.772461 77.34375,-9.453125 l 6.71387,9.238282 q -15.03906,3.383789 -32.06543,5.74707 z M 312.16797,58.583984 V 110.62988 H 248.25195 V 58.583984 Z m -52.36817,8.486328 v 6.713868 h 40.7129 v -6.713868 z m 0,14.28711 v 6.713867 h 40.7129 v -6.713867 z m 0,14.287109 v 6.928709 h 40.7129 v -6.928709 z m -21.6455,22.128909 h 89.05273 v 9.3457 h -44.41894 v 33.35449 H 270.5957 V 127.11914 H 226.3916 V 66.855469 h 11.7627 z m -13.75,32.4414 q 12.7832,-5.9082 24.43847,-19.81933 l 9.88282,5.74707 q -11.49414,14.55566 -25.5127,22.88086 z m 92.59765,6.92871 q -8.21777,-10.09765 -24.70703,-21.21582 l 9.23828,-6.49902 q 12.94434,7.46582 25.40528,19.60449 z m 76.69922,-81.157222 v -20.03418 h 11.54785 v 20.03418 h 29.11133 v 48.608402 h -29.11133 v 35.8789 h -11.54785 v -35.8789 H 365.18066 V 75.986328 Z m -17.40234,10.688477 v 27.338865 h 17.40234 V 86.674805 Z m 46.62109,27.338865 V 86.674805 h -17.6709 v 27.338865 z m -68.75,-31.796873 q -6.55273,-9.13086 -17.34863,-17.456055 l 8.00293,-8.164062 q 10.74219,7.573242 18.1543,16.972656 z m -3.49121,27.607423 q -9.3457,-10.849611 -18.1543,-17.778322 l 8.27149,-8.271484 q 9.39941,6.606445 18.58398,17.080076 z m -16.7041,41.62598 q 10.3125,-14.66309 19.01367,-36.52344 l 9.56055,7.3584 q -7.3584,20.1416 -17.93946,37.91992 z"></path>
</svg>
