<svg xmlns="http://www.w3.org/2000/svg" id="svg1" version="1.1" height="200" width="1096">
  <defs id="defs1"></defs>
  <rect id="rect1" stroke="none" fill="none" height="200" width="1096" y="0" x="0"></rect>
  <path aria-label="三陸沖" style="font-weight:bold;font-size:110px;font-family:'BIZ UDPGothic';fill:#ff0000" id="text1" d="M 11.333008,65.834961 H 98.55957 v 11.44043 H 11.333008 Z m 6.069336,35.449219 h 75.195312 v 11.11816 H 17.402344 Z M 4.4042969,139.63379 H 105.5957 v 11.44043 H 4.4042969 Z M 174.3457,94.892578 q -1.5039,8.164062 -4.35058,12.836912 -4.56543,7.57324 -15.84473,11.38672 l -6.28418,-8.16406 q 5.96191,-1.50391 9.29199,-3.97461 5.53223,-4.08203 6.98242,-12.084962 h -15.62988 v -9.345703 h 26.85547 v -9.345703 h -23.0957 v -9.238281 h 23.0957 V 56.05957 h 11.22559 v 10.903321 h 24.5459 v 9.238281 h -24.5459 v 9.345703 h 29.37988 v 9.345703 h -19.81934 v 9.345702 q 0,1.98731 0.75196,2.36328 0.85937,0.42969 3.81347,0.42969 4.51172,0 5.20996,-1.77246 0.80567,-2.04102 0.91309,-6.713868 l 10.09766,2.524418 q -0.10743,9.45312 -3.16895,12.72949 -1.77246,1.82617 -5.04883,2.36328 -3.22265,0.4834 -8.64746,0.4834 -6.60644,0 -9.39941,-0.59082 -2.63184,-0.53711 -3.97461,-2.25586 v 11.11816 h 24.76074 v 9.13086 h -24.76074 v 12.56836 h 31.15234 v 10.09766 h -72.61719 v -10.09766 h 30.13184 v -12.56836 h -23.20312 v -9.13086 h 23.20312 v -12.08496 h 10.7959 q -0.59082,-1.45019 -0.59082,-3.33008 V 94.892578 Z m -33.46191,0.429688 q 7.68066,10.849614 7.68066,24.653324 0,7.25097 -1.77246,11.54785 -2.41699,5.74707 -10.47363,5.74707 -3.49121,0 -6.3916,-0.69824 l -2.63184,-10.52735 q 3.27637,0.64453 5.74707,0.64453 2.90039,0 3.59863,-2.30957 0.69825,-2.41699 0.69825,-7.68066 0,-11.49414 -7.08985,-20.732423 l 0.53711,-1.342774 q 3.9209,-10.742187 6.98242,-24.384765 H 126.86523 V 160.47363 H 116.06934 V 60.249023 h 28.19824 l 5.69336,4.404297 q -3.11524,15.415039 -9.07715,30.668946 z M 283.70117,75.986328 v -20.03418 h 11.54785 v 20.03418 h 29.11133 v 48.608402 h -29.11133 v 35.8789 h -11.54785 v -35.8789 H 255.18066 V 75.986328 Z m -17.40234,10.688477 v 27.338865 h 17.40234 V 86.674805 Z m 46.62109,27.338865 V 86.674805 h -17.6709 v 27.338865 z m -68.75,-31.796873 q -6.55273,-9.13086 -17.34863,-17.456055 l 8.00293,-8.164062 q 10.74219,7.573242 18.1543,16.972656 z m -3.49121,27.607423 q -9.3457,-10.849611 -18.1543,-17.778322 l 8.27149,-8.271484 q 9.39941,6.606445 18.58398,17.080076 z m -16.7041,41.62598 q 10.3125,-14.66309 19.01367,-36.52344 l 9.56055,7.3584 q -7.3584,20.1416 -17.93946,37.91992 z"></path>
</svg>
