<svg xmlns="http://www.w3.org/2000/svg" id="svg1" version="1.1" height="200" width="990">
  <defs id="defs1"></defs>
  <rect id="rect1" stroke="none" fill="none" height="200" width="990" y="0" x="0"></rect>
  <path aria-label="東シナ海" style="font-size:100px;font-family:'BIZ UDPGothic';fill:#ff0000" id="text1" d="m 61.328125,126.61133 q 14.013672,12.84179 36.767578,20.50781 l -4.736328,6.98242 Q 82.8125,150.14648 75.048828,145.55664 62.939453,138.33008 53.515625,127.49023 v 32.03125 h -7.714844 v -31.83593 q -5.761719,7.51953 -14.30664,14.20898 -10.888672,8.49609 -24.3164066,13.81836 L 2.3925781,149.41406 Q 24.365234,141.40625 38.183594,126.61133 H 11.572266 V 87.792969 H 45.800781 V 79.785156 H 4.0527344 V 73.193359 H 45.800781 v -8.691406 h 7.714844 v 8.691406 h 42.382812 v 6.591797 H 53.515625 v 8.007813 H 88.28125 V 126.61133 Z M 45.800781,94.091797 H 19.384766 v 9.814453 h 26.416015 z m 7.714844,0 v 9.814453 H 80.566406 V 94.091797 Z M 45.800781,110.00977 H 19.384766 v 10.30273 h 26.416015 z m 7.714844,0 V 120.3125 H 80.566406 V 110.00977 Z M 140.82031,88.28125 q -12.1582,-5.664063 -26.70898,-9.863281 l 2.49023,-7.03125 q 15.03906,3.662109 26.80664,9.521484 z m -10.30273,24.90234 q -10.64453,-4.73632 -26.51367,-9.86328 l 2.97851,-7.324216 q 14.59961,4.052736 26.51367,9.814456 z m -20.11719,30.71289 q 17.91992,-1.46484 28.75977,-5.22461 18.4082,-6.44531 28.51562,-23.38867 6.78711,-11.32812 10.10742,-28.271481 l 7.12891,4.296875 q -4.39453,20.068356 -12.5,32.226566 -9.86328,14.74609 -27.34375,21.67968 -12.30469,4.83399 -32.37305,6.5918 z M 232.03125,68.212891 h 7.91016 v 22.802734 h 37.10937 v 7.177734 h -37.10937 v 3.613281 q 0,14.30664 -1.51368,21.67969 -4.29687,21.04492 -27.73437,31.88476 l -5.07813,-6.59179 q 15.9668,-6.78711 21.875,-18.50586 3.56446,-7.12891 4.24805,-17.67578 0.29297,-4.29688 0.29297,-10.69336 v -3.710941 h -39.01367 v -7.177734 h 39.01367 z m 89.0625,22.607421 h 49.90234 q 0,2.636719 -0.68359,22.998048 h 10.20508 v 6.5918 h -10.44922 q -0.19531,6.25 -0.87891,17.91992 h 9.7168 v 6.49414 h -10.20508 q -0.63476,7.27539 -1.70898,9.66797 -2.14844,5.02929 -10.49805,5.02929 -4.73633,0 -11.08398,-0.78125 l -1.41602,-6.83593 q 7.32422,1.02539 12.06055,1.02539 2.73437,0 3.61328,-1.22071 0.78125,-1.12304 1.31836,-6.10351 l 0.0488,-0.78125 h -39.01368 l -0.14648,0.78125 -0.14648,0.68359 -0.83008,4.73633 -7.47071,-0.87891 q 2.63672,-14.50195 4.44336,-29.73632 h -9.76562 v -6.5918 h 10.54687 q 1.46485,-12.69531 2.44141,-22.998048 z m 27.58789,6.396485 q -0.19531,3.417973 -0.73242,11.572263 l -0.29297,5.0293 h 15.33203 q 0.0977,-2.09961 0.24414,-5.46875 0.0488,-0.87891 0.19531,-5.56641 0,-1.85547 0.14649,-5.566403 z m -7.12891,0 h -13.81836 q -0.43945,5.957033 -1.51367,16.601563 h 14.0625 q 0.29297,-3.71094 0.43946,-5.56641 0.34179,-3.61328 0.83007,-11.035153 z m -1.80664,23.193363 h -14.25781 q -0.78125,6.64062 -1.95312,14.59961 l -0.48829,3.32031 h 14.79493 l 0.29297,-2.2461 q 1.17187,-9.76562 1.61132,-15.67382 z m 7.32422,0 -0.48828,5.12695 q -0.83008,8.78906 -1.31836,12.79297 h 16.40625 q 0.48828,-6.34766 0.73242,-12.30469 l 0.29297,-5.61523 z M 327.97852,73.779297 h 48.92578 v 6.689453 h -52.00196 q -4.0039,7.958984 -9.91211,14.941406 l -5.37109,-5.224609 q 9.47266,-10.546875 14.01367,-25.78125 l 7.47071,0.78125 q -1.5625,4.833984 -3.125,8.59375 z m -24.75586,12.5 q -6.44532,-8.447266 -14.4043,-15.38086 l 5.27344,-5.078125 q 7.51953,5.810547 14.69726,14.697266 z m -3.51563,25.732423 q -7.66601,-9.32617 -14.79492,-15.332033 l 5.41992,-5.371093 q 8.39844,6.787109 15.08789,14.794926 z m -12.69531,41.06445 q 8.88672,-12.64648 16.21094,-31.98242 l 6.39648,4.6875 q -7.37305,19.92187 -16.30859,33.00781 z"></path>
</svg>
