<svg xmlns="http://www.w3.org/2000/svg" id="svg1" version="1.1" height="200" width="990">
  <defs id="defs1"></defs>
  <rect id="rect1" stroke="none" fill="none" height="200" width="990" y="0" x="0"></rect>
  <path aria-label="5" style="font-size:100px;font-family:'BIZ UDPGothic';fill:#ff0000" id="text1" d="m 16.40625,71.484375 h 45.507812 v 8.007812 H 24.316406 L 21.09375,107.71484 h 0.390625 q 7.568359,-6.54296 18.554687,-6.54296 10.498047,0 17.773438,6.05468 8.59375,7.17774 8.59375,19.77539 0,8.10547 -4.052734,14.50196 -4.785157,7.66601 -13.867188,10.79101 -5.029297,1.70899 -11.083984,1.70899 -16.748047,0 -27.09961,-9.52149 l 4.980469,-6.29883 q 4.052734,3.61328 9.570313,5.56641 6.298828,2.24609 12.548828,2.24609 8.691406,0 14.257812,-5.85937 5.029297,-5.32227 5.029297,-13.13477 0,-7.86132 -4.638672,-12.79297 -5.126953,-5.51757 -14.111328,-5.51757 -6.445312,0 -12.060547,3.125 -3.759765,2.09961 -5.859375,5.17578 l -8.300781,-1.22071 z"></path>
</svg>
