<svg xmlns="http://www.w3.org/2000/svg" id="svg1" version="1.1" height="200" width="990">
  <defs id="defs1"></defs>
  <rect id="rect1" stroke="none" fill="none" height="200" width="990" y="0" x="0"></rect>
  <path aria-label="岐阜県美濃東部" style="font-size:100px;font-family:'BIZ UDPGothic';fill:#ff0000" id="text1" d="M 71.875,102.00195 H 87.5 l 4.394531,3.90625 q -7.080078,18.99414 -17.285156,30.66407 9.375,8.6914 23.486328,15.13671 l -4.736328,7.17774 q -12.744141,-6.64063 -23.681641,-17.13867 -12.207031,11.57226 -27.34375,17.82226 l -4.882812,-6.39648 Q 52.34375,148.24219 64.84375,136.52344 54.052734,123.48633 48.779297,108.88672 h -5.126953 v -6.88477 H 64.355469 V 86.279297 H 39.550781 V 79.296875 H 64.355469 V 64.501953 H 71.875 v 14.794922 h 25.585937 v 6.982422 H 71.875 Z m -15.673828,6.88477 q 4.394531,11.86523 13.378906,22.50976 8.740234,-10.74218 12.890625,-22.50976 z m -30.615235,25.24414 h 7.080079 V 84.228516 h 6.689453 V 141.11328 H 11.767578 v 8.10547 H 4.8828125 V 84.228516 h 6.6894535 v 49.902344 h 7.128906 V 65.820312 h 6.884765 z M 145.70312,123.68164 H 113.47656 V 73.388672 h 27.44141 l 0.29297,-0.732422 q 1.80664,-4.101563 2.97851,-8.59375 l 8.39844,1.318359 q -1.95312,4.980469 -3.80859,8.007813 h 35.00976 v 21.533203 h -62.40234 v 7.373045 h 67.08984 v 21.38672 h -34.86328 v 9.0332 h 43.84766 v 6.5918 h -43.84766 v 20.21484 h -7.91016 v -20.21484 h -43.21289 v -6.5918 h 43.21289 z m -24.3164,-44.091796 v 9.228515 h 54.39453 v -9.228515 z m 0,28.906246 v 8.98438 h 59.17969 v -8.98438 z M 282.86133,67.578125 V 114.4043 H 225.78125 V 67.578125 Z m -49.36524,6.005859 v 7.714844 h 41.55274 v -7.714844 z m 0,13.330078 v 7.763672 h 41.55274 v -7.763672 z m 0,13.476568 v 8.30078 h 41.55274 v -8.30078 z M 214.4043,122.2168 h 83.05664 v 6.49414 h -41.99219 v 30.81054 h -7.91016 V 128.71094 H 206.5918 V 74.267578 h 7.8125 z m -9.22852,29.6875 q 12.79297,-6.15235 23.0957,-19.28711 l 6.5918,3.66211 q -10.40039,13.62304 -24.07226,21.72851 z m 84.17969,4.10156 q -10.25391,-11.18164 -23.29102,-19.82422 l 6.00586,-4.49219 q 11.76758,7.37305 23.68164,18.79883 z m 56.34765,-42.62695 h -42.82226 v -6.20118 h 42.82226 v -9.863277 h -33.83789 v -6.201172 h 33.83789 v -9.228515 h -39.01367 v -6.201172 h 23.09571 q -2.63672,-4.785157 -5.90821,-8.789063 l 8.00782,-2.392578 q 3.61328,4.833984 6.59179,11.181641 h 22.02149 q 3.66211,-5.46875 6.00586,-11.279297 L 375,66.503906 q -2.83203,5.078125 -5.71289,9.179688 h 24.02344 v 6.201172 h -39.69727 v 9.228515 h 34.47266 v 6.201172 h -34.47266 v 9.863277 h 43.45703 v 6.20118 h -43.45703 v 10.00976 h 42.28516 v 6.39649 h -39.50196 q 11.86524,15.625 40.82032,21.58203 l -4.83399,7.32422 q -15.23437,-3.61329 -27.68554,-11.81641 -9.08204,-5.9082 -14.30665,-14.30664 -5.12695,10.79101 -15.86914,17.38281 -10.15625,6.20117 -26.12304,9.32617 l -4.73633,-6.88476 q 31.44531,-4.6875 40.23437,-22.60742 h -39.89257 v -6.39649 h 41.69921 z m 135.35157,31.54296 q 6.73828,4.73633 16.8457,7.66602 l -4.19922,6.29883 q -12.98828,-4.44336 -20.55664,-11.37695 -6.93359,-6.39649 -10.79101,-15.82032 h -10.74219 v 18.84766 q 9.76562,-1.80664 16.69922,-3.4668 l 0.48828,5.81055 q -12.98828,3.66211 -31.44531,6.68945 l -2.2461,-6.49414 q 6.25,-0.83008 9.61914,-1.36719 v -20.01953 h -10.79101 q -0.58594,8.74024 -2.14844,14.69727 -1.66016,6.49414 -5.46875,12.89062 l -5.81055,-5.37109 q 3.75977,-6.83594 5.07813,-14.20898 1.31836,-7.22657 1.31836,-18.60352 v -16.89453 h 67.82226 v 5.71289 h -60.49804 v 10.5957 q 0,3.75977 -0.0488,5.46875 h 62.93945 v 5.71289 H 487.5 l 5.22461,4.58985 q -5.07813,4.39453 -11.66992,8.64257 z m -4.49219,-3.71093 q 0.19531,-0.19532 0.87891,-0.6836 4.88281,-3.75976 9.47265,-8.44726 l 0.39063,-0.39063 h -17.72461 q 2.58789,5.27344 6.98242,9.52149 z M 447.46094,70.410156 v -5.908203 h 6.73828 v 5.908203 h 10.88867 v -5.908203 h 6.68945 v 5.908203 h 18.31055 V 99.21875 H 429.78516 V 70.410156 Z m -10.88867,5.419922 v 6.25 h 10.88867 v -6.25 z m 0,11.328125 v 6.738281 h 10.88867 v -6.738281 z m 46.72851,6.738281 v -6.738281 h -11.52344 v 6.738281 z m 0,-11.816406 v -6.25 h -11.52344 v 6.25 z m -29.10156,-6.25 v 6.25 h 10.88867 v -6.25 z m 0,11.328125 v 6.738281 h 10.88867 v -6.738281 z m -36.2793,-1.171875 q -5.61523,-7.958984 -13.13476,-15.283203 l 5.32226,-4.785156 q 6.78711,6.005859 13.28125,14.501953 z M 415.2832,111.2793 q -6.64062,-8.74024 -13.3789,-15.18555 l 5.17578,-5.078125 q 7.37304,6.445312 13.62304,14.697265 z m -11.86523,42.43164 q 7.56836,-13.33008 13.67187,-33.78906 l 6.20118,4.19921 q -5.12696,19.0918 -13.47657,34.76563 z m 36.66992,-38.62305 h 47.80273 v 5.51758 h -47.80273 z m 121.24023,11.52344 q 14.01368,12.84179 36.76758,20.50781 l -4.73633,6.98242 q -10.54687,-3.95508 -18.31054,-8.54492 -12.10938,-7.22656 -21.53321,-18.06641 v 32.03125 h -7.71484 v -31.83593 q -5.76172,7.51953 -14.30664,14.20898 -10.88867,8.49609 -24.31641,13.81836 l -4.78515,-6.29883 q 21.97265,-8.00781 35.79101,-22.80273 H 511.57227 V 87.792969 h 34.22851 v -8.007813 h -41.74805 v -6.591797 h 41.74805 v -8.691406 h 7.71484 v 8.691406 h 42.38282 v 6.591797 h -42.38282 v 8.007813 h 34.76563 V 126.61133 Z M 545.80078,94.091797 h -26.41601 v 9.814453 h 26.41601 z m 7.71484,0 v 9.814453 h 27.05079 v -9.814453 z m -7.71484,15.917973 h -26.41601 v 10.30273 h 26.41601 z m 7.71484,0 v 10.30273 h 27.05079 v -10.30273 z m 80.46875,-33.398442 h 21.82618 v 6.787109 h -7.03125 q -2.05078,9.13086 -5.61524,18.701173 h 14.45313 v 6.88477 h -55.12696 v -6.88477 h 13.72071 l -0.0977,-0.48828 Q 614.0625,91.601562 611.71875,84.423828 l -0.3418,-1.025391 h -7.08008 v -6.787109 h 22.2168 V 64.501953 h 7.4707 z m -15.13671,6.787109 q 2.58789,7.958985 4.73632,18.701173 h 12.15821 q 2.92968,-8.105469 5.32226,-18.701173 z m 31.83593,35.888673 v 39.30664 h -7.32422 v -5.51758 h -25.97656 v 6.39649 h -7.56836 v -40.18555 z m -33.30078,6.68945 v 20.3125 h 25.97656 v -20.3125 z m 65.42969,-22.70508 q 12.8418,13.57422 12.8418,29.44336 0,5.56641 -2.00196,8.39844 -2.4414,3.27149 -8.49609,3.27149 -5.81055,0 -10.69336,-0.6836 l -1.61133,-7.61719 q 6.25,1.02539 10.15625,1.02539 3.71094,0 4.39453,-2.49023 0.29297,-1.07422 0.29297,-3.51562 0,-13.72071 -12.64648,-26.70899 5.85937,-12.695311 9.52148,-26.708983 h -15.42969 v 81.787113 h -7.37304 V 70.507812 h 27.49023 l 4.39453,3.808594 q -5.37109,17.382813 -10.83984,28.955074 z"></path>
</svg>
