<svg version="1.1" xmlns="http://www.w3.org/2000/svg" xmlns:xlink="http://www.w3.org/1999/xlink" width="200.8903" height="82.93636" viewBox="0,0,200.8903,82.93636"><g transform="translate(-139.55487,-138.5319)"><g stroke-miterlimit="10"><g><path d="M188.62635,191.12302c-3.53433,0 -6.39948,-2.86514 -6.39948,-6.39948v-9.4471c0,-3.53433 2.86514,-6.39948 6.39948,-6.39948h102.7473c3.53433,0 6.39948,2.86514 6.39948,6.39948v9.4471c0,3.53433 -2.86514,6.39948 -6.39948,6.39948z" fill="#2b3f62" stroke="#6c82a9" stroke-width="1.32292"/><path d="M194.93746,176.4206h7.37973l0.60753,0.51333c-0.17582,0.65619 -0.40502,1.20406 -0.68759,1.64361c-0.5306,0.832 -1.32493,1.45365 -2.38299,1.86494l-0.59339,-0.81002c0.73154,-0.21978 1.33906,-0.61381 1.82256,-1.18208c0.28571,-0.33594 0.48508,-0.69072 0.59811,-1.06434h-6.74396zM197.95623,178.45509h1.07846v0.81003c0,1.21504 -0.135,2.15379 -0.40501,2.81626c-0.34222,0.84143 -1.00782,1.52587 -1.99681,2.05333l-0.77707,-0.81945c0.68131,-0.32339 1.17894,-0.70956 1.49291,-1.15853c0.24175,-0.3485 0.4003,-0.71741 0.47565,-1.10672c0.08791,-0.44583 0.13187,-1.04394 0.13187,-1.79431zM204.10208,177.565h2.87278c0.02513,-0.697 0.0377,-1.32022 0.0377,-1.86966h1.0926c-0.006,0.71584 -0.02327,1.33906 -0.0518,1.86966h3.46616c-0.0188,2.22601 -0.10985,3.9324 -0.27315,5.11919c-0.07221,0.54002 -0.2182,0.9105 -0.43798,1.11144c-0.22919,0.20721 -0.62322,0.31082 -1.18207,0.31082c-0.40501,0 -0.83515,-0.03297 -1.2904,-0.0989l-0.17425,-1.05963c0.54316,0.09733 0.98742,0.14599 1.33278,0.14599c0.23861,0 0.39403,-0.0361 0.46624,-0.10831c0.08163,-0.07849 0.14914,-0.32339 0.20251,-0.73468c0.15384,-1.21818 0.23547,-2.45834 0.24489,-3.72048h-2.40183c-0.11931,1.29353 -0.39403,2.32962 -0.82416,3.10825c-0.55885,1.00783 -1.39871,1.83041 -2.51956,2.46776l-0.71584,-0.83828c0.70328,-0.38618 1.30295,-0.87126 1.79902,-1.45523c0.37361,-0.43955 0.6499,-0.93719 0.82886,-1.4929c0.17268,-0.52432 0.29042,-1.12085 0.35321,-1.7896h-2.82568zM216.51624,175.65767h1.05963v1.53528h3.33901c-0.0314,1.48191 -0.20094,2.6687 -0.50862,3.56036c-0.34222,1.00783 -0.89009,1.7739 -1.6436,2.29822c-0.71584,0.4992 -1.62634,0.89323 -2.7315,1.18208l-0.52746,-0.89009c0.95445,-0.20094 1.78803,-0.55258 2.50073,-1.05492c0.56828,-0.39874 0.98899,-0.93562 1.26214,-1.61064c0.29199,-0.71898 0.44897,-1.56512 0.47095,-2.53841h-5.29816v2.2841h-1.0973v-3.2307h3.17418zM225.59609,178.28084c-0.99213,-0.44269 -2.0235,-0.79747 -3.09412,-1.06434l0.32967,-1.01254c1.24016,0.28257 2.28095,0.63421 3.12237,1.05492zM222.61971,182.96676c1.55413,-0.13187 2.74405,-0.40973 3.56978,-0.83358c0.97329,-0.50234 1.72052,-1.27312 2.2417,-2.31235c0.33909,-0.67188 0.61381,-1.55098 0.82416,-2.6373l0.90422,0.66404c-0.25431,1.16167 -0.562,2.08472 -0.92306,2.76916c-0.65305,1.24644 -1.65145,2.14909 -2.99522,2.70795c-0.84771,0.35164 -1.98112,0.60281 -3.40024,0.75351zM232.0151,175.7236h1.0973v2.70323c1.87437,0.57769 3.42693,1.16795 4.65767,1.77076l-0.52746,1.01725c-1.18051,-0.59967 -2.55724,-1.16952 -4.13021,-1.70954v4.78482h-1.0973zM239.22529,176.77852h2.53841c0.27943,-0.44583 0.49135,-0.80532 0.63577,-1.07847l1.05022,0.1507c-0.09419,0.16954 -0.2606,0.44583 -0.49921,0.82887l-0.0612,0.0989h3.32017v0.92776h-3.94653c-0.41129,0.56514 -0.80375,1.05493 -1.17737,1.46936c0.59339,-0.35478 1.13498,-0.53217 1.62477,-0.53217c0.75979,0 1.25743,0.38147 1.4929,1.1444c0.80375,-0.26687 1.62319,-0.5306 2.45834,-0.79119l0.40502,0.91363l-0.16484,0.0471l-0.46623,0.12245c-0.8791,0.23861 -1.58238,0.44268 -2.10984,0.61223c0.03767,0.40815 0.06437,0.93561 0.0801,1.58238l-1.03138,0.0565c-0.00333,-0.37362 -0.0096,-0.77863 -0.0188,-1.21504v-0.0942c-1.44424,0.49293 -2.16636,0.98899 -2.16636,1.48819c0,0.25745 0.18524,0.43327 0.55572,0.52746c0.35792,0.09105 0.99841,0.13658 1.92146,0.13658c0.85085,0 1.74408,-0.04867 2.67969,-0.146l0.11303,1.00312c-0.90736,0.06907 -1.84769,0.10361 -2.82098,0.10361c-1.19934,0 -2.05175,-0.09105 -2.55724,-0.27315c-0.62479,-0.22605 -0.93718,-0.63264 -0.93718,-1.21975c0,-0.49607 0.22134,-0.93405 0.66403,-1.31395c0.45839,-0.39245 1.26528,-0.79747 2.42067,-1.21504c-0.0628,-0.24175 -0.146,-0.41129 -0.2496,-0.50862c-0.11617,-0.10989 -0.27001,-0.16483 -0.46153,-0.16483c-0.31083,0 -0.70171,0.11774 -1.17266,0.35321c-0.58083,0.28885 -1.20405,0.72369 -1.86966,1.30452l-0.62635,-0.71584c0.97643,-0.90735 1.74093,-1.79901 2.29351,-2.67498h-1.91676zM253.33015,177.80989h-0.77236c-0.32338,0.79433 -0.73781,1.50703 -1.24329,2.1381l-0.68288,-0.83829c0.80061,-1.00468 1.36889,-2.24484 1.70483,-3.72047l0.9937,0.19308c-0.12245,0.45211 -0.25588,0.88539 -0.40031,1.29982h4.28562v0.92776h-2.87278v1.35633h2.29351v0.86654h-2.29351v1.34691h2.49602v0.88538h-2.49602v2.35473h-1.01253zM250.41499,177.81489v6.80518h-1.05021v-4.93081c-0.27315,0.40815 -0.57927,0.82102 -0.91835,1.23859l-0.4992,-1.05492c0.58397,-0.67503 1.09259,-1.49604 1.52586,-2.46305c0.25117,-0.55886 0.50706,-1.23545 0.76765,-2.02978l1.00311,0.25902c-0.23547,0.76921 -0.51176,1.49447 -0.82886,2.17577zM265.08027,177.0755c-0.01253,-0.01567 -0.03293,-0.0408 -0.0612,-0.0754c-0.45525,-0.54943 -0.8116,-0.92933 -1.06905,-1.13969l0.82886,-0.46153c0.42071,0.33909 0.81003,0.73154 1.16795,1.17737l-0.7959,0.4992h1.42226v0.90893h-3.01406c0.09105,1.13969 0.26844,2.12554 0.53217,2.95755c0.43013,-0.67189 0.81631,-1.44581 1.15853,-2.32177l0.90893,0.46153c-0.51805,1.18051 -1.06435,2.1538 -1.6389,2.91987c0.25745,0.48351 0.58084,0.88538 0.97015,1.20562c0.08163,0.06593 0.13972,0.0989 0.17425,0.0989c0.0534,0 0.10207,-0.09419 0.146,-0.28257c0.07849,-0.3485 0.13657,-0.77706 0.17425,-1.28568l0.90892,0.53217c-0.08791,0.75351 -0.18837,1.30923 -0.3014,1.66715c-0.13187,0.41757 -0.35478,0.62636 -0.66875,0.62636c-0.23861,0 -0.52118,-0.11146 -0.8477,-0.33437c-0.43641,-0.29827 -0.85242,-0.75352 -1.24801,-1.36575c-0.57769,0.65933 -1.24487,1.23702 -2.00152,1.73308l-0.70642,-0.77235c0.83828,-0.48351 1.57924,-1.10516 2.22287,-1.86495c-0.12245,-0.27943 -0.22449,-0.58083 -0.30612,-0.90421c-0.24175,-0.95759 -0.40658,-1.98112 -0.49449,-3.07058h-3.22599v1.18208h2.84452c-0.01253,1.62947 -0.09573,2.72835 -0.2496,3.29663c-0.08163,0.30768 -0.22449,0.52588 -0.42856,0.65461c-0.17269,0.10989 -0.42072,0.16483 -0.7441,0.16483c-0.1821,0 -0.51176,-0.02197 -0.98899,-0.0659l-0.16483,-0.96544c0.37048,0.05967 0.6813,0.0895 0.93247,0.0895c0.19466,0 0.32339,-0.06279 0.38618,-0.18838c0.11617,-0.23547 0.1978,-0.93561 0.24489,-2.10042h-1.83198c0.00333,1.956 -0.27923,3.43791 -0.8477,4.44574l-0.84771,-0.6923c0.26059,-0.4992 0.43955,-1.07846 0.53688,-1.73779c0.09105,-0.61223 0.13658,-1.36732 0.13658,-2.26525v-2.72679h4.182c-0.02513,-0.41757 -0.04553,-0.95758 -0.0612,-1.62005h1.04079c0,0.41129 0.01413,0.95131 0.0424,1.62005zM272.22924,175.64854h1.05963v1.29981h2.77859v0.90893h-2.77859v2.01565c0.10989,0.38617 0.16483,0.72996 0.16483,1.03137c0,1.11771 -0.24646,1.93873 -0.73939,2.46305c-0.53687,0.57456 -1.34533,0.97173 -2.42537,1.1915l-0.53688,-0.80061c0.83829,-0.16012 1.45994,-0.38617 1.86495,-0.67816c0.37989,-0.27629 0.63577,-0.65148 0.76764,-1.12557c-0.33594,0.36734 -0.73624,0.55101 -1.20091,0.55101c-0.52118,0 -0.94346,-0.14756 -1.26685,-0.44269c-0.37989,-0.3485 -0.56984,-0.85398 -0.56984,-1.51645c0,-0.3485 0.0832,-0.68444 0.2496,-1.00782c0.10989,-0.20722 0.24489,-0.3799 0.40501,-0.51804c0.37048,-0.31397 0.81474,-0.47095 1.33278,-0.47095c0.32966,0 0.62793,0.07849 0.8948,0.23547v-0.92776h-4.64824v-0.90893h4.64824zM272.26694,180.53696v-0.17425c0,-0.20093 -0.0471,-0.37832 -0.14129,-0.53217c-0.17582,-0.28885 -0.43013,-0.43327 -0.76293,-0.43327c-0.16954,0 -0.32809,0.0471 -0.47566,0.14129c-0.34536,0.21663 -0.51804,0.54943 -0.51804,0.9984c0,0.28257 0.06279,0.52119 0.18838,0.71584c0.17582,0.27001 0.43484,0.40502 0.77706,0.40502c0.31083,0 0.55729,-0.13972 0.73939,-0.41915c0.12873,-0.19779 0.19309,-0.4317 0.19309,-0.70171zM278.05017,175.9782h5.28402l0.50391,0.78177c-1.63261,0.99841 -3.04702,1.90576 -4.24323,2.72207c0.77235,-0.32338 1.54785,-0.48507 2.32648,-0.48507c0.70014,0 1.28411,0.11146 1.75192,0.33437c0.43327,0.20721 0.77079,0.48978 1.01254,0.8477c0.25117,0.3799 0.37676,0.81631 0.37676,1.30924c0,0.69072 -0.23547,1.26841 -0.70642,1.73308c-0.32339,0.32339 -0.73782,0.56828 -1.2433,0.73468c-0.66247,0.21663 -1.38773,0.32495 -2.17578,0.32495c-0.90735,0 -1.5761,-0.16797 -2.00623,-0.50391c-0.33594,-0.26373 -0.50391,-0.62008 -0.50391,-1.06905c0,-0.33908 0.12244,-0.64049 0.36733,-0.90422c0.37048,-0.39873 0.87125,-0.5981 1.50232,-0.5981c0.66875,0 1.20406,0.22448 1.60593,0.67345c0.29199,0.32653 0.50234,0.76451 0.63107,1.31394c0.96701,-0.30768 1.45052,-0.87595 1.45052,-1.70482c0,-0.62793 -0.26216,-1.09103 -0.78648,-1.3893c-0.35164,-0.20093 -0.79747,-0.3014 -1.33749,-0.3014c-0.80689,0 -1.53528,0.11146 -2.18519,0.33437c-0.48037,0.16326 -1.12557,0.55729 -1.9356,1.18208l-0.66403,-0.80061c0.87282,-0.75352 1.86652,-1.51802 2.98109,-2.29351c0.76921,-0.53374 1.44738,-0.97172 2.03449,-1.31395h-4.04072zM281.61995,183.37677c-0.22292,-0.88852 -0.6609,-1.33278 -1.31395,-1.33278c-0.36105,0 -0.62164,0.1146 -0.78177,0.34379c-0.07535,0.10361 -0.11302,0.21507 -0.11302,0.33438c0,0.24803 0.17582,0.43483 0.52746,0.56042c0.25431,0.08791 0.59496,0.13187 1.02195,0.13187c0.1821,0 0.40188,-0.01257 0.65933,-0.0377z" fill="#ffffff" stroke="none" stroke-width="3.96875"/><path d="M139.55487,221.46826v-82.93636h200.8903v82.93636z" fill="none" stroke="none" stroke-width="NaN"/></g></g></g></svg>