<svg xmlns="http://www.w3.org/2000/svg" id="svg1" version="1.1" height="200" width="1096">
  <defs id="defs1"></defs>
  <rect id="rect1" stroke="none" fill="none" height="200" width="1096" y="0" x="0"></rect>
  <path aria-label="胆振地方西部" style="font-weight:bold;font-size:110px;font-family:'BIZ UDPGothic';fill:#ff0000" id="text1" d="M 40.981445,60.571289 V 150.9668 q 0,4.88769 -2.363281,6.875 -1.987305,1.71875 -6.767578,1.71875 -5.102539,0 -10.419922,-0.75196 l -1.772461,-10.68847 q 4.02832,0.91308 8.486328,0.91308 1.987305,0 2.363281,-0.96679 0.268555,-0.69825 0.268555,-2.14844 V 121.96289 H 18.476562 q -0.161132,10.52734 -1.611328,18.36914 -1.826171,10.3125 -7.5195309,20.67871 L 0.859375,152.52441 q 4.3505859,-7.94921 5.9082031,-17.67089 1.4501953,-8.8086 1.4501953,-22.12891 V 60.571289 Z M 18.583984,70.776367 V 86.191406 H 30.776367 V 70.776367 Z m 0,25.19043 V 112.29492 H 30.776367 V 95.966797 Z M 99.633789,61.645508 V 133.83301 H 51.025391 V 61.645508 Z M 62.143555,71.52832 V 92.475586 H 88.300781 V 71.52832 Z m 0,30.50781 v 21.80664 h 26.157226 v -21.80664 z m -18.476563,44.36524 h 63.916018 v 10.20508 H 43.666992 Z M 125.84473,75.395508 v -19.44336 h 11.11816 v 19.44336 h 10.7959 v 10.90332 h -10.7959 v 16.757812 q 3.9209,-1.45019 9.66797,-3.867187 l 1.23535,10.419927 q -4.45801,2.04101 -10.90332,4.72656 v 36.20117 q 0,4.88769 -1.77246,7.08984 -2.09473,2.57813 -8.00293,2.57813 -5.63965,0 -11.01074,-0.9668 l -2.20215,-11.33301 q 5.4248,1.02051 9.29199,1.02051 1.82617,0 2.20215,-0.75195 0.37598,-0.59082 0.37598,-2.04102 v -27.60742 q -5.58594,1.87988 -11.11817,3.54492 l -3.27636,-11.11816 q 7.8955,-2.04102 14.39453,-4.08203 V 86.298828 h -12.7295 v -10.90332 z m 35.77148,-5.478516 v 30.346678 h 54.5166 v 9.88281 h -22.50488 q 1.23535,7.46582 4.24316,14.77051 5.3711,-5.58594 10.04395,-12.7832 l 8.48633,7.68066 q -5.47852,5.63965 -14.55567,12.7295 5.96192,9.39941 16.59668,16.86523 l -6.33789,9.99023 q -23.95508,-17.83203 -28.35937,-49.25293 h -5.96192 v 35.8252 q 7.57325,-2.04102 15.14649,-4.67285 l 0.59082,9.45312 q -10.95703,4.78028 -28.84278,9.66797 l -3.49121,-10.68847 q 0.85938,-0.16114 6.12305,-1.23536 v -38.34961 h -5.80078 q -0.21484,12.83692 -1.71875,22.93457 -2.14844,14.55567 -8.3252,27.33887 l -9.02343,-8.59375 q 5.4248,-11.11816 7.14355,-25.29785 1.23535,-10.04394 1.23535,-25.62012 V 59.819336 h 62.57324 v 10.097656 z m 4.51172,9.882813 h 42.00195 v 9.990234 h -42.00195 z m 110.16113,19.658203 v 42.539062 q 0,4.13574 3.54492,4.99512 3.65235,0.91308 16.70411,0.91308 12.72949,0 16.81152,-1.28906 2.30957,-0.75195 3.00781,-4.18945 0.91309,-4.83399 0.9668,-11.44043 l 11.22558,3.16894 Q 327.69043,150 324.19922,154.4043 q -2.30957,2.90039 -6.98242,3.4375 -7.3584,0.80566 -24.97559,0.80566 -13.64258,0 -17.88574,-0.75195 -6.3916,-1.07422 -8.11035,-5.63965 -0.85938,-2.41699 -0.85938,-6.44531 v -42.59278 l -10.25879,3.54493 -2.52441,-10.419927 12.7832,-4.404296 V 62.988281 h 10.90332 v 25.19043 l 11.54785,-3.920899 V 55.952148 h 10.7959 v 24.545899 l 17.99317,-6.176758 5.63964,3.4375 v 40.229491 q 0,4.18945 -1.9873,6.23047 -2.25586,2.25586 -7.57324,2.25586 -4.35059,0 -9.23828,-0.75195 l -1.77246,-10.25879 q 3.16894,0.80566 6.44531,0.80566 2.36328,0 2.90039,-0.9668 0.53711,-0.80566 0.53711,-2.68554 V 87.211914 l -12.94434,4.511719 v 43.452147 h -10.7959 V 95.429687 Z M 236.81152,81.894531 V 55.952148 h 11.54785 v 25.942383 h 10.41993 v 10.903321 h -10.41993 v 34.160158 q 5.63965,-1.9336 11.17188,-4.02832 l 1.02051,10.36621 q -17.40235,7.94922 -35.71778,13.32031 l -3.75976,-11.44043 q 8.27148,-2.14844 14.50195,-4.08203 0.75195,-0.26855 1.23535,-0.37598 V 92.797852 H 223.16895 V 81.894531 Z m 145.3418,3.007813 q -0.37598,8.969726 -1.07422,15.791016 h 43.29102 q -0.80567,37.27539 -4.18946,48.39355 -1.71875,5.58594 -6.3916,7.73438 -3.65234,1.66504 -10.68847,1.66504 -7.41211,0 -16.81153,-1.12793 l -2.09472,-12.08496 q 12.62207,1.77246 17.77832,1.77246 4.35058,0 5.53222,-2.4707 2.84668,-6.01563 3.97461,-33.19336 h -31.95801 q -1.77246,9.66796 -4.99511,16.75781 -8.96973,19.60449 -29.97071,31.09863 l -8.48632,-9.45312 q 21.05468,-10.95704 27.82226,-28.73536 4.51172,-11.87011 5.85449,-36.147456 H 334.18945 V 73.891602 h 43.88184 V 55.952148 h 12.40723 v 17.939454 h 45.33203 v 11.010742 z m 93.24219,1.71875 V 71.582031 H 443.38379 V 61.21582 h 103.28613 v 10.366211 h -35.50293 v 15.039063 h 30.13184 v 72.402346 h -11.65528 v -7.57324 h -69.34082 v 7.57324 H 448.75488 V 86.621094 Z m 11.11816,0 h 13.53516 V 71.582031 h -13.53516 z m -11.17187,9.77539 h -15.03907 v 44.848636 h 69.34082 v -16.11328 h -20.35644 q -9.23828,0 -9.23828,-9.23829 V 96.396484 h -13.64258 q -0.21484,13.212896 -3.97461,21.162106 -3.54492,7.57325 -13.96484,14.98536 l -7.41211,-8.27149 q 9.99023,-6.12305 12.62207,-15.14648 1.39648,-4.83399 1.66504,-12.729496 z m 35.82519,0 v 16.435546 q 0,2.09473 1.87988,2.09473 h 16.59668 V 96.396484 Z m 77.23633,-28.037109 h 22.98828 v 10.366211 h -7.57324 q -2.04102,8.217773 -5.47852,17.241211 h 14.34082 v 10.366213 h -59.9414 V 95.966797 h 13.15918 Q 563.75,85.654297 561.38672,78.725586 H 554.4043 V 68.359375 h 22.77343 V 55.952148 h 11.22559 z m -16.16699,10.366211 q 2.73926,8.00293 4.24316,17.241211 h 10.95703 l 0.53711,-1.503906 q 2.30957,-6.123047 4.29688,-13.911133 l 0.4834,-1.826172 z m 33.30078,36.630864 v 43.98925 h -11.01074 v -5.26367 H 571.1084 v 6.3916 h -11.33301 v -45.11718 z m -34.42871,9.88281 v 18.63769 h 23.41797 v -18.63769 z m 71.75781,-27.124026 q 6.3916,6.069336 10.15137,14.448246 3.70605,8.3789 3.70605,16.97265 0,7.94922 -2.9541,11.70899 -3.06152,3.9209 -10.09766,3.9209 -6.01562,0 -11.65527,-0.85938 l -2.63183,-11.44043 q 6.49902,1.18164 10.74218,1.18164 3.22266,0 4.02832,-1.5039 0.53711,-1.07422 0.53711,-4.29688 0,-13.2666 -7.94922,-22.88086 -2.09472,-2.52441 -5.26367,-5.424804 l 0.64453,-1.503906 q 5.58594,-12.62207 8.70118,-26.318359 h -13.75 V 160.47363 H 615.95703 V 61.000977 h 32.33399 l 5.96191,5.478515 q -5.42481,18.476563 -11.38672,31.635742 z"></path>
</svg>
