<svg xmlns="http://www.w3.org/2000/svg" id="svg1" version="1.1" height="200" width="1096">
  <defs id="defs1"></defs>
  <rect id="rect1" stroke="none" fill="none" height="200" width="1096" y="0" x="0"></rect>
  <path aria-label="愛知県西部" style="font-weight:bold;font-size:110px;font-family:'BIZ UDPGothic';fill:#ff0000" id="text1" d="m 85.454102,79.692383 h 19.228518 v 22.021487 h -9.614261 q 3.168946,4.67285 6.069341,9.99023 l -10.312505,5.53223 Q 84.21875,104.02344 77.397461,95.751953 l 9.453125,-4.511719 q 3.4375,3.97461 6.176758,7.573243 v -10.3125 H 57.363281 q 4.56543,4.726562 9.453125,12.192383 l -9.667969,5.96191 Q 53.764648,99.887695 47.695312,92.583008 l 7.250977,-4.082031 H 16.918945 V 101.71387 H 5.2636719 V 79.692383 H 23.632812 q -1.665039,-4.082031 -4.243164,-8.486328 -2.363281,0.107422 -8.002929,0.375976 L 6.875,62.558594 q 50.004883,-1.235352 83.251953,-7.197266 l 8.486328,7.949219 q -7.788086,1.289062 -14.34082,2.202148 l 7.841797,2.309571 q -1.933594,4.511718 -6.660156,11.870117 z m -11.655274,0 q 4.02832,-7.304688 6.445313,-13.642578 -10.419922,1.396484 -23.364258,2.470703 3.383789,5.263672 5.424804,11.171875 z m -23.095703,0 Q 48.662109,74.804687 45.27832,69.379883 L 30.9375,70.507812 q 3.168945,5.15625 4.619141,9.184571 z M 32.65625,133.18848 q -9.506836,6.01562 -20.678711,9.99023 l -6.7138671,-8.70117 q 20.8398441,-6.3916 33.3544921,-18.79883 -4.189453,-1.71875 -4.189453,-5.85449 V 92.583008 h 11.44043 V 104.3457 q 0,2.84668 1.396484,3.4375 1.342773,0.53711 9.936523,0.53711 9.72168,0 10.84961,-1.18164 1.342773,-1.39648 1.450195,-7.734373 l 10.419922,2.631833 q 0.05371,0.53711 0.05371,1.02051 0,6.98242 -2.202149,10.20508 -1.557617,2.30957 -6.069335,2.84668 -5.908204,0.75195 -16.542969,0.75195 -2.25586,0 -4.135742,-0.0537 -2.041016,2.52441 -4.082032,4.56543 h 37.758789 l 4.941407,4.94141 q -8.808594,9.3457 -20.893555,16.2207 15.844727,4.99512 38.67188,7.14355 l -6.82129,10.52735 q -23.310551,-3.38379 -43.398442,-11.60156 -21.21582,9.93652 -47.749023,13.2666 l -6.1767578,-9.66797 q 22.1826168,-1.77246 42.7001948,-9.13086 -7.304687,-4.29688 -13.320312,-9.88281 z m 24.599609,5.10254 q 0.322266,-0.10743 1.396485,-0.69825 7.143554,-3.81347 12.514648,-8.05664 h -28.68164 q 6.982421,5.15625 14.770507,8.75489 z M 10.634766,113.36914 q 5.317382,-6.82129 9.882812,-20.463867 l 10.473633,3.061524 Q 27.5,109.87793 20.732422,119.11621 Z M 148.72559,79.155273 v 20.141602 h 17.56347 v 10.366215 h -17.72461 q -0.26855,5.31738 -0.96679,10.68847 10.95703,9.07715 20.24902,20.24903 l -7.73438,10.63476 q -6.23046,-9.61426 -15.2539,-19.01367 -2.09473,6.23047 -6.23047,12.67578 -6.28418,9.77539 -15.68359,15.79102 l -8.27149,-9.45313 q 20.625,-12.35351 22.45117,-41.57226 H 113.81348 V 99.296875 h 23.5791 V 79.155273 h -6.3916 q -3.75977,8.916016 -9.23828,16.381836 l -8.8086,-7.143554 q 9.29199,-12.03125 13.21289,-32.441407 l 11.54785,1.71875 q -1.55761,6.606446 -2.90039,10.795899 h 29.27246 v 10.688476 z m 64.13086,-12.084961 v 88.784178 h -11.54786 v -7.08984 h -20.24902 v 8.16406 H 169.61914 V 67.070312 Z m -31.79688,10.795899 v 60.102539 h 20.24902 V 77.866211 Z M 312.16797,58.583984 V 110.62988 H 248.25195 V 58.583984 Z m -52.36817,8.486328 v 6.713868 h 40.7129 v -6.713868 z m 0,14.28711 v 6.713867 h 40.7129 v -6.713867 z m 0,14.287109 v 6.928709 h 40.7129 v -6.928709 z m -21.6455,22.128909 h 89.05273 v 9.3457 h -44.41894 v 33.35449 H 270.5957 V 127.11914 H 226.3916 V 66.855469 h 11.7627 z m -13.75,32.4414 q 12.7832,-5.9082 24.43847,-19.81933 l 9.88282,5.74707 q -11.49414,14.55566 -25.5127,22.88086 z m 92.59765,6.92871 q -8.21777,-10.09765 -24.70703,-21.21582 l 9.23828,-6.49902 q 12.94434,7.46582 25.40528,19.60449 z M 365.39551,86.621094 V 71.582031 H 333.38379 V 61.21582 h 103.28613 v 10.366211 h -35.50293 v 15.039063 h 30.13184 v 72.402346 h -11.65528 v -7.57324 h -69.34082 v 7.57324 H 338.75488 V 86.621094 Z m 11.11816,0 h 13.53516 V 71.582031 h -13.53516 z m -11.17187,9.77539 h -15.03907 v 44.848636 h 69.34082 v -16.11328 h -20.35644 q -9.23828,0 -9.23828,-9.23829 V 96.396484 h -13.64258 q -0.21484,13.212896 -3.97461,21.162106 -3.54492,7.57325 -13.96484,14.98536 l -7.41211,-8.27149 q 9.99023,-6.12305 12.62207,-15.14648 1.39648,-4.83399 1.66504,-12.729496 z m 35.82519,0 v 16.435546 q 0,2.09473 1.87988,2.09473 h 16.59668 V 96.396484 Z m 77.23633,-28.037109 h 22.98828 v 10.366211 h -7.57324 q -2.04102,8.217773 -5.47852,17.241211 h 14.34082 v 10.366213 h -59.9414 V 95.966797 h 13.15918 Q 453.75,85.654297 451.38672,78.725586 H 444.4043 V 68.359375 h 22.77343 V 55.952148 h 11.22559 z m -16.16699,10.366211 q 2.73926,8.00293 4.24316,17.241211 h 10.95703 l 0.53711,-1.503906 q 2.30957,-6.123047 4.29688,-13.911133 l 0.4834,-1.826172 z m 33.30078,36.630864 v 43.98925 h -11.01074 v -5.26367 H 461.1084 v 6.3916 h -11.33301 v -45.11718 z m -34.42871,9.88281 v 18.63769 h 23.41797 v -18.63769 z m 71.75781,-27.124026 q 6.3916,6.069336 10.15137,14.448246 3.70605,8.3789 3.70605,16.97265 0,7.94922 -2.9541,11.70899 -3.06152,3.9209 -10.09766,3.9209 -6.01562,0 -11.65527,-0.85938 l -2.63183,-11.44043 q 6.49902,1.18164 10.74218,1.18164 3.22266,0 4.02832,-1.5039 0.53711,-1.07422 0.53711,-4.29688 0,-13.2666 -7.94922,-22.88086 -2.09472,-2.52441 -5.26367,-5.424804 l 0.64453,-1.503906 q 5.58594,-12.62207 8.70118,-26.318359 h -13.75 V 160.47363 H 505.95703 V 61.000977 h 32.33399 l 5.96191,5.478515 q -5.42481,18.476563 -11.38672,31.635742 z"></path>
</svg>
