<svg xmlns="http://www.w3.org/2000/svg" id="svg1" version="1.1" height="200" width="990">
  <defs id="defs1"></defs>
  <rect id="rect1" stroke="none" fill="none" height="200" width="990" y="0" x="0"></rect>
  <path aria-label="西表島付近" style="font-size:100px;font-family:'BIZ UDPGothic';fill:#ff0000" id="text1" d="M 33.59375,93.701172 V 77.197266 H 2.7832031 V 70.3125 H 97.167969 v 6.884766 H 63.28125 V 93.701172 H 91.064453 V 157.8125 h -7.8125 V 150 H 16.601562 v 7.8125 H 8.8867188 V 93.701172 Z m 7.519531,0 H 55.761719 V 77.197266 H 41.113281 Z m -7.568359,6.591798 h -16.94336 v 42.91992 H 83.251953 V 125.97656 H 63.085937 q -7.324218,0 -7.324218,-6.59179 v -19.0918 H 41.064453 q -0.439453,10.5957 -3.125,16.89453 -3.808594,8.93555 -14.941406,15.52734 l -4.980469,-5.61523 q 10.400391,-5.41992 13.525391,-14.50195 1.513672,-4.44336 2.001953,-12.30469 z m 29.736328,0 v 16.50391 q 0,1.51367 0.585937,1.95312 0.53711,0.43945 1.806641,0.43945 h 17.578125 v -18.89648 z m 86.2793,11.81641 q -5.61524,6.29882 -13.42774,11.66992 v 24.85351 q 11.81641,-2.34375 27.68555,-7.32422 l 0.68359,6.5918 q -20.50781,7.17773 -45.11718,11.81641 l -2.78321,-7.32422 q 7.27539,-1.17188 11.71875,-2.09961 v -21.77735 q -9.42383,5.17579 -21.82617,9.66797 l -4.29687,-6.49414 q 24.3164,-7.32422 38.42773,-19.58007 h -38.13477 v -6.29883 h 43.21289 v -9.619144 h -32.81249 v -6.396484 h 32.81249 v -8.691406 h -38.18359 v -6.494141 h 38.18359 V 64.501953 h 7.71485 v 10.107422 h 38.96484 v 6.494141 h -38.96484 v 8.691406 h 33.59375 v 6.396484 h -33.59375 v 9.619144 h 44.0918 v 6.29883 h -40.72266 q 3.66211,9.27734 9.22851,16.35742 10.54688,-7.17774 18.60352,-15.77149 l 6.68945,5.12696 q -7.8125,7.08007 -20.94726,15.52734 9.91211,9.81445 27.24609,16.45508 l -4.83398,7.17773 q -12.8418,-5.66406 -20.75196,-11.96289 -15.38086,-12.1582 -22.46093,-32.91015 z m 118.45703,37.10937 h -53.8086 v 5.71289 h -7.71484 v -23.0957 h 7.71484 v 11.18164 h 19.0918 v -14.69727 h -19.0918 V 73.291016 h 23.97461 q 3.36914,-4.931641 5.41993,-9.179688 l 8.6914,2.001953 q -2.39258,3.515625 -5.46875,7.177735 h 35.25391 v 30.517574 h -59.96094 v 6.00586 h 75.3418 v 6.10352 h -75.3418 v 6.29883 h 70.94727 q -0.73243,23.87695 -3.32032,30.71289 -1.5625,4.19922 -5.51757,5.66406 -2.5879,0.92773 -6.83594,0.92773 -6.15235,0 -11.76758,-0.8789 l -1.61133,-7.22656 q 6.73828,1.02539 12.10938,1.02539 4.24804,0 5.37109,-1.95313 2.24609,-3.90625 3.36914,-22.16797 h -43.94531 v 14.69727 h 19.58008 v -11.18164 h 7.51953 z M 222.11914,79.296875 v 6.298828 h 52.09961 v -6.298828 z m 0,12.011719 v 6.689453 h 52.09961 v -6.689453 z m 103.36914,-1.123047 v 69.335933 h -7.71484 v -55.37109 q -0.19532,0.29297 -0.48828,0.73242 -4.39454,7.17774 -10.88868,14.69727 l -4.10156,-7.37305 q 9.76563,-11.32812 16.35742,-25.195311 4.73633,-9.91211 8.83789,-22.900391 l 7.61719,2.099609 q -4.49219,13.427735 -9.61914,23.97461 z m 55.22461,-2.001953 h 16.60156 v 7.177734 h -16.60156 v 54.541012 q 0,5.17578 -2.49023,7.17774 -2.09961,1.61133 -7.76368,1.61133 -7.91015,0 -14.74609,-0.6836 L 354.10156,150 q 8.44727,1.2207 15.625,1.2207 2.14844,0 2.68555,-0.78125 0.39062,-0.63476 0.39062,-2.4414 V 95.361328 h -42.72461 v -7.177734 h 42.72461 V 65.283203 h 7.91016 z m -28.41797,45.410156 q -5.71289,-14.30664 -13.81836,-26.07422 l 6.49414,-4.19922 q 8.39844,12.35352 14.20899,25.87891 z m 74.21875,4.73633 q 4.29688,4.44336 9.81445,7.22656 8.59375,4.3457 23.58399,4.3457 h 38.37891 q -1.41602,2.88086 -2.49024,6.88477 H 459.7168 q -16.35743,0 -25.63477,-4.58984 -5.56641,-2.78321 -10.74219,-8.20313 -8.34961,9.57031 -16.25976,15.47852 l -4.58985,-7.08008 q 7.95899,-4.98047 16.40625,-12.5 v -25.6836 h -16.21093 v -6.7871 h 23.82812 z M 440.9668,74.21875 q 1.70898,-0.146484 3.71093,-0.292969 21.92383,-1.80664 39.99024,-7.617187 l 5.61523,6.103515 q -17.91992,5.371094 -41.60156,7.763672 v 14.941406 h 47.41211 v 6.884763 h -17.91992 v 43.40821 h -7.8125 v -43.40821 h -21.67969 q 0,13.52539 -1.17187,22.07032 -1.5625,11.4746 -6.83594,20.21484 l -6.49414,-5.17578 q 4.78515,-8.30078 6.00586,-19.33594 0.78125,-7.27539 0.78125,-20.654296 z m -18.35938,14.697266 q -7.51953,-9.960938 -15.52734,-17.138672 l 5.51758,-4.6875 q 8.20312,6.689453 15.96679,16.308593 z"></path>
</svg>
