<svg xmlns="http://www.w3.org/2000/svg" id="svg1" version="1.1" height="200" width="1096">
  <defs id="defs1"></defs>
  <rect id="rect1" stroke="none" fill="none" height="200" width="1096" y="0" x="0"></rect>
  <path aria-label="オホーツク海南部" style="font-weight:bold;font-size:110px;font-family:'BIZ UDPGothic';fill:#ff0000" id="text1" d="M 61.982422,59.335937 H 74.282227 V 80.014648 H 99.794922 V 91.025391 H 74.282227 v 53.120119 q 0,5.9082 -2.094727,8.54004 -2.416992,3.11523 -9.882813,3.11523 -8.432617,0 -16.596679,-0.53711 L 42.807617,143.6084 q 8.432617,0.75195 15.952149,0.75195 2.524414,0 2.954101,-1.12793 0.268555,-0.64453 0.268555,-1.93359 V 96.503906 Q 51.508789,111.81152 39.047852,123.68164 27.768555,134.42383 11.870117,143.28613 L 4.1894531,132.8125 Q 33.891602,117.71973 53.603516,91.025391 H 6.4990234 V 80.014648 H 61.982422 Z M 150.82031,58.90625 h 12.08496 v 19.819336 h 40.49805 V 89.521484 H 162.90527 V 156.92871 H 150.82031 V 89.521484 H 111.18164 V 78.725586 h 39.63867 z m -42.80761,82.60742 q 11.87011,-15.52246 15.95214,-40.55176 l 11.7627,3.16895 q -4.94141,29.00391 -17.02637,45.6543 z m 87.65625,6.82129 q -12.08497,-18.1543 -19.98047,-45.1709 l 11.54785,-3.867185 q 6.55273,22.451175 19.33594,41.894535 z m 21.00097,-48.07129 h 94.58496 v 12.08496 h -94.58496 z m 117.68067,8.27149 Q 329.30176,87.749023 322.48047,72.763672 L 333.70605,67.5 q 7.51954,16.05957 12.51465,36.52344 z m 29.70214,-5.63965 q -4.35058,-18.422854 -11.333,-35.717776 l 11.44043,-4.61914 q 6.76757,14.985351 11.65527,35.825195 z m -19.22851,41.57226 q 19.71191,-5.80078 30.72265,-15.20019 8.64747,-7.30469 13.58887,-17.77832 7.89551,-16.596682 11.01074,-47.856448 l 12.29981,3.4375 q -3.11524,25.512696 -8.00293,39.960938 -6.82129,20.19531 -21.37695,32.01172 -12.2461,9.93652 -31.4209,15.89844 z m 156.83594,-71.81152 8.3789,6.928711 q -6.06933,33.945309 -22.29004,51.884769 -14.7705,16.32812 -44.47265,25.24414 l -6.71387,-10.90332 q 27.23145,-6.875 41.46484,-22.23633 13.80371,-14.82422 18.47657,-39.907228 h -36.20118 q -11.27929,17.080078 -26.47949,27.285158 l -8.80859,-8.91602 q 12.35351,-7.949216 20.1416,-17.294919 8.80859,-10.634766 13.75,-25.620117 l 11.65527,3.168945 q -1.93359,5.639648 -4.18945,10.366211 z M 615.7959,85.117187 q 0,2.524415 -0.4834,23.955083 h 10.25879 v 9.66796 h -10.47363 q -0.16114,7.03614 -0.69825,15.95215 h 9.07715 v 9.45313 h -9.77539 q -0.64453,7.78808 -1.77246,10.3125 -2.52441,6.01562 -12.24609,6.01562 -6.23047,0 -11.49414,-0.91308 L 586.20117,150 q 7.57324,1.07422 11.60156,1.07422 3.27637,0 3.9209,-2.30957 0.32227,-1.12793 0.59082,-4.61914 h -38.24218 q -0.0537,0.42969 -0.16114,0.91308 -0.4834,2.84668 -0.91308,5.3711 l -11.11817,-1.07422 q 3.27637,-19.38965 4.4043,-29.32617 l 0.16113,-1.28907 h -10.74219 v -9.66796 h 11.87012 q 1.50391,-12.998051 2.57813,-23.955083 z m -33.94531,9.345704 h -11.7627 q -0.16113,2.739257 -0.9668,11.547849 l -0.32226,3.06153 h 11.92383 l 0.16113,-1.50391 q 0.10742,-1.55762 0.32226,-4.35059 0.53711,-7.519528 0.64454,-8.754879 z m 10.58105,0 q -0.26855,6.391599 -0.80566,14.125979 v 0.4834 h 12.62207 q 0.21484,-7.3584 0.37597,-14.609379 z m -12.56836,24.277339 h -12.08496 q -0.80566,6.55274 -1.71875,12.94434 l -0.42969,3.00781 h 12.56836 q 1.28906,-11.65527 1.66504,-15.95215 z m 11.01074,0 q -0.16113,2.14844 -0.64453,7.08985 l -0.85937,8.8623 h 13.69629 q 0.26855,-5.20996 0.42968,-7.84179 0.32227,-5.74707 0.42969,-8.11036 z M 569.81934,65.727539 h 51.88476 v 9.990234 h -56.34277 q -4.35059,8.862305 -11.06446,16.865235 l -7.68066,-8.378906 q 10.58106,-12.407227 15.03906,-28.574219 l 11.44043,1.18164 q -1.93359,5.585938 -3.27636,8.916016 z m -29.59473,15.629883 q -6.60645,-9.077149 -16.05957,-17.026367 l 8.11035,-7.841797 q 8.75488,6.445312 16.65039,16.274414 z M 536.35742,109.7168 Q 528.19336,99.243164 519.86816,92.15332 l 8.37891,-8.05664 q 9.3457,7.358398 16.81152,16.75781 z m -14.60937,42.16308 q 9.3457,-12.94433 17.72461,-34.10644 l 9.56054,6.82129 q -6.98242,19.55078 -17.93945,35.8789 z M 677.13379,120.5127 h -22.23633 v -8.8086 h 10.74219 q -2.41699,-5.47851 -5.47852,-10.20508 l 9.66797,-3.544918 q 4.18945,7.036128 6.76758,13.749998 h 12.62207 q 3.16895,-6.49902 5.58594,-13.964842 l 10.7959,3.383792 q -2.73926,5.9082 -5.80079,10.58105 h 11.54786 v 8.8086 h -22.98829 v 7.84179 h 24.49219 v 9.13086 h -24.49219 v 20.30274 h -11.22558 v -20.30274 h -23.5791 v -9.13086 h 23.5791 z m 11.54785,-33.085942 h 40.71289 v 62.788082 q 0,5.53223 -2.9541,7.78809 -2.4707,1.93359 -8.3252,1.93359 -7.57324,0 -14.60937,-0.80566 l -2.63184,-10.7959 q 9.39942,1.12793 14.07227,1.12793 1.93359,0 2.25586,-0.9668 0.21484,-0.59082 0.21484,-1.66504 V 96.772461 H 648.77441 V 160.47363 H 636.79687 V 87.426758 h 40.01465 v -9.72168 h -45.97656 v -9.990234 h 45.97656 V 55.952148 h 11.87012 v 11.762696 h 46.62109 v 9.990234 h -46.62109 z m 87.81738,-19.067383 h 22.98828 v 10.366211 h -7.57324 q -2.04101,8.217773 -5.47851,17.241211 h 14.34082 V 106.33301 H 740.83496 V 95.966797 h 13.15918 q -2.14844,-10.3125 -4.51172,-17.241211 H 742.5 V 68.359375 h 22.77344 V 55.952148 h 11.22558 z m -16.16699,10.366211 q 2.73926,8.00293 4.24317,17.241211 h 10.95703 l 0.53711,-1.503906 q 2.30957,-6.123047 4.29687,-13.911133 l 0.4834,-1.826172 z m 33.30078,36.630864 v 43.98925 h -11.01074 v -5.26367 H 759.2041 v 6.3916 h -11.33301 v -45.11718 z m -34.42871,9.88281 v 18.63769 h 23.41797 v -18.63769 z m 71.75781,-27.124026 q 6.39161,6.069336 10.15137,14.448246 3.70606,8.3789 3.70606,16.97265 0,7.94922 -2.95411,11.70899 -3.06152,3.9209 -10.09765,3.9209 -6.01563,0 -11.65528,-0.85938 l -2.63183,-11.44043 q 6.49902,1.18164 10.74219,1.18164 3.22265,0 4.02832,-1.5039 0.53711,-1.07422 0.53711,-4.29688 0,-13.2666 -7.94922,-22.88086 -2.09473,-2.52441 -5.26367,-5.424804 l 0.64453,-1.503906 q 5.58593,-12.62207 8.70117,-26.318359 h -13.75 V 160.47363 H 804.05273 V 61.000977 h 32.33399 l 5.96191,5.478515 q -5.4248,18.476563 -11.38672,31.635742 z"></path>
</svg>
