<svg xmlns="http://www.w3.org/2000/svg" id="svg1" version="1.1" height="200" width="1096">
  <defs id="defs1"></defs>
  <rect id="rect1" stroke="none" fill="none" height="200" width="1096" y="0" x="0"></rect>
  <path aria-label="小笠原諸島西方沖" style="font-weight:bold;font-size:110px;font-family:'BIZ UDPGothic';fill:#ff0000" id="text1" d="M 48.876953,57.026367 H 61.391602 V 146.5625 q 0,6.98242 -2.416993,9.61426 -2.685547,2.9541 -11.279297,2.9541 -7.734375,0 -16.435546,-0.80566 l -2.739258,-12.51465 q 13.374023,1.66504 18.154297,1.23535 2.202148,-0.21485 2.202148,-3.22266 z m 46.40625,80.781253 Q 85.561523,99.780273 76.484375,79.262695 L 87.817383,74.428711 Q 99.257812,97.84668 107.36816,131.30859 Z M 1.5576172,130.87891 Q 12.246094,112.93945 17.080078,77.490234 l 12.299805,2.792969 q -3.4375,23.740237 -8.378906,38.886717 -3.706055,11.2793 -9.077149,20.03418 z M 150.87402,78.40332 q 3.4375,5.639649 5.63965,11.225586 l -11.22558,3.867188 Q 141.04492,83.022461 138.57422,78.40332 h -4.99512 q -4.56543,8.540039 -10.84961,15.415039 l -9.23828,-8.164062 q 11.11817,-10.90332 16.75781,-30.239258 l 11.65528,2.202148 q -2.09473,6.875 -3.81348,11.118165 h 24.92188 v 9.667968 z m 44.79493,0 q 2.9541,4.189453 6.60644,10.795899 l -11.01074,4.296875 Q 188.0957,85.922852 183.53027,78.40332 h -5.96191 q -3.49121,7.197266 -8.05664,13.320313 l -8.8086,-6.928711 q 9.56055,-11.870117 12.62208,-28.842774 l 11.22558,1.665039 q -1.34277,6.069336 -3.00781,11.118165 h 32.28027 v 9.667968 z m -24.97559,23.52539 h 41.84082 v 9.66797 h -95.06836 v -9.66797 h 41.03516 v -9.667968 h 12.19238 z m 3.33008,44.04297 q 6.23047,-14.39453 11.33301,-33.35449 l 12.19238,4.08203 q -4.45801,14.93164 -10.90332,29.27246 h 30.61523 v 9.99023 H 112.73926 v -9.99023 z m -34.32129,-0.80566 q -3.65235,-18.20801 -8.27149,-29.16504 l 11.65528,-3.27637 q 5.4248,12.62207 9.23828,29.11133 z M 283.27148,80.283203 h 33.30079 v 42.539067 h -26.04981 v 29.27246 q 0,4.61914 -2.20215,6.49902 -2.20215,1.87988 -8.11035,1.87988 -7.78809,0 -13.80371,-1.02051 l -1.71875,-9.99023 q 6.98242,1.12793 10.09766,1.12793 2.90039,0 3.54492,-0.4834 0.64453,-0.4834 0.64453,-2.09472 V 122.82227 H 251.36719 V 80.283203 h 20.35644 q 1.66504,-3.920898 3.9209,-10.151367 h -32.87109 v 25.297851 q 0,25.673833 -2.73926,40.605473 -2.36328,12.99804 -8.27148,23.84765 l -9.56055,-8.11035 q 5.47851,-11.01074 7.3584,-24.92187 1.45019,-10.7959 1.45019,-27.124028 V 60.249023 h 92.59766 v 9.882813 h -35.44922 q -2.09473,4.833984 -4.8877,10.151367 z m 21.64551,8.701172 H 262.7002 v 8.110352 h 42.21679 z M 262.7002,105.7959 v 8.32519 h 42.21679 v -8.32519 z m 55.5371,50.48828 q -7.84179,-12.03125 -19.06738,-23.41797 l 8.37891,-6.49902 q 11.33301,10.3125 19.49707,22.18261 z m -77.55859,-6.60645 q 11.11816,-9.72168 17.13379,-22.98828 l 9.50684,4.83399 q -6.875,14.98535 -18.26172,25.62011 z m 131.26953,-26.21093 -3.22265,-4.56543 q 6.12304,-3.16895 12.13867,-7.41211 10.47363,-7.30469 17.34863,-14.394533 h -26.0498 V 87.53418 h 21.26953 V 76.953125 h -14.93164 v -9.345703 h 14.93164 V 55.952148 h 10.90332 v 11.655274 h 10.47363 v 7.680664 q 4.78027,-7.841797 9.13086,-17.133789 l 9.56055,4.833984 Q 426.08887,77.167969 418.8916,87.53418 h 18.36914 v 9.560547 h -24.97558 q -3.97461,4.726563 -10.36621,10.581053 h 26.85546 v 52.79785 h -11.01074 v -5.53222 h -23.74023 v 5.53222 h -10.7959 v -38.40332 q -4.51172,3.00782 -8.54004,5.3711 l -2.41699,-3.49121 v 30.99121 h -25.67383 v 5.53222 H 336.01562 V 123.4668 Z m 41.78711,-46.513675 h -9.39941 V 87.53418 h 2.30957 q 2.30957,-3.168946 7.08984,-10.581055 z m -67.13867,55.751955 v 13.10547 h 15.09277 v -13.10547 z m 47.42676,-16.32813 v 10.20508 h 23.74023 v -10.20508 z m 0,18.90625 v 10.74219 h 23.74023 V 135.2832 Z M 337.78809,59.926758 h 32.4414 v 9.023437 h -32.4414 z m -5.04883,15.737304 h 40.82031 v 9.667969 h -40.82031 z m 5.04883,16.489258 h 32.4414 v 8.91602 h -32.4414 z m 0,15.73731 h 32.4414 v 8.70117 h -32.4414 z M 482.59277,64.116211 q 1.98731,-4.780274 3.22266,-9.130859 l 13.10547,1.77246 q -1.87988,4.458008 -3.4375,7.358399 h 35.77148 v 35.019531 h -64.88281 v 5.424808 h 80.83496 v 8.70117 h -80.83496 v 5.47851 h 77.0752 q -0.69825,24.59961 -3.11524,33.19336 -1.55762,5.47852 -5.85449,7.25098 -3.06152,1.28906 -9.3457,1.28906 -6.44532,0 -12.03125,-0.80566 l -2.14844,-9.02344 h -53.81836 v 5.96192 h -11.54785 v -25.83497 h 11.54785 v 11.06446 h 18.47656 v -14.50196 h -21.1084 V 64.116211 Z m 22.82715,77.719729 v -11.06446 h 11.11817 v 18.69141 q 4.458,0.42969 7.41211,0.42969 3.65234,0 4.56542,-2.09473 1.77247,-3.9209 2.79297,-20.46387 H 487.1582 v 14.50196 z M 466.37207,72.387695 v 5.317383 h 53.0127 v -5.317383 z m 0,12.998047 v 5.854492 h 53.0127 v -5.854492 z m 119.02344,1.235352 V 71.582031 H 553.38379 V 61.21582 h 103.28613 v 10.366211 h -35.50293 v 15.039063 h 30.13184 v 72.402346 h -11.65528 v -7.57324 h -69.34082 v 7.57324 H 558.75488 V 86.621094 Z m 11.11816,0 h 13.53516 V 71.582031 h -13.53516 z m -11.17187,9.77539 h -15.03907 v 44.848636 h 69.34082 v -16.11328 h -20.35644 q -9.23828,0 -9.23828,-9.23829 V 96.396484 h -13.64258 q -0.21484,13.212896 -3.97461,21.162106 -3.54492,7.57325 -13.96484,14.98536 l -7.41211,-8.27149 q 9.99023,-6.12305 12.62207,-15.14648 1.39648,-4.83399 1.66504,-12.729496 z m 35.82519,0 v 16.435546 q 0,2.09473 1.87988,2.09473 h 16.59668 V 96.396484 Z m 90.98633,-11.49414 q -0.37598,8.969726 -1.07422,15.791016 h 43.29102 q -0.80567,37.27539 -4.18946,48.39355 -1.71875,5.58594 -6.3916,7.73438 -3.65234,1.66504 -10.68847,1.66504 -7.41211,0 -16.81153,-1.12793 l -2.09472,-12.08496 q 12.62207,1.77246 17.77832,1.77246 4.35058,0 5.53222,-2.4707 2.84668,-6.01563 3.97461,-33.19336 h -31.95801 q -1.77246,9.66796 -4.99511,16.75781 -8.96973,19.60449 -29.97071,31.09863 l -8.48632,-9.45312 q 21.05468,-10.95704 27.82226,-28.73536 4.51172,-11.87011 5.85449,-36.147456 H 664.18945 V 73.891602 h 43.88184 V 55.952148 h 12.40723 v 17.939454 h 45.33203 v 11.010742 z m 121.54785,-8.916016 v -20.03418 h 11.54785 v 20.03418 h 29.11133 v 48.608402 h -29.11133 v 35.8789 h -11.54785 v -35.8789 H 805.18066 V 75.986328 Z m -17.40234,10.688477 v 27.338865 h 17.40234 V 86.674805 Z m 46.62109,27.338865 V 86.674805 h -17.6709 v 27.338865 z m -68.75,-31.796873 q -6.55273,-9.13086 -17.34863,-17.456055 l 8.00293,-8.164062 q 10.74219,7.573242 18.1543,16.972656 z m -3.49121,27.607423 q -9.3457,-10.849611 -18.1543,-17.778322 l 8.27149,-8.271484 q 9.39941,6.606445 18.58398,17.080076 z m -16.7041,41.62598 q 10.3125,-14.66309 19.01367,-36.52344 l 9.56055,7.3584 q -7.3584,20.1416 -17.93946,37.91992 z"></path>
</svg>
