<svg xmlns="http://www.w3.org/2000/svg" id="svg1" version="1.1" height="200" width="990">
  <defs id="defs1"></defs>
  <rect id="rect1" stroke="none" fill="none" height="200" width="990" y="0" x="0"></rect>
  <path aria-label="内浦湾" style="font-size:100px;font-family:'BIZ UDPGothic';fill:#ff0000" id="text1" d="M 45.703125,81.005859 V 64.501953 h 7.910156 v 16.503906 h 37.597656 v 67.675781 q 0,4.98047 -2.441406,7.03125 -2.246094,1.9043 -7.958984,1.9043 -8.740235,0 -17.382813,-0.63477 l -1.513672,-7.76367 Q 72.949219,150 79.443359,150 q 2.832032,0 3.466797,-1.26953 0.390625,-0.78125 0.390625,-2.34375 V 88.183594 H 53.564453 q -0.244141,6.640625 -1.708984,12.695316 l 0.830078,0.63476 q 15.820312,12.35352 27.832031,26.17188 l -5.908203,5.81054 Q 64.990234,121.875 49.707031,107.66602 q -6.49414,16.69921 -26.02539,28.22265 l -4.785157,-6.29883 q 18.652344,-10.15625 24.21875,-27.14843 2.246094,-6.738285 2.539063,-14.257816 H 16.601562 V 158.69141 H 8.59375 V 81.005859 Z M 156.68945,94.091797 v -9.228516 h -30.27343 v -6.787109 h 30.27343 V 64.453125 h 7.32422 v 13.623047 h 33.4961 v 6.787109 h -33.4961 v 9.228516 h 27.39258 v 57.910153 q 0,4.15039 -2.29492,5.66407 -1.85547,1.2207 -6.20117,1.2207 -4.24805,0 -9.32618,-0.58594 l -1.36718,-7.17773 q 5.46875,0.78125 9.27734,0.78125 2.00195,0 2.44141,-1.26953 0.14648,-0.48829 0.14648,-1.31836 v -15.03907 h -20.06836 v 22.70508 h -7.32422 v -22.70508 h -18.16406 v 25.24414 h -7.32422 V 94.091797 Z m 0,6.298833 h -18.16406 v 10.30273 h 18.16406 z m 7.32422,0 v 10.30273 h 20.06836 v -10.30273 z m -7.32422,16.40625 h -18.16406 v 11.37695 h 18.16406 z m 7.32422,0 v 11.37695 h 20.06836 V 116.79688 Z M 119.18945,86.181641 q -6.54297,-8.740235 -14.16015,-15.38086 l 5.46875,-5.224609 q 8.20312,7.128906 14.30664,14.84375 z m -2.97851,25.537109 q -7.42188,-9.27734 -14.4043,-15.429688 l 5.32227,-5.371093 q 7.95898,6.640625 14.79492,14.990231 z m -12.5,41.60156 q 8.64258,-13.28125 15.38086,-33.39843 l 6.59179,4.29687 q -6.29882,19.77539 -15.2832,34.57031 z m 80.81054,-75.537107 q -5.81054,-5.371094 -12.20703,-9.667969 l 5.61524,-3.710937 q 6.05468,3.808594 12.1582,9.277344 z m 80.56641,-4.199219 h 32.12891 v 6.298828 h -23.38868 v 19.189454 q 0,3.076174 -1.5625,4.492184 -1.5625,1.41602 -5.66406,1.41602 -5.02929,0 -8.49609,-0.48828 l -1.12305,-6.298831 q 4.39453,0.683594 7.4707,0.683594 1.61133,0 1.9043,-1.171875 0.14649,-0.537109 0.14649,-1.416016 v -16.40625 h -10.64454 q -0.43945,9.91211 -2.24609,14.794922 -2.63672,6.982426 -12.01172,11.914066 l -5.07812,-4.83399 q 8.49609,-4.052732 10.69336,-10.058591 1.46484,-4.003907 1.61132,-11.816407 h -21.82617 v -6.298828 h 30.32227 v -9.082031 h 7.76367 z m 24.60938,35.009766 v 18.79883 h -49.60938 q -0.53711,3.90625 -1.31836,7.32422 h 55.32227 q -0.97657,12.30468 -3.41797,18.01757 -1.66016,3.95508 -5.95703,5.56641 -3.32032,1.2207 -9.22852,1.2207 -7.91016,0 -15.86914,-0.78125 l -1.70898,-7.03125 q 10.69336,1.12305 17.48046,1.12305 4.19922,0 5.66407,-0.97656 2.58789,-1.70899 4.15039,-11.03516 h -47.94922 q -0.73242,2.68555 -1.66016,5.71289 l -7.71484,-1.80664 q 2.92969,-8.64258 5.32226,-23.24218 h 48.68165 v -6.98243 h -52.39258 v -5.9082 z M 219.18945,86.083984 q -6.29883,-8.349609 -13.96484,-15.08789 l 5.37109,-4.980469 q 7.37305,5.810547 14.20899,14.501953 z m -3.07617,25.439456 q -7.4707,-9.13086 -14.50195,-15.136721 l 5.32226,-5.273438 q 7.56836,6.103516 14.79493,14.501949 z m -12.30469,41.69922 q 8.4961,-12.74414 15.91797,-33.39844 l 6.00586,4.39453 q -6.39648,19.28711 -15.42969,34.66797 z m 87.89063,-50.14649 Q 284.86328,93.261719 276.9043,85.791016 l 5.32226,-3.90625 q 9.08203,7.666015 15.28321,16.699218 z m -69.28711,-4.589842 q 8.44726,-6.054687 13.62305,-15.478516 l 6.29882,2.587891 q -5.22461,10.546875 -14.50195,17.480467 z"></path>
</svg>
