<svg xmlns="http://www.w3.org/2000/svg" id="svg1" version="1.1" height="200" width="1096">
  <defs id="defs1"></defs>
  <rect id="rect1" stroke="none" fill="none" height="200" width="1096" y="0" x="0"></rect>
  <path aria-label="十勝地方北部" style="font-weight:bold;font-size:110px;font-family:'BIZ UDPGothic';fill:#ff0000" id="text1" d="M 48.500977,94.248047 V 55.952148 H 60.800781 V 94.248047 H 107.26074 V 105.47363 H 60.800781 v 55 H 48.500977 v -55 H 2.7392578 V 94.248047 Z M 194.9707,127.44141 h -11.44043 q -4.29687,23.20312 -26.15722,33.24707 l -7.62696,-8.37891 q 10.95703,-4.18945 16.65039,-11.97754 4.45801,-6.17676 6.06934,-12.89062 h -12.56836 v -5.74707 q -2.73926,2.41699 -6.28418,4.88769 l -4.83398,-7.14355 v 31.31347 q 0,4.72657 -1.9336,6.82129 -1.9873,2.09473 -6.55273,2.09473 -3.70606,0 -10.20508,-0.9668 l -1.87988,-10.58105 q 4.88769,0.91308 8.00293,0.91308 1.71875,0 2.30957,-0.59082 0.69824,-0.69824 0.69824,-2.41699 v -24.33105 h -11.81641 q -0.21484,12.03125 -1.39648,19.12109 -1.61133,9.72168 -7.08984,20.08789 l -8.16407,-8.48633 q 4.67285,-9.29199 6.01563,-21.80664 0.80566,-7.46582 0.80566,-17.45605 V 60.463867 h 31.20606 v 55.966793 q 8.59375,-4.72656 13.69629,-11.76269 h -11.81641 v -9.238283 h 16.32812 q 1.61133,-3.813476 3.27637,-8.808593 h -17.08008 v -9.238282 h 7.94922 q -3.81347,-9.345703 -7.84179,-15.253906 l 9.66796,-4.189453 q 4.78028,7.197266 8.05664,15.146484 l -9.3457,4.296875 h 11.06445 q 2.04102,-9.023437 3.4375,-21.752929 l 11.11817,0.751953 q -1.4502,11.010742 -3.65234,21.000976 h 17.61718 l -8.48633,-3.061523 q 3.97461,-7.304687 7.25098,-16.918945 l 10.7959,3.168945 q -2.63184,7.036133 -8.48633,16.811523 h 11.01074 v 9.238282 h -19.12109 q 1.9873,4.565429 4.56543,8.808593 h 18.31543 v 9.238283 h -11.38672 q 6.28418,6.49902 12.7832,10.20508 l -5.80078,9.8291 q -4.24316,-3.06152 -6.92871,-5.47852 -0.0537,0.80567 -0.0537,2.09473 -0.37598,26.15723 -2.63184,32.06543 -1.45019,3.75976 -4.83398,5.15625 -2.4707,1.02051 -6.82129,1.02051 -4.72656,0 -11.17187,-0.75196 l -2.30957,-10.58105 q 7.08984,1.34277 11.27929,1.34277 2.9541,0 3.70606,-1.87988 1.28906,-2.9541 2.04101,-20.24902 z m -10.41992,-9.23828 h 20.08789 q -6.60644,-6.17676 -11.2793,-13.53516 h -19.71191 q -3.4375,6.71387 -9.99023,13.53516 h 10.36621 l 0.59082,-8.11036 h 10.58105 z m -6.98242,-22.773443 h 10.90332 q -1.55762,-3.652343 -3.4375,-8.808593 h -4.51172 q -1.23535,4.135742 -2.9541,8.808593 z M 127.45605,70.561523 v 15.522461 h 11.7627 V 70.561523 Z m 0,25.19043 v 16.274417 h 11.7627 V 95.751953 Z m 148.83301,3.706055 v 42.539062 q 0,4.13574 3.54492,4.99512 3.65235,0.91308 16.70411,0.91308 12.72949,0 16.81152,-1.28906 2.30957,-0.75195 3.00781,-4.18945 0.91309,-4.83399 0.9668,-11.44043 l 11.22558,3.16894 Q 327.69043,150 324.19922,154.4043 q -2.30957,2.90039 -6.98242,3.4375 -7.3584,0.80566 -24.97559,0.80566 -13.64258,0 -17.88574,-0.75195 -6.3916,-1.07422 -8.11035,-5.63965 -0.85938,-2.41699 -0.85938,-6.44531 v -42.59278 l -10.25879,3.54493 -2.52441,-10.419927 12.7832,-4.404296 V 62.988281 h 10.90332 v 25.19043 l 11.54785,-3.920899 V 55.952148 h 10.7959 v 24.545899 l 17.99317,-6.176758 5.63964,3.4375 v 40.229491 q 0,4.18945 -1.9873,6.23047 -2.25586,2.25586 -7.57324,2.25586 -4.35059,0 -9.23828,-0.75195 l -1.77246,-10.25879 q 3.16894,0.80566 6.44531,0.80566 2.36328,0 2.90039,-0.9668 0.53711,-0.80566 0.53711,-2.68554 V 87.211914 l -12.94434,4.511719 v 43.452147 h -10.7959 V 95.429687 Z M 236.81152,81.894531 V 55.952148 h 11.54785 v 25.942383 h 10.41993 v 10.903321 h -10.41993 v 34.160158 q 5.63965,-1.9336 11.17188,-4.02832 l 1.02051,10.36621 q -17.40235,7.94922 -35.71778,13.32031 l -3.75976,-11.44043 q 8.27148,-2.14844 14.50195,-4.08203 0.75195,-0.26855 1.23535,-0.37598 V 92.797852 H 223.16895 V 81.894531 Z m 145.3418,3.007813 q -0.37598,8.969726 -1.07422,15.791016 h 43.29102 q -0.80567,37.27539 -4.18946,48.39355 -1.71875,5.58594 -6.3916,7.73438 -3.65234,1.66504 -10.68847,1.66504 -7.41211,0 -16.81153,-1.12793 l -2.09472,-12.08496 q 12.62207,1.77246 17.77832,1.77246 4.35058,0 5.53222,-2.4707 2.84668,-6.01563 3.97461,-33.19336 h -31.95801 q -1.77246,9.66796 -4.99511,16.75781 -8.96973,19.60449 -29.97071,31.09863 l -8.48632,-9.45312 q 21.05468,-10.95704 27.82226,-28.73536 4.51172,-11.87011 5.85449,-36.147456 H 334.18945 V 73.891602 h 43.88184 V 55.952148 h 12.40723 v 17.939454 h 45.33203 v 11.010742 z m 89.96582,46.943356 q -14.82422,7.78809 -25.83496,11.92383 l -4.51172,-11.81641 q 17.24121,-5.80078 30.34668,-12.03124 V 95.859375 H 445.53223 V 84.526367 h 26.58691 V 55.952148 h 11.97754 V 160.47363 h -11.97754 z m 38.18848,-41.840817 q 12.51465,-6.552735 24.27734,-16.650391 l 8.91602,9.345703 q -15.89844,11.279297 -33.19336,19.228515 v 40.2832 q 0,2.63184 1.71875,3.22266 1.82617,0.59082 8.43261,0.59082 8.70118,0 10.90332,-1.02051 1.55762,-0.69824 2.14844,-4.35058 0.80567,-5.10254 1.18164,-16.48926 l 12.03125,3.70605 q -0.53711,13.91114 -1.71875,19.98047 -1.34277,6.76758 -7.03613,8.75489 -5.4248,1.82617 -17.77832,1.82617 -14.50195,0 -18.26172,-2.417 -3.59863,-2.36328 -3.59863,-9.07714 V 55.952148 h 11.97754 z m 78.0957,-21.645508 h 22.98828 v 10.366211 h -7.57324 q -2.04102,8.217773 -5.47852,17.241211 h 14.34082 v 10.366213 h -59.9414 V 95.966797 h 13.15918 Q 563.75,85.654297 561.38672,78.725586 H 554.4043 V 68.359375 h 22.77343 V 55.952148 h 11.22559 z m -16.16699,10.366211 q 2.73926,8.00293 4.24316,17.241211 h 10.95703 l 0.53711,-1.503906 q 2.30957,-6.123047 4.29688,-13.911133 l 0.4834,-1.826172 z m 33.30078,36.630864 v 43.98925 h -11.01074 v -5.26367 H 571.1084 v 6.3916 h -11.33301 v -45.11718 z m -34.42871,9.88281 v 18.63769 h 23.41797 v -18.63769 z m 71.75781,-27.124026 q 6.3916,6.069336 10.15137,14.448246 3.70605,8.3789 3.70605,16.97265 0,7.94922 -2.9541,11.70899 -3.06152,3.9209 -10.09766,3.9209 -6.01562,0 -11.65527,-0.85938 l -2.63183,-11.44043 q 6.49902,1.18164 10.74218,1.18164 3.22266,0 4.02832,-1.5039 0.53711,-1.07422 0.53711,-4.29688 0,-13.2666 -7.94922,-22.88086 -2.09472,-2.52441 -5.26367,-5.424804 l 0.64453,-1.503906 q 5.58594,-12.62207 8.70118,-26.318359 h -13.75 V 160.47363 H 615.95703 V 61.000977 h 32.33399 l 5.96191,5.478515 q -5.42481,18.476563 -11.38672,31.635742 z"></path>
</svg>
