<svg xmlns="http://www.w3.org/2000/svg" id="svg1" version="1.1" height="200" width="1096">
  <defs id="defs1"></defs>
  <rect id="rect1" stroke="none" fill="none" height="200" width="1096" y="0" x="0"></rect>
  <path aria-label="南太平洋" style="font-weight:bold;font-size:110px;font-family:'BIZ UDPGothic';fill:#ff0000" id="text1" d="M 49.038086,120.5127 H 26.801758 v -8.8086 h 10.742187 q -2.416992,-5.47851 -5.478515,-10.20508 l 9.667968,-3.544918 q 4.189454,7.036128 6.767579,13.749998 h 12.62207 q 3.168945,-6.49902 5.585937,-13.964842 l 10.795899,3.383792 q -2.739258,5.9082 -5.800781,10.58105 h 11.547851 v 8.8086 H 60.263672 v 7.84179 h 24.492187 v 9.13086 H 60.263672 v 20.30274 H 49.038086 V 137.48535 H 25.458984 v -9.13086 H 49.038086 Z M 60.585937,87.426758 h 40.712893 v 62.788082 q 0,5.53223 -2.954103,7.78809 -2.470704,1.93359 -8.325196,1.93359 -7.573242,0 -14.609375,-0.80566 l -2.631836,-10.7959 q 9.399414,1.12793 14.072266,1.12793 1.933594,0 2.255859,-0.9668 0.214844,-0.59082 0.214844,-1.66504 V 96.772461 H 20.678711 V 160.47363 H 8.7011719 V 87.426758 H 48.71582 v -9.72168 H 2.7392578 V 67.714844 H 48.71582 V 55.952148 h 11.870117 v 11.762696 h 46.621093 v 9.990234 H 60.585937 Z m 112.685543,3.813476 q 4.02832,13.105466 12.83692,26.157226 12.40722,18.42285 31.9043,30.29297 l -7.46583,11.17187 q -17.88574,-11.11816 -31.58203,-30.88378 -8.05664,-11.65528 -12.83691,-25.67383 -3.38379,12.35351 -9.18457,22.34375 12.99805,8.8623 21.26953,16.97265 l -7.46582,8.8086 q -8.21777,-8.21778 -19.60449,-16.75782 -8.00293,10.63477 -16.38184,17.29493 -5.74707,4.61914 -13.42773,9.02343 l -8.70117,-10.09765 q 20.1416,-8.70117 32.22656,-27.33887 9.13086,-14.12598 12.51465,-31.313476 H 115.04883 V 79.799805 h 43.45215 V 55.952148 h 12.67578 v 23.847657 h 43.88183 V 91.240234 Z M 280.69336,71.367187 v 42.001953 h 46.56738 v 11.01074 h -46.56738 v 36.09375 H 268.6084 V 124.37988 H 222.73926 V 113.36914 H 268.6084 V 71.367187 H 227.68066 V 60.678711 h 94.69239 v 10.688476 z m -35.8252,37.919923 Q 239.55078,93.496094 233.10547,81.142578 l 11.65527,-4.726562 q 6.01563,10.419921 12.29981,28.251954 z m 47.58789,-3.70606 q 6.92872,-12.998042 11.70899,-29.809566 l 12.19238,3.920899 q -5.04883,15.522461 -12.67578,30.131837 z M 393.59375,83.452148 H 364.8584 v -9.990234 h 14.66308 q -3.49121,-8.00293 -7.41211,-13.964844 l 10.68848,-3.974609 q 4.51172,7.573242 8.27149,17.939453 h 17.08007 q 3.4375,-7.949219 6.55274,-17.939453 l 12.08496,3.330078 q -3.33008,8.486328 -6.66016,14.609375 h 14.07227 v 9.990234 H 405.46387 V 97.30957 h 25.51269 v 9.66797 h -25.51269 v 14.82422 h 31.79687 v 10.36621 h -31.79687 v 28.30566 h -11.87012 v -28.30566 h -31.04492 v -10.36621 h 31.04492 v -14.82422 h -25.67383 v -9.66797 h 25.67383 z m -40.71289,-1.450195 q -6.3916,-8.862305 -16.91895,-17.241211 l 8.11036,-8.271484 q 10.79589,7.841797 17.61718,16.704101 z m -3.49121,27.607427 Q 341.01074,99.404297 331.9873,92.15332 l 8.16407,-8.271484 q 9.61425,6.982422 17.77832,16.811524 z m -15.52246,41.35742 q 9.56054,-13.21289 18.36914,-35.50293 l 9.13086,7.14355 q -7.51953,22.5586 -18.04688,37.75879 z"></path>
</svg>
