<svg xmlns="http://www.w3.org/2000/svg" id="svg1" version="1.1" height="200" width="1096">
  <defs id="defs1"></defs>
  <rect id="rect1" stroke="none" fill="none" height="200" width="1096" y="0" x="0"></rect>
  <path aria-label="鳥取県沖" style="font-weight:bold;font-size:110px;font-family:'BIZ UDPGothic';fill:#ff0000" id="text1" d="m 42.270508,65.19043 q 2.255859,-5.263672 3.598633,-9.990235 l 13.105468,1.71875 q -1.987304,4.619141 -3.598632,7.680664 L 55.053711,65.19043 H 91.308594 V 99.243164 H 26.425781 v 5.102536 h 80.834959 v 8.37891 H 26.425781 v 5.26367 h 77.075199 q -0.4834,24.92188 -3.00782,33.78418 -1.450191,5.15625 -5.317379,7.08984 -3.115234,1.61133 -9.506836,1.61133 -6.445312,0 -12.192383,-0.80566 l -2.524414,-11.01074 q 7.680664,1.23535 13.051758,1.23535 3.867188,0 4.780274,-2.20215 1.503906,-3.65234 2.631836,-21.43066 H 14.555664 V 65.19043 Z m -15.844727,7.895507 v 5.424805 h 53.012696 v -5.424805 z m 0,12.783204 v 5.585937 H 79.438477 V 85.869141 Z M 1.3427734,152.20215 q 6.9824219,-8.54004 11.3330076,-22.45117 l 10.581055,3.33007 q -2.954102,13.64258 -11.010742,25.94239 z m 30.6689456,4.83398 q -0.751953,-12.67578 -2.954102,-23.84765 l 9.990235,-1.87989 q 3.4375,10.68848 4.887695,22.98828 z M 54.785156,154.4043 Q 51.293945,140.76172 46.99707,132.38281 l 9.667969,-3.06152 q 5.585938,9.88281 8.808594,21.00098 z m 20.786133,-6.17676 q -3.330078,-8.80859 -9.560547,-17.34863 l 8.701172,-4.08203 q 6.28418,7.51953 10.366211,16.38183 z M 168.54492,66.640625 h 41.57227 l 5.4248,5.532227 q -2.20215,16.328125 -5.63965,27.929688 -3.75976,12.94434 -10.63476,25.19043 8.64746,13.2666 19.55078,21.64551 l -7.03613,12.19238 q -11.11817,-10.09766 -19.17481,-23.20313 -6.49902,9.13086 -11.70898,14.44825 -5.3711,5.53222 -11.70899,9.56054 l -7.57324,-10.36621 q 13.96484,-7.94922 24.59961,-24.86816 -0.21484,-0.42969 -0.42969,-0.80567 -6.23047,-12.46093 -10.04394,-29.755855 -2.14844,-9.72168 -2.90039,-16.59668 h -6.28418 v -6.713867 h -5.15625 v 89.643552 h -11.01075 v -21.86035 l -3.49121,0.85938 q -16.16699,4.18945 -30.9375,6.82129 l -3.54492,-11.44043 q 7.30469,-0.9668 10.09766,-1.39649 V 70.830078 h -7.89551 V 60.356445 h 53.92578 z m -18.1543,4.189453 h -17.1875 v 12.836914 h 17.1875 z m 0,21.967774 h -17.1875 V 105.7959 h 17.1875 z m 0,21.914058 h -17.1875 v 17.08008 q 2.79297,-0.4834 4.18946,-0.69824 4.29687,-0.69824 12.99804,-2.30957 z m 32.8711,-37.167965 Q 185.46387,97.84668 192.5,113.20801 200.01953,97.255859 203.18848,77.543945 Z M 312.16797,58.583984 V 110.62988 H 248.25195 V 58.583984 Z m -52.36817,8.486328 v 6.713868 h 40.7129 v -6.713868 z m 0,14.28711 v 6.713867 h 40.7129 v -6.713867 z m 0,14.287109 v 6.928709 h 40.7129 v -6.928709 z m -21.6455,22.128909 h 89.05273 v 9.3457 h -44.41894 v 33.35449 H 270.5957 V 127.11914 H 226.3916 V 66.855469 h 11.7627 z m -13.75,32.4414 q 12.7832,-5.9082 24.43847,-19.81933 l 9.88282,5.74707 q -11.49414,14.55566 -25.5127,22.88086 z m 92.59765,6.92871 q -8.21777,-10.09765 -24.70703,-21.21582 l 9.23828,-6.49902 q 12.94434,7.46582 25.40528,19.60449 z m 76.69922,-81.157222 v -20.03418 h 11.54785 v 20.03418 h 29.11133 v 48.608402 h -29.11133 v 35.8789 h -11.54785 v -35.8789 H 365.18066 V 75.986328 Z m -17.40234,10.688477 v 27.338865 h 17.40234 V 86.674805 Z m 46.62109,27.338865 V 86.674805 h -17.6709 v 27.338865 z m -68.75,-31.796873 q -6.55273,-9.13086 -17.34863,-17.456055 l 8.00293,-8.164062 q 10.74219,7.573242 18.1543,16.972656 z m -3.49121,27.607423 q -9.3457,-10.849611 -18.1543,-17.778322 l 8.27149,-8.271484 q 9.39941,6.606445 18.58398,17.080076 z m -16.7041,41.62598 q 10.3125,-14.66309 19.01367,-36.52344 l 9.56055,7.3584 q -7.3584,20.1416 -17.93946,37.91992 z"></path>
</svg>
