<svg xmlns="http://www.w3.org/2000/svg" id="svg1" version="1.1" height="200" width="1096">
  <defs id="defs1"></defs>
  <rect id="rect1" stroke="none" fill="none" height="200" width="1096" y="0" x="0"></rect>
  <path aria-label="南米中部" style="font-weight:bold;font-size:110px;font-family:'BIZ UDPGothic';fill:#ff0000" id="text1" d="M 49.038086,120.5127 H 26.801758 v -8.8086 h 10.742187 q -2.416992,-5.47851 -5.478515,-10.20508 l 9.667968,-3.544918 q 4.189454,7.036128 6.767579,13.749998 h 12.62207 q 3.168945,-6.49902 5.585937,-13.964842 l 10.795899,3.383792 q -2.739258,5.9082 -5.800781,10.58105 h 11.547851 v 8.8086 H 60.263672 v 7.84179 h 24.492187 v 9.13086 H 60.263672 v 20.30274 H 49.038086 V 137.48535 H 25.458984 v -9.13086 H 49.038086 Z M 60.585937,87.426758 h 40.712893 v 62.788082 q 0,5.53223 -2.954103,7.78809 -2.470704,1.93359 -8.325196,1.93359 -7.573242,0 -14.609375,-0.80566 l -2.631836,-10.7959 q 9.399414,1.12793 14.072266,1.12793 1.933594,0 2.255859,-0.9668 0.214844,-0.59082 0.214844,-1.66504 V 96.772461 H 20.678711 V 160.47363 H 8.7011719 V 87.426758 H 48.71582 v -9.72168 H 2.7392578 V 67.714844 H 48.71582 V 55.952148 h 11.870117 v 11.762696 h 46.621093 v 9.990234 H 60.585937 Z M 175.52734,104.93652 q 15.89844,20.03418 42.80762,34.10645 l -7.46582,11.11816 q -24.0625,-14.01855 -40.17578,-36.25488 v 46.56738 H 158.6084 v -45.54687 q -14.2334,23.04199 -38.61817,37.27539 l -7.68066,-10.09766 q 15.25391,-7.84179 25.67383,-17.83203 8.32519,-7.94922 16.11328,-19.33594 H 114.51172 V 94.355469 H 158.6084 V 55.952148 h 12.08496 v 38.403321 h 44.79492 V 104.93652 Z M 134.33105,91.347656 Q 127.56348,77.006836 120.7959,67.177734 l 10.09765,-5.532226 q 8.27149,10.581054 14.07227,23.686523 z m 48.07129,-4.243164 q 8.21778,-12.03125 14.60938,-26.640625 l 11.44043,5.263672 Q 201.8457,79.208984 192.5,91.831055 Z M 268.6084,75.664062 V 55.952148 h 12.08496 v 19.711914 h 39.85351 v 56.826168 h -11.87011 v -7.46582 h -27.9834 v 35.44922 H 268.6084 v -35.44922 h -27.28516 v 8.05664 H 229.45312 V 75.664062 Z M 241.32324,86.674805 V 114.01367 H 268.6084 V 86.674805 Z m 67.35352,27.338865 V 86.674805 h -27.9834 v 27.338865 z m 59.72656,-45.654295 h 22.98828 v 10.366211 h -7.57324 q -2.04102,8.217773 -5.47852,17.241211 h 14.34082 v 10.366213 h -59.9414 V 95.966797 h 13.15918 Q 343.75,85.654297 341.38672,78.725586 H 334.4043 V 68.359375 h 22.77343 V 55.952148 h 11.22559 z m -16.16699,10.366211 q 2.73926,8.00293 4.24316,17.241211 h 10.95703 l 0.53711,-1.503906 q 2.30957,-6.123047 4.29688,-13.911133 l 0.4834,-1.826172 z m 33.30078,36.630864 v 43.98925 h -11.01074 v -5.26367 H 351.1084 v 6.3916 h -11.33301 v -45.11718 z m -34.42871,9.88281 v 18.63769 h 23.41797 v -18.63769 z m 71.75781,-27.124026 q 6.3916,6.069336 10.15137,14.448246 3.70605,8.3789 3.70605,16.97265 0,7.94922 -2.9541,11.70899 -3.06152,3.9209 -10.09766,3.9209 -6.01562,0 -11.65527,-0.85938 l -2.63183,-11.44043 q 6.49902,1.18164 10.74218,1.18164 3.22266,0 4.02832,-1.5039 0.53711,-1.07422 0.53711,-4.29688 0,-13.2666 -7.94922,-22.88086 -2.09472,-2.52441 -5.26367,-5.424804 l 0.64453,-1.503906 q 5.58594,-12.62207 8.70118,-26.318359 h -13.75 V 160.47363 H 395.95703 V 61.000977 h 32.33399 l 5.96191,5.478515 q -5.42481,18.476563 -11.38672,31.635742 z"></path>
</svg>
