<svg xmlns="http://www.w3.org/2000/svg" id="svg1" version="1.1" height="200" width="990">
  <defs id="defs1"></defs>
  <rect id="rect1" stroke="none" fill="none" height="200" width="990" y="0" x="0"></rect>
  <path aria-label="鹿児島湾" style="font-size:100px;font-family:'BIZ UDPGothic';fill:#ff0000" id="text1" d="m 25.878906,149.56055 v -31.88477 h 7.617188 v 9.91211 h 20.800781 v 6.39648 H 33.496094 v 14.4043 q 12.255859,-2.09961 21.435547,-4.29687 l 0.292968,6.39648 q -16.455078,4.58984 -37.304687,7.42188 l -2.001953,-7.12891 q 4.882812,-0.53711 9.960937,-1.2207 z M 54.394531,73.388672 h 39.648438 v 6.396484 H 65.576172 V 90.283203 H 89.746094 V 114.50195 H 16.650391 q 0,13.96485 -1.708985,24.65821 -1.757812,11.03515 -6.8359372,20.26367 l -6.2988282,-5.32227 q 4.7851563,-9.27734 6.2011719,-22.02148 1.1230469,-9.76563 1.1230469,-26.07422 V 73.388672 H 46.484375 v -8.886719 h 7.910156 z M 16.699219,79.785156 V 90.283203 H 34.179687 V 79.785156 Z m 0,16.601563 v 9.521481 1.66016 0.83008 H 34.179687 V 96.386719 Z M 82.128906,108.39844 V 96.386719 H 65.576172 V 108.39844 Z M 41.699219,79.785156 V 90.283203 H 58.056641 V 79.785156 Z m 0,16.601563 V 108.39844 H 58.056641 V 96.386719 Z M 66.357422,129.6875 q 12.109375,-3.80859 21.044922,-9.27734 l 5.078125,6.00586 q -11.425782,5.85937 -26.123047,9.86328 v 9.52148 q 0,2.83203 1.318359,3.56445 1.416016,0.83008 7.910156,0.83008 8.154297,0 10.351563,-0.73242 1.904297,-0.63477 2.441406,-3.125 0.292969,-1.61133 0.634766,-6.73828 l 0.04883,-1.41602 7.519531,2.39258 -0.195312,1.95313 q -0.53711,5.95703 -1.269532,8.34961 -1.5625,5.12695 -7.226562,5.81054 -4.492188,0.58594 -12.939453,0.58594 -10.69336,0 -13.085938,-1.46484 -3.027343,-1.85547 -3.027343,-6.49414 v -31.64063 h 7.519531 z M 187.5,68.212891 V 115.67383 H 138.52539 V 68.212891 Z m -41.25977,6.591796 V 88.28125 H 179.6875 V 74.804687 Z m 0,19.873047 V 109.27734 H 179.6875 V 94.677734 Z M 114.79492,66.015625 h 8.10547 v 53.906255 h -8.10547 z m -10.69336,86.572265 q 16.25977,-1.9043 23.73047,-10.5957 5.32227,-6.20117 5.95703,-20.50781 h 7.91016 q -0.3418,18.79882 -9.17969,27.39257 -7.8125,7.61719 -23.82812,10.83985 z m 52.88086,-31.88476 h 7.91016 v 25.97656 q 0,2.53906 1.66015,3.22265 1.61133,0.6836 7.17774,0.6836 7.61719,0 10.2539,-0.58594 2.05079,-0.43945 2.78321,-2.44141 1.07422,-2.97851 1.31836,-12.1582 l 8.00781,2.68555 q -0.48828,8.98437 -1.31836,12.30468 -1.26953,5.27344 -5.46875,6.44532 -3.66211,1.02539 -16.01562,1.02539 -9.52149,0 -12.79297,-1.51367 -3.51563,-1.61133 -3.51563,-6.83594 z m 111.03516,28.51562 h -53.8086 v 5.71289 h -7.71484 v -23.0957 h 7.71484 v 11.18164 h 19.0918 v -14.69727 h -19.0918 V 73.291016 h 23.97461 q 3.36914,-4.931641 5.41993,-9.179688 l 8.6914,2.001953 q -2.39258,3.515625 -5.46875,7.177735 h 35.25391 v 30.517574 h -59.96094 v 6.00586 h 75.3418 v 6.10352 h -75.3418 v 6.29883 h 70.94727 q -0.73243,23.87695 -3.32032,30.71289 -1.5625,4.19922 -5.51757,5.66406 -2.5879,0.92773 -6.83594,0.92773 -6.15235,0 -11.76758,-0.8789 l -1.61133,-7.22656 q 6.73828,1.02539 12.10938,1.02539 4.24804,0 5.37109,-1.95313 2.24609,-3.90625 3.36914,-22.16797 h -43.94531 v 14.69727 h 19.58008 v -11.18164 h 7.51953 z M 222.11914,79.296875 v 6.298828 h 52.09961 v -6.298828 z m 0,12.011719 v 6.689453 h 52.09961 v -6.689453 z m 142.96875,-17.72461 h 32.12891 v 6.298828 h -23.38868 v 19.189454 q 0,3.076174 -1.5625,4.492184 -1.5625,1.41602 -5.66406,1.41602 -5.02929,0 -8.49609,-0.48828 l -1.12305,-6.298831 q 4.39453,0.683594 7.4707,0.683594 1.61133,0 1.9043,-1.171875 0.14649,-0.537109 0.14649,-1.416016 v -16.40625 h -10.64454 q -0.43945,9.91211 -2.24609,14.794922 -2.63672,6.982426 -12.01172,11.914066 l -5.07812,-4.83399 q 8.49609,-4.052732 10.69336,-10.058591 1.46484,-4.003907 1.61132,-11.816407 h -21.82617 v -6.298828 h 30.32227 v -9.082031 h 7.76367 z m 24.60938,35.009766 v 18.79883 h -49.60938 q -0.53711,3.90625 -1.31836,7.32422 h 55.32227 q -0.97657,12.30468 -3.41797,18.01757 -1.66016,3.95508 -5.95703,5.56641 -3.32032,1.2207 -9.22852,1.2207 -7.91016,0 -15.86914,-0.78125 l -1.70898,-7.03125 q 10.69336,1.12305 17.48046,1.12305 4.19922,0 5.66407,-0.97656 2.58789,-1.70899 4.15039,-11.03516 h -47.94922 q -0.73242,2.68555 -1.66016,5.71289 l -7.71484,-1.80664 q 2.92969,-8.64258 5.32226,-23.24218 h 48.68165 v -6.98243 h -52.39258 v -5.9082 z M 319.18945,86.083984 q -6.29883,-8.349609 -13.96484,-15.08789 l 5.37109,-4.980469 q 7.37305,5.810547 14.20899,14.501953 z m -3.07617,25.439456 q -7.4707,-9.13086 -14.50195,-15.136721 l 5.32226,-5.273438 q 7.56836,6.103516 14.79493,14.501949 z m -12.30469,41.69922 q 8.4961,-12.74414 15.91797,-33.39844 l 6.00586,4.39453 q -6.39648,19.28711 -15.42969,34.66797 z m 87.89063,-50.14649 Q 384.86328,93.261719 376.9043,85.791016 l 5.32226,-3.90625 q 9.08203,7.666015 15.28321,16.699218 z m -69.28711,-4.589842 q 8.44726,-6.054687 13.62305,-15.478516 l 6.29882,2.587891 q -5.22461,10.546875 -14.50195,17.480467 z"></path>
</svg>
