<svg xmlns="http://www.w3.org/2000/svg" id="svg1" version="1.1" height="200" width="1096">
  <defs id="defs1"></defs>
  <rect id="rect1" stroke="none" fill="none" height="200" width="1096" y="0" x="0"></rect>
  <path aria-label="種子島南東沖" style="font-weight:bold;font-size:110px;font-family:'BIZ UDPGothic';fill:#ff0000" id="text1" d="M 18.476562,116.91406 Q 13.803711,130.77148 6.9287109,141.19141 L 0.4296875,129.64355 Q 11.547852,116.37695 17.241211,96.987305 l 0.322266,-1.12793 H 2.6318359 V 85.761719 H 18.476562 V 71.313477 Q 12.246094,72.548828 6.4990234,73.354492 L 2.6318359,64.65332 Q 21.967773,61.914062 35.180664,56.274414 l 5.74707,8.701172 q -5.15625,1.987305 -11.762695,3.813476 V 85.761719 H 40.283203 V 95.859375 H 29.165039 v 7.895505 q 6.230469,4.56543 13.535156,12.13867 l -6.069336,10.36622 q -3.4375,-5.3711 -6.713867,-9.56055 l -0.751953,-0.9668 v 44.74121 H 18.476562 Z M 67.407227,89.145508 V 83.237305 H 40.605469 v -8.808594 h 26.801758 v -5.532227 l -1.020508,0.05371 q -8.701172,0.805664 -20.195313,1.396485 l -3.4375,-8.325196 Q 70.952148,60.625 95.014648,56.05957 l 6.230472,8.271485 q -11.118167,2.30957 -23.417972,3.544922 v 6.552734 h 29.057622 v 8.808594 H 77.827148 v 5.908203 H 102.37305 V 127.22656 H 77.827148 v 5.90821 h 25.620122 v 8.59375 H 77.827148 v 6.28418 h 29.916992 v 9.13085 H 36.953125 v -9.13085 h 30.454102 v -6.28418 H 42.431641 v -8.59375 h 24.975586 v -5.90821 H 43.666992 V 89.145508 Z M 67.62207,96.71875 H 53.764648 v 7.62695 H 67.62207 Z m 9.990235,0 v 7.62695 H 92.382812 V 96.71875 Z M 67.62207,111.59668 H 53.764648 v 7.94922 H 67.62207 Z m 9.990235,0 v 7.94922 h 14.770507 v -7.94922 z M 172.25098,92.744141 v 11.708989 h 43.93554 v 10.79589 h -43.93554 v 33.67676 q 0,5.20996 -2.52442,7.73438 -2.90039,2.90039 -10.95703,2.90039 -9.18457,0 -17.40234,-0.75196 l -2.84668,-11.76269 q 10.84961,1.18164 18.20801,1.18164 2.30957,0 2.84668,-0.80567 0.48339,-0.69824 0.48339,-2.68554 v -29.48731 h -46.1914 v -10.79589 h 46.1914 V 87.749023 l 0.80567,-0.429687 q 8.48633,-4.404297 22.50488,-14.985352 h -57.9541 V 61.645508 h 74.12109 l 6.06934,6.391601 q -7.30469,6.28418 -17.13379,13.481446 -9.99023,7.304687 -16.2207,11.225586 z m 90.34179,-28.62793 q 1.98731,-4.780274 3.22266,-9.130859 l 13.10547,1.77246 q -1.87988,4.458008 -3.4375,7.358399 h 35.77148 v 35.019531 h -64.88281 v 5.424808 h 80.83496 v 8.70117 h -80.83496 v 5.47851 h 77.0752 q -0.69825,24.59961 -3.11524,33.19336 -1.55762,5.47852 -5.85449,7.25098 -3.06152,1.28906 -9.3457,1.28906 -6.44532,0 -12.03125,-0.80566 l -2.14844,-9.02344 h -53.81836 v 5.96192 h -11.54785 v -25.83497 h 11.54785 v 11.06446 h 18.47656 v -14.50196 h -21.1084 V 64.116211 Z m 22.82715,77.719729 v -11.06446 h 11.11817 v 18.69141 q 4.458,0.42969 7.41211,0.42969 3.65234,0 4.56542,-2.09473 1.77247,-3.9209 2.79297,-20.46387 H 267.1582 v 14.50196 z M 246.37207,72.387695 v 5.317383 h 53.0127 v -5.317383 z m 0,12.998047 v 5.854492 h 53.0127 V 85.385742 Z M 379.03809,120.5127 h -22.23633 v -8.8086 h 10.74219 q -2.417,-5.47851 -5.47852,-10.20508 l 9.66797,-3.544918 q 4.18945,7.036128 6.76758,13.749998 h 12.62207 q 3.16894,-6.49902 5.58593,-13.964842 l 10.7959,3.383792 q -2.73926,5.9082 -5.80078,10.58105 h 11.54785 v 8.8086 h -22.98828 v 7.84179 h 24.49219 v 9.13086 h -24.49219 v 20.30274 h -11.22558 v -20.30274 h -23.57911 v -9.13086 h 23.57911 z m 11.54785,-33.085942 h 40.71289 v 62.788082 q 0,5.53223 -2.9541,7.78809 -2.47071,1.93359 -8.3252,1.93359 -7.57324,0 -14.60937,-0.80566 l -2.63184,-10.7959 q 9.39941,1.12793 14.07227,1.12793 1.93359,0 2.25586,-0.9668 0.21484,-0.59082 0.21484,-1.66504 V 96.772461 H 350.67871 V 160.47363 H 338.70117 V 87.426758 h 40.01465 v -9.72168 h -45.97656 v -9.990234 h 45.97656 V 55.952148 h 11.87012 v 11.762696 h 46.62109 v 9.990234 h -46.62109 z m 122.03125,38.134762 q 13.32031,11.87012 35.8789,19.17481 l -6.92871,10.09765 q -12.99804,-4.61914 -22.66601,-11.17187 -9.99024,-6.82129 -18.42285,-16.75781 v 33.56933 h -11.65528 v -32.97851 q -7.46582,10.47363 -19.28222,18.79883 -9.07715,6.3916 -19.44336,10.3125 l -7.3584,-9.45313 q 17.02636,-5.63965 28.41308,-15.2002 3.22266,-2.68554 6.55274,-6.3916 H 451.87012 V 81.572266 h 36.95312 V 74.321289 H 444.29687 V 64.65332 h 44.52637 v -8.701172 h 11.65528 v 8.701172 h 45.2246 v 9.667969 h -45.2246 v 7.250977 h 37.65136 V 125.56152 Z M 488.82324,90.595703 h -25.29785 v 8.701172 h 25.29785 z m 11.65528,0 v 8.701172 h 25.99609 v -8.701172 z m -11.65528,17.080077 h -25.29785 v 8.86231 h 25.29785 z m 11.65528,0 v 8.86231 h 25.99609 v -8.86231 z M 613.70117,75.986328 v -20.03418 h 11.54785 v 20.03418 h 29.11133 v 48.608402 h -29.11133 v 35.8789 h -11.54785 v -35.8789 H 585.18066 V 75.986328 Z m -17.40234,10.688477 v 27.338865 h 17.40234 V 86.674805 Z m 46.62109,27.338865 V 86.674805 h -17.6709 v 27.338865 z m -68.75,-31.796873 q -6.55273,-9.13086 -17.34863,-17.456055 l 8.00293,-8.164062 q 10.74219,7.573242 18.1543,16.972656 z m -3.49121,27.607423 q -9.3457,-10.849611 -18.1543,-17.778322 l 8.27149,-8.271484 q 9.39941,6.606445 18.58398,17.080076 z m -16.7041,41.62598 q 10.3125,-14.66309 19.01367,-36.52344 l 9.56055,7.3584 q -7.3584,20.1416 -17.93946,37.91992 z"></path>
</svg>
