<svg xmlns="http://www.w3.org/2000/svg" id="svg1" version="1.1" height="200" width="1096">
  <defs id="defs1"></defs>
  <rect id="rect1" stroke="none" fill="none" height="200" width="1096" y="0" x="0"></rect>
  <path aria-label="紋別地方" style="font-weight:bold;font-size:110px;font-family:'BIZ UDPGothic';fill:#ff0000" id="text1" d="M 69.609375,129.26758 Q 57.094727,111.32813 52.851562,84.902344 h -6.552734 v -6.982422 q -8.916016,11.601562 -22.719726,25.834958 8.969726,-0.53711 16.005859,-1.28906 -1.450195,-4.350586 -3.383789,-8.647461 l 8.701172,-3.4375 q 4.296875,8.432618 8.540039,23.364261 l -9.345703,4.13574 q -1.020508,-3.9209 -1.557618,-5.9082 l -0.429687,-1.50391 q -5.317383,0.85938 -8.164063,1.23535 l -1.396484,0.21485 v 48.55468 H 21.75293 V 113.1543 l -1.289063,0.16113 q -7.895508,0.80566 -15.7373045,1.28906 l -2.2021484,-9.99023 3.5986328,-0.10742 Q 8.59375,104.39941 11.333008,104.29199 15.415039,99.941406 18.476562,96.289062 11.816406,86.782227 2.9541016,78.188477 l 6.6064453,-7.734375 q 1.1279301,1.127929 2.2558591,2.255859 l 0.698242,0.698242 q 5.854493,-8.271484 10.795899,-18.100586 l 9.667969,5.371094 q -6.015625,9.667969 -14.340821,19.604492 5.209961,6.499024 6.337891,8.164063 7.788086,-9.453125 14.824219,-20.03418 l 7.358398,5.800781 H 69.87793 V 55.522461 h 11.762695 v 18.691406 h 25.620115 v 10.688477 h -8.647459 l -0.161133,1.020508 q -3.168945,22.719728 -15.146484,42.646488 11.333008,12.51464 26.049806,19.71191 l -6.71387,11.44043 q -13.427733,-7.3584 -26.157225,-21.5918 -11.547852,13.85742 -28.09082,22.5586 L 41.25,151.12793 q 10.957031,-4.8877 18.745117,-11.65527 4.780274,-4.18946 9.614258,-10.20508 z m 6.660156,-9.8291 Q 84.702148,103.80859 87.441406,84.902344 H 63.217773 Q 67.03125,105.09766 76.269531,119.43848 Z M 2.9541016,147.90527 q 3.8671875,-11.27929 4.8339843,-28.03711 l 10.1513671,1.18164 q -0.805664,18.79883 -4.833984,31.47461 z M 40.12207,144.14551 q -1.879883,-13.64258 -4.941406,-22.71973 l 9.238281,-3.22265 q 3.491211,9.8291 5.639649,20.57128 z m 102.1582,-48.286135 q -0.0537,5.800785 -0.59082,12.353515 h 26.15723 q -0.91309,33.08594 -3.06152,41.89453 -1.34278,5.47852 -4.94141,7.41211 -3.00781,1.61133 -8.54004,1.61133 -5.20996,0 -11.81641,-0.85938 L 137.5,147.15332 q 6.44531,1.50391 11.44043,1.50391 3.59863,0 4.51172,-2.20215 2.20215,-5.42481 3.16894,-29.11133 h -15.89843 l -0.16114,0.91309 q -3.70605,26.96289 -19.87304,41.41113 l -8.59375,-8.43262 q 11.92382,-9.99023 15.68359,-26.26465 2.57813,-11.333 3.27637,-29.111325 H 119.13086 V 59.711914 h 47.53418 V 95.859375 Z M 130.24902,69.272461 V 86.835937 H 155.6543 V 69.272461 Z m 46.29883,-4.726563 h 11.44043 v 67.836912 h -11.44043 z m 23.79395,-6.606445 h 11.76269 v 89.428707 q 0,7.03614 -3.75976,9.56055 -2.84668,1.87988 -10.04395,1.87988 -6.82129,0 -16.43555,-0.75195 l -2.30957,-11.70898 q 10.15137,1.55761 16.86524,1.55761 3.06152,0 3.59863,-1.23535 0.32227,-0.80566 0.32227,-2.73926 z m 75.94726,41.518555 v 42.539062 q 0,4.13574 3.54492,4.99512 3.65235,0.91308 16.70411,0.91308 12.72949,0 16.81152,-1.28906 2.30957,-0.75195 3.00781,-4.18945 0.91309,-4.83399 0.9668,-11.44043 l 11.22558,3.16894 Q 327.69043,150 324.19922,154.4043 q -2.30957,2.90039 -6.98242,3.4375 -7.3584,0.80566 -24.97559,0.80566 -13.64258,0 -17.88574,-0.75195 -6.3916,-1.07422 -8.11035,-5.63965 -0.85938,-2.41699 -0.85938,-6.44531 v -42.59278 l -10.25879,3.54493 -2.52441,-10.419927 12.7832,-4.404296 V 62.988281 h 10.90332 v 25.19043 l 11.54785,-3.920899 V 55.952148 h 10.7959 v 24.545899 l 17.99317,-6.176758 5.63964,3.4375 v 40.229491 q 0,4.18945 -1.9873,6.23047 -2.25586,2.25586 -7.57324,2.25586 -4.35059,0 -9.23828,-0.75195 l -1.77246,-10.25879 q 3.16894,0.80566 6.44531,0.80566 2.36328,0 2.90039,-0.9668 0.53711,-0.80566 0.53711,-2.68554 V 87.211914 l -12.94434,4.511719 v 43.452147 h -10.7959 V 95.429687 Z M 236.81152,81.894531 V 55.952148 h 11.54785 v 25.942383 h 10.41993 v 10.903321 h -10.41993 v 34.160158 q 5.63965,-1.9336 11.17188,-4.02832 l 1.02051,10.36621 q -17.40235,7.94922 -35.71778,13.32031 l -3.75976,-11.44043 q 8.27148,-2.14844 14.50195,-4.08203 0.75195,-0.26855 1.23535,-0.37598 V 92.797852 H 223.16895 V 81.894531 Z m 145.3418,3.007813 q -0.37598,8.969726 -1.07422,15.791016 h 43.29102 q -0.80567,37.27539 -4.18946,48.39355 -1.71875,5.58594 -6.3916,7.73438 -3.65234,1.66504 -10.68847,1.66504 -7.41211,0 -16.81153,-1.12793 l -2.09472,-12.08496 q 12.62207,1.77246 17.77832,1.77246 4.35058,0 5.53222,-2.4707 2.84668,-6.01563 3.97461,-33.19336 h -31.95801 q -1.77246,9.66796 -4.99511,16.75781 -8.96973,19.60449 -29.97071,31.09863 l -8.48632,-9.45312 q 21.05468,-10.95704 27.82226,-28.73536 4.51172,-11.87011 5.85449,-36.147456 H 334.18945 V 73.891602 h 43.88184 V 55.952148 h 12.40723 v 17.939454 h 45.33203 v 11.010742 z"></path>
</svg>
