<svg xmlns="http://www.w3.org/2000/svg" id="svg1" version="1.1" height="200" width="1096">
  <defs id="defs1"></defs>
  <rect id="rect1" stroke="none" fill="none" height="200" width="1096" y="0" x="0"></rect>
  <path aria-label="3" style="font-weight:bold;font-size:110px;font-family:'BIZ UDPGothic';fill:#ff0000" id="text1" d="m 25.834961,100.26367 h 7.46582 q 9.453125,0 15.200196,-3.383787 7.036132,-4.135742 7.036132,-11.333008 0,-5.961914 -5.15625,-9.453125 -4.565429,-3.061523 -11.386718,-3.061523 -12.353516,0 -23.740235,9.453125 L 7.4658203,72.871094 Q 21.269531,61.806641 39.960937,61.806641 q 12.514649,0 20.57129,5.15625 9.721679,6.284179 9.721679,17.77832 0,8.808594 -6.713867,15.092773 -5.209961,4.833986 -13.75,6.069336 v 0.42969 q 11.064453,1.82617 16.918945,7.30469 6.069336,5.69335 6.069336,15.20019 0,13.85742 -11.225586,20.73242 -8.432617,5.15625 -22.128906,5.15625 -21.591797,0 -35.0195311,-13.21289 l 8.1103511,-9.66797 q 4.296875,4.56543 11.064454,7.51953 8.217773,3.59864 15.952148,3.59864 8.701172,0 13.588867,-3.65235 4.726563,-3.49121 4.726563,-10.68847 0,-9.88282 -9.506836,-14.01856 -6.391602,-2.79297 -15.361328,-2.79297 h -7.143555 z"></path>
</svg>
