<svg xmlns="http://www.w3.org/2000/svg" id="svg1" version="1.1" height="200" width="990">
  <defs id="defs1"></defs>
  <rect id="rect1" stroke="none" fill="none" height="200" width="990" y="0" x="0"></rect>
  <path aria-label="南米西部" style="font-size:100px;font-family:'BIZ UDPGothic';fill:#ff0000" id="text1" d="m 53.515625,93.994141 h 37.060547 v 57.324219 q 0,3.90625 -1.611328,5.66406 -1.904297,2.05078 -8.007813,2.05078 -5.761719,0 -11.18164,-0.63476 l -1.708985,-7.42188 q 8.886719,0.92774 12.060547,0.92774 1.855469,0 2.294922,-0.87891 0.244141,-0.53711 0.244141,-1.61133 V 100.39063 H 17.1875 v 59.13085 H 9.2773438 V 93.994141 H 45.800781 V 83.007812 H 2.4902344 V 76.318359 H 45.800781 V 64.501953 h 7.714844 v 11.816406 h 43.945312 v 6.689453 H 53.515625 Z M 45.898437,121.77734 H 23.681641 v -6.20117 h 11.865234 q -2.148438,-5.32226 -5.371094,-10.49804 l 6.738281,-2.5879 q 4.052735,7.12891 6.201172,13.08594 H 56.25 q 3.320312,-6.05469 5.761719,-13.28125 l 7.421875,2.58789 q -2.392578,4.98047 -5.322266,9.96094 l -0.390625,0.73242 h 12.402344 v 6.20117 H 53.417969 v 9.13086 H 78.125 v 6.29883 H 53.417969 v 19.92188 H 45.898437 V 137.20703 H 21.875 V 130.9082 H 45.898437 Z M 157.22656,108.20313 q 10.10742,14.01367 24.60938,24.26757 6.68945,4.73633 15.77148,9.61914 l -5.22461,7.42188 q -25.68359,-15.42969 -38.76953,-36.03516 v 46.04492 h -7.91016 V 114.0625 q -12.74414,22.02148 -38.13476,37.06055 l -5.07813,-6.64063 q 14.4043,-7.4707 24.80469,-17.72461 8.10547,-8.00781 14.89258,-18.55468 h -38.08594 v -6.98243 h 41.60156 V 64.501953 h 7.91016 V 101.2207 h 42.28516 v 6.98243 z M 124.16992,96.679687 Q 117.48047,83.056641 111.57227,74.902344 l 6.59179,-3.808594 q 7.12891,9.521484 13.03711,21.484375 z m 41.89453,-2.880859 q 7.71485,-11.083984 13.52539,-23.876953 l 7.47071,3.466797 q -6.64063,13.671875 -14.30664,23.730469 z m 67.5293,-0.09766 V 77.197266 H 202.7832 V 70.3125 h 94.38477 v 6.884766 h -33.88672 v 16.503906 h 27.7832 V 157.8125 h -7.8125 V 150 h -66.65039 v 7.8125 h -7.71484 V 93.701172 Z m 7.51953,0 h 14.64844 V 77.197266 h -14.64844 z m -7.56836,6.591798 h -16.94336 v 42.91992 h 66.65039 v -17.23633 h -20.16601 q -7.32422,0 -7.32422,-6.59179 v -19.0918 h -14.69727 q -0.43945,10.5957 -3.125,16.89453 -3.80859,8.93555 -14.9414,15.52734 l -4.98047,-5.61523 q 10.40039,-5.41992 13.52539,-14.50195 1.51367,-4.44336 2.00195,-12.30469 z m 29.73633,0 v 16.50391 q 0,1.51367 0.58594,1.95312 0.53711,0.43945 1.80664,0.43945 h 17.57812 v -18.89648 z m 70.70312,-23.681642 h 21.82618 v 6.787109 h -7.03125 q -2.05078,9.13086 -5.61524,18.701173 h 14.45313 v 6.88477 h -55.12696 v -6.88477 h 13.72071 l -0.0977,-0.48828 Q 314.0625,91.601562 311.71875,84.423828 l -0.3418,-1.025391 h -7.08008 v -6.787109 h 22.2168 V 64.501953 h 7.4707 z m -15.13671,6.787109 q 2.58789,7.958985 4.73632,18.701173 h 12.15821 q 2.92968,-8.105469 5.32226,-18.701173 z m 31.83593,35.888673 v 39.30664 h -7.32422 v -5.51758 h -25.97656 v 6.39649 h -7.56836 v -40.18555 z m -33.30078,6.68945 v 20.3125 h 25.97656 v -20.3125 z m 65.42969,-22.70508 q 12.8418,13.57422 12.8418,29.44336 0,5.56641 -2.00196,8.39844 -2.4414,3.27149 -8.49609,3.27149 -5.81055,0 -10.69336,-0.6836 l -1.61133,-7.61719 q 6.25,1.02539 10.15625,1.02539 3.71094,0 4.39453,-2.49023 0.29297,-1.07422 0.29297,-3.51562 0,-13.72071 -12.64648,-26.70899 5.85937,-12.695311 9.52148,-26.708983 h -15.42969 v 81.787113 h -7.37304 V 70.507812 h 27.49023 l 4.39453,3.808594 q -5.37109,17.382813 -10.83984,28.955074 z"></path>
</svg>
