<svg xmlns="http://www.w3.org/2000/svg" id="svg1" version="1.1" height="200" width="1096">
  <defs id="defs1"></defs>
  <rect id="rect1" stroke="none" fill="none" height="200" width="1096" y="0" x="0"></rect>
  <path aria-label="千島列島" style="font-weight:bold;font-size:110px;font-family:'BIZ UDPGothic';fill:#ff0000" id="text1" d="m 60.908203,72.495117 v 27.553713 h 46.352537 v 10.90332 H 60.908203 v 49.52148 H 48.393555 V 110.95215 H 2.7392578 V 100.04883 H 48.393555 V 74.267578 Q 30.239258,76.416016 14.394531,77.490234 L 9.7753906,67.070312 Q 50.810547,65.351562 85.883789,56.05957 l 8.271484,9.345703 q -14.394531,3.97461 -33.24707,7.089844 z m 91.684567,-8.378906 q 1.98731,-4.780274 3.22266,-9.130859 l 13.10547,1.77246 q -1.87988,4.458008 -3.4375,7.358399 h 35.77148 v 35.019531 h -64.88281 v 5.424808 h 80.83496 v 8.70117 h -80.83496 v 5.47851 h 77.0752 q -0.69825,24.59961 -3.11524,33.19336 -1.55762,5.47852 -5.85449,7.25098 -3.06152,1.28906 -9.3457,1.28906 -6.44532,0 -12.03125,-0.80566 l -2.14844,-9.02344 h -53.81836 v 5.96192 h -11.54785 v -25.83497 h 11.54785 v 11.06446 h 18.47656 v -14.50196 h -21.1084 V 64.116211 Z m 22.82715,77.719729 v -11.06446 h 11.11817 v 18.69141 q 4.458,0.42969 7.41211,0.42969 3.65234,0 4.56542,-2.09473 1.77247,-3.9209 2.79297,-20.46387 H 157.1582 v 14.50196 z M 136.37207,72.387695 v 5.317383 h 53.0127 v -5.317383 z m 0,12.998047 v 5.854492 h 53.0127 V 85.385742 Z M 254.375,125.77637 q -7.25098,-7.14356 -14.93164,-12.56836 -4.08203,6.71387 -9.77539,13.37402 l -7.25098,-9.13086 Q 238.47656,98.061523 243.79395,72.011719 H 225.58594 V 61.21582 h 55.37597 v 10.795899 h -25.83496 q -1.45019,7.143554 -3.22265,12.783203 h 20.03418 l 5.58593,4.511719 q -3.65234,25.673829 -13.2666,42.807619 -9.56054,17.02636 -28.68164,28.03711 l -7.89551,-9.13086 q 17.13379,-9.18457 26.69434,-25.24414 z m 5.04883,-10.63477 q 3.65234,-9.18457 5.69336,-20.463866 h -16.59668 q -1.98731,5.15625 -4.24317,9.721676 7.94922,4.61914 15.14649,10.74219 z m 26.69433,-44.257811 h 11.65528 v 63.593751 h -11.65528 z m 24.0625,-10.849609 h 11.87012 v 87.54883 q 0,5.74707 -2.36328,8.3789 -2.79297,3.06153 -10.63477,3.06153 -4.88769,0 -15.03906,-0.4834 l -3.16894,-0.16113 -2.30957,-11.7627 q 10.84961,1.18164 17.67089,1.18164 3.00782,0 3.59864,-1.5039 0.37597,-0.91309 0.37597,-2.57813 z m 62.41211,4.082031 q 1.98731,-4.780274 3.22266,-9.130859 l 13.10547,1.77246 q -1.87988,4.458008 -3.4375,7.358399 h 35.77148 v 35.019531 h -64.88281 v 5.424808 h 80.83496 v 8.70117 h -80.83496 v 5.47851 h 77.0752 q -0.69825,24.59961 -3.11524,33.19336 -1.55762,5.47852 -5.85449,7.25098 -3.06152,1.28906 -9.3457,1.28906 -6.44532,0 -12.03125,-0.80566 l -2.14844,-9.02344 h -53.81836 v 5.96192 h -11.54785 v -25.83497 h 11.54785 v 11.06446 h 18.47656 v -14.50196 h -21.1084 V 64.116211 Z m 22.82715,77.719729 v -11.06446 h 11.11817 v 18.69141 q 4.458,0.42969 7.41211,0.42969 3.65234,0 4.56542,-2.09473 1.77247,-3.9209 2.79297,-20.46387 H 377.1582 v 14.50196 z M 356.37207,72.387695 v 5.317383 h 53.0127 v -5.317383 z m 0,12.998047 v 5.854492 h 53.0127 v -5.854492 z"></path>
</svg>
