<svg xmlns="http://www.w3.org/2000/svg" id="svg1" version="1.1" height="200" width="1096">
  <defs id="defs1"></defs>
  <rect id="rect1" stroke="none" fill="none" height="200" width="1096" y="0" x="0"></rect>
  <path aria-label="長野県北部" style="font-weight:bold;font-size:110px;font-family:'BIZ UDPGothic';fill:#ff0000" id="text1" d="m 78.256836,136.14258 q 10.795898,7.62695 29.379884,12.46094 l -7.46582,10.20507 q -24.384767,-6.875 -38.618166,-22.66601 -8.486328,-9.3457 -12.568359,-21.32324 H 33.837891 v 31.20605 q 13.803711,-2.52441 29.272461,-6.66016 l 0.751953,10.20508 q -25.351563,7.25098 -50.273438,11.33301 L 9.7753906,149.78516 q 8.4863284,-1.07422 11.8701174,-1.61133 V 114.81934 H 2.7392578 v -9.13086 H 21.645508 V 59.443359 h 74.228515 v 9.023438 H 33.837891 v 6.391601 H 90.932617 V 83.55957 H 33.837891 v 6.499024 h 57.094726 v 8.486328 H 33.837891 v 7.143558 h 73.369139 v 9.13086 H 92.543945 l 8.486325,7.35839 q -10.205075,7.3584 -22.773434,13.96485 z m -7.734375,-6.33789 q 12.407226,-7.73438 20.786133,-14.98535 H 59.995117 q 3.598633,8.32519 10.527344,14.98535 z M 165.42969,59.926758 v 49.252932 h -19.1211 v 10.58105 h 19.55078 v 9.66797 h -19.55078 v 11.87012 q 1.07422,-0.16113 2.90039,-0.42969 7.68067,-1.12793 19.17481,-3.27637 l 0.69824,9.56055 q -25.45898,5.69336 -54.24805,9.23828 l -3.27636,-10.90332 q 12.2998,-1.12793 23.25683,-2.57812 l 0.59082,-0.10743 v -13.37402 h -20.78613 v -9.66797 h 20.78613 V 109.17969 H 116.49902 V 59.926758 Z m -39.58496,9.130859 v 10.84961 h 10.04394 v -10.84961 z m 0,19.658203 v 11.33301 h 10.04394 V 88.71582 Z m 30.34668,11.33301 V 88.71582 h -10.3125 v 11.33301 z m 0,-20.141603 v -10.84961 h -10.3125 v 10.84961 z m 42.10937,7.089843 q 1.71875,1.557617 5.10254,4.833985 l -5.04883,4.511718 h 15.62988 l 4.61915,4.833987 q -5.3711,17.34863 -9.99024,27.28515 l -10.36621,-3.33007 q 4.4043,-8.37891 7.68066,-18.69141 h -10.3125 v 44.63379 q 0,4.78027 -1.77246,6.92871 -2.09472,2.4707 -8.43261,2.4707 -6.875,0 -13.21289,-0.91308 l -1.77247,-10.7959 q 8.37891,1.02051 11.49415,1.02051 1.5039,0 1.93359,-0.69825 0.32226,-0.64453 0.32226,-2.04101 V 106.44043 H 168.97461 V 96.342773 h 23.95508 q -8.64746,-8.862304 -19.1211,-16.274414 l 7.41211,-6.606445 q 4.4043,3.061523 10.09766,7.573242 4.72656,-4.941406 9.02344,-11.440429 h -29.37989 v -9.667969 h 39.85352 l 5.26367,5.800781 Q 207.37793,78.242187 198.30078,86.99707 Z M 312.16797,58.583984 V 110.62988 H 248.25195 V 58.583984 Z m -52.36817,8.486328 v 6.713868 h 40.7129 v -6.713868 z m 0,14.28711 v 6.713867 h 40.7129 v -6.713867 z m 0,14.287109 v 6.928709 h 40.7129 v -6.928709 z m -21.6455,22.128909 h 89.05273 v 9.3457 h -44.41894 v 33.35449 H 270.5957 V 127.11914 H 226.3916 V 66.855469 h 11.7627 z m -13.75,32.4414 q 12.7832,-5.9082 24.43847,-19.81933 l 9.88282,5.74707 q -11.49414,14.55566 -25.5127,22.88086 z m 92.59765,6.92871 q -8.21777,-10.09765 -24.70703,-21.21582 l 9.23828,-6.49902 q 12.94434,7.46582 25.40528,19.60449 z m 45.11719,-25.29785 q -14.82422,7.78809 -25.83496,11.92383 l -4.51172,-11.81641 q 17.24121,-5.80078 30.34668,-12.03124 V 95.859375 H 335.53223 V 84.526367 h 26.58691 V 55.952148 h 11.97754 V 160.47363 h -11.97754 z m 38.18848,-41.840817 q 12.51465,-6.552735 24.27734,-16.650391 l 8.91602,9.345703 q -15.89844,11.279297 -33.19336,19.228515 v 40.2832 q 0,2.63184 1.71875,3.22266 1.82617,0.59082 8.43261,0.59082 8.70118,0 10.90332,-1.02051 1.55762,-0.69824 2.14844,-4.35058 0.80567,-5.10254 1.18164,-16.48926 l 12.03125,3.70605 q -0.53711,13.91114 -1.71875,19.98047 -1.34277,6.76758 -7.03613,8.75489 -5.4248,1.82617 -17.77832,1.82617 -14.50195,0 -18.26172,-2.417 -3.59863,-2.36328 -3.59863,-9.07714 V 55.952148 h 11.97754 z m 78.0957,-21.645508 h 22.98828 v 10.366211 h -7.57324 q -2.04102,8.217773 -5.47852,17.241211 h 14.34082 v 10.366213 h -59.9414 V 95.966797 h 13.15918 Q 453.75,85.654297 451.38672,78.725586 H 444.4043 V 68.359375 h 22.77343 V 55.952148 h 11.22559 z m -16.16699,10.366211 q 2.73926,8.00293 4.24316,17.241211 h 10.95703 l 0.53711,-1.503906 q 2.30957,-6.123047 4.29688,-13.911133 l 0.4834,-1.826172 z m 33.30078,36.630864 v 43.98925 h -11.01074 v -5.26367 H 461.1084 v 6.3916 h -11.33301 v -45.11718 z m -34.42871,9.88281 v 18.63769 h 23.41797 v -18.63769 z m 71.75781,-27.124026 q 6.3916,6.069336 10.15137,14.448246 3.70605,8.3789 3.70605,16.97265 0,7.94922 -2.9541,11.70899 -3.06152,3.9209 -10.09766,3.9209 -6.01562,0 -11.65527,-0.85938 l -2.63183,-11.44043 q 6.49902,1.18164 10.74218,1.18164 3.22266,0 4.02832,-1.5039 0.53711,-1.07422 0.53711,-4.29688 0,-13.2666 -7.94922,-22.88086 -2.09472,-2.52441 -5.26367,-5.424804 l 0.64453,-1.503906 q 5.58594,-12.62207 8.70118,-26.318359 h -13.75 V 160.47363 H 505.95703 V 61.000977 h 32.33399 l 5.96191,5.478515 q -5.42481,18.476563 -11.38672,31.635742 z"></path>
</svg>
