<svg xmlns="http://www.w3.org/2000/svg" id="svg1" version="1.1" height="200" width="1096">
  <defs id="defs1"></defs>
  <rect id="rect1" stroke="none" fill="none" height="200" width="1096" y="0" x="0"></rect>
  <path aria-label="愛媛県南予" style="font-weight:bold;font-size:110px;font-family:'BIZ UDPGothic';fill:#ff0000" id="text1" d="m 85.454102,79.692383 h 19.228518 v 22.021487 h -9.614261 q 3.168946,4.67285 6.069341,9.99023 l -10.312505,5.53223 Q 84.21875,104.02344 77.397461,95.751953 l 9.453125,-4.511719 q 3.4375,3.97461 6.176758,7.573243 v -10.3125 H 57.363281 q 4.56543,4.726562 9.453125,12.192383 l -9.667969,5.96191 Q 53.764648,99.887695 47.695312,92.583008 l 7.250977,-4.082031 H 16.918945 V 101.71387 H 5.2636719 V 79.692383 H 23.632812 q -1.665039,-4.082031 -4.243164,-8.486328 -2.363281,0.107422 -8.002929,0.375976 L 6.875,62.558594 q 50.004883,-1.235352 83.251953,-7.197266 l 8.486328,7.949219 q -7.788086,1.289062 -14.34082,2.202148 l 7.841797,2.309571 q -1.933594,4.511718 -6.660156,11.870117 z m -11.655274,0 q 4.02832,-7.304688 6.445313,-13.642578 -10.419922,1.396484 -23.364258,2.470703 3.383789,5.263672 5.424804,11.171875 z m -23.095703,0 Q 48.662109,74.804687 45.27832,69.379883 L 30.9375,70.507812 q 3.168945,5.15625 4.619141,9.184571 z M 32.65625,133.18848 q -9.506836,6.01562 -20.678711,9.99023 l -6.7138671,-8.70117 q 20.8398441,-6.3916 33.3544921,-18.79883 -4.189453,-1.71875 -4.189453,-5.85449 V 92.583008 h 11.44043 V 104.3457 q 0,2.84668 1.396484,3.4375 1.342773,0.53711 9.936523,0.53711 9.72168,0 10.84961,-1.18164 1.342773,-1.39648 1.450195,-7.734373 l 10.419922,2.631833 q 0.05371,0.53711 0.05371,1.02051 0,6.98242 -2.202149,10.20508 -1.557617,2.30957 -6.069335,2.84668 -5.908204,0.75195 -16.542969,0.75195 -2.25586,0 -4.135742,-0.0537 -2.041016,2.52441 -4.082032,4.56543 h 37.758789 l 4.941407,4.94141 q -8.808594,9.3457 -20.893555,16.2207 15.844727,4.99512 38.67188,7.14355 l -6.82129,10.52735 q -23.310551,-3.38379 -43.398442,-11.60156 -21.21582,9.93652 -47.749023,13.2666 l -6.1767578,-9.66797 q 22.1826168,-1.77246 42.7001948,-9.13086 -7.304687,-4.29688 -13.320312,-9.88281 z m 24.599609,5.10254 q 0.322266,-0.10743 1.396485,-0.69825 7.143554,-3.81347 12.514648,-8.05664 h -28.68164 q 6.982421,5.15625 14.770507,8.75489 z M 10.634766,113.36914 q 5.317382,-6.82129 9.882812,-20.463867 l 10.473633,3.061524 Q 27.5,109.87793 20.732422,119.11621 Z M 165.53711,94.355469 h -11.87012 v -9.023438 h 8.16406 q -2.4707,-7.788086 -5.10253,-12.460937 l 8.16406,-2.631836 q 4.08203,6.499023 6.12304,12.783203 l -7.25097,2.30957 h 28.84277 q 4.94141,-10.097656 7.57324,-19.282226 l 10.68848,3.974609 q -3.65234,7.626953 -8.05664,15.307617 h 11.87012 v 9.023438 h -38.61817 q -0.21484,3.007812 -0.69824,7.895511 h 42.00195 v 9.45312 h -43.2373 q -0.16113,0.91309 -0.4834,2.63184 -0.37598,2.25586 -0.91309,4.51172 h 33.8379 l 5.04882,4.72656 q -5.96191,11.8164 -14.60937,19.81933 9.66797,4.78028 21.1084,7.14356 l -4.72657,10.09766 q -13.42773,-3.27637 -24.11621,-10.36622 l -0.53711,-0.32226 q -10.90332,7.25098 -23.63281,11.70898 l -5.74707,-8.80859 q 11.97754,-2.63184 21.48438,-8.80859 -6.92871,-5.8545 -11.92383,-13.32032 -6.44531,16.7041 -19.01367,29.16504 l -8.00293,-7.57324 q 16.54297,-14.50195 21.43066,-40.60547 H 151.25 v -9.45312 h 13.53516 q 0.53711,-4.565433 0.75195,-7.895511 z m 22.88086,43.881831 q 6.44531,-5.63964 9.56055,-10.68847 h -21.48438 q 4.51172,5.31738 11.92383,10.68847 z m -57.20215,-6.33789 q -8.16406,-5.58593 -16.7041,-9.72168 l 0.53711,-1.71875 q 4.18945,-12.67578 7.57324,-32.817378 h -9.88281 V 77.167969 h 11.38672 q 1.66504,-12.246094 2.68554,-21.323242 l 10.47364,1.289062 q -1.23536,10.795898 -2.47071,20.03418 h 16.22071 q -0.85938,33.354491 -7.25098,51.401371 2.57812,1.77246 7.68066,5.80078 l -6.17675,8.80859 q -3.49122,-3.16894 -5.69336,-4.94141 -7.03614,13.96485 -17.61719,22.61231 l -7.78809,-8.54004 q 10.25879,-6.82129 17.02637,-20.41016 z m 3.65234,-9.29199 q 4.24317,-13.80371 5.96192,-34.965818 h -7.62696 q -2.73925,17.670898 -6.55273,30.292968 3.38379,1.71875 8.21777,4.67285 z m 15.14649,-61.606443 q 29.0039,-0.483399 57.20215,-5.585938 l 5.53222,8.432617 q -26.90918,4.028321 -58.97461,5.854492 z m 29.70215,24.11621 q -2.84668,-9.399414 -5.69336,-13.857421 l 8.43261,-2.524414 q 3.81348,5.102539 7.08985,13.159179 z M 312.16797,58.583984 V 110.62988 H 248.25195 V 58.583984 Z m -52.36817,8.486328 v 6.713868 h 40.7129 v -6.713868 z m 0,14.28711 v 6.713867 h 40.7129 v -6.713867 z m 0,14.287109 v 6.928709 h 40.7129 v -6.928709 z m -21.6455,22.128909 h 89.05273 v 9.3457 h -44.41894 v 33.35449 H 270.5957 V 127.11914 H 226.3916 V 66.855469 h 11.7627 z m -13.75,32.4414 q 12.7832,-5.9082 24.43847,-19.81933 l 9.88282,5.74707 q -11.49414,14.55566 -25.5127,22.88086 z m 92.59765,6.92871 q -8.21777,-10.09765 -24.70703,-21.21582 l 9.23828,-6.49902 q 12.94434,7.46582 25.40528,19.60449 z m 62.03614,-36.63085 h -22.23633 v -8.8086 h 10.74219 q -2.417,-5.47851 -5.47852,-10.20508 l 9.66797,-3.544918 q 4.18945,7.036128 6.76758,13.749998 h 12.62207 q 3.16894,-6.49902 5.58593,-13.964842 l 10.7959,3.383792 q -2.73926,5.9082 -5.80078,10.58105 h 11.54785 v 8.8086 h -22.98828 v 7.84179 h 24.49219 v 9.13086 h -24.49219 v 20.30274 h -11.22558 v -20.30274 h -23.57911 v -9.13086 h 23.57911 z m 11.54785,-33.085942 h 40.71289 v 62.788082 q 0,5.53223 -2.9541,7.78809 -2.47071,1.93359 -8.3252,1.93359 -7.57324,0 -14.60937,-0.80566 l -2.63184,-10.7959 q 9.39941,1.12793 14.07227,1.12793 1.93359,0 2.25586,-0.9668 0.21484,-0.59082 0.21484,-1.66504 V 96.772461 H 350.67871 V 160.47363 H 338.70117 V 87.426758 h 40.01465 v -9.72168 h -45.97656 v -9.990234 h 45.97656 V 55.952148 h 11.87012 v 11.762696 h 46.62109 v 9.990234 h -46.62109 z m 115.80078,-1.12793 q 3.75976,1.933594 8.64746,4.619141 l -6.82129,5.532226 h 32.33398 l 6.06934,6.069335 Q 534.53125,120.72754 522.5,132.43652 l -10.90332,-6.3916 q 10.58105,-9.66797 16.97266,-19.22851 h -26.74805 v 42.10937 q 0,7.30469 -3.59863,9.3457 -2.417,1.39649 -9.02344,1.39649 -8.64746,0 -19.06738,-1.07422 L 467.5,146.61621 q 10.04395,1.61133 17.83203,1.61133 2.9541,0 3.65234,-0.9668 0.53711,-0.80566 0.53711,-2.9541 V 106.81641 H 444.51172 V 96.450195 h 58.22265 Q 484.58008,86.030273 466.42578,78.833008 l 8.70117,-6.928711 q 12.19239,4.887695 21.53809,9.506836 8.27148,-5.639649 14.50195,-11.064453 H 453.75 V 60.141602 h 73.04687 l 6.60645,6.445312 q -14.07227,11.333008 -27.0166,19.711914 z"></path>
</svg>
