<svg xmlns="http://www.w3.org/2000/svg" id="svg1" version="1.1" height="200" width="1096">
  <defs id="defs1"></defs>
  <rect id="rect1" stroke="none" fill="none" height="200" width="1096" y="0" x="0"></rect>
  <path aria-label="大隅半島東方沖" style="font-weight:bold;font-size:110px;font-family:'BIZ UDPGothic';fill:#ff0000" id="text1" d="m 62.46582,94.570312 q 3.706055,12.568358 14.072266,26.748048 12.62207,17.29492 31.044924,27.39258 l -7.680666,11.06445 q -19.497071,-11.49414 -32.548828,-30.4541 -7.036133,-10.3125 -11.279297,-21.00098 -4.243164,14.39453 -13.15918,26.15723 -13.105469,17.40234 -32.387695,25.67383 l -7.5732424,-9.8291 Q 23.149414,141.88965 35.556641,124.32617 45.976562,109.50195 47.910156,94.570312 H 5.0488281 V 82.915039 H 48.393555 V 57.026367 h 12.407226 v 25.888672 h 44.257809 v 11.655273 z m 64.02344,42.109378 v 23.79394 h -10.7959 V 60.249023 h 28.30566 l 5.3711,4.619141 q -4.4043,17.080078 -10.47364,30.507813 7.51954,11.225583 7.51954,25.190433 0,8.91601 -2.73926,13.05175 -2.57813,3.86719 -9.45313,3.86719 -4.99511,0 -7.73437,-0.80566 z m 0,-10.25879 q 3.06152,0.4834 5.4248,0.4834 2.63184,0 3.4375,-2.47071 0.69824,-2.14843 0.69824,-6.23046 0,-11.22559 -7.03613,-22.236333 5.63965,-13.535156 8.70117,-25.620117 h -11.22558 z m 65.25879,5.53222 q -0.9668,-3.49121 -2.47071,-7.46582 l 6.66016,-2.52441 q 4.18945,9.39941 6.71387,21.75293 l -8.00293,3.4375 q -0.59082,-3.97461 -1.28907,-7.14355 -13.58886,2.73925 -30.18554,4.02832 l -2.09473,-9.77539 q 9.50684,-0.37598 14.17969,-0.75196 0.80566,-0.0537 1.34277,-0.10742 v -13.53516 h -17.72461 v 40.60547 h -10.20508 v -50.05859 h 27.92969 v -7.25098 H 152.75391 V 60.678711 h 56.9873 v 42.485349 h -23.90137 v 7.25098 h 29.05762 v 40.12207 q 0,5.63965 -3.65234,7.57324 -2.57813,1.39649 -7.8418,1.39649 -5.37109,0 -11.38672,-0.80567 l -1.45019,-10.25879 q 1.66504,0.21485 5.80078,0.80567 3.11523,0.42968 5.4248,0.42968 1.82617,0 2.25586,-1.23535 0.26856,-0.69824 0.26856,-2.09472 v -26.4795 h -18.79883 v 12.78321 q 3.33008,-0.37598 6.23047,-0.69825 z M 162.95898,69.702148 v 7.680664 h 13.64258 v -7.680664 z m 0,16.166993 v 8.59375 h 13.64258 v -8.59375 z m 36.52344,8.59375 v -8.59375 h -13.64258 v 8.59375 z m 0,-17.080079 v -7.680664 h -13.64258 v 7.680664 z M 268.6084,93.442383 V 55.952148 h 12.08496 v 37.490235 h 40.92773 v 10.688477 h -40.92773 v 15.25391 h 46.56738 v 10.90332 h -46.56738 v 30.18554 H 268.6084 V 130.28809 H 222.73926 V 119.38477 H 268.6084 V 104.13086 H 228.43262 V 93.442383 Z M 245.08301,89.951172 Q 238.42285,75.180664 231.11816,65.405273 l 11.22559,-5.478515 q 8.27148,11.386719 14.50195,24.599609 z m 47.1582,-4.189453 q 8.48633,-12.890625 13.53516,-27.070313 l 12.56836,4.941406 q -6.06934,13.320313 -15.30762,26.748047 z m 80.35156,-21.645508 q 1.98731,-4.780274 3.22266,-9.130859 l 13.10547,1.77246 q -1.87988,4.458008 -3.4375,7.358399 h 35.77148 v 35.019531 h -64.88281 v 5.424808 h 80.83496 v 8.70117 h -80.83496 v 5.47851 h 77.0752 q -0.69825,24.59961 -3.11524,33.19336 -1.55762,5.47852 -5.85449,7.25098 -3.06152,1.28906 -9.3457,1.28906 -6.44532,0 -12.03125,-0.80566 l -2.14844,-9.02344 h -53.81836 v 5.96192 h -11.54785 v -25.83497 h 11.54785 v 11.06446 h 18.47656 v -14.50196 h -21.1084 V 64.116211 Z m 22.82715,77.719729 v -11.06446 h 11.11817 v 18.69141 q 4.458,0.42969 7.41211,0.42969 3.65234,0 4.56542,-2.09473 1.77247,-3.9209 2.79297,-20.46387 H 377.1582 v 14.50196 z M 356.37207,72.387695 v 5.317383 h 53.0127 v -5.317383 z m 0,12.998047 v 5.854492 h 53.0127 v -5.854492 z m 156.24512,40.175778 q 13.32031,11.87012 35.8789,19.17481 l -6.92871,10.09765 q -12.99804,-4.61914 -22.66601,-11.17187 -9.99024,-6.82129 -18.42285,-16.75781 v 33.56933 h -11.65528 v -32.97851 q -7.46582,10.47363 -19.28222,18.79883 -9.07715,6.3916 -19.44336,10.3125 l -7.3584,-9.45313 q 17.02636,-5.63965 28.41308,-15.2002 3.22266,-2.68554 6.55274,-6.3916 H 451.87012 V 81.572266 h 36.95312 V 74.321289 H 444.29687 V 64.65332 h 44.52637 v -8.701172 h 11.65528 v 8.701172 h 45.2246 v 9.667969 h -45.2246 v 7.250977 h 37.65136 V 125.56152 Z M 488.82324,90.595703 h -25.29785 v 8.701172 h 25.29785 z m 11.65528,0 v 8.701172 h 25.99609 v -8.701172 z m -11.65528,17.080077 h -25.29785 v 8.86231 h 25.29785 z m 11.65528,0 v 8.86231 h 25.99609 v -8.86231 z m 101.6748,-22.773436 q -0.37598,8.969726 -1.07422,15.791016 h 43.29102 q -0.80567,37.27539 -4.18946,48.39355 -1.71875,5.58594 -6.3916,7.73438 -3.65234,1.66504 -10.68847,1.66504 -7.41211,0 -16.81153,-1.12793 l -2.09472,-12.08496 q 12.62207,1.77246 17.77832,1.77246 4.35058,0 5.53222,-2.4707 2.84668,-6.01563 3.97461,-33.19336 h -31.95801 q -1.77246,9.66796 -4.99511,16.75781 -8.96973,19.60449 -29.97071,31.09863 l -8.48632,-9.45312 q 21.05468,-10.95704 27.82226,-28.73536 4.51172,-11.87011 5.85449,-36.147456 H 554.18945 V 73.891602 h 43.88184 V 55.952148 h 12.40723 v 17.939454 h 45.33203 v 11.010742 z m 121.54785,-8.916016 v -20.03418 h 11.54785 v 20.03418 h 29.11133 v 48.608402 h -29.11133 v 35.8789 h -11.54785 v -35.8789 H 695.18066 V 75.986328 Z m -17.40234,10.688477 v 27.338865 h 17.40234 V 86.674805 Z m 46.62109,27.338865 V 86.674805 h -17.6709 v 27.338865 z m -68.75,-31.796873 q -6.55273,-9.13086 -17.34863,-17.456055 l 8.00293,-8.164062 q 10.74219,7.573242 18.1543,16.972656 z m -3.49121,27.607423 q -9.3457,-10.849611 -18.1543,-17.778322 l 8.27149,-8.271484 q 9.39941,6.606445 18.58398,17.080076 z m -16.7041,41.62598 q 10.3125,-14.66309 19.01367,-36.52344 l 9.56055,7.3584 q -7.3584,20.1416 -17.93946,37.91992 z"></path>
</svg>
