<svg xmlns="http://www.w3.org/2000/svg" id="svg1" version="1.1" height="200" width="990">
  <defs id="defs1"></defs>
  <rect id="rect1" stroke="none" fill="none" height="200" width="990" y="0" x="0"></rect>
  <path aria-label="橘湾" style="font-size:100px;font-family:'BIZ UDPGothic';fill:#ff0000" id="text1" d="M 65.039062,90.283203 Q 55.273437,101.02539 39.0625,107.32422 l -4.248047,-5.51758 Q 49.707031,97.021484 59.179687,88.623047 H 35.449219 V 82.8125 H 61.669922 Q 56.787109,80.273437 49.658203,77.197266 l 4.882813,-3.515625 q 6.445312,2.783203 12.792968,6.298828 6.689453,-3.515625 10.595703,-6.494141 H 41.162109 v -5.810547 h 44.873047 l 3.466797,3.613281 Q 82.373047,77.587891 72.753906,82.8125 h 21.240235 l 3.808593,3.515625 Q 91.748047,96.191406 84.912109,103.125 l -5.615234,-3.710938 q 5.615234,-5.273437 8.935547,-10.791015 H 72.119141 v 14.306643 q 0,3.51562 -1.708985,4.88281 -1.5625,1.31836 -5.517578,1.31836 -4.296875,0 -9.570312,-0.73242 l -1.074219,-5.66406 q 5.419922,0.68359 8.691406,0.68359 1.660156,0 1.953125,-0.73242 0.146484,-0.39063 0.146484,-1.46485 z M 16.015625,108.88672 Q 11.71875,124.6582 4.8339844,136.57227 l -3.515625,-8.00782 Q 10.205078,114.01367 14.941406,94.53125 l 0.439453,-1.660156 H 2.6367188 V 85.888672 H 16.015625 V 64.501953 H 23.4375 v 21.386719 h 9.716797 v 6.982422 H 23.4375 v 8.789066 q 6.25,5.32226 11.376953,11.03515 l -3.857422,6.78711 q -3.515625,-4.93164 -7.519531,-9.57031 v 49.56055 h -7.421875 z m 71.826172,19.6289 H 74.853516 q -5.322266,0 -5.322266,-4.83398 v -7.4707 h -9.179688 q -1.464843,9.0332 -7.714843,14.16015 h 27.294922 v 17.5293 h -23.19336 v 4.39453 h -6.103515 v -20.45898 q -1.464844,0.97656 -4.052735,2.14843 l -3.515625,-5.46875 q 9.033203,-3.41796 10.791016,-12.30468 H 42.675781 v 43.31054 h -7.080078 v -49.02343 h 59.326172 v 40.91797 q 0,4.58984 -2.246094,6.25 -1.855469,1.31835 -5.859375,1.31835 -3.515625,0 -10.986328,-0.68359 l -1.416016,-6.5918 q 6.494141,0.58594 10.839844,0.58594 1.953125,0 2.34375,-1.02539 0.244141,-0.58594 0.244141,-1.66016 z m 0,-5.41992 v -6.88476 H 75.830078 v 5.5664 q 0,1.31836 1.318359,1.31836 z m -31.103516,12.69532 v 6.68945 h 16.992188 v -6.68945 z M 165.08789,73.583984 h 32.12891 v 6.298828 h -23.38868 v 19.189454 q 0,3.076174 -1.5625,4.492184 -1.5625,1.41602 -5.66406,1.41602 -5.02929,0 -8.49609,-0.48828 l -1.12305,-6.298831 q 4.39453,0.683594 7.4707,0.683594 1.61133,0 1.9043,-1.171875 0.14649,-0.537109 0.14649,-1.416016 v -16.40625 h -10.64454 q -0.43945,9.91211 -2.24609,14.794922 -2.63672,6.982426 -12.01172,11.914066 l -5.07812,-4.83399 q 8.49609,-4.052732 10.69336,-10.058591 1.46484,-4.003907 1.61132,-11.816407 h -21.82617 v -6.298828 h 30.32227 v -9.082031 h 7.76367 z m 24.60938,35.009766 v 18.79883 h -49.60938 q -0.53711,3.90625 -1.31836,7.32422 h 55.32227 q -0.97657,12.30468 -3.41797,18.01757 -1.66016,3.95508 -5.95703,5.56641 -3.32032,1.2207 -9.22852,1.2207 -7.91016,0 -15.86914,-0.78125 l -1.70898,-7.03125 q 10.69336,1.12305 17.48046,1.12305 4.19922,0 5.66407,-0.97656 2.58789,-1.70899 4.15039,-11.03516 h -47.94922 q -0.73242,2.68555 -1.66016,5.71289 l -7.71484,-1.80664 q 2.92969,-8.64258 5.32226,-23.24218 h 48.68165 v -6.98243 h -52.39258 v -5.9082 z M 119.18945,86.083984 q -6.29882,-8.349609 -13.96484,-15.08789 l 5.37109,-4.980469 q 7.37305,5.810547 14.20899,14.501953 z m -3.07617,25.439456 q -7.4707,-9.13086 -14.50195,-15.136721 l 5.32226,-5.273438 q 7.56836,6.103516 14.79493,14.501949 z m -12.30469,41.69922 q 8.4961,-12.74414 15.91797,-33.39844 l 6.00586,4.39453 q -6.39648,19.28711 -15.42969,34.66797 z m 87.89063,-50.14649 Q 184.86328,93.261719 176.9043,85.791016 l 5.32226,-3.90625 q 9.08203,7.666015 15.28321,16.699218 z m -69.28711,-4.589842 q 8.44726,-6.054687 13.62305,-15.478516 l 6.29882,2.587891 q -5.22461,10.546875 -14.50195,17.480467 z"></path>
</svg>
