<svg xmlns="http://www.w3.org/2000/svg" id="svg1" version="1.1" height="200" width="990">
  <defs id="defs1"></defs>
  <rect id="rect1" stroke="none" fill="none" height="200" width="990" y="0" x="0"></rect>
  <path aria-label="朝鮮半島北部" style="font-size:100px;font-family:'BIZ UDPGothic';fill:#ff0000" id="text1" d="M 32.128906,90.283203 H 48.583984 V 126.31836 H 32.128906 v 8.98437 h 20.556641 v 6.5918 H 32.128906 v 17.57813 H 24.609375 V 141.89453 H 2.4902344 v -6.5918 H 24.609375 v -8.98437 H 8.4960938 V 90.283203 H 24.609375 V 81.787109 H 4.1992187 v -6.49414 H 24.609375 V 64.501953 h 7.519531 v 10.791016 h 20.06836 v 6.49414 h -20.06836 z m 9.277344,6.201172 H 15.917969 v 8.691405 H 41.40625 Z M 15.917969,111.08398 v 9.13086 H 41.40625 v -9.13086 z M 92.285156,68.603516 v 82.275394 q 0,4.10156 -2.001953,6.00586 -1.953125,1.90429 -6.835937,1.90429 -4.833985,0 -12.548829,-0.58594 l -1.611328,-7.61718 q 7.8125,0.92773 12.890625,0.92773 1.904297,0 2.294922,-0.97656 0.292969,-0.68359 0.292969,-1.95313 V 123.19336 H 64.599609 q -0.390625,11.08398 -2.58789,19.14062 -2.441407,9.08204 -8.34961,17.28516 l -6.201172,-5.51758 q 7.226563,-9.57031 8.935547,-23.04687 0.78125,-6.20117 0.78125,-14.55078 V 68.603516 Z m -7.519531,6.689453 H 64.697266 v 16.992187 h 20.068359 z m 0,23.583984 H 64.697266 V 116.60156 H 84.765625 Z M 132.17773,87.792969 h 13.81836 V 130.32227 H 108.20313 V 92.529297 q -1.46485,1.513672 -2.88086,2.880859 l -3.71094,-6.005859 q 10.54687,-9.667969 16.30859,-24.121094 l 4.98047,3.417969 h 14.50195 l 3.51563,3.808594 q -4.49219,9.082031 -8.74024,15.283203 z m -8.54492,6.005859 h -8.83789 v 11.914062 h 8.83789 z m 6.49414,0 v 11.914062 h 9.17969 V 93.798828 Z m -6.49414,17.724612 h -8.83789 v 12.79297 h 8.83789 z m 6.49414,0 v 12.79297 h 9.17969 V 111.52344 Z M 125,87.792969 q 4.58984,-7.03125 7.12891,-12.695313 h -11.32813 q -3.07617,5.859375 -8.44726,12.695313 z m 43.99414,-0.195313 h -18.60352 v -6.689453 h 10.00977 Q 157.56836,73.583984 153.61328,67.1875 l 6.78711,-2.587891 q 4.44336,7.666016 7.37305,16.308594 h 9.57031 q 3.90625,-8.447266 6.44531,-16.503906 l 7.71485,2.197265 q -3.66211,8.837891 -6.64063,14.306641 h 11.32813 v 6.689453 h -19.48243 v 15.625004 h 17.38282 v 6.59179 h -17.38282 v 16.60157 h 20.89844 v 6.88476 h -20.89844 v 26.2207 h -7.71484 v -26.2207 h -20.41016 v -6.88476 h 20.41016 v -16.60157 h -16.99219 v -6.59179 h 16.99219 z m -66.79687,68.017574 q 4.24804,-8.98437 6.10351,-21.1914 l 6.00586,1.46484 q -1.9043,15.23438 -5.9082,23.73047 z m 17.08984,2.49024 q -0.39063,-12.1582 -1.75781,-22.02149 l 6.00586,-0.8789 q 1.80664,11.47461 2.29492,21.38672 z m 12.64648,-1.41602 q -1.90429,-12.06054 -4.3457,-20.60547 l 5.41992,-1.66015 q 2.92969,8.15429 5.32227,20.06836 z m 11.86524,-2.39258 q -3.22266,-11.86523 -6.68946,-19.58007 l 5.07813,-2.19727 q 4.78516,9.27734 7.51953,19.0918 z M 245.70312,99.902344 V 64.501953 h 7.91016 v 35.400391 h 37.98828 v 7.080076 h -37.98828 v 15.625 h 43.89649 v 7.17774 h -43.89649 v 29.6875 h -7.91016 v -29.6875 h -43.21289 v -7.17774 h 43.21289 v -15.625 h -37.30468 v -7.080076 z m -20.8496,-3.710938 Q 218.75,82.763672 211.66992,73.095703 l 7.32422,-3.710937 q 8.10547,11.71875 13.47656,22.90039 z m 41.8457,-3.173828 q 7.66601,-11.474609 12.79297,-24.707031 l 8.10547,3.076172 q -5.81055,13.134765 -13.81836,24.902343 z m 101.31836,56.201172 h -53.8086 v 5.71289 h -7.71484 v -23.0957 h 7.71484 v 11.18164 h 19.0918 v -14.69727 h -19.0918 V 73.291016 h 23.97461 q 3.36914,-4.931641 5.41993,-9.179688 l 8.6914,2.001953 q -2.39258,3.515625 -5.46875,7.177735 h 35.25391 v 30.517574 h -59.96094 v 6.00586 h 75.3418 v 6.10352 h -75.3418 v 6.29883 h 70.94727 q -0.73243,23.87695 -3.32032,30.71289 -1.5625,4.19922 -5.51757,5.66406 -2.5879,0.92773 -6.83594,0.92773 -6.15235,0 -11.76758,-0.8789 l -1.61133,-7.22656 q 6.73828,1.02539 12.10938,1.02539 4.24804,0 5.37109,-1.95313 2.24609,-3.90625 3.36914,-22.16797 h -43.94531 v 14.69727 h 19.58008 v -11.18164 h 7.51953 z M 322.11914,79.296875 v 6.298828 h 52.09961 v -6.298828 z m 0,12.011719 v 6.689453 h 52.09961 V 91.308594 Z M 430.61523,132.8125 q -11.42578,6.25 -25.09765,11.81641 l -3.51563,-7.71485 q 17.33399,-6.15234 28.61328,-11.96289 V 98.535156 h -25.63476 v -7.421875 h 25.63476 V 65.527344 h 8.00782 v 93.212886 h -8.00782 z M 462.01172,97.949219 Q 475,91.845703 487.30469,81.591797 l 6.20117,6.103515 Q 478.36914,98.779297 462.01172,105.9082 v 38.1836 q 0,3.07617 2.24609,3.71093 1.80664,0.53711 10.35156,0.53711 8.05665,0 10.35157,-1.12304 1.66015,-0.83008 2.24609,-4.29688 0.68359,-4.44336 1.07422,-14.84375 l 7.91016,2.73438 q -0.58594,16.01562 -2.2461,19.9707 -1.61133,3.90625 -7.03125,4.88281 -4.63867,0.83008 -13.52539,0.83008 -12.10937,0 -15.42969,-1.5625 -3.95507,-1.85547 -3.95507,-7.91016 V 65.478516 h 8.00781 z m 71.97265,-21.337891 h 21.82618 v 6.787109 h -7.03125 q -2.05078,9.13086 -5.61524,18.701173 h 14.45313 v 6.88477 h -55.12696 v -6.88477 h 13.72071 l -0.0977,-0.48828 Q 514.0625,91.601562 511.71875,84.423828 l -0.3418,-1.025391 h -7.08008 v -6.787109 h 22.2168 V 64.501953 h 7.4707 z m -15.13671,6.787109 q 2.58789,7.958985 4.73632,18.701173 h 12.15821 q 2.92968,-8.105469 5.32226,-18.701173 z m 31.83593,35.888673 v 39.30664 h -7.32422 v -5.51758 h -25.97656 v 6.39649 h -7.56836 v -40.18555 z m -33.30078,6.68945 v 20.3125 h 25.97656 v -20.3125 z m 65.42969,-22.70508 q 12.8418,13.57422 12.8418,29.44336 0,5.56641 -2.00196,8.39844 -2.4414,3.27149 -8.49609,3.27149 -5.81055,0 -10.69336,-0.6836 l -1.61133,-7.61719 q 6.25,1.02539 10.15625,1.02539 3.71094,0 4.39453,-2.49023 0.29297,-1.07422 0.29297,-3.51562 0,-13.72071 -12.64648,-26.70899 5.85937,-12.695311 9.52148,-26.708983 h -15.42969 v 81.787113 h -7.37304 V 70.507812 h 27.49023 l 4.39453,3.808594 q -5.37109,17.382813 -10.83984,28.955074 z"></path>
</svg>
