<svg xmlns="http://www.w3.org/2000/svg" id="svg1" version="1.1" height="200" width="990">
  <defs id="defs1"></defs>
  <rect id="rect1" stroke="none" fill="none" height="200" width="990" y="0" x="0"></rect>
  <path aria-label="ヨーロッパ西部" style="font-size:100px;font-family:'BIZ UDPGothic';fill:#ff0000" id="text1" d="M 9.0820313,75.683594 H 78.613281 V 149.31641 H 6.2988281 v -7.08008 H 70.507812 V 114.59961 H 11.376953 v -6.98242 H 70.507812 V 82.763672 H 9.0820313 Z M 96.630859,106.29883 H 180.9082 v 7.71484 H 96.630859 Z M 197.41211,77.197266 h 73.0957 v 72.119144 h -73.0957 z m 8.20312,7.421875 v 57.177729 h 56.68946 V 84.619141 Z m 91.69922,34.277339 q -3.07617,-13.81835 -8.39843,-25.683589 l 6.59179,-3.320313 q 5.17578,10.693362 8.98438,26.123052 z m 22.02149,-4.29687 q -3.02735,-13.33008 -8.20313,-25.488282 l 7.08008,-2.929687 q 4.54102,10.302734 8.30078,25.732419 z m -13.52539,32.8125 q 23.33984,-6.39649 32.22656,-22.75391 6.98242,-12.79297 9.66797,-37.646481 l 7.51953,2.197265 q -2.49024,18.359376 -6.29883,29.199216 -5.41992,15.57617 -16.16211,24.1211 -8.64258,6.83593 -22.85156,11.27929 z m 66.60156,-3.02734 q 8.44726,-12.10938 14.4043,-30.95704 5.95703,-18.798824 7.61718,-37.744136 l 7.95899,1.708984 q -6.54297,48.876952 -23.38867,72.998042 z m 75.39062,6.00585 q -6.64062,-11.03515 -12.74414,-27.39257 -8.05664,-21.63086 -12.93945,-45.800784 l 7.61719,-2.392579 q 4.54101,23.632813 13.33008,45.849613 5.41992,13.7207 11.76757,24.26757 z m 2.14844,-84.374995 q 3.36914,0 6.34766,1.953125 5.22461,3.466797 5.22461,9.667969 0,4.6875 -3.41797,8.154297 -3.41797,3.417968 -8.25195,3.417968 -2.68555,0 -5.17579,-1.269531 -2.68554,-1.416016 -4.39453,-3.955078 -1.95312,-2.929688 -1.95312,-6.445313 0,-2.832031 1.46484,-5.46875 1.46485,-2.685546 3.95508,-4.248046 2.83203,-1.806641 6.20117,-1.806641 z m -0.0488,5.078125 q -1.75781,0 -3.36914,0.976562 -3.125,1.855469 -3.125,5.566407 0,2.490234 1.66016,4.345703 1.95312,2.148437 4.88281,2.148437 1.61133,0 3.02735,-0.78125 3.46679,-1.855468 3.46679,-5.71289 0,-2.783203 -2.00195,-4.736328 -1.9043,-1.806641 -4.54102,-1.806641 z m 48.73047,22.607422 V 77.197266 H 467.82227 V 70.3125 h 94.38476 v 6.884766 h -33.88672 v 16.503906 h 27.78321 V 157.8125 h -7.8125 V 150 h -66.6504 v 7.8125 h -7.71484 V 93.701172 Z m 7.51953,0 h 14.64844 V 77.197266 h -14.64844 z m -7.56836,6.591798 h -16.94336 v 42.91992 h 66.6504 V 125.97656 H 528.125 q -7.32422,0 -7.32422,-6.59179 v -19.0918 h -14.69726 q -0.43946,10.5957 -3.125,16.89453 -3.8086,8.93555 -14.94141,15.52734 l -4.98047,-5.61523 q 10.40039,-5.41992 13.52539,-14.50195 1.51367,-4.44336 2.00195,-12.30469 z m 29.73633,0 v 16.50391 q 0,1.51367 0.58594,1.95312 0.53711,0.43945 1.80664,0.43945 h 17.57813 v -18.89648 z m 70.70313,-23.681642 h 21.82617 v 6.787109 h -7.03125 q -2.05078,9.13086 -5.61524,18.701173 h 14.45313 v 6.88477 H 567.5293 v -6.88477 H 581.25 l -0.0977,-0.48828 q -2.05078,-10.009768 -4.39453,-17.187502 l -0.34179,-1.025391 h -7.08008 v -6.787109 h 22.21679 V 64.501953 h 7.47071 z m -15.13672,6.787109 q 2.58789,7.958985 4.73633,18.701173 h 12.1582 q 2.92969,-8.105469 5.32227,-18.701173 z m 31.83594,35.888673 v 39.30664 h -7.32422 v -5.51758 h -25.97657 v 6.39649 h -7.56835 v -40.18555 z m -33.30079,6.68945 v 20.3125 h 25.97657 v -20.3125 z m 65.42969,-22.70508 q 12.8418,13.57422 12.8418,29.44336 0,5.56641 -2.00195,8.39844 -2.44141,3.27149 -8.4961,3.27149 -5.81054,0 -10.69336,-0.6836 l -1.61133,-7.61719 q 6.25,1.02539 10.15625,1.02539 3.71094,0 4.39454,-2.49023 0.29296,-1.07422 0.29296,-3.51562 0,-13.72071 -12.64648,-26.70899 5.85938,-12.695311 9.52148,-26.708983 h -15.42968 v 81.787113 h -7.37305 V 70.507812 h 27.49023 l 4.39454,3.808594 q -5.3711,17.382813 -10.83985,28.955074 z"></path>
</svg>
