<svg xmlns="http://www.w3.org/2000/svg" id="svg1" version="1.1" height="200" width="1096">
  <defs id="defs1"></defs>
  <rect id="rect1" stroke="none" fill="none" height="200" width="1096" y="0" x="0"></rect>
  <path aria-label="天草灘" style="font-weight:bold;font-size:110px;font-family:'BIZ UDPGothic';fill:#ff0000" id="text1" d="m 64.077148,106.33301 q 5.585938,12.94433 14.340821,21.86035 11.977539,12.2998 28.144531,19.60449 l -7.788086,11.22559 q -31.313477,-16.97266 -42.37793,-43.98926 -9.453125,30.4541 -43.613281,45.33203 L 4.9414062,149.78516 Q 23.47168,143.98437 35.180664,130.07324 43.613281,120.13672 46.674805,106.33301 H 9.3457031 V 95.537109 H 48.500977 V 72.924805 H 5.4785156 V 62.128906 H 104.5752 V 72.924805 H 60.908203 V 95.537109 H 100.76172 V 106.33301 Z M 170.80078,123.9502 v 8.48632 h 46.45996 v 9.77539 h -46.45996 v 18.26172 h -12.2998 v -18.26172 h -45.76172 v -9.77539 h 45.76172 V 123.9502 H 124.07227 V 82.915039 h 81.85546 V 123.9502 Z M 135.72754,91.186523 v 8.00293 h 58.65234 v -8.00293 z m 0,16.059567 v 8.43262 h 58.65234 v -8.43262 z m 5.47851,-43.022457 v -8.271485 h 11.70899 v 8.271485 h 23.31055 v -8.271485 h 11.87011 v 8.271485 h 26.74805 v 9.238281 H 188.0957 v 6.445313 h -11.87011 v -6.445313 h -23.31055 v 6.445313 h -11.70899 v -6.445313 h -26.15722 v -9.238281 z m 129.92676,20.410156 v 4.887695 h 14.60938 v 6.606446 q 7.68066,-18.959961 10.36621,-40.65918 l 9.77539,1.450195 q -1.98731,11.333008 -3.81348,18.476563 h 5.58594 q 2.52441,-9.506836 3.9209,-19.335938 l 9.39941,1.71875 q -1.9873,9.453125 -4.78027,17.617188 h 11.17187 v 9.667969 h -10.47363 v 13.696289 h 8.59375 v 9.345704 h -8.59375 v 13.37402 h 8.59375 v 9.50684 h -8.59375 v 14.39453 h 11.54785 v 9.88281 h -26.47949 v 5.15625 h -9.13086 V 100.9082 q -1.18164,2.84668 -3.33008,7.19727 l -3.75976,-10.7959 v 12.89063 h -14.60938 v 5.15625 h 15.36133 v 7.78808 h -15.36133 q -0.10742,3.70606 -0.21484,5.42481 h 18.6914 v 7.78808 h -19.71191 q -0.10742,0.59082 -0.37598,1.71875 9.93653,5.85449 19.33594,13.69629 l -6.3916,8.00293 q -7.30469,-7.08984 -15.68359,-13.32031 l -0.59082,-0.4834 q -6.23047,10.36621 -17.88575,16.00586 l -6.82129,-8.59375 q 10.04395,-3.54492 14.77051,-10.20508 1.87989,-2.57812 3.16895,-6.82129 h -16.11328 v -7.78808 h 17.77832 q 0.37597,-3.70606 0.42968,-5.42481 h -15.30761 v -7.78808 h 15.36133 V 110.2002 H 246.96289 V 89.521484 h 14.50195 v -4.887695 h -9.13086 V 72.65625 h -5.37109 l -8.27148,7.788086 q -5.15625,-8.110352 -14.39454,-17.241211 l 8.16407,-6.928711 q 6.66015,5.532227 13.05176,14.072266 v -5.854493 h 6.82128 v -9.238281 h 9.34571 v 9.238281 h 9.45312 v -9.238281 h 9.23828 v 9.238281 h 8.91602 v 8.164063 h -8.91602 v 11.977539 z m -9.13086,11.708984 h -6.92871 v 7.143557 h 6.92871 z m 8.59375,0 v 7.143557 h 7.25098 V 96.342773 Z M 261.67969,72.65625 v 5.371094 h 9.45312 V 72.65625 Z m 40.2832,12.407227 v 13.696289 h 6.44531 V 85.063477 Z m 0,23.041993 v 13.37402 h 6.44531 v -13.37402 z m 0,22.88086 v 14.39453 h 6.44531 v -14.39453 z m -67.35352,-24.00879 q -7.8955,-10.957032 -14.07226,-17.13379 l 8.37891,-7.036133 q 8.05664,7.197266 14.50195,16.59668 z m -12.99804,46.29883 q 7.57324,-16.167 12.89062,-39.47754 l 9.66797,4.83398 q -4.13574,21.43067 -12.19238,42.27051 z"></path>
</svg>
