<svg xmlns="http://www.w3.org/2000/svg" id="svg1" version="1.1" height="200" width="1096">
  <defs id="defs1"></defs>
  <rect id="rect1" stroke="none" fill="none" height="200" width="1096" y="0" x="0"></rect>
  <path aria-label="伊勢湾" style="font-weight:bold;font-size:110px;font-family:'BIZ UDPGothic';fill:#ff0000" id="text1" d="m 99.472656,85.009766 h 8.271484 v 9.882812 H 99.472656 V 120.19043 H 72.080078 q -0.966797,14.87793 -6.176758,23.84766 -6.606445,11.44043 -16.811523,17.72461 l -8.59375,-8.59375 q 9.829101,-5.69336 15.576172,-15.52247 3.813476,-6.60644 4.511718,-17.45605 H 38.295898 V 110.2002 H 60.74707 V 94.892578 H 30.078125 V 85.009766 H 60.74707 V 70.668945 H 39.960937 v -9.990234 h 59.511719 z m -11.333008,0 V 70.668945 H 72.1875 v 14.340821 z m 0,9.882812 H 72.1875 V 110.2002 H 88.139648 Z M 27.285156,82.592773 V 160.47363 H 15.737305 v -55.10742 q -3.97461,6.55274 -9.0234378,13.53516 L 1.2353516,106.92383 Q 10.3125,94.624023 16.59668,78.671875 q 3.920898,-9.882813 7.734375,-23.47168 l 11.655273,2.954102 q -4.189453,14.018555 -8.701172,24.438476 z m 160.380864,9.291993 q 4.99511,4.887695 8.91601,9.614254 l -5.85449,8.3252 q -3.81348,-4.67285 -6.60645,-7.68067 -4.24316,9.02344 -11.54785,15.30762 l -7.25097,-7.62695 q 7.35839,-6.33789 11.17187,-15.576173 -4.24316,-4.02832 -7.19727,-6.230469 -0.80566,4.082031 -2.63183,5.048828 -2.63184,1.396485 -9.77539,1.396485 -7.3584,0 -10.15137,-1.12793 v 4.082031 h 15.52246 v 6.928708 h -15.52246 v 4.83399 q 0.59082,-0.10742 1.28906,-0.16114 5.63965,-0.42968 16.86524,-1.82617 v 6.92871 q -18.47656,3.75977 -48.50098,5.8545 l -2.30957,-8.48633 q 11.87012,-0.59082 22.02149,-1.39649 v -5.74707 h -16.43555 v -6.928708 h 16.43555 v -7.358398 h 8.16406 q -0.16113,-1.074219 -0.16113,-2.309571 v -5.854492 h -7.25098 Q 132.0752,93.657227 116.3916,97.416992 l -4.51172,-7.250976 q 10.36621,-2.524414 14.12598,-8.271485 h -13.2666 v -7.250976 h 23.0957 v -4.941407 h -18.69141 v -7.46582 h 18.69141 v -6.28418 h 10.68848 v 6.28418 h 17.08008 v 7.46582 h -17.08008 v 4.941407 h 20.89355 v -8.378907 h 13.05176 l 0.4834,-10.3125 h 10.25879 l -0.4834,10.3125 h 16.43555 q -0.53711,9.077149 -0.53711,16.328125 0,15.576172 1.71875,22.397457 0.26855,0.9668 0.48339,0.9668 0.42969,0 1.28907,-3.11523 1.02051,-3.759769 1.77246,-9.077152 l 7.25097,5.961914 q -3.00781,18.745118 -10.8496,18.745118 -4.13575,0 -7.25098,-5.31738 -4.67285,-8.00293 -4.67285,-30.346683 0,-3.061523 0.0537,-7.626953 h -6.60645 q -0.69824,10.043945 -2.14843,16.704102 z m -8.54004,-7.573243 0.21484,-1.342773 q 0.53711,-4.02832 0.75195,-7.788086 h -12.35351 v 6.713867 h -13.75 v 3.168946 q 0,1.557617 0.69824,1.933593 0.75195,0.375977 2.63184,0.375977 2.57812,0 3.16894,-0.751953 0.42969,-0.483399 0.42969,-3.168946 l 8.54004,3.007813 4.02832,-6.660156 q 2.57812,1.987304 5.63965,4.511718 z m -11.06446,49.306637 q -8.59375,22.61231 -47.58789,27.39258 l -5.20996,-9.13086 q 31.52832,-3.75976 39.96094,-18.26172 h -36.95313 v -8.91601 h 39.79981 l 0.75195,-7.3584 h 11.92383 l -0.80566,7.3584 h 41.84082 q -1.50391,21.48437 -4.61914,28.09082 -2.36329,4.9414 -7.3584,6.44531 -2.57813,0.80567 -7.62696,0.80567 -8.43261,0 -19.33593,-1.12793 l -2.09473,-9.7754 q 10.63477,1.55762 17.45605,1.55762 4.72657,0 6.39161,-1.71875 2.84668,-2.90039 4.08203,-15.36133 z M 302.9834,74.106445 v 20.786133 q 0,3.544922 -1.50391,5.209962 -1.77246,1.93359 -7.84179,1.93359 -5.80079,0 -9.50684,-0.64453 l -1.39649,-8.916014 q 4.24317,0.859375 7.14356,0.859375 1.55762,0 1.9873,-0.751953 0.32227,-0.644531 0.32227,-2.094727 V 74.106445 h -9.56055 q -0.42968,11.333008 -3.00781,17.402344 -2.84668,6.606445 -11.76269,12.084961 l -7.68067,-6.821289 q 8.05664,-4.189453 10.36621,-10.795899 1.39649,-4.135742 1.71875,-11.870117 h -21.21582 v -9.130859 h 30.56153 v -9.023438 h 11.8164 v 9.023438 h 33.73047 v 9.130859 z m 16.59668,30.454105 v 21.80664 h -53.0127 q -0.42968,2.9541 -1.02051,5.9082 h 58.65235 q -1.34277,14.77051 -3.70606,20.24902 -3.4375,7.94922 -16.11328,7.94922 -10.52734,0 -22.6123,-0.91308 l -1.98731,-9.77539 q 11.54785,1.23535 20.67871,1.23535 4.94141,0 6.49903,-1.12793 2.41699,-1.77246 3.75976,-9.23828 h -47.26562 q -0.59082,2.20215 -2.04102,6.60644 l -11.54785,-2.30957 q 4.08203,-12.24609 6.12305,-26.47949 h 51.83105 v -5.74707 h -55 v -8.16406 z M 240.57129,80.820312 q -5.96192,-8.271484 -15.25391,-16.381835 l 8.00293,-7.626954 q 8.43262,6.176758 15.84473,15.737305 z m -3.27637,27.714848 Q 229.02344,98.061523 221.23535,91.455078 l 8.05664,-7.788086 q 8.05664,6.176758 16.59668,15.952149 z M 223.4375,151.9873 q 9.45312,-14.71679 17.93945,-37.75878 l 8.8086,6.49902 q -7.03614,21.32324 -16.86524,39.85351 z m 95.71289,-51.50878 Q 312.11426,89.091797 304.37988,80.820312 l 8.16407,-5.263671 q 9.45312,8.59375 15.30761,18.798828 z m -75.1416,-6.445317 q 7.8418,-6.445312 12.89062,-17.080078 l 9.77539,3.652344 q -5.26367,11.977539 -14.55566,19.980471 z"></path>
</svg>
