<svg xmlns="http://www.w3.org/2000/svg" id="svg1" version="1.1" height="200" width="1096">
  <defs id="defs1"></defs>
  <rect id="rect1" stroke="none" fill="none" height="200" width="1096" y="0" x="0"></rect>
  <path aria-label="岩手県内陸南部" style="font-weight:bold;font-size:110px;font-family:'BIZ UDPGothic';fill:#ff0000" id="text1" d="m 38.510742,118.84766 h 59.189453 v 41.62597 H 85.830078 v -5.85449 H 34.804687 v 5.85449 H 23.256836 v -26.58691 q -6.28418,5.10254 -14.2333985,9.72168 l -7.6806641,-9.23828 q 8.4863282,-4.02832 15.4687496,-9.45313 11.44043,-8.96972 18.369141,-20.03418 H 2.7929688 V 95.322266 H 107.26074 v 9.560544 H 48.339844 q -3.867188,6.875 -9.829102,13.96485 z m -3.706055,9.23828 v 17.29492 H 85.830078 V 128.08594 Z M 61.069336,76.416016 h 25.19043 V 60.463867 H 97.915039 V 85.546875 H 13.212891 V 60.463867 H 24.760742 V 76.416016 H 49.306641 V 55.952148 H 61.069336 Z M 171.76758,71.044922 v 17.348633 h 38.99414 v 10.581054 h -38.99414 v 14.824221 h 45.49316 v 10.7959 h -45.49316 v 24.16992 q 0,6.44531 -3.59863,8.91601 -2.73926,1.87989 -9.13086,1.87989 -10.47364,0 -20.46387,-1.07422 l -2.09473,-11.54785 q 12.40723,1.61132 18.74512,1.61132 3.00781,0 3.75976,-1.12793 0.4834,-0.80566 0.4834,-2.68554 v -20.1416 h -46.72851 v -10.7959 h 46.72851 V 98.974609 h -41.25 V 88.393555 h 41.25 V 72.602539 l -2.9541,0.322266 q -15.36133,1.665039 -32.11914,2.578125 l -4.61914,-9.990235 q 42.53906,-1.772461 77.34375,-9.453125 l 6.71387,9.238282 q -15.03906,3.383789 -32.06543,5.74707 z M 312.16797,58.583984 V 110.62988 H 248.25195 V 58.583984 Z m -52.36817,8.486328 v 6.713868 h 40.7129 v -6.713868 z m 0,14.28711 v 6.713867 h 40.7129 v -6.713867 z m 0,14.287109 v 6.928709 h 40.7129 v -6.928709 z m -21.6455,22.128909 h 89.05273 v 9.3457 h -44.41894 v 33.35449 H 270.5957 V 127.11914 H 226.3916 V 66.855469 h 11.7627 z m -13.75,32.4414 q 12.7832,-5.9082 24.43847,-19.81933 l 9.88282,5.74707 q -11.49414,14.55566 -25.5127,22.88086 z m 92.59765,6.92871 q -8.21777,-10.09765 -24.70703,-21.21582 l 9.23828,-6.49902 q 12.94434,7.46582 25.40528,19.60449 z M 378.66211,73.891602 V 55.952148 h 11.97754 v 17.939454 h 41.25 v 74.765628 q 0,6.33789 -3.4375,8.8623 -2.79297,2.09473 -9.72168,2.09473 -11.87012,0 -19.60449,-0.59082 l -2.20215,-11.44043 q 12.03125,0.75195 20.08789,0.75195 2.14844,0 2.52441,-1.02051 0.26856,-0.64453 0.26856,-2.04101 V 84.902344 h -29.21875 l -0.0537,0.805664 q -0.26856,4.350586 -1.07422,8.916015 15.95215,13.051757 28.46679,29.433597 l -9.13085,8.48633 q -8.91602,-12.94434 -22.39747,-26.90918 -6.92871,18.208 -27.87597,30.40039 l -7.08985,-9.45313 q 12.51465,-7.19726 18.47657,-15.36133 7.84179,-10.74218 8.64746,-26.318356 H 350.35645 V 160.47363 H 338.27148 V 73.891602 Z M 504.3457,94.892578 q -1.5039,8.164062 -4.35058,12.836912 -4.56543,7.57324 -15.84473,11.38672 l -6.28418,-8.16406 q 5.96191,-1.50391 9.29199,-3.97461 5.53223,-4.08203 6.98242,-12.084962 h -15.62988 v -9.345703 h 26.85547 v -9.345703 h -23.0957 v -9.238281 h 23.0957 V 56.05957 h 11.22559 v 10.903321 h 24.5459 v 9.238281 h -24.5459 v 9.345703 h 29.37988 v 9.345703 h -19.81934 v 9.345702 q 0,1.98731 0.75196,2.36328 0.85937,0.42969 3.81347,0.42969 4.51172,0 5.20996,-1.77246 0.80567,-2.04102 0.91309,-6.713868 l 10.09766,2.524418 q -0.10743,9.45312 -3.16895,12.72949 -1.77246,1.82617 -5.04883,2.36328 -3.22265,0.4834 -8.64746,0.4834 -6.60644,0 -9.39941,-0.59082 -2.63184,-0.53711 -3.97461,-2.25586 v 11.11816 h 24.76074 v 9.13086 h -24.76074 v 12.56836 h 31.15234 v 10.09766 h -72.61719 v -10.09766 h 30.13184 v -12.56836 h -23.20312 v -9.13086 h 23.20312 v -12.08496 h 10.7959 q -0.59082,-1.45019 -0.59082,-3.33008 V 94.892578 Z m -33.46191,0.429688 q 7.68066,10.849614 7.68066,24.653324 0,7.25097 -1.77246,11.54785 -2.41699,5.74707 -10.47363,5.74707 -3.49121,0 -6.3916,-0.69824 l -2.63184,-10.52735 q 3.27637,0.64453 5.74707,0.64453 2.90039,0 3.59863,-2.30957 0.69825,-2.41699 0.69825,-7.68066 0,-11.49414 -7.08985,-20.732423 l 0.53711,-1.342774 q 3.9209,-10.742187 6.98242,-24.384765 H 456.86523 V 160.47363 H 446.06934 V 60.249023 h 28.19824 l 5.69336,4.404297 q -3.11524,15.415039 -9.07715,30.668946 z m 128.1543,25.190434 h -22.23633 v -8.8086 h 10.74219 q -2.417,-5.47851 -5.47852,-10.20508 l 9.66797,-3.544918 q 4.18945,7.036128 6.76758,13.749998 h 12.62207 q 3.16894,-6.49902 5.58593,-13.964842 l 10.7959,3.383792 q -2.73926,5.9082 -5.80078,10.58105 h 11.54785 v 8.8086 h -22.98828 v 7.84179 h 24.49219 v 9.13086 h -24.49219 v 20.30274 h -11.22558 v -20.30274 h -23.57911 v -9.13086 h 23.57911 z m 11.54785,-33.085942 h 40.71289 v 62.788082 q 0,5.53223 -2.9541,7.78809 -2.47071,1.93359 -8.3252,1.93359 -7.57324,0 -14.60937,-0.80566 l -2.63184,-10.7959 q 9.39941,1.12793 14.07227,1.12793 1.93359,0 2.25586,-0.9668 0.21484,-0.59082 0.21484,-1.66504 V 96.772461 H 570.67871 V 160.47363 H 558.70117 V 87.426758 h 40.01465 v -9.72168 h -45.97656 v -9.990234 h 45.97656 V 55.952148 h 11.87012 v 11.762696 h 46.62109 v 9.990234 h -46.62109 z m 87.81738,-19.067383 h 22.98828 v 10.366211 h -7.57324 q -2.04102,8.217773 -5.47852,17.241211 h 14.34082 v 10.366213 h -59.9414 V 95.966797 h 13.15918 Q 673.75,85.654297 671.38672,78.725586 H 664.4043 V 68.359375 h 22.77343 V 55.952148 h 11.22559 z m -16.16699,10.366211 q 2.73926,8.00293 4.24316,17.241211 h 10.95703 l 0.53711,-1.503906 q 2.30957,-6.123047 4.29688,-13.911133 l 0.4834,-1.826172 z m 33.30078,36.630864 v 43.98925 h -11.01074 v -5.26367 H 681.1084 v 6.3916 h -11.33301 v -45.11718 z m -34.42871,9.88281 v 18.63769 h 23.41797 v -18.63769 z m 71.75781,-27.124026 q 6.3916,6.069336 10.15137,14.448246 3.70605,8.3789 3.70605,16.97265 0,7.94922 -2.9541,11.70899 -3.06152,3.9209 -10.09766,3.9209 -6.01562,0 -11.65527,-0.85938 l -2.63183,-11.44043 q 6.49902,1.18164 10.74218,1.18164 3.22266,0 4.02832,-1.5039 0.53711,-1.07422 0.53711,-4.29688 0,-13.2666 -7.94922,-22.88086 -2.09472,-2.52441 -5.26367,-5.424804 l 0.64453,-1.503906 q 5.58594,-12.62207 8.70118,-26.318359 h -13.75 V 160.47363 H 725.95703 V 61.000977 h 32.33399 l 5.96191,5.478515 q -5.42481,18.476563 -11.38672,31.635742 z"></path>
</svg>
