<svg xmlns="http://www.w3.org/2000/svg" id="svg1" version="1.1" height="200" width="1096">
  <defs id="defs1"></defs>
  <rect id="rect1" stroke="none" fill="none" height="200" width="1096" y="0" x="0"></rect>
  <path aria-label="千葉県東方沖" style="font-weight:bold;font-size:110px;font-family:'BIZ UDPGothic';fill:#ff0000" id="text1" d="m 60.908203,72.495117 v 27.553713 h 46.352537 v 10.90332 H 60.908203 v 49.52148 H 48.393555 V 110.95215 H 2.7392578 V 100.04883 H 48.393555 V 74.267578 Q 30.239258,76.416016 14.394531,77.490234 L 9.7753906,67.070312 Q 50.810547,65.351562 85.883789,56.05957 l 8.271484,9.345703 q -14.394531,3.97461 -33.24707,7.089844 z M 183.79883,134.69238 q 12.62207,7.41211 34.75097,13.10547 l -7.03613,9.93652 q -26.15722,-9.02343 -40.71289,-22.07519 v 24.81445 h -11.97754 v -24.27734 q -14.50195,15.52246 -39.58496,23.04199 l -7.03613,-9.02344 q 21.43066,-5.20996 35.44922,-15.52246 H 113.9209 v -8.80859 h 44.90234 v -6.55274 H 129.12109 V 93.173828 h -16.38183 v -8.378906 h 16.38183 v -6.821289 h 11.87012 v 6.821289 h 16.86524 v -7.949219 h 11.27929 v 7.949219 h 19.49707 v -7.949219 h 11.7627 v 7.949219 h 16.81152 v 8.378906 H 200.39551 V 105.90332 H 157.85645 V 93.173828 h -16.86524 v 17.670902 h 66.97754 v 8.48632 h -37.16797 v 6.55274 h 45.43945 v 8.80859 z m 4.83398,-41.518552 h -19.49707 v 5.371094 h 19.49707 z M 142.11914,63.095703 v -7.143555 h 11.65527 v 7.143555 h 21.69922 v -7.143555 h 11.87012 v 7.143555 h 27.71484 v 8.486328 h -27.71484 v 5.908203 h -11.87012 v -5.908203 h -21.69922 v 5.908203 H 142.11914 V 71.582031 H 114.83398 V 63.095703 Z M 312.16797,58.583984 V 110.62988 H 248.25195 V 58.583984 Z m -52.36817,8.486328 v 6.713868 h 40.7129 v -6.713868 z m 0,14.28711 v 6.713867 h 40.7129 v -6.713867 z m 0,14.287109 v 6.928709 h 40.7129 v -6.928709 z m -21.6455,22.128909 h 89.05273 v 9.3457 h -44.41894 v 33.35449 H 270.5957 V 127.11914 H 226.3916 V 66.855469 h 11.7627 z m -13.75,32.4414 q 12.7832,-5.9082 24.43847,-19.81933 l 9.88282,5.74707 q -11.49414,14.55566 -25.5127,22.88086 z m 92.59765,6.92871 q -8.21777,-10.09765 -24.70703,-21.21582 l 9.23828,-6.49902 q 12.94434,7.46582 25.40528,19.60449 z m 85.61524,-31.58203 q 13.32031,11.87012 35.8789,19.17481 l -6.92871,10.09765 q -12.99804,-4.61914 -22.66601,-11.17187 -9.99024,-6.82129 -18.42285,-16.75781 v 33.56933 h -11.65528 v -32.97851 q -7.46582,10.47363 -19.28222,18.79883 -9.07715,6.3916 -19.44336,10.3125 l -7.3584,-9.45313 q 17.02636,-5.63965 28.41308,-15.2002 3.22266,-2.68554 6.55274,-6.3916 H 341.87012 V 81.572266 h 36.95312 V 74.321289 H 334.29687 V 64.65332 h 44.52637 v -8.701172 h 11.65528 v 8.701172 h 45.2246 v 9.667969 h -45.2246 v 7.250977 h 37.65136 V 125.56152 Z M 378.82324,90.595703 h -25.29785 v 8.701172 h 25.29785 z m 11.65528,0 v 8.701172 h 25.99609 v -8.701172 z m -11.65528,17.080077 h -25.29785 v 8.86231 h 25.29785 z m 11.65528,0 v 8.86231 h 25.99609 v -8.86231 z m 101.6748,-22.773436 q -0.37598,8.969726 -1.07422,15.791016 h 43.29102 q -0.80567,37.27539 -4.18946,48.39355 -1.71875,5.58594 -6.3916,7.73438 -3.65234,1.66504 -10.68847,1.66504 -7.41211,0 -16.81153,-1.12793 l -2.09472,-12.08496 q 12.62207,1.77246 17.77832,1.77246 4.35058,0 5.53222,-2.4707 2.84668,-6.01563 3.97461,-33.19336 h -31.95801 q -1.77246,9.66796 -4.99511,16.75781 -8.96973,19.60449 -29.97071,31.09863 l -8.48632,-9.45312 q 21.05468,-10.95704 27.82226,-28.73536 4.51172,-11.87011 5.85449,-36.147456 H 444.18945 V 73.891602 h 43.88184 V 55.952148 h 12.40723 v 17.939454 h 45.33203 v 11.010742 z m 121.54785,-8.916016 v -20.03418 h 11.54785 v 20.03418 h 29.11133 v 48.608402 h -29.11133 v 35.8789 h -11.54785 v -35.8789 H 585.18066 V 75.986328 Z m -17.40234,10.688477 v 27.338865 h 17.40234 V 86.674805 Z m 46.62109,27.338865 V 86.674805 h -17.6709 v 27.338865 z m -68.75,-31.796873 q -6.55273,-9.13086 -17.34863,-17.456055 l 8.00293,-8.164062 q 10.74219,7.573242 18.1543,16.972656 z m -3.49121,27.607423 q -9.3457,-10.849611 -18.1543,-17.778322 l 8.27149,-8.271484 q 9.39941,6.606445 18.58398,17.080076 z m -16.7041,41.62598 q 10.3125,-14.66309 19.01367,-36.52344 l 9.56055,7.3584 q -7.3584,20.1416 -17.93946,37.91992 z"></path>
</svg>
