<svg xmlns="http://www.w3.org/2000/svg" id="svg1" version="1.1" height="200" width="1096">
  <defs id="defs1"></defs>
  <rect id="rect1" stroke="none" fill="none" height="200" width="1096" y="0" x="0"></rect>
  <path aria-label="秋田県沿岸北部" style="font-weight:bold;font-size:110px;font-family:'BIZ UDPGothic';fill:#ff0000" id="text1" d="M 22.773437,112.83203 Q 16.381836,129.16016 7.5732422,140.43945 L 1.6650391,130.39551 Q 13.803711,116.16211 21.054687,96.074219 H 2.7392578 V 85.869141 H 22.773437 V 71.313477 Q 15.629883,72.602539 7.8955078,73.461914 L 3.8671875,64.223633 Q 25.351562,61.75293 42.592773,55.629883 l 6.713868,9.130859 q -6.176758,1.987305 -15.307618,4.243164 V 85.869141 H 48.178711 V 96.074219 H 33.999023 v 8.701171 q 9.291993,5.85449 17.133789,13.21289 L 44.6875,128.08594 q -4.458008,-5.69336 -10.688477,-12.08496 v 44.47265 H 22.773437 Z M 81.318359,55.952148 v 33.461914 q 0,13.374028 3.706055,23.417968 3.759766,10.04395 11.010742,20.73242 6.069334,8.91602 13.105474,15.36133 l -8.00293,11.06445 Q 88.676758,147.15332 80.942383,129.91211 78.47168,124.4873 76.860352,118.47168 q -1.503907,8.27148 -6.069336,17.08008 -8.540039,16.38183 -22.021485,25.45898 l -7.788086,-9.45312 q 13.535157,-8.86231 21.16211,-22.88086 7.412109,-13.69629 7.412109,-37.329104 V 55.952148 Z m 3.598633,48.930662 Q 92.8125,88.125 96.464844,73.78418 l 11.118166,4.833984 q -6.28418,18.798828 -13.212893,30.561526 z m -37.382812,1.4502 q 3.759765,-10.043948 5.74707,-29.379885 l 10.419922,1.557617 Q 62.197266,99.458008 57.631836,111.05957 Z M 210.6543,63.847656 v 93.725584 h -11.97754 v -7.68066 h -67.35352 v 7.57324 H 119.3457 V 63.847656 Z m -79.33106,10.795899 v 25.727535 h 27.5 V 74.643555 Z m 0,36.308595 v 27.82226 h 27.5 v -27.82226 z m 67.35352,27.82226 v -27.82226 h -28.19824 v 27.82226 z m 0,-38.40332 V 74.643555 H 170.47852 V 100.37109 Z M 312.16797,58.583984 V 110.62988 H 248.25195 V 58.583984 Z m -52.36817,8.486328 v 6.713868 h 40.7129 v -6.713868 z m 0,14.28711 v 6.713867 h 40.7129 v -6.713867 z m 0,14.287109 v 6.928709 h 40.7129 v -6.928709 z m -21.6455,22.128909 h 89.05273 v 9.3457 h -44.41894 v 33.35449 H 270.5957 V 127.11914 H 226.3916 V 66.855469 h 11.7627 z m -13.75,32.4414 q 12.7832,-5.9082 24.43847,-19.81933 l 9.88282,5.74707 q -11.49414,14.55566 -25.5127,22.88086 z m 92.59765,6.92871 q -8.21777,-10.09765 -24.70703,-21.21582 l 9.23828,-6.49902 q 12.94434,7.46582 25.40528,19.60449 z M 428.2373,108.96484 v 51.50879 h -12.08496 v -6.17676 H 382.0459 v 6.17676 h -11.97754 v -51.50879 z m -46.1914,10.36621 v 24.49219 h 34.10644 V 119.33105 Z M 356.31836,81.679687 q -8.27149,-9.291992 -17.93945,-16.274414 l 7.68066,-8.59375 q 10.84961,6.821289 18.26172,15.522461 z m -6.06934,28.950193 q -9.07715,-9.99023 -18.36914,-16.381833 l 7.89551,-8.916016 q 10.90332,7.089844 18.95996,16.059569 z m -17.72461,39.90723 q 10.74219,-13.2666 20.46387,-34.32129 l 9.13086,8.16406 q -8.27148,20.35645 -19.22852,35.61035 z m 95.71289,-44.2041 Q 409.49219,86.40625 400.62988,60.356445 l 11.11817,-4.404297 q 8.16406,22.558594 25.40527,40.712891 z m -67.08496,-8.378908 q 15.03907,-15.146485 21.53809,-40.820313 l 11.33301,3.4375 Q 387.9541,88.393555 369.85352,107.19238 Z M 501.49902,72.978516 h 24.33106 V 60.03418 h 11.44043 V 82.216797 H 454.98535 V 60.03418 h 11.44043 v 12.944336 h 23.63281 V 55.952148 h 11.44043 z m -38.51074,25.888671 v 11.225583 q 0,18.58399 -2.36328,28.9502 -2.52441,10.90332 -9.72168,20.51758 l -9.45312,-7.78809 q 4.9414,-6.875 6.92871,-13.58887 2.73925,-9.23828 2.73925,-28.73535 V 89.306641 h 93.51075 v 9.560546 z m 45.6543,16.811523 v 9.93652 h 36.8457 v 9.56055 h -36.8457 v 25.29785 h -12.08496 v -25.29785 h -32.33399 v -9.56055 h 32.33399 v -9.93652 h -26.85547 v -9.02344 h 67.89062 v 9.02344 z m 73.47656,16.16699 q -14.82422,7.78809 -25.83496,11.92383 l -4.51172,-11.81641 q 17.24121,-5.80078 30.34668,-12.03124 V 95.859375 H 555.53223 V 84.526367 h 26.58691 V 55.952148 h 11.97754 V 160.47363 h -11.97754 z m 38.18848,-41.840817 q 12.51465,-6.552735 24.27734,-16.650391 l 8.91602,9.345703 q -15.89844,11.279297 -33.19336,19.228515 v 40.2832 q 0,2.63184 1.71875,3.22266 1.82617,0.59082 8.43261,0.59082 8.70118,0 10.90332,-1.02051 1.55762,-0.69824 2.14844,-4.35058 0.80567,-5.10254 1.18164,-16.48926 l 12.03125,3.70605 q -0.53711,13.91114 -1.71875,19.98047 -1.34277,6.76758 -7.03613,8.75489 -5.4248,1.82617 -17.77832,1.82617 -14.50195,0 -18.26172,-2.417 -3.59863,-2.36328 -3.59863,-9.07714 V 55.952148 h 11.97754 z m 78.0957,-21.645508 h 22.98828 v 10.366211 h -7.57324 q -2.04102,8.217773 -5.47852,17.241211 h 14.34082 v 10.366213 h -59.9414 V 95.966797 h 13.15918 Q 673.75,85.654297 671.38672,78.725586 H 664.4043 V 68.359375 h 22.77343 V 55.952148 h 11.22559 z m -16.16699,10.366211 q 2.73926,8.00293 4.24316,17.241211 h 10.95703 l 0.53711,-1.503906 q 2.30957,-6.123047 4.29688,-13.911133 l 0.4834,-1.826172 z m 33.30078,36.630864 v 43.98925 h -11.01074 v -5.26367 H 681.1084 v 6.3916 h -11.33301 v -45.11718 z m -34.42871,9.88281 v 18.63769 h 23.41797 v -18.63769 z m 71.75781,-27.124026 q 6.3916,6.069336 10.15137,14.448246 3.70605,8.3789 3.70605,16.97265 0,7.94922 -2.9541,11.70899 -3.06152,3.9209 -10.09766,3.9209 -6.01562,0 -11.65527,-0.85938 l -2.63183,-11.44043 q 6.49902,1.18164 10.74218,1.18164 3.22266,0 4.02832,-1.5039 0.53711,-1.07422 0.53711,-4.29688 0,-13.2666 -7.94922,-22.88086 -2.09472,-2.52441 -5.26367,-5.424804 l 0.64453,-1.503906 q 5.58594,-12.62207 8.70118,-26.318359 h -13.75 V 160.47363 H 725.95703 V 61.000977 h 32.33399 l 5.96191,5.478515 q -5.42481,18.476563 -11.38672,31.635742 z"></path>
</svg>
