<svg xmlns="http://www.w3.org/2000/svg" id="svg1" version="1.1" height="200" width="990">
  <defs id="defs1"></defs>
  <rect id="rect1" stroke="none" fill="none" height="200" width="990" y="0" x="0"></rect>
  <path aria-label="ニューギニア付近" style="font-size:100px;font-family:'BIZ UDPGothic';fill:#ff0000" id="text1" d="m 13.330078,81.689453 h 65.380859 v 7.519531 H 13.330078 Z M 3.6132813,137.89062 H 88.427734 v 7.51954 H 3.6132813 Z M 107.86133,91.894531 h 46.14258 q -1.41602,23.046879 -5.41993,51.806639 h 18.79883 v 6.78711 H 98.583984 v -6.78711 h 42.480466 q 3.90625,-27.63672 4.93164,-45.117186 h -38.13476 z m 73.73047,14.404299 h 84.27734 v 7.71484 H 181.5918 Z M 318.99414,68.115234 322.07031,87.5 l 28.71094,-2.001953 0.48828,7.177734 -27.97851,2.001953 3.17382,20.410156 35.59571,-2.68555 0.53711,7.17774 -34.91211,2.73437 5.07812,31.68946 -8.00781,0.97656 -5.17578,-32.08008 -40.91797,3.22266 -0.58594,-7.42188 40.2832,-2.97851 -3.27148,-20.41016 -31.93359,2.197266 -0.39063,-7.226563 31.10352,-2.197266 -3.07617,-18.99414 z m 32.86133,16.601563 q -2.92969,-7.861328 -8.69141,-16.113281 l 6.00586,-2.294922 q 5.61524,7.910156 8.78906,15.86914 z m 12.74414,-3.320313 q -3.4668,-8.83789 -8.74024,-16.113281 l 5.90821,-2.099609 q 5.32226,6.982422 8.78906,15.625 z m 20.70312,0.292969 h 65.38086 v 7.519531 h -65.38086 z m -9.71679,56.201167 h 84.81445 v 7.51954 H 375.58594 Z M 467.1875,76.416016 h 76.12305 l 5.27343,4.492187 q -4.19921,16.308594 -15.47851,25.537107 -6.20117,5.07813 -15.52735,8.64258 l -4.6875,-6.00586 q 13.91602,-4.54101 21.58204,-14.941405 3.51562,-4.833984 5.02929,-10.644531 H 467.1875 Z m 32.51953,18.164062 h 7.86133 v 8.203122 q 0,19.18946 -3.75977,29.00391 -5.02929,13.03711 -20.70312,21.19141 l -5.81055,-5.95704 q 10.74219,-5.17578 15.9668,-13.23242 3.56445,-5.41992 4.78515,-11.03515 1.66016,-7.66602 1.66016,-19.97071 z m 78.75977,-4.394531 v 69.335933 h -7.71485 v -55.37109 q -0.19531,0.29297 -0.48828,0.73242 -4.39453,7.17774 -10.88867,14.69727 l -4.10156,-7.37305 q 9.76562,-11.32812 16.35742,-25.195311 4.73633,-9.91211 8.83789,-22.900391 l 7.61719,2.099609 q -4.49219,13.427735 -9.61914,23.97461 z m 55.22461,-2.001953 h 16.60156 v 7.177734 h -16.60156 v 54.541012 q 0,5.17578 -2.49024,7.17774 -2.09961,1.61133 -7.76367,1.61133 -7.91016,0 -14.74609,-0.6836 L 607.08008,150 q 8.44726,1.2207 15.625,1.2207 2.14844,0 2.68554,-0.78125 0.39063,-0.63476 0.39063,-2.4414 V 95.361328 h -42.72461 v -7.177734 h 42.72461 V 65.283203 h 7.91016 z m -28.41797,45.410156 q -5.71289,-14.30664 -13.81836,-26.07422 l 6.49414,-4.19922 q 8.39844,12.35352 14.20898,25.87891 z m 74.21875,4.73633 q 4.29687,4.44336 9.81445,7.22656 8.59375,4.3457 23.58398,4.3457 h 38.37891 q -1.41601,2.88086 -2.49023,6.88477 h -36.08399 q -16.35742,0 -25.63476,-4.58984 -5.56641,-2.78321 -10.74219,-8.20313 -8.34961,9.57031 -16.25977,15.47852 l -4.58984,-7.08008 q 7.95898,-4.98047 16.40625,-12.5 v -25.6836 h -16.21094 v -6.7871 h 23.82813 z m 14.45312,-64.11133 q 1.70899,-0.146484 3.71094,-0.292969 21.92383,-1.80664 39.99023,-7.617187 l 5.61524,6.103515 q -17.91992,5.371094 -41.60156,7.763672 v 14.941406 h 47.41211 v 6.884763 h -17.91993 v 43.40821 h -7.8125 v -43.40821 h -21.67968 q 0,13.52539 -1.17188,22.07032 -1.5625,11.4746 -6.83594,20.21484 l -6.49414,-5.17578 q 4.78516,-8.30078 6.00586,-19.33594 0.78125,-7.27539 0.78125,-20.654296 z m -18.35937,14.697266 q -7.51953,-9.960938 -15.52735,-17.138672 l 5.51758,-4.6875 q 8.20313,6.689453 15.9668,16.308593 z"></path>
</svg>
