<svg version="1.1" xmlns="http://www.w3.org/2000/svg" xmlns:xlink="http://www.w3.org/1999/xlink" width="990" height="200" viewBox="0,0,990,200"><g transform="translate(255.5,-79.5)"><g stroke="none" stroke-miterlimit="10"><path d="M-255.5,279.5v-200h990v200z" fill="none"/><path d="M-231.23242,185.50586h6.29882c6.21745,0 11.21419,-0.99284 14.99023,-2.97852c0.84635,-0.45573 1.64388,-0.99284 2.39258,-1.61132c3.28776,-2.76693 4.93164,-6.20118 4.93164,-10.30274c0,-4.29687 -1.72526,-7.66601 -5.17578,-10.10742c-3.15755,-2.18099 -7.21029,-3.27149 -12.15821,-3.27149c-7.42187,0 -14.24154,2.92969 -20.45899,8.78906l-5.71289,-6.10352c2.60416,-2.53906 5.56641,-4.6224 8.88672,-6.25c5.59896,-2.76692 11.50716,-4.15039 17.72461,-4.15039c6.38021,0 11.89779,1.28581 16.55273,3.85743c6.83594,3.77604 10.25391,9.26107 10.25391,16.45507c0,5.46875 -2.00195,10.04232 -6.00586,13.7207c-3.09245,2.89714 -7.55208,4.72006 -13.37891,5.46875v0.39063c6.90104,0.71615 12.25585,2.75065 16.06445,6.10352c4.13412,3.67838 6.20118,8.59375 6.20118,14.74609c0,7.7474 -3.0599,13.7207 -9.17969,17.91992c-5.27344,3.61328 -12.20703,5.41992 -20.80078,5.41992c-11.91406,0 -21.58203,-3.80859 -29.00391,-11.42578l5.81054,-6.15234c2.11588,2.21354 4.47592,4.02018 7.08008,5.41992c5.04558,2.76692 10.41666,4.15039 16.11328,4.15039c6.41276,0 11.44205,-1.46484 15.08789,-4.39453c3.25521,-2.63672 4.88281,-6.33139 4.88281,-11.08399c0,-11.32812 -8.43099,-16.99218 -25.29297,-16.99218h-6.10351z" fill="#ff0000"/></g></g></svg>