<svg xmlns="http://www.w3.org/2000/svg" id="svg1" version="1.1" height="200" width="1096">
  <defs id="defs1"></defs>
  <rect id="rect1" stroke="none" fill="none" height="200" width="1096" y="0" x="0"></rect>
  <path aria-label="京都府沖" style="font-weight:bold;font-size:110px;font-family:'BIZ UDPGothic';fill:#ff0000" id="text1" d="M 60.585937,66.748047 H 104.89746 V 76.953125 H 5.0488281 V 66.748047 H 48.71582 V 55.952148 H 60.585937 Z M 93.725586,85.976562 V 121.0498 H 62.036133 v 30.18555 q 0,4.61914 -2.041016,6.71387 -2.416992,2.52441 -9.614258,2.52441 -7.734375,0 -15.415039,-0.80566 l -2.416992,-11.01074 q 7.412109,1.12793 14.87793,1.12793 2.094726,0 2.524414,-1.02051 0.214844,-0.4834 0.214844,-1.39649 V 121.0498 H 16.274414 V 85.976562 Z M 28.574219,95.644531 V 111.38184 H 81.425781 V 95.644531 Z M 96.464844,155.96191 Q 86.796875,141.78223 75.03418,130.28809 l 8.647461,-6.82129 q 11.49414,10.3125 22.236329,24.22363 z M 2.5244141,148.33496 Q 15.898438,139.04297 23.525391,124.91699 l 10.473632,5.47852 q -7.788086,15.36133 -22.988281,26.85547 z M 149.53125,87.856445 q 8.8623,-11.225586 15.25391,-25.834961 l 9.45312,4.833985 q -6.92871,12.62207 -12.83691,21.000976 h 11.27929 v 9.667969 h -21.05468 q -0.26856,0.268555 -0.53711,0.644531 -2.68555,3.437505 -8.96973,9.506835 h 24.5459 v 51.34766 h -10.47363 v -4.08203 h -21.43067 v 5.53222 h -10.7959 v -37.75879 q -3.70605,2.57813 -7.62695,4.99512 l -5.37109,-9.23828 q 5.69336,-2.9541 12.19238,-7.73438 9.45312,-6.98242 15.30762,-13.212886 h -25.72754 v -9.667969 h 21.43066 V 77.167969 h -15.41504 v -9.453125 h 15.41504 V 55.952148 h 10.68848 v 11.762696 h 11.76269 v 9.453125 H 144.8584 v 10.688476 z m -14.77051,28.520505 v 10.20508 h 21.43067 v -10.20508 z m 0,18.90625 v 10.74219 h 21.43067 V 135.2832 Z M 202.8125,98.276367 q 13.37402,15.952153 13.37402,31.582033 0,8.05664 -3.16894,11.92383 -3.00781,3.70605 -9.93653,3.70605 -5.69335,0 -11.60156,-0.75195 l -2.41699,-11.22559 q 6.17676,1.23535 10.58105,1.23535 3.27637,0 4.13575,-1.39648 0.80566,-1.23535 0.80566,-4.45801 0,-10.74219 -7.68066,-22.29004 -2.14844,-3.27636 -5.63965,-7.089841 5.69336,-12.299805 9.3457,-27.714844 H 186.96777 V 160.47363 H 175.95703 V 61.108398 h 31.58203 l 6.23047,5.424805 q -4.94141,18.583984 -10.95703,31.743164 z m 80.99609,-30.454101 h 40.71289 v 10.097656 h -83.30566 v 23.203128 q 0,7.94922 -0.21484,13.85742 11.44043,-13.64258 19.01367,-35.825197 l 11.17187,2.524414 q -2.90039,8.110352 -7.19726,16.435547 v 62.358396 h -11.44043 v -43.61328 q -3.59863,4.99512 -7.25098,9.39942 l -4.35058,-9.93653 q -0.59082,13.85742 -2.417,23.63281 -2.09472,11.17188 -6.875,20.51758 l -9.56054,-8.59375 q 4.40429,-10.04394 6.06933,-22.77343 1.50391,-11.65528 1.50391,-28.62793 V 67.822266 h 41.94824 V 55.952148 h 12.19238 z m 16.48926,29.272461 V 81.25 h 11.54785 v 15.844727 h 15.41504 V 107.2998 H 311.8457 v 42.37793 q 0,6.82129 -3.9209,8.8086 -2.25585,1.18164 -7.46582,1.18164 -8.3789,0 -15.36132,-0.85938 l -2.30957,-10.90332 q 8.70117,1.23535 14.17968,1.23535 2.417,0 2.9541,-0.80566 0.37598,-0.64453 0.37598,-2.30957 V 107.2998 H 267.53418 V 97.094727 Z m -15.30762,41.250003 q -6.76757,-13.21289 -13.75,-22.34375 l 9.23829,-5.58594 q 8.75488,11.11816 13.75,21.64551 z M 393.70117,75.986328 v -20.03418 h 11.54785 v 20.03418 h 29.11133 v 48.608402 h -29.11133 v 35.8789 h -11.54785 v -35.8789 H 365.18066 V 75.986328 Z m -17.40234,10.688477 v 27.338865 h 17.40234 V 86.674805 Z m 46.62109,27.338865 V 86.674805 h -17.6709 v 27.338865 z m -68.75,-31.796873 q -6.55273,-9.13086 -17.34863,-17.456055 l 8.00293,-8.164062 q 10.74219,7.573242 18.1543,16.972656 z m -3.49121,27.607423 q -9.3457,-10.849611 -18.1543,-17.778322 l 8.27149,-8.271484 q 9.39941,6.606445 18.58398,17.080076 z m -16.7041,41.62598 q 10.3125,-14.66309 19.01367,-36.52344 l 9.56055,7.3584 q -7.3584,20.1416 -17.93946,37.91992 z"></path>
</svg>
