<svg xmlns="http://www.w3.org/2000/svg" id="svg1" version="1.1" height="200" width="990">
  <defs id="defs1"></defs>
  <rect id="rect1" stroke="none" fill="none" height="200" width="990" y="0" x="0"></rect>
  <path aria-label="インドネシア付近" style="font-size:100px;font-family:'BIZ UDPGothic';fill:#ff0000" id="text1" d="M 41.601562,153.90625 V 102.29492 Q 25.878906,112.93945 6.1035156,120.3125 L 1.7089844,113.28125 Q 23.046875,106.05469 39.111328,94.628906 55.517578,82.910156 67.285156,68.994141 l 6.835938,4.296875 Q 63.232422,85.498047 49.609375,96.386719 V 153.90625 Z M 118.11523,93.164062 Q 104.15039,86.816406 88.427734,83.007812 l 2.587891,-7.617187 q 18.798825,4.492187 29.931645,10.107422 z M 89.208984,143.50586 q 19.726566,-1.75781 31.054686,-6.00586 29.3457,-10.98633 36.96289,-50.585938 l 6.78711,4.882813 q -4.54101,21.484375 -14.16015,34.082035 -10.54688,13.86718 -28.8086,20.06836 -11.27929,3.80859 -29.833983,5.85937 z M 186.03516,68.896484 h 8.20312 v 28.222657 q 30.41992,9.472659 47.90039,18.359379 l -4.10156,7.32421 q -19.58008,-9.86328 -43.79883,-17.82226 v 49.51172 h -8.20312 z m 41.21093,24.707032 q -3.22265,-8.203125 -8.6914,-16.308594 l 5.85937,-2.392578 q 5.66406,7.861328 8.93555,16.308593 z m 12.59766,-3.90625 q -3.56445,-9.082032 -8.69141,-16.40625 l 5.76172,-2.09961 q 5.12696,6.738281 8.83789,15.820313 z m 54.88281,-22.41211 h 7.91016 v 15.722656 h 22.85156 l 4.19922,4.394532 q -9.91211,13.427736 -26.46484,25.292966 v 43.99414 h -7.8125 v -38.91601 q -17.04102,10.40039 -35.49805,16.5039 l -4.10156,-6.78711 q 23.92578,-7.03125 43.0664,-20.41015 10.9375,-7.617189 18.94532,-17.089846 h -53.32032 v -6.982422 h 30.22461 z m 43.35938,69.433594 q -15.42969,-12.1582 -31.00586,-20.3125 l 4.73633,-5.12695 q 17.77343,8.6914 30.95703,18.89648 z m 48.73047,-48.4375 Q 374.6582,82.617187 360.10742,78.417969 l 2.49024,-7.03125 q 15.03906,3.662109 26.80664,9.521484 z m -10.30274,24.90234 Q 365.86914,108.44727 350,103.32031 l 2.97852,-7.324216 q 14.5996,4.052736 26.51367,9.814456 z m -20.11719,30.71289 q 17.91993,-1.46484 28.75977,-5.22461 18.4082,-6.44531 28.51562,-23.38867 6.78711,-11.32812 10.10743,-28.271481 l 7.1289,4.296875 q -4.39453,20.068356 -12.5,32.226566 -9.86328,14.74609 -27.34375,21.67968 -12.30468,4.83399 -32.37304,6.5918 z m 81.83594,-67.480464 h 76.12305 l 5.27344,4.492187 q -4.19922,16.308594 -15.47852,25.537107 -6.20117,5.07813 -15.52734,8.64258 l -4.6875,-6.00586 q 13.91601,-4.54101 21.58203,-14.941405 3.51562,-4.833984 5.02929,-10.644531 h -72.31445 z m 32.51953,18.164062 h 7.86133 v 8.203122 q 0,19.18946 -3.75976,29.00391 -5.0293,13.03711 -20.70313,21.19141 l -5.81055,-5.95704 q 10.74219,-5.17578 15.9668,-13.23242 3.56445,-5.41992 4.78516,-11.03515 1.66015,-7.66602 1.66015,-19.97071 z m 78.75977,-4.394531 v 69.335933 h -7.71485 v -55.37109 q -0.19531,0.29297 -0.48828,0.73242 -4.39453,7.17774 -10.88867,14.69727 l -4.10156,-7.37305 q 9.76562,-11.32812 16.35742,-25.195311 4.73633,-9.91211 8.83789,-22.900391 l 7.61719,2.099609 q -4.49219,13.427735 -9.61914,23.97461 z m 55.22461,-2.001953 h 16.60156 v 7.177734 h -16.60156 v 54.541012 q 0,5.17578 -2.49024,7.17774 -2.09961,1.61133 -7.76367,1.61133 -7.91015,0 -14.74609,-0.6836 L 578.125,150 q 8.44727,1.2207 15.625,1.2207 2.14844,0 2.68555,-0.78125 0.39062,-0.63476 0.39062,-2.4414 V 95.361328 h -42.72461 v -7.177734 h 42.72461 V 65.283203 h 7.91016 z M 576.31836,133.59375 Q 570.60547,119.28711 562.5,107.51953 l 6.49414,-4.19922 q 8.39844,12.35352 14.20898,25.87891 z m 74.21875,4.73633 q 4.29687,4.44336 9.81445,7.22656 8.59375,4.3457 23.58399,4.3457 h 38.3789 q -1.41601,2.88086 -2.49023,6.88477 h -36.08399 q -16.35742,0 -25.63476,-4.58984 -5.56641,-2.78321 -10.74219,-8.20313 -8.34961,9.57031 -16.25976,15.47852 l -4.58985,-7.08008 q 7.95899,-4.98047 16.40625,-12.5 v -25.6836 h -16.21094 v -6.7871 h 23.82813 z m 14.45312,-64.11133 q 1.70899,-0.146484 3.71094,-0.292969 21.92383,-1.80664 39.99024,-7.617187 l 5.61523,6.103515 q -17.91992,5.371094 -41.60156,7.763672 v 14.941406 h 47.41211 v 6.884763 h -17.91992 v 43.40821 h -7.8125 v -43.40821 h -21.67969 q 0,13.52539 -1.17188,22.07032 -1.5625,11.4746 -6.83593,20.21484 l -6.49415,-5.17578 q 4.78516,-8.30078 6.00586,-19.33594 0.78125,-7.27539 0.78125,-20.654296 z m -18.35937,14.697266 q -7.51953,-9.960938 -15.52734,-17.138672 l 5.51757,-4.6875 q 8.20313,6.689453 15.9668,16.308593 z"></path>
</svg>
