<svg xmlns="http://www.w3.org/2000/svg" id="svg1" version="1.1" height="200" width="1096">
  <defs id="defs1"></defs>
  <rect id="rect1" stroke="none" fill="none" height="200" width="1096" y="0" x="0"></rect>
  <path aria-label="国後島付近" style="font-weight:bold;font-size:110px;font-family:'BIZ UDPGothic';fill:#ff0000" id="text1" d="M 59.189453,88.071289 V 100.85449 H 82.5 v 9.02344 H 72.026367 q 4.887695,3.97461 10.688477,11.33301 l -8.217774,5.47851 q -3.920898,-5.9082 -11.010742,-12.40722 l 7.841797,-4.4043 H 59.189453 v 17.02637 h 27.5 v 9.45312 H 23.203125 V 126.9043 H 48.071289 V 109.87793 H 27.285156 v -9.02344 H 48.071289 V 88.071289 H 24.331055 v -9.345703 h 61.123047 v 9.345703 z M 103.17871,61.000977 V 160.47363 H 91.308594 v -5.63965 h -72.72461 v 5.63965 H 6.8212891 V 61.000977 Z m -84.594726,9.882812 v 73.745121 h 72.72461 V 70.883789 Z M 167.68555,93.549805 q -8.64746,-10.3125 -20.30274,-19.604493 l 7.73438,-7.358398 q 3.97461,3.383789 6.92871,6.230469 6.12305,-7.626953 11.65527,-17.670899 l 10.3125,4.511719 q -7.30469,10.527344 -15.62988,19.443359 l 0.80566,0.805665 q 3.38379,3.652343 5.80078,6.499023 10.36622,-10.742188 19.38965,-21.806641 l 9.13086,5.639649 q -12.24609,14.501953 -27.82226,28.359375 9.88281,-0.483399 23.36425,-1.396485 -3.00781,-5.317382 -6.76757,-10.366211 l 9.02343,-4.189453 q 8.48633,10.366211 15.03907,24.545896 l -9.77539,4.72657 -1.50391,-3.16895 q -1.4502,-3.00781 -1.82617,-3.70605 -14.50196,1.93359 -26.10352,2.52441 -0.37597,0.0537 -0.80566,0.10742 -1.61133,2.68555 -4.24317,6.55274 h 29.11133 l 6.49903,5.96191 q -8.21778,11.70898 -18.26172,19.71191 12.35351,6.33789 28.57422,9.99024 l -5.90821,10.41992 q -16.75781,-4.29688 -32.11914,-13.85742 -17.56348,10.63476 -33.78418,14.66308 l -5.85449,-10.04394 q 14.44824,-2.4707 30.56152,-10.84961 -6.76758,-5.58594 -12.19238,-11.22559 -4.18945,3.54493 -9.77539,6.71387 l -6.92871,-7.41211 q 12.7832,-7.08984 21.96777,-19.92676 l -8.05664,0.42969 q -4.67285,0.26856 -8.32519,0.37598 l -2.417,-9.667971 q 3.54493,-0.05371 16.27442,-0.375977 l 1.82617,-1.557617 q 2.20215,-1.987305 4.4043,-4.02832 z m 12.67578,40.981445 q 7.46582,-5.4248 12.56836,-11.60156 h -26.90918 q 6.23047,6.3916 14.34082,11.60156 z m -42.27051,-32.76367 v 58.70605 h -11.54785 v -45.22461 q -4.99512,5.04883 -9.8291,9.23828 l -5.3711,-10.52734 q 14.77051,-11.49414 27.82227,-33.569335 l 9.66797,5.478516 q -4.83399,8.002929 -10.74219,15.898439 z M 112.20215,80.712891 q 13.69629,-9.614258 23.41797,-24.438477 l 9.93652,5.263672 q -12.67578,18.154297 -27.39258,28.520508 z m 150.39062,-16.59668 q 1.98731,-4.780274 3.22266,-9.130859 l 13.10547,1.77246 q -1.87988,4.458008 -3.4375,7.358399 h 35.77148 v 35.019531 h -64.88281 v 5.424808 h 80.83496 v 8.70117 h -80.83496 v 5.47851 h 77.0752 q -0.69825,24.59961 -3.11524,33.19336 -1.55762,5.47852 -5.85449,7.25098 -3.06152,1.28906 -9.3457,1.28906 -6.44532,0 -12.03125,-0.80566 l -2.14844,-9.02344 h -53.81836 v 5.96192 h -11.54785 v -25.83497 h 11.54785 v 11.06446 h 18.47656 v -14.50196 h -21.1084 V 64.116211 Z m 22.82715,77.719729 v -11.06446 h 11.11817 v 18.69141 q 4.458,0.42969 7.41211,0.42969 3.65234,0 4.56542,-2.09473 1.77247,-3.9209 2.79297,-20.46387 H 267.1582 v 14.50196 z M 246.37207,72.387695 v 5.317383 h 53.0127 v -5.317383 z m 0,12.998047 v 5.854492 h 53.0127 v -5.854492 z m 113.54492,0.59082 V 160.47363 H 348.26172 V 105.3125 q -4.35059,6.12305 -10.09766,12.67578 l -6.06933,-11.54785 q 10.90332,-12.084961 18.6914,-28.144532 4.72657,-9.721679 9.45313,-23.203125 l 11.22558,3.061524 q -4.88769,14.716797 -11.54785,27.822265 z M 421.09375,81.25 h 16.16699 v 10.795898 h -16.16699 v 56.396482 q 0,7.08985 -3.4375,9.45313 -2.52441,1.77246 -9.50684,1.77246 -8.54004,0 -17.50976,-0.9668 l -2.30957,-11.76269 q 9.56054,1.39648 17.83203,1.39648 2.25586,0 2.73926,-0.9668 0.32226,-0.69824 0.32226,-2.30957 V 92.045898 H 365.28809 V 81.25 h 43.93554 V 57.832031 h 11.87012 z m -33.99902,52.0459 q -6.06934,-16.16699 -14.98536,-29.48731 l 10.25879,-5.96191 q 9.66797,14.2334 15.52246,29.16504 z m 83.25195,2.73926 q 4.29687,4.99511 9.66797,7.41211 8.80859,3.9746 23.0957,3.9746 h 45.76172 q -1.93359,3.65235 -3.59863,10.47364 h -42.7002 q -18.47656,0 -28.30566,-5.80078 -4.02832,-2.417 -8.86231,-7.89551 -0.37597,0.42969 -0.91308,1.07422 -7.89551,9.3457 -15.6836,15.2539 l -6.49902,-11.01074 q 8.54004,-5.10254 16.48926,-11.54785 v -26.5332 h -15.62988 v -10.58106 h 27.17773 z m 13.96484,-71.274418 2.84668,-0.214844 q 24.86817,-1.71875 44.6875,-7.358398 l 8.37891,9.453125 q -20.83984,5.478516 -44.47266,7.412109 v 13.911133 h 49.73633 V 98.4375 h -18.04687 v 43.77441 H 515.57129 V 98.4375 h -19.81934 q -0.26855,17.24121 -2.57812,27.44629 -2.09473,9.39941 -6.875,16.86523 l -9.88281,-7.46582 q 5.31738,-8.27148 6.82128,-20.51757 1.07422,-8.43262 1.07422,-22.934575 z M 464.43848,85.761719 Q 456.2207,74.160156 446.71387,64.975586 l 8.80859,-7.036133 q 9.23828,7.734375 18.58399,19.658203 z"></path>
</svg>
