<svg xmlns="http://www.w3.org/2000/svg" id="svg1" version="1.1" height="200" width="990">
  <defs id="defs1"></defs>
  <rect id="rect1" stroke="none" fill="none" height="200" width="990" y="0" x="0"></rect>
  <path aria-label="種子島南東沖" style="font-size:100px;font-family:'BIZ UDPGothic';fill:#ff0000" id="text1" d="M 17.919922,114.20898 Q 12.744141,129.15039 5.5175781,139.50195 L 1.5136719,132.61719 Q 12.304688,117.23633 17.1875,99.609375 H 2.734375 V 92.822266 H 17.919922 V 76.806641 q -7.080078,1.5625 -11.7187501,2.294921 L 3.2226563,73.242187 Q 20.800781,70.410156 32.861328,65.234375 l 4.296875,5.566406 q -4.980469,2.050781 -11.914062,4.101563 V 92.822266 H 36.71875 v 6.787109 H 25.244141 v 7.763675 q 6.49414,4.88281 13.085937,11.8164 l -4.589844,6.73828 q -4.443359,-6.20117 -8.496093,-10.64453 v 44.23828 H 17.919922 Z M 62.011719,94.287109 V 87.695312 H 35.839844 v -6.103515 h 26.171875 v -6.542969 q -7.763672,0.927734 -19.482422,1.757813 L 39.746094,71.09375 q 26.220703,-1.855469 45.55664,-6.201172 l 4.492188,5.712891 q -8.691406,1.953125 -20.703125,3.564453 v 7.421875 h 27.58789 v 6.103515 h -27.58789 v 6.591797 H 91.894531 V 129.10156 H 69.091797 v 7.08008 h 24.316406 v 6.00586 H 69.091797 v 7.51953 h 28.613281 v 6.29883 H 33.105469 v -6.29883 h 28.90625 V 142.1875 H 38.525391 v -6.00586 h 23.486328 v -7.08008 h -21.875 V 94.287109 Z m 0,5.615235 H 47.119141 v 8.886716 h 14.892578 z m 7.080078,0 v 8.886716 H 84.912109 V 99.902344 Z M 62.011719,114.20898 H 47.119141 v 9.17969 h 14.892578 z m 7.080078,0 v 9.17969 h 15.820312 v -9.17969 z M 154.98047,96.142578 v 12.255862 h 41.99219 v 6.98242 h -41.99219 v 34.13086 q 0,5.22461 -2.92969,7.32422 -2.29492,1.66015 -8.00781,1.66015 -8.83789,0 -14.89258,-0.48828 l -1.85547,-7.8125 q 9.17969,0.83008 14.7461,0.83008 3.07617,0 3.90625,-0.63477 0.92773,-0.68359 0.92773,-3.07617 v -31.93359 h -43.89648 v -6.98242 H 146.875 V 92.480469 q 12.10937,-5.46875 25.09766,-15.087891 h -57.8125 v -7.177734 h 68.01757 l 4.58985,4.980468 Q 171.5332,87.060547 154.98047,96.142578 Z m 113.03711,53.076172 h -53.8086 v 5.71289 h -7.71484 v -23.0957 h 7.71484 v 11.18164 h 19.0918 v -14.69727 h -19.0918 V 73.291016 h 23.97461 q 3.36914,-4.931641 5.41993,-9.179688 l 8.6914,2.001953 q -2.39258,3.515625 -5.46875,7.177735 h 35.25391 v 30.517574 h -59.96094 v 6.00586 h 75.3418 v 6.10352 h -75.3418 v 6.29883 h 70.94727 q -0.73243,23.87695 -3.32032,30.71289 -1.5625,4.19922 -5.51757,5.66406 -2.5879,0.92773 -6.83594,0.92773 -6.15235,0 -11.76758,-0.8789 l -1.61133,-7.22656 q 6.73828,1.02539 12.10938,1.02539 4.24804,0 5.37109,-1.95313 2.24609,-3.90625 3.36914,-22.16797 h -43.94531 v 14.69727 h 19.58008 v -11.18164 h 7.51953 z M 222.11914,79.296875 v 6.298828 h 52.09961 v -6.298828 z m 0,12.011719 v 6.689453 h 52.09961 v -6.689453 z m 131.39648,2.685547 h 37.06055 v 57.324219 q 0,3.90625 -1.61133,5.66406 -1.90429,2.05078 -8.00781,2.05078 -5.76172,0 -11.18164,-0.63476 l -1.70898,-7.42188 q 8.88671,0.92774 12.06054,0.92774 1.85547,0 2.29492,-0.87891 0.24415,-0.53711 0.24415,-1.61133 V 100.39063 H 317.1875 v 59.13085 h -7.91016 V 93.994141 h 36.52344 V 83.007812 h -43.31055 v -6.689453 h 43.31055 V 64.501953 h 7.71484 v 11.816406 h 43.94532 v 6.689453 h -43.94532 z m -7.61718,27.783199 h -22.2168 v -6.20117 h 11.86523 q -2.14843,-5.32226 -5.37109,-10.49804 l 6.73828,-2.5879 q 4.05274,7.12891 6.20117,13.08594 H 356.25 q 3.32031,-6.05469 5.76172,-13.28125 l 7.42187,2.58789 q -2.39257,4.98047 -5.32226,9.96094 l -0.39063,0.73242 h 12.40235 v 6.20117 h -22.70508 v 9.13086 H 378.125 v 6.29883 h -24.70703 v 19.92188 h -7.51953 V 137.20703 H 321.875 v -6.29883 h 24.02344 z m 115.42968,4.83399 q 14.01368,12.84179 36.76758,20.50781 l -4.73633,6.98242 q -10.54687,-3.95508 -18.31054,-8.54492 -12.10938,-7.22656 -21.53321,-18.06641 v 32.03125 h -7.71484 v -31.83593 q -5.76172,7.51953 -14.30664,14.20898 -10.88867,8.49609 -24.31641,13.81836 l -4.78515,-6.29883 q 21.97265,-8.00781 35.79101,-22.80273 H 411.57227 V 87.792969 h 34.22851 v -8.007813 h -41.74805 v -6.591797 h 41.74805 v -8.691406 h 7.71484 v 8.691406 h 42.38282 v 6.591797 h -42.38282 v 8.007813 h 34.76563 V 126.61133 Z M 445.80078,94.091797 h -26.41601 v 9.814453 h 26.41601 z m 7.71484,0 v 9.814453 h 27.05079 v -9.814453 z m -7.71484,15.917973 h -26.41601 v 10.30273 h 26.41601 z m 7.71484,0 v 10.30273 h 27.05079 V 110.00977 Z M 558.69141,85.302734 V 64.501953 h 7.71484 v 20.800781 h 27.7832 v 40.478516 h -27.7832 v 33.69141 h -7.71484 v -33.69141 h -26.9043 V 85.302734 Z m -19.38477,6.982422 v 26.513674 h 19.38477 V 92.285156 Z m 47.26563,26.513674 V 92.285156 H 566.40625 V 118.79883 Z M 521.77734,86.621094 q -6.54297,-8.34961 -15.2832,-15.527344 l 5.32227,-5.273438 q 8.30078,6.201172 15.67382,14.990235 z m -3.66211,25.488286 q -7.66601,-8.8379 -15.91796,-15.527349 l 5.41992,-5.46875 q 8.39843,6.201172 16.16211,14.990239 z m -13.7207,40.57617 q 9.52149,-12.69532 17.48047,-32.86133 l 6.29883,5.07812 q -7.32422,19.14063 -17.08985,33.69141 z"></path>
</svg>
