<svg xmlns="http://www.w3.org/2000/svg" id="svg1" version="1.1" height="200" width="990">
  <defs id="defs1"></defs>
  <rect id="rect1" stroke="none" fill="none" height="200" width="990" y="0" x="0"></rect>
  <path aria-label="播磨灘" style="font-size:100px;font-family:'BIZ UDPGothic';fill:#ff0000" id="text1" d="m 37.988281,120.6543 q -3.027344,1.95312 -6.298828,3.66211 l -4.296875,-5.46875 Q 43.554687,111.2793 53.222656,98.681641 h -22.11914 v -6.396485 h 14.013671 q -2.294921,-6.298828 -5.126953,-11.18164 l 6.591797,-2.001954 q 2.832031,5.664063 4.980469,13.183594 h 7.666016 v -16.40625 q -10.986329,1.31836 -22.65625,2.09961 L 33.59375,72.167969 q 30.273437,-2.148438 50.341797,-6.689453 l 4.882812,5.71289 Q 75.537109,73.876953 66.308594,75 v 17.285156 h 7.568359 q 4.150391,-8.544922 6.787109,-16.601562 l 6.982422,2.685547 q -2.978515,6.884765 -7.226562,13.916015 h 16.113281 v 6.396485 H 72.705078 Q 82.617187,109.375 98.535156,116.40625 l -4.394531,6.00586 q -2.587891,-1.36719 -5.615234,-3.17383 v 40.2832 h -7.080079 v -5.22461 H 45.068359 v 5.22461 h -7.080078 z m 6.933594,-4.93164 H 59.228516 V 99.853516 Q 54.394531,108.1543 44.921875,115.72266 Z m 36.523437,32.56836 V 137.30469 H 66.210937 v 10.98633 z m 0,-16.99219 v -9.57031 H 66.210937 v 9.57031 z M 66.308594,115.72266 h 16.65039 Q 72.265625,108.59375 66.308594,99.169922 Z m -21.240235,6.00586 v 9.57031 h 14.257813 v -9.57031 z m 0,15.57617 v 10.98633 H 59.326172 V 137.30469 Z M 14.990234,83.789062 V 64.501953 h 7.421875 v 19.287109 h 8.886719 v 7.080079 h -8.886719 v 17.968749 q 5.029297,-2.14844 8.984375,-4.15039 l 1.025391,6.68945 q -4.589844,2.39258 -10.009766,4.88282 v 35.74218 q 0,4.10157 -1.80664,5.81055 -1.757813,1.61133 -6.152344,1.61133 -4.9316406,0 -8.7402344,-0.83008 L 4.3945312,151.2207 q 5.1757813,0.78125 8.3007818,0.78125 1.757812,0 2.099609,-0.97656 0.195312,-0.48828 0.195312,-1.31836 v -30.12695 q -6.5429684,2.68555 -11.083984,4.29687 l -2.1972656,-7.37304 q 6.5917969,-2.14844 13.2812496,-4.6875 V 90.869141 H 2.4902344 V 83.789062 Z M 176.2207,79.199219 v 7.8125 h 18.11524 v 5.517578 h -15.18555 q 7.76367,9.423833 17.87109,15.087893 l -4.29687,5.22461 q -10.00977,-6.25 -16.50391,-15.429691 v 17.333981 h -6.88476 V 97.949219 q -0.19532,0.341797 -0.43946,0.830078 -4.6875,8.447263 -13.08593,14.453123 l -4.29688,-4.58984 q 9.42383,-6.29883 15.2832,-16.113283 h -10.79101 v -5.517578 h 13.33008 v -7.8125 h -28.27149 v 7.8125 h 11.6211 v 5.517578 h -11.6211 v 2.539062 q 5.61524,2.734375 12.01172,7.275391 l -3.80859,5.07813 q -4.83399,-4.00391 -8.20313,-6.39649 v 13.7207 h -6.88476 V 99.365234 q -5.27344,8.349606 -13.08594,13.964846 l -4.49219,-4.6875 q 9.13086,-5.85938 15.72266,-16.113283 h -13.42774 v -5.517578 h 15.28321 v -7.8125 h -17.77344 v 27.636721 q 0,21.33789 -1.75781,33.10547 -1.61133,10.54687 -5.76172,19.18945 l -6.68945,-5.12695 q 4.15039,-8.98438 5.5664,-21.82618 1.12305,-10.49804 1.12305,-26.95312 V 73.095703 h 39.50195 v -8.59375 h 7.8125 v 8.59375 h 39.59961 v 6.103516 z m -34.71679,53.515621 h 47.99804 v 26.75782 h -7.8125 v -4.58985 h -43.99414 v 4.58985 h -7.71484 v -18.21289 q -4.54102,2.88085 -10.5957,5.81054 l -4.49219,-5.66406 q 15.86914,-6.15234 25.78125,-17.28516 h -22.50977 v -6.00586 h 79.34571 v 6.00586 H 149.6582 q -3.41797,4.34571 -8.15429,8.59375 z m -3.8086,5.90821 v 10.35156 h 43.99414 V 138.62305 Z M 244.82422,91.210937 v 4.882813 h 13.81836 v 18.4082 h -13.81836 v 5.51758 h 14.9414 v 5.81055 h -14.99023 q -0.14648,3.07617 -0.43945,5.85937 h 18.21289 v 5.71289 H 243.4082 q -0.24414,0.87891 -0.53711,1.9043 9.52149,6.15234 18.16407,13.08594 l -4.58985,5.71289 q -7.32422,-6.68945 -15.91797,-13.13477 -4.78515,9.42383 -16.21093,14.84375 l -4.6875,-5.71289 q 13.42773,-5.27344 16.8457,-16.69922 h -16.06445 v -5.71289 h 17.28515 q 0.43946,-3.125 0.53711,-5.85937 h -14.84375 v -5.81055 h 14.94141 v -5.51758 h -13.72071 v -18.4082 h 13.62305 v -4.882813 h -8.30078 V 79.6875 h -7.51953 v -5.810547 h 7.51953 v -9.375 h 6.49414 v 9.375 h 10.40039 v -9.375 h 6.49414 v 9.375 h 8.83789 V 79.6875 h -8.83789 v 11.523437 z m -6.29883,10.302733 h -7.91016 v 7.76367 h 7.91016 z m 6.10352,0 v 7.76367 h 8.10546 v -7.76367 z m 2.19726,-21.82617 h -10.40039 v 6.298828 h 10.40039 z m 26.02539,3.320312 h 7.22656 q 2.49024,-9.033203 3.95508,-18.115234 l 6.68946,1.318359 q -1.95313,9.570313 -4.54102,16.796875 h 10.9375 v 6.591797 h -10.88867 v 14.697271 h 9.17969 v 6.39648 h -9.17969 v 14.50195 h 9.17969 v 6.49414 h -9.17969 v 16.01563 h 11.8164 v 6.68945 h -25.34179 v 5.07813 h -6.39649 v -57.08008 q -1.5625,3.95508 -3.51562,8.00781 l -3.56445,-6.5918 q 7.4707,-16.650387 10.40039,-39.501949 l 6.98242,0.976562 Q 275,74.609375 273.14453,81.933594 Z m 7.08008,6.591797 h -7.22656 v 14.697271 h 7.22656 z m 0,21.093751 h -7.22656 v 14.50195 h 7.22656 z m -7.22656,20.99609 v 16.01563 h 7.22656 v -16.01563 z m -56.5918,-45.703122 q -5.22461,-7.910156 -12.5,-15.478516 l 5.41992,-4.589843 q 6.5918,6.103515 12.59766,14.794922 z m -2.49023,24.707032 q -6.78711,-9.47266 -12.5,-15.087891 l 5.51757,-4.6875 q 6.73829,6.396484 12.69532,14.599611 z m -11.18164,43.50586 q 6.34765,-13.52539 11.08398,-34.17969 l 6.5918,3.36914 q -3.85742,19.53125 -10.98633,35.79102 z"></path>
</svg>
