<svg xmlns="http://www.w3.org/2000/svg" id="svg1" version="1.1" height="200" width="1096">
  <defs id="defs1"></defs>
  <rect id="rect1" stroke="none" fill="none" height="200" width="1096" y="0" x="0"></rect>
  <path aria-label="大阪湾" style="font-weight:bold;font-size:110px;font-family:'BIZ UDPGothic';fill:#ff0000" id="text1" d="m 62.46582,94.570312 q 3.706055,12.568358 14.072266,26.748048 12.62207,17.29492 31.044924,27.39258 l -7.680666,11.06445 q -19.497071,-11.49414 -32.548828,-30.4541 -7.036133,-10.3125 -11.279297,-21.00098 -4.243164,14.39453 -13.15918,26.15723 -13.105469,17.40234 -32.387695,25.67383 l -7.5732424,-9.8291 Q 23.149414,141.88965 35.556641,124.32617 45.976562,109.50195 47.910156,94.570312 H 5.0488281 V 82.915039 H 48.393555 V 57.026367 h 12.407226 v 25.888672 h 44.257809 v 11.655273 z m 106.18652,5.478518 v 1.23535 q -0.26855,20.73242 -2.57812,33.78418 -2.30957,13.10547 -7.89551,24.49219 l -9.56055,-7.46582 q 5.15625,-10.74219 7.14356,-24.81446 1.77246,-12.35351 1.77246,-29.648434 V 61.914062 h 58.49121 v 10.581055 h -47.37305 v 17.456055 h 39.90723 l 5.37109,4.189453 q -5.85449,25.888675 -15.46875,40.444335 8.16407,8.59375 20.51758,15.30762 l -6.33789,9.99023 q -12.67578,-7.41211 -21.00098,-16.43554 -7.73437,8.91601 -21.00097,17.56347 l -6.82129,-8.91601 q 13.10547,-7.03614 21.05469,-17.1875 -10.09766,-14.93164 -13.85743,-34.8584 z m 22.82715,25.51269 q 6.875,-12.03125 9.50684,-25.51269 h -19.87305 q 3.22266,14.44824 10.36621,25.51269 z M 142.33398,95.913086 q 4.24317,4.941404 7.08985,11.762694 3.22265,7.73438 3.22265,15.52246 0,7.08985 -2.25586,10.68848 -2.84667,4.45801 -10.95703,4.45801 -4.29687,0 -8.75488,-0.64453 l -2.09473,-10.90332 2.04102,0.21484 q 4.94141,0.53711 6.875,0.53711 2.68555,0 3.38379,-1.02051 0.80566,-1.28906 0.80566,-5.47852 0,-12.51464 -9.77539,-24.169917 l 0.59082,-1.611328 q 3.97461,-10.151368 7.41211,-24.277344 H 127.72461 V 160.47363 H 116.71387 V 60.786133 h 29.91699 l 5.53223,4.511719 q -4.56543,18.583984 -9.82911,30.615234 z M 302.9834,74.106445 v 20.786133 q 0,3.544922 -1.50391,5.209962 -1.77246,1.93359 -7.84179,1.93359 -5.80079,0 -9.50684,-0.64453 l -1.39649,-8.916014 q 4.24317,0.859375 7.14356,0.859375 1.55762,0 1.9873,-0.751953 0.32227,-0.644531 0.32227,-2.094727 V 74.106445 h -9.56055 q -0.42968,11.333008 -3.00781,17.402344 -2.84668,6.606445 -11.76269,12.084961 l -7.68067,-6.821289 q 8.05664,-4.189453 10.36621,-10.795899 1.39649,-4.135742 1.71875,-11.870117 h -21.21582 v -9.130859 h 30.56153 v -9.023438 h 11.8164 v 9.023438 h 33.73047 v 9.130859 z m 16.59668,30.454105 v 21.80664 h -53.0127 q -0.42968,2.9541 -1.02051,5.9082 h 58.65235 q -1.34277,14.77051 -3.70606,20.24902 -3.4375,7.94922 -16.11328,7.94922 -10.52734,0 -22.6123,-0.91308 l -1.98731,-9.77539 q 11.54785,1.23535 20.67871,1.23535 4.94141,0 6.49903,-1.12793 2.41699,-1.77246 3.75976,-9.23828 h -47.26562 q -0.59082,2.20215 -2.04102,6.60644 l -11.54785,-2.30957 q 4.08203,-12.24609 6.12305,-26.47949 h 51.83105 v -5.74707 h -55 v -8.16406 z M 240.57129,80.820312 q -5.96192,-8.271484 -15.25391,-16.381835 l 8.00293,-7.626954 q 8.43262,6.176758 15.84473,15.737305 z m -3.27637,27.714848 Q 229.02344,98.061523 221.23535,91.455078 l 8.05664,-7.788086 q 8.05664,6.176758 16.59668,15.952149 z M 223.4375,151.9873 q 9.45312,-14.71679 17.93945,-37.75878 l 8.8086,6.49902 q -7.03614,21.32324 -16.86524,39.85351 z m 95.71289,-51.50878 Q 312.11426,89.091797 304.37988,80.820312 l 8.16407,-5.263671 q 9.45312,8.59375 15.30761,18.798828 z m -75.1416,-6.445317 q 7.8418,-6.445312 12.89062,-17.080078 l 9.77539,3.652344 q -5.26367,11.977539 -14.55566,19.980471 z"></path>
</svg>
