<svg xmlns="http://www.w3.org/2000/svg" id="svg1" version="1.1" height="200" width="990">
  <defs id="defs1"></defs>
  <rect id="rect1" stroke="none" fill="none" height="200" width="990" y="0" x="0"></rect>
  <path aria-label="アリューシャン列島" style="font-size:100px;font-family:'BIZ UDPGothic';fill:#ff0000" id="text1" d="M 3.2226563,76.416016 H 79.345703 l 5.273438,4.492187 q -4.199219,16.308594 -15.478516,25.537107 -6.201172,5.07813 -15.527344,8.64258 l -4.6875,-6.00586 q 13.916016,-4.54101 21.582031,-14.941405 3.515625,-4.833984 5.029297,-10.644531 H 3.2226563 Z M 35.742187,94.580078 h 7.861329 v 8.203122 q 0,19.18946 -3.759766,29.00391 -5.029297,13.03711 -20.703125,21.19141 l -5.810547,-5.95704 q 10.742188,-5.17578 15.966797,-13.23242 3.564453,-5.41992 4.785156,-11.03515 1.660156,-7.66602 1.660156,-19.97071 z M 100.63477,70.019531 h 8.20312 v 51.464849 h -8.20312 z m 50.09765,-1.02539 h 8.20313 v 33.496089 q 0,16.99219 -2.34375,25.04883 -2.49024,8.64258 -7.42188,13.81836 -8.49609,8.88672 -26.31836,13.33008 l -4.29687,-7.17773 q 20.70312,-4.54102 26.90429,-14.99024 3.95508,-6.78711 4.83399,-16.94336 0.43945,-4.88281 0.43945,-12.98828 z m 38.13477,22.90039 h 46.14258 q -1.41602,23.046879 -5.41993,51.806639 h 18.79883 v 6.78711 h -68.79883 v -6.78711 h 42.48047 q 3.90625,-27.63672 4.93164,-45.117186 h -38.13476 z m 73.73047,14.404299 H 346.875 v 7.71484 H 262.59766 Z M 393.79883,88.28125 q -12.15821,-5.664063 -26.70899,-9.863281 l 2.49024,-7.03125 q 15.03906,3.662109 26.80664,9.521484 z m -10.30274,24.90234 q -10.64453,-4.73632 -26.51367,-9.86328 l 2.97852,-7.324216 q 14.59961,4.052736 26.51367,9.814456 z m -20.11718,30.71289 q 17.91992,-1.46484 28.75976,-5.22461 18.4082,-6.44531 28.51563,-23.38867 6.78711,-11.32812 10.10742,-28.271481 l 7.1289,4.296875 q -4.39453,20.068356 -12.5,32.226566 -9.86328,14.74609 -27.34375,21.67968 -12.30468,4.83399 -32.37304,6.5918 z m 110.40039,-59.912105 2.97851,16.992185 37.20703,-5.859373 4.93164,3.90625 q -5.32226,21.435543 -19.14062,33.789063 l -5.76172,-4.83398 q 7.08008,-5.71289 11.62109,-13.72071 3.17383,-5.66406 4.44336,-11.37695 l -32.08007,5.12695 8.00781,45.70313 -7.42188,1.26953 -8.20312,-45.80078 -20.60547,3.32031 -0.87891,-7.08008 20.3125,-3.22265 -3.02734,-16.796879 z m 92.33398,9.179687 q -13.96484,-6.347656 -29.6875,-10.15625 l 2.58789,-7.617187 q 18.79883,4.492187 29.93164,10.107422 z m -28.90625,50.341798 q 19.72656,-1.75781 31.05469,-6.00586 29.3457,-10.98633 36.96289,-50.585938 l 6.78711,4.882813 q -4.54102,21.484375 -14.16016,34.082035 -10.54687,13.86718 -28.80859,20.06836 -11.2793,3.80859 -29.83399,5.85937 z m 114.99024,-16.30859 q -8.30079,-7.37305 -16.50391,-12.64649 -4.10156,6.5918 -9.61914,12.74414 l -4.98047,-6.00586 q 15.625,-17.77343 20.3125,-43.359373 l 0.0977,-0.732421 H 623.7793 v -7.080079 h 51.12304 v 7.080079 h -25.73242 q -1.12305,6.738281 -2.97851,13.183593 h 20.11718 L 670.3125,93.75 q -3.51563,24.12109 -12.35352,39.11133 -8.88671,15.08789 -27.58789,26.02539 L 625,152.68555 q 18.06641,-9.86328 27.19727,-25.48828 z m 3.51562,-7.03125 q 4.00391,-9.27735 6.29883,-23.095708 h -17.96875 q -2.29492,6.249998 -5.07813,11.669918 9.81446,5.61524 16.74805,11.42579 z m 24.56055,-41.357426 h 7.71484 v 57.373046 h -7.71484 z m 22.31445,-10.302735 h 7.8125 v 79.980471 q 0,5.37109 -2.58789,7.56836 -2.34375,1.95312 -8.25195,1.95312 -5.56641,0 -14.79493,-0.68359 l -1.66015,-8.10547 q 9.66797,0.97656 15.47851,0.97656 3.07618,0 3.66211,-1.5625 0.3418,-0.83008 0.3418,-2.34375 z m 83.44727,80.712891 h -53.8086 v 5.71289 h -7.71484 v -23.0957 h 7.71484 v 11.18164 h 19.0918 v -14.69727 h -19.0918 V 73.291016 h 23.97461 q 3.36914,-4.931641 5.41992,-9.179688 l 8.69141,2.001953 q -2.39258,3.515625 -5.46875,7.177735 h 35.25391 v 30.517574 h -59.96094 v 6.00586 h 75.3418 v 6.10352 h -75.3418 v 6.29883 h 70.94726 q -0.73242,23.87695 -3.32031,30.71289 -1.5625,4.19922 -5.51758,5.66406 -2.58789,0.92773 -6.83593,0.92773 -6.15235,0 -11.76758,-0.8789 l -1.61133,-7.22656 q 6.73828,1.02539 12.10937,1.02539 4.24805,0 5.3711,-1.95313 2.24609,-3.90625 3.36914,-22.16797 h -43.94531 v 14.69727 h 19.58007 v -11.18164 h 7.51954 z M 740.13672,79.296875 v 6.298828 h 52.09961 v -6.298828 z m 0,12.011719 v 6.689453 h 52.09961 v -6.689453 z"></path>
</svg>
