<svg xmlns="http://www.w3.org/2000/svg" id="svg1" version="1.1" height="200" width="1096">
  <defs id="defs1"></defs>
  <rect id="rect1" stroke="none" fill="none" height="200" width="1096" y="0" x="0"></rect>
  <path aria-label="青森県三八上北地方" style="font-weight:bold;font-size:110px;font-family:'BIZ UDPGothic';fill:#ff0000" id="text1" d="m 48.71582,62.880859 v -6.928711 h 11.870117 v 6.928711 h 40.498043 v 8.164063 H 60.585937 v 5.15625 H 95.12207 v 8.164062 H 60.585937 v 5.263672 h 46.674803 v 8.378906 H 2.7392578 V 89.628906 H 48.71582 V 84.365234 H 14.716797 V 76.201172 H 48.71582 v -5.15625 H 8.8085938 v -8.164063 z m 43.881836,40.712891 v 46.72852 q 0,5.74707 -2.846679,7.8955 -2.416993,1.82618 -8.217774,1.82618 -7.412109,0 -17.885742,-0.91309 L 61.821289,149.0332 q 9.023438,1.18164 15.307617,1.18164 2.524414,0 3.061524,-0.80566 0.429687,-0.64453 0.429687,-2.57813 V 140.6543 H 30.239258 v 19.81933 H 18.154297 v -56.87988 z m -62.358398,8.37891 v 6.01562 h 50.380859 v -6.01562 z m 0,14.17968 v 6.33789 h 50.380859 v -6.33789 z M 179.93164,75.825195 q 14.87793,10.473633 35.98633,17.617188 l -6.71387,9.829097 Q 183.90625,93.28125 170.47852,79.316406 V 106.44043 H 158.82324 V 80.283203 q -13.53515,16.05957 -38.08105,24.384767 l -6.44531,-8.701173 q 14.71679,-4.726563 23.79394,-10.097656 7.3584,-4.350586 13.10547,-10.043946 h -32.97852 v -9.882812 h 40.60547 v -9.990235 h 11.65528 v 9.990235 h 41.57226 v 9.882812 z m -45.22461,55.859375 q -7.14355,12.7832 -17.83203,22.0752 l -6.12305,-9.7754 q 13.37403,-9.50683 21.80664,-23.5791 h -19.87304 v -9.56054 h 22.02148 v -10.58106 h 11.01074 v 10.58106 h 16.27442 v 9.56054 h -16.27442 v 2.57813 q 9.07715,5.53222 17.29493,12.40722 l -7.19727,8.11036 q -3.38379,-3.86719 -10.09766,-10.04395 v 27.0166 h -11.01074 z m 62.03613,-11.2793 q 8.05664,12.46094 22.34375,21.91407 l -6.06933,10.68847 q -12.46094,-10.52734 -18.69141,-21.86035 v 29.32617 h -11.01074 v -28.30566 q -6.76758,12.24609 -17.93945,21.05469 l -6.60645,-8.48633 q 14.28711,-10.47363 21.91406,-24.33106 h -14.50195 v -9.56054 h 17.13379 v -10.58106 h 11.01074 v 10.58106 h 22.88086 v 9.56054 z M 312.16797,58.583984 V 110.62988 H 248.25195 V 58.583984 Z m -52.36817,8.486328 v 6.713868 h 40.7129 v -6.713868 z m 0,14.28711 v 6.713867 h 40.7129 v -6.713867 z m 0,14.287109 v 6.928709 h 40.7129 v -6.928709 z m -21.6455,22.128909 h 89.05273 v 9.3457 h -44.41894 v 33.35449 H 270.5957 V 127.11914 H 226.3916 V 66.855469 h 11.7627 z m -13.75,32.4414 q 12.7832,-5.9082 24.43847,-19.81933 l 9.88282,5.74707 q -11.49414,14.55566 -25.5127,22.88086 z m 92.59765,6.92871 q -8.21777,-10.09765 -24.70703,-21.21582 l 9.23828,-6.49902 q 12.94434,7.46582 25.40528,19.60449 z m 24.33106,-91.308589 h 87.22656 v 11.44043 h -87.22656 z m 6.06933,35.449219 h 75.19532 v 11.11816 h -75.19532 z m -12.99804,38.34961 h 101.1914 v 11.44043 H 334.4043 Z M 507.89062,73.569336 h -34.9121 v -11.44043 h 46.29882 l 0.26856,2.470703 q 2.14844,23.095703 8.00293,41.088871 6.66015,20.41015 19.55078,39.26269 l -9.88281,11.22559 q -12.99805,-19.28223 -20.57129,-42.53906 -3.97461,-12.29981 -7.30469,-30.776372 -1.18164,-6.606445 -1.4502,-9.291992 z m -65.04394,73.583984 q 10.20508,-11.11816 16.27441,-28.03711 5.90821,-16.54297 7.57325,-34.589843 l 12.13867,3.222656 q -2.84668,40.927737 -25.62012,69.287107 z M 608.22266,86.621094 h 38.77929 v 11.010742 h -38.77929 v 44.902344 h 49.03808 v 11.22559 H 552.73926 v -11.22559 h 42.48535 V 55.952148 h 12.99805 z m 83.89648,45.224606 q -14.82422,7.78809 -25.83496,11.92383 l -4.51172,-11.81641 q 17.24121,-5.80078 30.34668,-12.03124 V 95.859375 H 665.53223 V 84.526367 h 26.58691 V 55.952148 h 11.97754 V 160.47363 h -11.97754 z m 38.18848,-41.840817 q 12.51465,-6.552735 24.27734,-16.650391 l 8.91602,9.345703 q -15.89844,11.279297 -33.19336,19.228515 v 40.2832 q 0,2.63184 1.71875,3.22266 1.82617,0.59082 8.43261,0.59082 8.70118,0 10.90332,-1.02051 1.55762,-0.69824 2.14844,-4.35058 0.80567,-5.10254 1.18164,-16.48926 l 12.03125,3.70605 q -0.53711,13.91114 -1.71875,19.98047 -1.34277,6.76758 -7.03613,8.75489 -5.4248,1.82617 -17.77832,1.82617 -14.50195,0 -18.26172,-2.417 -3.59863,-2.36328 -3.59863,-9.07714 V 55.952148 h 11.97754 z m 95.98144,9.453125 v 42.539062 q 0,4.13574 3.54492,4.99512 3.65235,0.91308 16.70411,0.91308 12.72949,0 16.81152,-1.28906 2.30957,-0.75195 3.00781,-4.18945 0.91309,-4.83399 0.9668,-11.44043 l 11.22558,3.16894 Q 877.69043,150 874.19922,154.4043 q -2.30957,2.90039 -6.98242,3.4375 -7.3584,0.80566 -24.97559,0.80566 -13.64258,0 -17.88574,-0.75195 -6.3916,-1.07422 -8.11035,-5.63965 -0.85938,-2.41699 -0.85938,-6.44531 v -42.59278 l -10.25879,3.54493 -2.52441,-10.419927 12.7832,-4.404296 V 62.988281 h 10.90332 v 25.19043 l 11.54785,-3.920899 V 55.952148 h 10.7959 v 24.545899 l 17.99317,-6.176758 5.63964,3.4375 v 40.229491 q 0,4.18945 -1.9873,6.23047 -2.25586,2.25586 -7.57324,2.25586 -4.35059,0 -9.23828,-0.75195 l -1.77246,-10.25879 q 3.16894,0.80566 6.44531,0.80566 2.36328,0 2.90039,-0.9668 0.53711,-0.80566 0.53711,-2.68554 V 87.211914 l -12.94434,4.511719 v 43.452147 h -10.7959 V 95.429687 Z M 786.81152,81.894531 V 55.952148 h 11.54785 v 25.942383 h 10.41993 v 10.903321 h -10.41993 v 34.160158 q 5.63965,-1.9336 11.17188,-4.02832 l 1.02051,10.36621 q -17.40235,7.94922 -35.71778,13.32031 l -3.75976,-11.44043 q 8.27148,-2.14844 14.50195,-4.08203 0.75195,-0.26855 1.23535,-0.37598 V 92.797852 H 773.16895 V 81.894531 Z m 145.3418,3.007813 q -0.37598,8.969726 -1.07422,15.791016 h 43.29102 q -0.80567,37.27539 -4.18946,48.39355 -1.71875,5.58594 -6.3916,7.73438 -3.65234,1.66504 -10.68847,1.66504 -7.41211,0 -16.81153,-1.12793 l -2.09472,-12.08496 q 12.62207,1.77246 17.77832,1.77246 4.35058,0 5.53222,-2.4707 2.84668,-6.01563 3.97461,-33.19336 h -31.95801 q -1.77246,9.66796 -4.99511,16.75781 -8.96973,19.60449 -29.97071,31.09863 l -8.48632,-9.45312 q 21.05468,-10.95704 27.82226,-28.73536 4.51172,-11.87011 5.85449,-36.147456 H 884.18945 V 73.891602 h 43.88184 V 55.952148 h 12.40723 v 17.939454 h 45.33203 v 11.010742 z"></path>
</svg>
