<svg xmlns="http://www.w3.org/2000/svg" id="svg1" version="1.1" height="200" width="1096">
  <defs id="defs1"></defs>
  <rect id="rect1" stroke="none" fill="none" height="200" width="1096" y="0" x="0"></rect>
  <path aria-label="十勝沖" style="font-weight:bold;font-size:110px;font-family:'BIZ UDPGothic';fill:#ff0000" id="text1" d="M 48.500977,94.248047 V 55.952148 H 60.800781 V 94.248047 H 107.26074 V 105.47363 H 60.800781 v 55 H 48.500977 v -55 H 2.7392578 V 94.248047 Z M 194.9707,127.44141 h -11.44043 q -4.29687,23.20312 -26.15722,33.24707 l -7.62696,-8.37891 q 10.95703,-4.18945 16.65039,-11.97754 4.45801,-6.17676 6.06934,-12.89062 h -12.56836 v -5.74707 q -2.73926,2.41699 -6.28418,4.88769 l -4.83398,-7.14355 v 31.31347 q 0,4.72657 -1.9336,6.82129 -1.9873,2.09473 -6.55273,2.09473 -3.70606,0 -10.20508,-0.9668 l -1.87988,-10.58105 q 4.88769,0.91308 8.00293,0.91308 1.71875,0 2.30957,-0.59082 0.69824,-0.69824 0.69824,-2.41699 v -24.33105 h -11.81641 q -0.21484,12.03125 -1.39648,19.12109 -1.61133,9.72168 -7.08984,20.08789 l -8.16407,-8.48633 q 4.67285,-9.29199 6.01563,-21.80664 0.80566,-7.46582 0.80566,-17.45605 V 60.463867 h 31.20606 v 55.966793 q 8.59375,-4.72656 13.69629,-11.76269 h -11.81641 v -9.238283 h 16.32812 q 1.61133,-3.813476 3.27637,-8.808593 h -17.08008 v -9.238282 h 7.94922 q -3.81347,-9.345703 -7.84179,-15.253906 l 9.66796,-4.189453 q 4.78028,7.197266 8.05664,15.146484 l -9.3457,4.296875 h 11.06445 q 2.04102,-9.023437 3.4375,-21.752929 l 11.11817,0.751953 q -1.4502,11.010742 -3.65234,21.000976 h 17.61718 l -8.48633,-3.061523 q 3.97461,-7.304687 7.25098,-16.918945 l 10.7959,3.168945 q -2.63184,7.036133 -8.48633,16.811523 h 11.01074 v 9.238282 h -19.12109 q 1.9873,4.565429 4.56543,8.808593 h 18.31543 v 9.238283 h -11.38672 q 6.28418,6.49902 12.7832,10.20508 l -5.80078,9.8291 q -4.24316,-3.06152 -6.92871,-5.47852 -0.0537,0.80567 -0.0537,2.09473 -0.37598,26.15723 -2.63184,32.06543 -1.45019,3.75976 -4.83398,5.15625 -2.4707,1.02051 -6.82129,1.02051 -4.72656,0 -11.17187,-0.75196 l -2.30957,-10.58105 q 7.08984,1.34277 11.27929,1.34277 2.9541,0 3.70606,-1.87988 1.28906,-2.9541 2.04101,-20.24902 z m -10.41992,-9.23828 h 20.08789 q -6.60644,-6.17676 -11.2793,-13.53516 h -19.71191 q -3.4375,6.71387 -9.99023,13.53516 h 10.36621 l 0.59082,-8.11036 h 10.58105 z m -6.98242,-22.773443 h 10.90332 q -1.55762,-3.652343 -3.4375,-8.808593 h -4.51172 q -1.23535,4.135742 -2.9541,8.808593 z M 127.45605,70.561523 v 15.522461 h 11.7627 V 70.561523 Z m 0,25.19043 v 16.274417 h 11.7627 V 95.751953 Z M 283.70117,75.986328 v -20.03418 h 11.54785 v 20.03418 h 29.11133 v 48.608402 h -29.11133 v 35.8789 h -11.54785 v -35.8789 H 255.18066 V 75.986328 Z m -17.40234,10.688477 v 27.338865 h 17.40234 V 86.674805 Z m 46.62109,27.338865 V 86.674805 h -17.6709 v 27.338865 z m -68.75,-31.796873 q -6.55273,-9.13086 -17.34863,-17.456055 l 8.00293,-8.164062 q 10.74219,7.573242 18.1543,16.972656 z m -3.49121,27.607423 q -9.3457,-10.849611 -18.1543,-17.778322 l 8.27149,-8.271484 q 9.39941,6.606445 18.58398,17.080076 z m -16.7041,41.62598 q 10.3125,-14.66309 19.01367,-36.52344 l 9.56055,7.3584 q -7.3584,20.1416 -17.93946,37.91992 z"></path>
</svg>
