<svg xmlns="http://www.w3.org/2000/svg" id="svg1" version="1.1" height="200" width="1096">
  <defs id="defs1"></defs>
  <rect id="rect1" stroke="none" fill="none" height="200" width="1096" y="0" x="0"></rect>
  <path aria-label="島根県東部" style="font-weight:bold;font-size:110px;font-family:'BIZ UDPGothic';fill:#ff0000" id="text1" d="m 42.592773,64.116211 q 1.987305,-4.780274 3.222657,-9.130859 l 13.105468,1.77246 q -1.879882,4.458008 -3.4375,7.358399 H 91.254883 V 99.135742 H 26.37207 v 5.424808 h 80.83496 v 8.70117 H 26.37207 v 5.47851 h 77.0752 q -0.69825,24.59961 -3.11524,33.19336 -1.557616,5.47852 -5.854491,7.25098 -3.061523,1.28906 -9.345703,1.28906 -6.445313,0 -12.03125,-0.80566 l -2.148438,-9.02344 H 17.133789 v 5.96192 H 5.5859375 V 130.77148 H 17.133789 v 11.06446 H 35.610352 V 127.33398 H 14.501953 V 64.116211 Z m 22.827149,77.719729 v -11.06446 h 11.118164 v 18.69141 q 4.458008,0.42969 7.412109,0.42969 3.652344,0 4.56543,-2.09473 1.772461,-3.9209 2.792969,-20.46387 H 47.158203 v 14.50196 z M 26.37207,72.387695 v 5.317383 h 53.012696 v -5.317383 z m 0,12.998047 v 5.854492 h 53.012696 v -5.854492 z m 173.54004,47.050778 q 7.19726,9.8291 18.95996,16.00586 l -6.71387,10.58106 q -13.15918,-7.62696 -20.89355,-19.49707 -8.27149,-12.62207 -11.70899,-29.80957 h -11.06445 v 35.34179 q 12.40723,-3.65234 20.78613,-6.71386 l 1.02051,10.20507 q -15.79101,6.875 -36.25488,11.7627 l -3.70606,-11.01074 q 3.81348,-0.69824 7.14356,-1.4502 V 59.819336 h 52.0459 v 49.843754 l 7.68066,6.55273 q -8.75488,9.77539 -17.29492,16.2207 z m -4.78027,-8.27148 q 7.68066,-7.46582 12.7832,-14.44824 h -17.56348 q 1.82617,8.11035 4.78028,14.44824 z m 3.27636,-55.000001 h -29.91699 v 11.010742 h 29.91699 z m 0,19.819336 h -29.91699 v 11.601565 h 29.91699 z m -69.07226,23.364255 q -4.61914,13.64258 -12.40723,26.69434 l -6.06933,-11.92383 Q 122.94434,110.25391 128.1543,89.414062 H 113.16895 V 78.833008 h 16.16699 v -22.88086 h 11.22558 v 22.88086 h 12.62207 v 10.581054 h -12.62207 v 9.399415 q 9.18457,6.660153 15.89844,14.448243 l -5.9082,10.15137 q -4.83399,-6.66016 -9.99024,-12.13868 v 49.19922 H 129.33594 Z M 312.16797,58.583984 V 110.62988 H 248.25195 V 58.583984 Z m -52.36817,8.486328 v 6.713868 h 40.7129 v -6.713868 z m 0,14.28711 v 6.713867 h 40.7129 v -6.713867 z m 0,14.287109 v 6.928709 h 40.7129 v -6.928709 z m -21.6455,22.128909 h 89.05273 v 9.3457 h -44.41894 v 33.35449 H 270.5957 V 127.11914 H 226.3916 V 66.855469 h 11.7627 z m -13.75,32.4414 q 12.7832,-5.9082 24.43847,-19.81933 l 9.88282,5.74707 q -11.49414,14.55566 -25.5127,22.88086 z m 92.59765,6.92871 q -8.21777,-10.09765 -24.70703,-21.21582 l 9.23828,-6.49902 q 12.94434,7.46582 25.40528,19.60449 z m 85.61524,-31.58203 q 13.32031,11.87012 35.8789,19.17481 l -6.92871,10.09765 q -12.99804,-4.61914 -22.66601,-11.17187 -9.99024,-6.82129 -18.42285,-16.75781 v 33.56933 h -11.65528 v -32.97851 q -7.46582,10.47363 -19.28222,18.79883 -9.07715,6.3916 -19.44336,10.3125 l -7.3584,-9.45313 q 17.02636,-5.63965 28.41308,-15.2002 3.22266,-2.68554 6.55274,-6.3916 H 341.87012 V 81.572266 h 36.95312 V 74.321289 H 334.29687 V 64.65332 h 44.52637 v -8.701172 h 11.65528 v 8.701172 h 45.2246 v 9.667969 h -45.2246 v 7.250977 h 37.65136 V 125.56152 Z M 378.82324,90.595703 h -25.29785 v 8.701172 h 25.29785 z m 11.65528,0 v 8.701172 h 25.99609 v -8.701172 z m -11.65528,17.080077 h -25.29785 v 8.86231 h 25.29785 z m 11.65528,0 v 8.86231 h 25.99609 v -8.86231 z m 87.9248,-39.316405 h 22.98828 v 10.366211 h -7.57324 q -2.04102,8.217773 -5.47852,17.241211 h 14.34082 v 10.366213 h -59.9414 V 95.966797 h 13.15918 Q 453.75,85.654297 451.38672,78.725586 H 444.4043 V 68.359375 h 22.77343 V 55.952148 h 11.22559 z m -16.16699,10.366211 q 2.73926,8.00293 4.24316,17.241211 h 10.95703 l 0.53711,-1.503906 q 2.30957,-6.123047 4.29688,-13.911133 l 0.4834,-1.826172 z m 33.30078,36.630864 v 43.98925 h -11.01074 v -5.26367 H 461.1084 v 6.3916 h -11.33301 v -45.11718 z m -34.42871,9.88281 v 18.63769 h 23.41797 v -18.63769 z m 71.75781,-27.124026 q 6.3916,6.069336 10.15137,14.448246 3.70605,8.3789 3.70605,16.97265 0,7.94922 -2.9541,11.70899 -3.06152,3.9209 -10.09766,3.9209 -6.01562,0 -11.65527,-0.85938 l -2.63183,-11.44043 q 6.49902,1.18164 10.74218,1.18164 3.22266,0 4.02832,-1.5039 0.53711,-1.07422 0.53711,-4.29688 0,-13.2666 -7.94922,-22.88086 -2.09472,-2.52441 -5.26367,-5.424804 l 0.64453,-1.503906 q 5.58594,-12.62207 8.70118,-26.318359 h -13.75 V 160.47363 H 505.95703 V 61.000977 h 32.33399 l 5.96191,5.478515 q -5.42481,18.476563 -11.38672,31.635742 z"></path>
</svg>
