<svg xmlns="http://www.w3.org/2000/svg" id="svg1" version="1.1" height="200" width="1096">
  <defs id="defs1"></defs>
  <rect id="rect1" stroke="none" fill="none" height="200" width="1096" y="0" x="0"></rect>
  <path aria-label="インド洋" style="font-weight:bold;font-size:110px;font-family:'BIZ UDPGothic';fill:#ff0000" id="text1" d="M 45.170898,155.69336 V 100.58594 Q 28.842773,111.54297 7.8955078,119.0625 L 1.3964844,108.15918 Q 25.19043,100.15625 43.129883,87.53418 60.74707,75.126953 74.49707,59.121094 l 10.366211,6.499023 Q 72.670898,79.638672 57.685547,91.347656 V 155.69336 Z M 133.84766,88.178711 Q 116.875,80.605469 98.55957,76.040039 l 3.75977,-11.547852 q 21.21582,4.833985 35.61035,12.03125 z M 99.902344,141.62109 q 26.586916,-2.25586 40.712886,-9.50683 16.65039,-8.59375 25.56641,-26.37207 5.80078,-11.494143 9.39941,-30.078128 l 10.3125,7.573243 q -4.35058,19.873045 -10.52734,31.582035 -11.17187,21.32324 -34.16016,30.88378 -14.50195,6.01563 -38.77929,8.59375 z M 207.05566,59.013672 h 12.51465 v 31.904297 q 32.06543,9.936521 53.12012,20.249021 l -6.01563,11.54785 q -20.19531,-10.25879 -47.10449,-19.49707 v 53.4961 h -12.51465 z m 47.1045,28.950195 q -3.27637,-8.540039 -10.90332,-19.926758 l 8.32519,-3.061523 q 6.66016,9.18457 11.11817,19.550781 z m 15.36132,-3.544922 Q 265.49316,73.999023 258.7793,64.438477 l 8.00293,-2.631836 q 6.06933,7.358398 10.90332,18.691406 z m 77.88086,-0.966797 h -28.73535 v -9.990234 h 14.66309 q -3.49121,-8.00293 -7.41211,-13.964844 l 10.68848,-3.974609 q 4.51171,7.573242 8.27148,17.939453 h 17.08008 q 3.4375,-7.949219 6.55273,-17.939453 l 12.08496,3.330078 q -3.33008,8.486328 -6.66015,14.609375 h 14.07226 v 9.990234 H 359.27246 V 97.30957 h 25.5127 v 9.66797 h -25.5127 v 14.82422 h 31.79688 v 10.36621 h -31.79688 v 28.30566 h -11.87012 v -28.30566 h -31.04492 v -10.36621 h 31.04492 v -14.82422 h -25.67382 v -9.66797 h 25.67382 z m -40.71289,-1.450195 q -6.3916,-8.862305 -16.91894,-17.241211 l 8.11035,-8.271484 q 10.7959,7.841797 17.61719,16.704101 z m -3.49121,27.607427 Q 294.81934,99.404297 285.7959,92.15332 l 8.16406,-8.271484 q 9.61426,6.982422 17.77832,16.811524 z m -15.52246,41.35742 q 9.56055,-13.21289 18.36914,-35.50293 l 9.13086,7.14355 q -7.51953,22.5586 -18.04687,37.75879 z"></path>
</svg>
