<svg xmlns="http://www.w3.org/2000/svg" id="svg1" version="1.1" height="200" width="990">
  <defs id="defs1"></defs>
  <rect id="rect1" stroke="none" fill="none" height="200" width="990" y="0" x="0"></rect>
  <path aria-label="中央アジア" style="font-size:100px;font-family:'BIZ UDPGothic';fill:#ff0000" id="text1" d="M 45.703125,83.59375 V 64.501953 h 7.910156 V 83.59375 h 37.25586 v 49.70703 h -7.910157 v -6.98242 H 53.613281 v 33.20312 H 45.703125 V 126.31836 H 16.894531 v 7.51953 H 8.8867188 V 83.59375 Z M 16.894531,90.917969 V 118.99414 H 45.703125 V 90.917969 Z M 82.958984,118.99414 V 90.917969 H 53.613281 V 118.99414 Z M 156.25,121.28906 q 5.41992,9.66797 15.77148,17.77344 8.93555,6.98242 24.75586,11.91406 l -4.58984,7.42188 Q 162.69531,148.63281 150.53711,125 145.94727,138.57422 134.22852,147.60742 125,154.6875 109.17969,159.08203 l -4.39453,-6.68945 q 16.21093,-4.05274 26.51367,-12.69531 9.13086,-7.71485 13.03711,-18.40821 h -41.84571 v -7.08008 h 12.69532 V 81.201172 h 30.61523 V 64.501953 h 7.71484 v 16.699219 h 31.15235 v 33.007808 h 12.79297 v 7.08008 z M 145.80078,88.085937 h -22.90039 v 26.123043 h 22.90039 z m 7.71484,0 v 26.123043 h 23.33985 V 88.085937 Z m 49.70704,-11.669921 h 76.12304 l 5.27344,4.492187 q -4.19922,16.308594 -15.47852,25.537107 -6.20117,5.07813 -15.52734,8.64258 l -4.6875,-6.00586 q 13.91602,-4.54101 21.58203,-14.941405 3.51563,-4.833984 5.0293,-10.644531 h -72.31445 z m 32.51953,18.164062 h 7.86133 v 8.203122 q 0,19.18946 -3.75977,29.00391 -5.0293,13.03711 -20.70313,21.19141 l -5.81054,-5.95704 q 10.74219,-5.17578 15.96679,-13.23242 3.56446,-5.41992 4.78516,-11.03515 1.66016,-7.66602 1.66016,-19.97071 z m 95.06836,-6.298828 q -12.15821,-5.664063 -26.70899,-9.863281 l 2.49024,-7.03125 q 15.03906,3.662109 26.80664,9.521484 z m -10.30274,24.90234 q -10.64453,-4.73632 -26.51367,-9.86328 l 2.97852,-7.324216 q 14.59961,4.052736 26.51367,9.814456 z m -20.11719,30.71289 q 20.06836,-1.70898 31.15235,-6.10351 14.20898,-5.61524 23.24219,-17.96875 8.54492,-11.62109 11.8164,-27.832033 l 7.17774,4.296875 q -6.29883,27.099608 -23.73047,40.478518 -11.23047,8.64258 -27.83203,12.25586 -8.05664,1.80664 -19.53125,2.7832 z m 57.71485,-57.080074 q -3.125,-7.8125 -8.78906,-16.015625 l 5.95703,-2.294922 q 5.61523,7.910157 8.83789,15.917969 z m 12.89062,-3.710937 q -3.66211,-8.984375 -8.6914,-16.015625 l 5.81054,-2.09961 q 5.12696,6.640625 8.78907,15.625 z m 16.25977,-6.689453 h 76.12305 l 5.27343,4.492187 q -4.19922,16.308594 -15.47851,25.537107 -6.20117,5.07813 -15.52735,8.64258 l -4.6875,-6.00586 q 13.91602,-4.54101 21.58204,-14.941405 3.51562,-4.833984 5.02929,-10.644531 h -72.31445 z m 32.51953,18.164062 h 7.86133 v 8.203122 q 0,19.18946 -3.75977,29.00391 -5.02929,13.03711 -20.70312,21.19141 l -5.81055,-5.95704 q 10.74219,-5.17578 15.9668,-13.23242 3.56445,-5.41992 4.78515,-11.03515 1.66016,-7.66602 1.66016,-19.97071 z"></path>
</svg>
