<svg xmlns="http://www.w3.org/2000/svg" id="svg1" version="1.1" height="200" width="1096">
  <defs id="defs1"></defs>
  <rect id="rect1" stroke="none" fill="none" height="200" width="1096" y="0" x="0"></rect>
  <path aria-label="岐阜県美濃東部" style="font-weight:bold;font-size:110px;font-family:'BIZ UDPGothic';fill:#ff0000" id="text1" d="m 84.648437,134.2627 q 10.903321,9.23828 24.384763,14.71679 l -6.3916,10.7959 Q 88.837891,153.11523 77.290039,141.99707 65.097656,153.81348 47.963867,161.06445 l -7.036133,-9.56054 Q 56.71875,146.66992 70.146484,134.37012 58.920898,120.94238 53.549805,106.81641 H 48.500977 V 96.450195 H 69.609375 V 81.948242 H 45.117187 V 141.83594 H 14.609375 v 9.3457 H 4.8339844 V 77.866211 H 14.072266 V 131.52344 H 20.03418 V 57.509766 h 9.77539 v 74.013674 h 6.176758 V 77.866211 h 7.680664 V 71.367187 H 69.609375 V 55.952148 H 80.942383 V 71.367187 H 107.36816 V 81.948242 H 80.942383 v 14.501953 h 17.080078 l 5.156249,5.317385 q -8.754882,20.83984 -18.530273,32.49512 z m -7.573242,-7.3584 q 8.647461,-11.38672 11.923828,-20.08789 H 64.614258 q 4.833984,11.54785 12.460937,20.08789 z M 158.6084,121.74805 H 123.42773 V 64.975586 h 30.23926 q 1.87988,-4.887695 2.9541,-9.667969 l 13.15918,1.772461 q -1.77246,3.920899 -4.02832,7.895508 h 37.97364 v 24.760742 h -68.53516 v 7.036133 h 73.04687 v 24.975589 h -37.65136 v 8.48632 h 46.88965 v 9.7754 h -46.88965 v 20.46386 H 158.6084 v -20.46386 h -45.97656 v -9.7754 H 158.6084 Z M 135.19043,73.569336 V 81.25 h 56.61133 v -7.680664 z m 0,31.796874 v 7.68067 h 61.23047 v -7.68067 z M 312.16797,58.583984 V 110.62988 H 248.25195 V 58.583984 Z m -52.36817,8.486328 v 6.713868 h 40.7129 v -6.713868 z m 0,14.28711 v 6.713867 h 40.7129 v -6.713867 z m 0,14.287109 v 6.928709 h 40.7129 v -6.928709 z m -21.6455,22.128909 h 89.05273 v 9.3457 h -44.41894 v 33.35449 H 270.5957 V 127.11914 H 226.3916 V 66.855469 h 11.7627 z m -13.75,32.4414 q 12.7832,-5.9082 24.43847,-19.81933 l 9.88282,5.74707 q -11.49414,14.55566 -25.5127,22.88086 z m 92.59765,6.92871 q -8.21777,-10.09765 -24.70703,-21.21582 l 9.23828,-6.49902 q 12.94434,7.46582 25.40528,19.60449 z m 61.60645,-46.72851 h -45.76172 v -9.02344 h 45.76172 v -8.486327 h -35.28809 v -8.59375 h 35.28809 v -8.110351 h -41.03516 v -8.808594 h 22.5586 q -2.84668,-4.619141 -5.96192,-8.271484 l 12.46094,-3.491211 q 4.29687,5.532226 7.08984,11.762695 h 22.0752 q 4.24316,-6.015625 6.55273,-11.655273 l 13.32032,2.631836 q -2.95411,4.780273 -6.17676,9.023437 h 22.88086 v 8.808594 h -41.67969 v 8.110351 h 35.98633 v 8.59375 h -35.98633 v 8.486327 h 46.45996 v 9.02344 h -46.45996 v 9.02344 h 44.58008 v 9.23828 h -40.60547 q 5.69336,7.03613 14.77051,11.8164 11.97754,6.28418 27.23144,8.64746 l -7.25097,11.01075 q -31.31348,-7.62696 -43.50586,-26.64063 -4.83399,10.36621 -16.27442,17.1875 -10.36621,6.23047 -28.89648,9.88281 l -7.25098,-10.47363 q 34.64356,-3.81347 42.80762,-21.43066 h -41.46485 v -9.23828 h 43.77442 z m 152.10937,33.94531 q 6.76758,4.29688 17.29493,7.19727 l -6.28418,9.02343 q -13.53516,-4.61914 -21.5918,-11.76269 -8.43262,-7.51953 -12.35352,-18.26172 h -8.3789 v 17.93945 l 1.5039,-0.26855 q 6.23047,-1.12793 14.01856,-2.79297 l 0.42969,8.54004 q -14.7168,3.86719 -32.97852,6.71387 l -3.16895,-9.34571 q 4.8877,-0.53711 9.82911,-1.18164 v -19.60449 h -9.18457 q -0.53711,8.64746 -1.98731,14.7168 -1.93359,8.21777 -6.71387,15.52246 l -8.3789,-8.00293 q 4.51172,-8.21777 5.74707,-18.1543 0.75195,-6.12305 0.75195,-14.60937 V 98.867187 h 76.00098 v 7.788083 h -65.09766 v 11.81641 q 0,1.82617 -0.0537,4.29687 h 67.13867 v 7.78809 h -9.02344 l 5.80079,5.37109 q -6.39161,4.83399 -13.32032,8.43262 z m -6.33789,-5.10254 q 6.01563,-4.08203 11.17188,-8.70117 h -17.40235 q 2.30957,4.78027 6.23047,8.70117 z M 491.83105,61.21582 v -5.263672 h 9.56055 v 5.263672 h 9.88281 v -5.263672 h 9.56055 v 5.263672 h 19.71191 V 94.355469 H 472.22656 V 61.21582 Z m -9.72168,7.358399 v 5.74707 h 9.93653 v -5.74707 z m 0,12.460937 v 6.176758 h 9.93653 v -6.176758 z m 48.66211,6.176758 v -6.176758 h -10.15136 v 6.176758 z m 0,-12.890625 v -5.74707 h -10.15136 v 5.74707 z m -29.37988,-5.74707 v 5.74707 h 9.88281 v -5.74707 z m 0,12.460937 v 6.176758 h 9.88281 v -6.176758 z m -42.27051,-0.537109 q -4.67285,-7.46582 -13.96484,-16.865235 l 7.94922,-7.143554 q 7.30469,6.123047 14.50195,15.737304 z m -2.73925,27.607423 q -6.82129,-9.506837 -14.17969,-17.187501 l 7.68066,-7.573242 q 8.43262,7.626953 14.66309,16.381835 z m -13.42774,44.63379 q 7.57324,-14.50196 14.66309,-38.40332 l 9.02343,5.96191 q -4.78027,20.19531 -13.96484,40.17578 z m 42.37793,-41.67969 h 53.22754 v 7.25098 h -53.22754 z m 137.28516,14.50195 q 13.32031,11.87012 35.8789,19.17481 l -6.92871,10.09765 q -12.99804,-4.61914 -22.66601,-11.17187 -9.99024,-6.82129 -18.42285,-16.75781 v 33.56933 h -11.65528 v -32.97851 q -7.46582,10.47363 -19.28222,18.79883 -9.07715,6.3916 -19.44336,10.3125 l -7.3584,-9.45313 q 17.02636,-5.63965 28.41308,-15.2002 3.22266,-2.68554 6.55274,-6.3916 H 561.87012 V 81.572266 h 36.95312 V 74.321289 H 554.29687 V 64.65332 h 44.52637 v -8.701172 h 11.65528 v 8.701172 h 45.2246 v 9.667969 h -45.2246 v 7.250977 h 37.65136 V 125.56152 Z M 598.82324,90.595703 h -25.29785 v 8.701172 h 25.29785 z m 11.65528,0 v 8.701172 h 25.99609 v -8.701172 z m -11.65528,17.080077 h -25.29785 v 8.86231 h 25.29785 z m 11.65528,0 v 8.86231 h 25.99609 v -8.86231 z m 87.9248,-39.316405 h 22.98828 v 10.366211 h -7.57324 q -2.04102,8.217773 -5.47852,17.241211 h 14.34082 v 10.366213 h -59.9414 V 95.966797 h 13.15918 Q 673.75,85.654297 671.38672,78.725586 H 664.4043 V 68.359375 h 22.77343 V 55.952148 h 11.22559 z m -16.16699,10.366211 q 2.73926,8.00293 4.24316,17.241211 h 10.95703 l 0.53711,-1.503906 q 2.30957,-6.123047 4.29688,-13.911133 l 0.4834,-1.826172 z m 33.30078,36.630864 v 43.98925 h -11.01074 v -5.26367 H 681.1084 v 6.3916 h -11.33301 v -45.11718 z m -34.42871,9.88281 v 18.63769 h 23.41797 v -18.63769 z m 71.75781,-27.124026 q 6.3916,6.069336 10.15137,14.448246 3.70605,8.3789 3.70605,16.97265 0,7.94922 -2.9541,11.70899 -3.06152,3.9209 -10.09766,3.9209 -6.01562,0 -11.65527,-0.85938 l -2.63183,-11.44043 q 6.49902,1.18164 10.74218,1.18164 3.22266,0 4.02832,-1.5039 0.53711,-1.07422 0.53711,-4.29688 0,-13.2666 -7.94922,-22.88086 -2.09472,-2.52441 -5.26367,-5.424804 l 0.64453,-1.503906 q 5.58594,-12.62207 8.70118,-26.318359 h -13.75 V 160.47363 H 725.95703 V 61.000977 h 32.33399 l 5.96191,5.478515 q -5.42481,18.476563 -11.38672,31.635742 z"></path>
</svg>
