<svg xmlns="http://www.w3.org/2000/svg" id="svg1" version="1.1" height="200" width="1096">
  <defs id="defs1"></defs>
  <rect id="rect1" stroke="none" fill="none" height="200" width="1096" y="0" x="0"></rect>
  <path aria-label="石狩地方中部" style="font-weight:bold;font-size:110px;font-family:'BIZ UDPGothic';fill:#ff0000" id="text1" d="M 36.630859,102.14355 H 97.96875 v 58.33008 H 85.561523 v -7.41211 H 33.837891 v 7.41211 H 21.645508 v -39.74609 q -6.660156,6.60644 -14.2871096,12.62207 L 0.75195312,123.03711 Q 15.46875,112.77832 25.78125,97.524414 33.78418,85.654297 38.295898,72.924805 H 5.3710937 V 62.236328 H 105.05859 V 72.924805 H 51.455078 q -5.74707,15.522461 -14.824219,29.218745 z m -2.792968,10.47364 v 29.75586 h 51.723632 v -29.75586 z m 101.298829,-0.9668 q -7.94922,16.2207 -17.29492,25.67383 l -6.28418,-9.66797 q 11.33301,-10.95703 21.80664,-32.333984 -0.59082,-3.276368 -1.50391,-6.391602 -6.12305,6.391602 -14.55566,13.212886 l -5.96192,-9.560542 q 9.292,-6.499024 16.43555,-14.28711 -4.13574,-8.002929 -11.2793,-14.555664 l 8.05664,-5.693359 q 6.44532,5.209961 10.41993,11.171875 4.40429,-6.552734 7.73437,-12.836914 l 9.56055,5.961914 q -6.33789,10.205078 -11.97754,17.026367 6.76758,16.328125 6.76758,49.252933 0,15.7373 -2.79297,23.36425 -1.66504,4.61915 -4.8877,6.49903 -2.63183,1.5039 -7.3584,1.5039 -6.33789,0 -11.76269,-1.18164 l -1.87988,-11.54785 q 5.63964,1.50391 10.52734,1.50391 3.38379,0 4.35059,-1.71875 2.36328,-4.13574 2.36328,-21.16211 0,-6.01563 -0.32227,-11.87012 -0.10742,-1.55762 -0.16113,-2.36328 z m 52.42187,-41.948242 h 28.30567 v 23.955079 h -11.11817 v -14.28711 h -43.88183 v 14.28711 H 149.74609 V 69.702148 h 26.26465 V 55.737305 h 11.54785 z m 14.07227,30.668942 h 15.84473 v 9.77539 h -15.84473 v 39.53125 q 0,5.90821 -3.00781,8.05664 -2.52442,1.82618 -8.75489,1.82618 -3.49121,0 -12.40722,-0.53711 l -2.47071,-0.10742 -2.30957,-11.44043 q 9.02344,1.12793 14.98536,1.12793 1.9873,0 2.4707,-0.9668 0.37598,-0.80567 0.37598,-3.00781 v -34.48243 h -42.48536 v -9.77539 H 190.5127 V 86.835937 h 11.11816 z m -32.97852,41.57227 q -5.58593,-12.46094 -13.32031,-22.61231 l 9.77539,-5.53222 q 7.08985,7.57324 14.12598,21.59179 z M 276.28906,99.458008 v 42.539062 q 0,4.13574 3.54492,4.99512 3.65235,0.91308 16.70411,0.91308 12.72949,0 16.81152,-1.28906 2.30957,-0.75195 3.00781,-4.18945 0.91309,-4.83399 0.9668,-11.44043 l 11.22558,3.16894 Q 327.69043,150 324.19922,154.4043 q -2.30957,2.90039 -6.98242,3.4375 -7.3584,0.80566 -24.97559,0.80566 -13.64258,0 -17.88574,-0.75195 -6.3916,-1.07422 -8.11035,-5.63965 -0.85938,-2.41699 -0.85938,-6.44531 v -42.59278 l -10.25879,3.54493 -2.52441,-10.419927 12.7832,-4.404296 V 62.988281 h 10.90332 v 25.19043 l 11.54785,-3.920899 V 55.952148 h 10.7959 v 24.545899 l 17.99317,-6.176758 5.63964,3.4375 v 40.229491 q 0,4.18945 -1.9873,6.23047 -2.25586,2.25586 -7.57324,2.25586 -4.35059,0 -9.23828,-0.75195 l -1.77246,-10.25879 q 3.16894,0.80566 6.44531,0.80566 2.36328,0 2.90039,-0.9668 0.53711,-0.80566 0.53711,-2.68554 V 87.211914 l -12.94434,4.511719 v 43.452147 h -10.7959 V 95.429687 Z M 236.81152,81.894531 V 55.952148 h 11.54785 v 25.942383 h 10.41993 v 10.903321 h -10.41993 v 34.160158 q 5.63965,-1.9336 11.17188,-4.02832 l 1.02051,10.36621 q -17.40235,7.94922 -35.71778,13.32031 l -3.75976,-11.44043 q 8.27148,-2.14844 14.50195,-4.08203 0.75195,-0.26855 1.23535,-0.37598 V 92.797852 H 223.16895 V 81.894531 Z m 145.3418,3.007813 q -0.37598,8.969726 -1.07422,15.791016 h 43.29102 q -0.80567,37.27539 -4.18946,48.39355 -1.71875,5.58594 -6.3916,7.73438 -3.65234,1.66504 -10.68847,1.66504 -7.41211,0 -16.81153,-1.12793 l -2.09472,-12.08496 q 12.62207,1.77246 17.77832,1.77246 4.35058,0 5.53222,-2.4707 2.84668,-6.01563 3.97461,-33.19336 h -31.95801 q -1.77246,9.66796 -4.99511,16.75781 -8.96973,19.60449 -29.97071,31.09863 l -8.48632,-9.45312 q 21.05468,-10.95704 27.82226,-28.73536 4.51172,-11.87011 5.85449,-36.147456 H 334.18945 V 73.891602 h 43.88184 V 55.952148 h 12.40723 v 17.939454 h 45.33203 V 84.902344 Z M 488.6084,75.664062 V 55.952148 h 12.08496 v 19.711914 h 39.85351 v 56.826168 h -11.87011 v -7.46582 h -27.9834 v 35.44922 H 488.6084 v -35.44922 h -27.28516 v 8.05664 H 449.45312 V 75.664062 Z M 461.32324,86.674805 V 114.01367 H 488.6084 V 86.674805 Z m 67.35352,27.338865 V 86.674805 h -27.9834 v 27.338865 z m 59.72656,-45.654295 h 22.98828 v 10.366211 h -7.57324 q -2.04102,8.217773 -5.47852,17.241211 h 14.34082 v 10.366213 h -59.9414 V 95.966797 h 13.15918 Q 563.75,85.654297 561.38672,78.725586 H 554.4043 V 68.359375 h 22.77343 V 55.952148 h 11.22559 z m -16.16699,10.366211 q 2.73926,8.00293 4.24316,17.241211 h 10.95703 l 0.53711,-1.503906 q 2.30957,-6.123047 4.29688,-13.911133 l 0.4834,-1.826172 z m 33.30078,36.630864 v 43.98925 h -11.01074 v -5.26367 H 571.1084 v 6.3916 h -11.33301 v -45.11718 z m -34.42871,9.88281 v 18.63769 h 23.41797 v -18.63769 z m 71.75781,-27.124026 q 6.3916,6.069336 10.15137,14.448246 3.70605,8.3789 3.70605,16.97265 0,7.94922 -2.9541,11.70899 -3.06152,3.9209 -10.09766,3.9209 -6.01562,0 -11.65527,-0.85938 l -2.63183,-11.44043 q 6.49902,1.18164 10.74218,1.18164 3.22266,0 4.02832,-1.5039 0.53711,-1.07422 0.53711,-4.29688 0,-13.2666 -7.94922,-22.88086 -2.09472,-2.52441 -5.26367,-5.424804 l 0.64453,-1.503906 q 5.58594,-12.62207 8.70118,-26.318359 h -13.75 V 160.47363 H 615.95703 V 61.000977 h 32.33399 l 5.96191,5.478515 q -5.42481,18.476563 -11.38672,31.635742 z"></path>
</svg>
