<svg xmlns="http://www.w3.org/2000/svg" id="svg1" version="1.1" height="200" width="1096">
  <defs id="defs1"></defs>
  <rect id="rect1" stroke="none" fill="none" height="200" width="1096" y="0" x="0"></rect>
  <path aria-label="富山湾" style="font-weight:bold;font-size:110px;font-family:'BIZ UDPGothic';fill:#ff0000" id="text1" d="M 60.639648,64.65332 H 103.87695 V 85.546875 H 92.329102 V 73.139648 H 17.617187 V 85.546875 H 6.0693359 V 64.65332 H 48.769531 V 55.952148 H 60.639648 Z M 88.999023,91.347656 V 112.61719 H 20.893555 V 91.347656 Z m -57.094726,7.250977 v 6.767577 h 46.083984 v -6.767577 z m 67.138672,18.637697 v 43.2373 h -11.44043 v -4.29687 H 22.34375 v 4.29687 H 10.90332 v -43.2373 z m -76.699219,7.89551 v 7.51953 h 26.748047 v -7.51953 z m 0,14.98535 v 8.00293 h 26.748047 v -8.00293 z m 65.258789,8.00293 v -8.00293 h -27.5 v 8.00293 z m 0,-15.46875 v -7.51953 h -27.5 v 7.51953 z M 22.128906,78.295898 h 65.688477 v 8.271485 H 22.128906 Z M 170.69336,138.02246 h 27.07031 V 78.94043 h 12.19238 v 80.62012 h -12.19238 v -9.88282 H 132.0752 v 9.88282 H 119.99023 V 78.94043 h 12.08497 v 59.08203 h 26.42578 V 57.026367 h 12.19238 z M 302.9834,74.106445 v 20.786133 q 0,3.544922 -1.50391,5.209962 -1.77246,1.93359 -7.84179,1.93359 -5.80079,0 -9.50684,-0.64453 l -1.39649,-8.916014 q 4.24317,0.859375 7.14356,0.859375 1.55762,0 1.9873,-0.751953 0.32227,-0.644531 0.32227,-2.094727 V 74.106445 h -9.56055 q -0.42968,11.333008 -3.00781,17.402344 -2.84668,6.606445 -11.76269,12.084961 l -7.68067,-6.821289 q 8.05664,-4.189453 10.36621,-10.795899 1.39649,-4.135742 1.71875,-11.870117 h -21.21582 v -9.130859 h 30.56153 v -9.023438 h 11.8164 v 9.023438 h 33.73047 v 9.130859 z m 16.59668,30.454105 v 21.80664 h -53.0127 q -0.42968,2.9541 -1.02051,5.9082 h 58.65235 q -1.34277,14.77051 -3.70606,20.24902 -3.4375,7.94922 -16.11328,7.94922 -10.52734,0 -22.6123,-0.91308 l -1.98731,-9.77539 q 11.54785,1.23535 20.67871,1.23535 4.94141,0 6.49903,-1.12793 2.41699,-1.77246 3.75976,-9.23828 h -47.26562 q -0.59082,2.20215 -2.04102,6.60644 l -11.54785,-2.30957 q 4.08203,-12.24609 6.12305,-26.47949 h 51.83105 v -5.74707 h -55 v -8.16406 z M 240.57129,80.820312 q -5.96192,-8.271484 -15.25391,-16.381835 l 8.00293,-7.626954 q 8.43262,6.176758 15.84473,15.737305 z m -3.27637,27.714848 Q 229.02344,98.061523 221.23535,91.455078 l 8.05664,-7.788086 q 8.05664,6.176758 16.59668,15.952149 z M 223.4375,151.9873 q 9.45312,-14.71679 17.93945,-37.75878 l 8.8086,6.49902 q -7.03614,21.32324 -16.86524,39.85351 z m 95.71289,-51.50878 Q 312.11426,89.091797 304.37988,80.820312 l 8.16407,-5.263671 q 9.45312,8.59375 15.30761,18.798828 z m -75.1416,-6.445317 q 7.8418,-6.445312 12.89062,-17.080078 l 9.77539,3.652344 q -5.26367,11.977539 -14.55566,19.980471 z"></path>
</svg>
