<svg xmlns="http://www.w3.org/2000/svg" id="svg1" version="1.1" height="200" width="1096">
  <defs id="defs1"></defs>
  <rect id="rect1" stroke="none" fill="none" height="200" width="1096" y="0" x="0"></rect>
  <path aria-label="釧路沖" style="font-weight:bold;font-size:110px;font-family:'BIZ UDPGothic';fill:#ff0000" id="text1" d="m 49.25293,147.31445 q 5.961914,-13.42773 5.961914,-41.7334 v -46.6748 h 10.473633 v 46.78223 q 0,20.46386 -2.363282,32.81738 -2.30957,11.87012 -8.217773,21.96777 l -9.13086,-7.51953 q 2.148438,-3.33008 2.900391,-4.88769 -17.080078,6.60644 -42.2705077,11.8164 L 2.5244141,149.67773 q 10.5273439,-1.9873 19.6044919,-3.97461 V 113.04688 H 3.4375 v -9.34571 H 22.128906 V 91.831055 H 11.977539 Q 9.453125,94.40918 6.7138672,96.879883 l -5.15625,-9.775391 Q 14.287109,75.073242 22.34375,55.952148 h 11.44043 l 0.913086,0.913086 q 10.366211,10.366211 17.563476,20.302735 l -7.250976,8.59375 v 6.069336 H 32.709961 v 11.870115 h 17.241211 v 9.34571 H 32.709961 v 30.13183 q 8.808594,-2.20215 15.898437,-4.51172 z M 43.076172,82.700195 Q 38.510742,75.932617 29.487305,65.566406 25.297852,74.375 19.49707,82.700195 Z M 9.3457031,142.10449 Q 7.6269531,130.18066 3.8671875,121.0498 l 9.7753905,-3.16894 q 4.082031,9.77539 5.424805,21.00098 z M 34.213867,135.60547 Q 37.8125,125.23926 39.53125,116.32324 l 9.453125,2.63184 q -2.685547,10.52734 -6.176758,18.85254 z M 74.282227,60.463867 H 84.379883 V 148.33496 H 74.282227 Z m 19.013671,-3.4375 H 103.87695 V 160.47363 H 93.295898 Z M 194.75586,93.764648 q 10.3125,8.056642 24.16992,13.535152 l -4.99512,9.34571 q -15.62988,-6.3916 -26.21093,-15.89844 -2.84668,2.4707 -4.94141,4.13574 -9.3457,7.19727 -22.29004,12.40723 l -5.37109,-8.91602 q 14.07226,-4.67285 25.45898,-14.770504 -5.10254,-6.069336 -8.48633,-11.547852 -4.02832,4.511719 -8.75488,8.164063 l -6.33789,-8.378907 q 12.89063,-8.862304 19.6582,-26.264648 l 10.90332,1.772461 q -1.12793,2.416992 -1.93359,4.189453 h 19.6582 l 6.33789,5.800781 q -6.60644,14.770508 -16.86523,26.425781 z m -7.46582,-6.821289 q 6.3916,-7.197265 10.95703,-15.415039 h -18.26172 q -1.66504,2.578125 -2.09473,3.168946 4.02833,6.713867 9.39942,12.246093 z M 156.51367,59.819336 v 37.275391 h -13.42773 v 16.381833 h 13.64258 v 9.66797 h -13.64258 v 18.95996 q 5.47851,-1.23535 15.30761,-4.13574 l 0.85938,9.50684 q -21.21582,7.08984 -43.88184,11.65527 l -3.38379,-10.47363 q 4.72657,-0.80567 5.3711,-0.9668 v -41.67969 h 9.66797 v 39.7461 q 2.79297,-0.53711 6.06933,-1.28907 V 97.094727 H 116.60645 V 59.819336 Z m -29.4873,9.882812 v 17.939454 h 19.38965 V 69.702148 Z m 83.30566,47.426762 v 43.34472 h -10.7959 v -5.96191 h -25.02929 v 5.96191 h -10.7959 v -43.34472 z m -35.82519,9.77539 v 17.83203 h 25.02929 V 126.9043 Z M 283.70117,75.986328 v -20.03418 h 11.54785 v 20.03418 h 29.11133 v 48.608402 h -29.11133 v 35.8789 h -11.54785 v -35.8789 H 255.18066 V 75.986328 Z m -17.40234,10.688477 v 27.338865 h 17.40234 V 86.674805 Z m 46.62109,27.338865 V 86.674805 h -17.6709 v 27.338865 z m -68.75,-31.796873 q -6.55273,-9.13086 -17.34863,-17.456055 l 8.00293,-8.164062 q 10.74219,7.573242 18.1543,16.972656 z m -3.49121,27.607423 q -9.3457,-10.849611 -18.1543,-17.778322 l 8.27149,-8.271484 q 9.39941,6.606445 18.58398,17.080076 z m -16.7041,41.62598 q 10.3125,-14.66309 19.01367,-36.52344 l 9.56055,7.3584 q -7.3584,20.1416 -17.93946,37.91992 z"></path>
</svg>
