<svg xmlns="http://www.w3.org/2000/svg" id="svg1" version="1.1" height="200" width="1096">
  <defs id="defs1"></defs>
  <rect id="rect1" stroke="none" fill="none" height="200" width="1096" y="0" x="0"></rect>
  <path aria-label="福島県会津" style="font-weight:bold;font-size:110px;font-family:'BIZ UDPGothic';fill:#ff0000" id="text1" d="m 29.970703,103.37891 q 7.143555,4.9414 13.374024,10.68847 v -4.35058 h 61.176753 v 50.75683 H 93.725586 v -4.51172 H 54.248047 v 4.51172 h -10.90332 v -45.00976 l -5.585938,8.8623 q -3.974609,-4.72656 -7.788086,-8.43262 v 44.58008 H 18.637695 v -43.98925 q -6.391601,7.19726 -11.8164059,12.24609 L 1.2353516,118.52539 Q 19.282227,102.73438 28.520508,83.881836 H 3.6523438 V 73.193359 H 18.154297 V 55.952148 h 11.44043 v 17.241211 h 8.271484 l 4.941406,5.15625 Q 37.758789,89.951172 29.970703,101.60645 Z m 24.277344,15.03906 v 9.99023 h 14.555664 v -9.99023 z m 0,18.26172 V 147.0459 H 68.803711 V 136.67969 Z M 93.725586,147.0459 V 136.67969 H 78.686523 v 10.36621 z m 0,-18.6377 v -9.99023 H 78.686523 v 9.99023 z M 99.365234,76.201172 V 103.48633 H 48.071289 V 76.201172 Z m -40.498047,8.271484 v 10.84961 H 88.24707 V 84.472656 Z M 41.733398,60.356445 H 106.0791 v 9.345703 H 41.733398 Z m 110.859372,3.759766 q 1.98731,-4.780274 3.22266,-9.130859 l 13.10547,1.77246 q -1.87988,4.458008 -3.4375,7.358399 h 35.77148 v 35.019531 h -64.88281 v 5.424808 h 80.83496 v 8.70117 h -80.83496 v 5.47851 h 77.0752 q -0.69825,24.59961 -3.11524,33.19336 -1.55762,5.47852 -5.85449,7.25098 -3.06152,1.28906 -9.3457,1.28906 -6.44532,0 -12.03125,-0.80566 l -2.14844,-9.02344 h -53.81836 v 5.96192 h -11.54785 v -25.83497 h 11.54785 v 11.06446 h 18.47656 v -14.50196 h -21.1084 V 64.116211 Z m 22.82715,77.719729 v -11.06446 h 11.11817 v 18.69141 q 4.458,0.42969 7.41211,0.42969 3.65234,0 4.56542,-2.09473 1.77247,-3.9209 2.79297,-20.46387 H 157.1582 v 14.50196 z M 136.37207,72.387695 v 5.317383 h 53.0127 v -5.317383 z m 0,12.998047 v 5.854492 h 53.0127 V 85.385742 Z M 312.16797,58.583984 V 110.62988 H 248.25195 V 58.583984 Z m -52.36817,8.486328 v 6.713868 h 40.7129 v -6.713868 z m 0,14.28711 v 6.713867 h 40.7129 v -6.713867 z m 0,14.287109 v 6.928709 h 40.7129 v -6.928709 z m -21.6455,22.128909 h 89.05273 v 9.3457 h -44.41894 v 33.35449 H 270.5957 V 127.11914 H 226.3916 V 66.855469 h 11.7627 z m -13.75,32.4414 q 12.7832,-5.9082 24.43847,-19.81933 l 9.88282,5.74707 q -11.49414,14.55566 -25.5127,22.88086 z m 92.59765,6.92871 q -8.21777,-10.09765 -24.70703,-21.21582 l 9.23828,-6.49902 q 12.94434,7.46582 25.40528,19.60449 z m 95.87403,-68.320308 v 8.808594 h -54.14063 v -6.445313 q -9.3457,6.28418 -20.35644,10.849607 L 331.4502,92.260742 Q 362.44141,80.65918 377.53418,55.952148 h 13.21289 q 12.03125,14.663086 28.62793,23.47168 7.51953,4.02832 18.79883,8.325195 l -5.74707,10.634766 Q 420.8252,93.388672 412.87598,88.823242 Z M 410.62012,87.53418 Q 396.65527,79.208984 384.46289,65.834961 375.43945,78.833008 363.78418,87.53418 Z m -30.34668,33.78418 q -6.82129,13.05176 -15.14649,23.79394 l 1.71875,-0.0537 q 22.34375,-1.07422 40.65918,-3.27636 -5.63965,-6.33789 -12.2998,-12.40723 l 10.15137,-5.85449 q 15.2539,13.37402 27.82226,29.27246 l -10.7959,7.57324 q -4.61914,-6.28418 -7.84179,-10.25879 l -1.77247,0.26856 q -28.78906,4.61914 -70.36132,7.46582 l -3.81348,-11.54785 q 4.24316,-0.10743 8.00293,-0.32227 l 5.04883,-0.21484 q 7.84179,-11.60157 13.85742,-24.43848 H 334.61914 V 110.7373 h 100.86914 v 10.58106 z m 131.21582,-13.21289 v 7.68066 h 29.27246 v 8.8086 h -29.27246 v 7.8955 h 33.67676 v 9.45313 h -33.67676 v 18.53027 h -11.54785 v -18.53027 h -30.88379 v -9.45313 h 30.88379 v -7.8955 h -26.26465 v -8.8086 h 26.26465 v -7.68066 h -23.20313 v -8.164064 h 23.20313 v -8.432617 h -32.22657 v -8.701172 h 32.22657 v -8.271484 h -22.66602 v -8.486328 h 22.66602 V 55.952148 h 11.54785 v 10.097657 h 26.85547 v 16.757812 h 9.3457 v 8.701172 h -9.3457 v 16.596681 z m 0,-8.164064 h 15.62988 v -8.432617 h -15.62988 z m 0,-17.133789 h 15.62988 v -8.271484 h -15.62988 z m -49.46778,-1.342773 q -6.71386,-9.238282 -16.05957,-17.026367 l 8.3252,-7.841797 q 10.09766,7.734375 16.43555,16.274414 z m -3.75976,27.929686 Q 450.47363,99.135742 441.9873,91.938477 l 8.27149,-8.056641 q 8.64746,6.552734 16.91894,16.704104 z m -14.39453,42.80762 q 10.3125,-16.86524 17.56347,-37.97363 l 9.39942,6.60644 q -6.71387,21.37695 -16.86524,39.37012 z"></path>
</svg>
