<svg xmlns="http://www.w3.org/2000/svg" id="svg1" version="1.1" height="200" width="990">
  <defs id="defs1"></defs>
  <rect id="rect1" stroke="none" fill="none" height="200" width="990" y="0" x="0"></rect>
  <path aria-label="有明海" style="font-size:100px;font-family:'BIZ UDPGothic';fill:#ff0000" id="text1" d="m 32.714844,96.777344 h 50.390625 v 53.613276 q 0,4.19922 -1.513672,6.00586 -1.855469,2.29493 -8.007813,2.29493 -7.8125,0 -15.08789,-0.58594 l -1.513672,-7.32422 q 9.521484,0.92773 14.84375,0.92773 2.294922,0 2.880859,-0.73242 0.488281,-0.63476 0.488281,-2.39258 v -12.06054 h -42.1875 v 22.99804 h -7.910156 v -53.56445 q -7.666015,8.1543 -18.2128904,15.03906 L 1.9042969,114.89258 Q 21.777344,102.92969 31.689453,83.984375 H 3.515625 V 77.392578 H 34.814453 Q 37.695312,70.3125 39.306641,64.306641 l 8.203125,0.976562 q -1.611329,6.005859 -4.150391,12.109375 h 53.222656 v 6.591797 h -56.25 q -4.15039,8.105469 -7.617187,12.792969 z m 0.292968,6.494136 v 9.91211 h 42.1875 v -9.91211 z m 0,16.11329 v 10.9375 h 42.1875 v -10.9375 z M 158.1543,123.7793 q -0.63477,10.88867 -3.90625,18.75 -3.71094,8.98437 -13.37891,17.08984 l -5.76172,-5.71289 q 6.88477,-5.32227 10.30274,-11.66992 5.27343,-9.76563 5.27343,-26.17188 V 68.701172 h 41.11328 v 81.396488 q 0,3.95507 -1.61132,5.9082 -2.00196,2.49023 -7.61719,2.49023 -4.15039,0 -13.67188,-0.68359 L 167.48047,150 q 7.71484,1.12305 13.03711,1.12305 2.68554,0 3.17383,-1.46485 0.29296,-0.83008 0.29296,-2.4414 v -23.4375 z m 0.24414,-6.5918 h 25.58593 V 99.267578 h -25.58593 v 16.210942 q 0,1.2207 0,1.70898 z m 0,-24.511719 h 25.58593 V 75.585937 H 158.39844 Z M 141.11328,69.091797 V 136.2793 h -26.31836 v 9.52148 h -7.71484 V 69.091797 Z m -26.31836,6.787109 v 22.705078 h 18.79883 V 75.878906 Z m 0,29.199224 v 24.3164 h 18.79883 v -24.3164 z M 238.08594,90.820312 h 49.90234 q 0,2.636719 -0.68359,22.998048 h 10.20508 v 6.5918 h -10.44922 q -0.19532,6.25 -0.87891,17.91992 h 9.7168 v 6.49414 h -10.20508 q -0.63477,7.27539 -1.70899,9.66797 -2.14843,5.02929 -10.49804,5.02929 -4.73633,0 -11.08399,-0.78125 l -1.41601,-6.83593 q 7.32422,1.02539 12.06054,1.02539 2.73438,0 3.61329,-1.22071 0.78125,-1.12304 1.31836,-6.10351 l 0.0488,-0.78125 h -39.01367 l -0.14648,0.78125 -0.14649,0.68359 -0.83008,4.73633 -7.4707,-0.87891 q 2.63672,-14.50195 4.44336,-29.73632 h -9.76562 v -6.5918 h 10.54687 q 1.46484,-12.69531 2.44141,-22.998048 z m 27.58789,6.396485 q -0.19531,3.417973 -0.73242,11.572263 l -0.29297,5.0293 h 15.33203 q 0.0976,-2.09961 0.24414,-5.46875 0.0488,-0.87891 0.19531,-5.56641 0,-1.85547 0.14649,-5.566403 z m -7.12891,0 h -13.81836 q -0.43945,5.957033 -1.51367,16.601563 h 14.0625 q 0.29297,-3.71094 0.43945,-5.56641 0.3418,-3.61328 0.83008,-11.035153 z m -1.80664,23.193363 h -14.25781 q -0.78125,6.64062 -1.95313,14.59961 l -0.48828,3.32031 h 14.79492 l 0.29297,-2.2461 q 1.17188,-9.76562 1.61133,-15.67382 z m 7.32422,0 -0.48828,5.12695 q -0.83008,8.78906 -1.31836,12.79297 h 16.40625 q 0.48828,-6.34766 0.73242,-12.30469 l 0.29297,-5.61523 z M 244.9707,73.779297 h 48.92578 v 6.689453 h -52.00195 q -4.00391,7.958984 -9.91211,14.941406 l -5.37109,-5.224609 q 9.47265,-10.546875 14.01367,-25.78125 l 7.4707,0.78125 q -1.5625,4.833984 -3.125,8.59375 z m -24.75586,12.5 q -6.44531,-8.447266 -14.40429,-15.38086 l 5.27343,-5.078125 q 7.51954,5.810547 14.69727,14.697266 z m -3.51562,25.732423 Q 209.0332,102.68555 201.9043,96.679687 l 5.41992,-5.371093 q 8.39844,6.787109 15.08789,14.794926 z m -12.69531,41.06445 q 8.88671,-12.64648 16.21093,-31.98242 l 6.39649,4.6875 q -7.37305,19.92187 -16.3086,33.00781 z"></path>
</svg>
