<svg xmlns="http://www.w3.org/2000/svg" id="svg1" version="1.1" height="200" width="1096">
  <defs id="defs1"></defs>
  <rect id="rect1" stroke="none" fill="none" height="200" width="1096" y="0" x="0"></rect>
  <path aria-label="カムチャツカ半島付近" style="font-weight:bold;font-size:110px;font-family:'BIZ UDPGothic';fill:#ff0000" id="text1" d="M 8.59375,80.014648 H 41.357422 Q 41.787109,68.09082 41.787109,58.691406 H 54.248047 Q 54.140625,70.9375 53.657227,80.014648 h 39.53125 q -0.322266,38.081052 -3.115235,58.383792 -1.235351,9.23828 -4.995117,12.67578 -3.920898,3.54492 -13.481445,3.54492 -6.928711,0 -14.716797,-1.12793 l -1.987305,-12.08496 q 9.291992,1.66504 15.200195,1.66504 4.082032,0 5.317383,-1.23535 1.396485,-1.34278 2.309571,-8.37891 2.631835,-20.83984 2.792968,-42.431639 H 53.120117 q -2.041015,22.128909 -9.399414,35.449219 -9.560547,17.24121 -28.735351,28.14453 l -8.1640629,-9.56055 q 12.0312499,-6.60644 20.5175779,-16.59668 6.391602,-7.51953 9.453125,-17.02636 2.954102,-8.96973 4.02832,-20.410159 H 8.59375 Z m 99.74121,57.202152 q 3.70606,-0.0537 10.20508,-0.53711 15.30762,-34.375 28.19824,-75.678713 l 12.29981,3.222656 q -12.67579,39.638667 -27.07032,71.596677 27.28516,-1.9873 48.39356,-4.83398 -7.94922,-14.01856 -16.16699,-25.88867 l 10.58105,-6.713871 q 16.91895,23.310551 29.70215,49.414061 l -12.08496,6.28418 q -2.9541,-6.23047 -6.49903,-12.99805 -31.36718,5.26368 -74.92675,9.34571 z M 254.64355,97.84668 V 77.167969 q -13.64257,1.71875 -30.61523,2.416992 L 220.53711,69.21875 q 42.70019,-1.987305 66.44043,-9.775391 l 7.03613,9.775391 q -11.97754,3.706055 -27.28515,6.176758 V 97.84668 h 41.03515 v 11.01074 h -41.25 q -1.12793,17.34863 -8.32519,27.9834 -9.13086,13.53516 -25.88868,20.51758 l -7.78808,-9.99024 q 16.81152,-6.875 23.79394,-18.10058 5.04883,-8.11035 6.01563,-20.41016 H 211.51367 V 97.84668 Z m 93.34961,-21.860352 3.33008,18.261719 39.58496,-6.391602 6.82129,5.048828 q -6.12304,25.297857 -21.48437,39.584957 l -8.75489,-7.03613 q 6.875,-5.58594 11.60157,-13.42773 3.75976,-6.17676 5.20996,-12.299808 l -31.15235,5.156248 8.91602,50.16602 -11.01074,1.9873 -9.13086,-50.38086 -22.39746,3.75977 -1.55762,-10.903321 22.02148,-3.544922 -3.33007,-18.100586 z m 75.46387,32.548832 Q 418.4082,87.749023 411.58691,72.763672 L 422.8125,67.5 q 7.51953,16.05957 12.51465,36.52344 z m 29.70215,-5.63965 Q 448.80859,84.472656 441.82617,67.177734 l 11.44043,-4.61914 q 6.76758,14.985351 11.65527,35.825195 z m -19.22852,41.57226 q 19.71192,-5.80078 30.72266,-15.20019 8.64746,-7.30469 13.58887,-17.77832 7.89551,-16.596682 11.01074,-47.856448 l 12.2998,3.4375 q -3.11523,25.512696 -8.00293,39.960938 -6.82128,20.19531 -21.37695,32.01172 -12.24609,9.93652 -31.4209,15.89844 z m 83.9502,-64.453122 h 32.76367 q 0.42969,-11.923828 0.42969,-21.323242 h 12.46094 q -0.10743,12.246094 -0.59082,21.323242 h 39.53125 q -0.32227,38.081052 -3.11524,58.383792 -1.23535,9.23828 -4.99512,12.67578 -3.92089,3.54492 -13.48144,3.54492 -6.92871,0 -14.7168,-1.12793 l -1.9873,-12.08496 q 9.29199,1.66504 15.20019,1.66504 4.08203,0 5.31739,-1.23535 1.39648,-1.34278 2.30957,-8.37891 2.63183,-20.83984 2.79296,-42.431639 h -27.39257 q -2.04102,22.128909 -9.39942,35.449219 -9.56054,17.24121 -28.73535,28.14453 l -8.16406,-9.56055 q 12.03125,-6.60644 20.51758,-16.59668 6.3916,-7.51953 9.45312,-17.02636 2.9541,-8.96973 4.02832,-20.410159 H 517.88086 Z M 663.49121,93.442383 V 55.952148 h 12.08496 v 37.490235 h 40.92774 v 10.688477 h -40.92774 v 15.25391 h 46.56738 v 10.90332 h -46.56738 v 30.18554 h -12.08496 v -30.18554 h -45.86914 v -10.90332 h 45.86914 V 104.13086 H 623.31543 V 93.442383 Z M 639.96582,89.951172 Q 633.30566,75.180664 626.00098,65.405273 l 11.22558,-5.478515 q 8.27149,11.386719 14.50196,24.599609 z m 47.1582,-4.189453 q 8.48633,-12.890625 13.53516,-27.070313 l 12.56836,4.941406 q -6.06934,13.320313 -15.30762,26.748047 z m 80.35157,-21.645508 q 1.9873,-4.780274 3.22265,-9.130859 l 13.10547,1.77246 q -1.87988,4.458008 -3.4375,7.358399 h 35.77149 v 35.019531 h -64.88282 v 5.424808 h 80.83496 v 8.70117 h -80.83496 v 5.47851 h 77.0752 q -0.69824,24.59961 -3.11524,33.19336 -1.55761,5.47852 -5.85449,7.25098 -3.06152,1.28906 -9.3457,1.28906 -6.44531,0 -12.03125,-0.80566 l -2.14844,-9.02344 H 742.0166 v 5.96192 h -11.54785 v -25.83497 h 11.54785 v 11.06446 h 18.47656 V 127.33398 H 739.38477 V 64.116211 Z m 22.82714,77.719729 v -11.06446 h 11.11817 v 18.69141 q 4.45801,0.42969 7.41211,0.42969 3.65234,0 4.56543,-2.09473 1.77246,-3.9209 2.79297,-20.46387 h -44.15039 v 14.50196 z M 751.25488,72.387695 v 5.317383 h 53.0127 v -5.317383 z m 0,12.998047 v 5.854492 h 53.0127 v -5.854492 z m 113.54492,0.59082 V 160.47363 H 853.14453 V 105.3125 q -4.35058,6.12305 -10.09766,12.67578 l -6.06933,-11.54785 q 10.90332,-12.084961 18.69141,-28.144532 4.72656,-9.721679 9.45312,-23.203125 l 11.22559,3.061524 q -4.8877,14.716797 -11.54786,27.822265 z M 925.97656,81.25 h 16.16699 v 10.795898 h -16.16699 v 56.396482 q 0,7.08985 -3.4375,9.45313 -2.52441,1.77246 -9.50683,1.77246 -8.54004,0 -17.50977,-0.9668 l -2.30957,-11.76269 q 9.56055,1.39648 17.83203,1.39648 2.25586,0 2.73926,-0.9668 0.32227,-0.69824 0.32227,-2.30957 V 92.045898 H 870.1709 V 81.25 h 43.93555 V 57.832031 h 11.87011 z m -33.99902,52.0459 q -6.06934,-16.16699 -14.98535,-29.48731 l 10.25879,-5.96191 q 9.66797,14.2334 15.52246,29.16504 z m 83.25195,2.73926 q 4.29688,4.99511 9.66797,7.41211 8.80859,3.9746 23.09574,3.9746 h 45.7617 q -1.9336,3.65235 -3.5986,10.47364 h -42.7002 q -18.47661,0 -28.30571,-5.80078 -4.02832,-2.417 -8.8623,-7.89551 -0.37598,0.42969 -0.91309,1.07422 -7.89551,9.3457 -15.68359,15.2539 l -6.49903,-11.01074 q 8.54004,-5.10254 16.48926,-11.54785 v -26.5332 h -15.62988 v -10.58106 h 27.17773 z m 13.96485,-71.274418 2.84668,-0.214844 q 24.86818,-1.71875 44.68748,-7.358398 l 8.3789,9.453125 q -20.8398,5.478516 -44.4726,7.412109 v 13.911133 h 49.7363 V 98.4375 h -18.0469 v 43.77441 h -11.8701 V 98.4375 h -19.8193 q -0.2686,17.24121 -2.57816,27.44629 -2.09473,9.39941 -6.875,16.86523 l -9.88281,-7.46582 q 5.31738,-8.27148 6.82129,-20.51757 1.07422,-8.43262 1.07422,-22.934575 z M 969.32129,85.761719 Q 961.10352,74.160156 951.59668,64.975586 l 8.80859,-7.036133 q 9.23828,7.734375 18.58399,19.658203 z"></path>
</svg>
