<svg xmlns="http://www.w3.org/2000/svg" id="svg1" version="1.1" height="200" width="990">
  <defs id="defs1"></defs>
  <rect id="rect1" stroke="none" fill="none" height="200" width="990" y="0" x="0"></rect>
  <path aria-label="黄海" style="font-size:100px;font-family:'BIZ UDPGothic';fill:#ff0000" id="text1" d="m 53.369141,97.509766 v 7.470704 H 85.9375 v 36.03515 H 14.013672 V 104.98047 H 45.849609 V 97.509766 H 2.4902344 V 91.210937 H 28.564453 V 80.810547 H 8.4960938 V 74.609375 H 28.564453 V 64.501953 h 7.714844 V 74.609375 H 62.744141 V 64.501953 h 7.763671 v 10.107422 h 20.947266 v 6.201172 H 70.507812 v 10.40039 h 26.953125 v 6.298829 z M 45.849609,110.98633 H 21.679687 v 8.6914 h 24.169922 z m 7.519532,0 v 8.6914 h 24.804687 v -8.6914 z m -7.519532,14.50195 H 21.679687 v 9.52149 h 24.169922 z m 7.519532,0 v 9.52149 h 24.804687 v -9.52149 z m 9.375,-44.677733 H 36.279297 v 10.40039 H 62.744141 Z M 3.1738281,153.90625 Q 20.458984,149.60937 33.154297,141.60156 l 6.103515,4.58985 q -14.160156,9.375 -31.0058589,13.91601 z m 87.2070309,5.71289 Q 75.341797,152.09961 59.472656,146.48437 l 5.712891,-4.88281 q 14.794922,4.49219 31.201172,12.20703 z M 138.08594,90.820312 h 49.90234 q 0,2.636719 -0.68359,22.998048 h 10.20508 v 6.5918 h -10.44922 q -0.19532,6.25 -0.87891,17.91992 h 9.7168 v 6.49414 h -10.20508 q -0.63477,7.27539 -1.70899,9.66797 -2.14843,5.02929 -10.49804,5.02929 -4.73633,0 -11.08399,-0.78125 l -1.41601,-6.83593 q 7.32422,1.02539 12.06054,1.02539 2.73438,0 3.61329,-1.22071 0.78125,-1.12304 1.31836,-6.10351 l 0.0488,-0.78125 h -39.01367 l -0.14648,0.78125 -0.14649,0.68359 -0.83008,4.73633 -7.4707,-0.87891 q 2.63672,-14.50195 4.44336,-29.73632 h -9.76562 v -6.5918 h 10.54687 q 1.46484,-12.69531 2.44141,-22.998048 z m 27.58789,6.396485 q -0.19531,3.417973 -0.73242,11.572263 l -0.29297,5.0293 h 15.33203 q 0.0977,-2.09961 0.24414,-5.46875 0.0488,-0.87891 0.19531,-5.56641 0,-1.85547 0.14649,-5.566403 z m -7.12891,0 h -13.81836 q -0.43945,5.957033 -1.51367,16.601563 h 14.0625 q 0.29297,-3.71094 0.43945,-5.56641 0.3418,-3.61328 0.83008,-11.035153 z m -1.80664,23.193363 h -14.25781 q -0.78125,6.64062 -1.95313,14.59961 l -0.48828,3.32031 h 14.79492 l 0.29297,-2.2461 q 1.17188,-9.76562 1.61133,-15.67382 z m 7.32422,0 -0.48828,5.12695 q -0.83008,8.78906 -1.31836,12.79297 h 16.40625 q 0.48828,-6.34766 0.73242,-12.30469 l 0.29297,-5.61523 z M 144.9707,73.779297 h 48.92578 v 6.689453 h -52.00195 q -4.00391,7.958984 -9.91211,14.941406 l -5.37109,-5.224609 q 9.47265,-10.546875 14.01367,-25.78125 l 7.4707,0.78125 q -1.5625,4.833984 -3.125,8.59375 z m -24.75586,12.5 q -6.44531,-8.447266 -14.40429,-15.38086 l 5.27343,-5.078125 q 7.51954,5.810547 14.69727,14.697266 z m -3.51562,25.732423 Q 109.0332,102.68555 101.9043,96.679687 l 5.41992,-5.371093 q 8.39844,6.787109 15.08789,14.794926 z m -12.69531,41.06445 q 8.88672,-12.64648 16.21093,-31.98242 l 6.39649,4.6875 q -7.37305,19.92187 -16.3086,33.00781 z"></path>
</svg>
