<svg xmlns="http://www.w3.org/2000/svg" id="svg1" version="1.1" height="200" width="990">
  <defs id="defs1"></defs>
  <rect id="rect1" stroke="none" fill="none" height="200" width="990" y="0" x="0"></rect>
  <path aria-label="ニュージーランド付近" style="font-size:100px;font-family:'BIZ UDPGothic';fill:#ff0000" id="text1" d="m 13.330078,81.689453 h 65.380859 v 7.519531 H 13.330078 Z M 3.6132813,137.89062 H 88.427734 v 7.51954 H 3.6132813 Z M 107.86133,91.894531 h 46.14258 q -1.41602,23.046879 -5.41993,51.806639 h 18.79883 v 6.78711 H 98.583984 v -6.78711 h 42.480466 q 3.90625,-27.63672 4.93164,-45.117186 h -38.13476 z m 73.73047,14.404299 h 84.27734 v 7.71484 H 181.5918 Z M 313.76953,88.28125 q -12.1582,-5.664063 -26.70898,-9.863281 l 2.49023,-7.03125 q 15.03906,3.662109 26.80664,9.521484 z m -10.30273,24.90234 q -10.64453,-4.73632 -26.51368,-9.86328 l 2.97852,-7.324216 q 14.59961,4.052736 26.51367,9.814456 z m -20.11719,30.71289 q 20.06836,-1.70898 31.15234,-6.10351 14.20899,-5.61524 23.24219,-17.96875 8.54492,-11.62109 11.81641,-27.832033 l 7.17773,4.296875 q -6.29883,27.099608 -23.73047,40.478518 -11.23047,8.64258 -27.83203,12.25586 -8.05664,1.80664 -19.53125,2.7832 z m 57.71484,-57.080074 q -3.125,-7.8125 -8.78906,-16.015625 l 5.95703,-2.294922 q 5.61524,7.910157 8.83789,15.917969 z m 12.89063,-3.710937 q -3.66211,-8.984375 -8.69141,-16.015625 l 5.81055,-2.09961 q 5.12695,6.640625 8.78906,15.625 z m 18.65234,23.193361 h 84.27735 v 7.71484 H 372.60742 Z M 476.66016,73.095703 h 61.8164 v 7.080078 h -61.8164 z m -6.98243,23.681641 h 78.07618 q -2.14844,21.435546 -9.7168,33.349606 -6.73828,10.54688 -18.79883,16.3086 -10.88867,5.17578 -27.14844,7.71484 l -3.61328,-7.17773 q 23.82813,-3.02735 35.10742,-12.74414 12.10938,-10.44922 14.50196,-30.3711 h -68.40821 z m 125.43946,-3.613282 q -13.96485,-6.347656 -29.6875,-10.15625 l 2.58789,-7.617187 q 18.79883,4.492187 29.93164,10.107422 z m -28.90625,50.341798 q 19.72656,-1.75781 31.05468,-6.00586 29.34571,-10.98633 36.9629,-50.585938 l 6.7871,4.882813 q -4.54101,21.484375 -14.16015,34.082035 -10.54688,13.86718 -28.8086,20.06836 -11.27929,3.80859 -29.83398,5.85937 z m 96.82617,-74.609376 h 8.20312 v 28.222657 q 30.41993,9.472659 47.90039,18.359379 l -4.10156,7.32421 q -19.58008,-9.86328 -43.79883,-17.82226 v 49.51172 h -8.20312 z m 41.21094,24.707032 q -3.22266,-8.203125 -8.69141,-16.308594 l 5.85938,-2.392578 q 5.66406,7.861328 8.93554,16.308593 z m 12.59765,-3.90625 q -3.56445,-9.082032 -8.6914,-16.40625 l 5.76172,-2.09961 q 5.12695,6.738281 8.83789,15.820313 z m 39.64844,0.488281 v 69.335933 h -7.71484 v -55.37109 q -0.19532,0.29297 -0.48828,0.73242 -4.39454,7.17774 -10.88868,14.69727 l -4.10156,-7.37305 q 9.76563,-11.32812 16.35742,-25.195311 4.73633,-9.91211 8.83789,-22.900391 l 7.61719,2.099609 q -4.49219,13.427735 -9.61914,23.97461 z m 55.22461,-2.001953 h 16.60156 v 7.177734 h -16.60156 v 54.541012 q 0,5.17578 -2.49023,7.17774 -2.09961,1.61133 -7.76368,1.61133 -7.91015,0 -14.74609,-0.6836 L 785.10742,150 q 8.44727,1.2207 15.625,1.2207 2.14844,0 2.68555,-0.78125 0.39062,-0.63476 0.39062,-2.4414 V 95.361328 h -42.72461 v -7.177734 h 42.72461 V 65.283203 h 7.91016 z m -28.41797,45.410156 q -5.71289,-14.30664 -13.81836,-26.07422 l 6.49414,-4.19922 q 8.39844,12.35352 14.20899,25.87891 z m 74.21875,4.73633 q 4.29688,4.44336 9.81445,7.22656 8.59375,4.3457 23.58399,4.3457 h 38.3789 q -1.41601,2.88086 -2.49023,6.88477 h -36.08398 q -16.35743,0 -25.63477,-4.58984 -5.56641,-2.78321 -10.74219,-8.20313 -8.34961,9.57031 -16.25976,15.47852 l -4.58985,-7.08008 q 7.95899,-4.98047 16.40625,-12.5 v -25.6836 h -16.21093 v -6.7871 h 23.82812 z m 14.45313,-64.11133 q 1.70898,-0.146484 3.71093,-0.292969 21.92383,-1.80664 39.99024,-7.617187 l 5.61523,6.103515 q -17.91992,5.371094 -41.60156,7.763672 v 14.941406 h 47.41211 v 6.884763 h -17.91992 v 43.40821 h -7.8125 V 102.00195 H 879.6875 q 0,13.52539 -1.17188,22.07032 -1.5625,11.4746 -6.83593,20.21484 l -6.49414,-5.17578 q 4.78515,-8.30078 6.00586,-19.33594 0.78125,-7.27539 0.78125,-20.654296 z m -18.35938,14.697266 q -7.51953,-9.960938 -15.52734,-17.138672 l 5.51758,-4.6875 q 8.20312,6.689453 15.96679,16.308593 z"></path>
</svg>
