<svg xmlns="http://www.w3.org/2000/svg" id="svg1" version="1.1" height="200" width="1096">
  <defs id="defs1"></defs>
  <rect id="rect1" stroke="none" fill="none" height="200" width="1096" y="0" x="0"></rect>
  <path aria-label="遠地" style="font-weight:bold;font-size:110px;font-family:'BIZ UDPGothic';fill:#ff0000" id="text1" d="m 90.341797,128.03223 0.751953,0.37597 q 5.585937,2.57813 12.08496,6.06934 l -7.036132,8.37891 q -11.44043,-6.875 -23.632812,-12.89063 v 16.16699 H 61.28418 v -21.69922 q -10.205078,8.05664 -23.041993,13.42774 l -6.92871,-8.00293 q 16.65039,-6.12305 29.755859,-15.62988 H 39.584961 V 91.831055 h 55.698242 v 22.397465 h -0.429687 l 6.713864,4.29687 q -5.693357,5.31738 -11.225583,9.50684 z m -9.13086,-3.97461 q 0.644532,-0.53711 1.826172,-1.61133 4.135743,-3.75977 7.895508,-8.21777 H 75.087891 q -0.698243,0.59082 -1.933594,1.61132 l -0.644531,0.53711 v 4.4043 q 3.276367,1.12793 8.701171,3.27637 z M 50.595703,99.189453 v 7.788087 H 84.165039 V 99.189453 Z M 27.714844,136.84082 q 4.189453,4.4043 9.560547,7.03613 3.652343,1.77246 10.527343,3.00782 6.982422,1.18164 14.125977,1.18164 h 47.050779 q -2.04101,3.92089 -3.49121,10.20507 H 61.606445 q -18.154297,0 -27.607422,-4.78027 -5.585937,-2.84668 -10.688476,-8.37891 -7.573242,9.50684 -15.3076173,15.6836 L 1.9873047,149.94629 Q 8.9160156,145.5957 16.489258,139.25781 V 111.43555 H 2.7392578 V 100.85449 H 27.714844 Z M 61.28418,63.310547 v -7.358399 h 11.225586 v 7.358399 h 26.264648 v 8.164062 H 72.509766 v 6.123047 h 32.119144 v 8.59375 H 31.367187 v -8.59375 H 61.28418 V 71.474609 H 37.382812 V 63.310547 Z M 20.678711,84.526367 Q 13.535156,72.226562 4.7265625,63.095703 L 13.642578,56.59668 q 8.325195,8.110351 16.381836,20.463867 z M 166.28906,99.458008 v 42.539062 q 0,4.13574 3.54492,4.99512 3.65235,0.91308 16.70411,0.91308 12.72949,0 16.81152,-1.28906 2.30957,-0.75195 3.00781,-4.18945 0.91309,-4.83399 0.9668,-11.44043 l 11.22558,3.16894 Q 217.69043,150 214.19922,154.4043 q -2.30957,2.90039 -6.98242,3.4375 -7.3584,0.80566 -24.97559,0.80566 -13.64258,0 -17.88574,-0.75195 -6.3916,-1.07422 -8.11035,-5.63965 -0.85938,-2.41699 -0.85938,-6.44531 v -42.59278 l -10.25879,3.54493 -2.52441,-10.419927 12.7832,-4.404296 V 62.988281 h 10.90332 v 25.19043 l 11.54785,-3.920899 V 55.952148 h 10.7959 v 24.545899 l 17.99317,-6.176758 5.63964,3.4375 v 40.229491 q 0,4.18945 -1.9873,6.23047 -2.25586,2.25586 -7.57324,2.25586 -4.35059,0 -9.23828,-0.75195 l -1.77246,-10.25879 q 3.16894,0.80566 6.44531,0.80566 2.36328,0 2.90039,-0.9668 0.53711,-0.80566 0.53711,-2.68554 V 87.211914 l -12.94434,4.511719 v 43.452147 h -10.7959 V 95.429687 Z M 126.81152,81.894531 V 55.952148 h 11.54785 v 25.942383 h 10.41993 v 10.903321 h -10.41993 v 34.160158 q 5.63965,-1.9336 11.17188,-4.02832 l 1.02051,10.36621 q -17.40235,7.94922 -35.71778,13.32031 l -3.75976,-11.44043 q 8.27148,-2.14844 14.50195,-4.08203 0.75196,-0.26855 1.23535,-0.37598 V 92.797852 H 113.16895 V 81.894531 Z"></path>
</svg>
