<svg xmlns="http://www.w3.org/2000/svg" id="svg1" version="1.1" height="200" width="990">
  <defs id="defs1"></defs>
  <rect id="rect1" stroke="none" fill="none" height="200" width="990" y="0" x="0"></rect>
  <path aria-label="東京湾" style="font-size:100px;font-family:'BIZ UDPGothic';fill:#ff0000" id="text1" d="m 61.328125,126.61133 q 14.013672,12.84179 36.767578,20.50781 l -4.736328,6.98242 Q 82.8125,150.14648 75.048828,145.55664 62.939453,138.33008 53.515625,127.49023 v 32.03125 h -7.714844 v -31.83593 q -5.761719,7.51953 -14.30664,14.20898 -10.888672,8.49609 -24.3164066,13.81836 L 2.3925781,149.41406 Q 24.365234,141.40625 38.183594,126.61133 H 11.572266 V 87.792969 H 45.800781 V 79.785156 H 4.0527344 V 73.193359 H 45.800781 v -8.691406 h 7.714844 v 8.691406 h 42.382812 v 6.591797 H 53.515625 v 8.007813 H 88.28125 V 126.61133 Z M 45.800781,94.091797 H 19.384766 v 9.814453 h 26.416015 z m 7.714844,0 v 9.814453 H 80.566406 V 94.091797 Z M 45.800781,110.00977 H 19.384766 v 10.30273 h 26.416015 z m 7.714844,0 V 120.3125 H 80.566406 V 110.00977 Z M 153.61328,75.78125 h 41.79688 v 6.787109 H 104.58984 V 75.78125 h 41.11328 V 64.501953 h 7.91016 z m 30.9082,16.015625 v 31.005855 h -29.88281 v 29.49219 q 0,3.4668 -1.61133,5.17578 -1.85547,1.95313 -6.64062,1.95313 -7.22656,0 -14.16016,-0.63477 l -1.61133,-7.27539 q 7.27539,0.87891 12.8418,0.87891 2.09961,0 2.73438,-0.58594 0.53711,-0.53711 0.53711,-1.9043 V 122.80273 H 115.42969 V 91.796875 Z m -60.98632,6.591797 v 17.822268 h 52.88086 V 98.388672 Z m -20.11719,51.416018 q 12.74414,-8.98438 20.01953,-22.31446 l 6.98242,3.61329 q -8.30078,14.89257 -21.28906,24.60937 z m 85.98633,4.6875 q -10.20508,-13.67188 -21.09375,-23.68164 l 5.9082,-4.49219 q 10.74219,9.57031 21.58203,22.80273 z m 75.68359,-80.908206 h 32.12891 v 6.298828 h -23.38868 v 19.189454 q 0,3.076174 -1.5625,4.492184 -1.5625,1.41602 -5.66406,1.41602 -5.02929,0 -8.49609,-0.48828 l -1.12305,-6.298831 q 4.39453,0.683594 7.4707,0.683594 1.61133,0 1.9043,-1.171875 0.14649,-0.537109 0.14649,-1.416016 v -16.40625 h -10.64454 q -0.43945,9.91211 -2.24609,14.794922 -2.63672,6.982426 -12.01172,11.914066 l -5.07812,-4.83399 q 8.49609,-4.052732 10.69336,-10.058591 1.46484,-4.003907 1.61132,-11.816407 h -21.82617 v -6.298828 h 30.32227 v -9.082031 h 7.76367 z m 24.60938,35.009766 v 18.79883 h -49.60938 q -0.53711,3.90625 -1.31836,7.32422 h 55.32227 q -0.97657,12.30468 -3.41797,18.01757 -1.66016,3.95508 -5.95703,5.56641 -3.32032,1.2207 -9.22852,1.2207 -7.91016,0 -15.86914,-0.78125 l -1.70898,-7.03125 q 10.69336,1.12305 17.48046,1.12305 4.19922,0 5.66407,-0.97656 2.58789,-1.70899 4.15039,-11.03516 h -47.94922 q -0.73242,2.68555 -1.66016,5.71289 l -7.71484,-1.80664 q 2.92969,-8.64258 5.32226,-23.24218 h 48.68165 v -6.98243 h -52.39258 v -5.9082 z M 219.18945,86.083984 q -6.29883,-8.349609 -13.96484,-15.08789 l 5.37109,-4.980469 q 7.37305,5.810547 14.20899,14.501953 z m -3.07617,25.439456 q -7.4707,-9.13086 -14.50195,-15.136721 l 5.32226,-5.273438 q 7.56836,6.103516 14.79493,14.501949 z m -12.30469,41.69922 q 8.4961,-12.74414 15.91797,-33.39844 l 6.00586,4.39453 q -6.39648,19.28711 -15.42969,34.66797 z m 87.89063,-50.14649 Q 284.86328,93.261719 276.9043,85.791016 l 5.32226,-3.90625 q 9.08203,7.666015 15.28321,16.699218 z m -69.28711,-4.589842 q 8.44726,-6.054687 13.62305,-15.478516 l 6.29882,2.587891 q -5.22461,10.546875 -14.50195,17.480467 z"></path>
</svg>
