<svg xmlns="http://www.w3.org/2000/svg" id="svg1" version="1.1" height="200" width="990">
  <defs id="defs1"></defs>
  <rect id="rect1" stroke="none" fill="none" height="200" width="990" y="0" x="0"></rect>
  <path aria-label="択捉島南東沖" style="font-size:100px;font-family:'BIZ UDPGothic';fill:#ff0000" id="text1" d="m 71.191406,109.57031 q 2.148438,11.32813 6.738281,20.36133 6.689454,13.23242 19.873047,22.36328 L 92.626953,159.375 Q 80.419922,150.04883 73.4375,137.74414 66.699219,125.83008 63.671875,109.57031 H 49.072266 q -0.244141,12.35352 -2.148438,22.2168 -3.027344,15.82031 -12.109375,28.07617 l -5.419922,-6.20117 q 7.080078,-9.66797 9.814453,-23.04688 2.197266,-10.64453 2.197266,-24.75585 V 69.287109 H 90.722656 V 109.57031 Z M 83.007812,76.074219 H 49.121094 V 102.68555 H 83.007812 Z M 16.796875,83.789062 V 64.501953 h 7.617187 v 19.287109 h 10.888672 v 7.080079 H 24.414062 v 18.994139 q 5.615235,-1.95312 10.888672,-4.10156 l 0.830078,6.83594 q -5.761718,2.4414 -11.71875,4.6875 v 34.42382 q 0,4.24805 -2.001953,5.95704 -1.904297,1.61132 -6.152343,1.61132 -4.931641,0 -9.5703129,-0.78125 l -1.2695312,-7.61718 q 5.0781251,0.92773 8.7890621,0.92773 1.904297,0 2.34375,-0.92773 0.244141,-0.58594 0.244141,-1.66016 V 120.01953 Q 12.5,121.58203 4.1015625,123.97461 l -2.1972656,-7.37305 q 8.9355471,-2.4414 14.8925781,-4.29687 V 90.869141 H 2.6855469 V 83.789062 Z M 169.0918,148.0957 q 4.49218,0.97657 9.22851,0.97657 h 20.11719 q -1.46484,3.22265 -2.19727,7.42187 h -18.0664 q -15.18555,0 -24.31641,-8.05664 -4.83398,-4.24805 -8.44726,-11.32813 -3.56446,12.5 -10.15625,21.875 l -5.66407,-5.41992 q 10.25391,-15.13672 13.28125,-40.96679 L 150,114.11133 q -1.07422,7.61719 -2.39258,14.0625 4.29688,11.86523 14.0625,17.1875 V 104.58984 H 140.38086 V 69.824219 h 50.3418 V 104.58984 H 169.0918 v 15.23438 h 23.92578 v 6.78711 H 169.0918 Z M 147.90039,76.416016 v 21.484375 h 35.30273 V 76.416016 Z m -30.81055,7.373046 V 64.501953 h 7.51954 v 19.287109 h 10.88867 v 7.080079 h -10.88867 v 18.701169 q 5.51757,-1.90429 10.49804,-3.90625 l 0.92774,6.73828 q -5.17579,2.19727 -11.42578,4.58985 v 34.81445 q 0,4.19922 -1.9043,5.9082 -1.80664,1.61133 -5.95703,1.61133 -4.34571,0 -9.86328,-0.73242 l -1.26954,-7.71484 q 5.27344,0.92773 8.98438,0.92773 1.75781,0 2.19727,-0.83008 0.29296,-0.63476 0.29296,-1.85547 v -29.39453 q -0.48828,0.19532 -1.26953,0.43946 -4.54101,1.61132 -11.52343,3.71093 l -2.39258,-7.51953 q 7.37304,-1.95312 13.13476,-3.71094 l 2.05078,-0.63476 V 90.869141 H 102.7832 v -7.080079 z m 150.92774,65.429688 h -53.8086 v 5.71289 h -7.71484 v -23.0957 h 7.71484 v 11.18164 h 19.0918 v -14.69727 h -19.0918 V 73.291016 h 23.97461 q 3.36914,-4.931641 5.41993,-9.179688 l 8.6914,2.001953 q -2.39258,3.515625 -5.46875,7.177735 h 35.25391 v 30.517574 h -59.96094 v 6.00586 h 75.3418 v 6.10352 h -75.3418 v 6.29883 h 70.94727 q -0.73243,23.87695 -3.32032,30.71289 -1.5625,4.19922 -5.51757,5.66406 -2.5879,0.92773 -6.83594,0.92773 -6.15235,0 -11.76758,-0.8789 l -1.61133,-7.22656 q 6.73828,1.02539 12.10938,1.02539 4.24804,0 5.37109,-1.95313 2.24609,-3.90625 3.36914,-22.16797 h -43.94531 v 14.69727 h 19.58008 v -11.18164 h 7.51953 z M 222.11914,79.296875 v 6.298828 h 52.09961 v -6.298828 z m 0,12.011719 v 6.689453 h 52.09961 v -6.689453 z m 131.39648,2.685547 h 37.06055 v 57.324219 q 0,3.90625 -1.61133,5.66406 -1.90429,2.05078 -8.00781,2.05078 -5.76172,0 -11.18164,-0.63476 l -1.70898,-7.42188 q 8.88671,0.92774 12.06054,0.92774 1.85547,0 2.29492,-0.87891 0.24415,-0.53711 0.24415,-1.61133 V 100.39063 H 317.1875 v 59.13085 h -7.91016 V 93.994141 h 36.52344 V 83.007812 h -43.31055 v -6.689453 h 43.31055 V 64.501953 h 7.71484 v 11.816406 h 43.94532 v 6.689453 h -43.94532 z m -7.61718,27.783199 h -22.2168 v -6.20117 h 11.86523 q -2.14843,-5.32226 -5.37109,-10.49804 l 6.73828,-2.5879 q 4.05274,7.12891 6.20117,13.08594 H 356.25 q 3.32031,-6.05469 5.76172,-13.28125 l 7.42187,2.58789 q -2.39257,4.98047 -5.32226,9.96094 l -0.39063,0.73242 h 12.40235 v 6.20117 h -22.70508 v 9.13086 H 378.125 v 6.29883 h -24.70703 v 19.92188 h -7.51953 V 137.20703 H 321.875 v -6.29883 h 24.02344 z m 115.42968,4.83399 q 14.01368,12.84179 36.76758,20.50781 l -4.73633,6.98242 q -10.54687,-3.95508 -18.31054,-8.54492 -12.10938,-7.22656 -21.53321,-18.06641 v 32.03125 h -7.71484 v -31.83593 q -5.76172,7.51953 -14.30664,14.20898 -10.88867,8.49609 -24.31641,13.81836 l -4.78515,-6.29883 q 21.97265,-8.00781 35.79101,-22.80273 H 411.57227 V 87.792969 h 34.22851 v -8.007813 h -41.74805 v -6.591797 h 41.74805 v -8.691406 h 7.71484 v 8.691406 h 42.38282 v 6.591797 h -42.38282 v 8.007813 h 34.76563 V 126.61133 Z M 445.80078,94.091797 h -26.41601 v 9.814453 h 26.41601 z m 7.71484,0 v 9.814453 h 27.05079 v -9.814453 z m -7.71484,15.917973 h -26.41601 v 10.30273 h 26.41601 z m 7.71484,0 v 10.30273 h 27.05079 V 110.00977 Z M 558.69141,85.302734 V 64.501953 h 7.71484 v 20.800781 h 27.7832 v 40.478516 h -27.7832 v 33.69141 h -7.71484 v -33.69141 h -26.9043 V 85.302734 Z m -19.38477,6.982422 v 26.513674 h 19.38477 V 92.285156 Z m 47.26563,26.513674 V 92.285156 H 566.40625 V 118.79883 Z M 521.77734,86.621094 q -6.54297,-8.34961 -15.2832,-15.527344 l 5.32227,-5.273438 q 8.30078,6.201172 15.67382,14.990235 z m -3.66211,25.488286 q -7.66601,-8.8379 -15.91796,-15.527349 l 5.41992,-5.46875 q 8.39843,6.201172 16.16211,14.990239 z m -13.7207,40.57617 q 9.52149,-12.69532 17.48047,-32.86133 l 6.29883,5.07812 q -7.32422,19.14063 -17.08985,33.69141 z"></path>
</svg>
