<svg xmlns="http://www.w3.org/2000/svg" id="svg1" version="1.1" height="200" width="1096">
  <defs id="defs1"></defs>
  <rect id="rect1" stroke="none" fill="none" height="200" width="1096" y="0" x="0"></rect>
  <path aria-label="福岡県北九州地方" style="font-weight:bold;font-size:110px;font-family:'BIZ UDPGothic';fill:#ff0000" id="text1" d="m 29.970703,103.37891 q 7.143555,4.9414 13.374024,10.68847 v -4.35058 h 61.176753 v 50.75683 H 93.725586 v -4.51172 H 54.248047 v 4.51172 h -10.90332 v -45.00976 l -5.585938,8.8623 q -3.974609,-4.72656 -7.788086,-8.43262 v 44.58008 H 18.637695 v -43.98925 q -6.391601,7.19726 -11.8164059,12.24609 L 1.2353516,118.52539 Q 19.282227,102.73438 28.520508,83.881836 H 3.6523438 V 73.193359 H 18.154297 V 55.952148 h 11.44043 v 17.241211 h 8.271484 l 4.941406,5.15625 Q 37.758789,89.951172 29.970703,101.60645 Z m 24.277344,15.03906 v 9.99023 h 14.555664 v -9.99023 z m 0,18.26172 V 147.0459 H 68.803711 V 136.67969 Z M 93.725586,147.0459 V 136.67969 H 78.686523 v 10.36621 z m 0,-18.6377 v -9.99023 H 78.686523 v 9.99023 z M 99.365234,76.201172 V 103.48633 H 48.071289 V 76.201172 Z m -40.498047,8.271484 v 10.84961 H 88.24707 V 84.472656 Z M 41.733398,60.356445 H 106.0791 v 9.345703 H 41.733398 Z M 182.1875,131.63086 v -23.20313 h 10.20508 v 32.8711 h -44.79492 v 7.25097 h -10.20508 v -40.12207 h 10.20508 v 23.20313 h 11.87011 V 101.3916 h -27.55371 v -9.667967 h 38.24219 q 5.37109,-9.399414 9.23828,-20.893555 l 11.11817,3.867188 q -4.61915,9.721679 -9.61426,17.026367 h 17.34863 v 9.667967 h -28.57422 v 30.23926 z m 30.56152,-71.918946 v 89.965816 q 0,5.42481 -2.90039,7.78809 -2.79297,2.25586 -9.72168,2.25586 -5.4248,0 -18.53027,-0.91309 l -2.73926,-11.333 q 9.3457,1.12793 18.31543,1.12793 3.00781,0 3.54492,-1.02051 0.37598,-0.69824 0.37598,-2.73926 V 69.80957 h -72.08008 v 90.66406 H 117.3584 V 59.711914 Z M 146.8457,91.455078 q -3.59863,-8.59375 -8.16406,-15.683594 l 10.04395,-4.296875 q 5.04882,7.358399 8.43261,15.46875 z M 312.16797,58.583984 V 110.62988 H 248.25195 V 58.583984 Z m -52.36817,8.486328 v 6.713868 h 40.7129 v -6.713868 z m 0,14.28711 v 6.713867 h 40.7129 v -6.713867 z m 0,14.287109 v 6.928709 h 40.7129 v -6.928709 z m -21.6455,22.128909 h 89.05273 v 9.3457 h -44.41894 v 33.35449 H 270.5957 V 127.11914 H 226.3916 V 66.855469 h 11.7627 z m -13.75,32.4414 q 12.7832,-5.9082 24.43847,-19.81933 l 9.88282,5.74707 q -11.49414,14.55566 -25.5127,22.88086 z m 92.59765,6.92871 q -8.21777,-10.09765 -24.70703,-21.21582 l 9.23828,-6.49902 q 12.94434,7.46582 25.40528,19.60449 z m 45.11719,-25.29785 q -14.82422,7.78809 -25.83496,11.92383 l -4.51172,-11.81641 q 17.24121,-5.80078 30.34668,-12.03124 V 95.859375 H 335.53223 V 84.526367 h 26.58691 V 55.952148 h 11.97754 V 160.47363 h -11.97754 z m 38.18848,-41.840817 q 12.51465,-6.552735 24.27734,-16.650391 l 8.91602,9.345703 q -15.89844,11.279297 -33.19336,19.228515 v 40.2832 q 0,2.63184 1.71875,3.22266 1.82617,0.59082 8.43261,0.59082 8.70118,0 10.90332,-1.02051 1.55762,-0.69824 2.14844,-4.35058 0.80567,-5.10254 1.18164,-16.48926 l 12.03125,3.70605 q -0.53711,13.91114 -1.71875,19.98047 -1.34277,6.76758 -7.03613,8.75489 -5.4248,1.82617 -17.77832,1.82617 -14.50195,0 -18.26172,-2.417 -3.59863,-2.36328 -3.59863,-9.07714 V 55.952148 h 11.97754 z m 88.8916,-9.291992 h 32.70996 l -3.38379,59.619139 q 0,2.09473 0.85938,2.68555 0.48339,0.32226 1.9873,0.64453 1.61133,0.32226 5.20996,0.32226 6.23047,0 7.08984,-1.0205 1.82618,-2.25586 2.9004,-20.35645 l 11.87011,4.61914 q -0.96679,14.28711 -1.82617,18.6377 -1.55762,8.11035 -8.80859,9.56054 -4.13575,0.85938 -14.66309,0.85938 -9.66797,0 -13.05176,-1.4502 -4.61914,-1.93359 -4.61914,-8.05664 0,-0.42968 0.0537,-1.5039 l 3.38379,-53.549807 h -20.73242 q -1.39648,16.757817 -6.3916,31.098637 -7.41211,21.37695 -30.34668,35.77148 l -9.02344,-9.77539 q 14.66309,-7.73438 23.41797,-22.18262 4.4043,-7.30469 6.82129,-16.65039 1.93359,-7.3584 3.16895,-18.261717 H 447.46582 V 80.712891 h 29.21875 l 1.02051,-24.760743 h 12.56836 z m 63.32519,39.155269 q 3.97461,-8.16406 5.80079,-18.53027 1.12792,-6.284179 1.87988,-16.220703 l 9.72168,1.611329 q -1.34278,24.653324 -7.94922,38.940434 z m 41.25,2.95411 q -2.79296,-19.81934 -7.25097,-33.784184 l 8.48633,-4.833984 q 5.37109,13.75 8.32519,32.924808 z m 10.47364,-60.371098 h 11.87011 V 152.9541 h -11.87011 z m 22.71972,59.082028 q -3.9209,-21.26953 -8.96972,-33.247067 l 8.96972,-4.833985 q 6.60645,15.844727 9.61426,31.904302 z m 10.58106,-62.841794 h 11.97754 V 160.47363 h -11.97754 z m -64.34571,0.751953 h 11.97754 v 48.608401 q 0,20.57129 -4.83398,33.24707 -3.59863,9.45312 -11.87012,18.6914 l -10.36621,-7.84179 q 15.09277,-15.73731 15.09277,-44.2041 z m 143.08594,40.014649 v 42.539062 q 0,4.13574 3.54492,4.99512 3.65235,0.91308 16.70411,0.91308 12.72949,0 16.81152,-1.28906 2.30957,-0.75195 3.00781,-4.18945 0.91309,-4.83399 0.9668,-11.44043 l 11.22558,3.16894 Q 767.69043,150 764.19922,154.4043 q -2.30957,2.90039 -6.98242,3.4375 -7.3584,0.80566 -24.97559,0.80566 -13.64258,0 -17.88574,-0.75195 -6.3916,-1.07422 -8.11035,-5.63965 -0.85938,-2.41699 -0.85938,-6.44531 v -42.59278 l -10.25879,3.54493 -2.52441,-10.419927 12.7832,-4.404296 V 62.988281 h 10.90332 v 25.19043 l 11.54785,-3.920899 V 55.952148 h 10.7959 v 24.545899 l 17.99317,-6.176758 5.63964,3.4375 v 40.229491 q 0,4.18945 -1.9873,6.23047 -2.25586,2.25586 -7.57324,2.25586 -4.35059,0 -9.23828,-0.75195 l -1.77246,-10.25879 q 3.16894,0.80566 6.44531,0.80566 2.36328,0 2.90039,-0.9668 0.53711,-0.80566 0.53711,-2.68554 V 87.211914 l -12.94434,4.511719 v 43.452147 h -10.7959 V 95.429687 Z M 676.81152,81.894531 V 55.952148 h 11.54785 v 25.942383 h 10.41993 v 10.903321 h -10.41993 v 34.160158 q 5.63965,-1.9336 11.17188,-4.02832 l 1.02051,10.36621 q -17.40235,7.94922 -35.71778,13.32031 l -3.75976,-11.44043 q 8.27148,-2.14844 14.50195,-4.08203 0.75195,-0.26855 1.23535,-0.37598 V 92.797852 H 663.16895 V 81.894531 Z m 145.3418,3.007813 q -0.37598,8.969726 -1.07422,15.791016 h 43.29102 q -0.80567,37.27539 -4.18946,48.39355 -1.71875,5.58594 -6.3916,7.73438 -3.65234,1.66504 -10.68847,1.66504 -7.41211,0 -16.81153,-1.12793 l -2.09472,-12.08496 q 12.62207,1.77246 17.77832,1.77246 4.35058,0 5.53222,-2.4707 2.84668,-6.01563 3.97461,-33.19336 h -31.95801 q -1.77246,9.66796 -4.99511,16.75781 -8.96973,19.60449 -29.97071,31.09863 l -8.48632,-9.45312 q 21.05468,-10.95704 27.82226,-28.73536 4.51172,-11.87011 5.85449,-36.147456 H 774.18945 V 73.891602 h 43.88184 V 55.952148 h 12.40723 v 17.939454 h 45.33203 v 11.010742 z"></path>
</svg>
