<svg xmlns="http://www.w3.org/2000/svg" id="svg1" version="1.1" height="200" width="990">
  <defs id="defs1"></defs>
  <rect id="rect1" stroke="none" fill="none" height="200" width="990" y="0" x="0"></rect>
  <path aria-label="京都府北部" style="font-size:100px;font-family:'BIZ UDPGothic';fill:#ff0000" id="text1" d="m 53.613281,75.78125 h 41.796875 v 6.787109 H 4.5898437 V 75.78125 H 45.703125 V 64.501953 h 7.910156 z M 84.521484,91.796875 V 122.80273 H 54.638672 v 29.49219 q 0,3.4668 -1.611328,5.17578 -1.855469,1.95313 -6.640625,1.95313 -7.226563,0 -14.160157,-0.63477 l -1.611328,-7.27539 q 7.275391,0.87891 12.841797,0.87891 2.09961,0 2.734375,-0.58594 0.53711,-0.53711 0.53711,-1.9043 V 122.80273 H 15.429688 V 91.796875 Z m -60.986328,6.591797 v 17.822268 h 52.88086 V 98.388672 Z M 3.4179688,149.80469 Q 16.162109,140.82031 23.4375,127.49023 l 6.982422,3.61329 q -8.300781,14.89257 -21.2890626,24.60937 z m 85.9863282,4.6875 Q 79.199219,140.82031 68.310547,130.81055 l 5.908203,-4.49219 q 10.742187,9.57031 21.582031,22.80273 z m 46.044923,-59.570315 0.39062,-0.439453 q 9.08203,-11.376953 14.7461,-24.267578 l 6.39648,3.515625 q -7.61719,13.964843 -13.3789,21.191406 h 15.03906 v 6.591795 h -21.19141 q -2.97851,3.66211 -10.88867,10.79102 h 25 v 45.99609 h -7.08008 v -4.19922 h -23.0957 v 5.41992 h -7.32422 v -37.40234 q -4.19922,3.02734 -8.98437,5.85938 l -4.10157,-6.05469 q 15.9668,-8.34961 27.34375,-20.16602 l 0.24414,-0.24414 h -26.12304 v -6.591795 h 21.63086 V 82.8125 h -15.625 v -6.494141 h 15.625 V 64.501953 H 131.25 v 11.816406 h 12.10937 V 82.8125 H 131.25 v 12.109375 z m -14.0625,23.583985 v 10.98633 h 23.0957 v -10.98633 z m 0,17.1875 v 12.10937 h 23.0957 v -12.10937 z m 61.52344,-32.42188 q 12.59765,15.33204 12.59765,29.49219 0,5.66406 -2.09961,8.4961 -2.39258,3.22265 -8.44726,3.22265 -5.71289,0 -10.69336,-0.58594 l -1.5625,-7.61718 q 6.20117,1.12304 10.20508,1.12304 3.80859,0 4.54101,-2.73437 0.24414,-0.97656 0.24414,-2.7832 0,-13.67188 -12.69531,-27.58789 5.71289,-12.548833 9.47266,-26.708989 H 169.0918 v 81.884769 h -7.32422 V 70.507812 h 27.24609 l 4.49219,3.808594 q -4.93164,16.845703 -10.5957,28.955074 z M 256.5918,76.123047 h 38.7207 v 6.884765 h -78.02734 v 22.216798 q 0,20.84961 -1.80664,32.61719 -1.80665,11.47461 -6.78711,21.14257 l -6.10352,-5.5664 q 4.39453,-9.96094 5.81055,-22.2168 1.17187,-10.30273 1.17187,-26.61133 V 76.123047 H 248.7793 V 64.501953 h 7.8125 z m -19.67774,27.490233 v 55.9082 h -7.61719 v -43.26171 q -3.07617,4.54101 -7.8125,9.96093 l -3.90625,-6.73828 q 12.89063,-14.30664 19.33594,-34.667967 l 7.42188,1.904297 q -3.27149,8.935547 -7.42188,16.89453 z m 45.84961,-0.92773 h 14.69727 v 6.88476 h -14.69727 v 41.3086 q 0,4.44336 -2.05078,6.20117 -1.85547,1.70898 -6.88477,1.70898 -7.32421,0 -12.79296,-0.68359 l -1.61133,-7.71485 q 6.78711,1.12305 12.59765,1.12305 1.95313,0 2.53907,-0.8789 0.48828,-0.6836 0.48828,-2.2461 v -38.81836 h -34.27735 v -6.88476 h 34.27735 V 86.572266 h 7.71484 z m -23.0957,36.32812 q -5.9082,-11.27929 -13.08594,-20.11719 l 5.9082,-4.10156 q 7.71485,8.83789 13.37891,19.62891 z m 70.94726,-6.20117 q -11.42578,6.25 -25.09765,11.81641 l -3.51563,-7.71485 q 17.33399,-6.15234 28.61328,-11.96289 V 98.535156 h -25.63476 v -7.421875 h 25.63476 V 65.527344 h 8.00782 v 93.212886 h -8.00782 z M 362.01172,97.949219 Q 375,91.845703 387.30469,81.591797 l 6.20117,6.103515 Q 378.36914,98.779297 362.01172,105.9082 v 38.1836 q 0,3.07617 2.24609,3.71093 1.80664,0.53711 10.35156,0.53711 8.05665,0 10.35157,-1.12304 1.66015,-0.83008 2.24609,-4.29688 0.68359,-4.44336 1.07422,-14.84375 l 7.91016,2.73438 q -0.58594,16.01562 -2.2461,19.9707 -1.61133,3.90625 -7.03125,4.88281 -4.63867,0.83008 -13.52539,0.83008 -12.10937,0 -15.42969,-1.5625 -3.95507,-1.85547 -3.95507,-7.91016 V 65.478516 h 8.00781 z m 71.97265,-21.337891 h 21.82618 v 6.787109 h -7.03125 q -2.05078,9.13086 -5.61524,18.701173 h 14.45313 v 6.88477 h -55.12696 v -6.88477 h 13.72071 l -0.0977,-0.48828 Q 414.0625,91.601562 411.71875,84.423828 l -0.3418,-1.025391 h -7.08008 v -6.787109 h 22.2168 V 64.501953 h 7.4707 z m -15.13671,6.787109 q 2.58789,7.958985 4.73632,18.701173 h 12.15821 q 2.92968,-8.105469 5.32226,-18.701173 z m 31.83593,35.888673 v 39.30664 h -7.32422 v -5.51758 h -25.97656 v 6.39649 h -7.56836 v -40.18555 z m -33.30078,6.68945 v 20.3125 h 25.97656 v -20.3125 z m 65.42969,-22.70508 q 12.8418,13.57422 12.8418,29.44336 0,5.56641 -2.00196,8.39844 -2.4414,3.27149 -8.49609,3.27149 -5.81055,0 -10.69336,-0.6836 l -1.61133,-7.61719 q 6.25,1.02539 10.15625,1.02539 3.71094,0 4.39453,-2.49023 0.29297,-1.07422 0.29297,-3.51562 0,-13.72071 -12.64648,-26.70899 5.85937,-12.695311 9.52148,-26.708983 h -15.42969 v 81.787113 h -7.37304 V 70.507812 h 27.49023 l 4.39453,3.808594 q -5.37109,17.382813 -10.83984,28.955074 z"></path>
</svg>
