<svg xmlns="http://www.w3.org/2000/svg" id="svg1" version="1.1" height="200" width="1096">
  <defs id="defs1"></defs>
  <rect id="rect1" stroke="none" fill="none" height="200" width="1096" y="0" x="0"></rect>
  <path aria-label="黄海" style="font-weight:bold;font-size:110px;font-family:'BIZ UDPGothic';fill:#ff0000" id="text1" d="m 60.263672,92.15332 v 6.928711 H 96.142578 V 140.43945 H 13.857422 V 99.082031 H 49.038086 V 92.15332 H 2.7392578 V 83.129883 H 29.702148 V 74.428711 H 8.4863281 V 65.620117 H 29.702148 V 55.952148 H 41.25 v 9.667969 H 67.998047 V 55.952148 H 79.65332 v 9.667969 h 21.86035 v 8.808594 H 79.65332 v 8.701172 h 27.60742 V 92.15332 Z M 49.038086,107.46094 H 25.405273 v 8.00293 h 23.632813 z m 11.225586,0 v 8.00293 h 24.223633 v -8.00293 z M 49.038086,123.35938 H 25.405273 v 8.91601 h 23.632813 z m 11.225586,0 v 8.91601 h 24.223633 v -8.91601 z M 67.998047,74.428711 H 41.25 v 8.701172 H 67.998047 Z M 1.8798828,152.41699 Q 21.75293,148.33496 36.738281,140.6543 l 9.023438,6.60644 Q 29.379883,156.82129 9.3457031,161.54785 Z M 99.09668,161.01074 Q 83.198242,153.54492 63.59375,147.47559 l 8.808594,-6.82129 q 17.1875,4.18945 35.395506,11.76269 z M 207.7002,85.117187 q 0,2.524415 -0.4834,23.955083 h 10.25879 v 9.66796 h -10.47364 q -0.16113,7.03614 -0.69824,15.95215 h 9.07715 v 9.45313 h -9.77539 q -0.64453,7.78808 -1.77246,10.3125 -2.52442,6.01562 -12.2461,6.01562 -6.23046,0 -11.49414,-0.91308 L 178.10547,150 q 7.57324,1.07422 11.60156,1.07422 3.27637,0 3.9209,-2.30957 0.32227,-1.12793 0.59082,-4.61914 h -38.24219 q -0.0537,0.42969 -0.16113,0.91308 -0.4834,2.84668 -0.91309,5.3711 l -11.11816,-1.07422 q 3.27637,-19.38965 4.4043,-29.32617 l 0.16113,-1.28907 h -10.74219 v -9.66796 h 11.87012 q 1.50391,-12.998051 2.57812,-23.955083 z m -33.94532,9.345704 h -11.76269 q -0.16114,2.739257 -0.9668,11.547849 l -0.32227,3.06153 h 11.92383 l 0.16114,-1.50391 q 0.10742,-1.55762 0.32226,-4.35059 0.53711,-7.519528 0.64453,-8.754879 z m 10.58106,0 q -0.26856,6.391599 -0.80567,14.125979 v 0.4834 h 12.62207 q 0.21485,-7.3584 0.37598,-14.609379 z m -12.56836,24.277339 h -12.08496 q -0.80567,6.55274 -1.71875,12.94434 l -0.42969,3.00781 h 12.56836 q 1.28906,-11.65527 1.66504,-15.95215 z m 11.01074,0 q -0.16113,2.14844 -0.64453,7.08985 l -0.85938,8.8623 h 13.69629 q 0.26856,-5.20996 0.42969,-7.84179 0.32227,-5.74707 0.42969,-8.11036 z M 161.72363,65.727539 h 51.88477 v 9.990234 h -56.34278 q -4.35058,8.862305 -11.06445,16.865235 l -7.68066,-8.378906 Q 149.10156,71.796875 153.55957,55.629883 L 165,56.811523 q -1.93359,5.585938 -3.27637,8.916016 z m -29.59472,15.629883 q -6.60645,-9.077149 -16.05957,-17.026367 l 8.11035,-7.841797 q 8.75488,6.445312 16.65039,16.274414 z M 128.26172,109.7168 Q 120.09766,99.243164 111.77246,92.15332 l 8.37891,-8.05664 q 9.3457,7.358398 16.81152,16.75781 z m -14.60938,42.16308 q 9.34571,-12.94433 17.72461,-34.10644 l 9.56055,6.82129 q -6.98242,19.55078 -17.93945,35.8789 z"></path>
</svg>
