<svg xmlns="http://www.w3.org/2000/svg" id="svg1" version="1.1" height="200" width="990">
  <defs id="defs1"></defs>
  <rect id="rect1" stroke="none" fill="none" height="200" width="990" y="0" x="0"></rect>
  <path aria-label="熊本県阿蘇地方" style="font-size:100px;font-family:'BIZ UDPGothic';fill:#ff0000" id="text1" d="m 11.035156,80.175781 q 5.22461,-7.470703 9.179688,-16.162109 l 7.666015,2.197265 q -4.394531,7.714844 -8.789062,13.574219 l 1.318359,-0.04883 q 10.009766,-0.585937 17.72461,-1.416016 l 0.78125,-0.09766 -0.53711,-0.585937 q -2.197265,-2.587891 -5.664062,-6.347657 l 5.46875,-3.173828 q 8.789062,8.496094 14.599609,16.503907 l -5.664062,4.003906 q -2.978516,-3.90625 -4.199219,-5.46875 -0.683594,0.09766 -1.31836,0.195312 -14.355468,2.09961 -37.695312,3.564453 L 2.0019531,80.517578 Q 4.4433594,80.419922 7.03125,80.322266 Z M 45.3125,90.820312 v 34.863278 q 0,4.05274 -1.660156,5.66407 -1.708985,1.61132 -6.054688,1.61132 -5.224609,0 -9.375,-0.58593 l -1.318359,-6.49414 q 5.322265,0.78125 8.886719,0.78125 1.708984,0 2.001953,-0.87891 0.195312,-0.58594 0.195312,-1.9043 v -6.20117 H 16.601562 v 16.01563 H 9.1796875 V 90.820312 Z m -28.710938,5.517579 v 5.468749 h 21.386719 v -5.468749 z m 0,10.644529 v 5.61524 h 21.386719 v -5.61524 z M 62.207031,76.220703 q 11.621094,-2.636719 23.486328,-8.007812 l 5.22461,5.273437 q -13.81836,5.664063 -28.710938,8.886719 v 5.322265 q 0,2.734375 1.513672,3.417969 1.464844,0.683594 9.716797,0.683594 8.447266,0 11.132812,-0.585938 2.88086,-0.634765 3.613282,-3.710937 0.439453,-1.855469 0.634765,-6.494141 l 6.884766,2.783203 q -0.09766,9.91211 -4.101563,12.25586 -3.662109,2.197265 -19.091796,2.197265 -11.279297,0 -14.208985,-1.367187 -3.515625,-1.660156 -3.515625,-6.591797 v -25.78125 h 7.421875 z m 0,33.789067 q 13.574219,-3.07618 25,-8.10547 l 5.615235,5.27343 q -14.404297,5.95704 -30.615235,8.88672 v 5.61524 q 0,2.49023 1.464844,3.17383 1.806641,0.78125 12.744141,0.78125 8.203125,0 10.644531,-0.83008 1.855469,-0.58594 2.392578,-3.61328 0.244141,-1.31836 0.634766,-6.29883 l 6.835937,2.68555 q -0.09766,8.49609 -2.294922,11.23046 -1.953125,2.39258 -7.128906,3.02735 -4.296875,0.48828 -12.011719,0.48828 -11.865234,0 -15.429687,-0.87891 -5.273438,-1.26953 -5.273438,-7.22656 v -24.02344 h 7.421875 z M 3.7109375,155.17578 q 6.9335935,-7.66601 11.2792965,-18.45703 l 7.421875,2.88086 Q 17.96875,152.19727 10.888672,159.7168 Z m 34.0820315,3.51563 Q 35.9375,148.04687 33.300781,139.79492 l 7.617188,-1.9043 q 3.125,8.34961 5.175781,18.70118 z m 23.925781,-1.26954 q -3.369141,-11.18164 -7.128906,-18.21289 l 7.128906,-2.58789 q 4.248047,7.42188 7.861328,17.8711 z m 28.076172,0.78125 Q 83.935547,147.2168 77.001953,138.47656 l 6.787109,-3.46679 q 7.519532,8.78906 13.720704,19.38476 z M 156.39648,90.820312 q 7.12891,12.353518 17.96875,23.535158 10.49805,10.9375 23.4375,18.75 l -5.12695,6.88476 q -15.13672,-10.20507 -26.80664,-24.26757 -7.37305,-8.83789 -12.35352,-17.919926 v 34.423826 h 19.87305 v 7.08008 h -19.67773 v 20.21484 h -8.10547 V 139.30664 H 126.9043 v -7.08008 h 18.89648 V 98.4375 q -6.10351,13.13477 -17.23633,25.53711 -9.08203,10.20508 -20.65429,18.21289 l -5.32227,-6.39648 q 25.14649,-15.72266 40.33203,-44.970708 h -38.03711 v -7.324218 h 40.72266 V 64.501953 h 8.10547 v 18.994141 h 41.35742 v 7.324218 z M 282.86133,67.578125 V 114.4043 H 225.78125 V 67.578125 Z m -49.36524,6.005859 v 7.714844 h 41.55274 v -7.714844 z m 0,13.330078 v 7.763672 h 41.55274 v -7.763672 z m 0,13.476568 v 8.30078 h 41.55274 v -8.30078 z M 214.4043,122.2168 h 83.05664 v 6.49414 h -41.99219 v 30.81054 h -7.91016 V 128.71094 H 206.5918 V 74.267578 h 7.8125 z m -9.22852,29.6875 q 12.79297,-6.15235 23.0957,-19.28711 l 6.5918,3.66211 q -10.40039,13.62304 -24.07226,21.72851 z m 84.17969,4.10156 q -10.25391,-11.18164 -23.29102,-19.82422 l 6.00586,-4.49219 q 11.76758,7.37305 23.68164,18.79883 z m 98.73047,-77.246094 v 70.947264 q 0,4.10156 -1.85547,6.15234 -2.19727,2.34375 -7.71485,2.34375 -7.76367,0 -14.35546,-0.48828 L 362.54883,150 q 8.20312,0.92773 14.50195,0.92773 2.19727,0 2.83203,-0.8789 0.58594,-0.78125 0.58594,-2.63672 V 78.759766 H 336.2793 v -6.982422 h 61.23047 v 6.982422 z m -81.5918,-9.765625 h 24.70703 l 3.90625,3.515625 q -4.63867,16.699218 -9.66797,27.587894 9.76563,10.98632 9.76563,26.66015 0,6.05469 -1.85547,8.83789 -2.39258,3.56446 -8.20313,3.56446 -2.88086,0 -6.83593,-0.58594 l -1.70899,-7.37305 q 4.05274,0.6836 7.22656,0.6836 2.97852,0 3.61329,-2.05079 0.43945,-1.46484 0.43945,-4.93164 0,-12.98828 -9.47266,-23.82812 4.93164,-11.816408 8.10547,-25.29297 h -12.69531 v 83.69141 h -7.32422 z m 63.28125,24.121093 v 38.378906 h -21.58203 v 7.71484 h -6.78711 V 93.115234 Z m -21.58203,6.494141 v 25.292965 h 14.79492 V 99.609375 Z m 85.88867,3.613285 h 13.81836 v 31.78711 h -38.37891 v -28.95508 q -1.66015,1.41601 -3.90625,3.17383 l -3.90625,-5.22461 q 10.44922,-7.324223 16.60157,-19.238285 l 5.12695,3.222656 h 15.23437 l 3.41797,3.515625 q -4.29687,6.933594 -8.00781,11.718754 z m -2.58789,5.51757 v 7.37305 h 9.91211 v -7.37305 z m 0,12.79297 v 7.95899 h 9.91211 v -7.95899 z m -6.20117,7.95899 v -7.95899 h -9.47266 v 7.95899 z m 0,-13.37891 v -7.37305 h -9.47266 v 7.37305 z m 1.36719,-12.89062 q 3.125,-3.906254 6.34765,-9.423832 h -12.25586 q -3.27148,4.638672 -8.15429,9.423832 z m 51.07421,13.96484 q 8.69141,14.89258 20.26368,24.51172 l -4.39453,7.08008 q -10.15625,-10.15625 -17.67579,-23.92578 v 34.61914 h -6.98242 v -34.27735 q -5.51758,13.08594 -15.52734,23.09571 l -4.19922,-6.49415 q 11.18164,-9.96093 17.1875,-24.60937 H 450.3418 v -6.29883 h 18.60351 V 98.193359 q -0.43945,0.09766 -0.97656,0.195313 -4.98047,1.02539 -13.03711,2.197268 l -3.32031,-6.005862 q 19.77539,-2.441406 35.49804,-8.203125 l 4.58985,5.810547 q -7.51953,2.636719 -15.77149,4.492187 v 14.208983 h 20.9961 v 6.29883 z M 429.78516,73.193359 v -8.691406 h 7.61718 v 8.691406 h 24.16993 v -8.691406 h 7.71484 v 8.691406 h 28.22266 v 6.298828 h -28.22266 v 6.00586 h -7.71484 v -6.00586 h -24.16993 v 5.810547 h -7.61718 v -5.810547 h -27.29493 v -6.298828 z m -26.80664,82.226561 q 4.44335,-7.1289 6.49414,-17.04101 l 6.54296,1.61132 q -2.4414,12.15821 -6.54296,19.18946 z m 17.04101,2.7832 q 0.0488,-1.61132 0.0488,-2.83203 0,-7.08007 -1.07422,-14.89257 L 425,139.4043 q 1.5625,8.93554 1.9043,17.38281 z m 12.1582,-1.70898 q -0.78125,-7.32422 -3.27148,-16.69922 l 5.46875,-1.61133 q 3.27148,9.47266 4.54102,16.50391 z m 12.20704,-2.00195 q -2.19727,-8.25196 -5.81055,-15.47852 l 5.61523,-2.29492 q 3.71094,6.39648 6.49414,14.79492 z m 104.83398,-51.26953 v 40.86914 q 0,4.05273 2.39258,4.98047 2.58789,0.97656 16.45508,0.97656 13.42773,0 17.38281,-0.92774 2.7832,-0.68359 3.56445,-3.22265 1.2207,-4.00391 1.26953,-12.40235 l 7.51953,2.78321 q -0.68359,13.23242 -3.51562,16.79687 -2.24609,2.92969 -7.27539,3.4668 -7.66602,0.78125 -20.75195,0.78125 -12.45118,0 -16.74805,-0.83008 -5.3711,-1.07422 -6.83594,-4.88281 -0.78125,-2.09961 -0.78125,-5.51758 v -40.38086 l -10.49805,3.56445 -1.90429,-6.98242 12.40234,-4.150389 v -26.5625 h 7.32422 v 24.072266 l 12.8418,-4.345703 V 64.501953 h 7.32422 v 24.365234 l 18.01757,-6.054687 4.39453,2.392578 v 35.986332 q 0,3.51562 -1.66015,5.32226 -1.95313,2.09961 -6.83594,2.09961 -3.95508,0 -7.71484,-0.53711 l -1.26953,-6.98242 q 3.71093,0.68359 6.93359,0.68359 2.44141,0 2.97852,-1.07421 0.39062,-0.73243 0.39062,-2.29493 V 91.113281 l -15.23437,5.175781 v 39.794918 h -7.32422 V 98.779297 Z M 516.50391,88.916016 V 65.136719 h 7.71484 v 23.779297 h 10.79102 v 7.177734 h -10.79102 v 34.96094 q 5.12695,-1.75782 11.71875,-4.44336 l 0.78125,6.88476 q -14.94141,6.88477 -32.03125,12.10938 l -2.7832,-7.61719 q 6.78711,-1.85547 14.59961,-4.3457 V 96.09375 h -13.28125 v -7.177734 z m 128.95507,0.04883 q 0,7.324218 -0.92773,17.041016 h 39.4043 q -0.6836,32.91016 -3.75977,43.60351 -1.26953,4.49219 -4.83398,6.34766 -3.02735,1.5625 -9.08203,1.5625 -8.39844,0 -15.33204,-0.92773 l -1.31836,-8.00782 q 10.15625,1.31836 16.3086,1.31836 4.05273,0 5.32226,-1.70898 1.07422,-1.46484 2.14844,-8.49609 1.5625,-9.96094 2.14844,-26.70899 h -31.93359 q -1.80665,11.37695 -5.76172,19.28711 -7.91016,15.91797 -26.02539,25.73242 l -5.61524,-6.29883 q 19.38477,-10.15625 25.58594,-26.36718 5.17578,-13.57422 5.56641,-36.376956 h -33.54493 v -7.177735 h 41.69922 V 64.501953 h 8.00781 v 17.285156 h 42.67579 v 7.177735 z"></path>
</svg>
