<svg xmlns="http://www.w3.org/2000/svg" id="svg1" version="1.1" height="200" width="990">
  <defs id="defs1"></defs>
  <rect id="rect1" stroke="none" fill="none" height="200" width="990" y="0" x="0"></rect>
  <path aria-label="和歌山県北部" style="font-size:100px;font-family:'BIZ UDPGothic';fill:#ff0000" id="text1" d="M 22.900391,113.18359 Q 16.894531,128.125 6.9824219,140.38086 L 2.4902344,133.10547 Q 14.648438,119.33594 21.875,100.48828 H 3.4667969 V 93.603516 H 22.900391 V 77.490234 q -6.933594,1.5625 -14.4042972,2.734375 L 5.1757812,74.023437 Q 25.244141,70.996094 41.308594,64.892578 l 4.589843,6.005859 q -6.103515,2.197266 -15.380859,4.736329 v 17.96875 h 16.601563 v 6.884764 H 30.517578 v 8.20313 q 9.277344,5.95703 17.382813,13.47656 l -4.785157,7.03125 q -5.517578,-6.44531 -12.597656,-12.79297 v 43.06641 H 22.900391 Z M 92.578125,75.390625 v 80.908205 h -7.714844 v -7.08008 H 59.375 v 7.71484 H 51.757812 V 75.390625 Z M 59.375,82.568359 V 142.04102 H 84.863281 V 82.568359 Z m 110.54687,5.908203 h -5.12695 q -3.22265,12.304688 -7.61719,20.410158 l -5.27343,-5.61524 Q 159.42383,88.720703 162.5,64.501953 l 7.08008,1.074219 q -1.26953,9.277344 -2.78321,15.917969 h 25.78125 l 4.19922,3.515625 q -2.92968,13.916015 -6.98242,23.876954 l -6.5918,-2.49024 q 3.85743,-9.814449 5.46875,-17.919918 H 176.9043 v 11.279297 q 0,11.474611 5.85937,27.099611 5.12695,13.62305 15.23438,24.02344 l -4.73633,8.49609 q -10.20508,-12.25586 -16.11328,-27.92969 -1.95313,-5.07812 -3.125,-11.27929 -3.36914,24.75585 -18.84766,39.69726 l -5.27344,-6.68945 q 20.01953,-17.1875 20.01953,-54.199221 z m -21.92382,30.126958 v 33.59375 q 0,4.44335 -2.29493,6.10351 -1.61132,1.2207 -5.51757,1.2207 -7.66602,0 -11.91407,-0.53711 l -1.36718,-6.98242 2.14843,0.14649 q 6.73829,0.43945 8.93555,0.43945 1.85547,0 2.49024,-0.63477 0.5371,-0.5371 0.5371,-2.05078 v -31.29882 h -38.62304 v -6.39649 h 53.36914 v 6.39649 z m -0.3418,-42.82227 v 27.29492 q 0,3.66211 -1.36719,5.17578 -1.41601,1.51368 -6.15234,1.51368 -4.3457,0 -7.66602,-0.39063 l -1.12304,-5.9082 q 3.90625,0.43945 7.32421,0.43945 2.09961,0 2.09961,-1.80664 V 75.78125 H 103.4668 v -6.396484 h 51.26953 v 6.396484 z m -14.35547,6.005859 v 19.726561 h -25 V 81.787109 Z M 114.69727,87.5 v 8.300781 h 12.30468 V 87.5 Z m 18.70117,37.89063 v 20.60546 h -18.70117 v 6.20118 h -6.49414 v -26.80664 z m -18.70117,5.71289 v 9.17968 h 12.1582 v -9.17968 z m 138.91601,10.79101 h 28.17383 V 85.302734 h 8.10547 v 73.388676 h -8.10547 v -9.17969 h -63.67188 v 9.17969 h -8.10546 V 85.302734 h 8.10546 v 56.591796 h 27.49024 V 65.478516 h 8.00781 z M 382.86133,67.578125 V 114.4043 H 325.78125 V 67.578125 Z m -49.36524,6.005859 v 7.714844 h 41.55274 v -7.714844 z m 0,13.330078 v 7.763672 h 41.55274 v -7.763672 z m 0,13.476568 v 8.30078 h 41.55274 v -8.30078 z M 314.4043,122.2168 h 83.05664 v 6.49414 h -41.99219 v 30.81054 h -7.91016 V 128.71094 H 306.5918 V 74.267578 h 7.8125 z m -9.22852,29.6875 q 12.79297,-6.15235 23.0957,-19.28711 l 6.5918,3.66211 q -10.40039,13.62304 -24.07226,21.72851 z m 84.17969,4.10156 q -10.25391,-11.18164 -23.29102,-19.82422 l 6.00586,-4.49219 q 11.76758,7.37305 23.68164,18.79883 z m 41.25976,-23.19336 q -11.42578,6.25 -25.09765,11.81641 l -3.51563,-7.71485 q 17.33399,-6.15234 28.61328,-11.96289 V 98.535156 h -25.63476 v -7.421875 h 25.63476 V 65.527344 h 8.00782 v 93.212886 h -8.00782 z M 462.01172,97.949219 Q 475,91.845703 487.30469,81.591797 l 6.20117,6.103515 Q 478.36914,98.779297 462.01172,105.9082 v 38.1836 q 0,3.07617 2.24609,3.71093 1.80664,0.53711 10.35156,0.53711 8.05665,0 10.35157,-1.12304 1.66015,-0.83008 2.24609,-4.29688 0.68359,-4.44336 1.07422,-14.84375 l 7.91016,2.73438 q -0.58594,16.01562 -2.2461,19.9707 -1.61133,3.90625 -7.03125,4.88281 -4.63867,0.83008 -13.52539,0.83008 -12.10937,0 -15.42969,-1.5625 -3.95507,-1.85547 -3.95507,-7.91016 V 65.478516 h 8.00781 z m 71.97265,-21.337891 h 21.82618 v 6.787109 h -7.03125 q -2.05078,9.13086 -5.61524,18.701173 h 14.45313 v 6.88477 h -55.12696 v -6.88477 h 13.72071 l -0.0977,-0.48828 Q 514.0625,91.601562 511.71875,84.423828 l -0.3418,-1.025391 h -7.08008 v -6.787109 h 22.2168 V 64.501953 h 7.4707 z m -15.13671,6.787109 q 2.58789,7.958985 4.73632,18.701173 h 12.15821 q 2.92968,-8.105469 5.32226,-18.701173 z m 31.83593,35.888673 v 39.30664 h -7.32422 v -5.51758 h -25.97656 v 6.39649 h -7.56836 v -40.18555 z m -33.30078,6.68945 v 20.3125 h 25.97656 v -20.3125 z m 65.42969,-22.70508 q 12.8418,13.57422 12.8418,29.44336 0,5.56641 -2.00196,8.39844 -2.4414,3.27149 -8.49609,3.27149 -5.81055,0 -10.69336,-0.6836 l -1.61133,-7.61719 q 6.25,1.02539 10.15625,1.02539 3.71094,0 4.39453,-2.49023 0.29297,-1.07422 0.29297,-3.51562 0,-13.72071 -12.64648,-26.70899 5.85937,-12.695311 9.52148,-26.708983 h -15.42969 v 81.787113 h -7.37304 V 70.507812 h 27.49023 l 4.39453,3.808594 q -5.37109,17.382813 -10.83984,28.955074 z"></path>
</svg>
