<svg xmlns="http://www.w3.org/2000/svg" id="svg1" version="1.1" height="200" width="1096">
  <defs id="defs1"></defs>
  <rect id="rect1" stroke="none" fill="none" height="200" width="1096" y="0" x="0"></rect>
  <path aria-label="奈良県" style="font-weight:bold;font-size:110px;font-family:'BIZ UDPGothic';fill:#ff0000" id="text1" d="M 73.959961,78.564453 Q 86.044922,89.682617 108.5498,97.631836 l -5.80078,9.990234 Q 91.416016,102.94922 83.466797,98.168945 v 6.391605 H 27.822266 V 98.974609 Q 20.410156,103.8623 7.4658203,110.03906 L 0.64453125,100.9082 Q 18.369141,93.764648 28.520508,85.439453 q 3.491211,-2.84668 7.197265,-6.875 H 5.9082031 V 68.466797 H 43.076172 q 3.061523,-5.263672 5.639648,-12.783203 l 11.870117,1.665039 q -2.363281,6.069336 -4.833984,11.118164 h 48.178707 v 10.097656 z m -13.964844,0 h -10.3125 Q 43.237305,87.749023 33.24707,95.214844 H 78.793945 Q 67.783203,87.641602 59.995117,78.564453 Z m 2.041016,46.352537 v 26.53321 q 0,4.40429 -1.665039,6.49902 -2.148438,2.73926 -9.614258,2.73926 -9.238281,0 -15.791016,-0.69825 L 32.871094,148.92578 Q 39.53125,150 46.674805,150 q 2.363281,0 2.90039,-0.75195 0.483399,-0.64453 0.483399,-2.52442 V 124.91699 H 7.8417969 V 114.81934 H 102.31934 v 10.09765 z M 2.5244141,148.22754 Q 14.824219,140.49316 22.666016,127.01172 l 10.205078,5.15625 q -8.325196,15.62988 -21.645508,24.76074 z m 95.0146479,6.71387 q -10.36621,-13.10547 -21.430664,-22.5586 l 9.345704,-6.60644 q 11.977539,9.13086 21.323238,20.94726 z m 92.114258,-17.34864 q 10.58105,6.98243 28.84277,11.81641 l -7.35839,10.36621 q -13.58887,-4.35059 -21.69922,-8.8623 -22.0752,-12.2461 -29.75586,-34.69727 h -20.41016 v 28.62793 q 16.38184,-3.38379 30.66895,-7.30469 l 0.80566,9.8291 q -25.24414,8.37891 -52.90527,12.7295 l -4.29688,-10.90332 q 4.56543,-0.59082 13.42774,-2.04102 V 67.392578 h 31.36718 v -11.44043 h 12.40723 v 11.44043 h 31.68945 v 47.158202 l 9.34571,8.37891 q -10.90332,8.54004 -22.12891,14.66308 z m -8.27148,-6.76757 q 10.90332,-7.08985 19.12109,-14.60938 h -28.73535 q 3.4375,8.16406 9.61426,14.60938 z m 8.75488,-23.74024 V 96.450195 h -50.86426 v 10.634765 z m 0,-19.658202 V 76.953125 H 139.27246 V 87.426758 Z M 312.16797,58.583984 V 110.62988 H 248.25195 V 58.583984 Z m -52.36817,8.486328 v 6.713868 h 40.7129 v -6.713868 z m 0,14.28711 v 6.713867 h 40.7129 v -6.713867 z m 0,14.287109 v 6.928709 h 40.7129 v -6.928709 z m -21.6455,22.128909 h 89.05273 v 9.3457 h -44.41894 v 33.35449 H 270.5957 V 127.11914 H 226.3916 V 66.855469 h 11.7627 z m -13.75,32.4414 q 12.7832,-5.9082 24.43847,-19.81933 l 9.88282,5.74707 q -11.49414,14.55566 -25.5127,22.88086 z m 92.59765,6.92871 q -8.21777,-10.09765 -24.70703,-21.21582 l 9.23828,-6.49902 q 12.94434,7.46582 25.40528,19.60449 z"></path>
</svg>
