<svg xmlns="http://www.w3.org/2000/svg" id="svg1" version="1.1" height="200" width="1096">
  <defs id="defs1"></defs>
  <rect id="rect1" stroke="none" fill="none" height="200" width="1096" y="0" x="0"></rect>
  <path aria-label="km" style="font-weight:bold;font-size:110px;font-family:'BIZ UDPGothic';fill:#ff0000" id="text1" d="M 10.366211,58.691406 H 24.65332 V 113.47656 L 49.521484,87.856445 H 67.890625 L 43.022461,113.1543 70.307617,152.73926 H 52.69043 l -19.228516,-31.31348 -8.808594,8.3252 v 22.98828 H 10.366211 Z M 94.53125,87.856445 v 11.44043 q 1.772461,-4.887695 5.9082,-8.271484 5.3711,-4.404297 11.22559,-4.404297 13.85742,0 18.36914,13.535156 1.66504,-4.619141 4.72656,-7.680664 5.85449,-5.854492 14.07227,-5.854492 10.20508,0 16.05957,8.002929 4.51172,6.176757 4.51172,17.670897 v 40.44434 h -13.96485 v -38.94043 q 0,-15.629885 -9.99023,-15.629885 -4.78027,0 -8.8086,5.156255 -3.38378,4.35058 -4.40429,10.36621 v 39.04785 h -14.07227 v -38.94043 q 0,-15.629885 -9.99023,-15.629885 -3.86719,0 -7.30469,3.974605 -4.082031,4.78028 -5.693359,12.56836 v 38.02735 H 81.210937 V 87.856445 Z"></path>
</svg>
