<svg xmlns="http://www.w3.org/2000/svg" id="svg1" version="1.1" height="200" width="990">
  <defs id="defs1"></defs>
  <rect id="rect1" stroke="none" fill="none" height="200" width="990" y="0" x="0"></rect>
  <path aria-label="宗谷東方沖" style="font-size:100px;font-family:'BIZ UDPGothic';fill:#ff0000" id="text1" d="M 53.613281,75 H 93.017578 V 94.824219 H 85.107422 V 81.689453 H 14.648438 V 94.824219 H 6.8359375 V 75 H 45.703125 V 64.501953 h 7.910156 z m 0.830078,44.9707 v 31.98242 q 0,3.85743 -1.660156,5.56641 -1.806641,1.95313 -6.347656,1.95313 -8.837891,0 -15.039063,-0.58594 l -1.269531,-7.61719 q 7.128906,1.02539 13.134766,1.02539 2.197265,0 2.783203,-0.58594 0.585937,-0.53711 0.585937,-2.24609 V 119.9707 H 3.4179688 v -6.78711 H 96.533203 v 6.78711 z M 18.994141,94.091797 h 62.011718 v 6.494143 H 18.994141 Z M 3.8085938,148.29102 Q 15.917969,138.96484 22.705078,124.80469 l 7.275391,3.27148 Q 21.777344,144.43359 9.9121094,153.90625 Z M 89.208984,152.7832 Q 79.6875,138.7207 68.896484,127.97852 l 5.908203,-4.39454 q 11.279297,10.69336 20.898438,23.92579 z m 30.712896,-34.76562 h 62.35351 v 41.5039 h -8.10547 v -5.71289 h -48.04687 v 5.71289 h -8.00782 v -40.33203 q -3.90625,2.49024 -11.13281,6.20118 l -4.6875,-6.68946 q 27.68555,-11.57226 42.57813,-36.767576 h 8.6914 q 11.08399,15.08789 26.70899,24.951176 7.4707,4.6875 17.57812,9.0332 l -4.6875,6.88476 q -12.64648,-5.95703 -21.875,-12.74414 -11.57226,-8.49609 -21.82617,-21.044918 -11.08398,17.041018 -29.54101,29.003908 z m 54.24804,6.88476 h -48.04687 v 21.92383 h 48.04687 z M 106.39648,89.501953 q 14.94141,-8.886719 24.46289,-23.486328 l 6.5918,3.90625 q -10.20508,15.917969 -25.39062,25.292969 z m 80.07813,5.175781 Q 173.53516,80.46875 160.35156,69.921875 l 5.90821,-4.443359 q 12.74414,9.61914 26.12304,23.535156 z m 74.85351,31.933596 q 14.01368,12.84179 36.76758,20.50781 l -4.73633,6.98242 q -10.54687,-3.95508 -18.31054,-8.54492 -12.10938,-7.22656 -21.53321,-18.06641 v 32.03125 h -7.71484 v -31.83593 q -5.76172,7.51953 -14.30664,14.20898 -10.88867,8.49609 -24.31641,13.81836 l -4.78515,-6.29883 q 21.97265,-8.00781 35.79101,-22.80273 H 211.57227 V 87.792969 h 34.22851 v -8.007813 h -41.74805 v -6.591797 h 41.74805 v -8.691406 h 7.71484 v 8.691406 h 42.38282 v 6.591797 h -42.38282 v 8.007813 h 34.76563 V 126.61133 Z M 245.80078,94.091797 h -26.41601 v 9.814453 h 26.41601 z m 7.71484,0 v 9.814453 h 27.05079 v -9.814453 z m -7.71484,15.917973 h -26.41601 v 10.30273 h 26.41601 z m 7.71484,0 v 10.30273 h 27.05079 v -10.30273 z m 91.94336,-21.044926 q 0,7.324218 -0.92773,17.041016 h 39.4043 q -0.6836,32.91016 -3.75977,43.60351 -1.26953,4.49219 -4.83398,6.34766 -3.02735,1.5625 -9.08203,1.5625 -8.39844,0 -15.33204,-0.92773 l -1.31836,-8.00782 q 10.15625,1.31836 16.3086,1.31836 4.05273,0 5.32226,-1.70898 1.07422,-1.46484 2.14844,-8.49609 1.5625,-9.96094 2.14844,-26.70899 h -31.93359 q -1.80665,11.37695 -5.76172,19.28711 -7.91016,15.91797 -26.02539,25.73242 l -5.61524,-6.29883 q 19.38477,-10.15625 25.58594,-26.36718 5.17578,-13.57422 5.56641,-36.376956 h -33.54493 v -7.177735 h 41.69922 V 64.501953 h 8.00781 v 17.285156 h 42.67579 v 7.177735 z m 113.23243,-3.66211 V 64.501953 h 7.71484 v 20.800781 h 27.7832 v 40.478516 h -27.7832 v 33.69141 h -7.71484 v -33.69141 h -26.9043 V 85.302734 Z m -19.38477,6.982422 v 26.513674 h 19.38477 V 92.285156 Z m 47.26563,26.513674 V 92.285156 H 466.40625 V 118.79883 Z M 421.77734,86.621094 q -6.54297,-8.34961 -15.2832,-15.527344 l 5.32227,-5.273438 q 8.30078,6.201172 15.67382,14.990235 z m -3.66211,25.488286 q -7.66601,-8.8379 -15.91796,-15.527349 l 5.41992,-5.46875 q 8.39843,6.201172 16.16211,14.990239 z m -13.7207,40.57617 q 9.52149,-12.69532 17.48047,-32.86133 l 6.29883,5.07812 q -7.32422,19.14063 -17.08985,33.69141 z"></path>
</svg>
