<svg version="1.1" xmlns="http://www.w3.org/2000/svg" xmlns:xlink="http://www.w3.org/1999/xlink" width="163.10001" height="44.35048" viewBox="0,0,163.10001,44.35048"><g transform="translate(-239.99999,-180.02013)"><g stroke="none" stroke-width="0" stroke-miterlimit="10"><path d="M247,180.02013h149.10001c3.878,0 7,3.122 7,7v30.35048c0,3.878 -3.122,7 -7,7h-149.10001c-3.878,0 -7,-3.122 -7,-7v-30.35048c0,-3.878 3.122,-7 7,-7z" fill-opacity="0.69804" fill="#000000"/><path d="M249.96021,191.411c-0.02606,1.64584 -0.10679,2.69011 -0.24219,3.13282c-0.07032,0.22656 -0.1823,0.38541 -0.33594,0.47656c-0.14323,0.08594 -0.34765,0.12891 -0.61328,0.12891c-0.25,0 -0.5599,-0.02214 -0.92969,-0.0664l-0.16015,-0.77734c0.4349,0.05466 0.73958,0.082 0.91406,0.082c0.1823,0 0.29817,-0.04688 0.34765,-0.14063c0.09115,-0.16926 0.16146,-0.87239 0.21094,-2.10937h-1.08984c-0.00534,0.0182 -0.00924,0.04033 -0.0117,0.0664c-0.0156,0.10156 -0.04423,0.25781 -0.0859,0.46875l-0.76562,-0.11718c0.16145,-1.13542 0.26041,-2.10938 0.29687,-2.92188h1.58985v-0.98047h-1.83204v-0.7539h2.60938v2.46093h-1.63281l-0.0195,0.33203c-0.0156,0.22656 -0.03514,0.46615 -0.0586,0.71875zM252.00708,189.86413l-0.14453,0.0117c-0.4427,0.03646 -0.98177,0.07162 -1.61719,0.10547l-0.1914,-0.75391c0.14323,-0.00267 0.26301,-0.00533 0.35937,-0.008c0.05466,0 0.12498,-0.00134 0.21094,-0.004c0.40364,-0.5651 0.74218,-1.12369 1.01562,-1.67578l0.81641,0.19141c-0.26562,0.45834 -0.59115,0.94401 -0.97656,1.45703l0.30468,-0.008c0.50782,-0.0156 1.07422,-0.04557 1.69922,-0.0899l-0.0664,-0.0859c-0.15625,-0.21354 -0.34375,-0.44531 -0.5625,-0.69531l0.65625,-0.34765c0.58854,0.65625 1.02864,1.2513 1.32031,1.78515l-0.67969,0.42578c-0.10937,-0.21094 -0.20312,-0.38021 -0.28125,-0.50781c-0.39844,0.05466 -0.75521,0.09763 -1.07031,0.12891v0.76953h1.67187v2.23828h-1.67187v1.30469c0.24219,-0.02606 0.5,-0.0547 0.77344,-0.0859l0.0859,-0.0117c-0.11719,-0.2552 -0.24609,-0.5026 -0.38671,-0.74219l0.72656,-0.28906c0.33594,0.51302 0.64323,1.13412 0.92187,1.86328l-0.76172,0.375c-0.09375,-0.26041 -0.17317,-0.46744 -0.23828,-0.62109l-0.29297,0.0469c-1.09895,0.17969 -2.22916,0.31771 -3.39062,0.41407l-0.21484,-0.76563c0.625,-0.02346 1.27344,-0.05993 1.94531,-0.10937l0.0391,-0.004v-1.375h-1.625v-2.23828h1.625zM252.00708,191.2196h-0.89844v0.92578h0.89844zM252.80005,191.2196v0.92578h0.91797v-0.92578zM258.55786,188.62585v-0.33594h-2.4414v-0.55859h5.76562v0.55859h-2.49219v0.33594h3.23438v1.40234h-0.84766v-0.89844h-2.38672v1.51954h-0.83203v-1.51954h-2.34375v0.89844h-0.83984v-1.40234zM261.32349,194.16882c0.39844,0.15104 0.89583,0.27083 1.49218,0.35937l-0.45703,0.66406c-0.83594,-0.14323 -1.52213,-0.38932 -2.05859,-0.73828c-0.53386,-0.34895 -0.94922,-0.78254 -1.24609,-1.30078h-0.86329v1.20313c0.57553,-0.08074 1.10938,-0.16667 1.60157,-0.25782l0.0547,0.58204c-0.91667,0.21875 -1.96484,0.40885 -3.14453,0.57031l-0.23047,-0.6875c0.40886,-0.04426 0.68881,-0.0755 0.83985,-0.0937l0.0469,-0.008v-1.3086h-0.85547c-0.03647,0.45834 -0.09636,0.82422 -0.17968,1.09766c-0.09896,0.32813 -0.25781,0.63412 -0.47657,0.91797l-0.69531,-0.57422c0.2552,-0.33074 0.41406,-0.71746 0.47656,-1.16016c0.03386,-0.23958 0.0508,-0.53776 0.0508,-0.89453v-1.65625h6.74218v0.51953h-5.90234v1.19922h6.23828v0.55078h-0.88672l0.4961,0.32813c-0.29428,0.24479 -0.64193,0.47395 -1.04297,0.6875zM260.71411,193.86804c0.375,-0.25521 0.67317,-0.4935 0.89453,-0.71485h-1.70703c0.22396,0.28646 0.4948,0.52475 0.8125,0.71485zM256.55786,189.41882h1.66406v0.4414h-1.66406zM256.55786,190.13757h1.66406v0.44922h-1.66406zM259.72583,189.41882h1.71484v0.4414h-1.71484zM259.72583,190.13757h1.71484v0.44922h-1.71484zM256.98364,191.73132h4.86328v0.51172h-4.86328zM263.71802,188.18054h5.92969v0.80078h-3.30469v1.66015h3.92969v0.80078h-3.92969v1.9375c0,0.14584 0.02603,0.24349 0.0781,0.29297c0.10156,0.10156 0.58074,0.15235 1.4375,0.15235c0.60678,0 1.22397,-0.02084 1.85157,-0.0625v0.8789c-0.65105,0.03386 -1.26694,0.0508 -1.84766,0.0508c-0.85937,0 -1.40886,-0.02604 -1.64844,-0.0781c-0.33594,-0.07031 -0.55859,-0.22396 -0.66797,-0.46094c-0.06507,-0.13802 -0.0976,-0.31641 -0.0976,-0.53515v-2.17579h-2.12891v-0.80078h2.12891v-1.66015h-1.73047zM271.83521,188.8446h5.375v0.83984h-5.375zM271.04224,193.31725h6.96093v0.84766h-6.96093zM284.4563,188.61804l0.55859,0.45703c-0.36458,1.66666 -0.95573,2.95703 -1.77343,3.87109c-0.45312,0.5052 -1.03906,0.94792 -1.75782,1.32813c-0.51042,0.26823 -1.05859,0.48176 -1.64453,0.64062l-0.45312,-0.76953c1.33854,-0.34896 2.3776,-0.90625 3.11718,-1.67188c-0.60937,-0.54687 -1.28125,-1.03125 -2.01562,-1.45312l0.51172,-0.63281c0.71614,0.3724 1.39714,0.83073 2.04297,1.375c0.50781,-0.8125 0.82682,-1.59896 0.95703,-2.35938h-2.75c-0.6302,0.98177 -1.37239,1.73307 -2.22656,2.25391l-0.57422,-0.6211c0.82552,-0.4974 1.5039,-1.15495 2.03515,-1.97265c0.27344,-0.41666 0.48568,-0.86588 0.63672,-1.34766l0.84766,0.20703c-0.08594,0.23438 -0.1823,0.46616 -0.28906,0.69532zM289.87427,193.98522c1.52864,-0.38541 2.29297,-1.26171 2.29297,-2.6289c0,-0.59635 -0.15364,-1.10937 -0.46094,-1.53907c-0.34375,-0.48437 -0.86719,-0.79557 -1.57031,-0.93359c-0.15364,1.20834 -0.36329,2.19791 -0.62891,2.96875c-0.1823,0.53906 -0.40886,1.04818 -0.67969,1.52734c-0.39062,0.6823 -0.83463,1.02344 -1.33203,1.02344c-0.3698,0 -0.69922,-0.16666 -0.98828,-0.5c-0.18489,-0.21094 -0.33463,-0.47004 -0.44922,-0.77734c-0.15104,-0.39844 -0.22656,-0.82682 -0.22656,-1.28516c0,-0.74219 0.20442,-1.42578 0.61328,-2.05078c0.41406,-0.63802 0.95182,-1.10156 1.61328,-1.39062c0.48178,-0.21094 1.01042,-0.31641 1.58594,-0.31641c0.89844,0 1.66146,0.24089 2.28906,0.72266c0.77083,0.59114 1.15625,1.42837 1.15625,2.51171c0,1.8151 -0.91797,2.96615 -2.7539,3.45313zM289.28833,188.85241c-0.46094,0.05206 -0.84636,0.17577 -1.15625,0.37109c-0.19792,0.1276 -0.39452,0.29688 -0.58984,0.50782c-0.54167,0.59895 -0.8125,1.29296 -0.8125,2.08203c0,0.57552 0.11458,1.02604 0.34375,1.35156c0.14062,0.20052 0.27994,0.30078 0.41797,0.30078c0.1875,0 0.39844,-0.20703 0.63281,-0.62109c0.57292,-1.00781 0.96094,-2.33854 1.16406,-3.99219zM297.03833,188.62585v-0.33594h-2.44141v-0.55859h5.76563v0.55859h-2.49219v0.33594h3.23438v1.40234h-0.84766v-0.89844h-2.38672v1.51954h-0.83203v-1.51954h-2.34375v0.89844h-0.83984v-1.40234zM299.80396,194.16882c0.39844,0.15104 0.89583,0.27083 1.49218,0.35937l-0.45703,0.66406c-0.83594,-0.14323 -1.52213,-0.38932 -2.05859,-0.73828c-0.53386,-0.34895 -0.94922,-0.78254 -1.2461,-1.30078h-0.86328v1.20313c0.57552,-0.08074 1.10938,-0.16667 1.60157,-0.25782l0.0547,0.58204c-0.91667,0.21875 -1.96484,0.40885 -3.14453,0.57031l-0.23047,-0.6875c0.40886,-0.04426 0.68881,-0.0755 0.83985,-0.0937l0.0469,-0.008v-1.3086h-0.85547c-0.03647,0.45834 -0.09636,0.82422 -0.17968,1.09766c-0.09896,0.32813 -0.25782,0.63412 -0.47657,0.91797l-0.69531,-0.57422c0.2552,-0.33074 0.41406,-0.71746 0.47656,-1.16016c0.03386,-0.23958 0.0508,-0.53776 0.0508,-0.89453v-1.65625h6.74219v0.51953h-5.90234v1.19922h6.23828v0.55078h-0.88672l0.49609,0.32813c-0.29426,0.24479 -0.64192,0.47395 -1.04296,0.6875zM299.19458,193.86804c0.375,-0.25521 0.67318,-0.4935 0.89453,-0.71485h-1.70703c0.22396,0.28646 0.4948,0.52475 0.8125,0.71485zM295.03833,189.41882h1.66406v0.4414h-1.66406zM295.03833,190.13757h1.66406v0.44922h-1.66406zM298.2063,189.41882h1.71484v0.4414h-1.71484zM298.2063,190.13757h1.71484v0.44922h-1.71484zM295.46411,191.73132h4.86328v0.51172h-4.86328zM306.08911,188.27429h3.0625v0.65625h-1.73437v0.64843h1.625v0.63282h-1.625v1.16406h-3.14453v-1.16406h-1.28125v0.72656c0,1.17969 -0.0625,2.11198 -0.1875,2.79687c-0.09636,0.52084 -0.25261,0.99609 -0.46875,1.42578l-0.71094,-0.5625c0.19792,-0.42969 0.33333,-0.95442 0.40625,-1.57421c0.06507,-0.54427 0.0976,-1.23959 0.0976,-2.08594v-2.66406h3.08985v-0.70313h0.87109zM302.99146,188.93054v0.64843h1.28125v-0.64843zM305.10474,188.93054v0.64843h1.48047v-0.64843zM305.10474,190.21179v0.60546h1.48047v-0.60546zM306.01099,194.31335c-0.75261,0.39063 -1.70833,0.6875 -2.86719,0.89062l-0.40625,-0.71875c1.08854,-0.1302 1.9414,-0.32942 2.55859,-0.59765c-0.52864,-0.38281 -0.98047,-0.83724 -1.35547,-1.36328h-0.53906v-0.67969h4.57422l0.41016,0.34375c-0.38802,0.59635 -0.94141,1.15755 -1.66016,1.68359c0.61719,0.2474 1.45833,0.4297 2.52344,0.54688l-0.45703,0.73828c-1.02083,-0.13802 -1.94792,-0.41927 -2.78125,-0.84375zM304.85083,192.52429c0.31511,0.36979 0.69792,0.6953 1.14844,0.97656c0.50781,-0.32812 0.89974,-0.65364 1.17578,-0.97656zM310.35864,188.66882h2.10547c0.23178,-0.3698 0.40755,-0.66797 0.52735,-0.89453l0.87109,0.125c-0.07812,0.14062 -0.21614,0.36979 -0.41406,0.6875l-0.0508,0.082h2.7539v0.76953h-3.27344c-0.34114,0.46875 -0.66666,0.875 -0.97656,1.21875c0.49219,-0.29427 0.9414,-0.44141 1.34766,-0.44141c0.6302,0 1.04297,0.31641 1.23828,0.94922c0.66667,-0.22135 1.34636,-0.4401 2.03906,-0.65625l0.33594,0.75781l-0.13672,0.0391l-0.38672,0.10156c-0.72917,0.19791 -1.3125,0.36719 -1.75,0.50781c0.03127,0.33854 0.0534,0.77604 0.0664,1.3125l-0.85547,0.0469c-0.00266,-0.3099 -0.00786,-0.64584 -0.0156,-1.00782v-0.0781c-1.19792,0.40885 -1.79687,0.82031 -1.79687,1.23437c0,0.21355 0.15364,0.35938 0.46094,0.4375c0.29688,0.07552 0.82813,0.11328 1.59375,0.11328c0.70572,0 1.44661,-0.04036 2.22265,-0.12109l0.0937,0.83203c-0.7526,0.05727 -1.53254,0.0859 -2.33984,0.0859c-0.9948,0 -1.70183,-0.07552 -2.12109,-0.22656c-0.51824,-0.1875 -0.77735,-0.52474 -0.77735,-1.01172c0,-0.41146 0.1836,-0.77474 0.55078,-1.08985c0.38022,-0.32552 1.04949,-0.66146 2.00782,-1.00781c-0.05207,-0.20052 -0.12108,-0.34114 -0.20704,-0.42187c-0.09636,-0.09115 -0.22395,-0.13672 -0.38281,-0.13672c-0.25781,0 -0.58203,0.09766 -0.97265,0.29297c-0.48178,0.23958 -0.99871,0.60025 -1.55079,1.08203l-0.51953,-0.59375c0.8099,-0.7526 1.44402,-1.49219 1.90235,-2.21875h-1.58985zM319.53442,192.28991v1.41797c0,0.20573 0.07552,0.32943 0.22657,0.37109c0.22395,0.06247 0.96483,0.0937 2.22265,0.0937c1.11719,0 1.8125,-0.03253 2.08594,-0.0976c0.1302,-0.03126 0.21354,-0.10419 0.25,-0.21875c0.04426,-0.13021 0.07943,-0.4336 0.10547,-0.91016l0.86328,0.26563c-0.02866,0.51302 -0.07034,0.86458 -0.125,1.05468c-0.07031,0.2474 -0.20052,0.41537 -0.39062,0.50391c-0.13542,0.06247 -0.32292,0.10153 -0.5625,0.11719c-0.61719,0.04426 -1.42318,0.0664 -2.41797,0.0664c-1.39324,0 -2.22136,-0.02473 -2.48438,-0.0742c-0.29687,-0.05466 -0.48828,-0.18488 -0.57422,-0.39062c-0.04167,-0.10416 -0.0625,-0.23437 -0.0625,-0.39063v-4.01171l-0.0391,0.0312c-0.1198,0.08594 -0.26172,0.18098 -0.42578,0.28515l-0.53516,-0.64844c0.92969,-0.51041 1.71615,-1.23827 2.35938,-2.18359l0.54687,0.375h2.22266l0.41406,0.42969c-0.34375,0.48698 -0.70312,0.92578 -1.07812,1.3164h2.5039v2.59766zM319.53442,191.5946h1.67969v-1.1836h-1.67969zM322.05396,190.411v1.1836h1.71484v-1.1836zM321.14771,189.69225c0.33594,-0.35156 0.62239,-0.69661 0.85937,-1.03515h-1.80469c-0.28906,0.35416 -0.63281,0.69922 -1.03125,1.03515zM329.40552,191.33288c-0.08074,0.84896 -0.26432,1.53125 -0.55078,2.04687c-0.42969,0.77865 -1.16797,1.37631 -2.21485,1.79297l-0.55078,-0.73047c0.72136,-0.21354 1.29166,-0.57682 1.71094,-1.08984c0.38802,-0.47396 0.625,-1.14713 0.71094,-2.01953h-1.36719v-0.5625c-0.28646,0.29427 -0.60677,0.57292 -0.96094,0.83594l-0.55859,-0.67578c1.14063,-0.78646 1.95183,-1.88542 2.43359,-3.29688l0.83203,0.29688c-0.35417,0.98438 -0.86849,1.85938 -1.54297,2.625h4.44532c-0.77864,-0.73698 -1.42708,-1.62501 -1.94532,-2.66407l0.79297,-0.32031c0.65105,1.32813 1.55209,2.34376 2.70313,3.04688l-0.51953,0.76953c-0.34896,-0.2474 -0.65365,-0.48829 -0.91407,-0.72266l-0.004,0.16016c-0.03127,1.35156 -0.09897,2.43098 -0.20313,3.23828c-0.05466,0.42708 -0.17706,0.70703 -0.36718,0.83984c-0.16928,0.1198 -0.46615,0.17969 -0.89063,0.17969c-0.32031,0 -0.71614,-0.01564 -1.1875,-0.0469l-0.16016,-0.82421c0.42708,0.05727 0.81381,0.0859 1.16016,0.0859c0.20313,0 0.33855,-0.02864 0.40625,-0.0859c0.0677,-0.05727 0.12109,-0.20831 0.16016,-0.45313c0.09636,-0.58073 0.15495,-1.38932 0.17578,-2.42578zM338.57739,187.77038h0.8711v1.76953h1.49609v0.79297h-1.49609v0.64062c0,0.8776 -0.03776,1.50522 -0.11328,1.88282c-0.19011,0.95573 -0.83464,1.66666 -1.9336,2.13281l-0.52734,-0.67188c0.68489,-0.3099 1.14844,-0.69791 1.39062,-1.16406c0.15625,-0.3073 0.25261,-0.71615 0.28907,-1.22656c0.0156,-0.24219 0.0234,-0.54687 0.0234,-0.91406v-0.67969h-2.59375v-0.79297h2.59375zM334.42114,194.73913c-0.1276,-0.98177 -0.1914,-2.05599 -0.1914,-3.22266c0,-1.23698 0.07292,-2.44791 0.21875,-3.63281l0.84765,0.0781c-0.13542,1.23698 -0.20312,2.41535 -0.20312,3.53515c0,1.13802 0.0625,2.17839 0.1875,3.1211zM342.28833,187.89929h0.92188v4.65625c0,0.98176 0.51563,1.47265 1.54687,1.47265c0.67969,0 1.23698,-0.3138 1.67188,-0.9414c0.28125,-0.40365 0.53385,-1.02865 0.75781,-1.875l0.79297,0.48046c-0.26562,0.9401 -0.58464,1.64323 -0.95703,2.10938c-0.58594,0.72656 -1.34766,1.08984 -2.28516,1.08984c-0.97917,0 -1.66927,-0.30209 -2.07031,-0.90625c-0.25261,-0.3776 -0.37891,-0.86458 -0.37891,-1.46093zM348.78442,188.96179h1.82422c0.07292,-0.32292 0.15496,-0.74089 0.2461,-1.25391l0.88281,0.10937c-0.07812,0.40365 -0.16146,0.78516 -0.25,1.14454h2.60156v0.77734h-2.78515c-0.52083,2.08073 -1.09635,3.80598 -1.72657,5.17578l-0.86328,-0.30469c0.6849,-1.51823 1.25522,-3.14193 1.71094,-4.87109h-1.64063zM355.69849,194.70788c-0.42188,0.05466 -0.89584,0.082 -1.42188,0.082c-0.85156,0 -1.49479,-0.07291 -1.92969,-0.21875c-0.16667,-0.05727 -0.3086,-0.138 -0.42578,-0.24219c-0.22917,-0.20834 -0.34375,-0.47395 -0.34375,-0.79687c0,-0.33074 0.10677,-0.6224 0.32032,-0.875l0.69531,0.41015c-0.08074,0.10156 -0.1211,0.21354 -0.1211,0.33594c0,0.21094 0.09635,0.34766 0.28907,0.41016c0.29426,0.09375 0.71353,0.14062 1.25781,0.14062c0.52864,0 1.05599,-0.03906 1.58203,-0.11718zM352.03442,190.83679c1.02083,-0.1172 2.13802,-0.1797 3.35157,-0.1875l0.0391,0.79296c-1.19011,0.00534 -2.28256,0.06133 -3.27734,0.16797zM357.10474,187.93835h0.91015v5.85547c0.48698,-0.15625 0.92058,-0.33725 1.30078,-0.54297c1.06772,-0.57552 1.95443,-1.30859 2.66016,-2.19922c0.20833,-0.26302 0.40756,-0.5651 0.59766,-0.90625l0.57812,0.81641c-0.54167,0.84114 -1.22526,1.57551 -2.05078,2.20312c-1.0052,0.76302 -2.15104,1.32813 -3.4375,1.69531l-0.55859,-0.54687zM363.56177,192.99694c0.9401,-1.21615 1.72916,-2.59766 2.36719,-4.14453h0.96093c0.95052,1.63281 2.22787,3.2487 3.83203,4.84766l-0.55078,0.76562c-1.3125,-1.28906 -2.55599,-2.85156 -3.73047,-4.6875h-0.0312c-0.70572,1.59375 -1.42318,2.87371 -2.15234,3.83985zM368.89771,190.25085c-0.16667,-0.4349 -0.43359,-0.91537 -0.80079,-1.44141l0.61719,-0.22265c0.32552,0.45312 0.59505,0.92317 0.8086,1.41015zM370.0188,189.9071c-0.22136,-0.53646 -0.48308,-1.01953 -0.78516,-1.44922l0.57422,-0.19141c0.30469,0.36459 0.56901,0.81771 0.79297,1.35938zM373.01489,188.18054h0.87891v1.42187c0,1.36198 -0.10156,2.35678 -0.30469,2.98438c-0.26822,0.83073 -0.83072,1.52343 -1.6875,2.07812l-0.59765,-0.69531c0.59375,-0.41666 1.01172,-0.84896 1.2539,-1.29688c0.20313,-0.3776 0.33724,-0.88411 0.40235,-1.51953c0.03647,-0.35937 0.0547,-0.87109 0.0547,-1.53515zM375.01489,187.95397h0.87891v5.55078c0.51822,-0.26823 0.97265,-0.64973 1.36328,-1.14453c0.42708,-0.54166 0.7461,-1.18359 0.95703,-1.92578l0.6875,0.66406c-0.26042,0.77344 -0.61719,1.43359 -1.07031,1.98047c-0.57031,0.6901 -1.31771,1.23307 -2.24219,1.62891l-0.57422,-0.49609zM379.97583,194.83679c-0.09896,-0.88542 -0.14844,-1.76563 -0.14844,-2.64063c0,-1.5 0.11068,-2.92448 0.33203,-4.27344l0.85938,0.0899c-0.21094,1.16666 -0.31641,2.48307 -0.31641,3.94922c0,0.98438 0.05469,1.90494 0.16407,2.76171zM382.31958,188.64929h3.75391v0.83203h-3.75391zM386.33911,194.35632c-0.52083,0.08073 -1.13933,0.12109 -1.85547,0.12109c-1.79948,0 -2.69922,-0.52864 -2.69922,-1.58594c0,-0.41926 0.11198,-0.78515 0.33594,-1.09765l0.73828,0.32812c-0.14062,0.19792 -0.21093,0.42057 -0.21093,0.66797c0,0.30469 0.15235,0.51433 0.45703,0.62891c0.33854,0.1302 0.80078,0.19531 1.38672,0.19531c0.63281,0 1.21875,-0.04166 1.75781,-0.125z" fill-opacity="0.92" fill="#ffffff"/><path d="M249.2688,203.65241c-0.48437,0.32813 -0.95573,0.57682 -1.41406,0.74609l-0.53516,-0.60156c1.2474,-0.42187 2.15104,-1.00391 2.71094,-1.74609l0.79297,0.19531c-0.11198,0.14584 -0.22396,0.27604 -0.33594,0.39063h2.69531l0.4961,0.41796c-0.39584,0.47656 -0.95704,0.96485 -1.6836,1.46485c0.8177,0.27604 1.75261,0.48567 2.80469,0.6289l-0.44141,0.81641c-1.23958,-0.23698 -2.30077,-0.5612 -3.18359,-0.97266c-0.98958,0.48438 -2.13411,0.81902 -3.43359,1.00391l-0.39063,-0.74219c1.02865,-0.08073 2.04428,-0.3125 3.04688,-0.69531l-0.043,-0.0273c-0.41146,-0.27344 -0.77344,-0.56641 -1.08594,-0.87891zM249.90942,203.28522c0.34636,0.32031 0.78647,0.61719 1.32032,0.89063c0.55728,-0.32031 0.94921,-0.61719 1.17578,-0.89063zM251.39771,199.08991h3.24218v0.67969h-2.26562v1.75c0,0.2552 -0.06901,0.42969 -0.20703,0.52344c-0.11459,0.07812 -0.30599,0.11718 -0.57422,0.11718c-0.2526,0 -0.52605,-0.02084 -0.82031,-0.0625l-0.10157,-0.67968c0.28386,0.04686 0.52214,0.0703 0.71485,0.0703c0.07552,0 0.11979,-0.01694 0.13281,-0.0508c0.0104,-0.02346 0.0156,-0.06253 0.0156,-0.11719v-1.55078h-1.00781c0,0.5677 -0.0638,1.01302 -0.1914,1.33594c-0.22396,0.5703 -0.65105,0.97785 -1.28125,1.22265l-0.58985,-0.54297c0.48698,-0.1901 0.8164,-0.43489 0.98828,-0.73437c0.09896,-0.17187 0.16797,-0.3776 0.20703,-0.61719c0.02346,-0.14062 0.0404,-0.36198 0.0508,-0.66406h-2.36719v-0.67969h3.19922v-0.71875h0.85547zM254.03833,201.99616c-0.38542,-0.58073 -0.83073,-1.1224 -1.33594,-1.625l0.64063,-0.43359c0.4948,0.42708 0.94531,0.9375 1.35156,1.53125zM247.16724,201.43366c0.53385,-0.40885 0.92838,-0.88281 1.18359,-1.42187l0.72656,0.26953c-0.36198,0.7474 -0.82552,1.32682 -1.39062,1.73828zM259.85083,200.63679c-0.02607,0.47656 -0.09378,0.85286 -0.20312,1.1289c-0.1172,0.29166 -0.32553,0.54948 -0.625,0.77344l-0.39844,-0.41016v0.76172h-0.71875v-2.33594l-0.375,-0.41015v0.44531h-0.625v1.26563c0.16667,-0.06513 0.38021,-0.15107 0.64062,-0.25782l0.0781,0.74219c-0.19792,0.09375 -0.4375,0.20182 -0.71875,0.32422v2.60937c0,0.23438 -0.04167,0.40235 -0.125,0.50391c-0.09896,0.11719 -0.29037,0.17578 -0.57422,0.17578c-0.28125,0 -0.53906,-0.02604 -0.77344,-0.0781l-0.15234,-0.77735l0.14062,0.0195c0.23958,0.03126 0.41146,0.0469 0.51563,0.0469c0.08593,0 0.13671,-0.02084 0.15234,-0.0625c0.0104,-0.02606 0.0156,-0.06643 0.0156,-0.12109v-1.9961c-0.29427,0.10677 -0.55339,0.19661 -0.77735,0.26953l-0.23828,-0.79297c0.37761,-0.10937 0.71615,-0.21484 1.01563,-0.3164v-1.55469h-0.90235v-0.77734h0.90235v-1.44141h0.80078v1.44141h0.625v0.22265c0.5625,-0.38541 1.02344,-0.93489 1.38281,-1.64843l0.50781,0.3125h1.65235l0.41015,0.32812c-0.2526,0.3802 -0.49478,0.70572 -0.72656,0.97656h1.48438v2.88672h-0.74219v-0.65234h-0.73828c-0.34114,0 -0.51172,-0.17057 -0.51172,-0.51172v-1.08984zM259.20239,200.63679h-0.57812v1.3789c0.2526,-0.1875 0.41797,-0.4375 0.49609,-0.75c0.04687,-0.1823 0.0742,-0.39193 0.082,-0.6289zM259.97192,200.00397c0.22657,-0.27865 0.38802,-0.50261 0.48438,-0.67187h-1.28516c-0.14583,0.21354 -0.33203,0.4375 -0.55859,0.67187zM260.88989,200.63679v0.89453c0,0.06513 0.03124,0.0977 0.0937,0.0977h0.51563v-0.99218zM259.45239,203.89069h-2.17187v-0.67969h2.34375v-0.70312h0.78515v0.70312h2.39063v0.67969h-2.18359c0.40364,0.59635 1.16145,1.02864 2.27343,1.29688l-0.4414,0.71875c-1.16146,-0.28385 -1.95182,-0.82942 -2.3711,-1.63672c-0.23437,0.53385 -0.625,0.95182 -1.17187,1.2539c-0.34896,0.19271 -0.79687,0.35027 -1.34375,0.47266l-0.39453,-0.67187c0.57552,-0.10938 1.02994,-0.25782 1.36328,-0.44532c0.39844,-0.22395 0.70573,-0.55338 0.92187,-0.98828zM263.96802,198.69929h0.92187v4.65625c0,0.98176 0.51563,1.47265 1.54688,1.47265c0.67969,0 1.23698,-0.3138 1.67187,-0.9414c0.28125,-0.40365 0.53386,-1.02865 0.75782,-1.875l0.79296,0.48046c-0.26562,0.9401 -0.58463,1.64324 -0.95703,2.10938c-0.58594,0.72656 -1.34765,1.08984 -2.28515,1.08984c-0.97917,0 -1.66927,-0.30209 -2.07032,-0.90625c-0.2526,-0.3776 -0.3789,-0.86458 -0.3789,-1.46093zM273.60083,198.55475h0.86328v0.98438h2.45703v0.74219h-2.45703v0.92968h2.32031v0.73438h-2.32031v1.20703c0.92708,0.3125 1.84115,0.78256 2.74219,1.41016l-0.46094,0.74218c-0.6823,-0.51041 -1.44271,-0.96093 -2.28125,-1.35156c-0.0208,0.44531 -0.10674,0.79036 -0.25781,1.03516c-0.26302,0.42448 -0.78125,0.63672 -1.55469,0.63672c-0.59636,0 -1.07552,-0.11198 -1.4375,-0.33594c-0.40364,-0.25 -0.60547,-0.58855 -0.60547,-1.01563c0,-0.51041 0.27214,-0.88801 0.81641,-1.13281c0.36458,-0.16146 0.83854,-0.24219 1.42187,-0.24219c0.22917,0 0.48047,0.01824 0.75391,0.0547v-1.00781h-2.76953v-0.73438h2.76953v-0.92968h-2.9375v-0.74219h2.9375zM273.60083,203.67975c-0.30989,-0.06513 -0.60676,-0.0977 -0.89062,-0.0977c-0.34636,0 -0.62761,0.05078 -0.84375,0.15234c-0.25782,0.1224 -0.38672,0.29688 -0.38672,0.52344c0,0.1901 0.10026,0.34376 0.30078,0.46094c0.20312,0.11979 0.47396,0.17968 0.8125,0.17968c0.40104,0 0.67708,-0.10677 0.82812,-0.32031c0.1198,-0.16666 0.17969,-0.41536 0.17969,-0.74609zM281.8938,198.53132h0.87891v1.07812h2.30468v0.75391h-2.30468v1.67187c0.09114,0.32031 0.13671,0.60547 0.13671,0.85547c0,0.92709 -0.20443,1.60807 -0.61328,2.04297c-0.44531,0.47656 -1.11588,0.80598 -2.01172,0.98828l-0.44531,-0.66406c0.69531,-0.13281 1.21094,-0.32031 1.54688,-0.5625c0.3151,-0.22916 0.52734,-0.54037 0.63672,-0.93359c-0.27864,0.30469 -0.61068,0.45703 -0.9961,0.45703c-0.4323,0 -0.78256,-0.12239 -1.05078,-0.36719c-0.31511,-0.28906 -0.47266,-0.70833 -0.47266,-1.25781c0,-0.28906 0.06901,-0.56771 0.20704,-0.83594c0.09114,-0.17187 0.20312,-0.3151 0.33593,-0.42969c0.3073,-0.26041 0.67579,-0.39062 1.10547,-0.39062c0.27344,0 0.52083,0.06511 0.74219,0.19531v-0.76953h-3.85547v-0.75391h3.85547zM281.925,202.586v-0.14453c0,-0.16666 -0.03907,-0.3138 -0.11719,-0.4414c-0.14583,-0.23959 -0.35677,-0.35938 -0.63281,-0.35938c-0.14062,0 -0.27214,0.03906 -0.39453,0.11719c-0.28646,0.17969 -0.42969,0.45572 -0.42969,0.82812c0,0.23438 0.05208,0.4323 0.15625,0.59375c0.14583,0.22396 0.36067,0.33594 0.64453,0.33594c0.25782,0 0.46224,-0.11589 0.61328,-0.34765c0.10678,-0.16406 0.16016,-0.35808 0.16016,-0.58204zM287.26875,203.12116c0.20834,0 0.40886,0.04948 0.60156,0.14844c0.21354,0.10676 0.38672,0.26172 0.51953,0.46484c0.14584,0.22656 0.21875,0.47136 0.21875,0.73438c0,0.3151 -0.10286,0.59765 -0.30859,0.84765c-0.26822,0.33074 -0.61458,0.4961 -1.03906,0.4961c-0.16407,0 -0.32423,-0.02993 -0.48047,-0.0898c-0.23437,-0.09375 -0.42708,-0.23958 -0.57813,-0.4375c-0.1875,-0.24479 -0.28125,-0.51952 -0.28125,-0.82422c0,-0.1849 0.04037,-0.36588 0.1211,-0.54296c0.17188,-0.38281 0.45963,-0.63152 0.86328,-0.7461c0.1198,-0.03386 0.24089,-0.0508 0.36328,-0.0508zM287.26075,203.73835c-0.17708,0 -0.33594,0.0638 -0.47657,0.1914c-0.16406,0.14324 -0.24609,0.32292 -0.24609,0.53907c0,0.08594 0.01563,0.17057 0.0469,0.2539c0.04947,0.1224 0.12629,0.22526 0.23046,0.3086c0.13542,0.10938 0.28647,0.16406 0.45313,0.16406c0.13021,0 0.25391,-0.03646 0.37109,-0.10938c0.23438,-0.14584 0.35157,-0.35156 0.35157,-0.61718c0,-0.11459 -0.02864,-0.22656 -0.0859,-0.33594c-0.14062,-0.26302 -0.35547,-0.39453 -0.64453,-0.39453z" fill-opacity="0.92" fill="#ffffff"/><path d="M248.2688,209.99538h4.77734v0.84766h-4.77734zM253.63208,216.00319c-0.84114,0.1276 -1.73437,0.19141 -2.67969,0.19141c-0.97135,0 -1.7513,-0.09115 -2.33984,-0.27344c-0.22916,-0.07031 -0.44141,-0.18229 -0.63672,-0.33594c-0.29948,-0.23958 -0.44922,-0.57161 -0.44922,-0.99609c0,-0.53385 0.20573,-1.0013 0.61719,-1.40234l0.67969,0.44921c-0.25,0.29427 -0.375,0.57162 -0.375,0.83204c0,0.29166 0.17578,0.49869 0.52734,0.62109c0.1875,0.0677 0.48568,0.1224 0.89453,0.16406c0.33854,0.03646 0.6888,0.0547 1.05078,0.0547c0.91406,0 1.77735,-0.06641 2.58985,-0.19922zM256.11255,209.34694h0.86328v2.20703c0.6198,-0.64323 1.11589,-1.08463 1.48828,-1.32422c0.34636,-0.22395 0.70573,-0.33593 1.07813,-0.33593c0.375,0 0.67708,0.10546 0.90625,0.3164c0.30208,0.28125 0.45312,0.64974 0.45312,1.10547c0,0.1198 -0.01563,0.27865 -0.0469,0.47656c-0.22917,1.45574 -0.34375,2.46354 -0.34375,3.02344c0,0.23959 0.06119,0.35938 0.18359,0.35938c0.07813,0 0.18099,-0.04427 0.30859,-0.13282c0.26824,-0.1849 0.53906,-0.48827 0.8125,-0.91015l0.32032,0.89453c-0.16667,0.26563 -0.3737,0.50131 -0.6211,0.70703c-0.28645,0.23959 -0.59244,0.35938 -0.91797,0.35938c-0.30989,0 -0.55077,-0.10807 -0.72265,-0.32422c-0.14583,-0.1849 -0.21875,-0.49349 -0.21875,-0.92578c0,-0.32812 0.04296,-0.82162 0.1289,-1.48047c0.10938,-0.82812 0.1823,-1.44271 0.21875,-1.84375c0.00534,-0.06513 0.008,-0.11983 0.008,-0.16407c0,-0.22916 -0.04818,-0.40494 -0.14453,-0.52734c-0.09114,-0.11719 -0.21745,-0.17578 -0.37891,-0.17578c-0.54428,0 -1.38151,0.72526 -2.51172,2.17578v3.6875h-0.86328v-2.70312c-0.4349,0.60938 -0.83594,1.1849 -1.20313,1.72656l-0.40625,-0.92578c0.61719,-0.7474 1.15366,-1.45964 1.60938,-2.13672v-0.99219h-1.37109v-0.78516h1.37109zM267.40942,209.46022h0.85547v1.41407h1.59375v0.77734h-1.59375v2.39844c0.61719,0.28385 1.22787,0.68229 1.83203,1.19531l-0.4375,0.77344c-0.51042,-0.44531 -0.97786,-0.79948 -1.40234,-1.0625c-0.04687,0.63802 -0.27343,1.0651 -0.67969,1.28125c-0.22656,0.11979 -0.53646,0.17968 -0.92968,0.17968c-0.42708,0 -0.79818,-0.07682 -1.11329,-0.23046c-0.47656,-0.23177 -0.71484,-0.61719 -0.71484,-1.15625c0,-0.42448 0.18099,-0.76172 0.54297,-1.01172c0.33072,-0.22916 0.7552,-0.34375 1.27344,-0.34375c0.23698,0 0.49479,0.02993 0.77343,0.0898v-2.11328h-2.51171v-0.77734h2.51171zM267.40942,214.52272c-0.30469,-0.09635 -0.57552,-0.14453 -0.8125,-0.14453c-0.22656,0 -0.41926,0.03516 -0.57812,0.10547c-0.25,0.10677 -0.375,0.28126 -0.375,0.52344c0,0.19791 0.09114,0.35286 0.27344,0.46484c0.17708,0.10938 0.41406,0.16406 0.71093,0.16406c0.52083,0 0.78125,-0.29296 0.78125,-0.8789zM263.16724,216.40163c-0.09114,-0.85937 -0.13672,-1.76302 -0.13672,-2.71094c0,-1.47916 0.09895,-2.88932 0.29687,-4.23047l0.85938,0.125c-0.19531,1.15625 -0.29297,2.40625 -0.29297,3.75c0,0.98698 0.04948,1.96485 0.14844,2.9336zM272.5188,209.8196h4.89844v0.70312h-5.30078c-0.29688,0.44531 -0.63672,0.83724 -1.01954,1.17578l-0.64843,-0.59765c0.65364,-0.51302 1.12239,-1.16927 1.40625,-1.96875l0.90625,0.15234c-0.07031,0.17188 -0.15105,0.35026 -0.24219,0.53516zM276.74536,212.08132v0.10547c0,1.3802 0.08855,2.3724 0.26563,2.97656c0.07552,0.26041 0.13281,0.39062 0.17187,0.39062c0.02346,0 0.05603,-0.06901 0.0977,-0.20703c0.07292,-0.2448 0.12369,-0.5625 0.15234,-0.95312l0.75,0.55859c-0.08854,0.59375 -0.18359,1.01302 -0.28515,1.25781c-0.15105,0.36459 -0.35417,0.54688 -0.60938,0.54688c-0.21875,0 -0.4388,-0.13021 -0.66016,-0.39063c-0.26042,-0.30469 -0.44921,-0.75521 -0.5664,-1.35156c-0.10937,-0.54948 -0.17318,-1.26302 -0.19141,-2.14062v-0.0977h-5.13281v-0.69531zM272.90161,214.77272c-0.51302,-0.32031 -1.0638,-0.61459 -1.65234,-0.88281l0.55859,-0.57422c0.61458,0.27865 1.16406,0.56511 1.64844,0.85938c0.28906,-0.36459 0.54036,-0.75782 0.75391,-1.17969l0.79687,0.32031c-0.2448,0.49219 -0.52084,0.92839 -0.82812,1.3086c0.45833,0.29688 0.92448,0.63411 1.39843,1.01171l-0.57031,0.66407c-0.46875,-0.39062 -0.93359,-0.7448 -1.39453,-1.0625c-0.65364,0.61719 -1.45183,1.09374 -2.39453,1.42968l-0.55469,-0.64843c0.92448,-0.29688 1.67058,-0.71225 2.23828,-1.2461zM271.88989,210.99538h4.71094v0.625h-4.71094zM282.85474,213.83522c0.03647,0.04166 0.0612,0.0703 0.0742,0.0859c0.66406,-0.30208 1.30077,-0.68229 1.91015,-1.14062l0.6211,0.55468c-0.65625,0.41406 -1.33464,0.76953 -2.03516,1.06641c0.67708,0.5677 1.54817,0.97916 2.61328,1.23437l-0.49609,0.76563c-0.9948,-0.35416 -1.78646,-0.84506 -2.375,-1.47266c0.0104,0.11198 0.0156,0.21745 0.0156,0.31641c0,1.01302 -0.33594,1.51953 -1.00781,1.51953c-0.26302,0 -0.57552,-0.02214 -0.9375,-0.0664l-0.16797,-0.71875c0.36198,0.06247 0.64584,0.0937 0.85156,0.0937c0.17448,0 0.29037,-0.07682 0.34766,-0.23046c0.0677,-0.17709 0.10156,-0.4349 0.10156,-0.77344c0,-0.0677 -0.0039,-0.14192 -0.0117,-0.22266c-0.98958,0.78125 -2.10676,1.36459 -3.35156,1.75l-0.47266,-0.64844c0.98178,-0.24479 1.90104,-0.61849 2.75782,-1.12109c0.35156,-0.20573 0.65885,-0.41406 0.92187,-0.625c-0.02607,-0.0677 -0.05992,-0.14453 -0.10156,-0.23047c-0.94011,0.60677 -1.98047,1.0651 -3.12109,1.375l-0.39844,-0.63672c1.28906,-0.27604 2.36458,-0.68229 3.22656,-1.21875c-0.03647,-0.04946 -0.08204,-0.10416 -0.13672,-0.16406c-0.85937,0.32813 -1.6875,0.57552 -2.48437,0.74219l-0.44532,-0.625c1.03125,-0.15625 2.00781,-0.40365 2.92969,-0.74219h-2.4414v-1.49219c-0.07031,0.03386 -0.17709,0.08465 -0.32032,0.15235l-0.45703,-0.58594c0.91146,-0.35416 1.69792,-0.89453 2.35938,-1.62109l0.52734,0.35937h2.26953l0.33594,0.32813c-0.28386,0.33854 -0.58985,0.64192 -0.91797,0.91015h2.48828v1.94922h-2.42187c-0.26302,0.1276 -0.51823,0.24609 -0.76563,0.35547c0.20833,0.23177 0.38021,0.49089 0.51563,0.77734zM282.08911,210.75319c0.32552,-0.26823 0.54817,-0.47786 0.66797,-0.6289h-1.90625c-0.27604,0.22656 -0.55729,0.43619 -0.84375,0.6289zM280.10474,211.35475v0.7461h1.84765v-0.7461zM284.67114,212.10085v-0.7461h-1.90625v0.7461zM290.78052,210.20241h3.09765v0.76953h-5.96484v1.42578c0,1.17448 -0.06511,2.09766 -0.19531,2.76953c-0.11198,0.57292 -0.30078,1.09506 -0.56641,1.56641l-0.70312,-0.65625c0.24478,-0.46875 0.40754,-1.02603 0.48828,-1.67187c0.06507,-0.52865 0.0976,-1.22006 0.0976,-2.07422v-2.12891h2.85547v-1.03125h0.89063zM291.53442,212.90163v3.07031c0,0.30469 -0.08073,0.51692 -0.24218,0.63672c-0.13281,0.09635 -0.35417,0.14453 -0.66407,0.14453c-0.44531,0 -0.88411,-0.02604 -1.3164,-0.0781l-0.13672,-0.82422c0.47136,0.07031 0.89713,0.10547 1.27734,0.10547c0.09636,0 0.15495,-0.02343 0.17578,-0.0703c0.013,-0.03386 0.0195,-0.09116 0.0195,-0.17187v-2.8125h-2.41016v-0.76953h5.82031v0.76953zM298.67505,215.58522c1.52864,-0.38541 2.29297,-1.26171 2.29297,-2.6289c0,-0.59635 -0.15364,-1.10937 -0.46094,-1.53907c-0.34375,-0.48437 -0.86719,-0.79557 -1.57031,-0.93359c-0.15364,1.20834 -0.36328,2.19791 -0.62891,2.96875c-0.1823,0.53906 -0.40886,1.04818 -0.67969,1.52734c-0.39062,0.6823 -0.83463,1.02344 -1.33203,1.02344c-0.36978,0 -0.69921,-0.16666 -0.98828,-0.5c-0.18489,-0.21094 -0.33464,-0.47004 -0.44922,-0.77734c-0.15104,-0.39844 -0.22656,-0.82683 -0.22656,-1.28516c0,-0.74219 0.20443,-1.42578 0.61328,-2.05078c0.41406,-0.63802 0.95182,-1.10156 1.61328,-1.39062c0.48178,-0.21094 1.01042,-0.31641 1.58594,-0.31641c0.89844,0 1.66146,0.24089 2.28906,0.72266c0.77083,0.59114 1.15625,1.42837 1.15625,2.51171c0,1.8151 -0.91796,2.96615 -2.7539,3.45313zM298.08911,210.45241c-0.46094,0.05206 -0.84635,0.17577 -1.15625,0.37109c-0.19792,0.1276 -0.39453,0.29688 -0.58984,0.50782c-0.54167,0.59895 -0.8125,1.29297 -0.8125,2.08203c0,0.57552 0.11458,1.02604 0.34375,1.35156c0.14063,0.20052 0.27995,0.30078 0.41797,0.30078c0.1875,0 0.39844,-0.20703 0.63281,-0.62109c0.57292,-1.00781 0.96094,-2.33855 1.16406,-3.99219zM305.83911,210.22585v-0.33594h-2.4414v-0.55859h5.76562v0.55859h-2.49219v0.33594h3.23438v1.40234h-0.84766v-0.89844h-2.38672v1.51954h-0.83203v-1.51954h-2.34375v0.89844h-0.83984v-1.40234zM308.60474,215.76882c0.39844,0.15104 0.89583,0.27083 1.49218,0.35937l-0.45703,0.66406c-0.83594,-0.14323 -1.52213,-0.38932 -2.05859,-0.73828c-0.53386,-0.34895 -0.94922,-0.78254 -1.24609,-1.30078h-0.86329v1.20313c0.57553,-0.08074 1.10938,-0.16667 1.60157,-0.25782l0.0547,0.58204c-0.91667,0.21875 -1.96484,0.40885 -3.14453,0.57031l-0.23047,-0.6875c0.40886,-0.04426 0.68881,-0.0755 0.83985,-0.0937l0.0469,-0.008v-1.3086h-0.85547c-0.03647,0.45834 -0.09636,0.82422 -0.17968,1.09766c-0.09896,0.32813 -0.25781,0.63412 -0.47657,0.91797l-0.69531,-0.57422c0.2552,-0.33074 0.41406,-0.71746 0.47656,-1.16016c0.03386,-0.23958 0.0508,-0.53776 0.0508,-0.89453v-1.65625h6.74218v0.51953h-5.90234v1.19922h6.23828v0.55078h-0.88672l0.4961,0.32813c-0.29428,0.24479 -0.64193,0.47395 -1.04297,0.6875zM307.99536,215.46804c0.375,-0.25521 0.67317,-0.4935 0.89453,-0.71485h-1.70703c0.22396,0.28646 0.4948,0.52475 0.8125,0.71485zM303.83911,211.01882h1.66406v0.4414h-1.66406zM303.83911,211.73757h1.66406v0.44922h-1.66406zM307.00708,211.01882h1.71484v0.4414h-1.71484zM307.00708,211.73757h1.71484v0.44922h-1.71484zM304.26489,213.33132h4.86328v0.51172h-4.86328zM314.88989,209.87429h3.0625v0.65625h-1.73437v0.64843h1.625v0.63282h-1.625v1.16406h-3.14453v-1.16406h-1.28125v0.72656c0,1.17969 -0.0625,2.11197 -0.1875,2.79687c-0.09636,0.52084 -0.25261,0.99609 -0.46875,1.42578l-0.71094,-0.5625c0.19792,-0.42969 0.33333,-0.95442 0.40625,-1.57421c0.06513,-0.54427 0.0977,-1.23959 0.0977,-2.08594v-2.66406h3.08984v-0.70313h0.87109zM311.79224,210.53054v0.64843h1.28125v-0.64843zM313.90552,210.53054v0.64843h1.48047v-0.64843zM313.90552,211.81179v0.60546h1.48047v-0.60546zM314.81177,215.91335c-0.75261,0.39063 -1.70833,0.6875 -2.86719,0.89062l-0.40625,-0.71875c1.08854,-0.1302 1.94141,-0.32942 2.55859,-0.59765c-0.52864,-0.38281 -0.98046,-0.83724 -1.35546,-1.36328h-0.53907v-0.67969h4.57422l0.41016,0.34375c-0.38802,0.59635 -0.9414,1.15755 -1.66016,1.68359c0.61719,0.2474 1.45833,0.4297 2.52344,0.54688l-0.45703,0.73828c-1.02083,-0.13802 -1.94792,-0.41927 -2.78125,-0.84375zM313.65161,214.12429c0.31511,0.36979 0.69792,0.69531 1.14844,0.97656c0.50781,-0.32812 0.89974,-0.65365 1.17578,-0.97656zM321.18286,211.81179v-2.53516h0.78516v0.83203h1.28125v0.70313h-1.28125v0.8789c0.34636,-0.05727 0.77083,-0.1367 1.27344,-0.23828l0.0391,0.64844c-0.67969,0.1901 -1.49088,0.35806 -2.4336,0.5039l-0.23046,-0.71484c0.10938,-0.013 0.24869,-0.03124 0.41796,-0.0547zM320.31177,211.88989c0.40625,0.58594 0.60937,1.23828 0.60937,1.95703c0,0.32813 -0.03515,0.57813 -0.10547,0.75c-0.10937,0.26042 -0.36198,0.39063 -0.75781,0.39063c-0.15104,0 -0.29037,-0.01304 -0.41797,-0.0391l-0.18359,-0.76953c0.16406,0.03386 0.30469,0.0508 0.42187,0.0508c0.13022,0 0.21094,-0.03123 0.24219,-0.0937c0.02346,-0.04686 0.0352,-0.1315 0.0352,-0.2539c0,-0.73177 -0.18489,-1.36849 -0.55469,-1.91016c0.17969,-0.4974 0.34505,-1.1224 0.49609,-1.875h-0.67187v6.67578h-0.76953v-7.39453h1.84765l0.41797,0.32813c-0.17448,0.85156 -0.37761,1.57943 -0.60937,2.18359zM324.22974,210.12427c0.47917,-0.17448 0.89583,-0.36979 1.25,-0.58594l0.49609,0.64062c-0.50261,0.24219 -1.08463,0.45313 -1.74609,0.63282v0.69531c0,0.11719 0.03776,0.1875 0.11328,0.21094c0.07552,0.0234 0.23438,0.0351 0.47656,0.0351c0.19531,0 0.32422,-0.01304 0.38672,-0.0391c0.08333,-0.03126 0.13802,-0.12111 0.16406,-0.26953c0.01826,-0.11719 0.0326,-0.30729 0.043,-0.57031l0.71094,0.21484c-0.00266,0.58334 -0.07949,0.95963 -0.23047,1.12891c-0.09375,0.10416 -0.23699,0.16927 -0.42969,0.19531c-0.21614,0.02866 -0.4948,0.043 -0.83594,0.043c-0.5026,0 -0.82812,-0.05469 -0.97656,-0.16407c-0.13281,-0.09635 -0.19922,-0.26432 -0.19922,-0.5039v-2.5625h0.77735zM322.63989,213.06567c0.09896,-0.23698 0.17057,-0.47396 0.21485,-0.71094l0.82422,0.0937c-0.05207,0.16927 -0.1367,0.375 -0.25391,0.61719h2.17578v3.70703h-0.84766v-0.41797h-2.6914v0.41797h-0.83985v-3.70703zM322.06177,213.7063v0.66406h2.6914v-0.66406zM322.06177,214.97973v0.71875h2.6914v-0.71875zM331.08521,212.99536c-0.09896,0.79948 -0.23047,1.44271 -0.39454,1.92969c-0.24478,0.72916 -0.57682,1.33984 -0.99609,1.83203l-0.51953,-0.65625c0.52083,-0.60416 0.88151,-1.47916 1.08203,-2.625c0.08854,-0.51824 0.15235,-1.12761 0.19141,-1.82813c0.02866,-0.5651 0.043,-0.99219 0.043,-1.28125h-0.66797v-0.76953h3.1289l0.39844,0.32813c-0.16928,0.77084 -0.33985,1.43099 -0.51172,1.98047h0.94531c-0.15364,1.15885 -0.45051,2.1224 -0.89062,2.89062c0.375,0.42969 0.82031,0.79817 1.33594,1.10547l-0.51172,0.78906c-0.48178,-0.32812 -0.91537,-0.72396 -1.30078,-1.1875c-0.3724,0.47135 -0.86068,0.91016 -1.46485,1.31641l-0.57031,-0.67188c0.4323,-0.2474 0.77474,-0.49218 1.02734,-0.73437c0.15886,-0.15104 0.32813,-0.34505 0.50782,-0.58203c-0.35938,-0.5573 -0.63672,-1.16927 -0.83203,-1.83594zM331.22974,210.72973c0.1901,1.36459 0.569,2.48829 1.13672,3.3711c0.21614,-0.4427 0.38281,-0.92838 0.5,-1.45703h-1.08204c0.2448,-0.67969 0.46094,-1.43881 0.64844,-2.27735h-1.19922c0,0.11719 -0.00134,0.23828 -0.004,0.36328zM327.62427,212.10473c-0.33854,-0.47656 -0.71484,-0.91536 -1.12891,-1.3164l0.48047,-0.5586c0.05466,0.05206 0.10935,0.10546 0.16406,0.16016l0.0508,0.0508c0.28386,-0.39844 0.54558,-0.83723 0.78516,-1.3164l0.70313,0.39062c-0.29167,0.46875 -0.63932,0.94402 -1.04297,1.42578c0.20312,0.2526 0.35676,0.45052 0.46093,0.59375c0.39844,-0.48437 0.77084,-0.98567 1.11719,-1.5039l0.61719,0.44531c-0.54167,0.7474 -1.15364,1.47135 -1.83594,2.17187c0.4427,-0.02866 0.82552,-0.0586 1.14844,-0.0898c-0.07031,-0.20312 -0.15364,-0.41146 -0.25,-0.625l0.63281,-0.25c0.23438,0.48438 0.43489,1.05599 0.60156,1.71484l-0.65625,0.28516c-0.04426,-0.1823 -0.09244,-0.36328 -0.14453,-0.54297c-0.11978,0.0208 -0.3125,0.04944 -0.57812,0.0859l-0.10156,0.0156v3.53125h-0.78516v-3.4414l-0.0937,0.0117c-0.38281,0.03906 -0.76433,0.0703 -1.14453,0.0937l-0.16016,-0.72657l0.26172,-0.008c0.1198,-0.00534 0.2461,-0.01054 0.37891,-0.0156c0.15886,-0.16927 0.33203,-0.36329 0.51953,-0.58204zM326.49536,215.85864c0.1875,-0.65885 0.30469,-1.34115 0.35156,-2.04687l0.73829,0.0937c-0.03906,0.89323 -0.15625,1.65624 -0.35157,2.28906zM329.08911,215.37036c-0.05466,-0.4948 -0.14841,-0.97136 -0.28125,-1.42969l0.64063,-0.20312c0.13802,0.45573 0.24479,0.89843 0.32031,1.32812zM341.17896,216.20239c-0.77083,0.08073 -1.56771,0.12109 -2.39063,0.12109c-1.21354,0 -2.0638,-0.07682 -2.55078,-0.23046c-0.35417,-0.11198 -0.63412,-0.27865 -0.83984,-0.5c-0.23698,-0.25781 -0.35547,-0.57161 -0.35547,-0.94141c0,-0.48698 0.16667,-0.92448 0.5,-1.3125c0.28386,-0.33073 0.74088,-0.65886 1.37109,-0.98438c-0.35937,-0.80729 -0.68489,-1.72656 -0.97656,-2.75781l0.87109,-0.22656c0.27083,0.98958 0.5573,1.86458 0.85938,2.625c1.0026,-0.46094 2.0664,-0.84506 3.1914,-1.15234l0.26172,0.79296c-1.23437,0.3125 -2.46094,0.75652 -3.67969,1.33204c-0.3776,0.17969 -0.64583,0.32682 -0.80468,0.4414c-0.46614,0.34115 -0.69922,0.72006 -0.69922,1.13672c0,0.36198 0.21614,0.61458 0.64844,0.75781c0.35938,0.11719 1.0026,0.17578 1.92968,0.17578c0.85678,0 1.71485,-0.04948 2.57422,-0.14843zM347.08911,209.4602h0.85547v1.41407h1.59375v0.77734h-1.59375v2.39844c0.61719,0.28385 1.22787,0.68229 1.83203,1.19531l-0.4375,0.77344c-0.51042,-0.44531 -0.97786,-0.79948 -1.40234,-1.0625c-0.04687,0.63802 -0.27343,1.0651 -0.67969,1.28125c-0.22656,0.11979 -0.53645,0.17968 -0.92969,0.17968c-0.42708,0 -0.79817,-0.07682 -1.11328,-0.23046c-0.47656,-0.23177 -0.71484,-0.61719 -0.71484,-1.15625c0,-0.42448 0.18099,-0.76172 0.54297,-1.01172c0.33072,-0.22916 0.75521,-0.34375 1.27343,-0.34375c0.23698,0 0.4948,0.02993 0.77344,0.0898v-2.11328h-2.51172v-0.77734h2.51172zM347.08911,214.5227c-0.30469,-0.09635 -0.57552,-0.14453 -0.8125,-0.14453c-0.22656,0 -0.41926,0.03516 -0.57812,0.10547c-0.25,0.10677 -0.375,0.28125 -0.375,0.52344c0,0.19791 0.09115,0.35286 0.27343,0.46484c0.17708,0.10938 0.41406,0.16406 0.71094,0.16406c0.52083,0 0.78125,-0.29296 0.78125,-0.8789zM342.84692,216.40161c-0.09114,-0.85937 -0.13671,-1.76302 -0.13671,-2.71094c0,-1.47916 0.09895,-2.88932 0.29687,-4.23047l0.85938,0.125c-0.19531,1.15625 -0.29297,2.40625 -0.29297,3.75c0,0.98698 0.04948,1.96485 0.14843,2.9336zM355.78052,212.4602v0.58985h1.55469v0.65625h-1.55469v0.65625h1.97656v0.6875h-7.59766v-0.6875h1.94141v-0.65625h-1.51172v-0.65625h1.51172v-0.58985h-1.24609v-3.05078h6.19922v3.05078zM354.91724,212.4602h-1.96875v0.58985h1.96875zM354.91724,213.7063h-1.96875v0.65625h1.96875zM351.68677,210.01098v0.63282h1.83984v-0.63282zM351.68677,211.2102v0.65625h1.83984v-0.65625zM356.22192,211.86645v-0.65625h-1.8789v0.65625zM356.22192,210.6438v-0.63282h-1.8789v0.63282zM350.15942,216.15552c0.83333,-0.17448 1.63281,-0.51562 2.39844,-1.02344l0.66406,0.44531c-0.76562,0.58594 -1.59765,1.01562 -2.49609,1.28906zM357.12036,216.79614c-0.80208,-0.47135 -1.6263,-0.85547 -2.47265,-1.15234l0.625,-0.51172c0.89322,0.28125 1.72266,0.6276 2.48828,1.03906zM362.81567,211.99536h0.88672v2.14453c0.60938,0.26823 1.23308,0.6224 1.8711,1.0625l-0.44922,0.73047c-0.44792,-0.32812 -0.92188,-0.63281 -1.42188,-0.91406c-0.02866,0.46094 -0.1784,0.8151 -0.44922,1.0625c-0.30208,0.27344 -0.72526,0.41015 -1.26953,0.41015c-0.52604,0 -0.95963,-0.11979 -1.30078,-0.35937c-0.33333,-0.23698 -0.5,-0.56771 -0.5,-0.99219c0,-0.44531 0.20963,-0.80209 0.62891,-1.07031c0.32552,-0.20834 0.74219,-0.3125 1.25,-0.3125c0.23698,0 0.48828,0.02863 0.7539,0.0859zM362.81567,214.6438c-0.30989,-0.10677 -0.60286,-0.16016 -0.8789,-0.16016c-0.27083,0 -0.48828,0.04817 -0.65235,0.14453c-0.21094,0.125 -0.3164,0.29166 -0.3164,0.5c0,0.2552 0.15104,0.44141 0.45312,0.5586c0.15105,0.05727 0.33204,0.0859 0.54297,0.0859c0.33854,0 0.58203,-0.14323 0.73047,-0.42968c0.08072,-0.15365 0.12109,-0.33333 0.12109,-0.53907zM358.62427,210.49927h1.49219c0.13281,-0.45052 0.23958,-0.84766 0.32031,-1.19141l0.85547,0.10547c-0.10417,0.38281 -0.21094,0.74479 -0.32032,1.08594h1.42579v0.78515h-1.67969c-0.46614,1.33594 -1.01302,2.46615 -1.64063,3.39063l-0.72656,-0.41407c0.59375,-0.8802 1.09506,-1.8724 1.50391,-2.97656h-1.23047zM365.14771,212.40161c-0.57812,-0.64323 -1.24219,-1.22916 -1.99219,-1.75781l0.51562,-0.5625c0.7448,0.48176 1.42449,1.04297 2.03907,1.68359zM369.17896,212.75317c-0.26042,0.48698 -0.52735,0.85287 -0.80079,1.09766c-0.23437,0.21094 -0.44922,0.3164 -0.64453,0.3164c-0.25,0 -0.45182,-0.16927 -0.60547,-0.50781c-0.15886,-0.35416 -0.23828,-0.90885 -0.23828,-1.66406c0,-0.76042 0.08855,-1.58464 0.26563,-2.47266l0.85547,0.12891c-0.17188,0.8802 -0.25782,1.62499 -0.25782,2.23437c0,0.82031 0.05859,1.23047 0.17579,1.23047c0.04426,0 0.11978,-0.0625 0.22656,-0.1875c0.16667,-0.1875 0.34245,-0.46354 0.52734,-0.82812zM368.58521,215.81177c0.79947,-0.22396 1.40234,-0.55859 1.80859,-1.00391c0.49739,-0.54427 0.74609,-1.36719 0.74609,-2.46875c0,-0.83594 -0.08073,-1.77475 -0.24218,-2.81641l0.89453,-0.0859c0.17188,1.05208 0.25781,2.03254 0.25781,2.9414c0,1.47396 -0.37891,2.53516 -1.13672,3.1836c-0.46094,0.39584 -1.08203,0.72395 -1.86328,0.98437zM376.80005,209.35473h0.86328v0.98438h2.45703v0.74219h-2.45703v0.92968h2.32031v0.73438h-2.32031v1.20703c0.92708,0.3125 1.84115,0.78256 2.74219,1.41016l-0.46094,0.74218c-0.6823,-0.51041 -1.44271,-0.96094 -2.28125,-1.35156c-0.0208,0.44531 -0.10674,0.79037 -0.25781,1.03516c-0.26302,0.42448 -0.78125,0.63672 -1.55469,0.63672c-0.59636,0 -1.07552,-0.11198 -1.4375,-0.33594c-0.40364,-0.25 -0.60547,-0.58855 -0.60547,-1.01563c0,-0.51041 0.27213,-0.88801 0.81641,-1.13281c0.36458,-0.16146 0.83854,-0.24219 1.42187,-0.24219c0.22917,0 0.48047,0.01824 0.75391,0.0547v-1.00781h-2.76953v-0.73438h2.76953v-0.92968h-2.9375v-0.74219h2.9375zM376.80005,214.47973c-0.30989,-0.06507 -0.60677,-0.0976 -0.89063,-0.0976c-0.34636,0 -0.62761,0.05078 -0.84375,0.15234c-0.25781,0.1224 -0.38671,0.29688 -0.38671,0.52344c0,0.1901 0.10026,0.34375 0.30078,0.46094c0.20312,0.11979 0.47395,0.17968 0.8125,0.17968c0.40104,0 0.67708,-0.10677 0.82812,-0.32031c0.1198,-0.16666 0.17969,-0.41537 0.17969,-0.74609zM385.09302,209.3313h0.8789v1.07812h2.30469v0.75391h-2.30469v1.67187c0.09114,0.32031 0.13672,0.60547 0.13672,0.85547c0,0.92709 -0.20442,1.60808 -0.61328,2.04297c-0.44531,0.47656 -1.11589,0.80598 -2.01172,0.98828l-0.44531,-0.66406c0.69531,-0.13281 1.21094,-0.32031 1.54688,-0.5625c0.3151,-0.22916 0.52734,-0.54037 0.63671,-0.93359c-0.27864,0.30469 -0.61067,0.45703 -0.99609,0.45703c-0.4323,0 -0.78256,-0.12239 -1.05078,-0.36719c-0.31511,-0.28906 -0.47266,-0.70833 -0.47266,-1.25781c0,-0.28906 0.06901,-0.56771 0.20703,-0.83594c0.09114,-0.17187 0.20313,-0.31511 0.33594,-0.42969c0.3073,-0.26041 0.67578,-0.39062 1.10547,-0.39062c0.27344,0 0.52083,0.06511 0.74219,0.19531v-0.76953h-3.85547v-0.75391h3.85547zM385.12422,213.38598v-0.14453c0,-0.16666 -0.03906,-0.3138 -0.11719,-0.4414c-0.14583,-0.23959 -0.35677,-0.35938 -0.63281,-0.35938c-0.14062,0 -0.27213,0.03907 -0.39453,0.11719c-0.28646,0.17969 -0.42969,0.45572 -0.42969,0.82812c0,0.23438 0.05208,0.4323 0.15625,0.59375c0.14583,0.22396 0.36067,0.33594 0.64453,0.33594c0.25781,0 0.46224,-0.11588 0.61328,-0.34765c0.10678,-0.16406 0.16016,-0.35808 0.16016,-0.58204zM390.46797,213.92114c0.20833,0 0.40886,0.04948 0.60156,0.14844c0.21354,0.10676 0.38671,0.26171 0.51953,0.46484c0.14583,0.22656 0.21875,0.47136 0.21875,0.73438c0,0.3151 -0.10287,0.59765 -0.30859,0.84765c-0.26824,0.33074 -0.61459,0.4961 -1.03906,0.4961c-0.16406,0 -0.32422,-0.02997 -0.48047,-0.0899c-0.23438,-0.09375 -0.42709,-0.23958 -0.57813,-0.4375c-0.1875,-0.24479 -0.28125,-0.51952 -0.28125,-0.82422c0,-0.1849 0.04037,-0.36588 0.1211,-0.54296c0.17188,-0.38281 0.45964,-0.63152 0.86328,-0.7461c0.11978,-0.03386 0.24088,-0.0508 0.36328,-0.0508zM390.45997,214.53833c-0.17708,0 -0.33595,0.0638 -0.47657,0.1914c-0.16406,0.14324 -0.24609,0.32292 -0.24609,0.53907c0,0.08594 0.01563,0.17056 0.0469,0.2539c0.04946,0.1224 0.12629,0.22527 0.23047,0.3086c0.13542,0.10938 0.28646,0.16406 0.45313,0.16406c0.1302,0 0.2539,-0.03646 0.37109,-0.10938c0.23438,-0.14584 0.35156,-0.35156 0.35156,-0.61718c0,-0.11459 -0.02864,-0.22656 -0.0859,-0.33594c-0.14062,-0.26302 -0.35547,-0.39453 -0.64453,-0.39453z" fill-opacity="0.92" fill="#ffffff"/></g></g></svg>