<svg xmlns="http://www.w3.org/2000/svg" id="svg1" version="1.1" height="200" width="990">
  <defs id="defs1"></defs>
  <rect id="rect1" stroke="none" fill="none" height="200" width="990" y="0" x="0"></rect>
  <path aria-label="佐賀県北部" style="font-size:100px;font-family:'BIZ UDPGothic';fill:#ff0000" id="text1" d="m 45.068359,117.87109 q -0.390625,0.6836 -1.074218,2.00196 -6.396485,11.91406 -16.455079,21.72851 l -5.029296,-6.00586 q 11.376953,-11.18164 18.896484,-27.63672 3.027344,-6.64062 6.396484,-18.994136 h -18.99414 v -6.982422 h 20.605468 q 1.611329,-7.128906 2.88086,-17.480469 l 7.8125,0.976563 q -1.416016,9.912109 -2.832031,16.503906 h 38.769531 v 6.982422 h -40.38086 q -2.978515,12.158206 -6.933593,21.191406 l -0.439453,1.02539 H 91.40625 v 6.68945 H 69.726562 v 29.54102 h 27.783204 v 7.08008 H 32.714844 v -7.08008 H 61.816406 V 117.87109 Z M 22.216797,88.818359 v 70.703121 h -7.519531 v -54.6875 q -4.052735,7.37305 -9.2773441,14.45313 L 1.4160156,112.01172 Q 10.205078,100.14648 15.869141,85.009766 19.042969,76.464844 22.216797,64.306641 l 7.519531,1.904296 Q 26.220703,78.808594 22.216797,88.818359 Z M 143.01758,76.904297 h -13.23242 q -2.14844,8.105469 -8.88672,13.476562 -5.0293,4.003907 -13.81836,7.03125 l -4.19922,-5.71289 q 7.51953,-2.09961 11.76758,-5.175782 5.07812,-3.662109 7.17773,-9.61914 h -16.74804 v -6.00586 h 17.87109 l 0.63476,-6.396484 h 7.91016 l -0.63477,6.396484 h 19.82422 q -0.73242,14.208985 -2.39257,18.457032 -1.31836,3.466797 -4.44336,4.492187 -1.95313,0.634766 -5.41993,0.634766 -3.61328,0 -9.57031,-0.585938 l -1.07422,-6.103515 q 5.41992,0.927734 8.1543,0.927734 3.17383,0 4.29687,-0.927734 1.61133,-1.31836 2.78321,-10.888672 z m 48.77929,-6.982422 V 93.994141 H 156.34766 V 69.921875 Z m -28.02734,6.103516 v 11.96289 h 20.50781 v -11.96289 z m 21.28906,22.753906 V 142.1875 H 114.89258 V 98.779297 Z m -62.35351,5.615233 v 6.98242 h 54.54101 v -6.98242 z m 0,12.40235 v 6.88476 h 54.54101 v -6.88476 z m 0,12.40234 v 7.27539 h 54.54101 v -7.27539 z m -18.31055,23.87695 q 16.16211,-3.4668 29.39453,-10.49805 l 5.3711,4.93165 q -12.59766,7.56835 -29.78516,12.10937 z m 85.40039,6.34766 q -14.69726,-6.5918 -30.81055,-11.52344 l 4.29688,-5.22461 q 16.69922,4.15039 31.5918,10.40039 z M 282.86133,67.578125 V 114.4043 H 225.78125 V 67.578125 Z m -49.36524,6.005859 v 7.714844 h 41.55274 v -7.714844 z m 0,13.330078 v 7.763672 h 41.55274 v -7.763672 z m 0,13.476568 v 8.30078 h 41.55274 v -8.30078 z M 214.4043,122.2168 h 83.05664 v 6.49414 h -41.99219 v 30.81054 h -7.91016 V 128.71094 H 206.5918 V 74.267578 h 7.8125 z m -9.22852,29.6875 q 12.79297,-6.15235 23.0957,-19.28711 l 6.5918,3.66211 q -10.40039,13.62304 -24.07226,21.72851 z m 84.17969,4.10156 q -10.25391,-11.18164 -23.29102,-19.82422 l 6.00586,-4.49219 q 11.76758,7.37305 23.68164,18.79883 z m 41.25976,-23.19336 q -11.42578,6.25 -25.09765,11.81641 l -3.51563,-7.71485 q 17.33399,-6.15234 28.61328,-11.96289 V 98.535156 h -25.63476 v -7.421875 h 25.63476 V 65.527344 h 8.00782 v 93.212886 h -8.00782 z M 362.01172,97.949219 Q 375,91.845703 387.30469,81.591797 l 6.20117,6.103515 Q 378.36914,98.779297 362.01172,105.9082 v 38.1836 q 0,3.07617 2.24609,3.71093 1.80664,0.53711 10.35156,0.53711 8.05665,0 10.35157,-1.12304 1.66015,-0.83008 2.24609,-4.29688 0.68359,-4.44336 1.07422,-14.84375 l 7.91016,2.73438 q -0.58594,16.01562 -2.2461,19.9707 -1.61133,3.90625 -7.03125,4.88281 -4.63867,0.83008 -13.52539,0.83008 -12.10937,0 -15.42969,-1.5625 -3.95507,-1.85547 -3.95507,-7.91016 V 65.478516 h 8.00781 z m 71.97265,-21.337891 h 21.82618 v 6.787109 h -7.03125 q -2.05078,9.13086 -5.61524,18.701173 h 14.45313 v 6.88477 h -55.12696 v -6.88477 h 13.72071 l -0.0977,-0.48828 Q 414.0625,91.601562 411.71875,84.423828 l -0.3418,-1.025391 h -7.08008 v -6.787109 h 22.2168 V 64.501953 h 7.4707 z m -15.13671,6.787109 q 2.58789,7.958985 4.73632,18.701173 h 12.15821 q 2.92968,-8.105469 5.32226,-18.701173 z m 31.83593,35.888673 v 39.30664 h -7.32422 v -5.51758 h -25.97656 v 6.39649 h -7.56836 v -40.18555 z m -33.30078,6.68945 v 20.3125 h 25.97656 v -20.3125 z m 65.42969,-22.70508 q 12.8418,13.57422 12.8418,29.44336 0,5.56641 -2.00196,8.39844 -2.4414,3.27149 -8.49609,3.27149 -5.81055,0 -10.69336,-0.6836 l -1.61133,-7.61719 q 6.25,1.02539 10.15625,1.02539 3.71094,0 4.39453,-2.49023 0.29297,-1.07422 0.29297,-3.51562 0,-13.72071 -12.64648,-26.70899 5.85937,-12.695311 9.52148,-26.708983 h -15.42969 v 81.787113 h -7.37304 V 70.507812 h 27.49023 l 4.39453,3.808594 q -5.37109,17.382813 -10.83984,28.955074 z"></path>
</svg>
