<svg xmlns="http://www.w3.org/2000/svg" id="svg1" version="1.1" height="200" width="990">
  <defs id="defs1"></defs>
  <rect id="rect1" stroke="none" fill="none" height="200" width="990" y="0" x="0"></rect>
  <path aria-label="天草灘" style="font-size:100px;font-family:'BIZ UDPGothic';fill:#ff0000" id="text1" d="m 55.615234,108.88672 q 4.882813,12.8418 14.111328,22.65625 11.132813,11.91406 27.148438,18.94531 l -5.078125,7.51953 q -30.46875,-15.2832 -40.966797,-42.87109 -8.349609,30.66406 -40.722656,43.75 l -5.2246095,-6.88477 q 17.8222655,-6.20117 28.8574215,-19.28711 9.179688,-10.9375 11.328125,-23.82812 H 9.2773438 v -7.17774 H 45.605469 V 77.880859 H 4.7851562 V 70.800781 H 95.068359 v 7.080078 H 53.710937 v 23.828121 h 37.060547 v 7.17774 z m 97.900386,16.94336 v 8.98437 h 43.84766 v 6.68946 h -43.84766 v 18.01757 h -8.00781 v -18.01757 h -43.01758 v -6.68946 h 43.01758 v -8.98437 H 113.67188 V 89.208984 h 72.4121 V 125.83008 Z M 121.58203,95.214844 v 8.984376 h 56.5918 v -8.984376 z m 0,14.892576 v 9.7168 h 56.5918 v -9.7168 z m 8.00781,-37.207029 V 64.501953 H 137.5 v 8.398438 h 24.07227 v -8.398438 h 8.00781 v 8.398438 h 25.73242 v 6.396484 h -25.73242 v 6.884766 h -8.00781 V 79.296875 H 137.5 v 6.884766 h -7.91016 v -6.884766 h -25 v -6.396484 z m 115.23438,18.310546 v 4.882813 h 13.81836 v 18.4082 h -13.81836 v 5.51758 h 14.9414 v 5.81055 h -14.99023 q -0.14648,3.07617 -0.43945,5.85937 h 18.21289 v 5.71289 H 243.4082 q -0.24414,0.87891 -0.53711,1.9043 9.52149,6.15234 18.16407,13.08594 l -4.58985,5.71289 q -7.32422,-6.68945 -15.91797,-13.13477 -4.78515,9.42383 -16.21093,14.84375 l -4.6875,-5.71289 q 13.42773,-5.27344 16.8457,-16.69922 h -16.06445 v -5.71289 h 17.28515 q 0.43946,-3.125 0.53711,-5.85937 h -14.84375 v -5.81055 h 14.94141 v -5.51758 h -13.72071 v -18.4082 h 13.62305 v -4.882813 h -8.30078 V 79.6875 h -7.51953 v -5.810547 h 7.51953 v -9.375 h 6.49414 v 9.375 h 10.40039 v -9.375 h 6.49414 v 9.375 h 8.83789 V 79.6875 h -8.83789 v 11.523437 z m -6.29883,10.302733 h -7.91016 v 7.76367 h 7.91016 z m 6.10352,0 v 7.76367 h 8.10546 v -7.76367 z m 2.19726,-21.82617 h -10.40039 v 6.298828 h 10.40039 z m 26.02539,3.320312 h 7.22656 q 2.49024,-9.033203 3.95508,-18.115234 l 6.68946,1.318359 q -1.95313,9.570313 -4.54102,16.796875 h 10.9375 v 6.591797 h -10.88867 v 14.697271 h 9.17969 v 6.39648 h -9.17969 v 14.50195 h 9.17969 v 6.49414 h -9.17969 v 16.01563 h 11.8164 v 6.68945 h -25.34179 v 5.07813 h -6.39649 v -57.08008 q -1.5625,3.95508 -3.51562,8.00781 l -3.56445,-6.5918 q 7.4707,-16.650387 10.40039,-39.501949 l 6.98242,0.976562 Q 275,74.609375 273.14453,81.933594 Z m 7.08008,6.591797 h -7.22656 v 14.697271 h 7.22656 z m 0,21.093751 h -7.22656 v 14.50195 h 7.22656 z m -7.22656,20.99609 v 16.01563 h 7.22656 v -16.01563 z m -56.5918,-45.703122 q -5.22461,-7.910156 -12.5,-15.478516 l 5.41992,-4.589843 q 6.5918,6.103515 12.59766,14.794922 z m -2.49023,24.707032 q -6.78711,-9.47266 -12.5,-15.087891 l 5.51757,-4.6875 q 6.73829,6.396484 12.69532,14.599611 z m -11.18164,43.50586 q 6.34765,-13.52539 11.08398,-34.17969 l 6.5918,3.36914 q -3.85742,19.53125 -10.98633,35.79102 z"></path>
</svg>
