<svg xmlns="http://www.w3.org/2000/svg" id="svg1" version="1.1" height="200" width="1096">
  <defs id="defs1"></defs>
  <rect id="rect1" stroke="none" fill="none" height="200" width="1096" y="0" x="0"></rect>
  <path aria-label="鹿児島県大隅地方" style="font-weight:bold;font-size:110px;font-family:'BIZ UDPGothic';fill:#ff0000" id="text1" d="m 28.520508,147.15332 v -32.11914 h 11.225586 v 9.02344 h 20.356445 v 9.23828 H 39.746094 v 12.19238 q 13.21289,-2.14844 21.000976,-3.9209 l 0.322266,9.02344 q -17.724609,5.04883 -40.12207,8.21777 l -3.115235,-10.3125 q 5.747071,-0.64453 10.688477,-1.34277 z M 61.123047,64.868164 h 43.183593 v 9.238281 H 73.691406 v 9.453125 h 26.748044 v 28.19824 H 20.249023 q -0.322265,16.97266 -1.71875,26.47949 -1.772461,12.13868 -7.089843,22.12891 l -9.8828128,-8.00293 q 5.0488281,-9.93652 6.4453125,-23.63281 1.0205078,-10.04395 1.0205078,-27.0166 V 64.868164 H 49.199219 v -8.916016 h 11.923828 z m -40.766602,9.238281 v 9.453125 h 15.952149 v -9.453125 z m 0,18.046875 v 7.734375 3.276365 H 36.308594 V 92.15332 Z m 68.75,11.01074 V 92.15332 H 73.691406 v 11.01074 z M 47.319336,74.106445 v 9.453125 h 15.361328 v -9.453125 z m 0,18.046875 v 11.01074 H 62.680664 V 92.15332 Z m 28.037109,34.10645 q 11.655274,-3.97461 20.141602,-9.23829 l 7.143553,8.70118 q -12.084959,5.9082 -27.285155,10.04394 v 8.16406 q 0,3.22266 1.987305,3.75977 1.665039,0.4834 7.895508,0.4834 7.46582,0 8.754883,-1.55762 1.18164,-1.39648 1.71875,-9.56055 l 0.107421,-1.66504 11.010738,2.95411 q -0.10742,0.69824 -0.32226,3.97461 -0.80566,10.47363 -4.67285,13.53515 -3.813479,3.06153 -19.174807,3.06153 -10.84961,0 -14.448242,-1.61133 -3.97461,-1.82617 -3.97461,-7.8418 V 115.03418 H 75.356445 Z M 206.67969,59.121094 V 112.61719 H 151.03516 V 59.121094 Z m -43.98926,9.667968 v 12.246094 h 32.22656 V 68.789062 Z m 0,21.484375 v 12.890623 h 32.22656 V 90.273437 Z m -38.2959,-33.24707 h 12.40723 v 59.619143 h -12.40723 z m -11.33301,93.725583 q 13.91114,-1.39648 22.61231,-7.8955 5.96191,-4.45801 7.94922,-12.08497 1.12793,-4.40429 1.55761,-12.89062 h 11.87012 q -0.16113,20.1416 -8.75488,29.80957 -8.37891,9.39941 -28.09082,13.42773 z m 58.00782,-33.19336 h 12.08496 v 26.58692 q 0,2.79297 1.77246,3.33008 1.87988,0.59082 7.51953,0.59082 6.06933,0 8.11035,-0.64454 2.14844,-0.69824 2.79297,-4.24316 0.75195,-3.65234 0.91309,-11.22559 l 12.24609,3.54493 q -0.21484,2.04101 -0.64453,7.3584 -0.9668,11.17187 -4.99512,13.96484 -2.25586,1.50391 -6.49902,1.87988 -5.8545,0.4834 -14.34082,0.4834 -11.7627,0 -15.36133,-2.09473 -3.59863,-2.14843 -3.59863,-8.43261 z m 91.52343,-53.442379 q 1.98731,-4.780274 3.22266,-9.130859 l 13.10547,1.77246 q -1.87988,4.458008 -3.4375,7.358399 h 35.77148 v 35.019531 h -64.88281 v 5.424808 h 80.83496 v 8.70117 h -80.83496 v 5.47851 h 77.0752 q -0.69825,24.59961 -3.11524,33.19336 -1.55762,5.47852 -5.85449,7.25098 -3.06152,1.28906 -9.3457,1.28906 -6.44532,0 -12.03125,-0.80566 l -2.14844,-9.02344 h -53.81836 v 5.96192 h -11.54785 v -25.83497 h 11.54785 v 11.06446 h 18.47656 v -14.50196 h -21.1084 V 64.116211 Z m 22.82715,77.719729 v -11.06446 h 11.11817 v 18.69141 q 4.458,0.42969 7.41211,0.42969 3.65234,0 4.56542,-2.09473 1.77247,-3.9209 2.79297,-20.46387 H 267.1582 v 14.50196 z M 246.37207,72.387695 v 5.317383 h 53.0127 v -5.317383 z m 0,12.998047 v 5.854492 h 53.0127 V 85.385742 Z M 422.16797,58.583984 V 110.62988 H 358.25195 V 58.583984 Z m -52.36817,8.486328 v 6.713868 h 40.7129 v -6.713868 z m 0,14.28711 v 6.713867 h 40.7129 v -6.713867 z m 0,14.287109 v 6.928709 h 40.7129 v -6.928709 z m -21.6455,22.128909 h 89.05273 v 9.3457 h -44.41894 v 33.35449 H 380.5957 V 127.11914 H 336.3916 V 66.855469 h 11.7627 z m -13.75,32.4414 q 12.7832,-5.9082 24.43847,-19.81933 l 9.88282,5.74707 q -11.49414,14.55566 -25.5127,22.88086 z m 92.59765,6.92871 q -8.21777,-10.09765 -24.70703,-21.21582 l 9.23828,-6.49902 q 12.94434,7.46582 25.40528,19.60449 z m 75.46387,-62.573238 q 3.70605,12.568358 14.07227,26.748048 12.62207,17.29492 31.04492,27.39258 l -7.68067,11.06445 q -19.49707,-11.49414 -32.54882,-30.4541 -7.03614,-10.3125 -11.2793,-21.00098 -4.24317,14.39453 -13.15918,26.15723 -13.10547,17.40234 -32.3877,25.67383 l -7.57324,-9.8291 q 20.19531,-8.43262 32.60254,-25.9961 10.41992,-14.82422 12.35352,-29.755858 H 445.04883 V 82.915039 h 43.34472 V 57.026367 h 12.40723 v 25.888672 h 44.25781 v 11.655273 z m 64.02344,42.109378 v 23.79394 h -10.7959 V 60.249023 h 28.30566 l 5.3711,4.619141 q -4.4043,17.080078 -10.47364,30.507813 7.51954,11.225583 7.51954,25.190433 0,8.91601 -2.73926,13.05175 -2.57813,3.86719 -9.45313,3.86719 -4.99511,0 -7.73437,-0.80566 z m 0,-10.25879 q 3.06152,0.4834 5.4248,0.4834 2.63184,0 3.4375,-2.47071 0.69824,-2.14843 0.69824,-6.23046 0,-11.22559 -7.03613,-22.236333 5.63965,-13.535156 8.70117,-25.620117 h -11.22558 z m 65.25879,5.53222 q -0.9668,-3.49121 -2.47071,-7.46582 l 6.66016,-2.52441 q 4.18945,9.39941 6.71387,21.75293 l -8.00293,3.4375 q -0.59082,-3.97461 -1.28907,-7.14355 -13.58886,2.73925 -30.18554,4.02832 l -2.09473,-9.77539 q 9.50684,-0.37598 14.17969,-0.75196 0.80566,-0.0537 1.34277,-0.10742 v -13.53516 h -17.72461 v 40.60547 h -10.20508 v -50.05859 h 27.92969 v -7.25098 H 592.75391 V 60.678711 h 56.9873 v 42.485349 h -23.90137 v 7.25098 h 29.05762 v 40.12207 q 0,5.63965 -3.65234,7.57324 -2.57813,1.39649 -7.8418,1.39649 -5.37109,0 -11.38672,-0.80567 l -1.45019,-10.25879 q 1.66504,0.21485 5.80078,0.80567 3.11523,0.42968 5.4248,0.42968 1.82617,0 2.25586,-1.23535 0.26856,-0.69824 0.26856,-2.09472 v -26.4795 h -18.79883 v 12.78321 q 3.33008,-0.37598 6.23047,-0.69825 z M 602.95898,69.702148 v 7.680664 h 13.64258 v -7.680664 z m 0,16.166993 v 8.59375 h 13.64258 v -8.59375 z m 36.52344,8.59375 v -8.59375 h -13.64258 v 8.59375 z m 0,-17.080079 v -7.680664 h -13.64258 v 7.680664 z m 76.80664,22.075196 v 42.539062 q 0,4.13574 3.54492,4.99512 3.65235,0.91308 16.70411,0.91308 12.72949,0 16.81152,-1.28906 2.30957,-0.75195 3.00781,-4.18945 0.91309,-4.83399 0.9668,-11.44043 l 11.22558,3.16894 Q 767.69043,150 764.19922,154.4043 q -2.30957,2.90039 -6.98242,3.4375 -7.3584,0.80566 -24.97559,0.80566 -13.64258,0 -17.88574,-0.75195 -6.3916,-1.07422 -8.11035,-5.63965 -0.85938,-2.41699 -0.85938,-6.44531 v -42.59278 l -10.25879,3.54493 -2.52441,-10.419927 12.7832,-4.404296 V 62.988281 h 10.90332 v 25.19043 l 11.54785,-3.920899 V 55.952148 h 10.7959 v 24.545899 l 17.99317,-6.176758 5.63964,3.4375 v 40.229491 q 0,4.18945 -1.9873,6.23047 -2.25586,2.25586 -7.57324,2.25586 -4.35059,0 -9.23828,-0.75195 l -1.77246,-10.25879 q 3.16894,0.80566 6.44531,0.80566 2.36328,0 2.90039,-0.9668 0.53711,-0.80566 0.53711,-2.68554 V 87.211914 l -12.94434,4.511719 v 43.452147 h -10.7959 V 95.429687 Z M 676.81152,81.894531 V 55.952148 h 11.54785 v 25.942383 h 10.41993 v 10.903321 h -10.41993 v 34.160158 q 5.63965,-1.9336 11.17188,-4.02832 l 1.02051,10.36621 q -17.40235,7.94922 -35.71778,13.32031 l -3.75976,-11.44043 q 8.27148,-2.14844 14.50195,-4.08203 0.75195,-0.26855 1.23535,-0.37598 V 92.797852 H 663.16895 V 81.894531 Z m 145.3418,3.007813 q -0.37598,8.969726 -1.07422,15.791016 h 43.29102 q -0.80567,37.27539 -4.18946,48.39355 -1.71875,5.58594 -6.3916,7.73438 -3.65234,1.66504 -10.68847,1.66504 -7.41211,0 -16.81153,-1.12793 l -2.09472,-12.08496 q 12.62207,1.77246 17.77832,1.77246 4.35058,0 5.53222,-2.4707 2.84668,-6.01563 3.97461,-33.19336 h -31.95801 q -1.77246,9.66796 -4.99511,16.75781 -8.96973,19.60449 -29.97071,31.09863 l -8.48632,-9.45312 q 21.05468,-10.95704 27.82226,-28.73536 4.51172,-11.87011 5.85449,-36.147456 H 774.18945 V 73.891602 h 43.88184 V 55.952148 h 12.40723 v 17.939454 h 45.33203 v 11.010742 z"></path>
</svg>
