<svg xmlns="http://www.w3.org/2000/svg" id="svg1" version="1.1" height="200" width="990">
  <defs id="defs1"></defs>
  <rect id="rect1" stroke="none" fill="none" height="200" width="990" y="0" x="0"></rect>
  <path aria-label="中東" style="font-size:100px;font-family:'BIZ UDPGothic';fill:#ff0000" id="text1" d="M 45.703125,83.59375 V 64.501953 h 7.910156 V 83.59375 h 37.25586 v 49.70703 h -7.910157 v -6.98242 H 53.613281 v 33.20312 H 45.703125 V 126.31836 H 16.894531 v 7.51953 H 8.8867188 V 83.59375 Z M 16.894531,90.917969 V 118.99414 H 45.703125 V 90.917969 Z M 82.958984,118.99414 V 90.917969 H 53.613281 v 28.076171 z m 78.369136,7.61719 q 14.01368,12.84179 36.76758,20.50781 l -4.73633,6.98242 q -10.54687,-3.95508 -18.31054,-8.54492 -12.10938,-7.22656 -21.53321,-18.06641 v 32.03125 h -7.71484 v -31.83593 q -5.76172,7.51953 -14.30664,14.20898 -10.88867,8.49609 -24.31641,13.81836 l -4.78515,-6.29883 q 21.97265,-8.00781 35.79101,-22.80273 H 111.57227 V 87.792969 h 34.22851 v -8.007813 h -41.74805 v -6.591797 h 41.74805 v -8.691406 h 7.71484 v 8.691406 h 42.38282 v 6.591797 h -42.38282 v 8.007813 h 34.76563 V 126.61133 Z M 145.80078,94.091797 h -26.41601 v 9.814453 h 26.41601 z m 7.71484,0 v 9.814453 h 27.05079 v -9.814453 z m -7.71484,15.917973 h -26.41601 v 10.30273 h 26.41601 z m 7.71484,0 v 10.30273 h 27.05079 v -10.30273 z"></path>
</svg>
