<svg xmlns="http://www.w3.org/2000/svg" id="svg1" version="1.1" height="200" width="990">
  <defs id="defs1"></defs>
  <rect id="rect1" stroke="none" fill="none" height="200" width="990" y="0" x="0"></rect>
  <path aria-label="留萌地方中北部" style="font-size:100px;font-family:'BIZ UDPGothic';fill:#ff0000" id="text1" d="m 47.900391,102.34375 -4.785157,3.125 q -1.611328,-3.4668 -2.929687,-6.201172 L 39.892578,98.681641 Q 23.828125,105.66406 7.3242187,110.15625 l -3.3203125,-6.5918 q 2.2949219,-0.48828 5.1757813,-1.2207 L 10.9375,101.9043 8.984375,72.802734 q 16.210937,-2.294922 33.007812,-8.105468 l 5.22461,5.273437 Q 33.300781,74.804687 16.943359,78.125 l 1.464844,21.728516 q 9.130859,-2.490235 18.798828,-6.25 -3.613281,-6.542969 -6.787109,-10.9375 l 6.201172,-3.076172 q 7.27539,9.61914 12.597656,21.386716 Q 57.177734,95.996094 60.595703,87.451172 62.5,82.666016 63.330078,75.78125 H 50 v -6.396484 h 42.480469 q -0.439453,22.851562 -2.685547,31.152344 -1.123047,4.19922 -3.759766,5.66406 -2.001953,1.07422 -6.152344,1.07422 -4.296875,0 -10.302734,-0.58594 l -1.5625,-6.933591 q 5.957031,1.025391 10.449219,1.025391 3.076172,0 3.90625,-2.978516 1.660156,-6.005859 2.441406,-21.191406 0,-0.488281 0,-0.830078 H 70.605469 q -0.78125,9.863281 -4.394532,17.1875 -4.199218,8.59375 -13.818359,14.59961 z m 38.52539,10.64453 v 46.48438 h -7.8125 V 154.6875 H 21.142578 v 4.78516 h -7.617187 v -46.48438 z m -65.283203,6.29883 v 10.79101 h 24.755859 v -10.79101 z m 0,16.79687 v 12.20704 h 24.755859 v -12.20704 z m 57.470703,12.20704 V 136.08398 H 53.417969 v 12.20704 z m 0,-18.2129 V 119.28711 H 53.417969 v 10.79101 z m 80.371089,2.00196 q -0.63476,8.39844 -3.61328,14.55078 -3.66211,7.56836 -12.01172,13.23242 l -5.41992,-5.27344 q 9.03321,-5.66406 11.91407,-15.03906 1.80664,-5.85937 1.80664,-14.25781 V 91.894531 h 40.42968 v 58.300779 q 0,5.3711 -2.53906,7.42188 -2.05078,1.66015 -6.78711,1.66015 -4.88281,0 -11.47461,-0.58593 l -1.51367,-7.51954 q 6.39648,0.92774 10.83984,0.92774 2.78321,0 3.36914,-0.92774 0.48829,-0.78125 0.48829,-2.68554 v -16.40625 z m 0.19532,-6.00586 h 25.29297 v -11.37695 h -25.29297 z m 0,-17.28516 h 25.29297 V 98.291016 H 159.17969 Z M 129.78516,73.583984 v -9.082031 h 7.8125 v 9.082031 h 23.77929 v -9.082031 h 7.91016 v 9.082031 h 28.22266 v 6.591797 h -28.22266 v 6.884766 h -7.91016 v -6.884766 h -23.77929 v 7.910156 h -7.8125 v -7.910156 h -27.29493 v -6.591797 z m 12.64648,19.628907 v 47.802729 h -27.24609 v 7.2754 h -7.51953 V 93.212891 Z m -27.24609,6.201171 v 14.208988 h 19.82422 V 99.414062 Z m 0,20.214848 v 15.08789 h 19.82422 v -15.08789 z m 134.0332,-16.40625 v 40.86914 q 0,4.05273 2.39258,4.98047 2.58789,0.97656 16.45508,0.97656 13.42773,0 17.38281,-0.92774 2.7832,-0.68359 3.56445,-3.22265 1.2207,-4.00391 1.26953,-12.40235 l 7.51953,2.78321 q -0.68359,13.23242 -3.51562,16.79687 -2.24609,2.92969 -7.27539,3.4668 -7.66602,0.78125 -20.75195,0.78125 -12.45118,0 -16.74805,-0.83008 -5.3711,-1.07422 -6.83594,-4.88281 -0.78125,-2.09961 -0.78125,-5.51758 v -40.38086 l -10.49805,3.56445 -1.90429,-6.98242 12.40234,-4.150389 v -26.5625 h 7.32422 v 24.072266 l 12.8418,-4.345703 V 64.501953 h 7.32422 v 24.365234 l 18.01757,-6.054687 4.39453,2.392578 v 35.986332 q 0,3.51562 -1.66015,5.32226 -1.95313,2.09961 -6.83594,2.09961 -3.95508,0 -7.71484,-0.53711 l -1.26953,-6.98242 q 3.71093,0.68359 6.93359,0.68359 2.44141,0 2.97852,-1.07421 0.39062,-0.73243 0.39062,-2.29493 V 91.113281 l -15.23437,5.175781 v 39.794918 h -7.32422 V 98.779297 Z M 216.50391,88.916016 V 65.136719 h 7.71484 v 23.779297 h 10.79102 v 7.177734 h -10.79102 v 34.96094 q 5.12695,-1.75782 11.71875,-4.44336 l 0.78125,6.88476 q -14.94141,6.88477 -32.03125,12.10938 l -2.7832,-7.61719 q 6.78711,-1.85547 14.59961,-4.3457 V 96.09375 h -13.28125 v -7.177734 z m 128.95507,0.04883 q 0,7.324218 -0.92773,17.041016 h 39.4043 q -0.6836,32.91016 -3.75977,43.60351 -1.26953,4.49219 -4.83398,6.34766 -3.02735,1.5625 -9.08203,1.5625 -8.39844,0 -15.33204,-0.92773 l -1.31836,-8.00782 q 10.15625,1.31836 16.3086,1.31836 4.05273,0 5.32226,-1.70898 1.07422,-1.46484 2.14844,-8.49609 1.5625,-9.96094 2.14844,-26.70899 h -31.93359 q -1.80665,11.37695 -5.76172,19.28711 -7.91016,15.91797 -26.02539,25.73242 l -5.61524,-6.29883 q 19.38477,-10.15625 25.58594,-26.36718 5.17578,-13.57422 5.56641,-36.376956 h -33.54493 v -7.177735 h 41.69922 V 64.501953 h 8.00781 v 17.285156 h 42.67579 v 7.177735 z M 445.70312,83.59375 V 64.501953 h 7.91016 V 83.59375 h 37.25586 v 49.70703 h -7.91016 v -6.98242 h -29.3457 v 33.20312 h -7.91016 v -33.20312 h -28.80859 v 7.51953 h -8.00781 V 83.59375 Z m -28.80859,7.324219 v 28.076171 h 28.80859 V 90.917969 Z m 66.06445,28.076171 V 90.917969 h -29.3457 v 28.076171 z m 47.65625,13.81836 q -11.42578,6.25 -25.09765,11.81641 l -3.51563,-7.71485 q 17.33399,-6.15234 28.61328,-11.96289 V 98.535156 h -25.63476 v -7.421875 h 25.63476 V 65.527344 h 8.00782 v 93.212886 h -8.00782 z M 562.01172,97.949219 Q 575,91.845703 587.30469,81.591797 l 6.20117,6.103515 Q 578.36914,98.779297 562.01172,105.9082 v 38.1836 q 0,3.07617 2.24609,3.71093 1.80664,0.53711 10.35156,0.53711 8.05665,0 10.35157,-1.12304 1.66015,-0.83008 2.24609,-4.29688 0.68359,-4.44336 1.07422,-14.84375 l 7.91016,2.73438 q -0.58594,16.01562 -2.2461,19.9707 -1.61133,3.90625 -7.03125,4.88281 -4.63867,0.83008 -13.52539,0.83008 -12.10937,0 -15.42969,-1.5625 -3.95507,-1.85547 -3.95507,-7.91016 V 65.478516 h 8.00781 z m 71.97265,-21.337891 h 21.82618 v 6.787109 h -7.03125 q -2.05078,9.13086 -5.61524,18.701173 h 14.45313 v 6.88477 h -55.12696 v -6.88477 h 13.72071 l -0.0977,-0.48828 Q 614.0625,91.601562 611.71875,84.423828 l -0.3418,-1.025391 h -7.08008 v -6.787109 h 22.2168 V 64.501953 h 7.4707 z m -15.13671,6.787109 q 2.58789,7.958985 4.73632,18.701173 h 12.15821 q 2.92968,-8.105469 5.32226,-18.701173 z m 31.83593,35.888673 v 39.30664 h -7.32422 v -5.51758 h -25.97656 v 6.39649 h -7.56836 v -40.18555 z m -33.30078,6.68945 v 20.3125 h 25.97656 v -20.3125 z m 65.42969,-22.70508 q 12.8418,13.57422 12.8418,29.44336 0,5.56641 -2.00196,8.39844 -2.4414,3.27149 -8.49609,3.27149 -5.81055,0 -10.69336,-0.6836 l -1.61133,-7.61719 q 6.25,1.02539 10.15625,1.02539 3.71094,0 4.39453,-2.49023 0.29297,-1.07422 0.29297,-3.51562 0,-13.72071 -12.64648,-26.70899 5.85937,-12.695311 9.52148,-26.708983 h -15.42969 v 81.787113 h -7.37304 V 70.507812 h 27.49023 l 4.39453,3.808594 q -5.37109,17.382813 -10.83984,28.955074 z"></path>
</svg>
