<svg xmlns="http://www.w3.org/2000/svg" id="svg1" version="1.1" height="200" width="990">
  <defs id="defs1"></defs>
  <rect id="rect1" stroke="none" fill="none" height="200" width="990" y="0" x="0"></rect>
  <path aria-label="種子島近海" style="font-size:100px;font-family:'BIZ UDPGothic';fill:#ff0000" id="text1" d="M 17.919922,114.20898 Q 12.744141,129.15039 5.5175781,139.50195 L 1.5136719,132.61719 Q 12.304688,117.23633 17.1875,99.609375 H 2.734375 V 92.822266 H 17.919922 V 76.806641 q -7.080078,1.5625 -11.7187501,2.294921 L 3.2226563,73.242187 Q 20.800781,70.410156 32.861328,65.234375 l 4.296875,5.566406 q -4.980469,2.050781 -11.914062,4.101563 V 92.822266 H 36.71875 v 6.787109 H 25.244141 v 7.763675 q 6.49414,4.88281 13.085937,11.8164 l -4.589844,6.73828 q -4.443359,-6.20117 -8.496093,-10.64453 v 44.23828 H 17.919922 Z M 62.011719,94.287109 V 87.695312 H 35.839844 v -6.103515 h 26.171875 v -6.542969 q -7.763672,0.927734 -19.482422,1.757813 L 39.746094,71.09375 q 26.220703,-1.855469 45.55664,-6.201172 l 4.492188,5.712891 q -8.691406,1.953125 -20.703125,3.564453 v 7.421875 h 27.58789 v 6.103515 h -27.58789 v 6.591797 H 91.894531 V 129.10156 H 69.091797 v 7.08008 h 24.316406 v 6.00586 H 69.091797 v 7.51953 h 28.613281 v 6.29883 H 33.105469 v -6.29883 h 28.90625 V 142.1875 H 38.525391 v -6.00586 h 23.486328 v -7.08008 h -21.875 V 94.287109 Z m 0,5.615235 H 47.119141 v 8.886716 h 14.892578 z m 7.080078,0 v 8.886716 H 84.912109 V 99.902344 Z M 62.011719,114.20898 H 47.119141 v 9.17969 h 14.892578 z m 7.080078,0 v 9.17969 h 15.820312 v -9.17969 z M 154.98047,96.142578 v 12.255862 h 41.99219 v 6.98242 h -41.99219 v 34.13086 q 0,5.22461 -2.92969,7.32422 -2.29492,1.66015 -8.00781,1.66015 -8.83789,0 -14.89258,-0.48828 l -1.85547,-7.8125 q 9.17969,0.83008 14.7461,0.83008 3.07617,0 3.90625,-0.63477 0.92773,-0.68359 0.92773,-3.07617 v -31.93359 h -43.89648 v -6.98242 H 146.875 V 92.480469 q 12.10937,-5.46875 25.09766,-15.087891 h -57.8125 v -7.177734 h 68.01757 l 4.58985,4.980468 Q 171.5332,87.060547 154.98047,96.142578 Z m 113.03711,53.076172 h -53.8086 v 5.71289 h -7.71484 v -23.0957 h 7.71484 v 11.18164 h 19.0918 v -14.69727 h -19.0918 V 73.291016 h 23.97461 q 3.36914,-4.931641 5.41993,-9.179688 l 8.6914,2.001953 q -2.39258,3.515625 -5.46875,7.177735 h 35.25391 v 30.517574 h -59.96094 v 6.00586 h 75.3418 v 6.10352 h -75.3418 v 6.29883 h 70.94727 q -0.73243,23.87695 -3.32032,30.71289 -1.5625,4.19922 -5.51757,5.66406 -2.5879,0.92773 -6.83594,0.92773 -6.15235,0 -11.76758,-0.8789 l -1.61133,-7.22656 q 6.73828,1.02539 12.10938,1.02539 4.24804,0 5.37109,-1.95313 2.24609,-3.90625 3.36914,-22.16797 h -43.94531 v 14.69727 h 19.58008 v -11.18164 h 7.51953 z M 222.11914,79.296875 v 6.298828 h 52.09961 v -6.298828 z m 0,12.011719 v 6.689453 h 52.09961 v -6.689453 z m 104.39453,47.021486 q 4.29688,4.44336 9.81445,7.22656 8.59375,4.3457 23.58399,4.3457 h 38.37891 q -1.41602,2.88086 -2.49024,6.88477 H 359.7168 q -16.35743,0 -25.63477,-4.58984 -5.56641,-2.78321 -10.74219,-8.20313 -8.34961,9.57031 -16.25976,15.47852 l -4.58985,-7.08008 q 7.95899,-4.98047 16.40625,-12.5 v -25.6836 h -16.21093 v -6.7871 h 23.82812 z M 340.9668,74.21875 q 1.70898,-0.146484 3.71093,-0.292969 21.92383,-1.80664 39.99024,-7.617187 l 5.61523,6.103515 q -17.91992,5.371094 -41.60156,7.763672 v 14.941406 h 47.41211 v 6.884763 h -17.91992 v 43.40821 h -7.8125 v -43.40821 h -21.67969 q 0,13.52539 -1.17187,22.07032 -1.5625,11.4746 -6.83594,20.21484 l -6.49414,-5.17578 q 4.78515,-8.30078 6.00586,-19.33594 0.78125,-7.27539 0.78125,-20.654296 z m -18.35938,14.697266 q -7.51953,-9.960938 -15.52734,-17.138672 l 5.51758,-4.6875 q 8.20312,6.689453 15.96679,16.308593 z m 115.47852,1.904296 h 49.90234 q 0,2.636719 -0.68359,22.998048 h 10.20508 v 6.5918 h -10.44922 q -0.19532,6.25 -0.87891,17.91992 h 9.7168 v 6.49414 h -10.20508 q -0.63477,7.27539 -1.70899,9.66797 -2.14843,5.02929 -10.49804,5.02929 -4.73633,0 -11.08399,-0.78125 l -1.41601,-6.83593 q 7.32422,1.02539 12.06054,1.02539 2.73438,0 3.61329,-1.22071 0.78125,-1.12304 1.31836,-6.10351 l 0.0488,-0.78125 h -39.01367 l -0.14648,0.78125 -0.14649,0.68359 -0.83008,4.73633 -7.4707,-0.87891 q 2.63672,-14.50195 4.44336,-29.73632 h -9.76562 v -6.5918 h 10.54687 q 1.46484,-12.69531 2.44141,-22.998048 z m 27.58789,6.396485 q -0.19531,3.417973 -0.73242,11.572263 l -0.29297,5.0293 h 15.33203 q 0.0976,-2.09961 0.24414,-5.46875 0.0488,-0.87891 0.19531,-5.56641 0,-1.85547 0.14649,-5.566403 z m -7.12891,0 h -13.81836 q -0.43945,5.957033 -1.51367,16.601563 h 14.0625 q 0.29297,-3.71094 0.43945,-5.56641 0.3418,-3.61328 0.83008,-11.035153 z m -1.80664,23.193363 h -14.25781 q -0.78125,6.64062 -1.95313,14.59961 l -0.48828,3.32031 h 14.79492 l 0.29297,-2.2461 q 1.17188,-9.76562 1.61133,-15.67382 z m 7.32422,0 -0.48828,5.12695 q -0.83008,8.78906 -1.31836,12.79297 h 16.40625 q 0.48828,-6.34766 0.73242,-12.30469 l 0.29297,-5.61523 z M 444.9707,73.779297 h 48.92578 v 6.689453 h -52.00195 q -4.00391,7.958984 -9.91211,14.941406 l -5.37109,-5.224609 q 9.47265,-10.546875 14.01367,-25.78125 l 7.4707,0.78125 q -1.5625,4.833984 -3.125,8.59375 z m -24.75586,12.5 q -6.44531,-8.447266 -14.40429,-15.38086 l 5.27343,-5.078125 q 7.51954,5.810547 14.69727,14.697266 z m -3.51562,25.732423 Q 409.0332,102.68555 401.9043,96.679687 l 5.41992,-5.371093 q 8.39844,6.787109 15.08789,14.794926 z m -12.69531,41.06445 q 8.88671,-12.64648 16.21093,-31.98242 l 6.39649,4.6875 q -7.37305,19.92187 -16.3086,33.00781 z"></path>
</svg>
