<svg xmlns="http://www.w3.org/2000/svg" id="svg1" version="1.1" height="200" width="990">
  <defs id="defs1"></defs>
  <rect id="rect1" stroke="none" fill="none" height="200" width="990" y="0" x="0"></rect>
  <path aria-label="神奈川県東部" style="font-size:100px;font-family:'BIZ UDPGothic';fill:#ff0000" id="text1" d="m 25.634766,107.76367 q 7.910156,5.3711 15.478515,12.20703 l -4.589844,6.49414 q -5.029296,-5.51757 -10.888671,-10.5957 v 43.60352 H 18.212891 V 116.74805 Q 12.255859,123.4375 5.6152344,129.19922 L 1.6113281,122.26563 Q 20.556641,106.88477 29.248047,88.183594 H 3.8085938 V 81.103516 H 18.115234 V 64.501953 h 7.421875 v 16.601563 h 9.91211 l 3.173828,4.101562 Q 33.837891,96.435547 25.634766,107.61719 Z M 63.28125,80.517578 V 64.501953 h 7.519531 V 80.517578 H 92.919922 V 133.49609 H 70.800781 v 25.97657 H 63.28125 V 133.49609 H 42.333984 V 80.517578 Z M 49.414062,87.109375 V 103.32031 H 63.28125 V 87.109375 Z m 0,22.705075 v 16.89453 H 63.28125 v -16.89453 z m 36.328125,16.89453 V 109.81445 H 70.800781 v 16.89453 z m 0,-23.38867 V 87.109375 H 70.800781 V 103.32031 Z M 163.96484,83.886719 q 12.06055,12.109375 34.03321,19.628911 l -4.29688,6.68945 q -9.76562,-3.95508 -16.99219,-8.1543 v 6.44531 h -51.41601 v -5.66406 q -7.4707,4.88281 -19.0918,9.86328 l -4.58984,-5.9082 q 13.62305,-5.07813 21.92383,-11.083985 7.42187,-5.419922 12.25586,-11.816406 h -30.27344 v -6.78711 h 34.76562 q 3.02735,-5.517578 5.32227,-12.5 l 7.91015,0.976563 q -2.49023,6.787109 -4.88281,11.523437 h 45.45899 v 6.78711 z m -9.32617,0 h -9.91211 q -6.59179,10.205078 -18.16406,18.115231 h 50.04883 Q 163.23242,94.140625 154.63867,83.886719 Z m 0,41.894531 v 26.61133 q 0,3.90625 -2.00195,5.5664 -1.85547,1.5625 -5.9082,1.5625 -8.88672,0 -14.20899,-0.63476 l -1.51367,-7.42188 q 6.93359,0.92774 12.40234,0.92774 2.2461,0 2.83203,-0.58594 0.58594,-0.58594 0.58594,-2.34375 v -23.68164 h -39.99023 v -6.78711 h 86.52343 v 6.78711 z m -50.53711,23.53516 q 12.10938,-7.32422 20.01953,-20.01954 l 6.88477,3.51563 q -8.69141,14.16016 -21.19141,22.36328 z m 85.20508,4.49218 q -10.64453,-12.59765 -21.38672,-20.89843 l 6.00586,-4.58985 q 11.57227,8.64258 21.48438,19.97071 z M 215.9668,68.798828 h 8.30078 V 104.6875 q 0,21.82617 -3.56446,33.39844 -3.02734,9.86328 -11.13281,19.09179 l -6.49414,-5.76171 q 8.54492,-8.98438 11.08399,-22.02149 1.80664,-9.13086 1.80664,-23.97461 z m 31.39648,1.806641 h 8.10547 v 79.101561 h -8.10547 z m 32.91016,-3.808594 h 8.30078 v 91.406245 h -8.30078 z m 102.58789,0.78125 V 114.4043 H 325.78125 V 67.578125 Z m -49.36524,6.005859 v 7.714844 h 41.55274 v -7.714844 z m 0,13.330078 v 7.763672 h 41.55274 v -7.763672 z m 0,13.476568 v 8.30078 h 41.55274 v -8.30078 z M 314.4043,122.2168 h 83.05664 v 6.49414 h -41.99219 v 30.81054 h -7.91016 V 128.71094 H 306.5918 V 74.267578 h 7.8125 z m -9.22852,29.6875 q 12.79297,-6.15235 23.0957,-19.28711 l 6.5918,3.66211 q -10.40039,13.62304 -24.07226,21.72851 z m 84.17969,4.10156 q -10.25391,-11.18164 -23.29102,-19.82422 l 6.00586,-4.49219 q 11.76758,7.37305 23.68164,18.79883 z m 71.97265,-29.39453 q 14.01368,12.84179 36.76758,20.50781 l -4.73633,6.98242 q -10.54687,-3.95508 -18.31054,-8.54492 -12.10938,-7.22656 -21.53321,-18.06641 v 32.03125 h -7.71484 v -31.83593 q -5.76172,7.51953 -14.30664,14.20898 -10.88867,8.49609 -24.31641,13.81836 l -4.78515,-6.29883 q 21.97265,-8.00781 35.79101,-22.80273 H 411.57227 V 87.792969 h 34.22851 v -8.007813 h -41.74805 v -6.591797 h 41.74805 v -8.691406 h 7.71484 v 8.691406 h 42.38282 v 6.591797 h -42.38282 v 8.007813 h 34.76563 V 126.61133 Z M 445.80078,94.091797 h -26.41601 v 9.814453 h 26.41601 z m 7.71484,0 v 9.814453 h 27.05079 v -9.814453 z m -7.71484,15.917973 h -26.41601 v 10.30273 h 26.41601 z m 7.71484,0 v 10.30273 h 27.05079 v -10.30273 z m 80.46875,-33.398442 h 21.82618 v 6.787109 h -7.03125 q -2.05078,9.13086 -5.61524,18.701173 h 14.45313 v 6.88477 h -55.12696 v -6.88477 h 13.72071 l -0.0977,-0.48828 Q 514.0625,91.601562 511.71875,84.423828 l -0.3418,-1.025391 h -7.08008 v -6.787109 h 22.2168 V 64.501953 h 7.4707 z m -15.13671,6.787109 q 2.58789,7.958985 4.73632,18.701173 h 12.15821 q 2.92968,-8.105469 5.32226,-18.701173 z m 31.83593,35.888673 v 39.30664 h -7.32422 v -5.51758 h -25.97656 v 6.39649 h -7.56836 v -40.18555 z m -33.30078,6.68945 v 20.3125 h 25.97656 v -20.3125 z m 65.42969,-22.70508 q 12.8418,13.57422 12.8418,29.44336 0,5.56641 -2.00196,8.39844 -2.4414,3.27149 -8.49609,3.27149 -5.81055,0 -10.69336,-0.6836 l -1.61133,-7.61719 q 6.25,1.02539 10.15625,1.02539 3.71094,0 4.39453,-2.49023 0.29297,-1.07422 0.29297,-3.51562 0,-13.72071 -12.64648,-26.70899 5.85937,-12.695311 9.52148,-26.708983 h -15.42969 v 81.787113 h -7.37304 V 70.507812 h 27.49023 l 4.39453,3.808594 q -5.37109,17.382813 -10.83984,28.955074 z"></path>
</svg>
