<svg xmlns="http://www.w3.org/2000/svg" id="svg1" version="1.1" height="200" width="990">
  <defs id="defs1"></defs>
  <rect id="rect1" stroke="none" fill="none" height="200" width="990" y="0" x="0"></rect>
  <path aria-label="埼玉県秩父地方" style="font-size:100px;font-family:'BIZ UDPGothic';fill:#ff0000" id="text1" d="m 87.304687,110.10742 v 41.3086 q 0,4.29687 -2.148437,6.25 -2.099609,1.85546 -7.03125,1.85546 -5.517578,0 -12.646484,-0.73242 l -1.708985,-6.98242 q 6.835938,0.83008 12.451172,0.83008 2.294922,0 2.929688,-0.73242 0.537109,-0.63477 0.537109,-2.39258 v -39.4043 H 30.273437 v -6.68945 h 67.236329 v 6.68945 z M 14.794922,87.988281 v -22.90039 h 7.519531 v 22.90039 h 10.205078 v 7.080078 H 22.314453 V 131.25 q 6.005859,-2.29492 11.376953,-4.78516 l 1.025391,6.88477 Q 19.970703,140.72266 4.7851562,145.6543 l -2.7832031,-7.56836 q 7.1777344,-2.05078 12.7929689,-4.10157 V 95.068359 H 3.0761719 V 87.988281 Z M 59.375,74.609375 V 64.501953 h 7.519531 v 10.107422 h 25.195313 v 6.494141 H 66.259766 q -0.292969,1.367187 -0.878907,2.832031 12.5,4.980469 25.53711,12.158203 l -4.833985,5.71289 Q 73.730469,94.140625 62.646484,89.111328 56.005859,98.535156 40.185547,102.29492 L 36.181641,96.484375 Q 55.712891,92.236328 58.984375,81.103516 H 36.474609 V 74.609375 Z M 70.507812,118.4082 v 25.09766 H 46.386719 v 5.37109 h -6.78711 V 118.4082 Z m -24.121093,6.20118 v 12.59765 h 17.43164 V 124.60938 Z M 153.32031,77.978516 v 28.125004 h 34.76563 v 6.98242 h -34.76563 v 33.83789 h 42.67578 v 7.17773 h -91.89453 v -7.17773 h 41.21094 v -33.83789 h -33.20312 v -6.98242 H 145.3125 V 77.978516 h -37.10937 v -7.177735 h 83.6914 v 7.177735 z m 28.07617,63.037104 q -5.95703,-9.57031 -14.30664,-18.70117 l 6.29883,-4.29687 q 8.10547,8.83789 14.69727,18.35937 z M 282.86133,67.578125 V 114.4043 H 225.78125 V 67.578125 Z m -49.36524,6.005859 v 7.714844 h 41.55274 v -7.714844 z m 0,13.330078 v 7.763672 h 41.55274 v -7.763672 z m 0,13.476568 v 8.30078 h 41.55274 v -8.30078 z M 214.4043,122.2168 h 83.05664 v 6.49414 h -41.99219 v 30.81054 h -7.91016 V 128.71094 H 206.5918 V 74.267578 h 7.8125 z m -9.22852,29.6875 q 12.79297,-6.15235 23.0957,-19.28711 l 6.5918,3.66211 q -10.40039,13.62304 -24.07226,21.72851 z m 84.17969,4.10156 q -10.25391,-11.18164 -23.29102,-19.82422 l 6.00586,-4.49219 q 11.76758,7.37305 23.68164,18.79883 z m 29.44336,-43.35938 q -5.22461,15.18555 -13.37891,26.31836 l -3.90625,-7.1289 q 11.47461,-15.13672 16.21094,-32.373049 h -15.03906 v -6.884766 h 16.11328 V 76.904297 q -6.10352,1.464844 -12.20703,2.392578 l -3.07618,-5.908203 q 17.28516,-2.685547 30.46875,-8.105469 l 4.58985,5.517578 Q 332.95898,72.949219 325.97656,75 v 17.578125 h 12.98828 v 6.884766 h -12.98828 v 7.861329 q 7.8125,5.85937 13.72071,12.1582 l -4.63868,6.5918 q -4.05273,-5.95703 -9.08203,-11.13281 v 44.53125 h -7.17773 z M 364.01367,84.277344 V 64.501953 h 7.32422 v 19.775391 h 21.67969 v 6.884765 h -21.67969 v 19.238281 h 26.12305 v 6.68945 h -24.65821 q 7.22657,21.53321 25.63477,35.00977 l -4.6875,7.17773 q -9.08203,-6.98242 -16.60156,-17.96875 -5.12696,-7.42187 -8.4961,-16.74804 -6.68945,24.80468 -27.34375,35.20507 l -5.07812,-5.95703 q 21.97265,-10.69336 27.19726,-36.71875 h -24.12109 v -6.68945 h 24.70703 V 91.162109 h -12.69531 q -2.44141,7.763672 -5.81055,13.720701 l -5.81054,-4.39453 q 5.95703,-11.572264 8.93554,-29.296874 l 6.68946,1.367188 q -0.87891,6.005859 -2.14844,11.71875 z m 81.54297,46.337886 q -12.06055,-12.5 -21.19141,-27.00195 l 6.10352,-4.589843 q 6.93359,12.744143 20.26367,26.025393 10.64453,-12.35352 16.94336,-28.271486 L 475,100.29297 q -7.86133,17.82226 -18.65234,30.0293 15.47851,13.42773 39.45312,21.67968 l -5.12695,7.27539 q -25.09766,-10.00976 -39.64844,-23.33984 -15.91797,15.57617 -41.74805,23.48633 l -4.39453,-6.54297 q 20.94727,-6.10352 33.74024,-16.11328 2.73437,-2.14844 6.93359,-6.15235 z m -40.2832,-30.41992 q 17.57812,-12.158201 27.49023,-32.275388 l 7.12891,3.36914 q -12.06055,22.949219 -29.49219,35.107418 z m 83.10547,5.32227 Q 474.56055,86.865234 459.27734,71.484375 l 6.00586,-4.101563 q 14.11133,13.769532 29.19922,32.519532 z m 60.83984,-2.29492 v 40.86914 q 0,4.05273 2.39258,4.98047 2.58789,0.97656 16.45508,0.97656 13.42773,0 17.38281,-0.92774 2.7832,-0.68359 3.56445,-3.22265 1.2207,-4.00391 1.26953,-12.40235 l 7.51953,2.78321 q -0.68359,13.23242 -3.51562,16.79687 -2.24609,2.92969 -7.27539,3.4668 -7.66602,0.78125 -20.75195,0.78125 -12.45118,0 -16.74805,-0.83008 -5.3711,-1.07422 -6.83594,-4.88281 -0.78125,-2.09961 -0.78125,-5.51758 v -40.38086 l -10.49805,3.56445 -1.90429,-6.98242 12.40234,-4.150389 v -26.5625 h 7.32422 v 24.072266 l 12.8418,-4.345703 V 64.501953 h 7.32422 v 24.365234 l 18.01757,-6.054687 4.39453,2.392578 v 35.986332 q 0,3.51562 -1.66015,5.32226 -1.95313,2.09961 -6.83594,2.09961 -3.95508,0 -7.71484,-0.53711 l -1.26953,-6.98242 q 3.71093,0.68359 6.93359,0.68359 2.44141,0 2.97852,-1.07421 0.39062,-0.73243 0.39062,-2.29493 V 91.113281 l -15.23437,5.175781 v 39.794918 h -7.32422 V 98.779297 Z M 516.50391,88.916016 V 65.136719 h 7.71484 v 23.779297 h 10.79102 v 7.177734 h -10.79102 v 34.96094 q 5.12695,-1.75782 11.71875,-4.44336 l 0.78125,6.88476 q -14.94141,6.88477 -32.03125,12.10938 l -2.7832,-7.61719 q 6.78711,-1.85547 14.59961,-4.3457 V 96.09375 h -13.28125 v -7.177734 z m 128.95507,0.04883 q 0,7.324218 -0.92773,17.041016 h 39.4043 q -0.6836,32.91016 -3.75977,43.60351 -1.26953,4.49219 -4.83398,6.34766 -3.02735,1.5625 -9.08203,1.5625 -8.39844,0 -15.33204,-0.92773 l -1.31836,-8.00782 q 10.15625,1.31836 16.3086,1.31836 4.05273,0 5.32226,-1.70898 1.07422,-1.46484 2.14844,-8.49609 1.5625,-9.96094 2.14844,-26.70899 h -31.93359 q -1.80665,11.37695 -5.76172,19.28711 -7.91016,15.91797 -26.02539,25.73242 l -5.61524,-6.29883 q 19.38477,-10.15625 25.58594,-26.36718 5.17578,-13.57422 5.56641,-36.376956 h -33.54493 v -7.177735 h 41.69922 V 64.501953 h 8.00781 v 17.285156 h 42.67579 v 7.177735 z"></path>
</svg>
