<svg xmlns="http://www.w3.org/2000/svg" id="svg1" version="1.1" height="200" width="990">
  <defs id="defs1"></defs>
  <rect id="rect1" stroke="none" fill="none" height="200" width="990" y="0" x="0"></rect>
  <path aria-label="周防灘" style="font-size:100px;font-family:'BIZ UDPGothic';fill:#ff0000" id="text1" d="m 71.679687,117.38281 v 24.1211 H 36.914062 v 6.10351 h -7.421875 v -30.22461 z m -7.519531,6.10352 H 36.914062 v 11.71875 H 64.160156 Z M 90.185547,68.798828 v 80.517582 q 0,5.27343 -2.734375,7.17773 -2.197266,1.51367 -7.421875,1.51367 -7.617188,0 -15.429688,-0.48828 l -1.708984,-7.71484 q 8.789062,0.68359 15.722656,0.68359 2.685547,0 3.271485,-0.78125 0.488281,-0.63476 0.488281,-2.39258 V 75.488281 h -63.28125 v 29.394529 q 0,22.2168 -1.367188,32.8125 -1.611328,12.20703 -6.640625,21.92383 l -6.6894528,-5.41992 q 4.9316407,-10.10742 6.1035158,-23.58399 0.78125,-9.08203 0.78125,-25.92773 V 68.798828 Z M 54.296875,87.402344 h 20.996094 v 6.201172 H 54.296875 v 8.886714 h 24.121094 v 6.20118 H 23.095703 v -6.20118 H 46.777344 V 93.603516 H 26.074219 v -6.201172 h 20.703125 v -8.300782 h 7.519531 z m 108.349605,1.269531 q 0,8.886719 -0.63476,16.845705 h 27.88086 q -0.3418,34.42383 -2.58789,44.33594 -1.75782,7.95898 -10.59571,7.95898 -8.05664,0 -13.91601,-0.48828 l -1.41602,-7.8125 q 6.5918,0.97656 12.5,0.97656 3.85742,0 5.0293,-1.9043 2.68555,-4.49218 3.27148,-34.81445 v -1.5625 h -20.75195 q -3.36914,32.66602 -24.07226,46.77734 l -5.81055,-5.66406 q 13.13476,-8.98437 18.0664,-22.99804 3.61329,-10.35157 4.93165,-28.32032 0.5371,-7.373044 0.5371,-13.330075 h -19.6289 v -7.080078 h 24.12109 V 64.501953 h 7.71485 v 17.089844 h 29.88281 v 7.080078 z m -35.88867,11.523435 q 3.36914,3.66211 5.76172,8.30078 4.83399,9.22852 4.83399,18.89649 0,11.37695 -10.49805,11.37695 -3.32031,0 -7.56836,-0.58594 l -1.5625,-7.51953 q 4.73633,0.92774 7.8125,0.92774 3.02734,0 3.71094,-1.9043 0.48828,-1.31836 0.48828,-4.19922 0,-12.69531 -10.64453,-24.3164 5.22461,-11.376958 8.6914,-25.292974 h -13.3789 v 83.593754 h -7.61719 V 68.994141 h 26.2207 l 3.8086,3.710937 q -5.07813,17.285156 -10.0586,27.490232 z m 118.06641,-8.984373 v 4.882813 h 13.81836 v 18.4082 h -13.81836 v 5.51758 h 14.9414 v 5.81055 h -14.99023 q -0.14648,3.07617 -0.43945,5.85937 h 18.21289 v 5.71289 H 243.4082 q -0.24414,0.87891 -0.53711,1.9043 9.52149,6.15234 18.16407,13.08594 l -4.58985,5.71289 q -7.32422,-6.68945 -15.91797,-13.13477 -4.78515,9.42383 -16.21093,14.84375 l -4.6875,-5.71289 q 13.42773,-5.27344 16.8457,-16.69922 h -16.06445 v -5.71289 h 17.28515 q 0.43946,-3.125 0.53711,-5.85937 h -14.84375 v -5.81055 h 14.94141 v -5.51758 h -13.72071 v -18.4082 h 13.62305 v -4.882813 h -8.30078 V 79.6875 h -7.51953 v -5.810547 h 7.51953 v -9.375 h 6.49414 v 9.375 h 10.40039 v -9.375 h 6.49414 v 9.375 h 8.83789 V 79.6875 h -8.83789 v 11.523437 z m -6.29883,10.302733 h -7.91016 v 7.76367 h 7.91016 z m 6.10352,0 v 7.76367 h 8.10546 v -7.76367 z m 2.19726,-21.82617 h -10.40039 v 6.298828 h 10.40039 z m 26.02539,3.320312 h 7.22656 q 2.49024,-9.033203 3.95508,-18.115234 l 6.68946,1.318359 q -1.95313,9.570313 -4.54102,16.796875 h 10.9375 v 6.591797 h -10.88867 v 14.697271 h 9.17969 v 6.39648 h -9.17969 v 14.50195 h 9.17969 v 6.49414 h -9.17969 v 16.01563 h 11.8164 v 6.68945 h -25.34179 v 5.07813 h -6.39649 v -57.08008 q -1.5625,3.95508 -3.51562,8.00781 l -3.56445,-6.5918 q 7.4707,-16.650387 10.40039,-39.501949 l 6.98242,0.976562 Q 275,74.609375 273.14453,81.933594 Z m 7.08008,6.591797 h -7.22656 v 14.697271 h 7.22656 z m 0,21.093751 h -7.22656 v 14.50195 h 7.22656 z m -7.22656,20.99609 v 16.01563 h 7.22656 v -16.01563 z m -56.5918,-45.703122 q -5.22461,-7.910156 -12.5,-15.478516 l 5.41992,-4.589843 q 6.5918,6.103515 12.59766,14.794922 z m -2.49023,24.707032 q -6.78711,-9.47266 -12.5,-15.087891 l 5.51757,-4.6875 q 6.73829,6.396484 12.69532,14.599611 z m -11.18164,43.50586 q 6.34765,-13.52539 11.08398,-34.17969 l 6.5918,3.36914 q -3.85742,19.53125 -10.98633,35.79102 z"></path>
</svg>
