<svg xmlns="http://www.w3.org/2000/svg" id="svg1" version="1.1" height="200" width="990">
  <defs id="defs1"></defs>
  <rect id="rect1" stroke="none" fill="none" height="200" width="990" y="0" x="0"></rect>
  <path aria-label="駿河湾" style="font-size:100px;font-family:'BIZ UDPGothic';fill:#ff0000" id="text1" d="m 57.275391,91.210937 q -5.615235,0.341797 -11.71875,0.585938 l -2.001954,-6.591797 q 6.201172,-0.09766 7.080079,-0.146484 6.689453,-10.449219 11.18164,-20.654297 l 7.421875,1.80664 Q 63.916016,76.5625 58.056641,84.863281 l 1.464843,-0.09766 q 12.304688,-0.488281 23.388672,-1.318359 -3.90625,-5.371094 -7.861328,-9.863282 l 5.566406,-3.076172 q 7.56836,7.861329 15.429688,19.775391 L 89.84375,93.994141 Q 88.330078,91.503906 86.523437,88.720703 83.935547,89.013672 78.125,89.599609 V 101.2207 q 0,1.75782 0.878906,2.14844 0.634766,0.29297 3.66211,0.29297 5.859375,0 6.640625,-1.17188 0.830078,-1.2207 0.927734,-6.201168 l 6.689453,2.197266 q -0.488281,8.056642 -3.369141,9.960942 -2.392578,1.5625 -11.767578,1.5625 -6.591797,0 -8.544922,-1.31836 -1.904296,-1.31836 -1.904296,-4.98047 V 90.185547 Q 68.408203,90.380859 65.625,90.625 q -0.683594,0.04883 -1.5625,0.09766 -1.025391,8.789063 -4.736328,13.867184 -3.613281,4.93164 -11.767578,8.4961 l -4.736328,-4.98047 q 8.154296,-3.02734 11.376953,-8.00781 2.34375,-3.613285 3.076172,-8.886723 z M 44.433594,112.79297 q -0.09766,30.5664 -2.587891,40.03906 -1.074219,4.10156 -4.101562,5.51758 -2.050782,0.92773 -6.152344,0.92773 -5.371094,0 -9.179688,-0.58593 l -1.220703,-6.98243 q 5.22461,0.87891 9.570313,0.87891 3.320312,0 4.199218,-2.05078 2.294922,-5.07813 2.539063,-30.17578 l 0.04883,-1.36719 H 5.7128906 V 68.212891 H 45.117187 v 6.396484 h -15.08789 v 8.59375 h 12.207031 v 6.005859 H 30.029297 v 8.691407 h 12.207031 v 6.005859 H 30.029297 v 8.88672 z M 12.695313,74.609375 v 8.59375 h 10.595703 v -8.59375 z m 0,14.599609 v 8.691407 h 10.595703 v -8.691407 z m 0,14.697266 v 8.88672 h 10.595703 v -8.88672 z M 76.5625,141.50391 q 0.195312,0.14648 0.732422,0.48828 8.251953,5.76172 21.240234,10.49804 l -4.101562,6.68946 q -13.81836,-5.61524 -22.949219,-13.03711 -9.423828,7.91015 -24.853516,13.13476 l -4.492187,-6.20117 q 12.890625,-3.71094 23.974609,-11.76758 -5.371094,-5.61523 -9.033203,-11.66992 -3.90625,4.44336 -8.349609,7.86133 l -4.492188,-5.12695 q 11.669922,-9.13086 17.96875,-23.38867 l 6.494141,1.90429 q -1.806641,3.85742 -3.222656,6.39649 h 20.55664 l 4.492188,4.0039 Q 85.009766,132.66602 76.5625,141.50391 Z m -5.517578,-4.49219 q 6.689453,-6.73828 9.863281,-13.33008 H 61.572266 q -0.488282,0.73242 -0.53711,0.83008 4.394531,7.32422 10.009766,12.5 z m -69.8242189,11.2793 q 2.734375,-11.57227 3.515625,-23.48633 l 5.5664059,0.97656 Q 9.765625,141.06445 7.1289062,151.9043 Z M 13.720703,147.80273 Q 13.671875,136.57227 12.5,126.31836 l 4.931641,-1.12305 q 1.5625,10.9375 1.904296,21.19141 z m 9.423828,-2.58789 q -1.02539,-11.57226 -2.929687,-19.92187 l 4.394531,-1.51367 q 2.587891,8.98437 3.613281,19.82422 z m 8.154297,-3.32031 q -1.953125,-11.81641 -3.857422,-18.31055 l 4.394531,-1.5625 q 2.929688,8.4961 4.199219,17.96875 z M 187.10937,78.662109 V 150 q 0,4.3457 -2.0996,6.39648 -2.19727,2.09961 -7.76368,2.09961 -8.10547,0 -14.9414,-0.58593 l -1.9043,-7.71485 q 8.59375,1.02539 15.38086,1.02539 2.83203,0 3.36914,-1.26953 0.3418,-0.78125 0.3418,-2.34375 V 78.662109 h -53.17383 v -6.982422 h 71.48437 v 6.982422 z m -18.89648,14.746094 v 37.792967 h -25.53711 v 7.91016 h -7.17773 V 93.408203 Z m -25.53711,6.494141 v 24.804686 h 18.45703 V 99.902344 Z m -21.875,-12.988282 q -8.10547,-9.423828 -15.38086,-15.429687 l 5.3711,-5.273438 q 7.91015,6.201172 15.42968,14.892579 z m -3.32031,25.488278 q -8.1543,-9.17968 -15.47852,-15.185543 l 5.32227,-5.517578 q 7.91016,6.005859 15.77148,14.892581 z m -13.28125,40.38086 q 9.66797,-12.79297 18.31055,-33.39843 l 6.20117,4.73632 q -7.51953,19.67774 -18.11524,34.47266 z M 265.08789,73.583984 h 32.12891 v 6.298828 h -23.38868 v 19.189454 q 0,3.076174 -1.5625,4.492184 -1.5625,1.41602 -5.66406,1.41602 -5.02929,0 -8.49609,-0.48828 l -1.12305,-6.298831 q 4.39453,0.683594 7.4707,0.683594 1.61133,0 1.9043,-1.171875 0.14649,-0.537109 0.14649,-1.416016 v -16.40625 h -10.64454 q -0.43945,9.91211 -2.24609,14.794922 -2.63672,6.982426 -12.01172,11.914066 l -5.07812,-4.83399 q 8.49609,-4.052732 10.69336,-10.058591 1.46484,-4.003907 1.61132,-11.816407 h -21.82617 v -6.298828 h 30.32227 v -9.082031 h 7.76367 z m 24.60938,35.009766 v 18.79883 h -49.60938 q -0.53711,3.90625 -1.31836,7.32422 h 55.32227 q -0.97657,12.30468 -3.41797,18.01757 -1.66016,3.95508 -5.95703,5.56641 -3.32032,1.2207 -9.22852,1.2207 -7.91016,0 -15.86914,-0.78125 l -1.70898,-7.03125 q 10.69336,1.12305 17.48046,1.12305 4.19922,0 5.66407,-0.97656 2.58789,-1.70899 4.15039,-11.03516 h -47.94922 q -0.73242,2.68555 -1.66016,5.71289 l -7.71484,-1.80664 q 2.92969,-8.64258 5.32226,-23.24218 h 48.68165 v -6.98243 h -52.39258 v -5.9082 z M 219.18945,86.083984 q -6.29883,-8.349609 -13.96484,-15.08789 l 5.37109,-4.980469 q 7.37305,5.810547 14.20899,14.501953 z m -3.07617,25.439456 q -7.4707,-9.13086 -14.50195,-15.136721 l 5.32226,-5.273438 q 7.56836,6.103516 14.79493,14.501949 z m -12.30469,41.69922 q 8.4961,-12.74414 15.91797,-33.39844 l 6.00586,4.39453 q -6.39648,19.28711 -15.42969,34.66797 z m 87.89063,-50.14649 Q 284.86328,93.261719 276.9043,85.791016 l 5.32226,-3.90625 q 9.08203,7.666015 15.28321,16.699218 z m -69.28711,-4.589842 q 8.44726,-6.054687 13.62305,-15.478516 l 6.29882,2.587891 q -5.22461,10.546875 -14.50195,17.480467 z"></path>
</svg>
