<svg xmlns="http://www.w3.org/2000/svg" id="svg1" version="1.1" height="200" width="990">
  <defs id="defs1"></defs>
  <rect id="rect1" stroke="none" fill="none" height="200" width="990" y="0" x="0"></rect>
  <path aria-label="宮城県沖" style="font-size:100px;font-family:'BIZ UDPGothic';fill:#ff0000" id="text1" d="m 53.417969,75.195312 h 39.990234 v 19.726563 h -7.8125 V 81.591797 H 13.916016 V 94.921875 H 6.2011719 V 75.195312 H 45.703125 V 64.501953 h 7.714844 z m 26.171875,16.015625 v 24.902343 h -27.34375 q -1.220703,4.49219 -3.90625,10.49805 h 40.478515 v 32.91015 h -8.203125 v -5.32226 H 19.384766 v 5.32226 h -8.105469 v -32.91015 h 28.955078 q 2.490234,-5.95703 3.710937,-10.49805 H 19.580078 V 91.210937 Z m -52.09961,6.201172 V 109.91211 H 71.679687 V 97.412109 Z m -8.105468,35.498051 v 14.89257 h 61.230468 v -14.89257 z m 152.783204,-1.95313 q -4.78516,-16.45508 -6.15235,-41.357421 h -24.70703 v 14.404301 h 20.80078 q -0.0977,23.4375 -2.05078,32.37304 -1.36718,6.29883 -8.39843,6.29883 -3.4668,0 -7.56836,-0.78125 l -0.87891,-6.98242 q 4.24805,0.87891 6.88477,0.87891 2.58789,0 3.32031,-2.29493 1.51367,-4.83398 1.85547,-22.80273 h -13.96485 q 0,13.03711 -1.36718,22.70508 -2.00196,13.96484 -8.88672,25.39062 l -6.29883,-4.78515 q 5.61523,-9.08204 7.56836,-20.9961 1.5625,-9.47265 1.5625,-23.19336 V 82.714844 h 31.78711 q -0.3418,-7.861328 -0.39063,-18.212891 h 7.42188 q 0.0488,9.912109 0.34179,17.138672 l 0.0488,1.074219 h 22.99805 v 6.884765 H 173.4375 q 1.07422,18.261721 4.15039,32.324221 5.32227,-9.86328 8.78906,-21.82617 l 6.9336,3.22265 q -6.39649,17.04102 -13.13477,28.27149 3.32031,9.66797 7.17774,15.2832 1.31835,1.9043 1.85546,1.9043 0.58594,0 1.12305,-2.00196 1.2207,-4.78515 1.95313,-11.47461 l 6.00586,3.8086 q -1.07422,10.74219 -3.07618,15.42969 -1.75781,4.15039 -4.78515,4.15039 -6.25,0 -15.23438,-19.62891 -7.76367,10.88867 -20.11719,19.92187 L 150,153.51562 q 7.08008,-5.02929 11.03516,-8.98437 6.10351,-6.15234 11.13281,-13.57422 z M 113.91602,89.013672 V 65.234375 h 7.42187 v 23.779297 h 9.27734 v 7.080078 h -9.27734 v 35.20508 q 4.58984,-2.00196 9.17969,-4.29688 l 0.78125,6.88477 q -11.81641,6.73828 -26.70899,12.01172 l -2.58789,-7.51953 q 5.22461,-1.5625 11.91407,-4.10157 V 96.09375 h -10.9375 v -7.080078 z m 72.26562,-7.226563 q -3.71094,-7.177734 -8.88672,-13.378906 l 5.51758,-3.320312 q 5.07812,5.859375 9.27734,12.988281 z M 282.86133,67.578125 V 114.4043 H 225.78125 V 67.578125 Z m -49.36524,6.005859 v 7.714844 h 41.55274 v -7.714844 z m 0,13.330078 v 7.763672 h 41.55274 v -7.763672 z m 0,13.476568 v 8.30078 h 41.55274 v -8.30078 z M 214.4043,122.2168 h 83.05664 v 6.49414 h -41.99219 v 30.81054 h -7.91016 V 128.71094 H 206.5918 V 74.267578 h 7.8125 z m -9.22852,29.6875 q 12.79297,-6.15235 23.0957,-19.28711 l 6.5918,3.66211 q -10.40039,13.62304 -24.07226,21.72851 z m 84.17969,4.10156 q -10.25391,-11.18164 -23.29102,-19.82422 l 6.00586,-4.49219 q 11.76758,7.37305 23.68164,18.79883 z M 358.69141,85.302734 V 64.501953 h 7.71484 v 20.800781 h 27.7832 v 40.478516 h -27.7832 v 33.69141 h -7.71484 v -33.69141 h -26.9043 V 85.302734 Z m -19.38477,6.982422 v 26.513674 h 19.38477 V 92.285156 Z m 47.26563,26.513674 V 92.285156 H 366.40625 V 118.79883 Z M 321.77734,86.621094 q -6.54297,-8.34961 -15.2832,-15.527344 l 5.32227,-5.273438 q 8.30078,6.201172 15.67382,14.990235 z m -3.66211,25.488286 q -7.66601,-8.8379 -15.91796,-15.527349 l 5.41992,-5.46875 q 8.39843,6.201172 16.16211,14.990239 z m -13.7207,40.57617 q 9.52149,-12.69532 17.48047,-32.86133 l 6.29883,5.07812 q -7.32422,19.14063 -17.08985,33.69141 z"></path>
</svg>
