<svg version="1.1" xmlns="http://www.w3.org/2000/svg" xmlns:xlink="http://www.w3.org/1999/xlink" width="168.1" height="38.441" viewBox="0,0,168.1,38.441"><g transform="translate(-240.15212,-179.94746)"><g stroke="none" stroke-miterlimit="10"><path d="M248.15212,179.94746h152.1c4.432,0 8,3.568 8,8v22.441c0,4.432 -3.568,8 -8,8h-152.1c-4.432,0 -8,-3.568 -8,-8v-22.441c0,-4.432 3.568,-8 8,-8z" fill-opacity="0.7" fill="#000000" fill-rule="evenodd" stroke-width="0"/><path d="M297.7174,199.2063c-0.01989,1.35029 -0.08152,2.20705 -0.18491,2.57026c-0.05368,0.18588 -0.13918,0.31621 -0.25648,0.39099c-0.10935,0.07051 -0.26543,0.10576 -0.46823,0.10576c-0.19087,0 -0.42747,-0.01816 -0.70981,-0.05448l-0.12228,-0.63775c0.33204,0.04486 0.56466,0.0673 0.69788,0.0673c0.13918,0 0.22766,-0.03846 0.26543,-0.11537c0.06959,-0.13888 0.12327,-0.71574 0.16105,-1.7306h-0.83208c-0.00399,0.01495 -0.00698,0.03312 -0.00897,0.05448c-0.01193,0.08332 -0.0338,0.21152 -0.06562,0.38458l-0.58455,-0.09615c0.12327,-0.93153 0.19883,-1.7306 0.22666,-2.3972h1.21383v-0.80441h-1.39874v-0.61853h1.99223v2.01903h-1.24664l-0.01491,0.27241c-0.01193,0.18588 -0.02684,0.38244 -0.04473,0.58969zM299.28017,197.93719l-0.11035,0.00964c-0.338,0.02991 -0.74957,0.05875 -1.23471,0.08653l-0.14614,-0.61853c0.10935,-0.00214 0.20081,-0.00428 0.27438,-0.00643c0.04175,0 0.09543,-0.00107 0.16105,-0.00321c0.30818,-0.46363 0.56665,-0.92192 0.77542,-1.37486l0.62332,0.15704c-0.2028,0.37603 -0.45133,0.7745 -0.7456,1.19539l0.23263,-0.00643c0.38771,-0.01282 0.82015,-0.03739 1.29734,-0.07371l-0.0507,-0.0705c-0.1193,-0.1752 -0.26245,-0.36535 -0.42946,-0.57046l0.50104,-0.28523c0.44935,0.53841 0.78536,1.02661 1.00805,1.4646l-0.51893,0.34932c-0.08351,-0.17306 -0.15508,-0.31194 -0.21473,-0.41663c-0.3042,0.04486 -0.57659,0.08012 -0.81717,0.10576v0.63135h1.27646v1.83636h-1.27646v1.07041c0.18491,-0.02137 0.38175,-0.04487 0.59051,-0.07051l0.06562,-0.00964c-0.08947,-0.20938 -0.18789,-0.41235 -0.29526,-0.60891l0.55472,-0.23716c0.25648,0.4209 0.4911,0.93046 0.70384,1.5287l-0.58156,0.30766c-0.07158,-0.21365 -0.13222,-0.38351 -0.18193,-0.50957l-0.22368,0.03846c-0.83904,0.14742 -1.70195,0.26066 -2.58871,0.33971l-0.16403,-0.62814c0.47718,-0.01923 0.97226,-0.04914 1.48523,-0.08974l0.02983,-0.00321v-1.12803h-1.24068v-1.83636h1.24067zM299.28017,199.04926h-0.68595v0.75954h0.68595zM299.8856,199.04926v0.75954h0.70086v-0.75954zM304.28163,196.92126v-0.27561h-1.86399v-0.45829h4.402v0.45829h-1.90276v0.27561h2.46941v1.15053h-0.64718v-0.73711h-1.82224v1.24667h-0.63525v-1.24667h-1.78943v0.73711h-0.64121v-1.15053zM306.39315,201.46889c0.3042,0.12392 0.68396,0.2222 1.13927,0.29484l-0.34894,0.54482c-0.63823,-0.11751 -1.16214,-0.31941 -1.57172,-0.60571c-0.40759,-0.2863 -0.72472,-0.64203 -0.95138,-1.0672h-0.65911v0.98708c0.4394,-0.06623 0.847,-0.13674 1.22278,-0.21152l0.04175,0.47752c-0.69987,0.17947 -1.50014,0.33544 -2.40082,0.4679l-0.17596,-0.56405c0.31216,-0.03632 0.52589,-0.06196 0.64121,-0.07692l0.03579,-0.00643v-1.07361h-0.65314c-0.02783,0.37603 -0.07356,0.67622 -0.13719,0.90055c-0.07555,0.2692 -0.19684,0.52025 -0.36385,0.75313l-0.53086,-0.47111c0.19485,-0.27134 0.31613,-0.58862 0.36385,-0.95183c0.02585,-0.19656 0.03877,-0.4412 0.03877,-0.7339v-1.35884h5.14759v0.42624h-4.50638v0.98388h4.76286v0.45188h-0.677l0.37876,0.2692c-0.22467,0.20083 -0.49011,0.38885 -0.7963,0.56405zM305.9279,201.22212c0.28631,-0.20938 0.51396,-0.40487 0.68297,-0.58648h-1.3033c0.17099,0.23502 0.37777,0.43051 0.62034,0.58648zM302.75465,197.57184h1.2705v0.36214h-1.2705zM302.75465,198.16153h1.2705v0.36855h-1.2705zM305.17336,197.57184h1.30927v0.36214h-1.30927zM305.17336,198.16153h1.30927v0.36855h-1.30927zM303.07973,199.46909h3.71307v0.41983h-3.71307zM308.22135,196.55592h4.52726v0.65699h-2.5231v1.36204h3.00028v0.65699h-3.00028v1.58959c0,0.11965 0.01988,0.19977 0.05965,0.24036c0.07754,0.08333 0.44338,0.12499 1.09752,0.12499c0.46326,0 0.93448,-0.01709 1.41365,-0.05128v0.72108c-0.49706,0.02777 -0.96729,0.04166 -1.41067,0.04166c-0.65612,0 -1.07565,-0.02136 -1.25856,-0.06409c-0.25648,-0.05768 -0.42648,-0.18374 -0.50999,-0.37817c-0.04971,-0.11324 -0.07456,-0.25959 -0.07456,-0.43906v-1.78508h-1.6254v-0.65699h1.6254v-1.36204h-1.3212zM314.41874,197.10073h4.10376v0.68903h-4.10376zM313.81332,200.77024h5.3146v0.69544h-5.3146zM324.05482,196.91486l0.42648,0.37496c-0.27836,1.36739 -0.72969,2.42604 -1.354,3.17597c-0.34596,0.41449 -0.79331,0.7777 -1.34207,1.08964c-0.3897,0.22006 -0.80823,0.39526 -1.25558,0.52559l-0.34596,-0.63135c1.02196,-0.2863 1.81528,-0.74352 2.37994,-1.37166c-0.46525,-0.44867 -0.97822,-0.84607 -1.53891,-1.19219l0.39069,-0.51918c0.54677,0.30553 1.0667,0.68156 1.55979,1.12809c0.38771,-0.6666 0.63127,-1.31184 0.73068,-1.93571h-2.0996c-0.48116,0.80548 -1.04781,1.42187 -1.69996,1.84918l-0.43841,-0.50956c0.63028,-0.40808 1.14822,-0.94756 1.55382,-1.61843c0.20877,-0.34185 0.37081,-0.7104 0.48613,-1.10566l0.64718,0.16986c-0.06561,0.19229 -0.13918,0.38244 -0.2207,0.57046zM328.19138,201.31827c1.16711,-0.31621 1.75066,-1.03515 1.75066,-2.15684c0,-0.48927 -0.11731,-0.91017 -0.35192,-1.2627c-0.26245,-0.3974 -0.66209,-0.65271 -1.19892,-0.76595c-0.11731,0.99136 -0.27736,1.80324 -0.48016,2.43566c-0.13918,0.44226 -0.31216,0.85996 -0.51893,1.25308c-0.29824,0.55977 -0.63724,0.83966 -1.01699,0.83966c-0.28233,0 -0.53385,-0.13674 -0.75454,-0.41022c-0.14117,-0.17306 -0.25549,-0.38565 -0.34297,-0.63776c-0.11532,-0.32689 -0.17298,-0.67835 -0.17298,-1.05438c0,-0.60891 0.15608,-1.16976 0.46823,-1.68253c0.31613,-0.52345 0.72671,-0.90376 1.23172,-1.14091c0.36783,-0.17306 0.77144,-0.25959 1.21085,-0.25959c0.68595,0 1.26851,0.19763 1.74768,0.59289c0.58852,0.48499 0.88279,1.17189 0.88279,2.06069c0,1.48917 -0.70086,2.43352 -2.10258,2.83305zM327.74402,197.10714c-0.35192,0.04273 -0.64618,0.14422 -0.88278,0.30446c-0.15111,0.10469 -0.30122,0.24357 -0.45034,0.41662c-0.41356,0.4914 -0.62034,1.06079 -0.62034,1.70816c0,0.47218 0.08748,0.8418 0.26245,1.10887c0.10737,0.16451 0.21374,0.24677 0.31911,0.24677c0.14315,0 0.3042,-0.16986 0.48315,-0.50957c0.43742,-0.82684 0.73367,-1.91861 0.88875,-3.27532zM332.0983,197.59748v-0.69544h-0.97226v-0.59609h3.06589v0.59609h-0.9305v0.69544h0.82015v4.62775h-0.54876v-0.30766h-1.67013v0.37496h-0.56665v-4.69505zM332.53075,197.59748h0.29227v-0.69544h-0.29227zM332.14304,198.14871h-0.28034v1.42935c0.16701,-0.32903 0.26046,-0.80548 0.28034,-1.42935zM332.52478,198.14871c-0.00199,0.7777 -0.12626,1.40371 -0.3728,1.87802l-0.28929,-0.28202v0.54482h1.67013v-0.62494h-0.34894c-0.13918,0 -0.23461,-0.02884 -0.28631,-0.08653c-0.04971,-0.05555 -0.07456,-0.15063 -0.07456,-0.28523v-1.14412zM333.20775,198.14871v0.90055c0,0.05982 0.00795,0.09614 0.02386,0.10896c0.01392,0.01068 0.04672,0.01603 0.09842,0.01603h0.2028v-1.02554zM331.86269,200.80229v0.54482h1.67013v-0.54482zM335.13138,199.15502v2.1312c0,0.11537 0.03181,0.18374 0.09544,0.20511c0.09345,0.03205 0.24555,0.04807 0.4563,0.04807c0.18888,0 0.32409,-0.0203 0.4056,-0.06089c0.06561,-0.03205 0.10836,-0.1111 0.12824,-0.23716c0.01989,-0.1346 0.03679,-0.39099 0.0507,-0.76915l0.00598,-0.1314l0.64121,0.17947c-0.01588,0.55123 -0.0447,0.93474 -0.08643,1.15053c-0.05769,0.29271 -0.22371,0.45936 -0.49806,0.49995c-0.18292,0.02564 -0.46525,0.03846 -0.847,0.03846c-0.40163,0 -0.66706,-0.0438 -0.7963,-0.1314c-0.12327,-0.08333 -0.18491,-0.26173 -0.18491,-0.5352v-3.01252h1.53294v-1.56715h-1.60452v-0.63135h2.22784v2.82344zM338.62077,199.92738v1.16335c0,0.16879 0.05766,0.27027 0.17299,0.30446c0.17099,0.05128 0.73664,0.07692 1.69698,0.07692c0.85296,0 1.38382,-0.02671 1.59259,-0.08012c0.09941,-0.02564 0.16304,-0.08546 0.19087,-0.17947c0.03383,-0.10683 0.06068,-0.35573 0.08055,-0.74672l0.65911,0.21793c-0.02187,0.4209 -0.05367,0.70933 -0.09541,0.8653c-0.0537,0.20297 -0.15311,0.34078 -0.29824,0.41342c-0.10339,0.05128 -0.24655,0.08333 -0.42946,0.09615c-0.47122,0.03632 -1.08658,0.05448 -1.8461,0.05448c-1.06372,0 -1.69599,-0.0203 -1.8968,-0.06089c-0.22666,-0.04486 -0.37279,-0.15169 -0.43841,-0.32048c-0.03183,-0.08546 -0.04775,-0.19229 -0.04775,-0.32048v-3.29134l-0.02981,0.02564c-0.09146,0.07051 -0.19983,0.14849 -0.32509,0.23395l-0.40859,-0.532c0.70981,-0.41876 1.31026,-1.01593 1.80136,-1.79149l0.41753,0.30766h1.69698l0.31613,0.35253c-0.26245,0.39953 -0.53683,0.75954 -0.82314,1.08002h1.9117v2.1312zM338.62077,199.35692h1.28243v-0.97106h-1.28243zM340.5444,198.38586v0.97106h1.30927v-0.97106zM339.85249,197.79618c0.25649,-0.28843 0.4752,-0.57152 0.65613,-0.84927h-1.37786c-0.2207,0.29057 -0.48315,0.57366 -0.78735,0.84927zM348.42685,201.82463c-0.58853,0.06623 -1.19693,0.09935 -1.82522,0.09935c-0.92652,0 -1.57569,-0.06303 -1.94749,-0.18908c-0.2704,-0.09187 -0.48414,-0.22861 -0.64122,-0.41022c-0.18093,-0.21152 -0.27139,-0.46897 -0.27139,-0.77236c0,-0.39953 0.12725,-0.75847 0.38174,-1.07682c0.21672,-0.27134 0.56566,-0.54054 1.04682,-0.80761c-0.27438,-0.66233 -0.52291,-1.41653 -0.7456,-2.2626l0.66507,-0.18588c0.20678,0.81189 0.42549,1.52976 0.65612,2.15363c0.76548,-0.37817 1.57769,-0.69331 2.43661,-0.94542l0.19981,0.65058c-0.94243,0.25638 -1.87889,0.62066 -2.8094,1.09284c-0.2883,0.14742 -0.49309,0.26814 -0.61437,0.36214c-0.3559,0.27989 -0.53385,0.59075 -0.53385,0.9326c0,0.29698 0.16503,0.50422 0.49508,0.62173c0.27438,0.09614 0.76548,0.14422 1.4733,0.14422c0.65413,0 1.30926,-0.04059 1.96539,-0.12178zM351.74027,196.92126v-0.27561h-1.86399v-0.45829h4.402v0.45829h-1.90276v0.27561h2.46941v1.15053h-0.64717v-0.73711h-1.82224v1.24667h-0.63525v-1.24667h-1.78943v0.73711h-0.64121v-1.15053zM353.85179,201.46889c0.30421,0.12392 0.68396,0.2222 1.13927,0.29484l-0.34894,0.54482c-0.63823,-0.11751 -1.16213,-0.31941 -1.57171,-0.60571c-0.40759,-0.2863 -0.72471,-0.64203 -0.95138,-1.0672h-0.6591v0.98708c0.4394,-0.06623 0.847,-0.13674 1.22278,-0.21152l0.04177,0.47752c-0.69986,0.17947 -1.50014,0.33544 -2.40082,0.4679l-0.17596,-0.56405c0.31216,-0.03632 0.52589,-0.06196 0.64121,-0.07692l0.03579,-0.00643v-1.07361h-0.65314c-0.02785,0.37603 -0.07358,0.67622 -0.13719,0.90055c-0.07555,0.2692 -0.19684,0.52025 -0.36386,0.75313l-0.53086,-0.47111c0.19485,-0.27134 0.31613,-0.58862 0.36385,-0.95183c0.02585,-0.19656 0.03878,-0.4412 0.03878,-0.7339v-1.35884h5.14759v0.42624h-4.50638v0.98388h4.76286v0.45188h-0.677l0.37876,0.2692c-0.22467,0.20083 -0.49011,0.38885 -0.7963,0.56405zM353.38654,201.22212c0.28631,-0.20938 0.51397,-0.40487 0.68297,-0.58648h-1.3033c0.17099,0.23502 0.37777,0.43051 0.62033,0.58648zM350.21329,197.57184h1.27049v0.36214h-1.27049zM350.21329,198.16153h1.27049v0.36855h-1.27049zM352.632,197.57184h1.30926v0.36214h-1.30926zM352.632,198.16153h1.30926v0.36855h-1.30926zM350.53837,199.46909h3.71307v0.41983h-3.71307zM358.65045,196.63283h2.33819v0.53841h-1.32418v0.532h1.24068v0.51918h-1.24068v0.95503h-2.40081v-0.95503h-0.97823v0.59609c0,0.96785 -0.04772,1.73273 -0.14315,2.29464c-0.07357,0.42731 -0.19286,0.81723 -0.35789,1.16976l-0.54279,-0.46149c0.15111,-0.35253 0.2545,-0.78304 0.31017,-1.29154c0.04971,-0.44654 0.07457,-1.01699 0.07457,-1.71137v-2.18568h2.35906v-0.57687h0.66507zM356.28541,197.17124v0.532h0.97823v-0.532zM357.89889,197.17124v0.532h1.13032v-0.532zM357.89889,198.22242v0.49675h1.13032v-0.49675zM358.5908,201.58747c-0.5746,0.32048 -1.30429,0.56405 -2.18907,0.7307l-0.31017,-0.58968c0.83109,-0.10683 1.48225,-0.27027 1.95346,-0.49034c-0.40362,-0.31407 -0.74858,-0.6869 -1.03489,-1.11848h-0.41157v-0.55764h3.49237l0.31315,0.28202c-0.29625,0.48927 -0.71876,0.94969 -1.26751,1.38127c0.47122,0.20297 1.11342,0.35253 1.92662,0.44867l-0.34894,0.60571c-0.77939,-0.11324 -1.48721,-0.34398 -2.12345,-0.69224zM357.70503,200.11967c0.24058,0.30339 0.53286,0.57046 0.87682,0.8012c0.38771,-0.2692 0.68694,-0.53627 0.8977,-0.8012zM362.80789,199.92738v1.16335c0,0.16879 0.05766,0.27027 0.17298,0.30446c0.17099,0.05128 0.73665,0.07692 1.69698,0.07692c0.85296,0 1.38382,-0.02671 1.59259,-0.08012c0.09941,-0.02564 0.16304,-0.08546 0.19087,-0.17947c0.03383,-0.10683 0.06068,-0.35573 0.08055,-0.74672l0.6591,0.21793c-0.02187,0.4209 -0.05367,0.70933 -0.09541,0.8653c-0.0537,0.20297 -0.15311,0.34078 -0.29824,0.41342c-0.10339,0.05128 -0.24654,0.08333 -0.42946,0.09615c-0.47122,0.03632 -1.08658,0.05448 -1.8461,0.05448c-1.06371,0 -1.69598,-0.0203 -1.89679,-0.06089c-0.22667,-0.04486 -0.3728,-0.15169 -0.43842,-0.32048c-0.03183,-0.08546 -0.04775,-0.19229 -0.04775,-0.32048v-3.29134l-0.02981,0.02564c-0.09146,0.07051 -0.19982,0.14849 -0.32509,0.23395l-0.40858,-0.532c0.70981,-0.41876 1.31026,-1.01593 1.80135,-1.79149l0.41753,0.30766h1.69698l0.31613,0.35253c-0.26245,0.39953 -0.53683,0.75954 -0.82314,1.08002h1.9117v2.1312zM362.80789,199.35692h1.28242v-0.97106h-1.28242zM364.73153,198.38586v0.97106h1.30926v-0.97106zM364.03962,197.79618c0.25648,-0.28843 0.47519,-0.57152 0.65612,-0.84927h-1.37786c-0.2207,0.29057 -0.48315,0.57366 -0.78735,0.84927zM367.69601,196.83474c1.82919,-0.02991 3.55798,-0.08012 5.18636,-0.15063l0.03579,0.63776c-0.71776,0.03846 -1.27646,0.15597 -1.6761,0.35253c-0.38174,0.18802 -0.68793,0.44867 -0.91857,0.78197c-0.26245,0.37817 -0.39367,0.79907 -0.39367,1.2627c0,0.46149 0.14912,0.80761 0.44736,1.03836c0.34198,0.26279 0.86687,0.44333 1.57469,0.54161l-0.14017,0.72108c-0.92255,-0.13247 -1.57172,-0.38885 -1.9475,-0.76915c-0.40361,-0.40594 -0.60542,-0.91017 -0.60542,-1.51267c0,-0.54695 0.18292,-1.05759 0.54875,-1.5319c0.26643,-0.34826 0.63128,-0.62814 1.09454,-0.83966c-0.82115,0.02991 -1.87989,0.08012 -3.17624,0.15063zM372.0324,199.60049c-0.11731,-0.33544 -0.31514,-0.71574 -0.5935,-1.14091l0.46525,-0.18588c0.24853,0.36749 0.44835,0.74352 0.59946,1.12809zM372.83764,199.26398c-0.14117,-0.39312 -0.33801,-0.77556 -0.59052,-1.14732l0.44438,-0.16986c0.23262,0.30339 0.43045,0.67087 0.5935,1.10246zM377.38577,200.94651l0.04177,0.57366c-0.8629,0.32689 -1.82223,0.59609 -2.878,0.80761l-0.2207,-0.64096c0.18292,-0.02991 0.4414,-0.07798 0.77542,-0.14422v-1.17296c-0.34397,0.18802 -0.75355,0.36642 -1.22874,0.5352l-0.33999,-0.57046c0.95635,-0.27775 1.68604,-0.63242 2.18907,-1.064h-2.12942v-0.55764h2.5559v-0.48393h-1.93259v-0.53841h1.93259v-0.45188h-2.23679v-0.55123h2.23679v-0.63135h0.65314v0.63135h2.3024v0.55123h-2.3024v0.45188h1.9982v0.53841h-1.9982v0.48393h2.62151v0.55764h-0.71279l0.4414,0.32689c-0.27239,0.28416 -0.65414,0.59503 -1.14524,0.9326l-0.06859,0.04807c0.37379,0.36749 0.8808,0.67087 1.52101,0.91017l-0.40262,0.65058c-0.6939,-0.31621 -1.25161,-0.7136 -1.67312,-1.19219zM376.48211,199.28001c-0.19883,0.24997 -0.43841,0.47431 -0.71876,0.67301v1.43896c0.4911,-0.11751 0.98419,-0.25425 1.47926,-0.41022l0.1372,-0.04166c-0.40759,-0.485 -0.70683,-1.03836 -0.8977,-1.66009zM377.57068,200.15492c0.35391,-0.27134 0.66407,-0.56618 0.9305,-0.88453h-1.41067c0.12725,0.32689 0.2873,0.62173 0.48017,0.88453zM382.98071,198.78647v2.84267c0,0.25852 -0.04871,0.43479 -0.14613,0.52879c-0.09146,0.08546 -0.26842,0.12819 -0.53087,0.12819c-0.29824,0 -0.58156,-0.0203 -0.84997,-0.06089l-0.12824,-0.67622c0.27835,0.04914 0.54478,0.07371 0.79928,0.07371c0.08549,0 0.13917,-0.01602 0.16104,-0.04807c0.01588,-0.02777 0.02383,-0.07371 0.02383,-0.13781v-2.65038h-2.56482v-0.63776h5.74705v0.63776zM380.4606,196.4117h4.31253v0.63135h-4.31253zM379.70904,201.32788c0.42947,-0.48286 0.77542,-1.12489 1.03787,-1.92609l0.61735,0.24998c-0.30421,0.91658 -0.68695,1.63659 -1.14822,2.16004zM384.82681,201.71887c-0.41157,-0.93581 -0.76945,-1.62057 -1.07365,-2.05428l0.56069,-0.35894c0.43742,0.60464 0.81021,1.2627 1.11839,1.97416z" fill="#ffffff" fill-rule="nonzero" stroke-width="3.00094"/><g fill="#ffffff" fill-rule="nonzero" stroke-width="1"><path d="M250.30942,189.72951v2.55908c0,0.16587 0.06563,0.26604 0.1969,0.3005c0.13524,0.03663 0.44451,0.05495 0.92781,0.05495c0.47136,0 0.78262,-0.02584 0.93377,-0.07753c0.08552,-0.03018 0.14121,-0.11419 0.16706,-0.25204c0.03382,-0.19387 0.05173,-0.42328 0.05371,-0.68825l0.62351,0.19064c-0.03184,0.63548 -0.11239,1.04153 -0.24165,1.21814c-0.08552,0.11633 -0.2148,0.18527 -0.38783,0.20681c-0.27247,0.03233 -0.7349,0.0485 -1.38728,0.0485c-0.50518,0 -0.83632,-0.01509 -0.99342,-0.04527c-0.23668,-0.04308 -0.38684,-0.15618 -0.45048,-0.33928c-0.03184,-0.09694 -0.04775,-0.22619 -0.04775,-0.38774v-2.56241l-0.56981,0.21326l-0.14022,-0.62686l0.71003,-0.26496v-1.74161h0.6056v1.51547l0.64142,-0.23587v-1.7029h0.59964v1.47665l0.99938,-0.37159l0.31325,0.2068v2.42015c0,0.16802 -0.03679,0.29297 -0.11038,0.37483c-0.08353,0.09047 -0.22375,0.13571 -0.42065,0.13571c-0.1611,0 -0.33214,-0.01509 -0.51312,-0.04527l-0.09845,-0.61716c0.11735,0.03233 0.23668,0.0485 0.35799,0.0485c0.08751,0 0.14121,-0.01939 0.1611,-0.05818c0.01986,-0.03233 0.02979,-0.08618 0.02979,-0.16156v-1.52837l-0.71898,0.27142v2.61403h-0.59964v-2.39111zM248.11666,188.67289v-1.56063h0.64141v1.56063h0.57876v0.65594h-0.57876v2.05507c0.20883,-0.07755 0.41567,-0.15833 0.62053,-0.24234l0.05669,0.62363c-0.64441,0.31881 -1.3057,0.58593 -1.98387,0.80134l-0.20884,-0.68825c0.30629,-0.08617 0.57478,-0.16803 0.80549,-0.24557c0.02786,-0.01075 0.05073,-0.01828 0.0686,-0.02258v-2.28121h-0.75776v-0.65594z"/><path d="M256.01687,187.98114v-0.27789h-1.86453v-0.46206h4.40338v0.46206h-1.90335v0.27789h2.47015v1.15996h-0.64737v-0.74318h-1.82283v1.25696h-0.63544v-1.25696h-1.78997v0.74318h-0.64142v-1.15996zM258.12901,192.56625c0.30429,0.12494 0.68415,0.22403 1.13957,0.29727l-0.34905,0.54931c-0.63843,-0.11848 -1.16251,-0.32205 -1.57224,-0.6107c-0.40771,-0.28866 -0.72494,-0.64732 -0.95166,-1.07598h-0.65932v0.99522c0.43954,-0.06674 0.84726,-0.13783 1.22316,-0.21326l0.0418,0.48145c-0.70008,0.18095 -1.50059,0.3382 -2.40155,0.47176l-0.17601,-0.56869c0.31225,-0.03663 0.52605,-0.06248 0.64141,-0.07753l0.03584,-0.00624v-1.08243h-0.65334c-0.02786,0.37913 -0.07361,0.68179 -0.13724,0.90798c-0.07557,0.27142 -0.19689,0.52453 -0.36396,0.75934l-0.53102,-0.475c0.19491,-0.27357 0.31623,-0.59346 0.36396,-0.95967c0.02588,-0.19818 0.03882,-0.44483 0.03882,-0.73995v-1.37008h5.1492v0.42976h-4.50773v0.99198h4.76428v0.4556h-0.67722l0.37888,0.27142c-0.22474,0.20249 -0.49025,0.39206 -0.79654,0.5687zM257.66361,192.31744c0.2864,-0.2111 0.51412,-0.40821 0.68317,-0.59132h-1.30368c0.17104,0.23696 0.37789,0.43407 0.62053,0.59132zM254.48935,188.63711h1.27092v0.36513h-1.27092zM254.48935,189.23166h1.27092v0.37159h-1.27092zM256.90877,188.63711h1.30964v0.36513h-1.30964zM256.90877,189.23166h1.30964v0.37159h-1.30964zM254.8145,190.55002h3.71426v0.42328h-3.71426z"/><path d="M260.90759,188.34538v5.05687h-0.62351v-6.28791h0.62351v0.97906l0.2864,-0.2585c0.17303,0.32527 0.31026,0.6387 0.4117,0.94028l-0.40573,0.43622c-0.10541,-0.36405 -0.20287,-0.65271 -0.29237,-0.86597zM263.65524,187.54403h1.54534v0.48469h-1.54534v0.3102h1.33356v0.46206h-1.33356v0.31989h1.74221v0.517h-4.02145v-0.517h1.66169v-0.31989h-1.29475v-0.46206h1.29475v-0.3102h-1.47077v-0.48469h1.47077v-0.42975h0.61754zM264.89627,189.98041v2.83705c0,0.19818 -0.04375,0.34251 -0.13126,0.43298c-0.08552,0.08832 -0.2317,0.13248 -0.43854,0.13248c-0.24463,0 -0.49622,-0.01832 -0.75478,-0.05495l-0.08648,-0.58162c0.26452,0.03448 0.47434,0.05172 0.62947,0.05172c0.07956,0 0.12729,-0.02154 0.1432,-0.06463c0.00993,-0.02588 0.01489,-0.06573 0.01489,-0.11956v-0.41683h-1.83176v1.20523h-0.62352v-3.42182zM262.44101,190.45541v0.37804h1.83176v-0.37804zM262.44101,191.30845v0.39744h1.83176v-0.39744zM259.4398,190.48772c0.08949,-0.44806 0.15413,-1.02752 0.19391,-1.73839l0.01489,-0.26495l0.50716,0.05172c-0.02389,0.92199 -0.0935,1.67057 -0.20883,2.24573z"/><path d="M266.86486,187.7834v-0.67532h0.62351v0.67532h0.92781v0.5687h-0.92781v0.55577h1.05607v0.57516h-0.35501c-0.06361,0.25634 -0.14913,0.52776 -0.25657,0.81426h0.57578v0.56223h-1.02033v0.59778h0.98151v0.57515h-0.98151v1.36353h-0.62351v-1.36353h-1.05309v-0.57515h1.05309v-0.59778h-1.10085v-0.56223h0.54893c-0.06367,-0.2865 -0.14124,-0.55793 -0.2327,-0.81426h-0.43854v-0.57516h1.22316v-0.55577h-0.97257v-0.5687zM267.6077,189.48307h-0.94869c0.06762,0.20464 0.14022,0.47606 0.21779,0.81426h0.49522c0.10342,-0.27573 0.18198,-0.54715 0.23568,-0.81426zM271.22645,187.34079v1.51224c0,0.18741 -0.03184,0.31989 -0.09551,0.39744c-0.07558,0.09262 -0.2337,0.13893 -0.47435,0.13893c-0.23468,0 -0.46937,-0.01075 -0.70405,-0.03226l-0.10144,-0.58163c0.33015,0.03878 0.53998,0.05818 0.62948,0.05818c0.09348,0 0.14022,-0.04416 0.14022,-0.13248v-0.77872h-1.30666v1.87732h1.69148l0.35501,0.32959c-0.1074,0.68502 -0.3033,1.29681 -0.58771,1.83538l-0.03286,0.06463c0.21877,0.27358 0.49224,0.52346 0.8204,0.74965l-0.33413,0.60423c-0.31424,-0.21972 -0.59467,-0.48252 -0.84129,-0.78841c-0.21281,0.29296 -0.45247,0.56869 -0.71898,0.82719l-0.35203,-0.52991v0.50406h-0.6056v-6.05531zM269.31417,190.38141v2.44284c0.24463,-0.18094 0.48031,-0.43513 0.70704,-0.76256c-0.30429,-0.50838 -0.5181,-1.06845 -0.64141,-1.68021zM270.35236,191.48975c0.17701,-0.37052 0.29236,-0.73997 0.34606,-1.10835h-0.76969c0.09746,0.4136 0.23867,0.78305 0.42363,1.10835z"/><path d="M272.69722,188.30375h0.91587v0.99198h-0.91587zM272.69722,191.21511h0.91587v0.99198h-0.91587z"/><path d="M274.91679,187.773h4.67482l0.38485,0.3522c-0.11138,0.45022 -0.25656,0.82612 -0.43556,1.1277c-0.33612,0.57084 -0.83932,0.99736 -1.50959,1.27954l-0.37589,-0.55578c0.46341,-0.15079 0.84826,-0.42113 1.15456,-0.81103c0.18099,-0.23049 0.30728,-0.47391 0.37888,-0.73026h-4.27213zM276.82907,189.16889h0.68317v0.55577c0,0.83367 -0.08552,1.47776 -0.25657,1.93227c-0.21679,0.57731 -0.63844,1.04691 -1.26496,1.4088l-0.49224,-0.56223c0.43159,-0.22188 0.74682,-0.48684 0.94571,-0.79489c0.15315,-0.2391 0.25358,-0.49222 0.30131,-0.75934c0.05567,-0.30589 0.0835,-0.71627 0.0835,-1.23115z"/><path d="M282.74771,193.11179v-3.31525c-0.60461,0.43945 -1.29476,0.80997 -2.07044,1.11157l-0.36098,-0.65593c0.88104,-0.32097 1.65372,-0.73458 2.31805,-1.24083c0.65235,-0.49761 1.23309,-1.06739 1.74221,-1.70935l0.57578,0.39098c-0.45147,0.56223 -0.95464,1.07814 -1.5095,1.54773v3.87099z"/><path d="M285.63987,187.85625h4.36754v4.89212h-4.47199v-0.67533h3.76192v-3.5414h-3.65757z"/><path d="M293.2402,189.05306c-0.62849,-0.30373 -1.28183,-0.54715 -1.96004,-0.73026l0.20883,-0.69471c0.78559,0.19388 1.44489,0.43514 1.97791,0.7238zM291.35472,192.26809c0.98449,-0.09047 1.73827,-0.28111 2.26136,-0.57193c0.61655,-0.34467 1.08989,-0.87352 1.42004,-1.58655c0.21479,-0.46099 0.38882,-1.06414 0.52208,-1.80947l0.57279,0.4556c-0.1611,0.79704 -0.356,1.43037 -0.58473,1.90001c-0.41368,0.85518 -1.04615,1.4745 -1.89739,1.85796c-0.53699,0.24126 -1.25497,0.41359 -2.15394,0.51699z"/><path d="M296.78573,187.89788c1.82978,-0.03018 3.55908,-0.0808 5.18792,-0.15187l0.03574,0.64302c-0.71795,0.03878 -1.27681,0.15726 -1.67659,0.35543c-0.38186,0.18957 -0.68815,0.45237 -0.91886,0.78841c-0.26253,0.38128 -0.39379,0.80565 -0.39379,1.27309c0,0.46529 0.14917,0.81427 0.4475,1.04694c0.34208,0.26496 0.86715,0.44699 1.57522,0.54608l-0.14022,0.72702c-0.9228,-0.13356 -1.57217,-0.39205 -1.94812,-0.77549c-0.40374,-0.40929 -0.6056,-0.91768 -0.6056,-1.52515c0,-0.55146 0.18297,-1.06629 0.54892,-1.5445c0.26651,-0.35113 0.63147,-0.63332 1.09489,-0.84658c-0.8214,0.03018 -1.88048,0.0808 -3.17724,0.15187zM301.12339,190.68644c-0.11734,-0.33821 -0.31523,-0.72164 -0.59367,-1.15029l0.46539,-0.18741c0.24861,0.37051 0.44849,0.74964 0.59965,1.13738zM301.92888,190.34716c-0.14121,-0.39637 -0.3381,-0.78195 -0.59069,-1.15674l0.44452,-0.17126c0.23269,0.30589 0.43058,0.67641 0.59367,1.11157z"/><path d="M306.4711,192.03987l0.0418,0.57839c-0.86316,0.32959 -1.8228,0.60101 -2.8789,0.81427l-0.22076,-0.64624c0.18298,-0.03018 0.44153,-0.07865 0.77566,-0.14541v-1.18265c-0.34407,0.18957 -0.75378,0.36944 -1.22912,0.53961l-0.34009,-0.57515c0.95662,-0.28004 1.68655,-0.63762 2.18978,-1.07275h-2.13011v-0.56224h2.55673v-0.48791h-1.93323v-0.54285h1.93323v-0.4556h-2.23744v-0.55578h2.23744v-0.63654h0.65334v0.63654h2.30316v0.55578h-2.30316v0.4556h1.99876v0.54285h-1.99876v0.48791h2.62235v0.56224h-0.71301l0.44153,0.32958c-0.27248,0.2865 -0.65435,0.59993 -1.14562,0.94028l-0.0686,0.0485c0.37391,0.37051 0.88107,0.6764 1.52151,0.91766l-0.40275,0.65594c-0.69412,-0.31881 -1.25199,-0.71948 -1.67361,-1.20201zM305.56716,190.35966c-0.19889,0.25204 -0.43855,0.47822 -0.71898,0.67856v1.45084c0.49125,-0.11848 0.98449,-0.25635 1.47971,-0.41359l0.13724,-0.04204c-0.40772,-0.48899 -0.70704,-1.04691 -0.89797,-1.67376zM306.65609,191.24178c0.35402,-0.27358 0.66428,-0.57085 0.93079,-0.89182h-1.4111c0.12729,0.32958 0.28739,0.62686 0.48031,0.89182z"/><path d="M312.07286,189.8648v2.86609c0,0.26065 -0.04873,0.43837 -0.14618,0.53315c-0.09149,0.08616 -0.26849,0.12924 -0.53102,0.12924c-0.29833,0 -0.58174,-0.02047 -0.85024,-0.0614l-0.12828,-0.68178c0.27844,0.04954 0.54495,0.07431 0.79952,0.07431c0.08552,0 0.13922,-0.01617 0.1611,-0.0485c0.01589,-0.02803 0.02383,-0.07434 0.02383,-0.13894v-2.67221h-2.56566v-0.64301h5.74886v0.64301zM309.55197,187.47046h4.31383v0.63654h-4.31383zM308.80018,192.42711c0.42959,-0.48683 0.77566,-1.13415 1.0382,-1.94195l0.61755,0.25203c-0.30429,0.92414 -0.68716,1.6501 -1.1486,2.17787zM313.91949,192.82132c-0.41169,-0.9435 -0.76967,-1.6339 -1.07394,-2.0712l0.56086,-0.36189c0.43755,0.60962 0.81046,1.2731 1.11872,1.99044z"/><path d="M247.85925,196.31714h0.69511v3.53495h-0.69511zM250.92311,196.24929h0.69511v2.31035c0,0.81209 -0.06066,1.41632 -0.18198,1.81269c-0.10143,0.3382 -0.23966,0.60747 -0.41468,0.8078c-0.36396,0.42437 -0.94867,0.7378 -1.75413,0.94028l-0.34308,-0.6624c0.88104,-0.19388 1.44589,-0.51592 1.69456,-0.96613c0.15712,-0.2865 0.25159,-0.64839 0.28341,-1.08566c0.0139,-0.20249 0.02085,-0.48252 0.02085,-0.84012z"/><path d="M252.67311,196.71261h4.67482l0.38484,0.3522c-0.11138,0.45022 -0.25656,0.82612 -0.43555,1.1277c-0.33612,0.57084 -0.83932,0.99736 -1.50959,1.27954l-0.37589,-0.55578c0.46341,-0.15079 0.84826,-0.42114 1.15456,-0.81104c0.18099,-0.23049 0.30728,-0.47391 0.37887,-0.73025h-4.27213zM254.58539,198.1085h0.68318v0.55577c0,0.83367 -0.08552,1.47776 -0.25657,1.93227c-0.21679,0.57731 -0.63844,1.04691 -1.26496,1.4088l-0.49224,-0.56223c0.43158,-0.22188 0.74682,-0.48684 0.94571,-0.79489c0.15314,-0.23911 0.25358,-0.49222 0.30131,-0.75934c0.05567,-0.30589 0.0835,-0.71627 0.0835,-1.23115z"/><path d="M259.47593,196.5461h0.67125v1.1762c0,1.12659 -0.07757,1.94947 -0.2327,2.46864c-0.20485,0.68717 -0.63445,1.26018 -1.28879,1.71903l-0.45644,-0.57515c0.45346,-0.34467 0.77268,-0.70225 0.95764,-1.07275c0.15513,-0.31236 0.25756,-0.73134 0.30728,-1.25696c0.02786,-0.29727 0.0418,-0.72056 0.0418,-1.26986zM261.00339,196.35869h0.67124v4.59157c0.39579,-0.22188 0.74285,-0.53746 1.04118,-0.94675c0.32617,-0.44806 0.5698,-0.97906 0.7309,-1.593l0.52507,0.54931c-0.19889,0.63978 -0.47136,1.18587 -0.81742,1.63827c-0.43556,0.57085 -1.00637,1.01998 -1.71243,1.34739l-0.43854,-0.41036z"/><path d="M268.825,196.91034l0.42661,0.37806c-0.27844,1.37865 -0.72991,2.44603 -1.35441,3.20213c-0.34607,0.4179 -0.79357,0.78409 -1.3425,1.09856c-0.38982,0.22188 -0.80846,0.39852 -1.25593,0.52991l-0.34606,-0.63654c1.02228,-0.28866 1.81585,-0.74965 2.3807,-1.38299c-0.4654,-0.45237 -0.97852,-0.85304 -1.53938,-1.20201l0.39082,-0.52345c0.54694,0.30804 1.06701,0.68717 1.56023,1.13738c0.38782,-0.67209 0.63146,-1.32263 0.73091,-1.95162h-2.10023c-0.4813,0.81209 -1.04814,1.43356 -1.70051,1.86441l-0.43854,-0.51376c0.63047,-0.41144 1.14856,-0.95538 1.55427,-1.63182c0.20883,-0.34467 0.37092,-0.71627 0.48628,-1.1148l0.64737,0.17125c-0.06563,0.19388 -0.13922,0.3856 -0.22076,0.57516z"/><path d="M272.12071,202.0514v-3.31525c-0.60462,0.43945 -1.29476,0.80997 -2.07044,1.11157l-0.36098,-0.65594c0.88104,-0.32097 1.65372,-0.73457 2.31805,-1.24083c0.65235,-0.49761 1.23309,-1.06739 1.74221,-1.70935l0.57577,0.39098c-0.45147,0.56223 -0.95464,1.07814 -1.5095,1.54773v3.87099z"/><path d="M274.7054,200.93785c0.13723,-0.00208 0.32617,-0.01287 0.56682,-0.03237c0.56682,-1.37865 1.08889,-2.89623 1.56619,-4.55275l0.68317,0.19387c-0.46938,1.58977 -0.97055,3.02552 -1.50354,4.30725c1.01037,-0.0797 1.90636,-0.17664 2.68798,-0.2908c-0.29435,-0.56223 -0.59367,-1.08137 -0.89797,-1.55741l0.58771,-0.40391c0.62649,0.9349 1.17642,1.92582 1.64978,2.97276l-0.67124,0.37804c-0.10939,-0.24988 -0.22972,-0.51053 -0.36098,-0.78195c-1.16148,0.21111 -2.54872,0.39852 -4.16173,0.56223z"/><path d="M282.89184,196.92075v-0.27789h-1.86453v-0.46206h4.40338v0.46206h-1.90335v0.27789h2.47015v1.15996h-0.64738v-0.74318h-1.82283v1.25696h-0.63545v-1.25696h-1.78997v0.74318h-0.64141v-1.15996zM285.00398,201.50587c0.30429,0.12495 0.68415,0.22404 1.13957,0.29728l-0.34904,0.54931c-0.63843,-0.11848 -1.16251,-0.32205 -1.57224,-0.6107c-0.40772,-0.28866 -0.72495,-0.64732 -0.95167,-1.07598h-0.65931v0.99522c0.43954,-0.06674 0.84726,-0.13783 1.22316,-0.21326l0.0418,0.48145c-0.70008,0.18095 -1.50059,0.3382 -2.40155,0.47176l-0.17602,-0.5687c0.31225,-0.03663 0.52606,-0.06248 0.64142,-0.07753l0.03584,-0.00624v-1.08243h-0.65334c-0.02786,0.37913 -0.07361,0.68179 -0.13723,0.90798c-0.07558,0.27142 -0.1969,0.52453 -0.36396,0.75934l-0.53103,-0.475c0.19491,-0.27357 0.31623,-0.59346 0.36396,-0.95967c0.02588,-0.19818 0.03882,-0.44483 0.03882,-0.73995v-1.37008h5.1492v0.42976h-4.50773v0.99198h4.76428v0.4556h-0.67721l0.37888,0.27142c-0.22474,0.20249 -0.49026,0.39206 -0.79654,0.56869zM284.53858,201.25706c0.2864,-0.2111 0.51412,-0.40821 0.68317,-0.59132h-1.30368c0.17104,0.23696 0.37789,0.43407 0.62053,0.59132zM281.36432,197.57673h1.27092v0.36513h-1.27092zM281.36432,198.17129h1.27092v0.37158h-1.27092zM283.78374,197.57673h1.30964v0.36513h-1.30964zM283.78374,198.17129h1.30964v0.37158h-1.30964zM281.68947,199.48964h3.71417v0.42328h-3.71417z"/><path d="M289.80996,196.62935h2.3389v0.54285h-1.32463v0.53638h1.24103v0.52346h-1.24103v0.9629h-2.40155v-0.9629h-0.97853v0.601c0,0.97583 -0.04773,1.74702 -0.1432,2.31358c-0.07359,0.43083 -0.19292,0.82397 -0.358,1.17943l-0.54296,-0.4653c0.15115,-0.35543 0.25457,-0.78951 0.31026,-1.30223c0.04971,-0.45021 0.07456,-1.02537 0.07456,-1.72548v-2.20368h2.35975v-0.58162h0.66528zM287.44416,197.1722v0.53638h0.97853v-0.53638zM289.0581,197.1722v0.53638h1.13063v-0.53638zM289.0581,198.23205v0.50084h1.13063v-0.50084zM289.75022,201.62484c-0.57478,0.32312 -1.30471,0.5687 -2.18978,0.73672l-0.31027,-0.59454c0.83133,-0.10771 1.48269,-0.2725 1.95408,-0.49437c-0.40374,-0.31666 -0.74881,-0.69257 -1.03522,-1.1277h-0.4117v-0.56223h3.49346l0.31325,0.28434c-0.29634,0.49331 -0.71898,0.95753 -1.26794,1.39266c0.47136,0.20464 1.11375,0.35543 1.92718,0.45237l-0.34904,0.61069c-0.77963,-0.11416 -1.48768,-0.34681 -2.12415,-0.69795zM288.86419,200.14496c0.24065,0.30589 0.53302,0.57516 0.87709,0.8078c0.38782,-0.27142 0.68715,-0.54069 0.89797,-0.8078z"/><path d="M293.46119,197.24337h0.91587v0.99198h-0.91587zM293.46119,200.15472h0.91587v0.99198h-0.91587z"/><path d="M250.87632,206.8074c0.13922,0.07755 0.29932,0.17018 0.48031,0.27789l-0.37888,0.33282h1.79592l0.33711,0.36512c-0.44749,0.73029 -0.894,1.33022 -1.33952,1.79979l-0.6056,-0.38452c0.3918,-0.38774 0.70604,-0.77332 0.94272,-1.15674h-1.48567v2.53327c0,0.29296 -0.06663,0.48037 -0.19988,0.56223c-0.0895,0.05599 -0.25657,0.08398 -0.5012,0.08398c-0.32021,0 -0.67322,-0.02154 -1.05905,-0.06463l-0.14618,-0.72056c0.37192,0.06459 0.70207,0.09689 0.99044,0.09689c0.10939,0 0.17701,-0.01939 0.20286,-0.05818c0.01992,-0.03233 0.02988,-0.09157 0.02988,-0.17772v-2.25541h-2.50004v-0.62352h3.23393c-0.67221,-0.41791 -1.34445,-0.77119 -2.01673,-1.05985l0.48329,-0.41682c0.45147,0.19603 0.85022,0.38667 1.19626,0.57193c0.30629,-0.22619 0.57478,-0.44806 0.80549,-0.66563h-3.18916v-0.61394h4.05729l0.36695,0.38775c-0.52108,0.45452 -1.02127,0.84981 -1.50056,1.18588z"/><path d="M254.64285,207.18205c-0.25855,0.51053 -0.55788,0.92844 -0.89797,1.25373l-0.34308,-0.601c0.4455,-0.3662 0.82139,-0.86057 1.12765,-1.4831h-0.98747v-0.59454h1.10085v-0.78195h0.64141v0.78195h0.86217v0.59454h-0.86217v0.39422c0.35402,0.21972 0.66925,0.45236 0.94571,0.69794l-0.36098,0.5687c-0.18894,-0.22834 -0.38385,-0.43191 -0.58473,-0.6107v1.43794h-0.64141zM256.47462,208.73301c0.25457,0.2628 0.50517,0.57839 0.75179,0.94675l-0.53102,0.41037c-0.27446,-0.45883 -0.53998,-0.81642 -0.79654,-1.07275l0.42363,-0.31989v-3.48968h2.54769v3.52527zM256.92509,205.73766v0.49437h1.32761v-0.49437zM256.92509,206.72965v0.48791h1.32761v-0.48791zM256.92509,207.70871v0.49437h1.32761v-0.49437zM253.47939,210.71373c0.22872,-0.40498 0.40672,-0.9015 0.53401,-1.48955l0.62053,0.19064c-0.11138,0.69148 -0.30231,1.26987 -0.57279,1.73516zM255.11129,209.23063h0.65334v1.03076c0,0.13356 0.02985,0.21326 0.08955,0.23911c0.07557,0.03018 0.28441,0.04527 0.62649,0.04527c0.32617,0 0.54395,-0.01186 0.65334,-0.03559c0.07955,-0.01936 0.13027,-0.0689 0.15215,-0.14863c0.02985,-0.10771 0.04974,-0.30374 0.05967,-0.58809l0.65932,0.16479c-0.00794,0.32097 -0.02982,0.55038 -0.06563,0.68825c-0.04971,0.19603 -0.1233,0.32959 -0.22076,0.40068c-0.08353,0.06244 -0.20386,0.09906 -0.36098,0.10986c-0.32617,0.02151 -0.66128,0.03226 -1.00534,0.03226c-0.57876,0 -0.93178,-0.03662 -1.05905,-0.10986c-0.12132,-0.07109 -0.18198,-0.22188 -0.18198,-0.45237zM258.74792,210.96256c-0.24065,-0.62901 -0.50815,-1.16216 -0.8025,-1.59945l0.54595,-0.3522c0.32816,0.47391 0.60859,0.98552 0.84129,1.53482z"/><path d="M262.11826,205.84996v-0.27789h-1.86453v-0.46206h4.40338v0.46206h-1.90335v0.27789h2.47015v1.15996h-0.64737v-0.74318h-1.82283v1.25696h-0.63544v-1.25696h-1.78997v0.74318h-0.64142v-1.15996zM264.2304,210.43507c0.3043,0.12495 0.68419,0.22404 1.13966,0.29728l-0.34905,0.54931c-0.63843,-0.11848 -1.16251,-0.32205 -1.57224,-0.6107c-0.40771,-0.28866 -0.72494,-0.64732 -0.95166,-1.07598h-0.65932v0.99522c0.43954,-0.06674 0.84726,-0.13783 1.22316,-0.21326l0.0418,0.48145c-0.70008,0.18095 -1.50059,0.3382 -2.40155,0.47176l-0.17601,-0.5687c0.31225,-0.03663 0.52605,-0.06248 0.64141,-0.07753l0.03584,-0.00624v-1.08243h-0.65334c-0.02786,0.37913 -0.07361,0.68179 -0.13724,0.90798c-0.07557,0.27142 -0.19689,0.52453 -0.36396,0.75934l-0.53102,-0.475c0.19491,-0.27357 0.31623,-0.59346 0.36396,-0.95967c0.02588,-0.19818 0.03882,-0.44483 0.03882,-0.73995v-1.37008h5.1492v0.42976h-4.50773v0.99198h4.76428v0.4556h-0.67722l0.37888,0.27142c-0.22474,0.20249 -0.49026,0.39206 -0.79654,0.56869zM263.76502,210.18627c0.2864,-0.21111 0.51412,-0.40821 0.68317,-0.59132h-1.30368c0.17104,0.23696 0.37789,0.43407 0.62053,0.59132zM260.59075,206.50594h1.27092v0.36513h-1.27092zM260.59075,207.10048h1.27092v0.37159h-1.27092zM263.01017,206.50594h1.30964v0.36513h-1.30964zM263.01017,207.10048h1.30964v0.37159h-1.30964zM260.9159,208.41884h3.71426v0.42328h-3.71426z"/><path d="M269.03638,205.55856h2.3389v0.54285h-1.32463v0.53638h1.24103v0.52346h-1.24103v0.9629h-2.40155v-0.9629h-0.97853v0.601c0,0.97583 -0.04774,1.74702 -0.14321,2.31358c-0.07359,0.43084 -0.19292,0.82398 -0.35799,1.17943l-0.54296,-0.4653c0.15115,-0.35543 0.25457,-0.78951 0.31026,-1.30223c0.04971,-0.45021 0.07456,-1.02537 0.07456,-1.72548v-2.20368h2.35975v-0.58162h0.66527zM266.67068,206.10141v0.53638h0.97853v-0.53638zM268.28461,206.10141v0.53638h1.13063v-0.53638zM268.28461,207.16126v0.50084h1.13063v-0.50084zM268.97674,210.55404c-0.57479,0.32312 -1.30471,0.5687 -2.18978,0.73672l-0.31026,-0.59454c0.83133,-0.10771 1.48269,-0.27251 1.95408,-0.49438c-0.40374,-0.31666 -0.74882,-0.69256 -1.03522,-1.1277h-0.4117v-0.56223h3.49346l0.31325,0.28434c-0.29635,0.4933 -0.71899,0.95752 -1.26794,1.39266c0.47136,0.20465 1.11375,0.35544 1.92718,0.45237l-0.34905,0.6107c-0.77963,-0.11417 -1.48765,-0.34682 -2.12406,-0.69795zM268.09071,209.07417c0.24065,0.30589 0.53301,0.57516 0.87708,0.8078c0.38783,-0.27142 0.68716,-0.54069 0.89797,-0.8078z"/><path d="M273.84063,206.01647c0.0895,0.14863 0.16508,0.29188 0.22673,0.42975l-0.63544,0.16479c-0.08751,-0.23695 -0.179,-0.43513 -0.27447,-0.59454h-0.31325c-0.16309,0.25635 -0.35004,0.48791 -0.56086,0.69471l-0.47136,-0.42975c0.37192,-0.33605 0.65533,-0.78626 0.85025,-1.35062l0.66527,0.10012c-0.06563,0.17233 -0.12729,0.31774 -0.18496,0.43621h1.29772v0.54931zM276.3227,206.01647c0.0895,0.13141 0.16607,0.25958 0.22971,0.38452l-0.60859,0.1971c-0.10143,-0.22188 -0.20087,-0.41575 -0.29832,-0.58162h-0.33413c-0.1074,0.20033 -0.21381,0.3662 -0.31921,0.49761h0.00288v0.34897h1.98089v0.52992h-1.98089v0.48145h2.58353v0.53639h-1.30666v0.52991h1.08893v0.56224h-1.08893v1.1762c0,0.22403 -0.06265,0.38021 -0.18795,0.46853c-0.10342,0.07324 -0.2854,0.10986 -0.54595,0.10986c-0.31821,0 -0.61455,-0.01617 -0.88902,-0.0485l-0.11635,-0.65594c0.34407,0.05384 0.64837,0.08076 0.91288,0.08076c0.06762,0 0.10939,-0.01617 0.1253,-0.0485c0.01191,-0.02588 0.01787,-0.07111 0.01787,-0.13571v-0.94675h-3.56206v-0.56224h3.56206v-0.52991h-3.81265v-0.53639h2.54779v-0.48145h-1.93611v-0.52992h1.93611v-0.34897h0.4475l-0.34308,-0.27142c0.28242,-0.32743 0.50418,-0.76043 0.66527,-1.299l0.63545,0.08076c-0.03581,0.10555 -0.0905,0.25311 -0.16408,0.44267h1.85559v0.54931zM273.60792,210.92472c-0.28441,-0.4416 -0.5708,-0.7895 -0.85918,-1.04372l0.51312,-0.36512c0.35999,0.27573 0.6613,0.587 0.90394,0.93382z"/><path d="M278.79862,206.17257h0.91587v0.99198h-0.91587zM278.79862,209.08393h0.91587v0.99198h-0.91587z"/><path d="M284.49646,207.31734h0.67721v1.77398c0.4654,0.22188 0.94172,0.51484 1.42898,0.87889l-0.34308,0.60424c-0.34209,-0.27142 -0.70407,-0.52346 -1.08595,-0.75611c-0.02184,0.38128 -0.1362,0.67425 -0.34308,0.87889c-0.23071,0.22619 -0.5539,0.33928 -0.96959,0.33928c-0.40175,0 -0.73289,-0.09909 -0.99342,-0.29727c-0.25457,-0.19603 -0.38186,-0.46961 -0.38186,-0.82074c0,-0.36836 0.1601,-0.66348 0.48031,-0.88535c0.24861,-0.17233 0.56683,-0.2585 0.95465,-0.2585c0.18099,0 0.37291,0.02369 0.57578,0.07108zM284.49646,209.50812c-0.23668,-0.08832 -0.46042,-0.13248 -0.67124,-0.13248c-0.20685,0 -0.37292,0.03985 -0.49821,0.11956c-0.1611,0.1034 -0.24165,0.24126 -0.24165,0.41359c0,0.2111 0.11536,0.36512 0.34607,0.46206c0.11535,0.04739 0.25358,0.07108 0.41467,0.07108c0.25855,0 0.44451,-0.11848 0.55788,-0.35544c0.06162,-0.12709 0.09243,-0.27573 0.09243,-0.44591zM281.29539,206.07985h1.13957c0.10143,-0.37267 0.18298,-0.70118 0.24463,-0.98552l0.65335,0.08721c-0.07956,0.31666 -0.1611,0.61608 -0.24463,0.89828h1.08893v0.64947h-1.28283c-0.35601,1.10508 -0.77366,2.03998 -1.25295,2.80469l-0.55489,-0.3425c0.45346,-0.72807 0.83633,-1.5488 1.1486,-2.46219h-0.93974zM286.27749,207.65349c-0.44153,-0.53208 -0.9487,-1.01676 -1.52151,-1.45407l0.39379,-0.4653c0.56882,0.39851 1.0879,0.86273 1.55725,1.39266z"/><path d="M287.63844,205.24635h0.70406v3.85163c0,0.81209 0.39379,1.21814 1.18137,1.21814c0.5191,0 0.94472,-0.25957 1.27687,-0.77872c0.21479,-0.33389 0.40771,-0.85088 0.57876,-1.55096l0.6056,0.39744c-0.20286,0.77761 -0.4465,1.35922 -0.73091,1.74484c-0.44749,0.601 -1.02922,0.90151 -1.74519,0.90151c-0.7478,0 -1.27486,-0.24988 -1.58117,-0.74964c-0.19292,-0.31236 -0.28938,-0.71518 -0.28938,-1.20846z"/></g></g></g></svg>