<svg xmlns="http://www.w3.org/2000/svg" id="svg1" version="1.1" height="200" width="1096">
  <defs id="defs1"></defs>
  <rect id="rect1" stroke="none" fill="none" height="200" width="1096" y="0" x="0"></rect>
  <path aria-label="中東" style="font-weight:bold;font-size:110px;font-family:'BIZ UDPGothic';fill:#ff0000" id="text1" d="M 48.608398,75.664062 V 55.952148 H 60.693359 V 75.664062 H 100.54688 V 132.49023 H 88.676758 v -7.46582 H 60.693359 v 35.44922 H 48.608398 V 125.02441 H 21.323242 v 8.05664 H 9.453125 V 75.664062 Z M 21.323242,86.674805 V 114.01367 H 48.608398 V 86.674805 Z M 88.676758,114.01367 V 86.674805 H 60.693359 v 27.338865 z m 93.940432,11.54785 q 13.32031,11.87012 35.8789,19.17481 l -6.92871,10.09765 q -12.99804,-4.61914 -22.66601,-11.17187 -9.99024,-6.82129 -18.42285,-16.75781 v 33.56933 h -11.65528 v -32.97851 q -7.46582,10.47363 -19.28222,18.79883 -9.07715,6.3916 -19.44336,10.3125 l -7.3584,-9.45313 q 17.02636,-5.63965 28.41308,-15.2002 3.22266,-2.68554 6.55274,-6.3916 H 121.87012 V 81.572266 h 36.95312 V 74.321289 H 114.29688 V 64.65332 h 44.52636 v -8.701172 h 11.65528 v 8.701172 h 45.2246 v 9.667969 h -45.2246 v 7.250977 h 37.65136 V 125.56152 Z M 158.82324,90.595703 h -25.29785 v 8.701172 h 25.29785 z m 11.65528,0 v 8.701172 h 25.99609 v -8.701172 z m -11.65528,17.080077 h -25.29785 v 8.86231 h 25.29785 z m 11.65528,0 v 8.86231 h 25.99609 v -8.86231 z"></path>
</svg>
