<svg xmlns="http://www.w3.org/2000/svg" id="svg1" version="1.1" height="200" width="1096">
  <defs id="defs1"></defs>
  <rect id="rect1" stroke="none" fill="none" height="200" width="1096" y="0" x="0"></rect>
  <path aria-label="香川県西部" style="font-weight:bold;font-size:110px;font-family:'BIZ UDPGothic';fill:#ff0000" id="text1" d="m 71.274414,87.265625 q 13.857422,12.084961 37.221676,18.959965 l -7.03613,9.93652 q -5.263671,-1.87988 -8.486327,-3.27637 v 47.58789 H 81.210937 v -4.88769 H 28.144531 v 4.88769 H 16.489258 v -45.97656 q -2.524414,1.28906 -8.2714846,3.75977 L 1.7724609,108.85742 Q 24.65332,100.69336 38.886719,87.265625 H 5.3710937 V 77.490234 H 48.876953 V 69.21875 l -2.094726,0.161133 q -14.179688,1.074219 -31.259766,1.71875 L 10.90332,61.860352 Q 58.115234,60.625 86.152344,54.931641 l 7.573242,8.486328 q -14.125977,2.792968 -33.193359,4.726562 v 9.345703 h 43.774413 v 9.775391 z M 60.532227,89.467773 V 110.2002 H 48.876953 V 90.166016 Q 38.349609,102.94922 20.141602,112.61719 H 92.275391 Q 73.100586,104.23828 60.532227,89.467773 Z M 28.144531,121.21094 v 8.43261 h 53.066406 v -8.43261 z m 0,16.48926 v 8.75488 H 81.210937 V 137.7002 Z M 126.16699,60.356445 h 12.89063 v 36.308594 q 0,22.504881 -2.52442,34.428711 -2.36328,11.01074 -8.00293,19.71191 -1.9873,3.11524 -5.47851,7.25098 l -10.20508,-8.70117 q 9.66797,-10.25879 12.03125,-27.23145 1.28906,-9.07714 1.28906,-23.68652 z m 34.10645,1.665039 h 12.51465 v 87.441406 h -12.51465 z m 35.28808,-4.296875 H 208.2373 V 159.23828 h -12.67578 z m 116.60645,0.859375 V 110.62988 H 248.25195 V 58.583984 Z m -52.36817,8.486328 v 6.713868 h 40.7129 v -6.713868 z m 0,14.28711 v 6.713867 h 40.7129 v -6.713867 z m 0,14.287109 v 6.928709 h 40.7129 v -6.928709 z m -21.6455,22.128909 h 89.05273 v 9.3457 h -44.41894 v 33.35449 H 270.5957 V 127.11914 H 226.3916 V 66.855469 h 11.7627 z m -13.75,32.4414 q 12.7832,-5.9082 24.43847,-19.81933 l 9.88282,5.74707 q -11.49414,14.55566 -25.5127,22.88086 z m 92.59765,6.92871 q -8.21777,-10.09765 -24.70703,-21.21582 l 9.23828,-6.49902 q 12.94434,7.46582 25.40528,19.60449 z M 365.39551,86.621094 V 71.582031 H 333.38379 V 61.21582 h 103.28613 v 10.366211 h -35.50293 v 15.039063 h 30.13184 v 72.402346 h -11.65528 v -7.57324 h -69.34082 v 7.57324 H 338.75488 V 86.621094 Z m 11.11816,0 h 13.53516 V 71.582031 h -13.53516 z m -11.17187,9.77539 h -15.03907 v 44.848636 h 69.34082 v -16.11328 h -20.35644 q -9.23828,0 -9.23828,-9.23829 V 96.396484 h -13.64258 q -0.21484,13.212896 -3.97461,21.162106 -3.54492,7.57325 -13.96484,14.98536 l -7.41211,-8.27149 q 9.99023,-6.12305 12.62207,-15.14648 1.39648,-4.83399 1.66504,-12.729496 z m 35.82519,0 v 16.435546 q 0,2.09473 1.87988,2.09473 h 16.59668 V 96.396484 Z m 77.23633,-28.037109 h 22.98828 v 10.366211 h -7.57324 q -2.04102,8.217773 -5.47852,17.241211 h 14.34082 v 10.366213 h -59.9414 V 95.966797 h 13.15918 Q 453.75,85.654297 451.38672,78.725586 H 444.4043 V 68.359375 h 22.77343 V 55.952148 h 11.22559 z m -16.16699,10.366211 q 2.73926,8.00293 4.24316,17.241211 h 10.95703 l 0.53711,-1.503906 q 2.30957,-6.123047 4.29688,-13.911133 l 0.4834,-1.826172 z m 33.30078,36.630864 v 43.98925 h -11.01074 v -5.26367 H 461.1084 v 6.3916 h -11.33301 v -45.11718 z m -34.42871,9.88281 v 18.63769 h 23.41797 v -18.63769 z m 71.75781,-27.124026 q 6.3916,6.069336 10.15137,14.448246 3.70605,8.3789 3.70605,16.97265 0,7.94922 -2.9541,11.70899 -3.06152,3.9209 -10.09766,3.9209 -6.01562,0 -11.65527,-0.85938 l -2.63183,-11.44043 q 6.49902,1.18164 10.74218,1.18164 3.22266,0 4.02832,-1.5039 0.53711,-1.07422 0.53711,-4.29688 0,-13.2666 -7.94922,-22.88086 -2.09472,-2.52441 -5.26367,-5.424804 l 0.64453,-1.503906 q 5.58594,-12.62207 8.70118,-26.318359 h -13.75 V 160.47363 H 505.95703 V 61.000977 h 32.33399 l 5.96191,5.478515 q -5.42481,18.476563 -11.38672,31.635742 z"></path>
</svg>
