<svg xmlns="http://www.w3.org/2000/svg" id="svg1" version="1.1" height="200" width="990">
  <defs id="defs1"></defs>
  <rect id="rect1" stroke="none" fill="none" height="200" width="990" y="0" x="0"></rect>
  <path aria-label="東海道南方沖" style="font-size:100px;font-family:'BIZ UDPGothic';fill:#ff0000" id="text1" d="m 61.328125,126.61133 q 14.013672,12.84179 36.767578,20.50781 l -4.736328,6.98242 Q 82.8125,150.14648 75.048828,145.55664 62.939453,138.33008 53.515625,127.49023 v 32.03125 h -7.714844 v -31.83593 q -5.761719,7.51953 -14.30664,14.20898 -10.888672,8.49609 -24.3164066,13.81836 L 2.3925781,149.41406 Q 24.365234,141.40625 38.183594,126.61133 H 11.572266 V 87.792969 H 45.800781 V 79.785156 H 4.0527344 V 73.193359 H 45.800781 v -8.691406 h 7.714844 v 8.691406 h 42.382812 v 6.591797 H 53.515625 v 8.007813 H 88.28125 V 126.61133 Z M 45.800781,94.091797 H 19.384766 v 9.814453 h 26.416015 z m 7.714844,0 v 9.814453 H 80.566406 V 94.091797 Z M 45.800781,110.00977 H 19.384766 v 10.30273 h 26.416015 z m 7.714844,0 V 120.3125 H 80.566406 V 110.00977 Z M 138.08594,90.820312 h 49.90234 q 0,2.636719 -0.68359,22.998048 h 10.20508 v 6.5918 h -10.44922 q -0.19532,6.25 -0.87891,17.91992 h 9.7168 v 6.49414 h -10.20508 q -0.63477,7.27539 -1.70899,9.66797 -2.14843,5.02929 -10.49804,5.02929 -4.73633,0 -11.08399,-0.78125 l -1.41601,-6.83593 q 7.32422,1.02539 12.06054,1.02539 2.73438,0 3.61329,-1.22071 0.78125,-1.12304 1.31836,-6.10351 l 0.0488,-0.78125 h -39.01367 l -0.14648,0.78125 -0.14649,0.68359 -0.83008,4.73633 -7.4707,-0.87891 q 2.63672,-14.50195 4.44336,-29.73632 h -9.76562 v -6.5918 h 10.54687 q 1.46484,-12.69531 2.44141,-22.998048 z m 27.58789,6.396485 q -0.19531,3.417973 -0.73242,11.572263 l -0.29297,5.0293 h 15.33203 q 0.0977,-2.09961 0.24414,-5.46875 0.0488,-0.87891 0.19531,-5.56641 0,-1.85547 0.14649,-5.566403 z m -7.12891,0 h -13.81836 q -0.43945,5.957033 -1.51367,16.601563 h 14.0625 q 0.29297,-3.71094 0.43945,-5.56641 0.3418,-3.61328 0.83008,-11.035153 z m -1.80664,23.193363 h -14.25781 q -0.78125,6.64062 -1.95313,14.59961 l -0.48828,3.32031 h 14.79492 l 0.29297,-2.2461 q 1.17188,-9.76562 1.61133,-15.67382 z m 7.32422,0 -0.48828,5.12695 q -0.83008,8.78906 -1.31836,12.79297 h 16.40625 q 0.48828,-6.34766 0.73242,-12.30469 l 0.29297,-5.61523 z M 144.9707,73.779297 h 48.92578 v 6.689453 h -52.00195 q -4.00391,7.958984 -9.91211,14.941406 l -5.37109,-5.224609 q 9.47265,-10.546875 14.01367,-25.78125 l 7.4707,0.78125 q -1.5625,4.833984 -3.125,8.59375 z m -24.75586,12.5 q -6.44531,-8.447266 -14.40429,-15.38086 l 5.27343,-5.078125 q 7.51954,5.810547 14.69727,14.697266 z m -3.51562,25.732423 Q 109.0332,102.68555 101.9043,96.679687 l 5.41992,-5.371093 q 8.39844,6.787109 15.08789,14.794926 z m -12.69531,41.06445 q 8.88672,-12.64648 16.21093,-31.98242 l 6.39649,4.6875 q -7.37305,19.92187 -16.3086,33.00781 z M 224.90234,138.7207 q 5.0293,5.17578 11.47461,7.76367 Q 245.06836,150 259.08203,150 h 39.30664 q -1.31836,2.97852 -2.39258,7.08008 h -37.98828 q -15.67383,0 -24.85351,-4.29688 -6.00586,-2.83203 -10.98633,-7.91015 -7.03125,8.30078 -15.57617,14.69726 l -4.39453,-7.08008 q 7.22656,-4.39453 15.08789,-11.42578 v -26.85547 h -14.79493 v -6.7871 h 22.41211 z m 33.64258,-55.224606 h -28.125 v -6.298828 h 17.72461 q -2.73437,-4.931641 -6.44531,-9.619141 l 7.03125,-2.685547 q 4.39453,6.396484 7.1289,12.304688 h 12.98829 q 2.88086,-5.126954 5.51757,-12.5 l 7.91016,2.001953 q -2.58789,5.664062 -5.66406,10.498047 h 18.65234 v 6.298828 h -28.90625 q -1.02539,3.613281 -3.07617,8.300781 h 25.09766 V 142.82227 H 237.5 V 91.796875 h 18.35937 q 1.70899,-4.541016 2.68555,-8.300781 z m -13.62305,14.013672 v 9.179684 h 35.9375 v -9.179684 z m 0,14.599614 v 9.08203 h 35.9375 v -9.08203 z m 0,14.79492 v 10.00976 h 35.9375 V 126.9043 Z m -24.3164,-38.085941 q -7.22656,-10.15625 -14.59961,-17.041015 l 5.46875,-4.589844 q 8.74023,7.714844 15.03906,16.308594 z m 132.91015,5.175782 h 37.06055 v 57.324219 q 0,3.90625 -1.61133,5.66406 -1.90429,2.05078 -8.00781,2.05078 -5.76172,0 -11.18164,-0.63476 l -1.70898,-7.42188 q 8.88671,0.92774 12.06054,0.92774 1.85547,0 2.29492,-0.87891 0.24415,-0.53711 0.24415,-1.61133 V 100.39063 H 317.1875 v 59.13085 h -7.91016 V 93.994141 h 36.52344 V 83.007812 h -43.31055 v -6.689453 h 43.31055 V 64.501953 h 7.71484 v 11.816406 h 43.94532 v 6.689453 h -43.94532 z m -7.61718,27.783199 h -22.2168 v -6.20117 h 11.86523 q -2.14843,-5.32226 -5.37109,-10.49804 l 6.73828,-2.5879 q 4.05274,7.12891 6.20117,13.08594 H 356.25 q 3.32031,-6.05469 5.76172,-13.28125 l 7.42187,2.58789 q -2.39257,4.98047 -5.32226,9.96094 l -0.39063,0.73242 h 12.40235 v 6.20117 h -22.70508 v 9.13086 H 378.125 v 6.29883 h -24.70703 v 19.92188 h -7.51953 V 137.20703 H 321.875 v -6.29883 h 24.02344 z m 99.56054,-32.812496 q 0,7.324218 -0.92773,17.041016 h 39.4043 q -0.6836,32.91016 -3.75977,43.60351 -1.26953,4.49219 -4.83398,6.34766 -3.02735,1.5625 -9.08203,1.5625 -8.39844,0 -15.33204,-0.92773 l -1.31836,-8.00782 q 10.15625,1.31836 16.3086,1.31836 4.05273,0 5.32226,-1.70898 1.07422,-1.46484 2.14844,-8.49609 1.5625,-9.96094 2.14844,-26.70899 h -31.93359 q -1.80665,11.37695 -5.76172,19.28711 -7.91016,15.91797 -26.02539,25.73242 l -5.61524,-6.29883 q 19.38477,-10.15625 25.58594,-26.36718 5.17578,-13.57422 5.56641,-36.376956 h -33.54493 v -7.177735 h 41.69922 V 64.501953 h 8.00781 v 17.285156 h 42.67579 v 7.177735 z m 113.23243,-3.66211 V 64.501953 h 7.71484 v 20.800781 h 27.7832 v 40.478516 h -27.7832 v 33.69141 h -7.71484 v -33.69141 h -26.9043 V 85.302734 Z m -19.38477,6.982422 v 26.513674 h 19.38477 V 92.285156 Z m 47.26563,26.513674 V 92.285156 H 566.40625 V 118.79883 Z M 521.77734,86.621094 q -6.54297,-8.34961 -15.2832,-15.527344 l 5.32227,-5.273438 q 8.30078,6.201172 15.67382,14.990235 z m -3.66211,25.488286 q -7.66601,-8.8379 -15.91796,-15.527349 l 5.41992,-5.46875 q 8.39843,6.201172 16.16211,14.990239 z m -13.7207,40.57617 q 9.52149,-12.69532 17.48047,-32.86133 l 6.29883,5.07812 q -7.32422,19.14063 -17.08985,33.69141 z"></path>
</svg>
