<svg xmlns="http://www.w3.org/2000/svg" id="svg1" version="1.1" height="200" width="1096">
  <defs id="defs1"></defs>
  <rect id="rect1" stroke="none" fill="none" height="200" width="1096" y="0" x="0"></rect>
  <path aria-label="駿河湾南方沖" style="font-weight:bold;font-size:110px;font-family:'BIZ UDPGothic';fill:#ff0000" id="text1" d="m 61.230469,86.030273 -2.25586,0.161133 -2.470703,0.107422 -5.693359,0.322266 -2.739258,-9.560547 6.123047,-0.05371 h 1.020508 l 1.127929,-0.05371 q 5.800782,-10.3125 10.3125,-21.323242 l 11.010743,2.202148 q -4.833985,9.775391 -10.581055,18.798828 7.841797,-0.322265 16.113281,-0.859375 l 5.908203,-0.375976 Q 85.830078,70.292969 81.210937,64.438477 l 8.647461,-3.867188 q 8.647461,9.72168 16.650392,23.417969 l -9.506837,4.833984 Q 96.035156,86.99707 94.638672,84.580078 l -0.805664,-1.503906 q -3.652344,0.429687 -6.928711,0.751953 v 11.064453 q 0,1.826172 0.805664,2.202149 0.698242,0.322265 3.544922,0.322265 5.048828,0 5.585937,-1.826172 0.429688,-1.503906 0.53711,-5.639648 l 9.56055,2.739258 q -0.16114,8.80859 -3.4375,11.54785 -2.68555,2.20215 -13.212894,2.20215 -8.59375,0 -11.010742,-1.87988 -1.826172,-1.39649 -1.826172,-5.908206 V 84.741211 l -5.263672,0.429687 -0.268555,0.05371 -0.913086,0.05371 q -0.805664,6.552735 -2.792968,10.84961 -4.028321,8.70117 -15.092774,13.48145 l -6.660156,-7.46583 q 8.862305,-3.330073 11.977539,-8.217769 2.041016,-3.168945 2.792969,-7.895508 z m -10.84961,22.290037 q -0.05371,10.90332 -0.375976,20.19531 10.3125,-8.80859 16.542969,-24.38476 l 9.77539,2.09473 q -1.71875,3.92089 -3.007812,6.60644 h 21.699218 l 5.747072,4.83399 q -6.606447,14.39453 -15.200197,23.47168 8.110352,4.83398 23.310547,9.29199 l -5.80078,10.04394 q -16.328126,-5.69336 -25.190431,-12.40722 -11.386718,8.59375 -24.868164,12.62207 l -5.371093,-8.05664 q -1.020508,4.29687 -3.759766,6.12304 -2.631836,1.71875 -8.647461,1.71875 -5.854492,0 -10.3125,-0.69824 l -1.503906,-10.09766 q 6.284179,1.07422 10.097656,1.07422 3.4375,0 4.350586,-1.93359 1.181641,-2.30957 1.772461,-9.61426 l -5.209961,1.98731 q -1.71875,-11.87012 -4.189453,-19.98047 l 5.585937,-2.20215 q 3.168946,8.64746 4.082032,15.95215 0.537109,-9.34571 0.59082,-17.83203 H 5.5859375 V 59.228516 H 50.273437 v 9.130859 H 34.858398 v 7.841797 h 12.407227 v 8.271484 H 34.858398 v 7.680664 h 12.407227 v 8.16406 H 34.858398 v 8.00293 z m -2.416992,42.96875 q 11.171875,-2.84668 21.806641,-10.36621 -4.726563,-5.10254 -7.949219,-10.52734 -3.544922,3.81347 -7.197266,6.875 l -4.780273,-5.85449 q -0.483398,12.35351 -1.879883,19.87304 z m 29.21875,-16.43554 q 6.337891,-6.49903 9.345703,-12.78321 H 68.105469 q -0.322266,0.42969 -0.590821,0.85938 4.350586,6.92871 9.667969,11.92383 z M 15.683594,68.359375 v 7.841797 h 9.614258 v -7.841797 z m 0,16.113281 v 7.680664 h 9.614258 v -7.680664 z m 0,15.844724 v 8.00293 h 9.614258 v -8.00293 z M 0.64453125,148.0127 Q 3.3837891,136.51855 4.5117187,121.96289 l 7.7880863,1.07422 q -0.590821,17.83203 -3.3837894,30.23926 z m 14.07226575,0 q -0.05371,-11.92383 -1.074219,-24.43848 l 6.230469,-1.18164 q 1.71875,10.74219 2.094726,23.95508 z m 10.581055,-3.06153 q -0.805665,-12.46094 -3.007813,-22.23633 l 5.532227,-1.77246 q 3.168945,10.58106 3.974609,22.02149 z M 207.48535,73.354492 v 75.410158 q 0,6.60644 -3.4375,9.02344 -2.73926,1.87988 -9.3457,1.87988 -8.21778,0 -16.27442,-0.75195 l -2.73925,-11.44043 q 9.72168,1.23535 16.91894,1.23535 2.57813,0 3.11524,-0.9668 0.42968,-0.75195 0.42968,-2.79297 V 73.354492 H 140.56152 V 62.773437 h 77.45118 v 10.581055 z m -21.26953,13.75 v 42.646488 h -27.66113 v 8.27148 H 147.86621 V 87.104492 Z m -27.66113,9.345703 v 23.847655 h 17.29492 V 96.450195 Z M 131.80664,83.022461 Q 123.15918,72.817383 114.29688,65.620117 l 8.16406,-7.895508 q 9.8291,7.304688 17.34863,16.704102 z M 129.01367,110.7373 Q 119.8291,100.10254 111.9873,93.442383 l 7.89551,-8.110352 q 9.18457,6.552735 17.61719,16.704099 z m -15.36133,40.82032 q 10.90332,-14.98535 20.67871,-37.65137 l 9.45313,6.60645 q -7.73438,21.37695 -20.24902,39.58496 z M 302.9834,74.106445 v 20.786133 q 0,3.544922 -1.50391,5.209962 -1.77246,1.93359 -7.84179,1.93359 -5.80079,0 -9.50684,-0.64453 l -1.39649,-8.916014 q 4.24317,0.859375 7.14356,0.859375 1.55762,0 1.9873,-0.751953 0.32227,-0.644531 0.32227,-2.094727 V 74.106445 h -9.56055 q -0.42968,11.333008 -3.00781,17.402344 -2.84668,6.606445 -11.76269,12.084961 l -7.68067,-6.821289 q 8.05664,-4.189453 10.36621,-10.795899 1.39649,-4.135742 1.71875,-11.870117 h -21.21582 v -9.130859 h 30.56153 v -9.023438 h 11.8164 v 9.023438 h 33.73047 v 9.130859 z m 16.59668,30.454105 v 21.80664 h -53.0127 q -0.42968,2.9541 -1.02051,5.9082 h 58.65235 q -1.34277,14.77051 -3.70606,20.24902 -3.4375,7.94922 -16.11328,7.94922 -10.52734,0 -22.6123,-0.91308 l -1.98731,-9.77539 q 11.54785,1.23535 20.67871,1.23535 4.94141,0 6.49903,-1.12793 2.41699,-1.77246 3.75976,-9.23828 h -47.26562 q -0.59082,2.20215 -2.04102,6.60644 l -11.54785,-2.30957 q 4.08203,-12.24609 6.12305,-26.47949 h 51.83105 v -5.74707 h -55 v -8.16406 z M 240.57129,80.820312 q -5.96192,-8.271484 -15.25391,-16.381835 l 8.00293,-7.626954 q 8.43262,6.176758 15.84473,15.737305 z m -3.27637,27.714848 Q 229.02344,98.061523 221.23535,91.455078 l 8.05664,-7.788086 q 8.05664,6.176758 16.59668,15.952149 z M 223.4375,151.9873 q 9.45312,-14.71679 17.93945,-37.75878 l 8.8086,6.49902 q -7.03614,21.32324 -16.86524,39.85351 z m 95.71289,-51.50878 Q 312.11426,89.091797 304.37988,80.820312 l 8.16407,-5.263671 q 9.45312,8.59375 15.30761,18.798828 z m -75.1416,-6.445317 q 7.8418,-6.445312 12.89062,-17.080078 l 9.77539,3.652344 q -5.26367,11.977539 -14.55566,19.980471 z m 135.0293,26.479497 h -22.23633 v -8.8086 h 10.74219 q -2.417,-5.47851 -5.47852,-10.20508 l 9.66797,-3.544918 q 4.18945,7.036128 6.76758,13.749998 h 12.62207 q 3.16894,-6.49902 5.58593,-13.964842 l 10.7959,3.383792 q -2.73926,5.9082 -5.80078,10.58105 h 11.54785 v 8.8086 h -22.98828 v 7.84179 h 24.49219 v 9.13086 h -24.49219 v 20.30274 h -11.22558 v -20.30274 h -23.57911 v -9.13086 h 23.57911 z m 11.54785,-33.085942 h 40.71289 v 62.788082 q 0,5.53223 -2.9541,7.78809 -2.47071,1.93359 -8.3252,1.93359 -7.57324,0 -14.60937,-0.80566 l -2.63184,-10.7959 q 9.39941,1.12793 14.07227,1.12793 1.93359,0 2.25586,-0.9668 0.21484,-0.59082 0.21484,-1.66504 V 96.772461 H 350.67871 V 160.47363 H 338.70117 V 87.426758 h 40.01465 v -9.72168 h -45.97656 v -9.990234 h 45.97656 V 55.952148 h 11.87012 v 11.762696 h 46.62109 v 9.990234 h -46.62109 z m 101.56738,-2.524414 q -0.37598,8.969726 -1.07422,15.791016 h 43.29102 q -0.80567,37.27539 -4.18946,48.39355 -1.71875,5.58594 -6.3916,7.73438 -3.65234,1.66504 -10.68847,1.66504 -7.41211,0 -16.81153,-1.12793 l -2.09472,-12.08496 q 12.62207,1.77246 17.77832,1.77246 4.35058,0 5.53222,-2.4707 2.84668,-6.01563 3.97461,-33.19336 h -31.95801 q -1.77246,9.66796 -4.99511,16.75781 -8.96973,19.60449 -29.97071,31.09863 l -8.48632,-9.45312 q 21.05468,-10.95704 27.82226,-28.73536 4.51172,-11.87011 5.85449,-36.147456 H 444.18945 V 73.891602 h 43.88184 V 55.952148 h 12.40723 v 17.939454 h 45.33203 v 11.010742 z m 121.54785,-8.916016 v -20.03418 h 11.54785 v 20.03418 h 29.11133 v 48.608402 h -29.11133 v 35.8789 h -11.54785 v -35.8789 H 585.18066 V 75.986328 Z m -17.40234,10.688477 v 27.338865 h 17.40234 V 86.674805 Z m 46.62109,27.338865 V 86.674805 h -17.6709 v 27.338865 z m -68.75,-31.796873 q -6.55273,-9.13086 -17.34863,-17.456055 l 8.00293,-8.164062 q 10.74219,7.573242 18.1543,16.972656 z m -3.49121,27.607423 q -9.3457,-10.849611 -18.1543,-17.778322 l 8.27149,-8.271484 q 9.39941,6.606445 18.58398,17.080076 z m -16.7041,41.62598 q 10.3125,-14.66309 19.01367,-36.52344 l 9.56055,7.3584 q -7.3584,20.1416 -17.93946,37.91992 z"></path>
</svg>
