<svg xmlns="http://www.w3.org/2000/svg" id="svg1" version="1.1" height="200" width="1096">
  <defs id="defs1"></defs>
  <rect id="rect1" stroke="none" fill="none" height="200" width="1096" y="0" x="0"></rect>
  <path aria-label="薩摩半島西方沖" style="font-weight:bold;font-size:110px;font-family:'BIZ UDPGothic';fill:#ff0000" id="text1" d="m 51.992187,113.26172 v 11.54785 q 0,3.38379 -0.107421,5.37109 5.908203,-6.82128 8.002929,-14.71679 l 9.506836,2.09472 q -0.698242,2.36329 -1.503906,4.4043 h 6.337891 v -5.96191 h 10.205078 v 5.96191 h 19.013676 v 7.57324 H 84.433594 v 6.06934 h 16.489256 v 7.3584 H 84.433594 v 7.14355 h 22.773436 v 8.16406 H 50.756836 v -8.16406 h 23.47168 v -7.14355 H 58.813477 v -7.30469 l -6.982422,-5.10254 q -0.322266,8.86231 -2.470703,15.68359 -2.524415,7.94922 -8.486329,14.66309 l -8.432617,-7.03613 q 6.821289,-7.41211 8.701172,-17.13379 1.074219,-5.3711 1.074219,-12.35352 v -18.79883 h 9.77539 l -4.189453,-4.61914 q 9.077149,-1.39648 16.704102,-3.276363 -4.458008,-1.181641 -13.75,-3.4375 l 4.404297,-3.4375 H 43.076172 V 82.915039 H 69.716797 V 77.060547 H 64.291992 V 71.474609 H 42.861328 v 6.015625 H 31.313477 V 71.474609 H 2.6318359 V 62.773437 H 31.313477 v -6.821289 h 11.547851 v 6.821289 h 21.430664 v -6.821289 h 11.816406 v 6.821289 h 31.206052 v 8.701172 H 76.108398 v 4.941407 h 4.941407 v 6.499023 h 24.384765 v 7.895508 H 91.254883 l 5.048828,2.524414 q -3.867188,1.772461 -8.271484,3.491211 l -1.772461,0.698242 3.706054,0.966797 1.665039,0.483398 3.4375,0.966797 5.532231,1.557614 -4.94141,4.08203 h 10.7959 v 7.68067 z M 76.108398,100.9082 q -7.680664,2.417 -18.637695,4.67285 H 91.68457 l -5.639648,-1.71875 q -4.726563,-1.45019 -9.023438,-2.68554 z m -0.644531,-6.337888 q 0.375977,-0.161132 0.751953,-0.268554 3.706055,-1.12793 9.990235,-3.491211 H 60.263672 q 9.453125,2.148437 15.200195,3.759765 z M 64.130859,129.53613 q -2.041015,3.33008 -4.243164,6.06934 h 14.340821 v -6.06934 z M 31.689453,108.2666 q 7.734375,10.3125 7.734375,21.80664 0,6.92871 -2.524414,9.8291 -2.524414,2.84668 -8.808594,2.84668 -4.833984,0 -8.378906,-0.75195 l -1.557617,-9.3457 q 1.020508,0.16113 2.792969,0.42968 2.685546,0.42969 4.887695,0.42969 2.041016,0 2.685547,-0.80566 0.644531,-0.80567 0.644531,-2.84668 0,-10.7959 -8.056641,-20.83985 6.015625,-12.138667 7.41211,-20.034175 H 17.832031 V 160.47363 H 7.3583984 V 80.498047 H 36.201172 l 3.759765,4.189453 q -3.813476,13.535156 -8.271484,23.5791 z M 195.61523,72.65625 v 6.069336 h 18.04688 v 7.680664 h -13.85742 q 6.49902,7.573242 16.59668,12.998047 l -5.15625,7.680663 q -9.50684,-6.12305 -15.84473,-14.663085 V 104.3457 h -9.99023 V 93.496094 q -4.4043,6.982426 -11.7627,11.708986 l -5.63965,-6.284182 q 7.89551,-4.350586 13.69629,-12.514648 h -11.17187 v -7.680664 h 14.66308 V 72.65625 h -27.71484 v 6.069336 h 10.74219 v 7.680664 h -11.01075 v 1.987305 q 6.17676,3.061523 11.49414,7.358398 l -5.10253,6.713867 q -2.68555,-2.846679 -6.39161,-5.854492 V 106.7627 H 147.3291 V 94.355469 q -4.67285,7.036131 -12.35351,12.407231 l -5.26368,-6.821294 v 3.061524 q 0,21.69922 -1.87988,34.96582 Q 126.11328,150 121.54785,160.3125 l -10.20508,-7.25098 q 3.9209,-8.96972 5.53223,-20.78613 1.61133,-11.92383 1.61133,-29.27246 V 63.847656 h 43.2373 v -7.895508 h 11.92383 v 7.895508 h 41.78711 v 8.808594 z m -48.60839,0 h -17.29493 v 27.124023 q 8.8086,-5.317382 14.28711,-13.374023 h -12.08496 v -7.680664 h 15.09278 z m 32.4414,42.2168 v 6.12304 h 32.8711 v 7.68067 h -32.8711 v 5.26367 h 37.8125 v 8.16406 h -37.8125 v 9.45313 q 0,4.88769 -2.4707,6.92871 -2.36328,1.9873 -8.75488,1.9873 -9.88282,0 -15.52246,-0.91308 l -1.66504,-8.91602 q 8.05664,1.12793 14.93164,1.12793 1.82617,0 2.09472,-0.69824 0.26856,-0.59082 0.26856,-1.9336 v -7.03613 h -37.97363 v -8.16406 h 37.97363 v -5.26367 h -33.35449 v -7.68067 h 33.35449 v -5.26367 q -15.03906,0.91309 -25.5127,1.07422 l -3.33008,-7.68066 q 33.13965,-0.53711 58.97461,-4.4043 l 6.28418,7.14355 q -14.12597,2.09473 -25.29785,3.00782 z M 268.6084,93.442383 V 55.952148 h 12.08496 v 37.490235 h 40.92773 v 10.688477 h -40.92773 v 15.25391 h 46.56738 v 10.90332 h -46.56738 v 30.18554 H 268.6084 V 130.28809 H 222.73926 V 119.38477 H 268.6084 V 104.13086 H 228.43262 V 93.442383 Z M 245.08301,89.951172 Q 238.42285,75.180664 231.11816,65.405273 l 11.22559,-5.478515 q 8.27148,11.386719 14.50195,24.599609 z m 47.1582,-4.189453 q 8.48633,-12.890625 13.53516,-27.070313 l 12.56836,4.941406 q -6.06934,13.320313 -15.30762,26.748047 z m 80.35156,-21.645508 q 1.98731,-4.780274 3.22266,-9.130859 l 13.10547,1.77246 q -1.87988,4.458008 -3.4375,7.358399 h 35.77148 v 35.019531 h -64.88281 v 5.424808 h 80.83496 v 8.70117 h -80.83496 v 5.47851 h 77.0752 q -0.69825,24.59961 -3.11524,33.19336 -1.55762,5.47852 -5.85449,7.25098 -3.06152,1.28906 -9.3457,1.28906 -6.44532,0 -12.03125,-0.80566 l -2.14844,-9.02344 h -53.81836 v 5.96192 h -11.54785 v -25.83497 h 11.54785 v 11.06446 h 18.47656 v -14.50196 h -21.1084 V 64.116211 Z m 22.82715,77.719729 v -11.06446 h 11.11817 v 18.69141 q 4.458,0.42969 7.41211,0.42969 3.65234,0 4.56542,-2.09473 1.77247,-3.9209 2.79297,-20.46387 H 377.1582 v 14.50196 z M 356.37207,72.387695 v 5.317383 h 53.0127 v -5.317383 z m 0,12.998047 v 5.854492 h 53.0127 v -5.854492 z m 119.02344,1.235352 V 71.582031 H 443.38379 V 61.21582 h 103.28613 v 10.366211 h -35.50293 v 15.039063 h 30.13184 v 72.402346 h -11.65528 v -7.57324 h -69.34082 v 7.57324 H 448.75488 V 86.621094 Z m 11.11816,0 h 13.53516 V 71.582031 h -13.53516 z m -11.17187,9.77539 h -15.03907 v 44.848636 h 69.34082 v -16.11328 h -20.35644 q -9.23828,0 -9.23828,-9.23829 V 96.396484 h -13.64258 q -0.21484,13.212896 -3.97461,21.162106 -3.54492,7.57325 -13.96484,14.98536 l -7.41211,-8.27149 q 9.99023,-6.12305 12.62207,-15.14648 1.39648,-4.83399 1.66504,-12.729496 z m 35.82519,0 v 16.435546 q 0,2.09473 1.87988,2.09473 h 16.59668 V 96.396484 Z m 90.98633,-11.49414 q -0.37598,8.969726 -1.07422,15.791016 h 43.29102 q -0.80567,37.27539 -4.18946,48.39355 -1.71875,5.58594 -6.3916,7.73438 -3.65234,1.66504 -10.68847,1.66504 -7.41211,0 -16.81153,-1.12793 l -2.09472,-12.08496 q 12.62207,1.77246 17.77832,1.77246 4.35058,0 5.53222,-2.4707 2.84668,-6.01563 3.97461,-33.19336 h -31.95801 q -1.77246,9.66796 -4.99511,16.75781 -8.96973,19.60449 -29.97071,31.09863 l -8.48632,-9.45312 q 21.05468,-10.95704 27.82226,-28.73536 4.51172,-11.87011 5.85449,-36.147456 H 554.18945 V 73.891602 h 43.88184 V 55.952148 h 12.40723 v 17.939454 h 45.33203 v 11.010742 z m 121.54785,-8.916016 v -20.03418 h 11.54785 v 20.03418 h 29.11133 v 48.608402 h -29.11133 v 35.8789 h -11.54785 v -35.8789 H 695.18066 V 75.986328 Z m -17.40234,10.688477 v 27.338865 h 17.40234 V 86.674805 Z m 46.62109,27.338865 V 86.674805 h -17.6709 v 27.338865 z m -68.75,-31.796873 q -6.55273,-9.13086 -17.34863,-17.456055 l 8.00293,-8.164062 q 10.74219,7.573242 18.1543,16.972656 z m -3.49121,27.607423 q -9.3457,-10.849611 -18.1543,-17.778322 l 8.27149,-8.271484 q 9.39941,6.606445 18.58398,17.080076 z m -16.7041,41.62598 q 10.3125,-14.66309 19.01367,-36.52344 l 9.56055,7.3584 q -7.3584,20.1416 -17.93946,37.91992 z"></path>
</svg>
