<svg xmlns="http://www.w3.org/2000/svg" id="svg1" version="1.1" height="200" width="1096">
  <defs id="defs1"></defs>
  <rect id="rect1" stroke="none" fill="none" height="200" width="1096" y="0" x="0"></rect>
  <path aria-label="北米東部" style="font-weight:bold;font-size:110px;font-family:'BIZ UDPGothic';fill:#ff0000" id="text1" d="M 32.119141,131.8457 Q 17.294922,139.63379 6.2841797,143.76953 L 1.7724609,131.95312 Q 19.013672,126.15234 32.119141,119.92188 V 95.859375 H 5.5322266 V 84.526367 H 32.119141 V 55.952148 H 44.09668 V 160.47363 H 32.119141 Z M 70.307617,90.004883 Q 82.822266,83.452148 94.584961,73.354492 l 8.916019,9.345703 Q 87.602539,93.979492 70.307617,101.92871 v 40.2832 q 0,2.63184 1.71875,3.22266 1.826172,0.59082 8.432617,0.59082 8.701172,0 10.903321,-1.02051 1.557617,-0.69824 2.148437,-4.35058 0.805664,-5.10254 1.181641,-16.48926 l 12.031247,3.70605 q -0.53711,13.91114 -1.71875,19.98047 -1.34277,6.76758 -7.03613,8.75489 -5.424805,1.82617 -17.77832,1.82617 -14.501953,0 -18.261719,-2.417 -3.598633,-2.36328 -3.598633,-9.07714 V 55.952148 H 70.307617 Z M 175.52734,104.93652 q 15.89844,20.03418 42.80762,34.10645 l -7.46582,11.11816 q -24.0625,-14.01855 -40.17578,-36.25488 v 46.56738 H 158.6084 v -45.54687 q -14.2334,23.04199 -38.61817,37.27539 l -7.68066,-10.09766 q 15.25391,-7.84179 25.67383,-17.83203 8.32519,-7.94922 16.11328,-19.33594 H 114.51172 V 94.355469 H 158.6084 V 55.952148 h 12.08496 v 38.403321 h 44.79492 V 104.93652 Z M 134.33105,91.347656 Q 127.56348,77.006836 120.7959,67.177734 l 10.09765,-5.532226 q 8.27149,10.581054 14.07227,23.686523 z m 48.07129,-4.243164 q 8.21778,-12.03125 14.60938,-26.640625 l 11.44043,5.263672 Q 201.8457,79.208984 192.5,91.831055 Z m 110.21485,38.457028 q 13.32031,11.87012 35.8789,19.17481 l -6.92871,10.09765 q -12.99804,-4.61914 -22.66601,-11.17187 -9.99024,-6.82129 -18.42285,-16.75781 v 33.56933 h -11.65528 v -32.97851 q -7.46582,10.47363 -19.28222,18.79883 -9.07715,6.3916 -19.44336,10.3125 l -7.3584,-9.45313 q 17.02636,-5.63965 28.41308,-15.2002 3.22266,-2.68554 6.55274,-6.3916 H 231.87012 V 81.572266 h 36.95312 V 74.321289 H 224.29687 V 64.65332 h 44.52637 v -8.701172 h 11.65528 v 8.701172 h 45.2246 v 9.667969 h -45.2246 v 7.250977 h 37.65136 V 125.56152 Z M 268.82324,90.595703 h -25.29785 v 8.701172 h 25.29785 z m 11.65528,0 v 8.701172 h 25.99609 v -8.701172 z m -11.65528,17.080077 h -25.29785 v 8.86231 h 25.29785 z m 11.65528,0 v 8.86231 h 25.99609 v -8.86231 z m 87.9248,-39.316405 h 22.98828 v 10.366211 h -7.57324 q -2.04102,8.217773 -5.47852,17.241211 h 14.34082 v 10.366213 h -59.9414 V 95.966797 h 13.15918 Q 343.75,85.654297 341.38672,78.725586 H 334.4043 V 68.359375 h 22.77343 V 55.952148 h 11.22559 z m -16.16699,10.366211 q 2.73926,8.00293 4.24316,17.241211 h 10.95703 l 0.53711,-1.503906 q 2.30957,-6.123047 4.29688,-13.911133 l 0.4834,-1.826172 z m 33.30078,36.630864 v 43.98925 h -11.01074 v -5.26367 H 351.1084 v 6.3916 h -11.33301 v -45.11718 z m -34.42871,9.88281 v 18.63769 h 23.41797 v -18.63769 z m 71.75781,-27.124026 q 6.3916,6.069336 10.15137,14.448246 3.70605,8.3789 3.70605,16.97265 0,7.94922 -2.9541,11.70899 -3.06152,3.9209 -10.09766,3.9209 -6.01562,0 -11.65527,-0.85938 l -2.63183,-11.44043 q 6.49902,1.18164 10.74218,1.18164 3.22266,0 4.02832,-1.5039 0.53711,-1.07422 0.53711,-4.29688 0,-13.2666 -7.94922,-22.88086 -2.09472,-2.52441 -5.26367,-5.424804 l 0.64453,-1.503906 q 5.58594,-12.62207 8.70118,-26.318359 h -13.75 V 160.47363 H 395.95703 V 61.000977 h 32.33399 l 5.96191,5.478515 q -5.42481,18.476563 -11.38672,31.635742 z"></path>
</svg>
