<svg xmlns="http://www.w3.org/2000/svg" id="svg1" version="1.1" height="200" width="1096">
  <defs id="defs1"></defs>
  <rect id="rect1" stroke="none" fill="none" height="200" width="1096" y="0" x="0"></rect>
  <path aria-label="ニューギニア付近" style="font-weight:bold;font-size:110px;font-family:'BIZ UDPGothic';fill:#ff0000" id="text1" d="m 14.770508,73.461914 h 73.90625 V 85.009766 H 14.770508 Z M 3.8671875,134.96094 H 99.580078 v 11.65527 H 3.8671875 Z M 119.18457,84.526367 h 54.0332 q -1.28906,23.793943 -5.10254,53.818363 l -0.48339,3.75976 h 20.30273 v 10.20508 h -78.95508 v -10.20508 h 47.10449 q 4.13575,-28.95019 4.94141,-47.373045 h -41.84082 z m 82.07031,15.737303 h 94.58496 v 12.08496 h -94.58496 z m 152.80762,-41.787108 3.38379,20.893555 28.73535,-2.094726 0.75195,11.010742 -27.71484,2.094726 3.27637,20.141601 38.833,-2.84668 0.80567,10.95703 -37.75879,3.00782 5.53223,33.83789 -12.56836,1.55761 -5.69336,-34.42871 -44.47266,3.4375 -0.75195,-11.33301 43.45215,-3.22265 -3.4375,-20.141604 -34.42871,2.578125 -0.75196,-11.118164 33.46192,-2.416992 -3.4375,-20.463867 z m 33.08594,18.798829 q -2.79297,-7.680664 -10.90332,-19.013672 l 8.48633,-3.061524 q 6.49902,8.862305 11.01074,18.798828 z m 15.7373,-1.879883 Q 398.75,65.19043 392.08984,56.166992 l 8.05664,-2.524414 q 6.39161,7.412109 10.90332,18.154297 z m 23.25684,-1.933594 h 73.90625 v 11.547852 h -73.90625 z m -10.90332,61.499026 h 95.71289 v 11.65527 H 415.23926 Z M 518.95508,66.962891 h 84.16504 l 6.92871,5.854492 q -3.00781,11.225586 -7.8418,18.745117 -9.07715,14.2334 -27.17773,21.26953 l -6.76758,-9.23828 q 12.51465,-3.759766 20.78613,-13.481445 4.8877,-5.747071 6.82129,-12.138672 h -76.91406 z m 34.42871,23.203125 h 12.2998 v 9.238281 q 0,20.786133 -4.61914,32.119143 -5.85449,14.39453 -22.77343,23.41797 l -8.86231,-9.34571 q 11.65527,-5.53222 17.02637,-13.21289 4.13574,-5.96191 5.4248,-12.62207 1.50391,-7.62695 1.50391,-20.463865 z M 644.7998,85.976562 V 160.47363 H 633.14453 V 105.3125 q -4.35058,6.12305 -10.09766,12.67578 l -6.06933,-11.54785 q 10.90332,-12.084961 18.69141,-28.144532 4.72656,-9.721679 9.45312,-23.203125 l 11.22559,3.061524 q -4.8877,14.716797 -11.54786,27.822265 z M 705.97656,81.25 h 16.16699 v 10.795898 h -16.16699 v 56.396482 q 0,7.08985 -3.4375,9.45313 -2.52441,1.77246 -9.50683,1.77246 -8.54004,0 -17.50977,-0.9668 l -2.30957,-11.76269 q 9.56055,1.39648 17.83203,1.39648 2.25586,0 2.73926,-0.9668 0.32227,-0.69824 0.32227,-2.30957 V 92.045898 H 650.1709 V 81.25 h 43.93555 V 57.832031 h 11.87011 z m -33.99902,52.0459 q -6.06934,-16.16699 -14.98535,-29.48731 l 10.25879,-5.96191 q 9.66797,14.2334 15.52246,29.16504 z m 83.25195,2.73926 q 4.29688,4.99511 9.66797,7.41211 8.80859,3.9746 23.0957,3.9746 h 45.76172 q -1.93359,3.65235 -3.59863,10.47364 h -42.7002 q -18.47656,0 -28.30566,-5.80078 -4.02832,-2.417 -8.8623,-7.89551 -0.37598,0.42969 -0.91309,1.07422 -7.89551,9.3457 -15.68359,15.2539 l -6.49903,-11.01074 q 8.54004,-5.10254 16.48926,-11.54785 v -26.5332 h -15.62988 v -10.58106 h 27.17773 z m 13.96485,-71.274418 2.84668,-0.214844 q 24.86816,-1.71875 44.6875,-7.358398 l 8.3789,9.453125 q -20.83984,5.478516 -44.47265,7.412109 v 13.911133 h 49.73632 V 98.4375 h -18.04687 v 43.77441 H 800.4541 V 98.4375 h -19.81933 q -0.26856,17.24121 -2.57813,27.44629 -2.09473,9.39941 -6.875,16.86523 l -9.88281,-7.46582 q 5.31738,-8.27148 6.82129,-20.51757 1.07422,-8.43262 1.07422,-22.934575 z M 749.32129,85.761719 Q 741.10352,74.160156 731.59668,64.975586 l 8.80859,-7.036133 q 9.23828,7.734375 18.58399,19.658203 z"></path>
</svg>
