<svg xmlns="http://www.w3.org/2000/svg" id="svg1" version="1.1" height="200" width="990">
  <defs id="defs1"></defs>
  <rect id="rect1" stroke="none" fill="none" height="200" width="990" y="0" x="0"></rect>
  <path aria-label="南大西洋" style="font-size:100px;font-family:'BIZ UDPGothic';fill:#ff0000" id="text1" d="m 53.515625,93.994141 h 37.060547 v 57.324219 q 0,3.90625 -1.611328,5.66406 -1.904297,2.05078 -8.007813,2.05078 -5.761719,0 -11.18164,-0.63476 l -1.708985,-7.42188 q 8.886719,0.92774 12.060547,0.92774 1.855469,0 2.294922,-0.87891 0.244141,-0.53711 0.244141,-1.61133 V 100.39063 H 17.1875 v 59.13085 H 9.2773438 V 93.994141 H 45.800781 V 83.007812 H 2.4902344 V 76.318359 H 45.800781 V 64.501953 h 7.714844 v 11.816406 h 43.945312 v 6.689453 H 53.515625 Z M 45.898437,121.77734 H 23.681641 v -6.20117 h 11.865234 q -2.148438,-5.32226 -5.371094,-10.49804 l 6.738281,-2.5879 q 4.052735,7.12891 6.201172,13.08594 H 56.25 q 3.320312,-6.05469 5.761719,-13.28125 l 7.421875,2.58789 q -2.392578,4.98047 -5.322266,9.96094 l -0.390625,0.73242 h 12.402344 v 6.20117 H 53.417969 v 9.13086 H 78.125 v 6.29883 H 53.417969 v 19.92188 H 45.898437 V 137.20703 H 21.875 V 130.9082 H 45.898437 Z M 155.0293,97.998047 q 4.49218,16.357423 16.65039,31.201173 11.13281,13.52539 25.73242,21.58203 l -5.07813,7.42187 q -16.94336,-10.15625 -28.17382,-25.39062 -8.05664,-10.88867 -13.23243,-25.19531 -8.30078,36.18164 -41.74804,51.07422 l -5.17578,-6.5918 q 19.72656,-8.10547 30.9082,-25.29297 8.78906,-13.57422 10.40039,-28.808593 h -40.42969 v -7.617188 h 40.72266 V 65.478516 h 8.10547 v 24.902343 h 41.40625 v 7.617188 z m 78.56445,-4.296875 V 77.197266 H 202.7832 V 70.3125 h 94.38477 v 6.884766 h -33.88672 v 16.503906 h 27.7832 V 157.8125 h -7.8125 V 150 h -66.65039 v 7.8125 h -7.71484 V 93.701172 Z m 7.51953,0 h 14.64844 V 77.197266 h -14.64844 z m -7.56836,6.591798 h -16.94336 v 42.91992 h 66.65039 v -17.23633 h -20.16601 q -7.32422,0 -7.32422,-6.59179 v -19.0918 h -14.69727 q -0.43945,10.5957 -3.125,16.89453 -3.80859,8.93555 -14.9414,15.52734 l -4.98047,-5.61523 q 10.40039,-5.41992 13.52539,-14.50195 1.51367,-4.44336 2.00195,-12.30469 z m 29.73633,0 v 16.50391 q 0,1.51367 0.58594,1.95312 0.53711,0.43945 1.80664,0.43945 h 17.57812 v -18.89648 z m 95.89844,-12.695314 h -27.00196 v -6.689453 h 15.08789 q -3.46679,-8.007812 -7.27539,-13.525391 l 7.08008,-2.880859 q 4.6875,7.714844 7.8125,16.40625 h 16.74805 l 0.3418,-0.683594 q 3.51562,-7.177734 6.39648,-15.820312 l 8.00781,2.392578 q -2.88086,6.689453 -6.93359,14.111328 h 15.13672 v 6.689453 h -27.49024 v 15.625004 h 24.51172 v 6.59179 h -24.51172 v 16.60157 h 30.41993 v 6.88476 h -30.41993 v 26.2207 h -7.91015 v -26.2207 h -29.98047 v -6.88476 h 29.98047 v -16.60157 h -24.31641 v -6.59179 h 24.31641 z M 320.89844,86.523437 Q 314.35547,78.173828 305.9082,71.09375 l 5.3711,-5.273438 q 8.59375,6.542969 15.33203,14.892579 z m -3.51563,25.488283 q -7.66601,-9.17969 -15.38086,-15.332033 l 5.41992,-5.46875 q 8.39844,6.445313 15.57618,14.892583 z m -13.18359,40.57617 q 8.88672,-11.96289 16.89453,-32.4707 L 327.19727,125 q -7.17774,20.26367 -16.69922,33.69141 z"></path>
</svg>
