<svg xmlns="http://www.w3.org/2000/svg" id="svg1" version="1.1" height="200" width="1096">
  <defs id="defs1"></defs>
  <rect id="rect1" stroke="none" fill="none" height="200" width="1096" y="0" x="0"></rect>
  <path aria-label="宗谷海峡" style="font-weight:bold;font-size:110px;font-family:'BIZ UDPGothic';fill:#ff0000" id="text1" d="M 60.585937,66.533203 H 103.39355 V 90.273437 H 91.416016 V 76.308594 H 18.208008 V 90.273437 H 6.4453125 V 66.533203 H 48.608398 V 55.952148 h 11.977539 z m 1.181641,51.884767 v 32.22656 q 0,5.10254 -1.71875,7.30469 -2.148437,2.73926 -9.775391,2.73926 -9.829101,0 -16.865234,-0.91309 l -1.772461,-11.33301 q 7.788086,1.34278 15.415039,1.34278 2.148438,0 2.470703,-0.85938 0.268555,-0.64453 0.268555,-2.09473 V 118.41797 H 3.1689453 V 108.21289 H 106.88477 v 10.20508 z M 22.075195,87.641602 h 65.795899 v 9.453125 H 22.075195 Z M 3.2763672,146.45508 Q 15.253906,137.48535 22.290039,122.71484 l 11.010742,5.04883 q -7.949219,16.86524 -20.571289,27.07031 z m 92.7587888,6.92871 Q 87.978516,140.33203 76.21582,127.97852 l 8.701172,-6.71387 q 13.051758,12.24609 20.786138,24.11621 z m 45.278324,1.12793 v 5.96191 h -12.19239 v -42.43164 q -4.02832,2.36328 -10.09765,5.42481 l -6.92871,-10.09766 q 16.27441,-6.3916 27.76855,-16.542968 9.88281,-8.808594 17.40234,-21.430664 h 13.26661 q 16.59668,22.236328 47.37304,35.449222 l -6.55273,10.41992 q -5.31738,-2.63184 -9.13086,-4.72656 l -1.34277,-0.69825 v 44.63379 H 188.5791 v -5.96191 z m -5.74707,-40.39063 h 62.35839 q -19.92675,-12.08496 -33.67675,-28.466793 -7.41211,11.279297 -16.65039,19.389653 -5.20996,4.51171 -12.03125,9.07714 z m 53.01269,10.09766 h -47.26562 v 19.81934 H 188.5791 Z M 114.83398,83.344727 q 8.37891,-4.56543 14.39454,-9.72168 7.46582,-6.337891 14.01855,-15.576172 l 10.09766,5.800781 Q 141.52832,81.572266 123.75,92.583008 Z m 89.42872,7.143554 Q 189.49219,74.750977 174.77539,63.525391 l 8.70117,-6.499024 q 14.39453,9.667969 29.37989,24.760742 z m 113.4375,-5.371094 q 0,2.524415 -0.4834,23.955083 h 10.25879 v 9.66796 h -10.47364 q -0.16113,7.03614 -0.69824,15.95215 h 9.07715 v 9.45313 h -9.77539 q -0.64453,7.78808 -1.77246,10.3125 -2.52442,6.01562 -12.2461,6.01562 -6.23046,0 -11.49414,-0.91308 L 288.10547,150 q 7.57324,1.07422 11.60156,1.07422 3.27637,0 3.9209,-2.30957 0.32227,-1.12793 0.59082,-4.61914 h -38.24219 q -0.0537,0.42969 -0.16113,0.91308 -0.4834,2.84668 -0.91309,5.3711 l -11.11816,-1.07422 q 3.27637,-19.38965 4.4043,-29.32617 l 0.16113,-1.28907 h -10.74219 v -9.66796 h 11.87012 q 1.50391,-12.998051 2.57812,-23.955083 z m -33.94532,9.345704 h -11.76269 q -0.16114,2.739257 -0.9668,11.547849 l -0.32227,3.06153 h 11.92383 l 0.16114,-1.50391 q 0.10742,-1.55762 0.32226,-4.35059 0.53711,-7.519528 0.64453,-8.754879 z m 10.58106,0 q -0.26856,6.391599 -0.80567,14.125979 v 0.4834 h 12.62207 q 0.21485,-7.3584 0.37598,-14.609379 z m -12.56836,24.277339 h -12.08496 q -0.80567,6.55274 -1.71875,12.94434 l -0.42969,3.00781 h 12.56836 q 1.28906,-11.65527 1.66504,-15.95215 z m 11.01074,0 q -0.16113,2.14844 -0.64453,7.08985 l -0.85938,8.8623 h 13.69629 q 0.26856,-5.20996 0.42969,-7.84179 0.32227,-5.74707 0.42969,-8.11036 z M 271.72363,65.727539 h 51.88477 v 9.990234 h -56.34278 q -4.35058,8.862305 -11.06445,16.865235 l -7.68066,-8.378906 Q 259.10156,71.796875 263.55957,55.629883 L 275,56.811523 q -1.93359,5.585938 -3.27637,8.916016 z m -29.59472,15.629883 q -6.60645,-9.077149 -16.05957,-17.026367 l 8.11035,-7.841797 q 8.75488,6.445312 16.65039,16.274414 z M 238.26172,109.7168 Q 230.09766,99.243164 221.77246,92.15332 l 8.37891,-8.05664 q 9.3457,7.358398 16.81152,16.75781 z m -14.60938,42.16308 q 9.34571,-12.94433 17.72461,-34.10644 l 9.56055,6.82129 q -6.98242,19.55078 -17.93945,35.8789 z M 395.90332,108.75 v -27.5 h -22.0752 V 71.044922 h 22.0752 V 55.952148 h 11.33301 v 15.092774 h 26.74804 V 81.25 h -26.74804 v 27.5 h 29.91699 v 10.20508 h -27.66113 q 9.18457,21.16211 29.21875,30.50781 l -7.25098,10.63477 q -12.13867,-7.51954 -18.74512,-15.73731 -5.74707,-7.25098 -9.66797,-16.75781 -6.55273,22.55859 -31.31347,33.51562 l -7.3584,-9.45312 q 14.01855,-5.04883 21.1084,-13.75 6.44531,-7.94922 9.18457,-18.95996 h -23.47168 v 21.91406 h -28.09082 v 9.02344 h -9.13086 V 74.750977 h 8.70117 v 55.644533 h 5.26367 V 56.704102 h 9.23828 v 73.691408 h 5.53223 V 74.750977 h 8.48633 V 108.75 Z m -14.50195,-1.4502 q -3.06153,-11.762691 -6.92871,-20.087886 l 9.66796,-3.4375 q 4.35059,8.808594 7.25098,19.819336 z m 30.23925,-3.06152 q 4.94141,-10.151366 7.89551,-21.000975 l 10.7959,3.706054 q -3.97461,11.225586 -9.23828,20.356441 z"></path>
</svg>
