<svg xmlns="http://www.w3.org/2000/svg" id="svg1" version="1.1" height="200" width="990">
  <defs id="defs1"></defs>
  <rect id="rect1" stroke="none" fill="none" height="200" width="990" y="0" x="0"></rect>
  <path aria-label="佐渡付近" style="font-size:100px;font-family:'BIZ UDPGothic';fill:#ff0000" id="text1" d="m 45.068359,117.87109 q -0.390625,0.6836 -1.074218,2.00196 -6.396485,11.91406 -16.455079,21.72851 l -5.029296,-6.00586 q 11.376953,-11.18164 18.896484,-27.63672 3.027344,-6.64062 6.396484,-18.994136 h -18.99414 v -6.982422 h 20.605468 q 1.611329,-7.128906 2.88086,-17.480469 l 7.8125,0.976563 q -1.416016,9.912109 -2.832031,16.503906 h 38.769531 v 6.982422 h -40.38086 q -2.978515,12.158206 -6.933593,21.191406 l -0.439453,1.02539 H 91.40625 v 6.68945 H 69.726562 v 29.54102 h 27.783204 v 7.08008 H 32.714844 v -7.08008 H 61.816406 V 117.87109 Z M 22.216797,88.818359 v 70.703121 h -7.519531 v -54.6875 q -4.052735,7.37305 -9.2773441,14.45313 L 1.4160156,112.01172 Q 10.205078,100.14648 15.869141,85.009766 19.042969,76.464844 22.216797,64.306641 l 7.519531,1.904296 Q 26.220703,78.808594 22.216797,88.818359 Z M 180.61523,80.175781 v 9.716797 h 14.79493 v 6.201172 h -14.79493 v 15.42969 H 150.53711 V 96.09375 h -12.10938 v 8.30078 q 0,20.89844 -2.29492,32.56836 -2.34375,12.06055 -9.0332,22.65625 l -6.10352,-5.17578 q 6.54297,-11.03516 8.54493,-24.56055 1.5625,-10.30273 1.5625,-25.48828 V 73.876953 h 27.0996 v -9.375 h 7.51954 v 9.375 h 28.71093 v 6.298828 z m -7.17773,0 h -15.72266 v 9.716797 h 15.72266 z m -22.90039,0 h -12.10938 v 9.716797 h 12.10938 z M 173.4375,96.09375 h -15.72266 v 9.7168 h 15.72266 z m -0.14648,45.94727 q 9.13085,5.37109 24.41406,9.86328 l -4.19922,6.68945 q -15.82031,-5.07813 -25.97656,-12.10938 -10.83985,7.56836 -27.53907,12.93946 l -4.29687,-6.49414 q 15.38086,-3.71094 26.17187,-10.79102 -7.8125,-6.5918 -14.40429,-17.43164 h -6.44532 v -6.49414 h 44.7754 l 3.90625,3.71094 q -7.42188,12.45117 -16.40625,20.11719 z m -5.85938,-3.95508 q 7.8125,-6.44532 12.1582,-13.37891 h -24.80468 q 5.37109,7.71484 12.64648,13.37891 z M 119.82422,86.083984 q -6.44531,-8.447265 -14.20899,-15.185547 l 5.3711,-4.980468 q 6.5918,5.273437 14.4043,14.501953 z m -3.32031,25.537106 Q 109.375,102.68555 102.00195,96.289062 l 5.41993,-5.273437 q 7.86132,6.445312 14.79492,14.794925 z m -12.69532,41.60157 q 8.54493,-12.98829 15.77149,-33.30078 l 6.44531,4.39453 q -6.39648,18.89648 -15.72266,34.47265 z M 225.48828,90.185547 v 69.335933 h -7.71484 v -55.37109 q -0.19532,0.29297 -0.48828,0.73242 -4.39454,7.17774 -10.88868,14.69727 l -4.10156,-7.37305 q 9.76563,-11.32812 16.35742,-25.195311 4.73633,-9.91211 8.83789,-22.900391 l 7.61719,2.099609 q -4.49219,13.427735 -9.61914,23.97461 z m 55.22461,-2.001953 h 16.60156 v 7.177734 h -16.60156 v 54.541012 q 0,5.17578 -2.49023,7.17774 -2.09961,1.61133 -7.76368,1.61133 -7.91015,0 -14.74609,-0.6836 L 254.10156,150 q 8.44727,1.2207 15.625,1.2207 2.14844,0 2.68555,-0.78125 0.39062,-0.63476 0.39062,-2.4414 V 95.361328 h -42.72461 v -7.177734 h 42.72461 V 65.283203 h 7.91016 z m -28.41797,45.410156 q -5.71289,-14.30664 -13.81836,-26.07422 l 6.49414,-4.19922 q 8.39844,12.35352 14.20899,25.87891 z m 74.21875,4.73633 q 4.29688,4.44336 9.81445,7.22656 8.59375,4.3457 23.58399,4.3457 h 38.37891 q -1.41602,2.88086 -2.49024,6.88477 H 359.7168 q -16.35743,0 -25.63477,-4.58984 -5.56641,-2.78321 -10.74219,-8.20313 -8.34961,9.57031 -16.25976,15.47852 l -4.58985,-7.08008 q 7.95899,-4.98047 16.40625,-12.5 v -25.6836 h -16.21093 v -6.7871 h 23.82812 z M 340.9668,74.21875 q 1.70898,-0.146484 3.71093,-0.292969 21.92383,-1.80664 39.99024,-7.617187 l 5.61523,6.103515 q -17.91992,5.371094 -41.60156,7.763672 v 14.941406 h 47.41211 v 6.884763 h -17.91992 v 43.40821 h -7.8125 v -43.40821 h -21.67969 q 0,13.52539 -1.17187,22.07032 -1.5625,11.4746 -6.83594,20.21484 l -6.49414,-5.17578 q 4.78515,-8.30078 6.00586,-19.33594 0.78125,-7.27539 0.78125,-20.654296 z m -18.35938,14.697266 q -7.51953,-9.960938 -15.52734,-17.138672 l 5.51758,-4.6875 q 8.20312,6.689453 15.96679,16.308593 z"></path>
</svg>
