<svg xmlns="http://www.w3.org/2000/svg" id="svg1" version="1.1" height="200" width="990">
  <defs id="defs1"></defs>
  <rect id="rect1" stroke="none" fill="none" height="200" width="990" y="0" x="0"></rect>
  <path aria-label="鹿児島県薩摩地方" style="font-size:100px;font-family:'BIZ UDPGothic';fill:#ff0000" id="text1" d="m 25.878906,149.56055 v -31.88477 h 7.617188 v 9.91211 h 20.800781 v 6.39648 H 33.496094 v 14.4043 q 12.255859,-2.09961 21.435547,-4.29687 l 0.292968,6.39648 q -16.455078,4.58984 -37.304687,7.42188 l -2.001953,-7.12891 q 4.882812,-0.53711 9.960937,-1.2207 z M 54.394531,73.388672 h 39.648438 v 6.396484 H 65.576172 V 90.283203 H 89.746094 V 114.50195 H 16.650391 q 0,13.96485 -1.708985,24.65821 -1.757812,11.03515 -6.8359372,20.26367 l -6.2988282,-5.32227 q 4.7851563,-9.27734 6.2011719,-22.02148 1.1230469,-9.76563 1.1230469,-26.07422 V 73.388672 H 46.484375 v -8.886719 h 7.910156 z M 16.699219,79.785156 V 90.283203 H 34.179687 V 79.785156 Z m 0,16.601563 v 9.521481 1.66016 0.83008 H 34.179687 V 96.386719 Z M 82.128906,108.39844 V 96.386719 H 65.576172 V 108.39844 Z M 41.699219,79.785156 V 90.283203 H 58.056641 V 79.785156 Z m 0,16.601563 V 108.39844 H 58.056641 V 96.386719 Z M 66.357422,129.6875 q 12.109375,-3.80859 21.044922,-9.27734 l 5.078125,6.00586 q -11.425782,5.85937 -26.123047,9.86328 v 9.52148 q 0,2.83203 1.318359,3.56445 1.416016,0.83008 7.910156,0.83008 8.154297,0 10.351563,-0.73242 1.904297,-0.63477 2.441406,-3.125 0.292969,-1.61133 0.634766,-6.73828 l 0.04883,-1.41602 7.519531,2.39258 -0.195312,1.95313 q -0.53711,5.95703 -1.269532,8.34961 -1.5625,5.12695 -7.226562,5.81054 -4.492188,0.58594 -12.939453,0.58594 -10.69336,0 -13.085938,-1.46484 -3.027343,-1.85547 -3.027343,-6.49414 v -31.64063 h 7.519531 z M 187.5,68.212891 V 115.67383 H 138.52539 V 68.212891 Z m -41.25977,6.591796 V 88.28125 H 179.6875 V 74.804687 Z m 0,19.873047 V 109.27734 H 179.6875 V 94.677734 Z M 114.79492,66.015625 h 8.10547 v 53.906255 h -8.10547 z m -10.69336,86.572265 q 16.25977,-1.9043 23.73047,-10.5957 5.32227,-6.20117 5.95703,-20.50781 h 7.91016 q -0.3418,18.79882 -9.17969,27.39257 -7.8125,7.61719 -23.82812,10.83985 z m 52.88086,-31.88476 h 7.91016 v 25.97656 q 0,2.53906 1.66015,3.22265 1.61133,0.6836 7.17774,0.6836 7.61719,0 10.2539,-0.58594 2.05079,-0.43945 2.78321,-2.44141 1.07422,-2.97851 1.31836,-12.1582 l 8.00781,2.68555 q -0.48828,8.98437 -1.31836,12.30468 -1.26953,5.27344 -5.46875,6.44532 -3.66211,1.02539 -16.01562,1.02539 -9.52149,0 -12.79297,-1.51367 -3.51563,-1.61133 -3.51563,-6.83594 z m 111.03516,28.51562 h -53.8086 v 5.71289 h -7.71484 v -23.0957 h 7.71484 v 11.18164 h 19.0918 v -14.69727 h -19.0918 V 73.291016 h 23.97461 q 3.36914,-4.931641 5.41993,-9.179688 l 8.6914,2.001953 q -2.39258,3.515625 -5.46875,7.177735 h 35.25391 v 30.517574 h -59.96094 v 6.00586 h 75.3418 v 6.10352 h -75.3418 v 6.29883 h 70.94727 q -0.73243,23.87695 -3.32032,30.71289 -1.5625,4.19922 -5.51757,5.66406 -2.5879,0.92773 -6.83594,0.92773 -6.15235,0 -11.76758,-0.8789 l -1.61133,-7.22656 q 6.73828,1.02539 12.10938,1.02539 4.24804,0 5.37109,-1.95313 2.24609,-3.90625 3.36914,-22.16797 h -43.94531 v 14.69727 h 19.58008 v -11.18164 h 7.51953 z M 222.11914,79.296875 v 6.298828 h 52.09961 v -6.298828 z m 0,12.011719 v 6.689453 h 52.09961 V 91.308594 Z M 382.86133,67.578125 V 114.4043 H 325.78125 V 67.578125 Z m -49.36524,6.005859 v 7.714844 h 41.55274 v -7.714844 z m 0,13.330078 v 7.763672 h 41.55274 v -7.763672 z m 0,13.476568 v 8.30078 h 41.55274 v -8.30078 z M 314.4043,122.2168 h 83.05664 v 6.49414 h -41.99219 v 30.81054 h -7.91016 V 128.71094 H 306.5918 V 74.267578 h 7.8125 z m -9.22852,29.6875 q 12.79297,-6.15235 23.0957,-19.28711 l 6.5918,3.66211 q -10.40039,13.62304 -24.07226,21.72851 z m 84.17969,4.10156 q -10.25391,-11.18164 -23.29102,-19.82422 l 6.00586,-4.49219 q 11.76758,7.37305 23.68164,18.79883 z m 87.5,-53.90625 q 4.93164,1.5625 8.83789,2.88086 l 4.98047,1.61133 -4.05274,3.51562 h 9.86328 v 5.51758 h -51.36718 v 14.79492 q 0,17.91992 -9.81446,28.71094 l -5.81054,-4.88281 q 6.68945,-6.98243 8.25195,-16.25977 0.68359,-3.85742 0.68359,-8.54492 v -19.33594 h 8.78907 l -3.41797,-4.39453 q 8.88672,-1.17187 16.55273,-3.22266 l 1.02539,-0.29296 q -5.95703,-1.80664 -14.16015,-3.75977 l 4.05273,-3.320313 h -11.96289 v -5.71289 h 25.09766 v -5.322266 h -4.00391 v -6.689453 h -22.70508 v 6.884766 h -7.66601 v -6.884766 h -26.22071 v -6.005859 h 26.22071 v -6.884766 h 7.66601 v 6.884766 h 22.70508 v -6.884766 h 7.8125 v 6.884766 h 27.88086 v 6.005859 h -27.88086 v 5.810547 h 3.56445 v 6.201172 h 23.24219 v 5.71289 h -11.76758 l 4.15039,2.197266 q -4.98047,2.587891 -10.54687,4.785157 z m -7.22656,2.58789 q -12.06055,3.75977 -22.2168,5.41992 h 38.42773 l -2.7832,-0.97656 q -6.73828,-2.29492 -13.42773,-4.44336 z m -0.43946,-4.931641 q 0.29297,-0.09766 0.63477,-0.24414 4.83398,-1.660157 10.30273,-4.101563 l 0.63477,-0.292969 h -28.95508 l 1.5625,0.390625 q 9.66797,2.294922 15.82031,4.248047 z M 426.5625,112.69531 q 0.19531,0.24414 0.92773,1.17188 7.22657,9.08203 7.22657,18.45703 0,5.5664 -2.05078,8.10547 -2.19727,2.7832 -7.71485,2.7832 -3.85742,0 -6.88476,-0.53711 l -1.17188,-6.49414 q 4.73633,0.63477 7.17774,0.63477 3.71093,0 3.71093,-4.58985 0,-8.49609 -8.39843,-19.23828 5.81054,-11.2793 7.37304,-19.091796 h -11.96289 v 65.576176 h -7.08008 V 87.988281 h 24.07227 l 3.07617,3.027344 q -4.15039,13.330075 -8.30078,21.679685 z m 32.22656,11.57227 h 9.08203 v -6.29883 h 7.03125 v 6.29883 h 19.38477 v 5.51758 h -19.38477 v 7.8125 h 16.79688 v 5.41992 h -16.79688 v 8.44726 h 22.60743 v 5.71289 h -52.63672 v -5.71289 h 22.99804 v -8.44726 h -14.99023 v -5.41992 h 14.99023 v -7.8125 h -11.8164 q -1.9043,3.36914 -4.44336,6.88476 l -5.61524,-3.75976 q 5.41993,-6.10352 7.8125,-14.7461 l 6.68946,1.51367 q -0.78125,2.39258 -1.70899,4.58985 z M 575.68359,78.417969 v 6.982422 h 18.31055 v 5.517578 H 579.3457 q 6.78711,8.05664 17.13867,13.525391 l -3.90625,5.37109 Q 582.4707,103.71094 575.68359,94.482422 v 13.818358 h -6.88476 V 95.507812 q -4.6875,7.958988 -12.59766,13.232418 l -4.3457,-4.63867 q 8.39844,-5.029294 13.81836,-13.183591 h -10.40039 v -5.517578 h 13.52539 v -6.982422 h -28.02735 v 6.982422 h 11.52344 v 5.517578 h -11.52344 v 2.050781 q 5.22461,2.490234 11.08399,6.933594 l -3.66211,4.931636 q -3.80859,-3.36914 -7.42188,-6.005855 v 11.914065 h -6.88476 V 96.777344 q -5.3711,7.861326 -13.1836,13.037106 l -4.10156,-4.88281 q 9.32617,-5.761718 14.94141,-14.013671 h -12.93945 v -5.517578 h 15.2832 v -6.982422 h -17.67578 v 28.808591 q 0,19.72657 -1.5625,31.15235 -1.5625,11.32812 -6.05469,20.84961 l -6.49414,-5.0293 q 3.90625,-8.59375 5.32226,-20.55664 1.26954,-10.64453 1.26954,-27.09961 V 72.412109 h 39.69726 v -7.910156 h 7.71485 v 7.910156 h 39.50195 v 6.00586 z M 560.79102,117.5293 v 7.17773 h 30.81054 v 5.61524 h -30.81054 v 5.95703 h 36.71875 v 5.81054 h -36.71875 v 9.91211 q 0,4.00391 -2.14844,5.76172 -2.05078,1.70899 -7.08008,1.70899 -6.73828,0 -13.37891,-0.6836 l -1.26953,-6.39648 q 8.4961,0.92773 13.76953,0.92773 1.95313,0 2.34375,-0.8789 0.24414,-0.58594 0.24414,-1.75782 v -8.59375 h -36.47461 v -5.81054 h 36.47461 v -5.95703 h -30.95703 v -5.61524 h 30.95703 v -6.49414 q -13.52539,1.07422 -24.56054,1.26953 l -2.63672,-5.5664 q 27.97851,-0.53711 54.10156,-4.6875 l 4.63867,5.17578 q -11.03515,1.80664 -24.02343,3.125 z m 88.42773,-14.30664 v 40.86914 q 0,4.05273 2.39258,4.98047 2.58789,0.97656 16.45508,0.97656 13.42773,0 17.38281,-0.92774 2.7832,-0.68359 3.56445,-3.22265 1.2207,-4.00391 1.26953,-12.40235 l 7.51953,2.78321 q -0.68359,13.23242 -3.51562,16.79687 -2.24609,2.92969 -7.27539,3.4668 -7.66602,0.78125 -20.75195,0.78125 -12.45118,0 -16.74805,-0.83008 -5.3711,-1.07422 -6.83594,-4.88281 -0.78125,-2.09961 -0.78125,-5.51758 v -40.38086 l -10.49805,3.56445 -1.90429,-6.98242 12.40234,-4.150389 v -26.5625 h 7.32422 v 24.072266 l 12.8418,-4.345703 V 64.501953 h 7.32422 v 24.365234 l 18.01757,-6.054687 4.39453,2.392578 v 35.986332 q 0,3.51562 -1.66015,5.32226 -1.95313,2.09961 -6.83594,2.09961 -3.95508,0 -7.71484,-0.53711 l -1.26953,-6.98242 q 3.71093,0.68359 6.93359,0.68359 2.44141,0 2.97852,-1.07421 0.39062,-0.73243 0.39062,-2.29493 V 91.113281 l -15.23437,5.175781 v 39.794918 h -7.32422 V 98.779297 Z M 616.50391,88.916016 V 65.136719 h 7.71484 v 23.779297 h 10.79102 v 7.177734 h -10.79102 v 34.96094 q 5.12695,-1.75782 11.71875,-4.44336 l 0.78125,6.88476 q -14.94141,6.88477 -32.03125,12.10938 l -2.7832,-7.61719 q 6.78711,-1.85547 14.59961,-4.3457 V 96.09375 h -13.28125 v -7.177734 z m 128.95507,0.04883 q 0,7.324218 -0.92773,17.041016 h 39.4043 q -0.6836,32.91016 -3.75977,43.60351 -1.26953,4.49219 -4.83398,6.34766 -3.02735,1.5625 -9.08203,1.5625 -8.39844,0 -15.33204,-0.92773 l -1.31836,-8.00782 q 10.15625,1.31836 16.3086,1.31836 4.05273,0 5.32226,-1.70898 1.07422,-1.46484 2.14844,-8.49609 1.5625,-9.96094 2.14844,-26.70899 h -31.93359 q -1.80665,11.37695 -5.76172,19.28711 -7.91016,15.91797 -26.02539,25.73242 l -5.61524,-6.29883 q 19.38477,-10.15625 25.58594,-26.36718 5.17578,-13.57422 5.56641,-36.376956 h -33.54493 v -7.177735 h 41.69922 V 64.501953 h 8.00781 v 17.285156 h 42.67579 v 7.177735 z"></path>
</svg>
