<svg xmlns="http://www.w3.org/2000/svg" id="svg1" version="1.1" height="200" width="990">
  <defs id="defs1"></defs>
  <rect id="rect1" stroke="none" fill="none" height="200" width="990" y="0" x="0"></rect>
  <path aria-label="8" style="font-size:100px;font-family:'BIZ UDPGothic';fill:#ff0000" id="text1" d="m 26.904297,111.18164 q -6.738281,-2.49023 -11.425781,-6.98242 -5.078125,-4.931642 -5.078125,-12.79297 0,-10.351563 9.130859,-16.503906 7.421875,-4.980469 18.115234,-4.980469 9.863282,0 16.992188,4.296875 9.960937,5.957031 9.960937,16.308594 0,9.033203 -6.933593,14.404296 -5.175782,4.05274 -11.083985,5.46875 v 0.29297 q 9.13086,2.63672 14.013672,7.32422 6.591797,6.25 6.591797,14.20898 0,10.00977 -8.544922,16.16211 -8.105469,5.81055 -21.044922,5.81055 -12.402344,0 -20.214844,-4.98047 -9.2773432,-5.9082 -9.2773432,-16.74805 0,-8.20312 6.4453122,-14.0625 4.833985,-4.44336 12.353516,-6.78711 z m 10.791015,-3.75976 q 8.251954,-2.09961 12.939454,-6.20118 4.785156,-4.296872 4.785156,-9.81445 0,-6.103516 -4.785156,-10.253906 -5.029297,-4.345703 -12.939454,-4.345703 -6.445312,0 -11.035156,2.880859 -6.640625,4.101562 -6.640625,11.71875 0,5.957031 4.589844,9.86328 3.125,2.58789 8.105469,4.54102 4.394531,1.75781 4.980468,1.61133 z m -0.78125,6.7871 q -8.935546,2.49024 -14.453125,7.47071 -4.638671,4.19922 -4.638671,10.20508 0,7.51953 6.591796,11.52343 5.22461,3.17383 13.183594,3.17383 7.666016,0 12.890625,-3.27148 6.78711,-4.24805 6.78711,-11.76758 0,-7.42188 -8.59375,-12.64649 -3.808594,-2.29492 -9.570313,-4.10156 -2.050781,-0.63476 -2.197266,-0.58594 z"></path>
</svg>
