<svg xmlns="http://www.w3.org/2000/svg" id="svg1" version="1.1" height="200" width="1096">
  <defs id="defs1"></defs>
  <rect id="rect1" stroke="none" fill="none" height="200" width="1096" y="0" x="0"></rect>
  <path aria-label="北海道南西沖" style="font-weight:bold;font-size:110px;font-family:'BIZ UDPGothic';fill:#ff0000" id="text1" d="M 32.119141,131.8457 Q 17.294922,139.63379 6.2841797,143.76953 L 1.7724609,131.95312 Q 19.013672,126.15234 32.119141,119.92188 V 95.859375 H 5.5322266 V 84.526367 H 32.119141 V 55.952148 H 44.09668 V 160.47363 H 32.119141 Z M 70.307617,90.004883 Q 82.822266,83.452148 94.584961,73.354492 l 8.916019,9.345703 Q 87.602539,93.979492 70.307617,101.92871 v 40.2832 q 0,2.63184 1.71875,3.22266 1.826172,0.59082 8.432617,0.59082 8.701172,0 10.903321,-1.02051 1.557617,-0.69824 2.148437,-4.35058 0.805664,-5.10254 1.181641,-16.48926 l 12.031247,3.70605 q -0.53711,13.91114 -1.71875,19.98047 -1.34277,6.76758 -7.03613,8.75489 -5.424805,1.82617 -17.77832,1.82617 -14.501953,0 -18.261719,-2.417 -3.598633,-2.36328 -3.598633,-9.07714 V 55.952148 H 70.307617 Z M 207.7002,85.117187 q 0,2.524415 -0.4834,23.955083 h 10.25879 v 9.66796 h -10.47364 q -0.16113,7.03614 -0.69824,15.95215 h 9.07715 v 9.45313 h -9.77539 q -0.64453,7.78808 -1.77246,10.3125 -2.52442,6.01562 -12.2461,6.01562 -6.23046,0 -11.49414,-0.91308 L 178.10547,150 q 7.57324,1.07422 11.60156,1.07422 3.27637,0 3.9209,-2.30957 0.32227,-1.12793 0.59082,-4.61914 h -38.24219 q -0.0537,0.42969 -0.16113,0.91308 -0.4834,2.84668 -0.91309,5.3711 l -11.11816,-1.07422 q 3.27637,-19.38965 4.4043,-29.32617 l 0.16113,-1.28907 h -10.74219 v -9.66796 h 11.87012 q 1.50391,-12.998051 2.57812,-23.955083 z m -33.94532,9.345704 h -11.76269 q -0.16114,2.739257 -0.9668,11.547849 l -0.32227,3.06153 h 11.92383 l 0.16114,-1.50391 q 0.10742,-1.55762 0.32226,-4.35059 0.53711,-7.519528 0.64453,-8.754879 z m 10.58106,0 q -0.26856,6.391599 -0.80567,14.125979 v 0.4834 h 12.62207 q 0.21485,-7.3584 0.37598,-14.609379 z m -12.56836,24.277339 h -12.08496 q -0.80567,6.55274 -1.71875,12.94434 l -0.42969,3.00781 h 12.56836 q 1.28906,-11.65527 1.66504,-15.95215 z m 11.01074,0 q -0.16113,2.14844 -0.64453,7.08985 l -0.85938,8.8623 h 13.69629 q 0.26856,-5.20996 0.42969,-7.84179 0.32227,-5.74707 0.42969,-8.11036 z M 161.72363,65.727539 h 51.88477 v 9.990234 h -56.34278 q -4.35058,8.862305 -11.06445,16.865235 l -7.68066,-8.378906 Q 149.10156,71.796875 153.55957,55.629883 L 165,56.811523 q -1.93359,5.585938 -3.27637,8.916016 z m -29.59472,15.629883 q -6.60645,-9.077149 -16.05957,-17.026367 l 8.11035,-7.841797 q 8.75488,6.445312 16.65039,16.274414 z M 128.26172,109.7168 Q 120.09766,99.243164 111.77246,92.15332 l 8.37891,-8.05664 q 9.3457,7.358398 16.81152,16.75781 z m -14.60938,42.16308 q 9.34571,-12.94433 17.72461,-34.10644 l 9.56055,6.82129 q -6.98242,19.55078 -17.93945,35.8789 z M 248.73535,135.2832 q 5.53223,6.55274 13.37402,9.34571 8.11036,2.84668 21.69922,2.84668 h 45.11719 q -2.04101,5.04882 -3.33008,10.68847 h -44.52636 q -18.10059,0 -27.33887,-5.63965 -4.24317,-2.57812 -9.02344,-7.73437 -7.25098,9.07715 -16.43555,16.00586 L 221.66504,150 q 8.21777,-4.72656 15.62988,-11.17188 v -27.39257 h -14.55566 v -10.58106 h 25.99609 z m 33.8916,-57.578122 h -29.16504 v -9.238281 h 17.13379 q -2.90039,-4.726563 -6.12304,-9.023438 l 10.63476,-3.867187 q 4.56543,6.821289 7.19727,12.890625 h 13.75 q 2.14843,-4.350586 5.20996,-12.998047 l 12.03125,2.524414 q -2.4707,5.424805 -5.53223,10.473633 h 17.93945 v 9.238281 h -31.63574 q -1.34277,4.135742 -2.84668,7.949219 h 27.66114 V 141.08398 H 260.17578 V 85.654297 h 19.92676 q 1.45019,-4.135742 2.52441,-7.949219 z m -11.333,15.737305 v 8.056637 h 36.3623 v -8.056637 z m 0,15.307617 v 8.16406 h 36.3623 V 108.75 Z m 0,15.7373 v 8.43262 h 36.3623 V 124.4873 Z M 241.1084,85.117187 q -7.73438,-12.246093 -16.48926,-20.67871 l 8.91602,-7.036133 q 10.3125,9.560547 17.08007,19.765625 z M 379.03809,120.5127 h -22.23633 v -8.8086 h 10.74219 q -2.417,-5.47851 -5.47852,-10.20508 l 9.66797,-3.544918 q 4.18945,7.036128 6.76758,13.749998 h 12.62207 q 3.16894,-6.49902 5.58593,-13.964842 l 10.7959,3.383792 q -2.73926,5.9082 -5.80078,10.58105 h 11.54785 v 8.8086 h -22.98828 v 7.84179 h 24.49219 v 9.13086 h -24.49219 v 20.30274 h -11.22558 v -20.30274 h -23.57911 v -9.13086 h 23.57911 z m 11.54785,-33.085942 h 40.71289 v 62.788082 q 0,5.53223 -2.9541,7.78809 -2.47071,1.93359 -8.3252,1.93359 -7.57324,0 -14.60937,-0.80566 l -2.63184,-10.7959 q 9.39941,1.12793 14.07227,1.12793 1.93359,0 2.25586,-0.9668 0.21484,-0.59082 0.21484,-1.66504 V 96.772461 H 350.67871 V 160.47363 H 338.70117 V 87.426758 h 40.01465 v -9.72168 h -45.97656 v -9.990234 h 45.97656 V 55.952148 h 11.87012 v 11.762696 h 46.62109 v 9.990234 h -46.62109 z m 84.80957,-0.805664 V 71.582031 H 443.38379 V 61.21582 h 103.28613 v 10.366211 h -35.50293 v 15.039063 h 30.13184 v 72.402346 h -11.65528 v -7.57324 h -69.34082 v 7.57324 H 448.75488 V 86.621094 Z m 11.11816,0 h 13.53516 V 71.582031 h -13.53516 z m -11.17187,9.77539 h -15.03907 v 44.848636 h 69.34082 v -16.11328 h -20.35644 q -9.23828,0 -9.23828,-9.23829 V 96.396484 h -13.64258 q -0.21484,13.212896 -3.97461,21.162106 -3.54492,7.57325 -13.96484,14.98536 l -7.41211,-8.27149 q 9.99023,-6.12305 12.62207,-15.14648 1.39648,-4.83399 1.66504,-12.729496 z m 35.82519,0 v 16.435546 q 0,2.09473 1.87988,2.09473 h 16.59668 V 96.396484 Z M 613.70117,75.986328 v -20.03418 h 11.54785 v 20.03418 h 29.11133 v 48.608402 h -29.11133 v 35.8789 h -11.54785 v -35.8789 H 585.18066 V 75.986328 Z m -17.40234,10.688477 v 27.338865 h 17.40234 V 86.674805 Z m 46.62109,27.338865 V 86.674805 h -17.6709 v 27.338865 z m -68.75,-31.796873 q -6.55273,-9.13086 -17.34863,-17.456055 l 8.00293,-8.164062 q 10.74219,7.573242 18.1543,16.972656 z m -3.49121,27.607423 q -9.3457,-10.849611 -18.1543,-17.778322 l 8.27149,-8.271484 q 9.39941,6.606445 18.58398,17.080076 z m -16.7041,41.62598 q 10.3125,-14.66309 19.01367,-36.52344 l 9.56055,7.3584 q -7.3584,20.1416 -17.93946,37.91992 z"></path>
</svg>
