<svg xmlns="http://www.w3.org/2000/svg" id="svg1" version="1.1" height="200" width="1096">
  <defs id="defs1"></defs>
  <rect id="rect1" stroke="none" fill="none" height="200" width="1096" y="0" x="0"></rect>
  <path aria-label="山形県置賜地方" style="font-weight:bold;font-size:110px;font-family:'BIZ UDPGothic';fill:#ff0000" id="text1" d="M 60.693359,138.02246 H 87.763672 V 78.94043 h 12.192383 v 80.62012 H 87.763672 v -9.88282 H 22.075195 v 9.88282 H 9.9902344 V 78.94043 H 22.075195 v 59.08203 H 48.500977 V 57.026367 H 60.693359 Z M 161.88477,71.259766 v 27.285156 h 12.99804 v 10.581058 h -12.99804 v 51.34765 h -11.44043 v -51.34765 h -13.15918 q -0.26856,16.2207 -2.36329,26.47949 -2.90039,14.55566 -11.8164,25.62012 l -9.72168,-7.3584 q 8.21777,-9.99024 10.7959,-24.27735 1.39648,-7.94921 1.61133,-19.60449 l 0.0537,-0.85937 H 112.73926 V 98.544922 h 13.10547 V 71.259766 h -10.7959 V 60.786133 h 57.09472 v 10.473633 z m -11.44043,0 h -13.15918 v 27.285156 h 13.15918 z m 16.86523,77.504884 q 24.11621,-8.27149 41.25,-32.76367 l 8.91602,7.14355 q -16.05957,24.38477 -43.23731,35.01953 z m 3.27637,-61.337892 q 21.59179,-10.84961 33.13965,-29.487305 l 9.45312,6.015625 q -13.48144,20.786133 -35.77148,32.280274 z m 2.09472,28.359372 q 20.57129,-9.72168 33.99903,-28.842771 l 8.91601,7.089844 Q 201.3623,114.01367 179.82422,124.70215 Z M 312.16797,58.583984 V 110.62988 H 248.25195 V 58.583984 Z m -52.36817,8.486328 v 6.713868 h 40.7129 v -6.713868 z m 0,14.28711 v 6.713867 h 40.7129 v -6.713867 z m 0,14.287109 v 6.928709 h 40.7129 v -6.928709 z m -21.6455,22.128909 h 89.05273 v 9.3457 h -44.41894 v 33.35449 H 270.5957 V 127.11914 H 226.3916 V 66.855469 h 11.7627 z m -13.75,32.4414 q 12.7832,-5.9082 24.43847,-19.81933 l 9.88282,5.74707 q -11.49414,14.55566 -25.5127,22.88086 z m 92.59765,6.92871 q -8.21777,-10.09765 -24.70703,-21.21582 l 9.23828,-6.49902 q 12.94434,7.46582 25.40528,19.60449 z m 76.37696,-75.786128 q -0.42969,2.792969 -0.9668,5.371094 h 44.79492 v 8.378906 h -46.88965 q -0.10742,0.375976 -0.32226,1.18164 -0.21485,0.751954 -1.12793,3.759768 h 33.51562 v 42.59277 h -61.17676 v -42.59277 h 15.6836 q 0.64453,-2.363283 1.28906,-4.941408 h -45.43945 v -8.378906 h 47.26562 q 0.26856,-1.396485 0.9668,-5.371094 H 341.97754 V 58.261719 h 87.65625 V 81.357422 Z M 353.0957,65.942383 v 8.271484 h 15.03907 v -8.271484 z m 65.41992,8.271484 v -8.271484 h -15.41503 v 8.271484 z m -40.49804,-8.271484 v 8.271484 h 15.09277 v -8.271484 z m -5.26367,41.464847 v 4.61914 h 37.75879 v -4.61914 z m 0,11.22558 v 4.72657 h 37.75879 v -4.72657 z m 0,11.44043 v 5.10254 h 37.75879 v -5.10254 z m -20.89356,17.29492 h 85.34668 v 8.8086 h -85.34668 v 4.29687 h -12.08496 v -57.09472 h 12.08496 z m 177.67578,-28.46679 q -6.66015,22.45117 -28.73535,36.68457 l -7.68066,-6.55274 q 19.55078,-12.03125 26.5332,-30.13183 h -6.17676 q -8.3789,15.84472 -23.79394,23.95508 l -6.33789,-6.71387 q 13.2666,-6.33789 20.30273,-17.24121 h -8.16406 q -3.4375,3.33008 -8.21778,6.71386 l -5.69335,-6.60644 v 14.7168 H 447.03613 V 59.443359 h 34.53614 v 58.330081 q 10.41992,-7.08985 15.95214,-17.02637 h -8.48632 V 60.03418 h 50.91796 v 40.71289 H 508.75 q -2.04102,4.29688 -4.94141,8.3252 h 41.89453 q -0.64453,29.05761 -3.54492,41.35742 -1.28906,5.47851 -5.10254,7.68066 -3.06152,1.77246 -8.96972,1.77246 -5.26367,0 -12.19239,-0.75195 l -2.09472,-10.7959 q 7.78808,0.91309 12.19238,0.91309 3.9209,0 4.83399,-1.87989 0.59082,-1.23535 1.23535,-4.24316 2.09472,-9.88281 2.68554,-24.22363 z M 456.81152,69.003906 v 12.353516 h 15.30762 V 69.003906 Z m 0,20.947266 v 12.192378 h 15.30762 V 89.951172 Z m 0,20.571288 v 13.64258 h 15.30762 v -13.64258 z m 43.12989,-41.679687 v 7.573243 h 28.78906 v -7.573243 z m 0,15.46875 v 7.734375 h 28.78906 v -7.734375 z m -59.18946,68.964847 q 8.16407,-8.27149 12.08496,-18.47657 l 9.23829,4.72657 q -5.8545,14.44824 -12.94434,21.37695 z m 38.40332,5.10254 q -5.69336,-12.13868 -11.44043,-19.38965 l 7.78809,-4.94141 q 7.78809,8.96973 12.67578,17.83203 z M 606.28906,99.458008 v 42.539062 q 0,4.13574 3.54492,4.99512 3.65235,0.91308 16.70411,0.91308 12.72949,0 16.81152,-1.28906 2.30957,-0.75195 3.00781,-4.18945 0.91309,-4.83399 0.9668,-11.44043 l 11.22558,3.16894 Q 657.69043,150 654.19922,154.4043 q -2.30957,2.90039 -6.98242,3.4375 -7.3584,0.80566 -24.97559,0.80566 -13.64258,0 -17.88574,-0.75195 -6.3916,-1.07422 -8.11035,-5.63965 -0.85938,-2.41699 -0.85938,-6.44531 v -42.59278 l -10.25879,3.54493 -2.52441,-10.419927 12.7832,-4.404296 V 62.988281 h 10.90332 v 25.19043 l 11.54785,-3.920899 V 55.952148 h 10.7959 v 24.545899 l 17.99317,-6.176758 5.63964,3.4375 v 40.229491 q 0,4.18945 -1.9873,6.23047 -2.25586,2.25586 -7.57324,2.25586 -4.35059,0 -9.23828,-0.75195 l -1.77246,-10.25879 q 3.16894,0.80566 6.44531,0.80566 2.36328,0 2.90039,-0.9668 0.53711,-0.80566 0.53711,-2.68554 V 87.211914 l -12.94434,4.511719 v 43.452147 h -10.7959 V 95.429687 Z M 566.81152,81.894531 V 55.952148 h 11.54785 v 25.942383 h 10.41993 v 10.903321 h -10.41993 v 34.160158 q 5.63965,-1.9336 11.17188,-4.02832 l 1.02051,10.36621 q -17.40235,7.94922 -35.71778,13.32031 l -3.75976,-11.44043 q 8.27148,-2.14844 14.50195,-4.08203 0.75195,-0.26855 1.23535,-0.37598 V 92.797852 H 553.16895 V 81.894531 Z m 145.3418,3.007813 q -0.37598,8.969726 -1.07422,15.791016 h 43.29102 q -0.80567,37.27539 -4.18946,48.39355 -1.71875,5.58594 -6.3916,7.73438 -3.65234,1.66504 -10.68847,1.66504 -7.41211,0 -16.81153,-1.12793 l -2.09472,-12.08496 q 12.62207,1.77246 17.77832,1.77246 4.35058,0 5.53222,-2.4707 2.84668,-6.01563 3.97461,-33.19336 h -31.95801 q -1.77246,9.66796 -4.99511,16.75781 -8.96973,19.60449 -29.97071,31.09863 l -8.48632,-9.45312 q 21.05468,-10.95704 27.82226,-28.73536 4.51172,-11.87011 5.85449,-36.147456 H 664.18945 V 73.891602 h 43.88184 V 55.952148 h 12.40723 v 17.939454 h 45.33203 v 11.010742 z"></path>
</svg>
