<svg xmlns="http://www.w3.org/2000/svg" id="svg1" version="1.1" height="200" width="1096">
  <defs id="defs1"></defs>
  <rect id="rect1" stroke="none" fill="none" height="200" width="1096" y="0" x="0"></rect>
  <path aria-label="紀伊水道" style="font-weight:bold;font-size:110px;font-family:'BIZ UDPGothic';fill:#ff0000" id="text1" d="M 19.121094,96.396484 Q 11.923828,86.513672 3.1689453,78.295898 l 6.7138672,-7.680664 q 1.8798825,1.71875 2.9541015,2.84668 5.639648,-7.519531 11.118164,-18.046875 l 9.72168,5.371094 q -6.28418,10.151367 -14.609375,19.49707 3.813476,4.511719 6.552734,8.432617 0.268555,-0.322265 0.483399,-0.59082 7.519531,-8.969727 15.46875,-20.356445 l 8.59375,6.230468 Q 38.618164,89.521484 24.331055,103.8623 q 9.614257,-0.59082 16.435547,-1.28906 -1.450196,-4.243162 -3.38379,-8.540037 l 8.916016,-3.061523 q 4.833984,9.66797 7.841797,22.66602 l -9.238281,3.92089 q -0.644532,-2.9541 -1.342774,-5.63964 l -0.375976,-1.34278 q -4.350586,0.69824 -7.949219,1.18164 l -1.557617,0.21485 v 48.50097 H 22.880859 v -47.26562 l -1.503906,0.16113 q -7.949219,0.80566 -16.5429686,1.34277 l -2.2021485,-9.99023 q 2.5244141,-0.10742 5.15625,-0.16113 l 4.0820311,-0.16114 q 3.168946,-3.27636 7.250977,-8.002926 z m 48.608398,11.171876 v 33.99902 q 0,4.02832 2.470703,4.8877 1.665039,0.53711 8.540039,0.53711 8.862305,0 12.138672,-0.64453 2.470703,-0.4834 3.330078,-2.52442 1.611328,-3.9209 1.879883,-16.75781 l 11.440433,3.38379 q -0.9668,17.6709 -3.54492,21.96777 -1.98731,3.33008 -6.928716,4.51172 -5.585937,1.34277 -17.456055,1.34277 -9.721679,0 -13.696289,-0.69824 -6.230468,-1.07422 -8.378906,-5.10254 Q 56.181641,150 56.181641,145.97168 V 97.202148 H 90.395508 V 72.387695 H 53.764648 V 61.914062 H 101.72852 V 107.56836 Z M 3.2763672,148.22754 q 3.9746094,-12.56836 5.15625,-28.14453 l 10.2587888,1.18164 Q 17.832031,139.47266 13.75,152.63184 Z m 38.8330078,-2.30957 q -2.524414,-14.66309 -5.371094,-24.49219 l 9.023438,-2.68555 q 3.974609,10.36622 6.33789,23.20313 z M 209.47266,85.009766 h 8.27148 v 9.882812 h -8.27148 v 25.297852 h -27.39258 q -0.9668,14.87793 -6.17676,23.84766 -6.60645,11.44043 -16.81152,17.72461 l -8.59375,-8.59375 q 9.8291,-5.69336 15.57617,-15.52247 3.81348,-6.60644 4.51172,-17.45605 H 148.2959 v -9.99023 h 22.45117 V 94.892578 h -30.66895 v -9.882812 h 30.66895 V 70.668945 h -20.78613 v -9.990234 h 59.51172 z m -11.33301,0 V 70.668945 H 182.1875 v 14.340821 z m 0,9.882812 H 182.1875 V 110.2002 h 15.95215 z M 137.28516,82.592773 V 160.47363 H 125.7373 v -55.10742 q -3.9746,6.55274 -9.02343,13.53516 l -5.47852,-11.97754 q 9.07715,-12.299807 15.36133,-28.251955 3.9209,-9.882813 7.73437,-23.47168 l 11.65528,2.954102 q -4.18946,14.018555 -8.70117,24.438476 z M 281.875,76.308594 q 2.30957,10.258789 7.3584,20.356445 13.80371,-11.655273 24.86816,-25.083008 l 9.77539,8.110352 q -15.20019,16.435547 -29.32617,26.049807 0.26856,0.37597 0.53711,0.80566 11.70898,17.77832 33.83789,31.25977 l -7.68066,10.52734 Q 295.625,132.91992 281.875,103.27148 v 46.83594 q 0,5.31738 -2.57813,7.46582 -2.63183,2.20215 -9.61425,2.20215 -8.3252,0 -15.09278,-0.85937 l -2.20214,-12.19239 q 9.29199,1.28907 14.50195,1.28907 2.25586,0 2.68555,-0.9668 0.32226,-0.64453 0.32226,-1.98731 V 55.952148 H 281.875 Z m -57.25586,5.908203 h 35.61035 l 5.96192,5.854492 q -3.11524,16.220701 -8.27149,27.607421 -7.41211,16.32813 -21.05469,29.11133 -2.73925,2.57812 -7.30468,6.28418 l -8.48633,-9.56055 q 25.78125,-18.58398 31.79687,-48.500975 H 224.61914 Z M 358.73535,135.2832 q 5.53223,6.55274 13.37402,9.34571 8.11036,2.84668 21.69922,2.84668 h 45.11719 q -2.04101,5.04882 -3.33008,10.68847 h -44.52636 q -18.10059,0 -27.33887,-5.63965 -4.24317,-2.57812 -9.02344,-7.73437 -7.25098,9.07715 -16.43555,16.00586 L 331.66504,150 q 8.21777,-4.72656 15.62988,-11.17188 v -27.39257 h -14.55566 v -10.58106 h 25.99609 z m 33.8916,-57.578122 h -29.16504 v -9.238281 h 17.13379 q -2.90039,-4.726563 -6.12304,-9.023438 l 10.63476,-3.867187 q 4.56543,6.821289 7.19727,12.890625 h 13.75 q 2.14843,-4.350586 5.20996,-12.998047 l 12.03125,2.524414 q -2.4707,5.424805 -5.53223,10.473633 h 17.93945 v 9.238281 h -31.63574 q -1.34277,4.135742 -2.84668,7.949219 h 27.66114 V 141.08398 H 370.17578 V 85.654297 h 19.92676 q 1.45019,-4.135742 2.52441,-7.949219 z m -11.333,15.737305 v 8.056637 h 36.3623 v -8.056637 z m 0,15.307617 v 8.16406 h 36.3623 V 108.75 Z m 0,15.7373 v 8.43262 h 36.3623 V 124.4873 Z M 351.1084,85.117187 q -7.73438,-12.246093 -16.48926,-20.67871 l 8.91602,-7.036133 q 10.3125,9.560547 17.08007,19.765625 z"></path>
</svg>
