<svg xmlns="http://www.w3.org/2000/svg" id="svg1" version="1.1" height="200" width="1096">
  <defs id="defs1"></defs>
  <rect id="rect1" stroke="none" fill="none" height="200" width="1096" y="0" x="0"></rect>
  <path aria-label="房総半島南方沖" style="font-weight:bold;font-size:110px;font-family:'BIZ UDPGothic';fill:#ff0000" id="text1" d="m 59.780273,118.84766 q -0.161132,3.54492 -0.483398,6.49902 h 40.336914 q -1.181641,20.1416 -3.706055,26.90918 -1.879882,5.10254 -5.693359,6.60644 -2.900391,1.12793 -8.378906,1.12793 -7.143555,0 -16.972657,-0.85937 l -1.987304,-10.47363 q 10.419922,1.66504 16.274414,1.66504 3.652344,0 4.780273,-1.9336 2.041016,-3.4375 3.115235,-14.2334 H 57.416992 q -2.90039,8.43262 -8.271484,14.07227 -6.928711,7.25098 -20.141602,12.67578 l -7.573242,-8.70117 q 14.931641,-5.15625 21.054688,-14.34082 5.15625,-7.73438 5.800781,-19.01367 H 23.901367 q -0.59082,10.79589 -2.148437,18.36914 -2.685547,12.67578 -9.882813,22.88086 l -8.9160154,-8.43262 q 5.8544922,-9.23828 7.8417964,-21.96777 1.611329,-10.25879 1.611329,-25.67383 V 76.308594 h 87.11914 v 24.438476 h -34.96582 v 8.75488 h 42.646483 v 9.34571 z M 87.548828,84.6875 H 24.277344 v 7.573242 H 87.548828 Z M 52.905273,100.74707 H 24.277344 v 3.27637 q 0,3.11523 -0.05371,5.47851 h 28.68164 z M 5.0488281,59.711914 H 104.46777 v 9.238281 H 5.0488281 Z M 127.40234,96.12793 q -6.44531,-9.506836 -14.87793,-18.154297 l 6.39161,-7.788086 q 2.04101,1.987305 2.9541,3.061523 5.63965,-8.432617 10.04394,-17.939453 l 9.56055,5.048828 q -4.99512,8.862305 -13.64258,19.819336 3.11524,3.920899 5.80078,7.949219 6.76758,-8.540039 14.34082,-20.356445 l 8.37891,6.015625 q -11.70899,16.865234 -24.16992,29.75586 5.9082,-0.32227 13.96484,-1.07422 Q 144.8584,98.867187 143.03223,95 l 7.68066,-3.813477 q 4.8877,9.023437 8.27148,22.075197 l -8.59375,4.18945 q -0.64453,-2.84668 -1.77246,-6.98242 -2.73925,0.42969 -6.28418,0.9668 l -1.18164,0.16113 v 48.87695 h -10.58105 v -47.53418 q -7.3584,0.85938 -16.05957,1.4502 l -2.20215,-9.88281 3.11523,-0.16114 1.61133,-0.0537 3.49121,-0.16113 q 2.63184,-2.84668 6.875,-8.00293 z m 57.09473,14.44824 q 7.46582,5.85449 13.96484,12.99805 l -7.94921,7.62695 q -5.96192,-7.84179 -14.60938,-15.30762 l 6.49902,-5.10253 -1.93359,0.16113 q -7.89551,0.80566 -18.20801,1.55762 l -3.00781,-10.7959 q 5.37109,-0.0537 7.30469,-0.16114 7.84179,-13.481441 12.19238,-25.029293 l 10.47363,3.061524 q -5.37109,12.03125 -11.49414,21.645509 12.19238,-0.4834 19.38965,-0.9668 l -0.4834,-0.69824 q -2.90039,-4.458008 -6.66015,-9.184571 l 8.3789,-4.726562 q 8.86231,10.097656 16.48926,24.062503 l -9.3457,6.06933 q -1.82618,-4.08203 -3.54493,-7.3584 -6.06933,0.85938 -14.66308,1.82618 z m -71.97266,37.00684 q 3.65235,-11.92383 4.51172,-28.14453 l 9.66797,1.39648 q -0.64453,18.53027 -4.4043,31.58203 z m 34.8584,-6.71387 -0.53711,-3.00781 q -1.77246,-10.15137 -3.65234,-15.46875 l 8.48633,-3.16895 q 2.90039,8.59375 4.40429,16.91895 z m 7.14356,-55.107421 q 10.20508,-10.473633 16.32812,-29.272461 l 9.66797,4.404297 q -7.03613,20.08789 -18.26172,32.548828 z m 56.66504,7.036133 q -13.69629,-13.75 -21.43067,-32.548829 l 8.70117,-4.082031 q 7.30469,16.650391 20.30274,28.03711 z m -38.94043,29.916988 h 10.58105 v 22.77344 q 0,2.25586 1.02051,2.73926 1.02051,0.4834 3.81348,0.4834 3.59863,0 4.78027,-0.75196 1.50391,-0.96679 1.93359,-12.7832 l 9.66797,3.59863 q -0.37598,12.35352 -2.73926,16.167 -1.71875,2.84668 -5.37109,3.59863 -3.54492,0.69824 -9.18457,0.69824 -8.86231,0 -11.81641,-2.09473 -2.68554,-1.93359 -2.68554,-6.28418 z m -18.69141,27.5 q 4.29688,-11.01074 5.69336,-25.94238 l 9.29199,1.87988 q -1.28906,17.83203 -5.53222,29.54102 z m 55.9668,3.16895 q -4.29688,-16.81152 -10.41992,-27.0166 l 9.02343,-4.72656 q 6.60645,10.58105 11.01074,25.94238 z M 268.6084,93.442383 V 55.952148 h 12.08496 v 37.490235 h 40.92773 v 10.688477 h -40.92773 v 15.25391 h 46.56738 v 10.90332 h -46.56738 v 30.18554 H 268.6084 V 130.28809 H 222.73926 V 119.38477 H 268.6084 V 104.13086 H 228.43262 V 93.442383 Z M 245.08301,89.951172 Q 238.42285,75.180664 231.11816,65.405273 l 11.22559,-5.478515 q 8.27148,11.386719 14.50195,24.599609 z m 47.1582,-4.189453 q 8.48633,-12.890625 13.53516,-27.070313 l 12.56836,4.941406 q -6.06934,13.320313 -15.30762,26.748047 z m 80.35156,-21.645508 q 1.98731,-4.780274 3.22266,-9.130859 l 13.10547,1.77246 q -1.87988,4.458008 -3.4375,7.358399 h 35.77148 v 35.019531 h -64.88281 v 5.424808 h 80.83496 v 8.70117 h -80.83496 v 5.47851 h 77.0752 q -0.69825,24.59961 -3.11524,33.19336 -1.55762,5.47852 -5.85449,7.25098 -3.06152,1.28906 -9.3457,1.28906 -6.44532,0 -12.03125,-0.80566 l -2.14844,-9.02344 h -53.81836 v 5.96192 h -11.54785 v -25.83497 h 11.54785 v 11.06446 h 18.47656 v -14.50196 h -21.1084 V 64.116211 Z m 22.82715,77.719729 v -11.06446 h 11.11817 v 18.69141 q 4.458,0.42969 7.41211,0.42969 3.65234,0 4.56542,-2.09473 1.77247,-3.9209 2.79297,-20.46387 H 377.1582 v 14.50196 z M 356.37207,72.387695 v 5.317383 h 53.0127 v -5.317383 z m 0,12.998047 v 5.854492 h 53.0127 V 85.385742 Z M 489.03809,120.5127 h -22.23633 v -8.8086 h 10.74219 q -2.417,-5.47851 -5.47852,-10.20508 l 9.66797,-3.544918 q 4.18945,7.036128 6.76758,13.749998 h 12.62207 q 3.16894,-6.49902 5.58593,-13.964842 l 10.7959,3.383792 q -2.73926,5.9082 -5.80078,10.58105 h 11.54785 v 8.8086 h -22.98828 v 7.84179 h 24.49219 v 9.13086 h -24.49219 v 20.30274 h -11.22558 v -20.30274 h -23.57911 v -9.13086 h 23.57911 z m 11.54785,-33.085942 h 40.71289 v 62.788082 q 0,5.53223 -2.9541,7.78809 -2.47071,1.93359 -8.3252,1.93359 -7.57324,0 -14.60937,-0.80566 l -2.63184,-10.7959 q 9.39941,1.12793 14.07227,1.12793 1.93359,0 2.25586,-0.9668 0.21484,-0.59082 0.21484,-1.66504 V 96.772461 H 460.67871 V 160.47363 H 448.70117 V 87.426758 h 40.01465 v -9.72168 h -45.97656 v -9.990234 h 45.97656 V 55.952148 h 11.87012 v 11.762696 h 46.62109 v 9.990234 h -46.62109 z m 101.56738,-2.524414 q -0.37598,8.969726 -1.07422,15.791016 h 43.29102 q -0.80567,37.27539 -4.18946,48.39355 -1.71875,5.58594 -6.3916,7.73438 -3.65234,1.66504 -10.68847,1.66504 -7.41211,0 -16.81153,-1.12793 l -2.09472,-12.08496 q 12.62207,1.77246 17.77832,1.77246 4.35058,0 5.53222,-2.4707 2.84668,-6.01563 3.97461,-33.19336 h -31.95801 q -1.77246,9.66796 -4.99511,16.75781 -8.96973,19.60449 -29.97071,31.09863 l -8.48632,-9.45312 q 21.05468,-10.95704 27.82226,-28.73536 4.51172,-11.87011 5.85449,-36.147456 H 554.18945 V 73.891602 h 43.88184 V 55.952148 h 12.40723 v 17.939454 h 45.33203 v 11.010742 z m 121.54785,-8.916016 v -20.03418 h 11.54785 v 20.03418 h 29.11133 v 48.608402 h -29.11133 v 35.8789 h -11.54785 v -35.8789 H 695.18066 V 75.986328 Z m -17.40234,10.688477 v 27.338865 h 17.40234 V 86.674805 Z m 46.62109,27.338865 V 86.674805 h -17.6709 v 27.338865 z m -68.75,-31.796873 q -6.55273,-9.13086 -17.34863,-17.456055 l 8.00293,-8.164062 q 10.74219,7.573242 18.1543,16.972656 z m -3.49121,27.607423 q -9.3457,-10.849611 -18.1543,-17.778322 l 8.27149,-8.271484 q 9.39941,6.606445 18.58398,17.080076 z m -16.7041,41.62598 q 10.3125,-14.66309 19.01367,-36.52344 l 9.56055,7.3584 q -7.3584,20.1416 -17.93946,37.91992 z"></path>
</svg>
