<svg xmlns="http://www.w3.org/2000/svg" id="svg1" version="1.1" height="200" width="990">
  <defs id="defs1"></defs>
  <rect id="rect1" stroke="none" fill="none" height="200" width="990" y="0" x="0"></rect>
  <path aria-label="島根県沖" style="font-size:100px;font-family:'BIZ UDPGothic';fill:#ff0000" id="text1" d="M 68.017578,149.21875 H 14.208984 v 5.71289 H 6.4941406 v -23.0957 h 7.7148434 v 11.18164 H 33.300781 V 128.32031 H 14.208984 V 73.291016 h 23.97461 q 3.36914,-4.931641 5.419922,-9.179688 l 8.691406,2.001953 q -2.392578,3.515625 -5.46875,7.177735 H 82.080078 V 103.80859 H 22.119141 v 6.00586 h 75.341796 v 6.10352 H 22.119141 v 6.29883 h 70.947265 q -0.732422,23.87695 -3.320312,30.71289 -1.5625,4.19922 -5.517578,5.66406 -2.587891,0.92773 -6.835938,0.92773 -6.152344,0 -11.767578,-0.8789 l -1.611328,-7.22656 q 6.738281,1.02539 12.109375,1.02539 4.248047,0 5.371094,-1.95313 2.246093,-3.90625 3.36914,-22.16797 H 40.917969 v 14.69727 h 19.580078 v -11.18164 h 7.519531 z M 22.119141,79.296875 v 6.298828 H 74.21875 v -6.298828 z m 0,12.011719 v 6.689453 H 74.21875 V 91.308594 Z M 119.0918,109.0332 q -5.22461,15.72266 -13.37891,28.41797 l -4.10156,-7.56836 q 11.91406,-16.69922 16.55273,-36.718748 H 103.17383 V 86.181641 H 119.0918 V 64.501953 h 7.51953 v 21.679688 h 12.69531 v 6.982421 h -12.69531 v 9.521488 q 7.56836,5.71289 14.59961,13.3789 l -4.29688,6.78711 q -5.22461,-6.78711 -9.66797,-11.18164 -0.34179,-0.34179 -0.63476,-0.63476 v 48.4375 h -7.51953 z m 51.5625,3.95508 q 1.95312,9.0332 5.27343,15.72266 8.20313,-7.42188 14.59961,-15.42969 l 5.76172,5.61523 q -8.30078,8.78907 -17.13867,15.38086 0.19531,0.29297 0.39063,0.58594 6.10351,9.13086 18.55468,16.30859 l -4.78515,7.03125 q -10.9375,-6.68945 -17.5293,-15.625 -8.83789,-11.96289 -12.30469,-29.58984 h -11.86523 v 35.5957 l 0.58594,-0.14648 q 10.44921,-2.97852 19.38476,-6.64063 l 0.92774,6.68946 q -14.99024,6.73828 -33.00782,11.08398 l -2.83203,-7.37304 q 3.90625,-0.78125 6.00586,-1.31836 1.07422,-0.24414 1.51367,-0.3418 V 68.505859 h 45.3125 V 112.98828 Z M 182.08008,75 h -30.46875 v 12.5 h 30.46875 z m 0,18.701172 h -30.46875 v 13.183598 h 30.46875 z M 282.86133,67.578125 V 114.4043 H 225.78125 V 67.578125 Z m -49.36524,6.005859 v 7.714844 h 41.55274 v -7.714844 z m 0,13.330078 v 7.763672 h 41.55274 v -7.763672 z m 0,13.476568 v 8.30078 h 41.55274 v -8.30078 z M 214.4043,122.2168 h 83.05664 v 6.49414 h -41.99219 v 30.81054 h -7.91016 V 128.71094 H 206.5918 V 74.267578 h 7.8125 z m -9.22852,29.6875 q 12.79297,-6.15235 23.0957,-19.28711 l 6.5918,3.66211 q -10.40039,13.62304 -24.07226,21.72851 z m 84.17969,4.10156 q -10.25391,-11.18164 -23.29102,-19.82422 l 6.00586,-4.49219 q 11.76758,7.37305 23.68164,18.79883 z M 358.69141,85.302734 V 64.501953 h 7.71484 v 20.800781 h 27.7832 v 40.478516 h -27.7832 v 33.69141 h -7.71484 v -33.69141 h -26.9043 V 85.302734 Z m -19.38477,6.982422 v 26.513674 h 19.38477 V 92.285156 Z m 47.26563,26.513674 V 92.285156 H 366.40625 V 118.79883 Z M 321.77734,86.621094 q -6.54297,-8.34961 -15.2832,-15.527344 l 5.32227,-5.273438 q 8.30078,6.201172 15.67382,14.990235 z m -3.66211,25.488286 q -7.66601,-8.8379 -15.91796,-15.527349 l 5.41992,-5.46875 q 8.39843,6.201172 16.16211,14.990239 z m -13.7207,40.57617 q 9.52149,-12.69532 17.48047,-32.86133 l 6.29883,5.07812 q -7.32422,19.14063 -17.08985,33.69141 z"></path>
</svg>
