<svg xmlns="http://www.w3.org/2000/svg" id="svg50" viewBox="0,0,168.1,38.441" height="38.441" width="168.1" version="1.1">
  <defs id="defs50"></defs>
  
  <g id="g50" transform="translate(-240,-180)">
    <g id="g49" style="mix-blend-mode: normal" stroke-dashoffset="0" stroke-dasharray="" stroke-miterlimit="10" stroke-linejoin="miter" stroke-linecap="butt" stroke="none" data-paper-data="{&quot;isPaintingLayer&quot;:true}">
      <path id="path1" stroke-width="0" fill-rule="evenodd" fill="#000000" fill-opacity="0.7" d="M248,180h152.1c4.432,0 8,3.568 8,8v22.441c0,4.432 -3.568,8 -8,8h-152.1c-4.432,0 -8,-3.568 -8,-8v-22.441c0,-4.432 3.568,-8 8,-8z"></path>
      <path aria-label="強震モニタの配色と震度色で表示" transform="matrix(0.96467359,0,0,1.0366201,240,180)" style="font-weight:bold;font-size:6.33159px;line-height:1.35;font-family:'BIZ UDPGothic';-inkscape-font-specification:'BIZ UDPGothic Bold';fill:#ffffff;stroke-width:3.00094" id="text50" d="m 59.673325,18.578487 q -0.03092,1.953889 -0.191679,2.47946 -0.08347,0.268969 -0.265877,0.377175 -0.170038,0.102023 -0.485381,0.102023 -0.296793,0 -0.7358,-0.05256 L 57.867833,20.86936 q 0.516297,0.06492 0.723433,0.06492 0.216412,0 0.275153,-0.111298 0.108205,-0.200954 0.166946,-1.669462 h -0.862556 q -0.0062,0.02164 -0.0093,0.05256 -0.01855,0.120572 -0.06802,0.370992 l -0.605953,-0.09275 q 0.191679,-1.347936 0.234962,-2.312515 h 1.25828 v -0.77599 h -1.449959 v -0.596679 h 2.065186 v 1.947706 h -1.292287 l -0.01546,0.262786 q -0.01855,0.268969 -0.04637,0.568854 z m 1.619997,-1.224272 -0.114389,0.0093 q -0.525571,0.04328 -1.279921,0.08347 l -0.151488,-0.596678 q 0.170038,-0.0031 0.284427,-0.0062 0.06492,0 0.166946,-0.0031 0.479197,-0.670876 0.803815,-1.326295 l 0.646144,0.151489 q -0.315343,0.544121 -0.772899,1.153165 l 0.241144,-0.0062 q 0.602861,-0.01855 1.344845,-0.07111 l -0.05256,-0.06801 q -0.185496,-0.253511 -0.44519,-0.550304 l 0.519388,-0.275152 q 0.698701,0.779082 1.04496,1.41286 l -0.537938,0.336984 q -0.129847,-0.25042 -0.222595,-0.401908 -0.473015,0.06492 -0.847098,0.102023 v 0.609044 h 1.323204 v 1.771485 h -1.323204 v 1.032594 q 0.287519,-0.03092 0.612136,-0.06802 l 0.06802,-0.0093 q -0.139122,-0.302977 -0.306069,-0.587404 l 0.575037,-0.228778 q 0.398816,0.609045 0.729617,1.474692 l -0.602861,0.296793 q -0.111298,-0.30916 -0.188588,-0.491564 l -0.231869,0.0371 q -1.304654,0.213321 -2.683506,0.32771 l -0.170038,-0.605953 q 0.741983,-0.02782 1.539615,-0.08657 l 0.03092,-0.0031 V 19.679095 H 60.007218 V 17.90761 h 1.286104 z m 0,1.072784 h -0.711067 v 0.732708 h 0.711067 z m 0.627594,0 v 0.732708 h 0.726525 v -0.732708 z m 4.557014,-2.052821 v -0.265877 h -1.932248 v -0.442098 h 4.563197 v 0.442098 H 67.13644 v 0.265877 h 2.559842 v 1.109884 H 69.025406 V 16.772994 H 67.13644 v 1.202631 h -0.65851 v -1.202631 h -1.854958 v 0.711068 h -0.664694 v -1.109884 z m 2.18885,4.386976 q 0.473015,0.179313 1.18099,0.284427 l -0.361716,0.525572 Q 68.493651,21.401115 67.856782,20.986841 67.223005,20.572567 66.870563,19.957339 H 66.18732 v 0.952212 q 0.683243,-0.09584 1.267554,-0.204046 l 0.04328,0.460648 q -1.088242,0.259694 -2.488736,0.451373 l -0.182404,-0.544121 q 0.485381,-0.05256 0.664693,-0.0742 l 0.0371,-0.0062 v -1.035685 h -0.67706 q -0.04328,0.544121 -0.142214,0.868739 -0.11748,0.389541 -0.377174,0.726525 l -0.550305,-0.454465 q 0.302977,-0.392633 0.377175,-0.918204 0.04019,-0.284427 0.04019,-0.707976 v -1.310837 h 5.336096 v 0.411183 h -4.671403 v 0.94912 h 4.93728 v 0.435915 h -0.701792 l 0.392633,0.259694 q -0.349351,0.29061 -0.825457,0.544121 z m -0.482289,-0.238053 q 0.44519,-0.302976 0.707976,-0.565762 h -1.351028 q 0.265877,0.340076 0.643052,0.565762 z m -3.289459,-3.521328 h 1.317021 v 0.34935 h -1.317021 z m 0,0.568853 h 1.317021 v 0.355534 h -1.317021 z m 2.507285,-0.568853 h 1.357211 v 0.34935 h -1.357211 z m 0,0.568853 h 1.357211 v 0.355534 h -1.357211 z m -2.170301,1.261372 h 3.849038 v 0.404999 h -3.849038 z m 5.329913,-2.810262 h 4.693044 v 0.633778 h -2.615491 v 1.313928 h 3.110147 v 0.633778 h -3.110147 v 1.533432 q 0,0.173129 0.06183,0.231869 0.120572,0.120573 1.137708,0.120573 0.720342,0 1.465417,-0.04947 v 0.695609 q -0.7729,0.04019 -1.462326,0.04019 -1.020227,0 -1.304653,-0.06183 -0.398816,-0.08347 -0.528664,-0.364808 -0.07729,-0.163855 -0.07729,-0.423549 V 18.60322 h -1.684921 v -0.633778 h 1.684921 v -1.313928 h -1.369578 z m 6.424338,0.525572 h 4.254037 v 0.664693 h -4.254037 z m -0.627594,3.539878 h 5.509225 v 0.670877 h -5.509225 z m 10.616544,-3.719191 0.442098,0.361717 q -0.432823,1.978622 -1.403585,3.063772 -0.537938,0.59977 -1.391218,1.051143 -0.605953,0.318435 -1.301563,0.507022 l -0.358625,-0.609044 q 1.589081,-0.414274 2.467094,-1.323204 -0.723433,-0.649235 -1.595263,-1.150074 l 0.404999,-0.500838 q 0.850189,0.442098 1.616905,1.088242 0.602861,-0.964579 0.757441,-1.867325 h -2.176484 q -0.748167,1.165532 -1.76221,1.783851 l -0.454465,-0.491563 q 0.980036,-0.590495 1.610722,-1.561257 0.324618,-0.494655 0.50393,-1.066601 l 0.670877,0.163855 q -0.102023,0.278244 -0.228778,0.550304 z m 4.288045,4.247854 q 1.814767,-0.457556 1.814767,-2.080644 0,-0.707976 -0.364808,-1.21809 -0.408091,-0.575037 -1.242822,-0.738891 -0.182404,1.434501 -0.497747,2.349613 -0.216412,0.639961 -0.537938,1.208815 -0.46374,0.809998 -1.054235,0.809998 -0.439006,0 -0.782174,-0.395724 -0.219503,-0.25042 -0.355533,-0.615228 -0.179313,-0.473014 -0.179313,-1.017135 0,-0.881106 0.485381,-1.623089 0.491564,-0.757441 1.276829,-1.100608 0.571946,-0.25042 1.255189,-0.25042 1.0666,0 1.811675,0.571946 0.915113,0.701792 0.915113,1.987897 0,2.154842 -2.179576,2.732971 z m -0.46374,-4.062358 q -0.547212,0.06183 -0.915112,0.293702 -0.234962,0.151488 -0.466832,0.401907 -0.643052,0.711068 -0.643052,1.647821 0,0.683243 0.272061,1.069693 0.166946,0.238053 0.330801,0.238053 0.222595,0 0.500838,-0.491564 0.680152,-1.196448 0.921296,-3.159612 z m 4.513732,0.473014 v -0.670876 h -1.007861 v -0.575037 h 3.178162 v 0.575037 h -0.964578 v 0.670876 h 0.850189 v 4.464266 h -0.568854 v -0.296793 h -1.731294 v 0.361717 h -0.587404 v -4.52919 z m 0.448282,0 h 0.302976 v -0.670876 h -0.302976 z m -0.401908,0.531755 h -0.29061 v 1.378852 q 0.259694,-0.476106 0.29061,-1.378852 z m 0.395724,0 q -0.0031,1.125341 -0.386449,1.811676 l -0.299885,-0.272061 v 0.525572 h 1.731294 v -0.602862 h -0.361717 q -0.216412,0 -0.296793,-0.08347 -0.07729,-0.08038 -0.07729,-0.275152 v -1.1037 z m 0.707976,0 v 0.868739 q 0,0.08656 0.02473,0.105114 0.02164,0.01546 0.102022,0.01546 h 0.210229 V 17.55826 Z m -1.39431,2.559842 v 0.525571 h 1.731294 v -0.525571 z m 3.38839,-1.589081 v 2.055912 q 0,0.166946 0.09893,0.197862 0.145305,0.04637 0.473014,0.04637 0.293702,0 0.420457,-0.05874 0.102023,-0.04637 0.132939,-0.228778 0.03092,-0.194771 0.05256,-0.741983 l 0.0062,-0.126756 0.664691,0.17313 q -0.0247,0.797631 -0.0896,1.109883 -0.0897,0.423549 -0.5163,0.482289 -0.284427,0.0371 -0.878014,0.0371 -0.624502,0 -0.825456,-0.126755 -0.191679,-0.120573 -0.191679,-0.516297 V 17.92616 h 1.589081 v -1.511791 h -1.663279 v -0.609044 h 2.309427 v 2.723696 z m 3.617162,0.745075 v 1.12225 q 0,0.244236 0.17932,0.293701 0.26587,0.0742 1.75912,0.0742 1.32629,0 1.65091,-0.07729 0.15458,-0.0371 0.19786,-0.17313 0.0526,-0.154579 0.0835,-0.720342 l 0.68325,0.210229 q -0.034,0.609045 -0.0989,0.834731 -0.0835,0.293702 -0.30916,0.398816 -0.16077,0.0742 -0.44519,0.09275 -0.73271,0.05256 -1.9137,0.05256 -1.65401,0 -1.96626,-0.05874 -0.35244,-0.06492 -0.45446,-0.30916 -0.0495,-0.123664 -0.0495,-0.30916 v -3.175069 l -0.0309,0.02473 q -0.14222,0.102023 -0.33699,0.225687 l -0.42355,-0.513205 q 1.1037,-0.605953 1.86733,-1.728203 l 0.43282,0.296794 h 1.75912 l 0.32771,0.340075 q -0.40809,0.578129 -0.85328,1.041868 h 1.98171 v 2.055912 z m 0,-0.550304 h 1.32939 v -0.936754 h -1.32939 z m 1.99408,-0.936754 v 0.936754 h 1.35722 v -0.936754 z m -0.71725,-0.568854 q 0.39882,-0.417365 0.68016,-0.819273 h -1.42832 q -0.34317,0.420457 -0.81618,0.819273 z m 8.88835,3.886137 q -0.91512,0.09584 -1.89206,0.09584 -1.44068,0 -2.01881,-0.182404 -0.42046,-0.132939 -0.6647,-0.395725 -0.28133,-0.306068 -0.28133,-0.745074 0,-0.578129 0.39572,-1.038777 0.33699,-0.392633 1.08515,-0.779082 -0.42664,-0.958395 -0.7729,-2.182668 l 0.68943,-0.179312 q 0.32153,1.174806 0.68015,2.077553 1.19027,-0.547213 2.52584,-0.912021 l 0.20713,0.627594 q -1.46541,0.370991 -2.91228,1.054234 -0.44828,0.21332 -0.63687,0.349351 -0.5534,0.404999 -0.5534,0.899654 0,0.429732 0.51321,0.59977 0.42664,0.139122 1.52725,0.139122 1.01713,0 2.03736,-0.117481 z m 3.43476,-4.730143 v -0.265877 h -1.93225 v -0.442098 h 4.5632 v 0.442098 h -1.97244 v 0.265877 h 2.55984 v 1.109884 h -0.67087 v -0.711068 h -1.88897 v 1.202631 h -0.65851 v -1.202631 h -1.85496 v 0.711068 h -0.66469 v -1.109884 z m 2.18885,4.386976 q 0.47302,0.179313 1.18099,0.284427 l -0.36172,0.525572 q -0.9924,-0.170038 -1.62927,-0.584312 -0.63377,-0.414274 -0.98622,-1.029502 h -0.68324 v 0.952212 q 0.68324,-0.09584 1.26756,-0.204046 l 0.0433,0.460648 q -1.08824,0.259694 -2.48874,0.451373 l -0.1824,-0.544121 q 0.48538,-0.05256 0.66469,-0.0742 l 0.0371,-0.0062 v -1.035685 h -0.67706 q -0.0433,0.544121 -0.14221,0.868739 -0.11748,0.389541 -0.37718,0.726525 l -0.5503,-0.454465 q 0.30298,-0.392633 0.37717,-0.918204 0.0402,-0.284427 0.0402,-0.707976 v -1.310837 h 5.3361 v 0.411183 h -4.6714 v 0.94912 h 4.93728 v 0.435915 h -0.70179 l 0.39263,0.259694 q -0.34935,0.29061 -0.82546,0.544121 z m -0.48229,-0.238053 q 0.44519,-0.302976 0.70798,-0.565762 h -1.35103 q 0.26588,0.340076 0.64305,0.565762 z m -3.28946,-3.521328 h 1.31702 v 0.34935 h -1.31702 z m 0,0.568853 h 1.31702 v 0.355534 h -1.31702 z m 2.50729,-0.568853 h 1.35721 v 0.34935 h -1.35721 z m 0,0.568853 h 1.35721 v 0.355534 h -1.35721 z m -2.1703,1.261372 h 3.84904 v 0.404999 h -3.84904 z m 8.40914,-2.736063 h 2.42381 v 0.519388 h -1.37267 v 0.513205 h 1.28611 v 0.500839 h -1.28611 v 0.921295 h -2.48873 v -0.921295 h -1.01405 v 0.575037 q 0,1.400493 -0.14839,2.213583 -0.11439,0.618319 -0.371,1.128433 l -0.56267,-0.44519 q 0.23497,-0.510114 0.32153,-1.245914 0.0773,-0.646143 0.0773,-1.650912 v -2.108469 h 2.44545 v -0.556488 h 0.68943 z m -2.45164,0.519388 v 0.513205 h 1.01405 v -0.513205 z m 1.67256,0 v 0.513205 h 1.17171 v -0.513205 z m 0,1.014044 v 0.479197 h 1.17171 v -0.479197 z m 0.71725,3.246176 q -0.89347,0.46374 -2.26923,0.704884 l -0.32153,-0.568853 q 1.29229,-0.15458 2.025,-0.473015 -0.6276,-0.454465 -1.07279,-1.078967 h -0.42664 v -0.537938 h 3.62026 l 0.32462,0.272061 q -0.46065,0.707975 -1.31393,1.332478 0.73271,0.293702 1.99717,0.432823 l -0.36172,0.584312 q -1.2119,-0.163854 -2.20121,-0.667785 z m -0.91821,-1.415951 q 0.37409,0.439007 0.90893,0.772899 0.60286,-0.389541 0.93057,-0.772899 z m 5.28973,-0.185496 v 1.12225 q 0,0.244236 0.17931,0.293701 0.26588,0.0742 1.75912,0.0742 1.32629,0 1.65091,-0.07729 0.15458,-0.0371 0.19786,-0.17313 0.0526,-0.154579 0.0835,-0.720342 l 0.68324,0.210229 q -0.034,0.609045 -0.0989,0.834731 -0.0835,0.293702 -0.30916,0.398816 -0.16076,0.0742 -0.44519,0.09275 -0.73271,0.05256 -1.9137,0.05256 -1.654,0 -1.96625,-0.05874 -0.35245,-0.06492 -0.45447,-0.30916 -0.0495,-0.123664 -0.0495,-0.30916 v -3.175069 l -0.0309,0.02473 q -0.14221,0.102023 -0.33699,0.225687 l -0.42354,-0.513205 q 1.1037,-0.605953 1.86732,-1.728203 l 0.43282,0.296794 h 1.75912 l 0.32771,0.340075 q -0.40809,0.578129 -0.85328,1.041868 h 1.98171 v 2.055912 z m 0,-0.550304 h 1.32938 v -0.936754 h -1.32938 z m 1.99408,-0.936754 v 0.936754 h 1.35721 v -0.936754 z m -0.71725,-0.568854 q 0.39881,-0.417365 0.68015,-0.819273 h -1.42832 q -0.34317,0.420457 -0.81618,0.819273 z m 3.79029,-0.927479 q 2.84427,-0.04328 5.37629,-0.145305 l 0.0371,0.615228 q -1.11607,0.05565 -1.73748,0.340076 -0.59358,0.27206 -0.95221,0.754349 -0.40809,0.547213 -0.40809,1.218089 0,0.667785 0.46374,1.001678 0.53175,0.380266 1.63236,0.52248 l -0.1453,0.695609 q -1.4345,-0.191679 -2.01882,-0.741983 -0.62759,-0.587404 -0.62759,-1.459234 0,-0.791449 0.56885,-1.477783 0.41428,-0.503931 1.13462,-0.809999 -1.27683,0.04328 -3.29255,0.145305 z m 4.49519,2.668048 q -0.18241,-0.48538 -0.61523,-1.100608 l 0.48229,-0.179313 q 0.38645,0.531755 0.62141,1.088242 z m 0.83473,-0.324617 q -0.21951,-0.568854 -0.61214,-1.106792 l 0.46065,-0.163855 q 0.36171,0.439007 0.61523,1.06351 z m 4.71468,1.623088 0.0433,0.553396 q -1.34175,0.473014 -2.98339,0.779082 l -0.22878,-0.618319 q 0.28443,-0.04328 0.80382,-0.139122 v -1.131525 q -0.53485,0.272061 -1.27374,0.516297 l -0.35244,-0.550304 q 1.48706,-0.401908 2.26923,-1.02641 h -2.2074 v -0.537938 h 2.6495 V 17.63555 h -2.00336 v -0.519388 h 2.00336 v -0.435916 h -2.3187 v -0.531754 h 2.3187 v -0.609045 h 0.67706 v 0.609045 h 2.38671 v 0.531754 h -2.38671 v 0.435916 h 2.07137 v 0.519388 h -2.07137 v 0.466831 h 2.71751 v 0.537938 h -0.73889 l 0.45756,0.315343 q -0.42355,0.411182 -1.18718,0.899654 l -0.0711,0.04637 q 0.58122,0.531755 1.57671,0.878014 l -0.41736,0.627594 q -1.07897,-0.457556 -1.73439,-1.150074 z m -0.93675,-1.60763 q -0.30916,0.361716 -0.74508,0.649235 v 1.388127 q 0.76363,-0.170038 1.53343,-0.395725 l 0.14222,-0.04019 q -0.63378,-0.701793 -0.93057,-1.601447 z m 1.12843,0.844006 q 0.5503,-0.392633 0.96458,-0.853281 h -1.46233 q 0.19786,0.473014 0.49775,0.853281 z m 5.60815,-1.320112 v 2.742246 q 0,0.374083 -0.15148,0.510113 -0.14222,0.123664 -0.55031,0.123664 -0.46374,0 -0.8811,-0.05874 l -0.13294,-0.652327 q 0.43282,0.07111 0.82855,0.07111 0.13293,0 0.16694,-0.04637 0.0247,-0.04019 0.0247,-0.132939 v -2.55675 H 144.7046 V 17.55826 h 5.95751 v 0.615228 z m -2.6124,-2.290874 h 4.47045 v 0.609045 h -4.47045 z m -0.77908,4.74251 q 0.66779,-0.698701 1.07588,-1.85805 l 0.63996,0.241145 q -0.47302,1.326295 -1.19027,2.083736 z m 5.30518,0.377175 q -0.63996,-1.35412 -1.11297,-1.981714 l 0.58122,-0.346259 q 0.68015,0.874922 1.15935,1.904424 z"></path>
      <g id="g48" stroke-width="1" fill-rule="nonzero" fill="#ffffff">
        <path id="path2" d="M250.1573,189.78205v2.55908c0,0.16587 0.06563,0.26604 0.1969,0.3005c0.13524,0.03663 0.44451,0.05495 0.92781,0.05495c0.47136,0 0.78262,-0.02584 0.93377,-0.07753c0.08552,-0.03018 0.14121,-0.11419 0.16706,-0.25204c0.03382,-0.19387 0.05173,-0.42328 0.05371,-0.68825l0.62351,0.19064c-0.03184,0.63548 -0.11239,1.04153 -0.24165,1.21814c-0.08552,0.11633 -0.2148,0.18527 -0.38783,0.20681c-0.27247,0.03233 -0.7349,0.0485 -1.38728,0.0485c-0.50518,0 -0.83632,-0.01509 -0.99342,-0.04527c-0.23668,-0.04308 -0.38684,-0.15618 -0.45048,-0.33928c-0.03184,-0.09694 -0.04775,-0.22619 -0.04775,-0.38774v-2.56241l-0.56981,0.21326l-0.14022,-0.62686l0.71003,-0.26496v-1.74161h0.6056v1.51547l0.64142,-0.23587v-1.7029h0.59964v1.47665l0.99938,-0.37159l0.31325,0.2068v2.42015c0,0.16802 -0.03679,0.29297 -0.11038,0.37483c-0.08353,0.09047 -0.22375,0.13571 -0.42065,0.13571c-0.1611,0 -0.33214,-0.01509 -0.51312,-0.04527l-0.09845,-0.61716c0.11735,0.03233 0.23668,0.0485 0.35799,0.0485c0.08751,0 0.14121,-0.01939 0.1611,-0.05818c0.01986,-0.03233 0.02979,-0.08618 0.02979,-0.16156v-1.52837l-0.71898,0.27142v2.61403h-0.59964v-2.39111zM247.96454,188.72543v-1.56063h0.64141v1.56063h0.57876v0.65594h-0.57876v2.05507c0.20883,-0.07755 0.41567,-0.15833 0.62053,-0.24234l0.05669,0.62363c-0.64441,0.31881 -1.3057,0.58593 -1.98387,0.80134l-0.20884,-0.68825c0.30629,-0.08617 0.57478,-0.16803 0.80549,-0.24557c0.02786,-0.01075 0.05073,-0.01828 0.0686,-0.02258v-2.28121h-0.75776v-0.65594z"></path>
        <path id="path3" d="M255.86475,188.03368v-0.27789h-1.86453v-0.46206h4.40338v0.46206h-1.90335v0.27789h2.47015v1.15996h-0.64737v-0.74318h-1.82283v1.25696h-0.63544v-1.25696h-1.78997v0.74318h-0.64142v-1.15996zM257.97689,192.61879c0.30429,0.12494 0.68415,0.22403 1.13957,0.29727l-0.34905,0.54931c-0.63843,-0.11848 -1.16251,-0.32205 -1.57224,-0.6107c-0.40771,-0.28866 -0.72494,-0.64732 -0.95166,-1.07598h-0.65932v0.99522c0.43954,-0.06674 0.84726,-0.13783 1.22316,-0.21326l0.0418,0.48145c-0.70008,0.18095 -1.50059,0.3382 -2.40155,0.47176l-0.17601,-0.56869c0.31225,-0.03663 0.52605,-0.06248 0.64141,-0.07753l0.03584,-0.00624v-1.08243h-0.65334c-0.02786,0.37913 -0.07361,0.68179 -0.13724,0.90798c-0.07557,0.27142 -0.19689,0.52453 -0.36396,0.75934l-0.53102,-0.475c0.19491,-0.27357 0.31623,-0.59346 0.36396,-0.95967c0.02588,-0.19818 0.03882,-0.44483 0.03882,-0.73995v-1.37008h5.1492v0.42976h-4.50773v0.99198h4.76428v0.4556h-0.67722l0.37888,0.27142c-0.22474,0.20249 -0.49025,0.39206 -0.79654,0.5687zM257.51149,192.36998c0.2864,-0.2111 0.51412,-0.40821 0.68317,-0.59132h-1.30368c0.17104,0.23696 0.37789,0.43407 0.62053,0.59132zM254.33723,188.68965h1.27092v0.36513h-1.27092zM254.33723,189.2842h1.27092v0.37159h-1.27092zM256.75665,188.68965h1.30964v0.36513h-1.30964zM256.75665,189.2842h1.30964v0.37159h-1.30964zM254.66238,190.60256h3.71426v0.42328h-3.71426z"></path>
        <path id="path4" d="M260.75547,188.39792v5.05687h-0.62351v-6.28791h0.62351v0.97906l0.2864,-0.2585c0.17303,0.32527 0.31026,0.6387 0.4117,0.94028l-0.40573,0.43622c-0.10541,-0.36405 -0.20287,-0.65271 -0.29237,-0.86597zM263.50312,187.59657h1.54534v0.48469h-1.54534v0.3102h1.33356v0.46206h-1.33356v0.31989h1.74221v0.517h-4.02145v-0.517h1.66169v-0.31989h-1.29475v-0.46206h1.29475v-0.3102h-1.47077v-0.48469h1.47077v-0.42975h0.61754zM264.74415,190.03295v2.83705c0,0.19818 -0.04375,0.34251 -0.13126,0.43298c-0.08552,0.08832 -0.2317,0.13248 -0.43854,0.13248c-0.24463,0 -0.49622,-0.01832 -0.75478,-0.05495l-0.08648,-0.58162c0.26452,0.03448 0.47434,0.05172 0.62947,0.05172c0.07956,0 0.12729,-0.02154 0.1432,-0.06463c0.00993,-0.02588 0.01489,-0.06573 0.01489,-0.11956v-0.41683h-1.83176v1.20523h-0.62352v-3.42182zM262.28889,190.50795v0.37804h1.83176v-0.37804zM262.28889,191.36099v0.39744h1.83176v-0.39744zM259.28768,190.54026c0.08949,-0.44806 0.15413,-1.02752 0.19391,-1.73839l0.01489,-0.26495l0.50716,0.05172c-0.02389,0.92199 -0.0935,1.67057 -0.20883,2.24573z"></path>
        <path id="path5" d="M266.71274,187.83594v-0.67532h0.62351v0.67532h0.92781v0.5687h-0.92781v0.55577h1.05607v0.57516h-0.35501c-0.06361,0.25634 -0.14913,0.52776 -0.25657,0.81426h0.57578v0.56223h-1.02033v0.59778h0.98151v0.57515h-0.98151v1.36353h-0.62351v-1.36353h-1.05309v-0.57515h1.05309v-0.59778h-1.10085v-0.56223h0.54893c-0.06367,-0.2865 -0.14124,-0.55793 -0.2327,-0.81426h-0.43854v-0.57516h1.22316v-0.55577h-0.97257v-0.5687zM267.45558,189.53561h-0.94869c0.06762,0.20464 0.14022,0.47606 0.21779,0.81426h0.49522c0.10342,-0.27573 0.18198,-0.54715 0.23568,-0.81426zM271.07433,187.39333v1.51224c0,0.18741 -0.03184,0.31989 -0.09551,0.39744c-0.07558,0.09262 -0.2337,0.13893 -0.47435,0.13893c-0.23468,0 -0.46937,-0.01075 -0.70405,-0.03226l-0.10144,-0.58163c0.33015,0.03878 0.53998,0.05818 0.62948,0.05818c0.09348,0 0.14022,-0.04416 0.14022,-0.13248v-0.77872h-1.30666v1.87732h1.69148l0.35501,0.32959c-0.1074,0.68502 -0.3033,1.29681 -0.58771,1.83538l-0.03286,0.06463c0.21877,0.27358 0.49224,0.52346 0.8204,0.74965l-0.33413,0.60423c-0.31424,-0.21972 -0.59467,-0.48252 -0.84129,-0.78841c-0.21281,0.29296 -0.45247,0.56869 -0.71898,0.82719l-0.35203,-0.52991v0.50406h-0.6056v-6.05531zM269.16205,190.43395v2.44284c0.24463,-0.18094 0.48031,-0.43513 0.70704,-0.76256c-0.30429,-0.50838 -0.5181,-1.06845 -0.64141,-1.68021zM270.20024,191.54229c0.17701,-0.37052 0.29236,-0.73997 0.34606,-1.10835h-0.76969c0.09746,0.4136 0.23867,0.78305 0.42363,1.10835z"></path>
        <path id="path6" d="M272.5451,188.35629h0.91587v0.99198h-0.91587zM272.5451,191.26765h0.91587v0.99198h-0.91587z"></path>
        <path id="path7" d="M274.76467,187.82554h4.67482l0.38485,0.3522c-0.11138,0.45022 -0.25656,0.82612 -0.43556,1.1277c-0.33612,0.57084 -0.83932,0.99736 -1.50959,1.27954l-0.37589,-0.55578c0.46341,-0.15079 0.84826,-0.42113 1.15456,-0.81103c0.18099,-0.23049 0.30728,-0.47391 0.37888,-0.73026h-4.27213zM276.67695,189.22143h0.68317v0.55577c0,0.83367 -0.08552,1.47776 -0.25657,1.93227c-0.21679,0.57731 -0.63844,1.04691 -1.26496,1.4088l-0.49224,-0.56223c0.43159,-0.22188 0.74682,-0.48684 0.94571,-0.79489c0.15315,-0.2391 0.25358,-0.49222 0.30131,-0.75934c0.05567,-0.30589 0.0835,-0.71627 0.0835,-1.23115z"></path>
        <path id="path8" d="M282.59559,193.16433v-3.31525c-0.60461,0.43945 -1.29476,0.80997 -2.07044,1.11157l-0.36098,-0.65593c0.88104,-0.32097 1.65372,-0.73458 2.31805,-1.24083c0.65235,-0.49761 1.23309,-1.06739 1.74221,-1.70935l0.57578,0.39098c-0.45147,0.56223 -0.95464,1.07814 -1.5095,1.54773v3.87099z"></path>
        <path id="path9" d="M285.48775,187.90879h4.36754v4.89212h-4.47199v-0.67533h3.76192v-3.5414h-3.65757z"></path>
        <path id="path10" d="M293.08808,189.1056c-0.62849,-0.30373 -1.28183,-0.54715 -1.96004,-0.73026l0.20883,-0.69471c0.78559,0.19388 1.44489,0.43514 1.97791,0.7238zM291.2026,192.32063c0.98449,-0.09047 1.73827,-0.28111 2.26136,-0.57193c0.61655,-0.34467 1.08989,-0.87352 1.42004,-1.58655c0.21479,-0.46099 0.38882,-1.06414 0.52208,-1.80947l0.57279,0.4556c-0.1611,0.79704 -0.356,1.43037 -0.58473,1.90001c-0.41368,0.85518 -1.04615,1.4745 -1.89739,1.85796c-0.53699,0.24126 -1.25497,0.41359 -2.15394,0.51699z"></path>
        <path id="path11" d="M296.63361,187.95042c1.82978,-0.03018 3.55908,-0.0808 5.18792,-0.15187l0.03574,0.64302c-0.71795,0.03878 -1.27681,0.15726 -1.67659,0.35543c-0.38186,0.18957 -0.68815,0.45237 -0.91886,0.78841c-0.26253,0.38128 -0.39379,0.80565 -0.39379,1.27309c0,0.46529 0.14917,0.81427 0.4475,1.04694c0.34208,0.26496 0.86715,0.44699 1.57522,0.54608l-0.14022,0.72702c-0.9228,-0.13356 -1.57217,-0.39205 -1.94812,-0.77549c-0.40374,-0.40929 -0.6056,-0.91768 -0.6056,-1.52515c0,-0.55146 0.18297,-1.06629 0.54892,-1.5445c0.26651,-0.35113 0.63147,-0.63332 1.09489,-0.84658c-0.8214,0.03018 -1.88048,0.0808 -3.17724,0.15187zM300.97127,190.73898c-0.11734,-0.33821 -0.31523,-0.72164 -0.59367,-1.15029l0.46539,-0.18741c0.24861,0.37051 0.44849,0.74964 0.59965,1.13738zM301.77676,190.3997c-0.14121,-0.39637 -0.3381,-0.78195 -0.59069,-1.15674l0.44452,-0.17126c0.23269,0.30589 0.43058,0.67641 0.59367,1.11157z"></path>
        <path id="path12" d="M306.31898,192.09241l0.0418,0.57839c-0.86316,0.32959 -1.8228,0.60101 -2.8789,0.81427l-0.22076,-0.64624c0.18298,-0.03018 0.44153,-0.07865 0.77566,-0.14541v-1.18265c-0.34407,0.18957 -0.75378,0.36944 -1.22912,0.53961l-0.34009,-0.57515c0.95662,-0.28004 1.68655,-0.63762 2.18978,-1.07275h-2.13011v-0.56224h2.55673v-0.48791h-1.93323v-0.54285h1.93323v-0.4556h-2.23744v-0.55578h2.23744v-0.63654h0.65334v0.63654h2.30316v0.55578h-2.30316v0.4556h1.99876v0.54285h-1.99876v0.48791h2.62235v0.56224h-0.71301l0.44153,0.32958c-0.27248,0.2865 -0.65435,0.59993 -1.14562,0.94028l-0.0686,0.0485c0.37391,0.37051 0.88107,0.6764 1.52151,0.91766l-0.40275,0.65594c-0.69412,-0.31881 -1.25199,-0.71948 -1.67361,-1.20201zM305.41504,190.4122c-0.19889,0.25204 -0.43855,0.47822 -0.71898,0.67856v1.45084c0.49125,-0.11848 0.98449,-0.25635 1.47971,-0.41359l0.13724,-0.04204c-0.40772,-0.48899 -0.70704,-1.04691 -0.89797,-1.67376zM306.50397,191.29432c0.35402,-0.27358 0.66428,-0.57085 0.93079,-0.89182h-1.4111c0.12729,0.32958 0.28739,0.62686 0.48031,0.89182z"></path>
        <path id="path13" d="M311.92074,189.91734v2.86609c0,0.26065 -0.04873,0.43837 -0.14618,0.53315c-0.09149,0.08616 -0.26849,0.12924 -0.53102,0.12924c-0.29833,0 -0.58174,-0.02047 -0.85024,-0.0614l-0.12828,-0.68178c0.27844,0.04954 0.54495,0.07431 0.79952,0.07431c0.08552,0 0.13922,-0.01617 0.1611,-0.0485c0.01589,-0.02803 0.02383,-0.07434 0.02383,-0.13894v-2.67221h-2.56566v-0.64301h5.74886v0.64301zM309.39985,187.523h4.31383v0.63654h-4.31383zM308.64806,192.47965c0.42959,-0.48683 0.77566,-1.13415 1.0382,-1.94195l0.61755,0.25203c-0.30429,0.92414 -0.68716,1.6501 -1.1486,2.17787zM313.76737,192.87386c-0.41169,-0.9435 -0.76967,-1.6339 -1.07394,-2.0712l0.56086,-0.36189c0.43755,0.60962 0.81046,1.2731 1.11872,1.99044z"></path>
        <path id="path14" d="M247.70713,196.36968h0.69511v3.53495h-0.69511zM250.77099,196.30183h0.69511v2.31035c0,0.81209 -0.06066,1.41632 -0.18198,1.81269c-0.10143,0.3382 -0.23966,0.60747 -0.41468,0.8078c-0.36396,0.42437 -0.94867,0.7378 -1.75413,0.94028l-0.34308,-0.6624c0.88104,-0.19388 1.44589,-0.51592 1.69456,-0.96613c0.15712,-0.2865 0.25159,-0.64839 0.28341,-1.08566c0.0139,-0.20249 0.02085,-0.48252 0.02085,-0.84012z"></path>
        <path id="path15" d="M252.52099,196.76515h4.67482l0.38484,0.3522c-0.11138,0.45022 -0.25656,0.82612 -0.43555,1.1277c-0.33612,0.57084 -0.83932,0.99736 -1.50959,1.27954l-0.37589,-0.55578c0.46341,-0.15079 0.84826,-0.42114 1.15456,-0.81104c0.18099,-0.23049 0.30728,-0.47391 0.37887,-0.73025h-4.27213zM254.43327,198.16104h0.68318v0.55577c0,0.83367 -0.08552,1.47776 -0.25657,1.93227c-0.21679,0.57731 -0.63844,1.04691 -1.26496,1.4088l-0.49224,-0.56223c0.43158,-0.22188 0.74682,-0.48684 0.94571,-0.79489c0.15314,-0.23911 0.25358,-0.49222 0.30131,-0.75934c0.05567,-0.30589 0.0835,-0.71627 0.0835,-1.23115z"></path>
        <path id="path16" d="M259.32381,196.59864h0.67125v1.1762c0,1.12659 -0.07757,1.94947 -0.2327,2.46864c-0.20485,0.68717 -0.63445,1.26018 -1.28879,1.71903l-0.45644,-0.57515c0.45346,-0.34467 0.77268,-0.70225 0.95764,-1.07275c0.15513,-0.31236 0.25756,-0.73134 0.30728,-1.25696c0.02786,-0.29727 0.0418,-0.72056 0.0418,-1.26986zM260.85127,196.41123h0.67124v4.59157c0.39579,-0.22188 0.74285,-0.53746 1.04118,-0.94675c0.32617,-0.44806 0.5698,-0.97906 0.7309,-1.593l0.52507,0.54931c-0.19889,0.63978 -0.47136,1.18587 -0.81742,1.63827c-0.43556,0.57085 -1.00637,1.01998 -1.71243,1.34739l-0.43854,-0.41036z"></path>
        <path id="path17" d="M268.67288,196.96288l0.42661,0.37806c-0.27844,1.37865 -0.72991,2.44603 -1.35441,3.20213c-0.34607,0.4179 -0.79357,0.78409 -1.3425,1.09856c-0.38982,0.22188 -0.80846,0.39852 -1.25593,0.52991l-0.34606,-0.63654c1.02228,-0.28866 1.81585,-0.74965 2.3807,-1.38299c-0.4654,-0.45237 -0.97852,-0.85304 -1.53938,-1.20201l0.39082,-0.52345c0.54694,0.30804 1.06701,0.68717 1.56023,1.13738c0.38782,-0.67209 0.63146,-1.32263 0.73091,-1.95162h-2.10023c-0.4813,0.81209 -1.04814,1.43356 -1.70051,1.86441l-0.43854,-0.51376c0.63047,-0.41144 1.14856,-0.95538 1.55427,-1.63182c0.20883,-0.34467 0.37092,-0.71627 0.48628,-1.1148l0.64737,0.17125c-0.06563,0.19388 -0.13922,0.3856 -0.22076,0.57516z"></path>
        <path id="path18" d="M271.96859,202.10394v-3.31525c-0.60462,0.43945 -1.29476,0.80997 -2.07044,1.11157l-0.36098,-0.65594c0.88104,-0.32097 1.65372,-0.73457 2.31805,-1.24083c0.65235,-0.49761 1.23309,-1.06739 1.74221,-1.70935l0.57577,0.39098c-0.45147,0.56223 -0.95464,1.07814 -1.5095,1.54773v3.87099z"></path>
        <path id="path19" d="M274.55328,200.99039c0.13723,-0.00208 0.32617,-0.01287 0.56682,-0.03237c0.56682,-1.37865 1.08889,-2.89623 1.56619,-4.55275l0.68317,0.19387c-0.46938,1.58977 -0.97055,3.02552 -1.50354,4.30725c1.01037,-0.0797 1.90636,-0.17664 2.68798,-0.2908c-0.29435,-0.56223 -0.59367,-1.08137 -0.89797,-1.55741l0.58771,-0.40391c0.62649,0.9349 1.17642,1.92582 1.64978,2.97276l-0.67124,0.37804c-0.10939,-0.24988 -0.22972,-0.51053 -0.36098,-0.78195c-1.16148,0.21111 -2.54872,0.39852 -4.16173,0.56223z"></path>
        <path id="path20" d="M282.73972,196.97329v-0.27789h-1.86453v-0.46206h4.40338v0.46206h-1.90335v0.27789h2.47015v1.15996h-0.64738v-0.74318h-1.82283v1.25696h-0.63545v-1.25696h-1.78997v0.74318h-0.64141v-1.15996zM284.85186,201.55841c0.30429,0.12495 0.68415,0.22404 1.13957,0.29728l-0.34904,0.54931c-0.63843,-0.11848 -1.16251,-0.32205 -1.57224,-0.6107c-0.40772,-0.28866 -0.72495,-0.64732 -0.95167,-1.07598h-0.65931v0.99522c0.43954,-0.06674 0.84726,-0.13783 1.22316,-0.21326l0.0418,0.48145c-0.70008,0.18095 -1.50059,0.3382 -2.40155,0.47176l-0.17602,-0.5687c0.31225,-0.03663 0.52606,-0.06248 0.64142,-0.07753l0.03584,-0.00624v-1.08243h-0.65334c-0.02786,0.37913 -0.07361,0.68179 -0.13723,0.90798c-0.07558,0.27142 -0.1969,0.52453 -0.36396,0.75934l-0.53103,-0.475c0.19491,-0.27357 0.31623,-0.59346 0.36396,-0.95967c0.02588,-0.19818 0.03882,-0.44483 0.03882,-0.73995v-1.37008h5.1492v0.42976h-4.50773v0.99198h4.76428v0.4556h-0.67721l0.37888,0.27142c-0.22474,0.20249 -0.49026,0.39206 -0.79654,0.56869zM284.38646,201.3096c0.2864,-0.2111 0.51412,-0.40821 0.68317,-0.59132h-1.30368c0.17104,0.23696 0.37789,0.43407 0.62053,0.59132zM281.2122,197.62927h1.27092v0.36513h-1.27092zM281.2122,198.22383h1.27092v0.37158h-1.27092zM283.63162,197.62927h1.30964v0.36513h-1.30964zM283.63162,198.22383h1.30964v0.37158h-1.30964zM281.53735,199.54218h3.71417v0.42328h-3.71417z"></path>
        <path id="path21" d="M289.65784,196.68189h2.3389v0.54285h-1.32463v0.53638h1.24103v0.52346h-1.24103v0.9629h-2.40155v-0.9629h-0.97853v0.601c0,0.97583 -0.04773,1.74702 -0.1432,2.31358c-0.07359,0.43083 -0.19292,0.82397 -0.358,1.17943l-0.54296,-0.4653c0.15115,-0.35543 0.25457,-0.78951 0.31026,-1.30223c0.04971,-0.45021 0.07456,-1.02537 0.07456,-1.72548v-2.20368h2.35975v-0.58162h0.66528zM287.29204,197.22474v0.53638h0.97853v-0.53638zM288.90598,197.22474v0.53638h1.13063v-0.53638zM288.90598,198.28459v0.50084h1.13063v-0.50084zM289.5981,201.67738c-0.57478,0.32312 -1.30471,0.5687 -2.18978,0.73672l-0.31027,-0.59454c0.83133,-0.10771 1.48269,-0.2725 1.95408,-0.49437c-0.40374,-0.31666 -0.74881,-0.69257 -1.03522,-1.1277h-0.4117v-0.56223h3.49346l0.31325,0.28434c-0.29634,0.49331 -0.71898,0.95753 -1.26794,1.39266c0.47136,0.20464 1.11375,0.35543 1.92718,0.45237l-0.34904,0.61069c-0.77963,-0.11416 -1.48768,-0.34681 -2.12415,-0.69795zM288.71207,200.1975c0.24065,0.30589 0.53302,0.57516 0.87709,0.8078c0.38782,-0.27142 0.68715,-0.54069 0.89797,-0.8078z"></path>
        <path id="path22" d="M293.30907,197.29591h0.91587v0.99198h-0.91587zM293.30907,200.20726h0.91587v0.99198h-0.91587z"></path>
        <path id="path41" d="M250.7242,206.85994c0.13922,0.07755 0.29932,0.17018 0.48031,0.27789l-0.37888,0.33282h1.79592l0.33711,0.36512c-0.44749,0.73029 -0.894,1.33022 -1.33952,1.79979l-0.6056,-0.38452c0.3918,-0.38774 0.70604,-0.77332 0.94272,-1.15674h-1.48567v2.53327c0,0.29296 -0.06663,0.48037 -0.19988,0.56223c-0.0895,0.05599 -0.25657,0.08398 -0.5012,0.08398c-0.32021,0 -0.67322,-0.02154 -1.05905,-0.06463l-0.14618,-0.72056c0.37192,0.06459 0.70207,0.09689 0.99044,0.09689c0.10939,0 0.17701,-0.01939 0.20286,-0.05818c0.01992,-0.03233 0.02988,-0.09157 0.02988,-0.17772v-2.25541h-2.50004v-0.62352h3.23393c-0.67221,-0.41791 -1.34445,-0.77119 -2.01673,-1.05985l0.48329,-0.41682c0.45147,0.19603 0.85022,0.38667 1.19626,0.57193c0.30629,-0.22619 0.57478,-0.44806 0.80549,-0.66563h-3.18916v-0.61394h4.05729l0.36695,0.38775c-0.52108,0.45452 -1.02127,0.84981 -1.50056,1.18588z"></path>
        <path id="path42" d="M254.49073,207.23459c-0.25855,0.51053 -0.55788,0.92844 -0.89797,1.25373l-0.34308,-0.601c0.4455,-0.3662 0.82139,-0.86057 1.12765,-1.4831h-0.98747v-0.59454h1.10085v-0.78195h0.64141v0.78195h0.86217v0.59454h-0.86217v0.39422c0.35402,0.21972 0.66925,0.45236 0.94571,0.69794l-0.36098,0.5687c-0.18894,-0.22834 -0.38385,-0.43191 -0.58473,-0.6107v1.43794h-0.64141zM256.3225,208.78555c0.25457,0.2628 0.50517,0.57839 0.75179,0.94675l-0.53102,0.41037c-0.27446,-0.45883 -0.53998,-0.81642 -0.79654,-1.07275l0.42363,-0.31989v-3.48968h2.54769v3.52527zM256.77297,205.7902v0.49437h1.32761v-0.49437zM256.77297,206.78219v0.48791h1.32761v-0.48791zM256.77297,207.76125v0.49437h1.32761v-0.49437zM253.32727,210.76627c0.22872,-0.40498 0.40672,-0.9015 0.53401,-1.48955l0.62053,0.19064c-0.11138,0.69148 -0.30231,1.26987 -0.57279,1.73516zM254.95917,209.28317h0.65334v1.03076c0,0.13356 0.02985,0.21326 0.08955,0.23911c0.07557,0.03018 0.28441,0.04527 0.62649,0.04527c0.32617,0 0.54395,-0.01186 0.65334,-0.03559c0.07955,-0.01936 0.13027,-0.0689 0.15215,-0.14863c0.02985,-0.10771 0.04974,-0.30374 0.05967,-0.58809l0.65932,0.16479c-0.00794,0.32097 -0.02982,0.55038 -0.06563,0.68825c-0.04971,0.19603 -0.1233,0.32959 -0.22076,0.40068c-0.08353,0.06244 -0.20386,0.09906 -0.36098,0.10986c-0.32617,0.02151 -0.66128,0.03226 -1.00534,0.03226c-0.57876,0 -0.93178,-0.03662 -1.05905,-0.10986c-0.12132,-0.07109 -0.18198,-0.22188 -0.18198,-0.45237zM258.5958,211.0151c-0.24065,-0.62901 -0.50815,-1.16216 -0.8025,-1.59945l0.54595,-0.3522c0.32816,0.47391 0.60859,0.98552 0.84129,1.53482z"></path>
        <path id="path43" d="M261.96614,205.9025v-0.27789h-1.86453v-0.46206h4.40338v0.46206h-1.90335v0.27789h2.47015v1.15996h-0.64737v-0.74318h-1.82283v1.25696h-0.63544v-1.25696h-1.78997v0.74318h-0.64142v-1.15996zM264.07828,210.48761c0.3043,0.12495 0.68419,0.22404 1.13966,0.29728l-0.34905,0.54931c-0.63843,-0.11848 -1.16251,-0.32205 -1.57224,-0.6107c-0.40771,-0.28866 -0.72494,-0.64732 -0.95166,-1.07598h-0.65932v0.99522c0.43954,-0.06674 0.84726,-0.13783 1.22316,-0.21326l0.0418,0.48145c-0.70008,0.18095 -1.50059,0.3382 -2.40155,0.47176l-0.17601,-0.5687c0.31225,-0.03663 0.52605,-0.06248 0.64141,-0.07753l0.03584,-0.00624v-1.08243h-0.65334c-0.02786,0.37913 -0.07361,0.68179 -0.13724,0.90798c-0.07557,0.27142 -0.19689,0.52453 -0.36396,0.75934l-0.53102,-0.475c0.19491,-0.27357 0.31623,-0.59346 0.36396,-0.95967c0.02588,-0.19818 0.03882,-0.44483 0.03882,-0.73995v-1.37008h5.1492v0.42976h-4.50773v0.99198h4.76428v0.4556h-0.67722l0.37888,0.27142c-0.22474,0.20249 -0.49026,0.39206 -0.79654,0.56869zM263.6129,210.23881c0.2864,-0.21111 0.51412,-0.40821 0.68317,-0.59132h-1.30368c0.17104,0.23696 0.37789,0.43407 0.62053,0.59132zM260.43863,206.55848h1.27092v0.36513h-1.27092zM260.43863,207.15302h1.27092v0.37159h-1.27092zM262.85805,206.55848h1.30964v0.36513h-1.30964zM262.85805,207.15302h1.30964v0.37159h-1.30964zM260.76378,208.47138h3.71426v0.42328h-3.71426z"></path>
        <path id="path44" d="M268.88426,205.6111h2.3389v0.54285h-1.32463v0.53638h1.24103v0.52346h-1.24103v0.9629h-2.40155v-0.9629h-0.97853v0.601c0,0.97583 -0.04774,1.74702 -0.14321,2.31358c-0.07359,0.43084 -0.19292,0.82398 -0.35799,1.17943l-0.54296,-0.4653c0.15115,-0.35543 0.25457,-0.78951 0.31026,-1.30223c0.04971,-0.45021 0.07456,-1.02537 0.07456,-1.72548v-2.20368h2.35975v-0.58162h0.66527zM266.51856,206.15395v0.53638h0.97853v-0.53638zM268.13249,206.15395v0.53638h1.13063v-0.53638zM268.13249,207.2138v0.50084h1.13063v-0.50084zM268.82462,210.60658c-0.57479,0.32312 -1.30471,0.5687 -2.18978,0.73672l-0.31026,-0.59454c0.83133,-0.10771 1.48269,-0.27251 1.95408,-0.49438c-0.40374,-0.31666 -0.74882,-0.69256 -1.03522,-1.1277h-0.4117v-0.56223h3.49346l0.31325,0.28434c-0.29635,0.4933 -0.71899,0.95752 -1.26794,1.39266c0.47136,0.20465 1.11375,0.35544 1.92718,0.45237l-0.34905,0.6107c-0.77963,-0.11417 -1.48765,-0.34682 -2.12406,-0.69795zM267.93859,209.12671c0.24065,0.30589 0.53301,0.57516 0.87708,0.8078c0.38783,-0.27142 0.68716,-0.54069 0.89797,-0.8078z"></path>
        <path id="path45" d="M273.68851,206.06901c0.0895,0.14863 0.16508,0.29188 0.22673,0.42975l-0.63544,0.16479c-0.08751,-0.23695 -0.179,-0.43513 -0.27447,-0.59454h-0.31325c-0.16309,0.25635 -0.35004,0.48791 -0.56086,0.69471l-0.47136,-0.42975c0.37192,-0.33605 0.65533,-0.78626 0.85025,-1.35062l0.66527,0.10012c-0.06563,0.17233 -0.12729,0.31774 -0.18496,0.43621h1.29772v0.54931zM276.17058,206.06901c0.0895,0.13141 0.16607,0.25958 0.22971,0.38452l-0.60859,0.1971c-0.10143,-0.22188 -0.20087,-0.41575 -0.29832,-0.58162h-0.33413c-0.1074,0.20033 -0.21381,0.3662 -0.31921,0.49761h0.00288v0.34897h1.98089v0.52992h-1.98089v0.48145h2.58353v0.53639h-1.30666v0.52991h1.08893v0.56224h-1.08893v1.1762c0,0.22403 -0.06265,0.38021 -0.18795,0.46853c-0.10342,0.07324 -0.2854,0.10986 -0.54595,0.10986c-0.31821,0 -0.61455,-0.01617 -0.88902,-0.0485l-0.11635,-0.65594c0.34407,0.05384 0.64837,0.08076 0.91288,0.08076c0.06762,0 0.10939,-0.01617 0.1253,-0.0485c0.01191,-0.02588 0.01787,-0.07111 0.01787,-0.13571v-0.94675h-3.56206v-0.56224h3.56206v-0.52991h-3.81265v-0.53639h2.54779v-0.48145h-1.93611v-0.52992h1.93611v-0.34897h0.4475l-0.34308,-0.27142c0.28242,-0.32743 0.50418,-0.76043 0.66527,-1.299l0.63545,0.08076c-0.03581,0.10555 -0.0905,0.25311 -0.16408,0.44267h1.85559v0.54931zM273.4558,210.97726c-0.28441,-0.4416 -0.5708,-0.7895 -0.85918,-1.04372l0.51312,-0.36512c0.35999,0.27573 0.6613,0.587 0.90394,0.93382z"></path>
        <path id="path46" d="M278.6465,206.22511h0.91587v0.99198h-0.91587zM278.6465,209.13647h0.91587v0.99198h-0.91587z"></path>
        <path id="path47" d="M284.34434,207.36988h0.67721v1.77398c0.4654,0.22188 0.94172,0.51484 1.42898,0.87889l-0.34308,0.60424c-0.34209,-0.27142 -0.70407,-0.52346 -1.08595,-0.75611c-0.02184,0.38128 -0.1362,0.67425 -0.34308,0.87889c-0.23071,0.22619 -0.5539,0.33928 -0.96959,0.33928c-0.40175,0 -0.73289,-0.09909 -0.99342,-0.29727c-0.25457,-0.19603 -0.38186,-0.46961 -0.38186,-0.82074c0,-0.36836 0.1601,-0.66348 0.48031,-0.88535c0.24861,-0.17233 0.56683,-0.2585 0.95465,-0.2585c0.18099,0 0.37291,0.02369 0.57578,0.07108zM284.34434,209.56066c-0.23668,-0.08832 -0.46042,-0.13248 -0.67124,-0.13248c-0.20685,0 -0.37292,0.03985 -0.49821,0.11956c-0.1611,0.1034 -0.24165,0.24126 -0.24165,0.41359c0,0.2111 0.11536,0.36512 0.34607,0.46206c0.11535,0.04739 0.25358,0.07108 0.41467,0.07108c0.25855,0 0.44451,-0.11848 0.55788,-0.35544c0.06162,-0.12709 0.09243,-0.27573 0.09243,-0.44591zM281.14327,206.13239h1.13957c0.10143,-0.37267 0.18298,-0.70118 0.24463,-0.98552l0.65335,0.08721c-0.07956,0.31666 -0.1611,0.61608 -0.24463,0.89828h1.08893v0.64947h-1.28283c-0.35601,1.10508 -0.77366,2.03998 -1.25295,2.80469l-0.55489,-0.3425c0.45346,-0.72807 0.83633,-1.5488 1.1486,-2.46219h-0.93974zM286.12537,207.70603c-0.44153,-0.53208 -0.9487,-1.01676 -1.52151,-1.45407l0.39379,-0.4653c0.56882,0.39851 1.0879,0.86273 1.55725,1.39266z"></path>
        <path id="path48" d="M287.48632,205.29889h0.70406v3.85163c0,0.81209 0.39379,1.21814 1.18137,1.21814c0.5191,0 0.94472,-0.25957 1.27687,-0.77872c0.21479,-0.33389 0.40771,-0.85088 0.57876,-1.55096l0.6056,0.39744c-0.20286,0.77761 -0.4465,1.35922 -0.73091,1.74484c-0.44749,0.601 -1.02922,0.90151 -1.74519,0.90151c-0.7478,0 -1.27486,-0.24988 -1.58117,-0.74964c-0.19292,-0.31236 -0.28938,-0.71518 -0.28938,-1.20846z"></path>
      </g>
    </g>
  </g>
</svg>


