<svg xmlns="http://www.w3.org/2000/svg" id="svg1" version="1.1" height="200" width="1096">
  <defs id="defs1"></defs>
  <rect id="rect1" stroke="none" fill="none" height="200" width="1096" y="0" x="0"></rect>
  <path aria-label="静岡県伊豆地方" style="font-weight:bold;font-size:110px;font-family:'BIZ UDPGothic';fill:#ff0000" id="text1" d="m 84.648437,83.452148 h 17.402343 v 18.798832 h 5.96192 v 9.02343 h -5.96192 v 19.6045 H 82.714844 v 20.57129 q 0,4.51171 -1.879883,6.60644 -2.148438,2.30957 -7.304688,2.30957 -3.759765,0 -12.084961,-0.91309 l -1.987304,-10.3125 q 6.821289,1.07422 10.205078,1.07422 1.71875,0 2.202148,-0.64453 0.375977,-0.59082 0.375977,-2.30957 V 130.87891 H 55.322266 v -9.23828 H 72.241211 V 111.27441 H 51.884766 v -9.02343 H 72.241211 V 92.475586 H 57.954102 v -7.841797 q -1.396485,1.235352 -3.4375,2.84668 L 49.25293,80.12207 v 3.97461 H 33.837891 v 5.048828 h 19.49707 v 8.916015 H 2.7392578 V 89.145508 H 23.203125 V 84.09668 H 6.5527344 V 76.308594 H 23.203125 V 71.259766 H 4.1357422 V 63.095703 H 23.203125 v -7.143555 h 10.634766 v 7.143555 h 18.154296 v 8.164063 H 33.837891 v 5.048828 H 49.25293 v 2.846679 Q 60.478516,70.454102 67.407227,56.166992 l 7.197265,4.619141 h 15.791016 l 5.585937,4.941406 q -5.048828,9.291992 -11.333008,17.724609 z m -10.688476,0 q 6.391601,-8.916015 8.325195,-13.320312 H 70.522461 q -4.458008,6.713867 -11.333008,13.320312 z m 8.432617,9.023438 v 9.775394 H 92.490234 V 92.475586 Z M 92.490234,111.27441 H 82.392578 v 10.36622 h 10.097656 z m -43.452148,-7.68066 v 47.74902 q 0,5.26368 -2.900391,7.19727 -1.933593,1.23535 -6.552734,1.23535 -6.445313,0 -11.333008,-0.64453 l -1.879883,-9.77539 q 6.445313,0.75195 10.366211,0.75195 1.71875,0 1.987305,-0.91308 0.214844,-0.64454 0.214844,-2.14844 v -8.16406 H 17.133789 v 21.59179 H 7.0361328 v -56.87988 z m -31.904297,7.89551 v 6.06933 H 38.94043 v -6.06933 z m 0,13.64258 v 6.17675 H 38.94043 v -6.17675 z m 165.053711,6.49902 v -23.20313 h 10.20508 v 32.8711 h -44.79492 v 7.25097 h -10.20508 v -40.12207 h 10.20508 v 23.20313 h 11.87011 V 101.3916 h -27.55371 v -9.667967 h 38.24219 q 5.37109,-9.399414 9.23828,-20.893555 l 11.11817,3.867188 q -4.61915,9.721679 -9.61426,17.026367 h 17.34863 v 9.667967 h -28.57422 v 30.23926 z m 30.56152,-71.918946 v 89.965816 q 0,5.42481 -2.90039,7.78809 -2.79297,2.25586 -9.72168,2.25586 -5.4248,0 -18.53027,-0.91309 l -2.73926,-11.333 q 9.3457,1.12793 18.31543,1.12793 3.00781,0 3.54492,-1.02051 0.37598,-0.69824 0.37598,-2.73926 V 69.80957 h -72.08008 v 90.66406 H 117.3584 V 59.711914 Z M 146.8457,91.455078 q -3.59863,-8.59375 -8.16406,-15.683594 l 10.04395,-4.296875 q 5.04882,7.358399 8.43261,15.46875 z M 312.16797,58.583984 V 110.62988 H 248.25195 V 58.583984 Z m -52.36817,8.486328 v 6.713868 h 40.7129 v -6.713868 z m 0,14.28711 v 6.713867 h 40.7129 v -6.713867 z m 0,14.287109 v 6.928709 h 40.7129 v -6.928709 z m -21.6455,22.128909 h 89.05273 v 9.3457 h -44.41894 v 33.35449 H 270.5957 V 127.11914 H 226.3916 V 66.855469 h 11.7627 z m -13.75,32.4414 q 12.7832,-5.9082 24.43847,-19.81933 l 9.88282,5.74707 q -11.49414,14.55566 -25.5127,22.88086 z m 92.59765,6.92871 q -8.21777,-10.09765 -24.70703,-21.21582 l 9.23828,-6.49902 q 12.94434,7.46582 25.40528,19.60449 z M 429.47266,85.009766 h 8.27148 v 9.882812 h -8.27148 v 25.297852 h -27.39258 q -0.9668,14.87793 -6.17676,23.84766 -6.60645,11.44043 -16.81152,17.72461 l -8.59375,-8.59375 q 9.8291,-5.69336 15.57617,-15.52247 3.81348,-6.60644 4.51172,-17.45605 H 368.2959 v -9.99023 h 22.45117 V 94.892578 h -30.66895 v -9.882812 h 30.66895 V 70.668945 h -20.78613 v -9.990234 h 59.51172 z m -11.33301,0 V 70.668945 H 402.1875 v 14.340821 z m 0,9.882812 H 402.1875 V 110.2002 h 15.95215 z M 357.28516,82.592773 V 160.47363 H 345.7373 v -55.10742 q -3.9746,6.55274 -9.02343,13.53516 l -5.47852,-11.97754 q 9.07715,-12.299807 15.36133,-28.251955 3.9209,-9.882813 7.73437,-23.47168 l 11.65528,2.954102 q -4.18946,14.018555 -8.70117,24.438476 z m 176.87011,2.202149 V 120.5127 H 455.95215 V 84.794922 Z m -66.11816,9.345703 v 16.918945 h 53.92578 V 94.140625 Z m 3.86719,51.455075 q -2.57813,-9.72168 -8.91602,-19.92675 l 11.54785,-4.29688 q 5.58594,8.64746 9.56055,19.71191 l -10.47363,4.51172 h 31.68945 q 5.47852,-11.17187 9.61426,-24.76074 l 12.72949,3.86719 q -4.61914,11.33301 -9.99023,20.89355 h 29.59472 v 10.47364 H 442.73926 V 145.5957 Z M 446.12305,61.806641 h 97.80761 v 10.205078 h -97.80761 z m 160.16601,37.651367 v 42.539062 q 0,4.13574 3.54492,4.99512 3.65235,0.91308 16.70411,0.91308 12.72949,0 16.81152,-1.28906 2.30957,-0.75195 3.00781,-4.18945 0.91309,-4.83399 0.9668,-11.44043 l 11.22558,3.16894 Q 657.69043,150 654.19922,154.4043 q -2.30957,2.90039 -6.98242,3.4375 -7.3584,0.80566 -24.97559,0.80566 -13.64258,0 -17.88574,-0.75195 -6.3916,-1.07422 -8.11035,-5.63965 -0.85938,-2.41699 -0.85938,-6.44531 v -42.59278 l -10.25879,3.54493 -2.52441,-10.419927 12.7832,-4.404296 V 62.988281 h 10.90332 v 25.19043 l 11.54785,-3.920899 V 55.952148 h 10.7959 v 24.545899 l 17.99317,-6.176758 5.63964,3.4375 v 40.229491 q 0,4.18945 -1.9873,6.23047 -2.25586,2.25586 -7.57324,2.25586 -4.35059,0 -9.23828,-0.75195 l -1.77246,-10.25879 q 3.16894,0.80566 6.44531,0.80566 2.36328,0 2.90039,-0.9668 0.53711,-0.80566 0.53711,-2.68554 V 87.211914 l -12.94434,4.511719 v 43.452147 h -10.7959 V 95.429687 Z M 566.81152,81.894531 V 55.952148 h 11.54785 v 25.942383 h 10.41993 v 10.903321 h -10.41993 v 34.160158 q 5.63965,-1.9336 11.17188,-4.02832 l 1.02051,10.36621 q -17.40235,7.94922 -35.71778,13.32031 l -3.75976,-11.44043 q 8.27148,-2.14844 14.50195,-4.08203 0.75195,-0.26855 1.23535,-0.37598 V 92.797852 H 553.16895 V 81.894531 Z m 145.3418,3.007813 q -0.37598,8.969726 -1.07422,15.791016 h 43.29102 q -0.80567,37.27539 -4.18946,48.39355 -1.71875,5.58594 -6.3916,7.73438 -3.65234,1.66504 -10.68847,1.66504 -7.41211,0 -16.81153,-1.12793 l -2.09472,-12.08496 q 12.62207,1.77246 17.77832,1.77246 4.35058,0 5.53222,-2.4707 2.84668,-6.01563 3.97461,-33.19336 h -31.95801 q -1.77246,9.66796 -4.99511,16.75781 -8.96973,19.60449 -29.97071,31.09863 l -8.48632,-9.45312 q 21.05468,-10.95704 27.82226,-28.73536 4.51172,-11.87011 5.85449,-36.147456 H 664.18945 V 73.891602 h 43.88184 V 55.952148 h 12.40723 v 17.939454 h 45.33203 v 11.010742 z"></path>
</svg>
