<svg xmlns="http://www.w3.org/2000/svg" id="svg1" version="1.1" height="200" width="990">
  <defs id="defs1"></defs>
  <rect id="rect1" stroke="none" fill="none" height="200" width="990" y="0" x="0"></rect>
  <path aria-label="南太平洋" style="font-size:100px;font-family:'BIZ UDPGothic';fill:#ff0000" id="text1" d="m 53.515625,93.994141 h 37.060547 v 57.324219 q 0,3.90625 -1.611328,5.66406 -1.904297,2.05078 -8.007813,2.05078 -5.761719,0 -11.18164,-0.63476 l -1.708985,-7.42188 q 8.886719,0.92774 12.060547,0.92774 1.855469,0 2.294922,-0.87891 0.244141,-0.53711 0.244141,-1.61133 V 100.39063 H 17.1875 v 59.13085 H 9.2773438 V 93.994141 H 45.800781 V 83.007812 H 2.4902344 V 76.318359 H 45.800781 V 64.501953 h 7.714844 v 11.816406 h 43.945312 v 6.689453 H 53.515625 Z M 45.898437,121.77734 H 23.681641 v -6.20117 h 11.865234 q -2.148438,-5.32226 -5.371094,-10.49804 l 6.738281,-2.5879 q 4.052735,7.12891 6.201172,13.08594 H 56.25 q 3.320312,-6.05469 5.761719,-13.28125 l 7.421875,2.58789 q -2.392578,4.98047 -5.322266,9.96094 l -0.390625,0.73242 h 12.402344 v 6.20117 H 53.417969 v 9.13086 H 78.125 v 6.29883 H 53.417969 v 19.92188 H 45.898437 V 137.20703 H 21.875 V 130.9082 H 45.898437 Z M 155.37109,95.507812 q 4.98047,17.187498 16.45508,31.982418 10.88867,14.16016 25.78125,22.90039 l -4.98047,7.51954 q -14.99023,-9.32618 -26.70898,-24.90235 -9.86328,-13.08593 -15.03906,-29.3457 -3.32032,14.50195 -9.61914,25.24414 11.03515,7.51953 18.84765,14.59961 l -5.07812,6.10351 q -7.47071,-7.27539 -17.62696,-14.64843 -0.19531,0.29297 -0.48828,0.68359 -9.66797,13.62305 -27.39258,23.04688 l -5.61523,-6.78711 q 16.35742,-7.08008 26.95312,-21.24024 6.34766,-8.44726 10.74219,-21.67968 2.49024,-7.42188 3.4668,-13.476568 h -40.18555 v -7.421875 h 40.72266 V 65.087891 h 8.20312 v 22.998046 h 41.3086 v 7.421875 z m 98.24219,-18.847656 v 40.722654 h 43.89649 v 7.17774 h -43.89649 v 34.91211 h -7.91016 v -34.91211 h -43.21289 v -7.17774 h 43.21289 V 76.660156 h -38.62304 v -7.080078 h 85.9375 v 7.080078 z M 225.09766,112.5 Q 219.92187,97.607422 213.96484,85.986328 l 7.32422,-3.271484 q 5.41992,9.472656 11.66992,26.464846 z m 41.35742,-2.97852 q 6.83594,-12.451168 11.52344,-27.929683 l 8.00781,2.685547 q -4.78516,14.550781 -12.40235,28.417966 z m 92.72461,-21.923824 h -27.00196 v -6.689453 h 15.08789 q -3.46679,-8.007812 -7.27539,-13.525391 l 7.08008,-2.880859 q 4.6875,7.714844 7.8125,16.40625 h 16.74805 l 0.3418,-0.683594 q 3.51562,-7.177734 6.39648,-15.820312 l 8.00781,2.392578 q -2.88086,6.689453 -6.93359,14.111328 h 15.13672 v 6.689453 h -27.49024 v 15.625004 h 24.51172 v 6.59179 h -24.51172 v 16.60157 h 30.41993 v 6.88476 h -30.41993 v 26.2207 h -7.91015 v -26.2207 h -29.98047 v -6.88476 h 29.98047 v -16.60157 h -24.31641 v -6.59179 h 24.31641 z M 320.89844,86.523437 Q 314.35547,78.173828 305.9082,71.09375 l 5.3711,-5.273438 q 8.59375,6.542969 15.33203,14.892579 z m -3.51563,25.488283 q -7.66601,-9.17969 -15.38086,-15.332033 l 5.41992,-5.46875 q 8.39844,6.445313 15.57618,14.892583 z m -13.18359,40.57617 q 8.88672,-11.96289 16.89453,-32.4707 L 327.19727,125 q -7.17774,20.26367 -16.69922,33.69141 z"></path>
</svg>
