<svg xmlns="http://www.w3.org/2000/svg" id="svg1" version="1.1" height="200" width="990">
  <defs id="defs1"></defs>
  <rect id="rect1" stroke="none" fill="none" height="200" width="990" y="0" x="0"></rect>
  <path aria-label="宮崎県南部山沿い" style="font-size:100px;font-family:'BIZ UDPGothic';fill:#ff0000" id="text1" d="m 53.417969,75.195312 h 39.990234 v 19.726563 h -7.8125 V 81.591797 H 13.916016 V 94.921875 H 6.2011719 V 75.195312 H 45.703125 V 64.501953 h 7.714844 z m 26.171875,16.015625 v 24.902343 h -27.34375 q -1.220703,4.49219 -3.90625,10.49805 h 40.478515 v 32.91015 h -8.203125 v -5.32226 H 19.384766 v 5.32226 h -8.105469 v -32.91015 h 28.955078 q 2.490234,-5.95703 3.710937,-10.49805 H 19.580078 V 91.210937 Z m -52.09961,6.201172 V 109.91211 H 71.679687 V 97.412109 Z m -8.105468,35.498051 v 14.89257 H 80.615234 V 132.91016 Z M 188.37891,110.00977 v 41.40625 q 0,4.44335 -2.2461,6.25 -2.00195,1.66015 -6.83594,1.66015 -6.10351,0 -12.01171,-0.58594 l -1.70899,-7.32421 q 7.4707,1.02539 12.10938,1.02539 2.29492,0 2.83203,-0.92774 0.43945,-0.68359 0.43945,-2.19726 v -39.30664 h -44.28711 v 30.81054 h -25.78125 v 8.10547 h -6.59179 V 82.617187 h 6.59179 v 51.220703 h 6.29883 V 65.625 h 6.68945 v 68.21289 h 6.39649 V 82.617187 h 6.39648 v 20.800783 h 60.88867 v 6.5918 z M 161.47461,74.609375 V 64.501953 h 7.32422 v 10.107422 h 23.87695 v 6.494141 H 168.4082 q -0.34179,1.416015 -0.73242,2.539062 11.76758,5.078125 23.82813,12.353516 l -4.6875,5.615236 q -10.15625,-6.689455 -21.82618,-12.695314 -3.07617,4.492187 -6.93359,7.324218 -5.17578,3.710938 -13.57422,5.957036 l -4.10156,-5.712895 q 9.86328,-2.392578 14.50195,-6.494141 4.83399,-4.248047 6.15235,-8.886718 h -20.94727 v -6.494141 z m 11.32812,43.798825 v 24.80469 h -22.41211 v 5.27344 h -6.59179 V 118.4082 Z m -22.41211,6.29883 v 12.30469 h 15.91797 V 124.70703 Z M 282.86133,67.578125 V 114.4043 H 225.78125 V 67.578125 Z m -49.36524,6.005859 v 7.714844 h 41.55274 v -7.714844 z m 0,13.330078 v 7.763672 h 41.55274 v -7.763672 z m 0,13.476568 v 8.30078 h 41.55274 v -8.30078 z M 214.4043,122.2168 h 83.05664 v 6.49414 h -41.99219 v 30.81054 h -7.91016 V 128.71094 H 206.5918 V 74.267578 h 7.8125 z m -9.22852,29.6875 q 12.79297,-6.15235 23.0957,-19.28711 l 6.5918,3.66211 q -10.40039,13.62304 -24.07226,21.72851 z m 84.17969,4.10156 q -10.25391,-11.18164 -23.29102,-19.82422 l 6.00586,-4.49219 q 11.76758,7.37305 23.68164,18.79883 z m 64.16015,-62.011719 h 37.06055 v 57.324219 q 0,3.90625 -1.61133,5.66406 -1.90429,2.05078 -8.00781,2.05078 -5.76172,0 -11.18164,-0.63476 l -1.70898,-7.42188 q 8.88671,0.92774 12.06054,0.92774 1.85547,0 2.29492,-0.87891 0.24415,-0.53711 0.24415,-1.61133 V 100.39063 H 317.1875 v 59.13085 h -7.91016 V 93.994141 h 36.52344 V 83.007812 h -43.31055 v -6.689453 h 43.31055 V 64.501953 h 7.71484 v 11.816406 h 43.94532 v 6.689453 h -43.94532 z m -7.61718,27.783199 h -22.2168 v -6.20117 h 11.86523 q -2.14843,-5.32226 -5.37109,-10.49804 l 6.73828,-2.5879 q 4.05274,7.12891 6.20117,13.08594 H 356.25 q 3.32031,-6.05469 5.76172,-13.28125 l 7.42187,2.58789 q -2.39257,4.98047 -5.32226,9.96094 l -0.39063,0.73242 h 12.40235 v 6.20117 h -22.70508 v 9.13086 H 378.125 v 6.29883 h -24.70703 v 19.92188 h -7.51953 V 137.20703 H 321.875 v -6.29883 h 24.02344 z m 88.08593,-45.166012 h 21.82618 v 6.787109 h -7.03125 q -2.05078,9.13086 -5.61524,18.701173 h 14.45313 v 6.88477 h -55.12696 v -6.88477 h 13.72071 l -0.0977,-0.48828 Q 414.0625,91.601562 411.71875,84.423828 l -0.3418,-1.025391 h -7.08008 v -6.787109 h 22.2168 V 64.501953 h 7.4707 z m -15.13671,6.787109 q 2.58789,7.958985 4.73632,18.701173 h 12.15821 q 2.92968,-8.105469 5.32226,-18.701173 z m 31.83593,35.888673 v 39.30664 h -7.32422 v -5.51758 h -25.97656 v 6.39649 h -7.56836 v -40.18555 z m -33.30078,6.68945 v 20.3125 h 25.97656 v -20.3125 z m 65.42969,-22.70508 q 12.8418,13.57422 12.8418,29.44336 0,5.56641 -2.00196,8.39844 -2.4414,3.27149 -8.49609,3.27149 -5.81055,0 -10.69336,-0.6836 l -1.61133,-7.61719 q 6.25,1.02539 10.15625,1.02539 3.71094,0 4.39453,-2.49023 0.29297,-1.07422 0.29297,-3.51562 0,-13.72071 -12.64648,-26.70899 5.85937,-12.695311 9.52148,-26.708983 h -15.42969 v 81.787113 h -7.37304 V 70.507812 h 27.49023 l 4.39453,3.808594 q -5.37109,17.382813 -10.83984,28.955074 z m 70.80078,38.62305 h 28.17383 V 85.302734 h 8.10547 v 73.388676 h -8.10547 v -9.17969 h -63.67188 v 9.17969 h -8.10546 V 85.302734 h 8.10546 v 56.591796 h 27.49024 V 65.478516 h 8.00781 z m 134.66797,-28.51562 v 46.09375 h -8.00781 v -6.39649 h -35.0586 v 6.39649 h -7.91015 v -46.09375 z m -43.06641,6.88476 v 25.83008 h 35.0586 V 120.26367 Z M 622.70508,86.376953 q -7.56836,-8.642578 -15.625,-14.990234 l 5.22461,-5.566407 q 8.74023,6.396485 15.67383,14.501954 z m -4.6875,26.025387 q -8.00781,-8.78906 -16.01563,-14.892574 l 5.17578,-5.810547 q 9.375,6.835937 16.40625,14.599611 z m -14.20899,39.99024 q 9.52149,-12.15821 18.11524,-31.98242 l 6.05469,5.27343 q -7.71485,19.23828 -17.57813,32.91016 z m 24.80469,-47.2168 q 10.00977,-10.009764 15.52734,-23.388671 2.83204,-6.884765 4.88282,-15.966797 l 7.4707,2.09961 q -5.27344,25.927734 -22.31445,43.457028 z m 62.5,5.41992 Q 674.02344,92.041016 665.38086,67.675781 l 7.12891,-2.880859 q 5.76171,14.84375 13.13476,25.488281 4.88281,7.080078 11.37695,13.720707 z m 57.66602,17.67578 q -4.00391,11.47461 -9.32618,18.75 -4.19921,5.71289 -9.0332,5.71289 -7.22656,0 -12.5,-10.88867 -4.3457,-8.88672 -5.81055,-19.82422 -1.75781,-12.84179 -1.75781,-29.394527 0,-8.398437 0.63477,-17.333984 l 8.10547,0.585937 q -0.53711,7.958985 -0.53711,15.38086 0,22.607424 2.58789,34.472654 2.00195,9.42383 5.12695,14.0625 2.34375,3.51563 4.10156,3.51563 1.75782,0 4.29688,-3.8086 3.90625,-5.76172 7.8125,-16.21093 z m 33.59375,9.61914 q -2.53907,-19.58007 -6.10352,-32.61718 -3.66211,-13.232424 -9.76562,-25.878909 l 7.37304,-1.80664 q 7.03125,13.769531 10.98633,27.587889 3.36914,11.96289 5.71289,30.71289 z"></path>
</svg>
