<svg xmlns="http://www.w3.org/2000/svg" id="svg1" version="1.1" height="200" width="1096">
  <defs id="defs1"></defs>
  <rect id="rect1" stroke="none" fill="none" height="200" width="1096" y="0" x="0"></rect>
  <path aria-label="浦河沖" style="font-weight:bold;font-size:110px;font-family:'BIZ UDPGothic';fill:#ff0000" id="text1" d="m 72.294922,80.014648 v 8.271485 h 29.487308 v 63.271487 q 0,4.83398 -2.470707,6.71386 -2.094726,1.55762 -7.412109,1.55762 -6.123047,0 -11.010742,-0.69824 l -1.772461,-10.47363 q 5.478516,0.80566 9.023437,0.80566 1.987305,0 2.416993,-1.02051 0.322265,-0.75195 0.322265,-2.09472 V 133.94043 H 72.080078 v 23.74023 H 61.391602 V 133.94043 H 44.472656 v 26.5332 H 33.569336 V 88.286133 H 61.176758 V 80.014648 H 28.950195 V 70.024414 H 61.176758 V 55.952148 h 11.118164 v 14.072266 h 18.422851 q -5.74707,-5.74707 -11.923828,-9.882812 l 8.647461,-4.833985 q 6.660156,3.867188 13.803714,10.634766 l -6.552737,4.082031 h 12.568357 v 9.990234 z M 61.391602,97.416992 H 44.472656 v 9.023438 h 16.918946 z m 10.688476,0 v 9.023438 H 90.878906 V 97.416992 Z M 61.391602,115.1416 H 44.472656 v 10.20508 h 16.918946 z m 10.688476,0 v 10.20508 H 90.878906 V 115.1416 Z M 19.711914,81.25 Q 13.588867,72.226562 4.1894531,63.955078 L 12.568359,56.05957 q 9.345703,8.00293 15.737305,16.381836 z m -2.739258,27.60742 Q 9.5068359,98.813477 1.5576172,91.132812 L 9.453125,83.237305 q 8.701172,7.250976 16.328125,17.133785 z M 3.0078125,152.41699 Q 11.547852,138.02246 18.852539,114.81934 l 10.097656,5.9082 Q 22.612305,143.125 13.320313,160.58105 Z M 207.48535,73.354492 v 75.410158 q 0,6.60644 -3.4375,9.02344 -2.73926,1.87988 -9.3457,1.87988 -8.21778,0 -16.27442,-0.75195 l -2.73925,-11.44043 q 9.72168,1.23535 16.91894,1.23535 2.57813,0 3.11524,-0.9668 0.42968,-0.75195 0.42968,-2.79297 V 73.354492 H 140.56152 V 62.773437 h 77.45118 v 10.581055 z m -21.26953,13.75 v 42.646488 h -27.66113 v 8.27148 H 147.86621 V 87.104492 Z m -27.66113,9.345703 v 23.847655 h 17.29492 V 96.450195 Z M 131.80664,83.022461 Q 123.15918,72.817383 114.29688,65.620117 l 8.16406,-7.895508 q 9.8291,7.304688 17.34863,16.704102 z M 129.01367,110.7373 Q 119.8291,100.10254 111.9873,93.442383 l 7.89551,-8.110352 q 9.18457,6.552735 17.61719,16.704099 z m -15.36133,40.82032 q 10.90332,-14.98535 20.67871,-37.65137 l 9.45313,6.60645 q -7.73438,21.37695 -20.24902,39.58496 z M 283.70117,75.986328 v -20.03418 h 11.54785 v 20.03418 h 29.11133 v 48.608402 h -29.11133 v 35.8789 h -11.54785 v -35.8789 H 255.18066 V 75.986328 Z m -17.40234,10.688477 v 27.338865 h 17.40234 V 86.674805 Z m 46.62109,27.338865 V 86.674805 h -17.6709 v 27.338865 z m -68.75,-31.796873 q -6.55273,-9.13086 -17.34863,-17.456055 l 8.00293,-8.164062 q 10.74219,7.573242 18.1543,16.972656 z m -3.49121,27.607423 q -9.3457,-10.849611 -18.1543,-17.778322 l 8.27149,-8.271484 q 9.39941,6.606445 18.58398,17.080076 z m -16.7041,41.62598 q 10.3125,-14.66309 19.01367,-36.52344 l 9.56055,7.3584 q -7.3584,20.1416 -17.93946,37.91992 z"></path>
</svg>
