<svg version="1.1" xmlns="http://www.w3.org/2000/svg" xmlns:xlink="http://www.w3.org/1999/xlink" width="168.1" height="32.765" viewBox="0,0,168.1,32.765"><g transform="translate(-239.92393,-179.81899)"><g stroke="none" stroke-miterlimit="10"><path d="M247.92393,179.81899h152.1c4.432,0 8,3.568 8,8v16.765c0,4.432 -3.568,8 -8,8h-152.1c-4.432,0 -8,-3.568 -8,-8v-16.765c0,-4.432 3.568,-8 8,-8z" fill-opacity="0.7" fill="#000000" fill-rule="evenodd" stroke-width="0"/><g fill="#ffffff" fill-rule="nonzero" stroke-width="3.00094"><path d="M248.34163,187.42107h4.33594l0.51563,0.60938l-0.29687,0.16406c-1.25,0.69271 -2.22396,1.24089 -2.92187,1.64453c1.63542,-0.0651 3.02995,-0.13151 4.18359,-0.19922l0.06641,0.82422l-1.29687,0.05469c-0.64062,0.02865 -1.23047,0.17578 -1.76953,0.44141c-0.7526,0.3724 -1.12891,0.84115 -1.12891,1.40625c0,0.44271 0.25781,0.74609 0.77344,0.91016c0.40625,0.1276 1.0612,0.19271 1.96484,0.19531v0.84766c-1.14844,-0.0026 -1.97917,-0.11458 -2.49219,-0.33594c-0.73958,-0.3151 -1.10937,-0.82422 -1.10937,-1.52734c0,-0.86979 0.58724,-1.51042 1.76172,-1.92187c-0.61979,0.02083 -1.71224,0.07422 -3.27734,0.16016l-0.28516,0.01563l-0.05469,-0.81641c0.44271,0 0.89063,-0.00781 1.34375,-0.02344c1.06771,-0.66146 2.0625,-1.22657 2.98437,-1.69532h-3.29688zM258.99397,193.36248c1.52865,-0.38542 2.29297,-1.26172 2.29297,-2.62891c0,-0.59635 -0.15365,-1.10938 -0.46094,-1.53906c-0.34375,-0.48437 -0.86719,-0.79557 -1.57031,-0.93359c-0.15365,1.20833 -0.36328,2.19792 -0.62891,2.96875c-0.18229,0.53906 -0.40885,1.04818 -0.67969,1.52734c-0.39062,0.68229 -0.83464,1.02344 -1.33203,1.02344c-0.36979,0 -0.69922,-0.16667 -0.98828,-0.5c-0.1849,-0.21094 -0.33464,-0.47005 -0.44922,-0.77734c-0.15104,-0.39844 -0.22656,-0.82682 -0.22656,-1.28516c0,-0.74219 0.20443,-1.42578 0.61328,-2.05078c0.41406,-0.63802 0.95182,-1.10156 1.61328,-1.39062c0.48177,-0.21094 1.01042,-0.31641 1.58594,-0.31641c0.89844,0 1.66146,0.24089 2.28906,0.72266c0.77083,0.59115 1.15625,1.42839 1.15625,2.51172c0,1.8151 -0.91797,2.96615 -2.75391,3.45313zM258.40803,188.22966c-0.46094,0.05208 -0.84635,0.17578 -1.15625,0.37109c-0.19792,0.1276 -0.39453,0.29688 -0.58984,0.50781c-0.54167,0.59896 -0.8125,1.29297 -0.8125,2.08203c0,0.57552 0.11458,1.02604 0.34375,1.35156c0.14063,0.20052 0.27995,0.30078 0.41797,0.30078c0.1875,0 0.39844,-0.20703 0.63281,-0.62109c0.57292,-1.00781 0.96094,-2.33854 1.16406,-3.99219zM266.69319,190.11248v3.09375c0,0.20052 0.08594,0.32161 0.25781,0.36328c0.17708,0.04427 0.58203,0.06641 1.21484,0.06641c0.61719,0 1.02474,-0.03125 1.22266,-0.09375c0.11198,-0.03646 0.1849,-0.13802 0.21875,-0.30469c0.04427,-0.23438 0.06771,-0.51172 0.07031,-0.83203l0.81641,0.23047c-0.04167,0.76823 -0.14714,1.25912 -0.31641,1.47266c-0.11198,0.14062 -0.28125,0.22396 -0.50781,0.25c-0.35677,0.03906 -0.96224,0.05859 -1.81641,0.05859c-0.66146,0 -1.09505,-0.01823 -1.30078,-0.05469c-0.3099,-0.05209 -0.50651,-0.18881 -0.58984,-0.41016c-0.04167,-0.11719 -0.0625,-0.27344 -0.0625,-0.46875v-3.09766l-0.74609,0.25781l-0.18359,-0.75781l0.92969,-0.32031v-2.10547h0.79297v1.83203l0.83984,-0.28516v-2.05859h0.78516v1.78516l1.30859,-0.44922l0.41016,0.25v2.92578c0,0.20313 -0.04818,0.35417 -0.14453,0.45313c-0.10938,0.10938 -0.29297,0.16406 -0.55078,0.16406c-0.21094,0 -0.4349,-0.01823 -0.67187,-0.05469l-0.12891,-0.74609c0.15365,0.03906 0.3099,0.05859 0.46875,0.05859c0.11458,0 0.1849,-0.02344 0.21094,-0.07031c0.02604,-0.03906 0.03906,-0.10416 0.03906,-0.19531v-1.84765l-0.94141,0.32813v3.16016h-0.78515v-2.89062zM263.82209,188.83513v-1.88672h0.83984v1.88672h0.75781v0.79297h-0.75781v2.48438c0.27344,-0.09375 0.54427,-0.19141 0.8125,-0.29297l0.07422,0.75391c-0.84375,0.38542 -1.70964,0.70833 -2.59766,0.96875l-0.27344,-0.83203c0.40104,-0.10417 0.7526,-0.20312 1.05469,-0.29687c0.03646,-0.01302 0.06641,-0.02213 0.08984,-0.02734v-2.75782h-0.99218v-0.79297zM277.46272,188.3156c-0.01302,-0.02604 -0.02474,-0.05208 -0.03516,-0.07812c-0.15104,-0.34115 -0.36328,-0.67448 -0.63672,-1l0.64844,-0.30469c0.28906,0.32292 0.52344,0.67448 0.70313,1.05469l-0.625,0.32813h0.82422v0.71875h-1.80469l0.0078,0.15625c0.03906,0.82292 0.11849,1.53385 0.23828,2.13281c0.21615,-0.47396 0.41146,-1.0013 0.58594,-1.58203l0.72656,0.3125c-0.3099,0.88021 -0.65495,1.64974 -1.03516,2.30859c0.10937,0.32552 0.23177,0.61068 0.36719,0.85547c0.05209,0.09375 0.09115,0.14063 0.11719,0.14063c0.02865,0 0.07162,-0.07812 0.12891,-0.23437c0.06511,-0.1849 0.11719,-0.5026 0.15625,-0.95312l0.64844,0.45703c-0.08594,0.67187 -0.19531,1.16016 -0.32812,1.46484c-0.11719,0.26562 -0.26432,0.39844 -0.44141,0.39844c-0.17448,0 -0.3776,-0.13021 -0.60937,-0.39062c-0.22396,-0.2526 -0.42057,-0.5612 -0.58984,-0.92578c-0.44531,0.5599 -0.95443,1.03906 -1.52734,1.4375l-0.57422,-0.58984c0.4974,-0.29948 0.93359,-0.65104 1.30859,-1.05469c-0.63802,0.25 -1.47917,0.48568 -2.52344,0.70703l-0.25779,-0.72656c1.08594,-0.17969 2.02474,-0.39062 2.81641,-0.63281l0.02734,0.57813c0.14063,-0.15625 0.28125,-0.33724 0.42188,-0.54297c-0.21875,-0.75781 -0.36849,-1.86328 -0.44922,-3.31641h-2.56641v0.55469h-0.63281v2.57031c0.23958,-0.09896 0.45833,-0.19271 0.65625,-0.28125l0.08594,0.76563c-0.77344,0.41146 -1.54557,0.74479 -2.31641,1l-0.28125,-0.82422c0.29427,-0.08333 0.64063,-0.19661 1.03906,-0.33984v-2.89062h-0.91797v-0.77734h0.91797v-1.87891h0.81641v1.87891h0.55859v-0.49609h2.60547l-0.01563,-0.27344c-0.01302,-0.2474 -0.02604,-0.61198 -0.03906,-1.09375h0.80078c0.01563,0.67708 0.02995,1.13281 0.04297,1.36719zM275.56819,189.71013v2.35938h-2.08594v-2.35937zM274.14631,190.34295v1.10156h0.77344v-1.10156zM282.99397,193.36248c1.52865,-0.38542 2.29297,-1.26172 2.29297,-2.62891c0,-0.59635 -0.15365,-1.10938 -0.46094,-1.53906c-0.34375,-0.48437 -0.86719,-0.79557 -1.57031,-0.93359c-0.15365,1.20833 -0.36328,2.19792 -0.62891,2.96875c-0.18229,0.53906 -0.40885,1.04818 -0.67969,1.52734c-0.39062,0.68229 -0.83464,1.02344 -1.33203,1.02344c-0.36979,0 -0.69922,-0.16667 -0.98828,-0.5c-0.1849,-0.21094 -0.33464,-0.47005 -0.44922,-0.77734c-0.15104,-0.39844 -0.22656,-0.82682 -0.22656,-1.28516c0,-0.74219 0.20443,-1.42578 0.61328,-2.05078c0.41406,-0.63802 0.95182,-1.10156 1.61328,-1.39062c0.48177,-0.21094 1.01042,-0.31641 1.58594,-0.31641c0.89844,0 1.66146,0.24089 2.28906,0.72266c0.77083,0.59115 1.15625,1.42839 1.15625,2.51172c0,1.8151 -0.91797,2.96615 -2.75391,3.45313zM282.40803,188.22966c-0.46094,0.05208 -0.84635,0.17578 -1.15625,0.37109c-0.19792,0.1276 -0.39453,0.29688 -0.58984,0.50781c-0.54167,0.59896 -0.8125,1.29297 -0.8125,2.08203c0,0.57552 0.11458,1.02604 0.34375,1.35156c0.14063,0.20052 0.27995,0.30078 0.41797,0.30078c0.1875,0 0.39844,-0.20703 0.63281,-0.62109c0.57292,-1.00781 0.96094,-2.33854 1.16406,-3.99219zM291.42756,189.15545c0.18229,0.09375 0.39193,0.20573 0.62891,0.33594l-0.49609,0.40234h2.35156l0.44141,0.44141c-0.58594,0.88281 -1.17057,1.60807 -1.75391,2.17578l-0.79297,-0.46484c0.51302,-0.46875 0.92448,-0.9349 1.23438,-1.39844h-1.94531v3.0625c0,0.35417 -0.08724,0.58073 -0.26172,0.67969c-0.11719,0.06771 -0.33594,0.10156 -0.65625,0.10156c-0.41927,0 -0.88151,-0.02604 -1.38672,-0.07813l-0.19141,-0.87109c0.48698,0.07813 0.91927,0.11719 1.29688,0.11719c0.14323,0 0.23177,-0.02344 0.26563,-0.07031c0.02604,-0.03906 0.03906,-0.11067 0.03906,-0.21484v-2.72657h-3.27344v-0.75391h4.23438c-0.88021,-0.50521 -1.76042,-0.93229 -2.64062,-1.28125l0.63281,-0.50391c0.59115,0.23698 1.11328,0.46745 1.56641,0.69141c0.40104,-0.27344 0.7526,-0.54167 1.05469,-0.80469h-4.17578v-0.74219h5.3125l0.48047,0.46875c-0.68229,0.54948 -1.33724,1.02734 -1.96484,1.43359zM296.36116,189.61638c-0.33854,0.61719 -0.73047,1.1224 -1.17578,1.51563l-0.44922,-0.72656c0.58333,-0.44271 1.07552,-1.04037 1.47656,-1.79297h-1.29297v-0.71875h1.44141v-0.94531h0.83984v0.94531h1.12891v0.71875h-1.12891v0.47656c0.46354,0.26563 0.8763,0.54687 1.23828,0.84375l-0.47266,0.6875c-0.2474,-0.27604 -0.5026,-0.52214 -0.76562,-0.73828v1.73828h-0.83984zM298.75959,191.49138c0.33333,0.31771 0.66146,0.69922 0.98438,1.14453l-0.69531,0.49609c-0.35938,-0.55469 -0.70703,-0.98698 -1.04297,-1.29687l0.55469,-0.38672v-4.21875h3.33594v4.26172zM299.34944,187.87029v0.59766h1.73828v-0.59766zM299.34944,189.06951v0.58984h1.73828v-0.58984zM299.34944,190.2531v0.59766h1.73828v-0.59766zM294.83772,193.88591c0.29948,-0.48958 0.53255,-1.08984 0.69922,-1.80078l0.8125,0.23047c-0.14583,0.83594 -0.39583,1.53516 -0.75,2.09766zM296.97444,192.09295h0.85547v1.24609c0,0.16146 0.03906,0.25781 0.11719,0.28906c0.09896,0.03646 0.3724,0.05469 0.82031,0.05469c0.42708,0 0.71224,-0.01432 0.85547,-0.04297c0.10417,-0.02344 0.17057,-0.08334 0.19922,-0.17969c0.03906,-0.13021 0.0651,-0.36719 0.07813,-0.71094l0.86328,0.19922c-0.01042,0.38802 -0.03907,0.66537 -0.08594,0.83203c-0.06511,0.23698 -0.16146,0.39844 -0.28906,0.48438c-0.10938,0.07552 -0.26693,0.11979 -0.47266,0.13281c-0.42708,0.02604 -0.86589,0.03906 -1.31641,0.03906c-0.75781,0 -1.22005,-0.04427 -1.38672,-0.13281c-0.15885,-0.08594 -0.23828,-0.26823 -0.23828,-0.54687zM301.73616,194.1867c-0.3151,-0.76042 -0.66536,-1.40495 -1.05078,-1.93359l0.71484,-0.42578c0.42969,0.57292 0.79688,1.19141 1.10156,1.85547zM306.15803,188.0031v-0.33594h-2.44141v-0.55859h5.76563v0.55859h-2.49219v0.33594h3.23438v1.40234h-0.84766v-0.89844h-2.38672v1.51953h-0.83203v-1.51953h-2.34375v0.89844h-0.83984v-1.40234zM308.92366,193.54607c0.39844,0.15104 0.89583,0.27083 1.49219,0.35938l-0.45703,0.66406c-0.83594,-0.14323 -1.52214,-0.38932 -2.05859,-0.73828c-0.53385,-0.34896 -0.94922,-0.78255 -1.24609,-1.30078h-0.86328v1.20313c0.57552,-0.08073 1.10938,-0.16667 1.60156,-0.25781l0.05469,0.58203c-0.91667,0.21875 -1.96484,0.40885 -3.14453,0.57031l-0.23047,-0.6875c0.40885,-0.04427 0.6888,-0.07552 0.83984,-0.09375l0.04687,-0.0078v-1.30859h-0.85547c-0.03646,0.45833 -0.09636,0.82422 -0.17969,1.09766c-0.09896,0.32812 -0.25781,0.63411 -0.47656,0.91797l-0.69531,-0.57422c0.25521,-0.33073 0.41406,-0.71745 0.47656,-1.16016c0.03385,-0.23958 0.05078,-0.53776 0.05078,-0.89453v-1.65625h6.74219v0.51953h-5.90234v1.19922h6.23828v0.55078h-0.88672l0.49609,0.32813c-0.29427,0.24479 -0.64193,0.47396 -1.04297,0.6875zM308.31428,193.24529c0.375,-0.25521 0.67318,-0.49349 0.89453,-0.71484h-1.70703c0.22396,0.28646 0.49479,0.52474 0.8125,0.71484zM304.15803,188.79607h1.66406v0.44141h-1.66406zM304.15803,189.51482h1.66406v0.44922h-1.66406zM307.326,188.79607h1.71484v0.44141h-1.71484zM307.326,189.51482h1.71484v0.44922h-1.71484zM304.58381,191.10857h4.86328v0.51172h-4.86328zM315.20881,187.65154h3.0625v0.65625h-1.73437v0.64844h1.625v0.63281h-1.625v1.16406h-3.14453v-1.16406h-1.28125v0.72656c0,1.17969 -0.0625,2.11198 -0.1875,2.79688c-0.09635,0.52083 -0.2526,0.99609 -0.46875,1.42578l-0.71094,-0.5625c0.19792,-0.42969 0.33333,-0.95443 0.40625,-1.57422c0.06511,-0.54427 0.09766,-1.23958 0.09766,-2.08594v-2.66406h3.08984v-0.70312h0.87109zM312.11116,188.30779v0.64844h1.28125v-0.64844zM314.22444,188.30779v0.64844h1.48047v-0.64844zM314.22444,189.58904v0.60547h1.48047v-0.60547zM315.13069,193.6906c-0.7526,0.39062 -1.70833,0.6875 -2.86719,0.89063l-0.40625,-0.71875c1.08854,-0.13021 1.94141,-0.32943 2.55859,-0.59766c-0.52865,-0.38281 -0.98047,-0.83724 -1.35547,-1.36328h-0.53906v-0.67969h4.57422l0.41016,0.34375c-0.38802,0.59635 -0.94141,1.15755 -1.66016,1.68359c0.61719,0.2474 1.45833,0.42969 2.52344,0.54688l-0.45703,0.73828c-1.02083,-0.13802 -1.94792,-0.41927 -2.78125,-0.84375zM313.97053,191.90154c0.3151,0.36979 0.69792,0.69531 1.14844,0.97656c0.50781,-0.32813 0.89974,-0.65365 1.17578,-0.97656zM325.49788,193.97966c-0.77083,0.08073 -1.56771,0.12109 -2.39062,0.12109c-1.21354,0 -2.0638,-0.07682 -2.55078,-0.23047c-0.35417,-0.11198 -0.63411,-0.27865 -0.83984,-0.5c-0.23698,-0.25781 -0.35547,-0.57161 -0.35547,-0.94141c0,-0.48698 0.16667,-0.92448 0.5,-1.3125c0.28385,-0.33073 0.74089,-0.65885 1.37109,-0.98437c-0.35938,-0.80729 -0.6849,-1.72656 -0.97656,-2.75781l0.87109,-0.22656c0.27083,0.98958 0.55729,1.86458 0.85938,2.625c1.0026,-0.46094 2.06641,-0.84505 3.19141,-1.15234l0.26172,0.79297c-1.23438,0.3125 -2.46094,0.75651 -3.67969,1.33203c-0.3776,0.17969 -0.64583,0.32682 -0.80469,0.44141c-0.46615,0.34115 -0.69922,0.72005 -0.69922,1.13672c0,0.36198 0.21615,0.61458 0.64844,0.75781c0.35937,0.11719 1.0026,0.17578 1.92969,0.17578c0.85677,0 1.71484,-0.04948 2.57422,-0.14844zM327.15803,187.27654h0.91016v4.27344h-0.91016zM331.16975,187.19451h0.91016v2.79297c0,0.98177 -0.07943,1.71224 -0.23828,2.19141c-0.13281,0.40885 -0.3138,0.73438 -0.54297,0.97656c-0.47656,0.51302 -1.24219,0.89193 -2.29687,1.13672l-0.44922,-0.80078c1.15365,-0.23437 1.89323,-0.6237 2.21875,-1.16797c0.20573,-0.34635 0.32943,-0.78385 0.37109,-1.3125c0.01823,-0.24479 0.02734,-0.58333 0.02734,-1.01562zM333.46272,187.7492h6.12109l0.50391,0.42578c-0.14584,0.54427 -0.33594,0.9987 -0.57032,1.36328c-0.4401,0.6901 -1.09896,1.20573 -1.97656,1.54688l-0.49219,-0.67187c0.60677,-0.18229 1.11068,-0.50911 1.51172,-0.98047c0.23698,-0.27865 0.40234,-0.57292 0.49609,-0.88281h-5.59375zM335.96663,189.4367h0.89453v0.67188c0,1.00781 -0.11198,1.78646 -0.33594,2.33594c-0.28385,0.69792 -0.83594,1.26563 -1.65625,1.70313l-0.64453,-0.67969c0.5651,-0.26823 0.97786,-0.58854 1.23828,-0.96094c0.20052,-0.28906 0.33203,-0.59505 0.39453,-0.91797c0.07292,-0.36979 0.10938,-0.86588 0.10938,-1.48828zM342.37287,187.55779h0.87891v1.42188c0,1.36198 -0.10156,2.35677 -0.30469,2.98437c-0.26823,0.83073 -0.83073,1.52344 -1.6875,2.07813l-0.59765,-0.69531c0.59375,-0.41667 1.01171,-0.84896 1.2539,-1.29687c0.20313,-0.3776 0.33724,-0.88411 0.40235,-1.51953c0.03647,-0.35938 0.0547,-0.87109 0.0547,-1.53516zM344.37287,187.33123h0.87891v5.55078c0.51823,-0.26823 0.97265,-0.64974 1.36328,-1.14453c0.42709,-0.54167 0.7461,-1.18359 0.95703,-1.92578l0.6875,0.66406c-0.26041,0.77344 -0.61718,1.43359 -1.07031,1.98047c-0.57031,0.6901 -1.31771,1.23307 -2.24219,1.62891l-0.57422,-0.49609zM354.61506,187.99529l0.55859,0.45703c-0.36458,1.66667 -0.95572,2.95703 -1.77343,3.87109c-0.45313,0.50521 -1.03907,0.94792 -1.75782,1.32813c-0.51041,0.26823 -1.05859,0.48177 -1.64453,0.64063l-0.45312,-0.76953c1.33854,-0.34896 2.3776,-0.90625 3.11719,-1.67187c-0.60938,-0.54687 -1.28126,-1.03125 -2.01563,-1.45312l0.51172,-0.63281c0.71615,0.3724 1.39714,0.83073 2.04297,1.375c0.50781,-0.8125 0.82682,-1.59896 0.95703,-2.35938h-2.75c-0.63021,0.98177 -1.37239,1.73307 -2.22656,2.25391l-0.57422,-0.62109c0.82552,-0.4974 1.5039,-1.15495 2.03515,-1.97266c0.27344,-0.41667 0.48568,-0.86589 0.63672,-1.34766l0.84766,0.20703c-0.08594,0.23438 -0.18229,0.46615 -0.28906,0.69531zM358.92365,194.20232v-4.00781c-0.79167,0.53125 -1.69531,0.97917 -2.71093,1.34375l-0.47266,-0.79297c1.15365,-0.38802 2.16537,-0.88802 3.03516,-1.5c0.85417,-0.60156 1.61458,-1.29036 2.28125,-2.06641l0.7539,0.47266c-0.59115,0.67969 -1.25,1.30339 -1.97656,1.87109v4.67969zM362.31819,192.85857c0.17969,-0.0026 0.42708,-0.01562 0.74218,-0.03906c0.74219,-1.66667 1.42578,-3.5013 2.05078,-5.50391l0.89454,0.23438c-0.61459,1.92187 -1.27084,3.65755 -1.96875,5.20703c1.32291,-0.09635 2.49609,-0.21354 3.51953,-0.35156c-0.38542,-0.67969 -0.77735,-1.30729 -1.17578,-1.88281l0.76953,-0.48828c0.82031,1.13021 1.54036,2.32812 2.16015,3.59375l-0.8789,0.45703c-0.14323,-0.30208 -0.30079,-0.61719 -0.47266,-0.94531c-1.52083,0.25521 -3.33724,0.48177 -5.44922,0.67969zM373.03694,188.0031v-0.33594h-2.44141v-0.55859h5.76562v0.55859h-2.49218v0.33594h3.23437v1.40234h-0.84765v-0.89844h-2.38672v1.51953h-0.83203v-1.51953h-2.34375v0.89844h-0.83985v-1.40234zM375.80256,193.54607c0.39844,0.15104 0.89584,0.27083 1.49219,0.35938l-0.45703,0.66406c-0.83594,-0.14323 -1.52214,-0.38932 -2.0586,-0.73828c-0.53385,-0.34896 -0.94922,-0.78255 -1.24609,-1.30078h-0.86328v1.20313c0.57552,-0.08073 1.10937,-0.16667 1.60156,-0.25781l0.0547,0.58203c-0.91667,0.21875 -1.96484,0.40885 -3.14453,0.57031l-0.23047,-0.6875c0.40885,-0.04427 0.6888,-0.07552 0.83984,-0.09375l0.0469,-0.0078v-1.30859h-0.85547c-0.03647,0.45833 -0.09636,0.82422 -0.17969,1.09766c-0.09896,0.32812 -0.25781,0.63411 -0.47656,0.91797l-0.69531,-0.57422c0.25521,-0.33073 0.41406,-0.71745 0.47656,-1.16016c0.03387,-0.23958 0.0508,-0.53776 0.0508,-0.89453v-1.65625h6.74219v0.51953h-5.90235v1.19922h6.23828v0.55078h-0.88671l0.49609,0.32813c-0.29427,0.24479 -0.64193,0.47396 -1.04297,0.6875zM375.19319,193.24529c0.375,-0.25521 0.67318,-0.49349 0.89453,-0.71484h-1.70703c0.22395,0.28646 0.49479,0.52474 0.8125,0.71484zM371.03694,188.79607h1.66406v0.44141h-1.66406zM371.03694,189.51482h1.66406v0.44922h-1.66406zM374.2049,188.79607h1.71485v0.44141h-1.71485zM374.2049,189.51482h1.71485v0.44922h-1.71485zM371.46272,191.10857h4.86328v0.51172h-4.86328zM382.08772,187.65154h3.0625v0.65625h-1.73438v0.64844h1.625v0.63281h-1.625v1.16406h-3.14453v-1.16406h-1.28125v0.72656c0,1.17969 -0.0625,2.11198 -0.1875,2.79688c-0.09635,0.52083 -0.2526,0.99609 -0.46875,1.42578l-0.71094,-0.5625c0.19792,-0.42969 0.33334,-0.95443 0.40625,-1.57422c0.06513,-0.54427 0.0977,-1.23958 0.0977,-2.08594v-2.66406h3.08984v-0.70312h0.8711zM378.99006,188.30779v0.64844h1.28125v-0.64844zM381.10334,188.30779v0.64844h1.48047v-0.64844zM381.10334,189.58904v0.60547h1.48047v-0.60547zM382.00959,193.6906c-0.7526,0.39062 -1.70833,0.6875 -2.86719,0.89063l-0.40625,-0.71875c1.08855,-0.13021 1.94141,-0.32943 2.5586,-0.59766c-0.52865,-0.38281 -0.98047,-0.83724 -1.35547,-1.36328h-0.53906v-0.67969h4.57422l0.41015,0.34375c-0.38802,0.59635 -0.9414,1.15755 -1.66015,1.68359c0.61719,0.2474 1.45833,0.42969 2.52343,0.54688l-0.45703,0.73828c-1.02083,-0.13802 -1.94792,-0.41927 -2.78125,-0.84375zM380.84944,191.90154c0.3151,0.36979 0.69791,0.69531 1.14843,0.97656c0.50781,-0.32813 0.89974,-0.65365 1.17578,-0.97656zM387.53303,191.66716v1.41797c0,0.20573 0.07552,0.32943 0.22656,0.37109c0.22396,0.0625 0.96485,0.09375 2.22266,0.09375c1.11719,0 1.8125,-0.03255 2.08594,-0.09766c0.13021,-0.03125 0.21354,-0.10416 0.25,-0.21875c0.04427,-0.13021 0.07942,-0.43359 0.10546,-0.91016l0.86329,0.26563c-0.02867,0.51302 -0.07033,0.86458 -0.125,1.05469c-0.07031,0.2474 -0.20052,0.41536 -0.39063,0.50391c-0.13541,0.0625 -0.32291,0.10156 -0.5625,0.11719c-0.61719,0.04427 -1.42318,0.06641 -2.41797,0.06641c-1.39323,0 -2.22135,-0.02474 -2.48437,-0.07422c-0.29688,-0.05469 -0.48829,-0.1849 -0.57422,-0.39062c-0.04167,-0.10417 -0.0625,-0.23437 -0.0625,-0.39062v-4.01172l-0.0391,0.03125c-0.11979,0.08594 -0.26172,0.18099 -0.42579,0.28516l-0.53511,-0.64844c0.92969,-0.51042 1.71614,-1.23828 2.35937,-2.18359l0.54688,0.375h2.22265l0.41407,0.42969c-0.34375,0.48698 -0.70313,0.92578 -1.07813,1.31641h2.50391v2.59766zM387.53303,190.97185h1.67969v-1.18359h-1.67969zM390.05256,189.78826v1.18359h1.71484v-1.18359zM389.14631,189.06951c0.33594,-0.35156 0.6224,-0.69661 0.85938,-1.03516h-1.80469c-0.28907,0.35417 -0.63282,0.69922 -1.03125,1.03516z"/><path d="M251.31428,204.16248c1.52865,-0.38542 2.29297,-1.26172 2.29297,-2.62891c0,-0.59635 -0.15365,-1.10938 -0.46094,-1.53906c-0.34375,-0.48437 -0.86719,-0.79557 -1.57031,-0.93359c-0.15365,1.20833 -0.36328,2.19792 -0.62891,2.96875c-0.18229,0.53906 -0.40885,1.04818 -0.67969,1.52734c-0.39063,0.68229 -0.83464,1.02344 -1.33203,1.02344c-0.36979,0 -0.69922,-0.16667 -0.98828,-0.5c-0.1849,-0.21094 -0.33464,-0.47005 -0.44922,-0.77734c-0.15104,-0.39844 -0.22656,-0.82682 -0.22656,-1.28516c0,-0.74219 0.20443,-1.42578 0.61328,-2.05078c0.41406,-0.63802 0.95182,-1.10156 1.61328,-1.39062c0.48177,-0.21094 1.01042,-0.31641 1.58594,-0.31641c0.89844,0 1.66146,0.24089 2.28906,0.72266c0.77083,0.59115 1.15625,1.42839 1.15625,2.51172c0,1.8151 -0.91797,2.96615 -2.75391,3.45313zM250.72834,199.02966c-0.46094,0.05209 -0.84635,0.17578 -1.15625,0.37109c-0.19792,0.1276 -0.39453,0.29688 -0.58984,0.50781c-0.54167,0.59896 -0.8125,1.29297 -0.8125,2.08203c0,0.57552 0.11458,1.02604 0.34375,1.35156c0.14063,0.20052 0.27995,0.30078 0.41797,0.30078c0.1875,0 0.39844,-0.20703 0.63281,-0.62109c0.57292,-1.00781 0.96094,-2.33854 1.16406,-3.99219zM260.09553,199.38123c-0.9375,-0.28646 -2.02865,-0.51823 -3.27344,-0.69531l0.32031,-0.74609c1.3099,0.1849 2.40104,0.42187 3.27344,0.71094zM255.576,200.43591c1.58073,-0.34635 2.72656,-0.51953 3.4375,-0.51953c0.69792,0 1.23958,0.17057 1.625,0.51172c0.38021,0.33854 0.57031,0.81771 0.57031,1.4375c0,1.1875 -0.42187,2.02865 -1.26562,2.52344c-0.58073,0.34375 -1.47656,0.58594 -2.6875,0.72656l-0.35937,-0.77344c1.10938,-0.1276 1.93359,-0.34115 2.47266,-0.64062c0.60156,-0.33073 0.90234,-0.93359 0.90234,-1.80859c0,-0.39583 -0.08594,-0.6888 -0.25781,-0.87891c-0.19792,-0.21615 -0.52604,-0.32422 -0.98437,-0.32422c-0.55208,0 -1.61719,0.1875 -3.19531,0.5625zM262.69709,199.14685h1.83203c0.09375,-0.3776 0.1849,-0.78776 0.27344,-1.23047l0.84766,0.10938c-0.08333,0.375 -0.17187,0.7487 -0.26562,1.12109h4v0.77734h-4.20703c-0.20312,0.71615 -0.40885,1.31641 -0.61719,1.80078c0.67187,-0.40104 1.46354,-0.60156 2.375,-0.60156c0.5651,0 1.04687,0.10807 1.44531,0.32422c0.57813,0.31771 0.86719,0.79037 0.86719,1.41797c0,0.8776 -0.52214,1.48177 -1.56641,1.8125c-0.65625,0.20833 -1.62109,0.33073 -2.89453,0.36719l-0.28906,-0.77734c1.22135,-0.02344 2.12109,-0.1237 2.69922,-0.30078c0.74219,-0.22656 1.11328,-0.60417 1.11328,-1.13281c0,-0.36719 -0.15495,-0.63672 -0.46484,-0.80859c-0.23438,-0.1276 -0.54297,-0.19141 -0.92578,-0.19141c-0.4401,0 -0.91016,0.07943 -1.41016,0.23828c-0.46094,0.14583 -0.90495,0.35286 -1.33203,0.62109l-0.6875,-0.45703c0.30729,-0.74479 0.58203,-1.51563 0.82422,-2.3125h-1.61719zM274.66584,200.55701c0.17969,0.60938 0.52083,1.25781 1.02344,1.94531c0.61198,0.83854 1.36458,1.5026 2.25781,1.99219l-0.55859,0.80469c-0.94531,-0.55729 -1.73438,-1.29557 -2.36719,-2.21484c-0.34115,-0.5 -0.61458,-1.00911 -0.82031,-1.52734c-0.20573,0.69792 -0.52474,1.33203 -0.95703,1.90234c-0.63542,0.84375 -1.42057,1.46615 -2.35547,1.86719l-0.55078,-0.71484c0.97917,-0.40885 1.76953,-1.03906 2.37109,-1.89062c0.50521,-0.71875 0.80469,-1.4401 0.89844,-2.16406h-3.11719v-0.84766h3.15234v-1.88281h0.90234v1.88281h3.21875v0.84766zM278.91584,198.82654h2.36719c-0.08594,-0.24219 -0.17839,-0.52995 -0.27734,-0.86328l0.86328,-0.04687c0.10156,0.34635 0.20052,0.64974 0.29688,0.91016h2.71875v0.75391h-2.44922c0.14844,0.36979 0.31641,0.74609 0.50391,1.12891h2.47266v0.75391h-2.07812c0.27344,0.47656 0.54818,0.90365 0.82422,1.28125l-0.875,0.25391c-0.30208,-0.42969 -0.60547,-0.94141 -0.91016,-1.53516h-3.59375v-0.75391h3.23437c-0.15104,-0.32031 -0.30599,-0.69661 -0.46484,-1.12891h-2.63281zM284.12288,204.94763c-0.5,0.03646 -0.96484,0.05469 -1.39453,0.05469c-1.1276,0 -1.94401,-0.10547 -2.44922,-0.31641c-0.70052,-0.29427 -1.05078,-0.75911 -1.05078,-1.39453c0,-0.35677 0.09766,-0.64453 0.29297,-0.86328l0.69922,0.38281c-0.08073,0.16406 -0.12109,0.32682 -0.12109,0.48828c0,0.32812 0.22396,0.5651 0.67188,0.71094c0.39844,0.13021 1.00781,0.19531 1.82813,0.19531c0.41146,0 0.89583,-0.02214 1.45313,-0.06641zM290.15413,202.84998c-0.48177,1.41667 -1.02214,2.125 -1.62109,2.125c-0.42708,0 -0.79297,-0.29948 -1.09766,-0.89844c-0.23438,-0.46354 -0.39583,-0.97396 -0.48437,-1.53125c-0.10677,-0.67708 -0.16016,-1.54687 -0.16016,-2.60937c0,-0.46094 0.01693,-0.95573 0.05078,-1.48437l0.91797,0.07031c-0.03385,0.52865 -0.05078,1.03125 -0.05078,1.50781c0,1.67188 0.15625,2.83724 0.46875,3.49609c0.1276,0.27083 0.2474,0.40625 0.35938,0.40625c0.07292,0 0.16406,-0.08333 0.27344,-0.25c0.22396,-0.33854 0.4401,-0.80469 0.64844,-1.39844zM292.62678,203.77966c-0.13281,-1.09896 -0.29557,-1.98698 -0.48828,-2.66406c-0.23438,-0.82031 -0.50651,-1.57161 -0.81641,-2.25391l0.83203,-0.20312c0.42969,0.85156 0.7487,1.67187 0.95703,2.46094c0.17187,0.64063 0.3138,1.45573 0.42578,2.44531zM297.91584,199.85388c-0.01823,0.4349 -0.04427,0.81771 -0.07813,1.14844h3.14844c-0.03906,1.80729 -0.14062,2.98047 -0.30469,3.51953c-0.08333,0.27083 -0.23828,0.45833 -0.46484,0.5625c-0.17708,0.08073 -0.4362,0.12109 -0.77734,0.12109c-0.35938,0 -0.76693,-0.02734 -1.22266,-0.08203l-0.15234,-0.87891c0.61198,0.08594 1.04297,0.12891 1.29297,0.12891c0.21094,0 0.34505,-0.0599 0.40234,-0.17969c0.13802,-0.29167 0.23438,-1.09635 0.28906,-2.41406h-2.32422c-0.08594,0.46875 -0.20703,0.875 -0.36328,1.21875c-0.4349,0.95052 -1.16146,1.70443 -2.17969,2.26172l-0.61719,-0.6875c1.02083,-0.53125 1.69531,-1.22786 2.02344,-2.08984c0.21875,-0.57552 0.36068,-1.45182 0.42578,-2.62891h-2.58593v-0.80078h3.19141v-1.30469h0.90234v1.30469h3.29688v0.80078zM303.00178,198.84607h2.10547c0.23177,-0.36979 0.40755,-0.66797 0.52734,-0.89453l0.87109,0.125c-0.07812,0.14063 -0.21615,0.36979 -0.41406,0.6875l-0.05078,0.08203h2.75391v0.76953h-3.27344c-0.34115,0.46875 -0.66667,0.875 -0.97656,1.21875c0.49219,-0.29427 0.94141,-0.44141 1.34766,-0.44141c0.63021,0 1.04297,0.31641 1.23828,0.94922c0.66667,-0.22135 1.34635,-0.4401 2.03906,-0.65625l0.33594,0.75781l-0.13672,0.03906l-0.38672,0.10156c-0.72917,0.19792 -1.3125,0.36719 -1.75,0.50781c0.03125,0.33854 0.05338,0.77604 0.06641,1.3125l-0.85547,0.04687c-0.0026,-0.3099 -0.00781,-0.64583 -0.01563,-1.00781v-0.07813c-1.19792,0.40885 -1.79687,0.82031 -1.79687,1.23438c0,0.21354 0.15365,0.35937 0.46094,0.4375c0.29687,0.07552 0.82812,0.11328 1.59375,0.11328c0.70573,0 1.44661,-0.04036 2.22266,-0.12109l0.09375,0.83203c-0.7526,0.05729 -1.53255,0.08594 -2.33984,0.08594c-0.99479,0 -1.70182,-0.07552 -2.12109,-0.22656c-0.51823,-0.1875 -0.77734,-0.52474 -0.77734,-1.01172c0,-0.41146 0.18359,-0.77474 0.55078,-1.08984c0.38021,-0.32552 1.04948,-0.66146 2.00781,-1.00781c-0.05209,-0.20052 -0.1211,-0.34115 -0.20703,-0.42187c-0.09635,-0.09115 -0.22396,-0.13672 -0.38281,-0.13672c-0.25781,0 -0.58203,0.09766 -0.97266,0.29297c-0.48177,0.23958 -0.9987,0.60026 -1.55078,1.08203l-0.51953,-0.59375c0.8099,-0.7526 1.44401,-1.49219 1.90234,-2.21875h-1.58984zM315.27131,203.70935l0.05469,0.69922c-1.13021,0.39844 -2.38672,0.72656 -3.76953,0.98438l-0.28906,-0.78125c0.23958,-0.03646 0.57813,-0.09505 1.01563,-0.17578v-1.42969c-0.45052,0.22917 -0.98698,0.44661 -1.60937,0.65234l-0.44531,-0.69531c1.2526,-0.33854 2.20833,-0.77083 2.86719,-1.29687h-2.78906v-0.67969h3.34766v-0.58984h-2.53125v-0.65625h2.53125v-0.55078h-2.92969v-0.67187h2.92969v-0.76953h0.85547v0.76953h3.01563v0.67188h-3.01562v0.55078h2.61719v0.65625h-2.61719v0.58984h3.43359v0.67969h-0.93359l0.57813,0.39844c-0.35677,0.34635 -0.85677,0.72526 -1.5,1.13672l-0.08984,0.05859c0.48958,0.44792 1.15365,0.81771 1.99219,1.10938l-0.52734,0.79297c-0.90886,-0.38541 -1.63933,-0.86979 -2.19141,-1.45312zM314.08772,201.6781c-0.26042,0.30469 -0.57422,0.57812 -0.94141,0.82031v1.75391c0.64323,-0.14323 1.28906,-0.3099 1.9375,-0.5l0.17969,-0.05078c-0.53385,-0.59115 -0.92578,-1.26562 -1.17578,-2.02344zM315.5135,202.74451c0.46354,-0.33073 0.86979,-0.6901 1.21875,-1.07812h-1.84766c0.16667,0.39844 0.3763,0.75781 0.62891,1.07813zM322.59944,201.07654v3.46484c0,0.3151 -0.0638,0.52995 -0.19141,0.64453c-0.11979,0.10417 -0.35156,0.15625 -0.69531,0.15625c-0.39062,0 -0.76172,-0.02474 -1.11328,-0.07422l-0.16797,-0.82422c0.36458,0.05989 0.71354,0.08984 1.04688,0.08984c0.11198,0 0.18229,-0.01953 0.21094,-0.05859c0.02083,-0.03385 0.03125,-0.08984 0.03125,-0.16797v-3.23047h-3.35937v-0.77734h7.52734v0.77734zM319.29866,198.18201h5.64844v0.76953h-5.64844zM318.31428,204.1742c0.5625,-0.58854 1.01563,-1.37109 1.35937,-2.34766l0.80859,0.30469c-0.39844,1.11719 -0.89974,1.99479 -1.50391,2.63281zM325.01741,204.65076c-0.53906,-1.14062 -1.00781,-1.97526 -1.40625,-2.50391l0.73438,-0.4375c0.57292,0.73698 1.0612,1.53906 1.46484,2.40625zM327.09163,198.07654h0.92188v4.65625c0,0.98177 0.51563,1.47266 1.54688,1.47266c0.67969,0 1.23698,-0.3138 1.67188,-0.94141c0.28125,-0.40365 0.53385,-1.02865 0.75781,-1.875l0.79297,0.48047c-0.26563,0.9401 -0.58464,1.64323 -0.95703,2.10938c-0.58594,0.72656 -1.34766,1.08984 -2.28516,1.08984c-0.97917,0 -1.66927,-0.30208 -2.07031,-0.90625c-0.2526,-0.3776 -0.37891,-0.86458 -0.37891,-1.46094zM336.72444,197.93201h0.86328v0.98438h2.45703v0.74219h-2.45703v0.92969h2.32031v0.73438h-2.32031v1.20703c0.92708,0.3125 1.84114,0.78255 2.74218,1.41016l-0.46093,0.74219c-0.68229,-0.51042 -1.44271,-0.96094 -2.28125,-1.35156c-0.02083,0.44531 -0.10677,0.79036 -0.25781,1.03516c-0.26302,0.42448 -0.78125,0.63672 -1.55469,0.63672c-0.59635,0 -1.07552,-0.11198 -1.4375,-0.33594c-0.40365,-0.25 -0.60547,-0.58854 -0.60547,-1.01562c0,-0.51042 0.27214,-0.88802 0.81641,-1.13281c0.36458,-0.16146 0.83854,-0.24219 1.42188,-0.24219c0.22917,0 0.48047,0.01823 0.75391,0.05469v-1.00781h-2.76953v-0.73437h2.76953v-0.92969h-2.9375v-0.74219h2.9375zM336.72444,203.05701c-0.3099,-0.06511 -0.60677,-0.09766 -0.89062,-0.09766c-0.34635,0 -0.6276,0.05078 -0.84375,0.15234c-0.25781,0.1224 -0.38672,0.29687 -0.38672,0.52344c0,0.1901 0.10026,0.34375 0.30078,0.46094c0.20312,0.11979 0.47396,0.17969 0.8125,0.17969c0.40104,0 0.67708,-0.10677 0.82813,-0.32031c0.11979,-0.16667 0.17969,-0.41536 0.17969,-0.74609zM345.0174,197.90857h0.87891v1.07813h2.30469v0.75391h-2.30469v1.67188c0.09115,0.32031 0.13672,0.60547 0.13672,0.85547c0,0.92708 -0.20443,1.60807 -0.61328,2.04297c-0.44531,0.47656 -1.11589,0.80599 -2.01172,0.98828l-0.44531,-0.66406c0.69531,-0.13281 1.21094,-0.32031 1.54687,-0.5625c0.31511,-0.22917 0.52735,-0.54036 0.63672,-0.93359c-0.27865,0.30469 -0.61068,0.45703 -0.99609,0.45703c-0.43229,0 -0.78255,-0.1224 -1.05078,-0.36719c-0.31511,-0.28906 -0.47266,-0.70833 -0.47266,-1.25781c0,-0.28906 0.06901,-0.56771 0.20703,-0.83594c0.09115,-0.17187 0.20313,-0.3151 0.33594,-0.42969c0.30729,-0.26042 0.67578,-0.39062 1.10547,-0.39062c0.27343,0 0.52083,0.0651 0.74218,0.19531v-0.76953h-3.85546v-0.75391h3.85546zM345.0486,201.96326v-0.14453c0,-0.16667 -0.03906,-0.3138 -0.11718,-0.44141c-0.14583,-0.23958 -0.35677,-0.35937 -0.63282,-0.35937c-0.14062,0 -0.27213,0.03906 -0.39453,0.11719c-0.28645,0.17969 -0.42968,0.45573 -0.42968,0.82813c0,0.23438 0.05208,0.43229 0.15625,0.59375c0.14583,0.22396 0.36068,0.33594 0.64453,0.33594c0.25781,0 0.46224,-0.11589 0.61328,-0.34766c0.10677,-0.16406 0.16015,-0.35807 0.16015,-0.58203z"/></g></g></g></svg>