<svg xmlns="http://www.w3.org/2000/svg" id="svg1" version="1.1" height="200" width="1096">
  <defs id="defs1"></defs>
  <rect id="rect1" stroke="none" fill="none" height="200" width="1096" y="0" x="0"></rect>
  <path aria-label="和歌山県南方沖" style="font-weight:bold;font-size:110px;font-family:'BIZ UDPGothic';fill:#ff0000" id="text1" d="M 23.901367,116.37695 Q 17.77832,130.3418 8.7011719,142.10449 L 1.9873047,130.87891 Q 15.307617,116.53809 22.504883,97.578125 l 0.268554,-0.751953 H 3.5449219 V 86.728516 H 23.901367 V 71.582031 Q 15.737305,73.085937 9.0234375,73.945312 L 4.5117187,64.492187 Q 27.5,61.699219 46.083984,55.039062 l 6.499024,9.453125 q -9.291992,2.84668 -17.241211,4.672852 V 86.728516 H 52.475586 V 96.826172 H 35.341797 v 8.647458 q 10.151367,6.17676 18.691406,14.44825 l -6.713867,10.68847 Q 41.625977,123.4668 35.341797,117.39746 v 43.07617 H 23.901367 Z M 102.6416,66.640625 V 157.46582 H 90.986328 v -7.68066 H 67.675781 v 8.48632 H 56.235352 V 66.640625 Z M 67.675781,77.543945 V 138.98926 H 90.986328 V 77.543945 Z m 96.142579,72.133785 q 10.7959,-9.56054 16.16699,-25.45898 3.27637,-9.66797 4.51172,-22.50488 0.42969,-4.780276 0.42969,-8.701175 v -9.238281 h -3.75977 q -0.16113,0.698242 -0.42969,1.933594 -2.52441,11.440429 -7.57324,20.517582 l -7.25097,-9.130863 q 7.78808,-16.489258 10.3125,-41.733399 l 10.58105,1.557617 q -1.18164,9.291992 -2.79297,16.274414 h 27.55371 l 5.80078,4.726563 q -3.70605,15.522461 -8.75488,26.962888 l -9.50683,-3.81347 q 4.88769,-10.903324 6.17675,-17.294926 h -10.20508 v 9.560547 q 0,15.629879 7.41211,31.689449 5.69336,12.35352 16.43555,23.20313 l -7.14355,12.24609 q -10.7959,-12.51465 -18.31543,-29.75586 -2.04102,-4.61914 -3.00782,-8.96972 -4.29687,23.36425 -20.89355,39.7998 l -5.85449,-8.00293 q -0.37598,4.02832 -2.57813,5.53223 -2.09472,1.39648 -7.68066,1.39648 -8.3252,0 -12.7832,-0.80566 l -2.04102,-10.09766 2.30957,0.16114 q 6.98242,0.48339 9.72168,0.48339 1.9873,0 2.36328,-0.85937 0.32227,-0.64453 0.32227,-1.98731 v -31.47461 h -41.14258 v -9.13085 h 58.97461 v 9.13085 h -7.3584 z m -1.02051,-79.545894 v 26.962891 q 0,4.189453 -1.66504,5.854493 -1.77246,1.77246 -6.33789,1.77246 -3.97461,0 -9.8291,-0.69824 l -1.02051,-5.478518 H 118.59375 V 75.771484 h 27.82227 V 95.59082 q 2.68554,0.214844 4.29687,0.214844 1.98731,0 1.98731,-1.987305 V 70.131836 h -39.2627 v -9.238281 h 56.28906 v 9.238281 z m -35.07324,13.105469 v 7.734375 h 9.99023 v -7.734375 z m 19.12109,38.833005 v 23.74024 h -19.12109 v 6.49902 h -9.45313 v -30.23926 z m -19.12109,7.46582 v 8.59375 h 10.09766 v -8.59375 z m 152.96875,8.48633 h 27.07031 V 78.94043 h 12.19238 v 80.62012 h -12.19238 v -9.88282 H 242.0752 v 9.88282 H 229.99023 V 78.94043 h 12.08497 v 59.08203 h 26.42578 V 57.026367 h 12.19238 z M 422.16797,58.583984 V 110.62988 H 358.25195 V 58.583984 Z m -52.36817,8.486328 v 6.713868 h 40.7129 v -6.713868 z m 0,14.28711 v 6.713867 h 40.7129 v -6.713867 z m 0,14.287109 v 6.928709 h 40.7129 v -6.928709 z m -21.6455,22.128909 h 89.05273 v 9.3457 h -44.41894 v 33.35449 H 380.5957 V 127.11914 H 336.3916 V 66.855469 h 11.7627 z m -13.75,32.4414 q 12.7832,-5.9082 24.43847,-19.81933 l 9.88282,5.74707 q -11.49414,14.55566 -25.5127,22.88086 z m 92.59765,6.92871 q -8.21777,-10.09765 -24.70703,-21.21582 l 9.23828,-6.49902 q 12.94434,7.46582 25.40528,19.60449 z m 62.03614,-36.63085 h -22.23633 v -8.8086 h 10.74219 q -2.417,-5.47851 -5.47852,-10.20508 l 9.66797,-3.544918 q 4.18945,7.036128 6.76758,13.749998 h 12.62207 q 3.16894,-6.49902 5.58593,-13.964842 l 10.7959,3.383792 q -2.73926,5.9082 -5.80078,10.58105 h 11.54785 v 8.8086 h -22.98828 v 7.84179 h 24.49219 v 9.13086 h -24.49219 v 20.30274 h -11.22558 v -20.30274 h -23.57911 v -9.13086 h 23.57911 z m 11.54785,-33.085942 h 40.71289 v 62.788082 q 0,5.53223 -2.9541,7.78809 -2.47071,1.93359 -8.3252,1.93359 -7.57324,0 -14.60937,-0.80566 l -2.63184,-10.7959 q 9.39941,1.12793 14.07227,1.12793 1.93359,0 2.25586,-0.9668 0.21484,-0.59082 0.21484,-1.66504 V 96.772461 H 460.67871 V 160.47363 H 448.70117 V 87.426758 h 40.01465 v -9.72168 h -45.97656 v -9.990234 h 45.97656 V 55.952148 h 11.87012 v 11.762696 h 46.62109 v 9.990234 h -46.62109 z m 101.56738,-2.524414 q -0.37598,8.969726 -1.07422,15.791016 h 43.29102 q -0.80567,37.27539 -4.18946,48.39355 -1.71875,5.58594 -6.3916,7.73438 -3.65234,1.66504 -10.68847,1.66504 -7.41211,0 -16.81153,-1.12793 l -2.09472,-12.08496 q 12.62207,1.77246 17.77832,1.77246 4.35058,0 5.53222,-2.4707 2.84668,-6.01563 3.97461,-33.19336 h -31.95801 q -1.77246,9.66796 -4.99511,16.75781 -8.96973,19.60449 -29.97071,31.09863 l -8.48632,-9.45312 q 21.05468,-10.95704 27.82226,-28.73536 4.51172,-11.87011 5.85449,-36.147456 H 554.18945 V 73.891602 h 43.88184 V 55.952148 h 12.40723 v 17.939454 h 45.33203 v 11.010742 z m 121.54785,-8.916016 v -20.03418 h 11.54785 v 20.03418 h 29.11133 v 48.608402 h -29.11133 v 35.8789 h -11.54785 v -35.8789 H 695.18066 V 75.986328 Z m -17.40234,10.688477 v 27.338865 h 17.40234 V 86.674805 Z m 46.62109,27.338865 V 86.674805 h -17.6709 v 27.338865 z m -68.75,-31.796873 q -6.55273,-9.13086 -17.34863,-17.456055 l 8.00293,-8.164062 q 10.74219,7.573242 18.1543,16.972656 z m -3.49121,27.607423 q -9.3457,-10.849611 -18.1543,-17.778322 l 8.27149,-8.271484 q 9.39941,6.606445 18.58398,17.080076 z m -16.7041,41.62598 q 10.3125,-14.66309 19.01367,-36.52344 l 9.56055,7.3584 q -7.3584,20.1416 -17.93946,37.91992 z"></path>
</svg>
