<svg xmlns="http://www.w3.org/2000/svg" id="svg1" version="1.1" height="200" width="990">
  <defs id="defs1"></defs>
  <rect id="rect1" stroke="none" fill="none" height="200" width="990" y="0" x="0"></rect>
  <path aria-label="岩手県内陸南部" style="font-size:100px;font-family:'BIZ UDPGothic';fill:#ff0000" id="text1" d="m 31.640625,122.50977 h 56.054687 v 37.01171 h -7.910156 v -5.61523 H 29.101562 v 5.61523 h -7.8125 v -26.66015 q -6.103515,5.22461 -14.4042964,10.2539 L 1.9042969,137.10937 Q 22.65625,125.73242 32.861328,108.10547 H 2.4902344 v -6.68945 H 97.509766 v 6.68945 H 41.650391 q -4.248047,7.42187 -10.009766,14.4043 z m -2.539063,6.49414 v 18.50586 H 79.785156 V 129.00391 Z M 53.710937,84.716797 H 80.078125 V 69.140625 h 7.714844 V 91.210937 H 12.597656 V 69.140625 H 20.3125 V 84.716797 H 45.996094 V 64.501953 h 7.714843 z M 155.07812,76.855469 v 17.96875 h 36.47461 v 6.982421 h -36.47461 v 16.79688 h 42.38282 v 6.98242 H 155.07812 V 150 q 0,5.07812 -2.92968,7.08008 -2.34375,1.61133 -7.95899,1.61133 -9.08203,0 -17.04101,-0.87891 l -1.46485,-7.91016 q 11.23047,1.31836 17.33399,1.31836 2.97851,0 3.61328,-1.36718 0.3418,-0.73243 0.3418,-2.14844 v -22.11914 h -44.48243 v -6.98242 h 44.48243 V 101.80664 H 107.4707 v -6.982421 h 39.50196 V 77.929687 q -17.96875,2.148438 -33.88672,3.076172 l -3.125,-6.787109 q 38.7207,-1.953125 70.41015,-8.886719 l 4.78516,6.103516 q -14.4043,3.320312 -30.07813,5.419922 z M 282.86133,67.578125 V 114.4043 H 225.78125 V 67.578125 Z m -49.36524,6.005859 v 7.714844 h 41.55274 v -7.714844 z m 0,13.330078 v 7.763672 h 41.55274 v -7.763672 z m 0,13.476568 v 8.30078 h 41.55274 v -8.30078 z M 214.4043,122.2168 h 83.05664 v 6.49414 h -41.99219 v 30.81054 h -7.91016 V 128.71094 H 206.5918 V 74.267578 h 7.8125 z m -9.22852,29.6875 q 12.79297,-6.15235 23.0957,-19.28711 l 6.5918,3.66211 q -10.40039,13.62304 -24.07226,21.72851 z m 84.17969,4.10156 q -10.25391,-11.18164 -23.29102,-19.82422 l 6.00586,-4.49219 q 11.76758,7.37305 23.68164,18.79883 z M 345.70312,81.005859 V 64.501953 h 7.91016 v 16.503906 h 37.59766 v 67.675781 q 0,4.98047 -2.44141,7.03125 -2.24609,1.9043 -7.95898,1.9043 -8.74024,0 -17.38282,-0.63477 l -1.51367,-7.76367 Q 372.94922,150 379.44336,150 q 2.83203,0 3.4668,-1.26953 0.39062,-0.78125 0.39062,-2.34375 V 88.183594 h -29.73633 q -0.24414,6.640625 -1.70898,12.695316 l 0.83008,0.63476 q 15.82031,12.35352 27.83203,26.17188 l -5.90821,5.81054 q -9.61914,-11.62109 -24.90234,-25.83007 -6.49414,16.69921 -26.02539,28.22265 l -4.78516,-6.29883 q 18.65235,-10.15625 24.21875,-27.14843 2.2461,-6.738285 2.53907,-14.257816 h -29.05274 v 70.507816 h -8.00781 V 81.005859 Z m 122.02149,11.47461 h 28.17383 v 6.49414 H 476.2207 v 10.791021 q 0,1.70898 0.78125,2.0996 0.83008,0.39063 4.93164,0.39063 3.4668,0 4.54102,-0.39063 1.26953,-0.43945 1.75781,-2.53906 0.39063,-1.51367 0.58594,-5.66406 l 6.88476,2.29492 q -0.19531,8.98438 -3.41796,11.2793 -2.34375,1.66015 -10.15625,1.66015 -8.10547,0 -10.30274,-0.8789 -2.92969,-1.12305 -2.92969,-5.32227 V 98.974609 h -11.71875 q -1.51367,8.398441 -5.46875,13.427731 -4.29687,5.41993 -13.28125,8.88672 l -4.63867,-5.51758 q 14.25781,-4.19921 16.25977,-16.796871 h -16.65039 v -6.49414 h 26.80664 V 82.080078 h -22.02149 v -6.396484 h 22.02149 V 64.599609 h 7.51953 v 11.083985 h 23.7793 v 6.396484 h -23.7793 z M 406.00586,68.896484 h 24.21875 l 3.90625,3.417969 q -4.15039,15.771484 -9.32617,27.880857 8.49609,10.49805 8.49609,24.90235 0,5.46875 -1.2207,8.64257 -2.00196,5.32227 -8.78906,5.32227 -2.97852,0 -6.34766,-0.58594 l -1.80664,-7.27539 q 3.85742,0.6836 6.5918,0.6836 2.68554,0 3.32031,-1.85547 0.73242,-1.95313 0.73242,-6.5918 0,-12.35352 -8.34961,-22.55859 4.3457,-10.449223 8.20313,-25.195316 h -12.30469 v 83.789066 h -7.32422 z m 54.19922,59.326176 v -12.5 h 7.61719 v 12.5 h 23.77929 v 6.39648 h -23.77929 v 14.20898 h 30.07812 v 6.78711 h -67.1875 v -6.78711 h 29.49219 v -14.20898 h -22.50977 v -6.39648 z m 93.31054,-34.228519 h 37.06055 v 57.324219 q 0,3.90625 -1.61133,5.66406 -1.90429,2.05078 -8.00781,2.05078 -5.76172,0 -11.18164,-0.63476 l -1.70898,-7.42188 q 8.88671,0.92774 12.06054,0.92774 1.85547,0 2.29492,-0.87891 0.24415,-0.53711 0.24415,-1.61133 V 100.39063 H 517.1875 v 59.13085 h -7.91016 V 93.994141 h 36.52344 V 83.007812 h -43.31055 v -6.689453 h 43.31055 V 64.501953 h 7.71484 v 11.816406 h 43.94532 v 6.689453 h -43.94532 z m -7.61718,27.783199 h -22.2168 v -6.20117 h 11.86523 q -2.14843,-5.32226 -5.37109,-10.49804 l 6.73828,-2.5879 q 4.05274,7.12891 6.20117,13.08594 H 556.25 q 3.32031,-6.05469 5.76172,-13.28125 l 7.42187,2.58789 q -2.39257,4.98047 -5.32226,9.96094 l -0.39063,0.73242 h 12.40235 v 6.20117 h -22.70508 v 9.13086 H 578.125 v 6.29883 h -24.70703 v 19.92188 h -7.51953 V 137.20703 H 521.875 v -6.29883 h 24.02344 z m 88.08593,-45.166012 h 21.82618 v 6.787109 h -7.03125 q -2.05078,9.13086 -5.61524,18.701173 h 14.45313 v 6.88477 h -55.12696 v -6.88477 h 13.72071 l -0.0977,-0.48828 Q 614.0625,91.601562 611.71875,84.423828 l -0.3418,-1.025391 h -7.08008 v -6.787109 h 22.2168 V 64.501953 h 7.4707 z m -15.13671,6.787109 q 2.58789,7.958985 4.73632,18.701173 h 12.15821 q 2.92968,-8.105469 5.32226,-18.701173 z m 31.83593,35.888673 v 39.30664 h -7.32422 v -5.51758 h -25.97656 v 6.39649 h -7.56836 v -40.18555 z m -33.30078,6.68945 v 20.3125 h 25.97656 v -20.3125 z m 65.42969,-22.70508 q 12.8418,13.57422 12.8418,29.44336 0,5.56641 -2.00196,8.39844 -2.4414,3.27149 -8.49609,3.27149 -5.81055,0 -10.69336,-0.6836 l -1.61133,-7.61719 q 6.25,1.02539 10.15625,1.02539 3.71094,0 4.39453,-2.49023 0.29297,-1.07422 0.29297,-3.51562 0,-13.72071 -12.64648,-26.70899 5.85937,-12.695311 9.52148,-26.708983 h -15.42969 v 81.787113 h -7.37304 V 70.507812 h 27.49023 l 4.39453,3.808594 q -5.37109,17.382813 -10.83984,28.955074 z"></path>
</svg>
