<svg xmlns="http://www.w3.org/2000/svg" id="svg28" viewBox="0,0,168.1,32.765" height="32.765" width="168.1" version="1.1">
  <defs id="defs28"></defs>
  
  <g id="g28" transform="translate(-240,-180)">
    <g id="g27" style="mix-blend-mode: normal" stroke-dashoffset="0" stroke-dasharray="" stroke-miterlimit="10" stroke-linejoin="miter" stroke-linecap="butt" stroke="none" data-paper-data="{&quot;isPaintingLayer&quot;:true}">
      <path id="path1" stroke-width="0" fill-rule="evenodd" fill="#000000" fill-opacity="0.7" d="M248,180h152.1c4.432,0 8,3.568 8,8v16.765c0,4.432 -3.568,8 -8,8h-152.1c-4.432,0 -8,-3.568 -8,-8v-16.765c0,-4.432 3.568,-8 8,-8z"></path>
      <g transform="translate(240,180)" aria-label="その地域内でのリアルタイム震度色の
最大値を表示します" style="font-weight:bold;font-size:7.99532px;line-height:1.35;font-family:'BIZ UDPGothic';-inkscape-font-specification:'BIZ UDPGothic Bold';fill:#ffffff;stroke-width:3.00094" id="text28">
        <path id="path29" d="m 8.4258049,7.70757 h 4.3334011 l 0.515323,0.6090185 -0.296701,0.1639665 q -1.873903,1.0384546 -2.920166,1.643569 2.45169,-0.0976 4.181146,-0.1991021 l 0.06637,0.8237371 -1.296116,0.05466 q -0.960376,0.04294 -1.768497,0.441148 -1.128245,0.558267 -1.128245,1.405427 0,0.663674 0.772985,0.909624 0.609018,0.191294 1.963694,0.195198 v 0.847161 q -1.721649,-0.0039 -2.49073,-0.335741 -1.1087256,-0.47238 -1.1087256,-1.52645 0,-1.303925 1.7606886,-1.920751 -0.929144,0.03123 -3.2754269,0.160062 l -0.2849894,0.01562 -0.054655,-0.815928 q 0.663674,0 1.3429639,-0.02342 Q 10.338748,9.1637488 11.720751,8.4610352 H 8.4258049 Z M 19.071917,13.6455 q 2.291627,-0.577786 2.291627,-2.627368 0,-0.894008 -0.460668,-1.538162 -0.515323,-0.7261375 -1.569394,-0.9330476 -0.230333,1.8114396 -0.628538,2.9670136 -0.273277,0.80812 -0.67929,1.52645 -0.585594,1.022839 -1.331252,1.022839 -0.554363,0 -0.987703,-0.499708 -0.277181,-0.316221 -0.448956,-0.776889 -0.22643,-0.597306 -0.22643,-1.284404 0,-1.11263 0.612923,-2.0495818 0.62073,-0.9564714 1.612337,-1.3898115 0.722234,-0.3162211 1.58501,-0.3162211 1.346868,0 2.287723,0.7222335 1.155574,0.8862 1.155574,2.5102489 0,2.721064 -2.752295,3.451105 z M 18.486322,8.5156907 Q 17.79532,8.59377 17.330749,8.8865673 17.034047,9.0778616 16.74125,9.3940827 q -0.812025,0.8979123 -0.812025,2.0808133 0,0.862776 0.343549,1.350772 0.210814,0.300605 0.417724,0.300605 0.281086,0 0.632443,-0.62073 0.858872,-1.510835 1.163381,-3.9898523 z m 8.28031,1.8817113 v 3.09194 q 0,0.300605 0.257662,0.363068 0.265469,0.06637 1.214133,0.06637 0.925239,0 1.221941,-0.0937 0.16787,-0.05466 0.218622,-0.30451 0.06637,-0.351356 0.07027,-0.831544 l 0.815929,0.230334 q -0.06246,1.15167 -0.316222,1.471795 -0.16787,0.210814 -0.507515,0.249853 -0.534843,0.05856 -1.815344,0.05856 -0.991607,0 -1.30002,-0.05466 -0.464572,-0.07808 -0.589499,-0.409916 -0.06246,-0.175678 -0.06246,-0.468476 v -3.095844 l -0.745657,0.257662 -0.183487,-0.757369 0.929144,-0.3201254 v -2.104237 h 0.792505 V 9.5775691 L 27.605984,9.2925796 V 7.2351902 h 0.784697 v 1.7841119 l 1.307828,-0.4489559 0.409917,0.2498537 V 11.74427 q 0,0.304509 -0.144447,0.452859 -0.163967,0.163967 -0.550459,0.163967 -0.316221,0 -0.671482,-0.05466 l -0.128831,-0.745657 q 0.230334,0.05856 0.468476,0.05856 0.171774,0 0.210814,-0.07027 0.03904,-0.05856 0.03904,-0.195198 V 9.5072977 L 28.390681,9.8352308 V 12.993538 H 27.605984 V 10.104604 Z M 23.897218,9.1208052 v -1.885615 h 0.839352 v 1.885615 h 0.757369 V 9.91331 H 24.73657 v 2.482922 q 0.409916,-0.140543 0.812025,-0.292798 l 0.07418,0.753465 q -1.264884,0.577787 -2.596136,0.968184 l -0.273278,-0.831545 q 0.601211,-0.156158 1.054071,-0.296701 0.05466,-0.01952 0.08979,-0.02733 V 9.91331 H 22.905611 V 9.1208052 Z M 37.529862,8.6015779 q -0.01952,-0.03904 -0.03514,-0.078079 -0.22643,-0.5114194 -0.636347,-0.999415 l 0.648058,-0.3045092 q 0.433341,0.4840916 0.702714,1.0540704 l -0.624634,0.3279331 h 0.823736 v 0.7183295 h -1.803631 l 0.0078,0.1561586 q 0.05856,1.233653 0.238142,2.131565 0.324029,-0.710522 0.585595,-1.581106 l 0.726138,0.312317 q -0.464572,1.31954 -1.034551,2.307243 0.163966,0.487996 0.366973,0.854969 0.07808,0.140542 0.117118,0.140542 0.04294,0 0.128831,-0.234237 0.0976,-0.277182 0.156159,-0.952568 l 0.648058,0.456764 q -0.128831,1.007223 -0.327933,1.463987 -0.175678,0.398204 -0.441148,0.398204 -0.261566,0 -0.609019,-0.390396 -0.33574,-0.378685 -0.589498,-0.92524 -0.667578,0.839352 -1.52645,1.436659 L 34.476962,14.30527 q 0.745657,-0.448956 1.307828,-1.05407 -0.956471,0.374781 -2.521961,0.706618 L 33.005167,13.23168 q 1.627953,-0.269373 2.814759,-0.632442 l 0.02733,0.577787 q 0.210815,-0.234238 0.421629,-0.542652 -0.327933,-1.136053 -0.448956,-3.3144656 h -2.564905 v 0.554363 h -0.632442 v 2.5688086 q 0.359164,-0.14835 0.655866,-0.281085 l 0.08589,0.765177 q -1.159478,0.616826 -2.315051,0.999415 l -0.281086,-0.823737 q 0.441148,-0.124927 1.038455,-0.339645 V 9.8742704 h -0.917432 v -0.776889 h 0.917432 v -1.877807 h 0.815929 v 1.877807 h 0.558266 V 8.6015779 h 2.603945 l -0.01562,-0.2732775 q -0.01952,-0.3708767 -0.03904,-1.0931102 h 0.800313 q 0.02342,1.0150309 0.04294,1.3663877 z M 35.636439,9.9952933 V 12.353288 H 33.551722 V 9.9952933 Z m -1.421043,0.6324427 v 1.100918 h 0.772985 V 10.627736 Z M 42.202908,8.5391144 V 7.2351902 h 0.870584 v 1.3039242 h 2.998245 v 5.4343186 q 0,0.460668 -0.249854,0.644155 -0.203006,0.152254 -0.706618,0.152254 -0.862776,0 -1.424947,-0.04294 l -0.160062,-0.831545 q 0.874488,0.05466 1.460082,0.05466 0.156159,0 0.183487,-0.07418 0.01952,-0.04685 0.01952,-0.14835 V 9.3394272 h -2.123757 l -0.0039,0.05856 q -0.01952,0.3162211 -0.07808,0.6480583 1.159478,0.948663 2.069102,2.139373 l -0.663674,0.616826 q -0.648058,-0.940856 -1.627954,-1.955886 -0.503611,1.323444 -2.026157,2.209644 L 40.223597,12.368904 Q 41.133221,11.845773 41.566561,11.25237 42.13654,10.471577 42.1951,9.3394272 H 40.145518 V 14.832306 H 39.267126 V 8.5391144 Z m 4.915093,-0.3552607 q 3.591647,-0.054656 6.788994,-0.1834864 l 0.04685,0.776889 q -1.409331,0.070271 -2.194028,0.4294361 -0.749561,0.3435489 -1.202421,0.9525676 -0.515324,0.691002 -0.515324,1.538162 0,0.843256 0.585595,1.264885 0.671482,0.480187 2.061293,0.65977 l -0.183486,0.878392 q -1.81144,-0.242046 -2.549289,-0.936952 -0.792505,-0.741753 -0.792505,-1.842671 0,-0.999415 0.71833,-1.8660954 0.523131,-0.6363463 1.432755,-1.0228388 -1.612338,0.054655 -4.157723,0.1834864 z m 5.676364,3.3691213 q -0.230334,-0.612922 -0.776889,-1.389811 l 0.609019,-0.2264302 q 0.487996,0.6714822 0.784697,1.3741952 z m 1.054071,-0.409916 q -0.277182,-0.71833 -0.772985,-1.3976194 l 0.581691,-0.2069102 q 0.456764,0.5543626 0.776889,1.3429636 z m 5.20008,2.502441 q 2.291628,-0.577786 2.291628,-2.627368 0,-0.894008 -0.460668,-1.538162 -0.515323,-0.7261375 -1.569394,-0.9330476 -0.230334,1.8114396 -0.628538,2.9670136 -0.273278,0.80812 -0.67929,1.52645 -0.585595,1.022839 -1.331252,1.022839 -0.554363,0 -0.987703,-0.499708 -0.277182,-0.316221 -0.448956,-0.776889 -0.22643,-0.597306 -0.22643,-1.284404 0,-1.11263 0.612922,-2.0495818 0.620731,-0.9564714 1.612338,-1.3898115 0.722233,-0.3162211 1.58501,-0.3162211 1.346867,0 2.287723,0.7222335 1.155573,0.8862 1.155573,2.5102489 0,2.721064 -2.752295,3.451105 z M 58.462922,8.5156907 Q 57.77192,8.59377 57.307348,8.8865673 57.010647,9.0778616 56.71785,9.3940827 q -0.812025,0.8979123 -0.812025,2.0808133 0,0.862776 0.343549,1.350772 0.210814,0.300605 0.417724,0.300605 0.281085,0 0.632442,-0.62073 0.858873,-1.510835 1.163382,-3.9898523 z m 5.067346,-0.9525674 h 0.909623 V 11.834061 H 63.530268 Z M 67.539639,7.48114 h 0.909624 v 2.791335 q 0,1.471795 -0.238142,2.190124 -0.199102,0.612923 -0.542651,0.975991 -0.714425,0.769081 -2.295531,1.136054 l -0.448956,-0.800313 q 1.729456,-0.351357 2.217452,-1.167285 0.308413,-0.519228 0.370877,-1.311732 0.02733,-0.366973 0.02733,-1.015031 z m 2.291627,0.554363 h 6.117513 l 0.503612,0.4255322 q -0.218622,0.8159286 -0.569979,1.3624837 -0.65977,1.0345511 -1.975406,1.5459701 l -0.4919,-0.671482 q 0.909624,-0.273278 1.510835,-0.9798952 0.35526,-0.4177242 0.495803,-0.882296 h -5.590478 z m 2.502442,1.6865128 h 0.894008 v 0.6714822 q 0,1.510834 -0.335741,2.334571 -0.425532,1.046262 -1.655281,1.702128 l -0.644154,-0.67929 q 0.84716,-0.402108 1.237556,-0.960375 0.300606,-0.43334 0.394301,-0.917432 0.109311,-0.554363 0.109311,-1.48741 z m 6.402505,-1.8778071 h 0.878392 v 1.4210432 q 0,2.0417731 -0.30451,2.9826291 -0.402108,1.245365 -1.686512,2.076909 l -0.597307,-0.694905 q 0.890104,-0.624635 1.253173,-1.296117 0.304509,-0.566075 0.402108,-1.518642 0.05466,-0.538747 0.05466,-1.5342582 z m 1.99883,-0.2264299 h 0.878392 v 5.5475342 q 0.776889,-0.402109 1.362483,-1.143862 0.640251,-0.812025 0.956472,-1.924655 l 0.687098,0.663674 q -0.390397,1.159478 -1.069687,1.979311 -0.854968,1.03455 -2.240876,1.627953 L 80.735043,13.87193 Z m 10.236191,0.663674 0.558267,0.4567639 q -0.546555,2.4985373 -1.7724,3.8688293 -0.67929,0.757369 -1.756784,1.327348 -0.765177,0.402108 -1.643569,0.64025 l -0.45286,-0.769081 q 2.006638,-0.523131 3.115364,-1.670897 -0.913528,-0.819833 -2.014446,-1.452275 l 0.511419,-0.632442 q 1.07359,0.558267 2.041774,1.374195 0.761273,-1.218037 0.956471,-2.3579943 h -2.748391 q -0.94476,1.4717943 -2.22526,2.2525873 l -0.573883,-0.62073 q 1.237557,-0.7456573 2.033966,-1.9715022 0.409916,-0.6246344 0.636346,-1.3468679 l 0.84716,0.2069101 q -0.128831,0.3513569 -0.288893,0.6949058 z m 4.306073,6.2034002 v -4.005468 q -1.186805,0.796409 -2.709351,1.342964 l -0.47238,-0.792505 q 1.729456,-0.581691 3.033381,-1.4991225 1.2805,-0.9018159 2.279915,-2.0651974 l 0.753465,0.4723798 q -0.8862,1.0189348 -1.975406,1.8699991 v 4.67695 z m 3.392545,-1.342964 q 0.269374,-0.0039 0.741753,-0.03904 1.112635,-2.498537 2.049585,-5.5006861 l 0.894,0.2342379 q -0.92133,2.8811262 -1.96759,5.2039852 1.98321,-0.144447 3.51747,-0.351357 -0.57779,-1.018935 -1.17509,-1.881711 l 0.76908,-0.487996 q 1.22975,1.694321 2.15889,3.591648 l -0.87839,0.456764 q -0.21472,-0.45286 -0.47238,-0.94476 -2.27992,0.382589 -5.446034,0.67929 z M 109.38233,8.2892607 v -0.335741 h -2.43997 V 7.3952528 h 5.76225 v 0.5582669 h -2.49073 v 0.335741 h 3.23248 V 9.6907841 H 112.5992 V 8.7928722 h -2.38532 v 1.5186418 h -0.83155 V 8.7928722 h -2.34238 V 9.6907841 H 106.2006 V 8.2892607 Z m 2.76401,5.5397263 q 0.59731,0.22643 1.49132,0.359164 l -0.45677,0.663674 q -1.25317,-0.214718 -2.05739,-0.737849 -0.80031,-0.523131 -1.24536,-1.30002 h -0.86278 v 1.202421 q 0.86278,-0.121023 1.60063,-0.257662 l 0.0547,0.581691 q -1.37419,0.327933 -3.14269,0.569979 l -0.23033,-0.687098 q 0.61292,-0.06637 0.83935,-0.09369 l 0.0468,-0.0078 v -1.307828 h -0.85497 q -0.0547,0.687098 -0.17958,1.097014 -0.14835,0.4919 -0.47629,0.917432 l -0.6949,-0.573883 q 0.38259,-0.495804 0.47628,-1.159478 0.0508,-0.359164 0.0508,-0.894008 v -1.655281 h 6.73824 v 0.519228 h -5.89889 v 1.198517 h 6.23464 v 0.550459 h -0.8862 l 0.4958,0.327933 q -0.44115,0.366973 -1.04236,0.687098 z m -0.60902,-0.300606 q 0.56217,-0.382588 0.89401,-0.714425 h -1.70603 q 0.33574,0.429436 0.81202,0.714425 z M 107.3835,9.0817656 h 1.66309 v 0.441148 h -1.66309 z m 0,0.7183295 h 1.66309 v 0.4489559 h -1.66309 z m 3.16612,-0.7183295 h 1.71384 v 0.441148 h -1.71384 z m 0,0.7183295 h 1.71384 v 0.4489559 h -1.71384 z m -2.74058,1.5928179 h 4.86043 v 0.511419 h -4.86043 z m 10.61878,-3.4550091 h 3.0607 V 8.59377 h -1.73336 v 0.6480581 h 1.62405 v 0.6324423 h -1.62405 v 1.1633816 h -3.14269 V 9.8742704 h -1.2805 v 0.7261376 q 0,1.768496 -0.18739,2.795239 -0.14445,0.780793 -0.46847,1.424947 l -0.71053,-0.562171 q 0.29671,-0.644154 0.40602,-1.573298 0.0976,-0.815929 0.0976,-2.084717 V 7.9379039 h 3.08803 V 7.2351902 h 0.87059 z M 115.33197,8.59377 v 0.6480581 h 1.2805 V 8.59377 Z m 2.11205,0 v 0.6480581 h 1.4796 V 8.59377 Z m 0,1.2805004 v 0.6051146 h 1.4796 V 9.8742704 Z m 0.90572,4.0991626 q -1.12825,0.585595 -2.86551,0.890104 l -0.40602,-0.718329 q 1.63186,-0.195198 2.5571,-0.597307 -0.7925,-0.573883 -1.35467,-1.362483 h -0.53875 v -0.67929 h 4.57154 l 0.40992,0.343549 q -0.58169,0.894008 -1.65919,1.682608 0.92524,0.370877 2.52196,0.546555 l -0.45676,0.73785 q -1.53035,-0.20691 -2.77962,-0.843257 z m -1.15948,-1.788015 q 0.47238,0.554363 1.14776,0.975991 0.76128,-0.4919 1.1751,-0.975991 z m 6.67969,-0.234238 v 1.417139 q 0,0.308413 0.22643,0.370877 0.33574,0.0937 2.22135,0.0937 1.6748,0 2.08472,-0.0976 0.1952,-0.04685 0.24985,-0.218622 0.0664,-0.195199 0.10541,-0.909624 l 0.86278,0.265469 q -0.0429,0.769081 -0.12493,1.054071 -0.10541,0.370876 -0.3904,0.503611 -0.203,0.0937 -0.56217,0.117119 -0.92524,0.06637 -2.41655,0.06637 -2.08862,0 -2.48292,-0.07418 -0.44506,-0.08198 -0.57389,-0.390396 -0.0625,-0.156159 -0.0625,-0.390397 V 9.7493435 l -0.039,0.031232 q -0.17958,0.1288309 -0.42553,0.2849898 l -0.53485,-0.6480585 q 1.39372,-0.7651771 2.358,-2.1823163 l 0.54655,0.3747806 h 2.22136 l 0.41382,0.4294362 q -0.51532,0.7300414 -1.07749,1.3156361 h 2.50244 V 11.95118 Z m 0,-0.694906 h 1.6787 v -1.182901 h -1.6787 z m 2.51805,-1.182901 v 1.182901 h 1.71384 v -1.182901 z m -0.90572,-0.7183299 q 0.50361,-0.5270353 0.85888,-1.0345507 h -1.80364 q -0.43334,0.5309392 -1.03064,1.0345507 z m 8.72146,4.2904569 q 2.29163,-0.577786 2.29163,-2.627368 0,-0.894008 -0.46067,-1.538162 -0.51532,-0.7261375 -1.56939,-0.9330476 -0.23033,1.8114396 -0.62854,2.9670136 -0.27328,0.80812 -0.67929,1.52645 -0.58559,1.022839 -1.33125,1.022839 -0.55436,0 -0.9877,-0.499708 -0.27718,-0.316221 -0.44896,-0.776889 -0.22643,-0.597306 -0.22643,-1.284404 0,-1.11263 0.61292,-2.0495818 0.62073,-0.9564714 1.61234,-1.3898115 0.72223,-0.3162211 1.58501,-0.3162211 1.34687,0 2.28772,0.7222335 1.15558,0.8862 1.15558,2.5102489 0,2.721064 -2.7523,3.451105 z m -0.58559,-5.1298093 q -0.691,0.078079 -1.15557,0.3708766 -0.29671,0.1912943 -0.5895,0.5075154 -0.81203,0.8979123 -0.81203,2.0808133 0,0.862776 0.34355,1.350772 0.21082,0.300605 0.41773,0.300605 0.28108,0 0.63244,-0.62073 0.85887,-1.510835 1.16338,-3.9898523 z"></path>
        <path id="path30" d="m 13.930395,18.196743 v 2.447786 H 8.0861599 V 18.196743 Z M 8.9567441,18.75501 v 0.402108 H 13.059811 V 18.75501 Z m 0,0.913527 v 0.456764 h 4.1030669 v -0.456764 z m 1.9519819,2.053486 v 3.255906 Q 11.67,24.771019 12.302442,24.267408 11.709039,23.576406 11.40453,22.779997 h -0.335741 v -0.624634 h 3.013861 l 0.382588,0.335741 q -0.425532,1.030647 -1.065782,1.768496 0.573883,0.374781 1.436659,0.636346 l -0.480188,0.714426 q -0.890104,-0.335741 -1.499122,-0.819833 -0.667578,0.550459 -1.56549,0.874488 l -0.382589,-0.573883 v 0.534844 h -0.80812 v -0.870585 q -1.1087262,0.222526 -2.7444875,0.398205 l -0.214718,-0.71833 q 0.5153233,-0.02733 0.878392,-0.05466 v -2.6586 H 7.2038639 v -0.648058 h 7.5971151 v 0.648058 z m -0.80812,0 H 8.8201053 v 0.47238 h 1.2805007 z m 0,0.991607 H 8.8201053 v 0.480188 h 1.2805007 z m 0,0.991607 H 8.8201053 v 0.597307 q 0.331837,-0.03514 0.4997075,-0.05466 0.448956,-0.04685 0.7807932,-0.08979 z m 2.709351,0.06637 q 0.355261,-0.409916 0.640251,-0.991607 h -1.323445 q 0.242046,0.527036 0.683194,0.991607 z m 6.730436,-2.935781 q 0.269373,0.913528 1.022838,1.944174 0.917432,1.257077 2.256492,1.991022 l -0.558267,0.804217 q -1.417139,-0.835448 -2.365803,-2.213548 -0.511419,-0.749561 -0.819832,-1.52645 -0.308413,1.046262 -0.956472,1.901231 -0.952567,1.264884 -2.35409,1.866095 L 15.2148,24.888138 q 1.46789,-0.612922 2.369706,-1.889519 0.757369,-1.077494 0.897912,-2.162796 h -3.115364 v -0.84716 h 3.1505 v -1.881712 h 0.901816 v 1.881712 h 3.216867 v 0.84716 z m 8.791728,-0.831545 h 1.807536 v 3.982044 h -3.540896 v -3.982044 h 0.909624 l 0.06246,-0.359164 0.01562,-0.101503 0.01562,-0.101504 H 25.3573 v -0.679289 h 2.346283 q 0.03514,-0.26547 0.0937,-0.769081 l 0.870584,0.06637 q -0.01562,0.144447 -0.0976,0.702714 h 2.147181 v 0.679289 h -2.272108 q -0.0039,0.02733 -0.01171,0.06246 -0.04294,0.218622 -0.101503,0.499707 z m 0.999415,0.616827 h -1.951982 v 0.527035 h 1.951982 z m -1.951982,1.09311 v 0.519227 h 1.951982 v -0.519227 z m 0,1.085302 v 0.569979 h 1.951982 V 22.799517 Z M 24.744378,19.86764 v 5.758348 h -0.796409 v -3.989852 q -0.242046,0.445052 -0.554363,0.921335 l -0.366973,-0.913527 q 0.534843,-0.819833 0.936952,-1.991022 0.238141,-0.683194 0.503611,-1.702129 l 0.823737,0.199102 q -0.288894,1.07359 -0.546555,1.717745 z m 1.335156,4.653526 h 4.801876 v 0.702713 h -4.801876 v 0.402109 h -0.812025 v -4.934612 h 0.812025 z m 5.78958,-5.39528 h 2.104237 q 0.347453,-0.554363 0.527035,-0.894008 l 0.870584,0.124927 q -0.117119,0.210814 -0.41382,0.687098 l -0.05075,0.08198 h 2.752296 v 0.769081 h -3.271523 q -0.511419,0.702714 -0.975991,1.218037 0.737849,-0.441148 1.346868,-0.441148 0.944759,0 1.237557,0.948664 0.999415,-0.331837 2.037869,-0.655866 l 0.335741,0.757369 -0.136639,0.03904 -0.386492,0.101503 q -1.09311,0.296701 -1.748976,0.507515 0.04685,0.507515 0.06637,1.311732 l -0.854968,0.04685 q -0.0039,-0.464572 -0.01562,-1.007223 v -0.07808 q -1.795824,0.612922 -1.795824,1.233652 0,0.320126 0.460668,0.437244 0.445052,0.113215 1.592818,0.113215 1.057974,0 2.221356,-0.121022 l 0.09369,0.831544 q -1.128246,0.08589 -2.338475,0.08589 -1.491315,0 -2.119853,-0.22643 -0.776889,-0.281085 -0.776889,-1.011127 0,-0.616826 0.550459,-1.089206 0.569979,-0.487995 2.006638,-1.007223 -0.07808,-0.300605 -0.20691,-0.421628 -0.144447,-0.136639 -0.382589,-0.136639 -0.386492,0 -0.972087,0.292798 -0.722234,0.359165 -1.549874,1.081398 l -0.519227,-0.593403 q 1.214133,-1.128245 1.90123,-2.217452 h -1.588913 z m 12.262353,4.860436 0.05465,0.69881 q -1.694321,0.597307 -3.767326,0.983799 l -0.288893,-0.780793 q 0.359165,-0.05466 1.015031,-0.175678 v -1.428851 q -0.675386,0.343549 -1.608434,0.651962 l -0.445052,-0.694906 q 1.877807,-0.507515 2.86551,-1.296116 h -2.787431 v -0.67929 h 3.345698 V 20.67576 h -2.529769 v -0.655866 h 2.529769 v -0.550459 h -2.927973 v -0.671482 h 2.927973 v -0.769081 h 0.854969 v 0.769081 h 3.01386 v 0.671482 h -3.01386 v 0.550459 h 2.615656 v 0.655866 h -2.615656 v 0.589499 h 3.431585 v 0.67929 h -0.933048 l 0.577787,0.398204 q -0.534843,0.519228 -1.499123,1.136054 l -0.08979,0.05856 q 0.733945,0.671482 1.991022,1.108726 l -0.527035,0.792505 q -1.362484,-0.577786 -2.190124,-1.452275 z m -1.182902,-2.030061 q -0.390396,0.456764 -0.940855,0.819832 v 1.752881 q 0.964279,-0.214719 1.936366,-0.499708 l 0.179583,-0.05075 q -0.800313,-0.886201 -1.175094,-2.022254 z m 1.424947,1.065782 q 0.694906,-0.495803 1.218037,-1.077494 h -1.846575 q 0.249854,0.597306 0.628538,1.077494 z m 7.081794,-1.666993 v 3.462817 q 0,0.47238 -0.191294,0.644154 -0.179583,0.156159 -0.694906,0.156159 -0.585595,0 -1.11263,-0.07418 l -0.16787,-0.823736 q 0.546555,0.08979 1.046262,0.08979 0.167871,0 0.210814,-0.05856 0.03123,-0.05075 0.03123,-0.167871 V 21.35505 h -3.35741 v -0.776889 h 7.52294 v 0.776889 z m -3.29885,-2.892838 h 5.645133 v 0.769081 h -5.645133 z m -0.983799,5.988682 q 0.843256,-0.882296 1.358579,-2.346283 l 0.808121,0.30451 q -0.597307,1.674801 -1.503026,2.631272 z m 6.699203,0.476284 q -0.808121,-1.709937 -1.405427,-2.502441 l 0.733945,-0.437245 q 0.858872,1.104822 1.463987,2.404843 z m 2.073005,-6.570373 h 0.921336 v 4.653526 q 0,1.471795 1.54597,1.471795 1.018935,0 1.670897,-0.940856 0.421628,-0.605114 0.757369,-1.873903 l 0.792505,0.480188 q -0.398205,1.409331 -0.956472,2.108141 -0.878392,1.089206 -2.283819,1.089206 -1.467891,0 -2.069101,-0.90572 -0.378685,-0.566075 -0.378685,-1.460082 z m 9.627175,-0.144446 h 0.862776 v 0.983799 h 2.455594 v 0.741753 h -2.455594 v 0.929144 h 2.318956 V 21.601 h -2.318956 v 1.206325 q 1.389812,0.468476 2.740584,1.409331 l -0.460668,0.741754 q -1.022839,-0.765177 -2.279916,-1.350772 -0.03123,0.667578 -0.257661,1.034551 -0.394301,0.636346 -1.553778,0.636346 -0.894008,0 -1.436659,-0.335741 -0.605115,-0.374781 -0.605115,-1.015031 0,-0.765177 0.815929,-1.13215 0.546555,-0.242046 1.421043,-0.242046 0.343549,0 0.753465,0.05466 V 21.601 h -2.767911 v -0.733945 h 2.767911 v -0.929144 h -2.935781 v -0.741753 h 2.935781 z m 0,5.122001 q -0.464572,-0.0976 -0.890104,-0.0976 -0.519227,0 -0.843256,0.152255 -0.386493,0.183486 -0.386493,0.523131 0,0.28499 0.300606,0.460668 0.304509,0.179582 0.812024,0.179582 0.601211,0 0.827641,-0.320125 0.179582,-0.249854 0.179582,-0.745657 z m 8.28812,-5.145425 h 0.878392 v 1.077494 h 2.30334 v 0.753465 h -2.30334 v 1.670897 q 0.136639,0.480188 0.136639,0.854968 0,1.389812 -0.612922,2.041774 -0.667578,0.714426 -2.010542,0.987703 l -0.445052,-0.663674 q 1.042358,-0.199102 1.54597,-0.562171 0.47238,-0.343549 0.636346,-0.933047 -0.417724,0.456763 -0.995511,0.456763 -0.648058,0 -1.050166,-0.366972 -0.47238,-0.43334 -0.47238,-1.257077 0,-0.43334 0.20691,-0.835448 0.136639,-0.257662 0.335741,-0.429436 0.460668,-0.390397 1.104822,-0.390397 0.409916,0 0.741753,0.195198 v -0.769081 h -3.853213 v -0.753465 h 3.853213 z m 0.03123,4.052315 v -0.144447 q 0,-0.249853 -0.117119,-0.441148 -0.218622,-0.359164 -0.632442,-0.359164 -0.210814,0 -0.394301,0.117119 -0.429436,0.269373 -0.429436,0.82764 0,0.351357 0.156159,0.593403 0.218622,0.335741 0.644154,0.335741 0.386493,0 0.612923,-0.347453 0.160062,-0.24595 0.160062,-0.581691 z"></path>
      </g>
    </g>
  </g>
</svg>


