<svg xmlns="http://www.w3.org/2000/svg" id="svg1" version="1.1" height="200" width="1096">
  <defs id="defs1"></defs>
  <rect id="rect1" stroke="none" fill="none" height="200" width="1096" y="0" x="0"></rect>
  <path aria-label="津軽海峡" style="font-weight:bold;font-size:110px;font-family:'BIZ UDPGothic';fill:#ff0000" id="text1" d="m 71.489258,108.10547 v 7.68066 h 29.272462 v 8.8086 H 71.489258 v 7.8955 h 33.676762 v 9.45313 H 71.489258 v 18.53027 H 59.941406 V 141.94336 H 29.057617 v -9.45313 h 30.883789 v -7.8955 H 33.676758 v -8.8086 h 26.264648 v -7.68066 H 36.738281 V 99.941406 H 59.941406 V 91.508789 H 27.714844 V 82.807617 H 59.941406 V 74.536133 H 37.275391 V 66.049805 H 59.941406 V 55.952148 h 11.547852 v 10.097657 h 26.855469 v 16.757812 h 9.345703 v 8.701172 h -9.345703 v 16.596681 z m 0,-8.164064 H 87.119141 V 91.508789 H 71.489258 Z m 0,-17.133789 H 87.119141 V 74.536133 H 71.489258 Z M 22.021484,81.464844 Q 15.307617,72.226562 5.9619141,64.438477 L 14.287109,56.59668 q 10.097657,7.734375 16.435547,16.274414 z M 18.261719,109.39453 Q 10.473633,99.135742 1.9873047,91.938477 L 10.258789,83.881836 Q 18.90625,90.43457 27.177734,100.58594 Z M 3.8671875,152.20215 Q 14.179688,135.33691 21.430664,114.22852 l 9.399414,6.60644 q -6.713867,21.37695 -16.865234,39.37012 z M 132.45117,84.204102 v -7.358399 h -18.79883 v -9.667969 h 18.79883 V 55.952148 h 10.20508 v 11.225586 h 17.93945 v 9.667969 h -17.93945 v 7.358399 h 16.38184 v 40.390628 h -16.38184 v 7.35839 h 19.55078 v 9.7754 h -19.55078 v 18.6914 h -10.20508 v -18.6914 h -20.1416 v -9.7754 h 20.1416 v -7.35839 H 116.60645 V 84.204102 Z m 0.42969,8.808593 h -7.78809 v 7.358395 h 7.78809 z m 9.45312,0 v 7.358395 h 8.00293 v -7.358395 z m -9.45312,15.200195 h -7.78809 v 7.68066 h 7.78809 z m 9.45312,0 v 7.68066 h 8.00293 v -7.68066 z m 40.71289,12.46094 v -12.03125 h 10.7959 v 12.03125 h 20.35645 v 9.88281 h -20.35645 v 16.7041 h 23.31055 v 9.88281 h -58.00781 v -9.88281 h 23.90136 v -16.7041 h -18.90625 v -9.88281 z m 6.12305,-21.591799 q -9.93652,8.110349 -23.41797,13.803709 l -6.3916,-8.32519 Q 172.51953,99.511719 181.16699,92.207031 170.74707,81.733398 166.18164,70.668945 h -3.59863 v -9.882812 h 44.63379 l 5.96191,5.263672 q -7.51953,16.381836 -16.7041,26.103515 9.29199,6.230469 22.6123,10.20508 l -5.37109,9.3457 q -13.96484,-4.78027 -24.5459,-12.622069 z M 176.33301,70.668945 q 4.56543,8.164063 11.87011,15.039063 6.3379,-6.982422 10.68848,-15.039063 z M 317.7002,85.117187 q 0,2.524415 -0.4834,23.955083 h 10.25879 v 9.66796 h -10.47364 q -0.16113,7.03614 -0.69824,15.95215 h 9.07715 v 9.45313 h -9.77539 q -0.64453,7.78808 -1.77246,10.3125 -2.52442,6.01562 -12.2461,6.01562 -6.23046,0 -11.49414,-0.91308 L 288.10547,150 q 7.57324,1.07422 11.60156,1.07422 3.27637,0 3.9209,-2.30957 0.32227,-1.12793 0.59082,-4.61914 h -38.24219 q -0.0537,0.42969 -0.16113,0.91308 -0.4834,2.84668 -0.91309,5.3711 l -11.11816,-1.07422 q 3.27637,-19.38965 4.4043,-29.32617 l 0.16113,-1.28907 h -10.74219 v -9.66796 h 11.87012 q 1.50391,-12.998051 2.57812,-23.955083 z m -33.94532,9.345704 h -11.76269 q -0.16114,2.739257 -0.9668,11.547849 l -0.32227,3.06153 h 11.92383 l 0.16114,-1.50391 q 0.10742,-1.55762 0.32226,-4.35059 0.53711,-7.519528 0.64453,-8.754879 z m 10.58106,0 q -0.26856,6.391599 -0.80567,14.125979 v 0.4834 h 12.62207 q 0.21485,-7.3584 0.37598,-14.609379 z m -12.56836,24.277339 h -12.08496 q -0.80567,6.55274 -1.71875,12.94434 l -0.42969,3.00781 h 12.56836 q 1.28906,-11.65527 1.66504,-15.95215 z m 11.01074,0 q -0.16113,2.14844 -0.64453,7.08985 l -0.85938,8.8623 h 13.69629 q 0.26856,-5.20996 0.42969,-7.84179 0.32227,-5.74707 0.42969,-8.11036 z M 271.72363,65.727539 h 51.88477 v 9.990234 h -56.34278 q -4.35058,8.862305 -11.06445,16.865235 l -7.68066,-8.378906 Q 259.10156,71.796875 263.55957,55.629883 L 275,56.811523 q -1.93359,5.585938 -3.27637,8.916016 z m -29.59472,15.629883 q -6.60645,-9.077149 -16.05957,-17.026367 l 8.11035,-7.841797 q 8.75488,6.445312 16.65039,16.274414 z M 238.26172,109.7168 Q 230.09766,99.243164 221.77246,92.15332 l 8.37891,-8.05664 q 9.3457,7.358398 16.81152,16.75781 z m -14.60938,42.16308 q 9.34571,-12.94433 17.72461,-34.10644 l 9.56055,6.82129 q -6.98242,19.55078 -17.93945,35.8789 z M 395.90332,108.75 v -27.5 h -22.0752 V 71.044922 h 22.0752 V 55.952148 h 11.33301 v 15.092774 h 26.74804 V 81.25 h -26.74804 v 27.5 h 29.91699 v 10.20508 h -27.66113 q 9.18457,21.16211 29.21875,30.50781 l -7.25098,10.63477 q -12.13867,-7.51954 -18.74512,-15.73731 -5.74707,-7.25098 -9.66797,-16.75781 -6.55273,22.55859 -31.31347,33.51562 l -7.3584,-9.45312 q 14.01855,-5.04883 21.1084,-13.75 6.44531,-7.94922 9.18457,-18.95996 h -23.47168 v 21.91406 h -28.09082 v 9.02344 h -9.13086 V 74.750977 h 8.70117 v 55.644533 h 5.26367 V 56.704102 h 9.23828 v 73.691408 h 5.53223 V 74.750977 h 8.48633 V 108.75 Z m -14.50195,-1.4502 q -3.06153,-11.762691 -6.92871,-20.087886 l 9.66796,-3.4375 q 4.35059,8.808594 7.25098,19.819336 z m 30.23925,-3.06152 q 4.94141,-10.151366 7.89551,-21.000975 l 10.7959,3.706054 q -3.97461,11.225586 -9.23828,20.356441 z"></path>
</svg>
