<svg xmlns="http://www.w3.org/2000/svg" id="svg1" version="1.1" height="200" width="1096">
  <defs id="defs1"></defs>
  <rect id="rect1" stroke="none" fill="none" height="200" width="1096" y="0" x="0"></rect>
  <path aria-label="豊後水道" style="font-weight:bold;font-size:110px;font-family:'BIZ UDPGothic';fill:#ff0000" id="text1" d="m 83.144531,140.86914 q -1.826172,4.02832 -4.672851,8.70117 h 28.73535 v 8.59375 H 2.7392578 v -8.59375 H 30.34668 q -1.987305,-4.24316 -4.780274,-8.70117 H 15.146484 v -21.64551 h 79.653321 v 21.64551 z m -12.998047,0 H 38.886719 q 2.846679,4.83398 4.135742,8.70117 h 23.203125 q 2.094726,-4.18945 3.920898,-8.70117 z M 27.231445,126.79688 v 6.60644 h 55.483399 v -6.60644 z M 37.275391,63.632812 v -7.680664 h 10.90332 v 7.680664 H 61.28418 v -7.680664 h 10.849609 v 7.680664 H 96.894531 V 101.49902 H 13.105469 V 63.632812 Z m -13.266602,7.358399 v 7.949219 h 13.266602 v -7.949219 z m 0,14.87793 v 8.164062 h 13.266602 v -8.164062 z m 61.875,8.164062 v -8.164062 h -13.75 v 8.164062 z m 0,-15.092773 v -7.949219 h -13.75 V 78.94043 Z M 48.178711,70.991211 V 78.94043 H 61.28418 v -7.949219 z m 0,14.87793 v 8.164062 H 61.28418 V 85.869141 Z M 4.1894531,106.33301 H 105.81055 v 8.05664 H 4.1894531 Z M 167.68555,93.549805 q -8.64746,-10.3125 -20.30274,-19.604493 l 7.73438,-7.358398 q 3.97461,3.383789 6.92871,6.230469 6.12305,-7.626953 11.65527,-17.670899 l 10.3125,4.511719 q -7.30469,10.527344 -15.62988,19.443359 l 0.80566,0.805665 q 3.38379,3.652343 5.80078,6.499023 10.36622,-10.742188 19.38965,-21.806641 l 9.13086,5.639649 q -12.24609,14.501953 -27.82226,28.359375 9.88281,-0.483399 23.36425,-1.396485 -3.00781,-5.317382 -6.76757,-10.366211 l 9.02343,-4.189453 q 8.48633,10.366211 15.03907,24.545896 l -9.77539,4.72657 -1.50391,-3.16895 q -1.4502,-3.00781 -1.82617,-3.70605 -14.50196,1.93359 -26.10352,2.52441 -0.37597,0.0537 -0.80566,0.10742 -1.61133,2.68555 -4.24317,6.55274 h 29.11133 l 6.49903,5.96191 q -8.21778,11.70898 -18.26172,19.71191 12.35351,6.33789 28.57422,9.99024 l -5.90821,10.41992 q -16.75781,-4.29688 -32.11914,-13.85742 -17.56348,10.63476 -33.78418,14.66308 l -5.85449,-10.04394 q 14.44824,-2.4707 30.56152,-10.84961 -6.76758,-5.58594 -12.19238,-11.22559 -4.18945,3.54493 -9.77539,6.71387 l -6.92871,-7.41211 q 12.7832,-7.08984 21.96777,-19.92676 l -8.05664,0.42969 q -4.67285,0.26856 -8.32519,0.37598 l -2.417,-9.667971 q 3.54493,-0.05371 16.27442,-0.375977 l 1.82617,-1.557617 q 2.20215,-1.987305 4.4043,-4.02832 z m 12.67578,40.981445 q 7.46582,-5.4248 12.56836,-11.60156 h -26.90918 q 6.23047,6.3916 14.34082,11.60156 z m -42.27051,-32.76367 v 58.70605 h -11.54785 v -45.22461 q -4.99512,5.04883 -9.8291,9.23828 l -5.3711,-10.52734 q 14.77051,-11.49414 27.82227,-33.569335 l 9.66797,5.478516 q -4.83399,8.002929 -10.74219,15.898439 z M 112.20215,80.712891 q 13.69629,-9.614258 23.41797,-24.438477 l 9.93652,5.263672 Q 132.88086,79.692383 118.16406,90.058594 Z M 281.875,76.308594 q 2.30957,10.258789 7.3584,20.356445 13.80371,-11.655273 24.86816,-25.083008 l 9.77539,8.110352 q -15.20019,16.435547 -29.32617,26.049807 0.26856,0.37597 0.53711,0.80566 11.70898,17.77832 33.83789,31.25977 l -7.68066,10.52734 Q 295.625,132.91992 281.875,103.27148 v 46.83594 q 0,5.31738 -2.57813,7.46582 -2.63183,2.20215 -9.61425,2.20215 -8.3252,0 -15.09278,-0.85937 l -2.20214,-12.19239 q 9.29199,1.28907 14.50195,1.28907 2.25586,0 2.68555,-0.9668 0.32226,-0.64453 0.32226,-1.98731 V 55.952148 H 281.875 Z m -57.25586,5.908203 h 35.61035 l 5.96192,5.854492 q -3.11524,16.220701 -8.27149,27.607421 -7.41211,16.32813 -21.05469,29.11133 -2.73925,2.57812 -7.30468,6.28418 l -8.48633,-9.56055 q 25.78125,-18.58398 31.79687,-48.500975 H 224.61914 Z M 358.73535,135.2832 q 5.53223,6.55274 13.37402,9.34571 8.11036,2.84668 21.69922,2.84668 h 45.11719 q -2.04101,5.04882 -3.33008,10.68847 h -44.52636 q -18.10059,0 -27.33887,-5.63965 -4.24317,-2.57812 -9.02344,-7.73437 -7.25098,9.07715 -16.43555,16.00586 L 331.66504,150 q 8.21777,-4.72656 15.62988,-11.17188 v -27.39257 h -14.55566 v -10.58106 h 25.99609 z m 33.8916,-57.578122 h -29.16504 v -9.238281 h 17.13379 q -2.90039,-4.726563 -6.12304,-9.023438 l 10.63476,-3.867187 q 4.56543,6.821289 7.19727,12.890625 h 13.75 q 2.14843,-4.350586 5.20996,-12.998047 l 12.03125,2.524414 q -2.4707,5.424805 -5.53223,10.473633 h 17.93945 v 9.238281 h -31.63574 q -1.34277,4.135742 -2.84668,7.949219 h 27.66114 V 141.08398 H 370.17578 V 85.654297 h 19.92676 q 1.45019,-4.135742 2.52441,-7.949219 z m -11.333,15.737305 v 8.056637 h 36.3623 v -8.056637 z m 0,15.307617 v 8.16406 h 36.3623 V 108.75 Z m 0,15.7373 v 8.43262 h 36.3623 V 124.4873 Z M 351.1084,85.117187 q -7.73438,-12.246093 -16.48926,-20.67871 l 8.91602,-7.036133 q 10.3125,9.560547 17.08007,19.765625 z"></path>
</svg>
