<svg version="1.1" xmlns="http://www.w3.org/2000/svg" xmlns:xlink="http://www.w3.org/1999/xlink" width="168.1" height="32.765" viewBox="0,0,168.1,32.765"><g transform="translate(-240.15212,-179.5908)"><g stroke="none" stroke-miterlimit="10"><path d="M248.15212,179.5908h152.1c4.432,0 8,3.568 8,8v16.765c0,4.432 -3.568,8 -8,8h-152.1c-4.432,0 -8,-3.568 -8,-8v-16.765c0,-4.432 3.568,-8 8,-8z" fill-opacity="0.7" fill="#000000" fill-rule="evenodd" stroke-width="0"/><g fill="#ffffff" fill-rule="nonzero" stroke-width="3.00094"><path d="M248.57793,187.29837h4.3334l0.51532,0.60902l-0.2967,0.16397c-1.24927,0.6923 -2.22266,1.24016 -2.92017,1.64357c1.63446,-0.06507 3.02818,-0.13143 4.18115,-0.1991l0.06637,0.82374l-1.29612,0.05466c-0.64025,0.02863 -1.22975,0.17568 -1.7685,0.44115c-0.75216,0.37218 -1.12824,0.84065 -1.12824,1.40543c0,0.44245 0.25766,0.74566 0.77298,0.90962c0.40601,0.12753 1.06058,0.1926 1.96369,0.1952v0.84716c-1.14777,-0.0026 -1.97801,-0.11451 -2.49073,-0.33574c-0.73915,-0.31492 -1.10873,-0.82374 -1.10873,-1.52645c0,-0.86928 0.5869,-1.50953 1.76069,-1.92075c-0.61943,0.02082 -1.71124,0.07417 -3.27543,0.16006l-0.28499,0.01562l-0.05466,-0.81593c0.44245,0 0.8901,-0.00781 1.34296,-0.02342c1.06708,-0.66108 2.06129,-1.22586 2.98263,-1.69433h-3.29495zM259.22404,193.2363c1.52775,-0.38519 2.29163,-1.26098 2.29163,-2.62737c0,-0.59601 -0.15356,-1.10873 -0.46067,-1.53816c-0.34355,-0.48409 -0.86668,-0.79511 -1.56939,-0.93305c-0.15356,1.20763 -0.36307,2.19663 -0.62854,2.96701c-0.18218,0.53875 -0.40861,1.04756 -0.67929,1.52645c-0.3904,0.68189 -0.83415,1.02284 -1.33125,1.02284c-0.36958,0 -0.69881,-0.16657 -0.9877,-0.49971c-0.18479,-0.21081 -0.33444,-0.46978 -0.44896,-0.77689c-0.15095,-0.3982 -0.22643,-0.82634 -0.22643,-1.2844c0,-0.74175 0.20431,-1.42495 0.61292,-2.04958c0.41382,-0.63765 0.95127,-1.10092 1.61234,-1.38981c0.48149,-0.21081 1.00983,-0.31622 1.58501,-0.31622c0.89791,0 1.66049,0.24074 2.28772,0.72223c0.77038,0.5908 1.15557,1.42755 1.15557,2.51025c0,1.81404 -0.91743,2.96441 -2.7523,3.4511zM258.63845,188.10649c-0.46067,0.05205 -0.84586,0.17568 -1.15557,0.37088c-0.1978,0.12753 -0.3943,0.2967 -0.5895,0.50752c-0.54135,0.59861 -0.81202,1.29221 -0.81202,2.08081c0,0.57518 0.11452,1.02544 0.34355,1.35077c0.14054,0.2004 0.27978,0.3006 0.41772,0.3006c0.18739,0 0.39821,-0.20691 0.63244,-0.62073c0.57258,-1.00722 0.96037,-2.33717 1.16338,-3.98985zM266.91876,189.98821v3.09194c0,0.2004 0.08589,0.32143 0.25766,0.36307c0.17698,0.04425 0.58169,0.06637 1.21413,0.06637c0.61683,0 1.02414,-0.03123 1.22194,-0.0937c0.11191,-0.03644 0.18479,-0.13794 0.21862,-0.30451c0.04425,-0.23424 0.06767,-0.51142 0.07027,-0.83154l0.81593,0.23033c-0.04164,0.76778 -0.14705,1.25838 -0.31622,1.47179c-0.11191,0.14054 -0.28109,0.22383 -0.50751,0.24985c-0.35656,0.03904 -0.96168,0.05856 -1.81534,0.05856c-0.66107,0 -1.09441,-0.01822 -1.30002,-0.05466c-0.30971,-0.05205 -0.50621,-0.18869 -0.5895,-0.40992c-0.04164,-0.11712 -0.06246,-0.27328 -0.06246,-0.46848v-3.09584l-0.74566,0.25766l-0.18349,-0.75737l0.92914,-0.32013v-2.10424h0.79251v1.83097l0.83935,-0.28499v-2.05739h0.7847v1.78411l1.30783,-0.44896l0.40992,0.24985v2.92407c0,0.20301 -0.04815,0.35396 -0.14445,0.45286c-0.10931,0.10931 -0.2928,0.16397 -0.55046,0.16397c-0.21081,0 -0.43464,-0.01822 -0.67148,-0.05466l-0.12883,-0.74566c0.15356,0.03904 0.30971,0.05856 0.46848,0.05856c0.11452,0 0.18479,-0.02342 0.21081,-0.07027c0.02603,-0.03904 0.03904,-0.10411 0.03904,-0.1952v-1.84657l-0.94086,0.32793v3.15831h-0.7847v-2.88893zM264.04934,188.71161v-1.88562h0.83935v1.88562h0.75737v0.7925h-0.75737v2.48292c0.27328,-0.0937 0.54395,-0.19129 0.81203,-0.2928l0.07418,0.75347c-0.84326,0.38519 -1.70863,0.70792 -2.59614,0.96818l-0.27328,-0.83155c0.40081,-0.10411 0.75216,-0.20301 1.05407,-0.2967c0.03644,-0.01301 0.06637,-0.02212 0.08979,-0.02733v-2.7562h-0.99161v-0.7925zM277.68199,188.19238c-0.01301,-0.02603 -0.02473,-0.05205 -0.03514,-0.07808c-0.15095,-0.34095 -0.36307,-0.67408 -0.63635,-0.99941l0.64806,-0.30451c0.28889,0.32273 0.52313,0.67408 0.70271,1.05407l-0.62463,0.32793h0.82374v0.71833h-1.80363l0.0078,0.15616c0.03904,0.82244 0.11842,1.53296 0.23814,2.13157c0.21602,-0.47368 0.41122,-1.00072 0.58559,-1.58111l0.72614,0.31232c-0.30971,0.87969 -0.65457,1.64877 -1.03455,2.30724c0.10931,0.32533 0.23163,0.61032 0.36697,0.85497c0.05205,0.09369 0.09109,0.14054 0.11712,0.14054c0.02863,0 0.07157,-0.07808 0.12883,-0.23424c0.06507,-0.18479 0.11712,-0.50231 0.15616,-0.95257l0.64806,0.45676c-0.08589,0.67148 -0.1952,1.15948 -0.32793,1.46399c-0.11712,0.26547 -0.26417,0.3982 -0.44115,0.3982c-0.17438,0 -0.37738,-0.13013 -0.60902,-0.3904c-0.22383,-0.25246 -0.42033,-0.56087 -0.5895,-0.92524c-0.44505,0.55957 -0.95387,1.03845 -1.52645,1.43666l-0.57387,-0.5895c0.4971,-0.2993 0.93305,-0.65066 1.30783,-1.05407c-0.63765,0.24985 -1.4783,0.48539 -2.52196,0.70662l-0.25766,-0.72614c1.0853,-0.17958 2.02356,-0.3904 2.81476,-0.63244l0.02733,0.57779c0.14054,-0.15616 0.28109,-0.33704 0.42163,-0.54265c-0.21862,-0.75737 -0.36827,-1.86219 -0.44896,-3.31447h-2.56491v0.55436h-0.63244v2.56881c0.23944,-0.0989 0.45806,-0.1926 0.65587,-0.28109l0.08589,0.76518c-0.77299,0.41122 -1.54467,0.74436 -2.31505,0.99941l-0.28109,-0.82374c0.2941,-0.08328 0.64025,-0.1965 1.03845,-0.33964v-2.88893h-0.91743v-0.77689h0.91743v-1.87781h0.81593v1.87781h0.55827v-0.4958h2.60394l-0.01562,-0.27328c-0.01301,-0.24725 -0.02603,-0.61162 -0.03904,-1.09311h0.80031c0.01561,0.67669 0.02993,1.13215 0.04294,1.36639zM275.78856,189.5861v2.35799h-2.08472v-2.35799zM274.36752,190.21854v1.10092h0.77299v-1.10092zM282.35503,188.12992v-1.30392h0.87058v1.30392h2.99824v5.43432c0,0.30711 -0.08328,0.52183 -0.24985,0.64416c-0.13534,0.1015 -0.37088,0.15225 -0.70662,0.15225c-0.57518,0 -1.05017,-0.01431 -1.42495,-0.04294l-0.16006,-0.83155c0.58299,0.03644 1.06969,0.05466 1.46008,0.05466c0.10411,0 0.16527,-0.02473 0.18349,-0.07418c0.01301,-0.03123 0.01952,-0.08068 0.01952,-0.14835v-4.38806h-2.12376l-0.0039,0.05856c-0.01301,0.21081 -0.03904,0.42683 -0.07808,0.64806c0.77299,0.63244 1.46269,1.34557 2.0691,2.13937l-0.66367,0.61683c-0.43204,-0.62724 -0.97469,-1.2792 -1.62795,-1.95589c-0.33574,0.8823 -1.01113,1.61884 -2.02616,2.20964l-0.51533,-0.6871c0.60642,-0.34875 1.05407,-0.72093 1.34296,-1.11653c0.37999,-0.52053 0.5895,-1.15818 0.62854,-1.91294h-2.04958v5.49288h-0.87839v-6.29319zM287.27012,187.77466c2.39443,-0.03644 4.65743,-0.0976 6.78899,-0.18349l0.04685,0.77689c-0.93955,0.04685 -1.6709,0.18999 -2.19403,0.42944c-0.49971,0.22903 -0.90051,0.54656 -1.20242,0.95257c-0.34355,0.46067 -0.51532,0.97339 -0.51532,1.53816c0,0.56217 0.1952,0.9838 0.5856,1.26489c0.44765,0.32012 1.13475,0.54005 2.06129,0.65977l-0.18349,0.87839c-1.20763,-0.16136 -2.05739,-0.47368 -2.54929,-0.93695c-0.52834,-0.4945 -0.79251,-1.10873 -0.79251,-1.84267c0,-0.66628 0.23944,-1.28831 0.71833,-1.8661c0.34875,-0.42423 0.82634,-0.76518 1.43276,-1.02284c-1.07489,0.03644 -2.4608,0.0976 -4.15772,0.18349zM292.94649,191.14378c-0.15356,-0.40861 -0.41252,-0.87188 -0.77689,-1.38981l0.60902,-0.22643c0.32533,0.44765 0.5869,0.90572 0.7847,1.3742zM294.00056,190.73386c-0.18479,-0.47889 -0.44245,-0.94476 -0.77299,-1.39762l0.58169,-0.20691c0.30451,0.36958 0.56347,0.81723 0.77689,1.34296zM299.20064,193.2363c1.52775,-0.38519 2.29163,-1.26098 2.29163,-2.62737c0,-0.59601 -0.15356,-1.10873 -0.46067,-1.53816c-0.34355,-0.48409 -0.86668,-0.79511 -1.56939,-0.93305c-0.15356,1.20763 -0.36307,2.19663 -0.62854,2.96701c-0.18219,0.53875 -0.40862,1.04756 -0.67929,1.52645c-0.3904,0.68189 -0.83415,1.02284 -1.33125,1.02284c-0.36958,0 -0.69881,-0.16657 -0.9877,-0.49971c-0.18479,-0.21081 -0.33444,-0.46978 -0.44896,-0.77689c-0.15095,-0.3982 -0.22643,-0.82634 -0.22643,-1.2844c0,-0.74175 0.20431,-1.42495 0.61292,-2.04958c0.41382,-0.63765 0.95127,-1.10092 1.61234,-1.38981c0.48149,-0.21081 1.00983,-0.31622 1.58501,-0.31622c0.89791,0 1.66049,0.24074 2.28772,0.72223c0.77038,0.5908 1.15557,1.42755 1.15557,2.51025c0,1.81404 -0.91743,2.96441 -2.7523,3.4511zM298.61505,188.10649c-0.46067,0.05205 -0.84586,0.17568 -1.15557,0.37088c-0.1978,0.12753 -0.3943,0.2967 -0.5895,0.50752c-0.54135,0.59861 -0.81203,1.29221 -0.81203,2.08081c0,0.57518 0.11452,1.02544 0.34355,1.35077c0.14054,0.2004 0.27978,0.3006 0.41772,0.3006c0.18739,0 0.3982,-0.20691 0.63244,-0.62073c0.57258,-1.00722 0.96038,-2.33717 1.16338,-3.98985zM303.68239,187.15393h0.90962v4.27094h-0.90962zM307.69176,187.07194h0.90962v2.79133c0,0.9812 -0.07938,1.71124 -0.23814,2.19012c-0.13273,0.40862 -0.31362,0.73395 -0.54265,0.97599c-0.47628,0.51272 -1.24146,0.89141 -2.29553,1.13605l-0.44896,-0.80031c1.15297,-0.23424 1.89212,-0.62333 2.21745,-1.16728c0.20561,-0.34615 0.32923,-0.7834 0.37088,-1.31173c0.01822,-0.24465 0.02733,-0.58299 0.02733,-1.01503zM309.98339,187.62631h6.11751l0.50361,0.42553c-0.14575,0.54395 -0.33574,0.99811 -0.56998,1.36248c-0.43985,0.6897 -1.09832,1.20502 -1.97541,1.54597l-0.4919,-0.67148c0.60642,-0.18219 1.11003,-0.50882 1.51084,-0.9799c0.23684,-0.27848 0.40211,-0.57258 0.4958,-0.8823h-5.59048zM312.48583,189.31282h0.89401v0.67148c0,1.00722 -0.11191,1.78541 -0.33574,2.33457c-0.28369,0.69751 -0.83545,1.26488 -1.65528,1.70213l-0.64415,-0.67929c0.56477,-0.26807 0.97729,-0.5882 1.23756,-0.96037c0.2004,-0.28889 0.33184,-0.5947 0.3943,-0.91743c0.07287,-0.36958 0.10931,-0.86538 0.10931,-1.48741zM318.88834,187.43501h0.87839v1.42104c0,1.36118 -0.1015,2.35539 -0.30451,2.98263c-0.26807,0.83024 -0.83024,1.52255 -1.68651,2.07691l-0.59731,-0.69491c0.5934,-0.41642 1.01113,-0.84846 1.25317,-1.29612c0.20301,-0.37738 0.33704,-0.8836 0.40211,-1.51864c0.03644,-0.35916 0.05466,-0.87058 0.05466,-1.53426zM320.88717,187.20858h0.87839v5.54753c0.51793,-0.26807 0.97209,-0.64936 1.36248,-1.14386c0.42683,-0.54135 0.74566,-1.1829 0.95647,-1.92466l0.6871,0.66367c-0.26026,0.77299 -0.61683,1.43276 -1.06969,1.97931c-0.56998,0.6897 -1.31694,1.23235 -2.24088,1.62795l-0.57388,-0.4958zM331.12336,187.87226l0.55827,0.45676c-0.36437,1.66569 -0.95517,2.9553 -1.7724,3.86883c-0.45286,0.50491 -1.03845,0.94736 -1.75678,1.32735c-0.51012,0.26807 -1.05797,0.48149 -1.64357,0.64025l-0.45286,-0.76908c1.33776,-0.34875 2.37621,-0.90572 3.11536,-1.6709c-0.60902,-0.54656 -1.2805,-1.03065 -2.01445,-1.45228l0.51142,-0.63244c0.71573,0.37218 1.39632,0.83024 2.04177,1.3742c0.50752,-0.81202 0.82634,-1.59802 0.95647,-2.35799h-2.74839c-0.62984,0.9812 -1.37159,1.73206 -2.22526,2.25259l-0.57388,-0.62073c0.82504,-0.4971 1.50303,-1.15427 2.03397,-1.9715c0.27328,-0.41642 0.48539,-0.86538 0.63635,-1.34687l0.84716,0.20691c-0.08589,0.23424 -0.18219,0.46587 -0.28889,0.69491zM335.42943,194.07566v-4.00547c-0.7912,0.53094 -1.69432,0.97859 -2.70935,1.34296l-0.47238,-0.79251c1.15297,-0.38779 2.1641,-0.8875 3.03338,-1.49912c0.85367,-0.60121 1.61364,-1.28961 2.27991,-2.0652l0.75347,0.47238c-0.5908,0.67929 -1.24927,1.30262 -1.97541,1.87v4.67695zM338.82198,192.73269c0.17958,-0.0026 0.42683,-0.01561 0.74175,-0.03904c0.74176,-1.66569 1.42495,-3.49925 2.04958,-5.50069l0.894,0.23424c-0.61422,1.92075 -1.27008,3.65541 -1.96759,5.20399c1.32214,-0.0963 2.49463,-0.21342 3.51747,-0.35136c-0.38519,-0.67929 -0.77689,-1.30653 -1.17509,-1.88171l0.76908,-0.488c0.81983,1.12955 1.53946,2.32676 2.15889,3.59165l-0.87839,0.45676c-0.14315,-0.30191 -0.30061,-0.61683 -0.47238,-0.94476c-1.51995,0.25506 -3.33529,0.48149 -5.44603,0.67929zM349.53445,187.88006v-0.33574h-2.43997v-0.55827h5.76225v0.55827h-2.49073v0.33574h3.23248v1.40152h-0.84716v-0.89791h-2.38532v1.51864h-0.83155v-1.51864h-2.34238v0.89791h-0.83935v-1.40152zM352.29846,193.41979c0.39821,0.15095 0.89531,0.27067 1.49132,0.35916l-0.45677,0.66367c-0.83545,-0.14315 -1.52124,-0.38909 -2.05739,-0.73785c-0.53354,-0.34875 -0.94866,-0.78209 -1.24536,-1.30002h-0.86278v1.20242c0.57519,-0.08068 1.10873,-0.16657 1.60063,-0.25766l0.0547,0.58169c-0.91613,0.21862 -1.96369,0.40861 -3.14269,0.56998l-0.23033,-0.6871c0.40861,-0.04425 0.6884,-0.07548 0.83935,-0.09369l0.0468,-0.0078v-1.30783h-0.85497c-0.03647,0.45807 -0.09633,0.82374 -0.17958,1.09701c-0.0989,0.32793 -0.25766,0.63374 -0.47629,0.91743l-0.6949,-0.57388c0.25506,-0.33054 0.41382,-0.71703 0.47628,-1.15948c0.03387,-0.23944 0.0508,-0.53745 0.0508,-0.89401v-1.65528h6.73824v0.51923h-5.89889v1.19852h6.23464v0.55046h-0.8862l0.4958,0.32793c-0.2941,0.24465 -0.64155,0.47368 -1.04236,0.6871zM351.68944,193.11918c0.37478,-0.25506 0.67278,-0.4932 0.89401,-0.71443h-1.70603c0.22383,0.28629 0.4945,0.52443 0.81202,0.71443zM347.53562,188.67257h1.66309v0.44115h-1.66309zM347.53562,189.3909h1.66309v0.44896h-1.66309zM350.70174,188.67257h1.71384v0.44115h-1.71384zM350.70174,189.3909h1.71384v0.44896h-1.71384zM347.96116,190.98372h4.86043v0.51142h-4.86043zM358.57994,187.52871h3.0607v0.65587h-1.73336v0.64806h1.62405v0.63244h-1.62405v1.16338h-3.14269v-1.16338h-1.2805v0.72614c0,1.179 -0.06246,2.11074 -0.18739,2.79524c-0.0963,0.52053 -0.25246,0.99551 -0.46847,1.42495l-0.71053,-0.56217c0.19781,-0.42944 0.33315,-0.95387 0.40602,-1.5733c0.06507,-0.54395 0.0976,-1.23886 0.0976,-2.08472v-2.6625h3.08803v-0.70271h0.87059zM355.48409,188.18457v0.64806h1.2805v-0.64806zM357.59614,188.18457v0.64806h1.4796v-0.64806zM357.59614,189.46507v0.60511h1.4796v-0.60511zM358.50186,193.56424c-0.75217,0.3904 -1.70734,0.6871 -2.86551,0.8901l-0.40602,-0.71833c1.08791,-0.13013 1.94027,-0.32923 2.5571,-0.59731c-0.52833,-0.38259 -0.97989,-0.83675 -1.35467,-1.36248h-0.53875v-0.67929h4.57154l0.40992,0.34355c-0.38779,0.59601 -0.94086,1.15687 -1.65919,1.68261c0.61683,0.24725 1.45748,0.42944 2.52196,0.54655l-0.45676,0.73785c-1.02023,-0.13794 -1.94677,-0.41903 -2.77962,-0.84326zM357.34238,191.77622c0.31492,0.36958 0.69751,0.69491 1.14776,0.97599c0.50752,-0.32793 0.89922,-0.65326 1.1751,-0.97599zM364.02207,191.54198v1.41714c0,0.20561 0.07548,0.32923 0.22643,0.37088c0.22383,0.06247 0.96428,0.0937 2.22135,0.0937c1.11653,0 1.81144,-0.03253 2.08472,-0.0976c0.13013,-0.03123 0.21342,-0.10411 0.24985,-0.21862c0.04427,-0.13013 0.0794,-0.43334 0.10541,-0.90962l0.86278,0.26547c-0.0286,0.51272 -0.07024,0.86408 -0.12493,1.05407c-0.07027,0.24725 -0.20041,0.41512 -0.3904,0.50361c-0.13533,0.06247 -0.32272,0.10151 -0.56217,0.11712c-0.61683,0.04425 -1.42234,0.06637 -2.41655,0.06637c-1.39241,0 -2.22005,-0.02473 -2.48292,-0.07418c-0.29671,-0.05465 -0.488,-0.18479 -0.57389,-0.3904c-0.04167,-0.10411 -0.0625,-0.23424 -0.0625,-0.3904v-4.00937l-0.039,0.03123c-0.11972,0.08589 -0.26156,0.18088 -0.42553,0.28499l-0.53485,-0.64806c0.92915,-0.51012 1.71515,-1.23756 2.358,-2.18232l0.54655,0.37478h2.22136l0.41382,0.42944c-0.34355,0.48669 -0.70271,0.92524 -1.07749,1.31564h2.50244v2.59614zM364.02207,190.84708h1.6787v-1.1829h-1.6787zM366.54012,189.66418v1.1829h1.71384v-1.1829zM365.6344,188.94585c0.33574,-0.35136 0.62203,-0.69621 0.85888,-1.03455h-1.80364c-0.28889,0.35396 -0.63244,0.69881 -1.03064,1.03455zM374.35586,193.2363c1.52775,-0.38519 2.29163,-1.26098 2.29163,-2.62737c0,-0.59601 -0.15356,-1.10873 -0.46067,-1.53816c-0.34355,-0.48409 -0.86668,-0.79511 -1.56939,-0.93305c-0.15355,1.20763 -0.36307,2.19663 -0.62854,2.96701c-0.18219,0.53875 -0.40862,1.04756 -0.67929,1.52645c-0.39039,0.68189 -0.83414,1.02284 -1.33125,1.02284c-0.36957,0 -0.69881,-0.16657 -0.9877,-0.49971c-0.18479,-0.21081 -0.33444,-0.46978 -0.44896,-0.77689c-0.15095,-0.3982 -0.22643,-0.82634 -0.22643,-1.2844c0,-0.74175 0.20431,-1.42495 0.61292,-2.04958c0.41382,-0.63765 0.95127,-1.10092 1.61234,-1.38981c0.48149,-0.21081 1.00982,-0.31622 1.58501,-0.31622c0.89791,0 1.66049,0.24074 2.28772,0.72223c0.77039,0.5908 1.15558,1.42755 1.15558,2.51025c0,1.81404 -0.91743,2.96441 -2.7523,3.4511zM373.77027,188.10649c-0.46067,0.05205 -0.84586,0.17568 -1.15557,0.37088c-0.19781,0.12753 -0.39431,0.2967 -0.5895,0.50752c-0.54135,0.59861 -0.81203,1.29221 -0.81203,2.08081c0,0.57518 0.11452,1.02544 0.34355,1.35077c0.14055,0.2004 0.27979,0.3006 0.41773,0.3006c0.18739,0 0.3982,-0.20691 0.63244,-0.62073c0.57258,-1.00722 0.96037,-2.33717 1.16338,-3.98985z"/><path d="M254.08252,197.78755v2.44779h-5.84424v-2.44779zM249.10887,198.34581v0.40211h4.10307v-0.40211zM249.10887,199.25934v0.45676h4.10307v-0.45676zM251.06085,201.31283v3.25591c0.50752,-0.13794 0.97209,-0.37478 1.39372,-0.71052c-0.3956,-0.46067 -0.69491,-0.95647 -0.89791,-1.48741h-0.33574v-0.62463h3.01386l0.38259,0.33574c-0.28369,0.6871 -0.63895,1.2766 -1.06578,1.7685c0.38259,0.24985 0.86147,0.46197 1.43666,0.63635l-0.48019,0.71443c-0.5934,-0.22383 -1.09311,-0.4971 -1.49912,-0.81983c-0.44505,0.36697 -0.96688,0.65847 -1.56549,0.87449l-0.38259,-0.57388v0.53484h-0.80812v-0.87059c-0.73915,0.14835 -1.65398,0.28109 -2.74449,0.3982l-0.21472,-0.71833c0.34355,-0.01822 0.63635,-0.03644 0.87839,-0.05466v-2.6586h-0.81593v-0.64806h7.59712v0.64806zM250.25273,201.31283h-1.2805v0.47238h1.2805zM250.25273,202.30443h-1.2805v0.48019h1.2805zM250.25273,203.29604h-1.2805v0.59731c0.22122,-0.02343 0.38779,-0.04165 0.49971,-0.05466c0.2993,-0.03123 0.55957,-0.06116 0.78079,-0.08979zM252.96208,203.36241c0.23684,-0.27328 0.45026,-0.60381 0.64025,-0.99161h-1.32344c0.16136,0.35136 0.3891,0.68189 0.68319,0.99161zM259.69252,200.42663c0.17958,0.60902 0.52053,1.25708 1.02284,1.94417c0.61162,0.83805 1.36379,1.50173 2.25649,1.99102l-0.55827,0.80422c-0.94476,-0.55697 -1.73336,-1.29481 -2.3658,-2.21355c-0.34095,-0.49971 -0.61422,-1.00852 -0.81983,-1.52645c-0.20561,0.69751 -0.52443,1.33125 -0.95647,1.90123c-0.63504,0.84326 -1.41974,1.46529 -2.35409,1.8661l-0.55046,-0.71443c0.97859,-0.40861 1.7685,-1.03845 2.36971,-1.88952c0.50491,-0.71833 0.80422,-1.43926 0.89791,-2.1628h-3.11536v-0.84716h3.1505v-1.88171h0.90182v1.88171h3.21687v0.84716zM268.48424,199.59508h1.80754v3.98204h-3.5409v-3.98204h0.90962l0.06246,-0.35916l0.01562,-0.1015l0.01562,-0.1015h-2.24478v-0.67929h2.34628c0.02343,-0.17698 0.05466,-0.43334 0.0937,-0.76908l0.87058,0.06637c-0.01041,0.0963 -0.04295,0.33054 -0.0976,0.70271h2.14718v0.67929h-2.27211c-0.0026,0.01822 -0.0065,0.03904 -0.01171,0.06246c-0.02863,0.14575 -0.06246,0.31232 -0.1015,0.49971zM269.48366,200.21191h-1.95198v0.52704h1.95198zM267.53168,201.30502v0.51923h1.95198v-0.51923zM267.53168,202.39032v0.56998h1.95198v-0.56998zM264.8965,199.45844v5.75835h-0.79641v-3.98985c-0.16136,0.2967 -0.34615,0.60381 -0.55436,0.92133l-0.36697,-0.91353c0.35656,-0.54656 0.66888,-1.21023 0.93695,-1.99102c0.15876,-0.45546 0.32663,-1.02284 0.50361,-1.70213l0.82374,0.1991c-0.1926,0.71573 -0.37478,1.28831 -0.54655,1.71774zM266.23166,204.11197h4.80188v0.70271h-4.80188v0.40211h-0.81203v-4.93461h0.81203zM272.02124,198.71669h2.10424c0.23164,-0.36958 0.40731,-0.66758 0.52703,-0.89401l0.87058,0.12493c-0.07808,0.14054 -0.21602,0.36958 -0.41382,0.6871l-0.05075,0.08198h2.7523v0.76908h-3.27152c-0.34095,0.46848 -0.66628,0.87449 -0.97599,1.21804c0.4919,-0.2941 0.94086,-0.44115 1.34687,-0.44115c0.62984,0 1.04236,0.31622 1.23756,0.94866c0.66628,-0.22122 1.34557,-0.43985 2.03787,-0.65587l0.33574,0.75737l-0.13664,0.03904l-0.38649,0.1015c-0.72874,0.1978 -1.31173,0.36697 -1.74898,0.50752c0.03123,0.33834 0.05336,0.77559 0.06637,1.31173l-0.85497,0.04685c-0.0026,-0.30971 -0.00781,-0.64546 -0.01562,-1.00722v-0.07808c-1.19722,0.40861 -1.79582,0.81983 -1.79582,1.23365c0,0.21342 0.15356,0.35917 0.46067,0.43724c0.2967,0.07548 0.82764,0.11321 1.59282,0.11321c0.70532,0 1.44577,-0.04034 2.22136,-0.12102l0.09369,0.83154c-0.75216,0.05726 -1.53166,0.08589 -2.33848,0.08589c-0.99421,0 -1.70083,-0.07548 -2.11985,-0.22643c-0.51793,-0.18739 -0.77689,-0.52443 -0.77689,-1.01113c0,-0.41122 0.18349,-0.77429 0.55046,-1.08921c0.37999,-0.32533 1.04887,-0.66107 2.00664,-1.00722c-0.05205,-0.2004 -0.12102,-0.34095 -0.20691,-0.42163c-0.0963,-0.09109 -0.22383,-0.13664 -0.38259,-0.13664c-0.25766,0 -0.58169,0.0976 -0.97209,0.2928c-0.48149,0.23944 -0.99811,0.59991 -1.54987,1.0814l-0.51923,-0.5934c0.80942,-0.75216 1.44317,-1.49131 1.90123,-2.21745h-1.58891zM284.28359,203.57713l0.05465,0.69881c-1.12955,0.3982 -2.38532,0.72614 -3.76733,0.9838l-0.28889,-0.78079c0.23944,-0.03644 0.57779,-0.095 1.01503,-0.17568v-1.42885c-0.45026,0.22903 -0.9864,0.44635 -1.60843,0.65196l-0.44505,-0.69491c1.25187,-0.33834 2.20704,-0.77038 2.86551,-1.29612h-2.78743v-0.67929h3.3457v-0.5895h-2.52977v-0.65587h2.52977v-0.55046h-2.92797v-0.67148h2.92797v-0.76908h0.85497v0.76908h3.01386v0.67148h-3.01386v0.55046h2.61566v0.65587h-2.61566v0.5895h3.43158v0.67929h-0.93305l0.57779,0.3982c-0.35656,0.34615 -0.85627,0.72484 -1.49912,1.13605l-0.08979,0.05856c0.4893,0.44765 1.15297,0.81723 1.99102,1.10873l-0.52704,0.79251c-0.90832,-0.38519 -1.63836,-0.86928 -2.19012,-1.45228zM283.10069,201.54706c-0.26026,0.30451 -0.57388,0.57779 -0.94085,0.81983v1.75288c0.64285,-0.14315 1.28831,-0.30972 1.93637,-0.49971l0.17958,-0.05075c-0.53354,-0.5908 -0.92524,-1.26489 -1.17509,-2.02225zM284.52564,202.61285c0.46327,-0.33054 0.86928,-0.6897 1.21804,-1.07749h-1.84658c0.16657,0.3982 0.37608,0.75737 0.62854,1.07749zM291.60743,200.94585v3.46282c0,0.31492 -0.06376,0.52964 -0.19129,0.64415c-0.11972,0.10411 -0.35136,0.15616 -0.69491,0.15616c-0.3904,0 -0.76127,-0.02473 -1.11263,-0.07418l-0.16787,-0.82374c0.36437,0.05986 0.71312,0.08979 1.04626,0.08979c0.11191,0 0.18219,-0.01952 0.21081,-0.05856c0.02082,-0.03383 0.03123,-0.08979 0.03123,-0.16787v-3.22857h-3.35741v-0.77689h7.52294v0.77689zM288.30858,198.05302h5.64513v0.76908h-5.64513zM287.32478,204.0417c0.56217,-0.5882 1.01503,-1.37029 1.35858,-2.34628l0.80812,0.30451c-0.3982,1.11653 -0.89921,1.99362 -1.50303,2.63127zM294.02398,204.51798c-0.53875,-1.13996 -1.00722,-1.97411 -1.40543,-2.50244l0.73395,-0.43724c0.57258,0.73655 1.06058,1.53816 1.46399,2.40484zM296.09699,197.94761h0.92134v4.65353c0,0.9812 0.51532,1.47179 1.54597,1.47179c0.67929,0 1.23626,-0.31362 1.6709,-0.94086c0.28109,-0.40341 0.53354,-1.02804 0.75737,-1.8739l0.7925,0.48019c-0.26547,0.93955 -0.58429,1.64227 -0.95647,2.10814c-0.58559,0.72614 -1.34687,1.08921 -2.28382,1.08921c-0.97859,0 -1.66829,-0.30191 -2.0691,-0.90572c-0.25246,-0.37738 -0.37869,-0.86408 -0.37869,-1.46008zM305.72416,197.80316h0.86278v0.9838h2.45559v0.74175h-2.45559v0.92914h2.31896v0.73395h-2.31896v1.20632c0.92654,0.31232 1.84007,0.78209 2.74058,1.40933l-0.46067,0.74175c-0.68189,-0.51012 -1.44186,-0.96038 -2.27992,-1.35077c-0.02082,0.44505 -0.10671,0.7899 -0.25766,1.03455c-0.26287,0.42423 -0.78079,0.63635 -1.55378,0.63635c-0.59601,0 -1.07489,-0.11191 -1.43666,-0.33574c-0.40341,-0.24985 -0.60512,-0.5882 -0.60512,-1.01503c0,-0.51012 0.27198,-0.8875 0.81593,-1.13215c0.36437,-0.16136 0.83805,-0.24205 1.42104,-0.24205c0.22903,0 0.48019,0.01822 0.75347,0.05466v-1.00723h-2.76791v-0.73395h2.76791v-0.92914h-2.93578v-0.74175h2.93578zM305.72416,202.92516c-0.30971,-0.06507 -0.60642,-0.0976 -0.8901,-0.0976c-0.34615,0 -0.62724,0.05075 -0.84326,0.15225c-0.25766,0.12232 -0.38649,0.2967 -0.38649,0.52313c0,0.18999 0.1002,0.34355 0.30061,0.46067c0.20301,0.11972 0.47368,0.17958 0.81202,0.17958c0.40081,0 0.67669,-0.10671 0.82764,-0.32012c0.11972,-0.16657 0.17958,-0.41512 0.17958,-0.74566zM314.01228,197.77974h0.87839v1.07749h2.30334v0.75346h-2.30334v1.6709c0.09109,0.32013 0.13664,0.60511 0.13664,0.85497c0,0.92654 -0.20431,1.60713 -0.61292,2.04177c-0.44505,0.47628 -1.11523,0.80552 -2.01054,0.9877l-0.44505,-0.66367c0.69491,-0.13273 1.21023,-0.32013 1.54597,-0.56217c0.31492,-0.22903 0.52704,-0.54005 0.63635,-0.93305c-0.27848,0.30451 -0.61032,0.45676 -0.99551,0.45676c-0.43204,0 -0.78209,-0.12232 -1.05017,-0.36697c-0.31492,-0.28889 -0.47238,-0.70792 -0.47238,-1.25708c0,-0.28889 0.06897,-0.56738 0.20691,-0.83545c0.09109,-0.17177 0.20301,-0.31492 0.33574,-0.42944c0.30711,-0.26026 0.67539,-0.3904 1.10482,-0.3904c0.27328,0 0.52053,0.06507 0.74175,0.1952v-0.76908h-3.85321v-0.75346h3.85321zM314.04351,201.83205v-0.14445c0,-0.16657 -0.03904,-0.31362 -0.11712,-0.44115c-0.14575,-0.23944 -0.35656,-0.35916 -0.63244,-0.35916c-0.14054,0 -0.27198,0.03904 -0.3943,0.11712c-0.28629,0.17958 -0.42944,0.45546 -0.42944,0.82764c0,0.23424 0.05205,0.43204 0.15616,0.5934c0.14575,0.22383 0.36047,0.33574 0.64415,0.33574c0.25766,0 0.46197,-0.11582 0.61292,-0.34745c0.10671,-0.16397 0.16006,-0.35786 0.16006,-0.58169z"/></g></g></g></svg>