<svg xmlns="http://www.w3.org/2000/svg" id="svg1" version="1.1" height="200" width="990">
  <defs id="defs1"></defs>
  <rect id="rect1" stroke="none" fill="none" height="200" width="990" y="0" x="0"></rect>
  <path aria-label="秋田県沖" style="font-size:100px;font-family:'BIZ UDPGothic';fill:#ff0000" id="text1" d="M 21.972656,111.76758 Q 15.771484,127.83203 6.4941406,139.59961 L 2.2949219,132.8125 Q 14.550781,118.01758 20.703125,100.09766 H 2.9785156 V 93.212891 H 21.972656 V 77.294922 Q 15.234375,78.759766 7.8613281,79.833984 L 4.7851562,73.828125 Q 24.511719,70.800781 39.208984,65.136719 l 4.6875,5.859375 q -6.201172,2.294922 -14.404297,4.492187 v 17.72461 h 14.990235 v 6.884769 H 29.492187 v 8.15429 q 9.082032,6.05469 16.40625,12.93946 l -4.6875,6.68945 q -5.419921,-6.29883 -11.71875,-12.10938 v 43.75 H 21.972656 Z M 72.412109,64.501953 v 29.296875 q 0,16.552732 8.300782,33.007812 7.519531,14.94141 17.724609,24.41406 l -5.224609,7.95899 Q 75.341797,140.03906 69.433594,114.16016 67.822266,125.39063 64.0625,133.93555 56.884766,150.3418 43.994141,159.7168 l -5.615235,-6.39649 q 13.81836,-9.32617 20.605469,-25.97656 5.712891,-14.01367 5.712891,-33.056641 V 64.501953 Z m 5.566407,44.921877 Q 85.107422,94.873047 88.574219,81.689453 l 7.617187,3.125 Q 90.576172,101.61133 84.375,112.20703 Z m -33.789063,1.46484 q 4.199219,-10.20508 5.908203,-26.367186 l 7.177735,1.074219 Q 55.566406,103.41797 50.976562,114.20898 Z M 190.625,72.509766 v 83.886714 h -7.8125 v -7.61718 h -65.57617 v 7.51953 h -7.8125 V 72.509766 Z m -73.38867,6.982421 V 105.9082 h 28.56445 V 79.492187 Z m 0,33.300783 v 28.80859 h 28.56445 v -28.80859 z m 65.57617,28.80859 v -28.80859 h -29.29688 v 28.80859 z m 0,-35.69336 V 79.492187 H 153.51562 V 105.9082 Z M 282.86133,67.578125 V 114.4043 H 225.78125 V 67.578125 Z m -49.36524,6.005859 v 7.714844 h 41.55274 v -7.714844 z m 0,13.330078 v 7.763672 h 41.55274 v -7.763672 z m 0,13.476568 v 8.30078 h 41.55274 v -8.30078 z M 214.4043,122.2168 h 83.05664 v 6.49414 h -41.99219 v 30.81054 h -7.91016 V 128.71094 H 206.5918 V 74.267578 h 7.8125 z m -9.22852,29.6875 q 12.79297,-6.15235 23.0957,-19.28711 l 6.5918,3.66211 q -10.40039,13.62304 -24.07226,21.72851 z m 84.17969,4.10156 q -10.25391,-11.18164 -23.29102,-19.82422 l 6.00586,-4.49219 q 11.76758,7.37305 23.68164,18.79883 z M 358.69141,85.302734 V 64.501953 h 7.71484 v 20.800781 h 27.7832 v 40.478516 h -27.7832 v 33.69141 h -7.71484 v -33.69141 h -26.9043 V 85.302734 Z m -19.38477,6.982422 v 26.513674 h 19.38477 V 92.285156 Z m 47.26563,26.513674 V 92.285156 H 366.40625 V 118.79883 Z M 321.77734,86.621094 q -6.54297,-8.34961 -15.2832,-15.527344 l 5.32227,-5.273438 q 8.30078,6.201172 15.67382,14.990235 z m -3.66211,25.488286 q -7.66601,-8.8379 -15.91796,-15.527349 l 5.41992,-5.46875 q 8.39843,6.201172 16.16211,14.990239 z m -13.7207,40.57617 q 9.52149,-12.69532 17.48047,-32.86133 l 6.29883,5.07812 q -7.32422,19.14063 -17.08985,33.69141 z"></path>
</svg>
