<svg xmlns="http://www.w3.org/2000/svg" id="svg1" version="1.1" height="200" width="990">
  <defs id="defs1"></defs>
  <rect id="rect1" stroke="none" fill="none" height="200" width="990" y="0" x="0"></rect>
  <path aria-label="檜山地方" style="font-size:100px;font-family:'BIZ UDPGothic';fill:#ff0000" id="text1" d="M 16.113281,109.22852 Q 11.865234,123.97461 4.7363281,136.18164 L 1.4160156,128.07617 Q 10.302734,113.33008 14.990234,94.091797 L 15.429688,92.1875 H 2.734375 V 85.205078 H 16.113281 V 64.501953 H 23.4375 v 20.703125 h 8.105469 v 3.222656 q 16.65039,-8.154297 27.099609,-23.925781 h 8.007813 q 6.933593,8.544922 15.185546,14.404297 6.884766,4.882812 16.796875,9.423828 l -3.710937,6.347656 Q 84.423828,89.599609 76.513672,83.642578 v 5.175781 H 50.048828 V 84.277344 Q 42.578125,90.625 31.933594,95.996094 L 29.296875,92.1875 H 23.4375 v 10.05859 q 6.445312,5.41993 12.109375,11.6211 l -4.199219,6.83594 q -3.466797,-5.0293 -7.910156,-10.15625 v 48.92578 H 16.113281 Z M 51.513672,83.007812 H 75.683594 Q 68.457031,77.34375 62.646484,70.898437 58.007812,77.246094 51.513672,83.007812 Z m -0.78125,29.980468 q -1.464844,-5.27344 -4.296875,-10.10742 l 4.980469,-2.29492 q 2.929687,4.98047 4.589843,10.20508 z m 19.384765,-2.00195 Q 73.339844,105.81055 75,100.39063 l 5.517578,2.29492 q -1.953125,5.37109 -5.224609,10.40039 z M 36.132812,94.384766 H 90.527344 V 119.14063 H 36.132812 Z m 23.779297,5.419921 H 43.017578 v 13.818363 h 16.894531 z m 6.201172,0 V 113.62305 H 83.740234 V 99.804687 Z m 21.484375,25.097653 v 34.61914 h -7.177734 v -3.90625 H 46.386719 v 3.90625 h -7.177735 v -34.61914 z m -41.210937,5.51758 v 6.73828 h 34.033203 v -6.73828 z m 0,12.25586 v 7.22656 h 34.033203 v -7.22656 z m 107.226561,-0.78125 h 28.17383 V 85.302734 h 8.10547 v 73.388676 h -8.10547 v -9.17969 h -63.67188 v 9.17969 h -8.10546 V 85.302734 h 8.10546 v 56.591796 h 27.49024 V 65.478516 h 8.00781 z m 95.60547,-38.67187 v 40.86914 q 0,4.05273 2.39258,4.98047 2.58789,0.97656 16.45508,0.97656 13.42773,0 17.38281,-0.92774 2.7832,-0.68359 3.56445,-3.22265 1.2207,-4.00391 1.26953,-12.40235 l 7.51953,2.78321 q -0.68359,13.23242 -3.51562,16.79687 -2.24609,2.92969 -7.27539,3.4668 -7.66602,0.78125 -20.75195,0.78125 -12.45118,0 -16.74805,-0.83008 -5.3711,-1.07422 -6.83594,-4.88281 -0.78125,-2.09961 -0.78125,-5.51758 v -40.38086 l -10.49805,3.56445 -1.90429,-6.98242 12.40234,-4.150389 v -26.5625 h 7.32422 v 24.072266 l 12.8418,-4.345703 V 64.501953 h 7.32422 v 24.365234 l 18.01757,-6.054687 4.39453,2.392578 v 35.986332 q 0,3.51562 -1.66015,5.32226 -1.95313,2.09961 -6.83594,2.09961 -3.95508,0 -7.71484,-0.53711 l -1.26953,-6.98242 q 3.71093,0.68359 6.93359,0.68359 2.44141,0 2.97852,-1.07421 0.39062,-0.73243 0.39062,-2.29493 V 91.113281 l -15.23437,5.175781 v 39.794918 h -7.32422 V 98.779297 Z M 216.50391,88.916016 V 65.136719 h 7.71484 v 23.779297 h 10.79102 v 7.177734 h -10.79102 v 34.96094 q 5.12695,-1.75782 11.71875,-4.44336 l 0.78125,6.88476 q -14.94141,6.88477 -32.03125,12.10938 l -2.7832,-7.61719 q 6.78711,-1.85547 14.59961,-4.3457 V 96.09375 h -13.28125 v -7.177734 z m 128.95507,0.04883 q 0,7.324218 -0.92773,17.041016 h 39.4043 q -0.6836,32.91016 -3.75977,43.60351 -1.26953,4.49219 -4.83398,6.34766 -3.02735,1.5625 -9.08203,1.5625 -8.39844,0 -15.33204,-0.92773 l -1.31836,-8.00782 q 10.15625,1.31836 16.3086,1.31836 4.05273,0 5.32226,-1.70898 1.07422,-1.46484 2.14844,-8.49609 1.5625,-9.96094 2.14844,-26.70899 h -31.93359 q -1.80665,11.37695 -5.76172,19.28711 -7.91016,15.91797 -26.02539,25.73242 l -5.61524,-6.29883 q 19.38477,-10.15625 25.58594,-26.36718 5.17578,-13.57422 5.56641,-36.376956 h -33.54493 v -7.177735 h 41.69922 V 64.501953 h 8.00781 v 17.285156 h 42.67579 v 7.177735 z"></path>
</svg>
