<svg xmlns="http://www.w3.org/2000/svg" id="svg1" version="1.1" height="200" width="1096">
  <defs id="defs1"></defs>
  <rect id="rect1" stroke="none" fill="none" height="200" width="1096" y="0" x="0"></rect>
  <path aria-label="ロシア東部" style="font-weight:bold;font-size:110px;font-family:'BIZ UDPGothic';fill:#ff0000" id="text1" d="m 10.688477,68.037109 h 84.27246 V 150.9668 h -84.27246 z m 12.514648,11.44043 V 139.52637 H 82.446289 V 79.477539 Z M 152.80762,84.418945 Q 136.96289,77.329102 120.47363,72.548828 l 3.49121,-10.634766 q 18.58399,4.619141 32.60254,11.279297 z m -11.01075,27.500005 q -13.21289,-5.80079 -32.33398,-11.87012 l 4.61914,-10.742189 q 16.43555,4.350586 31.9043,11.547849 z m -25.40527,29.59472 q 21.96777,-1.82617 34.42871,-6.66015 18.42285,-7.03614 28.9502,-25.13672 7.03613,-12.084964 11.11816,-30.561527 l 10.84961,6.28418 q -5.20996,23.149417 -14.55566,36.899417 -10.95703,16.05957 -30.56153,23.74023 -13.80371,5.31738 -36.79199,7.46582 z m 93.51074,-74.550779 h 84.16504 l 6.92871,5.854492 q -3.00781,11.225586 -7.84179,18.745117 -9.07715,14.2334 -27.17774,21.26953 l -6.76758,-9.23828 q 12.51465,-3.759766 20.78614,-13.481445 4.88769,-5.747071 6.82129,-12.138672 h -76.91407 z m 34.42871,23.203125 h 12.29981 v 9.238281 q 0,20.786133 -4.61914,32.119143 -5.85449,14.39453 -22.77344,23.41797 l -8.8623,-9.34571 q 11.65527,-5.53222 17.02636,-13.21289 4.13575,-5.96191 5.42481,-12.62207 1.5039,-7.62695 1.5039,-20.463865 z m 134.11622,35.395504 q 13.32031,11.87012 35.8789,19.17481 l -6.92871,10.09765 q -12.99805,-4.61914 -22.66601,-11.17187 -9.99024,-6.82129 -18.42286,-16.75781 v 33.56933 h -11.65527 v -32.97851 q -7.46582,10.47363 -19.28223,18.79883 -9.07714,6.3916 -19.44336,10.3125 l -7.35839,-9.45313 q 17.02636,-5.63965 28.41308,-15.2002 3.22266,-2.68554 6.55274,-6.3916 H 317.7002 V 81.572266 h 36.95312 V 74.321289 H 310.12695 V 64.65332 h 44.52637 v -8.701172 h 11.65527 v 8.701172 h 45.22461 v 9.667969 h -45.22461 v 7.250977 h 37.65137 V 125.56152 Z M 354.65332,90.595703 h -25.29785 v 8.701172 h 25.29785 z m 11.65527,0 v 8.701172 h 25.9961 v -8.701172 z m -11.65527,17.080077 h -25.29785 v 8.86231 h 25.29785 z m 11.65527,0 v 8.86231 h 25.9961 v -8.86231 z M 454.2334,68.359375 h 22.98828 v 10.366211 h -7.57324 q -2.04102,8.217773 -5.47852,17.241211 h 14.34082 v 10.366213 h -59.9414 V 95.966797 h 13.15918 q -2.14844,-10.3125 -4.51172,-17.241211 h -6.98243 V 68.359375 h 22.77344 V 55.952148 h 11.22559 z m -16.16699,10.366211 q 2.73925,8.00293 4.24316,17.241211 h 10.95703 l 0.53711,-1.503906 q 2.30957,-6.123047 4.29688,-13.911133 l 0.48339,-1.826172 z m 33.30078,36.630864 v 43.98925 h -11.01074 v -5.26367 h -23.41797 v 6.3916 h -11.33301 v -45.11718 z m -34.42871,9.88281 v 18.63769 h 23.41797 v -18.63769 z m 71.75781,-27.124026 q 6.3916,6.069336 10.15137,14.448246 3.70605,8.3789 3.70605,16.97265 0,7.94922 -2.9541,11.70899 -3.06152,3.9209 -10.09766,3.9209 -6.01562,0 -11.65527,-0.85938 l -2.63184,-11.44043 q 6.49903,1.18164 10.74219,1.18164 3.22266,0 4.02832,-1.5039 0.53711,-1.07422 0.53711,-4.29688 0,-13.2666 -7.94922,-22.88086 -2.09472,-2.52441 -5.26367,-5.424804 L 497.9541,98.4375 q 5.58594,-12.62207 8.70117,-26.318359 h -13.75 V 160.47363 H 481.78711 V 61.000977 h 32.33398 l 5.96192,5.478515 q -5.42481,18.476563 -11.38672,31.635742 z"></path>
</svg>
