<svg xmlns="http://www.w3.org/2000/svg" id="svg1" version="1.1" height="200" width="1096">
  <defs id="defs1"></defs>
  <rect id="rect1" stroke="none" fill="none" height="200" width="1096" y="0" x="0"></rect>
  <path aria-label="シベリア南部" style="font-weight:bold;font-size:110px;font-family:'BIZ UDPGothic';fill:#ff0000" id="text1" d="M 47.211914,84.418945 Q 31.367187,77.329102 14.87793,72.548828 L 18.369141,61.914062 Q 36.953125,66.533203 50.97168,73.193359 Z M 36.201172,111.91895 Q 22.988281,106.11816 3.8671875,100.04883 L 8.4863281,89.306641 Q 24.921875,93.657227 40.390625,100.85449 Z m -25.405274,29.59472 q 21.967774,-1.82617 34.428711,-6.66015 18.422852,-7.03614 28.950196,-25.13672 7.036132,-12.084964 11.118164,-30.561527 l 10.849609,6.28418 Q 90.932617,108.58887 81.586914,122.33887 70.629883,138.39844 51.025391,146.0791 37.22168,151.39648 14.233398,153.54492 Z m 91.523442,-10.95703 q 19.38964,-25.08301 32.54882,-56.987304 h 13.21289 q 19.6045,33.676754 52.69043,66.655274 l -7.57324,10.52734 Q 166.12793,124.16504 141.9043,86.298828 h -0.42969 q -14.55566,32.871092 -29.59473,52.797852 z m 73.36914,-37.758788 q -3.4375,-8.969727 -11.01075,-19.819336 l 8.48633,-3.061524 q 6.71387,9.345703 11.11817,19.389649 z m 15.41504,-4.726563 q -4.56543,-11.064453 -10.7959,-19.926758 l 7.8955,-2.631836 q 6.28418,7.519532 10.90333,18.691407 z m 26.69433,-27.607422 h 12.51465 v 58.759763 h -12.51465 z m 55.16113,-1.12793 h 12.51465 v 38.403321 q 0,20.249022 -3.27636,30.131832 -2.73926,8.43262 -7.46582,13.42774 -9.82911,10.58105 -31.58204,15.62988 l -6.17675,-11.01074 q 23.79394,-4.83399 30.50781,-16.05957 4.24316,-7.14356 5.10254,-18.04688 0.37597,-5.04882 0.37597,-13.96484 z m 31.52832,7.626954 h 84.16504 l 6.92871,5.854492 q -3.00781,11.225586 -7.84179,18.745117 -9.07715,14.2334 -27.17774,21.26953 l -6.76757,-9.23828 q 12.51464,-3.759766 20.78613,-13.481445 4.88769,-5.747071 6.82129,-12.138672 H 304.4873 Z m 34.42872,23.203125 h 12.2998 v 9.238281 q 0,20.786133 -4.61914,32.119143 -5.85449,14.39453 -22.77344,23.41797 l -8.8623,-9.34571 q 11.65527,-5.53222 17.02636,-13.21289 4.13575,-5.96191 5.42481,-12.62207 1.50391,-7.62695 1.50391,-20.463865 z M 449.45312,120.5127 H 427.2168 v -8.8086 h 10.74218 q -2.41699,-5.47851 -5.47851,-10.20508 l 9.66797,-3.544918 q 4.18945,7.036128 6.76758,13.749998 h 12.62207 q 3.16894,-6.49902 5.58593,-13.964842 l 10.7959,3.383792 q -2.73926,5.9082 -5.80078,10.58105 h 11.54785 v 8.8086 h -22.98828 v 7.84179 h 24.49219 v 9.13086 h -24.49219 v 20.30274 h -11.22559 v -20.30274 h -23.5791 v -9.13086 h 23.5791 z m 11.54786,-33.085942 h 40.71289 v 62.788082 q 0,5.53223 -2.9541,7.78809 -2.47071,1.93359 -8.3252,1.93359 -7.57324,0 -14.60937,-0.80566 l -2.63184,-10.7959 q 9.39941,1.12793 14.07226,1.12793 1.9336,0 2.25586,-0.9668 0.21485,-0.59082 0.21485,-1.66504 V 96.772461 H 421.09375 V 160.47363 H 409.11621 V 87.426758 h 40.01465 v -9.72168 H 403.1543 v -9.990234 h 45.97656 V 55.952148 h 11.87012 v 11.762696 h 46.62109 v 9.990234 h -46.62109 z m 87.81738,-19.067383 h 22.98828 v 10.366211 h -7.57324 q -2.04102,8.217773 -5.47852,17.241211 H 573.0957 V 106.33301 H 513.1543 V 95.966797 h 13.15918 q -2.14844,-10.3125 -4.51172,-17.241211 h -6.98242 V 68.359375 h 22.77343 V 55.952148 h 11.22559 z m -16.16699,10.366211 q 2.73925,8.00293 4.24316,17.241211 h 10.95703 l 0.53711,-1.503906 q 2.30957,-6.123047 4.29688,-13.911133 l 0.4834,-1.826172 z m 33.30078,36.630864 v 43.98925 h -11.01074 v -5.26367 h -23.41797 v 6.3916 h -11.33301 v -45.11718 z m -34.42871,9.88281 v 18.63769 h 23.41797 v -18.63769 z m 71.75781,-27.124026 q 6.3916,6.069336 10.15137,14.448246 3.70605,8.3789 3.70605,16.97265 0,7.94922 -2.9541,11.70899 -3.06152,3.9209 -10.09766,3.9209 -6.01562,0 -11.65527,-0.85938 l -2.63184,-11.44043 q 6.49903,1.18164 10.74219,1.18164 3.22266,0 4.02832,-1.5039 0.53711,-1.07422 0.53711,-4.29688 0,-13.2666 -7.94922,-22.88086 -2.09472,-2.52441 -5.26367,-5.424804 l 0.64453,-1.503906 q 5.58594,-12.62207 8.70117,-26.318359 h -13.75 V 160.47363 H 576.37207 V 61.000977 h 32.33398 l 5.96192,5.478515 q -5.42481,18.476563 -11.38672,31.635742 z"></path>
</svg>
