<svg xmlns="http://www.w3.org/2000/svg" id="svg1" version="1.1" height="200" width="990">
  <defs id="defs1"></defs>
  <rect id="rect1" stroke="none" fill="none" height="200" width="990" y="0" x="0"></rect>
  <path aria-label="本州南方沖" style="font-size:100px;font-family:'BIZ UDPGothic';fill:#ff0000" id="text1" d="m 56.396484,90.820312 q 7.128907,12.353518 17.96875,23.535158 10.498047,10.9375 23.4375,18.75 l -5.126953,6.88476 Q 77.539062,129.78516 65.869141,115.72266 58.496094,106.88477 53.515625,97.802734 v 34.423826 h 19.873047 v 7.08008 H 53.710937 v 20.21484 H 45.605469 V 139.30664 H 26.904297 v -7.08008 H 45.800781 V 98.4375 Q 39.697266,111.57227 28.564453,123.97461 19.482422,134.17969 7.9101562,142.1875 L 2.5878906,135.79102 Q 27.734375,120.06836 42.919922,90.820312 H 4.8828125 V 83.496094 H 45.605469 V 64.501953 h 8.105468 v 18.994141 h 41.357422 v 7.324218 z m 46.923826,32.177738 q 6.10352,-12.06055 7.42188,-31.787113 l 6.78711,0.976563 q -0.92774,21.28906 -7.8125,34.81445 z m 38.37891,0.68359 Q 138.7207,104.98047 134.7168,93.505859 l 6.20117,-3.027343 q 4.78515,12.841794 7.42187,29.931644 z M 151.9043,70.410156 h 7.8125 v 83.691404 h -7.8125 z m 20.80078,51.806644 q -3.71094,-18.16407 -8.59375,-29.736331 l 6.29883,-3.076172 q 5.85937,14.062503 9.0332,29.199223 z m 9.91211,-55.224613 h 7.91015 v 92.529293 h -7.91015 z m -59.47266,0.927735 h 7.91016 v 44.189458 q 0,16.74804 -3.95508,27.97851 -3.51563,9.86328 -11.66992,18.89648 l -6.68946,-5.07812 q 14.4043,-14.99023 14.4043,-41.79687 z m 130.37109,26.074219 h 37.06055 v 57.324219 q 0,3.90625 -1.61133,5.66406 -1.90429,2.05078 -8.00781,2.05078 -5.76172,0 -11.18164,-0.63476 l -1.70898,-7.42188 q 8.88671,0.92774 12.06054,0.92774 1.85547,0 2.29492,-0.87891 0.24415,-0.53711 0.24415,-1.61133 V 100.39063 H 217.1875 v 59.13085 h -7.91016 V 93.994141 h 36.52344 V 83.007812 h -43.31055 v -6.689453 h 43.31055 V 64.501953 h 7.71484 v 11.816406 h 43.94532 v 6.689453 h -43.94532 z m -7.61718,27.783199 h -22.2168 v -6.20117 h 11.86523 q -2.14843,-5.32226 -5.37109,-10.49804 l 6.73828,-2.5879 q 4.05274,7.12891 6.20117,13.08594 H 256.25 q 3.32031,-6.05469 5.76172,-13.28125 l 7.42187,2.58789 q -2.39257,4.98047 -5.32226,9.96094 l -0.39063,0.73242 h 12.40235 v 6.20117 h -22.70508 v 9.13086 H 278.125 v 6.29883 h -24.70703 v 19.92188 h -7.51953 V 137.20703 H 221.875 v -6.29883 h 24.02344 z m 99.56054,-32.812496 q 0,7.324218 -0.92773,17.041016 h 39.4043 q -0.6836,32.91016 -3.75977,43.60351 -1.26953,4.49219 -4.83398,6.34766 -3.02735,1.5625 -9.08203,1.5625 -8.39844,0 -15.33204,-0.92773 l -1.31836,-8.00782 q 10.15625,1.31836 16.3086,1.31836 4.05273,0 5.32226,-1.70898 1.07422,-1.46484 2.14844,-8.49609 1.5625,-9.96094 2.14844,-26.70899 h -31.93359 q -1.80665,11.37695 -5.76172,19.28711 -7.91016,15.91797 -26.02539,25.73242 l -5.61524,-6.29883 q 19.38477,-10.15625 25.58594,-26.36718 5.17578,-13.57422 5.56641,-36.376956 h -33.54493 v -7.177735 h 41.69922 V 64.501953 h 8.00781 v 17.285156 h 42.67579 v 7.177735 z m 113.23243,-3.66211 V 64.501953 h 7.71484 v 20.800781 h 27.7832 v 40.478516 h -27.7832 v 33.69141 h -7.71484 v -33.69141 h -26.9043 V 85.302734 Z m -19.38477,6.982422 v 26.513674 h 19.38477 V 92.285156 Z m 47.26563,26.513674 V 92.285156 H 466.40625 V 118.79883 Z M 421.77734,86.621094 q -6.54297,-8.34961 -15.2832,-15.527344 l 5.32227,-5.273438 q 8.30078,6.201172 15.67382,14.990235 z m -3.66211,25.488286 q -7.66601,-8.8379 -15.91796,-15.527349 l 5.41992,-5.46875 q 8.39843,6.201172 16.16211,14.990239 z m -13.7207,40.57617 q 9.52149,-12.69532 17.48047,-32.86133 l 6.29883,5.07812 q -7.32422,19.14063 -17.08985,33.69141 z"></path>
</svg>
