<svg xmlns="http://www.w3.org/2000/svg" id="svg1" version="1.1" height="200" width="990">
  <defs id="defs1"></defs>
  <rect id="rect1" stroke="none" fill="none" height="200" width="990" y="0" x="0"></rect>
  <path aria-label="宮城県南部" style="font-size:100px;font-family:'BIZ UDPGothic';fill:#ff0000" id="text1" d="m 53.417969,75.195312 h 39.990234 v 19.726563 h -7.8125 V 81.591797 H 13.916016 V 94.921875 H 6.2011719 V 75.195312 H 45.703125 V 64.501953 h 7.714844 z m 26.171875,16.015625 v 24.902343 h -27.34375 q -1.220703,4.49219 -3.90625,10.49805 h 40.478515 v 32.91015 h -8.203125 v -5.32226 H 19.384766 v 5.32226 h -8.105469 v -32.91015 h 28.955078 q 2.490234,-5.95703 3.710937,-10.49805 H 19.580078 V 91.210937 Z m -52.09961,6.201172 V 109.91211 H 71.679687 V 97.412109 Z m -8.105468,35.498051 v 14.89257 h 61.230468 v -14.89257 z m 152.783204,-1.95313 q -4.78516,-16.45508 -6.15235,-41.357421 h -24.70703 v 14.404301 h 20.80078 q -0.0977,23.4375 -2.05078,32.37304 -1.36718,6.29883 -8.39843,6.29883 -3.4668,0 -7.56836,-0.78125 l -0.87891,-6.98242 q 4.24805,0.87891 6.88477,0.87891 2.58789,0 3.32031,-2.29493 1.51367,-4.83398 1.85547,-22.80273 h -13.96485 q 0,13.03711 -1.36718,22.70508 -2.00196,13.96484 -8.88672,25.39062 l -6.29883,-4.78515 q 5.61523,-9.08204 7.56836,-20.9961 1.5625,-9.47265 1.5625,-23.19336 V 82.714844 h 31.78711 q -0.3418,-7.861328 -0.39063,-18.212891 h 7.42188 q 0.0488,9.912109 0.34179,17.138672 l 0.0488,1.074219 h 22.99805 v 6.884765 H 173.4375 q 1.07422,18.261721 4.15039,32.324221 5.32227,-9.86328 8.78906,-21.82617 l 6.9336,3.22265 q -6.39649,17.04102 -13.13477,28.27149 3.32031,9.66797 7.17774,15.2832 1.31835,1.9043 1.85546,1.9043 0.58594,0 1.12305,-2.00196 1.2207,-4.78515 1.95313,-11.47461 l 6.00586,3.8086 q -1.07422,10.74219 -3.07618,15.42969 -1.75781,4.15039 -4.78515,4.15039 -6.25,0 -15.23438,-19.62891 -7.76367,10.88867 -20.11719,19.92187 L 150,153.51562 q 7.08008,-5.02929 11.03516,-8.98437 6.10351,-6.15234 11.13281,-13.57422 z M 113.91602,89.013672 V 65.234375 h 7.42187 v 23.779297 h 9.27734 v 7.080078 h -9.27734 v 35.20508 q 4.58984,-2.00196 9.17969,-4.29688 l 0.78125,6.88477 q -11.81641,6.73828 -26.70899,12.01172 l -2.58789,-7.51953 q 5.22461,-1.5625 11.91407,-4.10157 V 96.09375 h -10.9375 v -7.080078 z m 72.26562,-7.226563 q -3.71094,-7.177734 -8.88672,-13.378906 l 5.51758,-3.320312 q 5.07812,5.859375 9.27734,12.988281 z M 282.86133,67.578125 V 114.4043 H 225.78125 V 67.578125 Z m -49.36524,6.005859 v 7.714844 h 41.55274 v -7.714844 z m 0,13.330078 v 7.763672 h 41.55274 v -7.763672 z m 0,13.476568 v 8.30078 h 41.55274 v -8.30078 z M 214.4043,122.2168 h 83.05664 v 6.49414 h -41.99219 v 30.81054 h -7.91016 V 128.71094 H 206.5918 V 74.267578 h 7.8125 z m -9.22852,29.6875 q 12.79297,-6.15235 23.0957,-19.28711 l 6.5918,3.66211 q -10.40039,13.62304 -24.07226,21.72851 z m 84.17969,4.10156 q -10.25391,-11.18164 -23.29102,-19.82422 l 6.00586,-4.49219 q 11.76758,7.37305 23.68164,18.79883 z m 64.16015,-62.011719 h 37.06055 v 57.324219 q 0,3.90625 -1.61133,5.66406 -1.90429,2.05078 -8.00781,2.05078 -5.76172,0 -11.18164,-0.63476 l -1.70898,-7.42188 q 8.88671,0.92774 12.06054,0.92774 1.85547,0 2.29492,-0.87891 0.24415,-0.53711 0.24415,-1.61133 V 100.39063 H 317.1875 v 59.13085 h -7.91016 V 93.994141 h 36.52344 V 83.007812 h -43.31055 v -6.689453 h 43.31055 V 64.501953 h 7.71484 v 11.816406 h 43.94532 v 6.689453 h -43.94532 z m -7.61718,27.783199 h -22.2168 v -6.20117 h 11.86523 q -2.14843,-5.32226 -5.37109,-10.49804 l 6.73828,-2.5879 q 4.05274,7.12891 6.20117,13.08594 H 356.25 q 3.32031,-6.05469 5.76172,-13.28125 l 7.42187,2.58789 q -2.39257,4.98047 -5.32226,9.96094 l -0.39063,0.73242 h 12.40235 v 6.20117 h -22.70508 v 9.13086 H 378.125 v 6.29883 h -24.70703 v 19.92188 h -7.51953 V 137.20703 H 321.875 v -6.29883 h 24.02344 z m 88.08593,-45.166012 h 21.82618 v 6.787109 h -7.03125 q -2.05078,9.13086 -5.61524,18.701173 h 14.45313 v 6.88477 h -55.12696 v -6.88477 h 13.72071 l -0.0977,-0.48828 Q 414.0625,91.601562 411.71875,84.423828 l -0.3418,-1.025391 h -7.08008 v -6.787109 h 22.2168 V 64.501953 h 7.4707 z m -15.13671,6.787109 q 2.58789,7.958985 4.73632,18.701173 h 12.15821 q 2.92968,-8.105469 5.32226,-18.701173 z m 31.83593,35.888673 v 39.30664 h -7.32422 v -5.51758 h -25.97656 v 6.39649 h -7.56836 v -40.18555 z m -33.30078,6.68945 v 20.3125 h 25.97656 v -20.3125 z m 65.42969,-22.70508 q 12.8418,13.57422 12.8418,29.44336 0,5.56641 -2.00196,8.39844 -2.4414,3.27149 -8.49609,3.27149 -5.81055,0 -10.69336,-0.6836 l -1.61133,-7.61719 q 6.25,1.02539 10.15625,1.02539 3.71094,0 4.39453,-2.49023 0.29297,-1.07422 0.29297,-3.51562 0,-13.72071 -12.64648,-26.70899 5.85937,-12.695311 9.52148,-26.708983 h -15.42969 v 81.787113 h -7.37304 V 70.507812 h 27.49023 l 4.39453,3.808594 q -5.37109,17.382813 -10.83984,28.955074 z"></path>
</svg>
