<svg xmlns="http://www.w3.org/2000/svg" id="svg1" version="1.1" height="200" width="1096">
  <defs id="defs1"></defs>
  <rect id="rect1" stroke="none" fill="none" height="200" width="1096" y="0" x="0"></rect>
  <path aria-label="インドネシア付近" style="font-weight:bold;font-size:110px;font-family:'BIZ UDPGothic';fill:#ff0000" id="text1" d="M 45.170898,155.69336 V 100.58594 Q 28.842773,111.54297 7.8955078,119.0625 L 1.3964844,108.15918 Q 25.19043,100.15625 43.129883,87.53418 60.74707,75.126953 74.49707,59.121094 l 10.366211,6.499023 Q 72.670898,79.638672 57.685547,91.347656 V 155.69336 Z M 133.84766,88.178711 Q 116.875,80.605469 98.55957,76.040039 l 3.75977,-11.547852 q 21.21582,4.833985 35.61035,12.03125 z M 99.902344,141.62109 q 26.586916,-2.25586 40.712886,-9.50683 16.65039,-8.59375 25.56641,-26.37207 5.80078,-11.494143 9.39941,-30.078128 l 10.3125,7.573243 q -4.35058,19.873045 -10.52734,31.582035 -11.17187,21.32324 -34.16016,30.88378 -14.50195,6.01563 -38.77929,8.59375 z M 207.05566,59.013672 h 12.51465 v 31.904297 q 32.06543,9.936521 53.12012,20.249021 l -6.01563,11.54785 q -20.19531,-10.25879 -47.10449,-19.49707 v 53.4961 h -12.51465 z m 47.1045,28.950195 q -3.27637,-8.540039 -10.90332,-19.926758 l 8.32519,-3.061523 q 6.66016,9.18457 11.11817,19.550781 z m 15.36132,-3.544922 Q 265.49316,73.999023 258.7793,64.438477 l 8.00293,-2.631836 q 6.06933,7.358398 10.90332,18.691406 z m 58.4375,-26.37207 h 12.08497 v 16.811523 h 24.27734 l 6.28418,6.28418 Q 358.9502,96.557617 340.7959,109.66309 v 48.71582 h -12.08496 v -40.82032 q -17.45606,10.36621 -37.43653,17.40235 l -6.01562,-10.36621 q 26.80176,-7.89551 48.76953,-23.25684 10.52734,-7.358398 17.88574,-15.683593 h -56.9873 V 74.858398 h 33.03222 z m 50.00489,79.438475 q -15.79102,-13.48144 -33.51563,-23.36426 l 7.57324,-7.57324 q 17.88575,9.07715 33.24707,21.21582 z M 434.41406,84.418945 Q 418.56934,77.329102 402.08008,72.548828 l 3.49121,-10.634766 q 18.58398,4.619141 32.60254,11.279297 z m -11.01074,27.500005 q -13.21289,-5.80079 -32.33398,-11.87012 l 4.61914,-10.742189 q 16.43554,4.350586 31.90429,11.547849 z m -25.40527,29.59472 q 21.96777,-1.82617 34.42871,-6.66015 18.42285,-7.03614 28.95019,-25.13672 7.03614,-12.084964 11.11817,-30.561527 l 10.84961,6.28418 q -5.20996,23.149417 -14.55567,36.899417 -10.95703,16.05957 -30.56152,23.74023 -13.80371,5.31738 -36.79199,7.46582 z m 93.51074,-74.550779 h 84.16504 l 6.92871,5.854492 q -3.00781,11.225586 -7.8418,18.745117 -9.07715,14.2334 -27.17773,21.26953 l -6.76758,-9.23828 q 12.51465,-3.759766 20.78613,-13.481445 4.8877,-5.747071 6.82129,-12.138672 h -76.91406 z m 34.42871,23.203125 h 12.2998 v 9.238281 q 0,20.786133 -4.61914,32.119143 -5.85449,14.39453 -22.77343,23.41797 l -8.86231,-9.34571 q 11.65528,-5.53222 17.02637,-13.21289 4.13574,-5.96191 5.4248,-12.62207 1.50391,-7.62695 1.50391,-20.463865 z m 91.41602,-4.189454 V 160.47363 H 605.69824 V 105.3125 q -4.35058,6.12305 -10.09765,12.67578 l -6.06934,-11.54785 q 10.90332,-12.084961 18.69141,-28.144532 4.72656,-9.721679 9.45312,-23.203125 l 11.22559,3.061524 q -4.8877,14.716797 -11.54785,27.822265 z M 678.53027,81.25 h 16.167 v 10.795898 h -16.167 v 56.396482 q 0,7.08985 -3.4375,9.45313 -2.52441,1.77246 -9.50683,1.77246 -8.54004,0 -17.50977,-0.9668 l -2.30957,-11.76269 q 9.56055,1.39648 17.83203,1.39648 2.25586,0 2.73926,-0.9668 0.32227,-0.69824 0.32227,-2.30957 V 92.045898 H 622.72461 V 81.25 h 43.93555 V 57.832031 h 11.87011 z m -33.99902,52.0459 q -6.06934,-16.16699 -14.98535,-29.48731 l 10.25879,-5.96191 q 9.66797,14.2334 15.52246,29.16504 z m 83.25195,2.73926 q 4.29688,4.99511 9.66797,7.41211 8.8086,3.9746 23.0957,3.9746 h 45.76172 q -1.93359,3.65235 -3.59863,10.47364 h -42.70019 q -18.47657,0 -28.30567,-5.80078 -4.02832,-2.417 -8.8623,-7.89551 -0.37598,0.42969 -0.91309,1.07422 -7.89551,9.3457 -15.68359,15.2539 l -6.49903,-11.01074 q 8.54004,-5.10254 16.48926,-11.54785 v -26.5332 h -15.62988 v -10.58106 h 27.17773 z m 13.96485,-71.274418 2.84668,-0.214844 q 24.86816,-1.71875 44.6875,-7.358398 l 8.3789,9.453125 q -20.83984,5.478516 -44.47265,7.412109 V 87.963867 H 802.9248 V 98.4375 h -18.04687 v 43.77441 H 773.00781 V 98.4375 h -19.81933 q -0.26856,17.24121 -2.57813,27.44629 -2.09473,9.39941 -6.875,16.86523 l -9.88281,-7.46582 q 5.31738,-8.27148 6.82129,-20.51757 1.07422,-8.43262 1.07422,-22.934575 z M 721.875,85.761719 Q 713.65723,74.160156 704.15039,64.975586 l 8.80859,-7.036133 q 9.23829,7.734375 18.58399,19.658203 z"></path>
</svg>
