<svg xmlns="http://www.w3.org/2000/svg" id="svg1" version="1.1" height="200" width="1096">
  <defs id="defs1"></defs>
  <rect id="rect1" stroke="none" fill="none" height="200" width="1096" y="0" x="0"></rect>
  <path aria-label="沖縄本島近海" style="font-weight:bold;font-size:110px;font-family:'BIZ UDPGothic';fill:#ff0000" id="text1" d="m 63.701172,75.986328 v -20.03418 h 11.547851 v 20.03418 H 104.36035 V 124.59473 H 75.249023 v 35.8789 H 63.701172 v -35.8789 H 35.180664 V 75.986328 Z M 46.298828,86.674805 V 114.01367 H 63.701172 V 86.674805 Z M 92.919922,114.01367 V 86.674805 H 75.249023 v 27.338865 z m -68.75,-31.796873 Q 17.617187,73.085937 6.8212891,64.760742 L 14.824219,56.59668 q 10.742187,7.573242 18.154297,16.972656 z M 20.678711,109.82422 Q 11.333008,98.974609 2.5244141,92.045898 l 8.2714839,-8.271484 q 9.399414,6.606445 18.583985,17.080076 z M 3.9746094,151.4502 Q 14.287109,136.78711 22.988281,114.92676 l 9.560547,7.3584 q -7.358398,20.1416 -17.939453,37.91992 z M 126.2207,95.751953 q -5.63965,-8.969726 -14.12597,-18.046875 l 6.28418,-7.788086 q 1.28906,1.396485 2.30957,2.524414 l 0.53711,0.590821 q 5.10254,-7.841797 9.23828,-17.72461 l 9.45312,4.833985 q -5.37109,9.936523 -13.05176,19.819335 2.90039,3.813477 5.42481,7.734375 7.94922,-11.225585 13.2666,-19.873046 l 8.21777,5.800781 q -10.25879,15.522461 -22.98828,29.702153 8.11035,-0.4834 13.05176,-1.07422 -1.23535,-4.243168 -2.68555,-7.949222 l 8.11036,-2.954102 q 4.08203,10.312504 5.96191,20.356444 v -9.3457 h 23.84766 V 96.289062 H 158.07129 V 60.678711 h 52.58301 v 35.610351 h -21.91407 v 6.069338 h 25.0293 v 36.41601 h -25.0293 v 6.82129 q 0,2.84668 1.61133,3.38379 1.55762,0.53711 7.94922,0.53711 7.51953,0 9.23828,-1.55762 1.28906,-1.12793 1.34278,-8.64746 l 9.93652,2.84668 q -0.53711,10.58106 -2.68555,13.42774 -1.82617,2.36328 -6.55273,3.11523 -4.83399,0.75195 -12.46094,0.75195 -12.24609,0 -15.20019,-1.93359 -2.84668,-1.82617 -2.84668,-7.62695 v -11.11817 h -23.84766 v -25.78125 l -8.27149,3.54493 q -0.5371,-3.4375 -1.12792,-6.23047 -1.07422,0.16113 -4.13575,0.64453 -1.61133,0.26855 -2.52441,0.37598 v 49.1455 h -10.47363 v -47.74902 q -0.59082,0.0537 -1.71875,0.16113 -4.94141,0.59082 -12.78321,1.23535 l -2.09472,-9.77539 q 2.14843,-0.10742 4.35058,-0.21484 l 3.22266,-0.16113 q 3.75976,-4.511722 6.55273,-8.217777 z m 52.85157,-27.392578 h -11.44043 v 6.499023 h 11.44043 z m 9.66796,0 v 6.499023 h 11.92383 v -6.499023 z m -9.66796,13.642578 h -11.44043 v 6.821289 h 11.44043 z m 9.66796,0 v 6.821289 h 11.92383 v -6.821289 z m -9.66796,27.714847 h -13.53516 v 6.82129 h 13.53516 z m 9.66796,0 v 6.82129 h 14.55567 v -6.82129 z m -9.66796,14.07226 h -13.53516 v 7.19727 h 13.53516 z m 9.66796,0 v 7.19727 h 14.55567 v -7.19727 z m -77.07519,23.36426 q 3.16894,-10.52734 3.86719,-28.03711 l 9.77539,1.39649 q -0.4834,18.90625 -3.86719,31.36718 z m 33.56933,-2.20215 q -1.71875,-13.48144 -4.18945,-24.43847 l 8.00293,-2.30957 q 3.11524,10.47363 5.10254,22.66601 z M 284.77539,86.298828 q 17.61719,25.673832 43.29102,41.088872 l -7.62696,10.36621 Q 294.1748,118.52539 280.47852,96.181641 V 128.94531 H 302.5 v 10.58106 h -21.80664 v 20.94726 H 268.6084 v -20.94726 h -20.57129 v -10.58106 h 20.78613 V 96.71875 q -13.21289,24.43848 -38.72558,43.66699 l -7.78809,-9.66797 q 25.94238,-17.1875 42.00195,-44.418942 H 225.37109 V 75.288086 h 43.12989 V 55.952148 h 12.2998 v 19.335938 h 43.82813 v 11.010742 z m 87.81738,-22.182617 q 1.98731,-4.780274 3.22266,-9.130859 l 13.10547,1.77246 q -1.87988,4.458008 -3.4375,7.358399 h 35.77148 v 35.019531 h -64.88281 v 5.424808 h 80.83496 v 8.70117 h -80.83496 v 5.47851 h 77.0752 q -0.69825,24.59961 -3.11524,33.19336 -1.55762,5.47852 -5.85449,7.25098 -3.06152,1.28906 -9.3457,1.28906 -6.44532,0 -12.03125,-0.80566 l -2.14844,-9.02344 h -53.81836 v 5.96192 h -11.54785 v -25.83497 h 11.54785 v 11.06446 h 18.47656 v -14.50196 h -21.1084 V 64.116211 Z m 22.82715,77.719729 v -11.06446 h 11.11817 v 18.69141 q 4.458,0.42969 7.41211,0.42969 3.65234,0 4.56542,-2.09473 1.77247,-3.9209 2.79297,-20.46387 H 377.1582 v 14.50196 z M 356.37207,72.387695 v 5.317383 h 53.0127 v -5.317383 z m 0,12.998047 v 5.854492 h 53.0127 v -5.854492 z m 113.97461,50.649418 q 4.29687,4.99511 9.66797,7.41211 8.80859,3.9746 23.0957,3.9746 h 45.76172 q -1.93359,3.65235 -3.59863,10.47364 h -42.7002 q -18.47656,0 -28.30566,-5.80078 -4.02832,-2.417 -8.86231,-7.89551 -0.37597,0.42969 -0.91308,1.07422 -7.89551,9.3457 -15.6836,15.2539 l -6.49902,-11.01074 q 8.54004,-5.10254 16.48926,-11.54785 v -26.5332 h -15.62988 v -10.58106 h 27.17773 z m 13.96484,-71.274418 2.84668,-0.214844 q 24.86817,-1.71875 44.6875,-7.358398 l 8.37891,9.453125 q -20.83984,5.478516 -44.47266,7.412109 v 13.911133 h 49.73633 V 98.4375 h -18.04687 v 43.77441 H 515.57129 V 98.4375 h -19.81934 q -0.26855,17.24121 -2.57812,27.44629 -2.09473,9.39941 -6.875,16.86523 l -9.88281,-7.46582 q 5.31738,-8.27148 6.82128,-20.51757 1.07422,-8.43262 1.07422,-22.934575 z M 464.43848,85.761719 Q 456.2207,74.160156 446.71387,64.975586 l 8.80859,-7.036133 q 9.23828,7.734375 18.58399,19.658203 z M 647.7002,85.117187 q 0,2.524415 -0.4834,23.955083 h 10.25879 v 9.66796 h -10.47364 q -0.16113,7.03614 -0.69824,15.95215 h 9.07715 v 9.45313 h -9.77539 q -0.64453,7.78808 -1.77246,10.3125 -2.52442,6.01562 -12.2461,6.01562 -6.23046,0 -11.49414,-0.91308 L 618.10547,150 q 7.57324,1.07422 11.60156,1.07422 3.27637,0 3.9209,-2.30957 0.32227,-1.12793 0.59082,-4.61914 h -38.24219 q -0.0537,0.42969 -0.16113,0.91308 -0.4834,2.84668 -0.91309,5.3711 l -11.11816,-1.07422 q 3.27637,-19.38965 4.4043,-29.32617 l 0.16113,-1.28907 h -10.74219 v -9.66796 h 11.87012 q 1.50391,-12.998051 2.57812,-23.955083 z m -33.94532,9.345704 h -11.76269 q -0.16114,2.739257 -0.9668,11.547849 l -0.32227,3.06153 h 11.92383 l 0.16114,-1.50391 q 0.10742,-1.55762 0.32226,-4.35059 0.53711,-7.519528 0.64453,-8.754879 z m 10.58106,0 q -0.26856,6.391599 -0.80567,14.125979 v 0.4834 h 12.62207 q 0.21485,-7.3584 0.37598,-14.609379 z m -12.56836,24.277339 h -12.08496 q -0.80567,6.55274 -1.71875,12.94434 l -0.42969,3.00781 h 12.56836 q 1.28906,-11.65527 1.66504,-15.95215 z m 11.01074,0 q -0.16113,2.14844 -0.64453,7.08985 l -0.85938,8.8623 h 13.69629 q 0.26856,-5.20996 0.42969,-7.84179 0.32227,-5.74707 0.42969,-8.11036 z M 601.72363,65.727539 h 51.88477 v 9.990234 h -56.34278 q -4.35058,8.862305 -11.06445,16.865235 l -7.68066,-8.378906 Q 589.10156,71.796875 593.55957,55.629883 L 605,56.811523 q -1.93359,5.585938 -3.27637,8.916016 z m -29.59472,15.629883 q -6.60645,-9.077149 -16.05957,-17.026367 l 8.11035,-7.841797 q 8.75488,6.445312 16.65039,16.274414 z M 568.26172,109.7168 Q 560.09766,99.243164 551.77246,92.15332 l 8.37891,-8.05664 q 9.3457,7.358398 16.81152,16.75781 z m -14.60938,42.16308 q 9.34571,-12.94433 17.72461,-34.10644 l 9.56055,6.82129 q -6.98242,19.55078 -17.93945,35.8789 z"></path>
</svg>
