<svg xmlns="http://www.w3.org/2000/svg" id="svg1" version="1.1" height="200" width="1096">
  <defs id="defs1"></defs>
  <rect id="rect1" stroke="none" fill="none" height="200" width="1096" y="0" x="0"></rect>
  <path aria-label="福岡県北西沖" style="font-weight:bold;font-size:110px;font-family:'BIZ UDPGothic';fill:#ff0000" id="text1" d="m 29.970703,103.37891 q 7.143555,4.9414 13.374024,10.68847 v -4.35058 h 61.176753 v 50.75683 H 93.725586 v -4.51172 H 54.248047 v 4.51172 h -10.90332 v -45.00976 l -5.585938,8.8623 q -3.974609,-4.72656 -7.788086,-8.43262 v 44.58008 H 18.637695 v -43.98925 q -6.391601,7.19726 -11.8164059,12.24609 L 1.2353516,118.52539 Q 19.282227,102.73438 28.520508,83.881836 H 3.6523438 V 73.193359 H 18.154297 V 55.952148 h 11.44043 v 17.241211 h 8.271484 l 4.941406,5.15625 Q 37.758789,89.951172 29.970703,101.60645 Z m 24.277344,15.03906 v 9.99023 h 14.555664 v -9.99023 z m 0,18.26172 V 147.0459 H 68.803711 V 136.67969 Z M 93.725586,147.0459 V 136.67969 H 78.686523 v 10.36621 z m 0,-18.6377 v -9.99023 H 78.686523 v 9.99023 z M 99.365234,76.201172 V 103.48633 H 48.071289 V 76.201172 Z m -40.498047,8.271484 v 10.84961 H 88.24707 V 84.472656 Z M 41.733398,60.356445 H 106.0791 v 9.345703 H 41.733398 Z M 182.1875,131.63086 v -23.20313 h 10.20508 v 32.8711 h -44.79492 v 7.25097 h -10.20508 v -40.12207 h 10.20508 v 23.20313 h 11.87011 V 101.3916 h -27.55371 v -9.667967 h 38.24219 q 5.37109,-9.399414 9.23828,-20.893555 l 11.11817,3.867188 q -4.61915,9.721679 -9.61426,17.026367 h 17.34863 v 9.667967 h -28.57422 v 30.23926 z m 30.56152,-71.918946 v 89.965816 q 0,5.42481 -2.90039,7.78809 -2.79297,2.25586 -9.72168,2.25586 -5.4248,0 -18.53027,-0.91309 l -2.73926,-11.333 q 9.3457,1.12793 18.31543,1.12793 3.00781,0 3.54492,-1.02051 0.37598,-0.69824 0.37598,-2.73926 V 69.80957 h -72.08008 v 90.66406 H 117.3584 V 59.711914 Z M 146.8457,91.455078 q -3.59863,-8.59375 -8.16406,-15.683594 l 10.04395,-4.296875 q 5.04882,7.358399 8.43261,15.46875 z M 312.16797,58.583984 V 110.62988 H 248.25195 V 58.583984 Z m -52.36817,8.486328 v 6.713868 h 40.7129 v -6.713868 z m 0,14.28711 v 6.713867 h 40.7129 v -6.713867 z m 0,14.287109 v 6.928709 h 40.7129 v -6.928709 z m -21.6455,22.128909 h 89.05273 v 9.3457 h -44.41894 v 33.35449 H 270.5957 V 127.11914 H 226.3916 V 66.855469 h 11.7627 z m -13.75,32.4414 q 12.7832,-5.9082 24.43847,-19.81933 l 9.88282,5.74707 q -11.49414,14.55566 -25.5127,22.88086 z m 92.59765,6.92871 q -8.21777,-10.09765 -24.70703,-21.21582 l 9.23828,-6.49902 q 12.94434,7.46582 25.40528,19.60449 z m 45.11719,-25.29785 q -14.82422,7.78809 -25.83496,11.92383 l -4.51172,-11.81641 q 17.24121,-5.80078 30.34668,-12.03124 V 95.859375 H 335.53223 V 84.526367 h 26.58691 V 55.952148 h 11.97754 V 160.47363 h -11.97754 z m 38.18848,-41.840817 q 12.51465,-6.552735 24.27734,-16.650391 l 8.91602,9.345703 q -15.89844,11.279297 -33.19336,19.228515 v 40.2832 q 0,2.63184 1.71875,3.22266 1.82617,0.59082 8.43261,0.59082 8.70118,0 10.90332,-1.02051 1.55762,-0.69824 2.14844,-4.35058 0.80567,-5.10254 1.18164,-16.48926 l 12.03125,3.70605 q -0.53711,13.91114 -1.71875,19.98047 -1.34277,6.76758 -7.03613,8.75489 -5.4248,1.82617 -17.77832,1.82617 -14.50195,0 -18.26172,-2.417 -3.59863,-2.36328 -3.59863,-9.07714 V 55.952148 h 11.97754 z m 75.08789,-3.383789 V 71.582031 H 443.38379 V 61.21582 h 103.28613 v 10.366211 h -35.50293 v 15.039063 h 30.13184 v 72.402346 h -11.65528 v -7.57324 h -69.34082 v 7.57324 H 448.75488 V 86.621094 Z m 11.11816,0 h 13.53516 V 71.582031 h -13.53516 z m -11.17187,9.77539 h -15.03907 v 44.848636 h 69.34082 v -16.11328 h -20.35644 q -9.23828,0 -9.23828,-9.23829 V 96.396484 h -13.64258 q -0.21484,13.212896 -3.97461,21.162106 -3.54492,7.57325 -13.96484,14.98536 l -7.41211,-8.27149 q 9.99023,-6.12305 12.62207,-15.14648 1.39648,-4.83399 1.66504,-12.729496 z m 35.82519,0 v 16.435546 q 0,2.09473 1.87988,2.09473 h 16.59668 V 96.396484 Z M 613.70117,75.986328 v -20.03418 h 11.54785 v 20.03418 h 29.11133 v 48.608402 h -29.11133 v 35.8789 h -11.54785 v -35.8789 H 585.18066 V 75.986328 Z m -17.40234,10.688477 v 27.338865 h 17.40234 V 86.674805 Z m 46.62109,27.338865 V 86.674805 h -17.6709 v 27.338865 z m -68.75,-31.796873 q -6.55273,-9.13086 -17.34863,-17.456055 l 8.00293,-8.164062 q 10.74219,7.573242 18.1543,16.972656 z m -3.49121,27.607423 q -9.3457,-10.849611 -18.1543,-17.778322 l 8.27149,-8.271484 q 9.39941,6.606445 18.58398,17.080076 z m -16.7041,41.62598 q 10.3125,-14.66309 19.01367,-36.52344 l 9.56055,7.3584 q -7.3584,20.1416 -17.93946,37.91992 z"></path>
</svg>
