<svg xmlns="http://www.w3.org/2000/svg" id="svg1" version="1.1" height="200" width="990">
  <defs id="defs1"></defs>
  <rect id="rect1" stroke="none" fill="none" height="200" width="990" y="0" x="0"></rect>
  <path aria-label="与那国島近海" style="font-size:100px;font-family:'BIZ UDPGothic';fill:#ff0000" id="text1" d="m 34.082031,78.515625 h 51.025391 v 6.787109 H 32.617187 q -2.099609,9.228516 -3.515625,14.306641 h 49.072266 q -0.292969,11.865235 -1.074219,21.826175 h 20.410157 v 6.88476 H 76.513672 q -1.806641,18.21289 -4.345703,23.82813 -2.197266,4.83398 -7.373047,6.15234 -2.734375,0.73242 -7.8125,0.73242 -8.105469,0 -17.285156,-0.92773 l -1.611329,-7.8125 q 11.230469,1.31836 18.798829,1.31836 4.101562,0 5.761718,-1.12305 2.09961,-1.41601 3.173828,-6.00586 1.513672,-6.54297 2.490235,-16.16211 H 2.4902344 v -6.88476 H 68.945312 q 0.488282,-6.15235 1.025391,-15.03907 H 18.603516 q 6.49414,-18.945308 10.107421,-41.796871 l 7.861329,1.123047 q -1.074219,5.761719 -2.490235,12.792969 z m 92.431639,46.191405 q -1.70898,8.98438 -5.07812,16.35742 -4.19922,9.13086 -12.45117,17.33399 l -5.61524,-5.32227 q 7.8125,-7.56836 11.76758,-16.55273 2.34375,-5.3711 3.75976,-11.81641 h -15.91796 v -6.39648 h 17.13867 q 0.8789,-5.41992 1.61133,-17.91992 h -15.9668 v -6.494146 h 16.30859 q 0.39063,-11.035156 0.39063,-17.089843 H 107.4707 V 70.3125 h 43.60352 v 7.8125 q 0,59.08203 -1.9043,71.77734 -0.68359,4.63868 -3.66211,6.44532 -2.63672,1.5625 -8.20312,1.5625 -4.63867,0 -9.81446,-0.83008 l -0.92773,-7.56836 q 6.49414,1.17187 10.40039,1.17187 3.27148,0 4.19922,-1.85547 1.17187,-2.29492 1.75781,-18.01757 l 0.19531,-6.10352 z m 1.07422,-6.39648 h 15.77148 l 0.3418,-17.91992 h -14.59961 l -0.0488,1.46484 q -0.58593,10.25391 -1.46484,16.45508 z m 1.80664,-24.414066 h 14.4043 l 0.0488,-6.591797 q 0.0488,-4.882812 0.0488,-9.179687 v -1.318359 h -14.11132 q -0.0488,8.154296 -0.39063,17.089843 z m 52.73438,9.326176 q 13.08593,14.50195 13.08593,28.85742 0,4.78515 -1.31836,7.61719 -2.24609,4.78515 -9.52148,4.78515 -6.05469,0 -11.18164,-0.68359 l -1.70899,-7.91016 q 6.44532,1.2207 10.69336,1.2207 3.17383,0 4.19922,-1.5625 0.73242,-1.07421 0.73242,-3.51562 0,-14.11133 -13.23242,-27.73437 5.85938,-11.865239 10.00977,-26.708989 h -16.79688 v 81.884769 h -7.51953 V 70.605469 h 29.10156 l 4.44336,3.710937 q -4.98046,16.503906 -10.98632,28.906254 z m 70.41015,-11.230473 v 14.501953 h 22.50977 v 6.20117 h -22.50977 v 18.99414 h 27.19727 v 6.49414 h -59.7168 v -6.49414 h 25.09766 v -18.99414 h -20.70313 v -6.20117 h 20.70313 V 91.992187 h -24.02344 v -6.49414 h 57.22656 v 6.49414 z m 16.50391,37.988283 q -4.58985,-7.17774 -10.10742,-12.30469 l 5.5664,-3.4668 q 5.41992,4.93165 10.20508,11.76758 z M 292.5293,69.824219 v 89.697261 h -7.8125 v -5.41992 h -69.58008 v 5.41992 h -7.8125 V 69.824219 Z m -77.39258,6.591797 V 147.31445 H 284.7168 V 76.416016 Z m 152.88086,72.802734 h -53.8086 v 5.71289 h -7.71484 v -23.0957 h 7.71484 v 11.18164 h 19.0918 v -14.69727 h -19.0918 V 73.291016 h 23.97461 q 3.36914,-4.931641 5.41993,-9.179688 l 8.6914,2.001953 q -2.39258,3.515625 -5.46875,7.177735 h 35.25391 v 30.517574 h -59.96094 v 6.00586 h 75.3418 v 6.10352 h -75.3418 v 6.29883 h 70.94727 q -0.73243,23.87695 -3.32032,30.71289 -1.5625,4.19922 -5.51757,5.66406 -2.5879,0.92773 -6.83594,0.92773 -6.15235,0 -11.76758,-0.8789 l -1.61133,-7.22656 q 6.73828,1.02539 12.10938,1.02539 4.24804,0 5.37109,-1.95313 2.24609,-3.90625 3.36914,-22.16797 h -43.94531 v 14.69727 h 19.58008 v -11.18164 h 7.51953 z M 322.11914,79.296875 v 6.298828 h 52.09961 v -6.298828 z m 0,12.011719 v 6.689453 h 52.09961 v -6.689453 z m 104.39453,47.021486 q 4.29688,4.44336 9.81445,7.22656 8.59375,4.3457 23.58399,4.3457 h 38.37891 q -1.41602,2.88086 -2.49024,6.88477 H 459.7168 q -16.35743,0 -25.63477,-4.58984 -5.56641,-2.78321 -10.74219,-8.20313 -8.34961,9.57031 -16.25976,15.47852 l -4.58985,-7.08008 q 7.95899,-4.98047 16.40625,-12.5 v -25.6836 h -16.21093 v -6.7871 h 23.82812 z M 440.9668,74.21875 q 1.70898,-0.146484 3.71093,-0.292969 21.92383,-1.80664 39.99024,-7.617187 l 5.61523,6.103515 q -17.91992,5.371094 -41.60156,7.763672 v 14.941406 h 47.41211 v 6.884763 h -17.91992 v 43.40821 h -7.8125 v -43.40821 h -21.67969 q 0,13.52539 -1.17187,22.07032 -1.5625,11.4746 -6.83594,20.21484 l -6.49414,-5.17578 q 4.78515,-8.30078 6.00586,-19.33594 0.78125,-7.27539 0.78125,-20.654296 z m -18.35938,14.697266 q -7.51953,-9.960938 -15.52734,-17.138672 l 5.51758,-4.6875 q 8.20312,6.689453 15.96679,16.308593 z m 115.47852,1.904296 h 49.90234 q 0,2.636719 -0.68359,22.998048 h 10.20508 v 6.5918 h -10.44922 q -0.19532,6.25 -0.87891,17.91992 h 9.7168 v 6.49414 h -10.20508 q -0.63477,7.27539 -1.70899,9.66797 -2.14843,5.02929 -10.49804,5.02929 -4.73633,0 -11.08399,-0.78125 l -1.41601,-6.83593 q 7.32422,1.02539 12.06054,1.02539 2.73438,0 3.61329,-1.22071 0.78125,-1.12304 1.31836,-6.10351 l 0.0488,-0.78125 h -39.01367 l -0.14648,0.78125 -0.14649,0.68359 -0.83008,4.73633 -7.4707,-0.87891 q 2.63672,-14.50195 4.44336,-29.73632 h -9.76562 v -6.5918 h 10.54687 q 1.46484,-12.69531 2.44141,-22.998048 z m 27.58789,6.396485 q -0.19531,3.417973 -0.73242,11.572263 l -0.29297,5.0293 h 15.33203 q 0.0977,-2.09961 0.24414,-5.46875 0.0488,-0.87891 0.19531,-5.56641 0,-1.85547 0.14649,-5.566403 z m -7.12891,0 h -13.81836 q -0.43945,5.957033 -1.51367,16.601563 h 14.0625 q 0.29297,-3.71094 0.43945,-5.56641 0.3418,-3.61328 0.83008,-11.035153 z m -1.80664,23.193363 h -14.25781 q -0.78125,6.64062 -1.95313,14.59961 l -0.48828,3.32031 h 14.79492 l 0.29297,-2.2461 q 1.17188,-9.76562 1.61133,-15.67382 z m 7.32422,0 -0.48828,5.12695 q -0.83008,8.78906 -1.31836,12.79297 h 16.40625 q 0.48828,-6.34766 0.73242,-12.30469 l 0.29297,-5.61523 z M 544.9707,73.779297 h 48.92578 v 6.689453 h -52.00195 q -4.00391,7.958984 -9.91211,14.941406 l -5.37109,-5.224609 q 9.47265,-10.546875 14.01367,-25.78125 l 7.4707,0.78125 q -1.5625,4.833984 -3.125,8.59375 z m -24.75586,12.5 q -6.44531,-8.447266 -14.40429,-15.38086 l 5.27343,-5.078125 q 7.51954,5.810547 14.69727,14.697266 z m -3.51562,25.732423 Q 509.0332,102.68555 501.9043,96.679687 l 5.41992,-5.371093 q 8.39844,6.787109 15.08789,14.794926 z m -12.69531,41.06445 q 8.88671,-12.64648 16.21093,-31.98242 l 6.39649,4.6875 q -7.37305,19.92187 -16.3086,33.00781 z"></path>
</svg>
