<svg xmlns="http://www.w3.org/2000/svg" id="svg34" viewBox="0,0,168.1,32.765" height="32.765" width="168.1" version="1.1">
  <defs id="defs34"></defs>
  
  <g id="g34" transform="translate(-240,-180)">
    <g id="g33" style="mix-blend-mode: normal" stroke-dashoffset="0" stroke-dasharray="" stroke-miterlimit="10" stroke-linejoin="miter" stroke-linecap="butt" stroke="none" data-paper-data="{&quot;isPaintingLayer&quot;:true}">
      <path id="path1" stroke-width="0" fill-rule="evenodd" fill="#000000" fill-opacity="0.7" d="M248,180h152.1c4.432,0 8,3.568 8,8v16.765c0,4.432 -3.568,8 -8,8h-152.1c-4.432,0 -8,-3.568 -8,-8v-16.765c0,-4.432 3.568,-8 8,-8z"></path>
      <g transform="translate(240,180)" aria-label="その地域の予想震度とリアルタイム震度色
のうち大きい方を表示します" style="font-weight:bold;font-size:8px;line-height:1.35;font-family:'BIZ UDPGothic';-inkscape-font-specification:'BIZ UDPGothic Bold';fill:#ffffff;stroke-width:3.00094" id="text34">
        <path id="path35" d="M 8.4176927,7.6020765 H 12.75363 l 0.515625,0.609375 -0.296875,0.1640625 q -1.875,1.0390625 -2.921875,1.644531 2.453125,-0.097656 4.183594,-0.1992185 l 0.06641,0.8242185 -1.296875,0.05469 q -0.960937,0.04297 -1.769531,0.441406 -1.128906,0.558594 -1.128906,1.40625 0,0.664063 0.773437,0.910156 0.609375,0.191407 1.964844,0.195313 v 0.847656 q -1.722656,-0.0039 -2.492188,-0.335937 -1.1093746,-0.472657 -1.1093746,-1.527344 0,-1.304688 1.7617186,-1.921875 -0.929687,0.03125 -3.2773436,0.160156 l -0.2851562,0.01563 -0.054687,-0.816406 q 0.6640625,0 1.34375,-0.02344 Q 10.331755,9.0591078 11.714568,8.3559828 H 8.4176927 Z M 19.070036,13.543483 q 2.292969,-0.578125 2.292969,-2.628906 0,-0.894532 -0.460937,-1.539063 -0.515625,-0.7265625 -1.570313,-0.9335937 -0.230469,1.8124997 -0.628906,2.9687497 -0.273438,0.808594 -0.679688,1.527344 -0.585937,1.023438 -1.332031,1.023438 -0.554687,0 -0.988281,-0.5 -0.277344,-0.316407 -0.449219,-0.777344 -0.226562,-0.597656 -0.226562,-1.285156 0,-1.113282 0.613281,-2.0507817 0.621094,-0.9570313 1.613281,-1.390625 0.722656,-0.3164063 1.585938,-0.3164063 1.347656,0 2.289062,0.7226563 1.15625,0.8867187 1.15625,2.5117187 0,2.722656 -2.753906,3.453125 z M 18.484099,8.4106703 q -0.691406,0.078125 -1.15625,0.3710937 -0.296875,0.1914063 -0.589844,0.5078125 -0.8125,0.8984375 -0.8125,2.0820315 0,0.863281 0.34375,1.351562 0.210938,0.300782 0.417969,0.300782 0.28125,0 0.632812,-0.621094 0.859375,-1.511719 1.164063,-3.9921877 z m 8.285156,1.8828127 v 3.09375 q 0,0.300781 0.257813,0.363281 0.265625,0.06641 1.214843,0.06641 0.925782,0 1.222657,-0.09375 0.167968,-0.05469 0.21875,-0.304687 0.06641,-0.351563 0.07031,-0.832031 l 0.816406,0.230468 q -0.0625,1.152344 -0.316406,1.472657 -0.167969,0.210937 -0.507812,0.25 -0.535157,0.05859 -1.816407,0.05859 -0.992187,0 -1.300781,-0.05469 -0.464844,-0.07813 -0.589844,-0.410156 -0.0625,-0.175782 -0.0625,-0.46875 V 10.56692 L 25.230193,10.824733 25.046599,10.06692 25.976286,9.7466078 V 7.641139 h 0.792969 V 9.4731703 L 27.609099,9.188014 V 7.1294203 h 0.785156 v 1.7851562 l 1.308594,-0.4492187 0.410156,0.25 v 2.9257812 q 0,0.304688 -0.144531,0.453125 -0.164063,0.164063 -0.550781,0.164063 -0.316407,0 -0.671875,-0.05469 l -0.128907,-0.746094 q 0.230469,0.05859 0.46875,0.05859 0.171875,0 0.210938,-0.07031 0.03906,-0.05859 0.03906,-0.195313 V 9.4028578 l -0.941406,0.328125 V 12.891139 H 27.609099 V 10.000514 Z M 23.898161,9.016139 V 7.1294203 h 0.839844 V 9.016139 h 0.757813 v 0.7929688 h -0.757813 v 2.4843752 q 0.410156,-0.140625 0.8125,-0.292969 l 0.07422,0.753906 q -1.265625,0.578125 -2.597656,0.96875 L 22.75363,12.891139 q 0.601563,-0.15625 1.054688,-0.296875 0.05469,-0.01953 0.08984,-0.02734 V 9.8091078 H 22.905974 V 9.016139 Z M 37.538786,8.4966078 q -0.01953,-0.039063 -0.03516,-0.078125 -0.226562,-0.5117188 -0.636719,-1 l 0.648438,-0.3046875 q 0.433594,0.484375 0.703125,1.0546875 l -0.625,0.328125 h 0.824219 v 0.71875 h -1.804688 l 0.0078,0.15625 q 0.05859,1.2343752 0.238281,2.1328122 0.324219,-0.710937 0.585937,-1.582031 l 0.726563,0.3125 q -0.464844,1.320313 -1.035156,2.308594 0.164062,0.488281 0.367187,0.855469 0.07813,0.140625 0.117188,0.140625 0.04297,0 0.128906,-0.234375 0.09766,-0.277344 0.15625,-0.953125 l 0.648437,0.457031 q -0.128906,1.007812 -0.328125,1.464844 -0.175781,0.398437 -0.441406,0.398437 -0.261719,0 -0.609375,-0.390625 -0.335937,-0.378906 -0.589844,-0.925781 -0.667968,0.839844 -1.527343,1.4375 l -0.574219,-0.589844 q 0.746094,-0.449219 1.308594,-1.054687 -0.957032,0.375 -2.523438,0.707031 L 33.011443,13.12942 q 1.628906,-0.269531 2.816406,-0.632812 l 0.02734,0.578125 Q 36.06613,12.840358 36.277068,12.531764 35.948943,11.395045 35.827849,9.2153578 H 33.261443 V 9.7700453 H 32.62863 v 2.5703127 q 0.359375,-0.148438 0.65625,-0.28125 l 0.08594,0.765625 q -1.160157,0.617187 -2.316407,1 l -0.28125,-0.824219 q 0.441407,-0.125 1.039063,-0.339844 V 9.7700453 H 30.894255 V 8.9927015 h 0.917969 V 7.1137953 h 0.816406 v 1.8789062 h 0.558594 V 8.4966078 h 2.605469 l -0.01563,-0.2734375 q -0.01953,-0.3710938 -0.03906,-1.09375 h 0.800781 q 0.02344,1.015625 0.04297,1.3671875 z M 35.644255,9.891139 v 2.359375 H 33.558318 V 9.891139 Z m -1.421875,0.632813 v 1.101562 h 0.773438 v -1.101562 z m 8.847656,3.019531 q 2.292969,-0.578125 2.292969,-2.628906 0,-0.894532 -0.460937,-1.539063 -0.515625,-0.7265625 -1.570313,-0.9335937 -0.230469,1.8124997 -0.628906,2.9687497 -0.273438,0.808594 -0.679688,1.527344 -0.585937,1.023438 -1.332031,1.023438 -0.554687,0 -0.988281,-0.5 -0.277344,-0.316407 -0.449219,-0.777344 -0.226562,-0.597656 -0.226562,-1.285156 0,-1.113282 0.613281,-2.0507817 0.621094,-0.9570313 1.613281,-1.390625 0.722656,-0.3164063 1.585938,-0.3164063 1.347656,0 2.289062,0.7226563 1.15625,0.8867187 1.15625,2.5117187 0,2.722656 -2.753906,3.453125 z M 42.484099,8.4106703 q -0.691406,0.078125 -1.15625,0.3710937 -0.296875,0.1914063 -0.589844,0.5078125 -0.8125,0.8984375 -0.8125,2.0820315 0,0.863281 0.34375,1.351562 0.210938,0.300782 0.417969,0.300782 0.28125,0 0.632812,-0.621094 0.859375,-1.511719 1.164063,-3.9921877 z m 9.019531,0.9257812 q 0.273438,0.140625 0.628906,0.3359375 l -0.496093,0.402344 h 2.351562 l 0.441406,0.441406 q -0.878906,1.324219 -1.753906,2.175781 l -0.792969,-0.464843 q 0.769532,-0.703125 1.234375,-1.398438 h -1.945312 v 3.0625 q 0,0.53125 -0.261719,0.679688 -0.175781,0.101562 -0.65625,0.101562 -0.628906,0 -1.386719,-0.07813 L 48.675505,13.72317 q 0.730469,0.117188 1.296875,0.117188 0.214844,0 0.265625,-0.07031 0.03906,-0.05859 0.03906,-0.214843 V 10.828639 H 47.00363 v -0.753906 h 4.234375 Q 49.917693,9.3169203 48.59738,8.7934828 l 0.632813,-0.5039063 q 0.886718,0.3554688 1.566406,0.6914063 0.601562,-0.4101563 1.054687,-0.8046875 H 47.675505 V 7.4341078 h 5.3125 l 0.480469,0.46875 Q 52.445036,8.7270765 51.50363,9.3364515 Z m 4.933594,0.4609375 q -0.507813,0.925781 -1.175781,1.515625 l -0.449219,-0.726562 q 0.875,-0.664063 1.476562,-1.7929692 h -1.292968 v -0.71875 h 1.441406 V 7.1294203 h 0.839844 v 0.9453125 h 1.128906 v 0.71875 h -1.128906 v 0.4765625 q 0.695312,0.3984375 1.238281,0.8437497 l -0.472656,0.6875 q -0.371094,-0.414062 -0.765625,-0.738281 v 1.738281 h -0.839844 z m 2.398437,1.875 q 0.5,0.476563 0.984375,1.144531 l -0.695312,0.496094 Q 58.585661,12.480983 58.081755,12.016139 L 58.636443,11.62942 V 7.4106703 h 3.335937 v 4.2617187 z m 0.589844,-3.6210937 v 0.5976562 h 1.738281 V 8.0512953 Z m 0,1.1992187 v 0.5898438 h 1.738281 V 9.250514 Z m 0,1.183594 v 0.597656 h 1.738281 v -0.597656 z m -4.511719,3.632812 q 0.449219,-0.734375 0.699219,-1.800781 l 0.8125,0.230469 q -0.21875,1.253906 -0.75,2.097656 z m 2.136719,-1.792968 h 0.855469 v 1.246093 q 0,0.242188 0.117187,0.289063 0.148438,0.05469 0.820313,0.05469 0.640625,0 0.855469,-0.04297 0.15625,-0.03516 0.199218,-0.179688 0.05859,-0.195312 0.07813,-0.710937 l 0.863282,0.199218 q -0.01563,0.582032 -0.08594,0.832032 -0.09766,0.355468 -0.289062,0.484375 -0.164063,0.113281 -0.472657,0.132812 -0.640625,0.03906 -1.316406,0.03906 -1.136719,0 -1.386719,-0.132813 -0.238281,-0.128906 -0.238281,-0.546875 z m 4.761719,2.09375 q -0.472656,-1.140625 -1.050781,-1.933594 l 0.714843,-0.425781 q 0.644532,0.859375 1.101563,1.855468 z M 66.234099,8.1841078 V 7.8481703 H 63.792693 V 7.2895765 h 5.765625 V 7.8481703 H 67.06613 v 0.3359375 h 3.234375 V 9.5864515 H 69.452849 V 8.688014 H 67.06613 v 1.519531 H 66.234099 V 8.688014 h -2.34375 V 9.5864515 H 63.050505 V 8.1841078 Z m 2.765625,5.5429692 q 0.597656,0.226562 1.492187,0.359375 L 70.03488,14.750514 Q 68.780974,14.53567 67.976286,14.012233 67.175505,13.488795 66.730193,12.711452 h -0.863282 v 1.203125 q 0.863282,-0.121094 1.601563,-0.257813 l 0.05469,0.582031 q -1.375,0.328125 -3.144531,0.570313 l -0.230469,-0.6875 q 0.613282,-0.06641 0.839844,-0.09375 l 0.04687,-0.0078 v -1.308593 h -0.855469 q -0.05469,0.6875 -0.179687,1.097656 -0.148438,0.492187 -0.476563,0.917969 l -0.695312,-0.574219 q 0.382812,-0.496094 0.476562,-1.160156 0.05078,-0.359375 0.05078,-0.894532 v -1.65625 h 6.742187 v 0.519532 h -5.902344 v 1.199218 h 6.238282 v 0.550782 h -0.886719 l 0.496094,0.328125 q -0.441407,0.367187 -1.042969,0.6875 z m -0.609375,-0.300782 q 0.5625,-0.382812 0.894531,-0.714843 h -1.707031 q 0.335937,0.429687 0.8125,0.714843 z m -4.15625,-4.4492185 h 1.664062 v 0.4414063 h -1.664062 z m 0,0.71875 h 1.664062 v 0.4492185 h -1.664062 z m 3.167969,-0.71875 h 1.714843 v 0.4414063 h -1.714843 z m 0,0.71875 h 1.714843 V 10.145045 H 67.402068 Z M 64.65988,11.289577 h 4.863281 v 0.511718 H 64.65988 Z m 10.625,-3.4570317 h 3.0625 v 0.65625 h -1.734375 v 0.6484375 h 1.625 v 0.6328125 h -1.625 V 10.934108 H 73.468474 V 9.7700453 h -1.28125 v 0.7265627 q 0,1.769531 -0.1875,2.796875 -0.144531,0.78125 -0.46875,1.425781 l -0.710938,-0.5625 q 0.296875,-0.644531 0.40625,-1.574219 0.09766,-0.816406 0.09766,-2.085937 V 7.8325453 h 3.089843 v -0.703125 h 0.871094 z m -3.097656,0.65625 v 0.6484375 h 1.28125 V 8.4887953 Z m 2.113281,0 v 0.6484375 h 1.480469 V 8.4887953 Z m 0,1.28125 v 0.6054687 h 1.480469 V 9.7700453 Z m 0.90625,4.1015627 q -1.128906,0.585937 -2.867187,0.890625 l -0.40625,-0.71875 Q 73.56613,13.84817 74.491911,13.445827 73.698943,12.871608 73.136443,12.082545 H 72.59738 v -0.679687 h 4.574219 l 0.410156,0.34375 q -0.582031,0.894531 -1.660156,1.683594 0.925781,0.371093 2.523437,0.546875 l -0.457031,0.738281 q -1.53125,-0.207031 -2.78125,-0.84375 z m -1.160156,-1.789063 q 0.472656,0.554688 1.148437,0.976563 0.761719,-0.492188 1.175782,-0.976563 z m 11.527344,2.078125 q -1.15625,0.121094 -2.390625,0.121094 -1.820313,0 -2.550782,-0.230469 -0.53125,-0.167968 -0.839843,-0.5 -0.355469,-0.386718 -0.355469,-0.941406 0,-0.730469 0.5,-1.3125 0.425781,-0.496094 1.371094,-0.984375 Q 80.769255,9.1020765 80.331755,7.5552015 L 81.202849,7.328639 q 0.40625,1.484375 0.859375,2.625 1.503906,-0.6914062 3.191406,-1.1523437 l 0.261719,0.7929687 q -1.851563,0.46875 -3.679688,1.332031 -0.566406,0.269532 -0.804687,0.441407 -0.699219,0.511718 -0.699219,1.136718 0,0.542969 0.648438,0.757813 0.539062,0.175781 1.929687,0.175781 1.285156,0 2.574219,-0.148437 z m 1.660156,-6.7031247 h 0.910156 v 4.2734377 h -0.910156 z m 4.011719,-0.082031 h 0.910156 v 2.792969 q 0,1.472656 -0.238281,2.191406 -0.199219,0.613281 -0.542969,0.976563 -0.714844,0.769531 -2.296875,1.136718 L 88.62863,13.672389 q 1.730469,-0.351562 2.21875,-1.167969 0.308594,-0.519531 0.371094,-1.3125 0.02734,-0.367187 0.02734,-1.015625 z m 2.292968,0.5546875 h 6.121094 l 0.50391,0.4257813 Q 99.945036,9.172389 99.593474,9.719264 98.933318,10.75442 97.616911,11.266139 l -0.492187,-0.671875 q 0.910156,-0.273437 1.511719,-0.9804687 0.355468,-0.4179688 0.496093,-0.8828125 h -5.59375 z m 2.503907,1.6875 h 0.894531 v 0.6718755 q 0,1.511718 -0.335938,2.335937 -0.425781,1.046875 -1.65625,1.703125 l -0.644531,-0.679687 q 0.847656,-0.402344 1.238281,-0.960938 0.300782,-0.433594 0.394532,-0.917969 0.109375,-0.554687 0.109375,-1.488281 z m 6.406247,-1.8789062 h 0.87891 v 1.421875 q 0,2.0429687 -0.30469,2.9843747 -0.40234,1.246094 -1.6875,2.078125 l -0.59765,-0.695312 q 0.89062,-0.625 1.2539,-1.296875 0.30469,-0.566406 0.40235,-1.519531 0.0547,-0.539063 0.0547,-1.5351567 z m 2,-0.2265625 h 0.87891 v 5.5507812 q 0.77734,-0.402344 1.36328,-1.144531 0.64063,-0.8125 0.95703,-1.9257815 l 0.6875,0.6640625 q -0.39062,1.160156 -1.07031,1.980469 -0.85547,1.035156 -2.24219,1.628906 l -0.57422,-0.496094 z m 10.24219,0.6640625 0.55859,0.4570312 q -0.54687,2.5000005 -1.77343,3.8710935 -0.67969,0.757813 -1.75782,1.328125 -0.76562,0.402344 -1.64453,0.640625 l -0.45312,-0.769531 q 2.00781,-0.523437 3.11719,-1.671875 -0.91407,-0.820312 -2.01563,-1.453125 l 0.51172,-0.6328125 q 1.07422,0.5585935 2.04297,1.3750005 0.76172,-1.21875 0.95703,-2.3593755 h -2.75 q -0.94531,1.4726565 -2.22656,2.2539065 l -0.57422,-0.621094 q 1.23828,-0.7460937 2.03515,-1.9726562 0.41016,-0.625 0.63672,-1.3476563 l 0.84766,0.2070313 q -0.12891,0.3515625 -0.28906,0.6953125 z m 4.30859,6.2070317 v -4.007813 q -1.1875,0.796875 -2.71093,1.34375 l -0.47266,-0.792969 q 1.73047,-0.582031 3.03516,-1.4999997 1.28125,-0.9023438 2.28125,-2.0664063 l 0.7539,0.4726563 q -0.88672,1.0195312 -1.97656,1.8710937 v 4.679688 z m 3.39454,-1.34375 q 0.26953,-0.0039 0.74218,-0.03906 1.11328,-2.5 2.05078,-5.5039062 l 0.89454,0.234375 q -0.92188,2.8828122 -1.96875,5.2070312 1.98437,-0.144531 3.51953,-0.351562 -0.57813,-1.019532 -1.17578,-1.882813 l 0.76953,-0.488281 q 1.23047,1.695312 2.16015,3.59375 l -0.8789,0.457031 q -0.21485,-0.453125 -0.47266,-0.945312 -2.28125,0.382812 -5.44922,0.679687 z M 133.11301,8.1841078 V 7.8481703 H 130.6716 V 7.2895765 h 5.76562 v 0.5585938 h -2.49218 v 0.3359375 h 3.23437 v 1.4023437 h -0.84765 V 8.688014 h -2.38672 v 1.519531 h -0.83203 V 8.688014 h -2.34375 v 0.8984375 h -0.83985 V 8.1841078 Z m 2.76562,5.5429692 q 0.59766,0.226562 1.49219,0.359375 l -0.45703,0.664062 q -1.25391,-0.214844 -2.0586,-0.738281 -0.80078,-0.523438 -1.24609,-1.300781 h -0.86328 v 1.203125 q 0.86328,-0.121094 1.60156,-0.257813 l 0.0547,0.582031 q -1.375,0.328125 -3.14453,0.570313 l -0.23047,-0.6875 q 0.61328,-0.06641 0.83984,-0.09375 l 0.0469,-0.0078 v -1.308593 h -0.85547 q -0.0547,0.6875 -0.17969,1.097656 -0.14844,0.492187 -0.47656,0.917969 l -0.69531,-0.574219 q 0.38281,-0.496094 0.47656,-1.160156 0.0508,-0.359375 0.0508,-0.894532 v -1.65625 h 6.74219 v 0.519532 h -5.90235 v 1.199218 h 6.23828 v 0.550782 h -0.88671 l 0.49609,0.328125 q -0.44141,0.367187 -1.04297,0.6875 z m -0.60937,-0.300782 q 0.5625,-0.382812 0.89453,-0.714843 h -1.70703 q 0.33593,0.429687 0.8125,0.714843 z m -4.15625,-4.4492185 h 1.66406 v 0.4414063 h -1.66406 z m 0,0.71875 h 1.66406 v 0.4492185 h -1.66406 z m 3.16796,-0.71875 h 1.71485 v 0.4414063 h -1.71485 z m 0,0.71875 h 1.71485 v 0.4492185 h -1.71485 z m -2.74218,1.5937505 h 4.86328 v 0.511718 h -4.86328 z m 10.625,-3.4570317 h 3.0625 v 0.65625 h -1.73438 v 0.6484375 h 1.625 v 0.6328125 h -1.625 v 1.1640627 h -3.14453 V 9.7700453 h -1.28125 v 0.7265627 q 0,1.769531 -0.1875,2.796875 -0.14453,0.78125 -0.46875,1.425781 l -0.71094,-0.5625 q 0.29688,-0.644531 0.40625,-1.574219 0.0977,-0.816406 0.0977,-2.085937 V 7.8325453 h 3.08984 v -0.703125 h 0.8711 z m -3.09766,0.65625 v 0.6484375 h 1.28125 V 8.4887953 Z m 2.11328,0 v 0.6484375 h 1.48047 V 8.4887953 Z m 0,1.28125 v 0.6054687 h 1.48047 V 9.7700453 Z m 0.90625,4.1015627 q -1.1289,0.585937 -2.86719,0.890625 l -0.40625,-0.71875 q 1.63282,-0.195313 2.5586,-0.597656 -0.79297,-0.574219 -1.35547,-1.363282 h -0.53906 v -0.679687 h 4.57422 l 0.41015,0.34375 q -0.58203,0.894531 -1.66015,1.683594 0.92578,0.371093 2.52343,0.546875 l -0.45703,0.738281 q -1.53125,-0.207031 -2.78125,-0.84375 z m -1.16015,-1.789063 q 0.47265,0.554688 1.14843,0.976563 0.76172,-0.492188 1.17578,-0.976563 z m 6.68359,-0.234375 v 1.417969 q 0,0.308594 0.22656,0.371094 0.33594,0.09375 2.22266,0.09375 1.67578,0 2.08594,-0.09766 0.19531,-0.04687 0.25,-0.21875 0.0664,-0.195313 0.10546,-0.910157 l 0.86329,0.265625 q -0.043,0.769532 -0.125,1.054688 -0.10547,0.371094 -0.39063,0.503906 -0.20312,0.09375 -0.5625,0.117188 -0.92578,0.06641 -2.41797,0.06641 -2.08984,0 -2.48437,-0.07422 -0.44532,-0.08203 -0.57422,-0.390625 -0.0625,-0.15625 -0.0625,-0.390625 V 9.6450453 l -0.0391,0.03125 q -0.17969,0.1289062 -0.42579,0.2851562 L 145.74582,9.313014 q 1.39453,-0.765625 2.35937,-2.1835937 l 0.54688,0.375 h 2.22265 l 0.41407,0.4296875 q -0.51563,0.7304687 -1.07813,1.3164062 h 2.50391 v 2.597656 z m 0,-0.695312 h 1.67969 V 9.969264 h -1.67969 z m 2.51953,-1.183594 v 1.183594 h 1.71484 V 9.969264 Z m -0.90625,-0.71875 q 0.50391,-0.5273437 0.85938,-1.0351562 h -1.80469 q -0.4336,0.53125 -1.03125,1.0351562 z"></path>
        <path id="path36" d="m 11.390349,24.343483 q 2.292969,-0.578125 2.292969,-2.628906 0,-0.894532 -0.460938,-1.539063 -0.515625,-0.726562 -1.570312,-0.933594 -0.230469,1.8125 -0.628907,2.96875 -0.273437,0.808594 -0.679687,1.527344 -0.5859376,1.023438 -1.3320313,1.023438 -0.5546875,0 -0.9882813,-0.5 -0.2773437,-0.316407 -0.4492187,-0.777344 -0.2265625,-0.597656 -0.2265625,-1.285156 0,-1.113282 0.6132812,-2.050782 0.6210938,-0.957031 1.6132813,-1.390625 0.7226563,-0.316406 1.5859373,-0.316406 1.347656,0 2.289063,0.722656 1.15625,0.886719 1.15625,2.511719 0,2.722656 -2.753907,3.453125 z M 10.804411,19.21067 q -0.691406,0.07813 -1.1562496,0.371094 -0.296875,0.191406 -0.5898437,0.507813 -0.8125,0.898437 -0.8125,2.082031 0,0.863281 0.34375,1.351562 0.2109375,0.300782 0.4179687,0.300782 0.28125,0 0.6328125,-0.621094 0.8593751,-1.511719 1.1640621,-3.992188 z m 9.367188,0.351563 q -1.40625,-0.429688 -3.273438,-0.695313 l 0.320313,-0.746093 q 1.964844,0.277343 3.273437,0.710937 z m -4.519531,1.054687 q 2.371093,-0.519531 3.4375,-0.519531 1.046875,0 1.625,0.511719 0.570312,0.507812 0.570312,1.4375 0,1.78125 -1.265625,2.523437 -0.871094,0.515625 -2.6875,0.726563 L 16.97238,24.52317 q 1.664063,-0.191406 2.472656,-0.640625 0.902344,-0.496093 0.902344,-1.808593 0,-0.59375 -0.257812,-0.878907 -0.296875,-0.324218 -0.984375,-0.324218 -0.828125,0 -3.195313,0.5625 z m 7.121093,-1.289062 h 1.832032 q 0.140625,-0.566406 0.273437,-1.230469 l 0.847656,0.109375 q -0.125,0.5625 -0.265625,1.121094 h 4 v 0.777344 H 25.25363 q -0.304687,1.074218 -0.617187,1.800781 1.007812,-0.601563 2.375,-0.601563 0.847656,0 1.445312,0.324219 0.867188,0.476563 0.867188,1.417969 0,1.316406 -1.566407,1.8125 -0.984375,0.3125 -2.894531,0.367187 l -0.289062,-0.777343 q 1.832031,-0.03516 2.699218,-0.300782 1.113282,-0.339843 1.113282,-1.132812 0,-0.550781 -0.464844,-0.808594 -0.351563,-0.191406 -0.925781,-0.191406 -0.660157,0 -1.410157,0.238281 -0.691406,0.21875 -1.332031,0.621094 l -0.6875,-0.457031 q 0.460938,-1.117188 0.824219,-2.3125 h -1.617188 z m 11.96875,1.410156 q 0.269532,0.914063 1.023438,1.945313 0.917969,1.257812 2.257812,1.992187 l -0.558593,0.804688 q -1.417969,-0.835938 -2.367188,-2.214844 -0.511719,-0.75 -0.820312,-1.527344 -0.308594,1.046875 -0.957032,1.902344 -0.953125,1.265625 -2.355468,1.867187 l -0.550782,-0.714843 q 1.46875,-0.613282 2.371094,-1.890625 0.757813,-1.078125 0.898438,-2.164063 H 30.56613 v -0.847656 h 3.152344 v -1.882813 h 0.902344 v 1.882813 h 3.21875 v 0.847656 z m 4.25,-1.730469 h 2.367188 q -0.128906,-0.363281 -0.277344,-0.863281 l 0.863281,-0.04687 q 0.152344,0.519531 0.296875,0.910156 h 2.71875 v 0.753907 h -2.449218 q 0.222656,0.554687 0.503906,1.128906 h 2.472656 v 0.753906 H 43.40988 q 0.410156,0.714844 0.824219,1.28125 l -0.875,0.253906 q -0.453125,-0.644531 -0.910156,-1.535156 h -3.59375 v -0.753906 h 3.234375 q -0.226563,-0.480469 -0.464844,-1.128906 h -2.632813 z m 5.207032,6.121094 q -0.75,0.05469 -1.394532,0.05469 -1.691406,0 -2.449218,-0.316407 -1.050782,-0.441406 -1.050782,-1.394531 0,-0.535156 0.292969,-0.863281 l 0.699219,0.382812 q -0.121094,0.246094 -0.121094,0.488282 0,0.492187 0.671875,0.710937 0.597656,0.195313 1.828125,0.195313 0.617188,0 1.453125,-0.06641 z m 6.03125,-2.097656 q -0.722657,2.125 -1.621094,2.125 -0.640625,0 -1.097656,-0.898438 -0.351563,-0.695312 -0.484375,-1.53125 -0.160157,-1.015625 -0.160157,-2.609375 0,-0.691406 0.05078,-1.484375 l 0.917968,0.07031 q -0.05078,0.792969 -0.05078,1.507812 0,2.507813 0.46875,3.496094 0.191406,0.40625 0.359375,0.40625 0.109375,0 0.273438,-0.25 0.335937,-0.507812 0.648437,-1.398437 z m 2.472656,0.929687 Q 52.50363,22.312233 52.214568,21.296608 51.863005,20.066139 51.398161,19.042702 l 0.832032,-0.203125 q 0.644531,1.277343 0.957031,2.460937 0.257812,0.960938 0.425781,2.445313 z m 5.289062,-3.925781 q -0.02734,0.652344 -0.07813,1.148438 h 3.148438 q -0.05859,2.710937 -0.304688,3.519531 -0.125,0.40625 -0.464843,0.5625 -0.265625,0.121094 -0.777344,0.121094 -0.539063,0 -1.222656,-0.08203 l -0.152344,-0.878906 q 0.917969,0.128906 1.292969,0.128906 0.316406,0 0.402343,-0.179687 0.207032,-0.4375 0.289063,-2.414063 h -2.324219 q -0.128906,0.703125 -0.363281,1.21875 -0.652344,1.425782 -2.179688,2.261719 l -0.617187,-0.6875 q 1.53125,-0.796875 2.023437,-2.089844 0.328125,-0.863281 0.425782,-2.628906 H 54.50363 v -0.800781 h 3.191406 V 17.92942 h 0.902344 v 1.304688 h 3.296875 v 0.800781 z m 5.085938,-1.007812 h 2.105469 q 0.347656,-0.554688 0.527343,-0.894532 l 0.871094,0.125 q -0.117187,0.210938 -0.414062,0.6875 l -0.05078,0.08203 h 2.753907 v 0.769531 H 65.59738 q -0.511719,0.703125 -0.976562,1.21875 0.738281,-0.441406 1.347656,-0.441406 0.945312,0 1.238281,0.949218 1,-0.332031 2.039063,-0.65625 l 0.335937,0.757813 -0.136719,0.03906 -0.386718,0.101563 q -1.09375,0.296875 -1.75,0.507812 0.04687,0.507813 0.06641,1.3125 l -0.855469,0.04687 q -0.0039,-0.464843 -0.01563,-1.007812 v -0.07813 q -1.796875,0.613281 -1.796875,1.234375 0,0.320312 0.460938,0.4375 0.445312,0.113281 1.59375,0.113281 1.058593,0 2.222656,-0.121094 l 0.09375,0.832032 q -1.128906,0.08594 -2.339844,0.08594 -1.492187,0 -2.121094,-0.226562 -0.777343,-0.28125 -0.777343,-1.011719 0,-0.617188 0.550781,-1.089844 0.570312,-0.488281 2.007812,-1.007812 -0.07813,-0.300782 -0.207031,-0.421875 -0.144531,-0.136719 -0.382812,-0.136719 -0.386719,0 -0.972657,0.292969 -0.722656,0.359375 -1.550781,1.082031 l -0.519531,-0.59375 q 1.214844,-1.128906 1.902344,-2.21875 h -1.589844 z m 12.269531,4.863281 0.05469,0.699219 q -1.695313,0.597656 -3.769532,0.984375 l -0.289062,-0.78125 q 0.359375,-0.05469 1.015625,-0.175782 v -1.429687 q -0.675781,0.34375 -1.609375,0.652344 l -0.445313,-0.695313 q 1.878907,-0.507812 2.867188,-1.296875 h -2.789063 v -0.679687 h 3.347657 v -0.589844 h -2.53125 v -0.65625 h 2.53125 v -0.550781 h -2.929688 v -0.671875 h 2.929688 V 17.92942 h 0.855468 v 0.769532 h 3.015625 v 0.671875 h -3.015625 v 0.550781 h 2.617188 v 0.65625 h -2.617188 v 0.589844 h 3.433594 v 0.679687 h -0.933594 l 0.578125,0.398438 q -0.535156,0.519531 -1.5,1.136718 l -0.08984,0.05859 q 0.734375,0.671875 1.992187,1.109375 l -0.527344,0.792969 Q 76.175505,24.765358 75.34738,23.890358 Z m -1.183594,-2.03125 q -0.390625,0.457031 -0.941406,0.820312 v 1.753907 q 0.964844,-0.214844 1.9375,-0.5 l 0.179688,-0.05078 q -0.800782,-0.886718 -1.175782,-2.023437 z m 1.425782,1.066406 q 0.695312,-0.496094 1.21875,-1.078125 h -1.847657 q 0.25,0.597656 0.628907,1.078125 z m 7.085937,-1.667969 v 3.464844 q 0,0.472656 -0.191406,0.644531 -0.179688,0.15625 -0.695313,0.15625 -0.585937,0 -1.113281,-0.07422 l -0.167969,-0.824219 q 0.546875,0.08984 1.046875,0.08984 0.167969,0 0.210938,-0.05859 0.03125,-0.05078 0.03125,-0.167969 v -3.230469 h -3.359375 v -0.777343 h 7.527344 v 0.777343 z m -3.300781,-2.894531 h 5.648437 v 0.769531 h -5.648437 z m -0.984375,5.992188 q 0.84375,-0.882813 1.359375,-2.347657 l 0.808594,0.304688 q -0.597657,1.675781 -1.503907,2.632812 z m 6.703125,0.476562 q -0.808594,-1.710937 -1.40625,-2.503906 l 0.734375,-0.4375 q 0.859375,1.105469 1.464844,2.40625 z m 2.074219,-6.574219 h 0.921875 v 4.65625 q 0,1.472657 1.546875,1.472657 1.019531,0 1.671875,-0.941407 0.421875,-0.605468 0.757812,-1.875 l 0.792969,0.480469 q -0.398438,1.410156 -0.957031,2.109375 -0.878907,1.089844 -2.285157,1.089844 -1.46875,0 -2.070312,-0.90625 -0.378906,-0.566406 -0.378906,-1.460938 z m 9.632812,-0.144531 h 0.863281 v 0.984375 h 2.457034 v 0.742188 h -2.457034 v 0.929687 h 2.320313 v 0.734375 h -2.320313 v 1.207031 q 1.390625,0.46875 2.742184,1.410157 l -0.460934,0.742187 q -1.023437,-0.765625 -2.28125,-1.351562 -0.03125,0.667968 -0.257812,1.035156 -0.394531,0.636719 -1.554688,0.636719 -0.894531,0 -1.4375,-0.335938 -0.605468,-0.375 -0.605468,-1.015625 0,-0.765625 0.816406,-1.132812 0.546875,-0.242188 1.421875,-0.242188 0.34375,0 0.753906,0.05469 v -1.007813 h -2.769531 v -0.734375 h 2.769531 v -0.929687 h -2.9375 v -0.742188 h 2.9375 z m 0,5.125 q -0.464844,-0.09766 -0.890625,-0.09766 -0.519531,0 -0.84375,0.152344 -0.386719,0.183593 -0.386719,0.523437 0,0.285156 0.300782,0.460938 0.304687,0.179687 0.8125,0.179687 0.601562,0 0.828125,-0.320312 0.179687,-0.25 0.179687,-0.746094 z m 8.292965,-5.148437 h 0.87891 v 1.078125 h 2.30469 v 0.753906 h -2.30469 v 1.671875 q 0.13672,0.480469 0.13672,0.855469 0,1.390625 -0.61328,2.042968 -0.66797,0.714844 -2.01172,0.988282 l -0.44531,-0.664063 q 1.04297,-0.199219 1.54687,-0.5625 0.47266,-0.34375 0.63672,-0.933594 -0.41797,0.457032 -0.99609,0.457032 -0.64844,0 -1.05078,-0.367188 -0.47266,-0.433594 -0.47266,-1.257812 0,-0.433594 0.20703,-0.835938 0.13672,-0.257812 0.33594,-0.429687 0.46094,-0.390625 1.10547,-0.390625 0.41015,0 0.74218,0.195312 v -0.769531 h -3.85546 v -0.753906 h 3.85546 z m 0.0312,4.054687 v -0.144531 q 0,-0.25 -0.11718,-0.441406 -0.21875,-0.359375 -0.63282,-0.359375 -0.21093,0 -0.39453,0.117187 -0.42968,0.269531 -0.42968,0.828125 0,0.351563 0.15625,0.59375 0.21875,0.335938 0.64453,0.335938 0.38672,0 0.61328,-0.347657 0.16015,-0.246093 0.16015,-0.582031 z"></path>
      </g>
    </g>
  </g>
</svg>


