<svg xmlns="http://www.w3.org/2000/svg" id="svg1" version="1.1" height="200" width="1096">
  <defs id="defs1"></defs>
  <rect id="rect1" stroke="none" fill="none" height="200" width="1096" y="0" x="0"></rect>
  <path aria-label="陸奥湾" style="font-weight:bold;font-size:110px;font-family:'BIZ UDPGothic';fill:#ff0000" id="text1" d="m 64.345703,94.892578 q -1.503906,8.164062 -4.350586,12.836912 -4.56543,7.57324 -15.844726,11.38672 l -6.28418,-8.16406 q 5.961914,-1.50391 9.291992,-3.97461 5.532227,-4.08203 6.982422,-12.084962 H 38.510742 V 85.546875 H 65.366211 V 76.201172 H 42.270508 V 66.962891 H 65.366211 V 56.05957 H 76.591797 V 66.962891 H 101.1377 v 9.238281 H 76.591797 v 9.345703 h 29.379883 v 9.345703 H 86.152344 v 9.345702 q 0,1.98731 0.751953,2.36328 0.859375,0.42969 3.813476,0.42969 4.511719,0 5.209961,-1.77246 0.805664,-2.04102 0.913086,-6.713868 l 10.09766,2.524418 q -0.10743,9.45312 -3.16895,12.72949 -1.77246,1.82617 -5.048827,2.36328 -3.222656,0.4834 -8.647461,0.4834 -6.606445,0 -9.399414,-0.59082 -2.631836,-0.53711 -3.974609,-2.25586 v 11.11816 h 24.760741 v 9.13086 H 76.699219 v 12.56836 h 31.152341 v 10.09766 H 35.234375 V 146.61621 H 65.366211 V 134.04785 H 42.163086 v -9.13086 h 23.203125 v -12.08496 h 10.795898 q -0.59082,-1.45019 -0.59082,-3.33008 V 94.892578 Z m -33.461914,0.429688 q 7.680664,10.849614 7.680664,24.653324 0,7.25097 -1.772461,11.54785 -2.416992,5.74707 -10.473633,5.74707 -3.491211,0 -6.391601,-0.69824 l -2.631836,-10.52735 q 3.276367,0.64453 5.74707,0.64453 2.900391,0 3.598633,-2.30957 0.698242,-2.41699 0.698242,-7.68066 0,-11.49414 -7.089844,-20.732423 l 0.53711,-1.342774 Q 24.707031,83.881836 27.768555,70.239258 H 16.865234 V 160.47363 H 6.0693359 V 60.249023 H 34.267578 l 5.693359,4.404297 q -3.115234,15.415039 -9.077148,30.668946 z m 122.192381,4.458007 h -15.2539 v -8.164062 h 8.32519 q -2.14844,-4.726563 -6.01562,-10.205078 l 8.64746,-3.867188 q 3.11523,3.759766 6.71386,10.903321 l -7.25097,3.168945 h 11.22558 V 76.899414 h 10.20508 v 14.716797 h 10.47363 l -5.96191,-2.954102 q 2.90039,-4.458007 5.58594,-11.333007 l 9.93652,3.168945 q -3.75976,7.358398 -6.55273,11.118164 h 8.96972 v 8.164062 h -15.03906 q 7.73438,4.189457 14.93164,9.667967 l -6.60644,7.51953 q -6.82129,-6.76757 -15.73731,-13.10547 v 11.33301 h -10.20508 v -10.74218 q -6.875,9.13085 -17.29492,14.66308 l -6.23047,-7.46582 q 10.47364,-4.4043 17.13379,-11.870117 z m 21.32324,32.172847 q 12.13868,14.01856 42.05567,17.72461 l -7.03613,10.52735 q -17.72461,-3.27637 -28.84278,-10.09766 -8.91601,-5.4248 -15.03906,-13.58887 -5.53223,10.09766 -16.86524,15.73731 -10.20507,5.15625 -27.87597,8.05664 l -6.60645,-10.09766 q 19.76563,-1.9873 29.32617,-6.60644 8.70118,-4.13574 12.7295,-11.65528 h -43.50586 v -9.23828 h 45.86914 v -5.58593 h 11.97754 v 5.58593 h 46.6748 v 9.23828 z M 152.91504,65.405273 q 2.4707,-5.585937 3.49121,-10.473632 l 13.21289,1.879882 q -2.20215,4.780274 -4.56543,8.59375 h 41.41113 V 119.76074 H 195.02441 V 74.643555 H 134.97559 V 119.76074 H 123.53516 V 65.405273 Z m 150.06836,8.701172 v 20.786133 q 0,3.544922 -1.50391,5.209962 -1.77246,1.93359 -7.84179,1.93359 -5.80079,0 -9.50684,-0.64453 l -1.39649,-8.916014 q 4.24317,0.859375 7.14356,0.859375 1.55762,0 1.9873,-0.751953 0.32227,-0.644531 0.32227,-2.094727 V 74.106445 h -9.56055 q -0.42968,11.333008 -3.00781,17.402344 -2.84668,6.606445 -11.76269,12.084961 l -7.68067,-6.821289 q 8.05664,-4.189453 10.36621,-10.795899 1.39649,-4.135742 1.71875,-11.870117 h -21.21582 v -9.130859 h 30.56153 v -9.023438 h 11.8164 v 9.023438 h 33.73047 v 9.130859 z m 16.59668,30.454105 v 21.80664 h -53.0127 q -0.42968,2.9541 -1.02051,5.9082 h 58.65235 q -1.34277,14.77051 -3.70606,20.24902 -3.4375,7.94922 -16.11328,7.94922 -10.52734,0 -22.6123,-0.91308 l -1.98731,-9.77539 q 11.54785,1.23535 20.67871,1.23535 4.94141,0 6.49903,-1.12793 2.41699,-1.77246 3.75976,-9.23828 h -47.26562 q -0.59082,2.20215 -2.04102,6.60644 l -11.54785,-2.30957 q 4.08203,-12.24609 6.12305,-26.47949 h 51.83105 v -5.74707 h -55 v -8.16406 z M 240.57129,80.820312 q -5.96192,-8.271484 -15.25391,-16.381835 l 8.00293,-7.626954 q 8.43262,6.176758 15.84473,15.737305 z m -3.27637,27.714848 Q 229.02344,98.061523 221.23535,91.455078 l 8.05664,-7.788086 q 8.05664,6.176758 16.59668,15.952149 z M 223.4375,151.9873 q 9.45312,-14.71679 17.93945,-37.75878 l 8.8086,6.49902 q -7.03614,21.32324 -16.86524,39.85351 z m 95.71289,-51.50878 Q 312.11426,89.091797 304.37988,80.820312 l 8.16407,-5.263671 q 9.45312,8.59375 15.30761,18.798828 z m -75.1416,-6.445317 q 7.8418,-6.445312 12.89062,-17.080078 l 9.77539,3.652344 q -5.26367,11.977539 -14.55566,19.980471 z"></path>
</svg>
