<svg xmlns="http://www.w3.org/2000/svg" id="svg1" version="1.1" height="200" width="990">
  <defs id="defs1"></defs>
  <rect id="rect1" stroke="none" fill="none" height="200" width="990" y="0" x="0"></rect>
  <path aria-label="三重県中部" style="font-size:100px;font-family:'BIZ UDPGothic';fill:#ff0000" id="text1" d="M 11.083984,75.292969 H 88.916016 V 82.8125 H 11.083984 Z m 5.419922,32.031251 h 66.894531 v 7.32422 H 16.503906 Z M 4.0039062,142.38281 H 95.996094 V 150 H 4.0039062 Z M 145.80078,94.384766 v -6.78711 h -42.1875 v -6.103515 h 42.1875 v -6.884766 q -4.98047,0.341797 -7.4707,0.585937 -9.42383,0.732422 -21.5332,1.220704 l -3.22266,-5.908204 q 38.47656,-1.5625 64.30664,-5.810546 l 5.41992,5.615234 q -15.23437,2.539062 -26.12305,3.417969 l -3.71093,0.24414 v 7.519532 h 42.91992 v 6.103515 H 153.4668 v 6.78711 h 33.93554 V 128.22266 H 153.4668 v 7.56836 h 37.20703 v 6.00585 H 153.4668 v 7.91016 h 44.04297 v 6.10352 h -95.01954 v -6.10352 h 43.31055 v -7.91016 h -36.52344 v -6.00585 h 36.52344 v -7.56836 H 112.69531 V 94.384766 Z m 0,5.615234 H 120.3125 v 8.39844 h 25.48828 z m 7.66602,0 v 8.39844 h 26.2207 V 100 Z m -7.66602,13.91602 H 120.3125 v 8.6914 h 25.48828 z m 7.66602,0 v 8.6914 h 26.2207 v -8.6914 z M 282.86133,67.578125 V 114.4043 H 225.78125 V 67.578125 Z m -49.36524,6.005859 v 7.714844 h 41.55274 v -7.714844 z m 0,13.330078 v 7.763672 h 41.55274 v -7.763672 z m 0,13.476568 v 8.30078 h 41.55274 v -8.30078 z M 214.4043,122.2168 h 83.05664 v 6.49414 h -41.99219 v 30.81054 h -7.91016 V 128.71094 H 206.5918 V 74.267578 h 7.8125 z m -9.22852,29.6875 q 12.79297,-6.15235 23.0957,-19.28711 l 6.5918,3.66211 q -10.40039,13.62304 -24.07226,21.72851 z m 84.17969,4.10156 q -10.25391,-11.18164 -23.29102,-19.82422 l 6.00586,-4.49219 q 11.76758,7.37305 23.68164,18.79883 z M 345.70312,83.59375 V 64.501953 h 7.91016 V 83.59375 h 37.25586 v 49.70703 h -7.91016 v -6.98242 h -29.3457 v 33.20312 h -7.91016 v -33.20312 h -28.80859 v 7.51953 h -8.00781 V 83.59375 Z m -28.80859,7.324219 v 28.076171 h 28.80859 V 90.917969 Z m 66.06445,28.076171 V 90.917969 h -29.3457 v 28.076171 z m 51.02539,-42.382812 h 21.82618 v 6.787109 h -7.03125 q -2.05078,9.13086 -5.61524,18.701173 h 14.45313 v 6.88477 h -55.12696 v -6.88477 h 13.72071 l -0.0977,-0.48828 Q 414.0625,91.601562 411.71875,84.423828 l -0.3418,-1.025391 h -7.08008 v -6.787109 h 22.2168 V 64.501953 h 7.4707 z m -15.13671,6.787109 q 2.58789,7.958985 4.73632,18.701173 h 12.15821 q 2.92968,-8.105469 5.32226,-18.701173 z m 31.83593,35.888673 v 39.30664 h -7.32422 v -5.51758 h -25.97656 v 6.39649 h -7.56836 v -40.18555 z m -33.30078,6.68945 v 20.3125 h 25.97656 v -20.3125 z m 65.42969,-22.70508 q 12.8418,13.57422 12.8418,29.44336 0,5.56641 -2.00196,8.39844 -2.4414,3.27149 -8.49609,3.27149 -5.81055,0 -10.69336,-0.6836 l -1.61133,-7.61719 q 6.25,1.02539 10.15625,1.02539 3.71094,0 4.39453,-2.49023 0.29297,-1.07422 0.29297,-3.51562 0,-13.72071 -12.64648,-26.70899 5.85937,-12.695311 9.52148,-26.708983 h -15.42969 v 81.787113 h -7.37304 V 70.507812 h 27.49023 l 4.39453,3.808594 q -5.37109,17.382813 -10.83984,28.955074 z"></path>
</svg>
