<svg xmlns="http://www.w3.org/2000/svg" id="svg1" version="1.1" height="200" width="990">
  <defs id="defs1"></defs>
  <rect id="rect1" stroke="none" fill="none" height="200" width="990" y="0" x="0"></rect>
  <path aria-label="壱岐・対馬近海" style="font-size:100px;font-family:'BIZ UDPGothic';fill:#ff0000" id="text1" d="m 45.703125,74.21875 v -9.716797 h 7.8125 v 9.716797 h 42.822266 v 6.494141 H 53.515625 v 9.765625 h 36.71875 v 6.201171 H 11.71875 V 90.478516 H 45.703125 V 80.712891 H 3.7109375 V 74.21875 Z m 49.316406,31.39648 v 19.67774 H 87.109375 V 111.81641 H 12.841797 v 13.91601 H 4.9316406 v -20.11719 z m -65.625,24.65821 q 26.367188,-3.90625 45.117188,-10.59571 l 5.273437,5.90821 q -7.958984,2.73437 -16.699219,4.93164 -18.066406,4.44336 -32.8125,6.00586 -0.488281,0.0488 -0.878906,0.0977 v 9.08203 q 0,2.92969 2.050781,3.61329 3.027344,1.02539 20.654297,1.02539 19.677735,0 24.072266,-1.26953 2.783203,-0.83008 3.369141,-4.00391 0.634765,-3.71094 1.074218,-10.64453 l 7.666016,2.7832 q -0.244141,12.45117 -3.173828,15.82031 -2.34375,2.68555 -8.251953,3.36914 -8.691407,0.97657 -26.123047,0.97657 -20.556641,0 -24.902344,-1.80664 -4.443359,-1.9043 -4.443359,-8.54493 v -29.54101 h 8.007812 z M 171.875,102.00195 H 187.5 l 4.39453,3.90625 q -7.08008,18.99414 -17.28516,30.66407 9.375,8.6914 23.48633,15.13671 l -4.73633,7.17774 q -12.74414,-6.64063 -23.68164,-17.13867 -12.20703,11.57226 -27.34375,17.82226 l -4.88281,-6.39648 q 14.89258,-4.93164 27.39258,-16.65039 -10.79102,-13.03711 -16.06445,-27.63672 h -5.12696 v -6.88477 h 20.70313 V 86.279297 h -24.80469 v -6.982422 h 24.80469 V 64.501953 h 7.51953 v 14.794922 h 25.58594 v 6.982422 H 171.875 Z m -15.67383,6.88477 q 4.39453,11.86523 13.37891,22.50976 8.74023,-10.74218 12.89062,-22.50976 z m -30.61523,25.24414 h 7.08008 V 84.228516 h 6.68945 v 56.884764 h -27.58789 v 8.10547 h -6.88477 V 84.228516 h 6.68946 v 49.902344 h 7.1289 V 65.820312 h 6.88477 z m 99.51172,-31.15234 q 3.75976,0 6.49414,2.92968 2.4414,2.53907 2.4414,6.10352 0,2.53906 -1.41601,4.78516 -2.68555,4.19921 -7.66602,4.19921 -2.14844,0 -4.10156,-1.02539 -4.83399,-2.58789 -4.83399,-8.05664 0,-4.54101 3.8086,-7.27539 2.34375,-1.66015 5.27344,-1.66015 z m 54.88281,-19.091801 h 20.3125 v 5.126953 h 27.09961 V 64.501953 h 7.8125 v 24.511719 h 12.40234 v 7.177734 h -12.40234 v 53.906254 q 0,4.58984 -1.85547,6.64062 -1.85547,1.95313 -6.5918,1.95313 -7.1289,0 -14.35547,-0.78125 l -1.70898,-7.8125 q 8.74023,1.12304 13.7207,1.12304 2.00196,0 2.53906,-0.73242 0.43946,-0.63476 0.43946,-2.49023 V 96.191406 h -27.83203 v -5.224609 h -7.37305 q -1.17188,15.380863 -7.66602,32.470703 0.53711,0.73242 1.85547,2.49023 4.58985,5.90821 11.71875,15.9668 l -5.81054,5.71289 q -4.63868,-6.88476 -9.96094,-14.11133 l -1.41602,-1.95312 q -8.49609,16.74805 -22.94922,26.5625 l -5.17578,-5.81055 q 14.84375,-10.79101 22.85157,-27.7832 -10.74219,-13.91602 -18.16407,-21.82617 l 5.27344,-4.882816 q 7.61719,7.812496 16.21094,18.603516 4.10156,-11.2793 5.76172,-25.439453 h -31.34766 v -7.080078 h 19.0918 V 64.501953 h 7.51953 z m 32.22656,49.511721 q -5.0293,-14.30664 -11.62109,-25.39063 l 6.29883,-4.0039 q 7.17773,11.96289 11.91406,25.29296 z M 438.52539,69.482422 v 6.49414 h -33.00781 v 9.033204 h 28.90625 v 6.103515 h -28.90625 v 8.984379 h 28.90625 v 6.20117 h -28.90625 v 9.7168 h 39.40429 q -1.17187,27.97851 -3.71093,35.98632 -1.41602,4.34571 -4.63867,6.05469 -2.68555,1.36719 -7.91016,1.36719 -6.98242,0 -15.13672,-0.83008 l -1.51367,-7.27539 q 10.15625,1.02539 14.55078,1.02539 4.63867,0 5.85937,-1.61133 2.5879,-3.41797 4.19922,-27.73437 l 0.0488,-0.58594 H 364.01367 V 69.482422 Z m -66.69922,6.49414 v 9.033204 h 26.07422 v -9.033204 z m 0,15.136719 v 8.984379 h 26.07422 v -8.984379 z m 0,15.185549 v 9.7168 h 26.07422 v -9.7168 z m -19.53125,44.38476 q 6.98242,-9.22851 10.49805,-22.60742 l 7.17773,2.34375 q -3.66211,15.38086 -11.08398,25.29297 z m 28.71094,2.73438 q -0.58594,-12.10938 -2.58789,-22.60742 l 7.17773,-1.22071 q 2.44141,9.66797 3.51563,22.02149 z m 20.99609,-4.00391 q -2.88086,-11.96289 -6.29883,-20.01953 l 6.49415,-2.00195 q 4.29687,8.88672 7.17773,18.99414 z m 19.77539,-4.83398 q -4.3457,-10.30274 -9.17968,-16.79688 L 418.50586,125 q 5.51758,6.93359 9.91211,16.11328 z m 54.73633,-6.25 q 4.29688,4.44336 9.81445,7.22656 8.59375,4.3457 23.58399,4.3457 h 38.37891 q -1.41602,2.88086 -2.49024,6.88477 H 509.7168 q -16.35743,0 -25.63477,-4.58984 -5.56641,-2.78321 -10.74219,-8.20313 -8.34961,9.57031 -16.25976,15.47852 l -4.58985,-7.08008 q 7.95899,-4.98047 16.40625,-12.5 v -25.6836 h -16.21093 v -6.7871 h 23.82812 z M 490.9668,74.21875 q 1.70898,-0.146484 3.71093,-0.292969 21.92383,-1.80664 39.99024,-7.617187 l 5.61523,6.103515 q -17.91992,5.371094 -41.60156,7.763672 v 14.941406 h 47.41211 v 6.884763 h -17.91992 v 43.40821 h -7.8125 v -43.40821 h -21.67969 q 0,13.52539 -1.17187,22.07032 -1.5625,11.4746 -6.83594,20.21484 l -6.49414,-5.17578 q 4.78515,-8.30078 6.00586,-19.33594 0.78125,-7.27539 0.78125,-20.654296 z m -18.35938,14.697266 q -7.51953,-9.960938 -15.52734,-17.138672 l 5.51758,-4.6875 q 8.20312,6.689453 15.96679,16.308593 z m 115.47852,1.904296 h 49.90234 q 0,2.636719 -0.68359,22.998048 h 10.20508 v 6.5918 h -10.44922 q -0.19532,6.25 -0.87891,17.91992 h 9.7168 v 6.49414 h -10.20508 q -0.63477,7.27539 -1.70899,9.66797 -2.14843,5.02929 -10.49804,5.02929 -4.73633,0 -11.08399,-0.78125 l -1.41601,-6.83593 q 7.32422,1.02539 12.06054,1.02539 2.73438,0 3.61329,-1.22071 0.78125,-1.12304 1.31836,-6.10351 l 0.0488,-0.78125 h -39.01367 l -0.14648,0.78125 -0.14649,0.68359 -0.83008,4.73633 -7.4707,-0.87891 q 2.63672,-14.50195 4.44336,-29.73632 h -9.76562 v -6.5918 h 10.54687 q 1.46484,-12.69531 2.44141,-22.998048 z m 27.58789,6.396485 q -0.19531,3.417973 -0.73242,11.572263 l -0.29297,5.0293 h 15.33203 q 0.0977,-2.09961 0.24414,-5.46875 0.0488,-0.87891 0.19531,-5.56641 0,-1.85547 0.14649,-5.566403 z m -7.12891,0 h -13.81836 q -0.43945,5.957033 -1.51367,16.601563 h 14.0625 q 0.29297,-3.71094 0.43945,-5.56641 0.3418,-3.61328 0.83008,-11.035153 z m -1.80664,23.193363 h -14.25781 q -0.78125,6.64062 -1.95313,14.59961 l -0.48828,3.32031 h 14.79492 l 0.29297,-2.2461 q 1.17188,-9.76562 1.61133,-15.67382 z m 7.32422,0 -0.48828,5.12695 q -0.83008,8.78906 -1.31836,12.79297 h 16.40625 q 0.48828,-6.34766 0.73242,-12.30469 l 0.29297,-5.61523 z M 594.9707,73.779297 h 48.92578 v 6.689453 h -52.00195 q -4.00391,7.958984 -9.91211,14.941406 l -5.37109,-5.224609 q 9.47265,-10.546875 14.01367,-25.78125 l 7.4707,0.78125 q -1.5625,4.833984 -3.125,8.59375 z m -24.75586,12.5 q -6.44531,-8.447266 -14.40429,-15.38086 l 5.27343,-5.078125 q 7.51954,5.810547 14.69727,14.697266 z m -3.51562,25.732423 Q 559.0332,102.68555 551.9043,96.679687 l 5.41992,-5.371093 q 8.39844,6.787109 15.08789,14.794926 z m -12.69531,41.06445 q 8.88671,-12.64648 16.21093,-31.98242 l 6.39649,4.6875 q -7.37305,19.92187 -16.3086,33.00781 z"></path>
</svg>
