<svg xmlns="http://www.w3.org/2000/svg" id="svg1" version="1.1" height="200" width="1096">
  <defs id="defs1"></defs>
  <rect id="rect1" stroke="none" fill="none" height="200" width="1096" y="0" x="0"></rect>
  <path aria-label="択捉島南東沖" style="font-weight:bold;font-size:110px;font-family:'BIZ UDPGothic';fill:#ff0000" id="text1" d="m 79.707031,105.95703 q 5.908203,28.25195 28.842769,43.77442 l -7.78808,10.79589 Q 81.103516,145.54199 72.885742,122.23145 70.146484,114.33594 68.588867,105.95703 H 56.450195 q 0,0.37598 0,0.91309 -0.483398,18.58398 -5.585937,32.9248 -3.920899,11.11817 -11.923828,21.37695 l -7.895508,-9.45312 q 14.072265,-19.44336 14.072265,-50.5957 V 60.463867 H 100.43945 V 105.95703 Z M 88.891602,70.561523 H 56.557617 v 25.19043 H 88.891602 Z M 16.542969,75.771484 V 55.952148 H 27.875977 V 75.771484 H 39.047852 V 86.459961 H 27.875977 v 17.456059 q 5.693359,-1.9336 10.742187,-3.920903 l 1.074219,10.097653 q -6.767578,2.95411 -11.816406,4.83399 v 35.39551 q 0,5.31738 -2.363282,7.57324 -2.202148,2.09472 -7.734375,2.09472 -5.854492,0 -11.2792966,-0.96679 L 4.4042969,147.58301 q 5.4248047,1.02051 9.1845701,1.02051 1.71875,0 2.309571,-0.53711 0.644531,-0.53711 0.644531,-2.25586 v -27.0166 q -6.069336,1.87988 -12.0312503,3.49121 L 1.3427734,111.32813 q 10.7421876,-2.63184 15.2001956,-3.9209 V 86.459961 H 3.0078125 V 75.771484 Z M 186.48437,145.48828 q 5.63965,1.39649 13.15918,1.39649 h 19.17481 q -2.25586,5.31738 -3.33008,11.01074 h -15.95215 q -16.75781,0 -26.5332,-6.06934 -7.41211,-4.61914 -12.29981,-13.42773 -3.75976,12.67578 -10.3125,22.34375 l -8.27148,-7.68067 q 11.06445,-18.58398 13.42773,-44.84863 l 10.36622,1.55762 q -0.9668,8.96972 -2.25586,16.11328 3.81347,9.3457 11.92382,14.98535 V 100.26367 H 152.05566 V 61.000977 h 57.417 v 39.262693 h -22.98829 v 14.44824 h 25.40528 v 10.20508 H 186.48437 Z M 163.28125,70.776367 v 19.711914 h 34.96582 V 70.776367 Z m -35.98633,4.995117 V 55.952148 h 11.22559 v 19.819336 h 11.01074 v 10.688477 h -11.01074 v 16.704099 q 5.37109,-1.87988 9.77539,-3.491208 l 1.12793,9.990238 q -5.58594,2.36328 -10.90332,4.40429 v 36.46973 q 0,5.63965 -2.63184,7.73437 -2.20215,1.71875 -7.41211,1.71875 -5.63965,0 -11.44043,-0.85937 l -2.20215,-11.54785 q 7.14356,1.02051 9.61426,1.02051 1.82617,0 2.36328,-0.64454 0.4834,-0.59082 0.4834,-2.25586 V 118.0957 q -6.17676,2.04102 -12.46094,3.75977 l -3.27636,-11.01074 q 9.39941,-2.30957 15.7373,-4.18946 V 86.459961 H 113.11523 V 75.771484 Z M 262.59277,64.116211 q 1.98731,-4.780274 3.22266,-9.130859 l 13.10547,1.77246 q -1.87988,4.458008 -3.4375,7.358399 h 35.77148 v 35.019531 h -64.88281 v 5.424808 h 80.83496 v 8.70117 h -80.83496 v 5.47851 h 77.0752 q -0.69825,24.59961 -3.11524,33.19336 -1.55762,5.47852 -5.85449,7.25098 -3.06152,1.28906 -9.3457,1.28906 -6.44532,0 -12.03125,-0.80566 l -2.14844,-9.02344 h -53.81836 v 5.96192 h -11.54785 v -25.83497 h 11.54785 v 11.06446 h 18.47656 v -14.50196 h -21.1084 V 64.116211 Z m 22.82715,77.719729 v -11.06446 h 11.11817 v 18.69141 q 4.458,0.42969 7.41211,0.42969 3.65234,0 4.56542,-2.09473 1.77247,-3.9209 2.79297,-20.46387 H 267.1582 v 14.50196 z M 246.37207,72.387695 v 5.317383 h 53.0127 v -5.317383 z m 0,12.998047 v 5.854492 h 53.0127 V 85.385742 Z M 379.03809,120.5127 h -22.23633 v -8.8086 h 10.74219 q -2.417,-5.47851 -5.47852,-10.20508 l 9.66797,-3.544918 q 4.18945,7.036128 6.76758,13.749998 h 12.62207 q 3.16894,-6.49902 5.58593,-13.964842 l 10.7959,3.383792 q -2.73926,5.9082 -5.80078,10.58105 h 11.54785 v 8.8086 h -22.98828 v 7.84179 h 24.49219 v 9.13086 h -24.49219 v 20.30274 h -11.22558 v -20.30274 h -23.57911 v -9.13086 h 23.57911 z m 11.54785,-33.085942 h 40.71289 v 62.788082 q 0,5.53223 -2.9541,7.78809 -2.47071,1.93359 -8.3252,1.93359 -7.57324,0 -14.60937,-0.80566 l -2.63184,-10.7959 q 9.39941,1.12793 14.07227,1.12793 1.93359,0 2.25586,-0.9668 0.21484,-0.59082 0.21484,-1.66504 V 96.772461 H 350.67871 V 160.47363 H 338.70117 V 87.426758 h 40.01465 v -9.72168 h -45.97656 v -9.990234 h 45.97656 V 55.952148 h 11.87012 v 11.762696 h 46.62109 v 9.990234 h -46.62109 z m 122.03125,38.134762 q 13.32031,11.87012 35.8789,19.17481 l -6.92871,10.09765 q -12.99804,-4.61914 -22.66601,-11.17187 -9.99024,-6.82129 -18.42285,-16.75781 v 33.56933 h -11.65528 v -32.97851 q -7.46582,10.47363 -19.28222,18.79883 -9.07715,6.3916 -19.44336,10.3125 l -7.3584,-9.45313 q 17.02636,-5.63965 28.41308,-15.2002 3.22266,-2.68554 6.55274,-6.3916 H 451.87012 V 81.572266 h 36.95312 V 74.321289 H 444.29687 V 64.65332 h 44.52637 v -8.701172 h 11.65528 v 8.701172 h 45.2246 v 9.667969 h -45.2246 v 7.250977 h 37.65136 V 125.56152 Z M 488.82324,90.595703 h -25.29785 v 8.701172 h 25.29785 z m 11.65528,0 v 8.701172 h 25.99609 v -8.701172 z m -11.65528,17.080077 h -25.29785 v 8.86231 h 25.29785 z m 11.65528,0 v 8.86231 h 25.99609 v -8.86231 z M 613.70117,75.986328 v -20.03418 h 11.54785 v 20.03418 h 29.11133 v 48.608402 h -29.11133 v 35.8789 h -11.54785 v -35.8789 H 585.18066 V 75.986328 Z m -17.40234,10.688477 v 27.338865 h 17.40234 V 86.674805 Z m 46.62109,27.338865 V 86.674805 h -17.6709 v 27.338865 z m -68.75,-31.796873 q -6.55273,-9.13086 -17.34863,-17.456055 l 8.00293,-8.164062 q 10.74219,7.573242 18.1543,16.972656 z m -3.49121,27.607423 q -9.3457,-10.849611 -18.1543,-17.778322 l 8.27149,-8.271484 q 9.39941,6.606445 18.58398,17.080076 z m -16.7041,41.62598 q 10.3125,-14.66309 19.01367,-36.52344 l 9.56055,7.3584 q -7.3584,20.1416 -17.93946,37.91992 z"></path>
</svg>
