<svg version="1.1" xmlns="http://www.w3.org/2000/svg" xmlns:xlink="http://www.w3.org/1999/xlink" width="138.22727" height="92.88872" viewBox="0,0,138.22727,92.88872"><g transform="translate(-170.88637,-133.55564)"><g stroke="none" stroke-miterlimit="10"><path d="M231.16593,163.00853c18.23881,0 32.92202,14.68321 32.92202,32.92202v1.06092h-48.17587v-33.98294z" fill="#1d2a41" stroke-width="3.96899"/><path d="M229.66265,173.22464l6.78078,6.7808l6.78043,-6.7808c0.38028,-0.38028 0.99266,-0.38028 1.37294,0l0.12059,0.12058c0.38027,0.38028 0.38027,0.99266 0,1.37294l-6.78041,6.7808l6.78041,6.78042c0.38027,0.38028 0.38029,0.99266 0,1.37295l-0.12059,0.12058c-0.38028,0.38028 -0.99266,0.38028 -1.37294,-0.00001l-6.78043,-6.78042l-6.78078,6.78042c-0.38029,0.38028 -0.99267,0.38029 -1.37295,0.00001l-0.12059,-0.12059c-0.38028,-0.38028 -0.38028,-0.99267 0,-1.37295l6.7808,-6.78042l-6.7808,-6.7808c-0.38028,-0.38028 -0.38028,-0.99266 0,-1.37294l0.12059,-0.12058c0.19014,-0.19013 0.43832,-0.28504 0.68647,-0.28505c0.24814,0 0.49633,0.0949 0.68648,0.28504z" fill="#ffffff" stroke-width="3.96875"/><path d="M170.88638,226.44436v-92.88872h138.22727v92.88872z" fill="none" stroke-width="0"/></g></g></svg>