<svg xmlns="http://www.w3.org/2000/svg" id="svg1" version="1.1" height="200" width="1096">
  <defs id="defs1"></defs>
  <rect id="rect1" stroke="none" fill="none" height="200" width="1096" y="0" x="0"></rect>
  <path aria-label="アリューシャン列島" style="font-weight:bold;font-size:110px;font-family:'BIZ UDPGothic';fill:#ff0000" id="text1" d="M 4.1894531,66.962891 H 88.354492 l 6.928711,5.854492 Q 92.275391,84.042969 87.441406,91.5625 78.364258,105.7959 60.263672,112.83203 l -6.767578,-9.23828 Q 66.010742,99.833984 74.282227,90.112305 79.169922,84.365234 81.103516,77.973633 H 4.1894531 Z M 38.618164,90.166016 h 12.299805 v 9.238281 q 0,20.786133 -4.619141,32.119143 -5.854492,14.39453 -22.773437,23.41797 l -8.862305,-9.34571 q 11.655273,-5.53222 17.026367,-13.21289 4.135742,-5.96191 5.424805,-12.62207 1.503906,-7.62695 1.503906,-20.463865 z M 112.20215,60.463867 h 12.51465 v 58.759763 h -12.51465 z m 55.16113,-1.12793 h 12.51465 v 38.403321 q 0,20.249022 -3.27637,30.131832 -2.73926,8.43262 -7.46582,13.42774 -9.8291,10.58105 -31.58203,15.62988 l -6.17676,-11.01074 q 23.79395,-4.83399 30.50782,-16.05957 4.24316,-7.14356 5.10253,-18.04688 0.37598,-5.04882 0.37598,-13.96484 z m 43.12988,25.19043 h 54.03321 q -1.28907,23.793943 -5.10254,53.818363 l -0.4834,3.75976 h 20.30273 v 10.20508 h -78.95507 v -10.20508 h 47.10449 q 4.13574,-28.95019 4.9414,-47.373045 h -41.84082 z m 82.07032,15.737303 h 94.58496 v 12.08496 H 292.56348 Z M 439.89258,84.418945 Q 424.04785,77.329102 407.55859,72.548828 l 3.49121,-10.634766 q 18.58399,4.619141 32.60254,11.279297 z m -11.01074,27.500005 q -13.21289,-5.80079 -32.33399,-11.87012 l 4.61914,-10.742189 q 16.43555,4.350586 31.9043,11.547849 z m -25.40528,29.59472 q 21.96778,-1.82617 34.42871,-6.66015 18.42285,-7.03614 28.9502,-25.13672 7.03613,-12.084964 11.11816,-30.561527 l 10.84961,6.28418 q -5.20996,23.149417 -14.55566,36.899417 -10.95703,16.05957 -30.56153,23.74023 -13.80371,5.31738 -36.79199,7.46582 z m 124.93164,-65.527342 3.33008,18.261719 39.58496,-6.391602 6.82129,5.048828 q -6.12305,25.297857 -21.48437,39.584957 l -8.75489,-7.03613 q 6.875,-5.58594 11.60157,-13.42773 3.75976,-6.17676 5.20996,-12.299808 l -31.15235,5.156248 8.91602,50.16602 -11.01074,1.9873 -9.13086,-50.38086 -22.39746,3.75977 -1.55762,-10.903321 22.02148,-3.544922 -3.33007,-18.100586 z M 631.0498,88.178711 Q 614.07715,80.605469 595.76172,76.040039 l 3.75976,-11.547852 q 21.21582,4.833985 35.61036,12.03125 z m -33.94531,53.442379 q 26.58692,-2.25586 40.71289,-9.50683 16.65039,-8.59375 25.56641,-26.37207 5.80078,-11.494143 9.39941,-30.078128 l 10.3125,7.573243 q -4.35058,19.873045 -10.52734,31.582035 -11.17188,21.32324 -34.16016,30.88378 -14.50195,6.01563 -38.77929,8.59375 z m 125.89844,-15.84472 q -7.25098,-7.14356 -14.93164,-12.56836 -4.08203,6.71387 -9.77539,13.37402 l -7.25098,-9.13086 q 16.05957,-19.389647 21.37695,-45.439451 h -18.208 V 61.21582 h 55.37597 v 10.795899 h -25.83496 q -1.45019,7.143554 -3.22265,12.783203 h 20.03418 l 5.58593,4.511719 Q 742.5,114.98047 732.88574,132.11426 723.3252,149.14062 704.2041,160.15137 l -7.89551,-9.13086 q 17.13379,-9.18457 26.69434,-25.24414 z m 5.04883,-10.63477 q 3.65234,-9.18457 5.69336,-20.463866 h -16.59668 q -1.98731,5.15625 -4.24317,9.721676 7.94922,4.61914 15.14649,10.74219 z m 26.69433,-44.257811 h 11.65528 v 63.593751 h -11.65528 z m 24.0625,-10.849609 h 11.87012 v 87.54883 q 0,5.74707 -2.36328,8.3789 -2.79297,3.06153 -10.63477,3.06153 -4.88769,0 -15.03906,-0.4834 l -3.16894,-0.16113 -2.30957,-11.7627 q 10.84961,1.18164 17.67089,1.18164 3.00782,0 3.59864,-1.5039 0.37597,-0.91309 0.37597,-2.57813 z m 62.41211,4.082031 q 1.98731,-4.780274 3.22266,-9.130859 l 13.10547,1.77246 q -1.87988,4.458008 -3.4375,7.358399 h 35.77148 V 99.135742 H 825 v 5.424808 h 80.83496 v 8.70117 H 825 v 5.47851 h 77.0752 q -0.69825,24.59961 -3.11524,33.19336 -1.55762,5.47852 -5.85449,7.25098 -3.06152,1.28906 -9.3457,1.28906 -6.44532,0 -12.03125,-0.80566 l -2.14844,-9.02344 h -53.81836 v 5.96192 h -11.54785 v -25.83497 h 11.54785 v 11.06446 h 18.47656 v -14.50196 h -21.1084 V 64.116211 Z m 22.82715,77.719729 v -11.06446 h 11.11817 v 18.69141 q 4.458,0.42969 7.4121,0.42969 3.65235,0 4.56543,-2.09473 1.77247,-3.9209 2.79297,-20.46387 h -44.15039 v 14.50196 z M 825,72.387695 v 5.317383 h 53.0127 v -5.317383 z m 0,12.998047 v 5.854492 h 53.0127 v -5.854492 z"></path>
</svg>
