<svg xmlns="http://www.w3.org/2000/svg" id="svg1" version="1.1" height="200" width="990">
  <defs id="defs1"></defs>
  <rect id="rect1" stroke="none" fill="none" height="200" width="990" y="0" x="0"></rect>
  <path aria-label="網走沖" style="font-size:100px;font-family:'BIZ UDPGothic';fill:#ff0000" id="text1" d="M 14.404297,100.48828 Q 8.7402344,91.601562 2.0996094,84.179687 l 4.1992187,-5.371093 q 1.3183594,1.464843 2.9785157,3.417968 5.0781252,-7.8125 9.5214842,-17.724609 l 6.494141,3.320313 q -5.810547,10.742187 -12.207031,19.287109 2.832031,3.710937 5.322265,7.714844 l 0.683594,-0.976563 q 5.273437,-7.763672 10.888672,-17.236328 l 5.71289,4.003906 q -9.716797,15.234375 -20.703125,28.369146 11.572266,-0.97657 15.38086,-1.46485 -1.367188,-4.0039 -2.88086,-7.22656 l 5.175782,-2.587892 q 4.199218,8.691402 6.201171,18.310552 l -5.566406,2.88085 q -0.488281,-2.68554 -1.318359,-6.00585 -3.564453,0.73242 -8.203125,1.41601 v 45.21484 h -6.982422 v -44.2871 l -1.123047,0.14648 q -5.7128905,0.68359 -12.158203,1.2207 L 1.9042969,109.7168 q 2.734375,-0.14649 4.1015625,-0.19532 0.78125,-0.0488 1.4160156,-0.0977 3.515625,-4.19922 6.396484,-8.1543 0.341797,-0.48828 0.585938,-0.78125 z m 48.779297,18.70117 v 11.37696 q 0,2.53906 1.464843,3.07617 0.976563,0.39062 6.152344,0.39062 5.322266,0 11.621094,-0.63476 v 6.78711 q -5.859375,0.48828 -11.181641,0.48828 -10.449218,0 -12.646484,-1.75781 -2.001953,-1.61133 -2.001953,-6.34766 v -13.37891 h -6.689453 v -6.20117 H 63.525391 V 102.19727 H 49.902344 v -6.201176 h 19.580078 q 0.146484,-0.244141 0.488281,-1.074219 3.808594,-8.300781 6.152344,-17.724609 l 6.787109,2.490234 q -2.929687,8.447266 -7.080078,16.308594 h 9.082031 v 6.201176 H 70.3125 v 10.79101 h 14.599609 v 6.20117 z M 95.117187,68.798828 v 81.591792 q 0,3.95508 -1.708984,5.85938 -1.806641,2.05078 -6.689453,2.05078 -5.46875,0 -10.595703,-0.48828 l -1.611328,-7.12891 q 6.201172,0.83008 10.791015,0.83008 2.001953,0 2.441407,-0.78125 0.390625,-0.63476 0.390625,-2.53906 V 75.488281 H 46.484375 V 159.52148 H 39.599609 V 68.798828 Z M 2.1972656,147.41211 q 3.0273438,-11.76758 3.7109375,-25.39063 l 6.3964849,0.6836 q -0.927735,17.28515 -3.710938,27.7832 z m 29.0039064,-2.58789 q -1.5625,-12.93945 -3.90625,-22.02149 l 5.71289,-1.80664 q 2.539063,8.25196 4.589844,21.09375 z M 57.324219,94.824219 Q 54.833984,86.865234 51.220703,80.419922 l 5.761719,-2.441406 q 3.90625,6.201171 6.542969,14.30664 z M 153.61328,148.0957 q 6.64063,1.26953 14.4043,1.26953 h 29.78515 q -1.85546,3.4668 -2.58789,7.51954 h -28.22265 q -17.1875,0 -28.56446,-5.76172 -9.61914,-4.93164 -16.1621,-14.55078 -4.78516,12.59765 -13.76954,22.4121 l -5.71289,-6.00585 q 8.20313,-8.98438 12.74414,-20.94727 3.07618,-8.05664 4.93164,-18.94531 l 8.00782,1.80664 q -1.9043,8.88672 -3.51563,14.01367 4.00391,6.15234 8.30078,9.86328 5.46875,4.63867 12.45117,7.17774 V 106.78711 H 103.4668 V 100 h 42.23632 V 84.765625 h -33.74023 v -6.689453 h 33.74023 V 64.453125 h 7.91016 v 13.623047 h 34.375 v 6.689453 h -34.375 V 100 h 42.96875 v 6.78711 h -42.96875 v 14.20898 h 35.5957 v 6.78711 h -35.5957 z M 258.69141,85.302734 V 64.501953 h 7.71484 v 20.800781 h 27.7832 v 40.478516 h -27.7832 v 33.69141 h -7.71484 v -33.69141 h -26.9043 V 85.302734 Z m -19.38477,6.982422 v 26.513674 h 19.38477 V 92.285156 Z m 47.26563,26.513674 V 92.285156 H 266.40625 V 118.79883 Z M 221.77734,86.621094 q -6.54297,-8.34961 -15.2832,-15.527344 l 5.32227,-5.273438 q 8.30078,6.201172 15.67382,14.990235 z m -3.66211,25.488286 q -7.66601,-8.8379 -15.91796,-15.527349 l 5.41992,-5.46875 q 8.39843,6.201172 16.16211,14.990239 z m -13.7207,40.57617 q 9.52149,-12.69532 17.48047,-32.86133 l 6.29883,5.07812 q -7.32422,19.14063 -17.08985,33.69141 z"></path>
</svg>
