<svg xmlns="http://www.w3.org/2000/svg" id="svg1" version="1.1" height="200" width="1096">
  <defs id="defs1"></defs>
  <rect id="rect1" stroke="none" fill="none" height="200" width="1096" y="0" x="0"></rect>
  <path aria-label="6" style="font-weight:bold;font-size:110px;font-family:'BIZ UDPGothic';fill:#ff0000" id="text1" d="m 23.632812,106.44043 q 7.41211,-11.225586 22.075196,-11.225586 11.870117,0 20.302734,7.465816 9.238281,8.21778 9.238281,20.94727 0,13.05176 -8.271484,21.75293 -8.754883,9.23828 -23.256836,9.23828 -16.972656,0 -26.855469,-12.56836 -7.9492184,-10.15137 -7.9492184,-28.52051 0,-12.7832 7.3046874,-25.40527 Q 28.466797,66.801758 57.30957,60.03418 l 5.048828,10.527343 Q 43.666992,75.986328 35.449219,84.09668 25.029297,94.355469 23.203125,106.44043 Z m 19.497071,-0.85938 q -8.164063,0 -13.911133,6.49903 -4.56543,5.10254 -4.56543,11.01074 0,6.33789 3.598633,11.60156 5.800781,8.48633 15.146484,8.48633 8.164063,0 13.427735,-6.23047 4.243164,-5.10254 4.243164,-12.89062 0,-8.8086 -5.209961,-13.69629 -5.102539,-4.78028 -12.729492,-4.78028 z"></path>
</svg>
