<svg xmlns="http://www.w3.org/2000/svg" id="svg1" version="1.1" height="200" width="1096">
  <defs id="defs1"></defs>
  <rect id="rect1" stroke="none" fill="none" height="200" width="1096" y="0" x="0"></rect>
  <path aria-label="中国中部" style="font-weight:bold;font-size:110px;font-family:'BIZ UDPGothic';fill:#ff0000" id="text1" d="M 48.608398,75.664062 V 55.952148 H 60.693359 V 75.664062 H 100.54688 V 132.49023 H 88.676758 v -7.46582 H 60.693359 v 35.44922 H 48.608398 V 125.02441 H 21.323242 v 8.05664 H 9.453125 V 75.664062 Z M 21.323242,86.674805 V 114.01367 H 48.608398 V 86.674805 Z M 88.676758,114.01367 V 86.674805 H 60.693359 V 114.01367 Z M 169.18945,88.071289 V 100.85449 H 192.5 v 9.02344 h -10.47363 q 4.88769,3.97461 10.68847,11.33301 l -8.21777,5.47851 q -3.9209,-5.9082 -11.01074,-12.40722 l 7.84179,-4.4043 h -12.13867 v 17.02637 h 27.5 v 9.45312 h -63.48633 v -9.45312 h 24.86817 v -17.02637 h -20.78613 v -9.02344 h 20.78613 V 88.071289 h -23.74024 v -9.345703 h 61.12305 v 9.345703 z m 43.98926,-27.070312 v 99.472653 h -11.87012 v -5.63965 h -72.72461 v 5.63965 H 116.82129 V 61.000977 Z m -84.59473,9.882812 v 73.745121 h 72.72461 V 70.883789 Z M 268.6084,75.664062 V 55.952148 h 12.08496 v 19.711914 h 39.85351 v 56.826168 h -11.87011 v -7.46582 h -27.9834 v 35.44922 H 268.6084 v -35.44922 h -27.28516 v 8.05664 H 229.45312 V 75.664062 Z M 241.32324,86.674805 V 114.01367 H 268.6084 V 86.674805 Z m 67.35352,27.338865 V 86.674805 h -27.9834 v 27.338865 z m 59.72656,-45.654295 h 22.98828 v 10.366211 h -7.57324 q -2.04102,8.217773 -5.47852,17.241211 h 14.34082 v 10.366213 h -59.9414 V 95.966797 h 13.15918 Q 343.75,85.654297 341.38672,78.725586 H 334.4043 V 68.359375 h 22.77343 V 55.952148 h 11.22559 z m -16.16699,10.366211 q 2.73926,8.00293 4.24316,17.241211 h 10.95703 l 0.53711,-1.503906 q 2.30957,-6.123047 4.29688,-13.911133 l 0.4834,-1.826172 z m 33.30078,36.630864 v 43.98925 h -11.01074 v -5.26367 H 351.1084 v 6.3916 h -11.33301 v -45.11718 z m -34.42871,9.88281 v 18.63769 h 23.41797 v -18.63769 z m 71.75781,-27.124026 q 6.3916,6.069336 10.15137,14.448246 3.70605,8.3789 3.70605,16.97265 0,7.94922 -2.9541,11.70899 -3.06152,3.9209 -10.09766,3.9209 -6.01562,0 -11.65527,-0.85938 l -2.63183,-11.44043 q 6.49902,1.18164 10.74218,1.18164 3.22266,0 4.02832,-1.5039 0.53711,-1.07422 0.53711,-4.29688 0,-13.2666 -7.94922,-22.88086 -2.09472,-2.52441 -5.26367,-5.424804 l 0.64453,-1.503906 q 5.58594,-12.62207 8.70118,-26.318359 h -13.75 V 160.47363 H 395.95703 V 61.000977 h 32.33399 l 5.96191,5.478515 q -5.42481,18.476563 -11.38672,31.635742 z"></path>
</svg>
