<svg xmlns="http://www.w3.org/2000/svg" id="svg1" version="1.1" height="200" width="990">
  <defs id="defs1"></defs>
  <rect id="rect1" stroke="none" fill="none" height="200" width="990" y="0" x="0"></rect>
  <path aria-label="ロシア西部" style="font-size:100px;font-family:'BIZ UDPGothic';fill:#ff0000" id="text1" d="M 10.400391,77.197266 H 83.496094 V 149.31641 H 10.400391 Z m 8.203125,7.421875 V 141.79687 H 75.292969 V 84.619141 Z M 134.81445,88.28125 q -12.1582,-5.664063 -26.70898,-9.863281 l 2.49023,-7.03125 q 15.03907,3.662109 26.80664,9.521484 z m -10.30273,24.90234 q -10.64453,-4.73632 -26.513673,-9.86328 l 2.978513,-7.324216 q 14.59961,4.052736 26.51367,9.814456 z m -20.11719,30.71289 q 17.91992,-1.46484 28.75977,-5.22461 18.4082,-6.44531 28.51562,-23.38867 6.78711,-11.32812 10.10742,-28.271481 l 7.12891,4.296875 q -4.39453,20.068356 -12.5,32.226566 -9.86328,14.74609 -27.34375,21.67968 -12.30469,4.83399 -32.37305,6.5918 z m 81.83594,-67.480464 h 76.12305 l 5.27343,4.492187 q -4.19922,16.308594 -15.47851,25.537107 -6.20117,5.07813 -15.52735,8.64258 l -4.6875,-6.00586 q 13.91602,-4.54101 21.58203,-14.941405 3.51563,-4.833984 5.0293,-10.644531 H 186.23047 Z M 218.75,94.580078 h 7.86133 v 8.203122 q 0,19.18946 -3.75977,29.00391 -5.02929,13.03711 -20.70312,21.19141 l -5.81055,-5.95704 q 10.74219,-5.17578 15.9668,-13.23242 3.56445,-5.41992 4.78515,-11.03515 1.66016,-7.66602 1.66016,-19.97071 z m 86.86523,-0.878906 V 77.197266 H 274.80469 V 70.3125 h 94.38476 v 6.884766 h -33.88672 v 16.503906 h 27.78321 V 157.8125 h -7.8125 V 150 h -66.65039 v 7.8125 H 280.9082 V 93.701172 Z m 7.51954,0 H 327.7832 V 77.197266 h -14.64843 z m -7.56836,6.591798 h -16.94336 v 42.91992 h 66.65039 v -17.23633 h -20.16602 q -7.32422,0 -7.32422,-6.59179 v -19.0918 h -14.69726 q -0.43946,10.5957 -3.125,16.89453 -3.8086,8.93555 -14.94141,15.52734 l -4.98047,-5.61523 q 10.40039,-5.41992 13.52539,-14.50195 1.51367,-4.44336 2.00196,-12.30469 z m 29.73632,0 v 16.50391 q 0,1.51367 0.58594,1.95312 0.53711,0.43945 1.80664,0.43945 h 17.57813 v -18.89648 z m 70.70313,-23.681642 h 21.82617 v 6.787109 h -7.03125 q -2.05078,9.13086 -5.61523,18.701173 h 14.45312 v 6.88477 h -55.12695 v -6.88477 h 13.7207 l -0.0976,-0.48828 q -2.05079,-10.009768 -4.39454,-17.187502 l -0.34179,-1.025391 h -7.08008 v -6.787109 h 22.2168 V 64.501953 h 7.4707 z m -15.13672,6.787109 q 2.58789,7.958985 4.73633,18.701173 h 12.1582 q 2.92969,-8.105469 5.32227,-18.701173 z m 31.83594,35.888673 v 39.30664 h -7.32422 v -5.51758 H 389.4043 v 6.39649 h -7.56836 v -40.18555 z m -33.30078,6.68945 v 20.3125 h 25.97656 v -20.3125 z m 65.42968,-22.70508 q 12.8418,13.57422 12.8418,29.44336 0,5.56641 -2.00195,8.39844 -2.44141,3.27149 -8.4961,3.27149 -5.81054,0 -10.69336,-0.6836 l -1.61132,-7.61719 q 6.25,1.02539 10.15625,1.02539 3.71093,0 4.39453,-2.49023 0.29297,-1.07422 0.29297,-3.51562 0,-13.72071 -12.64649,-26.70899 5.85938,-12.695311 9.52149,-26.708983 h -15.42969 v 81.787113 h -7.37305 V 70.507812 h 27.49024 l 4.39453,3.808594 q -5.3711,17.382813 -10.83985,28.955074 z"></path>
</svg>
