<svg xmlns="http://www.w3.org/2000/svg" id="svg1" version="1.1" height="200" width="1096">
  <defs id="defs1"></defs>
  <rect id="rect1" stroke="none" fill="none" height="200" width="1096" y="0" x="0"></rect>
  <path aria-label="播磨灘" style="font-weight:bold;font-size:110px;font-family:'BIZ UDPGothic';fill:#ff0000" id="text1" d="m 39.907227,119.00879 q -1.987305,1.28906 -6.176758,3.59863 l -5.908203,-8.27148 Q 44.526367,106.60156 55.107422,94.462891 H 33.300781 v -8.00293 h -7.46582 v 14.824219 q 2.900391,-1.18164 7.143555,-3.330078 l 1.503906,9.667968 q -3.706055,2.04102 -8.647461,4.45801 v 38.88672 q 0,4.13574 -1.396484,6.28418 -1.987305,3.00781 -8.540039,3.00781 -6.0156255,0 -10.3125005,-1.02051 l -2.0947266,-11.11816 1.71875,0.21484 q 5.1562501,0.69824 6.9287111,0.69824 1.772461,0 2.202148,-0.59082 0.375977,-0.53711 0.375977,-1.87988 v -29.4873 q -6.3378907,2.57812 -10.6884767,4.08203 L 0.96679688,110.25391 Q 7.3583984,108.32031 14.716797,105.68848 V 86.459961 H 2.6318359 V 75.771484 H 14.716797 V 55.952148 h 11.118164 v 19.819336 h 8.432617 v 9.453125 H 46.835937 Q 44.580078,79.370117 41.518555,73.999023 l 9.345703,-2.739257 q 3.544922,7.250976 5.478515,13.964843 h 7.089844 V 69.541016 q -15.361328,1.235351 -26.049805,1.71875 L 33.515625,62.773437 Q 69.125977,61.269531 92.114258,56.489258 L 99.6875,64.65332 q -11.171875,2.041016 -25.888672,3.867188 v 16.704101 h 6.875 q 3.920899,-7.46582 7.197266,-17.294922 l 9.990234,3.867188 q -3.222656,6.337891 -7.895508,13.427734 h 16.32813 v 9.238282 H 82.661133 q 9.882812,10.097659 26.264647,17.133789 l -6.12305,8.80859 q -2.04101,-1.12793 -4.511714,-2.57812 v 42.64648 h -10.3125 v -5.53222 H 50.327148 v 5.53222 H 39.907227 Z m 10.097656,-7.41211 H 63.432617 V 96.503906 q -5.371094,8.271484 -13.427734,15.092774 z m 37.973633,34.96582 v -9.66797 H 73.583984 v 9.66797 z m 0,-17.83203 v -8.75488 H 73.583984 v 8.75488 z M 73.798828,111.59668 H 88.837891 Q 79.384766,104.39941 73.798828,95.59082 Z m -23.47168,8.37891 v 8.75488 h 13.320313 v -8.75488 z m 0,16.91894 v 9.66797 h 13.320313 v -9.66797 z M 196.58203,73.461914 v 6.552734 h 17.61719 v 7.573243 h -14.98535 q 7.46582,8.110351 18.04687,13.964839 l -5.80078,7.14356 q -8.91601,-5.31738 -15.09277,-12.998048 v 15.092778 h -9.88282 V 95.644531 q -5.4248,8.916019 -13.53515,14.716799 l -5.74707,-6.3916 q 9.02344,-5.53223 16.00586,-15.576175 l 0.59082,-0.805664 h -11.97754 v -7.573243 h 14.44824 v -6.552734 h -28.30566 v 6.552734 h 11.01074 v 7.573243 h -11.22559 v 2.416992 q 6.66016,2.90039 13.32032,7.573242 l -5.3711,6.928715 q -4.83398,-4.02832 -7.94922,-6.284184 v 12.568364 h -9.88281 V 97.202148 q -5.26367,7.680662 -11.97754,12.729492 l -5.74707,-6.23047 q -0.0537,21.16211 -1.87988,34.32129 -1.77246,12.46094 -6.28418,21.96777 l -10.41992,-7.30468 q 4.40429,-9.07715 5.96191,-23.14942 1.28906,-11.70898 1.28906,-29.32617 V 64.545898 h 42.91504 v -8.59375 h 11.87012 v 8.59375 h 42.27051 v 8.916016 z m -48.93066,0 H 130.1416 v 29.487306 q 8.37891,-4.780275 15.57617,-15.361329 h -13.37402 v -7.573243 h 15.30762 z m 11.06445,57.041016 h 50.97168 v 29.9707 h -11.44043 v -4.88769 h -45.11719 v 4.88769 h -11.33301 v -18.20801 q -2.90039,1.61133 -7.8955,4.08204 l -5.31739,-8.21778 q 14.12598,-5.04883 24.59961,-15.52246 h -21.69922 v -8.48633 h 85.56153 v 8.48633 h -50.75684 q -3.59863,4.51172 -7.57324,7.89551 z m -5.58594,8.27148 v 8.43262 h 45.11719 v -8.43262 z M 271.13281,84.633789 v 4.887695 h 14.60938 v 6.606446 q 7.68066,-18.959961 10.36621,-40.65918 l 9.77539,1.450195 q -1.98731,11.333008 -3.81348,18.476563 h 5.58594 q 2.52441,-9.506836 3.9209,-19.335938 l 9.39941,1.71875 q -1.9873,9.453125 -4.78027,17.617188 h 11.17187 v 9.667969 h -10.47363 v 13.696289 h 8.59375 v 9.345704 h -8.59375 v 13.37402 h 8.59375 v 9.50684 h -8.59375 v 14.39453 h 11.54785 v 9.88281 h -26.47949 v 5.15625 h -9.13086 V 100.9082 q -1.18164,2.84668 -3.33008,7.19727 l -3.75976,-10.7959 v 12.89063 h -14.60938 v 5.15625 h 15.36133 v 7.78808 h -15.36133 q -0.10742,3.70606 -0.21484,5.42481 h 18.6914 v 7.78808 h -19.71191 q -0.10742,0.59082 -0.37598,1.71875 9.93653,5.85449 19.33594,13.69629 l -6.3916,8.00293 q -7.30469,-7.08984 -15.68359,-13.32031 l -0.59082,-0.4834 q -6.23047,10.36621 -17.88575,16.00586 l -6.82129,-8.59375 q 10.04395,-3.54492 14.77051,-10.20508 1.87989,-2.57812 3.16895,-6.82129 h -16.11328 v -7.78808 h 17.77832 q 0.37597,-3.70606 0.42968,-5.42481 h -15.30761 v -7.78808 h 15.36133 V 110.2002 H 246.96289 V 89.521484 h 14.50195 v -4.887695 h -9.13086 V 72.65625 h -5.37109 l -8.27148,7.788086 q -5.15625,-8.110352 -14.39454,-17.241211 l 8.16407,-6.928711 q 6.66015,5.532227 13.05176,14.072266 v -5.854493 h 6.82128 v -9.238281 h 9.34571 v 9.238281 h 9.45312 v -9.238281 h 9.23828 v 9.238281 h 8.91602 v 8.164063 h -8.91602 v 11.977539 z m -9.13086,11.708984 h -6.92871 v 7.143557 h 6.92871 z m 8.59375,0 v 7.143557 h 7.25098 V 96.342773 Z M 261.67969,72.65625 v 5.371094 h 9.45312 V 72.65625 Z m 40.2832,12.407227 v 13.696289 h 6.44531 V 85.063477 Z m 0,23.041993 v 13.37402 h 6.44531 v -13.37402 z m 0,22.88086 v 14.39453 h 6.44531 v -14.39453 z m -67.35352,-24.00879 q -7.8955,-10.957032 -14.07226,-17.13379 l 8.37891,-7.036133 q 8.05664,7.197266 14.50195,16.59668 z m -12.99804,46.29883 q 7.57324,-16.167 12.89062,-39.47754 l 9.66797,4.83398 q -4.13574,21.43067 -12.19238,42.27051 z"></path>
</svg>
