<svg xmlns="http://www.w3.org/2000/svg" id="svg1" version="1.1" height="200" width="1096">
  <defs id="defs1"></defs>
  <rect id="rect1" stroke="none" fill="none" height="200" width="1096" y="0" x="0"></rect>
  <path aria-label="栃木県北部" style="font-weight:bold;font-size:110px;font-family:'BIZ UDPGothic';fill:#ff0000" id="text1" d="M 17.77832,112.13379 Q 12.890625,126.63574 6.1230469,138.2373 L 0.859375,125.83008 Q 11.816406,109.01855 16.865234,88.769531 H 2.5244141 V 78.188477 H 17.77832 V 55.952148 H 28.896484 V 78.188477 H 41.035156 V 88.769531 H 28.896484 v 9.023438 q 8.378907,6.499021 14.340821,13.320311 l -5.961914,10.41992 q -4.404297,-6.44531 -8.378907,-11.44043 v 50.38086 H 17.77832 Z M 67.675781,95.751953 H 55.859375 v 2.631836 q 0,22.612301 -2.470703,34.321291 -2.84668,13.42773 -11.44043,25.99609 l -8.110351,-8.05664 q 7.250976,-11.06445 9.560546,-25.13672 1.66504,-10.04394 1.66504,-24.70703 V 64.868164 q 3.276367,-0.268555 7.46582,-0.59082 21.162109,-1.557617 42.915039,-6.875 l 7.358394,9.023437 q -22.182613,5.209961 -46.943355,7.250977 v 12.192383 h 51.455075 v 9.882812 H 78.256836 q -0.161133,8.110347 -0.429688,12.460937 h 24.975582 q -0.69824,33.83789 -2.73925,42.64648 -0.9668,4.29688 -3.81348,6.23047 -2.900391,2.04102 -9.077148,2.04102 -5.371094,0 -11.333008,-0.85938 L 73.90625,147.36816 q 6.928711,0.85938 10.527344,0.85938 3.4375,0 4.350586,-1.71875 2.041015,-3.81348 3.007812,-28.73535 H 77.075195 q -0.913086,8.91601 -2.792968,15.7373 -4.296875,15.79102 -16.435547,27.5 l -8.056641,-7.3584 Q 62.143555,141.1377 65.3125,123.57422 67.138672,113.53027 67.62207,97.30957 Z m 105.327149,-7.46582 q 6.23047,10.957031 16.05957,21.806637 12.56836,13.96485 28.62793,24.16993 l -8.21777,10.79589 Q 185.73242,127.01172 170.80078,102.3584 v 58.11523 h -12.2998 v -56.93359 q -14.50196,26.47949 -37.97364,43.82812 l -8.21777,-9.66796 q 10.41992,-6.98243 19.44336,-16.167 15.25391,-15.41504 24.76074,-33.247067 H 115.47852 V 77.167969 h 43.02246 V 55.952148 h 12.2998 v 21.215821 h 43.82813 V 88.286133 Z M 312.16797,58.583984 V 110.62988 H 248.25195 V 58.583984 Z m -52.36817,8.486328 v 6.713868 h 40.7129 v -6.713868 z m 0,14.28711 v 6.713867 h 40.7129 v -6.713867 z m 0,14.287109 v 6.928709 h 40.7129 v -6.928709 z m -21.6455,22.128909 h 89.05273 v 9.3457 h -44.41894 v 33.35449 H 270.5957 V 127.11914 H 226.3916 V 66.855469 h 11.7627 z m -13.75,32.4414 q 12.7832,-5.9082 24.43847,-19.81933 l 9.88282,5.74707 q -11.49414,14.55566 -25.5127,22.88086 z m 92.59765,6.92871 q -8.21777,-10.09765 -24.70703,-21.21582 l 9.23828,-6.49902 q 12.94434,7.46582 25.40528,19.60449 z m 45.11719,-25.29785 q -14.82422,7.78809 -25.83496,11.92383 l -4.51172,-11.81641 q 17.24121,-5.80078 30.34668,-12.03124 V 95.859375 H 335.53223 V 84.526367 h 26.58691 V 55.952148 h 11.97754 V 160.47363 h -11.97754 z m 38.18848,-41.840817 q 12.51465,-6.552735 24.27734,-16.650391 l 8.91602,9.345703 q -15.89844,11.279297 -33.19336,19.228515 v 40.2832 q 0,2.63184 1.71875,3.22266 1.82617,0.59082 8.43261,0.59082 8.70118,0 10.90332,-1.02051 1.55762,-0.69824 2.14844,-4.35058 0.80567,-5.10254 1.18164,-16.48926 l 12.03125,3.70605 q -0.53711,13.91114 -1.71875,19.98047 -1.34277,6.76758 -7.03613,8.75489 -5.4248,1.82617 -17.77832,1.82617 -14.50195,0 -18.26172,-2.417 -3.59863,-2.36328 -3.59863,-9.07714 V 55.952148 h 11.97754 z m 78.0957,-21.645508 h 22.98828 v 10.366211 h -7.57324 q -2.04102,8.217773 -5.47852,17.241211 h 14.34082 v 10.366213 h -59.9414 V 95.966797 h 13.15918 Q 453.75,85.654297 451.38672,78.725586 H 444.4043 V 68.359375 h 22.77343 V 55.952148 h 11.22559 z m -16.16699,10.366211 q 2.73926,8.00293 4.24316,17.241211 h 10.95703 l 0.53711,-1.503906 q 2.30957,-6.123047 4.29688,-13.911133 l 0.4834,-1.826172 z m 33.30078,36.630864 v 43.98925 h -11.01074 v -5.26367 H 461.1084 v 6.3916 h -11.33301 v -45.11718 z m -34.42871,9.88281 v 18.63769 h 23.41797 v -18.63769 z m 71.75781,-27.124026 q 6.3916,6.069336 10.15137,14.448246 3.70605,8.3789 3.70605,16.97265 0,7.94922 -2.9541,11.70899 -3.06152,3.9209 -10.09766,3.9209 -6.01562,0 -11.65527,-0.85938 l -2.63183,-11.44043 q 6.49902,1.18164 10.74218,1.18164 3.22266,0 4.02832,-1.5039 0.53711,-1.07422 0.53711,-4.29688 0,-13.2666 -7.94922,-22.88086 -2.09472,-2.52441 -5.26367,-5.424804 l 0.64453,-1.503906 q 5.58594,-12.62207 8.70118,-26.318359 h -13.75 V 160.47363 H 505.95703 V 61.000977 h 32.33399 l 5.96191,5.478515 q -5.42481,18.476563 -11.38672,31.635742 z"></path>
</svg>
