<svg xmlns="http://www.w3.org/2000/svg" id="svg1" version="1.1" height="200" width="1096">
  <defs id="defs1"></defs>
  <rect id="rect1" stroke="none" fill="none" height="200" width="1096" y="0" x="0"></rect>
  <path aria-label="埼玉県秩父地方" style="font-weight:bold;font-size:110px;font-family:'BIZ UDPGothic';fill:#ff0000" id="text1" d="m 73.261719,76.577148 q 14.663086,4.995118 28.842771,12.246094 l -7.143553,8.271485 Q 81.694336,89.360352 69.233398,83.935547 61.123047,93.549805 43.774414,97.094727 l -5.478516,-8.59375 Q 58.222656,84.956055 62.788086,75.180664 H 39.584961 V 65.834961 H 63.916016 V 55.952148 H 75.03418 v 9.882813 h 27.17773 v 9.345703 H 73.691406 q 0,0.107422 -0.429687,1.396484 z m 23.149414,30.830082 v 43.12988 q 0,5.85449 -2.792969,8.05664 -2.30957,1.87988 -8.164062,1.87988 -7.573243,0 -14.931641,-0.80566 l -2.202149,-9.77539 q 7.788086,0.85937 13.320313,0.85937 2.416992,0 2.954102,-0.96679 0.483398,-0.75196 0.483398,-2.73926 V 107.40723 H 32.709961 V 97.416992 H 107.5293 v 9.990238 z M 14.125977,79.692383 V 55.952148 H 25.136719 V 79.692383 H 35.234375 V 90.380859 H 25.136719 v 37.275391 q 5.961914,-2.20215 10.205078,-3.9209 l 1.396484,10.20508 Q 23.417969,140.49316 4.9951172,146.34766 L 1.2353516,134.90723 q 6.1767578,-1.55762 12.8906254,-3.59864 V 90.380859 H 2.7929688 V 79.692383 Z m 62.573242,34.750977 v 29.4873 H 51.293945 v 5.63965 h -9.882812 v -35.12695 z m -25.405274,8.80859 v 11.7627 h 15.844727 v -11.7627 z M 170.69336,72.548828 v 27.285156 h 35.77148 v 10.688476 h -35.77148 v 34.16016 h 44.6875 v 10.90332 h -100.6543 v -10.90332 h 43.77442 v -34.16016 h -34.8584 V 99.833984 h 34.8584 V 72.548828 h -39.69239 v -10.90332 h 92.49024 v 10.90332 z m 27.39258,68.320312 Q 192.23145,130.8252 182.50977,120.5127 l 9.77539,-6.17676 q 9.61425,9.99023 15.95214,19.71191 z M 312.16797,58.583984 V 110.62988 H 248.25195 V 58.583984 Z m -52.36817,8.486328 v 6.713868 h 40.7129 v -6.713868 z m 0,14.28711 v 6.713867 h 40.7129 v -6.713867 z m 0,14.287109 v 6.928709 h 40.7129 v -6.928709 z m -21.6455,22.128909 h 89.05273 v 9.3457 h -44.41894 v 33.35449 H 270.5957 V 127.11914 H 226.3916 V 66.855469 h 11.7627 z m -13.75,32.4414 q 12.7832,-5.9082 24.43847,-19.81933 l 9.88282,5.74707 q -11.49414,14.55566 -25.5127,22.88086 z m 92.59765,6.92871 q -8.21777,-10.09765 -24.70703,-21.21582 l 9.23828,-6.49902 q 12.94434,7.46582 25.40528,19.60449 z M 399.60937,76.416016 V 55.952148 h 10.90333 v 20.463868 h 22.55859 V 86.889648 H 410.5127 v 18.315432 h 26.69433 v 10.47363 h -24.5459 q 6.875,20.41016 25.78125,33.99902 l -6.92871,10.7959 q -8.70117,-6.71386 -16.91894,-18.53027 -5.20996,-7.46582 -8.43262,-16.48926 -7.94922,25.08301 -29.00391,35.98633 l -7.57324,-9.13086 q 12.67578,-5.58594 20.89356,-17.72461 5.47851,-8.11035 7.94921,-18.90625 H 374.2041 v -10.47363 h 25.40527 V 86.889648 h -11.333 q -2.73926,7.734375 -6.92871,14.663082 l -7.89551,-6.230464 h -13.42774 v 8.217774 q 8.27149,6.17676 13.96485,12.46094 l -6.06934,10.04394 q -3.27637,-5.58594 -7.89551,-11.11816 v 45.54687 h -10.58105 v -46.6748 q -5.53223,15.52246 -13.10547,26.10351 l -5.58594,-10.90332 q 11.60157,-14.50195 17.24121,-33.676754 H 332.63184 V 85.117187 h 16.81152 v -13.80371 q -6.23047,1.235351 -12.62207,1.933593 l -3.86719,-8.486328 q 18.26172,-2.416992 33.46192,-8.271484 l 6.44531,8.486328 q -4.94141,1.71875 -12.83692,3.920898 v 16.220703 h 13.53516 v 8.325196 q 6.28418,-11.333008 9.88281,-30.668946 l 10.09766,1.987305 q -0.91309,6.337891 -2.20215,11.655274 z m 87.97852,53.012694 q -6.49902,-6.33789 -14.28711,-16.11328 -4.88769,-6.12305 -8.96973,-12.35352 l 8.8086,-7.519527 q 8.11035,13.266597 22.66601,27.661137 11.87012,-13.85743 18.31543,-29.379887 l 11.11817,5.478515 q -6.23047,13.535152 -14.17969,23.740232 -2.36328,3.06153 -6.55273,7.78809 16.81152,12.62207 42.53906,20.03418 l -7.46582,11.44043 q -26.47949,-9.39942 -43.55957,-22.98828 -17.13379,15.30761 -45.00977,23.36425 l -6.60644,-9.61425 q 18.79882,-5.53223 30.34668,-12.13868 6.92871,-4.02832 12.83691,-9.39941 z M 444.61914,93.549805 q 19.38965,-12.783203 31.04492,-35.180664 l 10.95703,5.478515 q -14.66308,26.31836 -34.16015,38.940434 z m 91.41602,8.916015 Q 520.24414,80.229492 503.27148,63.740234 l 9.77539,-6.123047 q 16.48926,15.629883 32.65625,36.416016 z m 70.2539,-3.007812 v 42.539062 q 0,4.13574 3.54492,4.99512 3.65235,0.91308 16.70411,0.91308 12.72949,0 16.81152,-1.28906 2.30957,-0.75195 3.00781,-4.18945 0.91309,-4.83399 0.9668,-11.44043 l 11.22558,3.16894 Q 657.69043,150 654.19922,154.4043 q -2.30957,2.90039 -6.98242,3.4375 -7.3584,0.80566 -24.97559,0.80566 -13.64258,0 -17.88574,-0.75195 -6.3916,-1.07422 -8.11035,-5.63965 -0.85938,-2.41699 -0.85938,-6.44531 v -42.59278 l -10.25879,3.54493 -2.52441,-10.419927 12.7832,-4.404296 V 62.988281 h 10.90332 v 25.19043 l 11.54785,-3.920899 V 55.952148 h 10.7959 v 24.545899 l 17.99317,-6.176758 5.63964,3.4375 v 40.229491 q 0,4.18945 -1.9873,6.23047 -2.25586,2.25586 -7.57324,2.25586 -4.35059,0 -9.23828,-0.75195 l -1.77246,-10.25879 q 3.16894,0.80566 6.44531,0.80566 2.36328,0 2.90039,-0.9668 0.53711,-0.80566 0.53711,-2.68554 V 87.211914 l -12.94434,4.511719 v 43.452147 h -10.7959 V 95.429687 Z M 566.81152,81.894531 V 55.952148 h 11.54785 v 25.942383 h 10.41993 v 10.903321 h -10.41993 v 34.160158 q 5.63965,-1.9336 11.17188,-4.02832 l 1.02051,10.36621 q -17.40235,7.94922 -35.71778,13.32031 l -3.75976,-11.44043 q 8.27148,-2.14844 14.50195,-4.08203 0.75195,-0.26855 1.23535,-0.37598 V 92.797852 H 553.16895 V 81.894531 Z m 145.3418,3.007813 q -0.37598,8.969726 -1.07422,15.791016 h 43.29102 q -0.80567,37.27539 -4.18946,48.39355 -1.71875,5.58594 -6.3916,7.73438 -3.65234,1.66504 -10.68847,1.66504 -7.41211,0 -16.81153,-1.12793 l -2.09472,-12.08496 q 12.62207,1.77246 17.77832,1.77246 4.35058,0 5.53222,-2.4707 2.84668,-6.01563 3.97461,-33.19336 h -31.95801 q -1.77246,9.66796 -4.99511,16.75781 -8.96973,19.60449 -29.97071,31.09863 l -8.48632,-9.45312 q 21.05468,-10.95704 27.82226,-28.73536 4.51172,-11.87011 5.85449,-36.147456 H 664.18945 V 73.891602 h 43.88184 V 55.952148 h 12.40723 v 17.939454 h 45.33203 v 11.010742 z"></path>
</svg>
