<svg xmlns="http://www.w3.org/2000/svg" id="svg1" version="1.1" height="200" width="990">
  <defs id="defs1"></defs>
  <rect id="rect1" stroke="none" fill="none" height="200" width="990" y="0" x="0"></rect>
  <path aria-label="三河湾" style="font-size:100px;font-family:'BIZ UDPGothic';fill:#ff0000" id="text1" d="M 11.083984,75.292969 H 88.916016 V 82.8125 H 11.083984 Z m 5.419922,32.031251 h 66.894531 v 7.32422 H 16.503906 Z M 4.0039062,142.38281 H 95.996094 V 150 H 4.0039062 Z M 187.10937,78.662109 V 150 q 0,4.3457 -2.0996,6.39648 -2.19727,2.09961 -7.76368,2.09961 -8.10547,0 -14.9414,-0.58593 l -1.9043,-7.71485 q 8.59375,1.02539 15.38086,1.02539 2.83203,0 3.36914,-1.26953 0.3418,-0.78125 0.3418,-2.34375 V 78.662109 h -53.17383 v -6.982422 h 71.48437 v 6.982422 z m -18.89648,14.746094 v 37.792967 h -25.53711 v 7.91016 h -7.17773 V 93.408203 Z m -25.53711,6.494141 v 24.804686 h 18.45703 V 99.902344 Z m -21.875,-12.988282 q -8.10547,-9.423828 -15.38086,-15.429687 l 5.3711,-5.273438 q 7.91015,6.201172 15.42968,14.892579 z m -3.32031,25.488278 q -8.1543,-9.17968 -15.47852,-15.185543 l 5.32227,-5.517578 q 7.91016,6.005859 15.77148,14.892581 z m -13.28125,40.38086 q 9.66797,-12.79297 18.31055,-33.39843 l 6.20117,4.73632 q -7.51953,19.67774 -18.11524,34.47266 z M 265.08789,73.583984 h 32.12891 v 6.298828 h -23.38868 v 19.189454 q 0,3.076174 -1.5625,4.492184 -1.5625,1.41602 -5.66406,1.41602 -5.02929,0 -8.49609,-0.48828 l -1.12305,-6.298831 q 4.39453,0.683594 7.4707,0.683594 1.61133,0 1.9043,-1.171875 0.14649,-0.537109 0.14649,-1.416016 v -16.40625 h -10.64454 q -0.43945,9.91211 -2.24609,14.794922 -2.63672,6.982426 -12.01172,11.914066 l -5.07812,-4.83399 q 8.49609,-4.052732 10.69336,-10.058591 1.46484,-4.003907 1.61132,-11.816407 h -21.82617 v -6.298828 h 30.32227 v -9.082031 h 7.76367 z m 24.60938,35.009766 v 18.79883 h -49.60938 q -0.53711,3.90625 -1.31836,7.32422 h 55.32227 q -0.97657,12.30468 -3.41797,18.01757 -1.66016,3.95508 -5.95703,5.56641 -3.32032,1.2207 -9.22852,1.2207 -7.91016,0 -15.86914,-0.78125 l -1.70898,-7.03125 q 10.69336,1.12305 17.48046,1.12305 4.19922,0 5.66407,-0.97656 2.58789,-1.70899 4.15039,-11.03516 h -47.94922 q -0.73242,2.68555 -1.66016,5.71289 l -7.71484,-1.80664 q 2.92969,-8.64258 5.32226,-23.24218 h 48.68165 v -6.98243 h -52.39258 v -5.9082 z M 219.18945,86.083984 q -6.29883,-8.349609 -13.96484,-15.08789 l 5.37109,-4.980469 q 7.37305,5.810547 14.20899,14.501953 z m -3.07617,25.439456 q -7.4707,-9.13086 -14.50195,-15.136721 l 5.32226,-5.273438 q 7.56836,6.103516 14.79493,14.501949 z m -12.30469,41.69922 q 8.4961,-12.74414 15.91797,-33.39844 l 6.00586,4.39453 q -6.39648,19.28711 -15.42969,34.66797 z m 87.89063,-50.14649 Q 284.86328,93.261719 276.9043,85.791016 l 5.32226,-3.90625 q 9.08203,7.666015 15.28321,16.699218 z m -69.28711,-4.589842 q 8.44726,-6.054687 13.62305,-15.478516 l 6.29882,2.587891 q -5.22461,10.546875 -14.50195,17.480467 z"></path>
</svg>
