<svg xmlns="http://www.w3.org/2000/svg" id="svg1" version="1.1" height="200" width="1096">
  <defs id="defs1"></defs>
  <rect id="rect1" stroke="none" fill="none" height="200" width="1096" y="0" x="0"></rect>
  <path aria-label="東シナ海" style="font-weight:bold;font-size:110px;font-family:'BIZ UDPGothic';fill:#ff0000" id="text1" d="m 72.617187,125.56152 q 13.320313,11.87012 35.878903,19.17481 l -6.92871,10.09765 Q 88.569336,150.21484 78.901367,143.66211 68.911133,136.84082 60.478516,126.9043 v 33.56933 H 48.823242 v -32.97851 q -7.46582,10.47363 -19.282226,18.79883 -9.077149,6.3916 -19.44336,10.3125 l -7.3583982,-9.45313 q 17.0263672,-5.63965 28.4130862,-15.2002 3.222656,-2.68554 6.552734,-6.3916 H 11.870117 V 81.572266 H 48.823242 V 74.321289 H 4.296875 V 64.65332 h 44.526367 v -8.701172 h 11.655274 v 8.701172 h 45.224614 v 9.667969 H 60.478516 v 7.250977 H 98.129883 V 125.56152 Z M 48.823242,90.595703 H 23.525391 v 8.701172 h 25.297851 z m 11.655274,0 v 8.701172 H 86.474609 V 90.595703 Z M 48.823242,107.67578 H 23.525391 v 8.86231 h 25.297851 z m 11.655274,0 v 8.86231 h 25.996093 v -8.86231 z M 157.21191,84.418945 Q 141.36719,77.329102 124.87793,72.548828 l 3.49121,-10.634766 q 18.58398,4.619141 32.60254,11.279297 z m -11.01074,27.500005 q -13.21289,-5.80079 -32.33398,-11.87012 l 4.61914,-10.742189 q 16.43554,4.350586 31.90429,11.547849 z m -25.40527,29.59472 q 21.96777,-1.82617 34.42871,-6.66015 18.42285,-7.03614 28.95019,-25.13672 7.03614,-12.084964 11.11817,-30.561527 l 10.84961,6.28418 q -5.20996,23.149417 -14.55567,36.899417 -10.95703,16.05957 -30.56152,23.74023 -13.80371,5.31738 -36.79199,7.46582 z M 256.79199,58.90625 h 12.29981 v 25.19043 h 40.71289 V 95.322266 H 269.0918 q -0.0537,16.328124 -1.71875,24.492184 -5.20996,25.56641 -33.3545,37.86621 l -7.57324,-9.99023 q 18.74512,-7.73438 25.45899,-21.1084 3.54492,-7.14355 4.40429,-16.91894 0.42969,-4.99512 0.4834,-14.340824 H 213.87695 V 84.09668 h 42.91504 z m 156.6211,26.210937 q 0,2.524415 -0.4834,23.955083 h 10.25879 v 9.66796 h -10.47364 q -0.16113,7.03614 -0.69824,15.95215 h 9.07715 v 9.45313 h -9.77539 q -0.64453,7.78808 -1.77246,10.3125 -2.52442,6.01562 -12.2461,6.01562 -6.23046,0 -11.49414,-0.91308 L 383.81836,150 q 7.57324,1.07422 11.60156,1.07422 3.27637,0 3.9209,-2.30957 0.32227,-1.12793 0.59082,-4.61914 h -38.24219 q -0.0537,0.42969 -0.16113,0.91308 -0.4834,2.84668 -0.91309,5.3711 l -11.11816,-1.07422 q 3.27637,-19.38965 4.4043,-29.32617 l 0.16113,-1.28907 h -10.74219 v -9.66796 h 11.87012 q 1.50391,-12.998051 2.57812,-23.955083 z m -33.94532,9.345704 h -11.76269 q -0.16113,2.739257 -0.9668,11.547849 l -0.32226,3.06153 h 11.92382 l 0.16114,-1.50391 q 0.10742,-1.55762 0.32226,-4.35059 0.53711,-7.519528 0.64453,-8.754879 z m 10.58106,0 q -0.26856,6.391599 -0.80567,14.125979 v 0.4834 h 12.62207 q 0.21485,-7.3584 0.37598,-14.609379 z m -12.56836,24.277339 h -12.08496 q -0.80567,6.55274 -1.71875,12.94434 l -0.42969,3.00781 h 12.56836 q 1.28906,-11.65527 1.66504,-15.95215 z m 11.01074,0 q -0.16113,2.14844 -0.64453,7.08985 l -0.85938,8.8623 h 13.69629 q 0.26856,-5.20996 0.42969,-7.84179 0.32227,-5.74707 0.42969,-8.11036 z M 367.43652,65.727539 h 51.88477 v 9.990234 h -56.34277 q -4.35059,8.862305 -11.06446,16.865235 l -7.68066,-8.378906 q 10.58105,-12.407227 15.03906,-28.574219 l 11.44043,1.18164 q -1.93359,5.585938 -3.27637,8.916016 z M 337.8418,81.357422 q -6.60645,-9.077149 -16.05957,-17.026367 l 8.11035,-7.841797 q 8.75488,6.445312 16.65039,16.274414 z M 333.97461,109.7168 Q 325.81055,99.243164 317.48535,92.15332 l 8.37891,-8.05664 q 9.3457,7.358398 16.81152,16.75781 z m -14.60938,42.16308 q 9.34571,-12.94433 17.72461,-34.10644 l 9.56055,6.82129 q -6.98242,19.55078 -17.93945,35.8789 z"></path>
</svg>
