<svg xmlns="http://www.w3.org/2000/svg" id="svg1" version="1.1" height="200" width="1096">
  <defs id="defs1"></defs>
  <rect id="rect1" stroke="none" fill="none" height="200" width="1096" y="0" x="0"></rect>
  <path aria-label="東京湾" style="font-weight:bold;font-size:110px;font-family:'BIZ UDPGothic';fill:#ff0000" id="text1" d="m 72.617187,125.56152 q 13.320313,11.87012 35.878903,19.17481 l -6.92871,10.09765 Q 88.569336,150.21484 78.901367,143.66211 68.911133,136.84082 60.478516,126.9043 v 33.56933 H 48.823242 v -32.97851 q -7.46582,10.47363 -19.282226,18.79883 -9.077149,6.3916 -19.44336,10.3125 l -7.3583982,-9.45313 q 17.0263672,-5.63965 28.4130862,-15.2002 3.222656,-2.68554 6.552734,-6.3916 H 11.870117 V 81.572266 H 48.823242 V 74.321289 H 4.296875 V 64.65332 h 44.526367 v -8.701172 h 11.655274 v 8.701172 h 45.224614 v 9.667969 H 60.478516 v 7.250977 H 98.129883 V 125.56152 Z M 48.823242,90.595703 H 23.525391 v 8.701172 h 25.297851 z m 11.655274,0 v 8.701172 H 86.474609 V 90.595703 Z M 48.823242,107.67578 H 23.525391 v 8.86231 h 25.297851 z m 11.655274,0 v 8.86231 h 25.996093 v -8.86231 z M 170.58594,66.748047 h 44.31152 V 76.953125 H 115.04883 V 66.748047 h 43.66699 V 55.952148 h 11.87012 z m 33.13965,19.228515 V 121.0498 h -31.68946 v 30.18555 q 0,4.61914 -2.04101,6.71387 -2.417,2.52441 -9.61426,2.52441 -7.73438,0 -15.41504,-0.80566 l -2.41699,-11.01074 q 7.41211,1.12793 14.87793,1.12793 2.09472,0 2.52441,-1.02051 0.21485,-0.4834 0.21485,-1.39649 V 121.0498 H 126.27441 V 85.976562 Z m -65.15137,9.667969 v 15.737309 h 52.85156 V 95.644531 Z m 67.89062,60.317379 q -9.66797,-14.17968 -21.43066,-25.67382 l 8.64746,-6.82129 q 11.49414,10.3125 22.23633,24.22363 z m -93.94043,-7.62695 q 13.37403,-9.29199 21.00098,-23.41797 l 10.47363,5.47852 q -7.78808,15.36133 -22.98828,26.85547 z M 302.9834,74.106445 v 20.786133 q 0,3.544922 -1.50391,5.209962 -1.77246,1.93359 -7.84179,1.93359 -5.80079,0 -9.50684,-0.64453 l -1.39649,-8.916014 q 4.24317,0.859375 7.14356,0.859375 1.55762,0 1.9873,-0.751953 0.32227,-0.644531 0.32227,-2.094727 V 74.106445 h -9.56055 q -0.42968,11.333008 -3.00781,17.402344 -2.84668,6.606445 -11.76269,12.084961 l -7.68067,-6.821289 q 8.05664,-4.189453 10.36621,-10.795899 1.39649,-4.135742 1.71875,-11.870117 h -21.21582 v -9.130859 h 30.56153 v -9.023438 h 11.8164 v 9.023438 h 33.73047 v 9.130859 z m 16.59668,30.454105 v 21.80664 h -53.0127 q -0.42968,2.9541 -1.02051,5.9082 h 58.65235 q -1.34277,14.77051 -3.70606,20.24902 -3.4375,7.94922 -16.11328,7.94922 -10.52734,0 -22.6123,-0.91308 l -1.98731,-9.77539 q 11.54785,1.23535 20.67871,1.23535 4.94141,0 6.49903,-1.12793 2.41699,-1.77246 3.75976,-9.23828 h -47.26562 q -0.59082,2.20215 -2.04102,6.60644 l -11.54785,-2.30957 q 4.08203,-12.24609 6.12305,-26.47949 h 51.83105 v -5.74707 h -55 v -8.16406 z M 240.57129,80.820312 q -5.96192,-8.271484 -15.25391,-16.381835 l 8.00293,-7.626954 q 8.43262,6.176758 15.84473,15.737305 z m -3.27637,27.714848 Q 229.02344,98.061523 221.23535,91.455078 l 8.05664,-7.788086 q 8.05664,6.176758 16.59668,15.952149 z M 223.4375,151.9873 q 9.45312,-14.71679 17.93945,-37.75878 l 8.8086,6.49902 q -7.03614,21.32324 -16.86524,39.85351 z m 95.71289,-51.50878 Q 312.11426,89.091797 304.37988,80.820312 l 8.16407,-5.263671 q 9.45312,8.59375 15.30761,18.798828 z m -75.1416,-6.445317 q 7.8418,-6.445312 12.89062,-17.080078 l 9.77539,3.652344 q -5.26367,11.977539 -14.55566,19.980471 z"></path>
</svg>
