<svg xmlns="http://www.w3.org/2000/svg" id="svg1" version="1.1" height="200" width="990">
  <defs id="defs1"></defs>
  <rect id="rect1" stroke="none" fill="none" height="200" width="990" y="0" x="0"></rect>
  <path aria-label="日本海西部" style="font-size:100px;font-family:'BIZ UDPGothic';fill:#ff0000" id="text1" d="m 86.376953,70.214844 v 87.304686 h -8.300781 v -7.91016 H 21.679687 v 7.8125 H 13.378906 V 70.214844 Z M 21.679687,77.294922 V 105.51758 H 78.076172 V 77.294922 Z m 0,35.009768 v 29.98047 H 78.076172 V 112.30469 Z M 156.39648,90.820312 q 7.12891,12.353518 17.96875,23.535158 10.49805,10.9375 23.4375,18.75 l -5.12695,6.88476 q -15.13672,-10.20507 -26.80664,-24.26757 -7.37305,-8.83789 -12.35352,-17.919926 v 34.423826 h 19.87305 v 7.08008 h -19.67773 v 20.21484 h -8.10547 V 139.30664 H 126.9043 v -7.08008 h 18.89648 V 98.4375 q -6.10351,13.13477 -17.23633,25.53711 -9.08203,10.20508 -20.65429,18.21289 l -5.32227,-6.39648 q 25.14649,-15.72266 40.33203,-44.970708 h -38.03711 v -7.324218 h 40.72266 V 64.501953 h 8.10547 v 18.994141 h 41.35742 v 7.324218 z m 81.68946,0 h 49.90234 q 0,2.636719 -0.68359,22.998048 h 10.20508 v 6.5918 h -10.44922 q -0.19532,6.25 -0.87891,17.91992 h 9.7168 v 6.49414 h -10.20508 q -0.63477,7.27539 -1.70899,9.66797 -2.14843,5.02929 -10.49804,5.02929 -4.73633,0 -11.08399,-0.78125 l -1.41601,-6.83593 q 7.32422,1.02539 12.06054,1.02539 2.73438,0 3.61329,-1.22071 0.78125,-1.12304 1.31836,-6.10351 l 0.0488,-0.78125 h -39.01367 l -0.14648,0.78125 -0.14649,0.68359 -0.83008,4.73633 -7.4707,-0.87891 q 2.63672,-14.50195 4.44336,-29.73632 h -9.76562 v -6.5918 h 10.54687 q 1.46484,-12.69531 2.44141,-22.998048 z m 27.58789,6.396485 q -0.19531,3.417973 -0.73242,11.572263 l -0.29297,5.0293 h 15.33203 q 0.0976,-2.09961 0.24414,-5.46875 0.0488,-0.87891 0.19531,-5.56641 0,-1.85547 0.14649,-5.566403 z m -7.12891,0 h -13.81836 q -0.43945,5.957033 -1.51367,16.601563 h 14.0625 q 0.29297,-3.71094 0.43945,-5.56641 0.3418,-3.61328 0.83008,-11.035153 z m -1.80664,23.193363 h -14.25781 q -0.78125,6.64062 -1.95313,14.59961 l -0.48828,3.32031 h 14.79492 l 0.29297,-2.2461 q 1.17188,-9.76562 1.61133,-15.67382 z m 7.32422,0 -0.48828,5.12695 q -0.83008,8.78906 -1.31836,12.79297 h 16.40625 q 0.48828,-6.34766 0.73242,-12.30469 l 0.29297,-5.61523 z M 244.9707,73.779297 h 48.92578 v 6.689453 h -52.00195 q -4.00391,7.958984 -9.91211,14.941406 l -5.37109,-5.224609 q 9.47265,-10.546875 14.01367,-25.78125 l 7.4707,0.78125 q -1.5625,4.833984 -3.125,8.59375 z m -24.75586,12.5 q -6.44531,-8.447266 -14.40429,-15.38086 l 5.27343,-5.078125 q 7.51954,5.810547 14.69727,14.697266 z m -3.51562,25.732423 Q 209.0332,102.68555 201.9043,96.679687 l 5.41992,-5.371093 q 8.39844,6.787109 15.08789,14.794926 z m -12.69531,41.06445 q 8.88671,-12.64648 16.21093,-31.98242 l 6.39649,4.6875 q -7.37305,19.92187 -16.3086,33.00781 z M 333.59375,93.701172 V 77.197266 H 302.7832 V 70.3125 h 94.38477 v 6.884766 h -33.88672 v 16.503906 h 27.7832 V 157.8125 h -7.8125 V 150 h -66.65039 v 7.8125 h -7.71484 V 93.701172 Z m 7.51953,0 h 14.64844 V 77.197266 h -14.64844 z m -7.56836,6.591798 h -16.94336 v 42.91992 h 66.65039 v -17.23633 h -20.16601 q -7.32422,0 -7.32422,-6.59179 v -19.0918 h -14.69727 q -0.43945,10.5957 -3.125,16.89453 -3.80859,8.93555 -14.9414,15.52734 l -4.98047,-5.61523 q 10.40039,-5.41992 13.52539,-14.50195 1.51367,-4.44336 2.00195,-12.30469 z m 29.73633,0 v 16.50391 q 0,1.51367 0.58594,1.95312 0.53711,0.43945 1.80664,0.43945 h 17.57812 v -18.89648 z m 70.70312,-23.681642 h 21.82618 v 6.787109 h -7.03125 q -2.05078,9.13086 -5.61524,18.701173 h 14.45313 v 6.88477 h -55.12696 v -6.88477 h 13.72071 l -0.0977,-0.48828 Q 414.0625,91.601562 411.71875,84.423828 l -0.3418,-1.025391 h -7.08008 v -6.787109 h 22.2168 V 64.501953 h 7.4707 z m -15.13671,6.787109 q 2.58789,7.958985 4.73632,18.701173 h 12.15821 q 2.92968,-8.105469 5.32226,-18.701173 z m 31.83593,35.888673 v 39.30664 h -7.32422 v -5.51758 h -25.97656 v 6.39649 h -7.56836 v -40.18555 z m -33.30078,6.68945 v 20.3125 h 25.97656 v -20.3125 z m 65.42969,-22.70508 q 12.8418,13.57422 12.8418,29.44336 0,5.56641 -2.00196,8.39844 -2.4414,3.27149 -8.49609,3.27149 -5.81055,0 -10.69336,-0.6836 l -1.61133,-7.61719 q 6.25,1.02539 10.15625,1.02539 3.71094,0 4.39453,-2.49023 0.29297,-1.07422 0.29297,-3.51562 0,-13.72071 -12.64648,-26.70899 5.85937,-12.695311 9.52148,-26.708983 h -15.42969 v 81.787113 h -7.37304 V 70.507812 h 27.49023 l 4.39453,3.808594 q -5.37109,17.382813 -10.83984,28.955074 z"></path>
</svg>
