<svg xmlns="http://www.w3.org/2000/svg" id="svg1" version="1.1" height="200" width="990">
  <defs id="defs1"></defs>
  <rect id="rect1" stroke="none" fill="none" height="200" width="990" y="0" x="0"></rect>
  <path aria-label="釧路沖" style="font-size:100px;font-family:'BIZ UDPGothic';fill:#ff0000" id="text1" d="m 16.162109,89.208984 h 23.828125 v 6.396485 H 28.369141 v 12.988281 h 16.40625 v 6.39648 h -16.40625 v 29.93164 q 8.83789,-2.4414 16.308593,-4.93164 l 0.683594,6.29883 q -17.96875,6.73828 -39.8437499,11.81641 l -2.9296875,-7.12891 q 7.4707034,-1.46484 18.0175784,-4.0039 0.341797,-0.0977 0.585937,-0.14649 V 114.99023 H 2.9785156 v -6.39648 H 21.191406 V 95.605469 H 11.181641 q -1.9531254,2.34375 -5.8105473,6.103511 L 1.8066406,95.3125 Q 13.818359,82.910156 20.996094,64.501953 h 7.763672 q 0.683593,0.683594 1.318359,1.367188 9.716797,10.009765 16.503906,19.238281 l -5.224609,5.615234 Q 35.400391,81.542969 25.976562,71.289062 21.386719,81.835937 16.162109,89.208984 Z M 10.205078,143.01758 Q 8.1542969,132.12891 5.0292969,123.38867 l 6.5917971,-2.29492 q 3.466797,9.13086 5.175781,19.62891 z m 21.09375,-5.41992 q 3.417969,-9.7168 5.126953,-18.11524 l 6.689453,2.00196 q -2.490234,9.9121 -5.908203,17.82226 z M 68.603516,69.287109 h 6.982421 V 148.48633 H 68.603516 Z M 86.71875,66.308594 h 7.177734 V 159.52148 H 86.71875 Z m -35.595703,1.367187 h 7.177734 v 47.705079 q 0,16.30859 -2.099609,25.87891 -2.09961,9.61914 -7.666016,18.01757 l -6.005859,-5.07812 q 5.371094,-7.56836 7.226562,-18.55469 1.367188,-8.20312 1.367188,-20.26367 z M 175.53711,99.072266 q 9.42383,8.154294 22.94922,13.916014 l -3.8086,6.5918 q -13.96484,-6.44531 -23.82812,-15.625 -10.83984,10.15625 -25.97656,16.55273 l -3.95508,-6.20117 q 13.91601,-4.83398 25,-15.332031 -5.66406,-6.396484 -9.08203,-12.646484 -0.24414,0.341797 -0.58594,0.78125 -3.61328,4.6875 -8.74023,9.082031 l -4.93165,-5.322265 Q 154.83398,81.25 160.88867,64.404297 l 7.42188,1.171875 q -1.22071,2.978515 -2.19727,5.126953 h 19.38477 L 190.2832,75 q -6.00586,14.208984 -14.74609,24.072266 z m -5.07813,-4.833985 q 6.34766,-7.373047 10.83985,-16.845703 h -18.60352 q -0.53711,0.976563 -1.75781,2.929688 l -0.3418,0.585937 q 3.90625,6.982422 9.86328,13.330078 z M 141.06445,68.603516 v 32.470704 h -12.89062 v 15.82031 h 12.98828 v 6.5918 h -12.98828 v 20.89844 q 6.05469,-1.5625 15.2832,-4.49219 l 0.68359,6.49414 q -19.2871,6.64062 -39.35546,11.18164 l -2.58789,-7.08008 q 2.14843,-0.43945 4.0039,-0.83008 l 1.31836,-0.29297 v -38.96484 h 6.78711 v 37.45117 l 2.44141,-0.58594 2.4414,-0.58593 2.09961,-0.53711 V 101.07422 H 106.68945 V 68.603516 Z m -27.29492,6.689453 v 19.287109 h 20.21484 V 75.292969 Z m 76.12305,44.824221 v 39.40429 h -7.32422 v -5.9082 h -25.43945 v 5.9082 h -7.32422 v -39.40429 z m -32.76367,6.68945 v 20.21484 h 25.43945 V 126.80664 Z M 258.69141,85.302734 V 64.501953 h 7.71484 v 20.800781 h 27.7832 v 40.478516 h -27.7832 v 33.69141 h -7.71484 v -33.69141 h -26.9043 V 85.302734 Z m -19.38477,6.982422 v 26.513674 h 19.38477 V 92.285156 Z m 47.26563,26.513674 V 92.285156 H 266.40625 V 118.79883 Z M 221.77734,86.621094 q -6.54297,-8.34961 -15.2832,-15.527344 l 5.32227,-5.273438 q 8.30078,6.201172 15.67382,14.990235 z m -3.66211,25.488286 q -7.66601,-8.8379 -15.91796,-15.527349 l 5.41992,-5.46875 q 8.39843,6.201172 16.16211,14.990239 z m -13.7207,40.57617 q 9.52149,-12.69532 17.48047,-32.86133 l 6.29883,5.07812 q -7.32422,19.14063 -17.08985,33.69141 z"></path>
</svg>
