<svg xmlns="http://www.w3.org/2000/svg" id="svg1" version="1.1" height="200" width="1096">
  <defs id="defs1"></defs>
  <rect id="rect1" stroke="none" fill="none" height="200" width="1096" y="0" x="0"></rect>
  <path aria-label="周防灘" style="font-weight:bold;font-size:110px;font-family:'BIZ UDPGothic';fill:#ff0000" id="text1" d="m 79.116211,113.90625 v 28.30566 H 42.96875 v 5.69336 H 32.172852 V 113.90625 Z M 68.15918,122.39258 H 42.96875 v 11.01074 h 25.19043 z m 32.11914,-62.573244 v 88.085934 q 0,7.14356 -3.652343,9.39942 -2.631836,1.61133 -9.72168,1.61133 -8.916016,0 -17.77832,-0.75196 l -2.416993,-11.44043 q 9.506836,1.07422 17.617188,1.07422 2.954101,0 3.544922,-0.64453 0.483398,-0.59082 0.483398,-2.84668 V 69.594727 H 23.095703 v 30.239257 q 0,26.425786 -1.826172,38.027346 -1.933594,12.56836 -8.110351,23.04199 l -9.8828128,-8.27148 q 5.6396484,-10.15137 7.0361328,-24.16993 1.020508,-9.56054 1.020508,-26.85546 V 59.819336 Z M 61.230469,80.605469 h 21.108398 v 8.59375 H 61.230469 v 8.325195 h 23.417968 v 8.701176 H 26.801758 V 97.524414 H 49.897461 V 89.199219 H 29.21875 v -8.59375 h 20.678711 v -7.841797 h 11.333008 z m 119.667971,3.652343 q -0.16114,9.184571 -0.64453,15.361329 h 29.54101 q -0.32226,32.709959 -2.63183,49.038089 -0.53711,4.18945 -2.68555,6.60644 -3.22266,3.75977 -11.49414,3.75977 -7.8418,0 -14.01856,-0.64453 l -2.09472,-11.92383 q 7.19726,1.45019 13.37402,1.45019 3.59863,0 4.67285,-1.82617 2.63184,-4.4043 3.27637,-36.25488 h -19.01367 q -4.29688,35.12695 -26.37207,50.54199 l -8.54004,-8.48633 q 16.32812,-11.06445 21.21582,-31.15234 3.33008,-13.69629 3.75976,-36.469728 H 149.85352 V 73.569336 h 24.38476 V 55.952148 h 11.7627 v 17.617188 h 31.25976 v 10.688476 z m -39.20899,11.171875 q 10.36621,13.266603 10.36621,27.661133 0,7.03613 -2.41699,10.41992 -3.06152,4.18946 -10.90332,4.18946 -3.81348,0 -7.78808,-0.53711 l -2.30957,-11.01075 q 4.9414,0.9668 7.78808,0.9668 2.73926,0 3.4375,-1.07422 0.75195,-1.28906 0.75195,-5.04883 0,-12.40722 -9.93652,-24.438473 5.10254,-12.514648 7.94922,-25.996094 H 127.50977 V 160.47363 H 116.28418 V 60.463867 h 30.13184 l 5.4248,4.833985 Q 147.00684,82.96875 141.68945,95.429687 Z M 271.13281,84.633789 v 4.887695 h 14.60938 v 6.606446 q 7.68066,-18.959961 10.36621,-40.65918 l 9.77539,1.450195 q -1.98731,11.333008 -3.81348,18.476563 h 5.58594 q 2.52441,-9.506836 3.9209,-19.335938 l 9.39941,1.71875 q -1.9873,9.453125 -4.78027,17.617188 h 11.17187 v 9.667969 h -10.47363 v 13.696289 h 8.59375 v 9.345704 h -8.59375 v 13.37402 h 8.59375 v 9.50684 h -8.59375 v 14.39453 h 11.54785 v 9.88281 h -26.47949 v 5.15625 h -9.13086 V 100.9082 q -1.18164,2.84668 -3.33008,7.19727 l -3.75976,-10.7959 v 12.89063 h -14.60938 v 5.15625 h 15.36133 v 7.78808 h -15.36133 q -0.10742,3.70606 -0.21484,5.42481 h 18.6914 v 7.78808 h -19.71191 q -0.10742,0.59082 -0.37598,1.71875 9.93653,5.85449 19.33594,13.69629 l -6.3916,8.00293 q -7.30469,-7.08984 -15.68359,-13.32031 l -0.59082,-0.4834 q -6.23047,10.36621 -17.88575,16.00586 l -6.82129,-8.59375 q 10.04395,-3.54492 14.77051,-10.20508 1.87989,-2.57812 3.16895,-6.82129 h -16.11328 v -7.78808 h 17.77832 q 0.37597,-3.70606 0.42968,-5.42481 h -15.30761 v -7.78808 h 15.36133 V 110.2002 H 246.96289 V 89.521484 h 14.50195 v -4.887695 h -9.13086 V 72.65625 h -5.37109 l -8.27148,7.788086 q -5.15625,-8.110352 -14.39454,-17.241211 l 8.16407,-6.928711 q 6.66015,5.532227 13.05176,14.072266 v -5.854493 h 6.82128 v -9.238281 h 9.34571 v 9.238281 h 9.45312 v -9.238281 h 9.23828 v 9.238281 h 8.91602 v 8.164063 h -8.91602 v 11.977539 z m -9.13086,11.708984 h -6.92871 v 7.143557 h 6.92871 z m 8.59375,0 v 7.143557 h 7.25098 V 96.342773 Z M 261.67969,72.65625 v 5.371094 h 9.45312 V 72.65625 Z m 40.2832,12.407227 v 13.696289 h 6.44531 V 85.063477 Z m 0,23.041993 v 13.37402 h 6.44531 v -13.37402 z m 0,22.88086 v 14.39453 h 6.44531 v -14.39453 z m -67.35352,-24.00879 q -7.8955,-10.957032 -14.07226,-17.13379 l 8.37891,-7.036133 q 8.05664,7.197266 14.50195,16.59668 z m -12.99804,46.29883 q 7.57324,-16.167 12.89062,-39.47754 l 9.66797,4.83398 q -4.13574,21.43067 -12.19238,42.27051 z"></path>
</svg>
