<svg xmlns="http://www.w3.org/2000/svg" id="svg4" viewBox="0,0,192,36" height="36" width="192" version="1.1">
  <defs id="defs4"></defs>
  
  <g id="g4" transform="translate(-144,-162)">
    <g id="g3" stroke-miterlimit="10">
      <path id="path1" stroke-linejoin="miter" stroke-linecap="butt" stroke-width="1" stroke="none" fill-rule="nonzero" fill="none" d="M144,198v-36h192v36z"></path>
      <path id="path2" stroke-linejoin="round" stroke-linecap="round" stroke-width="1" stroke="none" fill-rule="evenodd" fill="#7d97b4" d="M317,164c9.31184,0 17,7.09393 17,16c0,8.90606 -7.68816,16 -17,16h-154c-9.31184,0 -17,-7.09394 -17,-16c0,-8.90607 7.68816,-16 17,-16z"></path>
      <path id="path3" stroke-linejoin="round" stroke-linecap="round" stroke-width="1" stroke="none" fill-rule="evenodd" fill="#31476d" d="M163,166h154c8.31,0 15,6.244 15,14c0,7.75599 -6.69,13.99999 -15,13.99999h-154c-8.31,0 -15,-6.244 -15,-13.99999c0,-7.756 6.69,-14 15,-14z"></path>
      <path aria-label="OBSリプレイ出力" transform="translate(144,162)" style="font-weight:bold;font-size:13.4049px;font-family:'BIZ UDPGothic', 'ヒラギノ角ゴ Pro W3', 'Hiragino Kaku Gothic Pro', Osaka, 'メイリオ', Meiryo, 'ＭＳ Ｐゴシック', 'MS PGothic';-inkscape-font-specification:'BIZ UDPGothic, ヒラギノ角ゴ Pro W3, Hiragino Kaku Gothic Pro, Osaka, メイリオ, Meiryo, ＭＳ Ｐゴシック, MS PGothic Bold';fill:#ffffff;stroke-width:0" id="text4" d="m 49.105761,11.890654 q 1.63634,0 2.90614,0.824716 1.348345,0.870533 1.957063,2.45451 0.418903,1.08653 0.418903,2.375966 0,2.17306 -1.138893,3.704675 -0.798534,1.066894 -2.015971,1.583977 -0.988349,0.425449 -2.159969,0.425449 -2.572327,0 -4.07776,-1.898155 -1.223982,-1.544705 -1.223982,-3.815946 0,-1.45307 0.530174,-2.650871 0.949077,-2.127242 3.135228,-2.775233 0.772352,-0.229088 1.669067,-0.229088 z m -0.03927,1.420344 q -1.151984,0 -2.022517,0.739625 -1.381071,1.17162 -1.381071,3.501769 0,1.361435 0.497447,2.36942 0.373086,0.746172 0.981804,1.217438 0.837807,0.64799 1.950518,0.64799 1.570887,0 2.533055,-1.263254 0.870533,-1.145439 0.870533,-2.971594 0,-1.865428 -0.922896,-3.023957 -0.968713,-1.217437 -2.506873,-1.217437 z m 7.239169,-1.165075 h 3.508314 q 1.642885,0 2.546145,0.379631 1.708339,0.706899 1.708339,2.336694 0,1.040713 -0.654536,1.701794 -0.641445,0.6349 -1.695248,0.785444 v 0.04582 q 1.178165,0.202906 1.865428,0.73308 0.896714,0.700354 0.896714,1.858883 0,1.551251 -1.348344,2.389057 -1.021077,0.628355 -2.860323,0.628355 h -3.966489 z m 1.701794,1.341799 v 3.194137 h 1.525069 q 2.683598,0 2.683598,-1.603614 0,-0.870533 -0.870533,-1.295981 -0.602173,-0.294542 -1.727975,-0.294542 z m 0,4.549026 v 3.599949 h 1.891609 q 1.145438,0 1.773793,-0.333813 0.90326,-0.484357 0.90326,-1.446525 0,-1.053803 -1.191256,-1.531615 -0.726535,-0.287996 -1.806519,-0.287996 z m 8.823147,2.218878 q 1.348344,1.518524 3.338134,1.518524 0.90326,0 1.446525,-0.359995 0.641445,-0.438539 0.641445,-1.217437 0,-0.706899 -0.556355,-1.151984 -0.366541,-0.294541 -1.767248,-0.844352 l -0.248724,-0.09818 -0.445084,-0.176725 q -0.04582,-0.01964 -0.163634,-0.06545 -1.43998,-0.543265 -1.865428,-0.896715 -0.06545,-0.05891 -0.163634,-0.163634 -0.700354,-0.752716 -0.700354,-1.813065 0,-1.36798 0.981804,-2.205787 1.027622,-0.877078 2.775234,-0.877078 1.217437,0 2.173059,0.359995 0.759262,0.294541 1.511979,0.90326 l -0.90326,1.256709 q -1.158529,-1.099621 -2.768688,-1.099621 -1.053803,0 -1.531614,0.490902 -0.405813,0.418904 -0.405813,1.014531 0,0.680718 0.589083,1.08653 0.373086,0.261815 1.583977,0.693809 l 0.523629,0.189815 q 1.727976,0.621809 2.369421,1.217437 0.890169,0.831261 0.890169,2.087971 0,1.557795 -1.223982,2.428329 -1.007986,0.713444 -2.749052,0.713444 -2.70978,0 -4.339575,-1.839247 z m 9.726406,-8.495879 h 1.525069 v 7.160625 h -1.525069 z m 6.722086,-0.137452 h 1.525069 v 4.679933 q 0,2.467601 -0.399267,3.671947 -0.333813,1.027622 -0.909805,1.636341 -1.197801,1.289436 -3.848672,1.9047 l -0.752717,-1.341799 q 2.899595,-0.589083 3.717765,-1.957063 0.517084,-0.870533 0.62181,-2.199242 0.04582,-0.615264 0.04582,-1.701794 z m 4.110487,1.63634 h 8.404243 l 1.62325,1.472706 q -0.261815,2.873414 -1.132348,4.522845 -1.021076,1.937426 -3.161409,3.017411 -1.335254,0.674172 -3.560677,1.204347 l -0.752716,-1.328709 q 2.186151,-0.399267 3.462496,-1.034167 2.081425,-1.027622 2.945413,-3.128682 0.536719,-1.309073 0.615263,-3.357771 h -8.443515 z m 10.675484,-2.317058 q 0.438539,0 0.837806,0.242178 0.392721,0.229088 0.608718,0.641446 0.196361,0.36654 0.196361,0.765807 0,0.641445 -0.458175,1.132347 -0.484357,0.517084 -1.197801,0.517084 -0.35345,0 -0.680718,-0.157089 -0.405812,-0.189815 -0.661081,-0.54981 -0.301087,-0.431994 -0.301087,-0.949077 0,-0.399267 0.202906,-0.772353 0.202907,-0.373086 0.543265,-0.602173 0.412358,-0.26836 0.909806,-0.26836 z m -0.0065,0.805079 q -0.242178,0 -0.458175,0.137453 -0.386176,0.242178 -0.386176,0.713444 0,0.333814 0.229087,0.575992 0.248724,0.261815 0.615264,0.261815 0.209452,0 0.386177,-0.09164 0.458175,-0.235633 0.458175,-0.746171 0,-0.359995 -0.255269,-0.608718 -0.235633,-0.242179 -0.589083,-0.242179 z m 3.069774,0.07855 h 1.52507 v 9.811496 q 1.22398,-0.392722 2.1796,-0.909805 2.6836,-1.446525 4.4574,-3.685038 0.52362,-0.661082 1.00144,-1.518524 l 0.96871,1.36798 q -1.36144,2.114152 -3.43632,3.691584 -2.5265,1.917791 -5.75991,2.840687 l -0.93599,-0.916351 z m 16.05578,11.539471 v -6.71554 q -1.98979,1.335254 -4.54249,2.251604 l -0.79198,-1.328708 q 2.89959,-0.975259 5.08574,-2.513419 2.14688,-1.511978 3.82249,-3.462496 l 1.26326,0.791989 q -1.4858,1.708339 -3.31196,3.135228 v 7.841342 z m 12.73726,-7.71698 h 3.19414 v -3.25959 h 1.45962 v 4.562116 h -4.65376 v 4.837022 h 3.6065 v -3.017411 h 1.48579 v 5.177381 h -1.48579 v -0.831261 h -8.59406 v 0.831261 h -1.47271 v -5.177381 h 1.47271 v 3.017411 h 3.52795 v -4.837022 h -4.56866 v -4.562116 h 1.45961 v 3.25959 h 3.10905 v -4.437755 h 1.45961 z m 16.77576,-0.359995 h -3.76358 q -0.22909,2.788324 -1.26325,4.745387 -1.14544,2.179605 -4.01231,3.737401 l -1.06035,-1.204347 q 2.30397,-1.106166 3.57377,-3.135228 0.92944,-1.498887 1.22398,-4.143213 h -4.43775 v -1.341799 h 4.56866 l 0.11127,-2.735961 h 1.51198 l -0.12436,2.735961 h 5.20356 l -0.0131,1.021076 q -0.10473,5.707555 -0.49745,7.343895 -0.18982,0.785444 -0.75272,1.099621 -0.44508,0.255269 -1.21743,0.255269 -1.17162,0 -2.50033,-0.189815 l -0.28145,-1.52507 q 1.39416,0.255269 2.30397,0.255269 0.74617,0 0.92289,-0.412357 0.11127,-0.274905 0.24872,-1.583978 0.18328,-1.799974 0.25527,-4.922111 z"></path>
    </g>
  </g>
</svg>


