<svg xmlns="http://www.w3.org/2000/svg" id="svg1" version="1.1" height="200" width="990">
  <defs id="defs1"></defs>
  <rect id="rect1" stroke="none" fill="none" height="200" width="990" y="0" x="0"></rect>
  <path aria-label="長崎県南西部" style="font-size:100px;font-family:'BIZ UDPGothic';fill:#ff0000" id="text1" d="m 28.515625,75 v 7.8125 h 53.759766 v 6.103516 H 28.515625 v 7.861328 H 82.275391 V 102.7832 H 28.515625 v 8.39844 h 68.994141 v 6.29883 H 52.832031 q 3.515625,8.49609 10.69336,15.47851 12.011718,-6.98242 20.849609,-14.5996 l 6.201172,5.41992 q -10.15625,7.37304 -22.070313,13.52539 11.181641,8.64258 29.101563,13.86718 l -5.126953,6.88477 Q 78.027344,153.02734 69.042969,146.97266 51.904297,135.49805 45.410156,117.48047 H 28.515625 v 31.20117 l 0.683594,-0.14648 q 14.355468,-3.125 28.417968,-7.56836 l 0.585938,6.68945 q -22.802734,7.66602 -45.996094,12.01172 L 9.5703125,152.29492 Q 14.941406,151.36719 20.507812,150.3418 V 117.48047 H 2.4902344 v -6.29883 H 20.507812 V 68.701172 H 87.5 V 75 Z m 159.863285,35.00977 v 41.40625 q 0,4.44335 -2.2461,6.25 -2.00195,1.66015 -6.83594,1.66015 -6.10351,0 -12.01171,-0.58594 l -1.70899,-7.32421 q 7.4707,1.02539 12.10938,1.02539 2.29492,0 2.83203,-0.92774 0.43945,-0.68359 0.43945,-2.19726 v -39.30664 h -44.28711 v 30.81054 h -25.78125 v 8.10547 h -6.59179 V 82.617187 h 6.59179 v 51.220703 h 6.29883 V 65.625 h 6.68945 v 68.21289 h 6.39649 V 82.617187 h 6.39648 v 20.800783 h 60.88867 v 6.5918 z M 161.47461,74.609375 V 64.501953 h 7.32422 v 10.107422 h 23.87695 v 6.494141 H 168.4082 q -0.34179,1.416015 -0.73242,2.539062 11.76758,5.078125 23.82813,12.353516 l -4.6875,5.615236 q -10.15625,-6.689455 -21.82618,-12.695314 -3.07617,4.492187 -6.93359,7.324218 -5.17578,3.710938 -13.57422,5.957036 l -4.10156,-5.712895 q 9.86328,-2.392578 14.50195,-6.494141 4.83399,-4.248047 6.15235,-8.886718 h -20.94727 v -6.494141 z m 11.32812,43.798825 v 24.80469 h -22.41211 v 5.27344 h -6.59179 V 118.4082 Z m -22.41211,6.29883 v 12.30469 h 15.91797 V 124.70703 Z M 282.86133,67.578125 V 114.4043 H 225.78125 V 67.578125 Z m -49.36524,6.005859 v 7.714844 h 41.55274 v -7.714844 z m 0,13.330078 v 7.763672 h 41.55274 v -7.763672 z m 0,13.476568 v 8.30078 h 41.55274 v -8.30078 z M 214.4043,122.2168 h 83.05664 v 6.49414 h -41.99219 v 30.81054 h -7.91016 V 128.71094 H 206.5918 V 74.267578 h 7.8125 z m -9.22852,29.6875 q 12.79297,-6.15235 23.0957,-19.28711 l 6.5918,3.66211 q -10.40039,13.62304 -24.07226,21.72851 z m 84.17969,4.10156 q -10.25391,-11.18164 -23.29102,-19.82422 l 6.00586,-4.49219 q 11.76758,7.37305 23.68164,18.79883 z m 64.16015,-62.011719 h 37.06055 v 57.324219 q 0,3.90625 -1.61133,5.66406 -1.90429,2.05078 -8.00781,2.05078 -5.76172,0 -11.18164,-0.63476 l -1.70898,-7.42188 q 8.88671,0.92774 12.06054,0.92774 1.85547,0 2.29492,-0.87891 0.24415,-0.53711 0.24415,-1.61133 V 100.39063 H 317.1875 v 59.13085 h -7.91016 V 93.994141 h 36.52344 V 83.007812 h -43.31055 v -6.689453 h 43.31055 V 64.501953 h 7.71484 v 11.816406 h 43.94532 v 6.689453 h -43.94532 z m -7.61718,27.783199 h -22.2168 v -6.20117 h 11.86523 q -2.14843,-5.32226 -5.37109,-10.49804 l 6.73828,-2.5879 q 4.05274,7.12891 6.20117,13.08594 H 356.25 q 3.32031,-6.05469 5.76172,-13.28125 l 7.42187,2.58789 q -2.39257,4.98047 -5.32226,9.96094 l -0.39063,0.73242 h 12.40235 v 6.20117 h -22.70508 v 9.13086 H 378.125 v 6.29883 h -24.70703 v 19.92188 h -7.51953 V 137.20703 H 321.875 v -6.29883 h 24.02344 z M 433.59375,93.701172 V 77.197266 H 402.7832 V 70.3125 h 94.38477 v 6.884766 h -33.88672 v 16.503906 h 27.7832 V 157.8125 h -7.8125 V 150 h -66.65039 v 7.8125 h -7.71484 V 93.701172 Z m 7.51953,0 h 14.64844 V 77.197266 h -14.64844 z m -7.56836,6.591798 h -16.94336 v 42.91992 h 66.65039 v -17.23633 h -20.16601 q -7.32422,0 -7.32422,-6.59179 v -19.0918 h -14.69727 q -0.43945,10.5957 -3.125,16.89453 -3.80859,8.93555 -14.9414,15.52734 l -4.98047,-5.61523 q 10.40039,-5.41992 13.52539,-14.50195 1.51367,-4.44336 2.00195,-12.30469 z m 29.73633,0 v 16.50391 q 0,1.51367 0.58594,1.95312 0.53711,0.43945 1.80664,0.43945 h 17.57812 v -18.89648 z m 70.70312,-23.681642 h 21.82618 v 6.787109 h -7.03125 q -2.05078,9.13086 -5.61524,18.701173 h 14.45313 v 6.88477 h -55.12696 v -6.88477 h 13.72071 l -0.0977,-0.48828 Q 514.0625,91.601562 511.71875,84.423828 l -0.3418,-1.025391 h -7.08008 v -6.787109 h 22.2168 V 64.501953 h 7.4707 z m -15.13671,6.787109 q 2.58789,7.958985 4.73632,18.701173 h 12.15821 q 2.92968,-8.105469 5.32226,-18.701173 z m 31.83593,35.888673 v 39.30664 h -7.32422 v -5.51758 h -25.97656 v 6.39649 h -7.56836 v -40.18555 z m -33.30078,6.68945 v 20.3125 h 25.97656 v -20.3125 z m 65.42969,-22.70508 q 12.8418,13.57422 12.8418,29.44336 0,5.56641 -2.00196,8.39844 -2.4414,3.27149 -8.49609,3.27149 -5.81055,0 -10.69336,-0.6836 l -1.61133,-7.61719 q 6.25,1.02539 10.15625,1.02539 3.71094,0 4.39453,-2.49023 0.29297,-1.07422 0.29297,-3.51562 0,-13.72071 -12.64648,-26.70899 5.85937,-12.695311 9.52148,-26.708983 h -15.42969 v 81.787113 h -7.37304 V 70.507812 h 27.49023 l 4.39453,3.808594 q -5.37109,17.382813 -10.83984,28.955074 z"></path>
</svg>
