<svg xmlns="http://www.w3.org/2000/svg" id="svg1" version="1.1" height="200" width="990">
  <defs id="defs1"></defs>
  <rect id="rect1" stroke="none" fill="none" height="200" width="990" y="0" x="0"></rect>
  <path aria-label="高知県中部" style="font-size:100px;font-family:'BIZ UDPGothic';fill:#ff0000" id="text1" d="m 70.605469,126.41602 v 21.48437 H 35.302734 v 4.78516 h -7.421875 v -26.26953 z m -7.519532,6.10351 H 35.302734 v 9.27734 h 27.783203 z m -9.61914,-58.740233 h 41.503906 v 6.298828 H 4.8828125 V 73.779297 H 45.703125 v -9.277344 h 7.763672 z M 79.6875,86.523437 V 107.91016 H 20.068359 V 86.523437 Z m -51.708984,6.00586 v 9.277343 h 43.798828 v -9.277343 z m 63.818359,21.679683 v 36.18164 q 0,4.19922 -2.148438,6.15235 -2.148437,1.95312 -7.324218,1.95312 -4.736328,0 -12.25586,-0.48828 l -1.660156,-7.1289 q 6.787109,0.73242 11.865234,0.73242 2.587891,0 3.173829,-0.97656 0.439453,-0.6836 0.439453,-2.14844 V 120.41016 H 16.113281 v 39.11132 H 8.203125 v -45.3125 z M 133.93555,84.277344 v 21.044926 h 17.57812 v 6.68945 h -17.67578 q -0.19531,5.85937 -1.07422,11.2793 10.5957,9.08203 19.77539,19.82421 l -5.22461,6.98243 q -5.76172,-8.00782 -16.35742,-18.84766 -5.66406,17.62695 -20.36133,27.97852 l -5.46875,-6.10352 q 19.92188,-13.42773 21.09375,-41.11328 h -22.41211 v -6.68945 h 22.50977 V 84.277344 h -7.61719 q -3.41797,8.789062 -8.88672,16.259766 l -5.71289,-4.833985 q 8.83789,-11.669922 12.5,-31.005859 l 7.51953,1.318359 q -1.46484,6.542969 -2.92968,11.279297 h 28.22265 v 6.982422 z m 59.27734,-8.59375 v 79.833986 h -7.71484 v -7.51953 h -22.26563 v 7.8125 h -7.61719 V 75.683594 Z m -29.98047,7.080078 v 58.154298 h 22.26563 V 82.763672 Z M 282.86133,67.578125 V 114.4043 H 225.78125 V 67.578125 Z m -49.36524,6.005859 v 7.714844 h 41.55274 v -7.714844 z m 0,13.330078 v 7.763672 h 41.55274 v -7.763672 z m 0,13.476568 v 8.30078 h 41.55274 v -8.30078 z M 214.4043,122.2168 h 83.05664 v 6.49414 h -41.99219 v 30.81054 h -7.91016 V 128.71094 H 206.5918 V 74.267578 h 7.8125 z m -9.22852,29.6875 q 12.79297,-6.15235 23.0957,-19.28711 l 6.5918,3.66211 q -10.40039,13.62304 -24.07226,21.72851 z m 84.17969,4.10156 q -10.25391,-11.18164 -23.29102,-19.82422 l 6.00586,-4.49219 q 11.76758,7.37305 23.68164,18.79883 z M 345.70312,83.59375 V 64.501953 h 7.91016 V 83.59375 h 37.25586 v 49.70703 h -7.91016 v -6.98242 h -29.3457 v 33.20312 h -7.91016 v -33.20312 h -28.80859 v 7.51953 h -8.00781 V 83.59375 Z m -28.80859,7.324219 v 28.076171 h 28.80859 V 90.917969 Z m 66.06445,28.076171 V 90.917969 h -29.3457 v 28.076171 z m 51.02539,-42.382812 h 21.82618 v 6.787109 h -7.03125 q -2.05078,9.13086 -5.61524,18.701173 h 14.45313 v 6.88477 h -55.12696 v -6.88477 h 13.72071 l -0.0977,-0.48828 Q 414.0625,91.601562 411.71875,84.423828 l -0.3418,-1.025391 h -7.08008 v -6.787109 h 22.2168 V 64.501953 h 7.4707 z m -15.13671,6.787109 q 2.58789,7.958985 4.73632,18.701173 h 12.15821 q 2.92968,-8.105469 5.32226,-18.701173 z m 31.83593,35.888673 v 39.30664 h -7.32422 v -5.51758 h -25.97656 v 6.39649 h -7.56836 v -40.18555 z m -33.30078,6.68945 v 20.3125 h 25.97656 v -20.3125 z m 65.42969,-22.70508 q 12.8418,13.57422 12.8418,29.44336 0,5.56641 -2.00196,8.39844 -2.4414,3.27149 -8.49609,3.27149 -5.81055,0 -10.69336,-0.6836 l -1.61133,-7.61719 q 6.25,1.02539 10.15625,1.02539 3.71094,0 4.39453,-2.49023 0.29297,-1.07422 0.29297,-3.51562 0,-13.72071 -12.64648,-26.70899 5.85937,-12.695311 9.52148,-26.708983 h -15.42969 v 81.787113 h -7.37304 V 70.507812 h 27.49023 l 4.39453,3.808594 q -5.37109,17.382813 -10.83984,28.955074 z"></path>
</svg>
