<svg xmlns="http://www.w3.org/2000/svg" id="svg1" version="1.1" height="200" width="990">
  <defs id="defs1"></defs>
  <rect id="rect1" stroke="none" fill="none" height="200" width="990" y="0" x="0"></rect>
  <path aria-label="兵庫県北方沖" style="font-size:100px;font-family:'BIZ UDPGothic';fill:#ff0000" id="text1" d="m 22.607422,72.802734 2.929687,-0.24414 q 26.953125,-2.050782 50.244141,-7.56836 l 6.201172,6.00586 q -25.53711,6.005859 -51.367188,8.05664 v 12.548828 h 62.060547 v 6.884766 H 73.095703 v 24.023442 h 24.365234 v 6.88476 H 2.4902344 v -6.88476 H 22.607422 Z M 65.087891,98.486328 H 30.615234 V 122.50977 H 65.087891 Z M 5.5664062,153.07617 q 17.1386718,-7.4707 27.8808598,-20.75195 l 6.738281,4.58984 q -12.109375,14.11133 -28.90625,22.60742 z m 83.2031248,5.81055 q -11.669922,-10.25391 -29.6875,-21.28906 l 5.46875,-5.07813 q 15.332031,8.05664 30.22461,19.9707 z M 160.00977,79.6875 v 7.324219 h 33.88671 v 6.103515 h -33.88671 v 6.78711 h 28.17382 v 33.398436 h -28.17382 v 6.98242 h 37.59765 v 6.39649 h -37.59765 v 12.79297 h -7.61719 v -12.79297 h -35.30274 v -6.39649 h 35.30274 v -6.98242 H 125 V 99.902344 h 27.39258 v -6.78711 H 120.3125 v -6.103515 h 32.08008 V 79.6875 h -35.40039 v 26.41602 q 0,20.36132 -2.14844,33.25195 -1.80664,10.69336 -5.95703,19.6289 l -6.49414,-5.12695 q 4.10156,-9.91211 5.5664,-22.02148 1.31836,-11.13281 1.31836,-27.83203 V 73.388672 h 39.20899 v -8.886719 h 7.91015 v 8.886719 h 39.89258 V 79.6875 Z m -7.61719,25.83008 h -19.87305 v 7.86133 h 19.87305 z m 7.61719,0 v 7.86133 h 20.60546 v -7.86133 z m -7.61719,13.3789 h -19.87305 v 8.78907 h 19.87305 z m 7.61719,0 v 8.78907 h 20.60546 v -8.78907 z M 282.86133,67.578125 V 114.4043 H 225.78125 V 67.578125 Z m -49.36524,6.005859 v 7.714844 h 41.55274 v -7.714844 z m 0,13.330078 v 7.763672 h 41.55274 v -7.763672 z m 0,13.476568 v 8.30078 h 41.55274 v -8.30078 z M 214.4043,122.2168 h 83.05664 v 6.49414 h -41.99219 v 30.81054 h -7.91016 V 128.71094 H 206.5918 V 74.267578 h 7.8125 z m -9.22852,29.6875 q 12.79297,-6.15235 23.0957,-19.28711 l 6.5918,3.66211 q -10.40039,13.62304 -24.07226,21.72851 z m 84.17969,4.10156 q -10.25391,-11.18164 -23.29102,-19.82422 l 6.00586,-4.49219 q 11.76758,7.37305 23.68164,18.79883 z m 41.25976,-23.19336 q -11.42578,6.25 -25.09765,11.81641 l -3.51563,-7.71485 q 17.33399,-6.15234 28.61328,-11.96289 V 98.535156 h -25.63476 v -7.421875 h 25.63476 V 65.527344 h 8.00782 v 93.212886 h -8.00782 z M 362.01172,97.949219 Q 375,91.845703 387.30469,81.591797 l 6.20117,6.103515 Q 378.36914,98.779297 362.01172,105.9082 v 38.1836 q 0,3.07617 2.24609,3.71093 1.80664,0.53711 10.35156,0.53711 8.05665,0 10.35157,-1.12304 1.66015,-0.83008 2.24609,-4.29688 0.68359,-4.44336 1.07422,-14.84375 l 7.91016,2.73438 q -0.58594,16.01562 -2.2461,19.9707 -1.61133,3.90625 -7.03125,4.88281 -4.63867,0.83008 -13.52539,0.83008 -12.10937,0 -15.42969,-1.5625 -3.95507,-1.85547 -3.95507,-7.91016 V 65.478516 h 8.00781 z m 83.44726,-8.984375 q 0,7.324218 -0.92773,17.041016 h 39.4043 q -0.6836,32.91016 -3.75977,43.60351 -1.26953,4.49219 -4.83398,6.34766 -3.02735,1.5625 -9.08203,1.5625 -8.39844,0 -15.33204,-0.92773 l -1.31836,-8.00782 q 10.15625,1.31836 16.3086,1.31836 4.05273,0 5.32226,-1.70898 1.07422,-1.46484 2.14844,-8.49609 1.5625,-9.96094 2.14844,-26.70899 h -31.93359 q -1.80665,11.37695 -5.76172,19.28711 -7.91016,15.91797 -26.02539,25.73242 l -5.61524,-6.29883 q 19.38477,-10.15625 25.58594,-26.36718 5.17578,-13.57422 5.56641,-36.376956 h -33.54493 v -7.177735 h 41.69922 V 64.501953 h 8.00781 v 17.285156 h 42.67579 v 7.177735 z m 113.23243,-3.66211 V 64.501953 h 7.71484 v 20.800781 h 27.7832 v 40.478516 h -27.7832 v 33.69141 h -7.71484 v -33.69141 h -26.9043 V 85.302734 Z m -19.38477,6.982422 v 26.513674 h 19.38477 V 92.285156 Z m 47.26563,26.513674 V 92.285156 H 566.40625 V 118.79883 Z M 521.77734,86.621094 q -6.54297,-8.34961 -15.2832,-15.527344 l 5.32227,-5.273438 q 8.30078,6.201172 15.67382,14.990235 z m -3.66211,25.488286 q -7.66601,-8.8379 -15.91796,-15.527349 l 5.41992,-5.46875 q 8.39843,6.201172 16.16211,14.990239 z m -13.7207,40.57617 q 9.52149,-12.69532 17.48047,-32.86133 l 6.29883,5.07812 q -7.32422,19.14063 -17.08985,33.69141 z"></path>
</svg>
