<svg xmlns="http://www.w3.org/2000/svg" id="svg1" version="1.1" height="200" width="1096">
  <defs id="defs1"></defs>
  <rect id="rect1" stroke="none" fill="none" height="200" width="1096" y="0" x="0"></rect>
  <path aria-label="宮崎県北部山沿い" style="font-weight:bold;font-size:110px;font-family:'BIZ UDPGothic';fill:#ff0000" id="text1" d="M 60.478516,66.855469 H 104.36035 V 90.595703 H 92.490234 V 76.09375 H 17.133789 V 90.595703 H 5.4785156 V 66.855469 H 48.71582 V 55.952148 h 11.762696 z m 27.5,18.046875 V 113.90625 H 59.458008 q -1.450196,4.99512 -3.652344,9.66797 h 42.861328 v 36.89941 H 86.259766 v -5.53222 H 23.740234 v 5.53222 H 11.44043 v -36.89941 h 31.958007 q 2.524415,-6.92871 3.168946,-9.66797 H 21.323242 V 84.902344 Z M 33.408203,93.603516 V 105.09766 H 76.000977 V 93.603516 Z m -9.667969,39.101564 v 12.99804 H 86.259766 V 132.70508 Z M 208.02246,106.97754 v 43.34473 q 0,4.83398 -1.77246,7.08984 -2.14844,2.68555 -9.07715,2.68555 -6.66015,0 -14.01855,-0.75196 l -2.20215,-10.68847 Q 188.63281,150 193.68164,150 q 2.25586,0 2.79297,-0.85938 0.42969,-0.69824 0.42969,-2.68554 v -39.47754 h -44.95606 v 33.8916 H 123.64258 V 150 h -9.45313 V 74.750977 h 9.02344 v 55.859373 h 5.26367 V 57.133789 h 9.34571 v 73.476561 h 5.53222 V 74.750977 h 8.59375 V 97.30957 h 65.63477 v 9.66797 z M 186.32324,75.771484 q 13.05176,5.371094 26.53321,13.051758 l -7.03614,8.00293 q -9.93652,-6.552735 -23.31054,-13.535156 -7.19727,9.990234 -22.23633,13.803711 l -5.69336,-8.378907 q 16.11328,-3.544922 20.73242,-13.535156 h -21.21582 v -9.345703 h 22.55859 v -9.882813 h 10.68848 v 9.882813 h 25.72754 v 9.345703 h -26.5332 q -0.0537,0.268555 -0.21485,0.59082 z m 3.97461,38.833006 v 28.78906 h -22.98828 v 5.15625 h -9.77539 v -33.94531 z m -23.20312,8.8086 v 11.17187 h 14.07226 V 123.41309 Z M 312.16797,58.583984 V 110.62988 H 248.25195 V 58.583984 Z m -52.36817,8.486328 v 6.713868 h 40.7129 v -6.713868 z m 0,14.28711 v 6.713867 h 40.7129 v -6.713867 z m 0,14.287109 v 6.928709 h 40.7129 v -6.928709 z m -21.6455,22.128909 h 89.05273 v 9.3457 h -44.41894 v 33.35449 H 270.5957 V 127.11914 H 226.3916 V 66.855469 h 11.7627 z m -13.75,32.4414 q 12.7832,-5.9082 24.43847,-19.81933 l 9.88282,5.74707 q -11.49414,14.55566 -25.5127,22.88086 z m 92.59765,6.92871 q -8.21777,-10.09765 -24.70703,-21.21582 l 9.23828,-6.49902 q 12.94434,7.46582 25.40528,19.60449 z m 45.11719,-25.29785 q -14.82422,7.78809 -25.83496,11.92383 l -4.51172,-11.81641 q 17.24121,-5.80078 30.34668,-12.03124 V 95.859375 H 335.53223 V 84.526367 h 26.58691 V 55.952148 h 11.97754 V 160.47363 h -11.97754 z m 38.18848,-41.840817 q 12.51465,-6.552735 24.27734,-16.650391 l 8.91602,9.345703 q -15.89844,11.279297 -33.19336,19.228515 v 40.2832 q 0,2.63184 1.71875,3.22266 1.82617,0.59082 8.43261,0.59082 8.70118,0 10.90332,-1.02051 1.55762,-0.69824 2.14844,-4.35058 0.80567,-5.10254 1.18164,-16.48926 l 12.03125,3.70605 q -0.53711,13.91114 -1.71875,19.98047 -1.34277,6.76758 -7.03613,8.75489 -5.4248,1.82617 -17.77832,1.82617 -14.50195,0 -18.26172,-2.417 -3.59863,-2.36328 -3.59863,-9.07714 V 55.952148 h 11.97754 z m 78.0957,-21.645508 h 22.98828 v 10.366211 h -7.57324 q -2.04102,8.217773 -5.47852,17.241211 h 14.34082 v 10.366213 h -59.9414 V 95.966797 h 13.15918 Q 453.75,85.654297 451.38672,78.725586 H 444.4043 V 68.359375 h 22.77343 V 55.952148 h 11.22559 z m -16.16699,10.366211 q 2.73926,8.00293 4.24316,17.241211 h 10.95703 l 0.53711,-1.503906 q 2.30957,-6.123047 4.29688,-13.911133 l 0.4834,-1.826172 z m 33.30078,36.630864 v 43.98925 h -11.01074 v -5.26367 H 461.1084 v 6.3916 h -11.33301 v -45.11718 z m -34.42871,9.88281 v 18.63769 h 23.41797 v -18.63769 z m 71.75781,-27.124026 q 6.3916,6.069336 10.15137,14.448246 3.70605,8.3789 3.70605,16.97265 0,7.94922 -2.9541,11.70899 -3.06152,3.9209 -10.09766,3.9209 -6.01562,0 -11.65527,-0.85938 l -2.63183,-11.44043 q 6.49902,1.18164 10.74218,1.18164 3.22266,0 4.02832,-1.5039 0.53711,-1.07422 0.53711,-4.29688 0,-13.2666 -7.94922,-22.88086 -2.09472,-2.52441 -5.26367,-5.424804 l 0.64453,-1.503906 q 5.58594,-12.62207 8.70118,-26.318359 h -13.75 V 160.47363 H 505.95703 V 61.000977 h 32.33399 l 5.96191,5.478515 q -5.42481,18.476563 -11.38672,31.635742 z m 77.82715,39.907226 h 27.07031 V 78.94043 h 12.19238 v 80.62012 h -12.19238 v -9.88282 H 572.0752 v 9.88282 H 559.99023 V 78.94043 h 12.08497 v 59.08203 h 26.42578 V 57.026367 h 12.19238 z M 758.2373,108.96484 v 51.50879 h -12.08496 v -6.17676 H 712.0459 v 6.17676 h -11.97754 v -51.50879 z m -46.1914,10.36621 v 24.49219 h 34.10644 V 119.33105 Z M 686.31836,81.679687 q -8.27149,-9.291992 -17.93945,-16.274414 l 7.68066,-8.59375 q 10.84961,6.821289 18.26172,15.522461 z m -6.06934,28.950193 q -9.07715,-9.99023 -18.36914,-16.381833 l 7.89551,-8.916016 q 10.90332,7.089844 18.95996,16.059569 z m -17.72461,39.90723 q 10.74219,-13.2666 20.46387,-34.32129 l 9.13086,8.16406 q -8.27148,20.35645 -19.22852,35.61035 z m 95.71289,-44.2041 Q 739.49219,86.40625 730.62988,60.356445 l 11.11817,-4.404297 q 8.16406,22.558594 25.40527,40.712891 z m -67.08496,-8.378908 q 15.03907,-15.146485 21.53809,-40.820313 l 11.33301,3.4375 q -6.06934,27.822266 -24.16992,46.621091 z m 134.27735,28.144528 q -9.93653,29.21875 -22.29004,29.21875 -8.8086,0 -15.09278,-12.35351 -4.83398,-9.56055 -6.66015,-21.05469 -2.20215,-13.96484 -2.20215,-35.878907 0,-9.506836 0.69824,-20.410156 l 12.62207,0.966797 q -0.69824,10.90332 -0.69824,20.732422 0,34.482424 6.44531,48.071284 2.63184,5.58594 4.94141,5.58594 1.50391,0 3.75976,-3.4375 4.61915,-6.98242 8.91602,-19.22851 z m 33.99902,12.78321 q -2.73926,-22.66602 -6.71387,-36.63086 -4.83398,-16.918949 -11.22558,-30.991214 l 11.44043,-2.792969 q 8.8623,17.563476 13.15918,33.837893 3.54492,13.21289 5.85449,33.62304 z"></path>
</svg>
