<svg xmlns="http://www.w3.org/2000/svg" id="svg1" version="1.1" height="200" width="990">
  <defs id="defs1"></defs>
  <rect id="rect1" stroke="none" fill="none" height="200" width="990" y="0" x="0"></rect>
  <path aria-label="静岡県西部" style="font-size:100px;font-family:'BIZ UDPGothic';fill:#ff0000" id="text1" d="m 52.099609,90.185547 q -1.513672,1.464844 -3.417968,3.125 L 44.482422,87.890625 Q 55.46875,79.003906 61.572266,65.771484 l 4.833984,3.613282 h 15.087891 l 4.296875,4.003906 Q 80.517578,82.8125 74.951172,89.794922 h 16.748047 v 17.285158 h 6.298828 v 6.20117 H 91.699219 V 131.5918 H 74.169922 v 20.60547 q 0,3.61328 -1.757813,5.37109 -1.80664,1.80664 -6.054687,1.80664 -3.759766,0 -9.765625,-0.68359 l -1.416016,-6.98243 q 6.298828,0.78125 9.521485,0.78125 1.757812,0 2.148437,-0.97656 0.244141,-0.63476 0.244141,-1.80664 V 131.5918 h -16.40625 v -6.39649 h 16.40625 V 113.28125 H 46.972656 v -6.20117 H 67.089844 V 96.191406 H 52.099609 Z m 0.390625,-0.390625 h 15.136719 q 5.908203,-7.910156 8.642578,-13.916016 h -12.5 q -4.736328,7.373047 -10.9375,13.574219 z m 21.484375,6.396484 V 107.08008 H 85.009766 V 96.191406 Z M 85.009766,113.28125 H 73.974609 v 11.91406 H 85.009766 Z M 22.070312,71.679687 v -7.177734 h 7.324219 v 7.177734 h 17.285156 v 5.908204 H 29.394531 v 6.005859 h 14.697266 v 5.712891 H 29.394531 v 6.396484 H 48.583984 V 101.9043 H 2.8808594 V 95.703125 H 22.070312 V 89.306641 H 7.1777344 V 83.59375 H 22.070312 V 77.587891 H 4.4921875 V 71.679687 Z M 43.75,108.00781 v 44.0918 q 0,3.51562 -1.660156,5.17578 -1.611328,1.61133 -5.517578,1.61133 -5.371094,0 -8.886719,-0.48828 l -1.416016,-6.78711 q 4.882813,0.68359 8.447266,0.68359 1.611328,0 1.855469,-0.78125 0.195312,-0.53711 0.195312,-1.9043 V 139.20898 H 15.185547 v 20.3125 H 8.203125 v -51.51367 z m -28.564453,5.61524 v 6.98242 h 21.582031 v -6.98242 z m 0,12.69531 v 7.27539 h 21.582031 v -7.27539 z m 152.197263,7.66601 v -22.07031 h 7.08008 v 28.66211 h -42.28516 v 7.08008 H 125 v -35.74219 h 7.17773 v 22.07031 h 13.91602 v -29.68749 h -27.49023 v -6.591802 h 36.23046 q 5.0293,-8.203125 9.96094,-20.800781 l 7.56836,2.783203 q -4.49219,9.667969 -10.05859,18.017578 h 18.84765 v 6.591802 h -27.97851 v 29.68749 z m 25.48828,-65.380854 v 82.275394 q 0,4.49218 -2.88086,6.29882 -2.34375,1.51368 -7.86132,1.51368 -7.47071,0 -17.33399,-0.6836 l -1.80664,-7.51953 q 10.64453,1.02539 18.4082,1.02539 2.83204,0 3.36914,-1.31836 0.29297,-0.83008 0.29297,-2.29492 V 75.390625 h -70.16601 v 84.130855 h -7.71485 V 68.603516 Z M 134.76562,96.09375 q -3.95507,-8.935547 -8.30078,-15.087891 l 6.49414,-3.222656 q 4.88282,6.445313 8.74024,15.136719 z M 282.86133,67.578125 V 114.4043 H 225.78125 V 67.578125 Z m -49.36524,6.005859 v 7.714844 h 41.55274 v -7.714844 z m 0,13.330078 v 7.763672 h 41.55274 v -7.763672 z m 0,13.476568 v 8.30078 h 41.55274 v -8.30078 z M 214.4043,122.2168 h 83.05664 v 6.49414 h -41.99219 v 30.81054 h -7.91016 V 128.71094 H 206.5918 V 74.267578 h 7.8125 z m -9.22852,29.6875 q 12.79297,-6.15235 23.0957,-19.28711 l 6.5918,3.66211 q -10.40039,13.62304 -24.07226,21.72851 z m 84.17969,4.10156 q -10.25391,-11.18164 -23.29102,-19.82422 l 6.00586,-4.49219 q 11.76758,7.37305 23.68164,18.79883 z M 333.59375,93.701172 V 77.197266 H 302.7832 V 70.3125 h 94.38477 v 6.884766 h -33.88672 v 16.503906 h 27.7832 V 157.8125 h -7.8125 V 150 h -66.65039 v 7.8125 h -7.71484 V 93.701172 Z m 7.51953,0 h 14.64844 V 77.197266 h -14.64844 z m -7.56836,6.591798 h -16.94336 v 42.91992 h 66.65039 v -17.23633 h -20.16601 q -7.32422,0 -7.32422,-6.59179 v -19.0918 h -14.69727 q -0.43945,10.5957 -3.125,16.89453 -3.80859,8.93555 -14.9414,15.52734 l -4.98047,-5.61523 q 10.40039,-5.41992 13.52539,-14.50195 1.51367,-4.44336 2.00195,-12.30469 z m 29.73633,0 v 16.50391 q 0,1.51367 0.58594,1.95312 0.53711,0.43945 1.80664,0.43945 h 17.57812 v -18.89648 z m 70.70312,-23.681642 h 21.82618 v 6.787109 h -7.03125 q -2.05078,9.13086 -5.61524,18.701173 h 14.45313 v 6.88477 h -55.12696 v -6.88477 h 13.72071 l -0.0977,-0.48828 Q 414.0625,91.601562 411.71875,84.423828 l -0.3418,-1.025391 h -7.08008 v -6.787109 h 22.2168 V 64.501953 h 7.4707 z m -15.13671,6.787109 q 2.58789,7.958985 4.73632,18.701173 h 12.15821 q 2.92968,-8.105469 5.32226,-18.701173 z m 31.83593,35.888673 v 39.30664 h -7.32422 v -5.51758 h -25.97656 v 6.39649 h -7.56836 v -40.18555 z m -33.30078,6.68945 v 20.3125 h 25.97656 v -20.3125 z m 65.42969,-22.70508 q 12.8418,13.57422 12.8418,29.44336 0,5.56641 -2.00196,8.39844 -2.4414,3.27149 -8.49609,3.27149 -5.81055,0 -10.69336,-0.6836 l -1.61133,-7.61719 q 6.25,1.02539 10.15625,1.02539 3.71094,0 4.39453,-2.49023 0.29297,-1.07422 0.29297,-3.51562 0,-13.72071 -12.64648,-26.70899 5.85937,-12.695311 9.52148,-26.708983 h -15.42969 v 81.787113 h -7.37304 V 70.507812 h 27.49023 l 4.39453,3.808594 q -5.37109,17.382813 -10.83984,28.955074 z"></path>
</svg>
