<svg xmlns="http://www.w3.org/2000/svg" id="svg1" version="1.1" height="200" width="1096">
  <defs id="defs1"></defs>
  <rect id="rect1" stroke="none" fill="none" height="200" width="1096" y="0" x="0"></rect>
  <path aria-label="南極付近" style="font-weight:bold;font-size:110px;font-family:'BIZ UDPGothic';fill:#ff0000" id="text1" d="M 49.038086,120.5127 H 26.801758 v -8.8086 h 10.742187 q -2.416992,-5.47851 -5.478515,-10.20508 l 9.667968,-3.544918 q 4.189454,7.036128 6.767579,13.749998 h 12.62207 q 3.168945,-6.49902 5.585937,-13.964842 l 10.795899,3.383792 q -2.739258,5.9082 -5.800781,10.58105 h 11.547851 v 8.8086 H 60.263672 v 7.84179 h 24.492187 v 9.13086 H 60.263672 v 20.30274 H 49.038086 V 137.48535 H 25.458984 v -9.13086 H 49.038086 Z M 60.585937,87.426758 h 40.712893 v 62.788082 q 0,5.53223 -2.954103,7.78809 -2.470704,1.93359 -8.325196,1.93359 -7.573242,0 -14.609375,-0.80566 l -2.631836,-10.7959 q 9.399414,1.12793 14.072266,1.12793 1.933594,0 2.255859,-0.9668 0.214844,-0.59082 0.214844,-1.66504 V 96.772461 H 20.678711 V 160.47363 H 8.7011719 V 87.426758 H 48.71582 v -9.72168 H 2.7392578 V 67.714844 H 48.71582 V 55.952148 h 11.870117 v 11.762696 h 46.621093 v 9.990234 H 60.585937 Z m 66.010743,25.136722 q -3.97461,13.42773 -10.15137,25.67382 l -5.47851,-12.2998 q 9.56054,-16.43555 14.07226,-35.825195 l 0.26856,-1.235352 H 112.84668 V 78.40332 h 13.75 V 55.952148 h 10.68848 V 78.40332 h 10.09765 v 10.473633 h -10.09765 v 8.701172 q 6.44531,5.102535 12.2998,11.225585 V 90.595703 h 23.31055 v 37.866207 h -14.7168 v 6.60645 h -8.59375 v -23.74023 l -4.83398,8.8623 q -3.54493,-5.58594 -7.46582,-10.36621 v 50.64941 h -10.68848 z m 38.13477,-13.051761 h -6.55274 V 119.5459 h 6.55274 z M 187.0752,78.618164 v 56.074216 q 3.81347,-4.40429 5.53222,-7.25097 2.52442,-4.08203 4.8877,-9.77539 -5.31739,-7.14356 -9.66797,-11.87012 l 4.9414,-6.499025 q 4.45801,3.974605 7.51954,7.465825 0.32226,0.32226 0.53711,0.59082 1.45019,-5.74707 2.52441,-12.675786 h -14.07227 v -9.345703 h 19.87305 l 4.18945,3.491211 q -2.09472,15.844728 -5.58593,26.909178 0.21484,0.32227 0.64453,0.85938 3.49121,4.51172 7.84179,11.17187 l -5.74707,10.15137 q -3.27636,-5.80078 -6.98242,-11.54785 -4.08203,8.3789 -10.3125,16.16699 l -6.12304,-7.08984 q 0,3.00781 -0.59083,4.83398 -0.85937,2.68555 -3.65234,3.70605 -1.93359,0.64454 -5.80078,0.64454 -4.24316,0 -8.64746,-0.53711 l -1.87988,-9.13086 q 4.72656,0.64453 8.16406,0.64453 1.82617,0 2.20215,-0.80567 0.32226,-0.64453 0.32226,-2.04101 V 86.835937 h -11.65527 q 2.52441,-5.532226 6.06934,-16.811523 h -24.11622 v -9.667969 h 66.17188 v 9.667969 H 182.6709 q -0.59082,2.148438 -2.79297,8.59375 z m -43.667,68.642576 h 73.58399 v 9.99024 H 143.4082 Z M 249.91699,85.976562 V 160.47363 H 238.26172 V 105.3125 q -4.35059,6.12305 -10.09766,12.67578 l -6.06933,-11.54785 q 10.90332,-12.084961 18.6914,-28.144532 4.72657,-9.721679 9.45313,-23.203125 l 11.22558,3.061524 q -4.88769,14.716797 -11.54785,27.822265 z M 311.09375,81.25 h 16.16699 v 10.795898 h -16.16699 v 56.396482 q 0,7.08985 -3.4375,9.45313 -2.52441,1.77246 -9.50684,1.77246 -8.54004,0 -17.50976,-0.9668 l -2.30957,-11.76269 q 9.56054,1.39648 17.83203,1.39648 2.25586,0 2.73926,-0.9668 0.32226,-0.69824 0.32226,-2.30957 V 92.045898 H 255.28809 V 81.25 h 43.93554 V 57.832031 h 11.87012 z m -33.99902,52.0459 q -6.06934,-16.16699 -14.98536,-29.48731 l 10.25879,-5.96191 q 9.66797,14.2334 15.52246,29.16504 z m 83.25195,2.73926 q 4.29687,4.99511 9.66797,7.41211 8.80859,3.9746 23.0957,3.9746 h 45.76172 q -1.93359,3.65235 -3.59863,10.47364 h -42.7002 q -18.47656,0 -28.30566,-5.80078 -4.02832,-2.417 -8.86231,-7.89551 -0.37597,0.42969 -0.91308,1.07422 -7.89551,9.3457 -15.6836,15.2539 l -6.49902,-11.01074 q 8.54004,-5.10254 16.48926,-11.54785 v -26.5332 h -15.62988 v -10.58106 h 27.17773 z m 13.96484,-71.274418 2.84668,-0.214844 q 24.86817,-1.71875 44.6875,-7.358398 l 8.37891,9.453125 q -20.83984,5.478516 -44.47266,7.412109 v 13.911133 h 49.73633 V 98.4375 h -18.04687 v 43.77441 H 405.57129 V 98.4375 h -19.81934 q -0.26855,17.24121 -2.57812,27.44629 -2.09473,9.39941 -6.875,16.86523 l -9.88281,-7.46582 q 5.31738,-8.27148 6.82128,-20.51757 1.07422,-8.43262 1.07422,-22.934575 z M 354.43848,85.761719 Q 346.2207,74.160156 336.71387,64.975586 l 8.80859,-7.036133 q 9.23828,7.734375 18.58399,19.658203 z"></path>
</svg>
