<svg xmlns="http://www.w3.org/2000/svg" id="svg1" version="1.1" height="200" width="1096">
  <defs id="defs1"></defs>
  <rect id="rect1" stroke="none" fill="none" height="200" width="1096" y="0" x="0"></rect>
  <path aria-label="南海道南方沖" style="font-weight:bold;font-size:110px;font-family:'BIZ UDPGothic';fill:#ff0000" id="text1" d="M 49.038086,120.5127 H 26.801758 v -8.8086 h 10.742187 q -2.416992,-5.47851 -5.478515,-10.20508 l 9.667968,-3.544918 q 4.189454,7.036128 6.767579,13.749998 h 12.62207 q 3.168945,-6.49902 5.585937,-13.964842 l 10.795899,3.383792 q -2.739258,5.9082 -5.800781,10.58105 h 11.547851 v 8.8086 H 60.263672 v 7.84179 h 24.492187 v 9.13086 H 60.263672 v 20.30274 H 49.038086 V 137.48535 H 25.458984 v -9.13086 H 49.038086 Z M 60.585937,87.426758 h 40.712893 v 62.788082 q 0,5.53223 -2.954103,7.78809 -2.470704,1.93359 -8.325196,1.93359 -7.573242,0 -14.609375,-0.80566 l -2.631836,-10.7959 q 9.399414,1.12793 14.072266,1.12793 1.933594,0 2.255859,-0.9668 0.214844,-0.59082 0.214844,-1.66504 V 96.772461 H 20.678711 V 160.47363 H 8.7011719 V 87.426758 H 48.71582 v -9.72168 H 2.7392578 V 67.714844 H 48.71582 V 55.952148 h 11.870117 v 11.762696 h 46.621093 v 9.990234 H 60.585937 Z M 207.7002,85.117187 q 0,2.524415 -0.4834,23.955083 h 10.25879 v 9.66796 h -10.47364 q -0.16113,7.03614 -0.69824,15.95215 h 9.07715 v 9.45313 h -9.77539 q -0.64453,7.78808 -1.77246,10.3125 -2.52442,6.01562 -12.2461,6.01562 -6.23046,0 -11.49414,-0.91308 L 178.10547,150 q 7.57324,1.07422 11.60156,1.07422 3.27637,0 3.9209,-2.30957 0.32227,-1.12793 0.59082,-4.61914 h -38.24219 q -0.0537,0.42969 -0.16113,0.91308 -0.4834,2.84668 -0.91309,5.3711 l -11.11816,-1.07422 q 3.27637,-19.38965 4.4043,-29.32617 l 0.16113,-1.28907 h -10.74219 v -9.66796 h 11.87012 q 1.50391,-12.998051 2.57812,-23.955083 z m -33.94532,9.345704 h -11.76269 q -0.16114,2.739257 -0.9668,11.547849 l -0.32227,3.06153 h 11.92383 l 0.16114,-1.50391 q 0.10742,-1.55762 0.32226,-4.35059 0.53711,-7.519528 0.64453,-8.754879 z m 10.58106,0 q -0.26856,6.391599 -0.80567,14.125979 v 0.4834 h 12.62207 q 0.21485,-7.3584 0.37598,-14.609379 z m -12.56836,24.277339 h -12.08496 q -0.80567,6.55274 -1.71875,12.94434 l -0.42969,3.00781 h 12.56836 q 1.28906,-11.65527 1.66504,-15.95215 z m 11.01074,0 q -0.16113,2.14844 -0.64453,7.08985 l -0.85938,8.8623 h 13.69629 q 0.26856,-5.20996 0.42969,-7.84179 0.32227,-5.74707 0.42969,-8.11036 z M 161.72363,65.727539 h 51.88477 v 9.990234 h -56.34278 q -4.35058,8.862305 -11.06445,16.865235 l -7.68066,-8.378906 Q 149.10156,71.796875 153.55957,55.629883 L 165,56.811523 q -1.93359,5.585938 -3.27637,8.916016 z m -29.59472,15.629883 q -6.60645,-9.077149 -16.05957,-17.026367 l 8.11035,-7.841797 q 8.75488,6.445312 16.65039,16.274414 z M 128.26172,109.7168 Q 120.09766,99.243164 111.77246,92.15332 l 8.37891,-8.05664 q 9.3457,7.358398 16.81152,16.75781 z m -14.60938,42.16308 q 9.34571,-12.94433 17.72461,-34.10644 l 9.56055,6.82129 q -6.98242,19.55078 -17.93945,35.8789 z M 248.73535,135.2832 q 5.53223,6.55274 13.37402,9.34571 8.11036,2.84668 21.69922,2.84668 h 45.11719 q -2.04101,5.04882 -3.33008,10.68847 h -44.52636 q -18.10059,0 -27.33887,-5.63965 -4.24317,-2.57812 -9.02344,-7.73437 -7.25098,9.07715 -16.43555,16.00586 L 221.66504,150 q 8.21777,-4.72656 15.62988,-11.17188 v -27.39257 h -14.55566 v -10.58106 h 25.99609 z m 33.8916,-57.578122 h -29.16504 v -9.238281 h 17.13379 q -2.90039,-4.726563 -6.12304,-9.023438 l 10.63476,-3.867187 q 4.56543,6.821289 7.19727,12.890625 h 13.75 q 2.14843,-4.350586 5.20996,-12.998047 l 12.03125,2.524414 q -2.4707,5.424805 -5.53223,10.473633 h 17.93945 v 9.238281 h -31.63574 q -1.34277,4.135742 -2.84668,7.949219 h 27.66114 V 141.08398 H 260.17578 V 85.654297 h 19.92676 q 1.45019,-4.135742 2.52441,-7.949219 z m -11.333,15.737305 v 8.056637 h 36.3623 v -8.056637 z m 0,15.307617 v 8.16406 h 36.3623 V 108.75 Z m 0,15.7373 v 8.43262 h 36.3623 V 124.4873 Z M 241.1084,85.117187 q -7.73438,-12.246093 -16.48926,-20.67871 l 8.91602,-7.036133 q 10.3125,9.560547 17.08007,19.765625 z M 379.03809,120.5127 h -22.23633 v -8.8086 h 10.74219 q -2.417,-5.47851 -5.47852,-10.20508 l 9.66797,-3.544918 q 4.18945,7.036128 6.76758,13.749998 h 12.62207 q 3.16894,-6.49902 5.58593,-13.964842 l 10.7959,3.383792 q -2.73926,5.9082 -5.80078,10.58105 h 11.54785 v 8.8086 h -22.98828 v 7.84179 h 24.49219 v 9.13086 h -24.49219 v 20.30274 h -11.22558 v -20.30274 h -23.57911 v -9.13086 h 23.57911 z m 11.54785,-33.085942 h 40.71289 v 62.788082 q 0,5.53223 -2.9541,7.78809 -2.47071,1.93359 -8.3252,1.93359 -7.57324,0 -14.60937,-0.80566 l -2.63184,-10.7959 q 9.39941,1.12793 14.07227,1.12793 1.93359,0 2.25586,-0.9668 0.21484,-0.59082 0.21484,-1.66504 V 96.772461 H 350.67871 V 160.47363 H 338.70117 V 87.426758 h 40.01465 v -9.72168 h -45.97656 v -9.990234 h 45.97656 V 55.952148 h 11.87012 v 11.762696 h 46.62109 v 9.990234 h -46.62109 z m 101.56738,-2.524414 q -0.37598,8.969726 -1.07422,15.791016 h 43.29102 q -0.80567,37.27539 -4.18946,48.39355 -1.71875,5.58594 -6.3916,7.73438 -3.65234,1.66504 -10.68847,1.66504 -7.41211,0 -16.81153,-1.12793 l -2.09472,-12.08496 q 12.62207,1.77246 17.77832,1.77246 4.35058,0 5.53222,-2.4707 2.84668,-6.01563 3.97461,-33.19336 h -31.95801 q -1.77246,9.66796 -4.99511,16.75781 -8.96973,19.60449 -29.97071,31.09863 l -8.48632,-9.45312 q 21.05468,-10.95704 27.82226,-28.73536 4.51172,-11.87011 5.85449,-36.147456 H 444.18945 V 73.891602 h 43.88184 V 55.952148 h 12.40723 v 17.939454 h 45.33203 v 11.010742 z m 121.54785,-8.916016 v -20.03418 h 11.54785 v 20.03418 h 29.11133 v 48.608402 h -29.11133 v 35.8789 h -11.54785 v -35.8789 H 585.18066 V 75.986328 Z m -17.40234,10.688477 v 27.338865 h 17.40234 V 86.674805 Z m 46.62109,27.338865 V 86.674805 h -17.6709 v 27.338865 z m -68.75,-31.796873 q -6.55273,-9.13086 -17.34863,-17.456055 l 8.00293,-8.164062 q 10.74219,7.573242 18.1543,16.972656 z m -3.49121,27.607423 q -9.3457,-10.849611 -18.1543,-17.778322 l 8.27149,-8.271484 q 9.39941,6.606445 18.58398,17.080076 z m -16.7041,41.62598 q 10.3125,-14.66309 19.01367,-36.52344 l 9.56055,7.3584 q -7.3584,20.1416 -17.93946,37.91992 z"></path>
</svg>
