<svg xmlns="http://www.w3.org/2000/svg" id="svg1" version="1.1" height="200" width="1096">
  <defs id="defs1"></defs>
  <rect id="rect1" stroke="none" fill="none" height="200" width="1096" y="0" x="0"></rect>
  <path aria-label="南大西洋" style="font-weight:bold;font-size:110px;font-family:'BIZ UDPGothic';fill:#ff0000" id="text1" d="M 49.038086,120.5127 H 26.801758 v -8.8086 h 10.742187 q -2.416992,-5.47851 -5.478515,-10.20508 l 9.667968,-3.544918 q 4.189454,7.036128 6.767579,13.749998 h 12.62207 q 3.168945,-6.49902 5.585937,-13.964842 l 10.795899,3.383792 q -2.739258,5.9082 -5.800781,10.58105 h 11.547851 v 8.8086 H 60.263672 v 7.84179 h 24.492187 v 9.13086 H 60.263672 v 20.30274 H 49.038086 V 137.48535 H 25.458984 v -9.13086 H 49.038086 Z M 60.585937,87.426758 h 40.712893 v 62.788082 q 0,5.53223 -2.954103,7.78809 -2.470704,1.93359 -8.325196,1.93359 -7.573242,0 -14.609375,-0.80566 l -2.631836,-10.7959 q 9.399414,1.12793 14.072266,1.12793 1.933594,0 2.255859,-0.9668 0.214844,-0.59082 0.214844,-1.66504 V 96.772461 H 20.678711 V 160.47363 H 8.7011719 V 87.426758 H 48.71582 v -9.72168 H 2.7392578 V 67.714844 H 48.71582 V 55.952148 h 11.870117 v 11.762696 h 46.621093 v 9.990234 H 60.585937 Z m 111.879883,7.143554 q 3.70605,12.568358 14.07227,26.748048 12.62207,17.29492 31.04492,27.39258 l -7.68067,11.06445 q -19.49707,-11.49414 -32.54882,-30.4541 -7.03614,-10.3125 -11.2793,-21.00098 -4.24317,14.39453 -13.15918,26.15723 -13.10547,17.40234 -32.3877,25.67383 l -7.57324,-9.8291 q 20.19531,-8.43262 32.60254,-25.9961 10.41992,-14.82422 12.35352,-29.755858 H 115.04883 V 82.915039 h 43.34472 V 57.026367 h 12.40723 v 25.888672 h 44.25781 v 11.655273 z m 82.92969,-7.949218 V 71.582031 H 223.38379 V 61.21582 h 103.28613 v 10.366211 h -35.50293 v 15.039063 h 30.13184 v 72.402346 h -11.65528 v -7.57324 h -69.34082 v 7.57324 H 228.75488 V 86.621094 Z m 11.11816,0 h 13.53516 V 71.582031 h -13.53516 z m -11.17187,9.77539 h -15.03907 v 44.848636 h 69.34082 v -16.11328 h -20.35644 q -9.23828,0 -9.23828,-9.23829 V 96.396484 h -13.64258 q -0.21484,13.212896 -3.97461,21.162106 -3.54492,7.57325 -13.96484,14.98536 l -7.41211,-8.27149 q 9.99023,-6.12305 12.62207,-15.14648 1.39648,-4.83399 1.66504,-12.729496 z m 35.82519,0 v 16.435546 q 0,2.09473 1.87988,2.09473 h 16.59668 V 96.396484 Z M 393.59375,83.452148 H 364.8584 v -9.990234 h 14.66308 q -3.49121,-8.00293 -7.41211,-13.964844 l 10.68848,-3.974609 q 4.51172,7.573242 8.27149,17.939453 h 17.08007 q 3.4375,-7.949219 6.55274,-17.939453 l 12.08496,3.330078 q -3.33008,8.486328 -6.66016,14.609375 h 14.07227 v 9.990234 H 405.46387 V 97.30957 h 25.51269 v 9.66797 h -25.51269 v 14.82422 h 31.79687 v 10.36621 h -31.79687 v 28.30566 h -11.87012 v -28.30566 h -31.04492 v -10.36621 h 31.04492 v -14.82422 h -25.67383 v -9.66797 h 25.67383 z m -40.71289,-1.450195 q -6.3916,-8.862305 -16.91895,-17.241211 l 8.11036,-8.271484 q 10.79589,7.841797 17.61718,16.704101 z m -3.49121,27.607427 Q 341.01074,99.404297 331.9873,92.15332 l 8.16407,-8.271484 q 9.61425,6.982422 17.77832,16.811524 z m -15.52246,41.35742 q 9.56054,-13.21289 18.36914,-35.50293 l 9.13086,7.14355 q -7.51953,22.5586 -18.04688,37.75879 z"></path>
</svg>
