<svg xmlns="http://www.w3.org/2000/svg" id="svg1" version="1.1" height="200" width="990">
  <defs id="defs1"></defs>
  <rect id="rect1" stroke="none" fill="none" height="200" width="990" y="0" x="0"></rect>
  <path aria-label="能登半島沖" style="font-size:100px;font-family:'BIZ UDPGothic';fill:#ff0000" id="text1" d="M 10.107422,87.304687 Q 16.894531,75.634766 21.386719,64.306641 l 7.8125,1.904296 Q 24.560547,77.001953 18.164062,86.962891 l 0.683594,-0.04883 q 8.740235,-0.537109 14.697266,-1.02539 L 39.0625,85.449219 q -2.880859,-4.541016 -6.445313,-9.228516 l 6.00586,-3.417969 q 7.910156,9.521485 13.769531,20.410157 l -6.494141,4.003906 q -1.708984,-3.222656 -3.320312,-6.00586 -12.988281,1.806641 -38.3789063,3.173829 l -2.1972656,-6.78711 q 4.3945313,-0.146484 8.1054689,-0.292969 z m 35.742187,14.404293 v 49.41407 q 0,4.24804 -2.392578,6.05468 -1.904297,1.41602 -6.152344,1.41602 -5.517578,0 -10.595703,-0.68359 l -1.171875,-7.03125 q 6.396485,0.92773 10.302735,0.92773 1.904297,0 2.34375,-0.92773 0.341797,-0.63477 0.341797,-2.09961 V 136.81641 H 16.015625 v 22.70507 H 8.59375 v -57.8125 z m -29.833984,6.20118 v 8.39843 h 22.509766 v -8.39843 z m 0,14.30664 v 8.78906 H 38.525391 V 122.2168 Z M 62.792969,81.103516 q 11.71875,-3.90625 24.121093,-11.083985 l 5.46875,5.371094 Q 77.929687,83.251953 62.792969,87.695312 v 10.791016 q 0,2.880862 1.904297,3.417972 1.855468,0.53711 9.423828,0.53711 7.666015,0 10.498047,-0.78125 2.392578,-0.6836 3.027343,-3.320316 0.439453,-1.757813 0.732422,-7.861328 0.04883,-1.171875 0.09766,-2.197266 l 7.519532,2.441406 q -0.244141,8.056641 -1.269532,11.816404 -1.367187,4.88282 -7.080078,6.05469 -4.638672,0.92773 -13.867187,0.92773 -11.328125,0 -14.501953,-1.2207 -4.199219,-1.61133 -4.199219,-7.42187 V 64.990234 h 7.714844 z m 0,47.851564 Q 76.123047,124.41406 87.5,117.1875 l 5.371094,6.10352 q -15.039063,8.15429 -30.078125,12.54882 v 11.08399 q 0,2.7832 1.660156,3.41797 1.611328,0.63476 9.277344,0.63476 8.251953,0 11.035156,-0.63476 2.441406,-0.58594 3.027344,-3.41797 0.732422,-3.22266 1.02539,-11.03516 l 7.56836,2.49024 q -0.04883,13.18359 -3.417969,16.60156 -1.953125,2.00195 -6.152344,2.63672 -4.443359,0.68359 -12.011719,0.68359 -12.207031,0 -15.478515,-1.26953 -4.248047,-1.66016 -4.248047,-7.32422 V 113.7207 h 7.714844 z M 174.12109,87.255859 q 6.49414,-4.882812 13.1836,-12.548828 l 6.10351,4.394531 q -6.00586,6.152344 -13.57422,11.669922 6.78711,3.857422 18.26172,8.447266 l -4.19922,6.20117 Q 180.66406,99.755859 171.19141,93.359375 v 5.859375 h -41.60157 v -4.541016 q -10.30273,7.324216 -23.77929,13.134766 l -4.00391,-5.9082 Q 114.4043,97.363281 124.70703,90.429687 118.70117,85.205078 110.79102,79.980469 L 116.11328,75 q 6.88477,4.589844 14.20899,11.132812 6.88476,-5.664062 12.01171,-12.548828 h -23.53515 v -6.49414 h 34.71679 q 4.6875,6.347656 9.57032,11.279297 Q 169.43359,73.291016 175,66.796875 l 6.00586,4.394531 q -6.25,6.201172 -13.42774,11.230469 3.22266,2.636719 6.54297,4.833984 z m -42.1875,5.761719 h 38.76953 q -11.52343,-8.007812 -20.41015,-18.847656 -7.17774,10.449219 -18.35938,18.847656 z m -0.29297,56.884762 q -3.27148,-8.98437 -7.03124,-15.47851 h -8.00782 v -25.92774 h 66.60156 v 25.92774 h -8.78906 q -3.02734,8.00781 -7.27539,15.47851 h 29.44336 v 6.49414 h -93.16406 v -6.49414 z m 8.00782,0 h 19.38476 q 3.4668,-6.29882 6.68946,-15.47851 h -32.37305 l 0.39062,0.8789 q 3.02735,6.10352 5.90821,14.59961 z m -14.94141,-35.40039 v 13.91602 h 50.39063 V 114.50195 Z M 245.70312,99.902344 V 64.501953 h 7.91016 v 35.400391 h 37.98828 v 7.080076 h -37.98828 v 15.625 h 43.89649 v 7.17774 h -43.89649 v 29.6875 h -7.91016 v -29.6875 h -43.21289 v -7.17774 h 43.21289 v -15.625 h -37.30468 v -7.080076 z m -20.8496,-3.710938 Q 218.75,82.763672 211.66992,73.095703 l 7.32422,-3.710937 q 8.10547,11.71875 13.47656,22.90039 z m 41.8457,-3.173828 q 7.66601,-11.474609 12.79297,-24.707031 l 8.10547,3.076172 q -5.81055,13.134765 -13.81836,24.902343 z m 101.31836,56.201172 h -53.8086 v 5.71289 h -7.71484 v -23.0957 h 7.71484 v 11.18164 h 19.0918 v -14.69727 h -19.0918 V 73.291016 h 23.97461 q 3.36914,-4.931641 5.41993,-9.179688 l 8.6914,2.001953 q -2.39258,3.515625 -5.46875,7.177735 h 35.25391 v 30.517574 h -59.96094 v 6.00586 h 75.3418 v 6.10352 h -75.3418 v 6.29883 h 70.94727 q -0.73243,23.87695 -3.32032,30.71289 -1.5625,4.19922 -5.51757,5.66406 -2.5879,0.92773 -6.83594,0.92773 -6.15235,0 -11.76758,-0.8789 l -1.61133,-7.22656 q 6.73828,1.02539 12.10938,1.02539 4.24804,0 5.37109,-1.95313 2.24609,-3.90625 3.36914,-22.16797 h -43.94531 v 14.69727 h 19.58008 v -11.18164 h 7.51953 z M 322.11914,79.296875 v 6.298828 h 52.09961 v -6.298828 z m 0,12.011719 v 6.689453 h 52.09961 v -6.689453 z m 136.57227,-6.00586 V 64.501953 h 7.71484 v 20.800781 h 27.7832 v 40.478516 h -27.7832 v 33.69141 h -7.71484 v -33.69141 h -26.9043 V 85.302734 Z m -19.38477,6.982422 v 26.513674 h 19.38477 V 92.285156 Z m 47.26563,26.513674 V 92.285156 H 466.40625 V 118.79883 Z M 421.77734,86.621094 q -6.54297,-8.34961 -15.2832,-15.527344 l 5.32227,-5.273438 q 8.30078,6.201172 15.67382,14.990235 z m -3.66211,25.488286 q -7.66601,-8.8379 -15.91796,-15.527349 l 5.41992,-5.46875 q 8.39843,6.201172 16.16211,14.990239 z m -13.7207,40.57617 q 9.52149,-12.69532 17.48047,-32.86133 l 6.29883,5.07812 q -7.32422,19.14063 -17.08985,33.69141 z"></path>
</svg>
