<svg xmlns="http://www.w3.org/2000/svg" id="svg1" version="1.1" height="200" width="1096">
  <defs id="defs1"></defs>
  <rect id="rect1" stroke="none" fill="none" height="200" width="1096" y="0" x="0"></rect>
  <path aria-label="宮城県南部" style="font-weight:bold;font-size:110px;font-family:'BIZ UDPGothic';fill:#ff0000" id="text1" d="M 60.478516,66.855469 H 104.36035 V 90.595703 H 92.490234 V 76.09375 H 17.133789 V 90.595703 H 5.4785156 V 66.855469 H 48.71582 V 55.952148 h 11.762696 z m 27.5,18.046875 V 113.90625 H 59.458008 q -1.450196,4.99512 -3.652344,9.66797 h 42.861328 v 36.89941 H 86.259766 v -5.53222 H 23.740234 v 5.53222 H 11.44043 v -36.89941 h 31.958007 q 2.524415,-6.92871 3.168946,-9.66797 H 21.323242 V 84.902344 Z M 33.408203,93.603516 V 105.09766 H 76.000977 V 93.603516 Z m -9.667969,39.101564 v 12.99804 H 86.259766 V 132.70508 Z M 188.20312,129.375 q -4.40429,-14.98535 -6.23046,-44.472656 h -24.65332 v 13.374023 h 21.6455 q -0.32226,26.157223 -2.20214,35.610353 -0.9668,4.67285 -3.81348,6.49902 -2.25586,1.4502 -6.44531,1.4502 -4.51172,0 -7.68067,-0.80567 l -1.07422,-9.88281 q 3.9209,0.64453 6.33789,0.64453 2.417,0 3.11524,-1.5039 1.28906,-3.11524 2.09472,-22.12891 h -11.97753 q -0.0537,0.91309 -0.0537,2.52441 -0.21484,19.33594 -3.65234,32.01172 -2.4707,9.02344 -7.89551,17.1875 l -9.13086,-7.08984 q 5.90821,-8.96973 8.05664,-21.37695 1.77247,-10.25879 1.77247,-25.0293 V 74.536133 h 35.07324 q -0.26856,-6.767578 -0.32227,-18.583985 h 11.01074 q 0.0537,12.138672 0.32227,18.583985 h 24.11621 V 84.902344 H 192.9834 l 0.0537,1.127929 q 1.02051,16.704107 3.38379,29.487307 4.99512,-10.04395 8.16406,-21.162111 l 10.15137,4.350586 q -6.66016,18.046875 -14.66309,31.313475 3.11524,8.59375 6.33789,13.2666 1.39649,2.09473 1.82617,2.09473 0.9668,0 2.09473,-11.97754 l 0.21484,-2.25586 8.37891,5.37109 q -1.12793,12.7295 -2.41699,16.75782 -1.98731,6.28418 -6.49902,6.28418 -7.62696,0 -17.24122,-18.79883 -8.64746,11.2793 -18.95996,19.33594 l -7.57324,-8.37891 q 10.36621,-7.51953 17.72461,-16.7041 1.93359,-2.41699 4.24316,-5.63965 z M 124.98535,82.001953 V 55.522461 h 10.90332 v 26.479492 h 7.89551 v 10.795899 h -7.89551 V 126.4209 q 3.49121,-1.50391 6.875,-3.16895 l 1.02051,10.25879 q -12.13867,7.25098 -28.89648,13.21289 l -3.54493,-11.33301 q 7.57325,-2.25585 13.64258,-4.56542 V 92.797852 H 112.90039 V 82.001953 Z m 79.59961,-7.788086 Q 200.8252,66.479492 194.91699,60.03418 l 8.48633,-4.511719 q 6.28418,6.445312 10.20508,13.75 z M 312.16797,58.583984 V 110.62988 H 248.25195 V 58.583984 Z m -52.36817,8.486328 v 6.713868 h 40.7129 v -6.713868 z m 0,14.28711 v 6.713867 h 40.7129 v -6.713867 z m 0,14.287109 v 6.928709 h 40.7129 v -6.928709 z m -21.6455,22.128909 h 89.05273 v 9.3457 h -44.41894 v 33.35449 H 270.5957 V 127.11914 H 226.3916 V 66.855469 h 11.7627 z m -13.75,32.4414 q 12.7832,-5.9082 24.43847,-19.81933 l 9.88282,5.74707 q -11.49414,14.55566 -25.5127,22.88086 z m 92.59765,6.92871 q -8.21777,-10.09765 -24.70703,-21.21582 l 9.23828,-6.49902 q 12.94434,7.46582 25.40528,19.60449 z m 62.03614,-36.63085 h -22.23633 v -8.8086 h 10.74219 q -2.417,-5.47851 -5.47852,-10.20508 l 9.66797,-3.544918 q 4.18945,7.036128 6.76758,13.749998 h 12.62207 q 3.16894,-6.49902 5.58593,-13.964842 l 10.7959,3.383792 q -2.73926,5.9082 -5.80078,10.58105 h 11.54785 v 8.8086 h -22.98828 v 7.84179 h 24.49219 v 9.13086 h -24.49219 v 20.30274 h -11.22558 v -20.30274 h -23.57911 v -9.13086 h 23.57911 z m 11.54785,-33.085942 h 40.71289 v 62.788082 q 0,5.53223 -2.9541,7.78809 -2.47071,1.93359 -8.3252,1.93359 -7.57324,0 -14.60937,-0.80566 l -2.63184,-10.7959 q 9.39941,1.12793 14.07227,1.12793 1.93359,0 2.25586,-0.9668 0.21484,-0.59082 0.21484,-1.66504 V 96.772461 H 350.67871 V 160.47363 H 338.70117 V 87.426758 h 40.01465 v -9.72168 h -45.97656 v -9.990234 h 45.97656 V 55.952148 h 11.87012 v 11.762696 h 46.62109 v 9.990234 h -46.62109 z m 87.81738,-19.067383 h 22.98828 v 10.366211 h -7.57324 q -2.04102,8.217773 -5.47852,17.241211 h 14.34082 v 10.366213 h -59.9414 V 95.966797 h 13.15918 Q 453.75,85.654297 451.38672,78.725586 H 444.4043 V 68.359375 h 22.77343 V 55.952148 h 11.22559 z m -16.16699,10.366211 q 2.73926,8.00293 4.24316,17.241211 h 10.95703 l 0.53711,-1.503906 q 2.30957,-6.123047 4.29688,-13.911133 l 0.4834,-1.826172 z m 33.30078,36.630864 v 43.98925 h -11.01074 v -5.26367 H 461.1084 v 6.3916 h -11.33301 v -45.11718 z m -34.42871,9.88281 v 18.63769 h 23.41797 v -18.63769 z m 71.75781,-27.124026 q 6.3916,6.069336 10.15137,14.448246 3.70605,8.3789 3.70605,16.97265 0,7.94922 -2.9541,11.70899 -3.06152,3.9209 -10.09766,3.9209 -6.01562,0 -11.65527,-0.85938 l -2.63183,-11.44043 q 6.49902,1.18164 10.74218,1.18164 3.22266,0 4.02832,-1.5039 0.53711,-1.07422 0.53711,-4.29688 0,-13.2666 -7.94922,-22.88086 -2.09472,-2.52441 -5.26367,-5.424804 l 0.64453,-1.503906 q 5.58594,-12.62207 8.70118,-26.318359 h -13.75 V 160.47363 H 505.95703 V 61.000977 h 32.33399 l 5.96191,5.478515 q -5.42481,18.476563 -11.38672,31.635742 z"></path>
</svg>
