<svg xmlns="http://www.w3.org/2000/svg" id="svg1" version="1.1" height="200" width="990">
  <defs id="defs1"></defs>
  <rect id="rect1" stroke="none" fill="none" height="200" width="990" y="0" x="0"></rect>
  <path aria-label="サハリン近海" style="font-size:100px;font-family:'BIZ UDPGothic';fill:#ff0000" id="text1" d="m 63.378906,69.042969 h 7.910156 v 19.77539 h 20.605469 v 7.177735 H 71.289062 v 4.492186 q 0,24.1211 -6.835937,36.18164 -6.787109,11.96289 -23.144531,17.91992 l -5.029297,-6.29882 q 16.748047,-5.81055 22.607422,-18.50586 4.492187,-9.81446 4.492187,-29.19922 V 95.996094 H 31.201172 V 123.97461 H 23.291016 V 95.996094 H 4.1015625 V 88.818359 H 23.291016 V 69.628906 h 7.910156 v 19.189453 h 32.177734 z m 38.037114,75.341801 q 8.44726,-12.10938 14.40429,-30.95704 5.95703,-18.798824 7.61719,-37.744136 l 7.95898,1.708984 q -6.54296,48.876952 -23.38867,72.998042 z m 76.90429,6.00585 q -6.68945,-10.98632 -12.79297,-27.19726 -8.15429,-21.72852 -12.98828,-45.996094 l 7.56836,-2.392579 q 4.58985,23.632813 13.37891,45.849613 5.41992,13.7207 11.71875,24.26757 z m 25.29297,-80.371089 h 8.20313 v 51.464849 h -8.20313 z m 50.09766,-1.02539 h 8.20312 v 33.496089 q 0,16.99219 -2.34375,25.04883 -2.49023,8.64258 -7.42187,13.81836 -8.4961,8.88672 -26.31836,13.33008 l -4.29688,-7.17773 q 20.70313,-4.54102 26.9043,-14.99024 3.95508,-6.78711 4.83398,-16.94336 0.43946,-4.88281 0.43946,-12.98828 z m 61.37695,24.169921 q -13.96484,-6.347656 -29.6875,-10.15625 l 2.58789,-7.617187 q 18.79883,4.492187 29.93164,10.107422 z m -28.90625,50.341798 q 19.72656,-1.75781 31.05469,-6.00586 29.3457,-10.98633 36.96289,-50.585938 l 6.78711,4.882813 q -4.54102,21.484375 -14.16016,34.082035 -10.54687,13.86718 -28.80859,20.06836 -11.2793,3.80859 -29.83399,5.85937 z m 107.32422,-5.17578 q 4.29687,4.44336 9.81445,7.22656 8.59375,4.3457 23.58399,4.3457 h 38.3789 q -1.41601,2.88086 -2.49023,6.88477 h -36.08399 q -16.35742,0 -25.63476,-4.58984 -5.56641,-2.78321 -10.74219,-8.20313 -8.34961,9.57031 -16.25976,15.47852 l -4.58985,-7.08008 q 7.95899,-4.98047 16.40625,-12.5 v -25.6836 h -16.21094 v -6.7871 h 23.82813 z m 14.45312,-64.11133 q 1.70899,-0.146484 3.71094,-0.292969 21.92383,-1.80664 39.99024,-7.617187 l 5.61523,6.103515 q -17.91992,5.371094 -41.60156,7.763672 v 14.941406 h 47.41211 v 6.884763 h -17.91992 v 43.40821 h -7.8125 v -43.40821 h -21.67969 q 0,13.52539 -1.17188,22.07032 -1.5625,11.4746 -6.83593,20.21484 l -6.49415,-5.17578 q 4.78516,-8.30078 6.00586,-19.33594 0.78125,-7.27539 0.78125,-20.654296 z m -18.35937,14.697266 q -7.51953,-9.960938 -15.52734,-17.138672 l 5.51757,-4.6875 q 8.20313,6.689453 15.9668,16.308593 z m 115.47851,1.904296 h 49.90235 q 0,2.636719 -0.6836,22.998048 h 10.20508 v 6.5918 h -10.44922 q -0.19531,6.25 -0.8789,17.91992 h 9.71679 v 6.49414 h -10.20507 q -0.63477,7.27539 -1.70899,9.66797 -2.14844,5.02929 -10.49804,5.02929 -4.73633,0 -11.08399,-0.78125 l -1.41601,-6.83593 q 7.32421,1.02539 12.06054,1.02539 2.73438,0 3.61328,-1.22071 0.78125,-1.12304 1.31836,-6.10351 l 0.0488,-0.78125 h -39.01367 l -0.14649,0.78125 -0.14648,0.68359 -0.83008,4.73633 -7.4707,-0.87891 q 2.63672,-14.50195 4.44336,-29.73632 h -9.76563 v -6.5918 h 10.54688 q 1.46484,-12.69531 2.4414,-22.998048 z m 27.5879,6.396485 q -0.19532,3.417973 -0.73243,11.572263 l -0.29297,5.0293 h 15.33204 q 0.0976,-2.09961 0.24414,-5.46875 0.0488,-0.87891 0.19531,-5.56641 0,-1.85547 0.14648,-5.566403 z m -7.12891,0 h -13.81836 q -0.43945,5.957033 -1.51367,16.601563 h 14.0625 q 0.29297,-3.71094 0.43945,-5.56641 0.3418,-3.61328 0.83008,-11.035153 z m -1.80664,23.193363 h -14.25781 q -0.78125,6.64062 -1.95313,14.59961 l -0.48828,3.32031 h 14.79492 l 0.29297,-2.2461 q 1.17188,-9.76562 1.61133,-15.67382 z m 7.32422,0 -0.48828,5.12695 q -0.83008,8.78906 -1.31836,12.79297 h 16.40625 q 0.48828,-6.34766 0.73242,-12.30469 l 0.29297,-5.61523 z m -19.0918,-46.630863 h 48.92578 v 6.689453 h -52.00195 q -4.00391,7.958984 -9.91211,14.941406 l -5.37109,-5.224609 q 9.47265,-10.546875 14.01367,-25.78125 l 7.4707,0.78125 q -1.5625,4.833984 -3.125,8.59375 z m -24.75586,12.5 q -6.44531,-8.447266 -14.4043,-15.38086 l 5.27344,-5.078125 q 7.51953,5.810547 14.69727,14.697266 z m -3.51562,25.732423 q -7.66602,-9.32617 -14.79493,-15.332033 l 5.41993,-5.371093 q 8.39843,6.787109 15.08789,14.794926 z m -12.69532,41.06445 q 8.88672,-12.64648 16.21094,-31.98242 l 6.39649,4.6875 q -7.37305,19.92187 -16.3086,33.00781 z"></path>
</svg>
