<svg xmlns="http://www.w3.org/2000/svg" id="svg1" version="1.1" height="200" width="990">
  <defs id="defs1"></defs>
  <rect id="rect1" stroke="none" fill="none" height="200" width="990" y="0" x="0"></rect>
  <path aria-label="青森県下北地方" style="font-size:100px;font-family:'BIZ UDPGothic';fill:#ff0000" id="text1" d="m 45.800781,71.582031 v -7.080078 h 7.666016 v 7.080078 h 37.646484 v 5.908203 H 53.466797 v 6.103516 h 32.128906 v 5.810547 H 53.466797 v 6.49414 h 44.042969 v 5.908203 H 2.4902344 V 95.898437 H 45.800781 v -6.49414 H 14.208984 V 83.59375 H 45.800781 V 77.490234 H 8.7890625 v -5.908203 z m 37.304688,36.425779 v 42.8711 q 0,4.39453 -2.050782,6.29882 -2.050781,1.9043 -7.27539,1.9043 -5.615235,0 -14.697266,-0.68359 l -1.464844,-7.12891 q 8.740235,0.92774 14.013672,0.92774 2.490235,0 3.076172,-1.12305 0.390625,-0.73242 0.390625,-2.29492 v -8.78907 H 24.902344 v 19.48243 h -8.007813 v -51.46485 z m -58.203125,5.81055 v 6.98242 h 50.195312 v -6.98242 z m 0,12.89062 v 7.37305 h 50.195312 v -7.37305 z M 158.78906,80.908203 q 14.35547,10.742188 36.81641,18.408203 l -4.6875,6.689454 q -24.1211,-9.277344 -37.40235,-22.216798 v 25.732418 h -7.71484 V 84.619141 q -12.89062,14.30664 -36.71875,22.705079 l -4.49219,-5.9082 q 23.68164,-7.568364 36.81641,-20.507817 h -33.64258 v -6.591797 h 38.03711 v -9.814453 h 7.71484 v 9.814453 h 38.86719 v 6.591797 z m 18.79883,40.771487 q 7.71484,12.98828 20.94727,21.67968 l -4.54102,7.12891 q -11.91406,-9.91211 -18.26172,-21.48437 v 30.46875 h -7.51953 v -29.19922 q -6.54297,12.40234 -17.62695,21.28906 l -4.78516,-5.56641 q 12.93945,-9.96093 20.60547,-24.3164 h -15.33203 v -6.5918 h 17.13867 V 104.6875 h 7.51953 v 10.40039 h 21.77735 v 6.5918 z m -53.66211,7.95898 q -7.32422,13.33008 -17.91992,22.26563 l -4.29688,-6.34766 q 12.74415,-9.47266 20.60547,-23.87695 h -19.82422 v -6.5918 h 21.43555 V 104.6875 h 7.51953 v 10.40039 h 15.86914 v 6.5918 h -15.86914 v 3.56445 q 7.37305,4.44336 16.06446,11.62109 l -4.58985,6.00586 q -5.12695,-5.12695 -11.47461,-10.44922 v 27.05079 h -7.51953 z M 282.86133,67.578125 V 114.4043 H 225.78125 V 67.578125 Z m -49.36524,6.005859 v 7.714844 h 41.55274 v -7.714844 z m 0,13.330078 v 7.763672 h 41.55274 v -7.763672 z m 0,13.476568 v 8.30078 h 41.55274 v -8.30078 z M 214.4043,122.2168 h 83.05664 v 6.49414 h -41.99219 v 30.81054 h -7.91016 V 128.71094 H 206.5918 V 74.267578 h 7.8125 z m -9.22852,29.6875 q 12.79297,-6.15235 23.0957,-19.28711 l 6.5918,3.66211 q -10.40039,13.62304 -24.07226,21.72851 z m 84.17969,4.10156 q -10.25391,-11.18164 -23.29102,-19.82422 l 6.00586,-4.49219 q 11.76758,7.37305 23.68164,18.79883 z m 62.45117,-77.783204 v 15.039063 q 1.02539,0.488281 2.09961,1.02539 16.35742,7.861331 36.62109,21.044921 l -5.71289,6.98242 Q 369.9707,111.66992 351.80664,101.75781 v 57.76367 H 343.4082 V 78.222656 h -39.99023 v -7.324219 h 93.16406 v 7.324219 z m 78.80859,54.589844 q -11.42578,6.25 -25.09765,11.81641 l -3.51563,-7.71485 q 17.33399,-6.15234 28.61328,-11.96289 V 98.535156 h -25.63476 v -7.421875 h 25.63476 V 65.527344 h 8.00782 v 93.212886 h -8.00782 z M 462.01172,97.949219 Q 475,91.845703 487.30469,81.591797 l 6.20117,6.103515 Q 478.36914,98.779297 462.01172,105.9082 v 38.1836 q 0,3.07617 2.24609,3.71093 1.80664,0.53711 10.35156,0.53711 8.05665,0 10.35157,-1.12304 1.66015,-0.83008 2.24609,-4.29688 0.68359,-4.44336 1.07422,-14.84375 l 7.91016,2.73438 q -0.58594,16.01562 -2.2461,19.9707 -1.61133,3.90625 -7.03125,4.88281 -4.63867,0.83008 -13.52539,0.83008 -12.10937,0 -15.42969,-1.5625 -3.95507,-1.85547 -3.95507,-7.91016 V 65.478516 h 8.00781 z m 87.20703,5.273441 v 40.86914 q 0,4.05273 2.39258,4.98047 2.58789,0.97656 16.45508,0.97656 13.42773,0 17.38281,-0.92774 2.7832,-0.68359 3.56445,-3.22265 1.2207,-4.00391 1.26953,-12.40235 l 7.51953,2.78321 q -0.68359,13.23242 -3.51562,16.79687 -2.24609,2.92969 -7.27539,3.4668 -7.66602,0.78125 -20.75195,0.78125 -12.45118,0 -16.74805,-0.83008 -5.3711,-1.07422 -6.83594,-4.88281 -0.78125,-2.09961 -0.78125,-5.51758 v -40.38086 l -10.49805,3.56445 -1.90429,-6.98242 12.40234,-4.150389 v -26.5625 h 7.32422 v 24.072266 l 12.8418,-4.345703 V 64.501953 h 7.32422 v 24.365234 l 18.01757,-6.054687 4.39453,2.392578 v 35.986332 q 0,3.51562 -1.66015,5.32226 -1.95313,2.09961 -6.83594,2.09961 -3.95508,0 -7.71484,-0.53711 l -1.26953,-6.98242 q 3.71093,0.68359 6.93359,0.68359 2.44141,0 2.97852,-1.07421 0.39062,-0.73243 0.39062,-2.29493 V 91.113281 l -15.23437,5.175781 v 39.794918 h -7.32422 V 98.779297 Z M 516.50391,88.916016 V 65.136719 h 7.71484 v 23.779297 h 10.79102 v 7.177734 h -10.79102 v 34.96094 q 5.12695,-1.75782 11.71875,-4.44336 l 0.78125,6.88476 q -14.94141,6.88477 -32.03125,12.10938 l -2.7832,-7.61719 q 6.78711,-1.85547 14.59961,-4.3457 V 96.09375 h -13.28125 v -7.177734 z m 128.95507,0.04883 q 0,7.324218 -0.92773,17.041016 h 39.4043 q -0.6836,32.91016 -3.75977,43.60351 -1.26953,4.49219 -4.83398,6.34766 -3.02735,1.5625 -9.08203,1.5625 -8.39844,0 -15.33204,-0.92773 l -1.31836,-8.00782 q 10.15625,1.31836 16.3086,1.31836 4.05273,0 5.32226,-1.70898 1.07422,-1.46484 2.14844,-8.49609 1.5625,-9.96094 2.14844,-26.70899 h -31.93359 q -1.80665,11.37695 -5.76172,19.28711 -7.91016,15.91797 -26.02539,25.73242 l -5.61524,-6.29883 q 19.38477,-10.15625 25.58594,-26.36718 5.17578,-13.57422 5.56641,-36.376956 h -33.54493 v -7.177735 h 41.69922 V 64.501953 h 8.00781 v 17.285156 h 42.67579 v 7.177735 z"></path>
</svg>
