<svg xmlns="http://www.w3.org/2000/svg" id="svg1" version="1.1" height="200" width="990">
  <defs id="defs1"></defs>
  <rect id="rect1" stroke="none" fill="none" height="200" width="990" y="0" x="0"></rect>
  <path aria-label="熊本県球磨地方" style="font-size:100px;font-family:'BIZ UDPGothic';fill:#ff0000" id="text1" d="m 11.035156,80.175781 q 5.22461,-7.470703 9.179688,-16.162109 l 7.666015,2.197265 q -4.394531,7.714844 -8.789062,13.574219 l 1.318359,-0.04883 q 10.009766,-0.585937 17.72461,-1.416016 l 0.78125,-0.09766 -0.53711,-0.585937 q -2.197265,-2.587891 -5.664062,-6.347657 l 5.46875,-3.173828 q 8.789062,8.496094 14.599609,16.503907 l -5.664062,4.003906 q -2.978516,-3.90625 -4.199219,-5.46875 -0.683594,0.09766 -1.31836,0.195312 -14.355468,2.09961 -37.695312,3.564453 L 2.0019531,80.517578 Q 4.4433594,80.419922 7.03125,80.322266 Z M 45.3125,90.820312 v 34.863278 q 0,4.05274 -1.660156,5.66407 -1.708985,1.61132 -6.054688,1.61132 -5.224609,0 -9.375,-0.58593 l -1.318359,-6.49414 q 5.322265,0.78125 8.886719,0.78125 1.708984,0 2.001953,-0.87891 0.195312,-0.58594 0.195312,-1.9043 v -6.20117 H 16.601562 v 16.01563 H 9.1796875 V 90.820312 Z m -28.710938,5.517579 v 5.468749 h 21.386719 v -5.468749 z m 0,10.644529 v 5.61524 h 21.386719 v -5.61524 z M 62.207031,76.220703 q 11.621094,-2.636719 23.486328,-8.007812 l 5.22461,5.273437 q -13.81836,5.664063 -28.710938,8.886719 v 5.322265 q 0,2.734375 1.513672,3.417969 1.464844,0.683594 9.716797,0.683594 8.447266,0 11.132812,-0.585938 2.88086,-0.634765 3.613282,-3.710937 0.439453,-1.855469 0.634765,-6.494141 l 6.884766,2.783203 q -0.09766,9.91211 -4.101563,12.25586 -3.662109,2.197265 -19.091796,2.197265 -11.279297,0 -14.208985,-1.367187 -3.515625,-1.660156 -3.515625,-6.591797 v -25.78125 h 7.421875 z m 0,33.789067 q 13.574219,-3.07618 25,-8.10547 l 5.615235,5.27343 q -14.404297,5.95704 -30.615235,8.88672 v 5.61524 q 0,2.49023 1.464844,3.17383 1.806641,0.78125 12.744141,0.78125 8.203125,0 10.644531,-0.83008 1.855469,-0.58594 2.392578,-3.61328 0.244141,-1.31836 0.634766,-6.29883 l 6.835937,2.68555 q -0.09766,8.49609 -2.294922,11.23046 -1.953125,2.39258 -7.128906,3.02735 -4.296875,0.48828 -12.011719,0.48828 -11.865234,0 -15.429687,-0.87891 -5.273438,-1.26953 -5.273438,-7.22656 v -24.02344 h 7.421875 z M 3.7109375,155.17578 q 6.9335935,-7.66601 11.2792965,-18.45703 l 7.421875,2.88086 Q 17.96875,152.19727 10.888672,159.7168 Z m 34.0820315,3.51563 Q 35.9375,148.04687 33.300781,139.79492 l 7.617188,-1.9043 q 3.125,8.34961 5.175781,18.70118 z m 23.925781,-1.26954 q -3.369141,-11.18164 -7.128906,-18.21289 l 7.128906,-2.58789 q 4.248047,7.42188 7.861328,17.8711 z m 28.076172,0.78125 Q 83.935547,147.2168 77.001953,138.47656 l 6.787109,-3.46679 q 7.519532,8.78906 13.720704,19.38476 z M 156.39648,90.820312 q 7.12891,12.353518 17.96875,23.535158 10.49805,10.9375 23.4375,18.75 l -5.12695,6.88476 q -15.13672,-10.20507 -26.80664,-24.26757 -7.37305,-8.83789 -12.35352,-17.919926 v 34.423826 h 19.87305 v 7.08008 h -19.67773 v 20.21484 h -8.10547 V 139.30664 H 126.9043 v -7.08008 h 18.89648 V 98.4375 q -6.10351,13.13477 -17.23633,25.53711 -9.08203,10.20508 -20.65429,18.21289 l -5.32227,-6.39648 q 25.14649,-15.72266 40.33203,-44.970708 h -38.03711 v -7.324218 h 40.72266 V 64.501953 h 8.10547 v 18.994141 h 41.35742 v 7.324218 z M 282.86133,67.578125 V 114.4043 H 225.78125 V 67.578125 Z m -49.36524,6.005859 v 7.714844 h 41.55274 v -7.714844 z m 0,13.330078 v 7.763672 h 41.55274 v -7.763672 z m 0,13.476568 v 8.30078 h 41.55274 v -8.30078 z M 214.4043,122.2168 h 83.05664 v 6.49414 h -41.99219 v 30.81054 h -7.91016 V 128.71094 H 206.5918 V 74.267578 h 7.8125 z m -9.22852,29.6875 q 12.79297,-6.15235 23.0957,-19.28711 l 6.5918,3.66211 q -10.40039,13.62304 -24.07226,21.72851 z m 84.17969,4.10156 q -10.25391,-11.18164 -23.29102,-19.82422 l 6.00586,-4.49219 q 11.76758,7.37305 23.68164,18.79883 z m 78.61328,-65.136719 0.14648,0.78125 q 2.19727,9.667969 7.12891,20.263669 7.22656,-7.08008 13.7207,-17.138669 l 6.39649,4.785156 q -7.95899,10.107423 -17.08985,18.115233 7.66602,13.23242 19.92188,23.63281 l -4.93164,7.17774 q -16.45508,-14.79492 -25.48828,-39.59961 v 42.62695 q 0,4.58985 -2.29492,6.44531 -1.80665,1.46485 -5.41993,1.46485 -4.44336,0 -11.71875,-0.83008 l -1.46484,-7.61719 q 5.95703,1.02539 10.30273,1.02539 2.29493,0 2.73438,-0.73242 0.3418,-0.48828 0.3418,-2.14844 V 90.869141 h -25 v -6.982422 h 25 V 64.501953 h 7.51953 v 19.384766 h 28.32031 v 6.982422 z M 323.7793,79.589844 v 22.021486 h 10.40039 v 6.88476 H 323.7793 v 22.2168 q 6.15234,-2.53906 13.47656,-6.10351 l 1.02539,6.7871 q -17.87109,9.13086 -34.81445,15.28321 l -2.58789,-7.56836 q 7.76367,-2.49024 14.69726,-5.12696 l 0.78125,-0.29296 v -25.19532 h -12.40234 v -6.88476 h 12.40234 V 79.589844 h -13.28125 v -7.080078 h 33.39844 v 7.080078 z m 60.30273,2.099609 Q 379.6875,74.755859 374.07227,68.701172 l 5.9082,-3.613281 q 5.5664,5.322265 10.49805,12.597656 z M 350,116.60156 q -6.49414,-9.32617 -13.52539,-16.21093 l 5.71289,-4.394536 q 6.29883,6.005856 13.57422,15.917966 z m -18.11523,23.68164 q 12.40234,-6.68945 23.29101,-17.08984 l 2.49024,6.49414 q -9.52149,9.7168 -21.58204,17.43164 z M 476.2207,79.199219 v 7.8125 h 18.11524 v 5.517578 h -15.18555 q 7.76367,9.423833 17.87109,15.087893 l -4.29687,5.22461 q -10.00977,-6.25 -16.50391,-15.429691 v 17.333981 h -6.88476 V 97.949219 q -0.19532,0.341797 -0.43946,0.830078 -4.6875,8.447263 -13.08593,14.453123 l -4.29688,-4.58984 q 9.42383,-6.29883 15.2832,-16.113283 h -10.79101 v -5.517578 h 13.33008 v -7.8125 h -28.27149 v 7.8125 h 11.6211 v 5.517578 h -11.6211 v 2.539062 q 5.61524,2.734375 12.01172,7.275391 l -3.80859,5.07813 q -4.83399,-4.00391 -8.20313,-6.39649 v 13.7207 h -6.88476 V 99.365234 q -5.27344,8.349606 -13.08594,13.964846 l -4.49219,-4.6875 q 9.13086,-5.85938 15.72266,-16.113283 h -13.42774 v -5.517578 h 15.28321 v -7.8125 h -17.77344 v 27.636721 q 0,21.33789 -1.75781,33.10547 -1.61133,10.54687 -5.76172,19.18945 l -6.68945,-5.12695 q 4.15039,-8.98438 5.5664,-21.82618 1.12305,-10.49804 1.12305,-26.95312 V 73.095703 h 39.50195 v -8.59375 h 7.8125 v 8.59375 h 39.59961 v 6.103516 z m -34.71679,53.515621 h 47.99804 v 26.75782 h -7.8125 v -4.58985 h -43.99414 v 4.58985 h -7.71484 v -18.21289 q -4.54102,2.88085 -10.5957,5.81054 l -4.49219,-5.66406 q 15.86914,-6.15234 25.78125,-17.28516 h -22.50977 v -6.00586 h 79.34571 v 6.00586 H 449.6582 q -3.41797,4.34571 -8.15429,8.59375 z m -3.8086,5.90821 v 10.35156 h 43.99414 v -10.35156 z m 111.52344,-35.40039 v 40.86914 q 0,4.05273 2.39258,4.98047 2.58789,0.97656 16.45508,0.97656 13.42773,0 17.38281,-0.92774 2.7832,-0.68359 3.56445,-3.22265 1.2207,-4.00391 1.26953,-12.40235 l 7.51953,2.78321 q -0.68359,13.23242 -3.51562,16.79687 -2.24609,2.92969 -7.27539,3.4668 -7.66602,0.78125 -20.75195,0.78125 -12.45118,0 -16.74805,-0.83008 -5.3711,-1.07422 -6.83594,-4.88281 -0.78125,-2.09961 -0.78125,-5.51758 v -40.38086 l -10.49805,3.56445 -1.90429,-6.98242 12.40234,-4.150389 v -26.5625 h 7.32422 v 24.072266 l 12.8418,-4.345703 V 64.501953 h 7.32422 v 24.365234 l 18.01757,-6.054687 4.39453,2.392578 v 35.986332 q 0,3.51562 -1.66015,5.32226 -1.95313,2.09961 -6.83594,2.09961 -3.95508,0 -7.71484,-0.53711 l -1.26953,-6.98242 q 3.71093,0.68359 6.93359,0.68359 2.44141,0 2.97852,-1.07421 0.39062,-0.73243 0.39062,-2.29493 V 91.113281 l -15.23437,5.175781 v 39.794918 h -7.32422 V 98.779297 Z M 516.50391,88.916016 V 65.136719 h 7.71484 v 23.779297 h 10.79102 v 7.177734 h -10.79102 v 34.96094 q 5.12695,-1.75782 11.71875,-4.44336 l 0.78125,6.88476 q -14.94141,6.88477 -32.03125,12.10938 l -2.7832,-7.61719 q 6.78711,-1.85547 14.59961,-4.3457 V 96.09375 h -13.28125 v -7.177734 z m 128.95507,0.04883 q 0,7.324218 -0.92773,17.041016 h 39.4043 q -0.6836,32.91016 -3.75977,43.60351 -1.26953,4.49219 -4.83398,6.34766 -3.02735,1.5625 -9.08203,1.5625 -8.39844,0 -15.33204,-0.92773 l -1.31836,-8.00782 q 10.15625,1.31836 16.3086,1.31836 4.05273,0 5.32226,-1.70898 1.07422,-1.46484 2.14844,-8.49609 1.5625,-9.96094 2.14844,-26.70899 h -31.93359 q -1.80665,11.37695 -5.76172,19.28711 -7.91016,15.91797 -26.02539,25.73242 l -5.61524,-6.29883 q 19.38477,-10.15625 25.58594,-26.36718 5.17578,-13.57422 5.56641,-36.376956 h -33.54493 v -7.177735 h 41.69922 V 64.501953 h 8.00781 v 17.285156 h 42.67579 v 7.177735 z"></path>
</svg>
