<svg xmlns="http://www.w3.org/2000/svg" id="svg1" version="1.1" height="200" width="990">
  <defs id="defs1"></defs>
  <rect id="rect1" stroke="none" fill="none" height="200" width="990" y="0" x="0"></rect>
  <path aria-label="遠地" style="font-size:100px;font-family:'BIZ UDPGothic';fill:#ff0000" id="text1" d="m 25,138.7207 q 4.296875,4.78516 10.302734,7.51953 8.837891,3.95508 23.486328,3.95508 h 39.59961 q -1.416016,2.97852 -2.490235,6.88477 H 58.789062 q -16.455078,0 -25.732421,-4.34571 Q 27.197266,150 21.923828,144.48242 l -0.439453,0.48828 q -7.568359,8.83789 -14.8925781,14.59961 l -4.296875,-7.08008 Q 10.498047,146.97266 17.480469,140.47852 V 114.20898 H 2.4902344 v -6.7871 H 25 Z m 60.986328,-20.89843 4.785156,3.36914 q -5.224609,5.41992 -10.986328,9.71679 6.054688,2.78321 13.085938,6.29883 l -4.785157,6.00586 q -14.697265,-8.39844 -23.68164,-12.59766 v 17.1875 h -7.421875 v -21.875 q -10.498047,7.91016 -22.998047,12.98829 l -4.6875,-5.51758 q 16.113281,-5.85938 27.978516,-15.18555 H 36.376953 V 97.509766 h 49.609375 z m -2.392578,0.39062 H 66.796875 q -0.732422,0.68359 -2.392578,2.05078 v 4.10156 q 4.248047,1.66016 9.130859,3.75977 5.322266,-4.49219 10.058594,-9.91211 z M 43.798828,103.02734 v 9.66797 h 34.667969 v -9.66797 z M 56.982422,72.216797 v -7.714844 h 7.421875 v 7.714844 H 89.306641 V 78.125 H 64.404297 v 7.373047 h 30.371094 v 6.005859 H 28.710937 V 85.498047 H 56.982422 V 78.125 H 33.789062 V 72.216797 Z M 20.703125,88.378906 Q 13.427734,77.978516 6.2011719,70.996094 L 11.71875,66.503906 q 7.421875,6.640625 14.892578,16.699219 z M 149.21875,103.22266 v 40.86914 q 0,4.05273 2.39258,4.98047 2.58789,0.97656 16.45508,0.97656 13.42773,0 17.38281,-0.92774 2.7832,-0.68359 3.56445,-3.22265 1.2207,-4.00391 1.26953,-12.40235 l 7.51953,2.78321 q -0.68359,13.23242 -3.51562,16.79687 -2.24609,2.92969 -7.27539,3.4668 -7.66602,0.78125 -20.75195,0.78125 -12.45118,0 -16.74805,-0.83008 -5.3711,-1.07422 -6.83594,-4.88281 -0.78125,-2.09961 -0.78125,-5.51758 v -40.38086 l -10.49805,3.56445 -1.90429,-6.98242 12.40234,-4.150389 v -26.5625 h 7.32422 v 24.072266 l 12.8418,-4.345703 V 64.501953 h 7.32422 v 24.365234 l 18.01757,-6.054687 4.39453,2.392578 v 35.986332 q 0,3.51562 -1.66015,5.32226 -1.95313,2.09961 -6.83594,2.09961 -3.95508,0 -7.71484,-0.53711 l -1.26953,-6.98242 q 3.71093,0.68359 6.93359,0.68359 2.44141,0 2.97852,-1.07421 0.39062,-0.73243 0.39062,-2.29493 V 91.113281 l -15.23437,5.175781 v 39.794918 h -7.32422 V 98.779297 Z M 116.50391,88.916016 V 65.136719 h 7.71484 v 23.779297 h 10.79102 v 7.177734 h -10.79102 v 34.96094 q 5.12695,-1.75782 11.71875,-4.44336 l 0.78125,6.88476 q -14.94141,6.88477 -32.03125,12.10938 l -2.7832,-7.61719 q 6.78711,-1.85547 14.59961,-4.3457 V 96.09375 h -13.28125 v -7.177734 z"></path>
</svg>
