<svg xmlns="http://www.w3.org/2000/svg" id="svg1" version="1.1" height="200" width="990">
  <defs id="defs1"></defs>
  <rect id="rect1" stroke="none" fill="none" height="200" width="990" y="0" x="0"></rect>
  <path aria-label="福井県嶺北" style="font-size:100px;font-family:'BIZ UDPGothic';fill:#ff0000" id="text1" d="m 25.537109,107.95898 q 7.617188,5.41993 14.306641,11.42579 l -4.541016,6.59179 q -3.710937,-4.24804 -9.765625,-9.81445 v 43.31055 h -7.617187 v -42.72461 q -6.005859,6.88476 -12.3046876,12.45117 l -4.0039063,-6.93359 q 9.8144529,-8.10547 17.6757809,-18.50586 5.908203,-7.812504 9.521485,-15.673833 H 3.6132813 V 81.005859 H 17.822266 V 64.501953 h 7.519531 v 16.503906 h 9.375 l 3.515625,3.90625 Q 33.740234,95.458984 25.537109,107.17773 Z M 89.404297,82.177734 V 106.68945 H 45.507812 V 82.177734 Z m -36.71875,6.00586 V 100.68359 H 81.884766 V 88.183594 Z M 94.53125,113.62305 v 45.84961 h -7.324219 v -4.58985 h -39.0625 v 4.58985 h -7.324219 v -45.84961 z m -46.386719,6.20117 v 11.08398 h 15.771485 v -11.08398 z m 0,17.08984 v 11.66992 h 15.771485 v -11.66992 z m 39.0625,11.66992 v -11.66992 h -16.40625 v 11.66992 z m 0,-17.67578 V 119.82422 H 70.800781 V 130.9082 Z M 39.013672,68.896484 h 57.27539 v 6.494141 h -57.27539 z m 89.355468,15.38086 V 65.380859 h 8.10547 v 18.896485 h 27.49023 V 64.501953 h 8.00782 v 19.775391 h 21.67968 v 7.080078 h -21.67968 v 26.318358 h 25.48828 v 7.08008 h -25.48828 v 34.7168 h -8.00782 v -34.7168 h -27.58789 q -0.29297,11.81641 -4.73633,19.28711 -5.41992,8.93555 -16.99218,15.23437 l -5.85938,-6.20117 q 12.01172,-6.00586 16.25977,-14.35547 2.68555,-5.32226 3.17383,-13.96484 H 102.7832 v -7.08008 h 25.58594 V 91.357422 h -22.02148 v -7.080078 z m 35.5957,7.080078 h -27.49023 v 26.318358 h 27.49023 z M 282.86133,67.578125 V 114.4043 H 225.78125 V 67.578125 Z m -49.36524,6.005859 v 7.714844 h 41.55274 v -7.714844 z m 0,13.330078 v 7.763672 h 41.55274 v -7.763672 z m 0,13.476568 v 8.30078 h 41.55274 v -8.30078 z M 214.4043,122.2168 h 83.05664 v 6.49414 h -41.99219 v 30.81054 h -7.91016 V 128.71094 H 206.5918 V 74.267578 h 7.8125 z m -9.22852,29.6875 q 12.79297,-6.15235 23.0957,-19.28711 l 6.5918,3.66211 q -10.40039,13.62304 -24.07226,21.72851 z m 84.17969,4.10156 q -10.25391,-11.18164 -23.29102,-19.82422 l 6.00586,-4.49219 q 11.76758,7.37305 23.68164,18.79883 z m 24.80469,-49.21875 h 23.63281 v 5.61523 h -24.90235 v -4.54101 q -2.97851,2.49023 -6.7871,5.0293 l -4.49219,-5.22461 q 12.40234,-7.47071 19.67773,-20.800786 h 7.8125 q 0.6836,0.585938 1.95313,1.611328 7.76367,6.298829 16.06445,15.234378 l -4.93164,5.46875 q -7.12891,-8.78906 -16.11328,-16.796878 -4.98047,8.203128 -11.91406,14.404298 z m 56.59179,-3.4668 h 20.84961 v 39.89258 h -41.5039 v -39.89258 h 13.42773 q 1.31836,-3.515623 2.24609,-6.835935 h -20.99609 v -5.908203 h 51.61133 v 5.908203 h -22.99805 q -1.36719,4.199215 -2.63672,6.835935 z m 13.96485,5.32227 h -27.83203 v 6.15234 h 27.83203 z m -27.83203,11.23047 v 6.25 h 27.83203 v -6.25 z m 0,11.42578 v 6.49414 h 27.83203 v -6.49414 z m -3.07618,-54.003908 h 27.68555 v -9.619141 h 7.71484 V 83.203125 H 311.52344 V 67.675781 h 7.61718 v 9.619141 h 27.14844 V 64.501953 h 7.51953 z m -9.91211,43.212888 v 19.92188 q 0,3.85742 -2.19726,5.46875 -1.61133,1.2207 -6.15235,1.2207 -3.71093,0 -6.54296,-0.39062 l -1.12305,-6.39649 q 4.54101,0.58594 6.88476,0.58594 1.66016,0 2.05079,-0.73242 0.29296,-0.58594 0.29296,-1.75782 v -12.01171 h -11.8164 v 33.10546 h -6.98242 v -33.10546 h -13.47657 v -5.90821 z m -3.46679,33.98438 q 10.74218,-3.56446 18.99414,-10.00977 l 5.81054,4.10156 q -8.54492,7.08008 -20.01953,11.23047 z m 52.09961,5.02929 q -9.32618,-6.20117 -19.14063,-10.9375 l 5.12695,-4.29687 q 9.27735,3.80859 19.48243,9.81445 z m 38.08593,-26.70898 q -11.42578,6.25 -25.09765,11.81641 l -3.51563,-7.71485 q 17.33399,-6.15234 28.61328,-11.96289 V 98.535156 h -25.63476 v -7.421875 h 25.63476 V 65.527344 h 8.00782 v 93.212886 h -8.00782 z M 462.01172,97.949219 Q 475,91.845703 487.30469,81.591797 l 6.20117,6.103515 Q 478.36914,98.779297 462.01172,105.9082 v 38.1836 q 0,3.07617 2.24609,3.71093 1.80664,0.53711 10.35156,0.53711 8.05665,0 10.35157,-1.12304 1.66015,-0.83008 2.24609,-4.29688 0.68359,-4.44336 1.07422,-14.84375 l 7.91016,2.73438 q -0.58594,16.01562 -2.2461,19.9707 -1.61133,3.90625 -7.03125,4.88281 -4.63867,0.83008 -13.52539,0.83008 -12.10937,0 -15.42969,-1.5625 -3.95507,-1.85547 -3.95507,-7.91016 V 65.478516 h 8.00781 z"></path>
</svg>
