<svg xmlns="http://www.w3.org/2000/svg" id="svg9" viewBox="0,0,380,256.49999" height="256.49999" width="380" version="1.1">
  <defs id="defs9"></defs>
  
  <g id="g9" transform="translate(-50,-51.75007)">
    <g id="g8" stroke-miterlimit="10" stroke="none">
      <path id="path1" stroke-linejoin="round" stroke-linecap="round" stroke-width="1" fill="#1e232b" d="M60,51.75008h360c5.54,0 10,4.57596 10,10.26v235.98c0,5.68404 -4.46,10.25999 -10,10.25999h-360c-5.54,0 -10,-4.57595 -10,-10.25999v-235.98c0,-5.68404 4.46,-10.26 10,-10.26z"></path>
      <g id="g16">
        <path aria-label="(動作不安定)" style="font-weight:bold;font-size:10px;line-height:1.1;font-family:'BIZ UDPGothic';-inkscape-font-specification:'BIZ UDPGothic Bold';fill:#ffffff;stroke-width:25;stroke-linecap:round;stroke-linejoin:round" id="text14" d="m 148.70456,213.57854 q -0.89356,-0.80567 -1.46484,-1.96778 -0.70313,-1.43066 -0.70313,-2.78808 0,-1.53809 0.88379,-3.12989 0.53711,-0.96191 1.28418,-1.61621 h 0.95215 q -0.6543,0.75196 -1.05469,1.38672 -1.01562,1.6211 -1.01562,3.36914 0,1.65039 0.9082,3.1836 0.42969,0.72265 1.16211,1.5625 z m 8.41309,-7.43164 0.0488,-2.07032 h 0.98145 l -0.0439,2.07032 h 1.85059 q -0.0488,5.45898 -0.41016,6.61132 -0.15625,0.49805 -0.5664,0.63477 -0.20996,0.0732 -0.625,0.0732 -0.542,0 -1.02539,-0.0684 l -0.19043,-1.03027 q 0.56152,0.10742 0.99121,0.10742 0.34668,0 0.44433,-0.19043 0.0928,-0.18555 0.18067,-0.89844 0.17578,-1.41601 0.22461,-4.0332 l 0.005,-0.24414 h -0.94238 q -0.083,2.16797 -0.51758,3.59375 -0.53223,1.73828 -1.66504,2.88574 l -0.80078,-0.62011 q 0.23926,-0.22461 0.38574,-0.4004 -2.44141,0.44434 -4.67773,0.65918 l -0.21973,-0.92285 q 1.21582,-0.0732 2.30957,-0.18066 v -0.67871 h -2.09961 v -0.77149 h 2.09961 v -0.55664 h -1.87012 v -3.208 h 1.87012 v -0.542 h -2.25098 v -0.76172 h 2.25098 v -0.43457 q -0.7373,0.0733 -1.67969,0.12696 l -0.35156,-0.75196 q 2.34375,-0.0977 4.18457,-0.50781 l 0.55664,0.70801 q -0.7959,0.20019 -1.74805,0.31738 v 0.54199 h 2.1875 v 0.542 z m -0.0439,0.96191 h -1.08887 v -0.74219 h -2.16797 v 0.542 h 1.89942 v 3.208 h -1.89942 v 0.55664 h 2.02149 v 0.77149 h -2.02149 v 0.58105 l 0.41016,-0.0391 q 0.82031,-0.083 1.77246,-0.24414 0.91797,-1.67481 1.06445,-4.50195 z m -4.18945,0.45898 h -1.05957 v 0.62012 h 1.05957 z m 0.90332,0 v 0.62012 h 1.08886 v -0.62012 z m -0.90332,1.22071 h -1.05957 v 0.66894 h 1.05957 z m 0.90332,0 v 0.66894 h 1.08886 v -0.66894 z m 12.29004,-2.27051 h -0.80079 q -0.50292,1.23535 -1.28906,2.2168 l -0.70801,-0.86914 q 1.24512,-1.5625 1.76758,-3.85743 l 1.03028,0.2002 q -0.19043,0.70312 -0.41504,1.34766 h 4.44336 v 0.96191 h -2.97852 v 1.40625 h 2.37793 v 0.89844 h -2.37793 v 1.39648 h 2.58789 v 0.91797 h -2.58789 v 2.44141 h -1.0498 z m -3.02246,0.005 v 7.05567 h -1.08887 v -5.11231 q -0.42481,0.63477 -0.95215,1.28418 l -0.51758,-1.09375 q 0.9082,-1.0498 1.58203,-2.55371 0.39063,-0.86914 0.7959,-2.10449 l 1.04004,0.26855 q -0.36621,1.19629 -0.85937,2.25586 z m 13.53027,-0.7666 q -0.27344,0.44922 -0.70313,1.03027 v 6.792 h -1.11816 v -5.46875 q -1.47949,1.58691 -3.51074,2.74902 l -0.66895,-0.91309 q 3.11524,-1.7041 4.70703,-4.18945 h -4.39941 v -1.04004 h 8.93066 v 1.04004 z m 2.75879,4.84863 q -1.38672,-1.45507 -3.27149,-2.88086 l 0.76172,-0.7373 q 1.94336,1.35742 3.30078,2.71973 z m 8.81347,-1.78222 q -0.48339,1.4209 -1.58203,2.49511 1.4502,0.59083 3.16895,1.41602 l -0.72266,0.87891 q -1.82617,-1.02539 -3.22754,-1.66504 -1.87011,1.30371 -4.55078,1.65527 l -0.49805,-0.89844 q 2.30469,-0.22949 3.97461,-1.23047 -1.08886,-0.46386 -2.3291,-0.8789 l -0.37597,-0.12207 q 0.51757,-0.70313 1.09375,-1.65039 h -2.50489 v -0.91797 h 3.03223 q 0.33203,-0.5957 0.7959,-1.5918 l 1.05957,0.25391 q -0.32715,0.72754 -0.64942,1.33789 h 5.26368 v 0.91797 z m -1.13281,0 h -2.68066 q -0.49317,0.84472 -0.83496,1.34277 0.83496,0.2832 2.00683,0.72754 1.01074,-0.88867 1.50879,-2.07031 z m -1.16211,-3.67676 h 3.87207 v 2.31934 h -1.09863 v -1.4209 h -6.58203 v 1.4209 h -1.08887 v -2.31934 h 3.8086 v -1.06934 h 1.08886 z m 10.01953,7.01172 q 0.8252,0.13672 1.80176,0.13672 h 2.53418 q -0.24414,0.48828 -0.36133,1.03027 h -2.18261 q -1.98243,0 -3.12989,-0.47363 -1.11328,-0.45899 -1.83593,-1.51367 -0.57618,1.37207 -1.41602,2.27539 l -0.75684,-0.90821 q 1.37696,-1.48925 1.71875,-3.85742 l 1.1084,0.1709 q -0.15625,0.77148 -0.30273,1.28418 0.59082,1.0498 1.74316,1.55273 v -3.77929 h -2.70996 v -0.64942 h -1.05957 v -2.26074 h 3.74024 v -1.08887 h 1.08886 v 1.08887 h 3.82324 v 2.26074 h -1.05957 v 0.64942 h -2.74414 v 1.49414 h 3.34473 v 0.9082 h -3.34473 z m -3.77929,-6.07422 v 1.06445 h 6.5039 v -1.06445 z m 8.95019,7.49512 q 0.6543,-0.75196 1.05469,-1.38672 1.01562,-1.6211 1.01562,-3.35938 0,-1.66015 -0.9082,-3.19336 -0.4248,-0.71289 -1.16211,-1.5625 h 0.95215 q 0.89356,0.81055 1.46484,1.96778 0.70313,1.43066 0.70313,2.7832 0,1.54297 -0.88867,3.13477 -0.53223,0.95703 -1.2793,1.61621 z"></path>
        <path aria-label="槍飛ばし検出を使用する" style="font-weight:bold;font-size:13.6934px;line-height:1.1;font-family:'BIZ UDPGothic';-inkscape-font-specification:'BIZ UDPGothic Bold';fill:#ffffff;stroke-width:25;stroke-linecap:round;stroke-linejoin:round" id="text14-6" d="m 63.013609,192.93193 h 6.358606 v 4.25913 h -5.315554 q -0.02675,0.36106 -0.09361,0.72211 h 5.736786 v 3.93819 h -1.370677 v -0.60845 h -3.590506 v 0.60845 h -1.270384 v -2.2332 q -0.414546,0.95613 -1.176777,1.79191 l -0.916013,-1.0698 q 1.424167,-1.68493 1.424167,-4.11871 v -3.13585 q -0.347684,0.22733 -0.768917,0.47473 l -0.347684,-0.58171 H 60.70686 v 1.06311 q 0.989562,0.84916 1.718361,1.67156 l -0.735486,1.29713 q -0.514839,-0.82241 -0.982875,-1.41748 v 6.25831 h -1.38405 v -5.86382 q -0.534899,1.70499 -1.33056,3.07566 l -0.628506,-1.55789 q 1.123287,-1.7451 1.811969,-4.44634 l 0.02006,-0.0802 H 57.58439 v -1.30381 h 1.73842 v -2.83496 h 1.38405 v 2.83496 h 1.103228 v 0.50815 q 2.226514,-1.3573 3.343115,-3.34311 h 1.544519 q 1.089856,1.34393 2.473906,2.27331 0.668623,0.45467 1.651499,0.94276 l -0.702055,1.23696 q -1.236952,-0.67531 -2.313435,-1.56458 v 0.58839 h -3.450095 v -0.4881 q -0.588389,0.54827 -1.343933,1.10323 z m 5.041418,0.94276 h -3.944876 v 0.74217 h 3.944876 z m 0,1.56458 h -3.944876 v 0.67531 q 0,0.0936 0,0.12035 h 3.944876 z m -3.209391,-4.10535 h 2.514023 q -0.661937,-0.58839 -1.370677,-1.45091 -0.541585,0.79566 -1.143346,1.45091 z m -0.106979,7.60893 v 1.2169 h 3.590506 v -1.2169 z m 16.087071,-8.21069 0.401173,0.16047 q 0.508154,-0.65525 0.916014,-1.43754 l 1.250325,0.62851 q -0.568329,0.79566 -1.069797,1.3105 0.454664,0.22064 1.176777,0.63519 l -0.447978,0.6285 1.129973,0.6352 q -0.08692,0.88926 -0.30088,1.34393 -0.280822,0.59507 -0.956131,0.59507 -0.51484,0 -1.270384,-0.33431 -1.1166,-0.50147 -1.704989,-1.6515 -0.441291,-0.87589 -0.508153,-2.6678 H 72.20049 v -1.25701 h 8.618551 l -0.0067,0.30088 v 0.0669 q 0,0.68199 0.01337,1.04305 z m 0.120352,1.18346 q 0.180528,0.84247 0.902641,1.4576 0.200587,0.16716 0.534898,0.34768 0.200587,0.10698 0.307567,0.10698 0.153783,0 0.213959,-0.2875 0.06018,-0.27414 0.09361,-0.81572 l -0.240705,0.33431 q -0.862523,-0.62182 -1.725047,-1.09654 z m -5.716727,2.89514 h 1.557891 v -3.91813 h 1.410795 v 3.91813 h 2.901824 q -0.02675,0.7288 -0.02675,1.17678 0,0.22733 0.0067,0.56164 0.05349,0.0201 0.09361,0.0401 0.03343,0.0134 0.08023,0.0334 0.401174,-0.4881 0.956131,-1.31719 l 1.190149,0.73549 q -0.381115,0.49478 -1.022993,1.10991 0.842465,0.44129 1.464285,0.84915 l -0.528213,0.79566 1.076484,0.61514 q -0.140411,1.1166 -0.427919,1.76516 -0.300881,0.68868 -0.949445,0.68868 -0.695368,0 -1.531147,-0.60176 -1.203521,-0.86921 -1.591323,-2.61431 -0.207273,-0.94276 -0.213959,-2.59426 h -1.477657 v 5.79696 h -1.410795 v -5.79696 h -1.564578 q -0.01337,1.59801 -0.40786,2.83496 -0.548271,1.70499 -2.079417,2.92188 l -1.069797,-1.0163 q 1.049738,-0.80235 1.537833,-1.80529 0.595074,-1.2102 0.621819,-2.93525 h -2.306749 v -1.24364 h 2.313435 v -1.92563 q -0.65525,0.23401 -1.557891,0.47472 l -0.755544,-1.05643 q 2.213142,-0.52821 4.145463,-1.59132 l 0.942758,0.89596 q -0.715427,0.41454 -1.377363,0.71542 z m 5.937372,2.9152 q 0.140411,1.1634 0.655251,1.86546 0.254077,0.34768 0.56833,0.54827 0.220645,0.14041 0.347684,0.14041 0.207273,0 0.280821,-0.37443 0.08024,-0.42123 0.127039,-0.86921 -0.08024,-0.0602 -0.207273,-0.1471 -1.009621,-0.72211 -1.771852,-1.1634 z m 11.854687,-8.32436 h 1.477657 l 0.06018,2.58757 h 2.941942 v 1.31719 h -2.848334 l 0.06686,3.86464 q 1.591323,0.71543 3.189332,2.06605 l -0.748858,1.32387 q -1.297129,-1.12997 -2.400357,-1.81866 -0.113666,1.63813 -1.156718,2.19309 -0.588388,0.30756 -1.591322,0.30756 -1.103229,0 -1.912262,-0.39448 -1.223581,-0.59508 -1.223581,-1.97244 0,-1.17009 1.036366,-1.81197 0.835779,-0.51484 2.09279,-0.51484 0.641878,0 1.236953,0.14041 l -0.08024,-3.38323 h -4.152149 v -1.31719 h 4.065228 z m 0.287508,8.59849 q -0.768916,-0.24739 -1.390736,-0.24739 -0.581702,0 -0.989562,0.18053 -0.641878,0.27414 -0.641878,0.89596 0,0.50815 0.468036,0.79566 0.447978,0.28082 1.216894,0.28082 1.337246,0 1.337246,-1.5044 z m -7.261246,3.21608 q -0.234018,-2.20646 -0.234018,-4.64024 0,-3.79778 0.508153,-7.24119 l 1.470971,0.21396 q -0.501467,2.96868 -0.501467,6.41878 0,2.53408 0.254076,5.02136 z m 9.534565,-9.86888 q -0.220646,-0.9227 -0.956131,-2.34018 l 1.009621,-0.20727 q 0.661936,1.14334 0.989562,2.30006 z m 1.671557,-0.26076 q -0.280821,-1.15003 -0.949444,-2.35355 l 0.989562,-0.1939 q 0.608447,0.9695 0.969503,2.24657 z m 2.69455,-1.68493 h 1.577954 v 7.96999 q 0,2.52071 2.64774,2.52071 1.74511,0 2.86171,-1.61139 0.72211,-1.03636 1.29713,-3.20939 l 1.3573,0.82241 q -0.68199,2.41373 -1.63812,3.61056 -1.5044,1.86546 -3.91145,1.86546 -2.51402,0 -3.5437,-1.5512 -0.648564,-0.96951 -0.648564,-2.50065 z m 20.152304,8.41796 q 0.50815,0.84916 1.2102,1.42417 0.90933,0.73549 2.30675,1.27707 l -0.80903,1.33056 q -2.49396,-1.03636 -3.63731,-3.47684 -0.4346,1.27707 -1.37736,2.19309 -0.84915,0.8224 -2.28001,1.43085 l -0.92938,-1.17678 q 1.64481,-0.5349 2.49396,-1.38405 0.71543,-0.71542 1.06311,-1.61807 h -2.58757 v -3.59719 h 2.83496 v -1.12328 h -1.45091 v -0.59508 q -0.72211,0.62851 -1.6047,1.10323 l -0.52821,-0.70874 h -1.10991 v 1.14334 q 0.87589,0.73549 1.69161,1.63144 l -0.70874,1.27039 q -0.48141,-0.70206 -0.98287,-1.35062 v 6.25831 h -1.37068 v -6.00423 q -0.66194,1.89889 -1.41079,3.20939 l -0.58839,-1.56458 q 1.23026,-2.06605 1.87214,-4.59344 h -1.6515 v -1.30382 h 1.77854 v -2.75472 h 1.37068 v 2.75472 h 1.19015 v 0.78229 q 2.1329,-1.25032 3.25619,-3.53701 h 1.51777 q 1.00963,1.57126 2.55414,2.62769 0.66863,0.45466 1.5579,0.90932 l -0.80904,1.15003 q -0.92938,-0.50146 -1.71836,-1.08985 v 0.66194 h -1.49771 v 1.12328 h 2.88845 v 3.59719 z m -1.68493,-2.54076 h -1.57127 v 1.47097 h 1.57127 z m 1.30381,0 v 1.47097 h 1.61138 v -1.47097 z m -2.19977,-3.32975 h 3.13584 q -0.94944,-0.82909 -1.71836,-1.95906 -0.55496,1.04974 -1.41748,1.95906 z m 13.92073,1.42417 h 3.26288 v -3.32974 h 1.49103 v 4.6603 h -4.75391 v 4.94113 h 3.68411 v -3.08236 h 1.51778 v 5.28881 h -1.51778 v -0.84915 h -8.77902 v 0.84915 h -1.5044 v -5.28881 h 1.5044 v 3.08236 h 3.60388 v -4.94113 h -4.66699 v -4.6603 h 1.49103 v 3.32974 h 3.17596 v -4.53326 h 1.49103 z m 7.65574,-2.65443 h 3.60388 q 0.59507,-0.94945 0.90264,-1.53115 l 1.49103,0.21396 q -0.20059,0.36106 -0.70874,1.17678 l -0.0869,0.14041 h 4.71379 v 1.31718 h -5.60306 q -0.8759,1.20353 -1.67156,2.08611 1.2637,-0.75555 2.30675,-0.75555 1.61807,0 2.11954,1.62476 1.71167,-0.56833 3.49021,-1.12329 l 0.57501,1.29713 -0.23401,0.0669 -0.66194,0.17385 q -1.87215,0.50815 -2.99543,0.8692 0.0802,0.86921 0.11366,2.24658 l -1.46428,0.0802 q -0.007,-0.79566 -0.0267,-1.72504 v -0.13373 q -3.07566,1.04974 -3.07566,2.11285 0,0.54827 0.78897,0.74886 0.76223,0.1939 2.72798,0.1939 1.81197,0 3.80447,-0.20727 l 0.16047,1.42416 q -1.93232,0.1471 -4.00505,0.1471 -2.55414,0 -3.63063,-0.3878 -1.33056,-0.48141 -1.33056,-1.73174 0,-1.05642 0.94276,-1.86545 0.97619,-0.83578 3.43673,-1.72505 -0.13373,-0.51484 -0.35437,-0.72211 -0.2474,-0.23402 -0.65526,-0.23402 -0.66193,0 -1.66487,0.50146 -1.23695,0.61514 -2.65443,1.85209 l -0.88927,-1.01631 q 2.07942,-1.93232 3.2562,-3.79778 h -2.7213 z m 20.01188,1.79191 v -1.12329 H 155.424 v -1.19015 h 3.68411 v -1.3573 h 1.38405 v 1.3573 h 4.11872 v 1.19015 h -4.11872 v 1.12329 h 3.47684 v 4.24575 h -3.49689 q -0.0802,1.35731 -0.50816,2.19309 2.16634,1.08985 4.81409,1.5044 l -0.70206,1.39742 q -2.74804,-0.68199 -4.86089,-1.85877 -1.19014,1.2637 -3.47684,1.96575 l -0.78228,-1.17678 q 1.93232,-0.40117 3.06898,-1.51108 -0.95614,-0.6352 -2.07942,-1.54452 l 0.96281,-0.80235 q 0.94945,0.7756 1.86546,1.35062 0.2942,-0.63519 0.36775,-1.51778 h -3.45679 v -4.24575 z m 0,1.12328 h -2.06604 v 1.99919 h 2.06604 z m 1.38405,0 v 1.99919 h 2.10617 v -1.99919 z m -5.8237,-1.57126 v 9.78864 h -1.42417 v -6.86007 q -0.4346,0.74217 -1.12329,1.68493 l -0.68199,-1.5044 q 1.10991,-1.54452 1.86546,-3.54371 0.45466,-1.19014 0.92938,-2.88176 l 1.43754,0.36774 q -0.51484,1.72505 -1.00293,2.94863 z m 22.5794,-2.5274 v 10.69129 q 0,0.68199 -0.24739,0.98956 -0.30757,0.38111 -1.24364,0.38111 -1.04306,0 -1.85209,-0.0802 l -0.26076,-1.43754 q 1.06311,0.13372 1.75848,0.13372 0.28082,0 0.33431,-0.12703 0.0334,-0.0869 0.0334,-0.25408 v -2.64106 h -3.27625 v 4.03848 h -1.43754 v -4.03848 h -3.13585 q -0.0602,1.39073 -0.26745,2.30675 -0.29419,1.25032 -1.10322,2.36024 l -1.25701,-1.03637 q 0.7756,-1.02968 1.02299,-2.49396 0.14041,-0.84915 0.14041,-1.91226 v -6.88014 z m -9.31392,1.29045 v 1.93232 h 3.12247 v -1.93232 z m 0,3.14921 v 1.98581 h 3.12247 v -1.98581 z m 7.83626,1.98581 v -1.98581 h -3.27625 v 1.98581 z m 0,-3.2027 v -1.93232 h -3.27625 v 1.93232 z m 10.18313,-3.644 h 1.5044 v 1.8454 h 3.94488 v 1.29044 h -3.94488 v 2.86171 q 0.23402,0.82241 0.23402,1.46429 0,2.38029 -1.04974,3.49689 -1.14334,1.22358 -3.4434,1.69162 l -0.76223,-1.13666 q 1.78522,-0.341 2.64774,-0.96282 0.80904,-0.58838 1.08986,-1.59801 -0.71543,0.78229 -1.70499,0.78229 -1.10991,0 -1.7986,-0.6285 -0.80903,-0.74217 -0.80903,-2.15297 0,-0.74217 0.35437,-1.43085 0.23402,-0.44129 0.57502,-0.73549 0.78897,-0.66862 1.8922,-0.66862 0.70205,0 1.27038,0.33431 v -1.31719 h -6.59931 v -1.29044 h 6.59931 z m 0.0535,6.94031 v -0.24739 q 0,-0.42792 -0.20058,-0.75555 -0.37443,-0.61513 -1.08317,-0.61513 -0.36106,0 -0.67531,0.20059 -0.73549,0.46135 -0.73549,1.41748 0,0.60176 0.26745,1.01631 0.37443,0.57501 1.10323,0.57501 0.66194,0 1.04974,-0.59507 0.27413,-0.42123 0.27413,-0.99625 z m 8.21069,-6.47227 h 7.50195 l 0.71543,1.10991 q -3.47684,2.12622 -6.0243,3.86464 1.64482,-0.68868 3.303,-0.68868 1.49103,0 2.48728,0.47472 0.9227,0.4413 1.43754,1.20353 0.5349,0.80903 0.5349,1.85877 0,1.47097 -1.00294,2.46053 -0.68868,0.68868 -1.76516,1.04305 -1.4108,0.46135 -3.08904,0.46135 -1.93232,0 -2.84833,-0.71542 -0.71543,-0.56165 -0.71543,-1.51778 0,-0.72211 0.52153,-1.28375 0.78897,-0.84916 2.1329,-0.84916 1.42417,0 2.28001,0.95614 0.62182,0.69536 0.89595,1.86545 2.05936,-0.65525 2.05936,-2.42041 0,-1.33725 -1.1166,-1.97244 -0.74886,-0.42792 -1.89889,-0.42792 -1.71836,0 -3.10241,0.47472 -1.02299,0.34769 -2.74804,1.67825 l -0.94276,-1.13666 q 1.85877,-1.6047 4.23239,-3.2562 1.63812,-1.13666 2.88845,-1.86545 h -5.73679 z m 5.06816,10.50407 q -0.47472,-1.89221 -1.86545,-1.89221 -0.76892,0 -1.10992,0.4881 -0.16047,0.22064 -0.16047,0.47472 0,0.52821 0.74886,0.79566 0.54158,0.18722 1.45091,0.18722 0.3878,0 0.93607,-0.0535 z"></path>
      </g>
      <g style="fill:#ffffff;fill-opacity:1" id="g15">
        <path aria-label="海底震度計を1分ごとに更新" style="font-weight:bold;font-size:13.6934px;line-height:1.1;font-family:'BIZ UDPGothic';-inkscape-font-specification:'BIZ UDPGothic Bold';fill:#ffffff;stroke-width:25;stroke-linecap:round;stroke-linejoin:round;fill-opacity:1" id="text14-5" d="m 69.30535,152.77025 q 0,0.31425 -0.06018,2.98206 h 1.27707 v 1.20352 h -1.303815 q -0.02006,0.87589 -0.08692,1.98581 h 1.129973 v 1.17677 h -1.216894 q -0.08023,0.96951 -0.220645,1.28376 -0.314253,0.74886 -1.524461,0.74886 -0.775602,0 -1.430853,-0.11367 l -0.247391,-1.19015 q 0.942759,0.13373 1.444226,0.13373 0.40786,0 0.488095,-0.28751 0.04012,-0.14041 0.07355,-0.57502 H 62.86651 q -0.0067,0.0535 -0.02006,0.11367 -0.06018,0.35437 -0.113666,0.66862 l -1.38405,-0.13372 q 0.40786,-2.41373 0.548271,-3.65068 l 0.02006,-0.16047 h -1.337247 v -1.20352 h 1.477657 q 0.187215,-1.61807 0.32094,-2.98206 z m -4.225697,1.1634 h -1.464285 q -0.02006,0.341 -0.120352,1.43754 l -0.04012,0.38112 h 1.484343 l 0.02006,-0.18722 q 0.01337,-0.1939 0.04012,-0.54158 0.06686,-0.93608 0.08023,-1.08986 z m 1.317187,0 q -0.03343,0.79566 -0.100293,1.75848 v 0.0602 h 1.571264 q 0.02674,-0.91602 0.0468,-1.81866 z m -1.564578,3.02218 H 63.32786 q -0.100293,0.81572 -0.213959,1.61138 l -0.05349,0.37443 h 1.564578 q 0.16047,-1.45091 0.207273,-1.98581 z m 1.370677,0 q -0.02006,0.26745 -0.08023,0.88258 l -0.10698,1.10323 h 1.704989 q 0.03343,-0.64857 0.05349,-0.97619 0.04012,-0.71543 0.05349,-1.00962 z m -2.621002,-6.59931 h 6.458899 v 1.24364 H 63.02698 q -0.541585,1.10322 -1.377364,2.09947 l -0.956131,-1.04305 q 1.317188,-1.54452 1.872145,-3.55707 l 1.424167,0.14709 q -0.240704,0.69537 -0.40786,1.10992 z m -3.684113,1.94569 q -0.822406,-1.12997 -1.999183,-2.11953 l 1.009621,-0.97619 q 1.089855,0.80234 2.072731,2.02592 z m -0.481409,3.53033 q -1.016307,-1.30381 -2.052672,-2.1864 l 1.043052,-1.00293 q 1.163404,0.91601 2.09279,2.0861 z m -1.818654,5.24869 q 1.163404,-1.61138 2.206456,-4.24575 l 1.190149,0.84915 q -0.86921,2.43378 -2.233201,4.4664 z m 17.11675,-2.07942 v -6.20482 l 0.427919,-0.0267 q 4.178894,-0.22065 6.880131,-0.88927 l 0.909328,1.10323 q -1.116601,0.2875 -2.674493,0.50815 l -0.274135,0.0401 q 0.04012,0.66862 0.173842,1.63144 l 3.470154,-0.1471 0.06686,1.15003 -3.323057,0.15379 q 0.421233,1.83871 1.230267,2.97537 0.30088,0.41454 0.615133,0.67531 0.254077,0.20058 0.340998,0.20058 0.254076,0 0.441291,-2.05267 l 1.270384,0.82241 q -0.193901,1.43754 -0.447978,2.0861 -0.334311,0.82909 -0.969503,0.82909 -0.534899,0 -1.27707,-0.5817 -0.889269,-0.70205 -1.584637,-1.8922 -0.615133,-1.06311 -1.009621,-2.98875 l -2.85502,0.1003 v 2.23988 q 1.484343,-0.30088 2.928569,-0.69536 l 0.120352,1.15003 q -2.433788,0.72211 -5.148398,1.20352 l -0.434605,-1.21689 q 0.481409,-0.0735 1.123287,-0.17385 z m 3.878014,-5.30886 -0.16047,0.0201 q -0.875896,0.0869 -2.306749,0.17384 v 1.4576 l 2.654433,-0.10698 q -0.133724,-0.91602 -0.187214,-1.54452 z m 0.187214,-3.29631 h 4.994615 v 1.24363 h -10.18313 v 3.22945 q 0,2.81491 -0.274135,4.40623 -0.274136,1.56458 -1.016307,2.86839 l -1.203522,-1.00293 q 0.681996,-1.24364 0.895955,-2.98875 0.16047,-1.28375 0.16047,-3.28294 v -4.47308 h 5.10828 v -1.25702 h 1.517774 z m -4.466402,10.30348 h 6.104529 v 1.20352 h -6.104529 z m 16.307717,-9.75521 v -0.57502 H 86.44216 v -0.95613 h 9.868876 v 0.95613 h -4.265815 v 0.57502 h 5.536199 v 2.40035 h -1.450912 v -1.53783 h -4.085287 v 2.60094 h -1.424167 v -2.60094 h -4.011739 v 1.53783 h -1.437539 v -2.40035 z m 4.733851,9.48776 q 1.022993,0.3878 2.55414,0.61513 l -0.782289,1.13666 q -2.14628,-0.36774 -3.523643,-1.2637 -1.370678,-0.89595 -2.132908,-2.22651 h -1.477657 v 2.05936 q 1.477657,-0.20728 2.741355,-0.44129 l 0.09361,0.99624 q -2.353553,0.56165 -5.382416,0.97619 l -0.394487,-1.17677 q 1.049738,-0.11367 1.437539,-0.16047 l 0.08024,-0.0134 v -2.23988 h -1.464285 q -0.09361,1.17677 -0.307566,1.87883 -0.254077,0.84246 -0.81572,1.57126 l -1.190149,-0.98287 q 0.65525,-0.84915 0.81572,-1.98581 0.08692,-0.61514 0.08692,-1.53115 v -2.83496 h 11.540434 v 0.88927 H 87.130841 v 2.05267 h 10.677911 v 0.94276 h -1.517775 l 0.849152,0.56164 q -0.755544,0.62851 -1.785224,1.17678 z m -1.043052,-0.51484 q 0.962817,-0.65525 1.531147,-1.22358 h -2.921883 q 0.575016,0.73548 1.390736,1.22358 z m -7.114149,-7.61562 h 2.848334 v 0.75555 h -2.848334 z m 0,1.23027 h 2.848334 v 0.76891 h -2.848334 z m 5.422533,-1.23027 h 2.935255 v 0.75555 h -2.935255 z m 0,1.23027 h 2.935255 v 0.76891 h -2.935255 z m -4.693734,2.72798 h 8.324357 v 0.8759 h -8.324357 z m 18.186547,-5.91731 h 5.242 v 1.12328 h -2.96868 v 1.10992 h 2.78147 v 1.08317 h -2.78147 v 1.99249 h -5.38242 v -1.99249 h -2.19308 v 1.24363 q 0,3.02887 -0.32094,4.78735 -0.24739,1.33724 -0.802348,2.44047 l -1.216894,-0.96282 q 0.508153,-1.10323 0.695368,-2.69455 0.167155,-1.39742 0.167155,-3.57045 v -4.56 h 5.288809 v -1.20353 h 1.49103 z m -5.30218,1.12328 v 1.10992 h 2.19308 v -1.10992 z m 3.61725,0 v 1.10992 h 2.53408 v -1.10992 z m 0,2.19309 v 1.03636 h 2.53408 v -1.03636 z m 1.5512,7.02054 q -1.93232,1.00293 -4.90769,1.52446 l -0.69537,-1.23027 q 2.79485,-0.33431 4.37948,-1.02299 -1.3573,-0.98288 -2.32012,-2.3335 h -0.9227 v -1.1634 h 7.82958 l 0.70205,0.58839 q -0.99625,1.53115 -2.84165,2.88176 1.58464,0.6352 4.31931,0.93608 l -0.78229,1.26369 q -2.621,-0.35437 -4.7606,-1.44422 z m -1.98581,-3.0623 q 0.80904,0.94945 1.96576,1.67156 1.30381,-0.84246 2.01255,-1.67156 z m 14.01434,-0.0735 v 3.91813 h -3.76434 v 0.68868 h -1.38405 v -4.60681 z m -3.76434,1.13666 v 1.64481 h 2.38029 v -1.64481 z m 6.87344,-5.17515 v -4.36611 h 1.45091 v 4.36611 h 2.69455 v 1.37068 h -2.69455 v 7.27462 h -1.45091 v -7.27462 h -2.74135 v -1.37068 z m -7.96999,-3.87133 h 4.56001 v 1.10992 h -4.56001 z m -0.8224,1.95907 h 6.13796 v 1.20352 h -6.13796 z m 0.8224,2.05267 h 4.56001 v 1.10992 h -4.56001 z m 0,1.95907 h 4.56001 v 1.0698 h -4.56001 z m 13.96754,-4.58676 h 3.60388 q 0.59507,-0.94944 0.90264,-1.53114 l 1.49103,0.21396 q -0.20059,0.36105 -0.70874,1.17677 l -0.0869,0.14041 h 4.71379 v 1.31719 h -5.60306 q -0.8759,1.20352 -1.67156,2.08611 1.2637,-0.75555 2.30675,-0.75555 1.61807,0 2.11954,1.62476 1.71167,-0.56833 3.49021,-1.12329 l 0.57502,1.29713 -0.23402,0.0669 -0.66194,0.17384 q -1.87214,0.50816 -2.99543,0.86921 0.0802,0.86921 0.11367,2.24658 l -1.46429,0.0802 q -0.007,-0.79566 -0.0267,-1.72505 v -0.13372 q -3.07567,1.04974 -3.07567,2.11285 0,0.54827 0.78898,0.74886 0.76223,0.1939 2.72798,0.1939 1.81197,0 3.80446,-0.20728 l 0.16047,1.42417 q -1.93232,0.1471 -4.00505,0.1471 -2.55414,0 -3.63062,-0.3878 -1.33056,-0.48141 -1.33056,-1.73174 0,-1.05642 0.94276,-1.86546 0.97618,-0.83578 3.43672,-1.72504 -0.13373,-0.51484 -0.35437,-0.72212 -0.24739,-0.23401 -0.65525,-0.23401 -0.66194,0 -1.66487,0.50146 -1.23696,0.61514 -2.65444,1.85209 l -0.88927,-1.01631 q 2.07942,-1.93232 3.2562,-3.79778 h -2.7213 z m 16.17399,10.16976 v -9.44764 q -1.41748,0.47472 -2.67449,0.70205 l -0.32763,-1.3573 q 2.11954,-0.51484 3.47684,-1.19015 h 1.28376 v 11.29304 z m 11.35991,-5.60975 q -0.20728,2.17972 -0.94276,3.50359 -1.10323,1.99918 -3.7911,3.06898 l -0.94275,-1.25033 q 1.85208,-0.54827 2.92856,-1.86545 0.99625,-1.2169 1.2169,-3.45679 h -2.34018 v -0.96281 q -0.73549,0.75554 -1.64481,1.43085 l -0.95614,-1.15672 q 2.92857,-2.01924 4.16553,-5.64318 l 1.42416,0.50816 q -0.90932,2.52739 -2.64106,4.49314 h 7.60893 q -1.99918,-1.8922 -3.32974,-4.56001 l 1.3573,-0.54827 q 1.67156,3.40998 4.62688,5.21526 l -0.88927,1.31719 q -0.89596,-0.63519 -1.56458,-1.23695 l -0.007,0.27413 q -0.0802,3.47016 -0.34768,5.54289 -0.14041,1.09654 -0.62851,1.43754 -0.4346,0.30757 -1.52446,0.30757 -0.8224,0 -2.03261,-0.0802 l -0.27414,-1.41079 q 1.09655,0.14709 1.98581,0.14709 0.52153,0 0.69537,-0.14709 0.17384,-0.1471 0.27414,-0.77561 0.24739,-1.49103 0.30088,-4.15215 z m 9.19357,-4.75391 h 6.90019 v 1.45092 h -6.90019 z m 9.0799,10.00929 q -2.15965,0.32763 -4.58676,0.32763 -2.49396,0 -4.00505,-0.46804 -0.58839,-0.18053 -1.08985,-0.57502 -0.76892,-0.61513 -0.76892,-1.70498 0,-1.37068 1.05642,-2.40036 l 1.16341,0.76892 q -0.64188,0.75554 -0.64188,1.42416 0,0.74886 0.90264,1.06311 0.48141,0.17385 1.53115,0.28082 0.86921,0.0936 1.79859,0.0936 2.34687,0 4.43298,-0.341 z m -0.9227,-8.96623 q -0.50147,-1.20353 -1.33725,-2.34687 l 1.023,-0.36774 q 0.80903,1.08317 1.34393,2.28669 z m 1.85208,-0.34769 q -0.46803,-1.17677 -1.31718,-2.34018 l 0.98956,-0.341 q 0.72211,0.86921 1.33725,2.2332 z m 12.86431,9.65492 q -1.97912,0.20727 -4.09197,0.20727 -3.11579,0 -4.36611,-0.39449 -0.90933,-0.2875 -1.43754,-0.85583 -0.60845,-0.66194 -0.60845,-1.61138 0,-1.25033 0.85584,-2.24658 0.7288,-0.84915 2.34687,-1.68493 -0.9227,-2.07273 -1.67156,-4.72048 l 1.49103,-0.3878 q 0.69537,2.54077 1.47097,4.49315 2.5742,-1.18346 5.46265,-1.97244 l 0.44798,1.35731 q -3.16928,0.80234 -6.29843,2.28 -0.96951,0.46135 -1.37737,0.75554 -1.19683,0.8759 -1.19683,1.9457 0,0.92938 1.10991,1.29713 0.9227,0.30088 3.303,0.30088 2.19977,0 4.40623,-0.25408 z m 2.8684,0.40117 q -0.25408,-2.27332 -0.25408,-4.51989 0,-3.85127 0.56833,-7.31474 l 1.47097,0.15379 q -0.54158,2.99543 -0.54158,6.75978 0,2.52739 0.28082,4.72716 z m 4.01174,-10.59099 h 6.42546 v 1.42417 h -6.42546 z m 6.88013,9.76859 q -1.33725,0.20727 -3.17596,0.20727 -4.62019,0 -4.62019,-2.71461 0,-1.07648 0.57502,-1.87883 l 1.2637,0.56164 q -0.36106,0.50816 -0.36106,1.14335 0,0.78229 0.78229,1.07648 0.86921,0.33431 2.37361,0.33431 1.62475,0 3.0088,-0.21396 z m 7.26793,-8.7924 v -1.0163 h -5.3891 v -1.23027 h 12.22912 v 1.23027 h -5.41585 v 1.0163 h 4.68705 v 5.42254 h -4.72048 q -0.007,0.0468 -0.007,0.0936 -0.0736,1.17678 -0.60176,2.07942 2.59426,0.90933 6.43884,1.25033 l -0.82241,1.30381 q -3.7376,-0.4346 -6.45889,-1.53783 -0.77561,0.67531 -1.99919,1.08985 -1.09654,0.37443 -2.84165,0.59508 l -0.72211,-1.27039 q 2.70124,-0.20058 4.16552,-1.02299 -1.43754,-0.70874 -2.66112,-1.6515 l 0.98288,-0.83578 q 1.27707,0.98957 2.61432,1.57127 0.3878,-0.66194 0.49478,-1.66487 h -4.65362 v -5.42254 z m 0,1.0698 h -3.24282 v 1.07648 h 3.24282 z m 1.42417,0 v 1.07648 h 3.24951 v -1.07648 z m -1.42417,2.10616 h -3.24282 v 1.16341 h 3.24282 z m 1.42417,0 v 1.16341 h 3.24951 v -1.16341 z m 10.63109,2.40705 q 0.96951,0.52821 2.14628,1.48434 l -0.76223,1.24364 q -0.75554,-0.84915 -1.38405,-1.39742 v 3.27625 h -1.37067 v -3.57045 q -0.90264,1.65819 -2.14628,2.77479 l -0.78229,-1.2637 q 1.49103,-1.05642 2.48059,-2.62769 h -2.11285 v -1.17678 h 2.56083 v -1.30381 h -2.82159 v -1.23027 h 1.46428 q -0.17384,-0.84915 -0.48809,-1.85208 h -0.71543 v -1.24364 h 2.53408 v -1.51778 h 1.42417 v 1.51778 h 2.4271 v 1.24364 h -0.71543 q -0.24739,1.00293 -0.61513,1.85208 h 1.53115 v 1.23027 h -2.65444 v 1.30381 h 2.40705 v 1.17678 h -2.40705 z m -1.88551,-5.64318 q 0.25407,0.83578 0.44129,1.85208 h 1.32387 q 0.30757,-0.86252 0.52821,-1.85208 z m 6.29174,3.24951 q 0.007,2.07273 -0.32094,3.84458 -0.341,1.83871 -1.21021,3.28962 l -1.10322,-1.00962 q 0.74217,-1.20352 1.0163,-2.95531 0.24071,-1.49772 0.24071,-3.82453 v -4.19226 q 0.13372,-0.0134 0.40786,-0.0401 2.12622,-0.20059 4.25913,-0.91601 l 0.87589,1.1634 q -1.77853,0.60176 -4.15883,0.92939 v 2.31343 h 4.48646 v 1.39743 h -1.53115 v 7.00048 h -1.38405 v -7.00048 z"></path>
        <path aria-label="海しるから取得しています" transform="scale(0.91214326,1.096319)" style="font-weight:bold;font-size:10.0336px;line-height:1.1;font-family:'BIZ UDPGothic';-inkscape-font-specification:'BIZ UDPGothic Bold';fill:#ffffff;stroke-width:25;stroke-linecap:round;stroke-linejoin:round;fill-opacity:1" id="text14-5-7" d="m 71.638966,152.54088 q 0,0.23026 -0.04409,2.18505 h 0.935751 v 0.88186 h -0.955348 q -0.0147,0.6418 -0.06369,1.45507 h 0.827968 v 0.86226 h -0.891657 q -0.05879,0.71039 -0.161675,0.94065 -0.230263,0.54871 -1.117022,0.54871 -0.568309,0 -1.048432,-0.0833 l -0.181271,-0.87206 q 0.690789,0.098 1.058231,0.098 0.298852,0 0.357643,-0.21067 0.02939,-0.10288 0.05389,-0.42133 h -3.488244 q -0.0049,0.0392 -0.0147,0.0833 -0.04409,0.25966 -0.08329,0.48992 l -1.014138,-0.098 q 0.298852,-1.76862 0.401736,-2.67498 l 0.0147,-0.11758 h -0.979843 v -0.88186 h 1.082727 q 0.137178,-1.18561 0.235163,-2.18505 z m -3.096306,0.85246 h -1.072929 q -0.0147,0.24987 -0.08819,1.05334 l -0.0294,0.27925 h 1.087626 l 0.0147,-0.13718 q 0.0098,-0.14207 0.02939,-0.39683 0.04899,-0.68589 0.05879,-0.79858 z m 0.965146,0 q -0.0245,0.58301 -0.07349,1.2885 v 0.0441 h 1.151316 q 0.0196,-0.67119 0.0343,-1.33259 z m -1.146417,2.21445 h -1.102324 q -0.07349,0.59771 -0.156775,1.18071 l -0.03919,0.27436 h 1.146417 q 0.117581,-1.06313 0.151876,-1.45507 z m 1.00434,0 q -0.0147,0.19597 -0.05879,0.6467 l -0.07839,0.80837 h 1.249301 q 0.0245,-0.47522 0.03919,-0.71529 0.0294,-0.52421 0.03919,-0.73978 z m -1.920494,-4.83553 h 4.732645 v 0.91126 H 67.0386 q -0.396837,0.80837 -1.009239,1.53835 l -0.700589,-0.76428 q 0.965146,-1.13172 1.371782,-2.60638 l 1.043533,0.10778 q -0.176372,0.50952 -0.298852,0.81327 z m -2.69947,1.42568 q -0.602604,-0.82797 -1.464866,-1.55306 l 0.739782,-0.71528 q 0.798573,0.5879 1.518758,1.48446 z m -0.352743,2.58678 q -0.744682,-0.95534 -1.50406,-1.60204 l 0.764278,-0.73488 q 0.852464,0.67119 1.533455,1.52855 z m -1.332588,3.84589 q 0.852464,-1.18071 1.616742,-3.111 l 0.872061,0.6222 q -0.636898,1.78331 -1.636339,3.27267 z m 10.915459,-8.33847 h 1.156216 v 5.83987 q 0,1.847 1.940091,1.847 1.278696,0 2.096865,-1.18071 0.529116,-0.75938 0.950449,-2.35162 l 0.994541,0.6026 q -0.49972,1.76862 -1.200309,2.64558 -1.102324,1.36688 -2.866043,1.36688 -1.842106,0 -2.596585,-1.13662 -0.475225,-0.71038 -0.475225,-1.83231 z m 9.171338,0.13228 h 5.496923 l 0.524217,0.81327 q -2.547594,1.55795 -4.414196,2.83175 1.205207,-0.50462 2.420214,-0.50462 1.092525,0 1.822509,0.34784 0.676092,0.32335 1.053332,0.88186 0.391937,0.59281 0.391937,1.36198 0,1.07783 -0.734882,1.80292 -0.50462,0.50462 -1.293394,0.76427 -1.033735,0.33805 -2.263439,0.33805 -1.415874,0 -2.087067,-0.52422 -0.524217,-0.41153 -0.524217,-1.11212 0,-0.52911 0.382139,-0.94065 0.578108,-0.6222 1.562851,-0.6222 1.043534,0 1.670634,0.70059 0.455627,0.50952 0.656495,1.36688 1.508959,-0.48012 1.508959,-1.77352 0,-0.97984 -0.818169,-1.44527 -0.548713,-0.31355 -1.391378,-0.31355 -1.2591,0 -2.273238,0.34785 -0.74958,0.25476 -2.013579,1.2297 l -0.690789,-0.83286 q 1.361982,-1.17582 3.101205,-2.38592 1.200309,-0.83287 2.116462,-1.36689 h -4.203529 z m 3.713608,7.69667 q -0.347845,-1.38648 -1.366882,-1.38648 -0.563411,0 -0.813271,0.35764 -0.117581,0.16168 -0.117581,0.34785 0,0.38704 0.548712,0.58301 0.396837,0.13717 1.063131,0.13717 0.284155,0 0.685891,-0.0392 z m 5.124584,-6.07503 h 2.165454 q 0.146977,-0.75448 0.328248,-1.8764 l 0.0245,-0.14208 1.072929,0.16168 q -0.166574,1.03863 -0.342945,1.8568 h 0.774076 q 1.170913,0 1.680432,0.52912 0.455627,0.47522 0.455627,1.47956 0,1.68533 -0.357643,3.16 -0.205767,0.83286 -0.49972,1.2297 -0.37234,0.49482 -1.033735,0.49482 -0.788774,0 -1.729424,-0.50952 l 0.12248,-1.03373 q 0.930852,0.44583 1.440371,0.44583 0.274356,0 0.416433,-0.28906 0.156775,-0.31845 0.298852,-0.90635 0.279256,-1.19541 0.279256,-2.5231 0,-0.69569 -0.279256,-0.90146 -0.240061,-0.17147 -0.852464,-0.17147 h -0.93575 q -0.778976,3.46865 -2.234044,5.91826 l -0.984743,-0.53892 q 1.50406,-2.5231 2.145858,-5.37934 h -1.954788 z m 8.034717,3.93407 q -0.739781,-2.57209 -1.984182,-4.52688 l 0.94065,-0.48012 q 1.401172,2.24384 2.087062,4.55627 z m 8.01022,-3.82139 q -1.8568,-0.82307 -4.18393,-1.264 l 0.41154,-0.87206 q 2.39081,0.44583 4.22312,1.16112 z m -5.59,3.59113 q 0.20086,-2.34183 0.6026,-4.08105 l 1.05333,0.19597 q -0.37234,1.54815 -0.48012,2.90034 0.71038,-0.54382 1.63634,-0.86717 0.88676,-0.31355 1.65593,-0.31355 1.15132,0 1.8813,0.44583 0.97495,0.60261 0.97495,1.9303 0,1.30319 -0.88676,2.01847 -1.2395,0.98965 -4.31131,1.09253 l -0.39194,-1.01414 q 2.05277,-0.005 3.1257,-0.38214 1.29829,-0.45073 1.29829,-1.71962 0,-0.80348 -0.57321,-1.19541 -0.45562,-0.31355 -1.1954,-0.31355 -1.05334,0 -2.26344,0.69079 -0.73979,0.42133 -1.32279,1.02393 z m 13.68841,-4.89432 h 3.792 l 0.49482,0.50462 q -0.20087,1.48936 -0.51442,2.54759 -0.34294,1.18071 -0.97004,2.29774 0.78877,1.2101 1.78331,1.97438 l -0.6418,1.11212 q -1.01414,-0.92105 -1.74902,-2.11646 -0.5928,0.83287 -1.06803,1.31789 -0.48992,0.50462 -1.06803,0.87206 l -0.69079,-0.94555 q 1.2738,-0.72508 2.24385,-2.26834 -0.0196,-0.0392 -0.0392,-0.0735 -0.56831,-1.13662 -0.91615,-2.71417 -0.19597,-0.88676 -0.26456,-1.51386 h -0.57321 v -0.6124 h -0.47032 v 8.17679 h -1.00434 v -1.99398 l -0.31845,0.0784 q -1.47467,0.38214 -2.82195,0.6222 l -0.32335,-1.04353 q 0.66629,-0.0882 0.92105,-0.12738 v -5.71249 h -0.72018 v -0.95535 h 4.91881 z m -1.65593,0.38214 h -1.56775 v 1.17091 h 1.56775 z m 0,2.00378 h -1.56775 v 1.18561 h 1.56775 z m 0,1.99888 h -1.56775 v 1.55795 q 0.25476,-0.0441 0.38214,-0.0637 0.39193,-0.0637 1.18561,-0.21066 z m 2.99832,-3.39026 q 0.20087,1.85191 0.84266,3.25308 0.68589,-1.45507 0.97495,-3.25308 z m 8.06901,4.67386 q 0.68589,0.63199 1.21011,1.36198 l -0.88186,0.6418 q -0.57811,-0.85737 -1.30319,-1.54326 l 0.70548,-0.46052 h -1.65103 v -0.83287 h 4.52688 v -0.71039 h -4.14474 v -0.79367 h 6.32979 v 0.79367 h -1.13172 v 0.71039 h 1.42567 v 0.83287 h -1.42567 v 1.93519 q 0,0.43603 -0.17637,0.64179 -0.21067,0.24986 -0.83287,0.24986 -0.89656,0 -1.45997,-0.0588 l -0.21067,-0.97494 q 0.92596,0.11268 1.38648,0.11268 0.18127,0 0.21557,-0.0833 0.0245,-0.0441 0.0245,-0.12737 v -1.69513 z m -2.18995,-2.46431 v 5.35484 h -1.03373 v -4.13004 q -0.35765,0.38704 -0.90636,0.86716 l -0.48992,-0.96024 q 1.35218,-1.08763 2.54759,-3.09141 l 0.82307,0.51932 q -0.41643,0.73488 -0.88676,1.37178 z m 6.39838,-3.86059 v 3.44416 h -5.19807 v -3.44416 z m -4.20843,0.76428 v 0.6124 h 3.19429 v -0.6124 z m 0,1.32279 v 0.6369 h 3.19429 v -0.6369 z m -4.55137,-0.19597 q 1.28849,-0.89166 2.14585,-2.18995 l 0.91616,0.47033 q -1.13662,1.66083 -2.5378,2.56229 z m 11.08203,-1.79801 h 1.15621 v 5.83987 q 0,1.847 1.94009,1.847 1.2787,0 2.09687,-1.18071 0.52911,-0.75938 0.95045,-2.35162 l 0.99454,0.6026 q -0.49972,1.76862 -1.20031,2.64558 -1.10233,1.36688 -2.86604,1.36688 -1.84211,0 -2.59659,-1.13662 -0.47522,-0.71038 -0.47522,-1.83231 z m 8.08861,0.77898 q 4.50728,-0.0686 8.51974,-0.23027 l 0.0588,0.97495 q -1.76862,0.0882 -2.75336,0.53891 -0.94065,0.43113 -1.50896,1.19541 -0.6467,0.86716 -0.6467,1.93029 0,1.05823 0.73488,1.58735 0.84267,0.6026 2.58679,0.82797 l -0.23026,1.10232 q -2.27324,-0.30375 -3.19919,-1.17581 -0.99454,-0.93085 -0.99454,-2.31243 0,-1.2542 0.90145,-2.34183 0.6565,-0.79857 1.79802,-1.28359 -2.02338,0.0686 -5.21767,0.23026 z m 14.4184,5.20786 q -0.90636,2.66518 -2.03318,2.66518 -0.80347,0 -1.37668,-1.12682 -0.44093,-0.87206 -0.6075,-1.92049 -0.20087,-1.2738 -0.20087,-3.27268 0,-0.86716 0.0637,-1.86171 l 1.15132,0.0882 q -0.0637,0.99454 -0.0637,1.8911 0,3.1453 0.5879,4.3848 0.24006,0.50952 0.45073,0.50952 0.13718,0 0.34295,-0.31355 0.42133,-0.6369 0.81327,-1.75392 z m 3.1012,1.16602 q -0.24986,-2.06747 -0.6124,-3.34127 -0.44093,-1.54325 -1.02394,-2.82685 l 1.04354,-0.25476 q 0.80837,1.60205 1.20031,3.08651 0.32334,1.20521 0.53401,3.06691 z m 6.44247,-7.33413 h 1.08273 v 1.2346 h 3.08161 v 0.93085 h -3.08161 v 1.16602 h 2.91014 v 0.92105 h -2.91014 v 1.51386 q 1.74412,0.5879 3.43925,1.76862 l -0.5781,0.93085 q -1.2836,-0.96025 -2.86115,-1.69513 -0.0392,0.83776 -0.32335,1.29829 -0.49482,0.79857 -1.94989,0.79857 -1.12192,0 -1.80291,-0.42133 -0.75938,-0.47032 -0.75938,-1.2738 0,-0.96024 1.02394,-1.42077 0.68589,-0.30375 1.78332,-0.30375 0.43113,0 0.94554,0.0686 v -1.264 h -3.47354 v -0.92105 h 3.47354 v -1.16602 h -3.68421 v -0.93085 h 3.68421 z m 0,6.42777 q -0.583,-0.12248 -1.11702,-0.12248 -0.65159,0 -1.05823,0.19107 -0.48502,0.23027 -0.48502,0.6565 0,0.35764 0.37724,0.57811 0.38214,0.22536 1.01904,0.22536 0.75448,0 1.03863,-0.40174 0.22536,-0.31355 0.22536,-0.93575 z m 10.40105,-6.45717 h 1.10232 v 1.35219 h 2.89054 v 0.94555 h -2.89054 v 2.09686 q 0.17148,0.60261 0.17148,1.07293 0,1.74412 -0.76918,2.56229 -0.83777,0.89656 -2.5231,1.2395 l -0.55851,-0.83286 q 1.30809,-0.24986 1.94009,-0.70549 0.59281,-0.43113 0.79857,-1.17091 -0.52421,0.57321 -1.2493,0.57321 -0.81327,0 -1.31789,-0.46053 -0.5928,-0.54381 -0.5928,-1.57755 0,-0.54381 0.25966,-1.04843 0.17147,-0.32335 0.42133,-0.53892 0.57811,-0.48992 1.38648,-0.48992 0.51441,0 0.93085,0.24496 v -0.96514 h -4.83553 v -0.94555 h 4.83553 z m 0.0392,5.08539 v -0.18127 q 0,-0.31355 -0.14697,-0.55361 -0.27436,-0.45073 -0.79368,-0.45073 -0.26456,0 -0.49482,0.14698 -0.53891,0.33804 -0.53891,1.03863 0,0.44093 0.19597,0.74468 0.27435,0.42134 0.80837,0.42134 0.48502,0 0.76917,-0.43603 0.20087,-0.30866 0.20087,-0.72999 z"></path>
        <path aria-label="(動作不安定)" transform="scale(0.97645418,1.0241136)" style="font-weight:bold;font-size:10.2411px;line-height:1.1;font-family:'BIZ UDPGothic';-inkscape-font-specification:'BIZ UDPGothic Bold';fill:#ffffff;stroke-width:25;stroke-linecap:round;stroke-linejoin:round;fill-opacity:1" id="text14-5-7-5" d="m 177.40704,170.22759 q -0.9151,-0.82509 -1.50016,-2.01521 -0.72008,-1.46516 -0.72008,-2.85531 0,-1.57517 0.9051,-3.20535 0.55006,-0.9851 1.31514,-1.65517 h 0.9751 q -0.67007,0.77008 -1.08011,1.42015 -1.04011,1.66018 -1.04011,3.45037 0,1.69018 0.9301,3.26035 0.44004,0.74008 1.19012,1.60017 z m 8.61593,-7.61082 0.05,-2.12022 h 1.00511 l -0.045,2.12022 h 1.89521 q -0.05,5.5906 -0.42005,6.77073 -0.16001,0.51006 -0.58006,0.65007 -0.21502,0.075 -0.64007,0.075 -0.55506,0 -1.05011,-0.07 l -0.19502,-1.05511 q 0.57506,0.11001 1.01511,0.11001 0.35504,0 0.45505,-0.19502 0.095,-0.19002 0.18502,-0.9201 0.18002,-1.45016 0.23002,-4.13044 l 0.005,-0.25003 h -0.9651 q -0.085,2.22024 -0.53006,3.6804 -0.54506,1.78019 -1.70518,2.95531 l -0.82009,-0.63507 q 0.24503,-0.23002 0.39504,-0.41004 -2.50027,0.45505 -4.79051,0.67507 l -0.22503,-0.9451 q 1.24514,-0.075 2.36526,-0.18502 v -0.69507 h -2.15023 v -0.79009 h 2.15023 v -0.57006 h -1.91521 v -3.28535 h 1.91521 v -0.55506 h -2.30525 v -0.78009 h 2.30525 v -0.44504 q -0.75508,0.075 -1.72019,0.13001 l -0.36004,-0.77008 q 2.40026,-0.10001 4.28546,-0.52006 l 0.57007,0.72508 q -0.81509,0.20502 -1.7902,0.32503 v 0.55506 h 2.24024 v 0.55506 z m -0.045,0.98511 h -1.11512 v -0.76008 h -2.22024 v 0.55506 h 1.94521 v 3.28535 h -1.94521 v 0.57006 h 2.07023 v 0.79009 h -2.07023 v 0.59506 l 0.42005,-0.04 q 0.84009,-0.085 1.81519,-0.25003 0.9401,-1.71518 1.09012,-4.6105 z m -4.29046,0.47005 h -1.08512 v 0.63507 h 1.08512 z m 0.9251,0 v 0.63507 h 1.11512 v -0.63507 z m -0.9251,1.25013 h -1.08512 v 0.68508 h 1.08512 z m 0.9251,0 v 0.68508 h 1.11512 v -0.68508 z m 12.58635,-2.32524 h -0.82009 q -0.51505,1.26513 -1.32014,2.27024 l -0.72508,-0.8901 q 1.27514,-1.60017 1.8102,-3.95042 l 1.05511,0.20502 q -0.19502,0.72008 -0.42504,1.38015 h 4.55048 v 0.98511 h -3.05032 v 1.44015 h 2.43526 v 0.9201 h -2.43526 v 1.43015 h 2.65028 v 0.9401 h -2.65028 v 2.50027 h -1.07512 z m -3.09533,0.005 v 7.22577 h -1.11512 v -5.23556 q -0.43505,0.65007 -0.97511,1.31514 l -0.53005,-1.12012 q 0.9301,-1.07512 1.62017,-2.61528 0.40004,-0.8901 0.81509,-2.15523 l 1.06511,0.27503 q -0.37504,1.22513 -0.88009,2.31025 z m 13.85649,-0.78509 q -0.28003,0.46005 -0.72008,1.05511 v 6.95575 h -1.14512 v -5.6006 q -1.51517,1.62517 -3.59539,2.8153 l -0.68507,-0.9351 q 3.19034,-1.74519 4.82052,-4.29046 h -4.50549 v -1.06511 h 9.14598 v 1.06511 z m 2.8253,4.96553 q -1.42015,-1.49016 -3.35036,-2.95031 l 0.78008,-0.75508 q 1.99022,1.39015 3.38037,2.7853 z m 9.02597,-1.82519 q -0.49505,1.45515 -1.62017,2.55527 1.48516,0.60507 3.24535,1.45016 l -0.74008,0.9001 q -1.8702,-1.05012 -3.30536,-1.70519 -1.9152,1.33515 -4.6605,1.69518 l -0.51005,-0.92009 q 2.36025,-0.23503 4.07043,-1.26014 -1.11512,-0.47505 -2.38525,-0.9001 l -0.38505,-0.12501 q 0.53006,-0.72008 1.12013,-1.69018 h -2.56528 v -0.9401 h 3.10533 q 0.34004,-0.61007 0.81509,-1.63018 l 1.08512,0.26003 q -0.33504,0.74508 -0.66507,1.37015 h 5.39058 v 0.9401 z m -1.16012,0 h -2.7453 q -0.50505,0.86509 -0.85509,1.37515 0.85509,0.29003 2.05522,0.74508 1.03511,-0.9101 1.54517,-2.12023 z m -1.19013,-3.76541 h 3.96542 v 2.37526 h -1.12512 v -1.45516 h -6.74072 v 1.45516 h -1.11512 v -2.37526 h 3.90042 v -1.09511 h 1.11512 z m 10.2611,7.18078 q 0.84509,0.14001 1.8452,0.14001 h 2.59528 q -0.25003,0.50005 -0.37004,1.05511 h -2.23524 q -2.03022,0 -3.20535,-0.48505 -1.14012,-0.47005 -1.8802,-1.55016 -0.59006,1.40515 -1.45015,2.33025 l -0.77509,-0.9301 q 1.41015,-1.52517 1.76019,-3.95043 l 1.13512,0.17502 q -0.16001,0.79009 -0.31003,1.31514 0.60507,1.07512 1.78519,1.59017 v -3.87041 h -2.7753 v -0.66508 h -1.08511 v -2.31524 h 3.83041 v -1.11512 h 1.11512 v 1.11512 h 3.91542 v 2.31524 h -1.08512 v 0.66508 h -2.8103 v 1.53016 h 3.42537 v 0.9301 h -3.42537 z m -3.87042,-6.22067 v 1.09011 h 6.66072 v -1.09011 z m 9.16599,7.67582 q 0.67007,-0.77008 1.08012,-1.42015 1.04011,-1.66018 1.04011,-3.44037 0,-1.70018 -0.9301,-3.27035 -0.43505,-0.73008 -1.19013,-1.60017 h 0.9751 q 0.9151,0.83009 1.50017,2.01521 0.72007,1.46516 0.72007,2.85031 0,1.58017 -0.91009,3.21034 -0.54506,0.98011 -1.31015,1.65518 z"></path>
      </g>
      <g style="fill:#ffffff;fill-opacity:1" id="g14">
        <path aria-label="(動作不安定)" style="font-weight:bold;font-size:10px;line-height:1.1;font-family:'BIZ UDPGothic';-inkscape-font-specification:'BIZ UDPGothic Bold';fill:#ffffff;stroke-width:25;stroke-linecap:round;stroke-linejoin:round;fill-opacity:1" id="text14-8" d="m 177.70274,136.42728 q -0.89355,-0.80567 -1.46484,-1.96778 -0.70313,-1.43066 -0.70313,-2.78808 0,-1.53809 0.88379,-3.12989 0.53711,-0.96191 1.28418,-1.61621 h 0.95215 q -0.65429,0.75196 -1.05469,1.38672 -1.01562,1.6211 -1.01562,3.36914 0,1.65039 0.9082,3.1836 0.42969,0.72265 1.16211,1.5625 z m 8.41309,-7.43164 0.0488,-2.07032 h 0.98144 l -0.0439,2.07032 h 1.85058 q -0.0488,5.45898 -0.41015,6.61132 -0.15625,0.49805 -0.56641,0.63477 -0.20996,0.0732 -0.625,0.0732 -0.54199,0 -1.02539,-0.0684 l -0.19043,-1.03027 q 0.56152,0.10742 0.99121,0.10742 0.34668,0 0.44434,-0.19043 0.0928,-0.18555 0.18066,-0.89844 0.17578,-1.41601 0.22461,-4.0332 l 0.005,-0.24414 h -0.94238 q -0.083,2.16797 -0.51758,3.59375 -0.53222,1.73828 -1.66504,2.88574 l -0.80078,-0.62011 q 0.23926,-0.22461 0.38574,-0.4004 -2.4414,0.44434 -4.67773,0.65918 l -0.21973,-0.92285 q 1.21582,-0.0732 2.30957,-0.18066 v -0.67871 h -2.09961 V 133.522 h 2.09961 v -0.55664 h -1.87011 v -3.20801 h 1.87011 v -0.54199 h -2.25097 v -0.76172 h 2.25097 v -0.43457 q -0.7373,0.0733 -1.67968,0.12696 l -0.35157,-0.75196 q 2.34375,-0.0977 4.18457,-0.50781 l 0.55665,0.70801 q -0.7959,0.20019 -1.74805,0.31738 v 0.54199 h 2.1875 v 0.542 z m -0.0439,0.96191 h -1.08886 v -0.74219 h -2.16797 v 0.54199 h 1.89941 v 3.20801 h -1.89941 v 0.55664 h 2.02148 v 0.77149 h -2.02148 v 0.58105 l 0.41015,-0.0391 q 0.82032,-0.083 1.77247,-0.24414 0.91796,-1.67481 1.06445,-4.50195 z m -4.18945,0.45898 h -1.05957 v 0.62012 h 1.05957 z m 0.90332,0 v 0.62012 h 1.08887 v -0.62012 z m -0.90332,1.22071 h -1.05957 v 0.66894 h 1.05957 z m 0.90332,0 v 0.66894 h 1.08887 v -0.66894 z m 12.29004,-2.27051 h -0.80078 q -0.50293,1.23535 -1.28906,2.2168 l -0.70801,-0.86914 q 1.24512,-1.5625 1.76758,-3.85743 l 1.03027,0.2002 q -0.19043,0.70312 -0.41504,1.34766 h 4.44336 v 0.96191 h -2.97851 v 1.40625 h 2.37792 v 0.89844 h -2.37792 v 1.39648 h 2.58789 v 0.91797 h -2.58789 v 2.44141 h -1.04981 z m -3.02246,0.005 v 7.05567 h -1.08887 v -5.11231 q -0.4248,0.63477 -0.95215,1.28418 l -0.51757,-1.09375 q 0.9082,-1.0498 1.58203,-2.55371 0.39062,-0.86914 0.7959,-2.10449 l 1.04003,0.26855 q -0.36621,1.19629 -0.85937,2.25586 z m 13.53027,-0.7666 q -0.27343,0.44922 -0.70312,1.03027 v 6.792 h -1.11817 v -5.46875 q -1.47949,1.58691 -3.51074,2.74902 l -0.66894,-0.91309 q 3.11523,-1.7041 4.70703,-4.18945 h -4.39942 v -1.04004 h 8.93067 v 1.04004 z m 2.75879,4.84863 q -1.38672,-1.45507 -3.27148,-2.88086 l 0.76172,-0.7373 q 1.94336,1.35742 3.30078,2.71973 z m 8.81348,-1.78222 q -0.4834,1.4209 -1.58203,2.49511 1.45019,0.59082 3.16894,1.41602 l -0.72265,0.87891 q -1.82618,-1.02539 -3.22754,-1.66504 -1.87012,1.30371 -4.55078,1.65527 l -0.49805,-0.89844 q 2.30469,-0.22949 3.97461,-1.23047 -1.08887,-0.46386 -2.3291,-0.8789 l -0.37598,-0.12207 q 0.51758,-0.70313 1.09375,-1.65039 h -2.50488 v -0.91797 h 3.03222 q 0.33204,-0.5957 0.7959,-1.5918 l 1.05957,0.25391 q -0.32715,0.72754 -0.64941,1.33789 h 5.26367 v 0.91797 z m -1.13281,0 h -2.68067 q -0.49316,0.84472 -0.83496,1.34277 0.83496,0.2832 2.00684,0.72754 1.01074,-0.88867 1.50879,-2.07031 z m -1.16211,-3.67676 h 3.87207 v 2.31934 h -1.09864 v -1.4209 h -6.58203 v 1.4209 h -1.08886 v -2.31934 h 3.80859 v -1.06934 h 1.08887 z m 10.01953,7.01172 q 0.82519,0.13672 1.80176,0.13672 h 2.53418 q -0.24415,0.48828 -0.36133,1.03027 h -2.18262 q -1.98242,0 -3.12988,-0.47363 -1.11328,-0.45899 -1.83594,-1.51367 -0.57617,1.37207 -1.41602,2.27539 l -0.75683,-0.90821 q 1.37695,-1.48925 1.71875,-3.85742 l 1.1084,0.1709 q -0.15625,0.77148 -0.30274,1.28418 0.59082,1.0498 1.74317,1.55273 v -3.77929 h -2.70996 v -0.64942 h -1.05957 v -2.26074 h 3.74023 v -1.08887 h 1.08887 v 1.08887 h 3.82324 v 2.26074 h -1.05957 v 0.64942 h -2.74414 v 1.49414 h 3.34472 v 0.9082 h -3.34472 z m -3.7793,-6.07422 v 1.06445 h 6.50391 v -1.06445 z m 8.9502,7.49512 q 0.65429,-0.75196 1.05468,-1.38672 1.01563,-1.6211 1.01563,-3.35938 0,-1.66015 -0.9082,-3.19336 -0.42481,-0.71289 -1.16211,-1.5625 h 0.95214 q 0.89356,0.81055 1.46485,1.96778 0.70312,1.43066 0.70312,2.7832 0,1.54297 -0.88867,3.13477 -0.53222,0.95703 -1.2793,1.61621 z"></path>
        <path aria-label="火山の噴火情報を読み上げる" style="font-weight:bold;font-size:13.6934px;line-height:1.1;font-family:'BIZ UDPGothic';-inkscape-font-specification:'BIZ UDPGothic Bold';fill:#ffffff;stroke-width:25;stroke-linecap:round;stroke-linejoin:round;fill-opacity:1" id="text14-9" d="m 64.190386,111.74219 v 3.28294 q 0,2.9152 1.999183,5.45597 1.363991,1.73842 3.764347,2.83496 l -1.00962,1.37736 q -4.145463,-2.1864 -5.382416,-6.01761 -0.541585,2.19309 -1.651499,3.53702 -1.297129,1.56458 -3.784407,2.49396 l -0.982876,-1.27038 q 2.814904,-0.93607 4.078601,-2.84833 0.788975,-1.19684 1.170091,-2.90851 0.280821,-1.25033 0.280821,-2.54077 v -3.39661 z m -6.525762,6.66618 q 1.089856,-1.6515 1.584637,-4.21233 l 1.524461,0.28751 q -0.534899,2.84833 -1.711675,4.80071 z m 8.010105,-0.46135 q 1.27707,-1.80529 2.246573,-4.21902 l 1.517775,0.66863 q -1.096542,2.37361 -2.420416,4.23238 z m 12.209057,4.01173 h 3.36986 v -7.35485 h 1.517775 v 10.03603 h -1.517775 v -1.23026 h -8.17726 v 1.23026 H 71.571984 V 114.6039 h 1.504402 v 7.35485 h 3.289626 v -10.08283 h 1.517774 z m 13.659969,0.76223 q 3.924818,-0.98956 3.924818,-4.49983 0,-1.53115 -0.788976,-2.63437 -0.882582,-1.24364 -2.687864,-1.59801 -0.394488,3.10241 -1.076484,5.08153 -0.468036,1.38405 -1.163404,2.61432 -1.002934,1.75179 -2.280004,1.75179 -0.949445,0 -1.691617,-0.85584 -0.474722,-0.54158 -0.768916,-1.33056 -0.387802,-1.02299 -0.387802,-2.19977 0,-1.90557 1.049739,-3.51027 1.06311,-1.63812 2.761413,-2.3803 1.236953,-0.54158 2.71461,-0.54158 2.306749,0 3.918131,1.23695 1.979124,1.51778 1.979124,4.29925 0,4.6603 -4.713793,5.91063 z m -1.002934,-8.7857 q -1.183463,0.13372 -1.979125,0.63519 -0.508153,0.32762 -1.009621,0.86921 -1.390736,1.53783 -1.390736,3.56376 0,1.47766 0.588389,2.31344 0.361056,0.51484 0.715426,0.51484 0.481409,0 1.08317,-1.06312 1.470971,-2.58757 1.992497,-6.83332 z m 17.945839,8.65198 q 1.46429,0.51484 2.7681,1.25701 l -0.95613,1.00294 -0.27413,-0.16716 q -1.4108,-0.84247 -2.70793,-1.39742 l 0.78229,-0.69537 h -3.29631 l 0.78229,0.65525 q -1.61807,1.04305 -3.43672,1.59132 l -0.86253,-1.12328 q 1.82534,-0.36775 3.12247,-1.12329 h -1.73842 v -5.73679 h 7.5755 v 5.73679 z m -4.44634,-4.83415 v 0.66863 h 4.82077 v -0.66863 z m 0,1.54452 v 0.7288 h 4.82077 v -0.7288 z m 0,1.6047 v 0.75554 h 4.82077 v -0.75554 z m -2.11285,-8.09034 v 9.227 h -2.380298 v 1.08317 h -1.230266 v -10.31017 z m -2.380298,1.29713 v 6.59931 h 1.163408 v -6.59931 z m 6.204818,-1.51778 v -0.84915 h 1.38405 v 0.84915 h 3.34312 v 1.08317 h -3.34312 v 0.79567 h -1.38405 v -0.79567 h -3.2027 v -1.08317 z m -1.99918,2.16634 v -0.80903 h 1.23027 v 0.80903 h 2.94863 v -0.80903 h 1.24363 v 0.80903 h 1.89221 v 1.10992 h -1.89221 v 0.74217 h -1.24363 v -0.74217 h -2.94863 v 0.74217 h -1.23027 v -0.74217 h -1.49103 v -1.10992 z m 15.21118,-3.01549 v 3.28294 q 0,2.9152 1.99918,5.45597 1.36399,1.73842 3.76435,2.83496 l -1.00962,1.37736 q -4.14547,-2.1864 -5.38242,-6.01761 -0.54158,2.19309 -1.6515,3.53702 -1.29713,1.56458 -3.7844,2.49396 l -0.98288,-1.27038 q 2.8149,-0.93607 4.0786,-2.84833 0.78898,-1.19684 1.17009,-2.90851 0.28082,-1.25033 0.28082,-2.54077 v -3.39661 z m -6.52576,6.66618 q 1.08985,-1.6515 1.58463,-4.21233 l 1.52446,0.28751 q -0.5349,2.84833 -1.71167,4.80071 z m 8.0101,-0.46135 q 1.27707,-1.80529 2.24657,-4.21902 l 1.51778,0.66863 q -1.09654,2.37361 -2.42042,4.23238 z m 8.01011,-3.65737 v 10.46395 h -1.39743 v -13.01141 h 1.39743 v 2.02593 l 0.64187,-0.5349 q 0.58171,1.00962 0.9227,1.9457 l -0.90932,0.90264 q -0.35437,-1.12998 -0.65525,-1.79191 z m 6.15801,-1.65819 h 3.46347 v 1.00294 h -3.46347 v 0.64187 h 2.98875 v 0.95614 h -2.98875 v 0.66193 h 3.90476 v 1.0698 h -9.01304 v -1.0698 h 3.72423 v -0.66193 h -2.90182 v -0.95614 h 2.90182 v -0.64187 h -3.29631 v -1.00294 h 3.29631 v -0.88927 h 1.38405 z m 2.78148,5.04142 v 5.87051 q 0,0.61513 -0.2942,0.89596 -0.28751,0.27413 -0.98287,0.27413 -0.82241,0 -1.69162,-0.11367 l -0.1939,-1.20352 q 0.88927,0.10698 1.41079,0.10698 0.26745,0 0.32094,-0.13372 0.0334,-0.0802 0.0334,-0.24739 v -0.86253 h -4.10534 v 2.49397 h -1.39742 v -7.08072 z m -5.50277,0.98288 v 0.78228 h 4.10534 v -0.78228 z m 0,1.76516 v 0.82241 h 4.10534 v -0.82241 z m -6.72635,-1.6983 q 0.30088,-1.39074 0.43461,-3.59719 l 0.0334,-0.54827 1.13666,0.10697 q -0.0802,2.86171 -0.46804,4.64694 z m 16.6554,-5.583 v -1.39743 h 1.39742 v 1.39743 h 2.07942 v 1.17677 h -2.07942 v 1.15003 h 2.36693 v 1.19015 h -0.79567 q -0.21396,0.79566 -0.57501,1.68493 h 1.29044 v 1.16341 h -2.28669 v 1.23695 h 2.19977 v 1.19015 h -2.19977 v 2.82159 h -1.39742 v -2.82159 h -2.36024 v -1.19015 h 2.36024 v -1.23695 h -2.46722 v -1.16341 h 1.23027 q -0.21396,-0.88927 -0.52153,-1.68493 h -0.98288 v -1.19015 h 2.74136 v -1.15003 h -2.17971 v -1.17677 z m 1.66487,3.51695 h -2.12622 q 0.22733,0.63519 0.48809,1.68493 h 1.10992 q 0.34768,-0.85583 0.52821,-1.68493 z m 8.1104,-4.43297 v 3.12916 q 0,0.5817 -0.21396,0.8224 -0.25408,0.28751 -1.06311,0.28751 -0.78898,0 -1.57795,-0.0669 l -0.22734,-1.20352 q 1.10992,0.12035 1.4108,0.12035 0.31425,0 0.31425,-0.27413 v -1.61139 h -2.92857 v 3.8847 h 3.7911 l 0.79566,0.682 q -0.36106,2.12622 -1.31719,3.79778 l -0.0735,0.13372 q 0.73549,0.84915 1.83871,1.55121 l -0.74885,1.25032 q -1.05643,-0.68199 -1.88552,-1.63144 -0.71543,0.90933 -1.61138,1.71168 l -0.78898,-1.09654 v 1.04305 h -1.3573 v -12.53 z m -4.28588,6.29175 v 5.05479 q 0.82241,-0.56165 1.58464,-1.57795 -1.02299,-1.57796 -1.43754,-3.47684 z m 2.32681,2.29337 q 0.59508,-1.15003 0.7756,-2.29337 h -1.72504 q 0.32762,1.28375 0.94944,2.29337 z m 4.35274,-7.1877 h 3.60388 q 0.59508,-0.94944 0.90264,-1.53114 l 1.49103,0.21396 q -0.20059,0.36105 -0.70874,1.17677 l -0.0869,0.14041 h 4.71379 v 1.31719 h -5.60306 q -0.8759,1.20352 -1.67156,2.08611 1.2637,-0.75555 2.30675,-0.75555 1.61807,0 2.11954,1.62476 1.71167,-0.56833 3.49021,-1.12329 l 0.57502,1.29713 -0.23402,0.0669 -0.66194,0.17384 q -1.87214,0.50816 -2.99543,0.86921 0.0802,0.86921 0.11367,2.24658 l -1.46429,0.0802 q -0.007,-0.79566 -0.0267,-1.72505 v -0.13372 q -3.07567,1.04974 -3.07567,2.11285 0,0.54827 0.78898,0.74885 0.76223,0.19391 2.72798,0.19391 1.81197,0 3.80446,-0.20728 l 0.16047,1.42417 q -1.93232,0.1471 -4.00505,0.1471 -2.55414,0 -3.63062,-0.3878 -1.33056,-0.48141 -1.33056,-1.73174 0,-1.05642 0.94276,-1.86546 0.97619,-0.83578 3.43672,-1.72504 -0.13373,-0.51484 -0.35437,-0.72212 -0.24739,-0.23402 -0.65525,-0.23402 -0.66194,0 -1.66487,0.50147 -1.23696,0.61514 -2.65444,1.85209 l -0.88927,-1.01631 q 2.07942,-1.93232 3.2562,-3.79778 h -2.7213 z m 17.45106,6.52577 v 3.51027 q 1.33725,-0.47473 1.81866,-1.51778 0.37443,-0.80235 0.40117,-3.06898 h 1.34393 q -0.0201,2.64106 -0.54827,3.67743 -0.71543,1.39074 -2.44047,2.09948 l -0.57502,-0.78898 v 0.007 h -3.19602 v 0.68868 h -1.31718 v -4.60681 z m -3.19602,1.15003 v 1.63144 h 1.87883 v -1.63144 z m 6.57257,-8.32436 v -1.21689 h 1.3573 v 1.21689 h 3.2562 v 1.17678 h -3.2562 v 0.94944 h 2.87508 v 1.15003 h -6.94031 v -1.15003 h 2.70793 v -0.94944 h -3.17596 v -1.17678 z m 4.56001,4.19227 v 2.80821 h -1.34394 v -1.67155 H 173.196 v 1.77853 h -1.30381 v -2.91519 z m -12.22912,-4.92776 h 4.03848 v 1.12329 h -4.03848 z m -0.6285,1.95907 h 5.21526 v 1.20352 h -5.21526 z m 0.6285,2.05267 h 4.03848 v 1.10992 h -4.03848 z m 0,1.95907 h 4.03848 v 1.08317 h -4.03848 z m 8.66536,0.83578 h 1.29044 v 3.96493 q 0,0.18722 0.0936,0.22733 0.15378,0.0669 0.34768,0.0669 0.44129,0 0.57502,-0.12704 0.18052,-0.16047 0.25407,-1.79191 l 1.21021,0.42123 q -0.0602,1.79191 -0.38111,2.27332 -0.20059,0.30088 -0.64188,0.40786 -0.38112,0.0869 -1.01631,0.0869 -1.10323,0 -1.42417,-0.22733 -0.30756,-0.22065 -0.30756,-0.81572 z m 6.10452,-6.34524 h 5.22863 l 0.93608,0.79567 q -0.66194,2.32012 -1.09655,3.49021 1.66488,0.28082 3.06898,0.90933 0.0802,-0.86253 0.0802,-1.69162 0,-0.44129 -0.0268,-1.03637 l 1.46429,0.15379 q -0.007,1.91226 -0.15378,3.21607 0.82909,0.42792 1.73842,1.00962 l -0.57502,1.42417 q -0.64188,-0.46803 -1.39074,-0.92938 -0.51484,1.98581 -1.64481,3.08903 -0.80235,0.78898 -2.19308,1.39074 l -0.83578,-1.12329 q 1.63813,-0.70205 2.42041,-1.79191 0.61514,-0.86921 0.90933,-2.27331 -1.63812,-0.82241 -3.31637,-1.10992 -1.08985,2.98206 -2.1864,4.51989 -0.83578,1.16341 -1.87883,1.16341 -1.00962,0 -1.56457,-0.96282 -0.42124,-0.73549 -0.42124,-1.75179 0,-1.25701 0.64857,-2.24658 0.76891,-1.17677 2.36692,-1.71836 0.9227,-0.30756 2.06605,-0.33431 0.61513,-1.60469 0.94276,-2.87508 h -4.58676 z m 3.16259,5.46934 q -0.86252,0.0468 -1.47766,0.32763 -0.96282,0.42792 -1.41748,1.3105 -0.32094,0.62182 -0.32094,1.32387 0,0.56164 0.22065,0.97619 0.16715,0.32763 0.40117,0.32763 0.93607,0 2.59426,-4.26582 z m 15.7327,-2.60763 h 4.82746 v 1.37068 h -4.82746 v 5.58969 h 6.10453 v 1.39742 h -13.0114 v -1.39742 h 5.28881 v -10.77821 h 1.61806 z m 15.0574,-3.28294 h 1.20352 l 0.28751,2.9152 h 2.72798 v 1.3573 h -2.61431 l 0.0267,1.2169 q 0.007,0.32762 0.007,0.45466 0,2.76141 -0.81572,4.09866 -0.64188,1.06311 -1.86546,1.72505 -0.33431,0.18053 -0.81572,0.39449 l -0.90933,-1.15004 q 1.65819,-0.74885 2.29338,-1.82534 0.62182,-1.04974 0.62182,-3.28294 0,-0.0602 -0.007,-0.48141 l -0.0334,-1.15003 h -4.39285 v -1.3573 h 4.33936 z m -6.96037,11.73434 q -0.32762,-2.52071 -0.32762,-5.51614 0,-3.17596 0.37443,-6.2182 l 1.45091,0.13373 q -0.34768,3.17596 -0.34768,6.05104 0,2.92188 0.32094,5.34229 z m 9.48108,-9.4209 q -0.30088,-1.0698 -0.96282,-2.24658 l 0.94945,-0.26076 q 0.63519,1.08986 1.00962,2.21983 z m 1.54452,-0.5349 q -0.37443,-1.2637 -1.02968,-2.27332 l 0.98956,-0.24739 q 0.64857,0.99625 1.04305,2.2332 z m 3.27624,-1.57126 h 7.50195 l 0.71543,1.10991 q -3.47684,2.12622 -6.02429,3.86464 1.64481,-0.68868 3.30299,-0.68868 1.49103,0 2.48728,0.47472 0.9227,0.44129 1.43754,1.20352 0.5349,0.80904 0.5349,1.85877 0,1.47098 -1.00294,2.46054 -0.68868,0.68868 -1.76516,1.04305 -1.4108,0.46135 -3.08904,0.46135 -1.93232,0 -2.84833,-0.71543 -0.71543,-0.56164 -0.71543,-1.51777 0,-0.72211 0.52153,-1.28376 0.78897,-0.84915 2.1329,-0.84915 1.42417,0 2.28001,0.95613 0.62182,0.69537 0.89595,1.86546 2.05936,-0.65525 2.05936,-2.42042 0,-1.33724 -1.1166,-1.97243 -0.74886,-0.42792 -1.89889,-0.42792 -1.71836,0 -3.10241,0.47472 -1.02299,0.34768 -2.74804,1.67824 l -0.94276,-1.13665 q 1.85877,-1.6047 4.23239,-3.2562 1.63812,-1.13666 2.88845,-1.86546 h -5.73679 z m 5.06816,10.50406 q -0.47472,-1.8922 -1.86545,-1.8922 -0.76892,0 -1.10992,0.48809 -0.16047,0.22065 -0.16047,0.47473 0,0.52821 0.74886,0.79566 0.54158,0.18721 1.45091,0.18721 0.3878,0 0.93607,-0.0535 z"></path>
      </g>
      <g aria-label="揺れ検出で推定された震源要素を
表示する(低精度)" style="font-weight:bold;font-size:13.5201px;line-height:1.1;font-family:'BIZ UDPGothic';-inkscape-font-specification:'BIZ UDPGothic Bold';fill:#ffffff;stroke-width:25;stroke-linecap:round;stroke-linejoin:round" id="text9">
        <path id="path12" d="m 66.380895,69.356532 v 1.300518 h 3.835536 v 1.18829 h -3.835536 v 2.812286 h 1.769232 v -2.178532 h 1.379736 v 4.033585 h -1.379736 v -0.706373 h -4.838981 v 0.706373 h -1.379737 v -4.033585 h 1.379737 v 2.178532 h 1.676809 V 71.84534 h -3.650691 v -1.18829 h 3.650691 v -1.300518 h -3.129164 v -1.14868 h 5.215273 q 0.633755,-1.18829 1.208095,-2.851896 l 1.313721,0.528129 q -0.48852,1.122274 -1.175087,2.323767 h 1.227899 v 1.14868 z m -7.426813,-3.254594 v -2.435994 h 1.419347 v 2.435994 h 1.31372 v 1.313721 h -1.31372 v 2.13232 q 0.488519,-0.16504 1.135477,-0.415901 l 0.16504,1.241102 q -0.765787,0.323479 -1.300517,0.528129 v 4.390072 q 0,0.580942 -0.211252,0.845006 -0.270666,0.330081 -1.056258,0.330081 -0.712974,0 -1.326923,-0.132033 L 57.50833,74.954699 q 0.792193,0.118829 1.14868,0.118829 0.20465,0 0.250861,-0.08582 0.04621,-0.07262 0.04621,-0.250862 v -3.32061 q -0.673364,0.224455 -1.366533,0.429105 l -0.402698,-1.359932 q 1.115672,-0.283869 1.676809,-0.455511 0.04621,-0.0132 0.09242,-0.02641 v -2.587831 h -1.577785 v -1.313721 z m 2.449198,-1.676809 q 4.106202,-0.184845 7.301382,-0.785592 l 0.891218,1.095868 q -3.677098,0.653559 -7.677674,0.891217 z m 1.524972,3.703504 q -0.33008,-1.135477 -0.798795,-2.053101 l 1.221298,-0.4093 q 0.554536,1.076062 0.838405,2.026694 z M 65.37745,67.976796 Q 65.126589,66.84792 64.591858,65.870882 l 1.2279,-0.4093 q 0.547934,0.963835 0.851608,2.138922 z m 8.245412,-4.01378 h 1.458956 v 3.72991 q 1.571184,-1.630598 2.515214,-2.237946 0.878015,-0.567738 1.822045,-0.567738 0.950632,0 1.531574,0.53473 0.765787,0.712974 0.765787,1.868256 0,0.303674 -0.07922,0.805397 -0.580942,3.6903 -0.580942,5.109647 0,0.607348 0.310276,0.607348 0.198049,0 0.521527,-0.224455 0.679966,-0.468714 1.373136,-1.538175 l 0.541332,1.511769 q -0.422503,0.673364 -1.049656,1.194891 -0.726178,0.607349 -1.551379,0.607349 -0.785592,0 -1.221298,-0.547934 -0.36969,-0.468715 -0.36969,-1.564582 0,-0.831803 0.217853,-2.502011 0.277267,-2.099312 0.36969,-3.11596 0.0132,-0.16504 0.0132,-0.277268 0,-0.580942 -0.244259,-0.891217 -0.231057,-0.297073 -0.640357,-0.297073 -1.379736,0 -4.244836,3.677098 v 6.231921 h -1.458956 v -4.568315 q -1.102469,1.544777 -2.033296,2.917912 l -0.686567,-1.564582 q 1.564581,-1.894663 2.719863,-3.611081 v -1.67681 h -2.317165 v -1.326923 h 2.317165 z m 20.194329,8.568891 q 0.501722,0.838405 1.194891,1.406144 0.89782,0.726177 2.277556,1.260907 l -0.798795,1.313721 q -2.462401,-1.02325 -3.591276,-3.432838 -0.429105,1.260908 -1.359932,2.165329 -0.838405,0.811998 -2.251149,1.412744 l -0.917624,-1.161883 q 1.623996,-0.528129 2.462401,-1.366534 0.706372,-0.706372 1.049656,-1.59759 h -2.554824 v -3.551666 h 2.799083 V 67.87117 h -1.432549 v -0.587544 q -0.712974,0.620552 -1.584387,1.089266 l -0.521527,-0.69977 h -1.095868 v 1.128875 q 0.864811,0.726177 1.670208,1.610793 l -0.699771,1.254306 q -0.475316,-0.693169 -0.970437,-1.333525 v 6.179108 h -1.35333 v -5.928247 q -0.653559,1.874858 -1.39294,3.168773 l -0.580942,-1.544777 q 1.214697,-2.039897 1.848451,-4.535306 h -1.630597 v -1.287315 h 1.756028 v -2.719863 h 1.35333 v 2.719863 h 1.175087 v 0.772389 q 2.105914,-1.234501 3.214985,-3.492252 h 1.498566 q 0.996843,1.551378 2.521815,2.594433 0.660161,0.448909 1.538175,0.897819 L 96.64268,68.293673 Q 95.725056,67.798552 94.946066,67.21761 v 0.65356 h -1.478761 v 1.109071 h 2.851896 v 3.551666 z m -1.663606,-2.508612 h -1.551379 v 1.452355 h 1.551379 z m 1.287314,0 v 1.452355 h 1.590988 v -1.452355 z m -2.17193,-3.287602 h 3.096156 q -0.937429,-0.8186 -1.696614,-1.934272 -0.547934,1.036453 -1.399542,1.934272 z m 13.744551,1.406143 h 3.22159 v -3.287602 h 1.47216 v 4.601323 h -4.69375 v 4.87859 h 3.63749 v -3.043343 h 1.49857 v 5.221875 h -1.49857 v -0.838405 h -8.667914 v 0.838405 h -1.485363 v -5.221875 h 1.485363 v 3.043343 h 3.558264 v -4.87859 h -4.607921 v -4.601323 h 1.472161 v 3.287602 h 3.13576 v -4.475892 h 1.47216 z m 6.84587,-2.871701 q 6.07349,-0.09242 11.48021,-0.310276 l 0.0792,1.313721 q -2.38319,0.118829 -3.71011,0.726177 -1.26751,0.580942 -2.0333,1.610793 -0.87141,1.168485 -0.87141,2.601035 0,1.425948 0.99024,2.138922 1.13548,0.811998 3.48565,1.115672 l -0.31027,1.485363 q -3.06315,-0.4093 -4.31085,-1.584387 -1.34013,-1.254306 -1.34013,-3.11596 0,-1.690013 1.21469,-3.15557 0.88462,-1.076063 2.4228,-1.729622 -2.72647,0.09242 -7.03072,0.310275 z m 9.59875,5.69719 q -0.3895,-1.036452 -1.31372,-2.350173 l 1.02985,-0.382894 q 0.8252,1.135478 1.32692,2.323768 z m 1.78243,-0.693169 q -0.46871,-1.214696 -1.30712,-2.363376 l 0.98364,-0.349886 q 0.77239,0.937429 1.31372,2.270954 z m 8.55569,-4.218429 h 1.88146 q 0.4093,-1.076063 0.77238,-2.363377 l 1.36654,0.283869 q -0.42251,1.26751 -0.8054,2.079508 h 2.56143 v 1.201493 h -2.72647 v 1.584387 h 2.31056 v 1.135477 h -2.31056 v 1.571183 h 2.31056 v 1.135477 h -2.31056 v 1.67681 h 2.94432 v 1.227899 h -6.10649 v 0.924226 h -1.31372 v -7.869121 q -0.30368,0.481918 -0.65356,0.957234 l -0.76579,-1.168485 q 1.51177,-1.907866 2.32377,-4.812575 l 1.36653,0.297073 q -0.39609,1.221298 -0.845,2.138922 z m -0.11223,8.304827 h 1.90786 v -1.67681 h -1.90786 z m 0,-2.812287 h 1.90786 v -1.571183 h -1.90786 z m 0,-2.70666 h 1.90786 V 67.25722 h -1.90786 z m -4.8984,-2.686856 v -2.488807 h 1.43255 v 2.488807 h 1.39294 v 1.287314 h -1.39294 v 2.178532 q 0.57434,-0.178244 1.2147,-0.4093 l 0.0924,1.274111 q -0.46211,0.178243 -1.30712,0.488519 v 4.304251 q 0,0.693169 -0.32348,0.963835 -0.28387,0.237658 -0.95723,0.237658 -0.75919,0 -1.43915,-0.132032 l -0.27067,-1.419347 q 0.88462,0.125431 1.2081,0.125431 0.23105,0 0.29047,-0.07922 0.0594,-0.07922 0.0594,-0.29047 v -3.228188 q -0.55453,0.178243 -1.58438,0.462112 l -0.3895,-1.379736 q 1.32693,-0.297073 1.97388,-0.488519 v -2.607637 h -1.76923 v -1.287314 z m 18.8146,8.436859 q 1.11567,0.184845 2.43599,0.184845 h 3.42624 q -0.33008,0.660161 -0.48852,1.39294 h -2.95092 q -2.68025,0 -4.23163,-0.640356 -1.50517,-0.620552 -2.48221,-2.0465 -0.77899,1.855053 -1.91447,3.076351 l -1.02325,-1.2279 q 1.86166,-2.013491 2.32377,-5.215272 l 1.49857,0.231056 q -0.21125,1.043055 -0.4093,1.736224 0.79879,1.419346 2.35677,2.099312 v -5.109647 h -3.66389 v -0.878014 h -1.43255 v -3.056546 h 5.05683 v -1.472159 h 1.47216 v 1.472159 h 5.16906 v 3.056546 h -1.43255 v 0.878014 h -3.7101 v 2.020093 h 4.5221 v 1.2279 h -4.5221 z m -5.10965,-8.212404 v 1.439151 h 8.79335 V 66.379206 Z M 152.4461,66.27358 h 5.3011 q -0.42911,-1.128876 -0.78559,-2.244548 l 1.44575,-0.09242 q 0.34328,1.175086 0.8252,2.33697 h 4.87859 v 1.35333 h -4.25804 q 0.85161,1.76263 2.13232,3.677098 l -1.38634,0.660161 q -1.41274,-2.138922 -2.31716,-4.337259 h -5.83583 z m 9.59875,9.737376 q -1.31372,0.07262 -2.32377,0.07262 -2.74627,0 -4.04679,-0.429105 -2.35017,-0.765786 -2.35017,-2.891505 0,-1.307119 0.812,-2.105914 l 1.2411,0.673364 q -0.54133,0.534731 -0.54133,1.399542 0,1.102469 1.18829,1.544777 1.04965,0.389495 3.51205,0.389495 1.04306,0 2.35018,-0.09902 z m 6.21871,-12.04794 h 1.45896 v 3.72991 q 1.57118,-1.630598 2.51521,-2.237946 0.87801,-0.567738 1.82204,-0.567738 0.95064,0 1.53158,0.53473 0.76579,0.712974 0.76579,1.868256 0,0.303674 -0.0792,0.805397 -0.58095,3.6903 -0.58095,5.109647 0,0.607348 0.31028,0.607348 0.19805,0 0.52153,-0.224455 0.67996,-0.468714 1.37313,-1.538175 l 0.54133,1.511769 q -0.4225,0.673364 -1.04965,1.194891 -0.72618,0.607349 -1.55138,0.607349 -0.78559,0 -1.2213,-0.547934 -0.36969,-0.468715 -0.36969,-1.564582 0,-0.831803 0.21785,-2.502011 0.27727,-2.099312 0.36969,-3.11596 0.0132,-0.16504 0.0132,-0.277268 0,-0.580942 -0.24426,-0.891217 -0.23106,-0.297073 -0.64036,-0.297073 -1.37973,0 -4.24483,3.677098 v 6.231921 h -1.45896 v -4.568315 q -1.10247,1.544777 -2.0333,2.917912 l -0.68656,-1.564582 q 1.56458,-1.894663 2.71986,-3.611081 v -1.67681 h -2.31717 v -1.326923 h 2.31717 z m 11.27555,2.053101 h 3.08295 q 0.18485,-0.8186 0.4159,-2.119117 l 1.49197,0.184845 q -0.19805,1.02325 -0.42251,1.934272 h 4.39668 v 1.313721 h -4.70695 q -1.32033,5.274687 -2.91792,8.747135 l -1.45895,-0.514926 q 1.73622,-3.848739 2.8915,-8.232209 h -2.77267 z m 11.68485,9.71097 q -1.06946,0.138634 -2.40299,0.138634 -2.15872,0 -3.26119,-0.36969 -0.42251,-0.145236 -0.71958,-0.4093 -0.58094,-0.528129 -0.58094,-1.346729 0,-0.838404 0.54133,-1.478761 l 1.17509,0.693169 q -0.20465,0.257463 -0.20465,0.567739 0,0.534731 0.48852,0.693169 0.74598,0.237658 2.12572,0.237658 1.34012,0 2.67365,-0.198048 z m -6.19231,-6.542197 q 2.58783,-0.297072 5.66418,-0.316877 l 0.066,1.340127 q -3.01694,0.0132 -5.53875,0.283869 z m 13.19001,-3.736511 V 64.88064 h -4.126 v -0.94403 h 9.74397 v 0.94403 h -4.21182 v 0.567739 h 5.46613 v 2.369978 h -1.43255 v -1.518371 h -4.03358 v 2.568027 h -1.40615 v -2.568027 h -3.96096 v 1.518371 h -1.41935 v -2.369978 z m 4.67394,9.367686 q 1.01005,0.382893 2.52182,0.607348 l -0.77239,1.122274 q -2.11912,-0.363089 -3.47905,-1.247705 -1.35333,-0.884615 -2.10591,-2.198336 h -1.45896 v 2.033296 q 1.45896,-0.20465 2.70666,-0.435706 l 0.0924,0.98364 q -2.32377,0.554535 -5.3143,0.963835 l -0.3895,-1.161883 q 1.03646,-0.112228 1.41935,-0.158439 l 0.0792,-0.0132 v -2.21154 h -1.44575 q -0.0924,1.161883 -0.30368,1.855053 -0.25086,0.831803 -0.80539,1.551378 l -1.17509,-0.970437 q 0.64696,-0.838404 0.8054,-1.960678 0.0858,-0.607348 0.0858,-1.511769 V 69.26411 h 11.39438 v 0.878014 h -9.97504 v 2.026695 h 10.54278 v 0.930827 h -1.49857 l 0.8384,0.554535 q -0.74598,0.620552 -1.76263,1.161884 z m -1.02985,-0.508324 q 0.95063,-0.646958 1.51177,-1.208095 h -2.8849 q 0.56774,0.726177 1.37313,1.208095 z m -7.02411,-7.519235 h 2.81229 v 0.745982 h -2.81229 z m 0,1.214696 h 2.81229 v 0.759185 h -2.81229 z m 5.35391,-1.214696 h 2.8981 v 0.745982 h -2.8981 z m 0,1.214696 h 2.8981 v 0.759185 h -2.8981 z m -4.63434,2.693457 h 8.21901 v 0.864811 h -8.21901 z m 19.38895,-4.000576 h 3.06975 v 5.12285 h -2.52842 v 3.624285 q 0,0.627153 -0.29707,0.871413 -0.24426,0.198048 -0.86481,0.198048 -0.74599,0 -1.49197,-0.138634 l -0.18484,-1.241103 q 0.76578,0.118829 1.18829,0.118829 0.25086,0 0.29707,-0.118829 0.0264,-0.08582 0.0264,-0.270666 v -3.043343 h -2.52842 v -5.12285 h 1.99369 q 0.24426,-0.726177 0.34988,-1.194892 h -3.09615 v 3.584675 q 0,2.383182 -0.29708,3.934561 -0.34988,1.855052 -1.37973,3.479049 l -1.05626,-1.043055 q 1.35333,-2.158727 1.35333,-5.743402 v -5.426524 h 9.26206 v 1.214696 h -3.36022 q -0.19805,0.633755 -0.45551,1.194892 z m 1.72962,1.056258 h -3.74311 v 0.996843 h 3.74311 z m -3.74311,2.013491 v 1.02325 h 3.74311 v -1.02325 z m -4.66734,-3.069749 q -0.65356,-0.977038 -1.90787,-2.046499 l 1.01665,-0.891218 q 1.13548,0.8186 1.92107,1.907866 z m -0.36309,3.393228 q -1.09587,-1.379737 -1.93427,-2.099312 l 1.04305,-0.944031 q 1.07606,0.89782 1.94748,2.013492 z m -1.78244,5.433126 q 1.01005,-1.92767 1.6306,-4.693745 l 1.2081,0.732778 q -0.44891,1.934273 -0.8186,3.036742 -0.32348,0.963835 -0.7922,1.940873 z m 4.15902,-0.448909 q 1.08926,-1.148681 1.6636,-2.82549 l 1.26091,0.382894 q -0.62715,2.000288 -1.84185,3.366821 z m 7.58525,0.811998 q -0.70637,-1.6372 -1.76923,-3.109359 l 1.09587,-0.633755 q 1.08266,1.346729 1.89466,2.904709 z m 8.16619,-6.066881 q -0.27727,0.495121 -0.66016,1.056258 h 7.05052 v 1.161883 h -2.70006 q -0.69977,1.089266 -1.81544,2.079508 l 0.34988,0.09902 q 2.00029,0.57434 3.74972,1.201493 l -0.86481,1.095868 q -2.36998,-0.930827 -4.41648,-1.544777 -1.56458,0.785592 -3.48565,1.175087 -1.09587,0.217853 -2.64725,0.382893 l -0.69977,-1.175087 q 2.90471,-0.118829 5.14266,-0.871412 -1.30052,-0.369691 -3.08956,-0.745982 l -0.54133,-0.112228 0.4027,-0.429105 q 0.4291,-0.455511 1.02325,-1.155282 h -3.248 v -1.161883 h 4.15242 q 0.36969,-0.501723 0.72618,-1.056258 h -3.70351 v -3.393228 h 3.03014 v -1.043055 h -3.80253 v -1.122273 h 12.02154 v 1.122273 h -3.86855 v 1.043055 h 3.09616 v 3.393228 z m -2.38978,3.247993 q 0.10562,0.02641 0.29707,0.06602 0.58094,0.118829 2.44259,0.57434 0.93083,-0.679966 1.68342,-1.670208 h -3.54507 q -0.4291,0.547934 -0.87801,1.029852 z m 1.51176,-6.641221 h 1.64381 v -1.043055 h -1.64381 z m -1.36653,1.016648 h -1.6372 v 1.333526 h 1.6372 z m 1.36653,0 v 1.333526 h 1.64381 v -1.333526 z m 2.98393,0 v 1.333526 h 1.70322 v -1.333526 z m 11.76407,4.277844 q 0.87141,-0.02641 1.30712,-0.03961 1.09587,-0.03301 1.96068,-0.07262 -0.53473,-0.547934 -0.89122,-0.897819 l 1.06946,-0.620552 q 1.37974,1.109071 2.4492,2.462401 l -1.13548,0.77899 q -0.25086,-0.316877 -0.68657,-0.845006 l -0.11222,0.0132 q -1.54478,0.165041 -3.29421,0.264065 l -0.36969,0.01981 v 3.72991 h -1.45895 v -3.663894 q -1.43255,0.05281 -2.14553,0.08582 -1.20149,0.04621 -2.8717,0.07262 l -0.4357,-1.18829 q 2.40958,-0.0066 4.07979,-0.03301 l 0.49512,-0.0066 q -1.39954,-0.897819 -2.96412,-1.716419 l 0.99024,-0.838405 q 0.31028,0.178244 0.90442,0.547934 0.3961,-0.323479 0.8054,-0.712974 h -4.44289 v -1.069461 h 5.59817 v -0.739381 h -4.15241 v -1.003444 h 4.15241 v -0.673365 h -4.87859 v -1.016648 h 4.87859 v -0.891217 h 1.44575 v 0.891217 h 4.95781 v 1.016648 h -4.95781 v 0.673365 h 4.23164 v 1.003444 h -4.23164 v 0.739381 h 5.69059 v 1.069461 h -4.093 l 1.10247,0.554535 q -1.11567,0.884616 -2.99713,2.105914 z m -2.14552,-1.320322 0.22445,0.158439 q 0.33668,0.224454 0.87802,0.613949 1.43915,-1.029851 2.68025,-2.112515 h -2.20494 q -0.93083,0.884616 -1.57778,1.340127 z m -4.40988,4.931403 q 1.78904,-0.90442 2.77928,-2.119117 l 1.2213,0.699771 q -1.35994,1.577785 -2.99053,2.515214 z m 11.4604,0.825202 q -1.24111,-1.095868 -3.16217,-2.323767 l 0.97043,-0.878015 q 1.80224,0.963836 3.23479,2.119118 z m 2.96413,-10.635196 h 3.55827 q 0.58754,-0.937428 0.89122,-1.511769 l 1.47216,0.211252 q -0.19805,0.356487 -0.69977,1.161883 l -0.0858,0.138634 h 4.65413 v 1.300518 h -5.53215 q -0.86481,1.18829 -1.6504,2.059702 1.2477,-0.745982 2.27755,-0.745982 1.59759,0 2.09272,1.604192 1.69001,-0.561137 3.44604,-1.109071 l 0.56773,1.280713 -0.23105,0.06602 -0.65356,0.171642 q -1.84845,0.501722 -2.95752,0.858209 0.0792,0.85821 0.11222,2.218142 l -1.44575,0.07922 q -0.007,-0.785592 -0.0264,-1.703216 v -0.132032 q -3.03675,1.036453 -3.03675,2.086109 0,0.541332 0.77899,0.739381 0.75259,0.191446 2.69346,0.191446 1.78904,0 3.75632,-0.20465 l 0.15844,1.406143 q -1.90787,0.145236 -3.95437,0.145236 -2.52181,0 -3.58467,-0.382894 -1.31372,-0.475316 -1.31372,-1.709817 0,-1.043054 0.93082,-1.841849 0.96384,-0.825202 3.39323,-1.703216 -0.13203,-0.508324 -0.34988,-0.712974 -0.24426,-0.231056 -0.64696,-0.231056 -0.65356,0 -1.6438,0.49512 -1.2213,0.607349 -2.62084,1.828647 l -0.87802,-1.003445 q 2.0531,-1.907866 3.21499,-3.749715 h -2.68686 z"></path>
        <path id="path13" d="m 65.707531,88.612112 0.09242,1.181688 q -2.865099,1.010047 -6.370555,1.663607 l -0.488519,-1.320323 q 0.607348,-0.09242 1.716419,-0.297072 v -2.41619 q -1.142079,0.580942 -2.719864,1.102469 l -0.752583,-1.175087 q 3.175375,-0.858209 4.845582,-2.191735 h -4.71355 v -1.14868 h 5.657581 V 83.013946 H 58.69662 v -1.109071 h 4.277844 v -0.930827 h -4.951209 v -1.135477 h 4.951209 v -1.300518 h 1.445752 v 1.300518 h 5.096444 v 1.135477 h -5.096444 v 0.930827 h 4.42308 v 1.109071 h -4.42308 v 0.996843 h 5.802817 v 1.14868 h -1.577785 l 0.977038,0.673365 q -0.904421,0.878014 -2.535019,1.921069 l -0.151837,0.09902 q 1.241103,1.135477 3.366822,1.874857 l -0.891218,1.340127 q -2.303962,-0.977038 -3.703503,-2.455799 z m -2.000289,-3.432838 q -0.660161,0.772389 -1.590988,1.386339 v 2.964123 q 1.630598,-0.363089 3.274399,-0.845006 l 0.303674,-0.08582 q -1.35333,-1.498566 -1.987085,-3.419635 z m 2.409588,1.80224 q 1.175087,-0.838404 2.059703,-1.822045 h -3.122562 q 0.422503,1.010047 1.062859,1.822045 z m 11.975323,-2.818888 v 5.855629 q 0,0.798795 -0.323479,1.089266 -0.303674,0.264065 -1.175087,0.264065 -0.990241,0 -1.881459,-0.125431 l -0.283869,-1.39294 q 0.924225,0.151837 1.769232,0.151837 0.283869,0 0.356487,-0.09902 0.05281,-0.08582 0.05281,-0.283869 v -5.459533 h -5.677386 v -1.31372 H 83.65071 v 1.31372 z m -5.578361,-4.891794 h 9.545929 v 1.300518 h -9.545929 z m -1.663606,10.126872 q 1.425948,-1.491964 2.29736,-3.967568 l 1.366534,0.514925 q -1.010047,2.832091 -2.54162,4.449486 z M 82.17855,90.2031 q -1.366533,-2.891505 -2.37658,-4.231632 l 1.241103,-0.739381 q 1.452355,1.868256 2.475604,4.066593 z m 9.057411,-11.39438 h 1.485362 v 1.822044 h 3.894951 v 1.274111 h -3.894951 v 2.82549 q 0.231057,0.811998 0.231057,1.445753 0,2.350173 -1.036453,3.452642 -1.128876,1.208095 -3.39983,1.670208 l -0.752584,-1.122274 q 1.762631,-0.336682 2.614238,-0.950632 0.798795,-0.580942 1.076063,-1.577785 -0.706372,0.772388 -1.683411,0.772388 -1.095867,0 -1.775833,-0.620551 -0.798795,-0.732779 -0.798795,-2.125719 0,-0.732779 0.349885,-1.412745 0.231057,-0.435706 0.567739,-0.726177 0.77899,-0.660161 1.868256,-0.660161 0.693169,0 1.254306,0.330081 v -1.300518 h -6.51579 v -1.274111 h 6.51579 z m 0.05281,6.852472 v -0.24426 q 0,-0.422503 -0.198049,-0.745982 -0.36969,-0.607348 -1.069461,-0.607348 -0.356487,0 -0.666762,0.198048 -0.726178,0.455512 -0.726178,1.399542 0,0.594145 0.264065,1.003445 0.36969,0.567738 1.089266,0.567738 0.653559,0 1.036453,-0.587543 0.270666,-0.415902 0.270666,-0.98364 z m 8.106778,-6.39036 h 7.407008 l 0.70637,1.095868 q -3.43284,2.099312 -5.94805,3.815731 1.624,-0.679966 3.2612,-0.679966 1.47216,0 2.4558,0.468714 0.91102,0.435707 1.41934,1.18829 0.52813,0.798795 0.52813,1.835248 0,1.452355 -0.99024,2.429393 -0.67997,0.679966 -1.74283,1.029852 -1.39294,0.455511 -3.04994,0.455511 -1.90787,0 -2.81229,-0.706373 -0.706369,-0.554535 -0.706369,-1.498565 0,-0.712974 0.514929,-1.26751 0.77899,-0.838404 2.10591,-0.838404 1.40614,0 2.25115,0.94403 0.61395,0.686568 0.88462,1.84185 2.03329,-0.646958 2.03329,-2.389784 0,-1.320322 -1.10247,-1.947475 -0.73938,-0.422503 -1.87485,-0.422503 -1.69662,0 -3.06315,0.468714 -1.01005,0.343284 -2.713264,1.657005 l -0.930827,-1.122274 q 1.835247,-1.584387 4.178821,-3.214985 1.61739,-1.122274 2.85189,-1.841849 h -5.664178 z m 5.004018,10.371131 q -0.46871,-1.868256 -1.84185,-1.868256 -0.75918,0 -1.09586,0.481918 -0.15844,0.217853 -0.15844,0.468714 0,0.521528 0.73938,0.785592 0.53473,0.184845 1.43255,0.184845 0.38289,0 0.92422,-0.05281 z"></path>
        <path id="path14" d="m 114.15192,91.144838 q -0.98291,-0.886231 -1.61132,-2.164551 -0.77344,-1.57373 -0.77344,-3.066894 0,-1.691895 0.97217,-3.442872 0.59082,-1.058105 1.41259,-1.777832 h 1.04737 q -0.71973,0.827149 -1.16016,1.525391 -1.11719,1.783203 -1.11719,3.706055 0,1.815429 0.99903,3.501953 0.47265,0.794922 1.27832,1.71875 z m 4.59766,-7.863281 v 7.863281 h -1.16553 v -5.473145 q -0.35449,0.606934 -0.83789,1.294434 l -0.55859,-1.203125 q 0.91846,-1.283691 1.5415,-3.013184 0.31153,-0.859375 0.68213,-2.196777 l 1.16553,0.306152 q -0.37061,1.27295 -0.82715,2.422364 z m 1.24609,-1.509278 q 0.19873,-0.01611 0.40821,-0.03223 2.03564,-0.14502 4.0122,-0.596192 0.4834,-0.112793 1.02588,-0.273925 l 0.74659,0.902343 q -1.05274,0.300782 -2.20215,0.504883 0.0215,1.041992 0.11816,2.024902 l 2.52441,-0.145019 0.043,1.047363 -2.45996,0.134278 q 0.2793,2.250488 0.81641,3.405273 0.14502,0.311523 0.33838,0.580078 0.1289,0.177246 0.18262,0.177246 0.0591,0 0.15576,-0.359863 0.12353,-0.472656 0.20947,-1.407227 l 0.92383,0.725098 q -0.16651,1.305176 -0.38672,1.842285 -0.30078,0.719727 -0.71973,0.719727 -0.35986,0 -0.854,-0.483399 -0.58545,-0.574707 -1.05274,-1.702636 -0.31689,-0.768067 -0.47265,-1.600586 -0.13428,-0.725098 -0.2417,-1.675782 l -0.0161,-0.145019 -1.98731,0.118164 v 2.572754 q 1.05811,-0.284668 2.01416,-0.601563 l 0.0859,0.988282 q -1.62207,0.660644 -3.66309,1.176269 l -0.4082,-1.101074 q 0.31152,-0.05908 0.85937,-0.182617 z m 2.88428,0.682129 q -0.82715,0.128906 -1.77246,0.209473 v 1.810058 l 1.88525,-0.107421 q -0.0698,-0.843262 -0.11279,-1.91211 z m -3.10449,7.358399 h 4.07666 v 1.090332 h -4.07666 z m 11.42969,-5.258301 v -0.526367 h 2.57275 V 83.4964 h -1.98193 v -0.768066 h 1.98193 v -0.515625 h -2.25586 v -0.805664 h 2.25586 v -0.714356 h 1.10107 v 0.714356 h 2.57276 v 0.805664 h -2.57276 v 0.515625 h 2.18604 V 83.4964 h -2.18604 v 0.531739 h 2.85743 v 0.859375 h -6.4668 v 0.725097 h -1.42871 v 0.574707 q 0.83789,0.78418 1.56299,1.691895 l -0.60694,0.977539 q -0.53711,-0.827148 -0.95605,-1.417969 v 3.706055 h -1.05811 v -3.593262 q -0.45654,1.17627 -1.17627,2.196778 l -0.60693,-1.068848 q 1.02588,-1.192383 1.65967,-3.066895 h -1.4502 v -1.058105 h 1.57373 v -3.861817 h 1.05811 v 3.861817 z m 5.71484,0.902344 v 4.71582 q 0,0.478027 -0.23096,0.708984 -0.22021,0.230957 -0.75195,0.230957 -0.58008,0 -1.32666,-0.09131 l -0.17725,-0.977539 q 0.73047,0.08594 1.12793,0.08594 0.18799,0 0.22559,-0.112793 0.0215,-0.06982 0.0215,-0.214844 v -0.816406 h -2.88964 v 2.15918 h -1.11182 V 85.45685 Z m -4.00146,0.78955 v 0.606934 h 2.88964 V 86.2464 Z m 0,1.353516 v 0.628418 h 2.88964 v -0.628418 z m -5.31202,-3.507324 q -0.15039,-1.385742 -0.41894,-2.45459 l 0.93457,-0.263184 q 0.32226,1.240723 0.41894,2.497559 z m 2.3418,-0.252442 q 0.29004,-1.127929 0.4834,-2.562011 l 0.95605,0.230957 q -0.22558,1.57373 -0.58545,2.583496 z m 14.35693,-2.180664 h 4.21094 v 0.902344 h -2.38476 v 0.891602 h 2.23437 v 0.870117 h -2.23437 v 1.600586 h -4.32373 v -1.600586 h -1.76172 v 0.999023 q 0,2.433106 -0.25782,3.845703 -0.19873,1.074219 -0.64453,1.96045 l -0.97754,-0.773438 q 0.40821,-0.88623 0.5586,-2.164551 0.13428,-1.122558 0.13428,-2.868164 v -3.663086 h 4.24853 v -0.966797 h 1.19775 z m -4.25927,0.902344 v 0.891602 h 1.76172 V 82.56183 Z m 2.90576,0 v 0.891602 h 2.03564 V 82.56183 Z m 0,1.761719 v 0.832519 h 2.03564 v -0.832519 z m 1.24609,5.639648 q -1.55224,0.805664 -3.94238,1.22461 l -0.55859,-0.988282 q 2.24511,-0.268554 3.51806,-0.821777 -1.09033,-0.789551 -1.86377,-1.874512 h -0.74121 v -0.93457 h 6.28955 l 0.56397,0.472656 q -0.8003,1.229981 -2.28272,2.314942 1.27295,0.510254 3.46973,0.751953 l -0.62842,1.015137 q -2.10547,-0.284668 -3.82422,-1.160157 z m -1.59521,-2.459961 q 0.6499,0.762696 1.5791,1.342774 1.04736,-0.676758 1.6167,-1.342774 z m 7.13281,3.641602 q 0.71973,-0.827149 1.16016,-1.525391 1.11718,-1.783203 1.11718,-3.695312 0,-1.826172 -0.99902,-3.512696 -0.46728,-0.784179 -1.27832,-1.71875 h 1.04736 q 0.98291,0.891602 1.61133,2.164551 0.77344,1.573731 0.77344,3.061524 0,1.697265 -0.97754,3.448242 -0.58545,1.052734 -1.40723,1.777832 z" style="font-size:11px"></path>
      </g>
    </g>
  </g>
</svg>


