<svg xmlns="http://www.w3.org/2000/svg" id="svg1" version="1.1" height="200" width="990">
  <defs id="defs1"></defs>
  <rect id="rect1" stroke="none" fill="none" height="200" width="990" y="0" x="0"></rect>
  <path aria-label="シベリア南部" style="font-size:100px;font-family:'BIZ UDPGothic';fill:#ff0000" id="text1" d="M 40.820312,88.28125 Q 28.662109,82.617187 14.111328,78.417969 l 2.490234,-7.03125 q 15.039063,3.662109 26.806641,9.521484 z M 30.517578,113.18359 Q 19.873047,108.44727 4.0039062,103.32031 l 2.9785157,-7.324216 q 14.5996091,4.052736 26.5136721,9.814456 z m -20.117187,30.71289 q 17.919921,-1.46484 28.759765,-5.22461 18.408203,-6.44531 28.515625,-23.38867 6.78711,-11.32812 10.107422,-28.271481 l 7.128906,4.296875 q -4.394531,20.068356 -12.5,32.226566 -9.863281,14.74609 -27.34375,21.67968 -12.304687,4.83399 -32.373046,6.5918 z M 92.919922,131.20117 Q 110.83984,110.35156 122.50977,82.177734 h 8.78906 q 15.96679,27.539066 47.70508,57.910156 l -5.07813,7.03125 Q 159.76562,133.74023 146.28906,117.13867 135.40039,103.71094 127.34375,90.917969 H 126.9043 Q 115.47852,117.62695 99.121094,136.91406 Z M 156.93359,96.484375 q -3.51562,-8.837891 -8.83789,-16.308594 l 6.00586,-2.294922 q 5.81055,8.203125 8.93555,16.113282 z m 12.59766,-4.394531 q -3.75977,-9.326172 -8.69141,-16.40625 l 5.76172,-2.09961 q 5.07813,6.445313 8.83789,15.820313 z m 27.09961,-22.070313 h 8.20312 v 51.464849 h -8.20312 z m 50.09766,-1.02539 h 8.20312 v 33.496089 q 0,16.99219 -2.34375,25.04883 -2.49023,8.64258 -7.42187,13.81836 -8.4961,8.88672 -26.31836,13.33008 l -4.29688,-7.17773 q 20.70313,-4.54102 26.9043,-14.99024 3.95508,-6.78711 4.83398,-16.94336 0.43946,-4.88281 0.43946,-12.98828 z m 25.48828,7.421875 h 76.12304 l 5.27344,4.492187 q -4.19922,16.308594 -15.47851,25.537107 -6.20118,5.07813 -15.52735,8.64258 l -4.6875,-6.00586 q 13.91602,-4.54101 21.58203,-14.941405 3.51563,-4.833984 5.0293,-10.644531 H 272.2168 Z m 32.51953,18.164062 h 7.86133 v 8.203122 q 0,19.18946 -3.75977,29.00391 -5.0293,13.03711 -20.70312,21.19141 l -5.81055,-5.95704 q 10.74219,-5.17578 15.9668,-13.23242 3.56445,-5.41992 4.78515,-11.03515 1.66016,-7.66602 1.66016,-19.97071 z m 106.78711,-0.585937 h 37.06054 v 57.324219 q 0,3.90625 -1.61132,5.66406 -1.9043,2.05078 -8.00782,2.05078 -5.76172,0 -11.18164,-0.63476 l -1.70898,-7.42188 q 8.88672,0.92774 12.06055,0.92774 1.85546,0 2.29492,-0.87891 0.24414,-0.53711 0.24414,-1.61133 v -49.02343 h -65.47852 v 59.13085 h -7.91015 V 93.994141 h 36.52343 V 83.007812 h -43.31054 v -6.689453 h 43.31054 V 64.501953 h 7.71485 v 11.816406 h 43.94531 v 6.689453 h -43.94531 z m -7.61719,27.783199 h -22.2168 v -6.20117 h 11.86524 q -2.14844,-5.32226 -5.3711,-10.49804 l 6.73828,-2.5879 q 4.05274,7.12891 6.20118,13.08594 h 13.13476 q 3.32031,-6.05469 5.76172,-13.28125 l 7.42188,2.58789 q -2.39258,4.98047 -5.32227,9.96094 l -0.39062,0.73242 h 12.40234 v 6.20117 h -22.70508 v 9.13086 h 24.70703 v 6.29883 h -24.70703 v 19.92188 h -7.51953 v -19.92188 h -24.02344 v -6.29883 h 24.02344 z m 88.08594,-45.166012 h 21.82617 v 6.787109 h -7.03125 q -2.05078,9.13086 -5.61524,18.701173 H 515.625 v 6.88477 h -55.12695 v -6.88477 h 13.7207 l -0.0977,-0.48828 q -2.05078,-10.009768 -4.39453,-17.187502 l -0.34179,-1.025391 h -7.08008 v -6.787109 h 22.21679 V 64.501953 h 7.47071 z m -15.13672,6.787109 q 2.58789,7.958985 4.73633,18.701173 H 493.75 q 2.92969,-8.105469 5.32227,-18.701173 z m 31.83594,35.888673 v 39.30664 h -7.32422 v -5.51758 h -25.97657 v 6.39649 h -7.56835 v -40.18555 z m -33.30079,6.68945 v 20.3125 h 25.97657 v -20.3125 z m 65.42969,-22.70508 q 12.8418,13.57422 12.8418,29.44336 0,5.56641 -2.00195,8.39844 -2.44141,3.27149 -8.4961,3.27149 -5.81054,0 -10.69336,-0.6836 l -1.61133,-7.61719 q 6.25,1.02539 10.15625,1.02539 3.71094,0 4.39454,-2.49023 0.29296,-1.07422 0.29296,-3.51562 0,-13.72071 -12.64648,-26.70899 5.85938,-12.695311 9.52148,-26.708983 h -15.42968 v 81.787113 h -7.37305 V 70.507812 h 27.49023 l 4.39454,3.808594 q -5.3711,17.382813 -10.83985,28.955074 z"></path>
</svg>
