<svg xmlns="http://www.w3.org/2000/svg" id="svg10" width="180" height="40" version="1.1" viewBox="0 0 180 40">
  <defs id="defs10"></defs>
  
  <path id="path1" d="m0 0h180v40h-180z" fill="none" fill-opacity="0" stop-color="#000000" stroke-linecap="round" stroke-linejoin="round" stroke-width=".2" style="paint-order:stroke markers fill"></path>
  <path aria-label="強震モニタ風+震度色" transform="scale(0.94620033,1.0568586)" style="font-weight:bold;font-size:12.6392px;line-height:1.35;font-family:'BIZ UDPGothic';-inkscape-font-specification:'BIZ UDPGothic Bold';fill:#ffffff;stroke-width:3.00094" id="text10" d="m 25.86926,19.221878 q -0.06171,3.900378 -0.382632,4.949531 -0.16663,0.536919 -0.530748,0.752921 -0.339431,0.203659 -0.968923,0.203659 -0.592462,0 -1.468813,-0.104915 l -0.253031,-1.228126 q 1.030638,0.129601 1.444127,0.129601 0.432004,0 0.549262,-0.222173 0.216002,-0.401146 0.333261,-3.332602 h -1.721845 q -0.01234,0.0432 -0.01851,0.104916 -0.03703,0.240688 -0.135773,0.740578 L 21.50602,21.030123 q 0.382632,-2.690767 0.469033,-4.61627 h 2.511794 V 14.86481 h -2.894426 v -1.191096 h 4.122552 v 3.888035 h -2.579681 l -0.03086,0.524576 q -0.03703,0.536919 -0.09257,1.135553 z m 3.233858,-2.443908 -0.228345,0.01852 q -1.049153,0.0864 -2.554995,0.16663 l -0.302402,-1.191097 q 0.339431,-0.0062 0.567776,-0.01234 0.129601,0 0.33326,-0.0062 0.95658,-1.339212 1.604586,-2.647567 l 1.28984,0.302403 q -0.629491,1.086181 -1.542871,2.301964 l 0.481376,-0.01234 q 1.20344,-0.03703 2.684596,-0.141944 L 31.331024,15.420244 Q 30.960735,14.914182 30.44233,14.32172 l 1.036809,-0.549263 q 1.394756,1.555215 2.085962,2.820369 l -1.073838,0.672692 q -0.259203,-0.499891 -0.444347,-0.802293 -0.944237,0.129601 -1.690987,0.203659 v 1.215782 h 2.641395 v 3.536261 h -2.641395 v 2.061276 q 0.573948,-0.06171 1.221954,-0.135773 l 0.135773,-0.01852 Q 31.435939,22.72111 31.102679,22.153333 l 1.147896,-0.456689 q 0.796121,1.215782 1.45647,2.943798 l -1.203439,0.592462 q -0.222174,-0.617148 -0.376461,-0.981266 l -0.462861,0.07406 q -2.604367,0.425832 -5.356849,0.654177 l -0.339431,-1.209611 q 1.481156,-0.05554 3.073399,-0.172801 l 0.06171,-0.0062 V 21.418927 H 26.53578 v -3.536261 h 2.567338 z m 0,2.141506 h -1.419442 v 1.462641 h 1.419442 z m 1.252811,0 v 1.462641 h 1.450299 V 18.919476 Z M 39.452697,14.82161 V 14.290862 H 35.595519 V 13.40834 h 9.109112 v 0.882522 h -3.937408 v 0.530748 h 5.10999 v 2.215563 H 44.538 v -1.419442 h -3.770777 v 2.400708 h -1.314526 v -2.400708 h -3.70289 v 1.419442 h -1.32687 V 14.82161 Z m 4.369411,8.757336 q 0.944237,0.357946 2.357507,0.567777 l -0.722063,1.049152 q -1.981047,-0.339431 -3.252373,-1.16641 -1.265154,-0.826979 -1.968703,-2.055105 h -1.363898 v 1.900818 q 1.363898,-0.191316 2.530308,-0.407318 l 0.0864,0.919551 q -2.172362,0.518404 -4.968045,0.901037 l -0.364117,-1.086182 q 0.968923,-0.104915 1.326869,-0.148115 l 0.07406,-0.01234 V 21.97436 h -1.351555 q -0.0864,1.086182 -0.283888,1.734188 -0.234516,0.777607 -0.752921,1.450298 l -1.098524,-0.907208 q 0.604805,-0.783778 0.752921,-1.832931 0.08023,-0.567776 0.08023,-1.41327 v -2.616709 h 10.651982 v 0.820807 h -9.325113 v 1.894646 h 9.855861 v 0.870179 h -1.400927 l 0.783779,0.518405 q -0.697378,0.58012 -1.647787,1.086181 z m -0.962751,-0.475204 q 0.888693,-0.604805 1.41327,-1.129382 h -2.696939 q 0.530748,0.678864 1.283669,1.129382 z m -6.56646,-7.029321 h 2.629053 v 0.697378 h -2.629053 z m 0,1.135553 h 2.629053 v 0.709721 h -2.629053 z m 5.005074,-1.135553 h 2.709282 v 0.697378 h -2.709282 z m 0,1.135553 h 2.709282 v 0.709721 h -2.709282 z m -4.332382,2.517966 h 7.683498 v 0.808464 h -7.683498 z m 10.639639,-5.609879 h 9.368314 v 1.265154 h -5.221076 v 2.622881 h 6.208513 v 1.265154 h -6.208513 v 3.061056 q 0,0.345604 0.123429,0.462862 0.240688,0.240688 2.271107,0.240688 1.437956,0 2.925283,-0.09874 v 1.388584 q -1.542871,0.08023 -2.919112,0.08023 -2.03659,0 -2.604366,-0.123429 -0.796122,-0.166631 -1.055324,-0.728236 -0.154287,-0.327088 -0.154287,-0.845493 V 19.27125 h -3.363459 v -1.265154 h 3.363459 v -2.622881 h -2.733968 z m 12.824343,1.049152 h 8.491962 v 1.326869 h -8.491962 z m -1.252812,7.06635 h 10.997586 v 1.339212 H 59.176759 Z m 21.192882,-7.424296 0.882522,0.722064 q -0.864008,3.94975 -2.801854,6.115941 -1.073838,1.197268 -2.777168,2.098304 -1.209611,0.635663 -2.598195,1.012124 l -0.715892,-1.215783 q 3.172143,-0.826978 4.924845,-2.641395 -1.444128,-1.296012 -3.184486,-2.295792 l 0.808464,-0.999781 q 1.697158,0.882523 3.227687,2.172363 1.203439,-1.925503 1.512013,-3.727577 h -4.344725 q -1.493499,2.32665 -3.517746,3.560947 l -0.907208,-0.981266 q 1.95636,-1.178754 3.215343,-3.1166 0.648006,-0.987437 1.005952,-2.129162 l 1.339212,0.327089 q -0.203659,0.555433 -0.456689,1.098524 z m 7.06635,2.832711 v -0.987437 q -0.672692,0.08023 -2.005732,0.16663 l -0.45669,-1.024467 q 3.024027,-0.191316 5.245762,-0.722063 l 0.703549,1.024466 q -1.024467,0.240688 -2.234077,0.407318 l -0.117259,0.01234 v 1.12321 h 2.227906 v 3.486889 h -2.227906 v 1.740359 q 0.283889,-0.03086 0.839322,-0.09257 0.12343,-0.01851 0.351775,-0.04937 -0.259203,-0.49989 -0.481376,-0.864007 l 1.012123,-0.407318 q 0.74675,1.141724 1.481157,2.733967 l -1.12321,0.567777 q -0.240688,-0.604806 -0.419661,-1.024467 l -0.0432,-0.09874 q -2.351335,0.54309 -5.165532,0.857836 L 84.64648,23.251858 q 1.919332,-0.141944 2.789511,-0.24686 v -1.876131 h -2.172362 v -3.486889 z m 0,0.975095 h -1.073838 v 1.536699 h 1.073838 z m 1.135553,0 v 1.536699 h 1.117039 v -1.536699 z m 4.245982,-5.017417 v 4.067008 q 0,3.758434 0.283888,5.227248 0.09874,0.506061 0.154287,0.506061 0.111087,0 0.394975,-1.999561 l 0.938066,0.907209 q -0.234517,1.524356 -0.524577,2.135333 -0.320917,0.660349 -0.783778,0.660349 -0.530748,0 -0.962752,-0.808464 -0.78995,-1.481157 -0.78995,-5.906111 v -3.702891 h -6.98612 v 3.338773 q 0,2.758654 -0.178973,4.023808 -0.246859,1.758873 -1.147896,3.141286 L 82.190229,24.17758 q 0.728236,-1.147896 0.919552,-2.770996 0.129601,-1.092353 0.129601,-3.246201 v -4.560727 z m 6.572629,1.388584 h 1.086185 v 3.628833 h 3.62883 v 1.086181 h -3.62883 v 3.628833 h -1.086185 v -3.628833 h -3.628833 v -1.086181 h 3.628833 z m 11.472785,-0.16663 v -0.530748 h -3.85717 V 13.40834 h 9.10911 v 0.882522 h -3.93741 v 0.530748 h 5.10999 v 2.215563 h -1.33921 v -1.419442 h -3.77078 v 2.400708 h -1.31453 v -2.400708 h -3.70289 v 1.419442 h -1.32687 V 14.82161 Z m 4.36941,8.757336 q 0.94424,0.357946 2.35751,0.567777 l -0.72206,1.049152 q -1.98105,-0.339431 -3.25237,-1.16641 -1.26516,-0.826979 -1.96871,-2.055105 h -1.3639 v 1.900818 q 1.3639,-0.191316 2.53031,-0.407318 l 0.0864,0.919551 q -2.17236,0.518404 -4.96804,0.901037 l -0.36412,-1.086182 q 0.96892,-0.104915 1.32687,-0.148115 l 0.0741,-0.01234 V 21.97436 h -1.35156 q -0.0864,1.086182 -0.28389,1.734188 -0.23451,0.777607 -0.75292,1.450298 l -1.09852,-0.907208 q 0.6048,-0.783778 0.75292,-1.832931 0.0802,-0.567776 0.0802,-1.41327 v -2.616709 h 10.65198 v 0.820807 h -9.32511 v 1.894646 h 9.85586 v 0.870179 h -1.40093 l 0.78378,0.518405 q -0.69738,0.58012 -1.64779,1.086181 z m -0.96275,-0.475204 q 0.8887,-0.604805 1.41327,-1.129382 h -2.69694 q 0.53075,0.678864 1.28367,1.129382 z m -6.56646,-7.029321 h 2.62906 v 0.697378 h -2.62906 z m 0,1.135553 h 2.62906 v 0.709721 h -2.62906 z m 5.00508,-1.135553 h 2.70928 v 0.697378 h -2.70928 z m 0,1.135553 h 2.70928 v 0.709721 h -2.70928 z m -4.33239,2.517966 h 7.6835 v 0.808464 h -7.6835 z m 16.78644,-5.461764 h 4.83844 v 1.03681 h -2.74013 v 1.024466 h 2.56733 v 0.999781 h -2.56733 v 1.839102 h -4.96805 v -1.839102 h -2.02425 v 1.147896 q 0,2.795682 -0.29623,4.418783 -0.22834,1.234296 -0.74058,2.252591 l -1.12321,-0.888693 q 0.46904,-1.018295 0.64184,-2.487109 0.15429,-1.28984 0.15429,-3.295572 v -4.208953 h 4.88164 v -1.110867 h 1.37624 z m -4.89399,1.03681 v 1.024466 h 2.02425 v -1.024466 z m 3.33878,0 v 1.024466 h 2.33899 v -1.024466 z m 0,2.024247 v 0.95658 h 2.33899 v -0.95658 z m 1.43178,6.480058 q -1.78356,0.925723 -4.52987,1.407099 l -0.64183,-1.135553 q 2.57968,-0.308575 4.04232,-0.944238 -1.25281,-0.907208 -2.14151,-2.153848 h -0.85166 v -1.073838 h 7.22681 l 0.648,0.543091 q -0.91955,1.41327 -2.62288,2.65991 1.46264,0.586291 3.98678,0.864007 l -0.72206,1.166411 q -2.41922,-0.327089 -4.3941,-1.333041 z m -1.83293,-2.82654 q 0.74675,0.876351 1.81442,1.542871 1.20344,-0.777607 1.85761,-1.542871 z m 10.55942,-0.370289 v 2.240249 q 0,0.487547 0.35794,0.586291 0.53075,0.148116 3.51158,0.148116 2.64756,0 3.29557,-0.154287 0.30857,-0.07406 0.39497,-0.345603 0.10492,-0.308575 0.16663,-1.437956 l 1.3639,0.419661 q -0.0679,1.215782 -0.19749,1.6663 -0.16663,0.586291 -0.61714,0.796122 -0.32092,0.148116 -0.8887,0.185144 -1.46264,0.104916 -3.82015,0.104916 -3.30174,0 -3.92506,-0.117258 -0.70355,-0.129602 -0.90721,-0.617149 -0.0987,-0.246859 -0.0987,-0.617148 v -6.338115 l -0.0617,0.04937 q -0.28389,0.203659 -0.67269,0.450518 l -0.84549,-1.024466 q 2.20322,-1.209611 3.72757,-3.44986 l 0.86401,0.592463 h 3.51158 l 0.65417,0.678863 q -0.81463,1.154067 -1.70333,2.07979 h 3.95593 v 4.104037 z m 0,-1.098524 h 2.65373 v -1.86996 h -2.65373 z m 3.9806,-1.86996 v 1.86996 h 2.70928 v -1.86996 z m -1.43178,-1.135553 q 0.79612,-0.83315 1.35773,-1.635443 h -2.85123 q -0.68504,0.839322 -1.62927,1.635443 z"></path>
</svg>


