<svg xmlns="http://www.w3.org/2000/svg" id="svg1" version="1.1" height="200" width="1096">
  <defs id="defs1"></defs>
  <rect id="rect1" stroke="none" fill="none" height="200" width="1096" y="0" x="0"></rect>
  <path aria-label="宮崎県北部平野部" style="font-weight:bold;font-size:110px;font-family:'BIZ UDPGothic';fill:#ff0000" id="text1" d="M 60.478516,66.855469 H 104.36035 V 90.595703 H 92.490234 V 76.09375 H 17.133789 V 90.595703 H 5.4785156 V 66.855469 H 48.71582 V 55.952148 h 11.762696 z m 27.5,18.046875 V 113.90625 H 59.458008 q -1.450196,4.99512 -3.652344,9.66797 h 42.861328 v 36.89941 H 86.259766 v -5.53222 H 23.740234 v 5.53222 H 11.44043 v -36.89941 h 31.958007 q 2.524415,-6.92871 3.168946,-9.66797 H 21.323242 V 84.902344 Z M 33.408203,93.603516 V 105.09766 H 76.000977 V 93.603516 Z m -9.667969,39.101564 v 12.99804 H 86.259766 V 132.70508 Z M 208.02246,106.97754 v 43.34473 q 0,4.83398 -1.77246,7.08984 -2.14844,2.68555 -9.07715,2.68555 -6.66015,0 -14.01855,-0.75196 l -2.20215,-10.68847 Q 188.63281,150 193.68164,150 q 2.25586,0 2.79297,-0.85938 0.42969,-0.69824 0.42969,-2.68554 v -39.47754 h -44.95606 v 33.8916 H 123.64258 V 150 h -9.45313 V 74.750977 h 9.02344 v 55.859373 h 5.26367 V 57.133789 h 9.34571 v 73.476561 h 5.53222 V 74.750977 h 8.59375 V 97.30957 h 65.63477 v 9.66797 z M 186.32324,75.771484 q 13.05176,5.371094 26.53321,13.051758 l -7.03614,8.00293 q -9.93652,-6.552735 -23.31054,-13.535156 -7.19727,9.990234 -22.23633,13.803711 l -5.69336,-8.378907 q 16.11328,-3.544922 20.73242,-13.535156 h -21.21582 v -9.345703 h 22.55859 v -9.882813 h 10.68848 v 9.882813 h 25.72754 v 9.345703 h -26.5332 q -0.0537,0.268555 -0.21485,0.59082 z m 3.97461,38.833006 v 28.78906 h -22.98828 v 5.15625 h -9.77539 v -33.94531 z m -23.20312,8.8086 v 11.17187 h 14.07226 V 123.41309 Z M 312.16797,58.583984 V 110.62988 H 248.25195 V 58.583984 Z m -52.36817,8.486328 v 6.713868 h 40.7129 v -6.713868 z m 0,14.28711 v 6.713867 h 40.7129 v -6.713867 z m 0,14.287109 v 6.928709 h 40.7129 v -6.928709 z m -21.6455,22.128909 h 89.05273 v 9.3457 h -44.41894 v 33.35449 H 270.5957 V 127.11914 H 226.3916 V 66.855469 h 11.7627 z m -13.75,32.4414 q 12.7832,-5.9082 24.43847,-19.81933 l 9.88282,5.74707 q -11.49414,14.55566 -25.5127,22.88086 z m 92.59765,6.92871 q -8.21777,-10.09765 -24.70703,-21.21582 l 9.23828,-6.49902 q 12.94434,7.46582 25.40528,19.60449 z m 45.11719,-25.29785 q -14.82422,7.78809 -25.83496,11.92383 l -4.51172,-11.81641 q 17.24121,-5.80078 30.34668,-12.03124 V 95.859375 H 335.53223 V 84.526367 h 26.58691 V 55.952148 h 11.97754 V 160.47363 h -11.97754 z m 38.18848,-41.840817 q 12.51465,-6.552735 24.27734,-16.650391 l 8.91602,9.345703 q -15.89844,11.279297 -33.19336,19.228515 v 40.2832 q 0,2.63184 1.71875,3.22266 1.82617,0.59082 8.43261,0.59082 8.70118,0 10.90332,-1.02051 1.55762,-0.69824 2.14844,-4.35058 0.80567,-5.10254 1.18164,-16.48926 l 12.03125,3.70605 q -0.53711,13.91114 -1.71875,19.98047 -1.34277,6.76758 -7.03613,8.75489 -5.4248,1.82617 -17.77832,1.82617 -14.50195,0 -18.26172,-2.417 -3.59863,-2.36328 -3.59863,-9.07714 V 55.952148 h 11.97754 z m 78.0957,-21.645508 h 22.98828 v 10.366211 h -7.57324 q -2.04102,8.217773 -5.47852,17.241211 h 14.34082 v 10.366213 h -59.9414 V 95.966797 h 13.15918 Q 453.75,85.654297 451.38672,78.725586 H 444.4043 V 68.359375 h 22.77343 V 55.952148 h 11.22559 z m -16.16699,10.366211 q 2.73926,8.00293 4.24316,17.241211 h 10.95703 l 0.53711,-1.503906 q 2.30957,-6.123047 4.29688,-13.911133 l 0.4834,-1.826172 z m 33.30078,36.630864 v 43.98925 h -11.01074 v -5.26367 H 461.1084 v 6.3916 h -11.33301 v -45.11718 z m -34.42871,9.88281 v 18.63769 h 23.41797 v -18.63769 z m 71.75781,-27.124026 q 6.3916,6.069336 10.15137,14.448246 3.70605,8.3789 3.70605,16.97265 0,7.94922 -2.9541,11.70899 -3.06152,3.9209 -10.09766,3.9209 -6.01562,0 -11.65527,-0.85938 l -2.63183,-11.44043 q 6.49902,1.18164 10.74218,1.18164 3.22266,0 4.02832,-1.5039 0.53711,-1.07422 0.53711,-4.29688 0,-13.2666 -7.94922,-22.88086 -2.09472,-2.52441 -5.26367,-5.424804 l 0.64453,-1.503906 q 5.58594,-12.62207 8.70118,-26.318359 h -13.75 V 160.47363 H 505.95703 V 61.000977 h 32.33399 l 5.96191,5.478515 q -5.42481,18.476563 -11.38672,31.635742 z m 77.82715,-26.748047 v 42.001953 h 46.56738 v 11.01074 h -46.56738 v 36.09375 H 598.6084 V 124.37988 H 552.73926 V 113.36914 H 598.6084 V 71.367187 H 557.68066 V 60.678711 h 94.69239 v 10.688476 z m -35.8252,37.919923 Q 569.55078,93.496094 563.10547,81.142578 l 11.65527,-4.726562 q 6.01563,10.419921 12.29981,28.251954 z m 47.58789,-3.70606 q 6.92872,-12.998042 11.70899,-29.809566 l 12.19238,3.920899 q -5.04883,15.522461 -12.67578,30.131837 z m 92.97364,-45.654292 v 49.252932 h -19.1211 v 10.58105 h 19.55078 v 9.66797 h -19.55078 v 11.87012 q 1.07422,-0.16113 2.90039,-0.42969 7.68067,-1.12793 19.17481,-3.27637 l 0.69824,9.56055 q -25.45898,5.69336 -54.24805,9.23828 l -3.27636,-10.90332 q 12.2998,-1.12793 23.25683,-2.57812 l 0.59082,-0.10743 v -13.37402 h -20.78613 v -9.66797 h 20.78613 V 109.17969 H 666.49902 V 59.926758 Z m -39.58496,9.130859 v 10.84961 h 10.04394 v -10.84961 z m 0,19.658203 v 11.33301 h 10.04394 V 88.71582 Z m 30.34668,11.33301 V 88.71582 h -10.3125 v 11.33301 z m 0,-20.141603 v -10.84961 h -10.3125 v 10.84961 z m 42.10937,7.089843 q 1.71875,1.557617 5.10254,4.833985 l -5.04883,4.511718 h 15.62988 l 4.61915,4.833987 q -5.3711,17.34863 -9.99024,27.28515 l -10.36621,-3.33007 q 4.4043,-8.37891 7.68066,-18.69141 h -10.3125 v 44.63379 q 0,4.78027 -1.77246,6.92871 -2.09472,2.4707 -8.43261,2.4707 -6.875,0 -13.21289,-0.91308 l -1.77247,-10.7959 q 8.37891,1.02051 11.49415,1.02051 1.5039,0 1.93359,-0.69825 0.32226,-0.64453 0.32226,-2.04101 V 106.44043 H 718.97461 V 96.342773 h 23.95508 q -8.64746,-8.862304 -19.1211,-16.274414 l 7.41211,-6.606445 q 4.4043,3.061523 10.09766,7.573242 4.72656,-4.941406 9.02344,-11.440429 h -29.37989 v -9.667969 h 39.85352 l 5.26367,5.800781 q -8.70117,12.514648 -17.77832,21.269531 z m 60.10254,-18.637695 h 22.98828 v 10.366211 h -7.57324 q -2.04102,8.217773 -5.47852,17.241211 h 14.34082 v 10.366213 h -59.9414 V 95.966797 h 13.15918 Q 783.75,85.654297 781.38672,78.725586 H 774.4043 V 68.359375 h 22.77343 V 55.952148 h 11.22559 z m -16.16699,10.366211 q 2.73926,8.00293 4.24316,17.241211 h 10.95703 l 0.53711,-1.503906 q 2.30957,-6.123047 4.29688,-13.911133 l 0.4834,-1.826172 z m 33.30078,36.630864 v 43.98925 h -11.01074 v -5.26367 H 791.1084 v 6.3916 h -11.33301 v -45.11718 z m -34.42871,9.88281 v 18.63769 h 23.41797 v -18.63769 z m 71.75781,-27.124026 q 6.3916,6.069336 10.15137,14.448246 3.70605,8.3789 3.70605,16.97265 0,7.94922 -2.9541,11.70899 -3.06152,3.9209 -10.09766,3.9209 -6.01562,0 -11.65527,-0.85938 l -2.63183,-11.44043 q 6.49902,1.18164 10.74218,1.18164 3.22266,0 4.02832,-1.5039 0.53711,-1.07422 0.53711,-4.29688 0,-13.2666 -7.94922,-22.88086 -2.09472,-2.52441 -5.26367,-5.424804 l 0.64453,-1.503906 q 5.58594,-12.62207 8.70118,-26.318359 h -13.75 V 160.47363 H 835.95703 V 61.000977 h 32.33399 l 5.96191,5.478515 q -5.42481,18.476563 -11.38672,31.635742 z"></path>
</svg>
