<svg xmlns="http://www.w3.org/2000/svg" id="svg1" version="1.1" height="200" width="1096">
  <defs id="defs1"></defs>
  <rect id="rect1" stroke="none" fill="none" height="200" width="1096" y="0" x="0"></rect>
  <path aria-label="瀬戸内海中部" style="font-weight:bold;font-size:110px;font-family:'BIZ UDPGothic';fill:#ff0000" id="text1" d="m 88.24707,79.370117 h 15.68359 V 137.91504 H 69.287109 V 79.370117 h 9.667969 q 0.751953,-3.383789 1.71875,-9.130859 H 66.494141 v 6.928711 H 51.347656 V 87.211914 H 65.742187 V 116.91406 H 51.347656 v 4.18946 q 7.465821,6.28418 15.307617,15.2539 l -5.854492,8.48633 q -5.048828,-7.57324 -9.453125,-12.7832 v 28.41308 h -9.667969 v -32.4414 q -5.74707,13.48144 -15.361328,25.51269 l -5.961914,-9.77539 Q 32.280273,132.22168 39.101562,116.91406 H 27.285156 V 87.211914 H 41.679687 V 77.167969 H 25.620117 V 72.333984 L 17.939453,80.12207 Q 10.527344,70.185547 3.3300781,63.955078 l 8.0029299,-7.680664 q 8.754883,7.626953 14.287109,14.770508 v -3.4375 h 16.05957 V 55.952148 h 9.667969 V 67.607422 H 65.3125 v -7.036133 h 41.67969 v 9.667969 H 90.664062 q -0.859375,3.920898 -2.416992,9.130859 z m -9.614258,8.59375 v 8.378906 h 16.059571 v -8.378906 z m -42.861328,7.841797 v 12.514646 h 6.445313 V 95.805664 Z M 57.470703,108.32031 V 95.805664 h -6.552734 v 12.514646 z m 21.162109,-4.08203 v 8.27149 h 16.059571 v -8.27149 z m 0,16.16699 v 8.8086 h 16.059571 v -8.8086 z M 15.361328,106.97754 Q 8.4326172,97.631836 0.859375,90.273437 L 9.0234375,83.022461 Q 16.220703,88.930664 23.740234,98.974609 Z M 2.0947266,152.9541 Q 10.205078,136.25 15.952148,114.22852 l 9.453125,5.63964 q -4.887695,21.05469 -13.427734,40.82032 z m 57.1484374,1.12793 q 9.238281,-5.74707 15.844727,-15.41504 l 8.486328,5.26367 q -7.519532,11.17188 -16.381836,17.61719 z m 41.840816,6.92871 q -5.908199,-10.3125 -12.783199,-17.61719 l 8.164063,-5.04882 q 7.089846,6.76757 12.836916,15.62988 z M 208.02246,85.009766 v 45.170894 h -12.2998 v -6.66015 h -58.97461 q -0.64453,11.38672 -2.68555,18.6914 -2.63184,9.56055 -9.88281,18.74512 l -9.13086,-8.64746 q 6.17676,-7.89551 8.11035,-19.06738 1.4502,-8.11035 1.4502,-20.51758 V 85.009766 Z m -12.2998,10.366211 H 137.0166 V 113.1543 h 58.70606 z M 116.12305,61.108398 h 98.82812 V 71.796875 H 116.12305 Z M 268.66211,73.891602 V 55.952148 h 11.97754 v 17.939454 h 41.25 v 74.765628 q 0,6.33789 -3.4375,8.8623 -2.79297,2.09473 -9.72168,2.09473 -11.87012,0 -19.60449,-0.59082 l -2.20215,-11.44043 q 12.03125,0.75195 20.08789,0.75195 2.14844,0 2.52441,-1.02051 0.26856,-0.64453 0.26856,-2.04101 V 84.902344 h -29.21875 l -0.0537,0.805664 q -0.26856,4.350586 -1.07422,8.916015 15.95215,13.051757 28.46679,29.433597 l -9.13085,8.48633 q -8.91602,-12.94434 -22.39747,-26.90918 -6.92871,18.208 -27.87597,30.40039 l -7.08985,-9.45313 q 12.51465,-7.19726 18.47657,-15.36133 7.84179,-10.74218 8.64746,-26.318356 H 240.35645 V 160.47363 H 228.27148 V 73.891602 Z M 427.7002,85.117187 q 0,2.524415 -0.4834,23.955083 h 10.25879 v 9.66796 h -10.47364 q -0.16113,7.03614 -0.69824,15.95215 h 9.07715 v 9.45313 h -9.77539 q -0.64453,7.78808 -1.77246,10.3125 -2.52442,6.01562 -12.2461,6.01562 -6.23046,0 -11.49414,-0.91308 L 398.10547,150 q 7.57324,1.07422 11.60156,1.07422 3.27637,0 3.9209,-2.30957 0.32227,-1.12793 0.59082,-4.61914 h -38.24219 q -0.0537,0.42969 -0.16113,0.91308 -0.4834,2.84668 -0.91309,5.3711 l -11.11816,-1.07422 q 3.27637,-19.38965 4.4043,-29.32617 l 0.16113,-1.28907 h -10.74219 v -9.66796 h 11.87012 q 1.50391,-12.998051 2.57812,-23.955083 z m -33.94532,9.345704 h -11.76269 q -0.16114,2.739257 -0.9668,11.547849 l -0.32227,3.06153 h 11.92383 l 0.16114,-1.50391 q 0.10742,-1.55762 0.32226,-4.35059 0.53711,-7.519528 0.64453,-8.754879 z m 10.58106,0 q -0.26856,6.391599 -0.80567,14.125979 v 0.4834 h 12.62207 q 0.21485,-7.3584 0.37598,-14.609379 z m -12.56836,24.277339 h -12.08496 q -0.80567,6.55274 -1.71875,12.94434 l -0.42969,3.00781 h 12.56836 q 1.28906,-11.65527 1.66504,-15.95215 z m 11.01074,0 q -0.16113,2.14844 -0.64453,7.08985 l -0.85938,8.8623 h 13.69629 q 0.26856,-5.20996 0.42969,-7.84179 0.32227,-5.74707 0.42969,-8.11036 z M 381.72363,65.727539 h 51.88477 v 9.990234 h -56.34278 q -4.35058,8.862305 -11.06445,16.865235 l -7.68066,-8.378906 Q 369.10156,71.796875 373.55957,55.629883 L 385,56.811523 q -1.93359,5.585938 -3.27637,8.916016 z m -29.59472,15.629883 q -6.60645,-9.077149 -16.05957,-17.026367 l 8.11035,-7.841797 q 8.75488,6.445312 16.65039,16.274414 z M 348.26172,109.7168 Q 340.09766,99.243164 331.77246,92.15332 l 8.37891,-8.05664 q 9.3457,7.358398 16.81152,16.75781 z m -14.60938,42.16308 q 9.34571,-12.94433 17.72461,-34.10644 l 9.56055,6.82129 q -6.98242,19.55078 -17.93945,35.8789 z M 488.6084,75.664062 V 55.952148 h 12.08496 v 19.711914 h 39.85351 v 56.826168 h -11.87011 v -7.46582 h -27.9834 v 35.44922 H 488.6084 v -35.44922 h -27.28516 v 8.05664 H 449.45312 V 75.664062 Z M 461.32324,86.674805 V 114.01367 H 488.6084 V 86.674805 Z m 67.35352,27.338865 V 86.674805 h -27.9834 v 27.338865 z m 59.72656,-45.654295 h 22.98828 v 10.366211 h -7.57324 q -2.04102,8.217773 -5.47852,17.241211 h 14.34082 v 10.366213 h -59.9414 V 95.966797 h 13.15918 Q 563.75,85.654297 561.38672,78.725586 H 554.4043 V 68.359375 h 22.77343 V 55.952148 h 11.22559 z m -16.16699,10.366211 q 2.73926,8.00293 4.24316,17.241211 h 10.95703 l 0.53711,-1.503906 q 2.30957,-6.123047 4.29688,-13.911133 l 0.4834,-1.826172 z m 33.30078,36.630864 v 43.98925 h -11.01074 v -5.26367 H 571.1084 v 6.3916 h -11.33301 v -45.11718 z m -34.42871,9.88281 v 18.63769 h 23.41797 v -18.63769 z m 71.75781,-27.124026 q 6.3916,6.069336 10.15137,14.448246 3.70605,8.3789 3.70605,16.97265 0,7.94922 -2.9541,11.70899 -3.06152,3.9209 -10.09766,3.9209 -6.01562,0 -11.65527,-0.85938 l -2.63183,-11.44043 q 6.49902,1.18164 10.74218,1.18164 3.22266,0 4.02832,-1.5039 0.53711,-1.07422 0.53711,-4.29688 0,-13.2666 -7.94922,-22.88086 -2.09472,-2.52441 -5.26367,-5.424804 l 0.64453,-1.503906 q 5.58594,-12.62207 8.70118,-26.318359 h -13.75 V 160.47363 H 615.95703 V 61.000977 h 32.33399 l 5.96191,5.478515 q -5.42481,18.476563 -11.38672,31.635742 z"></path>
</svg>
