<svg xmlns="http://www.w3.org/2000/svg" id="svg1" version="1.1" height="200" width="990">
  <defs id="defs1"></defs>
  <rect id="rect1" stroke="none" fill="none" height="200" width="990" y="0" x="0"></rect>
  <path aria-label="伊予灘" style="font-size:100px;font-family:'BIZ UDPGothic';fill:#ff0000" id="text1" d="m 88.427734,92.675781 h 9.179688 v 6.591797 H 88.427734 V 122.26563 H 63.330078 q -0.732422,11.62109 -4.492187,19.09179 -6.103516,12.06055 -18.701172,18.60352 l -5.615235,-5.71289 q 11.621094,-5.95703 16.748047,-15.52735 3.271485,-6.05468 4.296875,-16.45507 H 33.105469 v -6.68946 H 55.810547 V 99.267578 H 26.220703 V 92.675781 H 55.810547 V 77.001953 H 34.619141 v -6.787109 h 53.808593 z m -7.617187,0 V 77.001953 H 63.525391 v 15.673828 z m 0,6.591797 H 63.525391 V 115.57617 H 80.810547 Z M 22.607422,88.427734 V 159.52148 H 14.892578 V 104.6875 Q 10.9375,111.81641 5.5175781,119.0918 L 1.5136719,111.81641 Q 10.498047,99.804687 16.259766,84.619141 19.53125,76.074219 22.802734,64.013672 l 7.519532,1.904297 Q 26.513672,78.90625 22.607422,88.427734 Z m 132.910158,3.369141 q 3.66211,2.197266 10.2539,6.396484 l -4.93164,3.710941 h 30.56641 l 4.29687,4.58984 q -10.05859,15.91797 -18.50585,24.80469 l -7.32422,-4.10156 q 7.71484,-7.71485 14.59961,-18.31055 H 154.6875 v 41.89453 q 0,4.83398 -2.53906,6.68945 -2.19727,1.61133 -7.66602,1.61133 -6.20117,0 -15.47851,-0.87891 l -1.61133,-7.8125 q 8.44726,1.22071 15.13672,1.22071 2.88086,0 3.51562,-0.87891 0.53711,-0.73242 0.53711,-2.53906 v -39.30664 h -42.67578 v -6.98242 h 53.85742 Q 139.99023,89.746094 125.48828,83.105469 l 5.71289,-4.736328 q 9.52149,4.638671 18.35938,9.912109 11.42578,-6.835938 19.6289,-13.085938 h -54.93164 v -6.982421 h 64.4043 l 4.54101,4.882812 q -11.96289,9.521484 -27.68554,18.701172 z m 89.30664,-0.585938 v 4.882813 h 13.81836 v 18.4082 h -13.81836 v 5.51758 h 14.9414 v 5.81055 h -14.99023 q -0.14648,3.07617 -0.43945,5.85937 h 18.21289 v 5.71289 H 243.4082 q -0.24414,0.87891 -0.53711,1.9043 9.52149,6.15234 18.16407,13.08594 l -4.58985,5.71289 q -7.32422,-6.68945 -15.91797,-13.13477 -4.78515,9.42383 -16.21093,14.84375 l -4.6875,-5.71289 q 13.42773,-5.27344 16.8457,-16.69922 h -16.06445 v -5.71289 h 17.28515 q 0.43946,-3.125 0.53711,-5.85937 h -14.84375 v -5.81055 h 14.94141 v -5.51758 h -13.72071 v -18.4082 h 13.62305 v -4.882813 h -8.30078 V 79.6875 h -7.51953 v -5.810547 h 7.51953 v -9.375 h 6.49414 v 9.375 h 10.40039 v -9.375 h 6.49414 v 9.375 h 8.83789 V 79.6875 h -8.83789 v 11.523437 z m -6.29883,10.302733 h -7.91016 v 7.76367 h 7.91016 z m 6.10352,0 v 7.76367 h 8.10546 v -7.76367 z m 2.19726,-21.82617 h -10.40039 v 6.298828 h 10.40039 z m 26.02539,3.320312 h 7.22656 q 2.49024,-9.033203 3.95508,-18.115234 l 6.68946,1.318359 q -1.95313,9.570313 -4.54102,16.796875 h 10.9375 v 6.591797 h -10.88867 v 14.697271 h 9.17969 v 6.39648 h -9.17969 v 14.50195 h 9.17969 v 6.49414 h -9.17969 v 16.01563 h 11.8164 v 6.68945 h -25.34179 v 5.07813 h -6.39649 v -57.08008 q -1.5625,3.95508 -3.51562,8.00781 l -3.56445,-6.5918 q 7.4707,-16.650387 10.40039,-39.501949 l 6.98242,0.976562 Q 275,74.609375 273.14453,81.933594 Z m 7.08008,6.591797 h -7.22656 v 14.697271 h 7.22656 z m 0,21.093751 h -7.22656 v 14.50195 h 7.22656 z m -7.22656,20.99609 v 16.01563 h 7.22656 v -16.01563 z m -56.5918,-45.703122 q -5.22461,-7.910156 -12.5,-15.478516 l 5.41992,-4.589843 q 6.5918,6.103515 12.59766,14.794922 z m -2.49023,24.707032 q -6.78711,-9.47266 -12.5,-15.087891 l 5.51757,-4.6875 q 6.73829,6.396484 12.69532,14.599611 z m -11.18164,43.50586 q 6.34765,-13.52539 11.08398,-34.17969 l 6.5918,3.36914 q -3.85742,19.53125 -10.98633,35.79102 z"></path>
</svg>
