<svg xmlns="http://www.w3.org/2000/svg" id="svg1" version="1.1" height="200" width="990">
  <defs id="defs1"></defs>
  <rect id="rect1" stroke="none" fill="none" height="200" width="990" y="0" x="0"></rect>
  <path aria-label="熊本県天草・芦北地方" style="font-size:100px;font-family:'BIZ UDPGothic';fill:#ff0000" id="text1" d="m 11.035156,80.175781 q 5.22461,-7.470703 9.179688,-16.162109 l 7.666015,2.197265 q -4.394531,7.714844 -8.789062,13.574219 l 1.318359,-0.04883 q 10.009766,-0.585937 17.72461,-1.416016 l 0.78125,-0.09766 -0.53711,-0.585937 q -2.197265,-2.587891 -5.664062,-6.347657 l 5.46875,-3.173828 q 8.789062,8.496094 14.599609,16.503907 l -5.664062,4.003906 q -2.978516,-3.90625 -4.199219,-5.46875 -0.683594,0.09766 -1.31836,0.195312 -14.355468,2.09961 -37.695312,3.564453 L 2.0019531,80.517578 Q 4.4433594,80.419922 7.03125,80.322266 Z M 45.3125,90.820312 v 34.863278 q 0,4.05274 -1.660156,5.66407 -1.708985,1.61132 -6.054688,1.61132 -5.224609,0 -9.375,-0.58593 l -1.318359,-6.49414 q 5.322265,0.78125 8.886719,0.78125 1.708984,0 2.001953,-0.87891 0.195312,-0.58594 0.195312,-1.9043 v -6.20117 H 16.601562 v 16.01563 H 9.1796875 V 90.820312 Z m -28.710938,5.517579 v 5.468749 h 21.386719 v -5.468749 z m 0,10.644529 v 5.61524 h 21.386719 v -5.61524 z M 62.207031,76.220703 q 11.621094,-2.636719 23.486328,-8.007812 l 5.22461,5.273437 q -13.81836,5.664063 -28.710938,8.886719 v 5.322265 q 0,2.734375 1.513672,3.417969 1.464844,0.683594 9.716797,0.683594 8.447266,0 11.132812,-0.585938 2.88086,-0.634765 3.613282,-3.710937 0.439453,-1.855469 0.634765,-6.494141 l 6.884766,2.783203 q -0.09766,9.91211 -4.101563,12.25586 -3.662109,2.197265 -19.091796,2.197265 -11.279297,0 -14.208985,-1.367187 -3.515625,-1.660156 -3.515625,-6.591797 v -25.78125 h 7.421875 z m 0,33.789067 q 13.574219,-3.07618 25,-8.10547 l 5.615235,5.27343 q -14.404297,5.95704 -30.615235,8.88672 v 5.61524 q 0,2.49023 1.464844,3.17383 1.806641,0.78125 12.744141,0.78125 8.203125,0 10.644531,-0.83008 1.855469,-0.58594 2.392578,-3.61328 0.244141,-1.31836 0.634766,-6.29883 l 6.835937,2.68555 q -0.09766,8.49609 -2.294922,11.23046 -1.953125,2.39258 -7.128906,3.02735 -4.296875,0.48828 -12.011719,0.48828 -11.865234,0 -15.429687,-0.87891 -5.273438,-1.26953 -5.273438,-7.22656 v -24.02344 h 7.421875 z M 3.7109375,155.17578 q 6.9335935,-7.66601 11.2792965,-18.45703 l 7.421875,2.88086 Q 17.96875,152.19727 10.888672,159.7168 Z m 34.0820315,3.51563 Q 35.9375,148.04687 33.300781,139.79492 l 7.617188,-1.9043 q 3.125,8.34961 5.175781,18.70118 z m 23.925781,-1.26954 q -3.369141,-11.18164 -7.128906,-18.21289 l 7.128906,-2.58789 q 4.248047,7.42188 7.861328,17.8711 z m 28.076172,0.78125 Q 83.935547,147.2168 77.001953,138.47656 l 6.787109,-3.46679 q 7.519532,8.78906 13.720704,19.38476 z M 156.39648,90.820312 q 7.12891,12.353518 17.96875,23.535158 10.49805,10.9375 23.4375,18.75 l -5.12695,6.88476 q -15.13672,-10.20507 -26.80664,-24.26757 -7.37305,-8.83789 -12.35352,-17.919926 v 34.423826 h 19.87305 v 7.08008 h -19.67773 v 20.21484 h -8.10547 V 139.30664 H 126.9043 v -7.08008 h 18.89648 V 98.4375 q -6.10351,13.13477 -17.23633,25.53711 -9.08203,10.20508 -20.65429,18.21289 l -5.32227,-6.39648 q 25.14649,-15.72266 40.33203,-44.970708 h -38.03711 v -7.324218 h 40.72266 V 64.501953 h 8.10547 v 18.994141 h 41.35742 v 7.324218 z M 282.86133,67.578125 V 114.4043 H 225.78125 V 67.578125 Z m -49.36524,6.005859 v 7.714844 h 41.55274 v -7.714844 z m 0,13.330078 v 7.763672 h 41.55274 v -7.763672 z m 0,13.476568 v 8.30078 h 41.55274 v -8.30078 z M 214.4043,122.2168 h 83.05664 v 6.49414 h -41.99219 v 30.81054 h -7.91016 V 128.71094 H 206.5918 V 74.267578 h 7.8125 z m -9.22852,29.6875 q 12.79297,-6.15235 23.0957,-19.28711 l 6.5918,3.66211 q -10.40039,13.62304 -24.07226,21.72851 z m 84.17969,4.10156 q -10.25391,-11.18164 -23.29102,-19.82422 l 6.00586,-4.49219 q 11.76758,7.37305 23.68164,18.79883 z m 66.25976,-47.11914 q 4.88282,12.8418 14.11133,22.65625 11.13281,11.91406 27.14844,18.94531 l -5.07813,7.51953 q -30.46875,-15.2832 -40.96679,-42.87109 -8.34961,30.66406 -40.72266,43.75 l -5.22461,-6.88477 q 17.82227,-6.20117 28.85742,-19.28711 9.17969,-10.9375 11.32813,-23.82812 h -35.79102 v -7.17774 h 36.32813 V 77.880859 h -40.82031 v -7.080078 h 90.2832 v 7.080078 h -41.35742 v 23.828121 h 37.06054 v 7.17774 z m 97.90039,16.94336 v 8.98437 h 43.84766 v 6.68946 h -43.84766 v 18.01757 h -8.00781 v -18.01757 h -43.01758 v -6.68946 h 43.01758 v -8.98437 H 413.67187 V 89.208984 h 72.41211 V 125.83008 Z M 421.58203,95.214844 v 8.984376 h 56.5918 v -8.984376 z m 0,14.892576 v 9.7168 h 56.5918 v -9.7168 z m 8.00781,-37.207029 V 64.501953 H 437.5 v 8.398438 h 24.07227 v -8.398438 h 8.00781 v 8.398438 h 25.73242 v 6.396484 h -25.73242 v 6.884766 h -8.00781 V 79.296875 H 437.5 v 6.884766 h -7.91016 v -6.884766 h -25 v -6.396484 z m 95.50782,30.078129 q 3.75976,0 6.49414,2.92968 2.4414,2.53907 2.4414,6.10352 0,2.53906 -1.41601,4.78516 -2.68555,4.19921 -7.66602,4.19921 -2.14844,0 -4.10156,-1.02539 -4.83399,-2.58789 -4.83399,-8.05664 0,-4.54101 3.8086,-7.27539 2.34375,-1.66015 5.27344,-1.66015 z m 55.37109,-29.589848 v -8.886719 h 7.8125 v 8.886719 h 22.99805 v -8.886719 h 7.8125 v 8.886719 h 25.48828 v 6.396484 H 619.0918 v 7.617188 h -7.8125 v -7.617188 h -22.99805 v 8.203125 h -7.8125 v -8.203125 h -25.19531 v -6.396484 z m -15.2832,20.019531 3.61328,-0.09766 q 37.35351,-1.269531 64.30664,-5.175781 l 4.78515,6.49414 q -33.88671,3.808594 -64.11132,4.6875 -0.39063,0.04883 -0.78125,0.04883 v 7.958986 h 64.11132 v 31.78711 h -7.71484 v -6.00586 h -57.32422 q -1.02539,6.29883 -2.92969,10.9375 -3.125,7.76367 -10.44921,14.35547 l -6.00586,-5.46875 q 7.42187,-6.83594 10.20507,-15.52735 2.29493,-7.03125 2.29493,-16.99218 z m 64.20898,20.214847 h -56.39648 v 6.49414 q 0,3.07617 -0.24414,6.49414 h 56.64062 z m 51.2207,19.18945 q -11.42578,6.25 -25.09765,11.81641 l -3.51563,-7.71485 q 17.33399,-6.15234 28.61328,-11.96289 V 98.535156 h -25.63476 v -7.421875 h 25.63476 V 65.527344 h 8.00782 v 93.212886 h -8.00782 z M 712.01172,97.949219 Q 725,91.845703 737.30469,81.591797 l 6.20117,6.103515 Q 728.36914,98.779297 712.01172,105.9082 v 38.1836 q 0,3.07617 2.24609,3.71093 1.80664,0.53711 10.35156,0.53711 8.05665,0 10.35157,-1.12304 1.66015,-0.83008 2.24609,-4.29688 0.68359,-4.44336 1.07422,-14.84375 l 7.91016,2.73438 q -0.58594,16.01562 -2.2461,19.9707 -1.61133,3.90625 -7.03125,4.88281 -4.63867,0.83008 -13.52539,0.83008 -12.10937,0 -15.42969,-1.5625 -3.95507,-1.85547 -3.95507,-7.91016 V 65.478516 h 8.00781 z m 87.20703,5.273441 v 40.86914 q 0,4.05273 2.39258,4.98047 2.58789,0.97656 16.45508,0.97656 13.42773,0 17.38281,-0.92774 2.7832,-0.68359 3.56445,-3.22265 1.2207,-4.00391 1.26953,-12.40235 l 7.51953,2.78321 q -0.68359,13.23242 -3.51562,16.79687 -2.24609,2.92969 -7.27539,3.4668 -7.66602,0.78125 -20.75195,0.78125 -12.45118,0 -16.74805,-0.83008 -5.3711,-1.07422 -6.83594,-4.88281 -0.78125,-2.09961 -0.78125,-5.51758 v -40.38086 l -10.49805,3.56445 -1.90429,-6.98242 12.40234,-4.150389 v -26.5625 h 7.32422 v 24.072266 l 12.8418,-4.345703 V 64.501953 h 7.32422 v 24.365234 l 18.01757,-6.054687 4.39453,2.392578 v 35.986332 q 0,3.51562 -1.66015,5.32226 -1.95313,2.09961 -6.83594,2.09961 -3.95508,0 -7.71484,-0.53711 l -1.26953,-6.98242 q 3.71093,0.68359 6.93359,0.68359 2.44141,0 2.97852,-1.07421 0.39062,-0.73243 0.39062,-2.29493 V 91.113281 l -15.23437,5.175781 v 39.794918 h -7.32422 V 98.779297 Z M 766.50391,88.916016 V 65.136719 h 7.71484 v 23.779297 h 10.79102 v 7.177734 h -10.79102 v 34.96094 q 5.12695,-1.75782 11.71875,-4.44336 l 0.78125,6.88476 q -14.94141,6.88477 -32.03125,12.10938 l -2.7832,-7.61719 q 6.78711,-1.85547 14.59961,-4.3457 V 96.09375 h -13.28125 v -7.177734 z m 128.95507,0.04883 q 0,7.324218 -0.92773,17.041016 h 39.4043 q -0.6836,32.91016 -3.75977,43.60351 -1.26953,4.49219 -4.83398,6.34766 -3.02735,1.5625 -9.08203,1.5625 -8.39844,0 -15.33204,-0.92773 l -1.31836,-8.00782 q 10.15625,1.31836 16.3086,1.31836 4.05273,0 5.32226,-1.70898 1.07422,-1.46484 2.14844,-8.49609 1.5625,-9.96094 2.14844,-26.70899 h -31.93359 q -1.80665,11.37695 -5.76172,19.28711 -7.91016,15.91797 -26.02539,25.73242 l -5.61524,-6.29883 q 19.38477,-10.15625 25.58594,-26.36718 5.17578,-13.57422 5.56641,-36.376956 h -33.54493 v -7.177735 h 41.69922 V 64.501953 h 8.00781 v 17.285156 h 42.67579 v 7.177735 z"></path>
</svg>
