<svg xmlns="http://www.w3.org/2000/svg" id="svg1" version="1.1" height="200" width="1096">
  <defs id="defs1"></defs>
  <rect id="rect1" stroke="none" fill="none" height="200" width="1096" y="0" x="0"></rect>
  <path aria-label="群馬県北部" style="font-weight:bold;font-size:110px;font-family:'BIZ UDPGothic';fill:#ff0000" id="text1" d="m 86.52832,83.774414 v 13.75 h 17.56348 v 9.667966 H 86.52832 v 15.46875 h 21.00098 v 10.20508 H 86.52832 v 27.60742 H 75.195312 V 132.86621 H 54.355469 V 122.66113 H 75.195312 V 107.19238 H 58.168945 v -9.667966 h 17.026367 v -13.75 H 57.094727 v 4.726563 H 50.917969 V 107.51465 H 24.921875 q -1.772461,6.01562 -3.813477,11.01074 h 30.615235 v 40.49805 H 41.25 v -4.72657 H 23.793945 v 6.17676 H 13.427734 v -27.33886 q -3.061523,4.458 -7.1972653,8.75488 L 0.64453125,131.52344 Q 9.7753906,122.28516 14.555664,107.51465 H 6.7138672 V 98.383789 H 16.757812 Q 17.348633,95 17.832031,90.112305 l 0.161133,-1.611328 H 2.4169922 V 79.047852 H 18.583984 q 0.214844,-5.747071 0.214844,-9.560547 H 7.4658203 V 60.141602 H 50.917969 v 18.90625 h 5.048828 v -5.371094 h 9.72168 Q 62.412109,64.707031 58.383789,58.691406 l 10.205078,-3.276367 q 3.759766,6.445313 7.734375,18.261719 h 8.59375 l 0.322266,-0.859375 q 2.792969,-6.713867 6.123047,-17.832031 l 11.440425,3.168945 q -2.57812,7.250976 -6.499019,15.522461 h 9.882809 V 83.774414 Z M 23.793945,127.87109 v 16.86524 H 41.25 V 127.87109 Z M 40.444336,69.487305 H 29.057617 q -0.107422,6.176757 -0.214844,9.560547 h 11.601563 z m 0,19.013672 H 28.251953 q -0.375976,4.941406 -1.181641,9.882812 H 40.444336 Z M 208.77441,60.678711 v 9.453125 h -35.61035 v 8.056641 h 30.56153 v 8.59375 h -30.56153 v 7.895507 h 30.56153 v 8.593746 h -30.56153 v 8.43262 h 41.89453 q -0.96679,31.58203 -3.4375,40.17578 -1.39648,4.83399 -4.9414,6.82129 -3.00782,1.66504 -9.88282,1.66504 -10.47363,0 -16.91894,-0.80566 l -2.20215,-10.52735 q 10.90332,1.18164 16.2207,1.18164 4.35059,0 5.47852,-1.55761 2.09473,-3.06153 3.49121,-27.71485 H 123.53516 V 60.678711 Z m -73.58398,9.453125 v 8.056641 h 26.74805 v -8.056641 z m 0,16.650391 v 7.895507 h 26.74805 v -7.895507 z m 0,16.489253 v 8.43262 h 26.74805 v -8.43262 z m -23.20313,47.48047 q 7.03614,-10.95703 10.36622,-25.29785 l 10.8496,3.33008 q -3.86718,17.88574 -11.22558,29.00391 z m 30.56153,4.08203 q -0.37598,-13.32031 -2.63184,-25.29785 l 10.90332,-1.9873 q 3.16895,11.49414 4.18946,24.76074 z m 22.66601,-4.40429 q -2.52441,-13.37403 -6.49902,-22.5586 l 9.8291,-2.9541 q 4.72656,9.72168 7.68067,21.43067 z m 21.00098,-6.01563 q -3.65234,-10.74219 -8.8623,-18.36914 l 8.75488,-3.65234 q 5.9082,7.46582 10.04394,17.24121 z M 312.16797,58.583984 V 110.62988 H 248.25195 V 58.583984 Z m -52.36817,8.486328 v 6.713868 h 40.7129 v -6.713868 z m 0,14.28711 v 6.713867 h 40.7129 v -6.713867 z m 0,14.287109 v 6.928709 h 40.7129 v -6.928709 z m -21.6455,22.128909 h 89.05273 v 9.3457 h -44.41894 v 33.35449 H 270.5957 V 127.11914 H 226.3916 V 66.855469 h 11.7627 z m -13.75,32.4414 q 12.7832,-5.9082 24.43847,-19.81933 l 9.88282,5.74707 q -11.49414,14.55566 -25.5127,22.88086 z m 92.59765,6.92871 q -8.21777,-10.09765 -24.70703,-21.21582 l 9.23828,-6.49902 q 12.94434,7.46582 25.40528,19.60449 z m 45.11719,-25.29785 q -14.82422,7.78809 -25.83496,11.92383 l -4.51172,-11.81641 q 17.24121,-5.80078 30.34668,-12.03124 V 95.859375 H 335.53223 V 84.526367 h 26.58691 V 55.952148 h 11.97754 V 160.47363 h -11.97754 z m 38.18848,-41.840817 q 12.51465,-6.552735 24.27734,-16.650391 l 8.91602,9.345703 q -15.89844,11.279297 -33.19336,19.228515 v 40.2832 q 0,2.63184 1.71875,3.22266 1.82617,0.59082 8.43261,0.59082 8.70118,0 10.90332,-1.02051 1.55762,-0.69824 2.14844,-4.35058 0.80567,-5.10254 1.18164,-16.48926 l 12.03125,3.70605 q -0.53711,13.91114 -1.71875,19.98047 -1.34277,6.76758 -7.03613,8.75489 -5.4248,1.82617 -17.77832,1.82617 -14.50195,0 -18.26172,-2.417 -3.59863,-2.36328 -3.59863,-9.07714 V 55.952148 h 11.97754 z m 78.0957,-21.645508 h 22.98828 v 10.366211 h -7.57324 q -2.04102,8.217773 -5.47852,17.241211 h 14.34082 v 10.366213 h -59.9414 V 95.966797 h 13.15918 Q 453.75,85.654297 451.38672,78.725586 H 444.4043 V 68.359375 h 22.77343 V 55.952148 h 11.22559 z m -16.16699,10.366211 q 2.73926,8.00293 4.24316,17.241211 h 10.95703 l 0.53711,-1.503906 q 2.30957,-6.123047 4.29688,-13.911133 l 0.4834,-1.826172 z m 33.30078,36.630864 v 43.98925 h -11.01074 v -5.26367 H 461.1084 v 6.3916 h -11.33301 v -45.11718 z m -34.42871,9.88281 v 18.63769 h 23.41797 v -18.63769 z m 71.75781,-27.124026 q 6.3916,6.069336 10.15137,14.448246 3.70605,8.3789 3.70605,16.97265 0,7.94922 -2.9541,11.70899 -3.06152,3.9209 -10.09766,3.9209 -6.01562,0 -11.65527,-0.85938 l -2.63183,-11.44043 q 6.49902,1.18164 10.74218,1.18164 3.22266,0 4.02832,-1.5039 0.53711,-1.07422 0.53711,-4.29688 0,-13.2666 -7.94922,-22.88086 -2.09472,-2.52441 -5.26367,-5.424804 l 0.64453,-1.503906 q 5.58594,-12.62207 8.70118,-26.318359 h -13.75 V 160.47363 H 505.95703 V 61.000977 h 32.33399 l 5.96191,5.478515 q -5.42481,18.476563 -11.38672,31.635742 z"></path>
</svg>
