<svg xmlns="http://www.w3.org/2000/svg" id="svg1" version="1.1" height="200" width="1096">
  <defs id="defs1"></defs>
  <rect id="rect1" stroke="none" fill="none" height="200" width="1096" y="0" x="0"></rect>
  <path aria-label="台湾付近" style="font-weight:bold;font-size:110px;font-family:'BIZ UDPGothic';fill:#ff0000" id="text1" d="m 21.699219,89.199219 q 13.75,-17.348633 23.095703,-33.78418 l 12.62207,3.920898 Q 47.53418,75.288086 35.771484,88.608398 l 4.350586,-0.161132 q 17.402344,-0.751954 37.436524,-2.416993 l 4.135742,-0.322265 Q 75.893555,78.40332 70.737305,73.193359 L 81.318359,68.466797 Q 93.779297,80.551758 106.93848,98.544922 L 95.927734,105.20508 Q 91.523437,98.813477 88.24707,94.355469 57.900391,98.544922 8.1640625,101.06934 L 4.296875,89.736328 q 10.419922,-0.214844 14.985352,-0.429687 z m 72.993164,21.752931 v 49.52148 H 82.285156 v -7.08984 H 27.714844 v 7.08984 H 15.307617 v -49.52148 z m -66.977539,10.20508 v 21.6455 h 54.570312 v -21.6455 z M 192.9834,74.106445 v 20.786133 q 0,3.544922 -1.50391,5.209962 -1.77246,1.93359 -7.84179,1.93359 -5.80079,0 -9.50684,-0.64453 l -1.39649,-8.916014 q 4.24317,0.859375 7.14356,0.859375 1.55762,0 1.9873,-0.751953 0.32227,-0.644531 0.32227,-2.094727 V 74.106445 h -9.56055 q -0.42968,11.333008 -3.00781,17.402344 -2.84668,6.606445 -11.76269,12.084961 l -7.68067,-6.821289 q 8.05664,-4.189453 10.36621,-10.795899 1.39649,-4.135742 1.71875,-11.870117 h -21.21582 v -9.130859 h 30.56153 v -9.023438 h 11.8164 v 9.023438 h 33.73047 v 9.130859 z m 16.59668,30.454105 v 21.80664 h -53.0127 q -0.42968,2.9541 -1.02051,5.9082 h 58.65235 q -1.34277,14.77051 -3.70606,20.24902 -3.4375,7.94922 -16.11328,7.94922 -10.52734,0 -22.6123,-0.91308 l -1.98731,-9.77539 q 11.54785,1.23535 20.67871,1.23535 4.94141,0 6.49903,-1.12793 2.41699,-1.77246 3.75976,-9.23828 h -47.26562 q -0.59082,2.20215 -2.04102,6.60644 l -11.54785,-2.30957 q 4.08203,-12.24609 6.12305,-26.47949 h 51.83105 v -5.74707 h -55 v -8.16406 z M 130.57129,80.820312 q -5.96191,-8.271484 -15.25391,-16.381835 l 8.00293,-7.626954 q 8.43262,6.176758 15.84473,15.737305 z m -3.27637,27.714848 Q 119.02344,98.061523 111.23535,91.455078 l 8.05664,-7.788086 q 8.05664,6.176758 16.59668,15.952149 z M 113.4375,151.9873 q 9.45313,-14.71679 17.93945,-37.75878 l 8.8086,6.49902 q -7.03614,21.32324 -16.86524,39.85351 z m 95.71289,-51.50878 Q 202.11426,89.091797 194.37988,80.820312 l 8.16407,-5.263671 q 9.45312,8.59375 15.30761,18.798828 z m -75.1416,-6.445317 q 7.8418,-6.445312 12.89062,-17.080078 l 9.77539,3.652344 q -5.26367,11.977539 -14.55566,19.980471 z m 115.9082,-8.056641 V 160.47363 H 238.26172 V 105.3125 q -4.35059,6.12305 -10.09766,12.67578 l -6.06933,-11.54785 q 10.90332,-12.084961 18.6914,-28.144532 4.72657,-9.721679 9.45313,-23.203125 l 11.22558,3.061524 q -4.88769,14.716797 -11.54785,27.822265 z M 311.09375,81.25 h 16.16699 v 10.795898 h -16.16699 v 56.396482 q 0,7.08985 -3.4375,9.45313 -2.52441,1.77246 -9.50684,1.77246 -8.54004,0 -17.50976,-0.9668 l -2.30957,-11.76269 q 9.56054,1.39648 17.83203,1.39648 2.25586,0 2.73926,-0.9668 0.32226,-0.69824 0.32226,-2.30957 V 92.045898 H 255.28809 V 81.25 h 43.93554 V 57.832031 h 11.87012 z m -33.99902,52.0459 q -6.06934,-16.16699 -14.98536,-29.48731 l 10.25879,-5.96191 q 9.66797,14.2334 15.52246,29.16504 z m 83.25195,2.73926 q 4.29687,4.99511 9.66797,7.41211 8.80859,3.9746 23.0957,3.9746 h 45.76172 q -1.93359,3.65235 -3.59863,10.47364 h -42.7002 q -18.47656,0 -28.30566,-5.80078 -4.02832,-2.417 -8.86231,-7.89551 -0.37597,0.42969 -0.91308,1.07422 -7.89551,9.3457 -15.6836,15.2539 l -6.49902,-11.01074 q 8.54004,-5.10254 16.48926,-11.54785 v -26.5332 h -15.62988 v -10.58106 h 27.17773 z m 13.96484,-71.274418 2.84668,-0.214844 q 24.86817,-1.71875 44.6875,-7.358398 l 8.37891,9.453125 q -20.83984,5.478516 -44.47266,7.412109 v 13.911133 h 49.73633 V 98.4375 h -18.04687 v 43.77441 H 405.57129 V 98.4375 h -19.81934 q -0.26855,17.24121 -2.57812,27.44629 -2.09473,9.39941 -6.875,16.86523 l -9.88281,-7.46582 q 5.31738,-8.27148 6.82128,-20.51757 1.07422,-8.43262 1.07422,-22.934575 z M 354.43848,85.761719 Q 346.2207,74.160156 336.71387,64.975586 l 8.80859,-7.036133 q 9.23828,7.734375 18.58399,19.658203 z"></path>
</svg>
