<svg xmlns="http://www.w3.org/2000/svg" id="svg1" version="1.1" height="200" width="1096">
  <defs id="defs1"></defs>
  <rect id="rect1" stroke="none" fill="none" height="200" width="1096" y="0" x="0"></rect>
  <path aria-label="内浦湾" style="font-weight:bold;font-size:110px;font-family:'BIZ UDPGothic';fill:#ff0000" id="text1" d="M 48.662109,73.891602 V 55.952148 h 11.977539 v 17.939454 h 41.250002 v 74.765628 q 0,6.33789 -3.437502,8.8623 -2.792968,2.09473 -9.721679,2.09473 -11.870117,0 -19.604492,-0.59082 l -2.202149,-11.44043 q 12.03125,0.75195 20.087891,0.75195 2.148437,0 2.524414,-1.02051 0.268554,-0.64453 0.268554,-2.04101 V 84.902344 h -29.21875 l -0.05371,0.805664 q -0.268555,4.350586 -1.074219,8.916015 15.952148,13.051757 28.466797,29.433597 l -9.13086,8.48633 q -8.916015,-12.94434 -22.397461,-26.90918 -6.928711,18.208 -27.875976,30.40039 l -7.089844,-9.45313 q 12.514648,-7.19726 18.476563,-15.36133 7.841796,-10.74218 8.64746,-26.318356 H 20.356445 V 160.47363 H 8.2714844 V 73.891602 Z m 133.632811,6.123046 v 8.271485 h 29.48731 v 63.271487 q 0,4.83398 -2.47071,6.71386 -2.09472,1.55762 -7.41211,1.55762 -6.12304,0 -11.01074,-0.69824 l -1.77246,-10.47363 q 5.47852,0.80566 9.02344,0.80566 1.9873,0 2.41699,-1.02051 0.32227,-0.75195 0.32227,-2.09472 v -12.40723 h -18.79883 v 23.74023 H 171.3916 v -23.74023 h -16.91894 v 26.5332 H 143.56934 V 88.286133 h 27.60742 V 80.014648 H 138.9502 v -9.990234 h 32.22656 V 55.952148 h 11.11816 v 14.072266 h 18.42285 q -5.74707,-5.74707 -11.92382,-9.882812 l 8.64746,-4.833985 q 6.66015,3.867188 13.80371,10.634766 l -6.55274,4.082031 h 12.56836 v 9.990234 z M 171.3916,97.416992 h -16.91894 v 9.023438 h 16.91894 z m 10.68848,0 v 9.023438 h 18.79883 V 97.416992 Z M 171.3916,115.1416 h -16.91894 v 10.20508 h 16.91894 z m 10.68848,0 v 10.20508 h 18.79883 V 115.1416 Z M 129.71191,81.25 q -6.12304,-9.023438 -15.52246,-17.294922 l 8.37891,-7.895508 q 9.3457,8.00293 15.7373,16.381836 z m -2.73925,27.60742 Q 119.50684,98.813477 111.55762,91.132812 l 7.89551,-7.895507 q 8.70117,7.250976 16.32812,17.133785 z m -13.96485,43.55957 q 8.54004,-14.39453 15.84473,-37.59765 l 10.09766,5.9082 q -6.3379,22.39746 -15.62989,39.85351 z M 302.9834,74.106445 v 20.786133 q 0,3.544922 -1.50391,5.209962 -1.77246,1.93359 -7.84179,1.93359 -5.80079,0 -9.50684,-0.64453 l -1.39649,-8.916014 q 4.24317,0.859375 7.14356,0.859375 1.55762,0 1.9873,-0.751953 0.32227,-0.644531 0.32227,-2.094727 V 74.106445 h -9.56055 q -0.42968,11.333008 -3.00781,17.402344 -2.84668,6.606445 -11.76269,12.084961 l -7.68067,-6.821289 q 8.05664,-4.189453 10.36621,-10.795899 1.39649,-4.135742 1.71875,-11.870117 h -21.21582 v -9.130859 h 30.56153 v -9.023438 h 11.8164 v 9.023438 h 33.73047 v 9.130859 z m 16.59668,30.454105 v 21.80664 h -53.0127 q -0.42968,2.9541 -1.02051,5.9082 h 58.65235 q -1.34277,14.77051 -3.70606,20.24902 -3.4375,7.94922 -16.11328,7.94922 -10.52734,0 -22.6123,-0.91308 l -1.98731,-9.77539 q 11.54785,1.23535 20.67871,1.23535 4.94141,0 6.49903,-1.12793 2.41699,-1.77246 3.75976,-9.23828 h -47.26562 q -0.59082,2.20215 -2.04102,6.60644 l -11.54785,-2.30957 q 4.08203,-12.24609 6.12305,-26.47949 h 51.83105 v -5.74707 h -55 v -8.16406 z M 240.57129,80.820312 q -5.96192,-8.271484 -15.25391,-16.381835 l 8.00293,-7.626954 q 8.43262,6.176758 15.84473,15.737305 z m -3.27637,27.714848 Q 229.02344,98.061523 221.23535,91.455078 l 8.05664,-7.788086 q 8.05664,6.176758 16.59668,15.952149 z M 223.4375,151.9873 q 9.45312,-14.71679 17.93945,-37.75878 l 8.8086,6.49902 q -7.03614,21.32324 -16.86524,39.85351 z m 95.71289,-51.50878 Q 312.11426,89.091797 304.37988,80.820312 l 8.16407,-5.263671 q 9.45312,8.59375 15.30761,18.798828 z m -75.1416,-6.445317 q 7.8418,-6.445312 12.89062,-17.080078 l 9.77539,3.652344 q -5.26367,11.977539 -14.55566,19.980471 z"></path>
</svg>
