<svg xmlns="http://www.w3.org/2000/svg" id="svg1" version="1.1" height="200" width="990">
  <defs id="defs1"></defs>
  <rect id="rect1" stroke="none" fill="none" height="200" width="990" y="0" x="0"></rect>
  <path aria-label="淡路島付近" style="font-size:100px;font-family:'BIZ UDPGothic';fill:#ff0000" id="text1" d="m 64.306641,114.55078 q 0.195312,10.5957 6.054687,19.58008 4.101563,6.25 10.693359,10.40039 6.738282,4.19922 16.94336,7.37305 l -4.6875,7.27539 q -25.53711,-9.61914 -31.933594,-28.51563 -2.832031,11.2793 -10.791016,18.40821 -7.519531,6.73828 -21.289062,10.64453 l -4.492188,-6.39649 q 16.796875,-4.10156 23.828125,-12.10937 8.056641,-9.17969 8.056641,-26.51367 v -8.4961 h 7.617188 z m -1.757813,-26.953124 1.367188,0.683594 q 13.232421,6.689453 31.787109,18.70117 l -4.980469,5.81055 Q 77.34375,103.22266 60.058594,93.164062 q -2.832032,5.322266 -8.056641,10.351568 -6.884766,6.54296 -20.410156,10.98632 l -4.296875,-6.10351 q 15.771484,-4.19922 22.949219,-13.08594 4.541015,-5.566406 5.810546,-13.818359 0.634766,-4.199219 0.634766,-9.91211 v -7.080078 h 7.617188 v 6.396484 q 0,9.326172 -1.757813,16.699219 z M 20.703125,86.181641 Q 13.525391,77.197266 5.9082031,70.898437 l 5.3222659,-5.078125 q 8.203125,6.25 15.08789,14.697266 z M 16.894531,111.81641 Q 9.9609375,103.22266 1.7089844,96.484375 L 7.1289062,91.113281 Q 15.527344,97.509766 22.607422,105.9082 Z M 4.1015625,152.97852 q 9.1308595,-12.79297 16.8945315,-33.1543 l 6.298828,4.6875 q -7.470703,19.92187 -16.699219,34.17969 z M 31.884766,89.697266 q 5.517578,-7.421875 8.300781,-18.50586 l 6.933594,1.708985 q -3.466797,12.695312 -9.033204,20.507812 z m 40.332031,-4.296875 q 6.884765,-7.373047 11.914062,-16.40625 l 7.177735,3.417968 q -6.00586,9.423828 -13.476563,16.503907 z M 31.396484,133.59375 q 6.00586,-7.51953 9.228516,-18.11523 l 6.689453,1.61132 q -2.978516,12.40235 -9.521484,20.50782 z m 40.625,-3.90625 q 6.689453,-7.71484 11.083985,-16.50391 l 7.226562,3.61329 q -6.738281,10.54687 -12.74414,16.60156 z M 175.53711,99.072266 q 9.42383,8.154294 22.94922,13.916014 l -3.8086,6.5918 q -13.96484,-6.44531 -23.82812,-15.625 -10.83984,10.15625 -25.97656,16.55273 l -3.95508,-6.20117 q 13.91601,-4.83398 25,-15.332031 -5.66406,-6.396484 -9.08203,-12.646484 -0.24414,0.341797 -0.58594,0.78125 -3.61328,4.6875 -8.74023,9.082031 l -4.93165,-5.322265 Q 154.83398,81.25 160.88867,64.404297 l 7.42188,1.171875 q -1.22071,2.978515 -2.19727,5.126953 h 19.38477 L 190.2832,75 q -6.00586,14.208984 -14.74609,24.072266 z m -5.07813,-4.833985 q 6.34766,-7.373047 10.83985,-16.845703 h -18.60352 q -0.53711,0.976563 -1.75781,2.929688 l -0.3418,0.585937 q 3.90625,6.982422 9.86328,13.330078 z M 141.06445,68.603516 v 32.470704 h -12.89062 v 15.82031 h 12.98828 v 6.5918 h -12.98828 v 20.89844 q 6.05469,-1.5625 15.2832,-4.49219 l 0.68359,6.49414 q -19.2871,6.64062 -39.35546,11.18164 l -2.58789,-7.08008 q 2.14843,-0.43945 4.0039,-0.83008 l 1.31836,-0.29297 v -38.96484 h 6.78711 v 37.45117 l 2.44141,-0.58594 2.4414,-0.58593 2.09961,-0.53711 V 101.07422 H 106.68945 V 68.603516 Z m -27.29492,6.689453 v 19.287109 h 20.21484 V 75.292969 Z m 76.12305,44.824221 v 39.40429 h -7.32422 v -5.9082 h -25.43945 v 5.9082 h -7.32422 v -39.40429 z m -32.76367,6.68945 v 20.21484 h 25.43945 v -20.21484 z m 110.88867,22.41211 h -53.8086 v 5.71289 h -7.71484 v -23.0957 h 7.71484 v 11.18164 h 19.0918 v -14.69727 h -19.0918 V 73.291016 h 23.97461 q 3.36914,-4.931641 5.41993,-9.179688 l 8.6914,2.001953 q -2.39258,3.515625 -5.46875,7.177735 h 35.25391 v 30.517574 h -59.96094 v 6.00586 h 75.3418 v 6.10352 h -75.3418 v 6.29883 h 70.94727 q -0.73243,23.87695 -3.32032,30.71289 -1.5625,4.19922 -5.51757,5.66406 -2.5879,0.92773 -6.83594,0.92773 -6.15235,0 -11.76758,-0.8789 l -1.61133,-7.22656 q 6.73828,1.02539 12.10938,1.02539 4.24804,0 5.37109,-1.95313 2.24609,-3.90625 3.36914,-22.16797 h -43.94531 v 14.69727 h 19.58008 v -11.18164 h 7.51953 z M 222.11914,79.296875 v 6.298828 h 52.09961 v -6.298828 z m 0,12.011719 v 6.689453 h 52.09961 v -6.689453 z m 103.36914,-1.123047 v 69.335933 h -7.71484 v -55.37109 q -0.19532,0.29297 -0.48828,0.73242 -4.39454,7.17774 -10.88868,14.69727 l -4.10156,-7.37305 q 9.76563,-11.32812 16.35742,-25.195311 4.73633,-9.91211 8.83789,-22.900391 l 7.61719,2.099609 q -4.49219,13.427735 -9.61914,23.97461 z m 55.22461,-2.001953 h 16.60156 v 7.177734 h -16.60156 v 54.541012 q 0,5.17578 -2.49023,7.17774 -2.09961,1.61133 -7.76368,1.61133 -7.91015,0 -14.74609,-0.6836 L 354.10156,150 q 8.44727,1.2207 15.625,1.2207 2.14844,0 2.68555,-0.78125 0.39062,-0.63476 0.39062,-2.4414 V 95.361328 h -42.72461 v -7.177734 h 42.72461 V 65.283203 h 7.91016 z m -28.41797,45.410156 q -5.71289,-14.30664 -13.81836,-26.07422 l 6.49414,-4.19922 q 8.39844,12.35352 14.20899,25.87891 z m 74.21875,4.73633 q 4.29688,4.44336 9.81445,7.22656 8.59375,4.3457 23.58399,4.3457 h 38.37891 q -1.41602,2.88086 -2.49024,6.88477 H 459.7168 q -16.35743,0 -25.63477,-4.58984 -5.56641,-2.78321 -10.74219,-8.20313 -8.34961,9.57031 -16.25976,15.47852 l -4.58985,-7.08008 q 7.95899,-4.98047 16.40625,-12.5 v -25.6836 h -16.21093 v -6.7871 h 23.82812 z M 440.9668,74.21875 q 1.70898,-0.146484 3.71093,-0.292969 21.92383,-1.80664 39.99024,-7.617187 l 5.61523,6.103515 q -17.91992,5.371094 -41.60156,7.763672 v 14.941406 h 47.41211 v 6.884763 h -17.91992 v 43.40821 h -7.8125 v -43.40821 h -21.67969 q 0,13.52539 -1.17187,22.07032 -1.5625,11.4746 -6.83594,20.21484 l -6.49414,-5.17578 q 4.78515,-8.30078 6.00586,-19.33594 0.78125,-7.27539 0.78125,-20.654296 z m -18.35938,14.697266 q -7.51953,-9.960938 -15.52734,-17.138672 l 5.51758,-4.6875 q 8.20312,6.689453 15.96679,16.308593 z"></path>
</svg>
