<svg xmlns="http://www.w3.org/2000/svg" id="svg41" viewBox="0,0,168.1,32.878" height="32.878" width="168.1" version="1.1">
  <defs id="defs41"></defs>
  
  <g id="g41" transform="translate(-240,-180)">
    <g id="g40" style="mix-blend-mode: normal" stroke-dashoffset="0" stroke-dasharray="" stroke-miterlimit="10" stroke-linejoin="miter" stroke-linecap="butt" stroke="none" data-paper-data="{&quot;isPaintingLayer&quot;:true}">
      <path id="path1" stroke-width="0" fill-rule="evenodd" fill="#000000" fill-opacity="0.7" d="M248,180h152.1c4.432,0 8,3.568 8,8v16.878c0,4.432 -3.568,8 -8,8h-152.1c-4.432,0 -8,-3.568 -8,-8v-16.878c0,-4.432 3.568,-8 8,-8z"></path>
      <g transform="translate(240,180)" aria-label="人が感じずらい揺れを震度色(灰色)で
表示します。" style="font-weight:bold;font-size:7.92224px;line-height:1.35;font-family:'BIZ UDPGothic';-inkscape-font-specification:'BIZ UDPGothic Bold';fill:#ffffff;stroke-width:3.00093" id="text41">
        <path id="path46" d="m 11.552066,7.301994 v 1.0947236 q 0,1.5473125 0.785261,2.9553664 0.874231,1.566654 2.549197,2.495042 l -0.537691,0.83168 Q 13.09551,13.90515 12.167122,12.632485 11.517251,11.742781 11.153633,10.617111 10.399318,13.375195 8.0009836,14.740699 L 7.4091366,14.005725 Q 9.037683,13.228201 9.9119145,11.580313 10.623678,10.234151 10.623678,8.4508735 V 7.301994 Z m 3.887622,1.6324147 h 1.709781 Q 17.265517,8.3386934 17.408643,7.452857 l 0.01934,-0.1121801 0.847153,0.1276532 q -0.131521,0.8200756 -0.270779,1.4660786 h 0.468062 q 0.928387,0 1.330688,0.4177743 0.359751,0.3752233 0.359751,1.168221 0,1.334557 -0.282385,2.495041 -0.162468,0.657608 -0.394565,0.970939 -0.293989,0.390696 -0.816207,0.390696 -0.626662,0 -1.369372,-0.402301 l 0.09671,-0.816207 q 0.734973,0.352013 1.141142,0.352013 0.212756,0 0.328804,-0.228228 0.123785,-0.24757 0.235966,-0.715632 0.220492,-0.947729 0.220492,-1.992165 0,-0.549296 -0.220492,-0.7117638 -0.189546,-0.1353899 -0.67695,-0.1353899 H 17.830286 Q 17.215229,12.466149 16.06635,14.40029 l -0.777525,-0.425511 q 1.187563,-1.992165 1.694307,-4.2473727 h -1.543444 z m 6.425215,3.8179933 Q 21.427787,11.143197 20.483927,9.5920165 l 0.754315,-0.3404088 q 0.974807,1.5550493 1.458342,3.1294393 z M 21.292398,9.0465888 Q 21.052564,8.4199273 20.518741,7.6540076 l 0.599584,-0.2243603 q 0.468062,0.6614761 0.785261,1.3732398 z M 22.332965,8.7139167 Q 22.031239,7.9673384 21.563177,7.3097306 l 0.568638,-0.1895458 q 0.444852,0.5299545 0.777524,1.3229522 z M 29.338422,8.0563089 Q 28.994145,7.7197684 28.692419,7.4876715 L 29.311344,7.178209 q 0.371355,0.2553066 0.750447,0.6227933 l -0.47193,0.2553066 h 0.804602 v 0.6498712 h -1.98056 q 0.13539,0.9670703 0.386828,1.5511809 0.479667,-0.5609009 0.889705,-1.2571915 l 0.642135,0.3481453 q -0.506745,0.8239442 -1.160485,1.5666542 0.185678,0.235965 0.386828,0.390696 0.143127,0.104444 0.205019,0.104444 0.11218,0 0.212756,-0.684686 0.01547,-0.08897 0.03095,-0.185678 l 0.673081,0.379092 q -0.13539,0.734973 -0.259175,0.986412 -0.20115,0.421642 -0.502876,0.421642 -0.224361,0 -0.576374,-0.212755 -0.390697,-0.235965 -0.738842,-0.638267 -0.425511,0.386829 -0.974807,0.715632 L 27.326916,11.858829 H 24.82027 v -1.694307 h 2.525988 v 1.346162 q 0.406169,-0.263043 0.851021,-0.646003 -0.413906,-0.796866 -0.611188,-2.1585009 H 24.410232 V 9.599753 q 0,1.172089 -0.09284,1.705912 -0.100575,0.576374 -0.456457,1.187562 l -0.711763,-0.522218 q 0.293989,-0.506744 0.379091,-1.245586 0.05029,-0.429379 0.05029,-1.0444361 v -1.624678 h 3.930173 q -0.03095,-0.3133308 -0.06189,-0.8316805 h 0.823944 q 0.02708,0.468062 0.06189,0.8316805 z m -3.790915,2.6884551 v 0.545428 h 1.075382 V 10.744764 Z M 24.661671,9.1162179 h 2.773557 v 0.6111884 h -2.773557 z m -1.330689,5.0248971 q 0.417774,-0.715632 0.622793,-1.632415 l 0.785261,0.228229 q -0.185677,1.172089 -0.657608,1.903194 z m 2.019243,-1.601468 h 0.839417 v 1.086987 q 0,0.212755 0.135389,0.255306 0.170205,0.05416 0.781393,0.05416 0.734974,0 0.939993,-0.05802 0.127653,-0.03482 0.166336,-0.228229 0.03868,-0.208887 0.06576,-0.595715 l 0.831681,0.220492 q -0.04255,0.959334 -0.321068,1.183694 -0.158599,0.123785 -0.464193,0.154731 -0.49514,0.05416 -1.195299,0.05416 -1.179826,0 -1.477684,-0.119916 -0.301725,-0.119917 -0.301725,-0.54156 z m 4.65741,1.895457 q -0.417774,-0.955465 -0.982543,-1.729121 l 0.704027,-0.371355 q 0.618925,0.707895 1.032831,1.585995 z M 27.179922,13.553136 Q 26.68865,12.794953 26.332768,12.41973 l 0.591847,-0.371355 q 0.483535,0.417774 0.912914,1.056041 z m 4.699962,-6.003572 h 0.912914 v 4.610991 q 0,1.458342 1.531839,1.458342 1.009622,0 1.655625,-0.932256 0.417774,-0.599583 0.750446,-1.856775 l 0.785261,0.475799 q -0.394564,1.39645 -0.947729,2.088872 -0.870363,1.07925 -2.262944,1.07925 -1.454474,0 -2.050189,-0.897441 -0.375223,-0.560901 -0.375223,-1.446737 z m 3.318985,2.2242617 Q 34.951299,9.1394276 34.405871,8.3502982 l 0.634398,-0.2320968 q 0.475799,0.6692126 0.792998,1.3964495 z M 36.332275,9.3560513 Q 36.053759,8.6326828 35.547014,7.920919 l 0.603452,-0.2050189 q 0.460325,0.5570325 0.785261,1.3538984 z m 6.011309,-1.9573502 h 0.870363 v 1.1488795 h 2.259076 v 0.7272368 h -2.259076 v 1.6014686 q 0.13539,0.464194 0.13539,0.843285 0,1.369372 -0.60732,2.011506 -0.657608,0.696291 -1.992165,0.970939 l -0.440984,-0.657608 q 1.098592,-0.197282 1.605337,-0.60732 0.406169,-0.332672 0.557032,-0.866495 -0.413906,0.452589 -0.99028,0.452589 -0.680817,0 -1.067645,-0.394565 -0.437116,-0.444852 -0.437116,-1.210772 0,-0.673081 0.425511,-1.133406 0.456457,-0.4951402 1.206904,-0.4951402 0.402301,0 0.734973,0.1934141 V 9.2748174 H 38.52559 V 8.5475806 h 3.817994 z m 0.03095,4.0152759 V 11.27085 q 0,-0.228228 -0.108312,-0.413906 -0.212755,-0.371355 -0.634398,-0.371355 -0.22436,0 -0.413906,0.127654 -0.402301,0.266911 -0.402301,0.800734 0,0.386828 0.189546,0.634398 0.216623,0.278516 0.603452,0.278516 0.382959,0 0.60732,-0.33654 0.158599,-0.243702 0.158599,-0.576374 z M 44.277725,8.3967176 Q 44.138466,7.8203437 43.786453,7.2168919 L 44.3783,7.0969751 q 0.324935,0.5106132 0.510613,1.1566161 z m 1.052172,-0.046419 Q 45.190639,7.7661878 44.838625,7.1704725 l 0.580242,-0.1199167 q 0.340409,0.5144814 0.499009,1.1256698 z M 51.2445,9.0233792 Q 49.778421,8.3735079 47.940988,8.0253626 l 0.324936,-0.688554 q 1.887721,0.3520136 3.334458,0.9167826 z m -4.413709,2.8354498 q 0.1586,-1.849038 0.475799,-3.222278 l 0.83168,0.1547313 q -0.293989,1.2223767 -0.379091,2.2900227 0.5609,-0.429379 1.292006,-0.684686 0.700159,-0.24757 1.307479,-0.24757 0.909046,0 1.48542,0.352014 0.769788,0.475798 0.769788,1.524102 0,1.028963 -0.700159,1.593732 -0.978675,0.781393 -3.404088,0.862627 L 48.200163,13.68079 q 1.62081,-0.0039 2.467963,-0.301726 1.025095,-0.355882 1.025095,-1.357767 0,-0.634398 -0.452589,-0.943861 -0.35975,-0.24757 -0.943861,-0.24757 -0.83168,0 -1.787146,0.545428 -0.58411,0.332672 -1.044436,0.808471 z m 10.583614,0.417775 q -0.715632,2.104345 -1.605337,2.104345 -0.634398,0 -1.086987,-0.889705 -0.348145,-0.688554 -0.479666,-1.516366 -0.1586,-1.005753 -0.1586,-2.5840121 0,-0.6846858 0.05029,-1.4699469 l 0.909046,0.069629 q -0.05029,0.7852611 -0.05029,1.4931565 0,2.4834364 0.464194,3.4621114 0.189546,0.402301 0.355882,0.402301 0.108312,0 0.270779,-0.24757 0.332673,-0.502876 0.642135,-1.384844 z m 2.448622,0.920651 Q 59.665745,11.56484 59.379492,10.559087 59.031347,9.3405782 58.571021,8.3270885 l 0.823944,-0.2011506 q 0.638266,1.264928 0.947729,2.4370171 0.255306,0.951597 0.421643,2.421544 z m 6.974512,-2.638168 v 0.762051 h 2.247472 v 0.696291 h -2.247472 v 1.647888 h 1.0367 v -1.276533 h 0.808471 v 2.36352 h -0.808471 v -0.413907 h -2.83545 v 0.413907 h -0.808471 v -2.36352 h 0.808471 v 1.276533 h 0.982543 v -1.647888 h -2.139159 v -0.696291 h 2.139159 V 10.559087 H 64.187767 V 9.8860058 h 3.055942 q 0.371355,-0.6962906 0.707895,-1.6710974 l 0.769788,0.3094625 Q 68.43514,9.1819787 68.032838,9.8860058 h 0.719501 V 10.559087 Z M 62.485723,8.6520242 V 7.2246284 h 0.831681 v 1.4273958 h 0.769788 v 0.7697879 h -0.769788 v 1.2494549 q 0.286252,-0.09671 0.665344,-0.243702 l 0.09671,0.727237 q -0.448721,0.189546 -0.762051,0.309463 v 2.572407 q 0,0.340408 -0.123785,0.495139 -0.1586,0.193415 -0.618925,0.193415 -0.417775,0 -0.777525,-0.07737 L 61.63857,13.839389 q 0.464193,0.06963 0.67308,0.06963 0.119917,0 0.146995,-0.05029 0.02708,-0.04255 0.02708,-0.146995 V 11.76599 q -0.394565,0.131522 -0.800734,0.251439 l -0.235965,-0.796866 q 0.653739,-0.166336 0.982543,-0.266912 0.02708,-0.0077 0.05416,-0.01547 V 9.4218121 H 61.561204 V 8.6520242 Z M 63.920855,7.6694808 Q 66.326926,7.5611689 68.199174,7.2091553 L 68.721392,7.85129 Q 66.56676,8.2342498 64.222581,8.3735079 Z m 0.893573,2.1701057 Q 64.621014,9.1742421 64.346366,8.636551 l 0.715632,-0.2398334 q 0.324936,0.6305298 0.491272,1.1875623 z m 1.435133,-0.08897 Q 66.102566,9.0891399 65.789235,8.5166343 l 0.7195,-0.2398334 q 0.321068,0.564769 0.499009,1.2533231 z m 4.831484,-2.3519149 h 0.85489 v 2.1855788 q 0.920651,-0.9554654 1.473815,-1.3113473 0.514482,-0.3326722 1.067646,-0.3326722 0.557033,0 0.897441,0.3133308 0.448721,0.4177744 0.448721,1.0947236 0,0.1779409 -0.04642,0.4719303 -0.340409,2.1623689 -0.340409,2.9940499 0,0.355882 0.181809,0.355882 0.116048,0 0.305594,-0.131522 0.398433,-0.274648 0.804603,-0.90131 l 0.317199,0.885837 q -0.24757,0.394565 -0.615057,0.700159 -0.425511,0.355882 -0.909046,0.355882 -0.460325,0 -0.715632,-0.321068 -0.216624,-0.274648 -0.216624,-0.916782 0,-0.487404 0.127654,-1.466079 0.162467,-1.230113 0.216623,-1.8258286 0.0077,-0.096707 0.0077,-0.1624678 0,-0.3404088 -0.143127,-0.522218 Q 74.663074,8.690707 74.42324,8.690707 q -0.808471,0 -2.487305,2.154633 v 3.651657 h -0.85489 v -2.676851 q -0.646003,0.905178 -1.19143,1.709781 l -0.402302,-0.916783 q 0.916783,-1.110197 1.593732,-2.11595 V 9.5146509 H 69.723279 V 8.7371263 h 1.357766 z m 6.978381,0.9129143 h 2.085003 Q 80.488706,7.7623195 80.666647,7.425779 l 0.862627,0.123785 q -0.116048,0.2088872 -0.410038,0.6808175 l -0.05029,0.081234 h 2.727138 v 0.7620514 h -3.24162 q -0.506745,0.6962906 -0.96707,1.2069042 0.731105,-0.4371162 1.334557,-0.4371162 0.936124,0 1.226245,0.9399922 0.99028,-0.328804 2.019243,-0.649871 l 0.332672,0.750446 -0.13539,0.03868 -0.38296,0.100576 q -1.083118,0.293989 -1.73299,0.502876 0.04642,0.502877 0.06576,1.299743 l -0.847153,0.04642 q -0.0039,-0.460326 -0.01547,-0.998017 v -0.07737 q -1.779409,0.60732 -1.779409,1.222377 0,0.317199 0.456457,0.433247 0.440984,0.11218 1.578259,0.11218 1.048304,0 2.201052,-0.119917 l 0.09284,0.823944 q -1.117934,0.0851 -2.317101,0.0851 -1.477683,0 -2.100476,-0.224361 -0.769788,-0.278516 -0.769788,-1.001885 0,-0.611188 0.545427,-1.07925 0.564769,-0.483535 1.988297,-0.998017 -0.07737,-0.297857 -0.205019,-0.417774 -0.143126,-0.13539 -0.379092,-0.13539 -0.382959,0 -0.963202,0.290121 -0.715632,0.355882 -1.535707,1.071514 L 77.749963,11.27085 q 1.203036,-1.117933 1.883853,-2.1971832 h -1.57439 z M 88.635308,8.2690643 V 7.9363922 H 86.217632 V 7.3832279 h 5.709583 v 0.5531643 h -2.467963 v 0.3326721 h 3.202937 v 1.388713 H 91.822772 V 8.7680726 h -2.36352 V 10.272834 H 88.635308 V 8.7680726 h -2.320969 v 0.8897047 h -0.83168 v -1.388713 z m 2.738743,5.4890907 q 0.591847,0.224361 1.477683,0.355882 l -0.452589,0.657608 Q 91.157427,14.558889 90.360561,14.04054 89.567564,13.52219 89.12658,12.752402 h -0.854891 v 1.191431 q 0.854891,-0.119917 1.585996,-0.255307 l 0.05416,0.576374 q -1.361635,0.324936 -3.113967,0.564769 l -0.228228,-0.680817 q 0.60732,-0.06576 0.83168,-0.09284 l 0.04642,-0.0077 v -1.295874 h -0.847154 q -0.05416,0.680818 -0.177941,1.086987 -0.146995,0.487404 -0.47193,0.909046 l -0.688554,-0.568637 q 0.379091,-0.491272 0.47193,-1.14888 0.05029,-0.355881 0.05029,-0.885836 v -1.640151 h 6.676653 v 0.514481 h -5.844973 v 1.187563 h 6.177645 v 0.545427 h -0.8781 l 0.491272,0.324936 q -0.437116,0.363618 -1.032831,0.680817 z m -0.603452,-0.297857 q 0.557033,-0.379092 0.885836,-0.707896 h -1.690438 q 0.332672,0.425511 0.804602,0.707896 z M 86.654748,9.0543254 h 1.647888 v 0.4371158 h -1.647888 z m 0,0.7117637 h 1.647888 v 0.4448519 h -1.647888 z m 3.137176,-0.7117637 h 1.698175 v 0.4371158 h -1.698175 z m 0,0.7117637 h 1.698175 v 0.4448519 h -1.698175 z m -2.715533,1.5782589 h 4.81601 v 0.506745 h -4.81601 z M 97.598109,7.920919 h 3.032731 v 0.6498713 h -1.717515 v 0.6421346 h 1.609205 V 9.8395865 H 98.913325 V 10.992334 H 95.799358 V 9.8395865 h -1.268796 v 0.7195005 q 0,1.752331 -0.185677,2.769689 -0.143127,0.773656 -0.464194,1.411923 l -0.704027,-0.557033 q 0.293989,-0.638266 0.402301,-1.558917 0.09671,-0.808471 0.09671,-2.065662 V 7.920919 h 3.05981 V 7.2246284 h 0.862627 z m -3.067547,0.6498713 v 0.6421346 h 1.268796 V 8.5707903 Z m 2.09274,0 v 0.6421346 h 1.466079 V 8.5707903 Z m 0,1.2687962 V 10.43917 h 1.466079 V 9.8395865 Z m 0.897442,4.0616955 q -1.117934,0.580242 -2.839319,0.881968 l -0.402301,-0.711764 q 1.616941,-0.193414 2.533724,-0.591847 -0.785261,-0.568637 -1.342293,-1.35003 h -0.533823 v -0.673081 h 4.529757 l 0.406169,0.340409 q -0.576373,0.885836 -1.644019,1.667229 0.916783,0.367487 2.498911,0.541559 l -0.45259,0.731105 q -1.516367,-0.205019 -2.754216,-0.835548 z m -1.14888,-1.771673 q 0.468062,0.549296 1.137275,0.96707 0.754314,-0.487403 1.164352,-0.96707 z m 6.618626,-0.232097 v 1.404186 q 0,0.305594 0.22436,0.367487 0.33268,0.09284 2.20106,0.09284 1.65949,0 2.06566,-0.09671 0.19341,-0.04642 0.24757,-0.216624 0.0658,-0.193414 0.10444,-0.90131 l 0.85489,0.263043 q -0.0425,0.762052 -0.12378,1.044436 -0.10445,0.367487 -0.38683,0.499009 -0.20115,0.09284 -0.55703,0.116048 -0.91679,0.06576 -2.39447,0.06576 -2.06953,0 -2.46023,-0.0735 -0.44098,-0.08123 -0.56863,-0.386828 -0.0619,-0.154731 -0.0619,-0.386828 V 9.7158015 l -0.0387,0.030946 q -0.17794,0.1276533 -0.42164,0.2823843 l -0.52996,-0.6421344 q 1.38098,-0.7581831 2.33645,-2.1623692 l 0.54156,0.371355 h 2.20105 l 0.41004,0.4255109 q -0.51062,0.7233686 -1.06765,1.3036108 h 2.47957 v 2.5724069 z m 0,-0.688554 h 1.66337 v -1.172089 h -1.66337 z m 2.49505,-1.172089 v 1.172089 h 1.69817 v -1.172089 z m -0.89745,-0.7117639 q 0.49901,-0.522218 0.85103,-1.0250945 h -1.78715 q -0.42938,0.5260862 -1.02123,1.0250945 z m 6.98225,5.4271989 q -0.70789,-0.638267 -1.16048,-1.558918 -0.55703,-1.133406 -0.55703,-2.208788 0,-1.2185089 0.70016,-2.4795685 0.42551,-0.7620514 1.01735,-1.2804011 h 0.75432 q -0.51835,0.5957153 -0.83555,1.0985919 -0.8046,1.2842693 -0.8046,2.6691137 0,1.307479 0.7195,2.52212 0.34041,0.572505 0.92065,1.23785 z m 6.12349,-4.692226 q -0.004,1.218509 0.5609,2.092741 0.7814,1.218508 2.29776,1.837433 l -0.5609,0.74271 q -2.03085,-1.01349 -2.63817,-2.696192 -0.24757,0.920651 -0.78526,1.539576 -0.60345,0.688554 -1.72525,1.203035 l -0.52996,-0.711763 q 1.40806,-0.440984 2.03472,-1.628547 0.49127,-0.928387 0.49127,-2.402202 V 8.6017365 h 0.85489 z m -3.21067,-1.6865701 v 1.609205 q 0,1.8838531 -0.10445,2.7735571 -0.11991,1.048305 -0.53769,1.945746 l -0.76592,-0.622793 q 0.38683,-0.800735 0.49128,-1.852907 0.0619,-0.65374 0.0619,-1.856775 V 7.60372 h 6.70373 v 0.7697879 z m 0.15086,3.2880391 q 0.50288,-1.056041 0.59572,-2.2126569 l 0.8162,0.096707 q -0.1586,1.0444359 -0.3288,1.6092049 -0.14313,0.479667 -0.37522,0.909046 z m 3.73289,-0.317199 q 0.65761,-0.897441 1.14115,-2.0269795 l 0.78526,0.3558819 q -0.52222,1.1101966 -1.28427,2.0656626 z m 4.46787,0.553164 v 1.404186 q 0,0.305594 0.22436,0.367487 0.33267,0.09284 2.20105,0.09284 1.65949,0 2.06566,-0.09671 0.19342,-0.04642 0.24757,-0.216624 0.0658,-0.193414 0.10445,-0.90131 l 0.85489,0.263043 q -0.0426,0.762052 -0.12379,1.044436 -0.10444,0.367487 -0.38683,0.499009 -0.20115,0.09284 -0.55703,0.116048 -0.91678,0.06576 -2.39446,0.06576 -2.06954,0 -2.46023,-0.0735 -0.44099,-0.08123 -0.56864,-0.386828 -0.0619,-0.154731 -0.0619,-0.386828 V 9.7158015 l -0.0387,0.030946 q -0.17795,0.1276533 -0.42165,0.2823843 l -0.52995,-0.6421344 q 1.38097,-0.7581831 2.33644,-2.1623692 l 0.54156,0.371355 h 2.20105 l 0.41004,0.4255109 q -0.51061,0.7233686 -1.06765,1.3036108 h 2.47957 v 2.5724069 z m 0,-0.688554 h 1.66336 v -1.172089 h -1.66336 z m 2.49504,-1.172089 v 1.172089 h 1.69818 v -1.172089 z m -0.89744,-0.7117639 q 0.49901,-0.522218 0.85102,-1.0250945 h -1.78715 q -0.42937,0.5260862 -1.02122,1.0250945 z m 4.84309,5.4271989 q 0.51835,-0.595716 0.83555,-1.098592 0.8046,-1.28427 0.8046,-2.661378 0,-1.3152153 -0.7195,-2.5298556 -0.33654,-0.5647691 -0.92065,-1.23785 h 0.75431 q 0.7079,0.6421347 1.16049,1.5589173 0.55703,1.1334064 0.55703,2.2049203 0,1.222377 -0.70403,2.483436 -0.42164,0.758184 -1.01349,1.280402 z m 3.93791,-6.5876833 q 3.55881,-0.054156 6.72694,-0.1818092 l 0.0464,0.769788 q -1.39645,0.069629 -2.17398,0.4255109 -0.74271,0.3404087 -1.19143,0.9438606 -0.51061,0.684686 -0.51061,1.524103 0,0.835548 0.58024,1.253323 0.66534,0.475798 2.04245,0.653739 L 138.5516,14.4235 q -1.79488,-0.239834 -2.52598,-0.928388 -0.78527,-0.734973 -0.78527,-1.825829 0,-0.99028 0.71177,-1.8490379 0.51835,-0.6305299 1.41966,-1.0134897 -1.5976,0.054156 -4.11972,0.1818092 z m 5.62448,3.3383263 q -0.22823,-0.60732 -0.76979,-1.377108 l 0.60345,-0.22436 q 0.48354,0.665344 0.77752,1.361635 z m 1.04443,-0.406169 q -0.27465,-0.711764 -0.76592,-1.3848448 l 0.57638,-0.2050189 q 0.45259,0.5492957 0.76978,1.3306887 z"></path>
        <path id="path47" d="m 12.252225,23.822649 0.05416,0.692423 q -1.678834,0.591847 -3.7328918,0.974807 L 8.2872364,24.716222 Q 8.6431183,24.662066 9.2929895,24.54215 V 23.126359 Q 8.6237769,23.466767 7.6992577,23.772362 L 7.2582736,23.083808 q 1.8606433,-0.502877 2.8393184,-1.28427 H 7.3356393 v -0.673081 h 3.3151167 v -0.58411 H 8.14411 v -0.649871 h 2.506646 V 19.347048 H 7.7495453 v -0.665344 h 2.9012107 v -0.762052 h 0.847154 v 0.762052 h 2.986313 v 0.665344 H 11.49791 v 0.545428 h 2.591748 v 0.649871 H 11.49791 v 0.58411 h 3.400219 v 0.673081 H 13.97361 l 0.572505,0.394565 q -0.529954,0.514481 -1.48542,1.12567 l -0.08897,0.05802 q 0.727237,0.665344 1.972823,1.098592 L 14.42233,25.26165 Q 13.0723,24.689144 12.252225,23.822649 Z m -1.17209,-2.011506 q -0.386828,0.452589 -0.932255,0.812339 v 1.736858 q 0.955465,-0.212755 1.918667,-0.49514 l 0.177941,-0.05029 q -0.792998,-0.8781 -1.164353,-2.00377 z m 1.411923,1.056041 q 0.688554,-0.491272 1.206904,-1.067646 h -1.829697 q 0.24757,0.591847 0.622793,1.067646 z m 7.017062,-1.651756 v 3.431165 q 0,0.468062 -0.189546,0.638267 -0.177941,0.154731 -0.688554,0.154731 -0.580242,0 -1.10246,-0.0735 l -0.166336,-0.816208 q 0.541559,0.08897 1.036699,0.08897 0.166336,0 0.208888,-0.05803 0.03095,-0.05029 0.03095,-0.166336 V 21.215428 H 15.312035 V 20.44564 h 7.454178 v 0.769788 z m -3.268698,-2.866396 h 5.593535 v 0.762051 h -5.593535 z m -0.974806,5.933943 q 0.835548,-0.874232 1.346161,-2.324837 l 0.800735,0.301726 q -0.591847,1.659492 -1.489289,2.607221 z m 6.63797,0.47193 q -0.800734,-1.694307 -1.392581,-2.479568 l 0.727237,-0.433248 q 0.851022,1.094724 1.450605,2.382862 z m 2.054057,-6.510317 h 0.912915 v 4.610991 q 0,1.458342 1.531839,1.458342 1.009621,0 1.655624,-0.932256 0.417775,-0.599583 0.750447,-1.856775 l 0.785261,0.475799 q -0.394565,1.396449 -0.947729,2.088872 -0.870363,1.07925 -2.262944,1.07925 -1.454474,0 -2.050189,-0.897441 -0.375224,-0.560901 -0.375224,-1.446737 z m 9.539182,-0.143126 h 0.85489 v 0.974806 h 2.433149 v 0.734974 h -2.433149 v 0.920651 h 2.297759 v 0.727237 h -2.297759 v 1.195298 q 1.377108,0.464194 2.715533,1.39645 l -0.456457,0.734973 q -1.01349,-0.758183 -2.259076,-1.338425 -0.03095,0.661476 -0.255307,1.025095 -0.390696,0.630529 -1.539576,0.630529 -0.885836,0 -1.423527,-0.332672 -0.599584,-0.371355 -0.599584,-1.005753 0,-0.758183 0.808471,-1.121801 0.54156,-0.239834 1.408055,-0.239834 0.340408,0 0.746578,0.05416 V 21.45913 h -2.742612 v -0.727237 h 2.742612 v -0.920651 h -2.908948 v -0.734974 h 2.908948 z m 0,5.075184 q -0.460326,-0.09671 -0.881968,-0.09671 -0.514482,0 -0.835549,0.150863 -0.38296,0.18181 -0.38296,0.51835 0,0.282385 0.297858,0.456457 0.301726,0.177941 0.804602,0.177941 0.595716,0 0.820076,-0.317199 0.177941,-0.24757 0.177941,-0.738842 z m 8.21236,-5.098394 h 0.870363 v 1.067645 h 2.282286 v 0.746579 H 42.579548 V 21.5481 q 0.13539,0.475799 0.13539,0.847154 0,1.377108 -0.607321,2.023111 -0.661476,0.707895 -1.992164,0.978675 l -0.440984,-0.657608 q 1.032831,-0.197282 1.531839,-0.557033 0.468062,-0.340408 0.63053,-0.924519 -0.413906,0.452589 -0.986412,0.452589 -0.642135,0 -1.040567,-0.363618 -0.468063,-0.429379 -0.468063,-1.245587 0,-0.429379 0.205019,-0.827812 0.13539,-0.255306 0.332673,-0.425511 0.456457,-0.386828 1.094723,-0.386828 0.40617,0 0.734974,0.193414 v -0.762051 h -3.817994 v -0.746579 h 3.817994 z m 0.03095,4.015276 v -0.143127 q 0,-0.24757 -0.116049,-0.437116 -0.216623,-0.355881 -0.626661,-0.355881 -0.208887,0 -0.390697,0.116048 -0.425511,0.266911 -0.425511,0.820076 0,0.348145 0.154732,0.587978 0.216623,0.332673 0.638266,0.332673 0.38296,0 0.60732,-0.344277 0.1586,-0.243702 0.1586,-0.576374 z m 5.291809,0.529954 q 0.309463,0 0.595716,0.146995 0.317199,0.158599 0.514481,0.460325 0.216624,0.336541 0.216624,0.727237 0,0.468062 -0.305595,0.839417 -0.398432,0.491272 -1.028962,0.491272 -0.243702,0 -0.475799,-0.08897 -0.348145,-0.139258 -0.572506,-0.433247 -0.278516,-0.363618 -0.278516,-0.816207 0,-0.274648 0.119917,-0.537691 0.255307,-0.568638 0.85489,-0.738842 0.177941,-0.05029 0.35975,-0.05029 z m -0.0077,0.611189 q -0.263043,0 -0.471931,0.189545 -0.243701,0.212756 -0.243701,0.533823 0,0.127653 0.04642,0.251438 0.0735,0.18181 0.228229,0.305595 0.20115,0.162467 0.44872,0.162467 0.193414,0 0.367487,-0.108311 0.348145,-0.216624 0.348145,-0.611189 0,-0.170204 -0.0851,-0.332672 -0.208887,-0.390696 -0.638266,-0.390696 z"></path>
      </g>
    </g>
  </g>
</svg>


