<svg xmlns="http://www.w3.org/2000/svg" id="svg1" version="1.1" height="200" width="990">
  <defs id="defs1"></defs>
  <rect id="rect1" stroke="none" fill="none" height="200" width="990" y="0" x="0"></rect>
  <path aria-label="福島県沖" style="font-size:100px;font-family:'BIZ UDPGothic';fill:#ff0000" id="text1" d="m 25.537109,107.95898 q 7.617188,5.41993 14.306641,11.42579 l -4.541016,6.59179 q -3.710937,-4.24804 -9.765625,-9.81445 v 43.31055 h -7.617187 v -42.72461 q -6.005859,6.88476 -12.3046876,12.45117 l -4.0039063,-6.93359 q 9.8144529,-8.10547 17.6757809,-18.50586 5.908203,-7.812504 9.521485,-15.673833 H 3.6132813 V 81.005859 H 17.822266 V 64.501953 h 7.519531 v 16.503906 h 9.375 l 3.515625,3.90625 Q 33.740234,95.458984 25.537109,107.17773 Z M 89.404297,82.177734 V 106.68945 H 45.507812 V 82.177734 Z m -36.71875,6.00586 V 100.68359 H 81.884766 V 88.183594 Z M 94.53125,113.62305 v 45.84961 h -7.324219 v -4.58985 h -39.0625 v 4.58985 h -7.324219 v -45.84961 z m -46.386719,6.20117 v 11.08398 h 15.771485 v -11.08398 z m 0,17.08984 v 11.66992 h 15.771485 v -11.66992 z m 39.0625,11.66992 v -11.66992 h -16.40625 v 11.66992 z m 0,-17.67578 V 119.82422 H 70.800781 V 130.9082 Z M 39.013672,68.896484 h 57.27539 v 6.494141 H 39.013672 Z M 168.01758,149.21875 h -53.8086 v 5.71289 h -7.71484 v -23.0957 h 7.71484 v 11.18164 h 19.0918 v -14.69727 h -19.0918 V 73.291016 h 23.97461 q 3.36914,-4.931641 5.41993,-9.179688 l 8.6914,2.001953 q -2.39258,3.515625 -5.46875,7.177735 h 35.25391 v 30.517574 h -59.96094 v 6.00586 h 75.3418 v 6.10352 h -75.3418 v 6.29883 h 70.94727 q -0.73243,23.87695 -3.32032,30.71289 -1.5625,4.19922 -5.51757,5.66406 -2.5879,0.92773 -6.83594,0.92773 -6.15235,0 -11.76758,-0.8789 l -1.61133,-7.22656 q 6.73828,1.02539 12.10938,1.02539 4.24804,0 5.37109,-1.95313 2.24609,-3.90625 3.36914,-22.16797 h -43.94531 v 14.69727 h 19.58008 v -11.18164 h 7.51953 z M 122.11914,79.296875 v 6.298828 h 52.09961 v -6.298828 z m 0,12.011719 v 6.689453 h 52.09961 V 91.308594 Z M 282.86133,67.578125 V 114.4043 H 225.78125 V 67.578125 Z m -49.36524,6.005859 v 7.714844 h 41.55274 v -7.714844 z m 0,13.330078 v 7.763672 h 41.55274 v -7.763672 z m 0,13.476568 v 8.30078 h 41.55274 v -8.30078 z M 214.4043,122.2168 h 83.05664 v 6.49414 h -41.99219 v 30.81054 h -7.91016 V 128.71094 H 206.5918 V 74.267578 h 7.8125 z m -9.22852,29.6875 q 12.79297,-6.15235 23.0957,-19.28711 l 6.5918,3.66211 q -10.40039,13.62304 -24.07226,21.72851 z m 84.17969,4.10156 q -10.25391,-11.18164 -23.29102,-19.82422 l 6.00586,-4.49219 q 11.76758,7.37305 23.68164,18.79883 z M 358.69141,85.302734 V 64.501953 h 7.71484 v 20.800781 h 27.7832 v 40.478516 h -27.7832 v 33.69141 h -7.71484 v -33.69141 h -26.9043 V 85.302734 Z m -19.38477,6.982422 v 26.513674 h 19.38477 V 92.285156 Z m 47.26563,26.513674 V 92.285156 H 366.40625 V 118.79883 Z M 321.77734,86.621094 q -6.54297,-8.34961 -15.2832,-15.527344 l 5.32227,-5.273438 q 8.30078,6.201172 15.67382,14.990235 z m -3.66211,25.488286 q -7.66601,-8.8379 -15.91796,-15.527349 l 5.41992,-5.46875 q 8.39843,6.201172 16.16211,14.990239 z m -13.7207,40.57617 q 9.52149,-12.69532 17.48047,-32.86133 l 6.29883,5.07812 q -7.32422,19.14063 -17.08985,33.69141 z"></path>
</svg>
