<svg xmlns="http://www.w3.org/2000/svg" id="svg1" version="1.1" height="200" width="990">
  <defs id="defs1"></defs>
  <rect id="rect1" stroke="none" fill="none" height="200" width="990" y="0" x="0"></rect>
  <path aria-label="陸奥湾" style="font-size:100px;font-family:'BIZ UDPGothic';fill:#ff0000" id="text1" d="m 67.724609,92.480469 h 28.173828 v 6.49414 H 76.220703 v 10.791021 q 0,1.70898 0.78125,2.0996 0.830078,0.39063 4.931641,0.39063 3.466797,0 4.541015,-0.39063 1.269532,-0.43945 1.757813,-2.53906 0.390625,-1.51367 0.585937,-5.66406 l 6.884766,2.29492 q -0.195313,8.98438 -3.417969,11.2793 -2.34375,1.66015 -10.15625,1.66015 -8.105469,0 -10.302734,-0.8789 -2.929688,-1.12305 -2.929688,-5.32227 V 98.974609 h -11.71875 q -1.513672,8.398441 -5.46875,13.427731 -4.296875,5.41993 -13.28125,8.88672 l -4.638672,-5.51758 Q 48.046875,111.57227 50.048828,98.974609 H 33.398437 v -6.49414 H 60.205078 V 82.080078 H 38.183594 V 75.683594 H 60.205078 V 64.599609 h 7.519531 v 11.083985 h 23.779297 v 6.396484 H 67.724609 Z M 6.0058594,68.896484 H 30.224609 l 3.90625,3.417969 q -4.15039,15.771484 -9.326172,27.880857 8.496094,10.49805 8.496094,24.90235 0,5.46875 -1.220703,8.64257 -2.001953,5.32227 -8.789062,5.32227 -2.978516,0 -6.347657,-0.58594 l -1.80664,-7.27539 q 3.857422,0.6836 6.591797,0.6836 2.685546,0 3.320312,-1.85547 0.732422,-1.95313 0.732422,-6.5918 0,-12.35352 -8.349609,-22.55859 4.345703,-10.449223 8.203125,-25.195316 H 13.330078 V 159.47266 H 6.0058594 Z M 60.205078,128.22266 v -12.5 h 7.617188 v 12.5 h 23.779296 v 6.39648 H 67.822266 v 14.20898 h 30.078125 v 6.78711 h -67.1875 v -6.78711 H 60.205078 V 134.61914 H 37.695312 v -6.39648 z m 98.388672,-24.51172 q 8.10547,4.49219 15.67383,10.20508 l -4.78516,5.51757 q -7.03125,-6.54296 -16.40625,-12.79296 v 11.76757 h -6.98242 v -11.96289 q -7.12891,9.61914 -18.11523,15.18555 l -4.49219,-5.32227 q 10.83984,-4.73632 17.67578,-12.59765 h -16.25977 v -5.810549 h 21.19141 V 83.105469 h 6.98242 v 14.794922 h 22.11914 v 5.810549 z m -2.19727,29.6875 q 11.81641,13.76953 40.91797,18.31054 l -4.73633,7.17774 q -15.96679,-3.07617 -27.92968,-10.15625 -8.69141,-5.07813 -14.45313,-12.74414 -0.19531,0.29297 -0.43945,0.83008 -9.08203,17.23632 -41.74805,22.46093 l -4.29687,-6.78711 q 31.25,-3.71093 40.13672,-19.09179 h -41.35743 v -6.39649 h 43.21289 v -6.10351 h 7.76368 v 6.10351 h 44.04297 v 6.39649 z M 140.23437,74.121094 q 2.44141,-5.273438 3.56446,-9.91211 l 8.59375,1.416016 q -2.58789,5.615234 -4.29688,8.496094 h 38.1836 V 123.4375 h -7.61719 V 80.517578 h -57.4707 V 123.4375 h -7.71485 V 74.121094 Z m -5.2246,23.388672 q -3.27149,-6.298829 -6.83594,-10.595704 l 5.81054,-3.125 q 3.36915,3.857422 7.22657,10.595704 z m 23.19335,-2.587891 q 3.66211,-5.322266 6.20118,-11.425781 l 6.88476,2.490234 q -3.07617,6.25 -7.17773,11.621094 z M 265.08789,73.583984 h 32.12891 v 6.298828 h -23.38868 v 19.189454 q 0,3.076174 -1.5625,4.492184 -1.5625,1.41602 -5.66406,1.41602 -5.02929,0 -8.49609,-0.48828 l -1.12305,-6.298831 q 4.39453,0.683594 7.4707,0.683594 1.61133,0 1.9043,-1.171875 0.14649,-0.537109 0.14649,-1.416016 v -16.40625 h -10.64454 q -0.43945,9.91211 -2.24609,14.794922 -2.63672,6.982426 -12.01172,11.914066 l -5.07812,-4.83399 q 8.49609,-4.052732 10.69336,-10.058591 1.46484,-4.003907 1.61132,-11.816407 h -21.82617 v -6.298828 h 30.32227 v -9.082031 h 7.76367 z m 24.60938,35.009766 v 18.79883 h -49.60938 q -0.53711,3.90625 -1.31836,7.32422 h 55.32227 q -0.97657,12.30468 -3.41797,18.01757 -1.66016,3.95508 -5.95703,5.56641 -3.32032,1.2207 -9.22852,1.2207 -7.91016,0 -15.86914,-0.78125 l -1.70898,-7.03125 q 10.69336,1.12305 17.48046,1.12305 4.19922,0 5.66407,-0.97656 2.58789,-1.70899 4.15039,-11.03516 h -47.94922 q -0.73242,2.68555 -1.66016,5.71289 l -7.71484,-1.80664 q 2.92969,-8.64258 5.32226,-23.24218 h 48.68165 v -6.98243 h -52.39258 v -5.9082 z M 219.18945,86.083984 q -6.29883,-8.349609 -13.96484,-15.08789 l 5.37109,-4.980469 q 7.37305,5.810547 14.20899,14.501953 z m -3.07617,25.439456 q -7.4707,-9.13086 -14.50195,-15.136721 l 5.32226,-5.273438 q 7.56836,6.103516 14.79493,14.501949 z m -12.30469,41.69922 q 8.4961,-12.74414 15.91797,-33.39844 l 6.00586,4.39453 q -6.39648,19.28711 -15.42969,34.66797 z m 87.89063,-50.14649 Q 284.86328,93.261719 276.9043,85.791016 l 5.32226,-3.90625 q 9.08203,7.666015 15.28321,16.699218 z m -69.28711,-4.589842 q 8.44726,-6.054687 13.62305,-15.478516 l 6.29882,2.587891 q -5.22461,10.546875 -14.50195,17.480467 z"></path>
</svg>
