<svg xmlns="http://www.w3.org/2000/svg" id="svg1" version="1.1" height="200" width="1096">
  <defs id="defs1"></defs>
  <rect id="rect1" stroke="none" fill="none" height="200" width="1096" y="0" x="0"></rect>
  <path aria-label="オーストラリア付近" style="font-weight:bold;font-size:110px;font-family:'BIZ UDPGothic';fill:#ff0000" id="text1" d="M 61.982422,59.335937 H 74.282227 V 80.014648 H 99.794922 V 91.025391 H 74.282227 v 53.120119 q 0,5.9082 -2.094727,8.54004 -2.416992,3.11523 -9.882813,3.11523 -8.432617,0 -16.596679,-0.53711 L 42.807617,143.6084 q 8.432617,0.75195 15.952149,0.75195 2.524414,0 2.954101,-1.12793 0.268555,-0.64453 0.268555,-1.93359 V 96.503906 Q 51.508789,111.81152 39.047852,123.68164 27.768555,134.42383 11.870117,143.28613 L 4.1894531,132.8125 Q 33.891602,117.71973 53.603516,91.025391 H 6.4990234 V 80.014648 H 61.982422 Z m 46.889648,40.927733 h 94.58496 v 12.08496 H 108.87207 Z M 221.93359,66.962891 h 64.77539 l 7.14356,6.284179 q -9.07715,21.484375 -21.64551,39.04785 17.83203,13.96485 33.99902,31.47461 l -8.91601,10.09766 q -15.84473,-17.99317 -32.22656,-32.54883 -17.61719,20.78613 -44.58008,32.87109 l -6.44531,-11.11816 q 20.03418,-8.16406 33.35449,-20.35645 12.46094,-11.38671 22.82715,-28.090817 5.53222,-8.969726 8.59375,-16.65039 h -56.87989 z m 107.20703,-7.949219 h 12.51465 V 89.84375 q 32.06543,9.882812 53.12012,20.19531 l -6.01562,11.60157 q -20.19532,-10.25879 -47.1045,-19.49708 v 54.57032 h -12.51465 z m 84.86329,4.726562 h 70.84472 v 11.010743 h -70.84472 z m -7.68067,26.31836 h 89.42871 q -2.36328,23.417966 -9.77539,36.630856 -5.58594,9.93653 -13.96484,15.84473 -14.17969,10.09766 -41.25,13.85742 l -5.42481,-10.90332 q 23.90137,-2.30957 36.57715,-10.95703 16.43555,-11.11816 18.85254,-33.46191 H 406.32324 Z M 515.89355,60.463867 h 12.51465 v 58.759763 h -12.51465 z m 55.16114,-1.12793 h 12.51465 v 38.403321 q 0,20.249022 -3.27637,30.131832 -2.73926,8.43262 -7.46582,13.42774 -9.8291,10.58105 -31.58203,15.62988 l -6.17676,-11.01074 q 23.79394,-4.83399 30.50781,-16.05957 4.24317,-7.14356 5.10254,-18.04688 0.37598,-5.04882 0.37598,-13.96484 z m 31.52832,7.626954 h 84.16504 l 6.92871,5.854492 q -3.00781,11.225586 -7.8418,18.745117 -9.07715,14.2334 -27.17773,21.26953 l -6.76758,-9.23828 q 12.51465,-3.759766 20.78613,-13.481445 4.8877,-5.747071 6.82129,-12.138672 h -76.91406 z m 34.42871,23.203125 h 12.2998 v 9.238281 q 0,20.786133 -4.61914,32.119143 -5.85449,14.39453 -22.77343,23.41797 l -8.86231,-9.34571 q 11.65527,-5.53222 17.02637,-13.21289 4.13574,-5.96191 5.4248,-12.62207 1.50391,-7.62695 1.50391,-20.463865 z m 91.41601,-4.189454 V 160.47363 H 716.77246 V 105.3125 q -4.35059,6.12305 -10.09766,12.67578 l -6.06933,-11.54785 q 10.90332,-12.084961 18.6914,-28.144532 4.72657,-9.721679 9.45313,-23.203125 l 11.22559,3.061524 q -4.8877,14.716797 -11.54786,27.822265 z M 789.60449,81.25 h 16.16699 v 10.795898 h -16.16699 v 56.396482 q 0,7.08985 -3.4375,9.45313 -2.52441,1.77246 -9.50683,1.77246 -8.54004,0 -17.50977,-0.9668 l -2.30957,-11.76269 q 9.56055,1.39648 17.83203,1.39648 2.25586,0 2.73926,-0.9668 0.32226,-0.69824 0.32226,-2.30957 V 92.045898 H 733.79883 V 81.25 h 43.93554 V 57.832031 h 11.87012 z m -33.99902,52.0459 q -6.06934,-16.16699 -14.98535,-29.48731 l 10.25879,-5.96191 q 9.66796,14.2334 15.52246,29.16504 z m 83.25195,2.73926 q 4.29688,4.99511 9.66797,7.41211 8.80859,3.9746 23.0957,3.9746 h 45.76172 q -1.93359,3.65235 -3.59863,10.47364 h -42.7002 q -18.47656,0 -28.30566,-5.80078 -4.02832,-2.417 -8.8623,-7.89551 -0.37598,0.42969 -0.91309,1.07422 -7.89551,9.3457 -15.68359,15.2539 l -6.49903,-11.01074 q 8.54004,-5.10254 16.48926,-11.54785 v -26.5332 h -15.62988 v -10.58106 h 27.17773 z m 13.96485,-71.274418 2.84668,-0.214844 q 24.86816,-1.71875 44.6875,-7.358398 l 8.3789,9.453125 q -20.83984,5.478516 -44.47265,7.412109 v 13.911133 h 49.73632 V 98.4375 h -18.04687 v 43.77441 H 884.08203 V 98.4375 H 864.2627 q -0.26856,17.24121 -2.57813,27.44629 -2.09473,9.39941 -6.875,16.86523 l -9.88281,-7.46582 q 5.31738,-8.27148 6.82129,-20.51757 1.07422,-8.43262 1.07422,-22.934575 z M 832.94922,85.761719 Q 824.73145,74.160156 815.22461,64.975586 l 8.80859,-7.036133 q 9.23828,7.734375 18.58399,19.658203 z"></path>
</svg>
