<svg xmlns="http://www.w3.org/2000/svg" id="svg1" version="1.1" height="200" width="990">
  <defs id="defs1"></defs>
  <rect id="rect1" stroke="none" fill="none" height="200" width="990" y="0" x="0"></rect>
  <path aria-label="山梨県東部・富士五湖" style="font-size:100px;font-family:'BIZ UDPGothic';fill:#ff0000" id="text1" d="M 53.613281,141.89453 H 81.787109 V 85.302734 h 8.105469 v 73.388676 h -8.105469 v -9.17969 H 18.115234 v 9.17969 H 10.009766 V 85.302734 h 8.105468 V 141.89453 H 45.605469 V 65.478516 h 8.007812 z M 127.7832,92.431641 q -6.78711,10.546879 -18.60351,18.994139 l -5.12696,-5.32226 Q 116.74805,98.486328 124.6582,87.207031 H 105.07813 V 81.103516 H 127.7832 V 73.583984 Q 120.70313,74.414062 110.79102,75 l -2.63672,-5.615234 q 23.58398,-1.660157 38.42773,-4.882813 l 3.90625,5.224609 q -7.08008,1.660157 -15.38086,2.88086 v 8.496094 h 19.18945 v 6.103515 h -19.18945 v 3.027344 l 0.73242,0.341797 q 9.76563,4.248047 18.16407,9.521488 l -4.19922,5.9082 q -7.71485,-5.51758 -14.69727,-9.423829 v 17.626949 h -7.32422 z m 32.51953,33.642579 q 10.44922,8.98437 22.11914,14.64844 6.64063,3.27148 15.47852,6.34765 l -4.78516,6.98242 q -25.39062,-10.44921 -39.59961,-26.31835 v 31.73828 h -7.71484 v -31.78711 q -14.01367,17.67578 -38.91601,28.07617 l -4.58985,-6.49414 Q 125,140.82031 139.30664,126.07422 h -36.62109 v -6.39649 h 43.11523 v -9.9121 h 7.71484 v 9.9121 h 43.79883 v 6.39649 z m -0.24414,-56.787111 h 7.61719 v 30.029297 h -7.61719 z m 22.90039,-2.783203 h 7.71485 v 38.818364 q 0,4.0039 -1.85547,5.76171 -1.80664,1.70899 -6.39649,1.70899 -6.49414,0 -12.25585,-0.58594 l -1.51368,-6.49414 q 7.66602,0.68359 11.52344,0.68359 1.95313,0 2.44141,-0.92773 0.34179,-0.68359 0.34179,-2.14844 z m 99.90235,1.074219 V 114.4043 H 225.78125 V 67.578125 Z m -49.36524,6.005859 v 7.714844 h 41.55274 v -7.714844 z m 0,13.330078 v 7.763672 h 41.55274 v -7.763672 z m 0,13.476568 v 8.30078 h 41.55274 v -8.30078 z M 214.4043,122.2168 h 83.05664 v 6.49414 h -41.99219 v 30.81054 h -7.91016 V 128.71094 H 206.5918 V 74.267578 h 7.8125 z m -9.22852,29.6875 q 12.79297,-6.15235 23.0957,-19.28711 l 6.5918,3.66211 q -10.40039,13.62304 -24.07226,21.72851 z m 84.17969,4.10156 q -10.25391,-11.18164 -23.29102,-19.82422 l 6.00586,-4.49219 q 11.76758,7.37305 23.68164,18.79883 z m 71.97265,-29.39453 q 14.01368,12.84179 36.76758,20.50781 l -4.73633,6.98242 q -10.54687,-3.95508 -18.31054,-8.54492 -12.10938,-7.22656 -21.53321,-18.06641 v 32.03125 h -7.71484 v -31.83593 q -5.76172,7.51953 -14.30664,14.20898 -10.88867,8.49609 -24.31641,13.81836 l -4.78515,-6.29883 q 21.97265,-8.00781 35.79101,-22.80273 H 311.57227 V 87.792969 h 34.22851 v -8.007813 h -41.74805 v -6.591797 h 41.74805 v -8.691406 h 7.71484 v 8.691406 h 42.38282 v 6.591797 h -42.38282 v 8.007813 h 34.76563 V 126.61133 Z M 345.80078,94.091797 h -26.41601 v 9.814453 h 26.41601 z m 7.71484,0 v 9.814453 h 27.05079 v -9.814453 z m -7.71484,15.917973 h -26.41601 v 10.30273 h 26.41601 z m 7.71484,0 v 10.30273 h 27.05079 v -10.30273 z m 80.46875,-33.398442 h 21.82618 v 6.787109 h -7.03125 q -2.05078,9.13086 -5.61524,18.701173 h 14.45313 v 6.88477 h -55.12696 v -6.88477 h 13.72071 l -0.0977,-0.48828 Q 414.0625,91.601562 411.71875,84.423828 l -0.3418,-1.025391 h -7.08008 v -6.787109 h 22.2168 V 64.501953 h 7.4707 z m -15.13671,6.787109 q 2.58789,7.958985 4.73632,18.701173 h 12.15821 q 2.92968,-8.105469 5.32226,-18.701173 z m 31.83593,35.888673 v 39.30664 h -7.32422 v -5.51758 h -25.97656 v 6.39649 h -7.56836 v -40.18555 z m -33.30078,6.68945 v 20.3125 h 25.97656 v -20.3125 z m 65.42969,-22.70508 q 12.8418,13.57422 12.8418,29.44336 0,5.56641 -2.00196,8.39844 -2.4414,3.27149 -8.49609,3.27149 -5.81055,0 -10.69336,-0.6836 l -1.61133,-7.61719 q 6.25,1.02539 10.15625,1.02539 3.71094,0 4.39453,-2.49023 0.29297,-1.07422 0.29297,-3.51562 0,-13.72071 -12.64648,-26.70899 5.85937,-12.695311 9.52148,-26.708983 h -15.42969 v 81.787113 h -7.37304 V 70.507812 h 27.49023 l 4.39453,3.808594 q -5.37109,17.382813 -10.83984,28.955074 z m 42.28516,-0.29296 q 3.75976,0 6.49414,2.92968 2.4414,2.53907 2.4414,6.10352 0,2.53906 -1.41601,4.78516 -2.68555,4.19921 -7.66602,4.19921 -2.14844,0 -4.10156,-1.02539 -4.83399,-2.58789 -4.83399,-8.05664 0,-4.54101 3.8086,-7.27539 2.34375,-1.66015 5.27344,-1.66015 z m 78.41796,-29.687504 h 39.69727 v 16.699218 h -7.71484 V 79.296875 h -71.38672 v 10.693359 h -7.71485 V 73.291016 h 39.4043 v -8.789063 h 7.71484 z m 26.26954,22.998046 V 115.625 H 570.21484 V 96.289062 Z m -51.95313,5.517578 v 8.49609 h 44.33594 v -8.49609 z m 61.57227,19.0918 v 38.57422 h -7.61719 v -4.29688 h -63.47656 v 4.29688 h -7.71485 v -38.57422 z m -71.09375,5.71289 v 8.25195 h 27.58789 v -8.25195 z m 0,13.76953 v 8.98437 h 27.58789 v -8.98437 z m 63.47656,8.98437 v -8.98437 h -28.4668 v 8.98437 z m 0,-14.50195 v -8.25195 h -28.4668 v 8.25195 z M 568.4082,85.302734 h 62.79297 v 5.810547 H 568.4082 Z m 127.09961,8.007813 v -27.88086 h 8.20313 v 27.88086 h 43.79883 v 7.324223 h -43.79883 v 44.43359 h 38.47656 v 7.32422 h -84.375 v -7.32422 h 37.69531 V 100.63477 H 652.49023 V 93.310547 Z M 799.07227,80.078125 q -0.0977,0.537109 -0.19532,1.220703 -0.8789,6.054688 -4.0039,22.705082 H 828.125 v 40.96679 h 18.50586 v 7.32422 h -93.21289 v -7.32422 h 24.26758 q 0.19531,-0.73242 0.48828,-1.85547 2.14844,-8.00781 7.08008,-31.93359 h -20.21485 v -7.17773 h 21.72852 l 0.78125,-3.85743 q 2.09961,-10.253902 3.27148,-19.335933 0.0977,-0.390625 0.14649,-0.732422 h -30.12696 v -7.177734 h 77.00196 v 7.177734 z m 20.94726,31.103515 h -26.46484 q -0.14649,0.73242 -0.29297,1.41602 -2.83203,15.57617 -6.98242,32.37304 h 33.74023 z m 76.66016,0.0977 h 11.32812 v 36.32812 h -23.19336 v 7.27539 h -6.78711 V 111.2793 h 11.47461 V 91.40625 h -15.47851 v -6.884766 h 15.47851 V 64.501953 h 7.17774 v 20.019531 h 15.42968 v 6.884766 h -15.42968 z m 4.63867,6.49414 h -16.50391 v 23.14453 h 16.50391 z m 42.96875,-49.365237 v 82.910157 q 0,3.90625 -1.9043,5.61523 -1.75781,1.5625 -5.85937,1.5625 -4.83399,0 -9.42383,-0.58593 l -1.26953,-7.61719 q 4.44336,0.83008 9.22851,0.83008 1.75782,0 2.09961,-0.78125 0.24414,-0.58594 0.24414,-1.85547 v -25.58594 h -14.89257 q -0.39063,9.375 -1.95313,16.40625 -2.49023,11.18164 -9.13086,20.11719 l -5.41992,-5.22461 q 6.93359,-9.375 8.83789,-22.11914 0.97656,-6.44531 0.97656,-14.7461 V 68.408203 Z m -6.88477,6.982422 h -14.79492 v 16.894531 h 14.79492 z m 0,23.583984 h -14.79492 v 17.138671 h 14.79492 z M 868.11523,85.791016 q -6.34765,-8.642579 -13.33007,-14.990235 l 5.41992,-4.980469 q 6.34765,5.371094 13.52539,14.501954 z m -2.58789,25.390624 q -6.59179,-8.59375 -13.81836,-14.990234 l 5.61524,-5.175781 q 7.32422,6.347656 13.76953,14.697265 z m -11.91406,42.62695 q 6.98242,-12.06054 13.47656,-33.88671 l 6.39649,3.95507 q -5.0293,19.33594 -13.1836,35.00977 z"></path>
</svg>
