<svg xmlns="http://www.w3.org/2000/svg" id="svg1" version="1.1" height="200" width="990">
  <defs id="defs1"></defs>
  <rect id="rect1" stroke="none" fill="none" height="200" width="990" y="0" x="0"></rect>
  <path aria-label="埼玉県北部" style="font-size:100px;font-family:'BIZ UDPGothic';fill:#ff0000" id="text1" d="m 87.304687,110.10742 v 41.3086 q 0,4.29687 -2.148437,6.25 -2.099609,1.85546 -7.03125,1.85546 -5.517578,0 -12.646484,-0.73242 l -1.708985,-6.98242 q 6.835938,0.83008 12.451172,0.83008 2.294922,0 2.929688,-0.73242 0.537109,-0.63477 0.537109,-2.39258 v -39.4043 H 30.273437 v -6.68945 h 67.236329 v 6.68945 z M 14.794922,87.988281 v -22.90039 h 7.519531 v 22.90039 h 10.205078 v 7.080078 H 22.314453 V 131.25 q 6.005859,-2.29492 11.376953,-4.78516 l 1.025391,6.88477 Q 19.970703,140.72266 4.7851562,145.6543 l -2.7832031,-7.56836 q 7.1777344,-2.05078 12.7929689,-4.10157 V 95.068359 H 3.0761719 V 87.988281 Z M 59.375,74.609375 V 64.501953 h 7.519531 v 10.107422 h 25.195313 v 6.494141 H 66.259766 q -0.292969,1.367187 -0.878907,2.832031 12.5,4.980469 25.53711,12.158203 l -4.833985,5.71289 Q 73.730469,94.140625 62.646484,89.111328 56.005859,98.535156 40.185547,102.29492 L 36.181641,96.484375 Q 55.712891,92.236328 58.984375,81.103516 H 36.474609 V 74.609375 Z M 70.507812,118.4082 v 25.09766 H 46.386719 v 5.37109 h -6.78711 V 118.4082 Z m -24.121093,6.20118 v 12.59765 h 17.43164 V 124.60938 Z M 153.32031,77.978516 v 28.125004 h 34.76563 v 6.98242 h -34.76563 v 33.83789 h 42.67578 v 7.17773 h -91.89453 v -7.17773 h 41.21094 v -33.83789 h -33.20312 v -6.98242 H 145.3125 V 77.978516 h -37.10937 v -7.177735 h 83.6914 v 7.177735 z m 28.07617,63.037104 q -5.95703,-9.57031 -14.30664,-18.70117 l 6.29883,-4.29687 q 8.10547,8.83789 14.69727,18.35937 z M 282.86133,67.578125 V 114.4043 H 225.78125 V 67.578125 Z m -49.36524,6.005859 v 7.714844 h 41.55274 v -7.714844 z m 0,13.330078 v 7.763672 h 41.55274 v -7.763672 z m 0,13.476568 v 8.30078 h 41.55274 v -8.30078 z M 214.4043,122.2168 h 83.05664 v 6.49414 h -41.99219 v 30.81054 h -7.91016 V 128.71094 H 206.5918 V 74.267578 h 7.8125 z m -9.22852,29.6875 q 12.79297,-6.15235 23.0957,-19.28711 l 6.5918,3.66211 q -10.40039,13.62304 -24.07226,21.72851 z m 84.17969,4.10156 q -10.25391,-11.18164 -23.29102,-19.82422 l 6.00586,-4.49219 q 11.76758,7.37305 23.68164,18.79883 z m 41.25976,-23.19336 q -11.42578,6.25 -25.09765,11.81641 l -3.51563,-7.71485 q 17.33399,-6.15234 28.61328,-11.96289 V 98.535156 h -25.63476 v -7.421875 h 25.63476 V 65.527344 h 8.00782 v 93.212886 h -8.00782 z M 362.01172,97.949219 Q 375,91.845703 387.30469,81.591797 l 6.20117,6.103515 Q 378.36914,98.779297 362.01172,105.9082 v 38.1836 q 0,3.07617 2.24609,3.71093 1.80664,0.53711 10.35156,0.53711 8.05665,0 10.35157,-1.12304 1.66015,-0.83008 2.24609,-4.29688 0.68359,-4.44336 1.07422,-14.84375 l 7.91016,2.73438 q -0.58594,16.01562 -2.2461,19.9707 -1.61133,3.90625 -7.03125,4.88281 -4.63867,0.83008 -13.52539,0.83008 -12.10937,0 -15.42969,-1.5625 -3.95507,-1.85547 -3.95507,-7.91016 V 65.478516 h 8.00781 z m 71.97265,-21.337891 h 21.82618 v 6.787109 h -7.03125 q -2.05078,9.13086 -5.61524,18.701173 h 14.45313 v 6.88477 h -55.12696 v -6.88477 h 13.72071 l -0.0977,-0.48828 Q 414.0625,91.601562 411.71875,84.423828 l -0.3418,-1.025391 h -7.08008 v -6.787109 h 22.2168 V 64.501953 h 7.4707 z m -15.13671,6.787109 q 2.58789,7.958985 4.73632,18.701173 h 12.15821 q 2.92968,-8.105469 5.32226,-18.701173 z m 31.83593,35.888673 v 39.30664 h -7.32422 v -5.51758 h -25.97656 v 6.39649 h -7.56836 v -40.18555 z m -33.30078,6.68945 v 20.3125 h 25.97656 v -20.3125 z m 65.42969,-22.70508 q 12.8418,13.57422 12.8418,29.44336 0,5.56641 -2.00196,8.39844 -2.4414,3.27149 -8.49609,3.27149 -5.81055,0 -10.69336,-0.6836 l -1.61133,-7.61719 q 6.25,1.02539 10.15625,1.02539 3.71094,0 4.39453,-2.49023 0.29297,-1.07422 0.29297,-3.51562 0,-13.72071 -12.64648,-26.70899 5.85937,-12.695311 9.52148,-26.708983 h -15.42969 v 81.787113 h -7.37304 V 70.507812 h 27.49023 l 4.39453,3.808594 q -5.37109,17.382813 -10.83984,28.955074 z"></path>
</svg>
