<svg xmlns="http://www.w3.org/2000/svg" id="svg1" version="1.1" height="200" width="990">
  <defs id="defs1"></defs>
  <rect id="rect1" stroke="none" fill="none" height="200" width="990" y="0" x="0"></rect>
  <path aria-label="愛媛県南予" style="font-size:100px;font-family:'BIZ UDPGothic';fill:#ff0000" id="text1" d="M 75.634766,86.621094 H 94.482422 V 105.32227 H 86.767578 V 92.919922 H 13.232422 V 105.32227 H 5.5175781 V 86.621094 H 24.121094 q -1.806641,-4.492188 -4.6875,-9.179688 l -1.660157,0.09766 q -2.294921,0.146485 -6.347656,0.390625 L 8.203125,71.826172 q 40.869141,-1.660156 73.242187,-7.421875 l 5.517579,5.517578 q -7.519532,1.269531 -11.621094,1.855469 l 7.226562,2.539062 q -3.027343,6.201172 -6.933593,12.304688 z m -7.666016,0 q 4.345703,-7.910157 6.787109,-14.746094 -12.011718,1.757812 -25.097656,2.978516 3.222656,5.273437 5.566406,11.767578 z m -20.3125,0 Q 45.361328,81.054687 42.138672,75.537109 l -14.941406,1.367188 q 3.125,5.126953 4.833984,9.716797 z M 29.785156,133.30078 q -8.642578,5.51758 -18.359375,9.0332 L 6.7871094,136.62109 Q 26.5625,130.12695 37.597656,118.06641 q -5.273437,-0.87891 -5.273437,-6.25 V 97.412109 h 7.714843 v 11.572271 q 0,2.68554 1.806641,3.125 1.513672,0.39062 10.351563,0.39062 8.007812,0 9.960937,-0.53711 1.5625,-0.43945 1.953125,-2.34375 0.488281,-2.44141 0.488281,-6.20117 l 7.226563,2.19726 q -0.09766,8.44727 -3.027344,10.79102 -1.611328,1.31836 -5.029297,1.70898 -3.90625,0.43946 -12.939453,0.43946 -2.539062,0 -4.541016,-0.0488 -2.58789,3.17383 -5.273437,5.81055 h 35.302734 l 3.613282,4.0039 q -8.398438,8.88672 -20.263672,15.57617 14.404297,5.12696 36.767578,8.10547 l -4.736328,7.12891 q -21.728516,-3.4668 -39.746094,-11.23047 -18.945313,8.78906 -43.6523437,12.40234 l -4.1992188,-6.49414 q 22.7050785,-2.68554 39.4531245,-9.375 0.390625,-0.14648 0.732422,-0.29297 -8.203125,-4.49218 -14.501953,-10.83984 z m 21.972656,7.4707 q 9.082032,-4.63867 15.869141,-10.44921 H 35.742187 q 7.519532,6.44531 16.015625,10.44921 z M 11.083984,115.91797 q 5.566407,-6.64063 9.375,-18.212892 l 6.933594,2.099609 q -3.271484,11.962893 -9.716797,20.117193 z m 41.503907,-6.20117 q -3.613282,-7.08008 -8.496094,-12.695316 l 5.810547,-3.515625 q 4.589843,4.882813 8.984375,12.207031 z m 31.201171,8.49609 q -6.445312,-11.66992 -12.5,-18.798828 l 5.908204,-3.515625 q 7.226562,7.958983 13.183593,18.408203 z M 160.35156,98.974609 q -0.39062,3.906251 -1.12304,8.935551 h 38.28125 v 6.39648 H 158.1543 q -1.07422,5.22461 -1.80664,8.00781 h 31.73828 l 3.80859,3.71094 q -3.75976,7.12891 -8.30078,12.35352 -2.05078,2.39257 -6.15234,6.15234 8.20312,4.78516 20.45898,8.30078 l -3.61328,6.68945 q -11.76758,-3.61328 -22.26563,-10.69336 -9.96093,6.98243 -22.55859,11.18165 l -4.29687,-6.00586 q 12.10937,-3.02735 21.38671,-9.22852 -8.10546,-6.64062 -13.08593,-14.0625 -7.17774,17.28516 -17.57813,27.29492 l -5.41992,-5.17578 q 15.57617,-14.11133 20.45898,-38.52539 h -14.16015 v -6.39648 h 15.23437 q 0.73242,-5.07813 1.02539,-8.935551 H 139.4043 v -6.396484 h 36.37695 q 4.98047,-8.984375 8.10547,-18.701172 l 7.27539,2.832031 q -3.75977,8.105469 -8.39844,15.869141 h 12.01172 v 6.396484 z m 11.37696,41.796871 q 7.4707,-6.54296 10.64453,-12.25586 h -23.53516 q 5.37109,6.78711 12.89063,12.25586 z m -51.5625,-6.44531 q -8.39844,-5.71289 -15.18555,-9.0332 l 0.48828,-1.5625 q 3.80859,-12.06055 7.12891,-32.128908 h -9.91211 v -6.982421 h 10.98633 q 1.31835,-9.863282 2.49023,-20.019532 l 7.12891,1.025391 q -1.17188,10.253906 -2.2461,17.871094 l -0.14648,1.123047 h 15.47851 q -1.07422,30.322269 -7.32422,47.412109 4.19922,3.07617 7.71485,6.05469 l -4.39453,6.20117 q -2.83203,-2.68555 -6.29883,-5.51758 -6.29883,12.20703 -16.40625,20.21484 l -5.37109,-5.66406 q 9.71679,-6.54297 15.86914,-18.99414 z m 2.63671,-6.54297 q 5.0293,-15.08789 6.44532,-36.181638 h -9.375 q -3.02735,18.359378 -6.54297,30.566408 5.22461,2.88086 9.47265,5.61523 z m 14.30664,-57.373044 q 26.85547,-1.269531 50.19532,-6.103515 l 4.19922,5.615234 q -23.19336,4.541016 -51.51368,6.396484 z m 11.47461,21.679688 q -2.24609,-7.910157 -5.07812,-12.890625 l 5.76172,-2.001953 q 3.56445,6.542968 5.41992,12.597656 z m 16.01563,-0.78125 q -2.92969,-9.277344 -5.61524,-14.013672 l 6.00586,-1.904297 q 3.36914,5.46875 6.20118,13.574219 z M 282.86133,67.578125 V 114.4043 H 225.78125 V 67.578125 Z m -49.36524,6.005859 v 7.714844 h 41.55274 v -7.714844 z m 0,13.330078 v 7.763672 h 41.55274 v -7.763672 z m 0,13.476568 v 8.30078 h 41.55274 v -8.30078 z M 214.4043,122.2168 h 83.05664 v 6.49414 h -41.99219 v 30.81054 h -7.91016 V 128.71094 H 206.5918 V 74.267578 h 7.8125 z m -9.22852,29.6875 q 12.79297,-6.15235 23.0957,-19.28711 l 6.5918,3.66211 q -10.40039,13.62304 -24.07226,21.72851 z m 84.17969,4.10156 q -10.25391,-11.18164 -23.29102,-19.82422 l 6.00586,-4.49219 q 11.76758,7.37305 23.68164,18.79883 z m 64.16015,-62.011719 h 37.06055 v 57.324219 q 0,3.90625 -1.61133,5.66406 -1.90429,2.05078 -8.00781,2.05078 -5.76172,0 -11.18164,-0.63476 l -1.70898,-7.42188 q 8.88671,0.92774 12.06054,0.92774 1.85547,0 2.29492,-0.87891 0.24415,-0.53711 0.24415,-1.61133 V 100.39063 H 317.1875 v 59.13085 h -7.91016 V 93.994141 h 36.52344 V 83.007812 h -43.31055 v -6.689453 h 43.31055 V 64.501953 h 7.71484 v 11.816406 h 43.94532 v 6.689453 h -43.94532 z m -7.61718,27.783199 h -22.2168 v -6.20117 h 11.86523 q -2.14843,-5.32226 -5.37109,-10.49804 l 6.73828,-2.5879 q 4.05274,7.12891 6.20117,13.08594 H 356.25 q 3.32031,-6.05469 5.76172,-13.28125 l 7.42187,2.58789 q -2.39257,4.98047 -5.32226,9.96094 l -0.39063,0.73242 h 12.40235 v 6.20117 h -22.70508 v 9.13086 H 378.125 v 6.29883 h -24.70703 v 19.92188 h -7.51953 V 137.20703 H 321.875 v -6.29883 h 24.02344 z M 455.51758,91.796875 q 3.66211,2.197266 10.2539,6.396484 l -4.93164,3.710941 h 30.56641 l 4.29687,4.58984 q -10.05859,15.91797 -18.50585,24.80469 l -7.32422,-4.10156 q 7.71484,-7.71485 14.59961,-18.31055 H 454.6875 v 41.89453 q 0,4.83398 -2.53906,6.68945 -2.19727,1.61133 -7.66602,1.61133 -6.20117,0 -15.47851,-0.87891 l -1.61133,-7.8125 q 8.44726,1.22071 15.13672,1.22071 2.88086,0 3.51562,-0.87891 0.53711,-0.73242 0.53711,-2.53906 v -39.30664 h -42.67578 v -6.98242 h 53.85742 Q 439.99023,89.746094 425.48828,83.105469 l 5.71289,-4.736328 q 9.52149,4.638671 18.35938,9.912109 11.42578,-6.835938 19.6289,-13.085938 h -54.93164 v -6.982421 h 64.4043 l 4.54101,4.882812 q -11.96289,9.521484 -27.68554,18.701172 z"></path>
</svg>
