<svg xmlns="http://www.w3.org/2000/svg" id="svg1" version="1.1" height="200" width="1096">
  <defs id="defs1"></defs>
  <rect id="rect1" stroke="none" fill="none" height="200" width="1096" y="0" x="0"></rect>
  <path aria-label="山形県沖" style="font-weight:bold;font-size:110px;font-family:'BIZ UDPGothic';fill:#ff0000" id="text1" d="M 60.693359,138.02246 H 87.763672 V 78.94043 h 12.192383 v 80.62012 H 87.763672 v -9.88282 H 22.075195 v 9.88282 H 9.9902344 V 78.94043 H 22.075195 v 59.08203 H 48.500977 V 57.026367 H 60.693359 Z M 161.88477,71.259766 v 27.285156 h 12.99804 v 10.581058 h -12.99804 v 51.34765 h -11.44043 v -51.34765 h -13.15918 q -0.26856,16.2207 -2.36329,26.47949 -2.90039,14.55566 -11.8164,25.62012 l -9.72168,-7.3584 q 8.21777,-9.99024 10.7959,-24.27735 1.39648,-7.94921 1.61133,-19.60449 l 0.0537,-0.85937 H 112.73926 V 98.544922 h 13.10547 V 71.259766 h -10.7959 V 60.786133 h 57.09472 v 10.473633 z m -11.44043,0 h -13.15918 v 27.285156 h 13.15918 z m 16.86523,77.504884 q 24.11621,-8.27149 41.25,-32.76367 l 8.91602,7.14355 q -16.05957,24.38477 -43.23731,35.01953 z m 3.27637,-61.337892 q 21.59179,-10.84961 33.13965,-29.487305 l 9.45312,6.015625 q -13.48144,20.786133 -35.77148,32.280274 z m 2.09472,28.359372 q 20.57129,-9.72168 33.99903,-28.842771 l 8.91601,7.089844 Q 201.3623,114.01367 179.82422,124.70215 Z M 312.16797,58.583984 V 110.62988 H 248.25195 V 58.583984 Z m -52.36817,8.486328 v 6.713868 h 40.7129 v -6.713868 z m 0,14.28711 v 6.713867 h 40.7129 v -6.713867 z m 0,14.287109 v 6.928709 h 40.7129 v -6.928709 z m -21.6455,22.128909 h 89.05273 v 9.3457 h -44.41894 v 33.35449 H 270.5957 V 127.11914 H 226.3916 V 66.855469 h 11.7627 z m -13.75,32.4414 q 12.7832,-5.9082 24.43847,-19.81933 l 9.88282,5.74707 q -11.49414,14.55566 -25.5127,22.88086 z m 92.59765,6.92871 q -8.21777,-10.09765 -24.70703,-21.21582 l 9.23828,-6.49902 q 12.94434,7.46582 25.40528,19.60449 z m 76.69922,-81.157222 v -20.03418 h 11.54785 v 20.03418 h 29.11133 v 48.608402 h -29.11133 v 35.8789 h -11.54785 v -35.8789 H 365.18066 V 75.986328 Z m -17.40234,10.688477 v 27.338865 h 17.40234 V 86.674805 Z m 46.62109,27.338865 V 86.674805 h -17.6709 v 27.338865 z m -68.75,-31.796873 q -6.55273,-9.13086 -17.34863,-17.456055 l 8.00293,-8.164062 q 10.74219,7.573242 18.1543,16.972656 z m -3.49121,27.607423 q -9.3457,-10.849611 -18.1543,-17.778322 l 8.27149,-8.271484 q 9.39941,6.606445 18.58398,17.080076 z m -16.7041,41.62598 q 10.3125,-14.66309 19.01367,-36.52344 l 9.56055,7.3584 q -7.3584,20.1416 -17.93946,37.91992 z"></path>
</svg>
