<svg xmlns="http://www.w3.org/2000/svg" id="svg1" version="1.1" height="200" width="1096">
  <defs id="defs1"></defs>
  <rect id="rect1" stroke="none" fill="none" height="200" width="1096" y="0" x="0"></rect>
  <path aria-label="5" style="font-weight:bold;font-size:110px;font-family:'BIZ UDPGothic';fill:#ff0000" id="text1" d="M 16.811523,63.632812 H 68.857422 V 75.50293 H 28.466797 l -3.168945,25.40527 h 0.429687 q 8.271484,-5.961911 19.174805,-5.961911 7.46582,0 14.018554,3.383789 9.184571,4.672852 12.836914,14.233402 2.041016,5.37109 2.041016,11.92382 0,14.7168 -10.849609,23.20313 -9.023438,7.03613 -22.451172,7.03613 -19.44336,0 -31.2597657,-11.70898 L 16.59668,133.7793 q 4.296875,4.24316 10.473632,6.55273 6.713868,2.52442 13.212891,2.52442 7.358399,0 12.568359,-4.08204 6.660157,-5.20996 6.660157,-14.39453 0,-8.00293 -4.619141,-13.05175 -4.995117,-5.47852 -13.803711,-5.47852 -11.977539,0 -17.563476,8.37891 L 11.44043,112.24121 Z"></path>
</svg>
