<svg xmlns="http://www.w3.org/2000/svg" id="svg1" version="1.1" height="200" width="990">
  <defs id="defs1"></defs>
  <rect id="rect1" stroke="none" fill="none" height="200" width="990" y="0" x="0"></rect>
  <path aria-label="宗谷海峡" style="font-size:100px;font-family:'BIZ UDPGothic';fill:#ff0000" id="text1" d="M 53.613281,75 H 93.017578 V 94.824219 H 85.107422 V 81.689453 H 14.648438 V 94.824219 H 6.8359375 V 75 H 45.703125 V 64.501953 h 7.910156 z m 0.830078,44.9707 v 31.98242 q 0,3.85743 -1.660156,5.56641 -1.806641,1.95313 -6.347656,1.95313 -8.837891,0 -15.039063,-0.58594 l -1.269531,-7.61719 q 7.128906,1.02539 13.134766,1.02539 2.197265,0 2.783203,-0.58594 0.585937,-0.53711 0.585937,-2.24609 V 119.9707 H 3.4179688 v -6.78711 H 96.533203 v 6.78711 z M 18.994141,94.091797 h 62.011718 v 6.494143 H 18.994141 Z M 3.8085938,148.29102 Q 15.917969,138.96484 22.705078,124.80469 l 7.275391,3.27148 Q 21.777344,144.43359 9.9121094,153.90625 Z M 89.208984,152.7832 Q 79.6875,138.7207 68.896484,127.97852 l 5.908203,-4.39454 q 11.279297,10.69336 20.898438,23.92579 z m 30.712896,-34.76562 h 62.35351 v 41.5039 h -8.10547 v -5.71289 h -48.04687 v 5.71289 h -8.00782 v -40.33203 q -3.90625,2.49024 -11.13281,6.20118 l -4.6875,-6.68946 q 27.68555,-11.57226 42.57813,-36.767576 h 8.6914 q 11.08399,15.08789 26.70899,24.951176 7.4707,4.6875 17.57812,9.0332 l -4.6875,6.88476 q -12.64648,-5.95703 -21.875,-12.74414 -11.57226,-8.49609 -21.82617,-21.044918 -11.08398,17.041018 -29.54101,29.003908 z m 54.24804,6.88476 h -48.04687 v 21.92383 h 48.04687 z M 106.39648,89.501953 q 14.94141,-8.886719 24.46289,-23.486328 l 6.5918,3.90625 q -10.20508,15.917969 -25.39062,25.292969 z m 80.07813,5.175781 Q 173.53516,80.46875 160.35156,69.921875 l 5.90821,-4.443359 q 12.74414,9.61914 26.12304,23.535156 z m 51.61133,-3.857422 h 49.90234 q 0,2.636719 -0.68359,22.998048 h 10.20508 v 6.5918 h -10.44922 q -0.19532,6.25 -0.87891,17.91992 h 9.7168 v 6.49414 h -10.20508 q -0.63477,7.27539 -1.70899,9.66797 -2.14843,5.02929 -10.49804,5.02929 -4.73633,0 -11.08399,-0.78125 l -1.41601,-6.83593 q 7.32422,1.02539 12.06054,1.02539 2.73438,0 3.61329,-1.22071 0.78125,-1.12304 1.31836,-6.10351 l 0.0488,-0.78125 h -39.01367 l -0.14648,0.78125 -0.14649,0.68359 -0.83008,4.73633 -7.4707,-0.87891 q 2.63672,-14.50195 4.44336,-29.73632 h -9.76562 v -6.5918 h 10.54687 q 1.46484,-12.69531 2.44141,-22.998048 z m 27.58789,6.396485 q -0.19531,3.417973 -0.73242,11.572263 l -0.29297,5.0293 h 15.33203 q 0.0976,-2.09961 0.24414,-5.46875 0.0488,-0.87891 0.19531,-5.56641 0,-1.85547 0.14649,-5.566403 z m -7.12891,0 h -13.81836 q -0.43945,5.957033 -1.51367,16.601563 h 14.0625 q 0.29297,-3.71094 0.43945,-5.56641 0.3418,-3.61328 0.83008,-11.035153 z m -1.80664,23.193363 h -14.25781 q -0.78125,6.64062 -1.95313,14.59961 l -0.48828,3.32031 h 14.79492 l 0.29297,-2.2461 q 1.17188,-9.76562 1.61133,-15.67382 z m 7.32422,0 -0.48828,5.12695 q -0.83008,8.78906 -1.31836,12.79297 h 16.40625 q 0.48828,-6.34766 0.73242,-12.30469 l 0.29297,-5.61523 z M 244.9707,73.779297 h 48.92578 v 6.689453 h -52.00195 q -4.00391,7.958984 -9.91211,14.941406 l -5.37109,-5.224609 q 9.47265,-10.546875 14.01367,-25.78125 l 7.4707,0.78125 q -1.5625,4.833984 -3.125,8.59375 z m -24.75586,12.5 q -6.44531,-8.447266 -14.40429,-15.38086 l 5.27343,-5.078125 q 7.51954,5.810547 14.69727,14.697266 z m -3.51562,25.732423 Q 209.0332,102.68555 201.9043,96.679687 l 5.41992,-5.371093 q 8.39844,6.787109 15.08789,14.794926 z m -12.69531,41.06445 q 8.88671,-12.64648 16.21093,-31.98242 l 6.39649,4.6875 q -7.37305,19.92187 -16.3086,33.00781 z M 361.08398,113.81836 V 85.986328 h -22.31445 v -6.884766 h 22.31445 V 64.501953 h 7.51954 v 14.599609 h 25.68359 v 6.884766 h -25.68359 v 27.832032 h 28.80859 v 6.78711 H 370.3125 q 3.66211,9.17969 10.30273,17.1875 7.27539,8.6914 17.48047,14.30664 l -4.78515,7.03125 q -19.4336,-12.5 -27.44141,-33.00781 -6.54297,23.63281 -28.80859,33.59375 l -4.88282,-6.29883 q 13.08594,-5.41992 19.82422,-14.64844 7.12891,-9.66797 8.59375,-18.16406 h -24.21875 v 20.21484 h -25.68359 v 8.00781 h -6.49414 V 82.617187 h 6.49414 v 51.074223 h 6.29883 V 65.380859 h 6.59179 v 68.310551 h 6.49414 V 82.617187 h 6.29883 v 31.201173 z m -12.98828,-3.02734 q -3.02734,-11.083989 -7.17773,-18.994145 l 6.49414,-2.587891 q 3.61328,7.080078 7.37305,18.603516 z m 26.12305,-2.58789 q 4.19922,-8.00782 7.76367,-19.482427 l 7.22656,2.783203 q -4.05273,11.279294 -8.49609,19.091794 z"></path>
</svg>
