<svg xmlns="http://www.w3.org/2000/svg" id="svg1" version="1.1" height="200" width="1096">
  <defs id="defs1"></defs>
  <rect id="rect1" stroke="none" fill="none" height="200" width="1096" y="0" x="0"></rect>
  <path aria-label="日向灘" style="font-weight:bold;font-size:110px;font-family:'BIZ UDPGothic';fill:#ff0000" id="text1" d="M 96.572266,61.806641 V 158.37891 H 83.789062 V 150 H 26.210937 v 8.37891 H 13.535156 V 61.806641 Z M 26.210937,72.709961 V 99.404297 H 83.789062 V 72.709961 Z m 0,37.275389 v 28.78906 H 83.789062 V 109.98535 Z M 188.47168,94.892578 v 39.799802 h -35.87891 v 7.94922 H 141.15234 V 94.892578 Z m -11.44043,9.667972 h -24.43848 v 20.1416 h 24.43848 z M 152.32422,71.367187 q 2.9541,-8.271484 4.56543,-15.629882 l 13.42773,1.772461 q -3.00781,8.271484 -5.69336,13.857421 h 47.05078 v 77.075193 q 0,6.33789 -2.63183,8.86231 -2.68555,2.52441 -10.41992,2.52441 -12.13868,0 -18.20801,-0.91308 l -2.30957,-11.22559 q 9.99023,1.07422 18.04687,1.07422 2.68555,0 3.33008,-1.28906 0.42969,-0.85938 0.42969,-2.52442 V 81.84082 h -69.66309 v 78.63281 H 118.48633 V 71.367187 Z m 118.80859,13.266602 v 4.887695 h 14.60938 v 6.606446 q 7.68066,-18.959961 10.36621,-40.65918 l 9.77539,1.450195 q -1.98731,11.333008 -3.81348,18.476563 h 5.58594 q 2.52441,-9.506836 3.9209,-19.335938 l 9.39941,1.71875 q -1.9873,9.453125 -4.78027,17.617188 h 11.17187 v 9.667969 h -10.47363 v 13.696289 h 8.59375 v 9.345704 h -8.59375 v 13.37402 h 8.59375 v 9.50684 h -8.59375 v 14.39453 h 11.54785 v 9.88281 h -26.47949 v 5.15625 h -9.13086 V 100.9082 q -1.18164,2.84668 -3.33008,7.19727 l -3.75976,-10.7959 v 12.89063 h -14.60938 v 5.15625 h 15.36133 v 7.78808 h -15.36133 q -0.10742,3.70606 -0.21484,5.42481 h 18.6914 v 7.78808 h -19.71191 q -0.10742,0.59082 -0.37598,1.71875 9.93653,5.85449 19.33594,13.69629 l -6.3916,8.00293 q -7.30469,-7.08984 -15.68359,-13.32031 l -0.59082,-0.4834 q -6.23047,10.36621 -17.88575,16.00586 l -6.82129,-8.59375 q 10.04395,-3.54492 14.77051,-10.20508 1.87989,-2.57812 3.16895,-6.82129 h -16.11328 v -7.78808 h 17.77832 q 0.37597,-3.70606 0.42968,-5.42481 h -15.30761 v -7.78808 h 15.36133 V 110.2002 H 246.96289 V 89.521484 h 14.50195 v -4.887695 h -9.13086 V 72.65625 h -5.37109 l -8.27148,7.788086 q -5.15625,-8.110352 -14.39454,-17.241211 l 8.16407,-6.928711 q 6.66015,5.532227 13.05176,14.072266 v -5.854493 h 6.82128 v -9.238281 h 9.34571 v 9.238281 h 9.45312 v -9.238281 h 9.23828 v 9.238281 h 8.91602 v 8.164063 h -8.91602 v 11.977539 z m -9.13086,11.708984 h -6.92871 v 7.143557 h 6.92871 z m 8.59375,0 v 7.143557 h 7.25098 V 96.342773 Z M 261.67969,72.65625 v 5.371094 h 9.45312 V 72.65625 Z m 40.2832,12.407227 v 13.696289 h 6.44531 V 85.063477 Z m 0,23.041993 v 13.37402 h 6.44531 v -13.37402 z m 0,22.88086 v 14.39453 h 6.44531 v -14.39453 z m -67.35352,-24.00879 q -7.8955,-10.957032 -14.07226,-17.13379 l 8.37891,-7.036133 q 8.05664,7.197266 14.50195,16.59668 z m -12.99804,46.29883 q 7.57324,-16.167 12.89062,-39.47754 l 9.66797,4.83398 q -4.13574,21.43067 -12.19238,42.27051 z"></path>
</svg>
