<svg xmlns="http://www.w3.org/2000/svg" id="svg1" version="1.1" height="200" width="990">
  <defs id="defs1"></defs>
  <rect id="rect1" stroke="none" fill="none" height="200" width="990" y="0" x="0"></rect>
  <path aria-label="奈良県" style="font-size:100px;font-family:'BIZ UDPGothic';fill:#ff0000" id="text1" d="m 63.964844,83.886719 q 12.060547,12.109375 34.033203,19.628911 l -4.296875,6.68945 Q 83.935547,106.25 76.708984,102.05078 v 6.44531 H 25.292969 v -5.66406 q -7.470703,4.88281 -19.0917971,9.86328 l -4.5898438,-5.9082 Q 15.234375,101.70898 23.535156,95.703125 30.957031,90.283203 35.791016,83.886719 H 5.5175781 v -6.78711 H 40.283203 q 3.027344,-5.517578 5.322266,-12.5 l 7.910156,0.976563 q -2.490234,6.787109 -4.882813,11.523437 h 45.458985 v 6.78711 z m -9.326172,0 h -9.91211 Q 38.134766,94.091797 26.5625,102.00195 H 76.611328 Q 63.232422,94.140625 54.638672,83.886719 Z m 0,41.894531 v 26.61133 q 0,3.90625 -2.001953,5.5664 -1.855469,1.5625 -5.908203,1.5625 -8.886719,0 -14.208985,-0.63476 l -1.513672,-7.42188 q 6.933594,0.92774 12.402344,0.92774 2.246094,0 2.832031,-0.58594 0.585938,-0.58594 0.585938,-2.34375 V 125.78125 H 6.8359375 v -6.78711 H 93.359375 v 6.78711 z M 4.1015625,149.31641 Q 16.210937,141.99219 24.121094,129.29687 l 6.884765,3.51563 q -8.691406,14.16016 -21.1914059,22.36328 z m 85.2050785,4.49218 Q 78.662109,141.21094 67.919922,132.91016 l 6.005859,-4.58985 q 11.572266,8.64258 21.484375,19.97071 z m 65.039059,-35.5957 q 3.66211,8.78906 9.61914,15.08789 11.81641,-7.32422 21.33789,-16.06445 l 6.10352,5.85937 q -9.17969,7.32422 -22.26563,14.94141 9.96094,8.10547 28.66211,13.86719 l -4.98046,6.68945 q -16.25977,-5.71289 -25.3418,-12.1582 -14.50195,-10.35157 -21.19141,-28.22266 h -21.38672 v 29.88281 q 15.86914,-3.27148 30.71289,-7.76367 l 0.6836,6.5918 q -22.75391,7.76367 -47.90039,12.30469 l -2.97852,-7.42188 q 6.54297,-1.07422 11.37696,-2.05078 V 75.585937 h 28.71093 V 64.501953 h 8.10547 v 11.083984 h 29.10156 v 42.626953 z m 20.26367,-6.29883 V 100 h -49.70703 v 11.91406 z m 0,-18.310544 V 82.080078 H 124.90234 V 93.603516 Z M 282.86133,67.578125 V 114.4043 H 225.78125 V 67.578125 Z m -49.36524,6.005859 v 7.714844 h 41.55274 v -7.714844 z m 0,13.330078 v 7.763672 h 41.55274 v -7.763672 z m 0,13.476568 v 8.30078 h 41.55274 v -8.30078 z M 214.4043,122.2168 h 83.05664 v 6.49414 h -41.99219 v 30.81054 h -7.91016 V 128.71094 H 206.5918 V 74.267578 h 7.8125 z m -9.22852,29.6875 q 12.79297,-6.15235 23.0957,-19.28711 l 6.5918,3.66211 q -10.40039,13.62304 -24.07226,21.72851 z m 84.17969,4.10156 q -10.25391,-11.18164 -23.29102,-19.82422 l 6.00586,-4.49219 q 11.76758,7.37305 23.68164,18.79883 z"></path>
</svg>
