<svg xmlns="http://www.w3.org/2000/svg" id="svg1" version="1.1" height="200" width="1096">
  <defs id="defs1"></defs>
  <rect id="rect1" stroke="none" fill="none" height="200" width="1096" y="0" x="0"></rect>
  <path aria-label="大阪府北部" style="font-weight:bold;font-size:110px;font-family:'BIZ UDPGothic';fill:#ff0000" id="text1" d="m 62.46582,94.570312 q 3.706055,12.568358 14.072266,26.748048 12.62207,17.29492 31.044924,27.39258 l -7.680666,11.06445 q -19.497071,-11.49414 -32.548828,-30.4541 -7.036133,-10.3125 -11.279297,-21.00098 -4.243164,14.39453 -13.15918,26.15723 -13.105469,17.40234 -32.387695,25.67383 l -7.5732424,-9.8291 Q 23.149414,141.88965 35.556641,124.32617 45.976562,109.50195 47.910156,94.570312 H 5.0488281 V 82.915039 H 48.393555 V 57.026367 h 12.407226 v 25.888672 h 44.257809 v 11.655273 z m 106.18652,5.478518 v 1.23535 q -0.26855,20.73242 -2.57812,33.78418 -2.30957,13.10547 -7.89551,24.49219 l -9.56055,-7.46582 q 5.15625,-10.74219 7.14356,-24.81446 1.77246,-12.35351 1.77246,-29.648434 V 61.914062 h 58.49121 v 10.581055 h -47.37305 v 17.456055 h 39.90723 l 5.37109,4.189453 q -5.85449,25.888675 -15.46875,40.444335 8.16407,8.59375 20.51758,15.30762 l -6.33789,9.99023 q -12.67578,-7.41211 -21.00098,-16.43554 -7.73437,8.91601 -21.00097,17.56347 l -6.82129,-8.91601 q 13.10547,-7.03614 21.05469,-17.1875 -10.09766,-14.93164 -13.85743,-34.8584 z m 22.82715,25.51269 q 6.875,-12.03125 9.50684,-25.51269 h -19.87305 q 3.22266,14.44824 10.36621,25.51269 z M 142.33398,95.913086 q 4.24317,4.941404 7.08985,11.762694 3.22265,7.73438 3.22265,15.52246 0,7.08985 -2.25586,10.68848 -2.84667,4.45801 -10.95703,4.45801 -4.29687,0 -8.75488,-0.64453 l -2.09473,-10.90332 2.04102,0.21484 q 4.94141,0.53711 6.875,0.53711 2.68555,0 3.38379,-1.02051 0.80566,-1.28906 0.80566,-5.47852 0,-12.51464 -9.77539,-24.169917 l 0.59082,-1.611328 q 3.97461,-10.151368 7.41211,-24.277344 H 127.72461 V 160.47363 H 116.71387 V 60.786133 h 29.91699 l 5.53223,4.511719 q -4.56543,18.583984 -9.82911,30.615234 z m 141.47461,-28.09082 h 40.71289 v 10.097656 h -83.30566 v 23.203128 q 0,7.94922 -0.21484,13.85742 11.44043,-13.64258 19.01367,-35.825197 l 11.17187,2.524414 q -2.90039,8.110352 -7.19726,16.435547 v 62.358396 h -11.44043 v -43.61328 q -3.59863,4.99512 -7.25098,9.39942 l -4.35058,-9.93653 q -0.59082,13.85742 -2.417,23.63281 -2.09472,11.17188 -6.875,20.51758 l -9.56054,-8.59375 q 4.40429,-10.04394 6.06933,-22.77343 1.50391,-11.65528 1.50391,-28.62793 V 67.822266 h 41.94824 V 55.952148 h 12.19238 z m 16.48926,29.272461 V 81.25 h 11.54785 v 15.844727 h 15.41504 V 107.2998 H 311.8457 v 42.37793 q 0,6.82129 -3.9209,8.8086 -2.25585,1.18164 -7.46582,1.18164 -8.3789,0 -15.36132,-0.85938 l -2.30957,-10.90332 q 8.70117,1.23535 14.17968,1.23535 2.417,0 2.9541,-0.80566 0.37598,-0.64453 0.37598,-2.30957 V 107.2998 H 267.53418 V 97.094727 Z m -15.30762,41.250003 q -6.76757,-13.21289 -13.75,-22.34375 l 9.23829,-5.58594 q 8.75488,11.11816 13.75,21.64551 z m 77.12891,-6.49903 q -14.82422,7.78809 -25.83496,11.92383 l -4.51172,-11.81641 q 17.24121,-5.80078 30.34668,-12.03124 V 95.859375 H 335.53223 V 84.526367 h 26.58691 V 55.952148 h 11.97754 V 160.47363 h -11.97754 z m 38.18848,-41.840817 q 12.51465,-6.552735 24.27734,-16.650391 l 8.91602,9.345703 q -15.89844,11.279297 -33.19336,19.228515 v 40.2832 q 0,2.63184 1.71875,3.22266 1.82617,0.59082 8.43261,0.59082 8.70118,0 10.90332,-1.02051 1.55762,-0.69824 2.14844,-4.35058 0.80567,-5.10254 1.18164,-16.48926 l 12.03125,3.70605 q -0.53711,13.91114 -1.71875,19.98047 -1.34277,6.76758 -7.03613,8.75489 -5.4248,1.82617 -17.77832,1.82617 -14.50195,0 -18.26172,-2.417 -3.59863,-2.36328 -3.59863,-9.07714 V 55.952148 h 11.97754 z m 78.0957,-21.645508 h 22.98828 v 10.366211 h -7.57324 q -2.04102,8.217773 -5.47852,17.241211 h 14.34082 v 10.366213 h -59.9414 V 95.966797 h 13.15918 Q 453.75,85.654297 451.38672,78.725586 H 444.4043 V 68.359375 h 22.77343 V 55.952148 h 11.22559 z m -16.16699,10.366211 q 2.73926,8.00293 4.24316,17.241211 h 10.95703 l 0.53711,-1.503906 q 2.30957,-6.123047 4.29688,-13.911133 l 0.4834,-1.826172 z m 33.30078,36.630864 v 43.98925 h -11.01074 v -5.26367 H 461.1084 v 6.3916 h -11.33301 v -45.11718 z m -34.42871,9.88281 v 18.63769 h 23.41797 v -18.63769 z m 71.75781,-27.124026 q 6.3916,6.069336 10.15137,14.448246 3.70605,8.3789 3.70605,16.97265 0,7.94922 -2.9541,11.70899 -3.06152,3.9209 -10.09766,3.9209 -6.01562,0 -11.65527,-0.85938 l -2.63183,-11.44043 q 6.49902,1.18164 10.74218,1.18164 3.22266,0 4.02832,-1.5039 0.53711,-1.07422 0.53711,-4.29688 0,-13.2666 -7.94922,-22.88086 -2.09472,-2.52441 -5.26367,-5.424804 l 0.64453,-1.503906 q 5.58594,-12.62207 8.70118,-26.318359 h -13.75 V 160.47363 H 505.95703 V 61.000977 h 32.33399 l 5.96191,5.478515 q -5.42481,18.476563 -11.38672,31.635742 z"></path>
</svg>
