<svg xmlns="http://www.w3.org/2000/svg" id="svg1" version="1.1" height="200" width="1096">
  <defs id="defs1"></defs>
  <rect id="rect1" stroke="none" fill="none" height="200" width="1096" y="0" x="0"></rect>
  <path aria-label="関東東方沖" style="font-weight:bold;font-size:110px;font-family:'BIZ UDPGothic';fill:#ff0000" id="text1" d="m 55.913086,138.66699 q -2.792969,6.12305 -8.486328,10.84961 -5.747071,4.78027 -16.166992,8.43262 l -5.961914,-8.70117 q 19.228515,-5.26368 23.149414,-18.69141 H 24.116211 v -8.70117 h 25.297851 v -6.60645 H 26.962891 v -8.16406 h 11.279296 q -2.094726,-4.18945 -4.565429,-7.788085 l 9.882812,-3.759766 q 3.759766,6.445311 5.69336,11.547851 h 10.849609 q 3.330078,-6.23047 5.263672,-11.762694 l 10.419922,2.954101 q -2.309571,5.102543 -4.833985,8.808593 h 11.977539 v 8.16406 H 59.833984 v 6.60645 h 25.996094 v 8.70117 H 59.56543 q 11.923828,6.55273 22.504882,15.09277 l -7.46582,8.64746 q -8.05664,-8.00292 -18.691406,-15.62988 z M 49.306641,59.819336 V 94.40918 H 18.046875 v 66.06445 H 6.4990234 V 59.819336 Z m -31.259766,8.056641 v 5.693359 h 20.678711 v -5.693359 z m 0,12.836914 v 5.908203 H 38.725586 V 80.712891 Z M 103.50098,59.819336 v 90.073244 q 0,6.01562 -3.11524,8.21777 -2.363279,1.66504 -7.465818,1.66504 -4.780274,0 -9.560547,-0.64453 l -2.094727,-11.01074 q 4.243164,0.69824 8.164063,0.69824 2.524414,0 2.524414,-2.4707 V 94.40918 H 60.048828 V 59.819336 Z m -32.763675,8.056641 v 5.693359 h 21.21582 v -5.693359 z m 0,12.836914 v 5.908203 h 21.21582 V 80.712891 Z M 182.61719,125.56152 q 13.32031,11.87012 35.8789,19.17481 l -6.92871,10.09765 q -12.99804,-4.61914 -22.66601,-11.17187 -9.99024,-6.82129 -18.42285,-16.75781 v 33.56933 h -11.65528 v -32.97851 q -7.46582,10.47363 -19.28222,18.79883 -9.07715,6.3916 -19.44336,10.3125 l -7.3584,-9.45313 q 17.02636,-5.63965 28.41308,-15.2002 3.22266,-2.68554 6.55274,-6.3916 H 121.87012 V 81.572266 h 36.95312 V 74.321289 H 114.29688 V 64.65332 h 44.52636 v -8.701172 h 11.65528 v 8.701172 h 45.2246 v 9.667969 h -45.2246 v 7.250977 h 37.65136 V 125.56152 Z M 158.82324,90.595703 h -25.29785 v 8.701172 h 25.29785 z m 11.65528,0 v 8.701172 h 25.99609 v -8.701172 z m -11.65528,17.080077 h -25.29785 v 8.86231 h 25.29785 z m 11.65528,0 v 8.86231 h 25.99609 v -8.86231 z m 122.13867,17.88574 q 13.32031,11.87012 35.8789,19.17481 l -6.92871,10.09765 q -12.99804,-4.61914 -22.66601,-11.17187 -9.99024,-6.82129 -18.42285,-16.75781 v 33.56933 h -11.65528 v -32.97851 q -7.46582,10.47363 -19.28222,18.79883 -9.07715,6.3916 -19.44336,10.3125 l -7.3584,-9.45313 q 17.02636,-5.63965 28.41308,-15.2002 3.22266,-2.68554 6.55274,-6.3916 H 231.87012 V 81.572266 h 36.95312 V 74.321289 H 224.29687 V 64.65332 h 44.52637 v -8.701172 h 11.65528 v 8.701172 h 45.2246 v 9.667969 h -45.2246 v 7.250977 h 37.65136 V 125.56152 Z M 268.82324,90.595703 h -25.29785 v 8.701172 h 25.29785 z m 11.65528,0 v 8.701172 h 25.99609 v -8.701172 z m -11.65528,17.080077 h -25.29785 v 8.86231 h 25.29785 z m 11.65528,0 v 8.86231 h 25.99609 v -8.86231 z m 101.6748,-22.773436 q -0.37598,8.969726 -1.07422,15.791016 h 43.29102 q -0.80567,37.27539 -4.18946,48.39355 -1.71875,5.58594 -6.3916,7.73438 -3.65234,1.66504 -10.68847,1.66504 -7.41211,0 -16.81153,-1.12793 l -2.09472,-12.08496 q 12.62207,1.77246 17.77832,1.77246 4.35058,0 5.53222,-2.4707 2.84668,-6.01563 3.97461,-33.19336 h -31.95801 q -1.77246,9.66796 -4.99511,16.75781 -8.96973,19.60449 -29.97071,31.09863 l -8.48632,-9.45312 q 21.05468,-10.95704 27.82226,-28.73536 4.51172,-11.87011 5.85449,-36.147456 H 334.18945 V 73.891602 h 43.88184 V 55.952148 h 12.40723 v 17.939454 h 45.33203 v 11.010742 z m 121.54785,-8.916016 v -20.03418 h 11.54785 v 20.03418 h 29.11133 v 48.608402 h -29.11133 v 35.8789 h -11.54785 v -35.8789 H 475.18066 V 75.986328 Z m -17.40234,10.688477 v 27.338865 h 17.40234 V 86.674805 Z m 46.62109,27.338865 V 86.674805 h -17.6709 v 27.338865 z m -68.75,-31.796873 q -6.55273,-9.13086 -17.34863,-17.456055 l 8.00293,-8.164062 q 10.74219,7.573242 18.1543,16.972656 z m -3.49121,27.607423 q -9.3457,-10.849611 -18.1543,-17.778322 l 8.27149,-8.271484 q 9.39941,6.606445 18.58398,17.080076 z m -16.7041,41.62598 q 10.3125,-14.66309 19.01367,-36.52344 l 9.56055,7.3584 q -7.3584,20.1416 -17.93946,37.91992 z"></path>
</svg>
