<svg xmlns="http://www.w3.org/2000/svg" id="svg1" version="1.1" height="200" width="990">
  <defs id="defs1"></defs>
  <rect id="rect1" stroke="none" fill="none" height="200" width="990" y="0" x="0"></rect>
  <path aria-label="程度" style="font-size:100px;font-family:'BIZ UDPGothic';fill:#ff0000" id="text1" d="m 19.726562,113.23242 -0.683593,1.70899 q -5.46875,14.01367 -13.1347659,24.56054 L 1.7089844,131.98242 Q 13.183594,117.33398 18.75,99.707031 H 2.9296875 V 92.822266 H 19.726562 V 76.611328 Q 13.427734,78.027344 7.03125,79.003906 l -3.125,-6.005859 q 18.408203,-2.734375 31.835937,-8.056641 l 4.589844,5.566406 q -6.054687,2.34375 -13.183594,4.248047 v 18.066407 h 13.378907 v 6.884765 H 27.148437 v 7.568359 q 8.154297,5.81055 14.59961,12.54883 l -4.638672,6.5918 Q 32.8125,120.70313 27.539062,115.38086 l -0.390625,-0.43945 v 44.58007 H 19.726562 Z M 90.820312,69.287109 V 100.29297 H 44.384766 V 69.287109 Z M 51.708984,75.78125 V 93.896484 H 83.398437 V 75.78125 Z m 19.824219,39.4043 v 13.52539 h 20.263672 v 6.29883 H 71.533203 v 14.40429 h 25.976563 v 6.68946 H 36.474609 v -6.68946 H 64.111328 V 135.00977 H 43.701172 v -6.29883 H 64.111328 V 115.18555 H 41.113281 v -6.29883 H 95.3125 v 6.29883 z m 84.960937,-40.9668 h 39.4043 v 6.396484 h -22.99805 v 9.667969 h 21.58203 v 6.201172 H 172.90039 V 111.52344 H 135.5957 V 96.484375 H 117.08984 V 106.5918 q 0,22.60742 -2.14843,35.20507 -1.66016,9.57032 -5.56641,17.62696 l -6.68945,-5.17578 q 4.10156,-8.59375 5.41992,-21.28907 1.07422,-10.20507 1.07422,-26.36718 V 74.21875 h 39.40429 v -9.716797 h 7.91016 z m -39.4043,6.396484 v 9.667969 h 18.50586 v -9.667969 z m 26.22071,0 v 9.667969 h 21.875 v -9.667969 z m 0,15.869141 v 9.326175 h 21.875 v -9.326175 z m 12.89062,50.585935 q -14.79492,8.10547 -36.52344,12.54883 l -4.29687,-6.83594 q 20.80078,-3.32031 34.08203,-9.81445 -12.10937,-8.39844 -19.18945,-18.26172 h -7.56836 v -6.49414 h 58.20312 l 4.19922,3.80859 q -7.56836,10.9375 -22.2168,20.89844 13.08594,6.25 33.39844,9.47266 l -4.78515,7.03125 q -19.72657,-3.95508 -35.30274,-12.35352 z m -17.38281,-22.36328 q 6.39648,7.61719 16.16211,13.81836 l 1.02539,0.68359 q 12.10937,-7.66601 17.77344,-14.50195 z"></path>
</svg>
