<svg xmlns="http://www.w3.org/2000/svg" id="svg1" version="1.1" height="200" width="990">
  <defs id="defs1"></defs>
  <rect id="rect1" stroke="none" fill="none" height="200" width="990" y="0" x="0"></rect>
  <path aria-label="長野県南部" style="font-size:100px;font-family:'BIZ UDPGothic';fill:#ff0000" id="text1" d="m 28.515625,75 v 7.8125 h 53.759766 v 6.103516 H 28.515625 v 7.861328 H 82.275391 V 102.7832 H 28.515625 v 8.39844 h 68.994141 v 6.29883 H 52.832031 q 3.515625,8.49609 10.69336,15.47851 12.011718,-6.98242 20.849609,-14.5996 l 6.201172,5.41992 q -10.15625,7.37304 -22.070313,13.52539 11.181641,8.64258 29.101563,13.86718 l -5.126953,6.88477 Q 78.027344,153.02734 69.042969,146.97266 51.904297,135.49805 45.410156,117.48047 H 28.515625 v 31.20117 l 0.683594,-0.14648 q 14.355468,-3.125 28.417968,-7.56836 l 0.585938,6.68945 q -22.802734,7.66602 -45.996094,12.01172 L 9.5703125,152.29492 Q 14.941406,151.36719 20.507812,150.3418 V 117.48047 H 2.4902344 v -6.29883 H 20.507812 V 68.701172 H 87.5 V 75 Z M 150.29297,68.896484 v 43.505856 h -18.16406 v 11.81641 h 18.65234 v 6.5918 h -18.65234 v 13.3789 q 2.00195,-0.34179 4.10156,-0.68359 4.83398,-0.73242 17.13867,-3.07617 l 0.53711,6.49414 q -22.36328,5.02929 -49.31641,8.59375 l -2.49023,-7.22656 q 13.42773,-1.5625 22.60742,-2.97852 v -14.50195 h -19.14062 v -6.5918 h 19.14062 V 112.40234 H 106.88477 V 68.896484 Z m -36.71875,6.298828 v 12.011719 h 11.32812 V 75.195312 Z m 0,18.310547 v 12.597661 h 11.32812 V 93.505859 Z m 30.22461,12.597661 V 93.505859 h -11.91406 v 12.597661 z m 0,-18.896489 V 75.195312 h -11.91406 v 12.011719 z m 34.13086,5.566406 q 2.4414,2.490235 4.98047,5.419922 l -4.88282,4.101561 h 16.60157 l 3.36914,3.61328 q -4.73633,13.52539 -9.86328,23.09571 l -6.9336,-2.73438 q 5.22461,-9.08203 8.00781,-17.1875 h -12.69531 v 43.01758 q 0,4.24805 -2.14844,5.9082 -1.80664,1.46485 -6.25,1.46485 -6.20117,0 -11.91406,-0.78125 l -1.31836,-7.22657 q 8.05664,0.92774 11.81641,0.92774 2.19726,0 2.19726,-2.29492 v -41.01563 h -15.91796 v -6.78711 h 23.82812 q -0.24414,-0.34179 -0.58594,-0.73242 -6.98242,-8.496094 -17.33398,-16.992188 l 5.0293,-4.492187 q 5.2246,4.248047 9.47265,8.251953 6.68945,-6.738281 10.54688,-12.744141 h -28.32032 v -6.591796 h 35.40039 l 3.8086,4.003906 q -9.13086,12.451172 -16.89453,19.77539 z M 282.86133,67.578125 V 114.4043 H 225.78125 V 67.578125 Z m -49.36524,6.005859 v 7.714844 h 41.55274 v -7.714844 z m 0,13.330078 v 7.763672 h 41.55274 v -7.763672 z m 0,13.476568 v 8.30078 h 41.55274 v -8.30078 z M 214.4043,122.2168 h 83.05664 v 6.49414 h -41.99219 v 30.81054 h -7.91016 V 128.71094 H 206.5918 V 74.267578 h 7.8125 z m -9.22852,29.6875 q 12.79297,-6.15235 23.0957,-19.28711 l 6.5918,3.66211 q -10.40039,13.62304 -24.07226,21.72851 z m 84.17969,4.10156 q -10.25391,-11.18164 -23.29102,-19.82422 l 6.00586,-4.49219 q 11.76758,7.37305 23.68164,18.79883 z m 64.16015,-62.011719 h 37.06055 v 57.324219 q 0,3.90625 -1.61133,5.66406 -1.90429,2.05078 -8.00781,2.05078 -5.76172,0 -11.18164,-0.63476 l -1.70898,-7.42188 q 8.88671,0.92774 12.06054,0.92774 1.85547,0 2.29492,-0.87891 0.24415,-0.53711 0.24415,-1.61133 V 100.39063 H 317.1875 v 59.13085 h -7.91016 V 93.994141 h 36.52344 V 83.007812 h -43.31055 v -6.689453 h 43.31055 V 64.501953 h 7.71484 v 11.816406 h 43.94532 v 6.689453 h -43.94532 z m -7.61718,27.783199 h -22.2168 v -6.20117 h 11.86523 q -2.14843,-5.32226 -5.37109,-10.49804 l 6.73828,-2.5879 q 4.05274,7.12891 6.20117,13.08594 H 356.25 q 3.32031,-6.05469 5.76172,-13.28125 l 7.42187,2.58789 q -2.39257,4.98047 -5.32226,9.96094 l -0.39063,0.73242 h 12.40235 v 6.20117 h -22.70508 v 9.13086 H 378.125 v 6.29883 h -24.70703 v 19.92188 h -7.51953 V 137.20703 H 321.875 v -6.29883 h 24.02344 z m 88.08593,-45.166012 h 21.82618 v 6.787109 h -7.03125 q -2.05078,9.13086 -5.61524,18.701173 h 14.45313 v 6.88477 h -55.12696 v -6.88477 h 13.72071 l -0.0977,-0.48828 Q 414.0625,91.601562 411.71875,84.423828 l -0.3418,-1.025391 h -7.08008 v -6.787109 h 22.2168 V 64.501953 h 7.4707 z m -15.13671,6.787109 q 2.58789,7.958985 4.73632,18.701173 h 12.15821 q 2.92968,-8.105469 5.32226,-18.701173 z m 31.83593,35.888673 v 39.30664 h -7.32422 v -5.51758 h -25.97656 v 6.39649 h -7.56836 v -40.18555 z m -33.30078,6.68945 v 20.3125 h 25.97656 v -20.3125 z m 65.42969,-22.70508 q 12.8418,13.57422 12.8418,29.44336 0,5.56641 -2.00196,8.39844 -2.4414,3.27149 -8.49609,3.27149 -5.81055,0 -10.69336,-0.6836 l -1.61133,-7.61719 q 6.25,1.02539 10.15625,1.02539 3.71094,0 4.39453,-2.49023 0.29297,-1.07422 0.29297,-3.51562 0,-13.72071 -12.64648,-26.70899 5.85937,-12.695311 9.52148,-26.708983 h -15.42969 v 81.787113 h -7.37304 V 70.507812 h 27.49023 l 4.39453,3.808594 q -5.37109,17.382813 -10.83984,28.955074 z"></path>
</svg>
