<svg xmlns="http://www.w3.org/2000/svg" id="svg1" version="1.1" height="200" width="1096">
  <defs id="defs1"></defs>
  <rect id="rect1" stroke="none" fill="none" height="200" width="1096" y="0" x="0"></rect>
  <path aria-label="ウラジオストク付近" style="font-weight:bold;font-size:110px;font-family:'BIZ UDPGothic';fill:#ff0000" id="text1" d="m 44.580078,58.261719 h 12.084961 v 17.509765 h 38.081055 q -0.53711,25.351566 -5.800782,40.605466 -5.854492,17.24121 -18.745117,26.21094 -12.246093,8.54004 -31.152343,13.48145 l -6.015625,-10.15137 q 16.328125,-3.4375 28.520507,-12.03125 9.72168,-6.82129 14.394532,-18.36914 4.995117,-12.29981 5.371093,-28.950197 H 20.893555 V 112.61719 H 8.3789063 V 75.771484 H 44.580078 Z m 73.530272,5.478515 h 70.84473 v 11.010743 h -70.84473 z m -7.68066,26.31836 h 89.42871 q -2.36328,23.417966 -9.77539,36.630856 -5.58594,9.93653 -13.96485,15.84473 -14.17968,10.09766 -41.25,13.85742 l -5.4248,-10.90332 q 23.90137,-2.30957 36.57715,-10.95703 16.43554,-11.11816 18.85254,-33.46191 H 110.42969 Z M 255.12695,84.418945 Q 239.28223,77.329102 222.79297,72.548828 l 3.49121,-10.634766 q 18.58398,4.619141 32.60254,11.279297 z m -11.01074,27.500005 q -13.21289,-5.80079 -32.33398,-11.87012 l 4.61914,-10.742189 q 16.43554,4.350586 31.90429,11.547849 z m -25.40527,29.59472 q 20.78613,-1.66504 32.97851,-5.96191 31.36719,-11.11817 40.06836,-50.434573 l 11.01074,6.606446 q -7.14355,30.131837 -26.64062,44.848637 -12.7832,9.66796 -31.68945,13.75 -9.07715,1.9873 -22.29004,3.22265 z m 67.99804,-62.143553 q -3.4375,-8.486328 -11.01074,-18.90625 l 8.48633,-3.061523 q 6.82129,9.238281 10.95703,18.691406 z M 302.9834,76.416016 Q 298.52539,65.834961 292.1875,57.294922 l 7.94922,-2.578125 q 6.3916,7.412109 10.84961,18.154297 z m 71.43555,-17.080079 h 12.2998 v 20.678711 h 25.5127 v 11.010743 h -25.5127 v 53.120119 q 0,5.9082 -2.09473,8.54004 -2.41699,3.11523 -9.88281,3.11523 -8.43262,0 -16.59668,-0.53711 l -2.90039,-11.65527 q 8.43262,0.75195 15.95215,0.75195 2.52441,0 2.9541,-1.12793 0.26856,-0.64453 0.26856,-1.93359 V 96.503906 q -10.47364,15.307614 -22.93458,27.177734 -11.27929,10.74219 -27.17773,19.60449 l -7.68066,-10.47363 q 29.70214,-15.09277 49.41406,-41.787109 H 318.93555 V 80.014648 h 55.4834 z m 54.35546,7.626954 h 64.77539 l 7.14356,6.284179 q -9.07715,21.484375 -21.64551,39.04785 17.83203,13.96485 33.99902,31.47461 l -8.91601,10.09766 q -15.84473,-17.99317 -32.22656,-32.54883 -17.61719,20.78613 -44.58008,32.87109 l -6.44531,-11.11816 q 20.03418,-8.16406 33.35449,-20.35645 12.46094,-11.38671 22.82715,-28.090817 5.53222,-8.969726 8.59375,-16.65039 h -56.87989 z m 107.20704,-7.949219 h 12.51464 V 89.84375 q 32.06543,9.882812 53.12012,20.19531 l -6.01562,11.60157 q -20.19532,-10.25879 -47.1045,-19.49708 v 54.57032 h -12.51464 z m 151.62597,13.642578 8.37891,6.928711 q -6.06934,33.945309 -22.29004,51.884769 -14.77051,16.32812 -44.47266,25.24414 l -6.71386,-10.90332 q 27.23144,-6.875 41.46484,-22.23633 Q 677.77832,108.75 682.45117,83.666992 H 646.25 q -11.2793,17.080078 -26.47949,27.285158 l -8.8086,-8.91602 q 12.35352,-7.949216 20.14161,-17.294919 8.80859,-10.634766 13.75,-25.620117 l 11.65527,3.168945 q -1.93359,5.639648 -4.18945,10.366211 z m 46.35254,13.320312 V 160.47363 H 722.30469 V 105.3125 q -4.35059,6.12305 -10.09766,12.67578 l -6.06933,-11.54785 q 10.90332,-12.084961 18.6914,-28.144532 4.72656,-9.721679 9.45313,-23.203125 l 11.22558,3.061524 q -4.88769,14.716797 -11.54785,27.822265 z M 795.13672,81.25 h 16.16699 v 10.795898 h -16.16699 v 56.396482 q 0,7.08985 -3.4375,9.45313 -2.52442,1.77246 -9.50684,1.77246 -8.54004,0 -17.50976,-0.9668 l -2.30957,-11.76269 q 9.56054,1.39648 17.83203,1.39648 2.25586,0 2.73926,-0.9668 0.32226,-0.69824 0.32226,-2.30957 V 92.045898 H 739.33105 V 81.25 H 783.2666 V 57.832031 h 11.87012 z m -33.99902,52.0459 q -6.06934,-16.16699 -14.98536,-29.48731 l 10.25879,-5.96191 q 9.66797,14.2334 15.52246,29.16504 z m 83.25195,2.73926 q 4.29687,4.99511 9.66797,7.41211 8.80859,3.9746 23.0957,3.9746 h 45.76172 q -1.93359,3.65235 -3.59863,10.47364 h -42.7002 q -18.47656,0 -28.30566,-5.80078 -4.02832,-2.417 -8.86231,-7.89551 -0.37597,0.42969 -0.91308,1.07422 -7.89551,9.3457 -15.6836,15.2539 l -6.49902,-11.01074 q 8.54004,-5.10254 16.48926,-11.54785 v -26.5332 h -15.62989 v -10.58106 h 27.17774 z m 13.96484,-71.274418 2.84668,-0.214844 q 24.86817,-1.71875 44.6875,-7.358398 l 8.37891,9.453125 q -20.83985,5.478516 -44.47266,7.412109 v 13.911133 h 49.73633 V 98.4375 h -18.04688 v 43.77441 H 889.61426 V 98.4375 h -19.81934 q -0.26855,17.24121 -2.57812,27.44629 -2.09473,9.39941 -6.875,16.86523 l -9.88282,-7.46582 q 5.31739,-8.27148 6.82129,-20.51757 1.07422,-8.43262 1.07422,-22.934575 z M 838.48145,85.761719 Q 830.26367,74.160156 820.75684,64.975586 l 8.80859,-7.036133 q 9.23828,7.734375 18.58398,19.658203 z"></path>
</svg>
