<svg xmlns="http://www.w3.org/2000/svg" id="svg1" version="1.1" height="200" width="1096">
  <defs id="defs1"></defs>
  <rect id="rect1" stroke="none" fill="none" height="200" width="1096" y="0" x="0"></rect>
  <path aria-label="ヨーロッパ東部" style="font-weight:bold;font-size:110px;font-family:'BIZ UDPGothic';fill:#ff0000" id="text1" d="M 9.2382813,66.962891 H 89.912109 V 151.77246 H 6.0693359 V 140.76172 H 77.504883 v -27.5 H 11.923828 V 102.25098 H 77.504883 V 77.973633 H 9.2382813 Z M 107.79785,100.26367 h 94.58496 v 12.08496 H 107.79785 Z M 218.60352,68.037109 h 84.27246 V 150.9668 h -84.27246 z m 12.51464,11.44043 v 60.048831 h 59.24317 V 79.477539 Z m 99.36524,38.295901 q -3.86719,-16.54297 -10.47363,-30.561526 l 10.20507,-4.995117 q 6.82129,13.964844 11.11817,31.367183 z m 24.92187,-4.83399 q -3.00781,-13.159177 -9.88281,-30.454098 l 10.58106,-4.404297 q 6.17675,13.588867 10.3125,30.776365 z m -16.7041,33.40821 q 17.93945,-4.78028 27.39258,-12.89063 9.45312,-8.11035 14.39453,-23.41797 3.86719,-12.138669 5.63965,-31.206052 l 11.44043,3.383789 q -3.22266,25.190433 -8.96973,38.618163 -6.98242,16.43555 -20.94726,25.35156 -8.86231,5.69336 -22.66602,10.09766 z m 72.29492,-2.30957 q 9.34571,-13.75 16.05957,-33.67676 7.30469,-21.806643 9.23829,-44.311525 l 12.2998,2.524414 q -4.78027,32.978511 -12.83691,55.429691 -5.80079,16.32812 -14.28711,28.62793 z m 85.56153,9.13086 Q 486.99707,137.10937 479.04785,114.44336 471.47461,92.797852 466.5332,68.466797 l 11.65528,-3.598633 q 9.23828,46.352536 29.05761,80.190426 z m 3.9209,-98.344731 q 3.59863,0 6.875,1.987304 3.22265,1.933594 4.99511,5.263672 1.61133,3.007813 1.61133,6.28418 0,5.263672 -3.75976,9.291992 -3.97461,4.243164 -9.82911,4.243164 -2.90039,0 -5.58593,-1.235351 -3.33008,-1.557618 -5.42481,-4.56543 -2.4707,-3.544922 -2.4707,-7.788086 0,-3.276367 1.66504,-6.337891 1.66504,-3.061523 4.51172,-4.941406 3.38379,-2.202148 7.41211,-2.202148 z m -0.0537,6.606445 q -1.9873,0 -3.75976,1.12793 -3.16895,1.987304 -3.16895,5.854492 0,2.739258 1.87989,4.726562 2.04101,2.148438 5.04882,2.148438 1.71875,0 3.16895,-0.751953 3.75977,-1.933594 3.75977,-6.123047 0,-2.954102 -2.09473,-4.995117 -1.93359,-1.987305 -4.83399,-1.987305 z m 88.13965,64.130856 q 13.32032,11.87012 35.87891,19.17481 l -6.92871,10.09765 q -12.99805,-4.61914 -22.66602,-11.17187 -9.99023,-6.82129 -18.42285,-16.75781 v 33.56933 h -11.65527 v -32.97851 q -7.46582,10.47363 -19.28223,18.79883 -9.07715,6.3916 -19.44336,10.3125 l -7.3584,-9.45313 q 17.02637,-5.63965 28.41309,-15.2002 3.22266,-2.68554 6.55273,-6.3916 H 527.81738 V 81.572266 h 36.95313 V 74.321289 H 520.24414 V 64.65332 h 44.52637 v -8.701172 h 11.65527 v 8.701172 h 45.22461 v 9.667969 h -45.22461 v 7.250977 h 37.65137 V 125.56152 Z M 564.77051,90.595703 h -25.29785 v 8.701172 h 25.29785 z m 11.65527,0 v 8.701172 h 25.99609 v -8.701172 z m -11.65527,17.080077 h -25.29785 v 8.86231 h 25.29785 z m 11.65527,0 v 8.86231 h 25.99609 v -8.86231 z m 87.92481,-39.316405 h 22.98828 v 10.366211 h -7.57325 q -2.04101,8.217773 -5.47851,17.241211 h 14.34082 V 106.33301 H 628.68652 V 95.966797 h 13.15918 q -2.14843,-10.3125 -4.51172,-17.241211 h -6.98242 V 68.359375 H 653.125 V 55.952148 h 11.22559 z m -16.167,10.366211 q 2.73926,8.00293 4.24317,17.241211 h 10.95703 l 0.53711,-1.503906 q 2.30957,-6.123047 4.29687,-13.911133 l 0.4834,-1.826172 z m 33.30078,36.630864 v 43.98925 h -11.01074 v -5.26367 h -23.41797 v 6.3916 h -11.333 v -45.11718 z m -34.42871,9.88281 v 18.63769 h 23.41797 v -18.63769 z m 71.75782,-27.124026 q 6.3916,6.069336 10.15136,14.448246 3.70606,8.3789 3.70606,16.97265 0,7.94922 -2.9541,11.70899 -3.06153,3.9209 -10.09766,3.9209 -6.01562,0 -11.65527,-0.85938 l -2.63184,-11.44043 q 6.49902,1.18164 10.74219,1.18164 3.22265,0 4.02832,-1.5039 0.53711,-1.07422 0.53711,-4.29688 0,-13.2666 -7.94922,-22.88086 -2.09473,-2.52441 -5.26367,-5.424804 l 0.64453,-1.503906 q 5.58594,-12.62207 8.70117,-26.318359 h -13.75 V 160.47363 H 691.9043 V 61.000977 h 32.33398 l 5.96192,5.478515 q -5.42481,18.476563 -11.38672,31.635742 z"></path>
</svg>
