<svg xmlns="http://www.w3.org/2000/svg" id="svg1" version="1.1" height="200" width="990">
  <defs id="defs1"></defs>
  <rect id="rect1" stroke="none" fill="none" height="200" width="990" y="0" x="0"></rect>
  <path aria-label="6" style="font-size:100px;font-family:'BIZ UDPGothic';fill:#ff0000" id="text1" d="m 19.091797,112.59766 q 3.90625,-6.5918 10.9375,-9.66797 5.175781,-2.2461 10.546875,-2.2461 9.912109,0 17.724609,6.88477 8.203125,7.27539 8.203125,18.65234 0,11.23047 -7.080078,19.38477 -7.470703,8.49609 -20.019531,8.49609 -14.501953,0 -22.607422,-10.79101 -3.955078,-5.22461 -5.664062,-10.69336 -1.9531255,-6.29883 -1.9531255,-14.79492 0,-7.76368 3.2226565,-16.01563 9.570312,-24.707031 38.378906,-33.691406 l 3.613281,6.982422 q -17.138672,6.298828 -25.24414,15.625 Q 20.3125,100.92773 18.701172,112.59766 Z m 19.726562,-4.39453 q -7.861328,0 -13.769531,6.20117 -4.980469,5.27343 -4.980469,11.86523 0,6.05469 3.66211,11.47461 5.71289,8.44727 15.234375,8.44727 8.251953,0 13.28125,-5.76172 4.833984,-5.51758 4.833984,-13.57422 0,-8.78906 -5.029297,-13.57422 -5.322265,-5.07812 -13.232422,-5.07812 z"></path>
</svg>
