<svg xmlns="http://www.w3.org/2000/svg" id="svg1" version="1.1" height="200" width="990">
  <defs id="defs1"></defs>
  <rect id="rect1" stroke="none" fill="none" height="200" width="990" y="0" x="0"></rect>
  <path aria-label="インド洋" style="font-size:100px;font-family:'BIZ UDPGothic';fill:#ff0000" id="text1" d="M 41.601562,153.90625 V 102.29492 Q 25.878906,112.93945 6.1035156,120.3125 L 1.7089844,113.28125 Q 23.046875,106.05469 39.111328,94.628906 55.517578,82.910156 67.285156,68.994141 l 6.835938,4.296875 Q 63.232422,85.498047 49.609375,96.386719 V 153.90625 Z M 118.11523,93.164062 Q 104.15039,86.816406 88.427734,83.007812 l 2.587891,-7.617187 q 18.798825,4.492187 29.931645,10.107422 z M 89.208984,143.50586 q 19.726566,-1.75781 31.054686,-6.00586 29.3457,-10.98633 36.96289,-50.585938 l 6.78711,4.882813 q -4.54101,21.484375 -14.16015,34.082035 -10.54688,13.86718 -28.8086,20.06836 -11.27929,3.80859 -29.833983,5.85937 z M 186.03516,68.896484 h 8.20312 v 28.222657 q 30.41992,9.472659 47.90039,18.359379 l -4.10156,7.32421 q -19.58008,-9.86328 -43.79883,-17.82226 v 49.51172 h -8.20312 z m 41.21093,24.707032 q -3.22265,-8.203125 -8.6914,-16.308594 l 5.85937,-2.392578 q 5.66406,7.861328 8.93555,16.308593 z m 12.59766,-3.90625 q -3.56445,-9.082032 -8.69141,-16.40625 l 5.76172,-2.09961 q 5.12696,6.738281 8.83789,15.820313 z m 73.33984,-2.09961 h -27.00195 v -6.689453 h 15.08789 q -3.4668,-8.007812 -7.27539,-13.525391 l 7.08008,-2.880859 q 4.6875,7.714844 7.8125,16.40625 h 16.74805 l 0.34179,-0.683594 q 3.51563,-7.177734 6.39649,-15.820312 l 8.00781,2.392578 Q 337.5,73.486328 333.44727,80.908203 h 15.13671 v 6.689453 h -27.49023 v 15.625004 h 24.51172 v 6.59179 h -24.51172 v 16.60157 h 30.41992 v 6.88476 h -30.41992 v 26.2207 h -7.91016 v -26.2207 h -29.98047 v -6.88476 h 29.98047 v -16.60157 h -24.3164 v -6.59179 h 24.3164 z M 274.90234,86.523437 Q 268.35937,78.173828 259.91211,71.09375 l 5.37109,-5.273438 q 8.59375,6.542969 15.33203,14.892579 z m -3.51562,25.488283 q -7.66602,-9.17969 -15.38086,-15.332033 l 5.41992,-5.46875 q 8.39844,6.445313 15.57617,14.892583 z m -13.1836,40.57617 q 8.88672,-11.96289 16.89454,-32.4707 L 281.20117,125 q -7.17773,20.26367 -16.69922,33.69141 z"></path>
</svg>
