<svg xmlns="http://www.w3.org/2000/svg" id="svg1" version="1.1" height="200" width="1096">
  <defs id="defs1"></defs>
  <rect id="rect1" stroke="none" fill="none" height="200" width="1096" y="0" x="0"></rect>
  <path aria-label="鹿児島湾" style="font-weight:bold;font-size:110px;font-family:'BIZ UDPGothic';fill:#ff0000" id="text1" d="m 28.520508,147.15332 v -32.11914 h 11.225586 v 9.02344 h 20.356445 v 9.23828 H 39.746094 v 12.19238 q 13.21289,-2.14844 21.000976,-3.9209 l 0.322266,9.02344 q -17.724609,5.04883 -40.12207,8.21777 l -3.115235,-10.3125 q 5.747071,-0.64453 10.688477,-1.34277 z M 61.123047,64.868164 h 43.183593 v 9.238281 H 73.691406 v 9.453125 h 26.748044 v 28.19824 H 20.249023 q -0.322265,16.97266 -1.71875,26.47949 -1.772461,12.13868 -7.089843,22.12891 l -9.8828128,-8.00293 q 5.0488281,-9.93652 6.4453125,-23.63281 1.0205078,-10.04395 1.0205078,-27.0166 V 64.868164 H 49.199219 v -8.916016 h 11.923828 z m -40.766602,9.238281 v 9.453125 h 15.952149 v -9.453125 z m 0,18.046875 v 7.734375 3.276365 H 36.308594 V 92.15332 Z m 68.75,11.01074 V 92.15332 H 73.691406 v 11.01074 z M 47.319336,74.106445 v 9.453125 h 15.361328 v -9.453125 z m 0,18.046875 v 11.01074 H 62.680664 V 92.15332 Z m 28.037109,34.10645 q 11.655274,-3.97461 20.141602,-9.23829 l 7.143553,8.70118 q -12.084959,5.9082 -27.285155,10.04394 v 8.16406 q 0,3.22266 1.987305,3.75977 1.665039,0.4834 7.895508,0.4834 7.46582,0 8.754883,-1.55762 1.18164,-1.39648 1.71875,-9.56055 l 0.107421,-1.66504 11.010738,2.95411 q -0.10742,0.69824 -0.32226,3.97461 -0.80566,10.47363 -4.67285,13.53515 -3.813479,3.06153 -19.174807,3.06153 -10.84961,0 -14.448242,-1.61133 -3.97461,-1.82617 -3.97461,-7.8418 V 115.03418 H 75.356445 Z M 206.67969,59.121094 V 112.61719 H 151.03516 V 59.121094 Z m -43.98926,9.667968 v 12.246094 h 32.22656 V 68.789062 Z m 0,21.484375 v 12.890623 h 32.22656 V 90.273437 Z m -38.2959,-33.24707 h 12.40723 v 59.619143 h -12.40723 z m -11.33301,93.725583 q 13.91114,-1.39648 22.61231,-7.8955 5.96191,-4.45801 7.94922,-12.08497 1.12793,-4.40429 1.55761,-12.89062 h 11.87012 q -0.16113,20.1416 -8.75488,29.80957 -8.37891,9.39941 -28.09082,13.42773 z m 58.00782,-33.19336 h 12.08496 v 26.58692 q 0,2.79297 1.77246,3.33008 1.87988,0.59082 7.51953,0.59082 6.06933,0 8.11035,-0.64454 2.14844,-0.69824 2.79297,-4.24316 0.75195,-3.65234 0.91309,-11.22559 l 12.24609,3.54493 q -0.21484,2.04101 -0.64453,7.3584 -0.9668,11.17187 -4.99512,13.96484 -2.25586,1.50391 -6.49902,1.87988 -5.8545,0.4834 -14.34082,0.4834 -11.7627,0 -15.36133,-2.09473 -3.59863,-2.14843 -3.59863,-8.43261 z m 91.52343,-53.442379 q 1.98731,-4.780274 3.22266,-9.130859 l 13.10547,1.77246 q -1.87988,4.458008 -3.4375,7.358399 h 35.77148 v 35.019531 h -64.88281 v 5.424808 h 80.83496 v 8.70117 h -80.83496 v 5.47851 h 77.0752 q -0.69825,24.59961 -3.11524,33.19336 -1.55762,5.47852 -5.85449,7.25098 -3.06152,1.28906 -9.3457,1.28906 -6.44532,0 -12.03125,-0.80566 l -2.14844,-9.02344 h -53.81836 v 5.96192 h -11.54785 v -25.83497 h 11.54785 v 11.06446 h 18.47656 v -14.50196 h -21.1084 V 64.116211 Z m 22.82715,77.719729 v -11.06446 h 11.11817 v 18.69141 q 4.458,0.42969 7.41211,0.42969 3.65234,0 4.56542,-2.09473 1.77247,-3.9209 2.79297,-20.46387 H 267.1582 v 14.50196 z M 246.37207,72.387695 v 5.317383 h 53.0127 v -5.317383 z m 0,12.998047 v 5.854492 h 53.0127 V 85.385742 Z M 412.9834,74.106445 v 20.786133 q 0,3.544922 -1.50391,5.209962 -1.77246,1.93359 -7.84179,1.93359 -5.80079,0 -9.50684,-0.64453 l -1.39649,-8.916014 q 4.24317,0.859375 7.14356,0.859375 1.55762,0 1.9873,-0.751953 0.32227,-0.644531 0.32227,-2.094727 V 74.106445 h -9.56055 q -0.42968,11.333008 -3.00781,17.402344 -2.84668,6.606445 -11.76269,12.084961 l -7.68067,-6.821289 q 8.05664,-4.189453 10.36621,-10.795899 1.39649,-4.135742 1.71875,-11.870117 h -21.21582 v -9.130859 h 30.56153 v -9.023438 h 11.8164 v 9.023438 h 33.73047 v 9.130859 z m 16.59668,30.454105 v 21.80664 h -53.0127 q -0.42968,2.9541 -1.02051,5.9082 h 58.65235 q -1.34277,14.77051 -3.70606,20.24902 -3.4375,7.94922 -16.11328,7.94922 -10.52734,0 -22.6123,-0.91308 l -1.98731,-9.77539 q 11.54785,1.23535 20.67871,1.23535 4.94141,0 6.49903,-1.12793 2.41699,-1.77246 3.75976,-9.23828 h -47.26562 q -0.59082,2.20215 -2.04102,6.60644 l -11.54785,-2.30957 q 4.08203,-12.24609 6.12305,-26.47949 h 51.83105 v -5.74707 h -55 v -8.16406 z M 350.57129,80.820312 q -5.96192,-8.271484 -15.25391,-16.381835 l 8.00293,-7.626954 q 8.43262,6.176758 15.84473,15.737305 z m -3.27637,27.714848 Q 339.02344,98.061523 331.23535,91.455078 l 8.05664,-7.788086 q 8.05664,6.176758 16.59668,15.952149 z M 333.4375,151.9873 q 9.45312,-14.71679 17.93945,-37.75878 l 8.8086,6.49902 q -7.03614,21.32324 -16.86524,39.85351 z m 95.71289,-51.50878 Q 422.11426,89.091797 414.37988,80.820312 l 8.16407,-5.263671 q 9.45312,8.59375 15.30761,18.798828 z m -75.1416,-6.445317 q 7.8418,-6.445312 12.89062,-17.080078 l 9.77539,3.652344 q -5.26367,11.977539 -14.55566,19.980471 z"></path>
</svg>
