<svg version="1.1" xmlns="http://www.w3.org/2000/svg" xmlns:xlink="http://www.w3.org/1999/xlink" width="168.1" height="32.878" viewBox="0,0,168.1,32.878"><g transform="translate(-239.92393,-179.76249)"><g stroke="none" stroke-miterlimit="10"><path d="M247.92393,179.76249h152.1c4.432,0 8,3.568 8,8v16.878c0,4.432 -3.568,8 -8,8h-152.1c-4.432,0 -8,-3.568 -8,-8v-16.878c0,-4.432 3.568,-8 8,-8z" fill-opacity="0.7" fill="#000000" fill-rule="evenodd" stroke-width="0"/><g fill="#ffffff" fill-rule="nonzero" stroke-width="3.00093"><path d="M251.476,187.06449v1.09472c0,1.03154 0.26175,2.01666 0.78526,2.95537c0.58282,1.04444 1.43255,1.87612 2.5492,2.49504l-0.53769,0.83168c-0.83555,-0.51577 -1.56279,-1.19788 -2.18171,-2.04632c-0.43325,-0.59314 -0.77108,-1.26493 -1.01349,-2.01537c-0.50288,1.83872 -1.55376,3.21325 -3.15265,4.12359l-0.59185,-0.73497c1.0857,-0.51835 1.91996,-1.32682 2.50278,-2.42541c0.47451,-0.89744 0.71176,-1.94059 0.71176,-3.12944v-1.14888zM255.36362,188.6969h1.70978c0.07737,-0.39714 0.16376,-0.89099 0.25917,-1.48155l0.01934,-0.11218l0.84715,0.12765c-0.08768,0.54672 -0.17794,1.03541 -0.27078,1.46608h0.46806c0.61892,0 1.06249,0.13926 1.33069,0.41777c0.23983,0.25015 0.35975,0.63956 0.35975,1.16822c0,0.8897 -0.09413,1.72139 -0.28239,2.49504c-0.10831,0.43841 -0.23983,0.76205 -0.39457,0.97094c-0.19599,0.26046 -0.46806,0.3907 -0.81621,0.3907c-0.41777,0 -0.87423,-0.1341 -1.36937,-0.4023l0.09671,-0.81621c0.48998,0.23468 0.87036,0.35201 1.14114,0.35201c0.14184,0 0.25144,-0.07608 0.3288,-0.22823c0.08252,-0.16505 0.16118,-0.40359 0.23597,-0.71563c0.14699,-0.63182 0.22049,-1.29587 0.22049,-1.99216c0,-0.3662 -0.0735,-0.60345 -0.22049,-0.71176c-0.12636,-0.09026 -0.35201,-0.13539 -0.67695,-0.13539h-0.59571c-0.41004,1.82583 -0.99802,3.38346 -1.76394,4.67288l-0.77752,-0.42551c0.79171,-1.32811 1.35648,-2.7439 1.69431,-4.24737h-1.54344zM261.78884,192.5149c-0.29141,-1.0728 -0.75174,-2.12627 -1.38098,-3.16039l0.75432,-0.34041c0.64987,1.0367 1.13599,2.07985 1.45834,3.12944zM261.21633,188.80908c-0.15989,-0.41777 -0.41778,-0.88197 -0.77366,-1.39258l0.59958,-0.22436c0.31204,0.44098 0.57379,0.89873 0.78526,1.37324zM262.2569,188.47641c-0.20115,-0.49772 -0.45775,-0.96578 -0.76979,-1.40419l0.56864,-0.18955c0.29657,0.3533 0.55574,0.79429 0.77752,1.32295zM269.26236,187.8188c-0.22952,-0.22436 -0.44485,-0.41391 -0.646,-0.56864l0.61892,-0.30946c0.24757,0.1702 0.49772,0.3778 0.75045,0.62279l-0.47193,0.25531h0.8046v0.64987h-1.98056c0.09026,0.64471 0.2192,1.16177 0.38683,1.55118c0.31978,-0.37393 0.61635,-0.793 0.88971,-1.25719l0.64213,0.34815c-0.33783,0.5493 -0.72466,1.07151 -1.16048,1.56665c0.12379,0.15731 0.25273,0.28754 0.38683,0.3907c0.09542,0.06963 0.16376,0.10444 0.20502,0.10444c0.07479,0 0.14571,-0.22823 0.21276,-0.68469c0.01031,-0.05931 0.02063,-0.12121 0.03095,-0.18568l0.67308,0.37909c-0.09026,0.48998 -0.17665,0.81879 -0.25917,0.98641c-0.1341,0.28109 -0.30173,0.42164 -0.50288,0.42164c-0.14957,0 -0.3417,-0.07092 -0.57637,-0.21275c-0.26046,-0.15731 -0.50675,-0.37007 -0.73884,-0.63827c-0.28367,0.25789 -0.60861,0.49643 -0.97481,0.71563l-0.30173,-0.33267h-2.50665v-1.69431h2.52599v1.34616c0.27078,-0.17536 0.55445,-0.3907 0.85102,-0.646c-0.27594,-0.53124 -0.47967,-1.25074 -0.61119,-2.1585h-3.17586v0.89357c0,0.78139 -0.03095,1.35003 -0.09284,1.70591c-0.06705,0.38425 -0.2192,0.7801 -0.45646,1.18756l-0.71176,-0.52222c0.19599,-0.33783 0.32236,-0.75302 0.37909,-1.24559c0.03353,-0.28625 0.05029,-0.6344 0.05029,-1.04444v-1.62468h3.93017c-0.02063,-0.20889 -0.04126,-0.48611 -0.06189,-0.83168h0.82394c0.01805,0.31204 0.03868,0.58927 0.06189,0.83168zM265.47144,190.50726v0.54543h1.07538v-0.54543zM264.5856,188.87871h2.77356v0.61119h-2.77356zM263.25492,193.90361c0.27852,-0.47709 0.48611,-1.02123 0.62279,-1.63242l0.78526,0.22823c-0.12378,0.78139 -0.34299,1.41579 -0.65761,1.90319zM265.27416,192.30214h0.83942v1.08699c0,0.14184 0.04513,0.22694 0.13539,0.25531c0.11347,0.03611 0.37393,0.05416 0.78139,0.05416c0.48998,0 0.80331,-0.01934 0.93999,-0.05802c0.0851,-0.02321 0.14055,-0.09929 0.16634,-0.22823c0.02579,-0.13926 0.04771,-0.33783 0.06576,-0.59571l0.83168,0.22049c-0.02837,0.63956 -0.13539,1.03412 -0.32107,1.18369c-0.10573,0.08252 -0.26046,0.1341 -0.46419,0.15473c-0.33009,0.03611 -0.72853,0.05416 -1.1953,0.05416c-0.78655,0 -1.27911,-0.03997 -1.47768,-0.11992c-0.20115,-0.07994 -0.30172,-0.26046 -0.30172,-0.54156zM269.93157,194.1976c-0.27852,-0.63698 -0.60603,-1.21335 -0.98254,-1.72912l0.70403,-0.37135c0.41262,0.47193 0.75689,1.0006 1.03283,1.58599zM267.10386,193.31563c-0.32751,-0.50546 -0.6099,-0.88326 -0.84715,-1.13341l0.59185,-0.37135c0.32236,0.27852 0.62666,0.63053 0.91291,1.05604zM271.80382,187.31206h0.91291v4.61099c0,0.97223 0.51061,1.45834 1.53184,1.45834c0.67308,0 1.22496,-0.31075 1.65562,-0.93226c0.27852,-0.39972 0.52866,-1.01865 0.75045,-1.85677l0.78526,0.4758c-0.26304,0.93097 -0.57895,1.62726 -0.94773,2.08887c-0.58024,0.7195 -1.33456,1.07925 -2.26294,1.07925c-0.96965,0 -1.65305,-0.29915 -2.05019,-0.89744c-0.25015,-0.37393 -0.37522,-0.85618 -0.37522,-1.44674zM275.1228,189.53632c-0.16505,-0.42293 -0.42938,-0.89744 -0.793,-1.42353l0.6344,-0.2321c0.3172,0.44614 0.58153,0.91162 0.793,1.39645zM276.25621,189.11855c-0.18568,-0.48225 -0.44743,-0.96062 -0.78526,-1.43513l0.60345,-0.20502c0.30688,0.37135 0.56864,0.82265 0.78526,1.3539zM282.26752,187.1612h0.87036v1.14888h2.25908v0.72724h-2.25908v1.60147c0.09026,0.30946 0.13539,0.59056 0.13539,0.84329c0,0.91291 -0.20244,1.58342 -0.60732,2.01151c-0.43841,0.46419 -1.10246,0.78784 -1.99216,0.97094l-0.44098,-0.65761c0.73239,-0.13152 1.26751,-0.33396 1.60534,-0.60732c0.27078,-0.22178 0.45646,-0.51061 0.55703,-0.86649c-0.27594,0.30173 -0.60603,0.45259 -0.99028,0.45259c-0.45388,0 -0.80976,-0.13152 -1.06765,-0.39457c-0.29141,-0.29657 -0.43712,-0.70016 -0.43712,-1.21077c0,-0.44872 0.14184,-0.82652 0.42551,-1.13341c0.3043,-0.33009 0.70661,-0.49514 1.2069,-0.49514c0.2682,0 0.51319,0.06447 0.73497,0.19341v-0.7079h-3.81799v-0.72724h3.81799zM282.29847,191.17647v-0.14313c0,-0.15215 -0.0361,-0.29012 -0.10831,-0.41391c-0.14184,-0.24757 -0.3533,-0.37135 -0.6344,-0.37135c-0.14957,0 -0.28754,0.04255 -0.41391,0.12765c-0.2682,0.17794 -0.4023,0.44485 -0.4023,0.80073c0,0.25789 0.06318,0.46935 0.18955,0.6344c0.14442,0.18568 0.34557,0.27852 0.60345,0.27852c0.25531,0 0.45775,-0.11218 0.60732,-0.33654c0.10573,-0.16247 0.1586,-0.35459 0.1586,-0.57637zM284.20166,188.15921c-0.09284,-0.38425 -0.2566,-0.77752 -0.49127,-1.17983l0.59185,-0.11992c0.21662,0.34041 0.38683,0.72595 0.51061,1.15662zM285.25383,188.11279c-0.09284,-0.38941 -0.2566,-0.78268 -0.49127,-1.17983l0.58024,-0.11992c0.22694,0.34299 0.39328,0.71821 0.49901,1.12567zM291.16843,188.78587c-0.97739,-0.43325 -2.07856,-0.76592 -3.30351,-0.99802l0.32494,-0.68855c1.25848,0.23468 2.36997,0.54027 3.33446,0.91678zM286.75472,191.62132c0.10573,-1.23269 0.26433,-2.30678 0.4758,-3.22228l0.83168,0.15473c-0.19599,0.81492 -0.32236,1.57826 -0.37909,2.29002c0.37393,-0.28625 0.8046,-0.51448 1.29201,-0.68469c0.46677,-0.16505 0.9026,-0.24757 1.30748,-0.24757c0.60603,0 1.10117,0.11734 1.48542,0.35201c0.51319,0.3172 0.76979,0.82523 0.76979,1.5241c0,0.68598 -0.23339,1.21722 -0.70016,1.59373c-0.65245,0.52093 -1.78715,0.80847 -3.40409,0.86263l-0.30946,-0.80073c1.08054,-0.0026 1.90319,-0.10318 2.46796,-0.30173c0.6834,-0.23725 1.0251,-0.68984 1.0251,-1.35777c0,-0.42293 -0.15086,-0.73755 -0.45259,-0.94386c-0.23983,-0.16505 -0.55445,-0.24757 -0.94386,-0.24757c-0.55445,0 -1.15017,0.18181 -1.78715,0.54543c-0.38941,0.22178 -0.73755,0.49127 -1.04444,0.80847zM297.33834,192.0391c-0.47709,1.4029 -1.0122,2.10434 -1.60534,2.10434c-0.42293,0 -0.78526,-0.29657 -1.08699,-0.8897c-0.2321,-0.45904 -0.39199,-0.96449 -0.47967,-1.51637c-0.10573,-0.6705 -0.1586,-1.53184 -0.1586,-2.58401c0,-0.45646 0.01676,-0.94644 0.05029,-1.46995l0.90905,0.06963c-0.03353,0.52351 -0.05029,1.02123 -0.05029,1.49316c0,1.65562 0.15473,2.80966 0.46419,3.46211c0.12636,0.2682 0.24499,0.4023 0.35588,0.4023c0.07221,0 0.16247,-0.08252 0.27078,-0.24757c0.22178,-0.33525 0.43583,-0.79687 0.64213,-1.38484zM299.78696,192.95975c-0.13152,-1.08828 -0.2927,-1.96767 -0.48354,-2.63817c-0.2321,-0.81234 -0.50159,-1.55634 -0.80847,-2.232l0.82394,-0.20115c0.42551,0.84329 0.74142,1.65562 0.94773,2.43702c0.1702,0.6344 0.31075,1.44158 0.42164,2.42154zM306.76147,190.32158v0.76205h2.24747v0.69629h-2.24747v1.64789h1.0367v-1.27653h0.80847v2.36352h-0.80847v-0.41391h-2.83545v0.41391h-0.80847v-2.36352h0.80847v1.27653h0.98254v-1.64789h-2.13916v-0.69629h2.13916v-0.76205h-1.83356v-0.67308h3.05594c0.24757,-0.46419 0.48354,-1.02123 0.70789,-1.6711l0.76979,0.30946c-0.19083,0.43841 -0.42035,0.89228 -0.68855,1.36163h0.7195v0.67308zM302.40966,188.41452v-1.4274h0.83168v1.4274h0.76979v0.76979h-0.76979v1.24945c0.19083,-0.06447 0.41262,-0.14571 0.66534,-0.2437l0.09671,0.72724c-0.29915,0.12636 -0.55316,0.22952 -0.76205,0.30946v2.57241c0,0.22694 -0.04126,0.39198 -0.12378,0.49514c-0.10573,0.12894 -0.31204,0.19341 -0.61892,0.19341c-0.27852,0 -0.53769,-0.02579 -0.77753,-0.07737l-0.1586,-0.80847c0.30946,0.04642 0.53382,0.06963 0.67308,0.06963c0.07994,0 0.12894,-0.01676 0.14699,-0.05029c0.01805,-0.02837 0.02708,-0.07737 0.02708,-0.147v-1.94574c-0.26304,0.08768 -0.52995,0.17149 -0.80073,0.25144l-0.23596,-0.79687c0.43583,-0.11089 0.76334,-0.19986 0.98254,-0.26691c0.01805,-0.00513 0.03611,-0.01029 0.05416,-0.01547v-1.51637h-0.92453v-0.76979zM303.84479,187.43197c1.60405,-0.07221 3.03015,-0.22565 4.27832,-0.46033l0.52222,0.64213c-1.43642,0.25531 -2.93602,0.42938 -4.49881,0.52222zM304.73836,189.60208c-0.12894,-0.44356 -0.28496,-0.84457 -0.46806,-1.20304l0.71563,-0.23983c0.21662,0.42035 0.38038,0.81621 0.49127,1.18756zM306.17349,189.51311c-0.098,-0.44098 -0.25144,-0.85231 -0.46033,-1.23398l0.7195,-0.23983c0.21405,0.37651 0.38038,0.79429 0.49901,1.25332zM311.00498,187.1612h0.85489v2.18558c0.61377,-0.63698 1.10504,-1.07409 1.47382,-1.31135c0.34299,-0.22178 0.69887,-0.33267 1.06765,-0.33267c0.37136,0 0.6705,0.10444 0.89744,0.31333c0.29915,0.27852 0.44872,0.64342 0.44872,1.09472c0,0.11863 -0.01547,0.27594 -0.04642,0.47193c-0.22694,1.44158 -0.34041,2.4396 -0.34041,2.99405c0,0.23725 0.0606,0.35588 0.18181,0.35588c0.07737,0 0.17923,-0.04384 0.30559,-0.13152c0.26562,-0.1831 0.53382,-0.48354 0.8046,-0.90131l0.3172,0.88584c-0.16505,0.26304 -0.37007,0.49643 -0.61506,0.70016c-0.28367,0.23725 -0.58669,0.35588 -0.90905,0.35588c-0.30688,0 -0.54543,-0.10702 -0.71563,-0.32107c-0.14442,-0.1831 -0.21662,-0.48869 -0.21662,-0.91678c0,-0.32494 0.04255,-0.81363 0.12765,-1.46608c0.10831,-0.82008 0.18052,-1.42868 0.21662,-1.82583c0.00513,-0.06447 0.0077,-0.11863 0.0077,-0.16247c0,-0.22694 -0.04771,-0.40101 -0.14313,-0.52222c-0.09023,-0.11605 -0.2153,-0.17407 -0.37518,-0.17407c-0.53898,0 -1.36808,0.71821 -2.4873,2.15463v3.65166h-0.85489v-2.67685c-0.43067,0.60345 -0.82781,1.17338 -1.19143,1.70978l-0.4023,-0.91678c0.61119,-0.74013 1.14243,-1.44545 1.59373,-2.11595v-0.98254h-1.35777v-0.77752h1.35777zM317.98336,188.07411h2.085c0.22952,-0.3662 0.40359,-0.66148 0.52222,-0.88584l0.86263,0.12378c-0.07737,0.13926 -0.21404,0.3662 -0.41004,0.68082l-0.05029,0.08123h2.72714v0.76205h-3.24162c-0.33783,0.46419 -0.66019,0.8665 -0.96707,1.2069c0.4874,-0.29141 0.93226,-0.43712 1.33456,-0.43712c0.62408,0 1.03283,0.31333 1.22625,0.93999c0.66019,-0.2192 1.33327,-0.43583 2.01924,-0.64987l0.33267,0.75045l-0.13539,0.03868l-0.38296,0.10058c-0.72208,0.19599 -1.29974,0.36362 -1.73299,0.50288c0.03095,0.33525 0.05287,0.7685 0.06576,1.29974l-0.84715,0.04642c-0.0026,-0.30688 -0.00776,-0.63956 -0.01547,-0.99802v-0.07737c-1.18627,0.40488 -1.77941,0.81234 -1.77941,1.22238c0,0.21147 0.15215,0.35588 0.45646,0.43325c0.29399,0.07479 0.82008,0.11218 1.57826,0.11218c0.69887,0 1.43255,-0.03997 2.20105,-0.11992l0.09284,0.82394c-0.74529,0.05673 -1.51766,0.0851 -2.3171,0.0851c-0.98512,0 -1.68528,-0.07479 -2.10048,-0.22436c-0.51319,-0.18568 -0.76979,-0.51964 -0.76979,-1.00188c0,-0.40746 0.18181,-0.76721 0.54543,-1.07925c0.37651,-0.32236 1.03928,-0.65503 1.9883,-0.99802c-0.05158,-0.19857 -0.11992,-0.33783 -0.20502,-0.41777c-0.09542,-0.09026 -0.22178,-0.13539 -0.37909,-0.13539c-0.25531,0 -0.57637,0.09671 -0.9632,0.29012c-0.47709,0.23725 -0.98899,0.59443 -1.53571,1.07151l-0.51448,-0.58797c0.80202,-0.74529 1.42998,-1.47768 1.88385,-2.19718h-1.57439zM328.55924,188.03156v-0.33267h-2.41768v-0.55316h5.70958v0.55316h-2.46796v0.33267h3.20294v1.38871h-0.83942v-0.8897h-2.36352v1.50476h-0.82394v-1.50476h-2.32097v0.8897h-0.83168v-1.38871zM331.29798,193.52065c0.39456,0.14957 0.88713,0.2682 1.47768,0.35588l-0.45259,0.65761c-0.82781,-0.14184 -1.50734,-0.38554 -2.03858,-0.73111c-0.52866,-0.34557 -0.93999,-0.77495 -1.23398,-1.28814h-0.85489v1.19143c0.56993,-0.07994 1.09859,-0.16505 1.586,-0.25531l0.05416,0.57637c-0.90776,0.21662 -1.94575,0.40488 -3.11397,0.56477l-0.22823,-0.68082c0.40488,-0.04384 0.68211,-0.07479 0.83168,-0.09284l0.04642,-0.0077v-1.29587h-0.84715c-0.03611,0.45388 -0.09542,0.81621 -0.17794,1.08699c-0.098,0.32494 -0.25531,0.62795 -0.47193,0.90905l-0.68855,-0.56864c0.25273,-0.32751 0.41004,-0.71047 0.47193,-1.14888c0.03353,-0.23725 0.05029,-0.53253 0.05029,-0.88584v-1.64015h6.67665v0.51448h-5.84497v1.18756h6.17764v0.54543h-0.8781l0.49127,0.32494c-0.29141,0.24241 -0.63569,0.46935 -1.03283,0.68082zM330.69453,193.22279c0.37136,-0.25273 0.66663,-0.48869 0.88584,-0.7079h-1.69044c0.22178,0.28367 0.48998,0.51964 0.8046,0.7079zM326.57868,188.81682h1.64789v0.43712h-1.64789zM326.57868,189.52858h1.64789v0.44485h-1.64789zM329.71586,188.81682h1.69817v0.43712h-1.69817zM329.71586,189.52858h1.69817v0.44485h-1.69817zM327.00032,191.10684h4.81601v0.50674h-4.81601zM337.52204,187.68341h3.03273v0.64987h-1.71752v0.64213h1.6092v0.62666h-1.6092v1.15275h-3.11397v-1.15275h-1.2688v0.7195c0,1.16822 -0.06189,2.09145 -0.18568,2.76969c-0.09542,0.51577 -0.25015,0.98641 -0.46419,1.41192l-0.70403,-0.55703c0.19599,-0.42551 0.33009,-0.94515 0.4023,-1.55892c0.06447,-0.53898 0.09671,-1.22753 0.09671,-2.06566v-2.63817h3.05981v-0.69629h0.86263zM334.4545,188.33328v0.64213h1.2688v-0.64213zM336.54724,188.33328v0.64213h1.46608v-0.64213zM336.54724,189.60208v0.59958h1.46608v-0.59958zM337.44468,193.66378c-0.74529,0.38683 -1.69173,0.68082 -2.83932,0.88197l-0.4023,-0.71176c1.07796,-0.12894 1.92254,-0.32622 2.53372,-0.59185c-0.52351,-0.37909 -0.97094,-0.8291 -1.34229,-1.35003h-0.53382v-0.67308h4.52976l0.40617,0.34041c-0.38425,0.59056 -0.93225,1.1463 -1.64402,1.66723c0.61119,0.24499 1.44416,0.42551 2.49891,0.54156l-0.45259,0.73111c-1.01091,-0.13668 -1.92898,-0.4152 -2.75422,-0.83555zM336.2958,191.8921c0.31204,0.3662 0.69113,0.68855 1.13728,0.96707c0.50288,-0.32494 0.89099,-0.64729 1.16435,-0.96707zM342.91442,191.66001v1.40419c0,0.20373 0.07479,0.32623 0.22436,0.36749c0.22179,0.06189 0.95547,0.09284 2.20106,0.09284c1.10633,0 1.79488,-0.03224 2.06566,-0.09671c0.12894,-0.03095 0.21146,-0.10315 0.24757,-0.21662c0.04387,-0.12894 0.07868,-0.42938 0.10444,-0.90131l0.85489,0.26304c-0.02833,0.50803 -0.06959,0.85618 -0.12378,1.04444c-0.06963,0.24499 -0.19858,0.41133 -0.38683,0.49901c-0.1341,0.06189 -0.31978,0.10058 -0.55703,0.11605c-0.61119,0.04384 -1.40935,0.06576 -2.39447,0.06576c-1.37969,0 -2.19976,-0.0245 -2.46023,-0.0735c-0.29399,-0.05415 -0.48353,-0.1831 -0.56863,-0.38683c-0.04127,-0.10315 -0.0619,-0.2321 -0.0619,-0.38683v-3.97272l-0.0387,0.03095c-0.11863,0.0851 -0.25917,0.17923 -0.42164,0.28238l-0.52996,-0.64213c0.92065,-0.50546 1.69947,-1.22625 2.33645,-2.16237l0.54156,0.37135h2.20105l0.41004,0.42551c-0.34041,0.48225 -0.6963,0.91678 -1.06765,1.30361h2.47957v2.57241zM342.91442,190.97145h1.66337v-1.17209h-1.66337zM345.40947,189.79936v1.17209h1.69817v-1.17209zM344.51202,189.0876c0.33267,-0.34815 0.61635,-0.68984 0.85103,-1.02509h-1.78715c-0.28625,0.35072 -0.62666,0.69242 -1.02123,1.02509zM351.49427,194.5148c-0.47193,-0.42551 -0.85875,-0.94515 -1.16048,-1.55892c-0.37135,-0.7556 -0.55703,-1.49187 -0.55703,-2.20879c0,-0.81234 0.23339,-1.63886 0.70016,-2.47957c0.28367,-0.50803 0.62279,-0.93483 1.01735,-1.2804h0.75432c-0.34557,0.39714 -0.62408,0.76334 -0.83555,1.09859c-0.5364,0.85618 -0.8046,1.74588 -0.8046,2.66911c0,0.87165 0.23983,1.71236 0.7195,2.52212c0.22694,0.38167 0.53382,0.79429 0.92065,1.23785zM357.61776,189.82257c-0.00267,0.81234 0.1843,1.50992 0.5609,2.09274c0.52093,0.81234 1.28685,1.42482 2.29776,1.83743l-0.5609,0.74271c-1.3539,-0.67566 -2.23329,-1.57439 -2.63817,-2.69619c-0.16505,0.61377 -0.4268,1.12696 -0.78526,1.53958c-0.4023,0.45904 -0.97738,0.86005 -1.72525,1.20303l-0.52996,-0.71176c0.93871,-0.29399 1.61695,-0.83684 2.03472,-1.62855c0.32751,-0.61892 0.49127,-1.41966 0.49127,-2.4022v-1.43513h0.85489zM354.40709,188.136v1.60921c0,1.2559 -0.03482,2.18042 -0.10445,2.77356c-0.07994,0.69887 -0.25917,1.34745 -0.53769,1.94575l-0.76592,-0.62279c0.25789,-0.53382 0.42165,-1.15146 0.49128,-1.85291c0.04127,-0.43583 0.0619,-1.05475 0.0619,-1.85677v-2.76582h6.70373v0.76979zM354.55795,191.42404c0.33525,-0.70403 0.53383,-1.44158 0.59572,-2.21266l0.8162,0.09671c-0.10573,0.69629 -0.21533,1.23269 -0.3288,1.6092c-0.09542,0.31978 -0.22049,0.62279 -0.37522,0.90905zM358.29084,191.10684c0.43841,-0.59829 0.81879,-1.27395 1.14115,-2.02698l0.78526,0.35588c-0.34815,0.74013 -0.77624,1.42869 -1.28427,2.06566zM362.75871,191.66001v1.40419c0,0.20373 0.07479,0.32623 0.22436,0.36749c0.22178,0.06189 0.95546,0.09284 2.20105,0.09284c1.10633,0 1.79488,-0.03224 2.06566,-0.09671c0.12895,-0.03095 0.21147,-0.10315 0.24757,-0.21662c0.04387,-0.12894 0.07868,-0.42938 0.10445,-0.90131l0.85489,0.26304c-0.0284,0.50803 -0.06966,0.85618 -0.12379,1.04444c-0.06963,0.24499 -0.19857,0.41133 -0.38683,0.49901c-0.1341,0.06189 -0.31978,0.10058 -0.55703,0.11605c-0.61119,0.04384 -1.40934,0.06576 -2.39446,0.06576c-1.37969,0 -2.19977,-0.0245 -2.46023,-0.0735c-0.29399,-0.05415 -0.48354,-0.1831 -0.56864,-0.38683c-0.04127,-0.10315 -0.0619,-0.2321 -0.0619,-0.38683v-3.97272l-0.0387,0.03095c-0.11863,0.0851 -0.25918,0.17923 -0.42165,0.28238l-0.52995,-0.64213c0.92065,-0.50546 1.69946,-1.22625 2.33644,-2.16237l0.54156,0.37135h2.20105l0.41004,0.42551c-0.34041,0.48225 -0.69629,0.91678 -1.06765,1.30361h2.47957v2.57241zM362.75871,190.97145h1.66336v-1.17209h-1.66336zM365.25375,189.79936v1.17209h1.69818v-1.17209zM364.35631,189.0876c0.33267,-0.34815 0.61635,-0.68984 0.85102,-1.02509h-1.78715c-0.28625,0.35072 -0.62665,0.69242 -1.02122,1.02509zM369.1994,194.5148c0.34557,-0.39714 0.62408,-0.76334 0.83555,-1.09859c0.5364,-0.85618 0.8046,-1.74331 0.8046,-2.66138c0,-0.87681 -0.23983,-1.7201 -0.7195,-2.52986c-0.22436,-0.37651 -0.53124,-0.78913 -0.92065,-1.23785h0.75431c0.47193,0.42809 0.85876,0.94773 1.16049,1.55892c0.37135,0.7556 0.55703,1.49058 0.55703,2.20492c0,0.81492 -0.23468,1.64273 -0.70403,2.48344c-0.28109,0.50546 -0.61892,0.93226 -1.01349,1.2804zM373.13731,187.92711c2.37254,-0.0361 4.61485,-0.09671 6.72694,-0.18181l0.0464,0.76979c-0.93097,0.04642 -1.65563,0.18826 -2.17398,0.42551c-0.49514,0.22694 -0.89228,0.54156 -1.19143,0.94386c-0.34041,0.45646 -0.51061,0.96449 -0.51061,1.5241c0,0.55703 0.19341,0.97481 0.58024,1.25332c0.44356,0.3172 1.12438,0.53511 2.04245,0.65374l-0.18179,0.87036c-1.19659,-0.15989 -2.03858,-0.46935 -2.52598,-0.92839c-0.52351,-0.48998 -0.78527,-1.09859 -0.78527,-1.82583c0,-0.66019 0.23726,-1.27653 0.71177,-1.84904c0.34557,-0.42035 0.81879,-0.75818 1.41966,-1.01349c-1.06507,0.0361 -2.43831,0.09671 -4.11972,0.18181zM378.76179,191.26544c-0.15215,-0.40488 -0.40875,-0.86392 -0.76979,-1.37711l0.60345,-0.22436c0.32236,0.44356 0.58153,0.89744 0.77752,1.36164zM379.80622,190.85927c-0.1831,-0.47451 -0.43841,-0.93612 -0.76592,-1.38484l0.57638,-0.20502c0.30173,0.3662 0.55832,0.80976 0.76978,1.33069z"/><path d="M252.17616,203.58514l0.05416,0.69242c-1.11922,0.39456 -2.36352,0.7195 -3.73289,0.97481l-0.28626,-0.77366c0.23725,-0.0361 0.57251,-0.09413 1.00575,-0.17407v-1.41579c-0.44614,0.22694 -0.97739,0.44227 -1.59373,0.646l-0.44098,-0.68855c1.24043,-0.33525 2.18687,-0.76334 2.83932,-1.28427h-2.76195v-0.67308h3.31512v-0.58411h-2.50665v-0.64987h2.50665v-0.54543h-2.90121v-0.66534h2.90121v-0.76205h0.84715v0.76205h2.98631v0.66534h-2.98631v0.54543h2.59175v0.64987h-2.59175v0.58411h3.40022v0.67308h-0.92452l0.5725,0.39457c-0.3533,0.34299 -0.84844,0.71821 -1.48542,1.12567l-0.08897,0.05802c0.48482,0.44356 1.14243,0.80976 1.97282,1.09859l-0.52222,0.78527c-0.90002,-0.38167 -1.62339,-0.86134 -2.17011,-1.439zM251.00407,201.57364c-0.25789,0.30173 -0.56864,0.57251 -0.93225,0.81234v1.73686c0.63698,-0.14184 1.27653,-0.30688 1.91867,-0.49514l0.17794,-0.05029c-0.52867,-0.5854 -0.91678,-1.25332 -1.16435,-2.00377zM252.41599,202.62968c0.45904,-0.32751 0.86134,-0.6834 1.2069,-1.06765h-1.8297c0.16505,0.39456 0.37264,0.75045 0.62279,1.06765zM259.43305,200.97792v3.43116c0,0.31204 -0.06318,0.5248 -0.18955,0.63827c-0.11863,0.10315 -0.34815,0.15473 -0.68855,0.15473c-0.38683,0 -0.75431,-0.0245 -1.10246,-0.0735l-0.16634,-0.81621c0.36104,0.05931 0.70661,0.08897 1.0367,0.08897c0.11089,0 0.18052,-0.01934 0.20889,-0.05803c0.02063,-0.03353 0.03095,-0.08897 0.03095,-0.16634v-3.19906h-3.32673v-0.76979h7.45418v0.76979zM256.16436,198.11153h5.59353v0.76205h-5.59353zM255.18955,204.04547c0.55703,-0.58282 1.00575,-1.35777 1.34616,-2.32484l0.80073,0.30173c-0.39456,1.10633 -0.89099,1.9754 -1.48929,2.60722zM261.82752,204.5174c-0.53382,-1.12954 -0.99802,-1.95606 -1.39258,-2.47957l0.72724,-0.43325c0.56735,0.72982 1.05088,1.5241 1.4506,2.38286zM263.88158,198.00708h0.91291v4.61099c0,0.97223 0.51061,1.45834 1.53184,1.45834c0.67308,0 1.22496,-0.31075 1.65562,-0.93226c0.27852,-0.39972 0.52867,-1.01865 0.75045,-1.85677l0.78526,0.4758c-0.26304,0.93097 -0.57895,1.62726 -0.94773,2.08887c-0.58024,0.7195 -1.33456,1.07925 -2.26294,1.07925c-0.96965,0 -1.65305,-0.29915 -2.05019,-0.89744c-0.25015,-0.37393 -0.37522,-0.85618 -0.37522,-1.44674zM273.42076,197.86396h0.85489v0.97481h2.43315v0.73497h-2.43315v0.92065h2.29776v0.72724h-2.29776v1.1953c0.91807,0.30946 1.82325,0.77495 2.71553,1.39645l-0.45646,0.73497c-0.67566,-0.50546 -1.42869,-0.9516 -2.25908,-1.33843c-0.02063,0.44098 -0.10574,0.78268 -0.25531,1.02509c-0.26046,0.42035 -0.77366,0.63053 -1.53958,0.63053c-0.59056,0 -1.06507,-0.11089 -1.42353,-0.33267c-0.39972,-0.24757 -0.59958,-0.58282 -0.59958,-1.00575c0,-0.50546 0.26949,-0.87939 0.80847,-1.1218c0.36104,-0.15989 0.83039,-0.23983 1.40805,-0.23983c0.22694,0 0.4758,0.01805 0.74658,0.05416v-0.99802h-2.74261v-0.72724h2.74261v-0.92065h-2.90895v-0.73497h2.90895zM273.42076,202.93914c-0.30688,-0.06447 -0.60087,-0.09671 -0.88197,-0.09671c-0.34299,0 -0.6215,0.05029 -0.83555,0.15086c-0.25531,0.12121 -0.38296,0.29399 -0.38296,0.51835c0,0.18826 0.09929,0.34041 0.29786,0.45646c0.20115,0.11863 0.46935,0.17794 0.8046,0.17794c0.39714,0 0.6705,-0.10573 0.82008,-0.3172c0.11863,-0.16505 0.17794,-0.41133 0.17794,-0.73884zM281.63312,197.84075h0.87036v1.06764h2.28229v0.74658h-2.28229v1.65562c0.09026,0.3172 0.13539,0.59958 0.13539,0.84715c0,0.91807 -0.20244,1.59244 -0.60732,2.02311c-0.44098,0.47193 -1.10504,0.79816 -1.99216,0.97868l-0.44098,-0.65761c0.68855,-0.13152 1.19917,-0.3172 1.53184,-0.55703c0.31204,-0.22694 0.52222,-0.53511 0.63053,-0.92452c-0.27594,0.30173 -0.60474,0.45259 -0.98641,0.45259c-0.42809,0 -0.77495,-0.12121 -1.04057,-0.36362c-0.31204,-0.28625 -0.46806,-0.70145 -0.46806,-1.24559c0,-0.28625 0.06834,-0.56219 0.20502,-0.82781c0.09026,-0.1702 0.20115,-0.31204 0.33267,-0.42551c0.3043,-0.25789 0.66921,-0.38683 1.09472,-0.38683c0.27078,0 0.51577,0.06447 0.73497,0.19341v-0.76205h-3.81799v-0.74658h3.81799zM281.66407,201.85602v-0.14313c0,-0.16505 -0.03868,-0.31075 -0.11605,-0.43712c-0.14442,-0.23725 -0.3533,-0.35588 -0.62666,-0.35588c-0.13926,0 -0.26949,0.03868 -0.3907,0.11605c-0.28367,0.17794 -0.42551,0.4513 -0.42551,0.82008c0,0.2321 0.05158,0.42809 0.15473,0.58798c0.14442,0.22178 0.35717,0.33267 0.63827,0.33267c0.25531,0 0.45775,-0.11476 0.60732,-0.34428c0.10573,-0.16247 0.1586,-0.35459 0.1586,-0.57637zM286.95588,202.38598c0.20631,0 0.40488,0.049 0.59572,0.147c0.21147,0.10573 0.38296,0.25917 0.51448,0.46033c0.14442,0.22436 0.21662,0.46677 0.21662,0.72724c0,0.31204 -0.10186,0.59185 -0.30559,0.83942c-0.26562,0.32751 -0.60861,0.49127 -1.02896,0.49127c-0.16247,0 -0.32107,-0.02966 -0.4758,-0.08897c-0.2321,-0.09284 -0.42293,-0.23725 -0.57251,-0.43325c-0.18568,-0.24241 -0.27852,-0.51448 -0.27852,-0.81621c0,-0.1831 0.03997,-0.36233 0.11992,-0.53769c0.1702,-0.37909 0.45517,-0.62537 0.85489,-0.73884c0.11863,-0.03353 0.23854,-0.05029 0.35975,-0.05029zM286.94818,202.99717c-0.17536,0 -0.33267,0.06318 -0.47193,0.18955c-0.16247,0.14184 -0.2437,0.31978 -0.2437,0.53382c0,0.0851 0.01547,0.16891 0.04642,0.25144c0.049,0.12121 0.12508,0.22307 0.22823,0.3056c0.1341,0.10831 0.28367,0.16247 0.44872,0.16247c0.12894,0 0.25144,-0.0361 0.36749,-0.10831c0.2321,-0.14442 0.34814,-0.34815 0.34814,-0.61119c0,-0.11347 -0.02837,-0.22436 -0.0851,-0.33267c-0.13926,-0.26046 -0.35201,-0.3907 -0.63827,-0.3907z"/></g></g></g></svg>