<svg xmlns="http://www.w3.org/2000/svg" id="svg1" version="1.1" height="200" width="990">
  <defs id="defs1"></defs>
  <rect id="rect1" stroke="none" fill="none" height="200" width="990" y="0" x="0"></rect>
  <path aria-label="北米東部" style="font-size:100px;font-family:'BIZ UDPGothic';fill:#ff0000" id="text1" d="m 30.615234,132.8125 q -11.425781,6.25 -25.0976559,11.81641 l -3.515625,-7.71485 Q 19.335937,130.76172 30.615234,124.95117 V 98.535156 H 4.9804687 V 91.113281 H 30.615234 V 65.527344 h 8.007813 V 158.74023 H 30.615234 Z M 62.011719,97.949219 Q 75,91.845703 87.304687,81.591797 l 6.201172,6.103515 Q 78.369141,98.779297 62.011719,105.9082 v 38.1836 q 0,3.07617 2.246093,3.71093 1.806641,0.53711 10.351563,0.53711 8.056641,0 10.351562,-1.12304 1.660157,-0.83008 2.246094,-4.29688 0.683594,-4.44336 1.074219,-14.84375 l 7.910156,2.73438 q -0.585937,16.01562 -2.246094,19.9707 -1.611328,3.90625 -7.03125,4.88281 -4.638671,0.83008 -13.52539,0.83008 -12.109375,0 -15.429688,-1.5625 -3.955078,-1.85547 -3.955078,-7.91016 V 65.478516 h 8.007813 z m 95.214841,10.253911 q 10.10742,14.01367 24.60938,24.26757 6.68945,4.73633 15.77148,9.61914 l -5.22461,7.42188 q -25.68359,-15.42969 -38.76953,-36.03516 v 46.04492 h -7.91016 V 114.0625 q -12.74414,22.02148 -38.13476,37.06055 l -5.07813,-6.64063 q 14.4043,-7.4707 24.80469,-17.72461 8.10547,-8.00781 14.89258,-18.55468 h -38.08594 v -6.98243 h 41.60156 V 64.501953 h 7.91016 V 101.2207 h 42.28516 v 6.98243 z M 124.16992,96.679687 Q 117.48047,83.056641 111.57227,74.902344 l 6.59179,-3.808594 q 7.12891,9.521484 13.03711,21.484375 z m 41.89453,-2.880859 q 7.71485,-11.083984 13.52539,-23.876953 l 7.47071,3.466797 q -6.64063,13.671875 -14.30664,23.730469 z m 95.26367,32.812502 q 14.01368,12.84179 36.76758,20.50781 l -4.73633,6.98242 q -10.54687,-3.95508 -18.31054,-8.54492 -12.10938,-7.22656 -21.53321,-18.06641 v 32.03125 h -7.71484 v -31.83593 q -5.76172,7.51953 -14.30664,14.20898 -10.88867,8.49609 -24.31641,13.81836 l -4.78515,-6.29883 q 21.97265,-8.00781 35.79101,-22.80273 H 211.57227 V 87.792969 h 34.22851 v -8.007813 h -41.74805 v -6.591797 h 41.74805 v -8.691406 h 7.71484 v 8.691406 h 42.38282 v 6.591797 h -42.38282 v 8.007813 h 34.76563 V 126.61133 Z M 245.80078,94.091797 h -26.41601 v 9.814453 h 26.41601 z m 7.71484,0 v 9.814453 h 27.05079 v -9.814453 z m -7.71484,15.917973 h -26.41601 v 10.30273 h 26.41601 z m 7.71484,0 v 10.30273 h 27.05079 v -10.30273 z m 80.46875,-33.398442 h 21.82618 v 6.787109 h -7.03125 q -2.05078,9.13086 -5.61524,18.701173 h 14.45313 v 6.88477 h -55.12696 v -6.88477 h 13.72071 l -0.0977,-0.48828 Q 314.0625,91.601562 311.71875,84.423828 l -0.3418,-1.025391 h -7.08008 v -6.787109 h 22.2168 V 64.501953 h 7.4707 z m -15.13671,6.787109 q 2.58789,7.958985 4.73632,18.701173 h 12.15821 q 2.92968,-8.105469 5.32226,-18.701173 z m 31.83593,35.888673 v 39.30664 h -7.32422 v -5.51758 h -25.97656 v 6.39649 h -7.56836 v -40.18555 z m -33.30078,6.68945 v 20.3125 h 25.97656 v -20.3125 z m 65.42969,-22.70508 q 12.8418,13.57422 12.8418,29.44336 0,5.56641 -2.00196,8.39844 -2.4414,3.27149 -8.49609,3.27149 -5.81055,0 -10.69336,-0.6836 l -1.61133,-7.61719 q 6.25,1.02539 10.15625,1.02539 3.71094,0 4.39453,-2.49023 0.29297,-1.07422 0.29297,-3.51562 0,-13.72071 -12.64648,-26.70899 5.85937,-12.695311 9.52148,-26.708983 h -15.42969 v 81.787113 h -7.37304 V 70.507812 h 27.49023 l 4.39453,3.808594 q -5.37109,17.382813 -10.83984,28.955074 z"></path>
</svg>
