<svg xmlns="http://www.w3.org/2000/svg" id="svg1" version="1.1" height="200" width="990">
  <defs id="defs1"></defs>
  <rect id="rect1" stroke="none" fill="none" height="200" width="990" y="0" x="0"></rect>
  <path aria-label="東京都多摩西部" style="font-size:100px;font-family:'BIZ UDPGothic';fill:#ff0000" id="text1" d="m 61.328125,126.61133 q 14.013672,12.84179 36.767578,20.50781 l -4.736328,6.98242 Q 82.8125,150.14648 75.048828,145.55664 62.939453,138.33008 53.515625,127.49023 v 32.03125 h -7.714844 v -31.83593 q -5.761719,7.51953 -14.30664,14.20898 -10.888672,8.49609 -24.3164066,13.81836 L 2.3925781,149.41406 Q 24.365234,141.40625 38.183594,126.61133 H 11.572266 V 87.792969 H 45.800781 V 79.785156 H 4.0527344 V 73.193359 H 45.800781 v -8.691406 h 7.714844 v 8.691406 h 42.382812 v 6.591797 H 53.515625 v 8.007813 H 88.28125 V 126.61133 Z M 45.800781,94.091797 H 19.384766 v 9.814453 h 26.416015 z m 7.714844,0 v 9.814453 H 80.566406 V 94.091797 Z M 45.800781,110.00977 H 19.384766 v 10.30273 h 26.416015 z m 7.714844,0 V 120.3125 H 80.566406 V 110.00977 Z M 153.61328,75.78125 h 41.79688 v 6.787109 H 104.58984 V 75.78125 h 41.11328 V 64.501953 h 7.91016 z m 30.9082,16.015625 v 31.005855 h -29.88281 v 29.49219 q 0,3.4668 -1.61133,5.17578 -1.85547,1.95313 -6.64062,1.95313 -7.22656,0 -14.16016,-0.63477 l -1.61133,-7.27539 q 7.27539,0.87891 12.8418,0.87891 2.09961,0 2.73438,-0.58594 0.53711,-0.53711 0.53711,-1.9043 V 122.80273 H 115.42969 V 91.796875 Z m -60.98632,6.591797 v 17.822268 h 52.88086 V 98.388672 Z m -20.11719,51.416018 q 12.74414,-8.98438 20.01953,-22.31446 l 6.98242,3.61329 q -8.30078,14.89257 -21.28906,24.60937 z m 85.98633,4.6875 q -10.20508,-13.67188 -21.09375,-23.68164 l 5.9082,-4.49219 q 10.74219,9.57031 21.58203,22.80273 z m 46.04492,-59.570315 0.39062,-0.439453 q 9.08203,-11.376953 14.7461,-24.267578 l 6.39648,3.515625 q -7.61719,13.964843 -13.3789,21.191406 h 15.03906 v 6.591795 h -21.19141 q -2.97851,3.66211 -10.88867,10.79102 h 25 v 45.99609 h -7.08008 v -4.19922 h -23.0957 v 5.41992 h -7.32422 v -37.40234 q -4.19922,3.02734 -8.98438,5.85938 l -4.10156,-6.05469 q 15.9668,-8.34961 27.34375,-20.16602 l 0.24414,-0.24414 h -26.12304 v -6.591795 h 21.63086 V 82.8125 h -15.625 v -6.494141 h 15.625 V 64.501953 H 231.25 v 11.816406 h 12.10937 V 82.8125 H 231.25 v 12.109375 z m -14.0625,23.583985 v 10.98633 h 23.0957 v -10.98633 z m 0,17.1875 v 12.10937 h 23.0957 v -12.10937 z m 61.52344,-32.42188 q 12.59765,15.33204 12.59765,29.49219 0,5.66406 -2.09961,8.4961 -2.39258,3.22265 -8.44726,3.22265 -5.71289,0 -10.69336,-0.58594 l -1.5625,-7.61718 q 6.20117,1.12304 10.20508,1.12304 3.80859,0 4.54101,-2.73437 0.24414,-0.97656 0.24414,-2.7832 0,-13.67188 -12.69531,-27.58789 5.71289,-12.548833 9.47266,-26.708989 H 269.0918 v 81.884769 h -7.32422 V 70.507812 h 27.24609 l 4.49219,3.808594 q -4.93164,16.845703 -10.5957,28.955074 z m 77.00195,34.17969 q -6.00586,-5.95703 -13.96484,-12.10937 -8.88672,5.46875 -19.48243,8.74023 l -4.49218,-6.20117 q 14.45312,-4.10156 26.75781,-12.98828 8.93555,-6.39649 15.52734,-14.69727 l 7.42188,2.39258 q -2.68555,3.41797 -4.63867,5.61524 h 24.21875 l 3.90625,3.80859 q -16.21094,25.53711 -40.86915,36.8164 -14.89257,6.83594 -37.5,10.88868 l -4.73632,-6.9336 q 31.64062,-4.78515 47.85156,-15.33203 z m 6.15234,-4.29687 q 10.9375,-8.25196 17.91992,-18.65235 h -23.33984 q -4.19922,3.61328 -8.69141,6.88477 0.58594,0.43945 1.51368,1.12305 5.9082,4.3457 12.59765,10.64453 z M 344.28711,98.974609 q -6.10352,-5.859375 -13.33008,-11.035156 -7.12891,4.980469 -17.28516,9.521484 l -4.88281,-5.371093 q 23.24219,-9.521485 36.57227,-27.978516 l 7.61719,1.464844 q -2.2461,3.222656 -4.1504,5.615234 h 28.27149 L 380.76172,75 q -7.91016,10.205078 -18.99414,19.384766 -10.98633,9.130864 -21.33789,14.306644 -13.72071,6.83593 -31.15235,11.08398 l -4.29687,-6.39648 q 23.29101,-4.73633 39.30664,-14.404301 z m 6.10351,-4.101562 q 11.52344,-8.642578 18.70118,-17.089844 h -26.07422 q -3.4668,3.515625 -6.64063,6.054688 7.37305,4.785156 14.01367,11.035156 z M 475.68359,78.417969 v 6.982422 h 18.31055 v 5.517578 H 479.3457 q 6.78711,8.05664 17.13867,13.525391 l -3.90625,5.37109 Q 482.4707,103.71094 475.68359,94.482422 v 13.818358 h -6.88476 V 95.507812 q -4.6875,7.958988 -12.59766,13.232418 l -4.3457,-4.63867 q 8.39844,-5.029294 13.81836,-13.183591 h -10.40039 v -5.517578 h 13.52539 v -6.982422 h -28.02735 v 6.982422 h 11.52344 v 5.517578 h -11.52344 v 2.050781 q 5.22461,2.490234 11.08399,6.933594 l -3.66211,4.931636 q -3.80859,-3.36914 -7.42188,-6.005855 v 11.914065 h -6.88476 V 96.777344 q -5.3711,7.861326 -13.1836,13.037106 l -4.10156,-4.88281 q 9.32617,-5.761718 14.94141,-14.013671 h -12.93945 v -5.517578 h 15.2832 v -6.982422 h -17.67578 v 28.808591 q 0,19.72657 -1.5625,31.15235 -1.5625,11.32812 -6.05469,20.84961 l -6.49414,-5.0293 q 3.90625,-8.59375 5.32226,-20.55664 1.26954,-10.64453 1.26954,-27.09961 V 72.412109 h 39.69726 v -7.910156 h 7.71485 v 7.910156 h 39.50195 v 6.00586 z M 460.79102,117.5293 v 7.17773 h 30.81054 v 5.61524 h -30.81054 v 5.95703 h 36.71875 v 5.81054 h -36.71875 v 9.91211 q 0,4.00391 -2.14844,5.76172 -2.05078,1.70899 -7.08008,1.70899 -6.73828,0 -13.37891,-0.6836 l -1.26953,-6.39648 q 8.4961,0.92773 13.76953,0.92773 1.95313,0 2.34375,-0.8789 0.24414,-0.58594 0.24414,-1.75782 v -8.59375 h -36.47461 v -5.81054 h 36.47461 v -5.95703 h -30.95703 v -5.61524 h 30.95703 v -6.49414 q -13.52539,1.07422 -24.56054,1.26953 l -2.63672,-5.5664 q 27.97851,-0.53711 54.10156,-4.6875 l 4.63867,5.17578 q -11.03515,1.80664 -24.02343,3.125 z M 533.59375,93.701172 V 77.197266 H 502.7832 V 70.3125 h 94.38477 v 6.884766 h -33.88672 v 16.503906 h 27.7832 V 157.8125 h -7.8125 V 150 h -66.65039 v 7.8125 h -7.71484 V 93.701172 Z m 7.51953,0 h 14.64844 V 77.197266 h -14.64844 z m -7.56836,6.591798 h -16.94336 v 42.91992 h 66.65039 v -17.23633 h -20.16601 q -7.32422,0 -7.32422,-6.59179 v -19.0918 h -14.69727 q -0.43945,10.5957 -3.125,16.89453 -3.80859,8.93555 -14.9414,15.52734 l -4.98047,-5.61523 q 10.40039,-5.41992 13.52539,-14.50195 1.51367,-4.44336 2.00195,-12.30469 z m 29.73633,0 v 16.50391 q 0,1.51367 0.58594,1.95312 0.53711,0.43945 1.80664,0.43945 h 17.57812 v -18.89648 z m 70.70312,-23.681642 h 21.82618 v 6.787109 h -7.03125 q -2.05078,9.13086 -5.61524,18.701173 h 14.45313 v 6.88477 h -55.12696 v -6.88477 h 13.72071 l -0.0977,-0.48828 Q 614.0625,91.601562 611.71875,84.423828 l -0.3418,-1.025391 h -7.08008 v -6.787109 h 22.2168 V 64.501953 h 7.4707 z m -15.13671,6.787109 q 2.58789,7.958985 4.73632,18.701173 h 12.15821 q 2.92968,-8.105469 5.32226,-18.701173 z m 31.83593,35.888673 v 39.30664 h -7.32422 v -5.51758 h -25.97656 v 6.39649 h -7.56836 v -40.18555 z m -33.30078,6.68945 v 20.3125 h 25.97656 v -20.3125 z m 65.42969,-22.70508 q 12.8418,13.57422 12.8418,29.44336 0,5.56641 -2.00196,8.39844 -2.4414,3.27149 -8.49609,3.27149 -5.81055,0 -10.69336,-0.6836 l -1.61133,-7.61719 q 6.25,1.02539 10.15625,1.02539 3.71094,0 4.39453,-2.49023 0.29297,-1.07422 0.29297,-3.51562 0,-13.72071 -12.64648,-26.70899 5.85937,-12.695311 9.52148,-26.708983 h -15.42969 v 81.787113 h -7.37304 V 70.507812 h 27.49023 l 4.39453,3.808594 q -5.37109,17.382813 -10.83984,28.955074 z"></path>
</svg>
