<svg xmlns="http://www.w3.org/2000/svg" id="svg1" version="1.1" height="200" width="990">
  <defs id="defs1"></defs>
  <rect id="rect1" stroke="none" fill="none" height="200" width="990" y="0" x="0"></rect>
  <path aria-label="福島県中通り" style="font-size:100px;font-family:'BIZ UDPGothic';fill:#ff0000" id="text1" d="m 25.537109,107.95898 q 7.617188,5.41993 14.306641,11.42579 l -4.541016,6.59179 q -3.710937,-4.24804 -9.765625,-9.81445 v 43.31055 h -7.617187 v -42.72461 q -6.005859,6.88476 -12.3046876,12.45117 l -4.0039063,-6.93359 q 9.8144529,-8.10547 17.6757809,-18.50586 5.908203,-7.812504 9.521485,-15.673833 H 3.6132813 V 81.005859 H 17.822266 V 64.501953 h 7.519531 v 16.503906 h 9.375 l 3.515625,3.90625 Q 33.740234,95.458984 25.537109,107.17773 Z M 89.404297,82.177734 V 106.68945 H 45.507812 V 82.177734 Z m -36.71875,6.00586 V 100.68359 H 81.884766 V 88.183594 Z M 94.53125,113.62305 v 45.84961 h -7.324219 v -4.58985 h -39.0625 v 4.58985 h -7.324219 v -45.84961 z m -46.386719,6.20117 v 11.08398 h 15.771485 v -11.08398 z m 0,17.08984 v 11.66992 h 15.771485 v -11.66992 z m 39.0625,11.66992 v -11.66992 h -16.40625 v 11.66992 z m 0,-17.67578 V 119.82422 H 70.800781 V 130.9082 Z M 39.013672,68.896484 h 57.27539 v 6.494141 H 39.013672 Z M 168.01758,149.21875 h -53.8086 v 5.71289 h -7.71484 v -23.0957 h 7.71484 v 11.18164 h 19.0918 v -14.69727 h -19.0918 V 73.291016 h 23.97461 q 3.36914,-4.931641 5.41993,-9.179688 l 8.6914,2.001953 q -2.39258,3.515625 -5.46875,7.177735 h 35.25391 v 30.517574 h -59.96094 v 6.00586 h 75.3418 v 6.10352 h -75.3418 v 6.29883 h 70.94727 q -0.73243,23.87695 -3.32032,30.71289 -1.5625,4.19922 -5.51757,5.66406 -2.5879,0.92773 -6.83594,0.92773 -6.15235,0 -11.76758,-0.8789 l -1.61133,-7.22656 q 6.73828,1.02539 12.10938,1.02539 4.24804,0 5.37109,-1.95313 2.24609,-3.90625 3.36914,-22.16797 h -43.94531 v 14.69727 h 19.58008 v -11.18164 h 7.51953 z M 122.11914,79.296875 v 6.298828 h 52.09961 v -6.298828 z m 0,12.011719 v 6.689453 h 52.09961 V 91.308594 Z M 282.86133,67.578125 V 114.4043 H 225.78125 V 67.578125 Z m -49.36524,6.005859 v 7.714844 h 41.55274 v -7.714844 z m 0,13.330078 v 7.763672 h 41.55274 v -7.763672 z m 0,13.476568 v 8.30078 h 41.55274 v -8.30078 z M 214.4043,122.2168 h 83.05664 v 6.49414 h -41.99219 v 30.81054 h -7.91016 V 128.71094 H 206.5918 V 74.267578 h 7.8125 z m -9.22852,29.6875 q 12.79297,-6.15235 23.0957,-19.28711 l 6.5918,3.66211 q -10.40039,13.62304 -24.07226,21.72851 z m 84.17969,4.10156 q -10.25391,-11.18164 -23.29102,-19.82422 l 6.00586,-4.49219 q 11.76758,7.37305 23.68164,18.79883 z M 345.70312,83.59375 V 64.501953 h 7.91016 V 83.59375 h 37.25586 v 49.70703 h -7.91016 v -6.98242 h -29.3457 v 33.20312 h -7.91016 v -33.20312 h -28.80859 v 7.51953 h -8.00781 V 83.59375 Z m -28.80859,7.324219 v 28.076171 h 28.80859 V 90.917969 Z m 66.06445,28.076171 V 90.917969 h -29.3457 v 28.076171 z m 41.06446,19.58008 q 4.63867,4.78515 10.05859,7.27539 Q 443.11523,150 457.51953,150 h 40.9668 q -1.41602,2.73437 -2.58789,6.98242 h -38.47657 q -14.20898,0 -23.9746,-3.95508 -6.49415,-2.63672 -12.59766,-8.98437 -6.93359,9.32617 -14.45313,15.42969 l -4.10156,-7.08008 q 6.68945,-4.93164 14.11133,-12.10938 v -26.07422 h -13.91602 v -6.7871 h 21.53321 z m 47.70508,-49.951173 h 18.84765 V 137.8418 q 0,4.05273 -1.61133,5.61523 -1.61132,1.5625 -5.76172,1.5625 -4.10156,0 -10.15625,-0.58594 l -1.17187,-6.39648 q 4.98047,0.73242 9.13086,0.73242 1.75781,0 2.05078,-0.83008 0.19531,-0.53711 0.19531,-1.70898 v -10.49805 h -17.87109 v 17.82227 h -6.98242 v -17.82227 h -17.28516 v 18.99414 h -7.32422 V 88.623047 h 26.80664 q -8.34961,-4.541016 -17.38281,-8.59375 l 4.6875,-4.101563 q 6.98242,3.173828 13.33008,6.591797 8.20312,-4.101562 14.11133,-8.105469 h -41.16211 v -6.201171 h 50.24414 l 4.15039,4.199218 q -9.27735,7.080078 -21.72852,13.232422 l 1.26953,0.78125 q 2.2461,1.31836 3.61329,2.197266 z m -6.34766,5.810547 v 9.765626 h 17.87109 v -9.765626 z m -24.26758,0 v 9.765626 h 17.28516 v -9.765626 z m 0,15.478516 v 10.00977 h 17.28516 v -10.00977 z m 42.13867,10.00977 v -10.00977 h -17.87109 v 10.00977 z M 420.06836,89.111328 Q 413.37891,79.101562 405.76172,71.582031 l 5.51758,-4.589844 q 7.32422,6.542969 14.79492,16.699219 z m 117.62695,20.410152 q -4.54101,8.05665 -9.22851,12.40235 -4.10157,3.75976 -7.12891,3.75976 -9.0332,0 -9.0332,-26.953121 0,-13.427735 3.125,-29.052735 l 7.76367,1.123047 q -2.97852,16.601563 -2.97852,28.125 0,17.187499 2.63672,17.187499 0.87891,0 2.97852,-2.19726 4.15039,-4.39454 7.17773,-10.59571 z m -4.10156,39.16016 q 14.79492,-4.10156 22.50977,-13.08594 8.98437,-10.44922 8.98437,-31.25 0,-14.941403 -3.07617,-34.960934 l 8.10547,-0.78125 q 3.27148,19.580078 3.27148,36.132814 0,25.34179 -11.86523,37.1582 -8.34961,8.34961 -23.63282,13.52539 z"></path>
</svg>
