<svg xmlns="http://www.w3.org/2000/svg" id="svg1" version="1.1" height="200" width="990">
  <defs id="defs1"></defs>
  <rect id="rect1" stroke="none" fill="none" height="200" width="990" y="0" x="0"></rect>
  <path aria-label="関東東方沖" style="font-size:100px;font-family:'BIZ UDPGothic';fill:#ff0000" id="text1" d="M 45.898437,117.43164 H 24.511719 v -5.81055 h 11.572265 q -2.294922,-4.49218 -4.980468,-8.20312 l 6.591796,-2.7832 q 3.417969,5.32226 5.859375,10.98632 h 11.621094 q 3.564453,-6.15234 5.419922,-11.27929 l 7.080078,2.49023 q -2.441406,5.17578 -5.029297,8.78906 h 12.841797 v 5.81055 H 53.076172 v 7.4707 h 25.732422 v 6.10352 H 52.392578 q -0.09766,0.63476 -0.244141,1.46484 10.986329,6.49414 21.63086,15.42969 l -5.175781,5.81055 Q 60.302734,145.75195 50.195312,138.42773 44.970703,150 27.880859,156.68945 l -4.394531,-6.00586 q 11.376953,-3.61328 17.089844,-9.76562 3.613281,-3.90625 4.785156,-9.91211 H 21.191406 v -6.10352 H 45.898437 Z M 44.189453,68.017578 V 99.121094 H 14.208984 V 159.52148 H 6.5917969 V 68.017578 Z m -29.980469,5.810547 v 6.884766 h 22.802735 v -6.884766 z m 0,12.304687 v 7.275391 H 37.011719 V 86.132812 Z M 93.408203,68.017578 v 82.568362 q 0,4.44336 -2.148437,6.44531 -1.953125,1.75781 -6.542969,1.75781 -5.273438,0 -9.033203,-0.48828 l -1.513672,-7.51953 q 4.6875,0.73242 8.886719,0.73242 2.734375,0 2.734375,-2.49023 V 99.121094 H 54.882812 V 68.017578 Z m -31.103516,5.810547 v 6.884766 h 23.486329 v -6.884766 z m 0,12.304687 v 7.275391 h 23.486329 v -7.275391 z m 99.023433,40.478518 q 14.01368,12.84179 36.76758,20.50781 l -4.73633,6.98242 q -10.54687,-3.95508 -18.31054,-8.54492 -12.10938,-7.22656 -21.53321,-18.06641 v 32.03125 h -7.71484 v -31.83593 q -5.76172,7.51953 -14.30664,14.20898 -10.88867,8.49609 -24.31641,13.81836 l -4.78515,-6.29883 q 21.97265,-8.00781 35.79101,-22.80273 H 111.57227 V 87.792969 h 34.22851 v -8.007813 h -41.74805 v -6.591797 h 41.74805 v -8.691406 h 7.71484 v 8.691406 h 42.38282 v 6.591797 h -42.38282 v 8.007813 h 34.76563 V 126.61133 Z M 145.80078,94.091797 h -26.41601 v 9.814453 h 26.41601 z m 7.71484,0 v 9.814453 h 27.05079 v -9.814453 z m -7.71484,15.917973 h -26.41601 v 10.30273 h 26.41601 z m 7.71484,0 v 10.30273 h 27.05079 v -10.30273 z m 107.8125,16.60156 q 14.01368,12.84179 36.76758,20.50781 l -4.73633,6.98242 q -10.54687,-3.95508 -18.31054,-8.54492 -12.10938,-7.22656 -21.53321,-18.06641 v 32.03125 h -7.71484 v -31.83593 q -5.76172,7.51953 -14.30664,14.20898 -10.88867,8.49609 -24.31641,13.81836 l -4.78515,-6.29883 q 21.97265,-8.00781 35.79101,-22.80273 H 211.57227 V 87.792969 h 34.22851 v -8.007813 h -41.74805 v -6.591797 h 41.74805 v -8.691406 h 7.71484 v 8.691406 h 42.38282 v 6.591797 h -42.38282 v 8.007813 h 34.76563 V 126.61133 Z M 245.80078,94.091797 h -26.41601 v 9.814453 h 26.41601 z m 7.71484,0 v 9.814453 h 27.05079 v -9.814453 z m -7.71484,15.917973 h -26.41601 v 10.30273 h 26.41601 z m 7.71484,0 v 10.30273 h 27.05079 v -10.30273 z m 91.94336,-21.044926 q 0,7.324218 -0.92773,17.041016 h 39.4043 q -0.6836,32.91016 -3.75977,43.60351 -1.26953,4.49219 -4.83398,6.34766 -3.02735,1.5625 -9.08203,1.5625 -8.39844,0 -15.33204,-0.92773 l -1.31836,-8.00782 q 10.15625,1.31836 16.3086,1.31836 4.05273,0 5.32226,-1.70898 1.07422,-1.46484 2.14844,-8.49609 1.5625,-9.96094 2.14844,-26.70899 h -31.93359 q -1.80665,11.37695 -5.76172,19.28711 -7.91016,15.91797 -26.02539,25.73242 l -5.61524,-6.29883 q 19.38477,-10.15625 25.58594,-26.36718 5.17578,-13.57422 5.56641,-36.376956 h -33.54493 v -7.177735 h 41.69922 V 64.501953 h 8.00781 v 17.285156 h 42.67579 v 7.177735 z m 113.23243,-3.66211 V 64.501953 h 7.71484 v 20.800781 h 27.7832 v 40.478516 h -27.7832 v 33.69141 h -7.71484 v -33.69141 h -26.9043 V 85.302734 Z m -19.38477,6.982422 v 26.513674 h 19.38477 V 92.285156 Z m 47.26563,26.513674 V 92.285156 H 466.40625 V 118.79883 Z M 421.77734,86.621094 q -6.54297,-8.34961 -15.2832,-15.527344 l 5.32227,-5.273438 q 8.30078,6.201172 15.67382,14.990235 z m -3.66211,25.488286 q -7.66601,-8.8379 -15.91796,-15.527349 l 5.41992,-5.46875 q 8.39843,6.201172 16.16211,14.990239 z m -13.7207,40.57617 q 9.52149,-12.69532 17.48047,-32.86133 l 6.29883,5.07812 q -7.32422,19.14063 -17.08985,33.69141 z"></path>
</svg>
