<svg xmlns="http://www.w3.org/2000/svg" id="svg1" version="1.1" height="200" width="990">
  <defs id="defs1"></defs>
  <rect id="rect1" stroke="none" fill="none" height="200" width="990" y="0" x="0"></rect>
  <path aria-label="北見地方" style="font-size:100px;font-family:'BIZ UDPGothic';fill:#ff0000" id="text1" d="m 30.615234,132.8125 q -11.425781,6.25 -25.0976559,11.81641 l -3.515625,-7.71485 Q 19.335937,130.76172 30.615234,124.95117 V 98.535156 H 4.9804687 V 91.113281 H 30.615234 V 65.527344 h 8.007813 V 158.74023 H 30.615234 Z M 62.011719,97.949219 Q 75,91.845703 87.304687,81.591797 l 6.201172,6.103515 Q 78.369141,98.779297 62.011719,105.9082 v 38.1836 q 0,3.07617 2.246093,3.71093 1.806641,0.53711 10.351563,0.53711 8.056641,0 10.351562,-1.12304 1.660157,-0.83008 2.246094,-4.29688 0.683594,-4.44336 1.074219,-14.84375 l 7.910156,2.73438 q -0.585937,16.01562 -2.246094,19.9707 -1.611328,3.90625 -7.03125,4.88281 -4.638671,0.83008 -13.52539,0.83008 -12.109375,0 -15.429688,-1.5625 -3.955078,-1.85547 -3.955078,-7.91016 V 65.478516 h 8.007813 z M 163.91602,125.19531 v 20.80078 q 0,3.07618 2.39257,3.75977 1.51368,0.39062 8.83789,0.39062 7.91016,0 9.52149,-0.48828 2.49023,-0.73242 3.125,-4.49218 0.78125,-4.49219 1.02539,-11.57227 l 7.8125,3.32031 q -0.48828,14.16016 -3.4668,17.38281 -1.95312,2.14844 -6.93359,2.83204 -4.15039,0.53711 -11.47461,0.53711 -11.71875,0 -14.84375,-1.31836 -4.00391,-1.70899 -4.00391,-7.12891 v -24.02344 h -15.625 q -0.43945,7.27539 -1.75781,11.76758 -2.58789,8.59375 -9.57031,13.76953 -8.34961,6.25 -21.14258,8.69141 l -4.39453,-6.9336 q 15.52734,-2.68554 22.50976,-9.57031 5.61524,-5.46875 6.39649,-17.72461 H 117.62695 V 68.896484 h 64.59961 V 125.19531 Z M 125.43945,75.292969 v 10.302734 h 48.87696 V 75.292969 Z m 0,16.40625 v 10.302731 h 48.87696 V 91.699219 Z m 0,16.406251 v 10.79101 h 48.87696 v -10.79101 z m 123.7793,-4.88281 v 40.86914 q 0,4.05273 2.39258,4.98047 2.58789,0.97656 16.45508,0.97656 13.42773,0 17.38281,-0.92774 2.7832,-0.68359 3.56445,-3.22265 1.2207,-4.00391 1.26953,-12.40235 l 7.51953,2.78321 q -0.68359,13.23242 -3.51562,16.79687 -2.24609,2.92969 -7.27539,3.4668 -7.66602,0.78125 -20.75195,0.78125 -12.45118,0 -16.74805,-0.83008 -5.3711,-1.07422 -6.83594,-4.88281 -0.78125,-2.09961 -0.78125,-5.51758 v -40.38086 l -10.49805,3.56445 -1.90429,-6.98242 12.40234,-4.150389 v -26.5625 h 7.32422 v 24.072266 l 12.8418,-4.345703 V 64.501953 h 7.32422 v 24.365234 l 18.01757,-6.054687 4.39453,2.392578 v 35.986332 q 0,3.51562 -1.66015,5.32226 -1.95313,2.09961 -6.83594,2.09961 -3.95508,0 -7.71484,-0.53711 l -1.26953,-6.98242 q 3.71093,0.68359 6.93359,0.68359 2.44141,0 2.97852,-1.07421 0.39062,-0.73243 0.39062,-2.29493 V 91.113281 l -15.23437,5.175781 v 39.794918 h -7.32422 V 98.779297 Z M 216.50391,88.916016 V 65.136719 h 7.71484 v 23.779297 h 10.79102 v 7.177734 h -10.79102 v 34.96094 q 5.12695,-1.75782 11.71875,-4.44336 l 0.78125,6.88476 q -14.94141,6.88477 -32.03125,12.10938 l -2.7832,-7.61719 q 6.78711,-1.85547 14.59961,-4.3457 V 96.09375 h -13.28125 v -7.177734 z m 128.95507,0.04883 q 0,7.324218 -0.92773,17.041016 h 39.4043 q -0.6836,32.91016 -3.75977,43.60351 -1.26953,4.49219 -4.83398,6.34766 -3.02735,1.5625 -9.08203,1.5625 -8.39844,0 -15.33204,-0.92773 l -1.31836,-8.00782 q 10.15625,1.31836 16.3086,1.31836 4.05273,0 5.32226,-1.70898 1.07422,-1.46484 2.14844,-8.49609 1.5625,-9.96094 2.14844,-26.70899 h -31.93359 q -1.80665,11.37695 -5.76172,19.28711 -7.91016,15.91797 -26.02539,25.73242 l -5.61524,-6.29883 q 19.38477,-10.15625 25.58594,-26.36718 5.17578,-13.57422 5.56641,-36.376956 h -33.54493 v -7.177735 h 41.69922 V 64.501953 h 8.00781 v 17.285156 h 42.67579 v 7.177735 z"></path>
</svg>
