<svg xmlns="http://www.w3.org/2000/svg" id="svg1" version="1.1" height="200" width="990">
  <defs id="defs1"></defs>
  <rect id="rect1" stroke="none" fill="none" height="200" width="990" y="0" x="0"></rect>
  <path aria-label="北東太平洋" style="font-size:100px;font-family:'BIZ UDPGothic';fill:#ff0000" id="text1" d="m 30.615234,132.8125 q -11.425781,6.25 -25.0976559,11.81641 l -3.515625,-7.71485 Q 19.335937,130.76172 30.615234,124.95117 V 98.535156 H 4.9804687 V 91.113281 H 30.615234 V 65.527344 h 8.007813 V 158.74023 H 30.615234 Z M 62.011719,97.949219 Q 75,91.845703 87.304687,81.591797 l 6.201172,6.103515 Q 78.369141,98.779297 62.011719,105.9082 v 38.1836 q 0,3.07617 2.246093,3.71093 1.806641,0.53711 10.351563,0.53711 8.056641,0 10.351562,-1.12304 1.660157,-0.83008 2.246094,-4.29688 0.683594,-4.44336 1.074219,-14.84375 l 7.910156,2.73438 q -0.585937,16.01562 -2.246094,19.9707 -1.611328,3.90625 -7.03125,4.88281 -4.638671,0.83008 -13.52539,0.83008 -12.109375,0 -15.429688,-1.5625 -3.955078,-1.85547 -3.955078,-7.91016 V 65.478516 h 8.007813 z m 99.316401,28.662111 q 14.01368,12.84179 36.76758,20.50781 l -4.73633,6.98242 q -10.54687,-3.95508 -18.31054,-8.54492 -12.10938,-7.22656 -21.53321,-18.06641 v 32.03125 h -7.71484 v -31.83593 q -5.76172,7.51953 -14.30664,14.20898 -10.88867,8.49609 -24.31641,13.81836 l -4.78515,-6.29883 q 21.97265,-8.00781 35.79101,-22.80273 H 111.57227 V 87.792969 h 34.22851 v -8.007813 h -41.74805 v -6.591797 h 41.74805 v -8.691406 h 7.71484 v 8.691406 h 42.38282 v 6.591797 h -42.38282 v 8.007813 h 34.76563 V 126.61133 Z M 145.80078,94.091797 h -26.41601 v 9.814453 h 26.41601 z m 7.71484,0 v 9.814453 h 27.05079 v -9.814453 z m -7.71484,15.917973 h -26.41601 v 10.30273 h 26.41601 z m 7.71484,0 v 10.30273 h 27.05079 V 110.00977 Z M 255.37109,95.507812 q 4.98047,17.187498 16.45508,31.982418 10.88867,14.16016 25.78125,22.90039 l -4.98047,7.51954 q -14.99023,-9.32618 -26.70898,-24.90235 -9.86328,-13.08593 -15.03906,-29.3457 -3.32032,14.50195 -9.61914,25.24414 11.03515,7.51953 18.84765,14.59961 l -5.07812,6.10351 q -7.47071,-7.27539 -17.62696,-14.64843 -0.19531,0.29297 -0.48828,0.68359 -9.66797,13.62305 -27.39258,23.04688 l -5.61523,-6.78711 q 16.35742,-7.08008 26.95312,-21.24024 6.34766,-8.44726 10.74219,-21.67968 2.49024,-7.42188 3.4668,-13.476568 h -40.18555 v -7.421875 h 40.72266 V 65.087891 h 8.20312 v 22.998046 h 41.3086 v 7.421875 z m 98.24219,-18.847656 v 40.722654 h 43.89649 v 7.17774 h -43.89649 v 34.91211 h -7.91016 v -34.91211 h -43.21289 v -7.17774 h 43.21289 V 76.660156 h -38.62304 v -7.080078 h 85.9375 v 7.080078 z M 325.09766,112.5 Q 319.92187,97.607422 313.96484,85.986328 l 7.32422,-3.271484 q 5.41992,9.472656 11.66992,26.464846 z m 41.35742,-2.97852 q 6.83594,-12.451168 11.52344,-27.929683 l 8.00781,2.685547 q -4.78516,14.550781 -12.40235,28.417966 z m 92.72461,-21.923824 h -27.00196 v -6.689453 h 15.08789 q -3.46679,-8.007812 -7.27539,-13.525391 l 7.08008,-2.880859 q 4.6875,7.714844 7.8125,16.40625 h 16.74805 l 0.3418,-0.683594 q 3.51562,-7.177734 6.39648,-15.820312 l 8.00781,2.392578 q -2.88086,6.689453 -6.93359,14.111328 h 15.13672 v 6.689453 h -27.49024 v 15.625004 h 24.51172 v 6.59179 h -24.51172 v 16.60157 h 30.41993 v 6.88476 h -30.41993 v 26.2207 h -7.91015 v -26.2207 h -29.98047 v -6.88476 h 29.98047 v -16.60157 h -24.31641 v -6.59179 h 24.31641 z M 420.89844,86.523437 Q 414.35547,78.173828 405.9082,71.09375 l 5.3711,-5.273438 q 8.59375,6.542969 15.33203,14.892579 z m -3.51563,25.488283 q -7.66601,-9.17969 -15.38086,-15.332033 l 5.41992,-5.46875 q 8.39844,6.445313 15.57618,14.892583 z m -13.18359,40.57617 q 8.88672,-11.96289 16.89453,-32.4707 L 427.19727,125 q -7.17774,20.26367 -16.69922,33.69141 z"></path>
</svg>
