<svg xmlns="http://www.w3.org/2000/svg" id="svg1" version="1.1" height="200" width="1096">
  <defs id="defs1"></defs>
  <rect id="rect1" stroke="none" fill="none" height="200" width="1096" y="0" x="0"></rect>
  <path aria-label="神奈川県東部" style="font-weight:bold;font-size:110px;font-family:'BIZ UDPGothic';fill:#ff0000" id="text1" d="m 30.292969,103.21777 q 0.59082,0.42969 1.71875,1.23536 6.499023,4.51171 13.696289,11.70898 l -6.606446,9.13086 q -3.49121,-4.35059 -8.432617,-9.18457 l -0.375976,-0.42969 v 44.79492 H 19.174805 V 116.69922 Q 14.501953,122.07031 6.9287109,128.8916 L 1.2353516,118.47168 Q 20.141602,102.62695 29.433594,84.257812 H 4.0820312 V 73.461914 H 18.959961 V 55.952148 h 11.225586 v 17.509766 h 9.345703 l 4.296875,5.74707 Q 38.886719,90.649414 30.292969,102.8418 Z M 68.212891,72.119141 V 55.952148 H 79.545898 V 72.119141 H 102.85645 V 133.08105 H 79.545898 v 27.39258 H 68.212891 V 133.08105 H 46.245117 V 72.119141 Z M 56.611328,82.001953 V 97.524414 H 68.427734 V 82.001953 Z m 0,24.975587 v 16.11328 h 11.816406 v -16.11328 z m 35.664063,16.11328 V 106.97754 H 79.331055 v 16.11328 z m 0,-25.566406 V 82.001953 H 79.331055 V 97.524414 Z M 183.95996,78.564453 q 12.08496,11.118164 34.58984,19.067383 l -5.80078,9.990234 q -11.333,-4.67285 -19.28222,-9.453125 v 6.391605 h -55.64453 v -5.585941 q -7.41211,4.887691 -20.35645,11.064451 l -6.82129,-9.13086 q 17.72461,-7.143552 27.87598,-15.468747 3.49121,-2.84668 7.19726,-6.875 H 115.9082 V 68.466797 h 37.16797 q 3.06153,-5.263672 5.63965,-12.783203 l 11.87012,1.665039 q -2.36328,6.069336 -4.83399,11.118164 h 48.17871 v 10.097656 z m -13.96484,0 h -10.3125 q -6.44532,9.18457 -16.43555,16.650391 h 45.54688 Q 177.7832,87.641602 169.99512,78.564453 Z m 2.04101,46.352537 v 26.53321 q 0,4.40429 -1.66504,6.49902 -2.14843,2.73926 -9.61425,2.73926 -9.23829,0 -15.79102,-0.69825 l -2.09473,-11.06445 Q 149.53125,150 156.6748,150 q 2.36329,0 2.9004,-0.75195 0.48339,-0.64453 0.48339,-2.52442 V 124.91699 H 117.8418 v -10.09765 h 94.47754 v 10.09765 z m -59.51172,23.31055 q 12.29981,-7.73438 20.14161,-21.21582 l 10.20507,5.15625 q -8.32519,15.62988 -21.6455,24.76074 z m 95.01465,6.71387 q -10.36621,-13.10547 -21.43066,-22.5586 l 9.3457,-6.60644 q 11.97754,9.13086 21.32324,20.94726 z m 28.62793,-94.584965 h 12.89063 v 36.308594 q 0,22.504881 -2.52442,34.428711 -2.36328,11.01074 -8.00293,19.71191 -1.9873,3.11524 -5.47851,7.25098 l -10.20508,-8.70117 q 9.66797,-10.25879 12.03125,-27.23145 1.28906,-9.07714 1.28906,-23.68652 z m 34.10645,1.665039 h 12.51465 v 87.441406 h -12.51465 z m 35.28808,-4.296875 H 318.2373 V 159.23828 h -12.67578 z m 116.60645,0.859375 V 110.62988 H 358.25195 V 58.583984 Z m -52.36817,8.486328 v 6.713868 h 40.7129 v -6.713868 z m 0,14.28711 v 6.713867 h 40.7129 v -6.713867 z m 0,14.287109 v 6.928709 h 40.7129 v -6.928709 z m -21.6455,22.128909 h 89.05273 v 9.3457 h -44.41894 v 33.35449 H 380.5957 V 127.11914 H 336.3916 V 66.855469 h 11.7627 z m -13.75,32.4414 q 12.7832,-5.9082 24.43847,-19.81933 l 9.88282,5.74707 q -11.49414,14.55566 -25.5127,22.88086 z m 92.59765,6.92871 q -8.21777,-10.09765 -24.70703,-21.21582 l 9.23828,-6.49902 q 12.94434,7.46582 25.40528,19.60449 z m 85.61524,-31.58203 q 13.32031,11.87012 35.8789,19.17481 l -6.92871,10.09765 q -12.99804,-4.61914 -22.66601,-11.17187 -9.99024,-6.82129 -18.42285,-16.75781 v 33.56933 h -11.65528 v -32.97851 q -7.46582,10.47363 -19.28222,18.79883 -9.07715,6.3916 -19.44336,10.3125 l -7.3584,-9.45313 q 17.02636,-5.63965 28.41308,-15.2002 3.22266,-2.68554 6.55274,-6.3916 H 451.87012 V 81.572266 h 36.95312 V 74.321289 H 444.29687 V 64.65332 h 44.52637 v -8.701172 h 11.65528 v 8.701172 h 45.2246 v 9.667969 h -45.2246 v 7.250977 h 37.65136 V 125.56152 Z M 488.82324,90.595703 h -25.29785 v 8.701172 h 25.29785 z m 11.65528,0 v 8.701172 h 25.99609 v -8.701172 z m -11.65528,17.080077 h -25.29785 v 8.86231 h 25.29785 z m 11.65528,0 v 8.86231 h 25.99609 v -8.86231 z m 87.9248,-39.316405 h 22.98828 v 10.366211 h -7.57324 q -2.04102,8.217773 -5.47852,17.241211 h 14.34082 v 10.366213 h -59.9414 V 95.966797 h 13.15918 Q 563.75,85.654297 561.38672,78.725586 H 554.4043 V 68.359375 h 22.77343 V 55.952148 h 11.22559 z m -16.16699,10.366211 q 2.73926,8.00293 4.24316,17.241211 h 10.95703 l 0.53711,-1.503906 q 2.30957,-6.123047 4.29688,-13.911133 l 0.4834,-1.826172 z m 33.30078,36.630864 v 43.98925 h -11.01074 v -5.26367 H 571.1084 v 6.3916 h -11.33301 v -45.11718 z m -34.42871,9.88281 v 18.63769 h 23.41797 v -18.63769 z m 71.75781,-27.124026 q 6.3916,6.069336 10.15137,14.448246 3.70605,8.3789 3.70605,16.97265 0,7.94922 -2.9541,11.70899 -3.06152,3.9209 -10.09766,3.9209 -6.01562,0 -11.65527,-0.85938 l -2.63183,-11.44043 q 6.49902,1.18164 10.74218,1.18164 3.22266,0 4.02832,-1.5039 0.53711,-1.07422 0.53711,-4.29688 0,-13.2666 -7.94922,-22.88086 -2.09472,-2.52441 -5.26367,-5.424804 l 0.64453,-1.503906 q 5.58594,-12.62207 8.70118,-26.318359 h -13.75 V 160.47363 H 615.95703 V 61.000977 h 32.33399 l 5.96191,5.478515 q -5.42481,18.476563 -11.38672,31.635742 z"></path>
</svg>
