<svg xmlns="http://www.w3.org/2000/svg" id="svg1" version="1.1" height="200" width="990">
  <defs id="defs1"></defs>
  <rect id="rect1" stroke="none" fill="none" height="200" width="990" y="0" x="0"></rect>
  <path aria-label="静岡県伊豆地方" style="font-size:100px;font-family:'BIZ UDPGothic';fill:#ff0000" id="text1" d="m 52.099609,90.185547 q -1.513672,1.464844 -3.417968,3.125 L 44.482422,87.890625 Q 55.46875,79.003906 61.572266,65.771484 l 4.833984,3.613282 h 15.087891 l 4.296875,4.003906 Q 80.517578,82.8125 74.951172,89.794922 h 16.748047 v 17.285158 h 6.298828 v 6.20117 H 91.699219 V 131.5918 H 74.169922 v 20.60547 q 0,3.61328 -1.757813,5.37109 -1.80664,1.80664 -6.054687,1.80664 -3.759766,0 -9.765625,-0.68359 l -1.416016,-6.98243 q 6.298828,0.78125 9.521485,0.78125 1.757812,0 2.148437,-0.97656 0.244141,-0.63476 0.244141,-1.80664 V 131.5918 h -16.40625 v -6.39649 h 16.40625 V 113.28125 H 46.972656 v -6.20117 H 67.089844 V 96.191406 H 52.099609 Z m 0.390625,-0.390625 h 15.136719 q 5.908203,-7.910156 8.642578,-13.916016 h -12.5 q -4.736328,7.373047 -10.9375,13.574219 z m 21.484375,6.396484 V 107.08008 H 85.009766 V 96.191406 Z M 85.009766,113.28125 H 73.974609 v 11.91406 H 85.009766 Z M 22.070312,71.679687 v -7.177734 h 7.324219 v 7.177734 h 17.285156 v 5.908204 H 29.394531 v 6.005859 h 14.697266 v 5.712891 H 29.394531 v 6.396484 H 48.583984 V 101.9043 H 2.8808594 V 95.703125 H 22.070312 V 89.306641 H 7.1777344 V 83.59375 H 22.070312 V 77.587891 H 4.4921875 V 71.679687 Z M 43.75,108.00781 v 44.0918 q 0,3.51562 -1.660156,5.17578 -1.611328,1.61133 -5.517578,1.61133 -5.371094,0 -8.886719,-0.48828 l -1.416016,-6.78711 q 4.882813,0.68359 8.447266,0.68359 1.611328,0 1.855469,-0.78125 0.195312,-0.53711 0.195312,-1.9043 V 139.20898 H 15.185547 v 20.3125 H 8.203125 v -51.51367 z m -28.564453,5.61524 v 6.98242 h 21.582031 v -6.98242 z m 0,12.69531 v 7.27539 h 21.582031 v -7.27539 z m 152.197263,7.66601 v -22.07031 h 7.08008 v 28.66211 h -42.28516 v 7.08008 H 125 v -35.74219 h 7.17773 v 22.07031 h 13.91602 v -29.68749 h -27.49023 v -6.591802 h 36.23046 q 5.0293,-8.203125 9.96094,-20.800781 l 7.56836,2.783203 q -4.49219,9.667969 -10.05859,18.017578 h 18.84765 v 6.591802 h -27.97851 v 29.68749 z m 25.48828,-65.380854 v 82.275394 q 0,4.49218 -2.88086,6.29882 -2.34375,1.51368 -7.86132,1.51368 -7.47071,0 -17.33399,-0.6836 l -1.80664,-7.51953 q 10.64453,1.02539 18.4082,1.02539 2.83204,0 3.36914,-1.31836 0.29297,-0.83008 0.29297,-2.29492 V 75.390625 h -70.16601 v 84.130855 h -7.71485 V 68.603516 Z M 134.76562,96.09375 q -3.95507,-8.935547 -8.30078,-15.087891 l 6.49414,-3.222656 q 4.88282,6.445313 8.74024,15.136719 z M 282.86133,67.578125 V 114.4043 H 225.78125 V 67.578125 Z m -49.36524,6.005859 v 7.714844 h 41.55274 v -7.714844 z m 0,13.330078 v 7.763672 h 41.55274 v -7.763672 z m 0,13.476568 v 8.30078 h 41.55274 v -8.30078 z M 214.4043,122.2168 h 83.05664 v 6.49414 h -41.99219 v 30.81054 h -7.91016 V 128.71094 H 206.5918 V 74.267578 h 7.8125 z m -9.22852,29.6875 q 12.79297,-6.15235 23.0957,-19.28711 l 6.5918,3.66211 q -10.40039,13.62304 -24.07226,21.72851 z m 84.17969,4.10156 q -10.25391,-11.18164 -23.29102,-19.82422 l 6.00586,-4.49219 q 11.76758,7.37305 23.68164,18.79883 z m 99.07226,-63.330079 h 9.17969 v 6.591797 h -9.17969 v 22.998052 h -25.09765 q -0.73242,11.62109 -4.49219,19.09179 -6.10352,12.06055 -18.70117,18.60352 l -5.61524,-5.71289 q 11.6211,-5.95703 16.74805,-15.52735 3.27149,-6.05468 4.29688,-16.45507 h -22.46094 v -6.68946 h 22.70508 V 99.267578 H 326.2207 v -6.591797 h 29.58985 V 77.001953 h -21.19141 v -6.787109 h 53.80859 z m -7.61718,0 V 77.001953 h -17.28516 v 15.673828 z m 0,6.591797 h -17.28516 v 16.308592 h 17.28516 z M 322.60742,88.427734 v 71.093746 h -7.71484 V 104.6875 q -3.95508,7.12891 -9.375,14.4043 l -4.00391,-7.27539 q 8.98438,-12.011723 14.7461,-27.197269 3.27148,-8.544922 6.54296,-20.605469 l 7.51954,1.904297 q -3.8086,12.988281 -7.71485,22.509765 z m 161.66992,2.294922 V 122.41211 H 415.57617 V 90.722656 Z m -60.5957,6.494141 v 18.701173 h 52.49023 V 97.216797 Z m 35.88867,50.683593 q 6.00586,-11.47461 9.7168,-24.31641 l 8.39844,2.92969 q -4.58985,11.96289 -10.00977,21.38672 h 29.83399 v 6.88477 h -95.01954 v -6.88477 z M 405.81055,70.703125 h 88.28125 v 6.787109 h -88.28125 z m 25.19531,76.318355 q -3.02734,-10.30273 -8.30078,-19.82421 l 7.4707,-2.97852 q 5.27344,9.32617 8.59375,19.48242 z m 118.21289,-43.79882 v 40.86914 q 0,4.05273 2.39258,4.98047 2.58789,0.97656 16.45508,0.97656 13.42773,0 17.38281,-0.92774 2.7832,-0.68359 3.56445,-3.22265 1.2207,-4.00391 1.26953,-12.40235 l 7.51953,2.78321 q -0.68359,13.23242 -3.51562,16.79687 -2.24609,2.92969 -7.27539,3.4668 -7.66602,0.78125 -20.75195,0.78125 -12.45118,0 -16.74805,-0.83008 -5.3711,-1.07422 -6.83594,-4.88281 -0.78125,-2.09961 -0.78125,-5.51758 v -40.38086 l -10.49805,3.56445 -1.90429,-6.98242 12.40234,-4.150389 v -26.5625 h 7.32422 v 24.072266 l 12.8418,-4.345703 V 64.501953 h 7.32422 v 24.365234 l 18.01757,-6.054687 4.39453,2.392578 v 35.986332 q 0,3.51562 -1.66015,5.32226 -1.95313,2.09961 -6.83594,2.09961 -3.95508,0 -7.71484,-0.53711 l -1.26953,-6.98242 q 3.71093,0.68359 6.93359,0.68359 2.44141,0 2.97852,-1.07421 0.39062,-0.73243 0.39062,-2.29493 V 91.113281 l -15.23437,5.175781 v 39.794918 h -7.32422 V 98.779297 Z M 516.50391,88.916016 V 65.136719 h 7.71484 v 23.779297 h 10.79102 v 7.177734 h -10.79102 v 34.96094 q 5.12695,-1.75782 11.71875,-4.44336 l 0.78125,6.88476 q -14.94141,6.88477 -32.03125,12.10938 l -2.7832,-7.61719 q 6.78711,-1.85547 14.59961,-4.3457 V 96.09375 h -13.28125 v -7.177734 z m 128.95507,0.04883 q 0,7.324218 -0.92773,17.041016 h 39.4043 q -0.6836,32.91016 -3.75977,43.60351 -1.26953,4.49219 -4.83398,6.34766 -3.02735,1.5625 -9.08203,1.5625 -8.39844,0 -15.33204,-0.92773 l -1.31836,-8.00782 q 10.15625,1.31836 16.3086,1.31836 4.05273,0 5.32226,-1.70898 1.07422,-1.46484 2.14844,-8.49609 1.5625,-9.96094 2.14844,-26.70899 h -31.93359 q -1.80665,11.37695 -5.76172,19.28711 -7.91016,15.91797 -26.02539,25.73242 l -5.61524,-6.29883 q 19.38477,-10.15625 25.58594,-26.36718 5.17578,-13.57422 5.56641,-36.376956 h -33.54493 v -7.177735 h 41.69922 V 64.501953 h 8.00781 v 17.285156 h 42.67579 v 7.177735 z"></path>
</svg>
