<svg xmlns="http://www.w3.org/2000/svg" id="svg1" version="1.1" height="200" width="990">
  <defs id="defs1"></defs>
  <rect id="rect1" stroke="none" fill="none" height="200" width="990" y="0" x="0"></rect>
  <path aria-label="中国東北部" style="font-size:100px;font-family:'BIZ UDPGothic';fill:#ff0000" id="text1" d="M 45.703125,83.59375 V 64.501953 h 7.910156 V 83.59375 h 37.25586 v 49.70703 h -7.910157 v -6.98242 H 53.613281 v 33.20312 H 45.703125 V 126.31836 H 16.894531 v 7.51953 H 8.8867188 V 83.59375 Z M 16.894531,90.917969 V 118.99414 H 45.703125 V 90.917969 Z M 82.958984,118.99414 V 90.917969 H 53.613281 V 118.99414 Z M 152.53906,91.992187 v 14.501953 h 22.50977 v 6.20117 h -22.50977 v 18.99414 h 27.19727 v 6.49414 h -59.7168 v -6.49414 h 25.09766 v -18.99414 h -20.70313 v -6.20117 h 20.70313 V 91.992187 h -24.02344 v -6.49414 h 57.22656 v 6.49414 z m 16.50391,37.988283 q -4.58985,-7.17774 -10.10742,-12.30469 l 5.5664,-3.4668 q 5.41992,4.93165 10.20508,11.76758 z M 192.5293,69.824219 v 89.697261 h -7.8125 v -5.41992 h -69.58008 v 5.41992 h -7.8125 V 69.824219 Z m -77.39258,6.591797 V 147.31445 H 184.7168 V 76.416016 Z m 146.1914,50.195314 q 14.01368,12.84179 36.76758,20.50781 l -4.73633,6.98242 q -10.54687,-3.95508 -18.31054,-8.54492 -12.10938,-7.22656 -21.53321,-18.06641 v 32.03125 h -7.71484 v -31.83593 q -5.76172,7.51953 -14.30664,14.20898 -10.88867,8.49609 -24.31641,13.81836 l -4.78515,-6.29883 q 21.97265,-8.00781 35.79101,-22.80273 H 211.57227 V 87.792969 h 34.22851 v -8.007813 h -41.74805 v -6.591797 h 41.74805 v -8.691406 h 7.71484 v 8.691406 h 42.38282 v 6.591797 h -42.38282 v 8.007813 h 34.76563 V 126.61133 Z M 245.80078,94.091797 h -26.41601 v 9.814453 h 26.41601 z m 7.71484,0 v 9.814453 h 27.05079 v -9.814453 z m -7.71484,15.917973 h -26.41601 v 10.30273 h 26.41601 z m 7.71484,0 v 10.30273 h 27.05079 v -10.30273 z m 77.09961,22.80273 q -11.42578,6.25 -25.09765,11.81641 l -3.51563,-7.71485 q 17.33399,-6.15234 28.61328,-11.96289 V 98.535156 h -25.63476 v -7.421875 h 25.63476 V 65.527344 h 8.00782 v 93.212886 h -8.00782 z M 362.01172,97.949219 Q 375,91.845703 387.30469,81.591797 l 6.20117,6.103515 Q 378.36914,98.779297 362.01172,105.9082 v 38.1836 q 0,3.07617 2.24609,3.71093 1.80664,0.53711 10.35156,0.53711 8.05665,0 10.35157,-1.12304 1.66015,-0.83008 2.24609,-4.29688 0.68359,-4.44336 1.07422,-14.84375 l 7.91016,2.73438 q -0.58594,16.01562 -2.2461,19.9707 -1.61133,3.90625 -7.03125,4.88281 -4.63867,0.83008 -13.52539,0.83008 -12.10937,0 -15.42969,-1.5625 -3.95507,-1.85547 -3.95507,-7.91016 V 65.478516 h 8.00781 z m 71.97265,-21.337891 h 21.82618 v 6.787109 h -7.03125 q -2.05078,9.13086 -5.61524,18.701173 h 14.45313 v 6.88477 h -55.12696 v -6.88477 h 13.72071 l -0.0977,-0.48828 Q 414.0625,91.601562 411.71875,84.423828 l -0.3418,-1.025391 h -7.08008 v -6.787109 h 22.2168 V 64.501953 h 7.4707 z m -15.13671,6.787109 q 2.58789,7.958985 4.73632,18.701173 h 12.15821 q 2.92968,-8.105469 5.32226,-18.701173 z m 31.83593,35.888673 v 39.30664 h -7.32422 v -5.51758 h -25.97656 v 6.39649 h -7.56836 v -40.18555 z m -33.30078,6.68945 v 20.3125 h 25.97656 v -20.3125 z m 65.42969,-22.70508 q 12.8418,13.57422 12.8418,29.44336 0,5.56641 -2.00196,8.39844 -2.4414,3.27149 -8.49609,3.27149 -5.81055,0 -10.69336,-0.6836 l -1.61133,-7.61719 q 6.25,1.02539 10.15625,1.02539 3.71094,0 4.39453,-2.49023 0.29297,-1.07422 0.29297,-3.51562 0,-13.72071 -12.64648,-26.70899 5.85937,-12.695311 9.52148,-26.708983 h -15.42969 v 81.787113 h -7.37304 V 70.507812 h 27.49023 l 4.39453,3.808594 q -5.37109,17.382813 -10.83984,28.955074 z"></path>
</svg>
