<svg xmlns="http://www.w3.org/2000/svg" id="svg1" version="1.1" height="200" width="1096">
  <defs id="defs1"></defs>
  <rect id="rect1" stroke="none" fill="none" height="200" width="1096" y="0" x="0"></rect>
  <path aria-label="石狩湾" style="font-weight:bold;font-size:110px;font-family:'BIZ UDPGothic';fill:#ff0000" id="text1" d="M 36.630859,102.14355 H 97.96875 v 58.33008 H 85.561523 v -7.41211 H 33.837891 v 7.41211 H 21.645508 v -39.74609 q -6.660156,6.60644 -14.2871096,12.62207 L 0.75195312,123.03711 Q 15.46875,112.77832 25.78125,97.524414 33.78418,85.654297 38.295898,72.924805 H 5.3710937 V 62.236328 H 105.05859 V 72.924805 H 51.455078 q -5.74707,15.522461 -14.824219,29.218745 z m -2.792968,10.47364 v 29.75586 h 51.723632 v -29.75586 z m 101.298829,-0.9668 q -7.94922,16.2207 -17.29492,25.67383 l -6.28418,-9.66797 q 11.33301,-10.95703 21.80664,-32.333984 -0.59082,-3.276368 -1.50391,-6.391602 -6.12305,6.391602 -14.55566,13.212886 l -5.96192,-9.560542 q 9.292,-6.499024 16.43555,-14.28711 -4.13574,-8.002929 -11.2793,-14.555664 l 8.05664,-5.693359 q 6.44532,5.209961 10.41993,11.171875 4.40429,-6.552734 7.73437,-12.836914 l 9.56055,5.961914 q -6.33789,10.205078 -11.97754,17.026367 6.76758,16.328125 6.76758,49.252933 0,15.7373 -2.79297,23.36425 -1.66504,4.61915 -4.8877,6.49903 -2.63183,1.5039 -7.3584,1.5039 -6.33789,0 -11.76269,-1.18164 l -1.87988,-11.54785 q 5.63964,1.50391 10.52734,1.50391 3.38379,0 4.35059,-1.71875 2.36328,-4.13574 2.36328,-21.16211 0,-6.01563 -0.32227,-11.87012 -0.10742,-1.55762 -0.16113,-2.36328 z m 52.42187,-41.948242 h 28.30567 v 23.955079 h -11.11817 v -14.28711 h -43.88183 v 14.28711 H 149.74609 V 69.702148 h 26.26465 V 55.737305 h 11.54785 z m 14.07227,30.668942 h 15.84473 v 9.77539 h -15.84473 v 39.53125 q 0,5.90821 -3.00781,8.05664 -2.52442,1.82618 -8.75489,1.82618 -3.49121,0 -12.40722,-0.53711 l -2.47071,-0.10742 -2.30957,-11.44043 q 9.02344,1.12793 14.98536,1.12793 1.9873,0 2.4707,-0.9668 0.37598,-0.80567 0.37598,-3.00781 v -34.48243 h -42.48536 v -9.77539 H 190.5127 V 86.835937 h 11.11816 z m -32.97852,41.57227 q -5.58593,-12.46094 -13.32031,-22.61231 l 9.77539,-5.53222 q 7.08985,7.57324 14.12598,21.59179 z M 302.9834,74.106445 v 20.786133 q 0,3.544922 -1.50391,5.209962 -1.77246,1.93359 -7.84179,1.93359 -5.80079,0 -9.50684,-0.64453 l -1.39649,-8.916014 q 4.24317,0.859375 7.14356,0.859375 1.55762,0 1.9873,-0.751953 0.32227,-0.644531 0.32227,-2.094727 V 74.106445 h -9.56055 q -0.42968,11.333008 -3.00781,17.402344 -2.84668,6.606445 -11.76269,12.084961 l -7.68067,-6.821289 q 8.05664,-4.189453 10.36621,-10.795899 1.39649,-4.135742 1.71875,-11.870117 h -21.21582 v -9.130859 h 30.56153 v -9.023438 h 11.8164 v 9.023438 h 33.73047 v 9.130859 z m 16.59668,30.454105 v 21.80664 h -53.0127 q -0.42968,2.9541 -1.02051,5.9082 h 58.65235 q -1.34277,14.77051 -3.70606,20.24902 -3.4375,7.94922 -16.11328,7.94922 -10.52734,0 -22.6123,-0.91308 l -1.98731,-9.77539 q 11.54785,1.23535 20.67871,1.23535 4.94141,0 6.49903,-1.12793 2.41699,-1.77246 3.75976,-9.23828 h -47.26562 q -0.59082,2.20215 -2.04102,6.60644 l -11.54785,-2.30957 q 4.08203,-12.24609 6.12305,-26.47949 h 51.83105 v -5.74707 h -55 v -8.16406 z M 240.57129,80.820312 q -5.96192,-8.271484 -15.25391,-16.381835 l 8.00293,-7.626954 q 8.43262,6.176758 15.84473,15.737305 z m -3.27637,27.714848 Q 229.02344,98.061523 221.23535,91.455078 l 8.05664,-7.788086 q 8.05664,6.176758 16.59668,15.952149 z M 223.4375,151.9873 q 9.45312,-14.71679 17.93945,-37.75878 l 8.8086,6.49902 q -7.03614,21.32324 -16.86524,39.85351 z m 95.71289,-51.50878 Q 312.11426,89.091797 304.37988,80.820312 l 8.16407,-5.263671 q 9.45312,8.59375 15.30761,18.798828 z m -75.1416,-6.445317 q 7.8418,-6.445312 12.89062,-17.080078 l 9.77539,3.652344 q -5.26367,11.977539 -14.55566,19.980471 z"></path>
</svg>
