<svg xmlns="http://www.w3.org/2000/svg" id="svg1" version="1.1" height="200" width="990">
  <defs id="defs1"></defs>
  <rect id="rect1" stroke="none" fill="none" height="200" width="990" y="0" x="0"></rect>
  <path aria-label="後志地方西部" style="font-size:100px;font-family:'BIZ UDPGothic';fill:#ff0000" id="text1" d="m 50.78125,110.83984 q -2.34375,0.0977 -5.712891,0.3418 -1.5625,0.0977 -11.669922,0.48828 l -2.001953,-6.59179 q 5.22461,-0.0977 15.869141,-0.43946 l 0.537109,-0.53711 q 1.31836,-1.2207 5.273438,-5.029294 -8.056641,-9.619141 -19.091797,-18.50586 l 5.126953,-4.785156 q 4.052734,3.222656 7.03125,6.054687 6.933594,-8.105468 12.255859,-17.675781 l 6.982422,3.417969 q -7.714843,11.181641 -14.84375,18.505859 3.613282,3.759766 7.373047,8.105469 l 1.367188,-1.464844 Q 69.042969,82.421875 76.513672,72.65625 l 6.396484,4.003906 q -11.376953,13.916016 -26.123047,27.636724 4.980469,-0.29297 7.470703,-0.39063 3.613282,-0.19531 18.310547,-1.2207 Q 78.564453,96.826172 75,92.578125 l 5.908203,-3.320313 q 8.251953,9.326172 15.185547,21.435548 l -6.298828,3.56445 q -2.490235,-4.29687 -3.808594,-6.29883 -11.230469,1.36719 -26.855469,2.34375 -2.294922,3.90625 -4.882812,7.37305 h 28.466797 l 4.6875,4.19922 q -8.300782,11.37695 -18.359375,19.04297 11.572265,7.22656 28.759765,11.18164 l -4.394531,7.08008 q -16.943359,-4.63867 -30.615234,-13.96485 -15.625,10.00977 -31.78711,14.16016 l -4.101562,-6.68945 q 15.966797,-3.66211 30.029297,-11.91407 -0.244141,-0.24414 -0.585938,-0.53711 -5.908203,-4.93164 -11.767578,-11.86523 -4.589844,4.19922 -10.693359,7.71484 l -4.980469,-5.12695 q 13.037109,-6.98242 21.875,-20.11719 z m 12.353516,25.87891 q 8.349609,-6.00586 13.671875,-12.8418 H 49.316406 q 6.201172,7.08008 13.81836,12.8418 z M 23.828125,104.54102 v 54.98046 h -7.714844 v -45.21484 q -4.589843,5.27344 -10.3027341,10.40039 L 1.8066406,117.91992 Q 15.625,106.39648 25.927734,87.011719 l 6.591797,3.564453 q -4.101562,7.519531 -8.691406,13.964848 z M 2.7832031,87.792969 Q 15.185547,78.271484 23.193359,64.990234 l 6.591797,3.515625 Q 20.458984,83.59375 7.0800781,93.701172 Z M 145.70312,78.808594 V 64.501953 h 7.91016 v 14.306641 h 42.57813 v 6.689453 h -42.57813 v 17.480473 h 36.18164 v 6.68945 h -78.61328 v -6.68945 h 34.52148 V 85.498047 h -42.18749 v -6.689453 z m -42.38281,69.775386 q 7.22657,-9.91211 11.52344,-27.00195 l 7.37305,2.44141 q -3.95508,18.55468 -12.30469,29.98047 z m 27.29492,-26.36718 h 7.91016 v 22.80273 q 0,2.92969 1.51367,3.71094 0.97656,0.48828 3.07617,0.68359 4.93164,0.39063 8.54493,0.39063 7.66601,0 11.32812,-0.43946 3.75977,-0.48828 4.54102,-4.10156 0.63476,-3.17383 0.8789,-10.64453 l 7.8125,2.58789 q -0.29297,8.25195 -1.12304,11.76758 -1.41602,5.71289 -7.22657,7.12891 -3.71093,0.92773 -14.69726,0.92773 -15.42969,0 -19.04297,-1.85547 -3.51563,-1.80664 -3.51563,-7.56836 z m 25.92774,10.79101 q -7.42188,-11.37695 -14.7461,-18.4082 l 6.20118,-3.71094 q 7.61718,6.73828 15.42968,17.43164 z m 33.49609,17.1875 q -8.05664,-17.52929 -16.11328,-28.27148 l 6.68945,-4.00391 q 10.25391,14.01367 16.60157,27.68555 z m 59.17969,-46.97265 v 40.86914 q 0,4.05273 2.39258,4.98047 2.58789,0.97656 16.45508,0.97656 13.42773,0 17.38281,-0.92774 2.7832,-0.68359 3.56445,-3.22265 1.2207,-4.00391 1.26953,-12.40235 l 7.51953,2.78321 q -0.68359,13.23242 -3.51562,16.79687 -2.24609,2.92969 -7.27539,3.4668 -7.66602,0.78125 -20.75195,0.78125 -12.45118,0 -16.74805,-0.83008 -5.3711,-1.07422 -6.83594,-4.88281 -0.78125,-2.09961 -0.78125,-5.51758 v -40.38086 l -10.49805,3.56445 -1.90429,-6.98242 12.40234,-4.150389 v -26.5625 h 7.32422 v 24.072266 l 12.8418,-4.345703 V 64.501953 h 7.32422 v 24.365234 l 18.01757,-6.054687 4.39453,2.392578 v 35.986332 q 0,3.51562 -1.66015,5.32226 -1.95313,2.09961 -6.83594,2.09961 -3.95508,0 -7.71484,-0.53711 l -1.26953,-6.98242 q 3.71093,0.68359 6.93359,0.68359 2.44141,0 2.97852,-1.07421 0.39062,-0.73243 0.39062,-2.29493 V 91.113281 l -15.23437,5.175781 v 39.794918 h -7.32422 V 98.779297 Z M 216.50391,88.916016 V 65.136719 h 7.71484 v 23.779297 h 10.79102 v 7.177734 h -10.79102 v 34.96094 q 5.12695,-1.75782 11.71875,-4.44336 l 0.78125,6.88476 q -14.94141,6.88477 -32.03125,12.10938 l -2.7832,-7.61719 q 6.78711,-1.85547 14.59961,-4.3457 V 96.09375 h -13.28125 v -7.177734 z m 128.95507,0.04883 q 0,7.324218 -0.92773,17.041016 h 39.4043 q -0.6836,32.91016 -3.75977,43.60351 -1.26953,4.49219 -4.83398,6.34766 -3.02735,1.5625 -9.08203,1.5625 -8.39844,0 -15.33204,-0.92773 l -1.31836,-8.00782 q 10.15625,1.31836 16.3086,1.31836 4.05273,0 5.32226,-1.70898 1.07422,-1.46484 2.14844,-8.49609 1.5625,-9.96094 2.14844,-26.70899 h -31.93359 q -1.80665,11.37695 -5.76172,19.28711 -7.91016,15.91797 -26.02539,25.73242 l -5.61524,-6.29883 q 19.38477,-10.15625 25.58594,-26.36718 5.17578,-13.57422 5.56641,-36.376956 h -33.54493 v -7.177735 h 41.69922 V 64.501953 h 8.00781 v 17.285156 h 42.67579 v 7.177735 z m 88.13477,4.736328 V 77.197266 H 402.7832 V 70.3125 h 94.38477 v 6.884766 h -33.88672 v 16.503906 h 27.7832 V 157.8125 h -7.8125 V 150 h -66.65039 v 7.8125 h -7.71484 V 93.701172 Z m 7.51953,0 h 14.64844 V 77.197266 h -14.64844 z m -7.56836,6.591798 h -16.94336 v 42.91992 h 66.65039 v -17.23633 h -20.16601 q -7.32422,0 -7.32422,-6.59179 v -19.0918 h -14.69727 q -0.43945,10.5957 -3.125,16.89453 -3.80859,8.93555 -14.9414,15.52734 l -4.98047,-5.61523 q 10.40039,-5.41992 13.52539,-14.50195 1.51367,-4.44336 2.00195,-12.30469 z m 29.73633,0 v 16.50391 q 0,1.51367 0.58594,1.95312 0.53711,0.43945 1.80664,0.43945 h 17.57812 v -18.89648 z m 70.70312,-23.681642 h 21.82618 v 6.787109 h -7.03125 q -2.05078,9.13086 -5.61524,18.701173 h 14.45313 v 6.88477 h -55.12696 v -6.88477 h 13.72071 l -0.0977,-0.48828 Q 514.0625,91.601562 511.71875,84.423828 l -0.3418,-1.025391 h -7.08008 v -6.787109 h 22.2168 V 64.501953 h 7.4707 z m -15.13671,6.787109 q 2.58789,7.958985 4.73632,18.701173 h 12.15821 q 2.92968,-8.105469 5.32226,-18.701173 z m 31.83593,35.888673 v 39.30664 h -7.32422 v -5.51758 h -25.97656 v 6.39649 h -7.56836 v -40.18555 z m -33.30078,6.68945 v 20.3125 h 25.97656 v -20.3125 z m 65.42969,-22.70508 q 12.8418,13.57422 12.8418,29.44336 0,5.56641 -2.00196,8.39844 -2.4414,3.27149 -8.49609,3.27149 -5.81055,0 -10.69336,-0.6836 l -1.61133,-7.61719 q 6.25,1.02539 10.15625,1.02539 3.71094,0 4.39453,-2.49023 0.29297,-1.07422 0.29297,-3.51562 0,-13.72071 -12.64648,-26.70899 5.85937,-12.695311 9.52148,-26.708983 h -15.42969 v 81.787113 h -7.37304 V 70.507812 h 27.49023 l 4.39453,3.808594 q -5.37109,17.382813 -10.83984,28.955074 z"></path>
</svg>
