<svg xmlns="http://www.w3.org/2000/svg" id="svg1" version="1.1" height="200" width="990">
  <defs id="defs1"></defs>
  <rect id="rect1" stroke="none" fill="none" height="200" width="990" y="0" x="0"></rect>
  <path aria-label="千島列島" style="font-size:100px;font-family:'BIZ UDPGothic';fill:#ff0000" id="text1" d="m 53.710937,77.832031 v 27.685549 h 43.798829 v 7.17773 H 53.710937 v 46.77735 H 45.605469 V 112.69531 H 2.4902344 v -7.17773 H 45.605469 V 79.101562 Q 29.785156,81.298828 13.085938,82.617187 L 9.6679688,75.732422 Q 48.583984,73.095703 79.199219,65.136719 l 5.273437,6.103515 Q 68.994141,75.439453 53.710937,77.832031 Z M 168.01758,149.21875 h -53.8086 v 5.71289 h -7.71484 v -23.0957 h 7.71484 v 11.18164 h 19.0918 v -14.69727 h -19.0918 V 73.291016 h 23.97461 q 3.36914,-4.931641 5.41993,-9.179688 l 8.6914,2.001953 q -2.39258,3.515625 -5.46875,7.177735 h 35.25391 v 30.517574 h -59.96094 v 6.00586 h 75.3418 v 6.10352 h -75.3418 v 6.29883 h 70.94727 q -0.73243,23.87695 -3.32032,30.71289 -1.5625,4.19922 -5.51757,5.66406 -2.5879,0.92773 -6.83594,0.92773 -6.15235,0 -11.76758,-0.8789 l -1.61133,-7.22656 q 6.73828,1.02539 12.10938,1.02539 4.24804,0 5.37109,-1.95313 2.24609,-3.90625 3.36914,-22.16797 h -43.94531 v 14.69727 h 19.58008 v -11.18164 h 7.51953 z M 122.11914,79.296875 v 6.298828 h 52.09961 v -6.298828 z m 0,12.011719 v 6.689453 h 52.09961 v -6.689453 z m 112.06055,35.888676 q -8.30078,-7.37305 -16.50391,-12.64649 -4.10156,6.5918 -9.61914,12.74414 l -4.98047,-6.00586 q 15.625,-17.77343 20.3125,-43.359373 l 0.0977,-0.732421 h -17.72461 v -7.080079 h 51.12305 v 7.080079 h -25.73243 q -1.12304,6.738281 -2.97851,13.183593 h 20.11719 l 4.0039,3.369141 q -3.51562,24.12109 -12.35351,39.11133 -8.88672,15.08789 -27.58789,26.02539 l -5.3711,-6.20117 q 18.06641,-9.86328 27.19727,-25.48828 z m 3.51562,-7.03125 q 4.00391,-9.27735 6.29883,-23.095708 h -17.96875 q -2.29492,6.249998 -5.07812,11.669918 9.81445,5.61524 16.74804,11.42579 z m 24.56055,-41.357426 h 7.71484 v 57.373046 h -7.71484 z m 22.31445,-10.302735 h 7.8125 v 79.980471 q 0,5.37109 -2.58789,7.56836 -2.34375,1.95312 -8.25195,1.95312 -5.56641,0 -14.79492,-0.68359 l -1.66016,-8.10547 q 9.66797,0.97656 15.47852,0.97656 3.07617,0 3.66211,-1.5625 0.34179,-0.83008 0.34179,-2.34375 z m 83.44727,80.712891 h -53.8086 v 5.71289 h -7.71484 v -23.0957 h 7.71484 v 11.18164 h 19.0918 v -14.69727 h -19.0918 V 73.291016 h 23.97461 q 3.36914,-4.931641 5.41993,-9.179688 l 8.6914,2.001953 q -2.39258,3.515625 -5.46875,7.177735 h 35.25391 v 30.517574 h -59.96094 v 6.00586 h 75.3418 v 6.10352 h -75.3418 v 6.29883 h 70.94727 q -0.73243,23.87695 -3.32032,30.71289 -1.5625,4.19922 -5.51757,5.66406 -2.5879,0.92773 -6.83594,0.92773 -6.15235,0 -11.76758,-0.8789 l -1.61133,-7.22656 q 6.73828,1.02539 12.10938,1.02539 4.24804,0 5.37109,-1.95313 2.24609,-3.90625 3.36914,-22.16797 h -43.94531 v 14.69727 h 19.58008 v -11.18164 h 7.51953 z M 322.11914,79.296875 v 6.298828 h 52.09961 v -6.298828 z m 0,12.011719 v 6.689453 h 52.09961 v -6.689453 z"></path>
</svg>
