<svg xmlns="http://www.w3.org/2000/svg" id="svg1" version="1.1" height="200" width="990">
  <defs id="defs1"></defs>
  <rect id="rect1" stroke="none" fill="none" height="200" width="990" y="0" x="0"></rect>
  <path aria-label="千葉県東方沖" style="font-size:100px;font-family:'BIZ UDPGothic';fill:#ff0000" id="text1" d="m 53.710937,77.832031 v 27.685549 h 43.798829 v 7.17773 H 53.710937 v 46.77735 H 45.605469 V 112.69531 H 2.4902344 v -7.17773 H 45.605469 V 79.101562 Q 29.785156,81.298828 13.085938,82.617187 L 9.6679688,75.732422 Q 48.583984,73.095703 79.199219,65.136719 l 5.273437,6.103515 Q 68.994141,75.439453 53.710937,77.832031 Z M 162.30469,134.7168 q 12.98828,8.6914 35.69336,14.79492 l -4.6875,6.68945 q -25.87891,-8.25195 -39.79493,-20.99609 v 24.3164 h -7.71484 v -24.07226 q -14.0625,14.84375 -39.20898,22.16797 l -4.39453,-6.10352 q 21.82617,-5.9082 35.69335,-16.79687 h -34.32617 v -6.20118 h 42.23633 v -7.1289 H 119.28711 V 97.607422 h -16.79688 v -6.00586 h 16.79688 v -6.982421 h 7.71484 v 6.982421 h 18.11524 v -8.203125 h 7.37304 v 8.203125 h 20.50782 v -7.421875 h 7.71484 v 7.421875 h 16.79688 v 6.00586 h -16.79688 v 12.207028 h -35.5957 V 97.607422 H 127.00195 V 115.2832 h 62.10938 v 6.10352 h -35.59571 v 7.1289 h 43.11524 v 6.20118 z m 10.69336,-37.109378 h -20.50782 v 6.591798 h 20.50782 z M 130.41992,71.777344 v -7.275391 h 7.66602 v 7.275391 h 23.19336 v -7.275391 h 7.91015 v 7.275391 h 25.83008 v 5.908203 h -25.83008 v 7.177734 h -7.91015 v -7.177734 h -23.19336 v 7.177734 h -7.66602 V 77.685547 H 104.88281 V 71.777344 Z M 282.86133,67.578125 V 114.4043 H 225.78125 V 67.578125 Z m -49.36524,6.005859 v 7.714844 h 41.55274 v -7.714844 z m 0,13.330078 v 7.763672 h 41.55274 v -7.763672 z m 0,13.476568 v 8.30078 h 41.55274 v -8.30078 z M 214.4043,122.2168 h 83.05664 v 6.49414 h -41.99219 v 30.81054 h -7.91016 V 128.71094 H 206.5918 V 74.267578 h 7.8125 z m -9.22852,29.6875 q 12.79297,-6.15235 23.0957,-19.28711 l 6.5918,3.66211 q -10.40039,13.62304 -24.07226,21.72851 z m 84.17969,4.10156 q -10.25391,-11.18164 -23.29102,-19.82422 l 6.00586,-4.49219 q 11.76758,7.37305 23.68164,18.79883 z m 71.97265,-29.39453 q 14.01368,12.84179 36.76758,20.50781 l -4.73633,6.98242 q -10.54687,-3.95508 -18.31054,-8.54492 -12.10938,-7.22656 -21.53321,-18.06641 v 32.03125 h -7.71484 v -31.83593 q -5.76172,7.51953 -14.30664,14.20898 -10.88867,8.49609 -24.31641,13.81836 l -4.78515,-6.29883 q 21.97265,-8.00781 35.79101,-22.80273 H 311.57227 V 87.792969 h 34.22851 v -8.007813 h -41.74805 v -6.591797 h 41.74805 v -8.691406 h 7.71484 v 8.691406 h 42.38282 v 6.591797 h -42.38282 v 8.007813 h 34.76563 V 126.61133 Z M 345.80078,94.091797 h -26.41601 v 9.814453 h 26.41601 z m 7.71484,0 v 9.814453 h 27.05079 v -9.814453 z m -7.71484,15.917973 h -26.41601 v 10.30273 h 26.41601 z m 7.71484,0 v 10.30273 h 27.05079 v -10.30273 z m 91.94336,-21.044926 q 0,7.324218 -0.92773,17.041016 h 39.4043 q -0.6836,32.91016 -3.75977,43.60351 -1.26953,4.49219 -4.83398,6.34766 -3.02735,1.5625 -9.08203,1.5625 -8.39844,0 -15.33204,-0.92773 l -1.31836,-8.00782 q 10.15625,1.31836 16.3086,1.31836 4.05273,0 5.32226,-1.70898 1.07422,-1.46484 2.14844,-8.49609 1.5625,-9.96094 2.14844,-26.70899 h -31.93359 q -1.80665,11.37695 -5.76172,19.28711 -7.91016,15.91797 -26.02539,25.73242 l -5.61524,-6.29883 q 19.38477,-10.15625 25.58594,-26.36718 5.17578,-13.57422 5.56641,-36.376956 h -33.54493 v -7.177735 h 41.69922 V 64.501953 h 8.00781 v 17.285156 h 42.67579 v 7.177735 z m 113.23243,-3.66211 V 64.501953 h 7.71484 v 20.800781 h 27.7832 v 40.478516 h -27.7832 v 33.69141 h -7.71484 v -33.69141 h -26.9043 V 85.302734 Z m -19.38477,6.982422 v 26.513674 h 19.38477 V 92.285156 Z m 47.26563,26.513674 V 92.285156 H 566.40625 V 118.79883 Z M 521.77734,86.621094 q -6.54297,-8.34961 -15.2832,-15.527344 l 5.32227,-5.273438 q 8.30078,6.201172 15.67382,14.990235 z m -3.66211,25.488286 q -7.66601,-8.8379 -15.91796,-15.527349 l 5.41992,-5.46875 q 8.39843,6.201172 16.16211,14.990239 z m -13.7207,40.57617 q 9.52149,-12.69532 17.48047,-32.86133 l 6.29883,5.07812 q -7.32422,19.14063 -17.08985,33.69141 z"></path>
</svg>
