<svg xmlns="http://www.w3.org/2000/svg" id="svg1" version="1.1" height="200" width="1096">
  <defs id="defs1"></defs>
  <rect id="rect1" stroke="none" fill="none" height="200" width="1096" y="0" x="0"></rect>
  <path aria-label="能登半島沖" style="font-weight:bold;font-size:110px;font-family:'BIZ UDPGothic';fill:#ff0000" id="text1" d="M 10.742188,80.498047 Q 17.456055,68.735352 21.967773,55.522461 l 12.084961,2.524414 q -5.209961,12.138672 -11.547851,22.128906 3.276367,-0.161133 10.097656,-0.483398 0.59082,0 8.164063,-0.483399 l -0.322266,-0.537109 q -2.416992,-4.135742 -5.585938,-8.754883 l 9.13086,-4.511719 q 9.399414,12.192383 14.824219,23.310547 l -10.3125,5.639649 Q 47.104492,91.347656 45.27832,87.587891 28.305664,89.682617 3.8134766,90.810547 L 1.0742187,80.712891 q 2.0947266,0 9.6679693,-0.214844 z m 40.390624,17.026367 v 52.583006 q 0,5.53223 -2.631835,7.62695 -2.363282,1.87989 -8.110352,1.87989 -5.908203,0 -10.795898,-0.69824 l -1.772461,-10.15137 q 6.660156,0.80566 9.77539,0.80566 1.987305,0 2.363281,-0.80566 0.268555,-0.64453 0.268555,-1.98731 v -9.77539 H 19.228516 v 23.47168 H 8.1103516 V 97.524414 Z m -31.904296,8.808596 v 7.03613 h 21.000976 v -7.03613 z m 0,15.09277 v 7.51953 h 21.000976 v -7.51953 z M 71.59668,72.226562 Q 84.111328,67.661133 95.444336,61.000977 l 8.056644,8.164062 q -16.274418,8.59375 -31.9043,12.890625 v 9.077148 q 0,2.685547 1.557617,3.168946 Q 75.302734,95 83.735352,95 q 7.250976,0 9.023437,-1.611328 1.396484,-1.289063 1.826172,-9.72168 0.05371,-1.611328 0.107422,-2.524414 l 11.333007,2.739258 q -0.42969,14.501953 -3.27637,17.670894 -1.82617,2.04102 -6.069333,2.84668 -5.424804,1.07422 -15.844726,1.07422 -13.051758,0 -17.026367,-1.93359 -3.759766,-1.87988 -3.759766,-8.110353 V 55.952148 H 71.59668 Z m 0,52.314458 q 12.568359,-4.18946 25.727539,-11.60157 l 7.519531,8.91602 q -17.456055,8.75488 -33.24707,12.67578 v 9.61426 q 0,3.49121 2.255859,4.13574 1.71875,0.53711 8.862305,0.53711 9.990234,0 11.386718,-1.71875 1.503907,-1.82617 1.933594,-13.80371 l 11.440434,3.06152 q -0.10743,15.95215 -4.83399,19.87305 -4.135741,3.4375 -20.893553,3.4375 -13.266602,0 -17.563477,-2.14844 -4.135742,-1.9873 -4.135742,-8.05664 V 108.96484 H 71.59668 Z M 191.37207,79.155273 q 6.82129,-4.941406 13.75,-12.890625 l 8.80859,5.854493 q -6.01562,6.391601 -13.85742,11.870117 7.3584,3.652344 18.26172,7.519531 l -5.85449,9.453121 Q 198.46191,95.537109 187.98828,89.25293 v 6.660156 h -46.19141 v -4.619141 q -10.74218,6.875 -25.67382,12.568355 l -5.58594,-9.184566 q 14.28711,-4.61914 23.63281,-10.205078 l -0.53711,-0.429687 q -7.14355,-5.800782 -14.71679,-10.151367 l 8.21777,-7.143555 q 9.8291,6.28418 15.89844,11.601562 6.28418,-5.263672 10.36621,-10.634765 h -23.95508 v -9.345703 h 39.85351 q 4.45801,6.015625 9.23829,10.742187 l 1.12793,-0.966797 q 5.85449,-5.048828 10.84961,-10.849609 l 8.59375,6.230469 q -5.47852,5.371093 -13.69629,11.49414 2.73925,2.041016 5.96191,4.135742 z m -43.77441,8.056641 h 37.11425 q -12.08496,-7.895508 -19.92675,-17.509766 -6.23047,8.378907 -12.51465,13.75 -1.98731,1.71875 -4.67285,3.759766 z m 45.33203,46.191406 q -2.47071,6.44531 -7.03614,14.82422 h 30.66895 v 9.56055 H 113.49121 v -9.56055 h 28.73535 q -3.70605,-9.13086 -6.66015,-14.82422 h -8.43262 v -29.27246 h 75.57129 v 29.27246 z m -12.78321,0 h -31.79687 q 3.27637,7.08984 5.53223,14.12598 l 0.16113,0.69824 h 20.03418 l 0.37597,-0.80567 q 3.86719,-8.32519 5.69336,-14.01855 z m -40.92773,-20.78613 v 12.40722 H 190.5127 V 112.61719 Z M 268.6084,93.442383 V 55.952148 h 12.08496 v 37.490235 h 40.92773 v 10.688477 h -40.92773 v 15.25391 h 46.56738 v 10.90332 h -46.56738 v 30.18554 H 268.6084 V 130.28809 H 222.73926 V 119.38477 H 268.6084 V 104.13086 H 228.43262 V 93.442383 Z M 245.08301,89.951172 Q 238.42285,75.180664 231.11816,65.405273 l 11.22559,-5.478515 q 8.27148,11.386719 14.50195,24.599609 z m 47.1582,-4.189453 q 8.48633,-12.890625 13.53516,-27.070313 l 12.56836,4.941406 q -6.06934,13.320313 -15.30762,26.748047 z m 80.35156,-21.645508 q 1.98731,-4.780274 3.22266,-9.130859 l 13.10547,1.77246 q -1.87988,4.458008 -3.4375,7.358399 h 35.77148 v 35.019531 h -64.88281 v 5.424808 h 80.83496 v 8.70117 h -80.83496 v 5.47851 h 77.0752 q -0.69825,24.59961 -3.11524,33.19336 -1.55762,5.47852 -5.85449,7.25098 -3.06152,1.28906 -9.3457,1.28906 -6.44532,0 -12.03125,-0.80566 l -2.14844,-9.02344 h -53.81836 v 5.96192 h -11.54785 v -25.83497 h 11.54785 v 11.06446 h 18.47656 v -14.50196 h -21.1084 V 64.116211 Z m 22.82715,77.719729 v -11.06446 h 11.11817 v 18.69141 q 4.458,0.42969 7.41211,0.42969 3.65234,0 4.56542,-2.09473 1.77247,-3.9209 2.79297,-20.46387 H 377.1582 v 14.50196 z M 356.37207,72.387695 v 5.317383 h 53.0127 v -5.317383 z m 0,12.998047 v 5.854492 h 53.0127 v -5.854492 z m 147.3291,-9.399414 v -20.03418 h 11.54785 v 20.03418 h 29.11133 v 48.608402 h -29.11133 v 35.8789 h -11.54785 v -35.8789 H 475.18066 V 75.986328 Z m -17.40234,10.688477 v 27.338865 h 17.40234 V 86.674805 Z m 46.62109,27.338865 V 86.674805 h -17.6709 v 27.338865 z m -68.75,-31.796873 q -6.55273,-9.13086 -17.34863,-17.456055 l 8.00293,-8.164062 q 10.74219,7.573242 18.1543,16.972656 z m -3.49121,27.607423 q -9.3457,-10.849611 -18.1543,-17.778322 l 8.27149,-8.271484 q 9.39941,6.606445 18.58398,17.080076 z m -16.7041,41.62598 q 10.3125,-14.66309 19.01367,-36.52344 l 9.56055,7.3584 q -7.3584,20.1416 -17.93946,37.91992 z"></path>
</svg>
