<svg xmlns="http://www.w3.org/2000/svg" id="svg1" version="1.1" height="200" width="1096">
  <defs id="defs1"></defs>
  <rect id="rect1" stroke="none" fill="none" height="200" width="1096" y="0" x="0"></rect>
  <path aria-label="根室半島南東沖" style="font-weight:bold;font-size:110px;font-family:'BIZ UDPGothic';fill:#ff0000" id="text1" d="m 89.912109,132.43652 q 7.197266,9.8291 18.959961,16.00586 l -6.71387,10.58106 Q 88.999023,151.39648 81.264648,139.52637 72.993164,126.9043 69.555664,109.7168 H 58.491211 v 35.34179 q 12.407226,-3.65234 20.786133,-6.71386 l 1.020508,10.20507 q -15.791016,6.875 -36.254883,11.7627 l -3.706055,-11.01074 q 3.813477,-0.69824 7.143555,-1.4502 V 59.819336 h 52.045898 v 49.843754 l 7.680663,6.55273 q -8.754882,9.77539 -17.294921,16.2207 z m -4.780273,-8.27148 Q 92.8125,116.69922 97.915039,109.7168 H 80.351562 q 1.826172,8.11035 4.780274,14.44824 z M 88.408203,69.165039 H 58.491211 v 11.010742 h 29.916992 z m 0,19.819336 H 58.491211 V 100.58594 H 88.408203 Z M 19.335937,112.34863 q -4.61914,13.64258 -12.4072261,26.69434 L 0.859375,127.11914 Q 12.944336,110.25391 18.154297,89.414062 H 3.1689453 V 78.833008 H 19.335937 v -22.88086 h 11.225586 v 22.88086 H 43.183594 V 89.414062 H 30.561523 v 9.399415 q 9.184571,6.660153 15.898438,14.448243 l -5.908203,10.15137 q -4.833985,-6.66016 -9.990235,-12.13868 v 49.19922 H 19.335937 Z m 151.196293,1.98731 v 12.03125 h 36.46972 v 9.23828 h -36.46972 v 11.76269 h 45.76172 v 9.45313 H 113.65234 v -9.45313 h 45.00977 v -11.76269 h -35.66406 v -9.23828 h 35.66406 v -11.38672 l -4.18945,0.21484 q -11.2793,0.53711 -29.917,0.91309 l -3.54492,-9.66797 6.875,-0.0537 h 1.66504 l 5.74707,-0.0537 q 4.13574,-4.78028 9.66797,-13.320315 h -14.28711 v -9.345703 h 68.53516 v 9.345703 h -9.13086 q 9.13086,6.767578 21.43066,19.604495 l -9.23828,6.71386 q -3.06152,-3.65234 -6.17676,-6.875 -4.08203,0.32227 -6.12304,0.53711 -7.8418,0.64454 -19.44336,1.34278 z M 187.0752,93.012695 h -28.73536 q -5.4248,7.680665 -10.58105,13.105465 l 7.25098,-0.16113 q 19.81933,-0.32226 33.35449,-1.12793 -4.08203,-3.70605 -8.70117,-7.51953 z M 170.53223,66.533203 h 43.34472 V 88.608398 H 202.11426 V 75.664062 H 127.83203 V 88.608398 H 116.06934 V 66.533203 h 42.59277 V 55.952148 h 11.87012 z m 98.07617,26.90918 V 55.952148 h 12.08496 v 37.490235 h 40.92773 v 10.688477 h -40.92773 v 15.25391 h 46.56738 v 10.90332 h -46.56738 v 30.18554 H 268.6084 V 130.28809 H 222.73926 V 119.38477 H 268.6084 V 104.13086 H 228.43262 V 93.442383 Z M 245.08301,89.951172 Q 238.42285,75.180664 231.11816,65.405273 l 11.22559,-5.478515 q 8.27148,11.386719 14.50195,24.599609 z m 47.1582,-4.189453 q 8.48633,-12.890625 13.53516,-27.070313 l 12.56836,4.941406 q -6.06934,13.320313 -15.30762,26.748047 z m 80.35156,-21.645508 q 1.98731,-4.780274 3.22266,-9.130859 l 13.10547,1.77246 q -1.87988,4.458008 -3.4375,7.358399 h 35.77148 v 35.019531 h -64.88281 v 5.424808 h 80.83496 v 8.70117 h -80.83496 v 5.47851 h 77.0752 q -0.69825,24.59961 -3.11524,33.19336 -1.55762,5.47852 -5.85449,7.25098 -3.06152,1.28906 -9.3457,1.28906 -6.44532,0 -12.03125,-0.80566 l -2.14844,-9.02344 h -53.81836 v 5.96192 h -11.54785 v -25.83497 h 11.54785 v 11.06446 h 18.47656 v -14.50196 h -21.1084 V 64.116211 Z m 22.82715,77.719729 v -11.06446 h 11.11817 v 18.69141 q 4.458,0.42969 7.41211,0.42969 3.65234,0 4.56542,-2.09473 1.77247,-3.9209 2.79297,-20.46387 H 377.1582 v 14.50196 z M 356.37207,72.387695 v 5.317383 h 53.0127 v -5.317383 z m 0,12.998047 v 5.854492 h 53.0127 V 85.385742 Z M 489.03809,120.5127 h -22.23633 v -8.8086 h 10.74219 q -2.417,-5.47851 -5.47852,-10.20508 l 9.66797,-3.544918 q 4.18945,7.036128 6.76758,13.749998 h 12.62207 q 3.16894,-6.49902 5.58593,-13.964842 l 10.7959,3.383792 q -2.73926,5.9082 -5.80078,10.58105 h 11.54785 v 8.8086 h -22.98828 v 7.84179 h 24.49219 v 9.13086 h -24.49219 v 20.30274 h -11.22558 v -20.30274 h -23.57911 v -9.13086 h 23.57911 z m 11.54785,-33.085942 h 40.71289 v 62.788082 q 0,5.53223 -2.9541,7.78809 -2.47071,1.93359 -8.3252,1.93359 -7.57324,0 -14.60937,-0.80566 l -2.63184,-10.7959 q 9.39941,1.12793 14.07227,1.12793 1.93359,0 2.25586,-0.9668 0.21484,-0.59082 0.21484,-1.66504 V 96.772461 H 460.67871 V 160.47363 H 448.70117 V 87.426758 h 40.01465 v -9.72168 h -45.97656 v -9.990234 h 45.97656 V 55.952148 h 11.87012 v 11.762696 h 46.62109 v 9.990234 h -46.62109 z m 122.03125,38.134762 q 13.32031,11.87012 35.8789,19.17481 l -6.92871,10.09765 q -12.99804,-4.61914 -22.66601,-11.17187 -9.99024,-6.82129 -18.42285,-16.75781 v 33.56933 h -11.65528 v -32.97851 q -7.46582,10.47363 -19.28222,18.79883 -9.07715,6.3916 -19.44336,10.3125 l -7.3584,-9.45313 q 17.02636,-5.63965 28.41308,-15.2002 3.22266,-2.68554 6.55274,-6.3916 H 561.87012 V 81.572266 h 36.95312 V 74.321289 H 554.29687 V 64.65332 h 44.52637 v -8.701172 h 11.65528 v 8.701172 h 45.2246 v 9.667969 h -45.2246 v 7.250977 h 37.65136 V 125.56152 Z M 598.82324,90.595703 h -25.29785 v 8.701172 h 25.29785 z m 11.65528,0 v 8.701172 h 25.99609 v -8.701172 z m -11.65528,17.080077 h -25.29785 v 8.86231 h 25.29785 z m 11.65528,0 v 8.86231 h 25.99609 v -8.86231 z M 723.70117,75.986328 v -20.03418 h 11.54785 v 20.03418 h 29.11133 v 48.608402 h -29.11133 v 35.8789 h -11.54785 v -35.8789 H 695.18066 V 75.986328 Z m -17.40234,10.688477 v 27.338865 h 17.40234 V 86.674805 Z m 46.62109,27.338865 V 86.674805 h -17.6709 v 27.338865 z m -68.75,-31.796873 q -6.55273,-9.13086 -17.34863,-17.456055 l 8.00293,-8.164062 q 10.74219,7.573242 18.1543,16.972656 z m -3.49121,27.607423 q -9.3457,-10.849611 -18.1543,-17.778322 l 8.27149,-8.271484 q 9.39941,6.606445 18.58398,17.080076 z m -16.7041,41.62598 q 10.3125,-14.66309 19.01367,-36.52344 l 9.56055,7.3584 q -7.3584,20.1416 -17.93946,37.91992 z"></path>
</svg>
