<svg xmlns="http://www.w3.org/2000/svg" id="svg1" version="1.1" height="200" width="990">
  <defs id="defs1"></defs>
  <rect id="rect1" stroke="none" fill="none" height="200" width="990" y="0" x="0"></rect>
  <path aria-label="択捉島付近" style="font-size:100px;font-family:'BIZ UDPGothic';fill:#ff0000" id="text1" d="m 71.191406,109.57031 q 2.148438,11.32813 6.738281,20.36133 6.689454,13.23242 19.873047,22.36328 L 92.626953,159.375 Q 80.419922,150.04883 73.4375,137.74414 66.699219,125.83008 63.671875,109.57031 H 49.072266 q -0.244141,12.35352 -2.148438,22.2168 -3.027344,15.82031 -12.109375,28.07617 l -5.419922,-6.20117 q 7.080078,-9.66797 9.814453,-23.04688 2.197266,-10.64453 2.197266,-24.75585 V 69.287109 H 90.722656 V 109.57031 Z M 83.007812,76.074219 H 49.121094 V 102.68555 H 83.007812 Z M 16.796875,83.789062 V 64.501953 h 7.617187 v 19.287109 h 10.888672 v 7.080079 H 24.414062 v 18.994139 q 5.615235,-1.95312 10.888672,-4.10156 l 0.830078,6.83594 q -5.761718,2.4414 -11.71875,4.6875 v 34.42382 q 0,4.24805 -2.001953,5.95704 -1.904297,1.61132 -6.152343,1.61132 -4.931641,0 -9.5703129,-0.78125 l -1.2695312,-7.61718 q 5.0781251,0.92773 8.7890621,0.92773 1.904297,0 2.34375,-0.92773 0.244141,-0.58594 0.244141,-1.66016 V 120.01953 Q 12.5,121.58203 4.1015625,123.97461 l -2.1972656,-7.37305 q 8.9355471,-2.4414 14.8925781,-4.29687 V 90.869141 H 2.6855469 V 83.789062 Z M 169.0918,148.0957 q 4.49218,0.97657 9.22851,0.97657 h 20.11719 q -1.46484,3.22265 -2.19727,7.42187 h -18.0664 q -15.18555,0 -24.31641,-8.05664 -4.83398,-4.24805 -8.44726,-11.32813 -3.56446,12.5 -10.15625,21.875 l -5.66407,-5.41992 q 10.25391,-15.13672 13.28125,-40.96679 L 150,114.11133 q -1.07422,7.61719 -2.39258,14.0625 4.29688,11.86523 14.0625,17.1875 V 104.58984 H 140.38086 V 69.824219 h 50.3418 V 104.58984 H 169.0918 v 15.23438 h 23.92578 v 6.78711 H 169.0918 Z M 147.90039,76.416016 v 21.484375 h 35.30273 V 76.416016 Z m -30.81055,7.373046 V 64.501953 h 7.51954 v 19.287109 h 10.88867 v 7.080079 h -10.88867 v 18.701169 q 5.51757,-1.90429 10.49804,-3.90625 l 0.92774,6.73828 q -5.17579,2.19727 -11.42578,4.58985 v 34.81445 q 0,4.19922 -1.9043,5.9082 -1.80664,1.61133 -5.95703,1.61133 -4.34571,0 -9.86328,-0.73242 l -1.26954,-7.71484 q 5.27344,0.92773 8.98438,0.92773 1.75781,0 2.19727,-0.83008 0.29296,-0.63476 0.29296,-1.85547 v -29.39453 q -0.48828,0.19532 -1.26953,0.43946 -4.54101,1.61132 -11.52343,3.71093 l -2.39258,-7.51953 q 7.37304,-1.95312 13.13476,-3.71094 l 2.05078,-0.63476 V 90.869141 H 102.7832 v -7.080079 z m 150.92774,65.429688 h -53.8086 v 5.71289 h -7.71484 v -23.0957 h 7.71484 v 11.18164 h 19.0918 v -14.69727 h -19.0918 V 73.291016 h 23.97461 q 3.36914,-4.931641 5.41993,-9.179688 l 8.6914,2.001953 q -2.39258,3.515625 -5.46875,7.177735 h 35.25391 v 30.517574 h -59.96094 v 6.00586 h 75.3418 v 6.10352 h -75.3418 v 6.29883 h 70.94727 q -0.73243,23.87695 -3.32032,30.71289 -1.5625,4.19922 -5.51757,5.66406 -2.5879,0.92773 -6.83594,0.92773 -6.15235,0 -11.76758,-0.8789 l -1.61133,-7.22656 q 6.73828,1.02539 12.10938,1.02539 4.24804,0 5.37109,-1.95313 2.24609,-3.90625 3.36914,-22.16797 h -43.94531 v 14.69727 h 19.58008 v -11.18164 h 7.51953 z M 222.11914,79.296875 v 6.298828 h 52.09961 v -6.298828 z m 0,12.011719 v 6.689453 h 52.09961 v -6.689453 z m 103.36914,-1.123047 v 69.335933 h -7.71484 v -55.37109 q -0.19532,0.29297 -0.48828,0.73242 -4.39454,7.17774 -10.88868,14.69727 l -4.10156,-7.37305 q 9.76563,-11.32812 16.35742,-25.195311 4.73633,-9.91211 8.83789,-22.900391 l 7.61719,2.099609 q -4.49219,13.427735 -9.61914,23.97461 z m 55.22461,-2.001953 h 16.60156 v 7.177734 h -16.60156 v 54.541012 q 0,5.17578 -2.49023,7.17774 -2.09961,1.61133 -7.76368,1.61133 -7.91015,0 -14.74609,-0.6836 L 354.10156,150 q 8.44727,1.2207 15.625,1.2207 2.14844,0 2.68555,-0.78125 0.39062,-0.63476 0.39062,-2.4414 V 95.361328 h -42.72461 v -7.177734 h 42.72461 V 65.283203 h 7.91016 z m -28.41797,45.410156 q -5.71289,-14.30664 -13.81836,-26.07422 l 6.49414,-4.19922 q 8.39844,12.35352 14.20899,25.87891 z m 74.21875,4.73633 q 4.29688,4.44336 9.81445,7.22656 8.59375,4.3457 23.58399,4.3457 h 38.37891 q -1.41602,2.88086 -2.49024,6.88477 H 459.7168 q -16.35743,0 -25.63477,-4.58984 -5.56641,-2.78321 -10.74219,-8.20313 -8.34961,9.57031 -16.25976,15.47852 l -4.58985,-7.08008 q 7.95899,-4.98047 16.40625,-12.5 v -25.6836 h -16.21093 v -6.7871 h 23.82812 z M 440.9668,74.21875 q 1.70898,-0.146484 3.71093,-0.292969 21.92383,-1.80664 39.99024,-7.617187 l 5.61523,6.103515 q -17.91992,5.371094 -41.60156,7.763672 v 14.941406 h 47.41211 v 6.884763 h -17.91992 v 43.40821 h -7.8125 v -43.40821 h -21.67969 q 0,13.52539 -1.17187,22.07032 -1.5625,11.4746 -6.83594,20.21484 l -6.49414,-5.17578 q 4.78515,-8.30078 6.00586,-19.33594 0.78125,-7.27539 0.78125,-20.654296 z m -18.35938,14.697266 q -7.51953,-9.960938 -15.52734,-17.138672 l 5.51758,-4.6875 q 8.20312,6.689453 15.96679,16.308593 z"></path>
</svg>
