<svg xmlns="http://www.w3.org/2000/svg" id="svg1" version="1.1" height="200" width="1096">
  <defs id="defs1"></defs>
  <rect id="rect1" stroke="none" fill="none" height="200" width="1096" y="0" x="0"></rect>
  <path aria-label="埼玉県南部" style="font-weight:bold;font-size:110px;font-family:'BIZ UDPGothic';fill:#ff0000" id="text1" d="m 73.261719,76.577148 q 14.663086,4.995118 28.842771,12.246094 l -7.143553,8.271485 Q 81.694336,89.360352 69.233398,83.935547 61.123047,93.549805 43.774414,97.094727 l -5.478516,-8.59375 Q 58.222656,84.956055 62.788086,75.180664 H 39.584961 V 65.834961 H 63.916016 V 55.952148 H 75.03418 v 9.882813 h 27.17773 v 9.345703 H 73.691406 q 0,0.107422 -0.429687,1.396484 z m 23.149414,30.830082 v 43.12988 q 0,5.85449 -2.792969,8.05664 -2.30957,1.87988 -8.164062,1.87988 -7.573243,0 -14.931641,-0.80566 l -2.202149,-9.77539 q 7.788086,0.85937 13.320313,0.85937 2.416992,0 2.954102,-0.96679 0.483398,-0.75196 0.483398,-2.73926 V 107.40723 H 32.709961 V 97.416992 H 107.5293 v 9.990238 z M 14.125977,79.692383 V 55.952148 H 25.136719 V 79.692383 H 35.234375 V 90.380859 H 25.136719 v 37.275391 q 5.961914,-2.20215 10.205078,-3.9209 l 1.396484,10.20508 Q 23.417969,140.49316 4.9951172,146.34766 L 1.2353516,134.90723 q 6.1767578,-1.55762 12.8906254,-3.59864 V 90.380859 H 2.7929688 V 79.692383 Z m 62.573242,34.750977 v 29.4873 H 51.293945 v 5.63965 h -9.882812 v -35.12695 z m -25.405274,8.80859 v 11.7627 h 15.844727 v -11.7627 z M 170.69336,72.548828 v 27.285156 h 35.77148 v 10.688476 h -35.77148 v 34.16016 h 44.6875 v 10.90332 h -100.6543 v -10.90332 h 43.77442 v -34.16016 h -34.8584 V 99.833984 h 34.8584 V 72.548828 h -39.69239 v -10.90332 h 92.49024 v 10.90332 z m 27.39258,68.320312 Q 192.23145,130.8252 182.50977,120.5127 l 9.77539,-6.17676 q 9.61425,9.99023 15.95214,19.71191 z M 312.16797,58.583984 V 110.62988 H 248.25195 V 58.583984 Z m -52.36817,8.486328 v 6.713868 h 40.7129 v -6.713868 z m 0,14.28711 v 6.713867 h 40.7129 v -6.713867 z m 0,14.287109 v 6.928709 h 40.7129 v -6.928709 z m -21.6455,22.128909 h 89.05273 v 9.3457 h -44.41894 v 33.35449 H 270.5957 V 127.11914 H 226.3916 V 66.855469 h 11.7627 z m -13.75,32.4414 q 12.7832,-5.9082 24.43847,-19.81933 l 9.88282,5.74707 q -11.49414,14.55566 -25.5127,22.88086 z m 92.59765,6.92871 q -8.21777,-10.09765 -24.70703,-21.21582 l 9.23828,-6.49902 q 12.94434,7.46582 25.40528,19.60449 z m 62.03614,-36.63085 h -22.23633 v -8.8086 h 10.74219 q -2.417,-5.47851 -5.47852,-10.20508 l 9.66797,-3.544918 q 4.18945,7.036128 6.76758,13.749998 h 12.62207 q 3.16894,-6.49902 5.58593,-13.964842 l 10.7959,3.383792 q -2.73926,5.9082 -5.80078,10.58105 h 11.54785 v 8.8086 h -22.98828 v 7.84179 h 24.49219 v 9.13086 h -24.49219 v 20.30274 h -11.22558 v -20.30274 h -23.57911 v -9.13086 h 23.57911 z m 11.54785,-33.085942 h 40.71289 v 62.788082 q 0,5.53223 -2.9541,7.78809 -2.47071,1.93359 -8.3252,1.93359 -7.57324,0 -14.60937,-0.80566 l -2.63184,-10.7959 q 9.39941,1.12793 14.07227,1.12793 1.93359,0 2.25586,-0.9668 0.21484,-0.59082 0.21484,-1.66504 V 96.772461 H 350.67871 V 160.47363 H 338.70117 V 87.426758 h 40.01465 v -9.72168 h -45.97656 v -9.990234 h 45.97656 V 55.952148 h 11.87012 v 11.762696 h 46.62109 v 9.990234 h -46.62109 z m 87.81738,-19.067383 h 22.98828 v 10.366211 h -7.57324 q -2.04102,8.217773 -5.47852,17.241211 h 14.34082 v 10.366213 h -59.9414 V 95.966797 h 13.15918 Q 453.75,85.654297 451.38672,78.725586 H 444.4043 V 68.359375 h 22.77343 V 55.952148 h 11.22559 z m -16.16699,10.366211 q 2.73926,8.00293 4.24316,17.241211 h 10.95703 l 0.53711,-1.503906 q 2.30957,-6.123047 4.29688,-13.911133 l 0.4834,-1.826172 z m 33.30078,36.630864 v 43.98925 h -11.01074 v -5.26367 H 461.1084 v 6.3916 h -11.33301 v -45.11718 z m -34.42871,9.88281 v 18.63769 h 23.41797 v -18.63769 z m 71.75781,-27.124026 q 6.3916,6.069336 10.15137,14.448246 3.70605,8.3789 3.70605,16.97265 0,7.94922 -2.9541,11.70899 -3.06152,3.9209 -10.09766,3.9209 -6.01562,0 -11.65527,-0.85938 l -2.63183,-11.44043 q 6.49902,1.18164 10.74218,1.18164 3.22266,0 4.02832,-1.5039 0.53711,-1.07422 0.53711,-4.29688 0,-13.2666 -7.94922,-22.88086 -2.09472,-2.52441 -5.26367,-5.424804 l 0.64453,-1.503906 q 5.58594,-12.62207 8.70118,-26.318359 h -13.75 V 160.47363 H 505.95703 V 61.000977 h 32.33399 l 5.96191,5.478515 q -5.42481,18.476563 -11.38672,31.635742 z"></path>
</svg>
