<svg xmlns="http://www.w3.org/2000/svg" id="svg1" version="1.1" height="200" width="1096">
  <defs id="defs1"></defs>
  <rect id="rect1" stroke="none" fill="none" height="200" width="1096" y="0" x="0"></rect>
  <path aria-label="2" style="font-weight:bold;font-size:110px;font-family:'BIZ UDPGothic';fill:#ff0000" id="text1" d="M 9.5605469,152.73926 V 140.60059 Q 14.663086,124.75586 37.382812,109.60938 l 2.954102,-1.98731 q 9.775391,-6.49902 13.427734,-10.634765 4.082032,-4.619141 4.082032,-9.990235 0,-4.833984 -2.954102,-8.378906 -4.404297,-5.317383 -13.15918,-5.317383 -13.051757,0 -23.471679,10.903321 L 9.0234375,75.717773 q 3.6523435,-4.458007 8.7011715,-7.519531 10.795899,-6.552734 24.0625,-6.552734 10.3125,0 17.885743,3.920898 6.552734,3.4375 10.097656,9.345703 3.276367,5.585938 3.276367,12.084961 0,8.540039 -6.499023,15.79102 -4.350586,4.88769 -16.274415,12.99804 l -3.4375,2.30957 q -12.62207,8.54004 -16.65039,12.67578 -4.941406,5.04883 -6.552735,9.07715 H 73.90625 v 12.89063 z"></path>
</svg>
