<svg xmlns="http://www.w3.org/2000/svg" id="svg1" version="1.1" height="200" width="1096">
  <defs id="defs1"></defs>
  <rect id="rect1" stroke="none" fill="none" height="200" width="1096" y="0" x="0"></rect>
  <path aria-label="伊豆半島東方沖" style="font-weight:bold;font-size:110px;font-family:'BIZ UDPGothic';fill:#ff0000" id="text1" d="m 99.472656,85.009766 h 8.271484 v 9.882812 H 99.472656 V 120.19043 H 72.080078 q -0.966797,14.87793 -6.176758,23.84766 -6.606445,11.44043 -16.811523,17.72461 l -8.59375,-8.59375 q 9.829101,-5.69336 15.576172,-15.52247 3.813476,-6.60644 4.511718,-17.45605 H 38.295898 V 110.2002 H 60.74707 V 94.892578 H 30.078125 V 85.009766 H 60.74707 V 70.668945 H 39.960937 v -9.990234 h 59.511719 z m -11.333008,0 V 70.668945 H 72.1875 v 14.340821 z m 0,9.882812 H 72.1875 V 110.2002 H 88.139648 Z M 27.285156,82.592773 V 160.47363 H 15.737305 v -55.10742 q -3.97461,6.55274 -9.0234378,13.53516 L 1.2353516,106.92383 Q 10.3125,94.624023 16.59668,78.671875 q 3.920898,-9.882813 7.734375,-23.47168 l 11.655273,2.954102 Q 31.796875,72.172852 27.285156,82.592773 Z M 204.15527,84.794922 V 120.5127 H 125.95215 V 84.794922 Z m -66.11816,9.345703 v 16.918945 h 53.92578 V 94.140625 Z m 3.86719,51.455075 q -2.57813,-9.72168 -8.91602,-19.92675 l 11.54785,-4.29688 q 5.58594,8.64746 9.56055,19.71191 l -10.47363,4.51172 h 31.68945 q 5.47852,-11.17187 9.61426,-24.76074 l 12.72949,3.86719 q -4.61914,11.33301 -9.99023,20.89355 h 29.59472 v 10.47364 H 112.73926 V 145.5957 Z M 116.12305,61.806641 h 97.80761 V 72.011719 H 116.12305 Z M 268.6084,93.442383 V 55.952148 h 12.08496 v 37.490235 h 40.92773 v 10.688477 h -40.92773 v 15.25391 h 46.56738 v 10.90332 h -46.56738 v 30.18554 H 268.6084 V 130.28809 H 222.73926 V 119.38477 H 268.6084 V 104.13086 H 228.43262 V 93.442383 Z M 245.08301,89.951172 Q 238.42285,75.180664 231.11816,65.405273 l 11.22559,-5.478515 q 8.27148,11.386719 14.50195,24.599609 z m 47.1582,-4.189453 q 8.48633,-12.890625 13.53516,-27.070313 l 12.56836,4.941406 q -6.06934,13.320313 -15.30762,26.748047 z m 80.35156,-21.645508 q 1.98731,-4.780274 3.22266,-9.130859 l 13.10547,1.77246 q -1.87988,4.458008 -3.4375,7.358399 h 35.77148 v 35.019531 h -64.88281 v 5.424808 h 80.83496 v 8.70117 h -80.83496 v 5.47851 h 77.0752 q -0.69825,24.59961 -3.11524,33.19336 -1.55762,5.47852 -5.85449,7.25098 -3.06152,1.28906 -9.3457,1.28906 -6.44532,0 -12.03125,-0.80566 l -2.14844,-9.02344 h -53.81836 v 5.96192 h -11.54785 v -25.83497 h 11.54785 v 11.06446 h 18.47656 v -14.50196 h -21.1084 V 64.116211 Z m 22.82715,77.719729 v -11.06446 h 11.11817 v 18.69141 q 4.458,0.42969 7.41211,0.42969 3.65234,0 4.56542,-2.09473 1.77247,-3.9209 2.79297,-20.46387 H 377.1582 v 14.50196 z M 356.37207,72.387695 v 5.317383 h 53.0127 v -5.317383 z m 0,12.998047 v 5.854492 h 53.0127 v -5.854492 z m 156.24512,40.175778 q 13.32031,11.87012 35.8789,19.17481 l -6.92871,10.09765 q -12.99804,-4.61914 -22.66601,-11.17187 -9.99024,-6.82129 -18.42285,-16.75781 v 33.56933 h -11.65528 v -32.97851 q -7.46582,10.47363 -19.28222,18.79883 -9.07715,6.3916 -19.44336,10.3125 l -7.3584,-9.45313 q 17.02636,-5.63965 28.41308,-15.2002 3.22266,-2.68554 6.55274,-6.3916 H 451.87012 V 81.572266 h 36.95312 V 74.321289 H 444.29687 V 64.65332 h 44.52637 v -8.701172 h 11.65528 v 8.701172 h 45.2246 v 9.667969 h -45.2246 v 7.250977 h 37.65136 V 125.56152 Z M 488.82324,90.595703 h -25.29785 v 8.701172 h 25.29785 z m 11.65528,0 v 8.701172 h 25.99609 v -8.701172 z m -11.65528,17.080077 h -25.29785 v 8.86231 h 25.29785 z m 11.65528,0 v 8.86231 h 25.99609 v -8.86231 z m 101.6748,-22.773436 q -0.37598,8.969726 -1.07422,15.791016 h 43.29102 q -0.80567,37.27539 -4.18946,48.39355 -1.71875,5.58594 -6.3916,7.73438 -3.65234,1.66504 -10.68847,1.66504 -7.41211,0 -16.81153,-1.12793 l -2.09472,-12.08496 q 12.62207,1.77246 17.77832,1.77246 4.35058,0 5.53222,-2.4707 2.84668,-6.01563 3.97461,-33.19336 h -31.95801 q -1.77246,9.66796 -4.99511,16.75781 -8.96973,19.60449 -29.97071,31.09863 l -8.48632,-9.45312 q 21.05468,-10.95704 27.82226,-28.73536 4.51172,-11.87011 5.85449,-36.147456 H 554.18945 V 73.891602 h 43.88184 V 55.952148 h 12.40723 v 17.939454 h 45.33203 v 11.010742 z m 121.54785,-8.916016 v -20.03418 h 11.54785 v 20.03418 h 29.11133 v 48.608402 h -29.11133 v 35.8789 h -11.54785 v -35.8789 H 695.18066 V 75.986328 Z m -17.40234,10.688477 v 27.338865 h 17.40234 V 86.674805 Z m 46.62109,27.338865 V 86.674805 h -17.6709 v 27.338865 z m -68.75,-31.796873 q -6.55273,-9.13086 -17.34863,-17.456055 l 8.00293,-8.164062 q 10.74219,7.573242 18.1543,16.972656 z m -3.49121,27.607423 q -9.3457,-10.849611 -18.1543,-17.778322 l 8.27149,-8.271484 q 9.39941,6.606445 18.58398,17.080076 z m -16.7041,41.62598 q 10.3125,-14.66309 19.01367,-36.52344 l 9.56055,7.3584 q -7.3584,20.1416 -17.93946,37.91992 z"></path>
</svg>
