<svg xmlns="http://www.w3.org/2000/svg" id="svg1" version="1.1" height="200" width="990">
  <defs id="defs1"></defs>
  <rect id="rect1" stroke="none" fill="none" height="200" width="990" y="0" x="0"></rect>
  <path aria-label="中米" style="font-size:100px;font-family:'BIZ UDPGothic';fill:#ff0000" id="text1" d="M 45.703125,83.59375 V 64.501953 h 7.910156 V 83.59375 h 37.25586 v 49.70703 h -7.910157 v -6.98242 H 53.613281 v 33.20312 H 45.703125 V 126.31836 H 16.894531 v 7.51953 H 8.8867188 V 83.59375 Z M 16.894531,90.917969 V 118.99414 H 45.703125 V 90.917969 Z M 82.958984,118.99414 V 90.917969 H 53.613281 v 28.076171 z m 74.267576,-10.79101 q 10.10742,14.01367 24.60938,24.26757 6.68945,4.73633 15.77148,9.61914 l -5.22461,7.42188 q -25.68359,-15.42969 -38.76953,-36.03516 v 46.04492 h -7.91016 V 114.0625 q -12.74414,22.02148 -38.13476,37.06055 l -5.07813,-6.64063 q 14.4043,-7.4707 24.80469,-17.72461 8.10547,-8.00781 14.89258,-18.55468 h -38.08594 v -6.98243 h 41.60156 V 64.501953 h 7.91016 V 101.2207 h 42.28516 v 6.98243 z M 124.16992,96.679687 Q 117.48047,83.056641 111.57227,74.902344 l 6.59179,-3.808594 q 7.12891,9.521484 13.03711,21.484375 z m 41.89453,-2.880859 q 7.71485,-11.083984 13.52539,-23.876953 l 7.47071,3.466797 q -6.64063,13.671875 -14.30664,23.730469 z"></path>
</svg>
