<svg xmlns="http://www.w3.org/2000/svg" id="svg1" version="1.1" height="200" width="1096">
  <defs id="defs1"></defs>
  <rect id="rect1" stroke="none" fill="none" height="200" width="1096" y="0" x="0"></rect>
  <path aria-label="相模湾" style="font-weight:bold;font-size:110px;font-family:'BIZ UDPGothic';fill:#ff0000" id="text1" d="M 19.443359,112.72461 Q 14.770508,126.63574 7.1435547,139.04297 L 1.0742187,127.11914 Q 13.105469,110.62988 18.422852,89.414062 H 3.2763672 V 78.833008 H 19.443359 v -22.88086 h 11.225586 v 22.88086 H 44.09668 V 89.414062 H 30.668945 v 9.238282 q 8.701172,6.284176 16.274414,14.394536 l -6.176757,10.25878 q -4.243165,-5.80078 -10.097657,-12.19238 v 49.36035 H 19.443359 Z M 101.29883,61.21582 v 99.25781 H 90.073242 v -8.80859 H 61.499023 v 8.80859 H 50.380859 V 61.21582 Z M 61.499023,71.313477 v 16.65039 h 28.574219 v -16.65039 z m 0,26.425781 V 114.12109 H 90.073242 V 97.739258 Z m 0,25.942382 v 17.77832 h 28.574219 v -17.77832 z m 65.527347,-11.60156 q -5.04883,14.7168 -11.44043,25.94238 l -4.51172,-12.62207 q 10.04394,-16.75781 14.93164,-36.845703 h -13.2666 V 78.081055 h 14.28711 V 55.952148 h 11.01074 v 22.128907 h 9.88281 v 10.473632 h -9.88281 v 9.184571 q 6.92871,5.693362 13.48144,13.051762 l -5.58593,9.56054 q -4.18946,-6.17676 -7.89551,-10.63476 v 50.75683 h -11.01074 z m 72.13379,-33.032228 h 11.8164 v 37.866208 h -24.33105 v 6.23047 h 30.83008 v 9.45313 h -28.14454 q 11.06446,14.01855 29.21875,18.15429 l -5.85449,9.88282 q -10.68847,-2.79297 -19.6582,-9.99024 -6.28418,-4.99512 -10.7959,-12.2998 -4.18945,8.59375 -11.44043,13.91113 -7.68066,5.58594 -20.67871,8.91601 l -6.60645,-8.75488 q 13.26661,-3.00781 20.35645,-7.46582 6.82129,-4.29687 10.68848,-12.35351 h -29.05762 v -9.45313 h 30.13184 v -6.23047 H 152.32422 V 79.047852 h 11.44043 v -6.069336 h -16.27442 v -9.13086 h 16.27442 v -7.895508 h 10.41992 v 7.895508 h 14.2334 v -7.895508 h 10.74219 v 7.895508 h 16.54296 v 9.13086 h -16.54296 z m -10.74219,0 v -6.069336 h -14.2334 v 6.069336 z m 11.65527,8.05664 h -36.95312 v 6.928711 h 36.95312 z m -36.95312,14.609378 v 7.14355 h 36.95312 v -7.14355 z M 302.9834,74.106445 v 20.786133 q 0,3.544922 -1.50391,5.209962 -1.77246,1.93359 -7.84179,1.93359 -5.80079,0 -9.50684,-0.64453 l -1.39649,-8.916014 q 4.24317,0.859375 7.14356,0.859375 1.55762,0 1.9873,-0.751953 0.32227,-0.644531 0.32227,-2.094727 V 74.106445 h -9.56055 q -0.42968,11.333008 -3.00781,17.402344 -2.84668,6.606445 -11.76269,12.084961 l -7.68067,-6.821289 q 8.05664,-4.189453 10.36621,-10.795899 1.39649,-4.135742 1.71875,-11.870117 h -21.21582 v -9.130859 h 30.56153 v -9.023438 h 11.8164 v 9.023438 h 33.73047 v 9.130859 z m 16.59668,30.454105 v 21.80664 h -53.0127 q -0.42968,2.9541 -1.02051,5.9082 h 58.65235 q -1.34277,14.77051 -3.70606,20.24902 -3.4375,7.94922 -16.11328,7.94922 -10.52734,0 -22.6123,-0.91308 l -1.98731,-9.77539 q 11.54785,1.23535 20.67871,1.23535 4.94141,0 6.49903,-1.12793 2.41699,-1.77246 3.75976,-9.23828 h -47.26562 q -0.59082,2.20215 -2.04102,6.60644 l -11.54785,-2.30957 q 4.08203,-12.24609 6.12305,-26.47949 h 51.83105 v -5.74707 h -55 v -8.16406 z M 240.57129,80.820312 q -5.96192,-8.271484 -15.25391,-16.381835 l 8.00293,-7.626954 q 8.43262,6.176758 15.84473,15.737305 z m -3.27637,27.714848 Q 229.02344,98.061523 221.23535,91.455078 l 8.05664,-7.788086 q 8.05664,6.176758 16.59668,15.952149 z M 223.4375,151.9873 q 9.45312,-14.71679 17.93945,-37.75878 l 8.8086,6.49902 q -7.03614,21.32324 -16.86524,39.85351 z m 95.71289,-51.50878 Q 312.11426,89.091797 304.37988,80.820312 l 8.16407,-5.263671 q 9.45312,8.59375 15.30761,18.798828 z m -75.1416,-6.445317 q 7.8418,-6.445312 12.89062,-17.080078 l 9.77539,3.652344 q -5.26367,11.977539 -14.55566,19.980471 z"></path>
</svg>
