<svg xmlns="http://www.w3.org/2000/svg" id="svg1" version="1.1" height="200" width="990">
  <defs id="defs1"></defs>
  <rect id="rect1" stroke="none" fill="none" height="200" width="990" y="0" x="0"></rect>
  <path aria-label="南大東島近海" style="font-size:100px;font-family:'BIZ UDPGothic';fill:#ff0000" id="text1" d="m 53.515625,93.994141 h 37.060547 v 57.324219 q 0,3.90625 -1.611328,5.66406 -1.904297,2.05078 -8.007813,2.05078 -5.761719,0 -11.18164,-0.63476 l -1.708985,-7.42188 q 8.886719,0.92774 12.060547,0.92774 1.855469,0 2.294922,-0.87891 0.244141,-0.53711 0.244141,-1.61133 V 100.39063 H 17.1875 v 59.13085 H 9.2773438 V 93.994141 H 45.800781 V 83.007812 H 2.4902344 V 76.318359 H 45.800781 V 64.501953 h 7.714844 v 11.816406 h 43.945312 v 6.689453 H 53.515625 Z M 45.898437,121.77734 H 23.681641 v -6.20117 h 11.865234 q -2.148438,-5.32226 -5.371094,-10.49804 l 6.738281,-2.5879 q 4.052735,7.12891 6.201172,13.08594 H 56.25 q 3.320312,-6.05469 5.761719,-13.28125 l 7.421875,2.58789 q -2.392578,4.98047 -5.322266,9.96094 l -0.390625,0.73242 h 12.402344 v 6.20117 H 53.417969 v 9.13086 H 78.125 v 6.29883 H 53.417969 v 19.92188 H 45.898437 V 137.20703 H 21.875 V 130.9082 H 45.898437 Z M 155.0293,97.998047 q 4.49218,16.357423 16.65039,31.201173 11.13281,13.52539 25.73242,21.58203 l -5.07813,7.42187 q -16.94336,-10.15625 -28.17382,-25.39062 -8.05664,-10.88867 -13.23243,-25.19531 -8.30078,36.18164 -41.74804,51.07422 l -5.17578,-6.5918 q 19.72656,-8.10547 30.9082,-25.29297 8.78906,-13.57422 10.40039,-28.808593 h -40.42969 v -7.617188 h 40.72266 V 65.478516 h 8.10547 v 24.902343 h 41.40625 v 7.617188 z m 106.29882,28.613283 q 14.01368,12.84179 36.76758,20.50781 l -4.73633,6.98242 q -10.54687,-3.95508 -18.31054,-8.54492 -12.10938,-7.22656 -21.53321,-18.06641 v 32.03125 h -7.71484 v -31.83593 q -5.76172,7.51953 -14.30664,14.20898 -10.88867,8.49609 -24.31641,13.81836 l -4.78515,-6.29883 q 21.97265,-8.00781 35.79101,-22.80273 H 211.57227 V 87.792969 h 34.22851 v -8.007813 h -41.74805 v -6.591797 h 41.74805 v -8.691406 h 7.71484 v 8.691406 h 42.38282 v 6.591797 h -42.38282 v 8.007813 h 34.76563 V 126.61133 Z M 245.80078,94.091797 h -26.41601 v 9.814453 h 26.41601 z m 7.71484,0 v 9.814453 h 27.05079 v -9.814453 z m -7.71484,15.917973 h -26.41601 v 10.30273 h 26.41601 z m 7.71484,0 v 10.30273 h 27.05079 v -10.30273 z m 114.50196,39.20898 h -53.8086 v 5.71289 h -7.71484 v -23.0957 h 7.71484 v 11.18164 h 19.0918 v -14.69727 h -19.0918 V 73.291016 h 23.97461 q 3.36914,-4.931641 5.41993,-9.179688 l 8.6914,2.001953 q -2.39258,3.515625 -5.46875,7.177735 h 35.25391 v 30.517574 h -59.96094 v 6.00586 h 75.3418 v 6.10352 h -75.3418 v 6.29883 h 70.94727 q -0.73243,23.87695 -3.32032,30.71289 -1.5625,4.19922 -5.51757,5.66406 -2.5879,0.92773 -6.83594,0.92773 -6.15235,0 -11.76758,-0.8789 l -1.61133,-7.22656 q 6.73828,1.02539 12.10938,1.02539 4.24804,0 5.37109,-1.95313 2.24609,-3.90625 3.36914,-22.16797 h -43.94531 v 14.69727 h 19.58008 v -11.18164 h 7.51953 z M 322.11914,79.296875 v 6.298828 h 52.09961 v -6.298828 z m 0,12.011719 v 6.689453 h 52.09961 v -6.689453 z m 104.39453,47.021486 q 4.29688,4.44336 9.81445,7.22656 8.59375,4.3457 23.58399,4.3457 h 38.37891 q -1.41602,2.88086 -2.49024,6.88477 H 459.7168 q -16.35743,0 -25.63477,-4.58984 -5.56641,-2.78321 -10.74219,-8.20313 -8.34961,9.57031 -16.25976,15.47852 l -4.58985,-7.08008 q 7.95899,-4.98047 16.40625,-12.5 v -25.6836 h -16.21093 v -6.7871 h 23.82812 z M 440.9668,74.21875 q 1.70898,-0.146484 3.71093,-0.292969 21.92383,-1.80664 39.99024,-7.617187 l 5.61523,6.103515 q -17.91992,5.371094 -41.60156,7.763672 v 14.941406 h 47.41211 v 6.884763 h -17.91992 v 43.40821 h -7.8125 v -43.40821 h -21.67969 q 0,13.52539 -1.17187,22.07032 -1.5625,11.4746 -6.83594,20.21484 l -6.49414,-5.17578 q 4.78515,-8.30078 6.00586,-19.33594 0.78125,-7.27539 0.78125,-20.654296 z m -18.35938,14.697266 q -7.51953,-9.960938 -15.52734,-17.138672 l 5.51758,-4.6875 q 8.20312,6.689453 15.96679,16.308593 z m 115.47852,1.904296 h 49.90234 q 0,2.636719 -0.68359,22.998048 h 10.20508 v 6.5918 h -10.44922 q -0.19532,6.25 -0.87891,17.91992 h 9.7168 v 6.49414 h -10.20508 q -0.63477,7.27539 -1.70899,9.66797 -2.14843,5.02929 -10.49804,5.02929 -4.73633,0 -11.08399,-0.78125 l -1.41601,-6.83593 q 7.32422,1.02539 12.06054,1.02539 2.73438,0 3.61329,-1.22071 0.78125,-1.12304 1.31836,-6.10351 l 0.0488,-0.78125 h -39.01367 l -0.14648,0.78125 -0.14649,0.68359 -0.83008,4.73633 -7.4707,-0.87891 q 2.63672,-14.50195 4.44336,-29.73632 h -9.76562 v -6.5918 h 10.54687 q 1.46484,-12.69531 2.44141,-22.998048 z m 27.58789,6.396485 q -0.19531,3.417973 -0.73242,11.572263 l -0.29297,5.0293 h 15.33203 q 0.0977,-2.09961 0.24414,-5.46875 0.0488,-0.87891 0.19531,-5.56641 0,-1.85547 0.14649,-5.566403 z m -7.12891,0 h -13.81836 q -0.43945,5.957033 -1.51367,16.601563 h 14.0625 q 0.29297,-3.71094 0.43945,-5.56641 0.3418,-3.61328 0.83008,-11.035153 z m -1.80664,23.193363 h -14.25781 q -0.78125,6.64062 -1.95313,14.59961 l -0.48828,3.32031 h 14.79492 l 0.29297,-2.2461 q 1.17188,-9.76562 1.61133,-15.67382 z m 7.32422,0 -0.48828,5.12695 q -0.83008,8.78906 -1.31836,12.79297 h 16.40625 q 0.48828,-6.34766 0.73242,-12.30469 l 0.29297,-5.61523 z M 544.9707,73.779297 h 48.92578 v 6.689453 h -52.00195 q -4.00391,7.958984 -9.91211,14.941406 l -5.37109,-5.224609 q 9.47265,-10.546875 14.01367,-25.78125 l 7.4707,0.78125 q -1.5625,4.833984 -3.125,8.59375 z m -24.75586,12.5 q -6.44531,-8.447266 -14.40429,-15.38086 l 5.27343,-5.078125 q 7.51954,5.810547 14.69727,14.697266 z m -3.51562,25.732423 Q 509.0332,102.68555 501.9043,96.679687 l 5.41992,-5.371093 q 8.39844,6.787109 15.08789,14.794926 z m -12.69531,41.06445 q 8.88671,-12.64648 16.21093,-31.98242 l 6.39649,4.6875 q -7.37305,19.92187 -16.3086,33.00781 z"></path>
</svg>
