<svg xmlns="http://www.w3.org/2000/svg" id="svg1" version="1.1" height="200" width="990">
  <defs id="defs1"></defs>
  <rect id="rect1" stroke="none" fill="none" height="200" width="990" y="0" x="0"></rect>
  <path aria-label="青森県津軽南部" style="font-size:100px;font-family:'BIZ UDPGothic';fill:#ff0000" id="text1" d="m 45.800781,71.582031 v -7.080078 h 7.666016 v 7.080078 h 37.646484 v 5.908203 H 53.466797 v 6.103516 h 32.128906 v 5.810547 H 53.466797 v 6.49414 h 44.042969 v 5.908203 H 2.4902344 V 95.898437 H 45.800781 v -6.49414 H 14.208984 V 83.59375 H 45.800781 V 77.490234 H 8.7890625 v -5.908203 z m 37.304688,36.425779 v 42.8711 q 0,4.39453 -2.050782,6.29882 -2.050781,1.9043 -7.27539,1.9043 -5.615235,0 -14.697266,-0.68359 l -1.464844,-7.12891 q 8.740235,0.92774 14.013672,0.92774 2.490235,0 3.076172,-1.12305 0.390625,-0.73242 0.390625,-2.29492 v -8.78907 H 24.902344 v 19.48243 h -8.007813 v -51.46485 z m -58.203125,5.81055 v 6.98242 h 50.195312 v -6.98242 z m 0,12.89062 v 7.37305 h 50.195312 v -7.37305 z M 158.78906,80.908203 q 14.35547,10.742188 36.81641,18.408203 l -4.6875,6.689454 q -24.1211,-9.277344 -37.40235,-22.216798 v 25.732418 h -7.71484 V 84.619141 q -12.89062,14.30664 -36.71875,22.705079 l -4.49219,-5.9082 q 23.68164,-7.568364 36.81641,-20.507817 h -33.64258 v -6.591797 h 38.03711 v -9.814453 h 7.71484 v 9.814453 h 38.86719 v 6.591797 z m 18.79883,40.771487 q 7.71484,12.98828 20.94727,21.67968 l -4.54102,7.12891 q -11.91406,-9.91211 -18.26172,-21.48437 v 30.46875 h -7.51953 v -29.19922 q -6.54297,12.40234 -17.62695,21.28906 l -4.78516,-5.56641 q 12.93945,-9.96093 20.60547,-24.3164 h -15.33203 v -6.5918 h 17.13867 V 104.6875 h 7.51953 v 10.40039 h 21.77735 v 6.5918 z m -53.66211,7.95898 q -7.32422,13.33008 -17.91992,22.26563 l -4.29688,-6.34766 q 12.74415,-9.47266 20.60547,-23.87695 h -19.82422 v -6.5918 h 21.43555 V 104.6875 h 7.51953 v 10.40039 h 15.86914 v 6.5918 h -15.86914 v 3.56445 q 7.37305,4.44336 16.06446,11.62109 l -4.58985,6.00586 q -5.12695,-5.12695 -11.47461,-10.44922 v 27.05079 h -7.51953 z M 282.86133,67.578125 V 114.4043 H 225.78125 V 67.578125 Z m -49.36524,6.005859 v 7.714844 h 41.55274 v -7.714844 z m 0,13.330078 v 7.763672 h 41.55274 v -7.763672 z m 0,13.476568 v 8.30078 h 41.55274 v -8.30078 z M 214.4043,122.2168 h 83.05664 v 6.49414 h -41.99219 v 30.81054 h -7.91016 V 128.71094 H 206.5918 V 74.267578 h 7.8125 z m -9.22852,29.6875 q 12.79297,-6.15235 23.0957,-19.28711 l 6.5918,3.66211 q -10.40039,13.62304 -24.07226,21.72851 z m 84.17969,4.10156 q -10.25391,-11.18164 -23.29102,-19.82422 l 6.00586,-4.49219 q 11.76758,7.37305 23.68164,18.79883 z m 74.26758,-44.48242 v 8.49609 h 28.07617 v 6.20117 h -28.07617 v 8.59375 h 31.73828 v 6.49414 h -31.73828 v 18.21289 h -7.71485 v -18.21289 h -30.07812 v -6.49414 h 30.07812 v -8.59375 h -25.48828 v -6.20117 h 25.48828 v -8.49609 h -22.31445 v -6.00586 H 355.9082 V 96.191406 H 324.41406 V 89.990234 H 355.9082 V 80.810547 H 333.78906 V 74.707031 H 355.9082 V 64.501953 h 7.71485 v 10.205078 h 24.75586 v 15.283203 h 9.17968 v 6.201172 h -9.17968 v 15.332034 z m 0,-6.00586 h 17.28515 v -9.326174 h -17.28515 z m 0,-15.527346 h 17.28515 v -9.179687 h -17.28515 z m -43.11524,-3.710937 q -7.1289,-9.082031 -14.59961,-15.283203 l 5.51758,-5.175782 q 8.39844,6.689454 14.79492,14.794922 z m -3.61328,25.732423 q -6.68945,-8.54492 -14.89258,-15.429689 l 5.41992,-5.371094 q 7.8125,6.054688 15.28321,14.794923 z m -12.69531,41.06445 q 9.0332,-13.13476 16.60156,-33.39844 l 6.20117,4.63868 q -6.83593,19.53125 -16.21093,34.375 z M 421.77734,90.478516 V 82.373047 H 403.56445 V 75.78125 h 18.21289 V 64.501953 h 6.88477 V 75.78125 h 17.82226 v 6.591797 h -17.82226 v 8.105469 h 15.72266 V 126.2207 h -15.72266 v 8.59375 h 19.14062 v 6.5918 h -19.14062 v 18.11523 h -6.88477 v -18.11523 h -19.48242 v -6.5918 h 19.48242 V 126.2207 H 406.68945 V 90.478516 Z m 0,6.298828 h -8.78906 v 8.300786 h 8.78906 z m 6.88477,0 v 8.300786 h 9.32617 v -8.300786 z m -6.88477,14.111326 h -8.78906 v 9.13086 h 8.78906 z m 6.88477,0 v 9.13086 h 9.32617 v -9.13086 z m 39.55078,13.91602 v -14.30664 h 7.17773 v 14.30664 h 18.50586 v 6.68945 h -18.50586 v 17.82227 h 22.02149 v 6.68945 h -51.51367 v -6.68945 h 22.31445 v -17.82227 h -17.67578 v -6.68945 z m 4.19922,-23.19336 q -9.52149,8.10547 -22.02149,13.57422 l -4.39453,-5.81055 q 12.10938,-4.78516 21.09375,-12.451172 -9.96093,-9.375 -14.89257,-20.849609 h -4.10157 v -6.689453 h 41.01563 l 4.29687,4.003906 q -6.59179,13.574219 -15.91797,23.4375 9.66797,6.982418 20.89844,11.035158 l -3.90625,6.39648 q -12.5,-4.98047 -22.07031,-12.64648 z M 459.17969,76.074219 q 4.54101,8.544922 12.79297,16.259765 7.08007,-7.373047 11.71875,-16.259765 z m 94.33593,17.919922 h 37.06055 v 57.324219 q 0,3.90625 -1.61133,5.66406 -1.90429,2.05078 -8.00781,2.05078 -5.76172,0 -11.18164,-0.63476 l -1.70898,-7.42188 q 8.88671,0.92774 12.06054,0.92774 1.85547,0 2.29492,-0.87891 0.24415,-0.53711 0.24415,-1.61133 V 100.39063 H 517.1875 v 59.13085 h -7.91016 V 93.994141 h 36.52344 V 83.007812 h -43.31055 v -6.689453 h 43.31055 V 64.501953 h 7.71484 v 11.816406 h 43.94532 v 6.689453 h -43.94532 z m -7.61718,27.783199 h -22.2168 v -6.20117 h 11.86523 q -2.14843,-5.32226 -5.37109,-10.49804 l 6.73828,-2.5879 q 4.05274,7.12891 6.20117,13.08594 H 556.25 q 3.32031,-6.05469 5.76172,-13.28125 l 7.42187,2.58789 q -2.39257,4.98047 -5.32226,9.96094 l -0.39063,0.73242 h 12.40235 v 6.20117 h -22.70508 v 9.13086 H 578.125 v 6.29883 h -24.70703 v 19.92188 h -7.51953 V 137.20703 H 521.875 v -6.29883 h 24.02344 z m 88.08593,-45.166012 h 21.82618 v 6.787109 h -7.03125 q -2.05078,9.13086 -5.61524,18.701173 h 14.45313 v 6.88477 h -55.12696 v -6.88477 h 13.72071 l -0.0977,-0.48828 Q 614.0625,91.601562 611.71875,84.423828 l -0.3418,-1.025391 h -7.08008 v -6.787109 h 22.2168 V 64.501953 h 7.4707 z m -15.13671,6.787109 q 2.58789,7.958985 4.73632,18.701173 h 12.15821 q 2.92968,-8.105469 5.32226,-18.701173 z m 31.83593,35.888673 v 39.30664 h -7.32422 v -5.51758 h -25.97656 v 6.39649 h -7.56836 v -40.18555 z m -33.30078,6.68945 v 20.3125 h 25.97656 v -20.3125 z m 65.42969,-22.70508 q 12.8418,13.57422 12.8418,29.44336 0,5.56641 -2.00196,8.39844 -2.4414,3.27149 -8.49609,3.27149 -5.81055,0 -10.69336,-0.6836 l -1.61133,-7.61719 q 6.25,1.02539 10.15625,1.02539 3.71094,0 4.39453,-2.49023 0.29297,-1.07422 0.29297,-3.51562 0,-13.72071 -12.64648,-26.70899 5.85937,-12.695311 9.52148,-26.708983 h -15.42969 v 81.787113 h -7.37304 V 70.507812 h 27.49023 l 4.39453,3.808594 q -5.37109,17.382813 -10.83984,28.955074 z"></path>
</svg>
