<svg xmlns="http://www.w3.org/2000/svg" id="svg1" version="1.1" height="200" width="1096">
  <defs id="defs1"></defs>
  <rect id="rect1" stroke="none" fill="none" height="200" width="1096" y="0" x="0"></rect>
  <path aria-label="サハリン南部付近" style="font-weight:bold;font-size:110px;font-family:'BIZ UDPGothic';fill:#ff0000" id="text1" d="M 69.448242,59.335937 H 81.533203 V 81.035156 H 103.07129 V 92.045898 H 81.533203 v 3.383789 q 0,27.392583 -7.841797,41.142583 -7.573242,13.21289 -26.694336,20.24902 l -7.519531,-9.56055 q 18.691406,-6.44531 25.029297,-19.87304 4.941406,-10.36622 4.941406,-31.79688 V 92.045898 H 36.845703 V 122.82227 H 24.760742 V 92.045898 H 4.7265625 V 81.035156 H 24.760742 V 60.141602 h 12.084961 v 20.893554 h 32.602539 z m 42.324218,84.702153 q 9.3457,-13.75 16.05957,-33.67676 7.30469,-21.806643 9.23828,-44.311525 l 12.29981,2.524414 q -4.78028,32.978511 -12.83692,55.429691 -5.80078,16.32812 -14.28711,28.62793 z m 87.76367,9.13086 q -9.72168,-16.167 -17.6709,-38.94043 -7.57324,-21.591801 -12.35351,-45.761723 l 11.54785,-3.598633 q 9.23828,46.459966 29.16504,80.190426 z m 28.14453,-92.705083 h 12.51465 v 58.759763 h -12.51465 z m 55.16114,-1.12793 h 12.51465 v 38.403321 q 0,20.249022 -3.27637,30.131832 -2.73926,8.43262 -7.46582,13.42774 -9.8291,10.58105 -31.58203,15.62988 l -6.17676,-11.01074 q 23.79394,-4.83399 30.50781,-16.05957 4.24317,-7.14356 5.10254,-18.04688 0.37598,-5.04882 0.37598,-13.96484 z m 72.08007,28.842774 Q 337.94922,80.605469 319.63379,76.040039 l 3.75976,-11.547852 q 21.21582,4.833985 35.61036,12.03125 z m -33.94531,53.442379 q 26.58692,-2.25586 40.71289,-9.50683 16.65039,-8.59375 25.56641,-26.37207 5.80078,-11.494143 9.39941,-30.078128 l 10.3125,7.573243 q -4.35058,19.873045 -10.52734,31.582035 -11.17188,21.32324 -34.16016,30.88378 -14.50195,6.01563 -38.77929,8.59375 z M 461.53809,120.5127 h -22.23633 v -8.8086 h 10.74219 q -2.417,-5.47851 -5.47852,-10.20508 l 9.66797,-3.544918 q 4.18945,7.036128 6.76758,13.749998 h 12.62207 q 3.16894,-6.49902 5.58593,-13.964842 l 10.7959,3.383792 q -2.73926,5.9082 -5.80078,10.58105 h 11.54785 v 8.8086 h -22.98828 v 7.84179 h 24.49219 v 9.13086 h -24.49219 v 20.30274 h -11.22558 v -20.30274 h -23.57911 v -9.13086 h 23.57911 z m 11.54785,-33.085942 h 40.71289 v 62.788082 q 0,5.53223 -2.9541,7.78809 -2.47071,1.93359 -8.3252,1.93359 -7.57324,0 -14.60937,-0.80566 l -2.63184,-10.7959 q 9.39941,1.12793 14.07227,1.12793 1.93359,0 2.25586,-0.9668 0.21484,-0.59082 0.21484,-1.66504 V 96.772461 H 433.17871 V 160.47363 H 421.20117 V 87.426758 h 40.01465 v -9.72168 h -45.97656 v -9.990234 h 45.97656 V 55.952148 h 11.87012 v 11.762696 h 46.62109 v 9.990234 h -46.62109 z m 87.81738,-19.067383 h 22.98828 v 10.366211 h -7.57324 q -2.04102,8.217773 -5.47852,17.241211 h 14.34082 v 10.366213 h -59.9414 V 95.966797 h 13.15918 Q 536.25,85.654297 533.88672,78.725586 H 526.9043 V 68.359375 h 22.77343 V 55.952148 h 11.22559 z m -16.16699,10.366211 q 2.73926,8.00293 4.24316,17.241211 h 10.95703 l 0.53711,-1.503906 q 2.30957,-6.123047 4.29688,-13.911133 l 0.4834,-1.826172 z m 33.30078,36.630864 v 43.98925 h -11.01074 v -5.26367 H 543.6084 v 6.3916 h -11.33301 v -45.11718 z m -34.42871,9.88281 v 18.63769 h 23.41797 v -18.63769 z m 71.75781,-27.124026 q 6.3916,6.069336 10.15137,14.448246 3.70605,8.3789 3.70605,16.97265 0,7.94922 -2.9541,11.70899 -3.06152,3.9209 -10.09766,3.9209 -6.01562,0 -11.65527,-0.85938 l -2.63183,-11.44043 q 6.49902,1.18164 10.74218,1.18164 3.22266,0 4.02832,-1.5039 0.53711,-1.07422 0.53711,-4.29688 0,-13.2666 -7.94922,-22.88086 -2.09472,-2.52441 -5.26367,-5.424804 l 0.64453,-1.503906 q 5.58594,-12.62207 8.70118,-26.318359 h -13.75 V 160.47363 H 588.45703 V 61.000977 h 32.33399 l 5.96191,5.478515 q -5.42481,18.476563 -11.38672,31.635742 z M 662.41699,85.976562 V 160.47363 H 650.76172 V 105.3125 q -4.35059,6.12305 -10.09766,12.67578 l -6.06933,-11.54785 q 10.90332,-12.084961 18.6914,-28.144532 4.72657,-9.721679 9.45313,-23.203125 l 11.22558,3.061524 q -4.88769,14.716797 -11.54785,27.822265 z M 723.59375,81.25 h 16.16699 v 10.795898 h -16.16699 v 56.396482 q 0,7.08985 -3.4375,9.45313 -2.52441,1.77246 -9.50684,1.77246 -8.54004,0 -17.50976,-0.9668 l -2.30957,-11.76269 q 9.56054,1.39648 17.83203,1.39648 2.25586,0 2.73926,-0.9668 0.32226,-0.69824 0.32226,-2.30957 V 92.045898 H 667.78809 V 81.25 h 43.93554 V 57.832031 h 11.87012 z m -33.99902,52.0459 q -6.06934,-16.16699 -14.98536,-29.48731 l 10.25879,-5.96191 q 9.66797,14.2334 15.52246,29.16504 z m 83.25195,2.73926 q 4.29687,4.99511 9.66797,7.41211 8.80859,3.9746 23.0957,3.9746 h 45.76172 q -1.93359,3.65235 -3.59863,10.47364 h -42.7002 q -18.47656,0 -28.30566,-5.80078 -4.02832,-2.417 -8.86231,-7.89551 -0.37597,0.42969 -0.91308,1.07422 -7.89551,9.3457 -15.6836,15.2539 l -6.49902,-11.01074 q 8.54004,-5.10254 16.48926,-11.54785 v -26.5332 h -15.62988 v -10.58106 h 27.17773 z m 13.96484,-71.274418 2.84668,-0.214844 q 24.86817,-1.71875 44.6875,-7.358398 l 8.37891,9.453125 q -20.83984,5.478516 -44.47266,7.412109 v 13.911133 h 49.73633 V 98.4375 h -18.04687 v 43.77441 H 818.07129 V 98.4375 h -19.81934 q -0.26855,17.24121 -2.57812,27.44629 -2.09473,9.39941 -6.875,16.86523 l -9.88281,-7.46582 q 5.31738,-8.27148 6.82128,-20.51757 1.07422,-8.43262 1.07422,-22.934575 z M 766.93848,85.761719 Q 758.7207,74.160156 749.21387,64.975586 l 8.80859,-7.036133 q 9.23828,7.734375 18.58399,19.658203 z"></path>
</svg>
