<svg xmlns="http://www.w3.org/2000/svg" id="svg1" version="1.1" height="200" width="990">
  <defs id="defs1"></defs>
  <rect id="rect1" stroke="none" fill="none" height="200" width="990" y="0" x="0"></rect>
  <path aria-label="紀伊水道" style="font-size:100px;font-family:'BIZ UDPGothic';fill:#ff0000" id="text1" d="M 18.457031,101.2207 Q 11.865234,92.382812 3.5644531,84.521484 l 4.8339844,-5.224609 q 2.2460935,2.246094 3.3203125,3.320312 l 0.634766,-0.78125 q 6.152343,-7.714843 11.71875,-17.333984 l 6.640625,3.90625 q -6.738282,10.15625 -14.648438,18.945313 4.150391,4.785156 6.982422,8.642578 7.470703,-8.642578 15.039062,-19.28711 l 5.908204,4.394532 q -12.109375,16.162109 -25.097657,28.564454 12.597657,-0.83008 20.410157,-1.75781 -1.660157,-4.39453 -3.515625,-8.105473 l 6.005859,-2.490234 q 4.150391,7.958987 7.8125,19.970707 l -6.298828,3.32031 q -0.878906,-3.4668 -2.050781,-7.17774 -8.154297,1.26954 -11.376954,1.61133 v 44.48242 h -7.27539 v -43.60351 l -1.806641,0.19531 Q 12.5,116.94336 4.3945312,117.38281 l -1.6113281,-7.08008 q 2.6367188,-0.0488 5.6152344,-0.19531 l 1.5625,-0.0488 q 5.0781255,-4.93164 8.4960935,-8.83789 z m 41.503906,9.08203 v 34.17969 q 0,3.8086 2.392579,4.58985 2.050781,0.63476 9.667968,0.63476 11.523438,0 14.013672,-1.2207 1.806641,-0.87891 2.392578,-4.39453 0.732422,-4.58985 1.025391,-13.08594 l 7.8125,2.68555 q -1.025391,15.57617 -2.978516,18.70117 -1.757812,2.88086 -6.347656,3.80859 -4.785156,0.97656 -15.283203,0.97656 -13.574219,0 -16.748047,-1.80664 -3.710937,-2.05078 -3.710937,-8.34961 V 103.51563 H 84.033203 V 77.685547 H 50.292969 V 70.800781 H 91.650391 V 110.30273 Z M 3.9550781,148.38867 q 4.1015625,-11.08398 5.5175782,-25.58594 l 7.0800777,0.78125 q -1.464843,17.13868 -5.615234,28.22266 z m 36.2792969,-2.29492 q -2.294922,-12.40234 -5.566406,-22.41211 l 6.298828,-2.19726 q 3.808594,9.9121 6.298828,21.63085 z M 188.42773,92.675781 h 9.17969 v 6.591797 h -9.17969 v 22.998052 h -25.09765 q -0.73242,11.62109 -4.49219,19.09179 -6.10352,12.06055 -18.70117,18.60352 l -5.61524,-5.71289 q 11.6211,-5.95703 16.74805,-15.52735 3.27149,-6.05468 4.29688,-16.45507 h -22.46094 v -6.68946 h 22.70508 V 99.267578 H 126.2207 v -6.591797 h 29.58985 V 77.001953 h -21.19141 v -6.787109 h 53.80859 z m -7.61718,0 V 77.001953 h -17.28516 v 15.673828 z m 0,6.591797 h -17.28516 v 16.308592 h 17.28516 z M 122.60742,88.427734 v 71.093746 h -7.71484 V 104.6875 q -3.95508,7.12891 -9.375,14.4043 l -4.00391,-7.27539 q 8.98438,-12.011723 14.7461,-27.197269 3.27148,-8.544922 6.54296,-20.605469 l 7.51954,1.904297 q -3.8086,12.988281 -7.71485,22.509765 z m 131.88477,-6.640625 q 2.19726,10.644532 7.17773,20.849611 0.43945,-0.29297 1.02539,-0.78125 12.15821,-9.570314 23.48633,-22.460939 l 6.39648,5.419922 q -13.47656,14.013672 -27.58789,23.779297 11.91407,19.28711 33.39844,32.32422 l -5.07812,6.88476 Q 266.94336,131.73828 254.49219,101.9043 v 49.3164 q 0,4.15039 -2.34375,5.85938 -2.14844,1.61133 -7.47071,1.61133 -6.88476,0 -13.3789,-0.6836 l -1.61133,-8.10547 q 9.08203,1.07422 13.86719,1.07422 2.09961,0 2.68554,-0.83008 0.43946,-0.68359 0.43946,-2.14843 V 64.501953 h 7.8125 z m -49.26758,7.421875 h 31.98242 l 4.39453,3.90625 q -2.83203,14.892576 -7.95898,25.488286 -8.25196,17.04101 -26.12305,31.29882 l -5.51758,-6.20117 Q 226.5625,125.97656 232.91016,96.289062 H 205.22461 Z M 324.90234,138.7207 q 5.0293,5.17578 11.47461,7.76367 Q 345.06836,150 359.08203,150 h 39.30664 q -1.31836,2.97852 -2.39258,7.08008 h -37.98828 q -15.67383,0 -24.85351,-4.29688 -6.00586,-2.83203 -10.98633,-7.91015 -7.03125,8.30078 -15.57617,14.69726 l -4.39453,-7.08008 q 7.22656,-4.39453 15.08789,-11.42578 v -26.85547 h -14.79493 v -6.7871 h 22.41211 z m 33.64258,-55.224606 h -28.125 v -6.298828 h 17.72461 q -2.73437,-4.931641 -6.44531,-9.619141 l 7.03125,-2.685547 q 4.39453,6.396484 7.1289,12.304688 h 12.98829 q 2.88086,-5.126954 5.51757,-12.5 l 7.91016,2.001953 q -2.58789,5.664062 -5.66406,10.498047 h 18.65234 v 6.298828 h -28.90625 q -1.02539,3.613281 -3.07617,8.300781 h 25.09766 V 142.82227 H 337.5 V 91.796875 h 18.35937 q 1.70899,-4.541016 2.68555,-8.300781 z m -13.62305,14.013672 v 9.179684 h 35.9375 v -9.179684 z m 0,14.599614 v 9.08203 h 35.9375 v -9.08203 z m 0,14.79492 v 10.00976 h 35.9375 V 126.9043 Z m -24.3164,-38.085941 q -7.22656,-10.15625 -14.59961,-17.041015 l 5.46875,-4.589844 q 8.74023,7.714844 15.03906,16.308594 z"></path>
</svg>
