<svg xmlns="http://www.w3.org/2000/svg" id="svg1" version="1.1" height="200" width="990">
  <defs id="defs1"></defs>
  <rect id="rect1" stroke="none" fill="none" height="200" width="990" y="0" x="0"></rect>
  <path aria-label="浦河沖" style="font-size:100px;font-family:'BIZ UDPGothic';fill:#ff0000" id="text1" d="M 56.689453,94.091797 V 84.863281 H 26.416016 V 78.076172 H 56.689453 V 64.453125 h 7.324219 v 13.623047 h 33.496094 v 6.787109 H 64.013672 v 9.228516 H 91.40625 v 57.910153 q 0,4.15039 -2.294922,5.66407 -1.855469,1.2207 -6.201172,1.2207 -4.248047,0 -9.326172,-0.58594 l -1.367187,-7.17773 q 5.46875,0.78125 9.277344,0.78125 2.001953,0 2.441406,-1.26953 0.146484,-0.48829 0.146484,-1.31836 V 134.27734 H 64.013672 v 22.70508 H 56.689453 V 134.27734 H 38.525391 v 25.24414 H 31.201172 V 94.091797 Z m 0,6.298833 H 38.525391 v 10.30273 h 18.164062 z m 7.324219,0 v 10.30273 h 20.068359 v -10.30273 z m -7.324219,16.40625 H 38.525391 v 11.37695 h 18.164062 z m 7.324219,0 v 11.37695 H 84.082031 V 116.79688 Z M 19.189453,86.181641 Q 12.646484,77.441406 5.0292969,70.800781 l 5.4687501,-5.224609 q 8.203125,7.128906 14.30664,14.84375 z M 16.210937,111.71875 Q 8.7890625,102.44141 1.8066406,96.289062 L 7.1289062,90.917969 Q 15.087891,97.558594 21.923828,105.9082 Z M 3.7109375,153.32031 Q 12.353516,140.03906 19.091797,119.92188 l 6.591797,4.29687 q -6.298828,19.77539 -15.283203,34.57031 z M 84.521484,77.783203 Q 78.710937,72.412109 72.314453,68.115234 l 5.615234,-3.710937 q 6.054688,3.808594 12.158204,9.277344 z M 187.10937,78.662109 V 150 q 0,4.3457 -2.0996,6.39648 -2.19727,2.09961 -7.76368,2.09961 -8.10547,0 -14.9414,-0.58593 l -1.9043,-7.71485 q 8.59375,1.02539 15.38086,1.02539 2.83203,0 3.36914,-1.26953 0.3418,-0.78125 0.3418,-2.34375 V 78.662109 h -53.17383 v -6.982422 h 71.48437 v 6.982422 z m -18.89648,14.746094 v 37.792967 h -25.53711 v 7.91016 h -7.17773 V 93.408203 Z m -25.53711,6.494141 v 24.804686 h 18.45703 V 99.902344 Z m -21.875,-12.988282 q -8.10547,-9.423828 -15.38086,-15.429687 l 5.3711,-5.273438 q 7.91015,6.201172 15.42968,14.892579 z m -3.32031,25.488278 q -8.1543,-9.17968 -15.47852,-15.185543 l 5.32227,-5.517578 q 7.91016,6.005859 15.77148,14.892581 z m -13.28125,40.38086 q 9.66797,-12.79297 18.31055,-33.39843 l 6.20117,4.73632 q -7.51953,19.67774 -18.11524,34.47266 z M 258.69141,85.302734 V 64.501953 h 7.71484 v 20.800781 h 27.7832 v 40.478516 h -27.7832 v 33.69141 h -7.71484 v -33.69141 h -26.9043 V 85.302734 Z m -19.38477,6.982422 v 26.513674 h 19.38477 V 92.285156 Z m 47.26563,26.513674 V 92.285156 H 266.40625 V 118.79883 Z M 221.77734,86.621094 q -6.54297,-8.34961 -15.2832,-15.527344 l 5.32227,-5.273438 q 8.30078,6.201172 15.67382,14.990235 z m -3.66211,25.488286 q -7.66601,-8.8379 -15.91796,-15.527349 l 5.41992,-5.46875 q 8.39843,6.201172 16.16211,14.990239 z m -13.7207,40.57617 q 9.52149,-12.69532 17.48047,-32.86133 l 6.29883,5.07812 q -7.32422,19.14063 -17.08985,33.69141 z"></path>
</svg>
