<svg xmlns="http://www.w3.org/2000/svg" id="svg1" version="1.1" height="200" width="990">
  <defs id="defs1"></defs>
  <rect id="rect1" stroke="none" fill="none" height="200" width="990" y="0" x="0"></rect>
  <path aria-label="房総半島南方沖" style="font-size:100px;font-family:'BIZ UDPGothic';fill:#ff0000" id="text1" d="m 52.978516,120.26367 q -0.09766,4.15039 -0.488282,7.32422 h 36.181641 q -1.367188,19.04297 -3.515625,24.70703 -1.513672,4.05274 -4.345703,5.56641 -2.490235,1.31836 -7.128906,1.31836 -6.347657,0 -15.478516,-0.78125 l -1.513672,-7.32422 q 10.302734,1.2207 15.234375,1.2207 3.857422,0 4.980469,-1.95312 2.246094,-3.8086 3.222656,-16.35743 H 51.318359 q -2.34375,8.64258 -7.763672,14.0625 -6.25,6.20118 -19.091796,10.9375 l -5.078125,-5.81054 q 14.794921,-4.54102 20.703125,-13.08594 5.029296,-7.32422 5.371093,-19.82422 H 19.189453 l -0.146484,2.44141 q -0.732422,13.13476 -2.832032,20.94726 -2.197265,8.10547 -7.226562,15.13672 L 2.9785156,153.4668 q 3.7109375,-5.66407 5.3222657,-11.23047 3.2714847,-10.88867 3.2714847,-37.06055 V 82.910156 H 89.355469 V 104.00391 H 56.396484 v 9.47265 h 40.966797 v 6.78711 z M 81.542969,89.111328 H 19.482422 v 8.496094 H 81.542969 Z M 48.876953,104.00391 H 19.482422 v 1.31836 q 0,3.56445 -0.09766,8.15429 H 48.876953 Z M 4.1015625,68.212891 H 94.873047 v 6.591796 H 4.1015625 Z m 112.8906275,32.714839 -0.53711,-0.73242 q -5.56641,-7.861326 -13.1836,-15.380857 l 4.39454,-5.517578 q 1.12304,1.123047 2.4414,2.490234 l 0.39063,0.439453 q 5.5664,-7.910156 10.20508,-17.724609 l 6.68945,3.613281 q -6.29883,10.986328 -12.69531,18.798828 4.05273,4.833985 6.59179,8.496094 7.22656,-9.61914 12.40235,-17.919922 l 5.9082,4.199219 q -11.18164,16.210938 -22.26563,27.978517 6.39649,-0.39063 16.50391,-1.41602 -1.70898,-4.19922 -3.51562,-7.66601 l 5.27343,-2.685549 q 4.39453,7.763669 8.10547,19.287109 l -5.81055,2.92969 q -1.02539,-3.4668 -2.00195,-6.34766 l -2.63672,0.39063 -3.22265,0.48828 -3.22266,0.43945 v 44.43359 h -7.32422 v -43.65234 l -1.26953,0.14649 q -6.49414,0.63476 -13.81836,1.17187 l -1.80664,-6.88477 q 3.07617,-0.0977 5.61524,-0.19531 l 1.07421,-0.0488 q 4.19922,-4.63867 7.27539,-8.59375 0.24415,-0.29296 0.43946,-0.53711 z m 34.61914,6.88477 q 0.19531,-0.3418 0.8789,-1.41602 6.54297,-10.986324 10.98633,-23.193355 l 7.32422,2.099609 q -5.85937,13.525391 -11.37695,22.119146 l 2.24609,-0.0977 q 5.46875,-0.29297 19.48242,-1.36719 -3.36914,-5.0293 -7.27539,-9.765624 l 5.61524,-3.515625 q 8.30078,9.374999 14.89258,21.044919 l -6.29883,4.19922 q -1.80664,-3.56445 -3.51563,-6.49414 -12.20703,2.09961 -37.89062,3.95508 l -2.29492,-7.27539 q 4.05273,-0.19531 6.10351,-0.24414 0.48828,-0.0488 1.12305,-0.0488 z m -48.4375,40.47852 q 3.71094,-10.25391 5.0293,-25.6836 l 6.68945,0.97656 q -1.07422,16.74805 -4.98047,28.32032 z m 31.59179,-5.17579 q -1.95312,-11.32812 -4.58984,-19.33593 l 5.9082,-2.19727 q 2.78321,7.76367 4.88282,18.60352 z m 5.81055,-51.318355 q 9.91211,-9.863281 15.08789,-26.416016 l 6.73828,2.734375 q -5.9082,18.164063 -16.69922,29.101563 z m 52.58789,4.882812 Q 180.17578,84.082031 172.60742,68.017578 l 5.85938,-3.125 q 7.51953,15.087891 19.72656,25.927734 z m -35.9375,29.003903 h 7.17774 v 22.11914 q 0,2.44141 1.41601,2.92969 1.07422,0.39063 4.73633,0.39063 5.71289,0 6.5918,-1.36719 0.8789,-1.41602 1.26953,-11.37695 l 6.78711,2.53906 q -0.43946,11.37695 -2.19727,14.01367 -1.5625,2.34375 -4.93164,2.88086 -3.02734,0.43945 -8.54492,0.43945 -6.44531,0 -8.78906,-0.97656 -3.51563,-1.46484 -3.51563,-6.49414 z m -16.94336,24.80469 q 3.90625,-9.08203 5.22461,-22.99805 l 6.5918,1.22071 q -1.51367,16.30859 -5.41992,25.78125 z m 51.51367,1.31836 q -4.29687,-13.91602 -9.9121,-23.0957 l 6.29882,-3.22266 q 6.00586,9.66797 10.20508,22.41211 z m -17.28515,-18.21289 q -5.61524,-7.61719 -13.42774,-14.20898 l 5.22461,-4.39454 q 7.71485,6.34766 13.76953,13.52539 z m 71.1914,-33.691406 V 64.501953 h 7.91016 v 35.400391 h 37.98828 v 7.080076 h -37.98828 v 15.625 h 43.89649 v 7.17774 h -43.89649 v 29.6875 h -7.91016 v -29.6875 h -43.21289 v -7.17774 h 43.21289 v -15.625 h -37.30468 v -7.080076 z m -20.8496,-3.710938 Q 218.75,82.763672 211.66992,73.095703 l 7.32422,-3.710937 q 8.10547,11.71875 13.47656,22.90039 z m 41.8457,-3.173828 q 7.66601,-11.474609 12.79297,-24.707031 l 8.10547,3.076172 q -5.81055,13.134765 -13.81836,24.902343 z m 101.31836,56.201172 h -53.8086 v 5.71289 h -7.71484 v -23.0957 h 7.71484 v 11.18164 h 19.0918 v -14.69727 h -19.0918 V 73.291016 h 23.97461 q 3.36914,-4.931641 5.41993,-9.179688 l 8.6914,2.001953 q -2.39258,3.515625 -5.46875,7.177735 h 35.25391 v 30.517574 h -59.96094 v 6.00586 h 75.3418 v 6.10352 h -75.3418 v 6.29883 h 70.94727 q -0.73243,23.87695 -3.32032,30.71289 -1.5625,4.19922 -5.51757,5.66406 -2.5879,0.92773 -6.83594,0.92773 -6.15235,0 -11.76758,-0.8789 l -1.61133,-7.22656 q 6.73828,1.02539 12.10938,1.02539 4.24804,0 5.37109,-1.95313 2.24609,-3.90625 3.36914,-22.16797 h -43.94531 v 14.69727 h 19.58008 v -11.18164 h 7.51953 z M 322.11914,79.296875 v 6.298828 h 52.09961 v -6.298828 z m 0,12.011719 v 6.689453 h 52.09961 v -6.689453 z m 131.39648,2.685547 h 37.06055 v 57.324219 q 0,3.90625 -1.61133,5.66406 -1.90429,2.05078 -8.00781,2.05078 -5.76172,0 -11.18164,-0.63476 l -1.70898,-7.42188 q 8.88671,0.92774 12.06054,0.92774 1.85547,0 2.29492,-0.87891 0.24415,-0.53711 0.24415,-1.61133 V 100.39063 H 417.1875 v 59.13085 h -7.91016 V 93.994141 h 36.52344 V 83.007812 h -43.31055 v -6.689453 h 43.31055 V 64.501953 h 7.71484 v 11.816406 h 43.94532 v 6.689453 h -43.94532 z m -7.61718,27.783199 h -22.2168 v -6.20117 h 11.86523 q -2.14843,-5.32226 -5.37109,-10.49804 l 6.73828,-2.5879 q 4.05274,7.12891 6.20117,13.08594 H 456.25 q 3.32031,-6.05469 5.76172,-13.28125 l 7.42187,2.58789 q -2.39257,4.98047 -5.32226,9.96094 l -0.39063,0.73242 h 12.40235 v 6.20117 h -22.70508 v 9.13086 H 478.125 v 6.29883 h -24.70703 v 19.92188 h -7.51953 V 137.20703 H 421.875 v -6.29883 h 24.02344 z m 99.56054,-32.812496 q 0,7.324218 -0.92773,17.041016 h 39.4043 q -0.6836,32.91016 -3.75977,43.60351 -1.26953,4.49219 -4.83398,6.34766 -3.02735,1.5625 -9.08203,1.5625 -8.39844,0 -15.33204,-0.92773 l -1.31836,-8.00782 q 10.15625,1.31836 16.3086,1.31836 4.05273,0 5.32226,-1.70898 1.07422,-1.46484 2.14844,-8.49609 1.5625,-9.96094 2.14844,-26.70899 h -31.93359 q -1.80665,11.37695 -5.76172,19.28711 -7.91016,15.91797 -26.02539,25.73242 l -5.61524,-6.29883 q 19.38477,-10.15625 25.58594,-26.36718 5.17578,-13.57422 5.56641,-36.376956 h -33.54493 v -7.177735 h 41.69922 V 64.501953 h 8.00781 v 17.285156 h 42.67579 v 7.177735 z m 113.23243,-3.66211 V 64.501953 h 7.71484 v 20.800781 h 27.7832 v 40.478516 h -27.7832 v 33.69141 h -7.71484 v -33.69141 h -26.9043 V 85.302734 Z m -19.38477,6.982422 v 26.513674 h 19.38477 V 92.285156 Z m 47.26563,26.513674 V 92.285156 H 666.40625 V 118.79883 Z M 621.77734,86.621094 q -6.54297,-8.34961 -15.2832,-15.527344 l 5.32227,-5.273438 q 8.30078,6.201172 15.67382,14.990235 z m -3.66211,25.488286 q -7.66601,-8.8379 -15.91796,-15.527349 l 5.41992,-5.46875 q 8.39843,6.201172 16.16211,14.990239 z m -13.7207,40.57617 q 9.52149,-12.69532 17.48047,-32.86133 l 6.29883,5.07812 q -7.32422,19.14063 -17.08985,33.69141 z"></path>
</svg>
