<svg xmlns="http://www.w3.org/2000/svg" id="svg1" version="1.1" height="200" width="990">
  <defs id="defs1"></defs>
  <rect id="rect1" stroke="none" fill="none" height="200" width="990" y="0" x="0"></rect>
  <path aria-label="鳥取県沖" style="font-size:100px;font-family:'BIZ UDPGothic';fill:#ff0000" id="text1" d="m 39.355469,73.681641 q 2.246093,-4.541016 3.857422,-9.619141 l 8.398437,1.416016 q -1.953125,4.492187 -3.955078,8.203125 H 82.080078 V 103.51563 H 22.119141 v 5.5664 h 75.341796 v 6.00586 H 22.119141 v 5.9082 h 70.947265 q -0.488281,22.85157 -2.832031,30.66407 -1.416016,4.63867 -5.078125,6.49414 -2.734375,1.36718 -7.8125,1.36718 -6.005859,0 -11.669922,-0.92773 l -1.464844,-7.17773 q 6.396485,0.97656 11.865235,0.97656 4.345703,0 5.46875,-2.00196 2.34375,-4.29687 3.36914,-23.38867 H 14.208984 V 73.681641 Z m -17.236328,5.908203 v 6.103515 h 52.050781 v -6.103515 z m 0,11.71875 v 6.298828 H 74.169922 V 91.308594 Z M 2.1972656,152.09961 q 7.2753907,-9.0332 10.5957034,-21.09375 l 7.080078,2.29492 Q 17.041016,146.28906 9.2773438,156.78711 Z M 29.6875,154.98047 q -0.878906,-11.66992 -2.783203,-21.19141 l 6.982422,-1.26953 q 2.636718,9.7168 4.003906,20.45899 z m 20.605469,-2.49024 Q 47.558594,140.9668 43.798828,133.10547 l 6.591797,-2.19727 q 4.492187,8.4961 7.226562,18.60352 z m 20.214843,-5.37109 q -3.808593,-7.95898 -9.814453,-15.03906 l 5.908203,-3.17383 q 5.810547,6.29883 10.205079,14.20898 z M 151.9043,76.123047 h 38.67187 l 4.29688,4.15039 q -2.63672,17.578125 -6.39649,28.613283 -3.17383,9.42383 -8.78906,19.14062 7.86133,12.10938 18.79883,22.65625 l -4.6875,7.12891 q -9.96094,-9.42383 -18.60352,-22.75391 -10.54687,15.28321 -22.70508,23.53516 l -5.07812,-6.00586 q 13.57422,-8.98437 23.58398,-24.56055 -11.27929,-20.94726 -14.30664,-44.824215 h -5.81054 v -7.03125 h -5.85938 v 83.349605 h -7.42187 v -21.58203 q -13.91602,4.00391 -32.32422,7.27539 L 102.7832,137.5 q 5.56641,-0.73242 9.7168,-1.41602 V 76.171875 h -8.10547 v -6.884766 h 47.50977 z m -14.30664,0.04883 h -17.91993 v 13.916016 h 17.91993 z m 0,20.3125 h -17.91993 v 13.916015 h 17.91993 z m 0,20.019535 h -17.91993 v 18.35937 l 0.43946,-0.0977 q 9.66797,-1.70898 17.48047,-3.41796 z m 25.8789,-33.300785 q 3.02735,21.484375 11.86524,37.548825 8.39843,-16.16211 11.66992,-37.548825 z m 119.38477,-15.625 V 114.4043 H 225.78125 V 67.578125 Z m -49.36524,6.005859 v 7.714844 h 41.55274 v -7.714844 z m 0,13.330078 v 7.763672 h 41.55274 v -7.763672 z m 0,13.476568 v 8.30078 h 41.55274 v -8.30078 z M 214.4043,122.2168 h 83.05664 v 6.49414 h -41.99219 v 30.81054 h -7.91016 V 128.71094 H 206.5918 V 74.267578 h 7.8125 z m -9.22852,29.6875 q 12.79297,-6.15235 23.0957,-19.28711 l 6.5918,3.66211 q -10.40039,13.62304 -24.07226,21.72851 z m 84.17969,4.10156 q -10.25391,-11.18164 -23.29102,-19.82422 l 6.00586,-4.49219 q 11.76758,7.37305 23.68164,18.79883 z M 358.69141,85.302734 V 64.501953 h 7.71484 v 20.800781 h 27.7832 v 40.478516 h -27.7832 v 33.69141 h -7.71484 v -33.69141 h -26.9043 V 85.302734 Z m -19.38477,6.982422 v 26.513674 h 19.38477 V 92.285156 Z m 47.26563,26.513674 V 92.285156 H 366.40625 V 118.79883 Z M 321.77734,86.621094 q -6.54297,-8.34961 -15.2832,-15.527344 l 5.32227,-5.273438 q 8.30078,6.201172 15.67382,14.990235 z m -3.66211,25.488286 q -7.66601,-8.8379 -15.91796,-15.527349 l 5.41992,-5.46875 q 8.39843,6.201172 16.16211,14.990239 z m -13.7207,40.57617 q 9.52149,-12.69532 17.48047,-32.86133 l 6.29883,5.07812 q -7.32422,19.14063 -17.08985,33.69141 z"></path>
</svg>
