<svg xmlns="http://www.w3.org/2000/svg" id="svg1" version="1.1" height="200" width="1096">
  <defs id="defs1"></defs>
  <rect id="rect1" stroke="none" fill="none" height="200" width="1096" y="0" x="0"></rect>
  <path aria-label="檜山地方" style="font-weight:bold;font-size:110px;font-family:'BIZ UDPGothic';fill:#ff0000" id="text1" d="m 55.429687,109.50195 q -1.77246,-5.96191 -4.941406,-10.419919 l 7.250977,-3.115234 q 3.544922,6.015623 5.371094,10.795903 z m 20.893555,-2.63183 q 3.330078,-5.26367 4.941406,-10.634768 l 7.573243,2.739257 Q 86.743164,104.3457 83.359375,109.50195 Z M 41.303711,88.71582 h 59.565429 v 28.25195 H 38.833008 v -7.35839 l -5.532227,9.66796 q -3.652344,-5.9082 -6.821289,-10.04394 v 51.24023 H 15.576172 V 111.91895 Q 11.494141,125.13184 5.2636719,136.67969 L 0.75195312,123.78906 Q 9.9902344,107.46094 14.233398,89.199219 14.448242,88.286133 14.663086,87.53418 H 2.7392578 V 77.060547 H 15.576172 V 55.952148 h 10.90332 v 21.108399 h 8.378906 v 3.652344 Q 52.260742,72.602539 63.217773,55.952148 h 11.762696 q 7.358398,8.862305 16.05957,15.039063 7.304688,5.102539 18.422851,10.043945 l -4.61914,9.560547 Q 93.295898,85.224609 84.165039,78.40332 v 5.263672 h -28.62793 v -4.672851 q -7.358398,5.800781 -14.233398,9.721679 z m -2.470703,1.342774 q -1.879883,0.966797 -3.652344,1.826172 L 32.387695,87.53418 h -5.908203 v 9.18457 q 0.322266,0.214844 0.644531,0.537109 5.371094,4.296871 11.708985,11.440431 z m 52.15332,19.765626 V 95.751953 h -17.1875 v 14.072267 z m -42.270508,0 H 65.205078 V 95.751953 H 48.71582 Z M 59.296875,75.771484 H 80.78125 Q 74.550781,70.615234 69.179687,64.975586 64.667969,70.883789 59.296875,75.771484 Z M 97.96875,122.28516 v 38.08105 H 87.06543 v -3.75976 H 52.851562 v 3.86718 H 42.109375 v -38.18847 z m -45.117188,7.35839 v 5.96192 H 87.06543 v -5.96192 z m 0,13.10547 v 6.06934 H 87.06543 v -6.06934 z m 117.841798,-4.72656 h 27.07031 V 78.94043 h 12.19238 v 80.62012 h -12.19238 v -9.88282 H 132.0752 v 9.88282 H 119.99023 V 78.94043 h 12.08497 v 59.08203 h 26.42578 V 57.026367 h 12.19238 z m 105.5957,-38.564452 v 42.539062 q 0,4.13574 3.54492,4.99512 3.65235,0.91308 16.70411,0.91308 12.72949,0 16.81152,-1.28906 2.30957,-0.75195 3.00781,-4.18945 0.91309,-4.83399 0.9668,-11.44043 l 11.22558,3.16894 Q 327.69043,150 324.19922,154.4043 q -2.30957,2.90039 -6.98242,3.4375 -7.3584,0.80566 -24.97559,0.80566 -13.64258,0 -17.88574,-0.75195 -6.3916,-1.07422 -8.11035,-5.63965 -0.85938,-2.41699 -0.85938,-6.44531 v -42.59278 l -10.25879,3.54493 -2.52441,-10.419927 12.7832,-4.404296 V 62.988281 h 10.90332 v 25.19043 l 11.54785,-3.920899 V 55.952148 h 10.7959 v 24.545899 l 17.99317,-6.176758 5.63964,3.4375 v 40.229491 q 0,4.18945 -1.9873,6.23047 -2.25586,2.25586 -7.57324,2.25586 -4.35059,0 -9.23828,-0.75195 l -1.77246,-10.25879 q 3.16894,0.80566 6.44531,0.80566 2.36328,0 2.90039,-0.9668 0.53711,-0.80566 0.53711,-2.68554 V 87.211914 l -12.94434,4.511719 v 43.452147 h -10.7959 V 95.429687 Z M 236.81152,81.894531 V 55.952148 h 11.54785 v 25.942383 h 10.41993 v 10.903321 h -10.41993 v 34.160158 q 5.63965,-1.9336 11.17188,-4.02832 l 1.02051,10.36621 q -17.40235,7.94922 -35.71778,13.32031 l -3.75976,-11.44043 q 8.27148,-2.14844 14.50195,-4.08203 0.75195,-0.26855 1.23535,-0.37598 V 92.797852 H 223.16895 V 81.894531 Z m 145.3418,3.007813 q -0.37598,8.969726 -1.07422,15.791016 h 43.29102 q -0.80567,37.27539 -4.18946,48.39355 -1.71875,5.58594 -6.3916,7.73438 -3.65234,1.66504 -10.68847,1.66504 -7.41211,0 -16.81153,-1.12793 l -2.09472,-12.08496 q 12.62207,1.77246 17.77832,1.77246 4.35058,0 5.53222,-2.4707 2.84668,-6.01563 3.97461,-33.19336 h -31.95801 q -1.77246,9.66796 -4.99511,16.75781 -8.96973,19.60449 -29.97071,31.09863 l -8.48632,-9.45312 q 21.05468,-10.95704 27.82226,-28.73536 4.51172,-11.87011 5.85449,-36.147456 H 334.18945 V 73.891602 h 43.88184 V 55.952148 h 12.40723 v 17.939454 h 45.33203 v 11.010742 z"></path>
</svg>
