<svg xmlns="http://www.w3.org/2000/svg" id="svg1" version="1.1" height="200" width="1096">
  <defs id="defs1"></defs>
  <rect id="rect1" stroke="none" fill="none" height="200" width="1096" y="0" x="0"></rect>
  <path aria-label="山梨県東部・富士五湖" style="font-weight:bold;font-size:110px;font-family:'BIZ UDPGothic';fill:#ff0000" id="text1" d="M 60.693359,138.02246 H 87.763672 V 78.94043 h 12.192383 v 80.62012 H 87.763672 v -9.88282 H 22.075195 v 9.88282 H 9.9902344 V 78.94043 H 22.075195 v 59.08203 H 48.500977 V 57.026367 H 60.693359 Z M 138.4668,89.84375 q -7.19727,10.74219 -18.58399,18.47656 l -6.82129,-7.68066 q 12.35352,-6.982423 21.16211,-18.369142 h -19.28222 v -8.701172 h 23.52539 v -6.28418 q -6.875,0.644531 -17.13379,1.12793 l -3.54492,-7.841797 q 25.19043,-1.611328 42.59277,-4.941406 l 5.15625,7.734375 q -8.70117,1.826172 -16.16699,2.739258 v 7.46582 h 20.24902 v 8.701172 h -20.24902 v 2.685547 q 10.15136,3.920898 20.1416,9.721679 l -6.28418,8.164066 q -6.3916,-4.833988 -13.05176,-8.701175 l -0.80566,-0.429688 V 110.41504 H 138.4668 Z m 42.00195,35.50293 q 15.36133,12.19238 37.75879,20.03418 l -7.14356,10.25879 q -25.51269,-10.84961 -40.60546,-27.39258 v 32.22656 h -11.65528 v -31.90429 l -0.32226,0.42968 q -15.14649,18.69141 -39.2627,28.52051 l -6.92871,-9.72168 q 22.34375,-7.73437 37.91992,-22.45117 h -37.49023 v -9.3457 h 46.08398 v -10.41993 h 11.65528 v 10.41993 h 46.72851 v 9.3457 z m -6.44531,-64.453125 h 11.44043 v 33.999023 h -11.44043 z m 24.86816,-4.082032 h 11.7627 v 43.989257 q 0,6.12305 -4.72657,7.68067 -2.14843,0.75195 -7.73437,0.75195 -5.74707,0 -11.60156,-0.59082 l -1.98731,-9.399416 q 6.49903,0.805666 11.22559,0.805666 2.25586,0 2.73926,-1.235353 0.32226,-0.805665 0.32226,-2.524415 z m 113.27637,1.772461 V 110.62988 H 248.25195 V 58.583984 Z m -52.36817,8.486328 v 6.713868 h 40.7129 v -6.713868 z m 0,14.28711 v 6.713867 h 40.7129 v -6.713867 z m 0,14.287109 v 6.928709 h 40.7129 v -6.928709 z m -21.6455,22.128909 h 89.05273 v 9.3457 h -44.41894 v 33.35449 H 270.5957 V 127.11914 H 226.3916 V 66.855469 h 11.7627 z m -13.75,32.4414 q 12.7832,-5.9082 24.43847,-19.81933 l 9.88282,5.74707 q -11.49414,14.55566 -25.5127,22.88086 z m 92.59765,6.92871 q -8.21777,-10.09765 -24.70703,-21.21582 l 9.23828,-6.49902 q 12.94434,7.46582 25.40528,19.60449 z m 85.61524,-31.58203 q 13.32031,11.87012 35.8789,19.17481 l -6.92871,10.09765 q -12.99804,-4.61914 -22.66601,-11.17187 -9.99024,-6.82129 -18.42285,-16.75781 v 33.56933 h -11.65528 v -32.97851 q -7.46582,10.47363 -19.28222,18.79883 -9.07715,6.3916 -19.44336,10.3125 l -7.3584,-9.45313 q 17.02636,-5.63965 28.41308,-15.2002 3.22266,-2.68554 6.55274,-6.3916 H 341.87012 V 81.572266 h 36.95312 V 74.321289 H 334.29687 V 64.65332 h 44.52637 v -8.701172 h 11.65528 v 8.701172 h 45.2246 v 9.667969 h -45.2246 v 7.250977 h 37.65136 V 125.56152 Z M 378.82324,90.595703 h -25.29785 v 8.701172 h 25.29785 z m 11.65528,0 v 8.701172 h 25.99609 v -8.701172 z m -11.65528,17.080077 h -25.29785 v 8.86231 h 25.29785 z m 11.65528,0 v 8.86231 h 25.99609 v -8.86231 z m 87.9248,-39.316405 h 22.98828 v 10.366211 h -7.57324 q -2.04102,8.217773 -5.47852,17.241211 h 14.34082 v 10.366213 h -59.9414 V 95.966797 h 13.15918 Q 453.75,85.654297 451.38672,78.725586 H 444.4043 V 68.359375 h 22.77343 V 55.952148 h 11.22559 z m -16.16699,10.366211 q 2.73926,8.00293 4.24316,17.241211 h 10.95703 l 0.53711,-1.503906 q 2.30957,-6.123047 4.29688,-13.911133 l 0.4834,-1.826172 z m 33.30078,36.630864 v 43.98925 h -11.01074 v -5.26367 H 461.1084 v 6.3916 h -11.33301 v -45.11718 z m -34.42871,9.88281 v 18.63769 h 23.41797 v -18.63769 z m 71.75781,-27.124026 q 6.3916,6.069336 10.15137,14.448246 3.70605,8.3789 3.70605,16.97265 0,7.94922 -2.9541,11.70899 -3.06152,3.9209 -10.09766,3.9209 -6.01562,0 -11.65527,-0.85938 l -2.63183,-11.44043 q 6.49902,1.18164 10.74218,1.18164 3.22266,0 4.02832,-1.5039 0.53711,-1.07422 0.53711,-4.29688 0,-13.2666 -7.94922,-22.88086 -2.09472,-2.52441 -5.26367,-5.424804 l 0.64453,-1.503906 q 5.58594,-12.62207 8.70118,-26.318359 h -13.75 V 160.47363 H 505.95703 V 61.000977 h 32.33399 l 5.96191,5.478515 q -5.42481,18.476563 -11.38672,31.635742 z m 44.74121,-2.041015 q 4.18945,0 7.57324,2.792968 4.45801,3.652343 4.45801,9.345703 0,3.49121 -1.9873,6.49902 -3.59864,5.58594 -10.20508,5.58594 -2.90039,0 -5.53223,-1.39648 -2.09472,-1.07422 -3.54492,-2.84668 -2.9541,-3.49121 -2.9541,-7.94922 0,-6.23047 5.20996,-9.882814 3.11523,-2.148437 6.98242,-2.148437 z M 665.63965,64.65332 h 43.2373 V 85.546875 H 697.3291 V 73.139648 H 622.61719 V 85.546875 H 611.06934 V 64.65332 h 42.70019 v -8.701172 h 11.87012 z m 28.35937,26.694336 V 112.61719 H 625.89355 V 91.347656 Z m -57.09472,7.250977 v 6.767577 h 46.08398 v -6.767577 z m 67.13867,18.637697 v 43.2373 h -11.44043 v -4.29687 h -65.25879 v 4.29687 h -11.44043 v -43.2373 z m -76.69922,7.89551 v 7.51953 h 26.74805 v -7.51953 z m 0,14.98535 v 8.00293 h 26.74805 v -8.00293 z m 65.25879,8.00293 v -8.00293 h -27.5 v 8.00293 z m 0,-15.46875 v -7.51953 h -27.5 v 7.51953 z M 627.12891,78.295898 h 65.68847 v 8.271485 H 627.12891 Z M 763.6084,85.869141 V 56.918945 h 12.08496 v 28.950196 h 46.56738 v 11.118164 h -46.56738 v 45.063475 h 41.14258 v 11.11817 H 723.21777 V 142.05078 H 763.6084 V 96.987305 H 717.73926 V 85.869141 Z M 879.78516,73.891602 q -0.0537,0.59082 -0.16114,1.450195 -1.07422,8.05664 -2.79297,17.509765 l -0.75195,4.135743 h 38.02735 v 45.869145 h 18.15429 v 10.79589 H 827.73926 v -10.79589 h 25.78125 q 4.02832,-13.96485 8.43261,-35.28809 H 840.41504 V 96.987305 h 23.5791 q 2.68555,-14.824219 3.54492,-23.095703 h -31.4209 V 63.310547 h 86.52832 v 10.581055 z m 22.02148,33.676758 h -27.66113 q -1.18164,6.23047 -1.71875,9.29199 -1.9336,10.68848 -5.69336,25.9961 h 35.07324 z m 113.70606,14.60937 q -0.752,12.56836 -3.0078,20.78614 -2.7393,9.93652 -8.7012,17.83203 l -7.8955,-7.41211 q 6.7139,-9.66797 8.8623,-22.61231 1.2354,-7.46582 1.2354,-16.81152 V 59.819336 h 33.5156 v 90.288084 q 0,5.10254 -2.3633,7.25098 -2.1484,1.9873 -7.5732,1.9873 -5.6934,0 -10.044,-0.64453 l -1.9873,-11.01074 q 5.6397,0.85937 9.5606,0.85937 1.9336,0 2.2558,-1.12793 0.1612,-0.64453 0.1612,-2.14843 v -23.09571 z m 0.1611,-9.77539 h 13.8575 V 95.859375 h -13.8575 z m 0,-26.318356 h 13.8575 V 70.292969 h -13.8575 z m -28.25193,-9.77539 h 15.68363 v 10.473633 h -15.68363 v 19.228513 h 11.70899 v 41.67969 h -24.5459 v 7.89551 h -9.77539 v -49.5752 H 976.7334 V 86.782227 H 960.5127 V 76.308594 h 16.2207 V 55.952148 h 10.68847 z m -12.83691,39.262696 v 22.45117 h 14.87793 V 115.57129 Z M 954.60449,80.175781 q -5.20996,-7.949219 -14.50195,-16.328125 l 8.21777,-7.573242 q 7.51953,5.908203 14.98535,15.522461 z m -2.52441,27.822269 Q 944.39941,97.739258 936.55762,91.025391 l 8.70117,-7.680664 q 8.27148,6.982421 15.25391,16.381835 z m -13.64258,45.06347 q 7.25098,-13.53515 14.17969,-38.72558 l 9.66797,5.63965 q -5.04883,21.6455 -13.42774,40.60546 z"></path>
</svg>
