<svg xmlns="http://www.w3.org/2000/svg" id="svg1" version="1.1" height="200" width="990">
  <defs id="defs1"></defs>
  <rect id="rect1" stroke="none" fill="none" height="200" width="990" y="0" x="0"></rect>
  <path aria-label="紋別地方" style="font-size:100px;font-family:'BIZ UDPGothic';fill:#ff0000" id="text1" d="m 88.378906,88.964844 q -3.125,22.998046 -14.208984,41.503906 9.912109,12.30469 24.511719,20.80078 l -4.6875,7.61719 Q 80.273437,150.24414 70.3125,137.89062 l -0.634766,-0.83007 Q 58.789062,151.51367 43.994141,159.47266 L 39.0625,153.17383 Q 54.589844,145.16602 65.087891,130.66406 53.271484,112.10938 49.365234,88.964844 H 42.285156 V 81.884766 H 65.087891 V 64.404297 h 7.714843 v 17.480469 h 24.511719 v 7.080078 z m -7.617187,0 H 56.445312 Q 59.863281,109.0332 69.53125,123.92578 78.076172,108.44727 80.761719,88.964844 Z M 17.578125,101.12305 Q 11.376953,92.382812 3.2714844,84.521484 l 4.6386718,-5.322265 q 1.5625001,1.5625 2.7343748,2.783203 l 0.585938,0.585937 Q 17.578125,74.21875 22.998047,64.501953 l 6.542969,3.90625 q -7.519532,11.474609 -14.111328,18.896484 3.515624,4.052735 6.640624,8.447266 7.373047,-9.130859 14.111329,-18.847656 l 5.859375,4.6875 q -11.865235,15.820312 -23.925782,27.929683 0.439453,-0.0488 0.830078,-0.0488 7.958985,-0.3418 18.359375,-1.5625 -1.708984,-4.44336 -3.564453,-8.105473 l 5.908203,-2.685546 q 3.710938,6.982419 8.007813,19.970699 l -6.396484,3.32032 q -0.927735,-3.36914 -2.09961,-7.12891 -3.320312,0.58594 -10.791015,1.61133 v 44.6289 h -7.177735 v -43.75 l -1.5625,0.14649 q -7.861328,0.83008 -15.4296873,1.26953 l -1.6113281,-6.98242 q 2.1484375,-0.0977 4.1503906,-0.14649 l 2.7832032,-0.14648 q 4.5898436,-4.6875 8.0566406,-8.78906 z M 3.4667969,148.0957 Q 7.4707031,137.30469 8.59375,122.60742 l 6.982422,0.78125 q -1.220703,17.13867 -5.175781,28.125 z m 33.8378901,-4.98047 q -1.660156,-11.32812 -4.443359,-19.53125 l 6.298828,-2.39257 q 3.173828,8.34961 4.931641,18.31054 z M 128.4668,100.58594 q 0,6.68945 -0.43946,12.59765 h 24.75586 q -0.58593,28.32032 -2.83203,37.5 -1.12305,4.58985 -4.05273,6.29883 -2.39258,1.41602 -7.08008,1.41602 -5.51758,0 -12.40234,-0.78125 l -1.12305,-7.71485 q 7.71484,1.31836 12.06055,1.31836 3.41796,0 4.49218,-1.5625 3.02735,-4.39453 3.32032,-29.0039 0,-0.48828 0,-0.97657 h -17.72461 q -1.17188,9.52149 -2.92969,15.13672 -4.54102,14.11133 -16.79688,23.97461 l -5.61523,-5.5664 q 12.45117,-9.42383 16.01562,-24.1211 2.53907,-10.54687 2.92969,-28.51562 H 108.69141 V 68.701172 h 43.01757 V 100.58594 Z M 116.21094,75.292969 v 18.798828 h 27.97851 V 75.292969 Z m 47.07031,-2.294922 h 7.91016 v 60.791013 h -7.91016 z m 21.28906,-5.908203 h 8.00781 v 81.933596 q 0,5.02929 -2.83203,7.1289 -2.4414,1.85547 -7.86132,1.85547 -6.5918,0 -14.30665,-0.68359 l -1.41601,-7.91016 q 8.78906,1.17188 14.84375,1.17188 2.73437,0 3.27148,-1.36719 0.29297,-0.83008 0.29297,-2.44141 z m 64.64844,36.132816 v 40.86914 q 0,4.05273 2.39258,4.98047 2.58789,0.97656 16.45508,0.97656 13.42773,0 17.38281,-0.92774 2.7832,-0.68359 3.56445,-3.22265 1.2207,-4.00391 1.26953,-12.40235 l 7.51953,2.78321 q -0.68359,13.23242 -3.51562,16.79687 -2.24609,2.92969 -7.27539,3.4668 -7.66602,0.78125 -20.75195,0.78125 -12.45118,0 -16.74805,-0.83008 -5.3711,-1.07422 -6.83594,-4.88281 -0.78125,-2.09961 -0.78125,-5.51758 v -40.38086 l -10.49805,3.56445 -1.90429,-6.98242 12.40234,-4.150389 v -26.5625 h 7.32422 v 24.072266 l 12.8418,-4.345703 V 64.501953 h 7.32422 v 24.365234 l 18.01757,-6.054687 4.39453,2.392578 v 35.986332 q 0,3.51562 -1.66015,5.32226 -1.95313,2.09961 -6.83594,2.09961 -3.95508,0 -7.71484,-0.53711 l -1.26953,-6.98242 q 3.71093,0.68359 6.93359,0.68359 2.44141,0 2.97852,-1.07421 0.39062,-0.73243 0.39062,-2.29493 V 91.113281 l -15.23437,5.175781 v 39.794918 h -7.32422 V 98.779297 Z M 216.50391,88.916016 V 65.136719 h 7.71484 v 23.779297 h 10.79102 v 7.177734 h -10.79102 v 34.96094 q 5.12695,-1.75782 11.71875,-4.44336 l 0.78125,6.88476 q -14.94141,6.88477 -32.03125,12.10938 l -2.7832,-7.61719 q 6.78711,-1.85547 14.59961,-4.3457 V 96.09375 h -13.28125 v -7.177734 z m 128.95507,0.04883 q 0,7.324218 -0.92773,17.041016 h 39.4043 q -0.6836,32.91016 -3.75977,43.60351 -1.26953,4.49219 -4.83398,6.34766 -3.02735,1.5625 -9.08203,1.5625 -8.39844,0 -15.33204,-0.92773 l -1.31836,-8.00782 q 10.15625,1.31836 16.3086,1.31836 4.05273,0 5.32226,-1.70898 1.07422,-1.46484 2.14844,-8.49609 1.5625,-9.96094 2.14844,-26.70899 h -31.93359 q -1.80665,11.37695 -5.76172,19.28711 -7.91016,15.91797 -26.02539,25.73242 l -5.61524,-6.29883 q 19.38477,-10.15625 25.58594,-26.36718 5.17578,-13.57422 5.56641,-36.376956 h -33.54493 v -7.177735 h 41.69922 V 64.501953 h 8.00781 v 17.285156 h 42.67579 v 7.177735 z"></path>
</svg>
