<svg xmlns="http://www.w3.org/2000/svg" id="svg1" version="1.1" height="200" width="990">
  <defs id="defs1"></defs>
  <rect id="rect1" stroke="none" fill="none" height="200" width="990" y="0" x="0"></rect>
  <path aria-label="福岡県筑豊地方" style="font-size:100px;font-family:'BIZ UDPGothic';fill:#ff0000" id="text1" d="m 25.537109,107.95898 q 7.617188,5.41993 14.306641,11.42579 l -4.541016,6.59179 q -3.710937,-4.24804 -9.765625,-9.81445 v 43.31055 h -7.617187 v -42.72461 q -6.005859,6.88476 -12.3046876,12.45117 l -4.0039063,-6.93359 q 9.8144529,-8.10547 17.6757809,-18.50586 5.908203,-7.812504 9.521485,-15.673833 H 3.6132813 V 81.005859 H 17.822266 V 64.501953 h 7.519531 v 16.503906 h 9.375 l 3.515625,3.90625 Q 33.740234,95.458984 25.537109,107.17773 Z M 89.404297,82.177734 V 106.68945 H 45.507812 V 82.177734 Z m -36.71875,6.00586 V 100.68359 H 81.884766 V 88.183594 Z M 94.53125,113.62305 v 45.84961 h -7.324219 v -4.58985 h -39.0625 v 4.58985 h -7.324219 v -45.84961 z m -46.386719,6.20117 v 11.08398 h 15.771485 v -11.08398 z m 0,17.08984 v 11.66992 h 15.771485 v -11.66992 z m 39.0625,11.66992 v -11.66992 h -16.40625 v 11.66992 z m 0,-17.67578 V 119.82422 H 70.800781 V 130.9082 Z M 39.013672,68.896484 h 57.27539 v 6.494141 H 39.013672 Z M 167.38281,133.98437 v -22.07031 h 7.08008 v 28.66211 h -42.28516 v 7.08008 H 125 v -35.74219 h 7.17773 v 22.07031 h 13.91602 v -29.68749 h -27.49023 v -6.591802 h 36.23046 q 5.0293,-8.203125 9.96094,-20.800781 l 7.56836,2.783203 q -4.49219,9.667969 -10.05859,18.017578 h 18.84765 v 6.591802 h -27.97851 v 29.68749 z m 25.48828,-65.380854 v 82.275394 q 0,4.49218 -2.88086,6.29882 -2.34375,1.51368 -7.86132,1.51368 -7.47071,0 -17.33399,-0.6836 l -1.80664,-7.51953 q 10.64453,1.02539 18.4082,1.02539 2.83204,0 3.36914,-1.31836 0.29297,-0.83008 0.29297,-2.29492 V 75.390625 h -70.16601 v 84.130855 h -7.71485 V 68.603516 Z M 134.76562,96.09375 q -3.95507,-8.935547 -8.30078,-15.087891 l 6.49414,-3.222656 q 4.88282,6.445313 8.74024,15.136719 z M 282.86133,67.578125 V 114.4043 H 225.78125 V 67.578125 Z m -49.36524,6.005859 v 7.714844 h 41.55274 v -7.714844 z m 0,13.330078 v 7.763672 h 41.55274 v -7.763672 z m 0,13.476568 v 8.30078 h 41.55274 v -8.30078 z M 214.4043,122.2168 h 83.05664 v 6.49414 h -41.99219 v 30.81054 h -7.91016 V 128.71094 H 206.5918 V 74.267578 h 7.8125 z m -9.22852,29.6875 q 12.79297,-6.15235 23.0957,-19.28711 l 6.5918,3.66211 q -10.40039,13.62304 -24.07226,21.72851 z m 84.17969,4.10156 q -10.25391,-11.18164 -23.29102,-19.82422 l 6.00586,-4.49219 q 11.76758,7.37305 23.68164,18.79883 z m 44.6289,-73.730469 q 3.22266,5.46875 5.7129,11.71875 l -7.42188,2.490234 q -2.39258,-6.787109 -6.39648,-14.208984 h -6.25 q -4.6875,8.83789 -11.42579,15.625 l -5.51757,-5.517579 q 6.39648,-5.859375 10.5957,-14.501953 2.63672,-5.419922 5.12695,-13.476562 l 7.56836,1.660156 q -1.66015,5.664063 -3.27148,9.619141 h 25.78125 v 6.591797 z m 40.72266,0 q 3.125,4.394531 6.39649,10.839843 l -7.32422,2.88086 q -3.56446,-7.958985 -7.17774,-13.720703 h -6.20117 q -3.71094,7.910156 -8.88672,14.30664 l -6.00586,-4.589844 q 9.17969,-11.132812 12.89063,-27.58789 l 7.61718,1.269531 q -1.17187,4.785156 -2.97851,10.009766 h 32.66601 v 6.591797 z M 326.9043,108.10547 v 28.51562 q 8.39843,-3.22265 14.30664,-5.81054 l 1.07422,6.29882 q -16.69922,8.25196 -36.71875,14.69727 l -3.17383,-7.32422 q 7.03125,-1.80664 16.89453,-5.12695 v -31.25 h -15.38086 v -6.68945 h 37.20703 v 6.68945 z m 55.81054,-9.082033 v 48.388673 q 0,1.5625 0.6836,2.05078 0.63476,0.43945 2.92968,0.43945 2.97852,0 3.8086,-1.17187 1.36719,-1.9043 1.46484,-13.52539 l 6.68946,3.125 q -0.3418,12.64648 -2.44141,16.01562 -2.09961,3.32032 -9.42383,3.32032 -6.44531,0 -8.59375,-1.12305 -2.53906,-1.31836 -2.53906,-5.95703 v -44.97071 h -20.89844 v 16.79688 q 0,11.57226 -2.73437,19.14062 -3.66211,10.10743 -14.89258,18.55469 l -6.10352,-5.81055 q 6.73828,-4.58984 10.00977,-8.78906 6.39648,-8.10547 6.39648,-23.0957 V 99.023437 Z m -13.81836,42.578123 q -6.10351,-14.20898 -13.18359,-24.41406 l 4.58984,-4.58984 q 6.73829,8.98437 13.76954,23.19336 z m 66.01563,-69.580076 v -7.519531 h 7.37305 v 7.519531 h 14.79492 v -7.519531 h 7.32422 v 7.519531 h 22.90039 V 105.0293 H 412.59766 V 72.021484 Z m -15.03906,5.517578 v 8.154297 h 15.03906 v -8.154297 z m 0,13.330079 v 8.642578 h 15.03906 v -8.642578 z m 60.00976,8.642578 V 90.869141 H 464.4043 v 8.642578 z m 0,-13.81836 V 77.539062 H 464.4043 v 8.154297 z m -37.59765,-8.154297 v 8.154297 h 14.79492 v -8.154297 z m 0,13.330079 v 8.642578 h 14.79492 v -8.642578 z m 42.52929,30.908199 v 19.4336 h -10.64453 q -2.19726,5.02929 -5.07812,9.47265 h 28.41797 v 6.00586 h -95.01954 v -6.00586 h 27.05079 q -2.05079,-4.73632 -4.93165,-9.47265 h -9.61914 v -19.4336 z m -61.8164,5.61524 v 8.20312 h 53.80859 v -8.20312 z m 10.35156,13.81836 q 2.63672,4.44336 4.44336,9.47265 h 23.04687 q 2.14844,-3.71093 4.63868,-9.47265 z m -29.54102,-30.81055 h 92.38282 v 5.71289 h -92.38282 z m 145.41016,-7.17773 v 40.86914 q 0,4.05273 2.39258,4.98047 2.58789,0.97656 16.45508,0.97656 13.42773,0 17.38281,-0.92774 2.7832,-0.68359 3.56445,-3.22265 1.2207,-4.00391 1.26953,-12.40235 l 7.51953,2.78321 q -0.68359,13.23242 -3.51562,16.79687 -2.24609,2.92969 -7.27539,3.4668 -7.66602,0.78125 -20.75195,0.78125 -12.45118,0 -16.74805,-0.83008 -5.3711,-1.07422 -6.83594,-4.88281 -0.78125,-2.09961 -0.78125,-5.51758 v -40.38086 l -10.49805,3.56445 -1.90429,-6.98242 12.40234,-4.150389 v -26.5625 h 7.32422 v 24.072266 l 12.8418,-4.345703 V 64.501953 h 7.32422 v 24.365234 l 18.01757,-6.054687 4.39453,2.392578 v 35.986332 q 0,3.51562 -1.66015,5.32226 -1.95313,2.09961 -6.83594,2.09961 -3.95508,0 -7.71484,-0.53711 l -1.26953,-6.98242 q 3.71093,0.68359 6.93359,0.68359 2.44141,0 2.97852,-1.07421 0.39062,-0.73243 0.39062,-2.29493 V 91.113281 l -15.23437,5.175781 v 39.794918 h -7.32422 V 98.779297 Z M 516.50391,88.916016 V 65.136719 h 7.71484 v 23.779297 h 10.79102 v 7.177734 h -10.79102 v 34.96094 q 5.12695,-1.75782 11.71875,-4.44336 l 0.78125,6.88476 q -14.94141,6.88477 -32.03125,12.10938 l -2.7832,-7.61719 q 6.78711,-1.85547 14.59961,-4.3457 V 96.09375 h -13.28125 v -7.177734 z m 128.95507,0.04883 q 0,7.324218 -0.92773,17.041016 h 39.4043 q -0.6836,32.91016 -3.75977,43.60351 -1.26953,4.49219 -4.83398,6.34766 -3.02735,1.5625 -9.08203,1.5625 -8.39844,0 -15.33204,-0.92773 l -1.31836,-8.00782 q 10.15625,1.31836 16.3086,1.31836 4.05273,0 5.32226,-1.70898 1.07422,-1.46484 2.14844,-8.49609 1.5625,-9.96094 2.14844,-26.70899 h -31.93359 q -1.80665,11.37695 -5.76172,19.28711 -7.91016,15.91797 -26.02539,25.73242 l -5.61524,-6.29883 q 19.38477,-10.15625 25.58594,-26.36718 5.17578,-13.57422 5.56641,-36.376956 h -33.54493 v -7.177735 h 41.69922 V 64.501953 h 8.00781 v 17.285156 h 42.67579 v 7.177735 z"></path>
</svg>
