<svg xmlns="http://www.w3.org/2000/svg" id="svg1" version="1.1" height="200" width="990">
  <defs id="defs1"></defs>
  <rect id="rect1" stroke="none" fill="none" height="200" width="990" y="0" x="0"></rect>
  <path aria-label="岩手県沖" style="font-size:100px;font-family:'BIZ UDPGothic';fill:#ff0000" id="text1" d="m 31.640625,122.50977 h 56.054687 v 37.01171 h -7.910156 v -5.61523 H 29.101562 v 5.61523 h -7.8125 v -26.66015 q -6.103515,5.22461 -14.4042964,10.2539 L 1.9042969,137.10937 Q 22.65625,125.73242 32.861328,108.10547 H 2.4902344 v -6.68945 H 97.509766 v 6.68945 H 41.650391 q -4.248047,7.42187 -10.009766,14.4043 z m -2.539063,6.49414 v 18.50586 H 79.785156 V 129.00391 Z M 53.710937,84.716797 H 80.078125 V 69.140625 h 7.714844 V 91.210937 H 12.597656 V 69.140625 H 20.3125 V 84.716797 H 45.996094 V 64.501953 h 7.714843 z M 155.07812,76.855469 v 17.96875 h 36.47461 v 6.982421 h -36.47461 v 16.79688 h 42.38282 v 6.98242 H 155.07812 V 150 q 0,5.07812 -2.92968,7.08008 -2.34375,1.61133 -7.95899,1.61133 -9.08203,0 -17.04101,-0.87891 l -1.46485,-7.91016 q 11.23047,1.31836 17.33399,1.31836 2.97851,0 3.61328,-1.36718 0.3418,-0.73243 0.3418,-2.14844 v -22.11914 h -44.48243 v -6.98242 h 44.48243 V 101.80664 H 107.4707 v -6.982421 h 39.50196 V 77.929687 q -17.96875,2.148438 -33.88672,3.076172 l -3.125,-6.787109 q 38.7207,-1.953125 70.41015,-8.886719 l 4.78516,6.103516 q -14.4043,3.320312 -30.07813,5.419922 z M 282.86133,67.578125 V 114.4043 H 225.78125 V 67.578125 Z m -49.36524,6.005859 v 7.714844 h 41.55274 v -7.714844 z m 0,13.330078 v 7.763672 h 41.55274 v -7.763672 z m 0,13.476568 v 8.30078 h 41.55274 v -8.30078 z M 214.4043,122.2168 h 83.05664 v 6.49414 h -41.99219 v 30.81054 h -7.91016 V 128.71094 H 206.5918 V 74.267578 h 7.8125 z m -9.22852,29.6875 q 12.79297,-6.15235 23.0957,-19.28711 l 6.5918,3.66211 q -10.40039,13.62304 -24.07226,21.72851 z m 84.17969,4.10156 q -10.25391,-11.18164 -23.29102,-19.82422 l 6.00586,-4.49219 q 11.76758,7.37305 23.68164,18.79883 z M 358.69141,85.302734 V 64.501953 h 7.71484 v 20.800781 h 27.7832 v 40.478516 h -27.7832 v 33.69141 h -7.71484 v -33.69141 h -26.9043 V 85.302734 Z m -19.38477,6.982422 v 26.513674 h 19.38477 V 92.285156 Z m 47.26563,26.513674 V 92.285156 H 366.40625 V 118.79883 Z M 321.77734,86.621094 q -6.54297,-8.34961 -15.2832,-15.527344 l 5.32227,-5.273438 q 8.30078,6.201172 15.67382,14.990235 z m -3.66211,25.488286 q -7.66601,-8.8379 -15.91796,-15.527349 l 5.41992,-5.46875 q 8.39843,6.201172 16.16211,14.990239 z m -13.7207,40.57617 q 9.52149,-12.69532 17.48047,-32.86133 l 6.29883,5.07812 q -7.32422,19.14063 -17.08985,33.69141 z"></path>
</svg>
