<svg xmlns="http://www.w3.org/2000/svg" id="svg1" version="1.1" height="200" width="1096">
  <defs id="defs1"></defs>
  <rect id="rect1" stroke="none" fill="none" height="200" width="1096" y="0" x="0"></rect>
  <path aria-label="福島県中通り" style="font-weight:bold;font-size:110px;font-family:'BIZ UDPGothic';fill:#ff0000" id="text1" d="m 29.970703,103.37891 q 7.143555,4.9414 13.374024,10.68847 v -4.35058 h 61.176753 v 50.75683 H 93.725586 v -4.51172 H 54.248047 v 4.51172 h -10.90332 v -45.00976 l -5.585938,8.8623 q -3.974609,-4.72656 -7.788086,-8.43262 v 44.58008 H 18.637695 v -43.98925 q -6.391601,7.19726 -11.8164059,12.24609 L 1.2353516,118.52539 Q 19.282227,102.73438 28.520508,83.881836 H 3.6523438 V 73.193359 H 18.154297 V 55.952148 h 11.44043 v 17.241211 h 8.271484 l 4.941406,5.15625 Q 37.758789,89.951172 29.970703,101.60645 Z m 24.277344,15.03906 v 9.99023 h 14.555664 v -9.99023 z m 0,18.26172 V 147.0459 H 68.803711 V 136.67969 Z M 93.725586,147.0459 V 136.67969 H 78.686523 v 10.36621 z m 0,-18.6377 v -9.99023 H 78.686523 v 9.99023 z M 99.365234,76.201172 V 103.48633 H 48.071289 V 76.201172 Z m -40.498047,8.271484 v 10.84961 H 88.24707 V 84.472656 Z M 41.733398,60.356445 H 106.0791 v 9.345703 H 41.733398 Z m 110.859372,3.759766 q 1.98731,-4.780274 3.22266,-9.130859 l 13.10547,1.77246 q -1.87988,4.458008 -3.4375,7.358399 h 35.77148 v 35.019531 h -64.88281 v 5.424808 h 80.83496 v 8.70117 h -80.83496 v 5.47851 h 77.0752 q -0.69825,24.59961 -3.11524,33.19336 -1.55762,5.47852 -5.85449,7.25098 -3.06152,1.28906 -9.3457,1.28906 -6.44532,0 -12.03125,-0.80566 l -2.14844,-9.02344 h -53.81836 v 5.96192 h -11.54785 v -25.83497 h 11.54785 v 11.06446 h 18.47656 v -14.50196 h -21.1084 V 64.116211 Z m 22.82715,77.719729 v -11.06446 h 11.11817 v 18.69141 q 4.458,0.42969 7.41211,0.42969 3.65234,0 4.56542,-2.09473 1.77247,-3.9209 2.79297,-20.46387 H 157.1582 v 14.50196 z M 136.37207,72.387695 v 5.317383 h 53.0127 v -5.317383 z m 0,12.998047 v 5.854492 h 53.0127 V 85.385742 Z M 312.16797,58.583984 V 110.62988 H 248.25195 V 58.583984 Z m -52.36817,8.486328 v 6.713868 h 40.7129 v -6.713868 z m 0,14.28711 v 6.713867 h 40.7129 v -6.713867 z m 0,14.287109 v 6.928709 h 40.7129 v -6.928709 z m -21.6455,22.128909 h 89.05273 v 9.3457 h -44.41894 v 33.35449 H 270.5957 V 127.11914 H 226.3916 V 66.855469 h 11.7627 z m -13.75,32.4414 q 12.7832,-5.9082 24.43847,-19.81933 l 9.88282,5.74707 q -11.49414,14.55566 -25.5127,22.88086 z m 92.59765,6.92871 q -8.21777,-10.09765 -24.70703,-21.21582 l 9.23828,-6.49902 q 12.94434,7.46582 25.40528,19.60449 z M 378.6084,75.664062 V 55.952148 h 12.08496 v 19.711914 h 39.85351 v 56.826168 h -11.87011 v -7.46582 h -27.9834 v 35.44922 H 378.6084 v -35.44922 h -27.28516 v 8.05664 H 339.45312 V 75.664062 Z M 351.32324,86.674805 V 114.01367 H 378.6084 V 86.674805 Z m 67.35352,27.338865 V 86.674805 h -27.9834 v 27.338865 z m 49.95117,21.64551 q 10.41992,11.76269 33.78418,11.76269 h 46.62109 q -2.09472,3.65235 -3.65234,10.47364 h -43.39844 q -17.88574,0 -27.66113,-5.3711 -4.61914,-2.57812 -10.20508,-8.48632 l -0.21484,0.26855 q -7.68067,9.77539 -15.62989,16.2207 l -6.17675,-11.01074 q 8.43261,-5.63965 15.09277,-11.17187 v -26.90918 h -14.44824 v -10.58106 h 25.88867 z m 50.16602,-53.979493 h 21.86035 v 51.562503 q 0,5.69336 -2.47071,7.62695 -1.93359,1.50391 -6.76757,1.50391 -5.63965,0 -11.11817,-0.64453 l -1.87988,-8.8086 q 4.88769,0.64453 9.29199,0.64453 1.66504,0 1.98731,-0.69824 0.26855,-0.53711 0.26855,-1.93359 v -8.8086 h -16.16699 v 18.36914 h -10.20508 v -18.36914 h -15.62988 v 19.81934 H 477.27539 V 81.679687 h 26.31836 q -8.00293,-4.61914 -16.27441,-8.378906 l 6.33789,-5.585937 H 477.38281 V 58.90625 h 55.10742 l 5.63965,5.961914 Q 527.17285,73.569336 515.625,79.584961 l 0.85937,0.59082 0.85938,0.53711 q 0.85937,0.59082 1.4502,0.966796 z m -4.99512,8.056641 v 8.432617 h 16.16699 v -8.432617 z m -25.83496,0 v 8.432617 h 15.62988 v -8.432617 z m 20.1416,-14.87793 q 6.23047,-3.168945 12.08496,-7.143554 h -25.78125 q 5.53223,2.416992 12.51465,6.445312 z m -20.1416,30.991212 v 8.48633 h 15.62988 v -8.48633 z m 42.00195,8.48633 v -8.48633 h -16.16699 v 8.48633 z M 461.69922,86.191406 Q 454.50195,74.428711 444.94141,64.65332 l 9.02343,-6.821289 q 8.37891,7.573242 17.29493,20.463867 z m 132.55859,19.013674 q -5.37109,10.04394 -11.01074,15.09277 -4.83398,4.35059 -8.8623,4.35059 -5.15625,0 -8.3252,-6.98242 -3.27637,-7.30469 -3.27637,-22.880864 0,-15.683594 3.65235,-33.999023 l 11.76269,1.772461 q -3.54492,18.154297 -3.54492,30.722656 0,16.91895 2.41699,16.91895 0.91309,0 3.11524,-2.57813 3.4375,-3.86719 7.25097,-11.386718 z m -8.16406,42.05566 q 16.48926,-4.61914 24.86816,-13.80371 10.25879,-11.22558 10.25879,-33.945311 0,-17.241211 -3.33008,-38.725586 l 12.29981,-1.181641 q 3.54492,21.699219 3.54492,40.444338 0,30.40039 -15.62988,43.77441 -9.50684,8.16406 -25.62012,13.53516 z"></path>
</svg>
