<svg xmlns="http://www.w3.org/2000/svg" id="svg1" version="1.1" height="200" width="1096">
  <defs id="defs1"></defs>
  <rect id="rect1" stroke="none" fill="none" height="200" width="1096" y="0" x="0"></rect>
  <path aria-label="サハリン近海" style="font-weight:bold;font-size:110px;font-family:'BIZ UDPGothic';fill:#ff0000" id="text1" d="M 69.448242,59.335937 H 81.533203 V 81.035156 H 103.07129 V 92.045898 H 81.533203 v 3.383789 q 0,27.392583 -7.841797,41.142583 -7.573242,13.21289 -26.694336,20.24902 l -7.519531,-9.56055 q 18.691406,-6.44531 25.029297,-19.87304 4.941406,-10.36622 4.941406,-31.79688 V 92.045898 H 36.845703 V 122.82227 H 24.760742 V 92.045898 H 4.7265625 V 81.035156 H 24.760742 V 60.141602 h 12.084961 v 20.893554 h 32.602539 z m 42.324218,84.702153 q 9.3457,-13.75 16.05957,-33.67676 7.30469,-21.806643 9.23828,-44.311525 l 12.29981,2.524414 q -4.78028,32.978511 -12.83692,55.429691 -5.80078,16.32812 -14.28711,28.62793 z m 87.76367,9.13086 q -9.72168,-16.167 -17.6709,-38.94043 -7.57324,-21.591801 -12.35351,-45.761723 l 11.54785,-3.598633 q 9.23828,46.459966 29.16504,80.190426 z m 28.14453,-92.705083 h 12.51465 v 58.759763 h -12.51465 z m 55.16114,-1.12793 h 12.51465 v 38.403321 q 0,20.249022 -3.27637,30.131832 -2.73926,8.43262 -7.46582,13.42774 -9.8291,10.58105 -31.58203,15.62988 l -6.17676,-11.01074 q 23.79394,-4.83399 30.50781,-16.05957 4.24317,-7.14356 5.10254,-18.04688 0.37598,-5.04882 0.37598,-13.96484 z m 72.08007,28.842774 Q 337.94922,80.605469 319.63379,76.040039 l 3.75976,-11.547852 q 21.21582,4.833985 35.61036,12.03125 z m -33.94531,53.442379 q 26.58692,-2.25586 40.71289,-9.50683 16.65039,-8.59375 25.56641,-26.37207 5.80078,-11.494143 9.39941,-30.078128 l 10.3125,7.573243 q -4.35058,19.873045 -10.52734,31.582035 -11.17188,21.32324 -34.16016,30.88378 -14.50195,6.01563 -38.77929,8.59375 z m 121.87012,-5.58593 q 4.29687,4.99511 9.66797,7.41211 8.80859,3.9746 23.0957,3.9746 h 45.76172 q -1.93359,3.65235 -3.59863,10.47364 h -42.7002 q -18.47656,0 -28.30566,-5.80078 -4.02832,-2.417 -8.86231,-7.89551 -0.37597,0.42969 -0.91308,1.07422 -7.89551,9.3457 -15.6836,15.2539 l -6.49902,-11.01074 q 8.54004,-5.10254 16.48926,-11.54785 v -26.5332 h -15.62988 v -10.58106 h 27.17773 z m 13.96484,-71.274418 2.84668,-0.214844 q 24.86817,-1.71875 44.6875,-7.358398 l 8.37891,9.453125 q -20.83984,5.478516 -44.47266,7.412109 v 13.911133 h 49.73633 V 98.4375 h -18.04687 v 43.77441 H 488.07129 V 98.4375 h -19.81934 q -0.26855,17.24121 -2.57812,27.44629 -2.09473,9.39941 -6.875,16.86523 l -9.88281,-7.46582 q 5.31738,-8.27148 6.82128,-20.51757 1.07422,-8.43262 1.07422,-22.934575 z M 436.93848,85.761719 Q 428.7207,74.160156 419.21387,64.975586 l 8.80859,-7.036133 q 9.23828,7.734375 18.58399,19.658203 z M 620.2002,85.117187 q 0,2.524415 -0.4834,23.955083 h 10.25879 v 9.66796 h -10.47364 q -0.16113,7.03614 -0.69824,15.95215 h 9.07715 v 9.45313 h -9.77539 q -0.64453,7.78808 -1.77246,10.3125 -2.52442,6.01562 -12.2461,6.01562 -6.23046,0 -11.49414,-0.91308 L 590.60547,150 q 7.57324,1.07422 11.60156,1.07422 3.27637,0 3.9209,-2.30957 0.32227,-1.12793 0.59082,-4.61914 h -38.24219 q -0.0537,0.42969 -0.16113,0.91308 -0.4834,2.84668 -0.91309,5.3711 l -11.11816,-1.07422 q 3.27637,-19.38965 4.4043,-29.32617 l 0.16113,-1.28907 h -10.74219 v -9.66796 h 11.87012 q 1.50391,-12.998051 2.57812,-23.955083 z m -33.94532,9.345704 h -11.76269 q -0.16114,2.739257 -0.9668,11.547849 l -0.32227,3.06153 h 11.92383 l 0.16114,-1.50391 q 0.10742,-1.55762 0.32226,-4.35059 0.53711,-7.519528 0.64453,-8.754879 z m 10.58106,0 q -0.26856,6.391599 -0.80567,14.125979 v 0.4834 h 12.62207 q 0.21485,-7.3584 0.37598,-14.609379 z m -12.56836,24.277339 h -12.08496 q -0.80567,6.55274 -1.71875,12.94434 l -0.42969,3.00781 h 12.56836 q 1.28906,-11.65527 1.66504,-15.95215 z m 11.01074,0 q -0.16113,2.14844 -0.64453,7.08985 l -0.85938,8.8623 h 13.69629 q 0.26856,-5.20996 0.42969,-7.84179 0.32227,-5.74707 0.42969,-8.11036 z M 574.22363,65.727539 h 51.88477 v 9.990234 h -56.34278 q -4.35058,8.862305 -11.06445,16.865235 l -7.68066,-8.378906 Q 561.60156,71.796875 566.05957,55.629883 L 577.5,56.811523 q -1.93359,5.585938 -3.27637,8.916016 z m -29.59472,15.629883 q -6.60645,-9.077149 -16.05957,-17.026367 l 8.11035,-7.841797 q 8.75488,6.445312 16.65039,16.274414 z M 540.76172,109.7168 Q 532.59766,99.243164 524.27246,92.15332 l 8.37891,-8.05664 q 9.3457,7.358398 16.81152,16.75781 z m -14.60938,42.16308 q 9.34571,-12.94433 17.72461,-34.10644 l 9.56055,6.82129 q -6.98242,19.55078 -17.93945,35.8789 z"></path>
</svg>
