<svg xmlns="http://www.w3.org/2000/svg" id="svg1" version="1.1" height="200" width="1096">
  <defs id="defs1"></defs>
  <rect id="rect1" stroke="none" fill="none" height="200" width="1096" y="0" x="0"></rect>
  <path aria-label="佐賀県南部" style="font-weight:bold;font-size:110px;font-family:'BIZ UDPGothic';fill:#ff0000" id="text1" d="M 26.479492,130.39551 Q 36.416016,119.65332 44.741211,101.82129 48.125,94.570312 51.079102,83.774414 H 32.763672 V 73.085937 H 53.603516 Q 55.698242,62.93457 56.71875,55.361328 l 11.708984,1.772461 q -1.074218,7.412109 -2.846679,15.952148 H 105.48828 V 83.774414 H 63.056641 l -0.375977,1.342773 q -3.168945,11.870118 -7.304687,21.430663 h 45.708003 v 10.09766 H 78.417969 v 28.84277 h 28.789061 v 10.68848 H 36.040039 V 145.48828 H 66.547852 V 116.64551 H 50.43457 q -7.680664,13.96484 -16.811523,23.31054 l -7.143555,-8.59375 v 29.32618 H 15.039063 v -55.32227 q -3.598633,6.23047 -8.7011724,13.37402 L 0.96679688,106.7627 Q 9.6679688,94.570312 15.898438,78.081055 19.443359,68.735352 23.310547,55.146484 l 11.44043,2.84668 q -3.920899,13.535156 -8.271485,24.0625 z M 124.77051,93.549805 h 80.51269 v 47.749025 h -21.32324 q 16.75781,3.9209 32.65625,10.58105 l -7.94922,8.96973 q -17.13379,-7.68066 -35.18066,-13.15918 l 5.4248,-6.3916 h -30.34668 l 7.08985,6.06933 q -15.79102,8.70118 -35.28809,14.28711 l -7.25098,-9.77539 q 16.86524,-3.38379 32.22657,-10.58105 h -20.57129 z m 68.64258,7.465825 H 136.5332 v 5.74707 h 56.87989 z m -56.87989,13.10546 v 5.96192 h 56.87989 v -5.96192 z m 0,13.21289 v 6.17676 h 56.87989 v -6.17676 z M 155.27832,71.044922 H 143.4082 q -4.08203,15.092773 -25.35156,22.988281 l -6.3916,-8.378906 q 16.11328,-4.082031 20.19531,-14.609375 H 115.4248 v -8.486328 h 18.04688 l 0.64453,-6.606446 h 11.33301 l -0.64453,6.606446 h 21.43066 q -0.85937,15.844726 -2.25586,20.302734 -1.5039,4.56543 -4.72656,5.908203 -2.41699,0.966797 -6.875,0.966797 -4.8877,0 -10.7959,-0.805664 l -1.45019,-8.432617 q 5.53222,0.966797 8.8623,0.966797 3.54492,0 4.45801,-1.557617 0.53711,-0.859375 1.18164,-4.887696 z M 212.21191,61.000977 V 89.199219 H 171.49902 V 61.000977 Z m -30.23925,8.59375 v 11.118164 h 19.33593 V 69.594727 Z M 312.16797,58.583984 V 110.62988 H 248.25195 V 58.583984 Z m -52.36817,8.486328 v 6.713868 h 40.7129 v -6.713868 z m 0,14.28711 v 6.713867 h 40.7129 v -6.713867 z m 0,14.287109 v 6.928709 h 40.7129 v -6.928709 z m -21.6455,22.128909 h 89.05273 v 9.3457 h -44.41894 v 33.35449 H 270.5957 V 127.11914 H 226.3916 V 66.855469 h 11.7627 z m -13.75,32.4414 q 12.7832,-5.9082 24.43847,-19.81933 l 9.88282,5.74707 q -11.49414,14.55566 -25.5127,22.88086 z m 92.59765,6.92871 q -8.21777,-10.09765 -24.70703,-21.21582 l 9.23828,-6.49902 q 12.94434,7.46582 25.40528,19.60449 z m 62.03614,-36.63085 h -22.23633 v -8.8086 h 10.74219 q -2.417,-5.47851 -5.47852,-10.20508 l 9.66797,-3.544918 q 4.18945,7.036128 6.76758,13.749998 h 12.62207 q 3.16894,-6.49902 5.58593,-13.964842 l 10.7959,3.383792 q -2.73926,5.9082 -5.80078,10.58105 h 11.54785 v 8.8086 h -22.98828 v 7.84179 h 24.49219 v 9.13086 h -24.49219 v 20.30274 h -11.22558 v -20.30274 h -23.57911 v -9.13086 h 23.57911 z m 11.54785,-33.085942 h 40.71289 v 62.788082 q 0,5.53223 -2.9541,7.78809 -2.47071,1.93359 -8.3252,1.93359 -7.57324,0 -14.60937,-0.80566 l -2.63184,-10.7959 q 9.39941,1.12793 14.07227,1.12793 1.93359,0 2.25586,-0.9668 0.21484,-0.59082 0.21484,-1.66504 V 96.772461 H 350.67871 V 160.47363 H 338.70117 V 87.426758 h 40.01465 v -9.72168 h -45.97656 v -9.990234 h 45.97656 V 55.952148 h 11.87012 v 11.762696 h 46.62109 v 9.990234 h -46.62109 z m 87.81738,-19.067383 h 22.98828 v 10.366211 h -7.57324 q -2.04102,8.217773 -5.47852,17.241211 h 14.34082 v 10.366213 h -59.9414 V 95.966797 h 13.15918 Q 453.75,85.654297 451.38672,78.725586 H 444.4043 V 68.359375 h 22.77343 V 55.952148 h 11.22559 z m -16.16699,10.366211 q 2.73926,8.00293 4.24316,17.241211 h 10.95703 l 0.53711,-1.503906 q 2.30957,-6.123047 4.29688,-13.911133 l 0.4834,-1.826172 z m 33.30078,36.630864 v 43.98925 h -11.01074 v -5.26367 H 461.1084 v 6.3916 h -11.33301 v -45.11718 z m -34.42871,9.88281 v 18.63769 h 23.41797 v -18.63769 z m 71.75781,-27.124026 q 6.3916,6.069336 10.15137,14.448246 3.70605,8.3789 3.70605,16.97265 0,7.94922 -2.9541,11.70899 -3.06152,3.9209 -10.09766,3.9209 -6.01562,0 -11.65527,-0.85938 l -2.63183,-11.44043 q 6.49902,1.18164 10.74218,1.18164 3.22266,0 4.02832,-1.5039 0.53711,-1.07422 0.53711,-4.29688 0,-13.2666 -7.94922,-22.88086 -2.09472,-2.52441 -5.26367,-5.424804 l 0.64453,-1.503906 q 5.58594,-12.62207 8.70118,-26.318359 h -13.75 V 160.47363 H 505.95703 V 61.000977 h 32.33399 l 5.96191,5.478515 q -5.42481,18.476563 -11.38672,31.635742 z"></path>
</svg>
